  0
SECTION
  2
HEADER
  9
$ACADVER
  1
AC1009
  9
$INSBASE
 10
0.0
 20
0.0
 30
0.0
  9
$EXTMIN
 10
-0.0091545749561419
 20
-0.0053401687244445
 30
-0.0015258207003583
  9
$EXTMAX
 10
300.00915597194012
 20
175.0053409836317
 30
0.0000000349246037
  9
$LIMMIN
 10
0.0
 20
0.0
  9
$LIMMAX
 10
300.0
 20
175.0
  9
$ORTHOMODE
 70
     0
  9
$REGENMODE
 70
     1
  9
$FILLMODE
 70
     1
  9
$QTEXTMODE
 70
     0
  9
$MIRRTEXT
 70
     0
  9
$DRAGMODE
 70
     2
  9
$LTSCALE
 40
16.5
  9
$OSMODE
 70
    37
  9
$ATTMODE
 70
     1
  9
$TEXTSIZE
 40
0.2
  9
$TRACEWID
 40
0.05
  9
$TEXTSTYLE
  7
STANDARD
  9
$CLAYER
  8
0
  9
$CELTYPE
  6
ByLayer
  9
$CECOLOR
 62
   256
  9
$DIMSCALE
 40
1.0
  9
$DIMASZ
 40
4.0
  9
$DIMEXO
 40
1.587499999999999
  9
$DIMDLI
 40
11.4
  9
$DIMRND
 40
0.0
  9
$DIMDLE
 40
0.0
  9
$DIMEXE
 40
1.587499999999999
  9
$DIMTP
 40
0.0
  9
$DIMTM
 40
0.0
  9
$DIMTXT
 40
2.0
  9
$DIMCEN
 40
2.7000000000000002
  9
$DIMTSZ
 40
0.0
  9
$DIMTOL
 70
     0
  9
$DIMLIM
 70
     0
  9
$DIMTIH
 70
     1
  9
$DIMTOH
 70
     1
  9
$DIMSE1
 70
     0
  9
$DIMSE2
 70
     0
  9
$DIMTAD
 70
     0
  9
$DIMZIN
 70
     0
  9
$DIMBLK
  1
_FILLED
  9
$DIMASO
 70
     1
  9
$DIMSHO
 70
     1
  9
$DIMPOST
  1

  9
$DIMAPOST
  1

  9
$DIMALT
 70
     0
  9
$DIMALTD
 70
     2
  9
$DIMALTF
 40
25.399999999999999
  9
$DIMLFAC
 40
1.0
  9
$DIMTOFL
 70
     0
  9
$DIMTVP
 40
0.0
  9
$DIMTIX
 70
     0
  9
$DIMSOXD
 70
     0
  9
$DIMSAH
 70
     0
  9
$DIMBLK1
  1

  9
$DIMBLK2
  1

  9
$DIMSTYLE
  2
STANDARD
  9
$DIMCLRD
 70
     0
  9
$DIMCLRE
 70
     0
  9
$DIMCLRT
 70
     0
  9
$DIMTFAC
 40
1.0
  9
$DIMGAP
 40
0.09
  9
$LUNITS
 70
     2
  9
$LUPREC
 70
     4
  9
$SKETCHINC
 40
0.1
  9
$FILLETRAD
 40
0.0
  9
$AUNITS
 70
     0
  9
$AUPREC
 70
     0
  9
$MENU
  1
.
  9
$ELEVATION
 40
0.0
  9
$PELEVATION
 40
0.0
  9
$THICKNESS
 40
0.0
  9
$LIMCHECK
 70
     0
  9
$BLIPMODE
 70
     0
  9
$CHAMFERA
 40
0.0
  9
$CHAMFERB
 40
0.0
  9
$SKPOLY
 70
     0
  9
$TDCREATE
 40
2456262.4999018172
  9
$TDUPDATE
 40
2456262.5009657759
  9
$TDINDWG
 40
0.0010645023
  9
$TDUSRTIMER
 40
0.0010645023
  9
$USRTIMER
 70
     1
  9
$ANGBASE
 50
0.0
  9
$ANGDIR
 70
     0
  9
$PDMODE
 70
     3
  9
$PDSIZE
 40
7.9375
  9
$PLINEWID
 40
0.0
  9
$COORDS
 70
     1
  9
$SPLFRAME
 70
     0
  9
$SPLINETYPE
 70
     6
  9
$SPLINESEGS
 70
     8
  9
$ATTDIA
 70
     0
  9
$ATTREQ
 70
     1
  9
$HANDLING
 70
     1
  9
$HANDSEED
  5
2D4
  9
$SURFTAB1
 70
     6
  9
$SURFTAB2
 70
     6
  9
$SURFTYPE
 70
     6
  9
$SURFU
 70
     6
  9
$SURFV
 70
     6
  9
$UCSNAME
  2

  9
$UCSORG
 10
0.0
 20
0.0
 30
0.0
  9
$UCSXDIR
 10
1.0
 20
0.0
 30
0.0
  9
$UCSYDIR
 10
0.0
 20
1.0
 30
0.0
  9
$PUCSNAME
  2

  9
$PUCSORG
 10
0.0
 20
0.0
 30
0.0
  9
$PUCSXDIR
 10
1.0
 20
0.0
 30
0.0
  9
$PUCSYDIR
 10
0.0
 20
1.0
 30
0.0
  9
$USERI1
 70
     0
  9
$USERI2
 70
     0
  9
$USERI3
 70
     0
  9
$USERI4
 70
     0
  9
$USERI5
 70
     0
  9
$USERR1
 40
0.0
  9
$USERR2
 40
0.0
  9
$USERR3
 40
0.0
  9
$USERR4
 40
0.0
  9
$USERR5
 40
0.0
  9
$WORLDVIEW
 70
     1
  9
$SHADEDGE
 70
     3
  9
$SHADEDIF
 70
    70
  9
$TILEMODE
 70
     1
  9
$MAXACTVP
 70
    64
  9
$PLIMCHECK
 70
     0
  9
$PEXTMIN
 10
1.0000000000000000E+020
 20
1.0000000000000000E+020
 30
1.0000000000000000E+020
  9
$PEXTMAX
 10
-1.0000000000000000E+020
 20
-1.0000000000000000E+020
 30
-1.0000000000000000E+020
  9
$PLIMMIN
 10
0.0
 20
0.0
  9
$PLIMMAX
 10
12.0
 20
9.0
  9
$UNITMODE
 70
     0
  9
$VISRETAIN
 70
     1
  9
$PLINEGEN
 70
     0
  9
$PSLTSCALE
 70
     1
  0
ENDSEC
  0
SECTION
  2
TABLES
  0
TABLE
  2
VPORT
 70
     1
  0
VPORT
  2
*ACTIVE
 70
     0
 10
0.0
 20
0.0
 11
1.0
 21
1.0
 12
150.00000069849199
 22
87.500000407453641
 13
0.0
 23
0.0
 14
1.0
 24
1.0
 15
0.0
 25
0.0
 16
0.0
 26
0.0
 36
1.0
 17
0.0
 27
0.0
 37
0.0
 40
176.39234442461159
 41
2.2068511198945981
 42
50.0
 43
0.0
 44
0.0
 50
0.0
 51
0.0
 71
     0
 72
   100
 73
     1
 74
     1
 75
     0
 76
     0
 77
     0
 78
     0
  0
ENDTAB
  0
TABLE
  2
LTYPE
 70
     8
  0
LTYPE
  2
ByBlock
 70
     0
  3

 72
    65
 73
     0
 40
0.0
  0
LTYPE
  2
ByLayer
 70
     0
  3

 72
    65
 73
     0
 40
0.0
  0
LTYPE
  2
CONTINUOUS
 70
     0
  3
Solid line
 72
    65
 73
     0
 40
0.0
  0
LTYPE
  2
CENTER
 70
     0
  3
____ _ ____ _ ____ _ ____ _ ____ _ ____ _ ____
 72
    65
 73
     4
 40
0.6
 49
0.375
 49
-0.075
 49
0.075
 49
-0.075
  0
LTYPE
  2
HIDDEN
 70
     0
  3
- - - - - - - - - - - - - - - - - - - -
 72
    65
 73
     2
 40
0.2
 49
0.1
 49
-0.1
  0
LTYPE
  2
PHANTOM
 70
     0
  3
_____ _ _ _____ _ _ _____ _ _ _____
 72
    65
 73
     6
 40
0.8
 49
0.45
 49
-0.05
 49
0.1
 49
-0.05
 49
0.1
 49
-0.05
  0
LTYPE
  2
DOT
 70
     0
  3
. . . . . . . . . . . . . . . . . . . .
 72
    65
 73
     2
 40
0.2
 49
0.1
 49
-0.1
  0
LTYPE
  2
DASHED
 70
     0
  3
- - - - - - - - - - - - - - - - - - - -
 72
    65
 73
     2
 40
0.2
 49
0.1
 49
-0.1
  0
ENDTAB
  0
TABLE
  2
LAYER
 70
    16
  0
LAYER
  2
0
 70
     0
 62
     7
  6
CONTINUOUS
  0
LAYER
  2
DEFAULT_1
 70
     0
 62
     7
  6
CENTER
  0
LAYER
  2
DEFAULT_2
 70
     0
 62
     8
  6
HIDDEN
  0
LAYER
  2
DEFAULT_3
 70
     0
 62
     7
  6
PHANTOM
  0
LAYER
  2
CURB-14
 70
     0
 62
     6
  6
CONTINUOUS
  0
LAYER
  2
CURB-14-DIM
 70
     0
 62
     6
  6
CONTINUOUS
  0
LAYER
  2
CURB-24
 70
     0
 62
     6
  6
CONTINUOUS
  0
LAYER
  2
CURB-24-DIM
 70
     0
 62
     6
  6
CONTINUOUS
  0
LAYER
  2
HOODS
 70
     0
 62
     7
  6
CONTINUOUS
  0
LAYER
  2
NOTES
 70
     0
 62
     1
  6
CONTINUOUS
  0
LAYER
  2
SERVCLEAR
 70
     0
 62
     1
  6
CONTINUOUS
  0
LAYER
  2
SERVCLRDIM
 70
     0
 62
     1
  6
CONTINUOUS
  0
LAYER
  2
UNIT-DIM
 70
     0
 62
     7
  6
CONTINUOUS
  0
LAYER
  2
UNIT-DUCTS
 70
     0
 62
     2
  6
CONTINUOUS
  0
LAYER
  2
UNIT-SOL
 70
     0
 62
     7
  6
CONTINUOUS
  0
LAYER
  2
UNTDUCTDIM
 70
     0
 62
     2
  6
CONTINUOUS
  0
ENDTAB
  0
TABLE
  2
STYLE
 70
     4
  0
STYLE
  2
STANDARD
 70
     0
 40
0.0
 41
0.8
 50
0.0
 71
     0
 42
0.2
  3
txt
  4

  0
STYLE
  2
ANNOTATIVE
 70
     0
 40
0.0
 41
1.0
 50
0.0
 71
     0
 42
0.2
  3
txt
  4

  0
STYLE
  2
TEXTSTYLE_1
 70
     0
 40
0.0
 41
0.8
 50
0.0
 71
     0
 42
0.2
  3
gdt
  4

  0
STYLE
  2
TEXTSTYLE_2
 70
     0
 40
0.0
 41
8.0
 50
0.0
 71
     0
 42
0.2
  3
txt
  4

  0
ENDTAB
  0
TABLE
  2
VIEW
 70
     0
  0
ENDTAB
  0
TABLE
  2
UCS
 70
     0
  0
ENDTAB
  0
TABLE
  2
APPID
 70
     4
  0
APPID
  2
ACAD
 70
     0
  0
APPID
  2
ACADANNOTATIVE
 70
     0
  0
APPID
  2
ACAD_NAV_VCDISPLAY
 70
     0
  0
APPID
  2
ACAD_MLEADERVER
 70
     0
  0
ENDTAB
  0
TABLE
  2
DIMSTYLE
 70
     2
  0
DIMSTYLE
  2
STANDARD
 70
     0
  3

  4

  5

  6

  7

 40
1.0
 41
0.18
 42
0.0625
 43
0.38
 44
0.18
 45
0.0
 46
0.0
 47
0.0
 48
0.0
140
0.18
141
0.09
142
0.0
143
25.399999999999999
144
1.0
145
0.0
146
1.0
147
0.09
 71
     0
 72
     0
 73
     1
 74
     1
 75
     0
 76
     0
 77
     0
 78
     0
170
     0
171
     2
172
     0
173
     0
174
     0
175
     0
176
     0
177
     0
178
     0
  0
DIMSTYLE
  2
ANNOTATIVE
 70
     0
  3

  4

  5

  6

  7

 40
1.0
 41
0.18
 42
0.0625
 43
0.38
 44
0.18
 45
0.0
 46
0.0
 47
0.0
 48
0.0
140
0.18
141
0.09
142
0.0
143
25.399999999999999
144
1.0
145
0.0
146
1.0
147
0.09
 71
     0
 72
     0
 73
     1
 74
     1
 75
     0
 76
     0
 77
     0
 78
     0
170
     0
171
     2
172
     0
173
     0
174
     0
175
     0
176
     0
177
     0
178
     0
  0
ENDTAB
  0
ENDSEC
  0
SECTION
  2
BLOCKS
  0
BLOCK
  8
0
  2
$MODEL_SPACE
 70
     0
 10
0.0
 20
0.0
 30
0.0
  3
$MODEL_SPACE
  1

  0
ENDBLK
  5
6D
  8
0
  0
BLOCK
 67
     1
  8
0
  2
$PAPER_SPACE
 70
     0
 10
0.0
 20
0.0
 30
0.0
  3
$PAPER_SPACE
  1

  0
ENDBLK
  5
69
 67
     1
  8
0
  0
BLOCK
  8
0
  2
_FILLED
 70
     0
 10
0.0
 20
0.0
 30
0.0
  3
_FILLED
  1

  0
SOLID
  5
8C
  8
0
  6
ByBlock
 62
     0
 10
0.0
 20
0.0
 30
0.0
 11
-1.0
 21
0.1875
 31
0.0
 12
-1.0
 22
-0.1875
 32
0.0
 13
-1.0
 23
-0.1875
 33
0.0
  0
ENDBLK
  5
8D
  8
0
  6
ByBlock
 62
     0
  0
BLOCK
  8
CURB-24-DIM
  6
CONTINUOUS
 62
     6
  2
*D1
 70
     1
 10
0.0
 20
0.0
 30
0.0
  3
*D1
  1

  0
TEXT
  5
90
  8
CURB-24-DIM
  6
CONTINUOUS
 62
     6
 10
86.937297697999995
 20
37.783444987300001
 30
0.0
 40
2.0
  1
121-5/8
 41
0.8
 72
     1
 11
91.737297697999992
 21
37.783444987300001
 31
0.0
  0
TEXT
  5
91
  8
CURB-24-DIM
  6
CONTINUOUS
 62
     6
 10
99.870631031333332
 20
37.783444987300001
 30
0.0
 40
2.0
  1
[
 41
0.8
 72
     1
 11
100.137297698
 21
37.783444987300001
 31
0.0
  0
TEXT
  5
92
  8
CURB-24-DIM
  6
CONTINUOUS
 62
     6
 10
101.8706310313333
 20
37.783444987300001
 30
0.0
 40
2.0
  1
3089.3
 41
0.8
 72
     1
 11
105.73729769800001
 21
37.783444987300001
 31
0.0
  0
TEXT
  5
93
  8
CURB-24-DIM
  6
CONTINUOUS
 62
     6
 10
111.07063103133331
 20
37.783444987300001
 30
0.0
 40
2.0
  1
]
 41
0.8
 72
     1
 11
111.337297698
 21
37.783444987300001
 31
0.0
  0
TEXT
  5
94
  8
CURB-24-DIM
  6
CONTINUOUS
 62
     6
 10
112.137297698
 20
37.783444987300001
 30
0.0
 40
2.0
  1
 
 41
0.8
 72
     1
 11
112.93729769799999
 21
37.783444987300001
 31
0.0
  0
LINE
  5
95
  8
CURB-24-DIM
  6
CONTINUOUS
 62
     6
 10
39.124797698000002
 20
91.570406541500006
 30
0.0
 11
39.124797698000002
 21
37.195944987300003
 31
0.0
  0
LINE
  5
96
  8
CURB-24-DIM
  6
CONTINUOUS
 62
     6
 10
160.7497976979999
 20
42.467676280999989
 30
0.0
 11
160.7497976979999
 21
37.195944987300003
 31
0.0
  0
LINE
  5
97
  8
CURB-24-DIM
  6
CONTINUOUS
 62
     6
 10
39.124797698000002
 20
38.783444987300001
 30
0.0
 11
84.137297697999983
 21
38.783444987300001
 31
0.0
  0
LINE
  5
98
  8
CURB-24-DIM
  6
CONTINUOUS
 62
     6
 10
160.7497976979999
 20
38.783444987300001
 30
0.0
 11
115.73729769800001
 21
38.783444987300001
 31
0.0
  0
INSERT
  5
99
  8
CURB-24-DIM
  6
CONTINUOUS
 62
     6
  2
_FILLED
 10
39.124797698000002
 20
38.783444987300001
 30
0.0
 41
4.0
 42
4.0
 43
4.0
 50
180.0
  0
INSERT
  5
9A
  8
CURB-24-DIM
  6
CONTINUOUS
 62
     6
  2
_FILLED
 10
160.7497976979999
 20
38.783444987300001
 30
0.0
 41
4.0
 42
4.0
 43
4.0
  0
ENDBLK
  5
9B
  8
0
  6
ByBlock
 62
     0
  0
BLOCK
  8
UNIT-DIM
  6
CONTINUOUS
 62
     7
  2
*D2
 70
     1
 10
0.0
 20
0.0
 30
0.0
  3
*D2
  1

  0
TEXT
  5
9E
  8
UNIT-DIM
  6
CONTINUOUS
 62
     7
 10
93.270566174033334
 20
157.1166727227
 30
0.0
 40
2.0
  1
127-7/8
 41
0.8
 72
     1
 11
98.337232840699997
 21
157.1166727227
 31
0.0
  0
TEXT
  5
9F
  8
UNIT-DIM
  6
CONTINUOUS
 62
     7
 10
105.5372328407
 20
157.1166727227
 30
0.0
 40
2.0
  1
 
 41
0.8
 72
     1
 11
106.3372328407
 21
157.1166727227
 31
0.0
  0
TEXT
  5
A0
  8
UNIT-DIM
  6
CONTINUOUS
 62
     7
 10
93.270566174033334
 20
154.1166727227
 30
0.0
 40
2.0
  1
[
 41
0.8
 72
     1
 11
93.537232840699986
 21
154.1166727227
 31
0.0
  0
TEXT
  5
A1
  8
UNIT-DIM
  6
CONTINUOUS
 62
     7
 10
95.270566174033334
 20
154.1166727227
 30
0.0
 40
2.0
  1
3248.0
 41
0.8
 72
     1
 11
99.137232840699994
 21
154.1166727227
 31
0.0
  0
TEXT
  5
A2
  8
UNIT-DIM
  6
CONTINUOUS
 62
     7
 10
104.47056617403329
 20
154.1166727227
 30
0.0
 40
2.0
  1
]
 41
0.8
 72
     1
 11
104.7372328407
 21
154.1166727227
 31
0.0
  0
LINE
  5
A3
  8
UNIT-DIM
  6
CONTINUOUS
 62
     7
 10
35.999797698000002
 20
142.12507199500001
 30
0.0
 11
35.999797698000002
 21
159.70417272270001
 31
0.0
  0
LINE
  5
A4
  8
UNIT-DIM
  6
CONTINUOUS
 62
     7
 10
163.87466798329999
 20
142.60520183209999
 30
0.0
 11
163.87466798329999
 21
159.70417272270001
 31
0.0
  0
LINE
  5
A5
  8
UNIT-DIM
  6
CONTINUOUS
 62
     7
 10
35.999797698000002
 20
158.1166727227
 30
0.0
 11
90.737232840700003
 21
158.1166727227
 31
0.0
  0
LINE
  5
A6
  8
UNIT-DIM
  6
CONTINUOUS
 62
     7
 10
163.87466798329999
 20
158.1166727227
 30
0.0
 11
109.13723284069999
 21
158.1166727227
 31
0.0
  0
INSERT
  5
A7
  8
UNIT-DIM
  6
CONTINUOUS
 62
     7
  2
_FILLED
 10
35.999797698000002
 20
158.1166727227
 30
0.0
 41
4.0
 42
4.0
 43
4.0
 50
180.0
  0
INSERT
  5
A8
  8
UNIT-DIM
  6
CONTINUOUS
 62
     7
  2
_FILLED
 10
163.87466798329999
 20
158.1166727227
 30
0.0
 41
4.0
 42
4.0
 43
4.0
  0
ENDBLK
  5
A9
  8
0
  6
ByBlock
 62
     0
  0
BLOCK
  8
UNIT-DIM
  6
CONTINUOUS
 62
     7
  2
*D3
 70
     1
 10
0.0
 20
0.0
 30
0.0
  3
*D3
  1

  0
TEXT
  5
AC
  8
UNIT-DIM
  6
CONTINUOUS
 62
     7
 10
198.30886218186669
 20
114.4836979574
 30
0.0
 40
2.0
  1
49-3/8
 41
0.8
 72
     1
 11
202.84219551519999
 21
114.4836979574
 31
0.0
  0
TEXT
  5
AD
  8
UNIT-DIM
  6
CONTINUOUS
 62
     7
 10
210.84219551519999
 20
114.4836979574
 30
0.0
 40
2.0
  1
 
 41
0.8
 72
     1
 11
211.6421955152
 21
114.4836979574
 31
0.0
  0
TEXT
  5
AE
  8
UNIT-DIM
  6
CONTINUOUS
 62
     7
 10
198.57552884853331
 20
111.4836979574
 30
0.0
 40
2.0
  1
[
 41
0.8
 72
     1
 11
198.84219551519999
 21
111.4836979574
 31
0.0
  0
TEXT
  5
AF
  8
UNIT-DIM
  6
CONTINUOUS
 62
     7
 10
200.9755288485334
 20
111.4836979574
 30
0.0
 40
2.0
  1
1254.1
 41
0.8
 72
     1
 11
204.44219551520001
 21
111.4836979574
 31
0.0
  0
TEXT
  5
B0
  8
UNIT-DIM
  6
CONTINUOUS
 62
     7
 10
209.7755288485333
 20
111.4836979574
 30
0.0
 40
2.0
  1
]
 41
0.8
 72
     1
 11
210.04219551520001
 21
111.4836979574
 31
0.0
  0
LINE
  5
B1
  8
UNIT-DIM
  6
CONTINUOUS
 62
     7
 10
166.88541182290001
 20
90.796240023300001
 30
0.0
 11
206.8296955152
 21
90.796240023300001
 31
0.0
  0
LINE
  5
B2
  8
UNIT-DIM
  6
CONTINUOUS
 62
     7
 10
166.2948713669
 20
140.17115589150001
 30
0.0
 11
186.5441605403
 21
140.17115589150001
 31
0.0
  0
LINE
  5
B3
  8
UNIT-DIM
  6
CONTINUOUS
 62
     7
 10
189.7950999231
 20
140.17115589150001
 30
0.0
 11
206.8296955152
 21
140.17115589150001
 31
0.0
  0
LINE
  5
B4
  8
UNIT-DIM
  6
CONTINUOUS
 62
     7
 10
205.2421955152
 20
90.796240023300001
 30
0.0
 11
205.2421955152
 21
109.4836979574
 31
0.0
  0
LINE
  5
B5
  8
UNIT-DIM
  6
CONTINUOUS
 62
     7
 10
205.2421955152
 20
140.17115589150001
 30
0.0
 11
205.2421955152
 21
118.4836979574
 31
0.0
  0
INSERT
  5
B6
  8
UNIT-DIM
  6
CONTINUOUS
 62
     7
  2
_FILLED
 10
205.2421955152
 20
90.796240023300001
 30
0.0
 41
4.0
 42
4.0
 43
4.0
 50
270.0
  0
INSERT
  5
B7
  8
UNIT-DIM
  6
CONTINUOUS
 62
     7
  2
_FILLED
 10
205.2421955152
 20
140.17115589150001
 30
0.0
 41
4.0
 42
4.0
 43
4.0
 50
90.0
  0
ENDBLK
  5
B8
  8
0
  6
ByBlock
 62
     0
  0
BLOCK
  8
CURB-24-DIM
  6
CONTINUOUS
 62
     6
  2
*D4
 70
     1
 10
0.0
 20
0.0
 30
0.0
  3
*D4
  1

  0
TEXT
  5
BB
  8
CURB-24-DIM
  6
CONTINUOUS
 62
     6
 10
2.3963738637666658
 20
80.797104646500003
 30
0.0
 40
2.0
  1
24
 41
0.8
 72
     1
 11
3.7297071970999989
 21
80.797104646500003
 31
0.0
  0
TEXT
  5
BC
  8
CURB-24-DIM
  6
CONTINUOUS
 62
     6
 10
13.329707197099999
 20
80.797104646500003
 30
0.0
 40
2.0
  1
 
 41
0.8
 72
     1
 11
14.1297071971
 21
80.797104646500003
 31
0.0
  0
TEXT
  5
BD
  8
CURB-24-DIM
  6
CONTINUOUS
 62
     6
 10
2.6630405304333329
 20
77.797104646500003
 30
0.0
 40
2.0
  1
[
 41
0.8
 72
     1
 11
2.929707197099999
 21
77.797104646500003
 31
0.0
  0
TEXT
  5
BE
  8
CURB-24-DIM
  6
CONTINUOUS
 62
     6
 10
4.6630405304333342
 20
77.797104646500003
 30
0.0
 40
2.0
  1
609.6
 41
0.8
 72
     1
 11
7.7297071970999998
 21
77.797104646500003
 31
0.0
  0
TEXT
  5
BF
  8
CURB-24-DIM
  6
CONTINUOUS
 62
     6
 10
12.263040530433329
 20
77.797104646500003
 30
0.0
 40
2.0
  1
]
 41
0.8
 72
     1
 11
12.5297071971
 21
77.797104646500003
 31
0.0
  0
LINE
  5
C0
  8
CURB-24-DIM
  6
CONTINUOUS
 62
     6
 10
35.565297698000002
 20
69.797969269799992
 30
0.0
 11
24.980471615599999
 21
69.797969269799992
 31
0.0
  0
LINE
  5
C1
  8
CURB-24-DIM
  6
CONTINUOUS
 62
     6
 10
23.034052415600001
 20
69.797969269799992
 30
0.0
 11
6.9422071971000001
 21
69.797969269799992
 31
0.0
  0
LINE
  5
C2
  8
CURB-24-DIM
  6
CONTINUOUS
 62
     6
 10
37.537297698000003
 20
93.796240023300001
 30
0.0
 11
24.538103615600001
 21
93.796240023300001
 31
0.0
  0
LINE
  5
C3
  8
CURB-24-DIM
  6
CONTINUOUS
 62
     6
 10
23.918788415600002
 20
93.796240023300001
 30
0.0
 11
6.9422071971000001
 21
93.796240023300001
 31
0.0
  0
LINE
  5
C4
  8
CURB-24-DIM
  6
CONTINUOUS
 62
     6
 10
8.5297071971000005
 20
69.797969269799992
 30
0.0
 11
8.5297071971000005
 21
75.797104646500003
 31
0.0
  0
LINE
  5
C5
  8
CURB-24-DIM
  6
CONTINUOUS
 62
     6
 10
8.5297071971000005
 20
93.796240023300001
 30
0.0
 11
8.5297071971000005
 21
84.797104646500003
 31
0.0
  0
INSERT
  5
C6
  8
CURB-24-DIM
  6
CONTINUOUS
 62
     6
  2
_FILLED
 10
8.5297071971000005
 20
69.797969269799992
 30
0.0
 41
4.0
 42
4.0
 43
4.0
 50
270.0
  0
INSERT
  5
C7
  8
CURB-24-DIM
  6
CONTINUOUS
 62
     6
  2
_FILLED
 10
8.5297071971000005
 20
93.796240023300001
 30
0.0
 41
4.0
 42
4.0
 43
4.0
 50
90.0
  0
ENDBLK
  5
C8
  8
0
  6
ByBlock
 62
     0
  0
BLOCK
  8
SERVCLRDIM
  6
CONTINUOUS
 62
     1
  2
*D5
 70
     1
 10
0.0
 20
0.0
 30
0.0
  3
*D5
  1

  0
TEXT
  5
CB
  8
SERVCLRDIM
  6
CONTINUOUS
 62
     1
 10
13.466565515666669
 20
131.20721984310001
 30
0.0
 40
2.0
  1
36
 41
0.8
 72
     1
 11
14.799898849
 21
131.20721984310001
 31
0.0
  0
TEXT
  5
CC
  8
SERVCLRDIM
  6
CONTINUOUS
 62
     1
 10
21.199898849
 20
131.20721984310001
 30
0.0
 40
2.0
  1
 
 41
0.8
 72
     1
 11
21.999898849000001
 21
131.20721984310001
 31
0.0
  0
TEXT
  5
CD
  8
SERVCLRDIM
  6
CONTINUOUS
 62
     1
 10
13.73323218233333
 20
128.20721984310001
 30
0.0
 40
2.0
  1
[
 41
0.8
 72
     1
 11
13.999898848999999
 21
128.20721984310001
 31
0.0
  0
TEXT
  5
CE
  8
SERVCLRDIM
  6
CONTINUOUS
 62
     1
 10
15.33323218233333
 20
128.20721984310001
 30
0.0
 40
2.0
  1
914
 41
0.8
 72
     1
 11
17.199898849
 21
128.20721984310001
 31
0.0
  0
TEXT
  5
CF
  8
SERVCLRDIM
  6
CONTINUOUS
 62
     1
 10
20.13323218233333
 20
128.20721984310001
 30
0.0
 40
2.0
  1
]
 41
0.8
 72
     1
 11
20.399898849
 21
128.20721984310001
 31
0.0
  0
LINE
  5
D0
  8
SERVCLRDIM
  6
CONTINUOUS
 62
     1
 10
0.0
 20
130.6197198431
 30
0.0
 11
0.0
 21
134.54809599559999
 31
0.0
  0
LINE
  5
D1
  8
SERVCLRDIM
  6
CONTINUOUS
 62
     1
 10
35.999797698000002
 20
134.54809599559999
 30
0.0
 11
35.999797698000002
 21
130.6197198431
 31
0.0
  0
LINE
  5
D2
  8
SERVCLRDIM
  6
CONTINUOUS
 62
     1
 10
0.0
 20
132.20721984310001
 30
0.0
 11
11.199898849
 21
132.20721984310001
 31
0.0
  0
LINE
  5
D3
  8
SERVCLRDIM
  6
CONTINUOUS
 62
     1
 10
35.999797698000002
 20
132.20721984310001
 30
0.0
 11
24.799898849000002
 21
132.20721984310001
 31
0.0
  0
INSERT
  5
D4
  8
SERVCLRDIM
  6
CONTINUOUS
 62
     1
  2
_FILLED
 10
0.0
 20
132.20721984310001
 30
0.0
 41
4.0
 42
4.0
 43
4.0
 50
180.0
  0
INSERT
  5
D5
  8
SERVCLRDIM
  6
CONTINUOUS
 62
     1
  2
_FILLED
 10
35.999797698000002
 20
132.20721984310001
 30
0.0
 41
4.0
 42
4.0
 43
4.0
  0
ENDBLK
  5
D6
  8
0
  6
ByBlock
 62
     0
  0
BLOCK
  8
SERVCLRDIM
  6
CONTINUOUS
 62
     1
  2
*D6
 70
     1
 10
0.0
 20
0.0
 30
0.0
  3
*D6
  1

  0
TEXT
  5
D9
  8
SERVCLRDIM
  6
CONTINUOUS
 62
     1
 10
215.1746679833
 20
131.20721984310001
 30
0.0
 40
2.0
  1
18-96 DEPENDING ON OPTIONS, 
 41
0.8
 72
     1
 11
236.37466798329999
 21
131.20721984310001
 31
0.0
  0
TEXT
  5
DA
  8
SERVCLRDIM
  6
CONTINUOUS
 62
     1
 10
214.50800131663331
 20
128.20721984310001
 30
0.0
 40
2.0
  1
SEE PRODUCT DATA FOR DETAILS
 41
0.8
 72
     1
 11
236.37466798329999
 21
128.20721984310001
 31
0.0
  0
LINE
  5
DB
  8
SERVCLRDIM
  6
CONTINUOUS
 62
     1
 10
284.37466798330001
 20
134.54809599559999
 30
0.0
 11
284.37466798330001
 21
131.20721984310001
 31
0.0
  0
LINE
  5
DC
  8
SERVCLRDIM
  6
CONTINUOUS
 62
     1
 10
284.37466798330001
 20
131.20721984310001
 30
0.0
 11
284.37466798330001
 21
130.6197198431
 31
0.0
  0
LINE
  5
DD
  8
SERVCLRDIM
  6
CONTINUOUS
 62
     1
 10
188.37466798329999
 20
130.6197198431
 30
0.0
 11
188.37466798329999
 21
131.20721984310001
 31
0.0
  0
LINE
  5
DE
  8
SERVCLRDIM
  6
CONTINUOUS
 62
     1
 10
188.37466798329999
 20
131.20721984310001
 30
0.0
 11
188.37466798329999
 21
134.54809599559999
 31
0.0
  0
LINE
  5
DF
  8
SERVCLRDIM
  6
CONTINUOUS
 62
     1
 10
284.37466798330001
 20
132.20721984310001
 30
0.0
 11
260.77466798329999
 21
132.20721984310001
 31
0.0
  0
LINE
  5
E0
  8
SERVCLRDIM
  6
CONTINUOUS
 62
     1
 10
188.37466798329999
 20
132.20721984310001
 30
0.0
 11
211.97466798330001
 21
132.20721984310001
 31
0.0
  0
INSERT
  5
E1
  8
SERVCLRDIM
  6
CONTINUOUS
 62
     1
  2
_FILLED
 10
284.37466798330001
 20
132.20721984310001
 30
0.0
 41
4.0
 42
4.0
 43
4.0
  0
INSERT
  5
E2
  8
SERVCLRDIM
  6
CONTINUOUS
 62
     1
  2
_FILLED
 10
188.37466798329999
 20
132.20721984310001
 30
0.0
 41
4.0
 42
4.0
 43
4.0
 50
180.0
  0
ENDBLK
  5
E3
  8
0
  6
ByBlock
 62
     0
  0
BLOCK
  8
CURB-14-DIM
  6
CONTINUOUS
 62
     6
  2
*D7
 70
     1
 10
0.0
 20
0.0
 30
0.0
  3
*D7
  1

  0
TEXT
  5
E6
  8
CURB-14-DIM
  6
CONTINUOUS
 62
     6
 10
86.937297697999995
 20
37.753838991899997
 30
0.0
 40
2.0
  1
121-5/8
 41
0.8
 72
     1
 11
91.737297697999992
 21
37.753838991899997
 31
0.0
  0
TEXT
  5
E7
  8
CURB-14-DIM
  6
CONTINUOUS
 62
     6
 10
99.870631031333332
 20
37.753838991899997
 30
0.0
 40
2.0
  1
[
 41
0.8
 72
     1
 11
100.137297698
 21
37.753838991899997
 31
0.0
  0
TEXT
  5
E8
  8
CURB-14-DIM
  6
CONTINUOUS
 62
     6
 10
101.8706310313333
 20
37.753838991899997
 30
0.0
 40
2.0
  1
3089.3
 41
0.8
 72
     1
 11
105.73729769800001
 21
37.753838991899997
 31
0.0
  0
TEXT
  5
E9
  8
CURB-14-DIM
  6
CONTINUOUS
 62
     6
 10
111.07063103133331
 20
37.753838991899997
 30
0.0
 40
2.0
  1
]
 41
0.8
 72
     1
 11
111.337297698
 21
37.753838991899997
 31
0.0
  0
TEXT
  5
EA
  8
CURB-14-DIM
  6
CONTINUOUS
 62
     6
 10
112.137297698
 20
37.753838991899997
 30
0.0
 40
2.0
  1
 
 41
0.8
 72
     1
 11
112.93729769799999
 21
37.753838991899997
 31
0.0
  0
LINE
  5
EB
  8
CURB-14-DIM
  6
CONTINUOUS
 62
     6
 10
39.124797698000002
 20
91.062936858200004
 30
0.0
 11
39.124797698000002
 21
37.166338991899998
 31
0.0
  0
LINE
  5
EC
  8
CURB-14-DIM
  6
CONTINUOUS
 62
     6
 10
160.7497976979999
 20
90.958740023299995
 30
0.0
 11
160.7497976979999
 21
58.698684490700003
 31
0.0
  0
LINE
  5
ED
  8
CURB-14-DIM
  6
CONTINUOUS
 62
     6
 10
160.7497976979999
 20
54.260068586800003
 30
0.0
 11
160.7497976979999
 21
48.553276710299997
 31
0.0
  0
LINE
  5
EE
  8
CURB-14-DIM
  6
CONTINUOUS
 62
     6
 10
160.7497976979999
 20
45.573063174799998
 30
0.0
 11
160.7497976979999
 21
37.166338991899998
 31
0.0
  0
LINE
  5
EF
  8
CURB-14-DIM
  6
CONTINUOUS
 62
     6
 10
39.124797698000002
 20
38.753838991899997
 30
0.0
 11
84.137297697999983
 21
38.753838991899997
 31
0.0
  0
LINE
  5
F0
  8
CURB-14-DIM
  6
CONTINUOUS
 62
     6
 10
160.7497976979999
 20
38.753838991899997
 30
0.0
 11
115.73729769800001
 21
38.753838991899997
 31
0.0
  0
INSERT
  5
F1
  8
CURB-14-DIM
  6
CONTINUOUS
 62
     6
  2
_FILLED
 10
39.124797698000002
 20
38.753838991899997
 30
0.0
 41
4.0
 42
4.0
 43
4.0
 50
180.0
  0
INSERT
  5
F2
  8
CURB-14-DIM
  6
CONTINUOUS
 62
     6
  2
_FILLED
 10
160.7497976979999
 20
38.753838991899997
 30
0.0
 41
4.0
 42
4.0
 43
4.0
  0
ENDBLK
  5
F3
  8
0
  6
ByBlock
 62
     0
  0
BLOCK
  8
CURB-14-DIM
  6
CONTINUOUS
 62
     6
  2
*D8
 70
     1
 10
0.0
 20
0.0
 30
0.0
  3
*D8
  1

  0
TEXT
  5
F6
  8
CURB-14-DIM
  6
CONTINUOUS
 62
     6
 10
18.06388452223333
 20
85.796240023300001
 30
0.0
 40
2.0
  1
14
 41
0.8
 72
     1
 11
19.1305511889
 21
85.796240023300001
 31
0.0
  0
TEXT
  5
F7
  8
CURB-14-DIM
  6
CONTINUOUS
 62
     6
 10
28.730551188900002
 20
85.796240023300001
 30
0.0
 40
2.0
  1
 
 41
0.8
 72
     1
 11
29.530551188899999
 21
85.796240023300001
 31
0.0
  0
TEXT
  5
F8
  8
CURB-14-DIM
  6
CONTINUOUS
 62
     6
 10
18.06388452223333
 20
82.796240023300015
 30
0.0
 40
2.0
  1
[
 41
0.8
 72
     1
 11
18.330551188899999
 21
82.796240023300015
 31
0.0
  0
TEXT
  5
F9
  8
CURB-14-DIM
  6
CONTINUOUS
 62
     6
 10
19.930551188900001
 20
82.796240023300015
 30
0.0
 40
2.0
  1
355.6
 41
0.8
 72
     1
 11
23.1305511889
 21
82.796240023300015
 31
0.0
  0
TEXT
  5
FA
  8
CURB-14-DIM
  6
CONTINUOUS
 62
     6
 10
27.663884522233332
 20
82.796240023300015
 30
0.0
 40
2.0
  1
]
 41
0.8
 72
     1
 11
27.930551188900001
 21
82.796240023300015
 31
0.0
  0
LINE
  5
FB
  8
CURB-14-DIM
  6
CONTINUOUS
 62
     6
 10
35.565297698000002
 20
79.796240023300001
 30
0.0
 11
22.343051188899999
 21
79.796240023300001
 31
0.0
  0
LINE
  5
FC
  8
CURB-14-DIM
  6
CONTINUOUS
 62
     6
 10
37.130518215400009
 20
93.796240023300001
 30
0.0
 11
22.343051188899999
 21
93.796240023300001
 31
0.0
  0
LINE
  5
FD
  8
CURB-14-DIM
  6
CONTINUOUS
 62
     6
 10
23.930551188900001
 20
79.796240023300001
 30
0.0
 11
23.930551188900001
 21
67.096240023299998
 31
0.0
  0
LINE
  5
FE
  8
CURB-14-DIM
  6
CONTINUOUS
 62
     6
 10
23.930551188900001
 20
93.796240023300001
 30
0.0
 11
23.930551188900001
 21
106.4962400233
 31
0.0
  0
INSERT
  5
FF
  8
CURB-14-DIM
  6
CONTINUOUS
 62
     6
  2
_FILLED
 10
23.930551188900001
 20
79.796240023300001
 30
0.0
 41
4.0
 42
4.0
 43
4.0
 50
90.0
  0
INSERT
  5
100
  8
CURB-14-DIM
  6
CONTINUOUS
 62
     6
  2
_FILLED
 10
23.930551188900001
 20
93.796240023300001
 30
0.0
 41
4.0
 42
4.0
 43
4.0
 50
270.0
  0
ENDBLK
  5
101
  8
0
  6
ByBlock
 62
     0
  0
BLOCK
  8
UNIT-DIM
  6
CONTINUOUS
 62
     7
  2
*D9
 70
     1
 10
0.0
 20
0.0
 30
0.0
  3
*D9
  1

  0
TEXT
  5
104
  8
UNIT-DIM
  6
CONTINUOUS
 62
     7
 10
139.25800131663331
 20
55.254178827399997
 30
0.0
 40
2.0
  1
37-1/2
 41
0.8
 72
     1
 11
143.52466798329999
 21
55.254178827399997
 31
0.0
  0
TEXT
  5
105
  8
UNIT-DIM
  6
CONTINUOUS
 62
     7
 10
149.9246679833
 20
55.254178827399997
 30
0.0
 40
2.0
  1
 
 41
0.8
 72
     1
 11
150.72466798330001
 21
55.254178827399997
 31
0.0
  0
TEXT
  5
106
  8
UNIT-DIM
  6
CONTINUOUS
 62
     7
 10
139.25800131663331
 20
52.254178827399997
 30
0.0
 40
2.0
  1
[
 41
0.8
 72
     1
 11
139.52466798329999
 21
52.254178827399997
 31
0.0
  0
TEXT
  5
107
  8
UNIT-DIM
  6
CONTINUOUS
 62
     7
 10
141.12466798329999
 20
52.254178827399997
 30
0.0
 40
2.0
  1
952.5
 41
0.8
 72
     1
 11
144.3246679833
 21
52.254178827399997
 31
0.0
  0
TEXT
  5
108
  8
UNIT-DIM
  6
CONTINUOUS
 62
     7
 10
148.85800131663331
 20
52.254178827399997
 30
0.0
 40
2.0
  1
]
 41
0.8
 72
     1
 11
149.12466798329999
 21
52.254178827399997
 31
0.0
  0
LINE
  5
109
  8
UNIT-DIM
  6
CONTINUOUS
 62
     7
 10
163.87466798329999
 20
89.176057452600006
 30
0.0
 11
163.87466798329999
 21
54.666678827399998
 31
0.0
  0
LINE
  5
10A
  8
UNIT-DIM
  6
CONTINUOUS
 62
     7
 10
126.3746679833
 20
94.458740023299995
 30
0.0
 11
126.3746679833
 21
54.666678827399998
 31
0.0
  0
LINE
  5
10B
  8
UNIT-DIM
  6
CONTINUOUS
 62
     7
 10
163.87466798329999
 20
56.25417882739999
 30
0.0
 11
153.52466798329999
 21
56.25417882739999
 31
0.0
  0
LINE
  5
10C
  8
UNIT-DIM
  6
CONTINUOUS
 62
     7
 10
126.3746679833
 20
56.25417882739999
 30
0.0
 11
136.72466798330001
 21
56.25417882739999
 31
0.0
  0
INSERT
  5
10D
  8
UNIT-DIM
  6
CONTINUOUS
 62
     7
  2
_FILLED
 10
163.87466798329999
 20
56.25417882739999
 30
0.0
 41
4.0
 42
4.0
 43
4.0
  0
INSERT
  5
10E
  8
UNIT-DIM
  6
CONTINUOUS
 62
     7
  2
_FILLED
 10
126.3746679833
 20
56.25417882739999
 30
0.0
 41
4.0
 42
4.0
 43
4.0
 50
180.0
  0
ENDBLK
  5
10F
  8
0
  6
ByBlock
 62
     0
  0
BLOCK
  8
UNIT-DIM
  6
CONTINUOUS
 62
     7
  2
*D10
 70
     1
 10
0.0
 20
0.0
 30
0.0
  3
*D10
  1

  0
TEXT
  5
112
  8
UNIT-DIM
  6
CONTINUOUS
 62
     7
 10
97.903649201966672
 20
62.056753636300002
 30
0.0
 40
2.0
  1
5-1/4
 41
0.8
 72
     2
 11
104.8369825353
 21
62.056753636300002
 31
0.0
  0
TEXT
  5
113
  8
UNIT-DIM
  6
CONTINUOUS
 62
     7
 10
108.0369825353
 20
62.056753636300002
 30
0.0
 40
2.0
  1
 
 41
0.8
 72
     2
 11
109.63698253530001
 21
62.056753636300002
 31
0.0
  0
TEXT
  5
114
  8
UNIT-DIM
  6
CONTINUOUS
 62
     7
 10
97.903649201966672
 20
59.056753636300002
 30
0.0
 40
2.0
  1
[
 41
0.8
 72
     2
 11
98.436982535300004
 21
59.056753636300002
 31
0.0
  0
TEXT
  5
115
  8
UNIT-DIM
  6
CONTINUOUS
 62
     7
 10
100.5703158686333
 20
59.056753636300002
 30
0.0
 40
2.0
  1
133.4
 41
0.8
 72
     2
 11
106.4369825353
 21
59.056753636300002
 31
0.0
  0
TEXT
  5
116
  8
UNIT-DIM
  6
CONTINUOUS
 62
     7
 10
107.5036492019667
 20
59.056753636300002
 30
0.0
 40
2.0
  1
]
 41
0.8
 72
     2
 11
108.0369825353
 21
59.056753636300002
 31
0.0
  0
LINE
  5
117
  8
UNIT-DIM
  6
CONTINUOUS
 62
     7
 10
120.79310310770001
 20
90.796240023300001
 30
0.0
 11
117.0314429508
 21
90.796240023300001
 31
0.0
  0
LINE
  5
118
  8
UNIT-DIM
  6
CONTINUOUS
 62
     7
 10
123.9096677654
 20
96.046240023300001
 30
0.0
 11
117.61810310769999
 21
96.046240023300001
 31
0.0
  0
LINE
  5
119
  8
UNIT-DIM
  6
CONTINUOUS
 62
     7
 10
119.2056031077
 20
90.796240023300001
 30
0.0
 11
119.2056031077
 21
63.056753636300002
 31
0.0
  0
LINE
  5
11A
  8
UNIT-DIM
  6
CONTINUOUS
 62
     7
 10
119.2056031077
 20
63.056753636300002
 30
0.0
 11
111.63698253530001
 21
63.056753636300002
 31
0.0
  0
LINE
  5
11B
  8
UNIT-DIM
  6
CONTINUOUS
 62
     7
 10
119.2056031077
 20
96.046240023300001
 30
0.0
 11
119.2056031077
 21
108.7462400233
 31
0.0
  0
INSERT
  5
11C
  8
UNIT-DIM
  6
CONTINUOUS
 62
     7
  2
_FILLED
 10
119.2056031077
 20
90.796240023300001
 30
0.0
 41
4.0
 42
4.0
 43
4.0
 50
90.0
  0
INSERT
  5
11D
  8
UNIT-DIM
  6
CONTINUOUS
 62
     7
  2
_FILLED
 10
119.2056031077
 20
96.046240023300001
 30
0.0
 41
4.0
 42
4.0
 43
4.0
 50
270.0
  0
ENDBLK
  5
11E
  8
0
  6
ByBlock
 62
     0
  0
BLOCK
  8
UNTDUCTDIM
  6
CONTINUOUS
 62
     2
  2
*D11
 70
     1
 10
0.0
 20
0.0
 30
0.0
  3
*D11
  1

  0
TEXT
  5
121
  8
UNTDUCTDIM
  6
CONTINUOUS
 62
     2
 10
60.443601543833331
 20
103.3587400233
 30
0.0
 40
2.0
  1
15-7/8
 41
0.8
 72
     1
 11
64.710268210500004
 21
103.3587400233
 31
0.0
  0
TEXT
  5
122
  8
UNTDUCTDIM
  6
CONTINUOUS
 62
     2
 10
71.11026821050001
 20
103.3587400233
 30
0.0
 40
2.0
  1
 
 41
0.8
 72
     1
 11
71.910268210500007
 21
103.3587400233
 31
0.0
  0
TEXT
  5
123
  8
UNTDUCTDIM
  6
CONTINUOUS
 62
     2
 10
60.443601543833331
 20
100.3587400233
 30
0.0
 40
2.0
  1
[
 41
0.8
 72
     1
 11
60.710268210500011
 21
100.3587400233
 31
0.0
  0
TEXT
  5
124
  8
UNTDUCTDIM
  6
CONTINUOUS
 62
     2
 10
62.443601543833338
 20
100.3587400233
 30
0.0
 40
2.0
  1
403.2
 41
0.8
 72
     1
 11
65.510268210500001
 21
100.3587400233
 31
0.0
  0
TEXT
  5
125
  8
UNTDUCTDIM
  6
CONTINUOUS
 62
     2
 10
70.043601543833333
 20
100.3587400233
 30
0.0
 40
2.0
  1
]
 41
0.8
 72
     1
 11
70.310268210499999
 21
100.3587400233
 31
0.0
  0
LINE
  5
126
  8
UNTDUCTDIM
  6
CONTINUOUS
 62
     2
 10
81.787167983299994
 20
112.2962400233
 30
0.0
 11
64.722768210500007
 21
112.2962400233
 31
0.0
  0
LINE
  5
127
  8
UNTDUCTDIM
  6
CONTINUOUS
 62
     2
 10
81.787167983299994
 20
96.421240023300001
 30
0.0
 11
64.722768210500007
 21
96.421240023300001
 31
0.0
  0
LINE
  5
128
  8
UNTDUCTDIM
  6
CONTINUOUS
 62
     2
 10
66.310268210499984
 20
112.2962400233
 30
0.0
 11
66.310268210499984
 21
124.9962400233
 31
0.0
  0
LINE
  5
129
  8
UNTDUCTDIM
  6
CONTINUOUS
 62
     2
 10
66.310268210499984
 20
96.421240023300001
 30
0.0
 11
66.310268210499984
 21
83.721240023299998
 31
0.0
  0
INSERT
  5
12A
  8
UNTDUCTDIM
  6
CONTINUOUS
 62
     2
  2
_FILLED
 10
66.310268210499984
 20
112.2962400233
 30
0.0
 41
4.0
 42
4.0
 43
4.0
 50
270.0
  0
INSERT
  5
12B
  8
UNTDUCTDIM
  6
CONTINUOUS
 62
     2
  2
_FILLED
 10
66.310268210499984
 20
96.421240023300001
 30
0.0
 41
4.0
 42
4.0
 43
4.0
 50
90.0
  0
ENDBLK
  5
12C
  8
0
  6
ByBlock
 62
     0
  0
BLOCK
  8
UNTDUCTDIM
  6
CONTINUOUS
 62
     2
  2
*D12
 70
     1
 10
0.0
 20
0.0
 30
0.0
  3
*D12
  1

  0
TEXT
  5
12F
  8
UNTDUCTDIM
  6
CONTINUOUS
 62
     2
 10
138.26024698023329
 20
109.2932955385
 30
0.0
 40
2.0
  1
41-3/8
 41
0.8
 72
     1
 11
142.5269136469
 21
109.2932955385
 31
0.0
  0
TEXT
  5
130
  8
UNTDUCTDIM
  6
CONTINUOUS
 62
     2
 10
150.5269136469
 20
109.2932955385
 30
0.0
 40
2.0
  1
 
 41
0.8
 72
     1
 11
151.32691364690001
 21
109.2932955385
 31
0.0
  0
TEXT
  5
131
  8
UNTDUCTDIM
  6
CONTINUOUS
 62
     2
 10
138.26024698023329
 20
106.2932955385
 30
0.0
 40
2.0
  1
[
 41
0.8
 72
     1
 11
138.5269136469
 21
106.2932955385
 31
0.0
  0
TEXT
  5
132
  8
UNTDUCTDIM
  6
CONTINUOUS
 62
     2
 10
140.79358031356659
 20
106.2932955385
 30
0.0
 40
2.0
  1
1051.3
 41
0.8
 72
     1
 11
144.12691364689999
 21
106.2932955385
 31
0.0
  0
TEXT
  5
133
  8
UNTDUCTDIM
  6
CONTINUOUS
 62
     2
 10
149.46024698023331
 20
106.2932955385
 30
0.0
 40
2.0
  1
]
 41
0.8
 72
     1
 11
149.72691364689999
 21
106.2932955385
 31
0.0
  0
LINE
  5
134
  8
UNTDUCTDIM
  6
CONTINUOUS
 62
     2
 10
144.31422280090001
 20
96.421240023300001
 30
0.0
 11
146.51441364690001
 21
96.421240023300001
 31
0.0
  0
LINE
  5
135
  8
UNTDUCTDIM
  6
CONTINUOUS
 62
     2
 10
143.3394136469
 20
137.8112400233
 30
0.0
 11
145.99619679040001
 21
137.8112400233
 31
0.0
  0
LINE
  5
136
  8
UNTDUCTDIM
  6
CONTINUOUS
 62
     2
 10
144.9269136469
 20
96.421240023300001
 30
0.0
 11
144.9269136469
 21
104.2932955385
 31
0.0
  0
LINE
  5
137
  8
UNTDUCTDIM
  6
CONTINUOUS
 62
     2
 10
144.9269136469
 20
137.8112400233
 30
0.0
 11
144.9269136469
 21
113.2932955385
 31
0.0
  0
INSERT
  5
138
  8
UNTDUCTDIM
  6
CONTINUOUS
 62
     2
  2
_FILLED
 10
144.9269136469
 20
96.421240023300001
 30
0.0
 41
4.0
 42
4.0
 43
4.0
 50
270.0
  0
INSERT
  5
139
  8
UNTDUCTDIM
  6
CONTINUOUS
 62
     2
  2
_FILLED
 10
144.9269136469
 20
137.8112400233
 30
0.0
 41
4.0
 42
4.0
 43
4.0
 50
90.0
  0
ENDBLK
  5
13A
  8
0
  6
ByBlock
 62
     0
  0
BLOCK
  8
UNTDUCTDIM
  6
CONTINUOUS
 62
     2
  2
*D13
 70
     1
 10
0.0
 20
0.0
 30
0.0
  3
*D13
  1

  0
TEXT
  5
13D
  8
UNTDUCTDIM
  6
CONTINUOUS
 62
     2
 10
60.75598365313332
 20
62.865272651800012
 30
0.0
 40
2.0
  1
5-5/8
 41
0.8
 72
     2
 11
68.222650319799996
 21
62.865272651800012
 31
0.0
  0
TEXT
  5
13E
  8
UNTDUCTDIM
  6
CONTINUOUS
 62
     2
 10
71.422650319799999
 20
62.865272651800012
 30
0.0
 40
2.0
  1
 
 41
0.8
 72
     2
 11
73.022650319799993
 21
62.865272651800012
 31
0.0
  0
TEXT
  5
13F
  8
UNTDUCTDIM
  6
CONTINUOUS
 62
     2
 10
61.289316986466673
 20
59.865272651800012
 30
0.0
 40
2.0
  1
[
 41
0.8
 72
     2
 11
61.822650319799997
 21
59.865272651800012
 31
0.0
  0
TEXT
  5
140
  8
UNTDUCTDIM
  6
CONTINUOUS
 62
     2
 10
63.95598365313333
 20
59.865272651800012
 30
0.0
 40
2.0
  1
142.9
 41
0.8
 72
     2
 11
69.82265031979999
 21
59.865272651800012
 31
0.0
  0
TEXT
  5
141
  8
UNTDUCTDIM
  6
CONTINUOUS
 62
     2
 10
70.889316986466667
 20
59.865272651800012
 30
0.0
 40
2.0
  1
]
 41
0.8
 72
     2
 11
71.422650319799999
 21
59.865272651800012
 31
0.0
  0
LINE
  5
142
  8
UNTDUCTDIM
  6
CONTINUOUS
 62
     2
 10
81.787167983299994
 20
96.421240023300001
 30
0.0
 11
76.566058670700002
 21
96.421240023300001
 31
0.0
  0
LINE
  5
143
  8
UNTDUCTDIM
  6
CONTINUOUS
 62
     2
 10
78.153558670699994
 20
96.421240023300001
 30
0.0
 11
78.153558670699994
 21
109.1212400233
 31
0.0
  0
LINE
  5
144
  8
UNTDUCTDIM
  6
CONTINUOUS
 62
     2
 10
78.153558670699994
 20
90.796240023300001
 30
0.0
 11
78.153558670699994
 21
63.865272651799998
 31
0.0
  0
LINE
  5
145
  8
UNTDUCTDIM
  6
CONTINUOUS
 62
     2
 10
78.153558670699994
 20
63.865272651799998
 30
0.0
 11
75.022650319799993
 21
63.865272651799998
 31
0.0
  0
INSERT
  5
146
  8
UNTDUCTDIM
  6
CONTINUOUS
 62
     2
  2
_FILLED
 10
78.153558670699994
 20
96.421240023300001
 30
0.0
 41
4.0
 42
4.0
 43
4.0
 50
270.0
  0
INSERT
  5
147
  8
UNTDUCTDIM
  6
CONTINUOUS
 62
     2
  2
_FILLED
 10
78.153558670699994
 20
90.796240023300001
 30
0.0
 41
4.0
 42
4.0
 43
4.0
 50
90.0
  0
ENDBLK
  5
148
  8
0
  6
ByBlock
 62
     0
  0
BLOCK
  8
UNTDUCTDIM
  6
CONTINUOUS
 62
     2
  2
*D14
 70
     1
 10
0.0
 20
0.0
 30
0.0
  3
*D14
  1

  0
TEXT
  5
14B
  8
UNTDUCTDIM
  6
CONTINUOUS
 62
     2
 10
172.76337964556669
 20
72.025311332100003
 30
0.0
 40
2.0
  1
5-5/8
 41
0.8
 72
     1
 11
176.49671297890001
 21
72.025311332100003
 31
0.0
  0
TEXT
  5
14C
  8
UNTDUCTDIM
  6
CONTINUOUS
 62
     2
 10
183.6967129789
 20
72.025311332100003
 30
0.0
 40
2.0
  1
 
 41
0.8
 72
     1
 11
184.49671297890001
 21
72.025311332100003
 31
0.0
  0
TEXT
  5
14D
  8
UNTDUCTDIM
  6
CONTINUOUS
 62
     2
 10
173.03004631223331
 20
69.025311332100003
 30
0.0
 40
2.0
  1
[
 41
0.8
 72
     1
 11
173.29671297889999
 21
69.025311332100003
 31
0.0
  0
TEXT
  5
14E
  8
UNTDUCTDIM
  6
CONTINUOUS
 62
     2
 10
175.16337964556661
 20
69.025311332100003
 30
0.0
 40
2.0
  1
142.9
 41
0.8
 72
     1
 11
178.0967129789
 21
69.025311332100003
 31
0.0
  0
TEXT
  5
14F
  8
UNTDUCTDIM
  6
CONTINUOUS
 62
     2
 10
182.6300463122333
 20
69.025311332100003
 30
0.0
 40
2.0
  1
]
 41
0.8
 72
     1
 11
182.8967129788999
 21
69.025311332100003
 31
0.0
  0
LINE
  5
150
  8
UNTDUCTDIM
  6
CONTINUOUS
 62
     2
 10
161.43902908940001
 20
96.421240023300001
 30
0.0
 11
180.48421297889999
 21
96.421240023300001
 31
0.0
  0
LINE
  5
151
  8
UNTDUCTDIM
  6
CONTINUOUS
 62
     2
 10
165.985529923
 20
90.796240023300001
 30
0.0
 11
180.48421297889999
 21
90.796240023300001
 31
0.0
  0
LINE
  5
152
  8
UNTDUCTDIM
  6
CONTINUOUS
 62
     2
 10
178.89671297890001
 20
96.421240023300001
 30
0.0
 11
178.89671297890001
 21
109.1212400233
 31
0.0
  0
LINE
  5
153
  8
UNTDUCTDIM
  6
CONTINUOUS
 62
     2
 10
178.89671297890001
 20
90.796240023300001
 30
0.0
 11
178.89671297890001
 21
76.025311332100003
 31
0.0
  0
INSERT
  5
154
  8
UNTDUCTDIM
  6
CONTINUOUS
 62
     2
  2
_FILLED
 10
178.89671297890001
 20
96.421240023300001
 30
0.0
 41
4.0
 42
4.0
 43
4.0
 50
270.0
  0
INSERT
  5
155
  8
UNTDUCTDIM
  6
CONTINUOUS
 62
     2
  2
_FILLED
 10
178.89671297890001
 20
90.796240023300001
 30
0.0
 41
4.0
 42
4.0
 43
4.0
 50
90.0
  0
ENDBLK
  5
156
  8
0
  6
ByBlock
 62
     0
  0
BLOCK
  8
UNTDUCTDIM
  6
CONTINUOUS
 62
     2
  2
*D15
 70
     1
 10
0.0
 20
0.0
 30
0.0
  3
*D15
  1

  0
TEXT
  5
159
  8
UNTDUCTDIM
  6
CONTINUOUS
 62
     2
 10
92.116334649966674
 20
45.875172096199989
 30
0.0
 40
2.0
  1
29-3/4
 41
0.8
 72
     1
 11
96.649667983300006
 21
45.875172096199989
 31
0.0
  0
TEXT
  5
15A
  8
UNTDUCTDIM
  6
CONTINUOUS
 62
     2
 10
103.0496679833
 20
45.875172096199989
 30
0.0
 40
2.0
  1
 
 41
0.8
 72
     1
 11
103.84966798329999
 21
45.875172096199989
 31
0.0
  0
TEXT
  5
15B
  8
UNTDUCTDIM
  6
CONTINUOUS
 62
     2
 10
92.383001316633354
 20
42.875172096199989
 30
0.0
 40
2.0
  1
[
 41
0.8
 72
     1
 11
92.649667983300006
 21
42.875172096199989
 31
0.0
  0
TEXT
  5
15C
  8
UNTDUCTDIM
  6
CONTINUOUS
 62
     2
 10
94.2496679833
 20
42.875172096199989
 30
0.0
 40
2.0
  1
755.7
 41
0.8
 72
     1
 11
97.449667983300003
 21
42.875172096199989
 31
0.0
  0
TEXT
  5
15D
  8
UNTDUCTDIM
  6
CONTINUOUS
 62
     2
 10
101.98300131663331
 20
42.875172096199989
 30
0.0
 40
2.0
  1
]
 41
0.8
 72
     1
 11
102.2496679833
 21
42.875172096199989
 31
0.0
  0
LINE
  5
15E
  8
UNTDUCTDIM
  6
CONTINUOUS
 62
     2
 10
113.1246679833
 20
59.858337515699994
 30
0.0
 11
113.1246679833
 21
45.287672096199991
 31
0.0
  0
LINE
  5
15F
  8
UNTDUCTDIM
  6
CONTINUOUS
 62
     2
 10
83.3746679833
 20
94.833740023299995
 30
0.0
 11
83.3746679833
 21
45.287672096199991
 31
0.0
  0
LINE
  5
160
  8
UNTDUCTDIM
  6
CONTINUOUS
 62
     2
 10
113.1246679833
 20
46.875172096199996
 30
0.0
 11
106.64966798330001
 21
46.875172096199996
 31
0.0
  0
LINE
  5
161
  8
UNTDUCTDIM
  6
CONTINUOUS
 62
     2
 10
83.3746679833
 20
46.875172096199996
 30
0.0
 11
89.849667983299994
 21
46.875172096199996
 31
0.0
  0
INSERT
  5
162
  8
UNTDUCTDIM
  6
CONTINUOUS
 62
     2
  2
_FILLED
 10
113.1246679833
 20
46.875172096199996
 30
0.0
 41
4.0
 42
4.0
 43
4.0
  0
INSERT
  5
163
  8
UNTDUCTDIM
  6
CONTINUOUS
 62
     2
  2
_FILLED
 10
83.3746679833
 20
46.875172096199996
 30
0.0
 41
4.0
 42
4.0
 43
4.0
 50
180.0
  0
ENDBLK
  5
164
  8
0
  6
ByBlock
 62
     0
  0
BLOCK
  8
UNTDUCTDIM
  6
CONTINUOUS
 62
     2
  2
*D16
 70
     1
 10
0.0
 20
0.0
 30
0.0
  3
*D16
  1

  0
TEXT
  5
167
  8
UNTDUCTDIM
  6
CONTINUOUS
 62
     2
 10
117.8884584344333
 20
149.19631075219999
 30
0.0
 40
2.0
  1
23-3/8
 41
0.8
 72
     2
 11
126.95512510109999
 21
149.19631075219999
 31
0.0
  0
TEXT
  5
168
  8
UNTDUCTDIM
  6
CONTINUOUS
 62
     2
 10
128.5551251011
 20
149.19631075219999
 30
0.0
 40
2.0
  1
 
 41
0.8
 72
     2
 11
130.1551251011
 21
149.19631075219999
 31
0.0
  0
TEXT
  5
169
  8
UNTDUCTDIM
  6
CONTINUOUS
 62
     2
 10
118.42179176776671
 20
146.19631075219999
 30
0.0
 40
2.0
  1
[
 41
0.8
 72
     2
 11
118.95512510109999
 21
146.19631075219999
 31
0.0
  0
TEXT
  5
16A
  8
UNTDUCTDIM
  6
CONTINUOUS
 62
     2
 10
120.5551251011
 20
146.19631075219999
 30
0.0
 40
2.0
  1
593.7
 41
0.8
 72
     2
 11
126.95512510109999
 21
146.19631075219999
 31
0.0
  0
TEXT
  5
16B
  8
UNTDUCTDIM
  6
CONTINUOUS
 62
     2
 10
128.02179176776659
 20
146.19631075219999
 30
0.0
 40
2.0
  1
]
 41
0.8
 72
     2
 11
128.5551251011
 21
146.19631075219999
 31
0.0
  0
LINE
  5
16C
  8
UNTDUCTDIM
  6
CONTINUOUS
 62
     2
 10
137.24966798329999
 20
139.39874002330001
 30
0.0
 11
137.24966798329999
 21
151.7838107522
 31
0.0
  0
LINE
  5
16D
  8
UNTDUCTDIM
  6
CONTINUOUS
 62
     2
 10
160.62466798329999
 20
139.39874002330001
 30
0.0
 11
160.62466798329999
 21
151.7838107522
 31
0.0
  0
LINE
  5
16E
  8
UNTDUCTDIM
  6
CONTINUOUS
 62
     2
 10
137.24966798329999
 20
150.19631075219999
 30
0.0
 11
148.93716798329999
 21
150.19631075219999
 31
0.0
  0
LINE
  5
16F
  8
UNTDUCTDIM
  6
CONTINUOUS
 62
     2
 10
148.93716798329999
 20
150.19631075219999
 30
0.0
 11
132.1551251011
 21
150.19631075219999
 31
0.0
  0
LINE
  5
170
  8
UNTDUCTDIM
  6
CONTINUOUS
 62
     2
 10
160.62466798329999
 20
150.19631075219999
 30
0.0
 11
148.93716798329999
 21
150.19631075219999
 31
0.0
  0
INSERT
  5
171
  8
UNTDUCTDIM
  6
CONTINUOUS
 62
     2
  2
_FILLED
 10
137.24966798329999
 20
150.19631075219999
 30
0.0
 41
4.0
 42
4.0
 43
4.0
 50
180.0
  0
INSERT
  5
172
  8
UNTDUCTDIM
  6
CONTINUOUS
 62
     2
  2
_FILLED
 10
160.62466798329999
 20
150.19631075219999
 30
0.0
 41
4.0
 42
4.0
 43
4.0
  0
ENDBLK
  5
173
  8
0
  6
ByBlock
 62
     0
  0
BLOCK
  8
UNTDUCTDIM
  6
CONTINUOUS
 62
     2
  2
*D17
 70
     1
 10
0.0
 20
0.0
 30
0.0
  3
*D17
  1

  0
TEXT
  5
176
  8
UNTDUCTDIM
  6
CONTINUOUS
 62
     2
 10
131.6996679833
 20
45.875172096199989
 30
0.0
 40
2.0
  1
50-3/4
 41
0.8
 72
     1
 11
136.09966798330001
 21
45.875172096199989
 31
0.0
  0
TEXT
  5
177
  8
UNTDUCTDIM
  6
CONTINUOUS
 62
     2
 10
144.09966798330001
 20
45.875172096199989
 30
0.0
 40
2.0
  1
 
 41
0.8
 72
     1
 11
144.89966798329999
 21
45.875172096199989
 31
0.0
  0
TEXT
  5
178
  8
UNTDUCTDIM
  6
CONTINUOUS
 62
     2
 10
131.8330013166333
 20
42.875172096199989
 30
0.0
 40
2.0
  1
[
 41
0.8
 72
     1
 11
132.09966798330001
 21
42.875172096199989
 31
0.0
  0
TEXT
  5
179
  8
UNTDUCTDIM
  6
CONTINUOUS
 62
     2
 10
134.23300131663331
 20
42.875172096199989
 30
0.0
 40
2.0
  1
1289.1
 41
0.8
 72
     1
 11
137.6996679833
 21
42.875172096199989
 31
0.0
  0
TEXT
  5
17A
  8
UNTDUCTDIM
  6
CONTINUOUS
 62
     2
 10
143.03300131663329
 20
42.875172096199989
 30
0.0
 40
2.0
  1
]
 41
0.8
 72
     1
 11
143.2996679833
 21
42.875172096199989
 31
0.0
  0
LINE
  5
17B
  8
UNTDUCTDIM
  6
CONTINUOUS
 62
     2
 10
113.1246679833
 20
94.833740023299995
 30
0.0
 11
113.1246679833
 21
64.499052089900005
 31
0.0
  0
LINE
  5
17C
  8
UNTDUCTDIM
  6
CONTINUOUS
 62
     2
 10
113.1246679833
 20
62.038721896600002
 30
0.0
 11
113.1246679833
 21
45.287672096199991
 31
0.0
  0
LINE
  5
17D
  8
UNTDUCTDIM
  6
CONTINUOUS
 62
     2
 10
163.87466798329999
 20
89.208740023299995
 30
0.0
 11
163.87466798329999
 21
45.287672096199991
 31
0.0
  0
LINE
  5
17E
  8
UNTDUCTDIM
  6
CONTINUOUS
 62
     2
 10
113.1246679833
 20
46.875172096199996
 30
0.0
 11
129.2996679833
 21
46.875172096199996
 31
0.0
  0
LINE
  5
17F
  8
UNTDUCTDIM
  6
CONTINUOUS
 62
     2
 10
163.87466798329999
 20
46.875172096199996
 30
0.0
 11
147.6996679833
 21
46.875172096199996
 31
0.0
  0
INSERT
  5
180
  8
UNTDUCTDIM
  6
CONTINUOUS
 62
     2
  2
_FILLED
 10
113.1246679833
 20
46.875172096199996
 30
0.0
 41
4.0
 42
4.0
 43
4.0
 50
180.0
  0
INSERT
  5
181
  8
UNTDUCTDIM
  6
CONTINUOUS
 62
     2
  2
_FILLED
 10
163.87466798329999
 20
46.875172096199996
 30
0.0
 41
4.0
 42
4.0
 43
4.0
  0
ENDBLK
  5
182
  8
0
  6
ByBlock
 62
     0
  0
BLOCK
  8
UNTDUCTDIM
  6
CONTINUOUS
 62
     2
  2
*D18
 70
     1
 10
0.0
 20
0.0
 30
0.0
  3
*D18
  1

  0
TEXT
  5
185
  8
UNTDUCTDIM
  6
CONTINUOUS
 62
     2
 10
174.13561750880001
 20
62.096295096799999
 30
0.0
 40
2.0
  1
3-1/4
 41
0.8
  0
TEXT
  5
186
  8
UNTDUCTDIM
  6
CONTINUOUS
 62
     2
 10
183.7356175088
 20
62.096295096799999
 30
0.0
 40
2.0
  1
 
 41
0.8
  0
TEXT
  5
187
  8
UNTDUCTDIM
  6
CONTINUOUS
 62
     2
 10
174.13561750880001
 20
59.096295096800013
 30
0.0
 40
2.0
  1
[
 41
0.8
  0
TEXT
  5
188
  8
UNTDUCTDIM
  6
CONTINUOUS
 62
     2
 10
175.7356175088
 20
59.096295096800013
 30
0.0
 40
2.0
  1
82.6
 41
0.8
  0
TEXT
  5
189
  8
UNTDUCTDIM
  6
CONTINUOUS
 62
     2
 10
182.13561750880001
 20
59.096295096800013
 30
0.0
 40
2.0
  1
]
 41
0.8
  0
LINE
  5
18A
  8
UNTDUCTDIM
  6
CONTINUOUS
 62
     2
 10
160.62466798329999
 20
94.833740023299995
 30
0.0
 11
160.62466798329999
 21
61.5087950968
 31
0.0
  0
LINE
  5
18B
  8
UNTDUCTDIM
  6
CONTINUOUS
 62
     2
 10
163.87466798329999
 20
89.208740023299995
 30
0.0
 11
163.87466798329999
 21
61.5087950968
 31
0.0
  0
LINE
  5
18C
  8
UNTDUCTDIM
  6
CONTINUOUS
 62
     2
 10
160.62466798329999
 20
63.096295096799999
 30
0.0
 11
147.9246679833
 21
63.096295096799999
 31
0.0
  0
LINE
  5
18D
  8
UNTDUCTDIM
  6
CONTINUOUS
 62
     2
 10
163.87466798329999
 20
63.096295096799999
 30
0.0
 11
172.13561750880001
 21
63.096295096799999
 31
0.0
  0
INSERT
  5
18E
  8
UNTDUCTDIM
  6
CONTINUOUS
 62
     2
  2
_FILLED
 10
160.62466798329999
 20
63.096295096799999
 30
0.0
 41
4.0
 42
4.0
 43
4.0
  0
INSERT
  5
18F
  8
UNTDUCTDIM
  6
CONTINUOUS
 62
     2
  2
_FILLED
 10
163.87466798329999
 20
63.096295096799999
 30
0.0
 41
4.0
 42
4.0
 43
4.0
 50
180.0
  0
ENDBLK
  5
190
  8
0
  6
ByBlock
 62
     0
  0
BLOCK
  8
UNIT-DIM
  6
CONTINUOUS
 62
     7
  2
*D19
 70
     1
 10
0.0
 20
0.0
 30
0.0
  3
*D19
  1

  0
TEXT
  5
193
  8
UNIT-DIM
  6
CONTINUOUS
 62
     7
 10
171.05800131663329
 20
149.19631075219999
 30
0.0
 40
2.0
  1
24-1/2
 41
0.8
 72
     1
 11
175.3246679833
 21
149.19631075219999
 31
0.0
  0
TEXT
  5
194
  8
UNIT-DIM
  6
CONTINUOUS
 62
     7
 10
171.05800131663329
 20
146.19631075219999
 30
0.0
 40
2.0
  1
[
 41
0.8
 72
     1
 11
171.3246679833
 21
146.19631075219999
 31
0.0
  0
TEXT
  5
195
  8
UNIT-DIM
  6
CONTINUOUS
 62
     7
 10
172.9246679833
 20
146.19631075219999
 30
0.0
 40
2.0
  1
622.3
 41
0.8
 72
     1
 11
176.12466798329999
 21
146.19631075219999
 31
0.0
  0
TEXT
  5
196
  8
UNIT-DIM
  6
CONTINUOUS
 62
     7
 10
180.65800131663329
 20
146.19631075219999
 30
0.0
 40
2.0
  1
]
 41
0.8
 72
     1
 11
180.9246679833
 21
146.19631075219999
 31
0.0
  0
LINE
  5
197
  8
UNIT-DIM
  6
CONTINUOUS
 62
     7
 10
163.87466798329999
 20
141.75865589150001
 30
0.0
 11
163.87466798329999
 21
151.7838107522
 31
0.0
  0
LINE
  5
198
  8
UNIT-DIM
  6
CONTINUOUS
 62
     7
 10
188.37466798329999
 20
121.7212702786
 30
0.0
 11
188.37466798329999
 21
151.7838107522
 31
0.0
  0
LINE
  5
199
  8
UNIT-DIM
  6
CONTINUOUS
 62
     7
 10
163.87466798329999
 20
150.19631075219999
 30
0.0
 11
168.52466798329999
 21
150.19631075219999
 31
0.0
  0
LINE
  5
19A
  8
UNIT-DIM
  6
CONTINUOUS
 62
     7
 10
188.37466798329999
 20
150.19631075219999
 30
0.0
 11
183.72466798330001
 21
150.19631075219999
 31
0.0
  0
INSERT
  5
19B
  8
UNIT-DIM
  6
CONTINUOUS
 62
     7
  2
_FILLED
 10
163.87466798329999
 20
150.19631075219999
 30
0.0
 41
4.0
 42
4.0
 43
4.0
 50
180.0
  0
INSERT
  5
19C
  8
UNIT-DIM
  6
CONTINUOUS
 62
     7
  2
_FILLED
 10
188.37466798329999
 20
150.19631075219999
 30
0.0
 41
4.0
 42
4.0
 43
4.0
  0
ENDBLK
  5
19D
  8
0
  6
ByBlock
 62
     0
  0
BLOCK
  8
SERVCLRDIM
  6
CONTINUOUS
 62
     1
  2
*D20
 70
     1
 10
0.0
 20
0.0
 30
0.0
  3
*D20
  1

  0
TEXT
  5
1A0
  8
SERVCLRDIM
  6
CONTINUOUS
 62
     1
 10
190.90278123659999
 20
81.923487750600003
 30
0.0
 40
2.0
  1
OVERALL HEIGHT AND 
 41
0.8
  0
TEXT
  5
1A1
  8
SERVCLRDIM
  6
CONTINUOUS
 62
     1
 10
190.90278123659999
 20
78.923487750600003
 30
0.0
 40
2.0
  1
CLEARANCE AREA WILL BE 
 41
0.8
  0
TEXT
  5
1A2
  8
SERVCLRDIM
  6
CONTINUOUS
 62
     1
 10
190.90278123659999
 20
75.923487750600003
 30
0.0
 40
2.0
  1
DETERMINED BY ASSEMBLY OF 
 41
0.8
  0
TEXT
  5
1A3
  8
SERVCLRDIM
  6
CONTINUOUS
 62
     1
 10
190.90278123659999
 20
72.923487750600003
 30
0.0
 40
2.0
  1
INSTALLER.  SEE CERTIFIED 
 41
0.8
  0
TEXT
  5
1A4
  8
SERVCLRDIM
  6
CONTINUOUS
 62
     1
 10
190.90278123659999
 20
69.923487750600003
 30
0.0
 40
2.0
  1
DRAWING FOR FURTHER DETAIL.
 41
0.8
  0
LINE
  5
1A5
  8
SERVCLRDIM
  6
CONTINUOUS
 62
     1
 10
165.46216798329999
 20
90.796240023300001
 30
0.0
 11
186.1402812366
 21
90.796240023300001
 31
0.0
  0
LINE
  5
1A6
  8
SERVCLRDIM
  6
CONTINUOUS
 62
     1
 10
162.33729769799999
 20
93.796240023300001
 30
0.0
 11
186.1402812366
 21
93.796240023300001
 31
0.0
  0
LINE
  5
1A7
  8
SERVCLRDIM
  6
CONTINUOUS
 62
     1
 10
184.5527812366
 20
90.796240023300001
 30
0.0
 11
184.5527812366
 21
82.923487750600003
 31
0.0
  0
LINE
  5
1A8
  8
SERVCLRDIM
  6
CONTINUOUS
 62
     1
 10
184.5527812366
 20
82.923487750600003
 30
0.0
 11
188.90278123659999
 21
82.923487750600003
 31
0.0
  0
LINE
  5
1A9
  8
SERVCLRDIM
  6
CONTINUOUS
 62
     1
 10
184.5527812366
 20
93.796240023300001
 30
0.0
 11
184.5527812366
 21
106.4962400233
 31
0.0
  0
INSERT
  5
1AA
  8
SERVCLRDIM
  6
CONTINUOUS
 62
     1
  2
_FILLED
 10
184.5527812366
 20
90.796240023300001
 30
0.0
 41
4.0
 42
4.0
 43
4.0
 50
90.0
  0
INSERT
  5
1AB
  8
SERVCLRDIM
  6
CONTINUOUS
 62
     1
  2
_FILLED
 10
184.5527812366
 20
93.796240023300001
 30
0.0
 41
4.0
 42
4.0
 43
4.0
 50
270.0
  0
ENDBLK
  5
1AC
  8
0
  6
ByBlock
 62
     0
  0
ENDSEC
  0
SECTION
  2
ENTITIES
  0
DIMENSION
  5
1AD
  8
CURB-24-DIM
  6
CONTINUOUS
 62
     6
  2
*D1
 10
160.7497976979999
 20
38.783444987300001
 30
0.0
 11
99.137297697999983
 21
38.783444987300001
 31
0.0
 70
   128
 13
39.124797698000002
 23
93.157906541499983
 33
0.0
 14
160.7497976979999
 24
44.055176281000001
 34
0.0
  0
DIMENSION
  5
1AE
  8
UNIT-DIM
  6
CONTINUOUS
 62
     7
  2
*D2
 10
163.87466798329999
 20
158.1166727227
 30
0.0
 11
99.137232840699994
 21
156.6166727227
 31
0.0
 70
   128
 13
35.999797698000002
 23
140.53757199500001
 33
0.0
 14
163.87466798329999
 24
141.01770183209999
 34
0.0
  0
DIMENSION
  5
1AF
  8
UNIT-DIM
  6
CONTINUOUS
 62
     7
  2
*D3
 10
205.2421955152
 20
140.17115589150001
 30
0.0
 11
204.44219551520001
 21
113.9836979574
 31
0.0
 70
   128
 13
165.29791182290001
 23
90.796240023300001
 33
0.0
 14
164.70737136689999
 24
140.17115589150001
 34
0.0
 50
90.0
  0
DIMENSION
  5
1B0
  8
CURB-24-DIM
  6
CONTINUOUS
 62
     6
  2
*D4
 10
8.5297071971000005
 20
93.796240023300001
 30
0.0
 11
7.7297071970999998
 21
80.297104646499989
 31
0.0
 70
   128
 13
37.152797698000001
 23
69.797969269799992
 33
0.0
 14
39.124797698000002
 24
93.796240023300001
 34
0.0
 50
90.0
  0
DIMENSION
  5
1B1
  8
SERVCLRDIM
  6
CONTINUOUS
 62
     1
  2
*D5
 10
35.999797698000002
 20
132.20721984310001
 30
0.0
 11
17.199898849
 21
130.70721984310001
 31
0.0
 70
   128
 13
0.0
 23
136.1355959956
 33
0.0
 14
35.999797698000002
 24
136.1355959956
 34
0.0
  0
DIMENSION
  5
1B2
  8
SERVCLRDIM
  6
CONTINUOUS
 62
     1
  2
*D6
 10
188.37466798329999
 20
132.20721984310001
 30
0.0
 11
236.37466798329999
 21
130.70721984310001
 31
0.0
 70
   128
 13
284.37466798330001
 23
136.1355959956
 33
0.0
 14
188.37466798329999
 24
136.1355959956
 34
0.0
 50
180.0
  0
DIMENSION
  5
1B3
  8
CURB-14-DIM
  6
CONTINUOUS
 62
     6
  2
*D7
 10
160.7497976979999
 20
38.753838991899997
 30
0.0
 11
99.137297697999983
 21
38.753838991899997
 31
0.0
 70
   128
 13
39.124797698000002
 23
92.650436858199996
 33
0.0
 14
160.7497976979999
 24
92.546240023300001
 34
0.0
  0
DIMENSION
  5
1B4
  8
CURB-14-DIM
  6
CONTINUOUS
 62
     6
  2
*D8
 10
23.930551188900001
 20
93.796240023300001
 30
0.0
 11
23.1305511889
 21
85.296240023300015
 31
0.0
 70
   128
 13
37.152797698000001
 23
79.796240023300001
 33
0.0
 14
38.718018215400001
 24
93.796240023300001
 34
0.0
 50
90.0
  0
DIMENSION
  5
1B5
  8
UNIT-DIM
  6
CONTINUOUS
 62
     7
  2
*D9
 10
126.3746679833
 20
56.25417882739999
 30
0.0
 11
144.3246679833
 21
54.754178827399997
 31
0.0
 70
   128
 13
163.87466798329999
 23
90.763557452599997
 33
0.0
 14
126.3746679833
 24
96.046240023300001
 34
0.0
 50
180.0
  0
DIMENSION
  5
1B6
  8
UNIT-DIM
  6
CONTINUOUS
 62
     7
  2
*D10
 10
119.2056031077
 20
96.046240023300001
 30
0.0
 11
102.4369825353
 21
61.556753636300002
 31
0.0
 70
   128
 13
115.44394295079999
 23
90.796240023300001
 33
0.0
 14
125.49716776539999
 24
96.046240023300001
 34
0.0
 50
90.0
  0
DIMENSION
  5
1B7
  8
UNTDUCTDIM
  6
CONTINUOUS
 62
     2
  2
*D11
 10
66.310268210499984
 20
96.421240023300001
 30
0.0
 11
65.510268210500001
 21
102.8587400233
 31
0.0
 70
   128
 13
83.3746679833
 23
112.2962400233
 33
0.0
 14
83.3746679833
 24
96.421240023300001
 34
0.0
 50
270.0
  0
DIMENSION
  5
1B8
  8
UNTDUCTDIM
  6
CONTINUOUS
 62
     2
  2
*D12
 10
144.9269136469
 20
137.8112400233
 30
0.0
 11
144.12691364689999
 21
108.7932955385
 31
0.0
 70
   128
 13
148.10191364689999
 23
96.421240023300001
 33
0.0
 14
141.75191364689999
 24
137.8112400233
 34
0.0
 50
90.0
  0
DIMENSION
  5
1B9
  8
UNTDUCTDIM
  6
CONTINUOUS
 62
     2
  2
*D13
 10
78.153558670699994
 20
90.796240023300001
 30
0.0
 11
65.82265031979999
 21
62.365272651800012
 31
0.0
 70
   128
 13
83.3746679833
 23
96.421240023300001
 33
0.0
 14
35.999797698000002
 24
90.796240023300001
 34
0.0
 50
270.0
  0
DIMENSION
  5
1BA
  8
UNTDUCTDIM
  6
CONTINUOUS
 62
     2
  2
*D14
 10
178.89671297890001
 20
90.796240023300001
 30
0.0
 11
178.0967129789
 21
71.525311332100003
 31
0.0
 70
   128
 13
159.8515290894
 23
96.421240023300001
 33
0.0
 14
164.398029923
 24
90.796240023300001
 34
0.0
 50
270.0
  0
DIMENSION
  5
1BB
  8
UNTDUCTDIM
  6
CONTINUOUS
 62
     2
  2
*D15
 10
83.3746679833
 20
46.875172096199996
 30
0.0
 11
97.449667983300003
 21
45.375172096199989
 31
0.0
 70
   128
 13
113.1246679833
 23
61.445837515699992
 33
0.0
 14
83.3746679833
 24
96.421240023300001
 34
0.0
 50
180.0
  0
DIMENSION
  5
1BC
  8
UNTDUCTDIM
  6
CONTINUOUS
 62
     2
  2
*D16
 10
160.62466798329999
 20
150.19631075219999
 30
0.0
 11
122.95512510109999
 21
148.69631075219999
 31
0.0
 70
   128
 13
137.24966798329999
 23
137.8112400233
 33
0.0
 14
160.62466798329999
 24
137.8112400233
 34
0.0
  0
DIMENSION
  5
1BD
  8
UNTDUCTDIM
  6
CONTINUOUS
 62
     2
  2
*D17
 10
163.87466798329999
 20
46.875172096199996
 30
0.0
 11
137.6996679833
 21
45.375172096199989
 31
0.0
 70
   128
 13
113.1246679833
 23
96.421240023300001
 33
0.0
 14
163.87466798329999
 24
90.796240023300001
 34
0.0
  0
DIMENSION
  5
1BE
  8
UNTDUCTDIM
  6
CONTINUOUS
 62
     2
  2
*D18
 10
163.87466798329999
 20
63.096295096799999
 30
0.0
 11
178.93561750879999
 21
61.596295096800013
 31
0.0
 70
   128
 13
160.62466798329999
 23
96.421240023300001
 33
0.0
 14
163.87466798329999
 24
90.796240023300001
 34
0.0
  0
DIMENSION
  5
1BF
  8
UNIT-DIM
  6
CONTINUOUS
 62
     7
  2
*D19
 10
188.37466798329999
 20
150.19631075219999
 30
0.0
 11
176.12466798329999
 21
148.69631075219999
 31
0.0
 70
   128
 13
163.87466798329999
 23
140.17115589150001
 33
0.0
 14
188.37466798329999
 24
120.1337702786
 34
0.0
  0
DIMENSION
  5
1C0
  8
SERVCLRDIM
  6
CONTINUOUS
 62
     1
  2
*D20
 10
184.5527812366
 20
93.796240023300001
 30
0.0
 11
212.50278123659999
 21
76.923487750600003
 31
0.0
 70
   128
 13
163.87466798329999
 23
90.796240023300001
 33
0.0
 14
160.7497976979999
 24
93.796240023300001
 34
0.0
 50
90.0
  0
LINE
  5
1C1
  8
NOTES
  6
CONTINUOUS
 62
     1
 10
0.0
 20
0.0
 30
0.0
 11
48.0
 21
0.0
 31
0.0
  0
LINE
  5
1C2
  8
NOTES
  6
CONTINUOUS
 62
     1
 10
0.0
 20
0.0
 30
0.0
 11
0.0
 21
36.5
 31
0.0
  0
LINE
  5
1C3
  8
NOTES
  6
CONTINUOUS
 62
     1
 10
0.0
 20
4.0
 30
0.0
 11
48.0
 21
4.0
 31
0.0
  0
LINE
  5
1C4
  8
NOTES
  6
CONTINUOUS
 62
     1
 10
0.0
 20
4.5
 30
0.0
 11
48.0
 21
4.5
 31
0.0
  0
LINE
  5
1C5
  8
NOTES
  6
CONTINUOUS
 62
     1
 10
0.0
 20
8.5
 30
0.0
 11
48.0
 21
8.5
 31
0.0
  0
LINE
  5
1C6
  8
NOTES
  6
CONTINUOUS
 62
     1
 10
0.0
 20
12.5
 30
0.0
 11
48.0
 21
12.5
 31
0.0
  0
LINE
  5
1C7
  8
NOTES
  6
CONTINUOUS
 62
     1
 10
0.0
 20
16.5
 30
0.0
 11
48.0
 21
16.5
 31
0.0
  0
LINE
  5
1C8
  8
NOTES
  6
CONTINUOUS
 62
     1
 10
0.0
 20
20.5
 30
0.0
 11
48.0
 21
20.5
 31
0.0
  0
LINE
  5
1C9
  8
NOTES
  6
CONTINUOUS
 62
     1
 10
0.0
 20
24.5
 30
0.0
 11
48.0
 21
24.5
 31
0.0
  0
LINE
  5
1CA
  8
NOTES
  6
CONTINUOUS
 62
     1
 10
0.0
 20
28.5
 30
0.0
 11
48.0
 21
28.5
 31
0.0
  0
LINE
  5
1CB
  8
NOTES
  6
CONTINUOUS
 62
     1
 10
0.0
 20
32.5
 30
0.0
 11
48.0
 21
32.5
 31
0.0
  0
LINE
  5
1CC
  8
NOTES
  6
CONTINUOUS
 62
     1
 10
0.0
 20
36.5
 30
0.0
 11
48.0
 21
36.5
 31
0.0
  0
LINE
  5
1CD
  8
NOTES
  6
CONTINUOUS
 62
     1
 10
16.0
 20
12.5
 30
0.0
 11
16.0
 21
36.5
 31
0.0
  0
LINE
  5
1CE
  8
NOTES
  6
CONTINUOUS
 62
     1
 10
48.0
 20
0.0
 30
0.0
 11
48.0
 21
36.5
 31
0.0
  0
TEXT
  5
1CF
  8
NOTES
  6
CONTINUOUS
 62
     1
 10
0.8
 20
1.0
 30
0.0
 40
2.0
  1
VIEW: BACK
 41
0.8
  0
TEXT
  5
1D0
  8
NOTES
  6
CONTINUOUS
 62
     1
 10
0.8
 20
5.5
 30
0.0
 40
2.0
  1
FILE NAME: 
 41
0.8
  0
TEXT
  5
1D1
  8
NOTES
  6
CONTINUOUS
 62
     1
 10
18.399999999999999
 20
5.5
 30
0.0
 40
2.0
  1
TMB60-B-
 41
0.8
  0
TEXT
  5
1D2
  8
NOTES
  6
CONTINUOUS
 62
     1
 10
17.066666666666659
 20
9.5
 30
0.0
 40
2.0
  1
LAYER KEY
 41
0.8
 72
     1
 11
24.0
 21
9.5
 31
0.0
  0
TEXT
  5
1D3
  8
NOTES
  6
CONTINUOUS
 62
     7
 10
2.6666666666666661
 20
13.5
 30
0.0
 40
2.0
  1
-
 41
8.0
  7
TEXTSTYLE_2
 72
     1
 11
8.0
 21
13.5
 31
0.0
  0
TEXT
  5
1D4
  8
NOTES
  6
CONTINUOUS
 62
     1
 10
16.800000000000001
 20
13.5
 30
0.0
 40
2.0
  1
UNIT
 41
0.8
  0
TEXT
  5
1D5
  8
NOTES
  6
CONTINUOUS
 62
     6
 10
2.6666666666666661
 20
17.5
 30
0.0
 40
2.0
  1
-
 41
8.0
  7
TEXTSTYLE_2
 72
     1
 11
8.0
 21
17.5
 31
0.0
  0
TEXT
  5
1D6
  8
NOTES
  6
CONTINUOUS
 62
     1
 10
16.800000000000001
 20
17.5
 30
0.0
 40
2.0
  1
ROOF CURB
 41
0.8
  0
TEXT
  5
1D7
  8
NOTES
  6
CONTINUOUS
 62
     1
 10
2.6666666666666661
 20
21.5
 30
0.0
 40
2.0
  1
-
 41
8.0
  7
TEXTSTYLE_2
 72
     1
 11
8.0
 21
21.5
 31
0.0
  0
TEXT
  5
1D8
  8
NOTES
  6
CONTINUOUS
 62
     1
 10
16.800000000000001
 20
21.5
 30
0.0
 40
2.0
  1
SERVICE CLEARANCE
 41
0.8
  0
TEXT
  5
1D9
  8
NOTES
  6
CONTINUOUS
 62
     2
 10
2.6666666666666661
 20
25.5
 30
0.0
 40
2.0
  1
-
 41
8.0
  7
TEXTSTYLE_2
 72
     1
 11
8.0
 21
25.5
 31
0.0
  0
TEXT
  5
1DA
  8
NOTES
  6
CONTINUOUS
 62
     1
 10
16.800000000000001
 20
25.5
 30
0.0
 40
2.0
  1
UNIT DUCTS
 41
0.8
  0
TEXT
  5
1DB
  8
NOTES
  6
CONTINUOUS
 62
     5
 10
2.6666666666666661
 20
29.5
 30
0.0
 40
2.0
  1
-
 41
8.0
  7
TEXTSTYLE_2
 72
     1
 11
8.0
 21
29.5
 31
0.0
  0
TEXT
  5
1DC
  8
NOTES
  6
CONTINUOUS
 62
     1
 10
16.800000000000001
 20
29.5
 30
0.0
 40
2.0
  1
CURB DUCTS
 41
0.8
  0
TEXT
  5
1DD
  8
NOTES
  6
HIDDEN
 62
     8
 10
2.6666666666666661
 20
33.5
 30
0.0
 40
2.0
  1
-
 41
8.0
  7
TEXTSTYLE_2
 72
     1
 11
8.0
 21
33.5
 31
0.0
  0
TEXT
  5
1DE
  8
NOTES
  6
CONTINUOUS
 62
     1
 10
16.800000000000001
 20
33.5
 30
0.0
 40
2.0
  1
UNIT HIDDEN
 41
0.8
  0
TEXT
  5
1DF
  8
NOTES
  6
CONTINUOUS
 62
     1
 10
48.772120870600013
 20
147.21711776199999
 30
0.0
 40
2.286
  1
3/4"-14 NPT CONDENSATE DRAIN
 41
0.8
  0
LINE
  5
1E0
  8
NOTES
  6
CONTINUOUS
 62
     1
 10
125.5072635792
 20
96.912258788399996
 30
0.0
 11
103.26199853209999
 21
148.36011776199999
 31
0.0
  0
LINE
  5
1E1
  8
NOTES
  6
CONTINUOUS
 62
     1
 10
103.26199853209999
 20
148.36011776199999
 30
0.0
 11
99.978520870599993
 21
148.36011776199999
 31
0.0
  0
SOLID
  5
1E2
  8
NOTES
  6
CONTINUOUS
 62
     1
 10
123.2313619828
 20
100.28609516909999
 30
0.0
 11
125.5072635792
 21
96.912258788399996
 31
0.0
 12
124.6081714971
 22
100.88140648380001
 32
0.0
 13
124.6081714971
 23
100.88140648380001
 33
0.0
  0
LINE
  5
1E3
  8
SERVCLEAR
  6
DASHED
 62
     1
 10
0.0
 20
140.04595209999999
 30
0.0
 11
0.0
 21
90.796240023300001
 31
0.0
  0
LINE
  5
1E4
  8
0
  6
CONTINUOUS
 62
     7
 10
0.0
 20
0.0
 30
0.0
 11
0.0
 21
175.0
 31
0.0
  0
LINE
  5
1E5
  8
UNIT-SOL
  6
CONTINUOUS
 62
     7
 10
35.999797698000002
 20
140.17115589150001
 30
0.0
 11
35.999797698000002
 21
90.796240023300001
 31
0.0
  0
LINE
  5
1E6
  8
SERVCLEAR
  6
DASHED
 62
     1
 10
36.0
 20
140.17095209999999
 30
0.0
 11
36.0
 21
90.796240023300001
 31
0.0
  0
POLYLINE
  5
1E7
  8
CURB-24
  6
DOT
 62
     6
 66
     1
 10
0.0
 20
0.0
 30
0.0
 40
0.0098425202
 41
0.0098425202
  0
VERTEX
  5
29E
  8
CURB-24
  6
DOT
 62
     6
 10
39.124797698000002
 20
92.650436858199996
 30
0.0
  0
VERTEX
  5
29F
  8
CURB-24
  6
DOT
 62
     6
 10
39.124797698000002
 20
93.796240023300001
 30
0.0
  0
SEQEND
  5
2A0
  8
CURB-24
  6
DOT
 62
     6
  0
POLYLINE
  5
1EB
  8
CURB-14
  6
DOT
 62
     6
 66
     1
 10
0.0
 20
0.0
 30
0.0
 40
0.0098425202
 41
0.0098425202
  0
VERTEX
  5
2A1
  8
CURB-14
  6
DOT
 62
     6
 10
39.124797698000002
 20
92.650436858199996
 30
0.0
  0
VERTEX
  5
2A2
  8
CURB-14
  6
DOT
 62
     6
 10
39.124797698000002
 20
93.796240023300001
 30
0.0
  0
SEQEND
  5
2A3
  8
CURB-14
  6
DOT
 62
     6
  0
POLYLINE
  5
1EF
  8
CURB-24
  6
CONTINUOUS
 62
     6
 66
     1
 10
0.0
 20
0.0
 30
0.0
 40
0.0118110236
 41
0.0118110236
  0
VERTEX
  5
2A4
  8
CURB-24
  6
CONTINUOUS
 62
     6
 10
40.149797698
 20
90.796240023300001
 30
0.0
  0
VERTEX
  5
2A5
  8
CURB-24
  6
CONTINUOUS
 62
     6
 10
40.149797698
 20
69.797969269799992
 30
0.0
  0
SEQEND
  5
2A6
  8
CURB-24
  6
CONTINUOUS
 62
     6
  0
POLYLINE
  5
1F3
  8
CURB-14
  6
CONTINUOUS
 62
     6
 66
     1
 10
0.0
 20
0.0
 30
0.0
 40
0.0118110236
 41
0.0118110236
  0
VERTEX
  5
2A7
  8
CURB-14
  6
CONTINUOUS
 62
     6
 10
40.149797698
 20
90.796240023300001
 30
0.0
  0
VERTEX
  5
2A8
  8
CURB-14
  6
CONTINUOUS
 62
     6
 10
40.149797698
 20
79.796240023300001
 30
0.0
  0
SEQEND
  5
2A9
  8
CURB-14
  6
CONTINUOUS
 62
     6
  0
POLYLINE
  5
1F7
  8
CURB-14
  6
DOT
 62
     6
 66
     1
 10
0.0
 20
0.0
 30
0.0
 40
0.0098425202
 41
0.0098425202
  0
VERTEX
  5
2AA
  8
CURB-14
  6
DOT
 62
     6
 10
40.149797698
 20
90.796240023300001
 30
0.0
  0
VERTEX
  5
2AB
  8
CURB-14
  6
DOT
 62
     6
 10
40.149797698
 20
92.648958686499995
 30
0.0
  0
SEQEND
  5
2AC
  8
CURB-14
  6
DOT
 62
     6
  0
POLYLINE
  5
1FB
  8
CURB-24
  6
DOT
 62
     6
 66
     1
 10
0.0
 20
0.0
 30
0.0
 40
0.0098425202
 41
0.0098425202
  0
VERTEX
  5
2AD
  8
CURB-24
  6
DOT
 62
     6
 10
40.149797698
 20
90.796240023300001
 30
0.0
  0
VERTEX
  5
2AE
  8
CURB-24
  6
DOT
 62
     6
 10
40.149797698
 20
92.648958686499995
 30
0.0
  0
SEQEND
  5
2AF
  8
CURB-24
  6
DOT
 62
     6
  0
LINE
  5
1FF
  8
0
  6
CONTINUOUS
 62
     7
 10
0.0
 20
0.0
 30
0.0
 11
300.0
 21
0.0
 31
0.0
  0
LINE
  5
200
  8
UNIT-DUCTS
  6
CONTINUOUS
 62
     2
 10
83.3746679833
 20
112.2962400233
 30
0.0
 11
83.3746679833
 21
96.421240023300001
 31
0.0
  0
LINE
  5
201
  8
UNIT-DUCTS
  6
CONTINUOUS
 62
     2
 10
113.1246679833
 20
112.2962400233
 30
0.0
 11
113.1246679833
 21
96.421240023300001
 31
0.0
  0
LINE
  5
202
  8
UNIT-DUCTS
  6
CONTINUOUS
 62
     2
 10
83.3746679833
 20
96.421240023300001
 30
0.0
 11
113.1246679833
 21
112.2962400233
 31
0.0
  0
LINE
  5
203
  8
UNIT-DUCTS
  6
CONTINUOUS
 62
     2
 10
137.24966798329999
 20
137.8112400233
 30
0.0
 11
137.24966798329999
 21
96.421240023300001
 31
0.0
  0
LINE
  5
204
  8
HOODS
  6
CONTINUOUS
 62
     7
 10
180.87668052929999
 20
111.0402348236
 30
0.0
 11
179.3997509882
 21
110.5727898649
 31
0.0
  0
POLYLINE
  5
205
  8
CURB-24
  6
CONTINUOUS
 62
     6
 66
     1
 10
0.0
 20
0.0
 30
0.0
 40
0.0098425202
 41
0.0098425202
  0
VERTEX
  5
2B0
  8
CURB-24
  6
CONTINUOUS
 62
     6
 10
37.152797698000001
 20
69.797969269799992
 30
0.0
  0
VERTEX
  5
2B1
  8
CURB-24
  6
CONTINUOUS
 62
     6
 10
162.00279769799999
 20
69.797969269799992
 30
0.0
  0
SEQEND
  5
2B2
  8
CURB-24
  6
CONTINUOUS
 62
     6
  0
LINE
  5
209
  8
UNIT-DUCTS
  6
CONTINUOUS
 62
     2
 10
83.3746679833
 20
112.2962400233
 30
0.0
 11
113.1246679833
 21
96.421240023300001
 31
0.0
  0
POLYLINE
  5
20A
  8
CURB-14
  6
CONTINUOUS
 62
     6
 66
     1
 10
0.0
 20
0.0
 30
0.0
 40
0.0098425202
 41
0.0098425202
  0
VERTEX
  5
2B3
  8
CURB-14
  6
CONTINUOUS
 62
     6
 10
37.152797698000001
 20
79.796240023300001
 30
0.0
  0
VERTEX
  5
2B4
  8
CURB-14
  6
CONTINUOUS
 62
     6
 10
162.00279769799999
 20
79.796240023300001
 30
0.0
  0
SEQEND
  5
2B5
  8
CURB-14
  6
CONTINUOUS
 62
     6
  0
POLYLINE
  5
20E
  8
CURB-24
  6
CONTINUOUS
 62
     6
 66
     1
 10
0.0
 20
0.0
 30
0.0
 40
0.0118110236
 41
0.0118110236
  0
VERTEX
  5
2B6
  8
CURB-24
  6
CONTINUOUS
 62
     6
 10
158.99979769800001
 20
90.796240023300001
 30
0.0
  0
VERTEX
  5
2B7
  8
CURB-24
  6
CONTINUOUS
 62
     6
 10
158.99979769800001
 20
69.797969269799992
 30
0.0
  0
SEQEND
  5
2B8
  8
CURB-24
  6
CONTINUOUS
 62
     6
  0
POLYLINE
  5
212
  8
CURB-14
  6
CONTINUOUS
 62
     6
 66
     1
 10
0.0
 20
0.0
 30
0.0
 40
0.0118110236
 41
0.0118110236
  0
VERTEX
  5
2B9
  8
CURB-14
  6
CONTINUOUS
 62
     6
 10
158.99979769800001
 20
90.796240023300001
 30
0.0
  0
VERTEX
  5
2BA
  8
CURB-14
  6
CONTINUOUS
 62
     6
 10
158.99979769800001
 20
79.796240023300001
 30
0.0
  0
SEQEND
  5
2BB
  8
CURB-14
  6
CONTINUOUS
 62
     6
  0
POLYLINE
  5
216
  8
CURB-14
  6
DOT
 62
     6
 66
     1
 10
0.0
 20
0.0
 30
0.0
 40
0.0098425202
 41
0.0098425202
  0
VERTEX
  5
2BC
  8
CURB-14
  6
DOT
 62
     6
 10
158.99979769800001
 20
90.796240023300001
 30
0.0
  0
VERTEX
  5
2BD
  8
CURB-14
  6
DOT
 62
     6
 10
158.99979769800001
 20
92.648958686499995
 30
0.0
  0
SEQEND
  5
2BE
  8
CURB-14
  6
DOT
 62
     6
  0
POLYLINE
  5
21A
  8
CURB-24
  6
DOT
 62
     6
 66
     1
 10
0.0
 20
0.0
 30
0.0
 40
0.0098425202
 41
0.0098425202
  0
VERTEX
  5
2BF
  8
CURB-24
  6
DOT
 62
     6
 10
158.99979769800001
 20
90.796240023300001
 30
0.0
  0
VERTEX
  5
2C0
  8
CURB-24
  6
DOT
 62
     6
 10
158.99979769800001
 20
92.648958686499995
 30
0.0
  0
SEQEND
  5
2C1
  8
CURB-24
  6
DOT
 62
     6
  0
LINE
  5
21E
  8
UNIT-DUCTS
  6
CONTINUOUS
 62
     2
 10
160.62466798329999
 20
137.8112400233
 30
0.0
 11
160.62466798329999
 21
96.421240023300001
 31
0.0
  0
POLYLINE
  5
21F
  8
CURB-24
  6
DOT
 62
     6
 66
     1
 10
0.0
 20
0.0
 30
0.0
 40
0.0098425202
 41
0.0098425202
  0
VERTEX
  5
2C2
  8
CURB-24
  6
DOT
 62
     6
 10
160.7497976979999
 20
93.796240023300001
 30
0.0
  0
VERTEX
  5
2C3
  8
CURB-24
  6
DOT
 62
     6
 10
160.7497976979999
 20
92.546240023300001
 30
0.0
  0
SEQEND
  5
2C4
  8
CURB-24
  6
DOT
 62
     6
  0
POLYLINE
  5
223
  8
CURB-14
  6
DOT
 62
     6
 66
     1
 10
0.0
 20
0.0
 30
0.0
 40
0.0098425202
 41
0.0098425202
  0
VERTEX
  5
2C5
  8
CURB-14
  6
DOT
 62
     6
 10
160.7497976979999
 20
93.796240023300001
 30
0.0
  0
VERTEX
  5
2C6
  8
CURB-14
  6
DOT
 62
     6
 10
160.7497976979999
 20
92.546240023300001
 30
0.0
  0
SEQEND
  5
2C7
  8
CURB-14
  6
DOT
 62
     6
  0
LINE
  5
227
  8
0
  6
CONTINUOUS
 62
     7
 10
188.37466798329999
 20
120.1337702786
 30
0.0
 11
188.35065577259999
 21
120.1097580678
 31
0.0
  0
LINE
  5
228
  8
HOODS
  6
CONTINUOUS
 62
     7
 10
179.3997509882
 20
110.5727898649
 30
0.0
 11
163.87466798329999
 21
96.593942339199998
 31
0.0
  0
LINE
  5
229
  8
HOODS
  6
CONTINUOUS
 62
     7
 10
180.8117480768
 20
111.04536274989999
 30
0.0
 11
181.7391021622
 21
111.8803561189
 31
0.0
  0
LINE
  5
22A
  8
HOODS
  6
CONTINUOUS
 62
     7
 10
180.87668052929999
 20
111.0402348236
 30
0.0
 11
181.77072466120001
 21
111.8452357757
 31
0.0
  0
LINE
  5
22B
  8
SERVCLEAR
  6
DASHED
 62
     1
 10
284.37466798330001
 20
90.796240023300001
 30
0.0
 11
188.37466798329999
 21
90.796240023300001
 31
0.0
  0
LINE
  5
22C
  8
UNIT-SOL
  6
CONTINUOUS
 62
     7
 10
163.87466798329999
 20
90.796240023300001
 30
0.0
 11
35.999797698000002
 21
90.796240023300001
 31
0.0
  0
LINE
  5
22D
  8
SERVCLEAR
  6
DASHED
 62
     1
 10
36.0
 20
90.796240023300001
 30
0.0
 11
0.0
 21
90.796240023300001
 31
0.0
  0
POLYLINE
  5
22E
  8
CURB-24
  6
DOT
 62
     6
 66
     1
 10
0.0
 20
0.0
 30
0.0
 40
0.0098425202
 41
0.0098425202
  0
VERTEX
  5
2C8
  8
CURB-24
  6
DOT
 62
     6
 10
39.124797698000002
 20
93.796240023300001
 30
0.0
  0
VERTEX
  5
2C9
  8
CURB-24
  6
DOT
 62
     6
 10
160.7497976979999
 20
93.796240023300001
 30
0.0
  0
SEQEND
  5
2CA
  8
CURB-24
  6
DOT
 62
     6
  0
POLYLINE
  5
232
  8
CURB-14
  6
DOT
 62
     6
 66
     1
 10
0.0
 20
0.0
 30
0.0
 40
0.0098425202
 41
0.0098425202
  0
VERTEX
  5
2CB
  8
CURB-14
  6
DOT
 62
     6
 10
39.124797698000002
 20
93.796240023300001
 30
0.0
  0
VERTEX
  5
2CC
  8
CURB-14
  6
DOT
 62
     6
 10
160.7497976979999
 20
93.796240023300001
 30
0.0
  0
SEQEND
  5
2CD
  8
CURB-14
  6
DOT
 62
     6
  0
LINE
  5
236
  8
UNIT-DUCTS
  6
CONTINUOUS
 62
     2
 10
160.62466798329999
 20
96.421240023300001
 30
0.0
 11
137.24966798329999
 21
96.421240023300001
 31
0.0
  0
LINE
  5
237
  8
UNIT-DUCTS
  6
CONTINUOUS
 62
     2
 10
113.1246679833
 20
96.421240023300001
 30
0.0
 11
83.3746679833
 21
96.421240023300001
 31
0.0
  0
POLYLINE
  5
238
  8
CURB-24
  6
DOT
 62
     6
 66
     1
 10
0.0
 20
0.0
 30
0.0
 40
0.0098425202
 41
0.0098425202
  0
VERTEX
  5
2CE
  8
CURB-24
  6
DOT
 62
     6
 10
160.7497976979999
 20
92.546240023300001
 30
0.0
  0
VERTEX
  5
2CF
  8
CURB-24
  6
DOT
 62
     6
 10
39.124797698000002
 20
92.650436858199996
 30
0.0
  0
SEQEND
  5
2D0
  8
CURB-24
  6
DOT
 62
     6
  0
POLYLINE
  5
23C
  8
CURB-14
  6
DOT
 62
     6
 66
     1
 10
0.0
 20
0.0
 30
0.0
 40
0.0098425202
 41
0.0098425202
  0
VERTEX
  5
2D1
  8
CURB-14
  6
DOT
 62
     6
 10
160.7497976979999
 20
92.546240023300001
 30
0.0
  0
VERTEX
  5
2D2
  8
CURB-14
  6
DOT
 62
     6
 10
39.124797698000002
 20
92.650436858199996
 30
0.0
  0
SEQEND
  5
2D3
  8
CURB-14
  6
DOT
 62
     6
  0
LINE
  5
240
  8
UNIT-SOL
  6
CONTINUOUS
 62
     7
 10
163.87466798329999
 20
140.17115589150001
 30
0.0
 11
163.87466798329999
 21
90.796240023300001
 31
0.0
  0
LINE
  5
241
  8
UNIT-DUCTS
  6
CONTINUOUS
 62
     2
 10
137.24966798329999
 20
137.8112400233
 30
0.0
 11
160.62466798329999
 21
96.421240023300001
 31
0.0
  0
LINE
  5
242
  8
UNIT-DUCTS
  6
CONTINUOUS
 62
     2
 10
113.1246679833
 20
112.2962400233
 30
0.0
 11
83.3746679833
 21
112.2962400233
 31
0.0
  0
LINE
  5
243
  8
HOODS
  6
CONTINUOUS
 62
     7
 10
188.35065577259999
 20
120.1097580678
 30
0.0
 11
163.87466798329999
 21
120.1097580678
 31
0.0
  0
LINE
  5
244
  8
HOODS
  6
CONTINUOUS
 62
     7
 10
188.07654106870001
 20
122.4856131417
 30
0.0
 11
188.07654106870001
 21
120.4318971931
 31
0.0
  0
LINE
  5
245
  8
SERVCLEAR
  6
DASHED
 62
     1
 10
188.37466798329999
 20
140.17095209999999
 30
0.0
 11
188.37466798329999
 21
90.796240023300001
 31
0.0
  0
LINE
  5
246
  8
HOODS
  6
CONTINUOUS
 62
     7
 10
180.8117480768
 20
111.04536274989999
 30
0.0
 11
163.87466798329999
 21
118.9432529043
 31
0.0
  0
LINE
  5
247
  8
HOODS
  6
CONTINUOUS
 62
     7
 10
181.77072466120001
 20
111.8452357757
 30
0.0
 11
181.7391021622
 21
111.8803561189
 31
0.0
  0
LINE
  5
248
  8
UNIT-DUCTS
  6
CONTINUOUS
 62
     2
 10
160.62466798329999
 20
137.8112400233
 30
0.0
 11
137.24966798329999
 21
137.8112400233
 31
0.0
  0
LINE
  5
249
  8
SERVCLEAR
  6
DASHED
 62
     1
 10
0.3125
 20
140.17095209999999
 30
0.0
 11
36.0
 21
140.17095209999999
 31
0.0
  0
LINE
  5
24A
  8
SERVCLEAR
  6
DASHED
 62
     1
 10
188.37466798329999
 20
140.17095209999999
 30
0.0
 11
284.37466798330001
 21
140.17095209999999
 31
0.0
  0
LINE
  5
24B
  8
UNIT-SOL
  6
CONTINUOUS
 62
     7
 10
163.87466798329999
 20
140.17115589150001
 30
0.0
 11
35.999797698000002
 21
140.17115589150001
 31
0.0
  0
LINE
  5
24C
  8
HOODS
  6
CONTINUOUS
 62
     7
 10
163.87466798329999
 20
138.54164470149999
 30
0.0
 11
188.07654106870001
 21
122.4856131417
 31
0.0
  0
LINE
  5
24D
  8
HOODS
  6
CONTINUOUS
 62
     7
 10
188.37466798329999
 20
120.1337702786
 30
0.0
 11
188.07654106870001
 21
120.4318971931
 31
0.0
  0
LINE
  5
24E
  8
0
  6
CONTINUOUS
 62
     7
 10
0.0
 20
175.0
 30
0.0
 11
300.0
 21
175.0
 31
0.0
  0
LINE
  5
24F
  8
SERVCLEAR
  6
DASHED
 62
     1
 10
284.37466798330001
 20
140.04595209999999
 30
0.0
 11
284.37466798330001
 21
90.796240023300001
 31
0.0
  0
LINE
  5
250
  8
0
  6
CONTINUOUS
 62
     7
 10
300.0
 20
0.0
 30
0.0
 11
300.0
 21
175.0
 31
0.0
  0
CIRCLE
  5
251
  8
UNIT-SOL
  6
CONTINUOUS
 62
     7
 10
126.3746679833
 20
96.046240023300001
 30
0.0
 40
1.2257156691999991
  0
ENDSEC
  0
EOF
