  0
SECTION
  2
HEADER
  9
$ACADVER
  1
AC1009
  9
$INSBASE
 10
0.0
 20
0.0
 30
0.0
  9
$EXTMIN
 10
-0.0091545749561419
 20
-0.0053401687244445
 30
-0.0015258207003583
  9
$EXTMAX
 10
300.00915597194012
 20
175.0053409836317
 30
0.0000000349246037
  9
$LIMMIN
 10
0.0
 20
0.0
  9
$LIMMAX
 10
300.0
 20
175.0
  9
$ORTHOMODE
 70
     0
  9
$REGENMODE
 70
     1
  9
$FILLMODE
 70
     1
  9
$QTEXTMODE
 70
     0
  9
$MIRRTEXT
 70
     0
  9
$DRAGMODE
 70
     2
  9
$LTSCALE
 40
16.5
  9
$OSMODE
 70
    37
  9
$ATTMODE
 70
     1
  9
$TEXTSIZE
 40
0.2
  9
$TRACEWID
 40
0.05
  9
$TEXTSTYLE
  7
STANDARD
  9
$CLAYER
  8
0
  9
$CELTYPE
  6
ByLayer
  9
$CECOLOR
 62
   256
  9
$DIMSCALE
 40
1.0
  9
$DIMASZ
 40
4.0
  9
$DIMEXO
 40
1.587499999999999
  9
$DIMDLI
 40
11.4
  9
$DIMRND
 40
0.0
  9
$DIMDLE
 40
0.0
  9
$DIMEXE
 40
1.587499999999999
  9
$DIMTP
 40
0.0
  9
$DIMTM
 40
0.0
  9
$DIMTXT
 40
2.0
  9
$DIMCEN
 40
2.7000000000000002
  9
$DIMTSZ
 40
0.0
  9
$DIMTOL
 70
     0
  9
$DIMLIM
 70
     0
  9
$DIMTIH
 70
     1
  9
$DIMTOH
 70
     1
  9
$DIMSE1
 70
     0
  9
$DIMSE2
 70
     0
  9
$DIMTAD
 70
     0
  9
$DIMZIN
 70
     0
  9
$DIMBLK
  1
_FILLED
  9
$DIMASO
 70
     1
  9
$DIMSHO
 70
     1
  9
$DIMPOST
  1

  9
$DIMAPOST
  1

  9
$DIMALT
 70
     0
  9
$DIMALTD
 70
     2
  9
$DIMALTF
 40
25.399999999999999
  9
$DIMLFAC
 40
1.0
  9
$DIMTOFL
 70
     0
  9
$DIMTVP
 40
0.0
  9
$DIMTIX
 70
     0
  9
$DIMSOXD
 70
     0
  9
$DIMSAH
 70
     0
  9
$DIMBLK1
  1

  9
$DIMBLK2
  1

  9
$DIMSTYLE
  2
STANDARD
  9
$DIMCLRD
 70
     0
  9
$DIMCLRE
 70
     0
  9
$DIMCLRT
 70
     0
  9
$DIMTFAC
 40
1.0
  9
$DIMGAP
 40
0.09
  9
$LUNITS
 70
     2
  9
$LUPREC
 70
     4
  9
$SKETCHINC
 40
0.1
  9
$FILLETRAD
 40
0.0
  9
$AUNITS
 70
     0
  9
$AUPREC
 70
     0
  9
$MENU
  1
.
  9
$ELEVATION
 40
0.0
  9
$PELEVATION
 40
0.0
  9
$THICKNESS
 40
0.0
  9
$LIMCHECK
 70
     0
  9
$BLIPMODE
 70
     0
  9
$CHAMFERA
 40
0.0
  9
$CHAMFERB
 40
0.0
  9
$SKPOLY
 70
     0
  9
$TDCREATE
 40
2456262.5012676041
  9
$TDUPDATE
 40
2456262.502762049
  9
$TDINDWG
 40
0.0014949769
  9
$TDUSRTIMER
 40
0.0014949769
  9
$USRTIMER
 70
     1
  9
$ANGBASE
 50
0.0
  9
$ANGDIR
 70
     0
  9
$PDMODE
 70
     3
  9
$PDSIZE
 40
7.9375
  9
$PLINEWID
 40
0.0
  9
$COORDS
 70
     1
  9
$SPLFRAME
 70
     0
  9
$SPLINETYPE
 70
     6
  9
$SPLINESEGS
 70
     8
  9
$ATTDIA
 70
     0
  9
$ATTREQ
 70
     1
  9
$HANDLING
 70
     1
  9
$HANDSEED
  5
2D4
  9
$SURFTAB1
 70
     6
  9
$SURFTAB2
 70
     6
  9
$SURFTYPE
 70
     6
  9
$SURFU
 70
     6
  9
$SURFV
 70
     6
  9
$UCSNAME
  2

  9
$UCSORG
 10
0.0
 20
0.0
 30
0.0
  9
$UCSXDIR
 10
1.0
 20
0.0
 30
0.0
  9
$UCSYDIR
 10
0.0
 20
1.0
 30
0.0
  9
$PUCSNAME
  2

  9
$PUCSORG
 10
0.0
 20
0.0
 30
0.0
  9
$PUCSXDIR
 10
1.0
 20
0.0
 30
0.0
  9
$PUCSYDIR
 10
0.0
 20
1.0
 30
0.0
  9
$USERI1
 70
     0
  9
$USERI2
 70
     0
  9
$USERI3
 70
     0
  9
$USERI4
 70
     0
  9
$USERI5
 70
     0
  9
$USERR1
 40
0.0
  9
$USERR2
 40
0.0
  9
$USERR3
 40
0.0
  9
$USERR4
 40
0.0
  9
$USERR5
 40
0.0
  9
$WORLDVIEW
 70
     1
  9
$SHADEDGE
 70
     3
  9
$SHADEDIF
 70
    70
  9
$TILEMODE
 70
     1
  9
$MAXACTVP
 70
    64
  9
$PLIMCHECK
 70
     0
  9
$PEXTMIN
 10
1.0000000000000000E+020
 20
1.0000000000000000E+020
 30
1.0000000000000000E+020
  9
$PEXTMAX
 10
-1.0000000000000000E+020
 20
-1.0000000000000000E+020
 30
-1.0000000000000000E+020
  9
$PLIMMIN
 10
0.0
 20
0.0
  9
$PLIMMAX
 10
12.0
 20
9.0
  9
$UNITMODE
 70
     0
  9
$VISRETAIN
 70
     1
  9
$PLINEGEN
 70
     0
  9
$PSLTSCALE
 70
     1
  0
ENDSEC
  0
SECTION
  2
TABLES
  0
TABLE
  2
VPORT
 70
     1
  0
VPORT
  2
*ACTIVE
 70
     0
 10
0.0
 20
0.0
 11
1.0
 21
1.0
 12
150.00000069849199
 22
87.500000407453641
 13
0.0
 23
0.0
 14
1.0
 24
1.0
 15
0.0
 25
0.0
 16
0.0
 26
0.0
 36
1.0
 17
0.0
 27
0.0
 37
0.0
 40
176.39234442461159
 41
2.2068511198945981
 42
50.0
 43
0.0
 44
0.0
 50
0.0
 51
0.0
 71
     0
 72
   100
 73
     1
 74
     1
 75
     0
 76
     0
 77
     0
 78
     0
  0
ENDTAB
  0
TABLE
  2
LTYPE
 70
     8
  0
LTYPE
  2
ByBlock
 70
     0
  3

 72
    65
 73
     0
 40
0.0
  0
LTYPE
  2
ByLayer
 70
     0
  3

 72
    65
 73
     0
 40
0.0
  0
LTYPE
  2
CONTINUOUS
 70
     0
  3
Solid line
 72
    65
 73
     0
 40
0.0
  0
LTYPE
  2
CENTER
 70
     0
  3
____ _ ____ _ ____ _ ____ _ ____ _ ____ _ ____
 72
    65
 73
     4
 40
0.6
 49
0.375
 49
-0.075
 49
0.075
 49
-0.075
  0
LTYPE
  2
HIDDEN
 70
     0
  3
- - - - - - - - - - - - - - - - - - - -
 72
    65
 73
     2
 40
0.2
 49
0.1
 49
-0.1
  0
LTYPE
  2
PHANTOM
 70
     0
  3
_____ _ _ _____ _ _ _____ _ _ _____
 72
    65
 73
     6
 40
0.8
 49
0.45
 49
-0.05
 49
0.1
 49
-0.05
 49
0.1
 49
-0.05
  0
LTYPE
  2
DOT
 70
     0
  3
. . . . . . . . . . . . . . . . . . . .
 72
    65
 73
     2
 40
0.2
 49
0.1
 49
-0.1
  0
LTYPE
  2
DASHED
 70
     0
  3
- - - - - - - - - - - - - - - - - - - -
 72
    65
 73
     2
 40
0.2
 49
0.1
 49
-0.1
  0
ENDTAB
  0
TABLE
  2
LAYER
 70
    16
  0
LAYER
  2
0
 70
     0
 62
     7
  6
CONTINUOUS
  0
LAYER
  2
DEFAULT_1
 70
     0
 62
     7
  6
CENTER
  0
LAYER
  2
DEFAULT_2
 70
     0
 62
     8
  6
HIDDEN
  0
LAYER
  2
DEFAULT_3
 70
     0
 62
     7
  6
PHANTOM
  0
LAYER
  2
CURB-14
 70
     0
 62
     6
  6
CONTINUOUS
  0
LAYER
  2
CURB-14-DIM
 70
     0
 62
     6
  6
CONTINUOUS
  0
LAYER
  2
CURB-24
 70
     0
 62
     6
  6
CONTINUOUS
  0
LAYER
  2
CURB-24-DIM
 70
     0
 62
     6
  6
CONTINUOUS
  0
LAYER
  2
HOODS
 70
     0
 62
     7
  6
CONTINUOUS
  0
LAYER
  2
NOTES
 70
     0
 62
     1
  6
CONTINUOUS
  0
LAYER
  2
SERVCLEAR
 70
     0
 62
     1
  6
CONTINUOUS
  0
LAYER
  2
SERVCLRDIM
 70
     0
 62
     1
  6
CONTINUOUS
  0
LAYER
  2
UNIT-DIM
 70
     0
 62
     7
  6
CONTINUOUS
  0
LAYER
  2
UNIT-DUCTS
 70
     0
 62
     2
  6
CONTINUOUS
  0
LAYER
  2
UNIT-SOL
 70
     0
 62
     7
  6
CONTINUOUS
  0
LAYER
  2
UNTDUCTDIM
 70
     0
 62
     2
  6
CONTINUOUS
  0
ENDTAB
  0
TABLE
  2
STYLE
 70
     4
  0
STYLE
  2
STANDARD
 70
     0
 40
0.0
 41
0.8
 50
0.0
 71
     0
 42
0.2
  3
txt
  4

  0
STYLE
  2
ANNOTATIVE
 70
     0
 40
0.0
 41
1.0
 50
0.0
 71
     0
 42
0.2
  3
txt
  4

  0
STYLE
  2
TEXTSTYLE_1
 70
     0
 40
0.0
 41
0.8
 50
0.0
 71
     0
 42
0.2
  3
gdt
  4

  0
STYLE
  2
TEXTSTYLE_2
 70
     0
 40
0.0
 41
8.0
 50
0.0
 71
     0
 42
0.2
  3
txt
  4

  0
ENDTAB
  0
TABLE
  2
VIEW
 70
     0
  0
ENDTAB
  0
TABLE
  2
UCS
 70
     0
  0
ENDTAB
  0
TABLE
  2
APPID
 70
     4
  0
APPID
  2
ACAD
 70
     0
  0
APPID
  2
ACADANNOTATIVE
 70
     0
  0
APPID
  2
ACAD_NAV_VCDISPLAY
 70
     0
  0
APPID
  2
ACAD_MLEADERVER
 70
     0
  0
ENDTAB
  0
TABLE
  2
DIMSTYLE
 70
     2
  0
DIMSTYLE
  2
STANDARD
 70
     0
  3

  4

  5

  6

  7

 40
1.0
 41
0.18
 42
0.0625
 43
0.38
 44
0.18
 45
0.0
 46
0.0
 47
0.0
 48
0.0
140
0.18
141
0.09
142
0.0
143
25.399999999999999
144
1.0
145
0.0
146
1.0
147
0.09
 71
     0
 72
     0
 73
     1
 74
     1
 75
     0
 76
     0
 77
     0
 78
     0
170
     0
171
     2
172
     0
173
     0
174
     0
175
     0
176
     0
177
     0
178
     0
  0
DIMSTYLE
  2
ANNOTATIVE
 70
     0
  3

  4

  5

  6

  7

 40
1.0
 41
0.18
 42
0.0625
 43
0.38
 44
0.18
 45
0.0
 46
0.0
 47
0.0
 48
0.0
140
0.18
141
0.09
142
0.0
143
25.399999999999999
144
1.0
145
0.0
146
1.0
147
0.09
 71
     0
 72
     0
 73
     1
 74
     1
 75
     0
 76
     0
 77
     0
 78
     0
170
     0
171
     2
172
     0
173
     0
174
     0
175
     0
176
     0
177
     0
178
     0
  0
ENDTAB
  0
ENDSEC
  0
SECTION
  2
BLOCKS
  0
BLOCK
  8
0
  2
$MODEL_SPACE
 70
     0
 10
0.0
 20
0.0
 30
0.0
  3
$MODEL_SPACE
  1

  0
ENDBLK
  5
6D
  8
0
  0
BLOCK
 67
     1
  8
0
  2
$PAPER_SPACE
 70
     0
 10
0.0
 20
0.0
 30
0.0
  3
$PAPER_SPACE
  1

  0
ENDBLK
  5
69
 67
     1
  8
0
  0
BLOCK
  8
0
  2
_FILLED
 70
     0
 10
0.0
 20
0.0
 30
0.0
  3
_FILLED
  1

  0
SOLID
  5
8C
  8
0
  6
ByBlock
 62
     0
 10
0.0
 20
0.0
 30
0.0
 11
-1.0
 21
0.1875
 31
0.0
 12
-1.0
 22
-0.1875
 32
0.0
 13
-1.0
 23
-0.1875
 33
0.0
  0
ENDBLK
  5
8D
  8
0
  6
ByBlock
 62
     0
  0
BLOCK
  8
CURB-24-DIM
  6
CONTINUOUS
 62
     6
  2
*D1
 70
     1
 10
0.0
 20
0.0
 30
0.0
  3
*D1
  1

  0
TEXT
  5
90
  8
CURB-24-DIM
  6
CONTINUOUS
 62
     6
 10
93.264381031333315
 20
37.783444987300001
 30
0.0
 40
2.0
  1
135-5/8
 41
0.8
 72
     1
 11
98.331047698000006
 21
37.783444987300001
 31
0.0
  0
TEXT
  5
91
  8
CURB-24-DIM
  6
CONTINUOUS
 62
     6
 10
106.4643810313333
 20
37.783444987300001
 30
0.0
 40
2.0
  1
[
 41
0.8
 72
     1
 11
106.731047698
 21
37.783444987300001
 31
0.0
  0
TEXT
  5
92
  8
CURB-24-DIM
  6
CONTINUOUS
 62
     6
 10
108.33104769800001
 20
37.783444987300001
 30
0.0
 40
2.0
  1
3446.5
 41
0.8
 72
     1
 11
112.33104769800001
 21
37.783444987300001
 31
0.0
  0
TEXT
  5
93
  8
CURB-24-DIM
  6
CONTINUOUS
 62
     6
 10
117.66438103133331
 20
37.783444987300001
 30
0.0
 40
2.0
  1
]
 41
0.8
 72
     1
 11
117.931047698
 21
37.783444987300001
 31
0.0
  0
TEXT
  5
94
  8
CURB-24-DIM
  6
CONTINUOUS
 62
     6
 10
118.731047698
 20
37.783444987300001
 30
0.0
 40
2.0
  1
 
 41
0.8
 72
     1
 11
119.53104769799999
 21
37.783444987300001
 31
0.0
  0
LINE
  5
95
  8
CURB-24-DIM
  6
CONTINUOUS
 62
     6
 10
38.687297698000002
 20
91.570406541500006
 30
0.0
 11
38.687297698000002
 21
37.195944987300003
 31
0.0
  0
LINE
  5
96
  8
CURB-24-DIM
  6
CONTINUOUS
 62
     6
 10
174.37479769800001
 20
42.467676280999989
 30
0.0
 11
174.37479769800001
 21
37.195944987300003
 31
0.0
  0
LINE
  5
97
  8
CURB-24-DIM
  6
CONTINUOUS
 62
     6
 10
38.687297698000002
 20
38.783444987300001
 30
0.0
 11
90.731047697999998
 21
38.783444987300001
 31
0.0
  0
LINE
  5
98
  8
CURB-24-DIM
  6
CONTINUOUS
 62
     6
 10
174.37479769800001
 20
38.783444987300001
 30
0.0
 11
122.33104769800001
 21
38.783444987300001
 31
0.0
  0
INSERT
  5
99
  8
CURB-24-DIM
  6
CONTINUOUS
 62
     6
  2
_FILLED
 10
38.687297698000002
 20
38.783444987300001
 30
0.0
 41
4.0
 42
4.0
 43
4.0
 50
180.0
  0
INSERT
  5
9A
  8
CURB-24-DIM
  6
CONTINUOUS
 62
     6
  2
_FILLED
 10
174.37479769800001
 20
38.783444987300001
 30
0.0
 41
4.0
 42
4.0
 43
4.0
  0
ENDBLK
  5
9B
  8
0
  6
ByBlock
 62
     0
  0
BLOCK
  8
UNIT-DIM
  6
CONTINUOUS
 62
     7
  2
*D2
 70
     1
 10
0.0
 20
0.0
 30
0.0
  3
*D2
  1

  0
TEXT
  5
9E
  8
UNIT-DIM
  6
CONTINUOUS
 62
     7
 10
100.61639950736659
 20
157.1166727227
 30
0.0
 40
2.0
  1
141-1/2
 41
0.8
 72
     1
 11
105.1497328407
 21
157.1166727227
 31
0.0
  0
TEXT
  5
9F
  8
UNIT-DIM
  6
CONTINUOUS
 62
     7
 10
112.3497328407
 20
157.1166727227
 30
0.0
 40
2.0
  1
 
 41
0.8
 72
     1
 11
113.1497328407
 21
157.1166727227
 31
0.0
  0
TEXT
  5
A0
  8
UNIT-DIM
  6
CONTINUOUS
 62
     7
 10
100.08306617403331
 20
154.1166727227
 30
0.0
 40
2.0
  1
[
 41
0.8
 72
     1
 11
100.3497328407
 21
154.1166727227
 31
0.0
  0
TEXT
  5
A1
  8
UNIT-DIM
  6
CONTINUOUS
 62
     7
 10
102.2163995073666
 20
154.1166727227
 30
0.0
 40
2.0
  1
3594.1
 41
0.8
 72
     1
 11
105.94973284069999
 21
154.1166727227
 31
0.0
  0
TEXT
  5
A2
  8
UNIT-DIM
  6
CONTINUOUS
 62
     7
 10
111.28306617403329
 20
154.1166727227
 30
0.0
 40
2.0
  1
]
 41
0.8
 72
     1
 11
111.5497328407
 21
154.1166727227
 31
0.0
  0
LINE
  5
A3
  8
UNIT-DIM
  6
CONTINUOUS
 62
     7
 10
35.999797698000002
 20
142.12507199500001
 30
0.0
 11
35.999797698000002
 21
159.70417272270001
 31
0.0
  0
LINE
  5
A4
  8
UNIT-DIM
  6
CONTINUOUS
 62
     7
 10
177.49966798329999
 20
142.60520183209999
 30
0.0
 11
177.49966798329999
 21
159.70417272270001
 31
0.0
  0
LINE
  5
A5
  8
UNIT-DIM
  6
CONTINUOUS
 62
     7
 10
35.999797698000002
 20
158.1166727227
 30
0.0
 11
97.549732840700003
 21
158.1166727227
 31
0.0
  0
LINE
  5
A6
  8
UNIT-DIM
  6
CONTINUOUS
 62
     7
 10
177.49966798329999
 20
158.1166727227
 30
0.0
 11
115.94973284069999
 21
158.1166727227
 31
0.0
  0
INSERT
  5
A7
  8
UNIT-DIM
  6
CONTINUOUS
 62
     7
  2
_FILLED
 10
35.999797698000002
 20
158.1166727227
 30
0.0
 41
4.0
 42
4.0
 43
4.0
 50
180.0
  0
INSERT
  5
A8
  8
UNIT-DIM
  6
CONTINUOUS
 62
     7
  2
_FILLED
 10
177.49966798329999
 20
158.1166727227
 30
0.0
 41
4.0
 42
4.0
 43
4.0
  0
ENDBLK
  5
A9
  8
0
  6
ByBlock
 62
     0
  0
BLOCK
  8
UNIT-DIM
  6
CONTINUOUS
 62
     7
  2
*D3
 70
     1
 10
0.0
 20
0.0
 30
0.0
  3
*D3
  1

  0
TEXT
  5
AC
  8
UNIT-DIM
  6
CONTINUOUS
 62
     7
 10
211.93386218186669
 20
114.4836979574
 30
0.0
 40
2.0
  1
49-3/8
 41
0.8
 72
     1
 11
216.46719551519999
 21
114.4836979574
 31
0.0
  0
TEXT
  5
AD
  8
UNIT-DIM
  6
CONTINUOUS
 62
     7
 10
224.46719551519999
 20
114.4836979574
 30
0.0
 40
2.0
  1
 
 41
0.8
 72
     1
 11
225.2671955152
 21
114.4836979574
 31
0.0
  0
TEXT
  5
AE
  8
UNIT-DIM
  6
CONTINUOUS
 62
     7
 10
212.20052884853331
 20
111.4836979574
 30
0.0
 40
2.0
  1
[
 41
0.8
 72
     1
 11
212.46719551519999
 21
111.4836979574
 31
0.0
  0
TEXT
  5
AF
  8
UNIT-DIM
  6
CONTINUOUS
 62
     7
 10
214.6005288485334
 20
111.4836979574
 30
0.0
 40
2.0
  1
1254.1
 41
0.8
 72
     1
 11
218.06719551520001
 21
111.4836979574
 31
0.0
  0
TEXT
  5
B0
  8
UNIT-DIM
  6
CONTINUOUS
 62
     7
 10
223.4005288485333
 20
111.4836979574
 30
0.0
 40
2.0
  1
]
 41
0.8
 72
     1
 11
223.66719551520001
 21
111.4836979574
 31
0.0
  0
LINE
  5
B1
  8
UNIT-DIM
  6
CONTINUOUS
 62
     7
 10
180.51041182290001
 20
90.796240023300001
 30
0.0
 11
220.4546955152
 21
90.796240023300001
 31
0.0
  0
LINE
  5
B2
  8
UNIT-DIM
  6
CONTINUOUS
 62
     7
 10
179.9198713669
 20
140.17115589150001
 30
0.0
 11
200.1691605403
 21
140.17115589150001
 31
0.0
  0
LINE
  5
B3
  8
UNIT-DIM
  6
CONTINUOUS
 62
     7
 10
203.4200999231
 20
140.17115589150001
 30
0.0
 11
220.4546955152
 21
140.17115589150001
 31
0.0
  0
LINE
  5
B4
  8
UNIT-DIM
  6
CONTINUOUS
 62
     7
 10
218.8671955152
 20
90.796240023300001
 30
0.0
 11
218.8671955152
 21
109.4836979574
 31
0.0
  0
LINE
  5
B5
  8
UNIT-DIM
  6
CONTINUOUS
 62
     7
 10
218.8671955152
 20
140.17115589150001
 30
0.0
 11
218.8671955152
 21
118.4836979574
 31
0.0
  0
INSERT
  5
B6
  8
UNIT-DIM
  6
CONTINUOUS
 62
     7
  2
_FILLED
 10
218.8671955152
 20
90.796240023300001
 30
0.0
 41
4.0
 42
4.0
 43
4.0
 50
270.0
  0
INSERT
  5
B7
  8
UNIT-DIM
  6
CONTINUOUS
 62
     7
  2
_FILLED
 10
218.8671955152
 20
140.17115589150001
 30
0.0
 41
4.0
 42
4.0
 43
4.0
 50
90.0
  0
ENDBLK
  5
B8
  8
0
  6
ByBlock
 62
     0
  0
BLOCK
  8
CURB-24-DIM
  6
CONTINUOUS
 62
     6
  2
*D4
 70
     1
 10
0.0
 20
0.0
 30
0.0
  3
*D4
  1

  0
TEXT
  5
BB
  8
CURB-24-DIM
  6
CONTINUOUS
 62
     6
 10
7.5672298637666664
 20
80.797104646500003
 30
0.0
 40
2.0
  1
24
 41
0.8
 72
     1
 11
8.9005631971000003
 21
80.797104646500003
 31
0.0
  0
TEXT
  5
BC
  8
CURB-24-DIM
  6
CONTINUOUS
 62
     6
 10
18.5005631971
 20
80.797104646500003
 30
0.0
 40
2.0
  1
 
 41
0.8
 72
     1
 11
19.300563197100001
 21
80.797104646500003
 31
0.0
  0
TEXT
  5
BD
  8
CURB-24-DIM
  6
CONTINUOUS
 62
     6
 10
7.833896530433333
 20
77.797104646500003
 30
0.0
 40
2.0
  1
[
 41
0.8
 72
     1
 11
8.1005631970999996
 21
77.797104646500003
 31
0.0
  0
TEXT
  5
BE
  8
CURB-24-DIM
  6
CONTINUOUS
 62
     6
 10
9.8338965304333321
 20
77.797104646500003
 30
0.0
 40
2.0
  1
609.6
 41
0.8
 72
     1
 11
12.9005631971
 21
77.797104646500003
 31
0.0
  0
TEXT
  5
BF
  8
CURB-24-DIM
  6
CONTINUOUS
 62
     6
 10
17.43389653043333
 20
77.797104646500003
 30
0.0
 40
2.0
  1
]
 41
0.8
 72
     1
 11
17.700563197099999
 21
77.797104646500003
 31
0.0
  0
LINE
  5
C0
  8
CURB-24-DIM
  6
CONTINUOUS
 62
     6
 10
35.127797698000002
 20
69.797969269799992
 30
0.0
 11
24.542971615599999
 21
69.797969269799992
 31
0.0
  0
LINE
  5
C1
  8
CURB-24-DIM
  6
CONTINUOUS
 62
     6
 10
22.596552415600001
 20
69.797969269799992
 30
0.0
 11
12.113063197100001
 21
69.797969269799992
 31
0.0
  0
LINE
  5
C2
  8
CURB-24-DIM
  6
CONTINUOUS
 62
     6
 10
37.099797698000003
 20
93.796240023300001
 30
0.0
 11
24.100603615600001
 21
93.796240023300001
 31
0.0
  0
LINE
  5
C3
  8
CURB-24-DIM
  6
CONTINUOUS
 62
     6
 10
23.481288415600002
 20
93.796240023300001
 30
0.0
 11
12.113063197100001
 21
93.796240023300001
 31
0.0
  0
LINE
  5
C4
  8
CURB-24-DIM
  6
CONTINUOUS
 62
     6
 10
13.700563197099999
 20
69.797969269799992
 30
0.0
 11
13.700563197099999
 21
75.797104646500003
 31
0.0
  0
LINE
  5
C5
  8
CURB-24-DIM
  6
CONTINUOUS
 62
     6
 10
13.700563197099999
 20
93.796240023300001
 30
0.0
 11
13.700563197099999
 21
84.797104646500003
 31
0.0
  0
INSERT
  5
C6
  8
CURB-24-DIM
  6
CONTINUOUS
 62
     6
  2
_FILLED
 10
13.700563197099999
 20
69.797969269799992
 30
0.0
 41
4.0
 42
4.0
 43
4.0
 50
270.0
  0
INSERT
  5
C7
  8
CURB-24-DIM
  6
CONTINUOUS
 62
     6
  2
_FILLED
 10
13.700563197099999
 20
93.796240023300001
 30
0.0
 41
4.0
 42
4.0
 43
4.0
 50
90.0
  0
ENDBLK
  5
C8
  8
0
  6
ByBlock
 62
     0
  0
BLOCK
  8
SERVCLRDIM
  6
CONTINUOUS
 62
     1
  2
*D5
 70
     1
 10
0.0
 20
0.0
 30
0.0
  3
*D5
  1

  0
TEXT
  5
CB
  8
SERVCLRDIM
  6
CONTINUOUS
 62
     1
 10
11.866565515666659
 20
131.20721984310001
 30
0.0
 40
2.0
  1
36
 41
0.8
 72
     1
 11
13.199898849
 21
131.20721984310001
 31
0.0
  0
TEXT
  5
CC
  8
SERVCLRDIM
  6
CONTINUOUS
 62
     1
 10
22.799898849000002
 20
131.20721984310001
 30
0.0
 40
2.0
  1
 
 41
0.8
 72
     1
 11
23.599898848999999
 21
131.20721984310001
 31
0.0
  0
TEXT
  5
CD
  8
SERVCLRDIM
  6
CONTINUOUS
 62
     1
 10
12.13323218233333
 20
128.20721984310001
 30
0.0
 40
2.0
  1
[
 41
0.8
 72
     1
 11
12.399898849
 21
128.20721984310001
 31
0.0
  0
TEXT
  5
CE
  8
SERVCLRDIM
  6
CONTINUOUS
 62
     1
 10
14.26656551566666
 20
128.20721984310001
 30
0.0
 40
2.0
  1
914.4
 41
0.8
 72
     1
 11
17.199898849
 21
128.20721984310001
 31
0.0
  0
TEXT
  5
CF
  8
SERVCLRDIM
  6
CONTINUOUS
 62
     1
 10
21.733232182333332
 20
128.20721984310001
 30
0.0
 40
2.0
  1
]
 41
0.8
 72
     1
 11
21.999898849000001
 21
128.20721984310001
 31
0.0
  0
LINE
  5
D0
  8
SERVCLRDIM
  6
CONTINUOUS
 62
     1
 10
0.0
 20
130.6197198431
 30
0.0
 11
0.0
 21
134.54809599559999
 31
0.0
  0
LINE
  5
D1
  8
SERVCLRDIM
  6
CONTINUOUS
 62
     1
 10
35.999797698000002
 20
134.54809599559999
 30
0.0
 11
35.999797698000002
 21
130.6197198431
 31
0.0
  0
LINE
  5
D2
  8
SERVCLRDIM
  6
CONTINUOUS
 62
     1
 10
0.0
 20
132.20721984310001
 30
0.0
 11
9.5998988490000006
 21
132.20721984310001
 31
0.0
  0
LINE
  5
D3
  8
SERVCLRDIM
  6
CONTINUOUS
 62
     1
 10
35.999797698000002
 20
132.20721984310001
 30
0.0
 11
26.399898849
 21
132.20721984310001
 31
0.0
  0
INSERT
  5
D4
  8
SERVCLRDIM
  6
CONTINUOUS
 62
     1
  2
_FILLED
 10
0.0
 20
132.20721984310001
 30
0.0
 41
4.0
 42
4.0
 43
4.0
 50
180.0
  0
INSERT
  5
D5
  8
SERVCLRDIM
  6
CONTINUOUS
 62
     1
  2
_FILLED
 10
35.999797698000002
 20
132.20721984310001
 30
0.0
 41
4.0
 42
4.0
 43
4.0
  0
ENDBLK
  5
D6
  8
0
  6
ByBlock
 62
     0
  0
BLOCK
  8
SERVCLRDIM
  6
CONTINUOUS
 62
     1
  2
*D6
 70
     1
 10
0.0
 20
0.0
 30
0.0
  3
*D6
  1

  0
TEXT
  5
D9
  8
SERVCLRDIM
  6
CONTINUOUS
 62
     1
 10
228.7996679833
 20
131.20721984310001
 30
0.0
 40
2.0
  1
18-96 DEPENDING ON OPTIONS, 
 41
0.8
 72
     1
 11
249.99966798329999
 21
131.20721984310001
 31
0.0
  0
TEXT
  5
DA
  8
SERVCLRDIM
  6
CONTINUOUS
 62
     1
 10
228.13300131663331
 20
128.20721984310001
 30
0.0
 40
2.0
  1
SEE PRODUCT DATA FOR DETAILS
 41
0.8
 72
     1
 11
249.99966798329999
 21
128.20721984310001
 31
0.0
  0
LINE
  5
DB
  8
SERVCLRDIM
  6
CONTINUOUS
 62
     1
 10
297.99966798330001
 20
134.54809599559999
 30
0.0
 11
297.99966798330001
 21
131.20721984310001
 31
0.0
  0
LINE
  5
DC
  8
SERVCLRDIM
  6
CONTINUOUS
 62
     1
 10
297.99966798330001
 20
131.20721984310001
 30
0.0
 11
297.99966798330001
 21
130.6197198431
 31
0.0
  0
LINE
  5
DD
  8
SERVCLRDIM
  6
CONTINUOUS
 62
     1
 10
201.99966798329999
 20
130.6197198431
 30
0.0
 11
201.99966798329999
 21
131.20721984310001
 31
0.0
  0
LINE
  5
DE
  8
SERVCLRDIM
  6
CONTINUOUS
 62
     1
 10
201.99966798329999
 20
131.20721984310001
 30
0.0
 11
201.99966798329999
 21
134.54809599559999
 31
0.0
  0
LINE
  5
DF
  8
SERVCLRDIM
  6
CONTINUOUS
 62
     1
 10
297.99966798330001
 20
132.20721984310001
 30
0.0
 11
274.39966798329999
 21
132.20721984310001
 31
0.0
  0
LINE
  5
E0
  8
SERVCLRDIM
  6
CONTINUOUS
 62
     1
 10
201.99966798329999
 20
132.20721984310001
 30
0.0
 11
225.59966798330001
 21
132.20721984310001
 31
0.0
  0
INSERT
  5
E1
  8
SERVCLRDIM
  6
CONTINUOUS
 62
     1
  2
_FILLED
 10
297.99966798330001
 20
132.20721984310001
 30
0.0
 41
4.0
 42
4.0
 43
4.0
  0
INSERT
  5
E2
  8
SERVCLRDIM
  6
CONTINUOUS
 62
     1
  2
_FILLED
 10
201.99966798329999
 20
132.20721984310001
 30
0.0
 41
4.0
 42
4.0
 43
4.0
 50
180.0
  0
ENDBLK
  5
E3
  8
0
  6
ByBlock
 62
     0
  0
BLOCK
  8
CURB-14-DIM
  6
CONTINUOUS
 62
     6
  2
*D7
 70
     1
 10
0.0
 20
0.0
 30
0.0
  3
*D7
  1

  0
TEXT
  5
E6
  8
CURB-14-DIM
  6
CONTINUOUS
 62
     6
 10
93.264381031333315
 20
37.753838991899997
 30
0.0
 40
2.0
  1
135-5/8
 41
0.8
 72
     1
 11
98.331047698000006
 21
37.753838991899997
 31
0.0
  0
TEXT
  5
E7
  8
CURB-14-DIM
  6
CONTINUOUS
 62
     6
 10
106.4643810313333
 20
37.753838991899997
 30
0.0
 40
2.0
  1
[
 41
0.8
 72
     1
 11
106.731047698
 21
37.753838991899997
 31
0.0
  0
TEXT
  5
E8
  8
CURB-14-DIM
  6
CONTINUOUS
 62
     6
 10
108.33104769800001
 20
37.753838991899997
 30
0.0
 40
2.0
  1
3446.5
 41
0.8
 72
     1
 11
112.33104769800001
 21
37.753838991899997
 31
0.0
  0
TEXT
  5
E9
  8
CURB-14-DIM
  6
CONTINUOUS
 62
     6
 10
117.66438103133331
 20
37.753838991899997
 30
0.0
 40
2.0
  1
]
 41
0.8
 72
     1
 11
117.931047698
 21
37.753838991899997
 31
0.0
  0
TEXT
  5
EA
  8
CURB-14-DIM
  6
CONTINUOUS
 62
     6
 10
118.731047698
 20
37.753838991899997
 30
0.0
 40
2.0
  1
 
 41
0.8
 72
     1
 11
119.53104769799999
 21
37.753838991899997
 31
0.0
  0
LINE
  5
EB
  8
CURB-14-DIM
  6
CONTINUOUS
 62
     6
 10
38.687297698000002
 20
91.062936858200004
 30
0.0
 11
38.687297698000002
 21
37.166338991899998
 31
0.0
  0
LINE
  5
EC
  8
CURB-14-DIM
  6
CONTINUOUS
 62
     6
 10
174.37479769800001
 20
90.958740023299995
 30
0.0
 11
174.37479769800001
 21
58.698684490700003
 31
0.0
  0
LINE
  5
ED
  8
CURB-14-DIM
  6
CONTINUOUS
 62
     6
 10
174.37479769800001
 20
54.260068586800003
 30
0.0
 11
174.37479769800001
 21
48.553276710299997
 31
0.0
  0
LINE
  5
EE
  8
CURB-14-DIM
  6
CONTINUOUS
 62
     6
 10
174.37479769800001
 20
45.573063174799998
 30
0.0
 11
174.37479769800001
 21
37.166338991899998
 31
0.0
  0
LINE
  5
EF
  8
CURB-14-DIM
  6
CONTINUOUS
 62
     6
 10
38.687297698000002
 20
38.753838991899997
 30
0.0
 11
90.731047697999998
 21
38.753838991899997
 31
0.0
  0
LINE
  5
F0
  8
CURB-14-DIM
  6
CONTINUOUS
 62
     6
 10
174.37479769800001
 20
38.753838991899997
 30
0.0
 11
122.33104769800001
 21
38.753838991899997
 31
0.0
  0
INSERT
  5
F1
  8
CURB-14-DIM
  6
CONTINUOUS
 62
     6
  2
_FILLED
 10
38.687297698000002
 20
38.753838991899997
 30
0.0
 41
4.0
 42
4.0
 43
4.0
 50
180.0
  0
INSERT
  5
F2
  8
CURB-14-DIM
  6
CONTINUOUS
 62
     6
  2
_FILLED
 10
174.37479769800001
 20
38.753838991899997
 30
0.0
 41
4.0
 42
4.0
 43
4.0
  0
ENDBLK
  5
F3
  8
0
  6
ByBlock
 62
     0
  0
BLOCK
  8
CURB-14-DIM
  6
CONTINUOUS
 62
     6
  2
*D8
 70
     1
 10
0.0
 20
0.0
 30
0.0
  3
*D8
  1

  0
TEXT
  5
F6
  8
CURB-14-DIM
  6
CONTINUOUS
 62
     6
 10
17.729716522233328
 20
85.796240023300001
 30
0.0
 40
2.0
  1
14
 41
0.8
 72
     1
 11
18.796383188899998
 21
85.796240023300001
 31
0.0
  0
TEXT
  5
F7
  8
CURB-14-DIM
  6
CONTINUOUS
 62
     6
 10
28.396383188899989
 20
85.796240023300001
 30
0.0
 40
2.0
  1
 
 41
0.8
 72
     1
 11
29.196383188900001
 21
85.796240023300001
 31
0.0
  0
TEXT
  5
F8
  8
CURB-14-DIM
  6
CONTINUOUS
 62
     6
 10
17.729716522233328
 20
82.796240023300015
 30
0.0
 40
2.0
  1
[
 41
0.8
 72
     1
 11
17.996383188900001
 21
82.796240023300015
 31
0.0
  0
TEXT
  5
F9
  8
CURB-14-DIM
  6
CONTINUOUS
 62
     6
 10
19.596383188899999
 20
82.796240023300015
 30
0.0
 40
2.0
  1
355.6
 41
0.8
 72
     1
 11
22.796383188899998
 21
82.796240023300015
 31
0.0
  0
TEXT
  5
FA
  8
CURB-14-DIM
  6
CONTINUOUS
 62
     6
 10
27.32971652223334
 20
82.796240023300015
 30
0.0
 40
2.0
  1
]
 41
0.8
 72
     1
 11
27.596383188899999
 21
82.796240023300015
 31
0.0
  0
LINE
  5
FB
  8
CURB-14-DIM
  6
CONTINUOUS
 62
     6
 10
35.127797698000002
 20
79.796240023300001
 30
0.0
 11
22.008883188900001
 21
79.796240023300001
 31
0.0
  0
LINE
  5
FC
  8
CURB-14-DIM
  6
CONTINUOUS
 62
     6
 10
36.693018215400002
 20
93.796240023300001
 30
0.0
 11
22.008883188900001
 21
93.796240023300001
 31
0.0
  0
LINE
  5
FD
  8
CURB-14-DIM
  6
CONTINUOUS
 62
     6
 10
23.596383188899999
 20
79.796240023300001
 30
0.0
 11
23.596383188899999
 21
67.096240023299998
 31
0.0
  0
LINE
  5
FE
  8
CURB-14-DIM
  6
CONTINUOUS
 62
     6
 10
23.596383188899999
 20
93.796240023300001
 30
0.0
 11
23.596383188899999
 21
106.4962400233
 31
0.0
  0
INSERT
  5
FF
  8
CURB-14-DIM
  6
CONTINUOUS
 62
     6
  2
_FILLED
 10
23.596383188899999
 20
79.796240023300001
 30
0.0
 41
4.0
 42
4.0
 43
4.0
 50
90.0
  0
INSERT
  5
100
  8
CURB-14-DIM
  6
CONTINUOUS
 62
     6
  2
_FILLED
 10
23.596383188899999
 20
93.796240023300001
 30
0.0
 41
4.0
 42
4.0
 43
4.0
 50
270.0
  0
ENDBLK
  5
101
  8
0
  6
ByBlock
 62
     0
  0
BLOCK
  8
UNIT-DIM
  6
CONTINUOUS
 62
     7
  2
*D9
 70
     1
 10
0.0
 20
0.0
 30
0.0
  3
*D9
  1

  0
TEXT
  5
104
  8
UNIT-DIM
  6
CONTINUOUS
 62
     7
 10
152.88300131663331
 20
55.254178827399997
 30
0.0
 40
2.0
  1
37-1/2
 41
0.8
 72
     1
 11
157.14966798329999
 21
55.254178827399997
 31
0.0
  0
TEXT
  5
105
  8
UNIT-DIM
  6
CONTINUOUS
 62
     7
 10
163.5496679833
 20
55.254178827399997
 30
0.0
 40
2.0
  1
 
 41
0.8
 72
     1
 11
164.34966798330001
 21
55.254178827399997
 31
0.0
  0
TEXT
  5
106
  8
UNIT-DIM
  6
CONTINUOUS
 62
     7
 10
152.88300131663331
 20
52.254178827399997
 30
0.0
 40
2.0
  1
[
 41
0.8
 72
     1
 11
153.14966798329999
 21
52.254178827399997
 31
0.0
  0
TEXT
  5
107
  8
UNIT-DIM
  6
CONTINUOUS
 62
     7
 10
154.74966798329999
 20
52.254178827399997
 30
0.0
 40
2.0
  1
952.5
 41
0.8
 72
     1
 11
157.9496679833
 21
52.254178827399997
 31
0.0
  0
TEXT
  5
108
  8
UNIT-DIM
  6
CONTINUOUS
 62
     7
 10
162.48300131663331
 20
52.254178827399997
 30
0.0
 40
2.0
  1
]
 41
0.8
 72
     1
 11
162.74966798329999
 21
52.254178827399997
 31
0.0
  0
LINE
  5
109
  8
UNIT-DIM
  6
CONTINUOUS
 62
     7
 10
177.49966798329999
 20
89.176057452600006
 30
0.0
 11
177.49966798329999
 21
54.666678827399998
 31
0.0
  0
LINE
  5
10A
  8
UNIT-DIM
  6
CONTINUOUS
 62
     7
 10
139.99966798329999
 20
94.458740023299995
 30
0.0
 11
139.99966798329999
 21
54.666678827399998
 31
0.0
  0
LINE
  5
10B
  8
UNIT-DIM
  6
CONTINUOUS
 62
     7
 10
177.49966798329999
 20
56.25417882739999
 30
0.0
 11
167.14966798329999
 21
56.25417882739999
 31
0.0
  0
LINE
  5
10C
  8
UNIT-DIM
  6
CONTINUOUS
 62
     7
 10
139.99966798329999
 20
56.25417882739999
 30
0.0
 11
150.34966798330001
 21
56.25417882739999
 31
0.0
  0
INSERT
  5
10D
  8
UNIT-DIM
  6
CONTINUOUS
 62
     7
  2
_FILLED
 10
177.49966798329999
 20
56.25417882739999
 30
0.0
 41
4.0
 42
4.0
 43
4.0
  0
INSERT
  5
10E
  8
UNIT-DIM
  6
CONTINUOUS
 62
     7
  2
_FILLED
 10
139.99966798329999
 20
56.25417882739999
 30
0.0
 41
4.0
 42
4.0
 43
4.0
 50
180.0
  0
ENDBLK
  5
10F
  8
0
  6
ByBlock
 62
     0
  0
BLOCK
  8
UNIT-DIM
  6
CONTINUOUS
 62
     7
  2
*D10
 70
     1
 10
0.0
 20
0.0
 30
0.0
  3
*D10
  1

  0
TEXT
  5
112
  8
UNIT-DIM
  6
CONTINUOUS
 62
     7
 10
111.5286492019667
 20
62.056753636300002
 30
0.0
 40
2.0
  1
5-1/4
 41
0.8
 72
     2
 11
118.4619825353
 21
62.056753636300002
 31
0.0
  0
TEXT
  5
113
  8
UNIT-DIM
  6
CONTINUOUS
 62
     7
 10
121.6619825353
 20
62.056753636300002
 30
0.0
 40
2.0
  1
 
 41
0.8
 72
     2
 11
123.26198253530001
 21
62.056753636300002
 31
0.0
  0
TEXT
  5
114
  8
UNIT-DIM
  6
CONTINUOUS
 62
     7
 10
111.5286492019667
 20
59.056753636300002
 30
0.0
 40
2.0
  1
[
 41
0.8
 72
     2
 11
112.0619825353
 21
59.056753636300002
 31
0.0
  0
TEXT
  5
115
  8
UNIT-DIM
  6
CONTINUOUS
 62
     7
 10
114.1953158686333
 20
59.056753636300002
 30
0.0
 40
2.0
  1
133.4
 41
0.8
 72
     2
 11
120.0619825353
 21
59.056753636300002
 31
0.0
  0
TEXT
  5
116
  8
UNIT-DIM
  6
CONTINUOUS
 62
     7
 10
121.1286492019667
 20
59.056753636300002
 30
0.0
 40
2.0
  1
]
 41
0.8
 72
     2
 11
121.6619825353
 21
59.056753636300002
 31
0.0
  0
LINE
  5
117
  8
UNIT-DIM
  6
CONTINUOUS
 62
     7
 10
134.41810310770001
 20
90.796240023300001
 30
0.0
 11
130.6564429508
 21
90.796240023300001
 31
0.0
  0
LINE
  5
118
  8
UNIT-DIM
  6
CONTINUOUS
 62
     7
 10
137.5346677654
 20
96.046240023300001
 30
0.0
 11
131.24310310769999
 21
96.046240023300001
 31
0.0
  0
LINE
  5
119
  8
UNIT-DIM
  6
CONTINUOUS
 62
     7
 10
132.8306031077
 20
90.796240023300001
 30
0.0
 11
132.8306031077
 21
63.056753636300002
 31
0.0
  0
LINE
  5
11A
  8
UNIT-DIM
  6
CONTINUOUS
 62
     7
 10
132.8306031077
 20
63.056753636300002
 30
0.0
 11
125.26198253530001
 21
63.056753636300002
 31
0.0
  0
LINE
  5
11B
  8
UNIT-DIM
  6
CONTINUOUS
 62
     7
 10
132.8306031077
 20
96.046240023300001
 30
0.0
 11
132.8306031077
 21
108.7462400233
 31
0.0
  0
INSERT
  5
11C
  8
UNIT-DIM
  6
CONTINUOUS
 62
     7
  2
_FILLED
 10
132.8306031077
 20
90.796240023300001
 30
0.0
 41
4.0
 42
4.0
 43
4.0
 50
90.0
  0
INSERT
  5
11D
  8
UNIT-DIM
  6
CONTINUOUS
 62
     7
  2
_FILLED
 10
132.8306031077
 20
96.046240023300001
 30
0.0
 41
4.0
 42
4.0
 43
4.0
 50
270.0
  0
ENDBLK
  5
11E
  8
0
  6
ByBlock
 62
     0
  0
BLOCK
  8
UNTDUCTDIM
  6
CONTINUOUS
 62
     2
  2
*D11
 70
     1
 10
0.0
 20
0.0
 30
0.0
  3
*D11
  1

  0
TEXT
  5
121
  8
UNTDUCTDIM
  6
CONTINUOUS
 62
     2
 10
74.06860154393334
 20
103.3587400233
 30
0.0
 40
2.0
  1
15-7/8
 41
0.8
 72
     1
 11
78.335268210600006
 21
103.3587400233
 31
0.0
  0
TEXT
  5
122
  8
UNTDUCTDIM
  6
CONTINUOUS
 62
     2
 10
84.735268210600012
 20
103.3587400233
 30
0.0
 40
2.0
  1
 
 41
0.8
 72
     1
 11
85.535268210600009
 21
103.3587400233
 31
0.0
  0
TEXT
  5
123
  8
UNTDUCTDIM
  6
CONTINUOUS
 62
     2
 10
74.06860154393334
 20
100.3587400233
 30
0.0
 40
2.0
  1
[
 41
0.8
 72
     1
 11
74.335268210600006
 21
100.3587400233
 31
0.0
  0
TEXT
  5
124
  8
UNTDUCTDIM
  6
CONTINUOUS
 62
     2
 10
76.06860154393334
 20
100.3587400233
 30
0.0
 40
2.0
  1
403.2
 41
0.8
 72
     1
 11
79.135268210600003
 21
100.3587400233
 31
0.0
  0
TEXT
  5
125
  8
UNTDUCTDIM
  6
CONTINUOUS
 62
     2
 10
83.668601543933335
 20
100.3587400233
 30
0.0
 40
2.0
  1
]
 41
0.8
 72
     1
 11
83.9352682106
 21
100.3587400233
 31
0.0
  0
LINE
  5
126
  8
UNTDUCTDIM
  6
CONTINUOUS
 62
     2
 10
95.412167983299994
 20
112.2962400233
 30
0.0
 11
78.347768210600009
 21
112.2962400233
 31
0.0
  0
LINE
  5
127
  8
UNTDUCTDIM
  6
CONTINUOUS
 62
     2
 10
95.412167983299994
 20
96.421240023300001
 30
0.0
 11
78.347768210600009
 21
96.421240023300001
 31
0.0
  0
LINE
  5
128
  8
UNTDUCTDIM
  6
CONTINUOUS
 62
     2
 10
79.9352682106
 20
112.2962400233
 30
0.0
 11
79.9352682106
 21
124.9962400233
 31
0.0
  0
LINE
  5
129
  8
UNTDUCTDIM
  6
CONTINUOUS
 62
     2
 10
79.9352682106
 20
96.421240023300001
 30
0.0
 11
79.9352682106
 21
83.721240023299998
 31
0.0
  0
INSERT
  5
12A
  8
UNTDUCTDIM
  6
CONTINUOUS
 62
     2
  2
_FILLED
 10
79.9352682106
 20
112.2962400233
 30
0.0
 41
4.0
 42
4.0
 43
4.0
 50
270.0
  0
INSERT
  5
12B
  8
UNTDUCTDIM
  6
CONTINUOUS
 62
     2
  2
_FILLED
 10
79.9352682106
 20
96.421240023300001
 30
0.0
 41
4.0
 42
4.0
 43
4.0
 50
90.0
  0
ENDBLK
  5
12C
  8
0
  6
ByBlock
 62
     0
  0
BLOCK
  8
UNTDUCTDIM
  6
CONTINUOUS
 62
     2
  2
*D12
 70
     1
 10
0.0
 20
0.0
 30
0.0
  3
*D12
  1

  0
TEXT
  5
12F
  8
UNTDUCTDIM
  6
CONTINUOUS
 62
     2
 10
151.88524698023329
 20
109.2932955385
 30
0.0
 40
2.0
  1
41-3/8
 41
0.8
 72
     1
 11
156.1519136469
 21
109.2932955385
 31
0.0
  0
TEXT
  5
130
  8
UNTDUCTDIM
  6
CONTINUOUS
 62
     2
 10
164.1519136469
 20
109.2932955385
 30
0.0
 40
2.0
  1
 
 41
0.8
 72
     1
 11
164.95191364690001
 21
109.2932955385
 31
0.0
  0
TEXT
  5
131
  8
UNTDUCTDIM
  6
CONTINUOUS
 62
     2
 10
151.88524698023329
 20
106.2932955385
 30
0.0
 40
2.0
  1
[
 41
0.8
 72
     1
 11
152.1519136469
 21
106.2932955385
 31
0.0
  0
TEXT
  5
132
  8
UNTDUCTDIM
  6
CONTINUOUS
 62
     2
 10
154.41858031356659
 20
106.2932955385
 30
0.0
 40
2.0
  1
1051.3
 41
0.8
 72
     1
 11
157.75191364689999
 21
106.2932955385
 31
0.0
  0
TEXT
  5
133
  8
UNTDUCTDIM
  6
CONTINUOUS
 62
     2
 10
163.08524698023331
 20
106.2932955385
 30
0.0
 40
2.0
  1
]
 41
0.8
 72
     1
 11
163.35191364689999
 21
106.2932955385
 31
0.0
  0
LINE
  5
134
  8
UNTDUCTDIM
  6
CONTINUOUS
 62
     2
 10
157.93922280090001
 20
96.421240023300001
 30
0.0
 11
160.13941364690001
 21
96.421240023300001
 31
0.0
  0
LINE
  5
135
  8
UNTDUCTDIM
  6
CONTINUOUS
 62
     2
 10
156.9644136469
 20
137.8112400233
 30
0.0
 11
159.62119679040001
 21
137.8112400233
 31
0.0
  0
LINE
  5
136
  8
UNTDUCTDIM
  6
CONTINUOUS
 62
     2
 10
158.5519136469
 20
96.421240023300001
 30
0.0
 11
158.5519136469
 21
104.2932955385
 31
0.0
  0
LINE
  5
137
  8
UNTDUCTDIM
  6
CONTINUOUS
 62
     2
 10
158.5519136469
 20
137.8112400233
 30
0.0
 11
158.5519136469
 21
113.2932955385
 31
0.0
  0
INSERT
  5
138
  8
UNTDUCTDIM
  6
CONTINUOUS
 62
     2
  2
_FILLED
 10
158.5519136469
 20
96.421240023300001
 30
0.0
 41
4.0
 42
4.0
 43
4.0
 50
270.0
  0
INSERT
  5
139
  8
UNTDUCTDIM
  6
CONTINUOUS
 62
     2
  2
_FILLED
 10
158.5519136469
 20
137.8112400233
 30
0.0
 41
4.0
 42
4.0
 43
4.0
 50
90.0
  0
ENDBLK
  5
13A
  8
0
  6
ByBlock
 62
     0
  0
BLOCK
  8
UNTDUCTDIM
  6
CONTINUOUS
 62
     2
  2
*D13
 70
     1
 10
0.0
 20
0.0
 30
0.0
  3
*D13
  1

  0
TEXT
  5
13D
  8
UNTDUCTDIM
  6
CONTINUOUS
 62
     2
 10
74.380983653133327
 20
62.865272651800012
 30
0.0
 40
2.0
  1
5-5/8
 41
0.8
 72
     2
 11
81.847650319799996
 21
62.865272651800012
 31
0.0
  0
TEXT
  5
13E
  8
UNTDUCTDIM
  6
CONTINUOUS
 62
     2
 10
85.047650319799985
 20
62.865272651800012
 30
0.0
 40
2.0
  1
 
 41
0.8
 72
     2
 11
86.647650319799993
 21
62.865272651800012
 31
0.0
  0
TEXT
  5
13F
  8
UNTDUCTDIM
  6
CONTINUOUS
 62
     2
 10
74.914316986466659
 20
59.865272651800012
 30
0.0
 40
2.0
  1
[
 41
0.8
 72
     2
 11
75.44765031979999
 21
59.865272651800012
 31
0.0
  0
TEXT
  5
140
  8
UNTDUCTDIM
  6
CONTINUOUS
 62
     2
 10
77.58098365313333
 20
59.865272651800012
 30
0.0
 40
2.0
  1
142.9
 41
0.8
 72
     2
 11
83.44765031979999
 21
59.865272651800012
 31
0.0
  0
TEXT
  5
141
  8
UNTDUCTDIM
  6
CONTINUOUS
 62
     2
 10
84.514316986466667
 20
59.865272651800012
 30
0.0
 40
2.0
  1
]
 41
0.8
 72
     2
 11
85.047650319799985
 21
59.865272651800012
 31
0.0
  0
LINE
  5
142
  8
UNTDUCTDIM
  6
CONTINUOUS
 62
     2
 10
95.412167983299994
 20
96.421240023300001
 30
0.0
 11
90.191058670700016
 21
96.421240023300001
 31
0.0
  0
LINE
  5
143
  8
UNTDUCTDIM
  6
CONTINUOUS
 62
     2
 10
91.778558670699994
 20
96.421240023300001
 30
0.0
 11
91.778558670699994
 21
109.1212400233
 31
0.0
  0
LINE
  5
144
  8
UNTDUCTDIM
  6
CONTINUOUS
 62
     2
 10
91.778558670699994
 20
90.796240023300001
 30
0.0
 11
91.778558670699994
 21
63.865272651799998
 31
0.0
  0
LINE
  5
145
  8
UNTDUCTDIM
  6
CONTINUOUS
 62
     2
 10
91.778558670699994
 20
63.865272651799998
 30
0.0
 11
88.647650319799993
 21
63.865272651799998
 31
0.0
  0
INSERT
  5
146
  8
UNTDUCTDIM
  6
CONTINUOUS
 62
     2
  2
_FILLED
 10
91.778558670699994
 20
96.421240023300001
 30
0.0
 41
4.0
 42
4.0
 43
4.0
 50
270.0
  0
INSERT
  5
147
  8
UNTDUCTDIM
  6
CONTINUOUS
 62
     2
  2
_FILLED
 10
91.778558670699994
 20
90.796240023300001
 30
0.0
 41
4.0
 42
4.0
 43
4.0
 50
90.0
  0
ENDBLK
  5
148
  8
0
  6
ByBlock
 62
     0
  0
BLOCK
  8
UNTDUCTDIM
  6
CONTINUOUS
 62
     2
  2
*D14
 70
     1
 10
0.0
 20
0.0
 30
0.0
  3
*D14
  1

  0
TEXT
  5
14B
  8
UNTDUCTDIM
  6
CONTINUOUS
 62
     2
 10
186.38837964556669
 20
72.025311332100003
 30
0.0
 40
2.0
  1
5-5/8
 41
0.8
 72
     1
 11
190.12171297890001
 21
72.025311332100003
 31
0.0
  0
TEXT
  5
14C
  8
UNTDUCTDIM
  6
CONTINUOUS
 62
     2
 10
197.3217129789
 20
72.025311332100003
 30
0.0
 40
2.0
  1
 
 41
0.8
 72
     1
 11
198.12171297890001
 21
72.025311332100003
 31
0.0
  0
TEXT
  5
14D
  8
UNTDUCTDIM
  6
CONTINUOUS
 62
     2
 10
186.65504631223331
 20
69.025311332100003
 30
0.0
 40
2.0
  1
[
 41
0.8
 72
     1
 11
186.92171297889999
 21
69.025311332100003
 31
0.0
  0
TEXT
  5
14E
  8
UNTDUCTDIM
  6
CONTINUOUS
 62
     2
 10
188.78837964556661
 20
69.025311332100003
 30
0.0
 40
2.0
  1
142.9
 41
0.8
 72
     1
 11
191.7217129789
 21
69.025311332100003
 31
0.0
  0
TEXT
  5
14F
  8
UNTDUCTDIM
  6
CONTINUOUS
 62
     2
 10
196.2550463122333
 20
69.025311332100003
 30
0.0
 40
2.0
  1
]
 41
0.8
 72
     1
 11
196.52171297890001
 21
69.025311332100003
 31
0.0
  0
LINE
  5
150
  8
UNTDUCTDIM
  6
CONTINUOUS
 62
     2
 10
175.06402908940001
 20
96.421240023300001
 30
0.0
 11
194.10921297889999
 21
96.421240023300001
 31
0.0
  0
LINE
  5
151
  8
UNTDUCTDIM
  6
CONTINUOUS
 62
     2
 10
179.610529923
 20
90.796240023300001
 30
0.0
 11
194.10921297889999
 21
90.796240023300001
 31
0.0
  0
LINE
  5
152
  8
UNTDUCTDIM
  6
CONTINUOUS
 62
     2
 10
192.52171297890001
 20
96.421240023300001
 30
0.0
 11
192.52171297890001
 21
109.1212400233
 31
0.0
  0
LINE
  5
153
  8
UNTDUCTDIM
  6
CONTINUOUS
 62
     2
 10
192.52171297890001
 20
90.796240023300001
 30
0.0
 11
192.52171297890001
 21
76.025311332100003
 31
0.0
  0
INSERT
  5
154
  8
UNTDUCTDIM
  6
CONTINUOUS
 62
     2
  2
_FILLED
 10
192.52171297890001
 20
96.421240023300001
 30
0.0
 41
4.0
 42
4.0
 43
4.0
 50
270.0
  0
INSERT
  5
155
  8
UNTDUCTDIM
  6
CONTINUOUS
 62
     2
  2
_FILLED
 10
192.52171297890001
 20
90.796240023300001
 30
0.0
 41
4.0
 42
4.0
 43
4.0
 50
90.0
  0
ENDBLK
  5
156
  8
0
  6
ByBlock
 62
     0
  0
BLOCK
  8
UNTDUCTDIM
  6
CONTINUOUS
 62
     2
  2
*D15
 70
     1
 10
0.0
 20
0.0
 30
0.0
  3
*D15
  1

  0
TEXT
  5
159
  8
UNTDUCTDIM
  6
CONTINUOUS
 62
     2
 10
105.7413346499666
 20
45.875172096199989
 30
0.0
 40
2.0
  1
29-3/4
 41
0.8
 72
     1
 11
110.27466798330001
 21
45.875172096199989
 31
0.0
  0
TEXT
  5
15A
  8
UNTDUCTDIM
  6
CONTINUOUS
 62
     2
 10
116.6746679833
 20
45.875172096199989
 30
0.0
 40
2.0
  1
 
 41
0.8
 72
     1
 11
117.47466798329999
 21
45.875172096199989
 31
0.0
  0
TEXT
  5
15B
  8
UNTDUCTDIM
  6
CONTINUOUS
 62
     2
 10
106.0080013166333
 20
42.875172096199989
 30
0.0
 40
2.0
  1
[
 41
0.8
 72
     1
 11
106.27466798330001
 21
42.875172096199989
 31
0.0
  0
TEXT
  5
15C
  8
UNTDUCTDIM
  6
CONTINUOUS
 62
     2
 10
107.8746679833
 20
42.875172096199989
 30
0.0
 40
2.0
  1
755.7
 41
0.8
 72
     1
 11
111.0746679833
 21
42.875172096199989
 31
0.0
  0
TEXT
  5
15D
  8
UNTDUCTDIM
  6
CONTINUOUS
 62
     2
 10
115.60800131663331
 20
42.875172096199989
 30
0.0
 40
2.0
  1
]
 41
0.8
 72
     1
 11
115.8746679833
 21
42.875172096199989
 31
0.0
  0
LINE
  5
15E
  8
UNTDUCTDIM
  6
CONTINUOUS
 62
     2
 10
126.7496679833
 20
59.858337515699994
 30
0.0
 11
126.7496679833
 21
45.287672096199991
 31
0.0
  0
LINE
  5
15F
  8
UNTDUCTDIM
  6
CONTINUOUS
 62
     2
 10
96.999667983300014
 20
94.833740023299995
 30
0.0
 11
96.999667983300014
 21
45.287672096199991
 31
0.0
  0
LINE
  5
160
  8
UNTDUCTDIM
  6
CONTINUOUS
 62
     2
 10
126.7496679833
 20
46.875172096199996
 30
0.0
 11
120.27466798330001
 21
46.875172096199996
 31
0.0
  0
LINE
  5
161
  8
UNTDUCTDIM
  6
CONTINUOUS
 62
     2
 10
96.999667983300014
 20
46.875172096199996
 30
0.0
 11
103.47466798329999
 21
46.875172096199996
 31
0.0
  0
INSERT
  5
162
  8
UNTDUCTDIM
  6
CONTINUOUS
 62
     2
  2
_FILLED
 10
126.7496679833
 20
46.875172096199996
 30
0.0
 41
4.0
 42
4.0
 43
4.0
  0
INSERT
  5
163
  8
UNTDUCTDIM
  6
CONTINUOUS
 62
     2
  2
_FILLED
 10
96.999667983300014
 20
46.875172096199996
 30
0.0
 41
4.0
 42
4.0
 43
4.0
 50
180.0
  0
ENDBLK
  5
164
  8
0
  6
ByBlock
 62
     0
  0
BLOCK
  8
UNTDUCTDIM
  6
CONTINUOUS
 62
     2
  2
*D16
 70
     1
 10
0.0
 20
0.0
 30
0.0
  3
*D16
  1

  0
TEXT
  5
167
  8
UNTDUCTDIM
  6
CONTINUOUS
 62
     2
 10
131.51345843443329
 20
149.19631075219999
 30
0.0
 40
2.0
  1
23-3/8
 41
0.8
 72
     2
 11
140.58012510110001
 21
149.19631075219999
 31
0.0
  0
TEXT
  5
168
  8
UNTDUCTDIM
  6
CONTINUOUS
 62
     2
 10
142.1801251011
 20
149.19631075219999
 30
0.0
 40
2.0
  1
 
 41
0.8
 72
     2
 11
143.7801251011
 21
149.19631075219999
 31
0.0
  0
TEXT
  5
169
  8
UNTDUCTDIM
  6
CONTINUOUS
 62
     2
 10
132.04679176776671
 20
146.19631075219999
 30
0.0
 40
2.0
  1
[
 41
0.8
 72
     2
 11
132.58012510110001
 21
146.19631075219999
 31
0.0
  0
TEXT
  5
16A
  8
UNTDUCTDIM
  6
CONTINUOUS
 62
     2
 10
134.1801251011
 20
146.19631075219999
 30
0.0
 40
2.0
  1
593.7
 41
0.8
 72
     2
 11
140.58012510110001
 21
146.19631075219999
 31
0.0
  0
TEXT
  5
16B
  8
UNTDUCTDIM
  6
CONTINUOUS
 62
     2
 10
141.64679176776659
 20
146.19631075219999
 30
0.0
 40
2.0
  1
]
 41
0.8
 72
     2
 11
142.1801251011
 21
146.19631075219999
 31
0.0
  0
LINE
  5
16C
  8
UNTDUCTDIM
  6
CONTINUOUS
 62
     2
 10
150.87466798329999
 20
139.39874002330001
 30
0.0
 11
150.87466798329999
 21
151.7838107522
 31
0.0
  0
LINE
  5
16D
  8
UNTDUCTDIM
  6
CONTINUOUS
 62
     2
 10
174.24966798329999
 20
139.39874002330001
 30
0.0
 11
174.24966798329999
 21
151.7838107522
 31
0.0
  0
LINE
  5
16E
  8
UNTDUCTDIM
  6
CONTINUOUS
 62
     2
 10
150.87466798329999
 20
150.19631075219999
 30
0.0
 11
162.56216798329999
 21
150.19631075219999
 31
0.0
  0
LINE
  5
16F
  8
UNTDUCTDIM
  6
CONTINUOUS
 62
     2
 10
162.56216798329999
 20
150.19631075219999
 30
0.0
 11
145.7801251011
 21
150.19631075219999
 31
0.0
  0
LINE
  5
170
  8
UNTDUCTDIM
  6
CONTINUOUS
 62
     2
 10
174.24966798329999
 20
150.19631075219999
 30
0.0
 11
162.56216798329999
 21
150.19631075219999
 31
0.0
  0
INSERT
  5
171
  8
UNTDUCTDIM
  6
CONTINUOUS
 62
     2
  2
_FILLED
 10
150.87466798329999
 20
150.19631075219999
 30
0.0
 41
4.0
 42
4.0
 43
4.0
 50
180.0
  0
INSERT
  5
172
  8
UNTDUCTDIM
  6
CONTINUOUS
 62
     2
  2
_FILLED
 10
174.24966798329999
 20
150.19631075219999
 30
0.0
 41
4.0
 42
4.0
 43
4.0
  0
ENDBLK
  5
173
  8
0
  6
ByBlock
 62
     0
  0
BLOCK
  8
UNTDUCTDIM
  6
CONTINUOUS
 62
     2
  2
*D17
 70
     1
 10
0.0
 20
0.0
 30
0.0
  3
*D17
  1

  0
TEXT
  5
176
  8
UNTDUCTDIM
  6
CONTINUOUS
 62
     2
 10
145.3246679833
 20
45.875172096199989
 30
0.0
 40
2.0
  1
50-3/4
 41
0.8
 72
     1
 11
149.72466798330001
 21
45.875172096199989
 31
0.0
  0
TEXT
  5
177
  8
UNTDUCTDIM
  6
CONTINUOUS
 62
     2
 10
157.72466798330001
 20
45.875172096199989
 30
0.0
 40
2.0
  1
 
 41
0.8
 72
     1
 11
158.52466798329999
 21
45.875172096199989
 31
0.0
  0
TEXT
  5
178
  8
UNTDUCTDIM
  6
CONTINUOUS
 62
     2
 10
145.4580013166333
 20
42.875172096199989
 30
0.0
 40
2.0
  1
[
 41
0.8
 72
     1
 11
145.72466798330001
 21
42.875172096199989
 31
0.0
  0
TEXT
  5
179
  8
UNTDUCTDIM
  6
CONTINUOUS
 62
     2
 10
147.85800131663331
 20
42.875172096199989
 30
0.0
 40
2.0
  1
1289.1
 41
0.8
 72
     1
 11
151.3246679833
 21
42.875172096199989
 31
0.0
  0
TEXT
  5
17A
  8
UNTDUCTDIM
  6
CONTINUOUS
 62
     2
 10
156.65800131663329
 20
42.875172096199989
 30
0.0
 40
2.0
  1
]
 41
0.8
 72
     1
 11
156.9246679833
 21
42.875172096199989
 31
0.0
  0
LINE
  5
17B
  8
UNTDUCTDIM
  6
CONTINUOUS
 62
     2
 10
126.7496679833
 20
94.833740023299995
 30
0.0
 11
126.7496679833
 21
64.499052089900005
 31
0.0
  0
LINE
  5
17C
  8
UNTDUCTDIM
  6
CONTINUOUS
 62
     2
 10
126.7496679833
 20
62.038721896600002
 30
0.0
 11
126.7496679833
 21
45.287672096199991
 31
0.0
  0
LINE
  5
17D
  8
UNTDUCTDIM
  6
CONTINUOUS
 62
     2
 10
177.49966798329999
 20
89.208740023299995
 30
0.0
 11
177.49966798329999
 21
45.287672096199991
 31
0.0
  0
LINE
  5
17E
  8
UNTDUCTDIM
  6
CONTINUOUS
 62
     2
 10
126.7496679833
 20
46.875172096199996
 30
0.0
 11
142.9246679833
 21
46.875172096199996
 31
0.0
  0
LINE
  5
17F
  8
UNTDUCTDIM
  6
CONTINUOUS
 62
     2
 10
177.49966798329999
 20
46.875172096199996
 30
0.0
 11
161.3246679833
 21
46.875172096199996
 31
0.0
  0
INSERT
  5
180
  8
UNTDUCTDIM
  6
CONTINUOUS
 62
     2
  2
_FILLED
 10
126.7496679833
 20
46.875172096199996
 30
0.0
 41
4.0
 42
4.0
 43
4.0
 50
180.0
  0
INSERT
  5
181
  8
UNTDUCTDIM
  6
CONTINUOUS
 62
     2
  2
_FILLED
 10
177.49966798329999
 20
46.875172096199996
 30
0.0
 41
4.0
 42
4.0
 43
4.0
  0
ENDBLK
  5
182
  8
0
  6
ByBlock
 62
     0
  0
BLOCK
  8
UNTDUCTDIM
  6
CONTINUOUS
 62
     2
  2
*D18
 70
     1
 10
0.0
 20
0.0
 30
0.0
  3
*D18
  1

  0
TEXT
  5
185
  8
UNTDUCTDIM
  6
CONTINUOUS
 62
     2
 10
187.76061750880001
 20
62.096295096799999
 30
0.0
 40
2.0
  1
3-1/4
 41
0.8
  0
TEXT
  5
186
  8
UNTDUCTDIM
  6
CONTINUOUS
 62
     2
 10
197.3606175088
 20
62.096295096799999
 30
0.0
 40
2.0
  1
 
 41
0.8
  0
TEXT
  5
187
  8
UNTDUCTDIM
  6
CONTINUOUS
 62
     2
 10
187.76061750880001
 20
59.096295096800013
 30
0.0
 40
2.0
  1
[
 41
0.8
  0
TEXT
  5
188
  8
UNTDUCTDIM
  6
CONTINUOUS
 62
     2
 10
189.3606175088
 20
59.096295096800013
 30
0.0
 40
2.0
  1
82.6
 41
0.8
  0
TEXT
  5
189
  8
UNTDUCTDIM
  6
CONTINUOUS
 62
     2
 10
195.76061750880001
 20
59.096295096800013
 30
0.0
 40
2.0
  1
]
 41
0.8
  0
LINE
  5
18A
  8
UNTDUCTDIM
  6
CONTINUOUS
 62
     2
 10
174.24966798329999
 20
94.833740023299995
 30
0.0
 11
174.24966798329999
 21
61.5087950968
 31
0.0
  0
LINE
  5
18B
  8
UNTDUCTDIM
  6
CONTINUOUS
 62
     2
 10
177.49966798329999
 20
89.208740023299995
 30
0.0
 11
177.49966798329999
 21
61.5087950968
 31
0.0
  0
LINE
  5
18C
  8
UNTDUCTDIM
  6
CONTINUOUS
 62
     2
 10
174.24966798329999
 20
63.096295096799999
 30
0.0
 11
161.5496679833
 21
63.096295096799999
 31
0.0
  0
LINE
  5
18D
  8
UNTDUCTDIM
  6
CONTINUOUS
 62
     2
 10
177.49966798329999
 20
63.096295096799999
 30
0.0
 11
185.76061750880001
 21
63.096295096799999
 31
0.0
  0
INSERT
  5
18E
  8
UNTDUCTDIM
  6
CONTINUOUS
 62
     2
  2
_FILLED
 10
174.24966798329999
 20
63.096295096799999
 30
0.0
 41
4.0
 42
4.0
 43
4.0
  0
INSERT
  5
18F
  8
UNTDUCTDIM
  6
CONTINUOUS
 62
     2
  2
_FILLED
 10
177.49966798329999
 20
63.096295096799999
 30
0.0
 41
4.0
 42
4.0
 43
4.0
 50
180.0
  0
ENDBLK
  5
190
  8
0
  6
ByBlock
 62
     0
  0
BLOCK
  8
UNIT-DIM
  6
CONTINUOUS
 62
     7
  2
*D19
 70
     1
 10
0.0
 20
0.0
 30
0.0
  3
*D19
  1

  0
TEXT
  5
193
  8
UNIT-DIM
  6
CONTINUOUS
 62
     7
 10
184.68300131663329
 20
149.19631075219999
 30
0.0
 40
2.0
  1
24-1/2
 41
0.8
 72
     1
 11
188.9496679833
 21
149.19631075219999
 31
0.0
  0
TEXT
  5
194
  8
UNIT-DIM
  6
CONTINUOUS
 62
     7
 10
184.68300131663329
 20
146.19631075219999
 30
0.0
 40
2.0
  1
[
 41
0.8
 72
     1
 11
184.9496679833
 21
146.19631075219999
 31
0.0
  0
TEXT
  5
195
  8
UNIT-DIM
  6
CONTINUOUS
 62
     7
 10
186.5496679833
 20
146.19631075219999
 30
0.0
 40
2.0
  1
622.3
 41
0.8
 72
     1
 11
189.74966798329999
 21
146.19631075219999
 31
0.0
  0
TEXT
  5
196
  8
UNIT-DIM
  6
CONTINUOUS
 62
     7
 10
194.28300131663329
 20
146.19631075219999
 30
0.0
 40
2.0
  1
]
 41
0.8
 72
     1
 11
194.5496679833
 21
146.19631075219999
 31
0.0
  0
LINE
  5
197
  8
UNIT-DIM
  6
CONTINUOUS
 62
     7
 10
177.49966798329999
 20
141.75865589150001
 30
0.0
 11
177.49966798329999
 21
151.7838107522
 31
0.0
  0
LINE
  5
198
  8
UNIT-DIM
  6
CONTINUOUS
 62
     7
 10
201.99966798329999
 20
121.7212702786
 30
0.0
 11
201.99966798329999
 21
151.7838107522
 31
0.0
  0
LINE
  5
199
  8
UNIT-DIM
  6
CONTINUOUS
 62
     7
 10
177.49966798329999
 20
150.19631075219999
 30
0.0
 11
182.14966798329999
 21
150.19631075219999
 31
0.0
  0
LINE
  5
19A
  8
UNIT-DIM
  6
CONTINUOUS
 62
     7
 10
201.99966798329999
 20
150.19631075219999
 30
0.0
 11
197.34966798330001
 21
150.19631075219999
 31
0.0
  0
INSERT
  5
19B
  8
UNIT-DIM
  6
CONTINUOUS
 62
     7
  2
_FILLED
 10
177.49966798329999
 20
150.19631075219999
 30
0.0
 41
4.0
 42
4.0
 43
4.0
 50
180.0
  0
INSERT
  5
19C
  8
UNIT-DIM
  6
CONTINUOUS
 62
     7
  2
_FILLED
 10
201.99966798329999
 20
150.19631075219999
 30
0.0
 41
4.0
 42
4.0
 43
4.0
  0
ENDBLK
  5
19D
  8
0
  6
ByBlock
 62
     0
  0
BLOCK
  8
SERVCLRDIM
  6
CONTINUOUS
 62
     1
  2
*D20
 70
     1
 10
0.0
 20
0.0
 30
0.0
  3
*D20
  1

  0
TEXT
  5
1A0
  8
SERVCLRDIM
  6
CONTINUOUS
 62
     1
 10
204.52778123659999
 20
81.923487750600003
 30
0.0
 40
2.0
  1
OVERALL HEIGHT AND 
 41
0.8
  0
TEXT
  5
1A1
  8
SERVCLRDIM
  6
CONTINUOUS
 62
     1
 10
204.52778123659999
 20
78.923487750600003
 30
0.0
 40
2.0
  1
CLEARANCE AREA WILL BE 
 41
0.8
  0
TEXT
  5
1A2
  8
SERVCLRDIM
  6
CONTINUOUS
 62
     1
 10
204.52778123659999
 20
75.923487750600003
 30
0.0
 40
2.0
  1
DETERMINED BY ASSEMBLY OF 
 41
0.8
  0
TEXT
  5
1A3
  8
SERVCLRDIM
  6
CONTINUOUS
 62
     1
 10
204.52778123659999
 20
72.923487750600003
 30
0.0
 40
2.0
  1
INSTALLER.  SEE CERTIFIED 
 41
0.8
  0
TEXT
  5
1A4
  8
SERVCLRDIM
  6
CONTINUOUS
 62
     1
 10
204.52778123659999
 20
69.923487750600003
 30
0.0
 40
2.0
  1
DRAWING FOR FURTHER DETAIL.
 41
0.8
  0
LINE
  5
1A5
  8
SERVCLRDIM
  6
CONTINUOUS
 62
     1
 10
179.08716798329999
 20
90.796240023300001
 30
0.0
 11
199.7652812366
 21
90.796240023300001
 31
0.0
  0
LINE
  5
1A6
  8
SERVCLRDIM
  6
CONTINUOUS
 62
     1
 10
175.96229769799999
 20
93.796240023300001
 30
0.0
 11
199.7652812366
 21
93.796240023300001
 31
0.0
  0
LINE
  5
1A7
  8
SERVCLRDIM
  6
CONTINUOUS
 62
     1
 10
198.1777812366
 20
90.796240023300001
 30
0.0
 11
198.1777812366
 21
82.923487750600003
 31
0.0
  0
LINE
  5
1A8
  8
SERVCLRDIM
  6
CONTINUOUS
 62
     1
 10
198.1777812366
 20
82.923487750600003
 30
0.0
 11
202.52778123659999
 21
82.923487750600003
 31
0.0
  0
LINE
  5
1A9
  8
SERVCLRDIM
  6
CONTINUOUS
 62
     1
 10
198.1777812366
 20
93.796240023300001
 30
0.0
 11
198.1777812366
 21
106.4962400233
 31
0.0
  0
INSERT
  5
1AA
  8
SERVCLRDIM
  6
CONTINUOUS
 62
     1
  2
_FILLED
 10
198.1777812366
 20
90.796240023300001
 30
0.0
 41
4.0
 42
4.0
 43
4.0
 50
90.0
  0
INSERT
  5
1AB
  8
SERVCLRDIM
  6
CONTINUOUS
 62
     1
  2
_FILLED
 10
198.1777812366
 20
93.796240023300001
 30
0.0
 41
4.0
 42
4.0
 43
4.0
 50
270.0
  0
ENDBLK
  5
1AC
  8
0
  6
ByBlock
 62
     0
  0
ENDSEC
  0
SECTION
  2
ENTITIES
  0
DIMENSION
  5
1AD
  8
CURB-24-DIM
  6
CONTINUOUS
 62
     6
  2
*D1
 10
174.37479769800001
 20
38.783444987300001
 30
0.0
 11
105.731047698
 21
38.783444987300001
 31
0.0
 70
   128
 13
38.687297698000002
 23
93.157906541499983
 33
0.0
 14
174.37479769800001
 24
44.055176281000001
 34
0.0
  0
DIMENSION
  5
1AE
  8
UNIT-DIM
  6
CONTINUOUS
 62
     7
  2
*D2
 10
177.49966798329999
 20
158.1166727227
 30
0.0
 11
105.94973284069999
 21
156.6166727227
 31
0.0
 70
   128
 13
35.999797698000002
 23
140.53757199500001
 33
0.0
 14
177.49966798329999
 24
141.01770183209999
 34
0.0
  0
DIMENSION
  5
1AF
  8
UNIT-DIM
  6
CONTINUOUS
 62
     7
  2
*D3
 10
218.8671955152
 20
140.17115589150001
 30
0.0
 11
218.06719551520001
 21
113.9836979574
 31
0.0
 70
   128
 13
178.92291182290001
 23
90.796240023300001
 33
0.0
 14
178.33237136689999
 24
140.17115589150001
 34
0.0
 50
90.0
  0
DIMENSION
  5
1B0
  8
CURB-24-DIM
  6
CONTINUOUS
 62
     6
  2
*D4
 10
13.700563197099999
 20
93.796240023300001
 30
0.0
 11
12.9005631971
 21
80.297104646499989
 31
0.0
 70
   128
 13
36.715297698000001
 23
69.797969269799992
 33
0.0
 14
38.687297698000002
 24
93.796240023300001
 34
0.0
 50
90.0
  0
DIMENSION
  5
1B1
  8
SERVCLRDIM
  6
CONTINUOUS
 62
     1
  2
*D5
 10
35.999797698000002
 20
132.20721984310001
 30
0.0
 11
17.199898849
 21
130.70721984310001
 31
0.0
 70
   128
 13
0.0
 23
136.1355959956
 33
0.0
 14
35.999797698000002
 24
136.1355959956
 34
0.0
  0
DIMENSION
  5
1B2
  8
SERVCLRDIM
  6
CONTINUOUS
 62
     1
  2
*D6
 10
201.99966798329999
 20
132.20721984310001
 30
0.0
 11
249.99966798329999
 21
130.70721984310001
 31
0.0
 70
   128
 13
297.99966798330001
 23
136.1355959956
 33
0.0
 14
201.99966798329999
 24
136.1355959956
 34
0.0
 50
180.0
  0
DIMENSION
  5
1B3
  8
CURB-14-DIM
  6
CONTINUOUS
 62
     6
  2
*D7
 10
174.37479769800001
 20
38.753838991899997
 30
0.0
 11
105.731047698
 21
38.753838991899997
 31
0.0
 70
   128
 13
38.687297698000002
 23
92.650436858199996
 33
0.0
 14
174.37479769800001
 24
92.546240023300001
 34
0.0
  0
DIMENSION
  5
1B4
  8
CURB-14-DIM
  6
CONTINUOUS
 62
     6
  2
*D8
 10
23.596383188899999
 20
93.796240023300001
 30
0.0
 11
22.796383188899998
 21
85.296240023300015
 31
0.0
 70
   128
 13
36.715297698000001
 23
79.796240023300001
 33
0.0
 14
38.280518215400001
 24
93.796240023300001
 34
0.0
 50
90.0
  0
DIMENSION
  5
1B5
  8
UNIT-DIM
  6
CONTINUOUS
 62
     7
  2
*D9
 10
139.99966798329999
 20
56.25417882739999
 30
0.0
 11
157.9496679833
 21
54.754178827399997
 31
0.0
 70
   128
 13
177.49966798329999
 23
90.763557452599997
 33
0.0
 14
139.99966798329999
 24
96.046240023300001
 34
0.0
 50
180.0
  0
DIMENSION
  5
1B6
  8
UNIT-DIM
  6
CONTINUOUS
 62
     7
  2
*D10
 10
132.8306031077
 20
96.046240023300001
 30
0.0
 11
116.0619825353
 21
61.556753636300002
 31
0.0
 70
   128
 13
129.06894295079999
 23
90.796240023300001
 33
0.0
 14
139.12216776540001
 24
96.046240023300001
 34
0.0
 50
90.0
  0
DIMENSION
  5
1B7
  8
UNTDUCTDIM
  6
CONTINUOUS
 62
     2
  2
*D11
 10
79.9352682106
 20
96.421240023300001
 30
0.0
 11
79.135268210600003
 21
102.8587400233
 31
0.0
 70
   128
 13
96.999667983300014
 23
112.2962400233
 33
0.0
 14
96.999667983300014
 24
96.421240023300001
 34
0.0
 50
270.0
  0
DIMENSION
  5
1B8
  8
UNTDUCTDIM
  6
CONTINUOUS
 62
     2
  2
*D12
 10
158.5519136469
 20
137.8112400233
 30
0.0
 11
157.75191364689999
 21
108.7932955385
 31
0.0
 70
   128
 13
161.72691364689999
 23
96.421240023300001
 33
0.0
 14
155.37691364689999
 24
137.8112400233
 34
0.0
 50
90.0
  0
DIMENSION
  5
1B9
  8
UNTDUCTDIM
  6
CONTINUOUS
 62
     2
  2
*D13
 10
91.778558670699994
 20
90.796240023300001
 30
0.0
 11
79.44765031979999
 21
62.365272651800012
 31
0.0
 70
   128
 13
96.999667983300014
 23
96.421240023300001
 33
0.0
 14
35.999797698000002
 24
90.796240023300001
 34
0.0
 50
270.0
  0
DIMENSION
  5
1BA
  8
UNTDUCTDIM
  6
CONTINUOUS
 62
     2
  2
*D14
 10
192.52171297890001
 20
90.796240023300001
 30
0.0
 11
191.7217129789
 21
71.525311332100003
 31
0.0
 70
   128
 13
173.4765290894
 23
96.421240023300001
 33
0.0
 14
178.023029923
 24
90.796240023300001
 34
0.0
 50
270.0
  0
DIMENSION
  5
1BB
  8
UNTDUCTDIM
  6
CONTINUOUS
 62
     2
  2
*D15
 10
96.999667983300014
 20
46.875172096199996
 30
0.0
 11
111.0746679833
 21
45.375172096199989
 31
0.0
 70
   128
 13
126.7496679833
 23
61.445837515699992
 33
0.0
 14
96.999667983300014
 24
96.421240023300001
 34
0.0
 50
180.0
  0
DIMENSION
  5
1BC
  8
UNTDUCTDIM
  6
CONTINUOUS
 62
     2
  2
*D16
 10
174.24966798329999
 20
150.19631075219999
 30
0.0
 11
136.58012510110001
 21
148.69631075219999
 31
0.0
 70
   128
 13
150.87466798329999
 23
137.8112400233
 33
0.0
 14
174.24966798329999
 24
137.8112400233
 34
0.0
  0
DIMENSION
  5
1BD
  8
UNTDUCTDIM
  6
CONTINUOUS
 62
     2
  2
*D17
 10
177.49966798329999
 20
46.875172096199996
 30
0.0
 11
151.3246679833
 21
45.375172096199989
 31
0.0
 70
   128
 13
126.7496679833
 23
96.421240023300001
 33
0.0
 14
177.49966798329999
 24
90.796240023300001
 34
0.0
  0
DIMENSION
  5
1BE
  8
UNTDUCTDIM
  6
CONTINUOUS
 62
     2
  2
*D18
 10
177.49966798329999
 20
63.096295096799999
 30
0.0
 11
192.56061750879999
 21
61.596295096800013
 31
0.0
 70
   128
 13
174.24966798329999
 23
96.421240023300001
 33
0.0
 14
177.49966798329999
 24
90.796240023300001
 34
0.0
  0
DIMENSION
  5
1BF
  8
UNIT-DIM
  6
CONTINUOUS
 62
     7
  2
*D19
 10
201.99966798329999
 20
150.19631075219999
 30
0.0
 11
189.74966798329999
 21
148.69631075219999
 31
0.0
 70
   128
 13
177.49966798329999
 23
140.17115589150001
 33
0.0
 14
201.99966798329999
 24
120.1337702786
 34
0.0
  0
DIMENSION
  5
1C0
  8
SERVCLRDIM
  6
CONTINUOUS
 62
     1
  2
*D20
 10
198.1777812366
 20
93.796240023300001
 30
0.0
 11
226.12778123659999
 21
76.923487750600003
 31
0.0
 70
   128
 13
177.49966798329999
 23
90.796240023300001
 33
0.0
 14
174.37479769800001
 24
93.796240023300001
 34
0.0
 50
90.0
  0
LINE
  5
1C1
  8
NOTES
  6
CONTINUOUS
 62
     1
 10
0.0
 20
0.0
 30
0.0
 11
48.0
 21
0.0
 31
0.0
  0
LINE
  5
1C2
  8
NOTES
  6
CONTINUOUS
 62
     1
 10
0.0
 20
0.0
 30
0.0
 11
0.0
 21
36.5
 31
0.0
  0
LINE
  5
1C3
  8
NOTES
  6
CONTINUOUS
 62
     1
 10
0.0
 20
4.0
 30
0.0
 11
48.0
 21
4.0
 31
0.0
  0
LINE
  5
1C4
  8
NOTES
  6
CONTINUOUS
 62
     1
 10
0.0
 20
4.5
 30
0.0
 11
48.0
 21
4.5
 31
0.0
  0
LINE
  5
1C5
  8
NOTES
  6
CONTINUOUS
 62
     1
 10
0.0
 20
8.5
 30
0.0
 11
48.0
 21
8.5
 31
0.0
  0
LINE
  5
1C6
  8
NOTES
  6
CONTINUOUS
 62
     1
 10
0.0
 20
12.5
 30
0.0
 11
48.0
 21
12.5
 31
0.0
  0
LINE
  5
1C7
  8
NOTES
  6
CONTINUOUS
 62
     1
 10
0.0
 20
16.5
 30
0.0
 11
48.0
 21
16.5
 31
0.0
  0
LINE
  5
1C8
  8
NOTES
  6
CONTINUOUS
 62
     1
 10
0.0
 20
20.5
 30
0.0
 11
48.0
 21
20.5
 31
0.0
  0
LINE
  5
1C9
  8
NOTES
  6
CONTINUOUS
 62
     1
 10
0.0
 20
24.5
 30
0.0
 11
48.0
 21
24.5
 31
0.0
  0
LINE
  5
1CA
  8
NOTES
  6
CONTINUOUS
 62
     1
 10
0.0
 20
28.5
 30
0.0
 11
48.0
 21
28.5
 31
0.0
  0
LINE
  5
1CB
  8
NOTES
  6
CONTINUOUS
 62
     1
 10
0.0
 20
32.5
 30
0.0
 11
48.0
 21
32.5
 31
0.0
  0
LINE
  5
1CC
  8
NOTES
  6
CONTINUOUS
 62
     1
 10
0.0
 20
36.5
 30
0.0
 11
48.0
 21
36.5
 31
0.0
  0
LINE
  5
1CD
  8
NOTES
  6
CONTINUOUS
 62
     1
 10
16.0
 20
12.5
 30
0.0
 11
16.0
 21
36.5
 31
0.0
  0
LINE
  5
1CE
  8
NOTES
  6
CONTINUOUS
 62
     1
 10
48.0
 20
0.0
 30
0.0
 11
48.0
 21
36.5
 31
0.0
  0
TEXT
  5
1CF
  8
NOTES
  6
CONTINUOUS
 62
     1
 10
0.8
 20
1.0
 30
0.0
 40
2.0
  1
VIEW: BACK
 41
0.8
  0
TEXT
  5
1D0
  8
NOTES
  6
CONTINUOUS
 62
     1
 10
0.8
 20
5.5
 30
0.0
 40
2.0
  1
FILE NAME: 
 41
0.8
  0
TEXT
  5
1D1
  8
NOTES
  6
CONTINUOUS
 62
     1
 10
18.399999999999999
 20
5.5
 30
0.0
 40
2.0
  1
TMB70-B-
 41
0.8
  0
TEXT
  5
1D2
  8
NOTES
  6
CONTINUOUS
 62
     1
 10
17.066666666666659
 20
9.5
 30
0.0
 40
2.0
  1
LAYER KEY
 41
0.8
 72
     1
 11
24.0
 21
9.5
 31
0.0
  0
TEXT
  5
1D3
  8
NOTES
  6
CONTINUOUS
 62
     7
 10
2.6666666666666661
 20
13.5
 30
0.0
 40
2.0
  1
-
 41
8.0
  7
TEXTSTYLE_2
 72
     1
 11
8.0
 21
13.5
 31
0.0
  0
TEXT
  5
1D4
  8
NOTES
  6
CONTINUOUS
 62
     1
 10
16.800000000000001
 20
13.5
 30
0.0
 40
2.0
  1
UNIT
 41
0.8
  0
TEXT
  5
1D5
  8
NOTES
  6
CONTINUOUS
 62
     6
 10
2.6666666666666661
 20
17.5
 30
0.0
 40
2.0
  1
-
 41
8.0
  7
TEXTSTYLE_2
 72
     1
 11
8.0
 21
17.5
 31
0.0
  0
TEXT
  5
1D6
  8
NOTES
  6
CONTINUOUS
 62
     1
 10
16.800000000000001
 20
17.5
 30
0.0
 40
2.0
  1
ROOF CURB
 41
0.8
  0
TEXT
  5
1D7
  8
NOTES
  6
CONTINUOUS
 62
     1
 10
2.6666666666666661
 20
21.5
 30
0.0
 40
2.0
  1
-
 41
8.0
  7
TEXTSTYLE_2
 72
     1
 11
8.0
 21
21.5
 31
0.0
  0
TEXT
  5
1D8
  8
NOTES
  6
CONTINUOUS
 62
     1
 10
16.800000000000001
 20
21.5
 30
0.0
 40
2.0
  1
SERVICE CLEARANCE
 41
0.8
  0
TEXT
  5
1D9
  8
NOTES
  6
CONTINUOUS
 62
     2
 10
2.6666666666666661
 20
25.5
 30
0.0
 40
2.0
  1
-
 41
8.0
  7
TEXTSTYLE_2
 72
     1
 11
8.0
 21
25.5
 31
0.0
  0
TEXT
  5
1DA
  8
NOTES
  6
CONTINUOUS
 62
     1
 10
16.800000000000001
 20
25.5
 30
0.0
 40
2.0
  1
UNIT DUCTS
 41
0.8
  0
TEXT
  5
1DB
  8
NOTES
  6
CONTINUOUS
 62
     5
 10
2.6666666666666661
 20
29.5
 30
0.0
 40
2.0
  1
-
 41
8.0
  7
TEXTSTYLE_2
 72
     1
 11
8.0
 21
29.5
 31
0.0
  0
TEXT
  5
1DC
  8
NOTES
  6
CONTINUOUS
 62
     1
 10
16.800000000000001
 20
29.5
 30
0.0
 40
2.0
  1
CURB DUCTS
 41
0.8
  0
TEXT
  5
1DD
  8
NOTES
  6
HIDDEN
 62
     8
 10
2.6666666666666661
 20
33.5
 30
0.0
 40
2.0
  1
-
 41
8.0
  7
TEXTSTYLE_2
 72
     1
 11
8.0
 21
33.5
 31
0.0
  0
TEXT
  5
1DE
  8
NOTES
  6
CONTINUOUS
 62
     1
 10
16.800000000000001
 20
33.5
 30
0.0
 40
2.0
  1
UNIT HIDDEN
 41
0.8
  0
TEXT
  5
1DF
  8
NOTES
  6
CONTINUOUS
 62
     1
 10
62.397120870599998
 20
147.21711776199999
 30
0.0
 40
2.286
  1
3/4"-14 NPT CONDENSATE DRAIN
 41
0.8
  0
LINE
  5
1E0
  8
NOTES
  6
CONTINUOUS
 62
     1
 10
139.13226357920001
 20
96.912258788399996
 30
0.0
 11
116.88699853209999
 21
148.36011776199999
 31
0.0
  0
LINE
  5
1E1
  8
NOTES
  6
CONTINUOUS
 62
     1
 10
116.88699853209999
 20
148.36011776199999
 30
0.0
 11
113.60352087059999
 21
148.36011776199999
 31
0.0
  0
SOLID
  5
1E2
  8
NOTES
  6
CONTINUOUS
 62
     1
 10
136.8563619828
 20
100.28609516909999
 30
0.0
 11
139.13226357920001
 21
96.912258788399996
 31
0.0
 12
138.23317149709999
 22
100.88140648380001
 32
0.0
 13
138.23317149709999
 23
100.88140648380001
 33
0.0
  0
LINE
  5
1E3
  8
SERVCLEAR
  6
DASHED
 62
     1
 10
0.0
 20
140.04595209999999
 30
0.0
 11
0.0
 21
90.796240023300001
 31
0.0
  0
LINE
  5
1E4
  8
0
  6
CONTINUOUS
 62
     7
 10
0.0
 20
0.0
 30
0.0
 11
0.0
 21
175.0
 31
0.0
  0
LINE
  5
1E5
  8
UNIT-SOL
  6
CONTINUOUS
 62
     7
 10
35.999797698000002
 20
140.17115589150001
 30
0.0
 11
35.999797698000002
 21
90.796240023300001
 31
0.0
  0
LINE
  5
1E6
  8
SERVCLEAR
  6
DASHED
 62
     1
 10
36.0
 20
140.17095209999999
 30
0.0
 11
36.0
 21
90.796240023300001
 31
0.0
  0
POLYLINE
  5
1E7
  8
CURB-24
  6
DOT
 62
     6
 66
     1
 10
0.0
 20
0.0
 30
0.0
 40
0.0098425202
 41
0.0098425202
  0
VERTEX
  5
29E
  8
CURB-24
  6
DOT
 62
     6
 10
38.687297698000002
 20
92.650436858199996
 30
0.0
  0
VERTEX
  5
29F
  8
CURB-24
  6
DOT
 62
     6
 10
38.687297698000002
 20
93.796240023300001
 30
0.0
  0
SEQEND
  5
2A0
  8
CURB-24
  6
DOT
 62
     6
  0
POLYLINE
  5
1EB
  8
CURB-14
  6
DOT
 62
     6
 66
     1
 10
0.0
 20
0.0
 30
0.0
 40
0.0098425202
 41
0.0098425202
  0
VERTEX
  5
2A1
  8
CURB-14
  6
DOT
 62
     6
 10
38.687297698000002
 20
92.650436858199996
 30
0.0
  0
VERTEX
  5
2A2
  8
CURB-14
  6
DOT
 62
     6
 10
38.687297698000002
 20
93.796240023300001
 30
0.0
  0
SEQEND
  5
2A3
  8
CURB-14
  6
DOT
 62
     6
  0
POLYLINE
  5
1EF
  8
CURB-24
  6
CONTINUOUS
 62
     6
 66
     1
 10
0.0
 20
0.0
 30
0.0
 40
0.0118110236
 41
0.0118110236
  0
VERTEX
  5
2A4
  8
CURB-24
  6
CONTINUOUS
 62
     6
 10
39.712297698
 20
90.796240023300001
 30
0.0
  0
VERTEX
  5
2A5
  8
CURB-24
  6
CONTINUOUS
 62
     6
 10
39.712297698
 20
69.797969269799992
 30
0.0
  0
SEQEND
  5
2A6
  8
CURB-24
  6
CONTINUOUS
 62
     6
  0
POLYLINE
  5
1F3
  8
CURB-14
  6
CONTINUOUS
 62
     6
 66
     1
 10
0.0
 20
0.0
 30
0.0
 40
0.0118110236
 41
0.0118110236
  0
VERTEX
  5
2A7
  8
CURB-14
  6
CONTINUOUS
 62
     6
 10
39.712297698
 20
90.796240023300001
 30
0.0
  0
VERTEX
  5
2A8
  8
CURB-14
  6
CONTINUOUS
 62
     6
 10
39.712297698
 20
79.796240023300001
 30
0.0
  0
SEQEND
  5
2A9
  8
CURB-14
  6
CONTINUOUS
 62
     6
  0
POLYLINE
  5
1F7
  8
CURB-14
  6
DOT
 62
     6
 66
     1
 10
0.0
 20
0.0
 30
0.0
 40
0.0098425202
 41
0.0098425202
  0
VERTEX
  5
2AA
  8
CURB-14
  6
DOT
 62
     6
 10
39.712297698
 20
90.796240023300001
 30
0.0
  0
VERTEX
  5
2AB
  8
CURB-14
  6
DOT
 62
     6
 10
39.712297698
 20
92.648958686499995
 30
0.0
  0
SEQEND
  5
2AC
  8
CURB-14
  6
DOT
 62
     6
  0
POLYLINE
  5
1FB
  8
CURB-24
  6
DOT
 62
     6
 66
     1
 10
0.0
 20
0.0
 30
0.0
 40
0.0098425202
 41
0.0098425202
  0
VERTEX
  5
2AD
  8
CURB-24
  6
DOT
 62
     6
 10
39.712297698
 20
90.796240023300001
 30
0.0
  0
VERTEX
  5
2AE
  8
CURB-24
  6
DOT
 62
     6
 10
39.712297698
 20
92.648958686499995
 30
0.0
  0
SEQEND
  5
2AF
  8
CURB-24
  6
DOT
 62
     6
  0
LINE
  5
1FF
  8
0
  6
CONTINUOUS
 62
     7
 10
0.0
 20
0.0
 30
0.0
 11
300.0
 21
0.0
 31
0.0
  0
LINE
  5
200
  8
UNIT-DUCTS
  6
CONTINUOUS
 62
     2
 10
96.999667983300014
 20
112.2962400233
 30
0.0
 11
96.999667983300014
 21
96.421240023300001
 31
0.0
  0
LINE
  5
201
  8
UNIT-DUCTS
  6
CONTINUOUS
 62
     2
 10
96.999667983300014
 20
96.421240023300001
 30
0.0
 11
126.7496679833
 21
112.2962400233
 31
0.0
  0
LINE
  5
202
  8
UNIT-DUCTS
  6
CONTINUOUS
 62
     2
 10
126.7496679833
 20
112.2962400233
 30
0.0
 11
126.7496679833
 21
96.421240023300001
 31
0.0
  0
POLYLINE
  5
203
  8
CURB-24
  6
CONTINUOUS
 62
     6
 66
     1
 10
0.0
 20
0.0
 30
0.0
 40
0.0098425202
 41
0.0098425202
  0
VERTEX
  5
2B0
  8
CURB-24
  6
CONTINUOUS
 62
     6
 10
36.715297698000001
 20
69.797969269799992
 30
0.0
  0
VERTEX
  5
2B1
  8
CURB-24
  6
CONTINUOUS
 62
     6
 10
175.62779769799999
 20
69.797969269799992
 30
0.0
  0
SEQEND
  5
2B2
  8
CURB-24
  6
CONTINUOUS
 62
     6
  0
LINE
  5
207
  8
UNIT-DUCTS
  6
CONTINUOUS
 62
     2
 10
150.87466798329999
 20
137.8112400233
 30
0.0
 11
150.87466798329999
 21
96.421240023300001
 31
0.0
  0
LINE
  5
208
  8
HOODS
  6
CONTINUOUS
 62
     7
 10
194.50168052929999
 20
111.0402348236
 30
0.0
 11
193.0247509882
 21
110.5727898649
 31
0.0
  0
POLYLINE
  5
209
  8
CURB-14
  6
CONTINUOUS
 62
     6
 66
     1
 10
0.0
 20
0.0
 30
0.0
 40
0.0098425202
 41
0.0098425202
  0
VERTEX
  5
2B3
  8
CURB-14
  6
CONTINUOUS
 62
     6
 10
36.715297698000001
 20
79.796240023300001
 30
0.0
  0
VERTEX
  5
2B4
  8
CURB-14
  6
CONTINUOUS
 62
     6
 10
175.62779769799999
 20
79.796240023300001
 30
0.0
  0
SEQEND
  5
2B5
  8
CURB-14
  6
CONTINUOUS
 62
     6
  0
LINE
  5
20D
  8
UNIT-DUCTS
  6
CONTINUOUS
 62
     2
 10
96.999667983300014
 20
112.2962400233
 30
0.0
 11
126.7496679833
 21
96.421240023300001
 31
0.0
  0
LINE
  5
20E
  8
HOODS
  6
CONTINUOUS
 62
     7
 10
193.0247509882
 20
110.5727898649
 30
0.0
 11
177.49966798329999
 21
96.593942339199998
 31
0.0
  0
LINE
  5
20F
  8
SERVCLEAR
  6
DASHED
 62
     1
 10
297.99966798330001
 20
90.796240023300001
 30
0.0
 11
201.99966798329999
 21
90.796240023300001
 31
0.0
  0
LINE
  5
210
  8
UNIT-SOL
  6
CONTINUOUS
 62
     7
 10
177.49966798329999
 20
90.796240023300001
 30
0.0
 11
35.999797698000002
 21
90.796240023300001
 31
0.0
  0
LINE
  5
211
  8
SERVCLEAR
  6
DASHED
 62
     1
 10
36.0
 20
90.796240023300001
 30
0.0
 11
0.0
 21
90.796240023300001
 31
0.0
  0
POLYLINE
  5
212
  8
CURB-24
  6
DOT
 62
     6
 66
     1
 10
0.0
 20
0.0
 30
0.0
 40
0.0098425202
 41
0.0098425202
  0
VERTEX
  5
2B6
  8
CURB-24
  6
DOT
 62
     6
 10
38.687297698000002
 20
93.796240023300001
 30
0.0
  0
VERTEX
  5
2B7
  8
CURB-24
  6
DOT
 62
     6
 10
174.37479769800001
 20
93.796240023300001
 30
0.0
  0
SEQEND
  5
2B8
  8
CURB-24
  6
DOT
 62
     6
  0
POLYLINE
  5
216
  8
CURB-14
  6
DOT
 62
     6
 66
     1
 10
0.0
 20
0.0
 30
0.0
 40
0.0098425202
 41
0.0098425202
  0
VERTEX
  5
2B9
  8
CURB-14
  6
DOT
 62
     6
 10
38.687297698000002
 20
93.796240023300001
 30
0.0
  0
VERTEX
  5
2BA
  8
CURB-14
  6
DOT
 62
     6
 10
174.37479769800001
 20
93.796240023300001
 30
0.0
  0
SEQEND
  5
2BB
  8
CURB-14
  6
DOT
 62
     6
  0
LINE
  5
21A
  8
UNIT-DUCTS
  6
CONTINUOUS
 62
     2
 10
174.24966798329999
 20
96.421240023300001
 30
0.0
 11
150.87466798329999
 21
96.421240023300001
 31
0.0
  0
LINE
  5
21B
  8
UNIT-DUCTS
  6
CONTINUOUS
 62
     2
 10
126.7496679833
 20
96.421240023300001
 30
0.0
 11
96.999667983300014
 21
96.421240023300001
 31
0.0
  0
POLYLINE
  5
21C
  8
CURB-24
  6
DOT
 62
     6
 66
     1
 10
0.0
 20
0.0
 30
0.0
 40
0.0098425202
 41
0.0098425202
  0
VERTEX
  5
2BC
  8
CURB-24
  6
DOT
 62
     6
 10
174.37479769800001
 20
92.546240023300001
 30
0.0
  0
VERTEX
  5
2BD
  8
CURB-24
  6
DOT
 62
     6
 10
38.687297698000002
 20
92.650436858199996
 30
0.0
  0
SEQEND
  5
2BE
  8
CURB-24
  6
DOT
 62
     6
  0
POLYLINE
  5
220
  8
CURB-14
  6
DOT
 62
     6
 66
     1
 10
0.0
 20
0.0
 30
0.0
 40
0.0098425202
 41
0.0098425202
  0
VERTEX
  5
2BF
  8
CURB-14
  6
DOT
 62
     6
 10
174.37479769800001
 20
92.546240023300001
 30
0.0
  0
VERTEX
  5
2C0
  8
CURB-14
  6
DOT
 62
     6
 10
38.687297698000002
 20
92.650436858199996
 30
0.0
  0
SEQEND
  5
2C1
  8
CURB-14
  6
DOT
 62
     6
  0
LINE
  5
224
  8
0
  6
CONTINUOUS
 62
     7
 10
201.99966798329999
 20
120.1337702786
 30
0.0
 11
201.97565577259999
 21
120.1097580678
 31
0.0
  0
LINE
  5
225
  8
HOODS
  6
CONTINUOUS
 62
     7
 10
194.4367480768
 20
111.04536274989999
 30
0.0
 11
195.3641021622
 21
111.8803561189
 31
0.0
  0
LINE
  5
226
  8
HOODS
  6
CONTINUOUS
 62
     7
 10
194.50168052929999
 20
111.0402348236
 30
0.0
 11
195.39572466120001
 21
111.8452357757
 31
0.0
  0
POLYLINE
  5
227
  8
CURB-24
  6
CONTINUOUS
 62
     6
 66
     1
 10
0.0
 20
0.0
 30
0.0
 40
0.0118110236
 41
0.0118110236
  0
VERTEX
  5
2C2
  8
CURB-24
  6
CONTINUOUS
 62
     6
 10
172.62479769800001
 20
90.796240023300001
 30
0.0
  0
VERTEX
  5
2C3
  8
CURB-24
  6
CONTINUOUS
 62
     6
 10
172.62479769800001
 20
69.797969269799992
 30
0.0
  0
SEQEND
  5
2C4
  8
CURB-24
  6
CONTINUOUS
 62
     6
  0
POLYLINE
  5
22B
  8
CURB-14
  6
CONTINUOUS
 62
     6
 66
     1
 10
0.0
 20
0.0
 30
0.0
 40
0.0118110236
 41
0.0118110236
  0
VERTEX
  5
2C5
  8
CURB-14
  6
CONTINUOUS
 62
     6
 10
172.62479769800001
 20
90.796240023300001
 30
0.0
  0
VERTEX
  5
2C6
  8
CURB-14
  6
CONTINUOUS
 62
     6
 10
172.62479769800001
 20
79.796240023300001
 30
0.0
  0
SEQEND
  5
2C7
  8
CURB-14
  6
CONTINUOUS
 62
     6
  0
POLYLINE
  5
22F
  8
CURB-14
  6
DOT
 62
     6
 66
     1
 10
0.0
 20
0.0
 30
0.0
 40
0.0098425202
 41
0.0098425202
  0
VERTEX
  5
2C8
  8
CURB-14
  6
DOT
 62
     6
 10
172.62479769800001
 20
90.796240023300001
 30
0.0
  0
VERTEX
  5
2C9
  8
CURB-14
  6
DOT
 62
     6
 10
172.62479769800001
 20
92.648958686499995
 30
0.0
  0
SEQEND
  5
2CA
  8
CURB-14
  6
DOT
 62
     6
  0
POLYLINE
  5
233
  8
CURB-24
  6
DOT
 62
     6
 66
     1
 10
0.0
 20
0.0
 30
0.0
 40
0.0098425202
 41
0.0098425202
  0
VERTEX
  5
2CB
  8
CURB-24
  6
DOT
 62
     6
 10
172.62479769800001
 20
90.796240023300001
 30
0.0
  0
VERTEX
  5
2CC
  8
CURB-24
  6
DOT
 62
     6
 10
172.62479769800001
 20
92.648958686499995
 30
0.0
  0
SEQEND
  5
2CD
  8
CURB-24
  6
DOT
 62
     6
  0
LINE
  5
237
  8
UNIT-DUCTS
  6
CONTINUOUS
 62
     2
 10
174.24966798329999
 20
137.8112400233
 30
0.0
 11
174.24966798329999
 21
96.421240023300001
 31
0.0
  0
POLYLINE
  5
238
  8
CURB-24
  6
DOT
 62
     6
 66
     1
 10
0.0
 20
0.0
 30
0.0
 40
0.0098425202
 41
0.0098425202
  0
VERTEX
  5
2CE
  8
CURB-24
  6
DOT
 62
     6
 10
174.37479769800001
 20
93.796240023300001
 30
0.0
  0
VERTEX
  5
2CF
  8
CURB-24
  6
DOT
 62
     6
 10
174.37479769800001
 20
92.546240023300001
 30
0.0
  0
SEQEND
  5
2D0
  8
CURB-24
  6
DOT
 62
     6
  0
POLYLINE
  5
23C
  8
CURB-14
  6
DOT
 62
     6
 66
     1
 10
0.0
 20
0.0
 30
0.0
 40
0.0098425202
 41
0.0098425202
  0
VERTEX
  5
2D1
  8
CURB-14
  6
DOT
 62
     6
 10
174.37479769800001
 20
93.796240023300001
 30
0.0
  0
VERTEX
  5
2D2
  8
CURB-14
  6
DOT
 62
     6
 10
174.37479769800001
 20
92.546240023300001
 30
0.0
  0
SEQEND
  5
2D3
  8
CURB-14
  6
DOT
 62
     6
  0
LINE
  5
240
  8
UNIT-SOL
  6
CONTINUOUS
 62
     7
 10
177.49966798329999
 20
140.17115589150001
 30
0.0
 11
177.49966798329999
 21
90.796240023300001
 31
0.0
  0
LINE
  5
241
  8
UNIT-DUCTS
  6
CONTINUOUS
 62
     2
 10
126.7496679833
 20
112.2962400233
 30
0.0
 11
96.999667983300014
 21
112.2962400233
 31
0.0
  0
LINE
  5
242
  8
HOODS
  6
CONTINUOUS
 62
     7
 10
201.97565577259999
 20
120.1097580678
 30
0.0
 11
177.49966798329999
 21
120.1097580678
 31
0.0
  0
LINE
  5
243
  8
UNIT-DUCTS
  6
CONTINUOUS
 62
     2
 10
150.87466798329999
 20
137.8112400233
 30
0.0
 11
174.24966798329999
 21
96.421240023300001
 31
0.0
  0
LINE
  5
244
  8
HOODS
  6
CONTINUOUS
 62
     7
 10
194.4367480768
 20
111.04536274989999
 30
0.0
 11
177.49966798329999
 21
118.9432529043
 31
0.0
  0
LINE
  5
245
  8
HOODS
  6
CONTINUOUS
 62
     7
 10
201.70154106870001
 20
122.4856131417
 30
0.0
 11
201.70154106870001
 21
120.4318971931
 31
0.0
  0
LINE
  5
246
  8
SERVCLEAR
  6
DASHED
 62
     1
 10
201.99966798329999
 20
140.17095209999999
 30
0.0
 11
201.99966798329999
 21
90.796240023300001
 31
0.0
  0
LINE
  5
247
  8
UNIT-DUCTS
  6
CONTINUOUS
 62
     2
 10
174.24966798329999
 20
137.8112400233
 30
0.0
 11
150.87466798329999
 21
137.8112400233
 31
0.0
  0
LINE
  5
248
  8
SERVCLEAR
  6
DASHED
 62
     1
 10
0.3125
 20
140.17095209999999
 30
0.0
 11
36.0
 21
140.17095209999999
 31
0.0
  0
LINE
  5
249
  8
SERVCLEAR
  6
DASHED
 62
     1
 10
201.99966798329999
 20
140.17095209999999
 30
0.0
 11
297.99966798330001
 21
140.17095209999999
 31
0.0
  0
LINE
  5
24A
  8
UNIT-SOL
  6
CONTINUOUS
 62
     7
 10
177.49966798329999
 20
140.17115589150001
 30
0.0
 11
35.999797698000002
 21
140.17115589150001
 31
0.0
  0
LINE
  5
24B
  8
HOODS
  6
CONTINUOUS
 62
     7
 10
195.39572466120001
 20
111.8452357757
 30
0.0
 11
195.3641021622
 21
111.8803561189
 31
0.0
  0
LINE
  5
24C
  8
HOODS
  6
CONTINUOUS
 62
     7
 10
177.49966798329999
 20
138.54164470149999
 30
0.0
 11
201.70154106870001
 21
122.4856131417
 31
0.0
  0
LINE
  5
24D
  8
HOODS
  6
CONTINUOUS
 62
     7
 10
201.99966798329999
 20
120.1337702786
 30
0.0
 11
201.70154106870001
 21
120.4318971931
 31
0.0
  0
LINE
  5
24E
  8
0
  6
CONTINUOUS
 62
     7
 10
0.0
 20
175.0
 30
0.0
 11
300.0
 21
175.0
 31
0.0
  0
LINE
  5
24F
  8
SERVCLEAR
  6
DASHED
 62
     1
 10
297.99966798330001
 20
140.04595209999999
 30
0.0
 11
297.99966798330001
 21
90.796240023300001
 31
0.0
  0
LINE
  5
250
  8
0
  6
CONTINUOUS
 62
     7
 10
300.0
 20
0.0
 30
0.0
 11
300.0
 21
175.0
 31
0.0
  0
CIRCLE
  5
251
  8
UNIT-SOL
  6
CONTINUOUS
 62
     7
 10
139.99966798329999
 20
96.046240023300001
 30
0.0
 40
1.2257156691999991
  0
ENDSEC
  0
EOF
