  0
SECTION
  2
HEADER
  9
$ACADVER
  1
AC1009
  9
$INSBASE
 10
0.0
 20
0.0
 30
0.0
  9
$EXTMIN
 10
-0.0099174562026292
 20
-0.0053401687244445
 30
-0.0015258207003583
  9
$EXTMAX
 10
325.0099189696017
 20
175.0053409836317
 30
0.0000000349246037
  9
$LIMMIN
 10
0.0
 20
0.0
  9
$LIMMAX
 10
325.0
 20
175.0
  9
$ORTHOMODE
 70
     0
  9
$REGENMODE
 70
     1
  9
$FILLMODE
 70
     1
  9
$QTEXTMODE
 70
     0
  9
$MIRRTEXT
 70
     0
  9
$DRAGMODE
 70
     2
  9
$LTSCALE
 40
17.875
  9
$OSMODE
 70
    37
  9
$ATTMODE
 70
     1
  9
$TEXTSIZE
 40
0.2
  9
$TRACEWID
 40
0.05
  9
$TEXTSTYLE
  7
STANDARD
  9
$CLAYER
  8
0
  9
$CELTYPE
  6
ByLayer
  9
$CECOLOR
 62
   256
  9
$DIMSCALE
 40
1.0
  9
$DIMASZ
 40
4.0
  9
$DIMEXO
 40
1.587499999999999
  9
$DIMDLI
 40
12.35
  9
$DIMRND
 40
0.0
  9
$DIMDLE
 40
0.0
  9
$DIMEXE
 40
1.587499999999999
  9
$DIMTP
 40
0.0
  9
$DIMTM
 40
0.0
  9
$DIMTXT
 40
2.0
  9
$DIMCEN
 40
2.9249999999999989
  9
$DIMTSZ
 40
0.0
  9
$DIMTOL
 70
     0
  9
$DIMLIM
 70
     0
  9
$DIMTIH
 70
     1
  9
$DIMTOH
 70
     1
  9
$DIMSE1
 70
     0
  9
$DIMSE2
 70
     0
  9
$DIMTAD
 70
     0
  9
$DIMZIN
 70
     0
  9
$DIMBLK
  1
_FILLED
  9
$DIMASO
 70
     1
  9
$DIMSHO
 70
     1
  9
$DIMPOST
  1

  9
$DIMAPOST
  1

  9
$DIMALT
 70
     0
  9
$DIMALTD
 70
     2
  9
$DIMALTF
 40
25.399999999999999
  9
$DIMLFAC
 40
1.0
  9
$DIMTOFL
 70
     0
  9
$DIMTVP
 40
0.0
  9
$DIMTIX
 70
     0
  9
$DIMSOXD
 70
     0
  9
$DIMSAH
 70
     0
  9
$DIMBLK1
  1

  9
$DIMBLK2
  1

  9
$DIMSTYLE
  2
STANDARD
  9
$DIMCLRD
 70
     0
  9
$DIMCLRE
 70
     0
  9
$DIMCLRT
 70
     0
  9
$DIMTFAC
 40
1.0
  9
$DIMGAP
 40
0.09
  9
$LUNITS
 70
     2
  9
$LUPREC
 70
     4
  9
$SKETCHINC
 40
0.1
  9
$FILLETRAD
 40
0.0
  9
$AUNITS
 70
     0
  9
$AUPREC
 70
     0
  9
$MENU
  1
.
  9
$ELEVATION
 40
0.0
  9
$PELEVATION
 40
0.0
  9
$THICKNESS
 40
0.0
  9
$LIMCHECK
 70
     0
  9
$BLIPMODE
 70
     0
  9
$CHAMFERA
 40
0.0
  9
$CHAMFERB
 40
0.0
  9
$SKPOLY
 70
     0
  9
$TDCREATE
 40
2456262.5040685758
  9
$TDUPDATE
 40
2456262.504691551
  9
$TDINDWG
 40
0.0006235532
  9
$TDUSRTIMER
 40
0.0006235532
  9
$USRTIMER
 70
     1
  9
$ANGBASE
 50
0.0
  9
$ANGDIR
 70
     0
  9
$PDMODE
 70
     3
  9
$PDSIZE
 40
7.9375
  9
$PLINEWID
 40
0.0
  9
$COORDS
 70
     1
  9
$SPLFRAME
 70
     0
  9
$SPLINETYPE
 70
     6
  9
$SPLINESEGS
 70
     8
  9
$ATTDIA
 70
     0
  9
$ATTREQ
 70
     1
  9
$HANDLING
 70
     1
  9
$HANDSEED
  5
2D6
  9
$SURFTAB1
 70
     6
  9
$SURFTAB2
 70
     6
  9
$SURFTYPE
 70
     6
  9
$SURFU
 70
     6
  9
$SURFV
 70
     6
  9
$UCSNAME
  2

  9
$UCSORG
 10
0.0
 20
0.0
 30
0.0
  9
$UCSXDIR
 10
1.0
 20
0.0
 30
0.0
  9
$UCSYDIR
 10
0.0
 20
1.0
 30
0.0
  9
$PUCSNAME
  2

  9
$PUCSORG
 10
0.0
 20
0.0
 30
0.0
  9
$PUCSXDIR
 10
1.0
 20
0.0
 30
0.0
  9
$PUCSYDIR
 10
0.0
 20
1.0
 30
0.0
  9
$USERI1
 70
     0
  9
$USERI2
 70
     0
  9
$USERI3
 70
     0
  9
$USERI4
 70
     0
  9
$USERI5
 70
     0
  9
$USERR1
 40
0.0
  9
$USERR2
 40
0.0
  9
$USERR3
 40
0.0
  9
$USERR4
 40
0.0
  9
$USERR5
 40
0.0
  9
$WORLDVIEW
 70
     1
  9
$SHADEDGE
 70
     3
  9
$SHADEDIF
 70
    70
  9
$TILEMODE
 70
     1
  9
$MAXACTVP
 70
    64
  9
$PLIMCHECK
 70
     0
  9
$PEXTMIN
 10
1.0000000000000000E+020
 20
1.0000000000000000E+020
 30
1.0000000000000000E+020
  9
$PEXTMAX
 10
-1.0000000000000000E+020
 20
-1.0000000000000000E+020
 30
-1.0000000000000000E+020
  9
$PLIMMIN
 10
0.0
 20
0.0
  9
$PLIMMAX
 10
12.0
 20
9.0
  9
$UNITMODE
 70
     0
  9
$VISRETAIN
 70
     1
  9
$PLINEGEN
 70
     0
  9
$PSLTSCALE
 70
     1
  0
ENDSEC
  0
SECTION
  2
TABLES
  0
TABLE
  2
VPORT
 70
     1
  0
VPORT
  2
*ACTIVE
 70
     0
 10
0.0
 20
0.0
 11
1.0
 21
1.0
 12
162.50000075669951
 22
87.500000407453655
 13
0.0
 23
0.0
 14
1.0
 24
1.0
 15
0.0
 25
0.0
 16
0.0
 26
0.0
 36
1.0
 17
0.0
 27
0.0
 37
0.0
 40
297.56810547847829
 41
1.1005586592178771
 42
50.0
 43
0.0
 44
0.0
 50
0.0
 51
0.0
 71
     0
 72
   100
 73
     1
 74
     1
 75
     0
 76
     0
 77
     0
 78
     0
  0
ENDTAB
  0
TABLE
  2
LTYPE
 70
     8
  0
LTYPE
  2
ByBlock
 70
     0
  3

 72
    65
 73
     0
 40
0.0
  0
LTYPE
  2
ByLayer
 70
     0
  3

 72
    65
 73
     0
 40
0.0
  0
LTYPE
  2
CONTINUOUS
 70
     0
  3
Solid line
 72
    65
 73
     0
 40
0.0
  0
LTYPE
  2
CENTER
 70
     0
  3
____ _ ____ _ ____ _ ____ _ ____ _ ____ _ ____
 72
    65
 73
     4
 40
0.6
 49
0.375
 49
-0.075
 49
0.075
 49
-0.075
  0
LTYPE
  2
HIDDEN
 70
     0
  3
- - - - - - - - - - - - - - - - - - - -
 72
    65
 73
     2
 40
0.2
 49
0.1
 49
-0.1
  0
LTYPE
  2
PHANTOM
 70
     0
  3
_____ _ _ _____ _ _ _____ _ _ _____
 72
    65
 73
     6
 40
0.8
 49
0.45
 49
-0.05
 49
0.1
 49
-0.05
 49
0.1
 49
-0.05
  0
LTYPE
  2
DOT
 70
     0
  3
. . . . . . . . . . . . . . . . . . . .
 72
    65
 73
     2
 40
0.2
 49
0.1
 49
-0.1
  0
LTYPE
  2
DASHED
 70
     0
  3
- - - - - - - - - - - - - - - - - - - -
 72
    65
 73
     2
 40
0.2
 49
0.1
 49
-0.1
  0
ENDTAB
  0
TABLE
  2
LAYER
 70
    16
  0
LAYER
  2
0
 70
     0
 62
     7
  6
CONTINUOUS
  0
LAYER
  2
DEFAULT_1
 70
     0
 62
     7
  6
CENTER
  0
LAYER
  2
DEFAULT_2
 70
     0
 62
     8
  6
HIDDEN
  0
LAYER
  2
DEFAULT_3
 70
     0
 62
     7
  6
PHANTOM
  0
LAYER
  2
CURB-14
 70
     0
 62
     6
  6
CONTINUOUS
  0
LAYER
  2
CURB-14-DIM
 70
     0
 62
     6
  6
CONTINUOUS
  0
LAYER
  2
CURB-24
 70
     0
 62
     6
  6
CONTINUOUS
  0
LAYER
  2
CURB-24-DIM
 70
     0
 62
     6
  6
CONTINUOUS
  0
LAYER
  2
HOODS
 70
     0
 62
     7
  6
CONTINUOUS
  0
LAYER
  2
NOTES
 70
     0
 62
     1
  6
CONTINUOUS
  0
LAYER
  2
SERVCLEAR
 70
     0
 62
     1
  6
CONTINUOUS
  0
LAYER
  2
SERVCLRDIM
 70
     0
 62
     1
  6
CONTINUOUS
  0
LAYER
  2
UNIT-DIM
 70
     0
 62
     7
  6
CONTINUOUS
  0
LAYER
  2
UNIT-DUCTS
 70
     0
 62
     2
  6
CONTINUOUS
  0
LAYER
  2
UNIT-SOL
 70
     0
 62
     7
  6
CONTINUOUS
  0
LAYER
  2
UNTDUCTDIM
 70
     0
 62
     2
  6
CONTINUOUS
  0
ENDTAB
  0
TABLE
  2
STYLE
 70
     4
  0
STYLE
  2
STANDARD
 70
     0
 40
0.0
 41
0.8
 50
0.0
 71
     0
 42
0.2
  3
txt
  4

  0
STYLE
  2
ANNOTATIVE
 70
     0
 40
0.0
 41
1.0
 50
0.0
 71
     0
 42
0.2
  3
txt
  4

  0
STYLE
  2
TEXTSTYLE_1
 70
     0
 40
0.0
 41
0.8
 50
0.0
 71
     0
 42
0.2
  3
gdt
  4

  0
STYLE
  2
TEXTSTYLE_2
 70
     0
 40
0.0
 41
8.0
 50
0.0
 71
     0
 42
0.2
  3
txt
  4

  0
ENDTAB
  0
TABLE
  2
VIEW
 70
     0
  0
ENDTAB
  0
TABLE
  2
UCS
 70
     0
  0
ENDTAB
  0
TABLE
  2
APPID
 70
     4
  0
APPID
  2
ACAD
 70
     0
  0
APPID
  2
ACADANNOTATIVE
 70
     0
  0
APPID
  2
ACAD_NAV_VCDISPLAY
 70
     0
  0
APPID
  2
ACAD_MLEADERVER
 70
     0
  0
ENDTAB
  0
TABLE
  2
DIMSTYLE
 70
     2
  0
DIMSTYLE
  2
STANDARD
 70
     0
  3

  4

  5

  6

  7

 40
1.0
 41
0.18
 42
0.0625
 43
0.38
 44
0.18
 45
0.0
 46
0.0
 47
0.0
 48
0.0
140
0.18
141
0.09
142
0.0
143
25.399999999999999
144
1.0
145
0.0
146
1.0
147
0.09
 71
     0
 72
     0
 73
     1
 74
     1
 75
     0
 76
     0
 77
     0
 78
     0
170
     0
171
     2
172
     0
173
     0
174
     0
175
     0
176
     0
177
     0
178
     0
  0
DIMSTYLE
  2
ANNOTATIVE
 70
     0
  3

  4

  5

  6

  7

 40
1.0
 41
0.18
 42
0.0625
 43
0.38
 44
0.18
 45
0.0
 46
0.0
 47
0.0
 48
0.0
140
0.18
141
0.09
142
0.0
143
25.399999999999999
144
1.0
145
0.0
146
1.0
147
0.09
 71
     0
 72
     0
 73
     1
 74
     1
 75
     0
 76
     0
 77
     0
 78
     0
170
     0
171
     2
172
     0
173
     0
174
     0
175
     0
176
     0
177
     0
178
     0
  0
ENDTAB
  0
ENDSEC
  0
SECTION
  2
BLOCKS
  0
BLOCK
  8
0
  2
$MODEL_SPACE
 70
     0
 10
0.0
 20
0.0
 30
0.0
  3
$MODEL_SPACE
  1

  0
ENDBLK
  5
6D
  8
0
  0
BLOCK
 67
     1
  8
0
  2
$PAPER_SPACE
 70
     0
 10
0.0
 20
0.0
 30
0.0
  3
$PAPER_SPACE
  1

  0
ENDBLK
  5
69
 67
     1
  8
0
  0
BLOCK
  8
0
  2
_FILLED
 70
     0
 10
0.0
 20
0.0
 30
0.0
  3
_FILLED
  1

  0
SOLID
  5
8C
  8
0
  6
ByBlock
 62
     0
 10
0.0
 20
0.0
 30
0.0
 11
-1.0
 21
0.1875
 31
0.0
 12
-1.0
 22
-0.1875
 32
0.0
 13
-1.0
 23
-0.1875
 33
0.0
  0
ENDBLK
  5
8D
  8
0
  6
ByBlock
 62
     0
  0
BLOCK
  8
CURB-24-DIM
  6
CONTINUOUS
 62
     6
  2
*D1
 70
     1
 10
0.0
 20
0.0
 30
0.0
  3
*D1
  1

  0
TEXT
  5
90
  8
CURB-24-DIM
  6
CONTINUOUS
 62
     6
 10
104.5895110313333
 20
37.783444987300001
 30
0.0
 40
2.0
  1
152
 41
0.8
 72
     1
 11
106.456177698
 21
37.783444987300001
 31
0.0
  0
TEXT
  5
91
  8
CURB-24-DIM
  6
CONTINUOUS
 62
     6
 10
111.3895110313333
 20
37.783444987300001
 30
0.0
 40
2.0
  1
[
 41
0.8
 72
     1
 11
111.65617769799999
 21
37.783444987300001
 31
0.0
  0
TEXT
  5
92
  8
CURB-24-DIM
  6
CONTINUOUS
 62
     6
 10
113.256177698
 20
37.783444987300001
 30
0.0
 40
2.0
  1
3859.2
 41
0.8
 72
     1
 11
117.256177698
 21
37.783444987300001
 31
0.0
  0
TEXT
  5
93
  8
CURB-24-DIM
  6
CONTINUOUS
 62
     6
 10
122.5895110313333
 20
37.783444987300001
 30
0.0
 40
2.0
  1
]
 41
0.8
 72
     1
 11
122.856177698
 21
37.783444987300001
 31
0.0
  0
TEXT
  5
94
  8
CURB-24-DIM
  6
CONTINUOUS
 62
     6
 10
123.65617769799999
 20
37.783444987300001
 30
0.0
 40
2.0
  1
 
 41
0.8
 72
     1
 11
124.456177698
 21
37.783444987300001
 31
0.0
  0
LINE
  5
95
  8
CURB-24-DIM
  6
CONTINUOUS
 62
     6
 10
38.687427698
 20
91.570406541500006
 30
0.0
 11
38.687427698
 21
37.195944987300003
 31
0.0
  0
LINE
  5
96
  8
CURB-24-DIM
  6
CONTINUOUS
 62
     6
 10
190.62492769799999
 20
42.467676280999989
 30
0.0
 11
190.62492769799999
 21
37.195944987300003
 31
0.0
  0
LINE
  5
97
  8
CURB-24-DIM
  6
CONTINUOUS
 62
     6
 10
38.687427698
 20
38.783444987300001
 30
0.0
 11
102.056177698
 21
38.783444987300001
 31
0.0
  0
LINE
  5
98
  8
CURB-24-DIM
  6
CONTINUOUS
 62
     6
 10
190.62492769799999
 20
38.783444987300001
 30
0.0
 11
127.256177698
 21
38.783444987300001
 31
0.0
  0
INSERT
  5
99
  8
CURB-24-DIM
  6
CONTINUOUS
 62
     6
  2
_FILLED
 10
38.687427698
 20
38.783444987300001
 30
0.0
 41
4.0
 42
4.0
 43
4.0
 50
180.0
  0
INSERT
  5
9A
  8
CURB-24-DIM
  6
CONTINUOUS
 62
     6
  2
_FILLED
 10
190.62492769799999
 20
38.783444987300001
 30
0.0
 41
4.0
 42
4.0
 43
4.0
  0
ENDBLK
  5
9B
  8
0
  6
ByBlock
 62
     0
  0
BLOCK
  8
UNIT-DIM
  6
CONTINUOUS
 62
     7
  2
*D2
 70
     1
 10
0.0
 20
0.0
 30
0.0
  3
*D2
  1

  0
TEXT
  5
9E
  8
UNIT-DIM
  6
CONTINUOUS
 62
     7
 10
108.2081311740333
 20
160.57273805189999
 30
0.0
 40
2.0
  1
157-3/4
 41
0.8
 72
     1
 11
113.2747978407
 21
160.57273805189999
 31
0.0
  0
TEXT
  5
9F
  8
UNIT-DIM
  6
CONTINUOUS
 62
     7
 10
120.47479784070001
 20
160.57273805189999
 30
0.0
 40
2.0
  1
 
 41
0.8
 72
     1
 11
121.2747978407
 21
160.57273805189999
 31
0.0
  0
TEXT
  5
A0
  8
UNIT-DIM
  6
CONTINUOUS
 62
     7
 10
108.2081311740333
 20
157.57273805189999
 30
0.0
 40
2.0
  1
[
 41
0.8
 72
     1
 11
108.47479784070001
 21
157.57273805189999
 31
0.0
  0
TEXT
  5
A1
  8
UNIT-DIM
  6
CONTINUOUS
 62
     7
 10
110.3414645073666
 20
157.57273805189999
 30
0.0
 40
2.0
  1
4006.9
 41
0.8
 72
     1
 11
114.0747978407
 21
157.57273805189999
 31
0.0
  0
TEXT
  5
A2
  8
UNIT-DIM
  6
CONTINUOUS
 62
     7
 10
119.4081311740333
 20
157.57273805189999
 30
0.0
 40
2.0
  1
]
 41
0.8
 72
     1
 11
119.67479784069999
 21
157.57273805189999
 31
0.0
  0
LINE
  5
A3
  8
UNIT-DIM
  6
CONTINUOUS
 62
     7
 10
35.999797698000002
 20
150.12507199500001
 30
0.0
 11
35.999797698000002
 21
163.1602380519
 31
0.0
  0
LINE
  5
A4
  8
UNIT-DIM
  6
CONTINUOUS
 62
     7
 10
193.7497979833
 20
150.60520183209999
 30
0.0
 11
193.7497979833
 21
163.1602380519
 31
0.0
  0
LINE
  5
A5
  8
UNIT-DIM
  6
CONTINUOUS
 62
     7
 10
35.999797698000002
 20
161.57273805189999
 30
0.0
 11
105.67479784069999
 21
161.57273805189999
 31
0.0
  0
LINE
  5
A6
  8
UNIT-DIM
  6
CONTINUOUS
 62
     7
 10
193.7497979833
 20
161.57273805189999
 30
0.0
 11
124.0747978407
 21
161.57273805189999
 31
0.0
  0
INSERT
  5
A7
  8
UNIT-DIM
  6
CONTINUOUS
 62
     7
  2
_FILLED
 10
35.999797698000002
 20
161.57273805189999
 30
0.0
 41
4.0
 42
4.0
 43
4.0
 50
180.0
  0
INSERT
  5
A8
  8
UNIT-DIM
  6
CONTINUOUS
 62
     7
  2
_FILLED
 10
193.7497979833
 20
161.57273805189999
 30
0.0
 41
4.0
 42
4.0
 43
4.0
  0
ENDBLK
  5
A9
  8
0
  6
ByBlock
 62
     0
  0
BLOCK
  8
UNIT-DIM
  6
CONTINUOUS
 62
     7
  2
*D3
 70
     1
 10
0.0
 20
0.0
 30
0.0
  3
*D3
  1

  0
TEXT
  5
AC
  8
UNIT-DIM
  6
CONTINUOUS
 62
     7
 10
228.1839921818667
 20
118.4836979574
 30
0.0
 40
2.0
  1
57-3/8
 41
0.8
 72
     1
 11
232.7173255152
 21
118.4836979574
 31
0.0
  0
TEXT
  5
AD
  8
UNIT-DIM
  6
CONTINUOUS
 62
     7
 10
240.7173255152
 20
118.4836979574
 30
0.0
 40
2.0
  1
 
 41
0.8
 72
     1
 11
241.51732551520001
 21
118.4836979574
 31
0.0
  0
TEXT
  5
AE
  8
UNIT-DIM
  6
CONTINUOUS
 62
     7
 10
228.45065884853329
 20
115.4836979574
 30
0.0
 40
2.0
  1
[
 41
0.8
 72
     1
 11
228.7173255152
 21
115.4836979574
 31
0.0
  0
TEXT
  5
AF
  8
UNIT-DIM
  6
CONTINUOUS
 62
     7
 10
230.58399218186671
 20
115.4836979574
 30
0.0
 40
2.0
  1
1457.3
 41
0.8
 72
     1
 11
234.3173255152
 21
115.4836979574
 31
0.0
  0
TEXT
  5
B0
  8
UNIT-DIM
  6
CONTINUOUS
 62
     7
 10
239.65065884853331
 20
115.4836979574
 30
0.0
 40
2.0
  1
]
 41
0.8
 72
     1
 11
239.91732551519999
 21
115.4836979574
 31
0.0
  0
LINE
  5
B1
  8
UNIT-DIM
  6
CONTINUOUS
 62
     7
 10
196.7605418229
 20
90.796240023300001
 30
0.0
 11
236.70482551520001
 21
90.796240023300001
 31
0.0
  0
LINE
  5
B2
  8
UNIT-DIM
  6
CONTINUOUS
 62
     7
 10
196.17000136690001
 20
148.17115589150001
 30
0.0
 11
216.41929054030001
 21
148.17115589150001
 31
0.0
  0
LINE
  5
B3
  8
UNIT-DIM
  6
CONTINUOUS
 62
     7
 10
219.67022992310001
 20
148.17115589150001
 30
0.0
 11
236.70482551520001
 21
148.17115589150001
 31
0.0
  0
LINE
  5
B4
  8
UNIT-DIM
  6
CONTINUOUS
 62
     7
 10
235.11732551520001
 20
90.796240023300001
 30
0.0
 11
235.11732551520001
 21
113.4836979574
 31
0.0
  0
LINE
  5
B5
  8
UNIT-DIM
  6
CONTINUOUS
 62
     7
 10
235.11732551520001
 20
148.17115589150001
 30
0.0
 11
235.11732551520001
 21
122.4836979574
 31
0.0
  0
INSERT
  5
B6
  8
UNIT-DIM
  6
CONTINUOUS
 62
     7
  2
_FILLED
 10
235.11732551520001
 20
90.796240023300001
 30
0.0
 41
4.0
 42
4.0
 43
4.0
 50
270.0
  0
INSERT
  5
B7
  8
UNIT-DIM
  6
CONTINUOUS
 62
     7
  2
_FILLED
 10
235.11732551520001
 20
148.17115589150001
 30
0.0
 41
4.0
 42
4.0
 43
4.0
 50
90.0
  0
ENDBLK
  5
B8
  8
0
  6
ByBlock
 62
     0
  0
BLOCK
  8
CURB-24-DIM
  6
CONTINUOUS
 62
     6
  2
*D4
 70
     1
 10
0.0
 20
0.0
 30
0.0
  3
*D4
  1

  0
TEXT
  5
BB
  8
CURB-24-DIM
  6
CONTINUOUS
 62
     6
 10
4.8566476975666664
 20
78.269009691099996
 30
0.0
 40
2.0
  1
24
 41
0.8
 72
     1
 11
6.1899810309000003
 21
78.269009691099996
 31
0.0
  0
TEXT
  5
BC
  8
CURB-24-DIM
  6
CONTINUOUS
 62
     6
 10
15.7899810309
 20
78.269009691099996
 30
0.0
 40
2.0
  1
 
 41
0.8
 72
     1
 11
16.589981030899999
 21
78.269009691099996
 31
0.0
  0
TEXT
  5
BD
  8
CURB-24-DIM
  6
CONTINUOUS
 62
     6
 10
5.123314364233333
 20
75.269009691099996
 30
0.0
 40
2.0
  1
[
 41
0.8
 72
     1
 11
5.3899810308999996
 21
75.269009691099996
 31
0.0
  0
TEXT
  5
BE
  8
CURB-24-DIM
  6
CONTINUOUS
 62
     6
 10
7.123314364233333
 20
75.269009691099996
 30
0.0
 40
2.0
  1
609.6
 41
0.8
 72
     1
 11
10.1899810309
 21
75.269009691099996
 31
0.0
  0
TEXT
  5
BF
  8
CURB-24-DIM
  6
CONTINUOUS
 62
     6
 10
14.72331436423333
 20
75.269009691099996
 30
0.0
 40
2.0
  1
]
 41
0.8
 72
     1
 11
14.989981030899999
 21
75.269009691099996
 31
0.0
  0
LINE
  5
C0
  8
CURB-24-DIM
  6
CONTINUOUS
 62
     6
 10
35.127927698000001
 20
69.797969269799992
 30
0.0
 11
24.543101615600001
 21
69.797969269799992
 31
0.0
  0
LINE
  5
C1
  8
CURB-24-DIM
  6
CONTINUOUS
 62
     6
 10
22.5966824156
 20
69.797969269799992
 30
0.0
 11
9.4024810309000006
 21
69.797969269799992
 31
0.0
  0
LINE
  5
C2
  8
CURB-24-DIM
  6
CONTINUOUS
 62
     6
 10
37.099927698000002
 20
93.796240023300001
 30
0.0
 11
24.100733615599999
 21
93.796240023300001
 31
0.0
  0
LINE
  5
C3
  8
CURB-24-DIM
  6
CONTINUOUS
 62
     6
 10
23.4814184156
 20
93.796240023300001
 30
0.0
 11
9.4024810309000006
 21
93.796240023300001
 31
0.0
  0
LINE
  5
C4
  8
CURB-24-DIM
  6
CONTINUOUS
 62
     6
 10
10.989981030899999
 20
69.797969269799992
 30
0.0
 11
10.989981030899999
 21
73.269009691099996
 31
0.0
  0
LINE
  5
C5
  8
CURB-24-DIM
  6
CONTINUOUS
 62
     6
 10
10.989981030899999
 20
93.796240023300001
 30
0.0
 11
10.989981030899999
 21
82.269009691099996
 31
0.0
  0
INSERT
  5
C6
  8
CURB-24-DIM
  6
CONTINUOUS
 62
     6
  2
_FILLED
 10
10.989981030899999
 20
69.797969269799992
 30
0.0
 41
4.0
 42
4.0
 43
4.0
 50
270.0
  0
INSERT
  5
C7
  8
CURB-24-DIM
  6
CONTINUOUS
 62
     6
  2
_FILLED
 10
10.989981030899999
 20
93.796240023300001
 30
0.0
 41
4.0
 42
4.0
 43
4.0
 50
90.0
  0
ENDBLK
  5
C8
  8
0
  6
ByBlock
 62
     0
  0
BLOCK
  8
SERVCLRDIM
  6
CONTINUOUS
 62
     1
  2
*D5
 70
     1
 10
0.0
 20
0.0
 30
0.0
  3
*D5
  1

  0
TEXT
  5
CB
  8
SERVCLRDIM
  6
CONTINUOUS
 62
     1
 10
11.866565515666659
 20
131.20721984310001
 30
0.0
 40
2.0
  1
36
 41
0.8
 72
     1
 11
13.199898849
 21
131.20721984310001
 31
0.0
  0
TEXT
  5
CC
  8
SERVCLRDIM
  6
CONTINUOUS
 62
     1
 10
22.799898849000002
 20
131.20721984310001
 30
0.0
 40
2.0
  1
 
 41
0.8
 72
     1
 11
23.599898848999999
 21
131.20721984310001
 31
0.0
  0
TEXT
  5
CD
  8
SERVCLRDIM
  6
CONTINUOUS
 62
     1
 10
12.13323218233333
 20
128.20721984310001
 30
0.0
 40
2.0
  1
[
 41
0.8
 72
     1
 11
12.399898849
 21
128.20721984310001
 31
0.0
  0
TEXT
  5
CE
  8
SERVCLRDIM
  6
CONTINUOUS
 62
     1
 10
14.26656551566666
 20
128.20721984310001
 30
0.0
 40
2.0
  1
914.4
 41
0.8
 72
     1
 11
17.199898849
 21
128.20721984310001
 31
0.0
  0
TEXT
  5
CF
  8
SERVCLRDIM
  6
CONTINUOUS
 62
     1
 10
21.733232182333332
 20
128.20721984310001
 30
0.0
 40
2.0
  1
]
 41
0.8
 72
     1
 11
21.999898849000001
 21
128.20721984310001
 31
0.0
  0
LINE
  5
D0
  8
SERVCLRDIM
  6
CONTINUOUS
 62
     1
 10
0.0
 20
130.6197198431
 30
0.0
 11
0.0
 21
134.54809599559999
 31
0.0
  0
LINE
  5
D1
  8
SERVCLRDIM
  6
CONTINUOUS
 62
     1
 10
35.999797698000002
 20
142.54809599559999
 30
0.0
 11
35.999797698000002
 21
130.6197198431
 31
0.0
  0
LINE
  5
D2
  8
SERVCLRDIM
  6
CONTINUOUS
 62
     1
 10
0.0
 20
132.20721984310001
 30
0.0
 11
9.5998988490000006
 21
132.20721984310001
 31
0.0
  0
LINE
  5
D3
  8
SERVCLRDIM
  6
CONTINUOUS
 62
     1
 10
35.999797698000002
 20
132.20721984310001
 30
0.0
 11
26.399898849
 21
132.20721984310001
 31
0.0
  0
INSERT
  5
D4
  8
SERVCLRDIM
  6
CONTINUOUS
 62
     1
  2
_FILLED
 10
0.0
 20
132.20721984310001
 30
0.0
 41
4.0
 42
4.0
 43
4.0
 50
180.0
  0
INSERT
  5
D5
  8
SERVCLRDIM
  6
CONTINUOUS
 62
     1
  2
_FILLED
 10
35.999797698000002
 20
132.20721984310001
 30
0.0
 41
4.0
 42
4.0
 43
4.0
  0
ENDBLK
  5
D6
  8
0
  6
ByBlock
 62
     0
  0
BLOCK
  8
SERVCLRDIM
  6
CONTINUOUS
 62
     1
  2
*D6
 70
     1
 10
0.0
 20
0.0
 30
0.0
  3
*D6
  1

  0
TEXT
  5
D9
  8
SERVCLRDIM
  6
CONTINUOUS
 62
     1
 10
239.31646464996669
 20
131.20721984310001
 30
0.0
 40
2.0
  1
96
 41
0.8
 72
     1
 11
240.6497979833
 21
131.20721984310001
 31
0.0
  0
TEXT
  5
DA
  8
SERVCLRDIM
  6
CONTINUOUS
 62
     1
 10
249.84979798329999
 20
131.20721984310001
 30
0.0
 40
2.0
  1
18-96 DEPENDING ON OPTIONS, 
 41
0.8
 72
     1
 11
271.04979798329998
 21
131.20721984310001
 31
0.0
  0
TEXT
  5
DB
  8
SERVCLRDIM
  6
CONTINUOUS
 62
     1
 10
239.5831313166334
 20
128.20721984310001
 30
0.0
 40
2.0
  1
[
 41
0.8
 72
     1
 11
239.84979798329999
 21
128.20721984310001
 31
0.0
  0
TEXT
  5
DC
  8
SERVCLRDIM
  6
CONTINUOUS
 62
     1
 10
240.91646464996671
 20
128.20721984310001
 30
0.0
 40
2.0
  1
2438
 41
0.8
 72
     1
 11
243.84979798329999
 21
128.20721984310001
 31
0.0
  0
TEXT
  5
DD
  8
SERVCLRDIM
  6
CONTINUOUS
 62
     1
 10
247.5831313166334
 20
128.20721984310001
 30
0.0
 40
2.0
  1
]
 41
0.8
 72
     1
 11
247.84979798329999
 21
128.20721984310001
 31
0.0
  0
TEXT
  5
DE
  8
SERVCLRDIM
  6
CONTINUOUS
 62
     1
 10
244.38313131663341
 20
125.20721984310001
 30
0.0
 40
2.0
  1
SEE PRODUCT DATA FOR DETAILS
 41
0.8
 72
     1
 11
266.24979798330003
 21
125.20721984310001
 31
0.0
  0
LINE
  5
DF
  8
SERVCLRDIM
  6
CONTINUOUS
 62
     1
 10
314.24979798330003
 20
142.54809599559999
 30
0.0
 11
314.24979798330003
 21
130.6197198431
 31
0.0
  0
LINE
  5
E0
  8
SERVCLRDIM
  6
CONTINUOUS
 62
     1
 10
218.2497979833
 20
130.6197198431
 30
0.0
 11
218.2497979833
 21
134.54809599559999
 31
0.0
  0
LINE
  5
E1
  8
SERVCLRDIM
  6
CONTINUOUS
 62
     1
 10
314.24979798330003
 20
132.20721984310001
 30
0.0
 11
295.44979798330002
 21
132.20721984310001
 31
0.0
  0
LINE
  5
E2
  8
SERVCLRDIM
  6
CONTINUOUS
 62
     1
 10
218.2497979833
 20
132.20721984310001
 30
0.0
 11
237.04979798330001
 21
132.20721984310001
 31
0.0
  0
INSERT
  5
E3
  8
SERVCLRDIM
  6
CONTINUOUS
 62
     1
  2
_FILLED
 10
314.24979798330003
 20
132.20721984310001
 30
0.0
 41
4.0
 42
4.0
 43
4.0
  0
INSERT
  5
E4
  8
SERVCLRDIM
  6
CONTINUOUS
 62
     1
  2
_FILLED
 10
218.2497979833
 20
132.20721984310001
 30
0.0
 41
4.0
 42
4.0
 43
4.0
 50
180.0
  0
ENDBLK
  5
E5
  8
0
  6
ByBlock
 62
     0
  0
BLOCK
  8
CURB-14-DIM
  6
CONTINUOUS
 62
     6
  2
*D7
 70
     1
 10
0.0
 20
0.0
 30
0.0
  3
*D7
  1

  0
TEXT
  5
E8
  8
CURB-14-DIM
  6
CONTINUOUS
 62
     6
 10
104.5895110313333
 20
37.753838991899997
 30
0.0
 40
2.0
  1
152
 41
0.8
 72
     1
 11
106.456177698
 21
37.753838991899997
 31
0.0
  0
TEXT
  5
E9
  8
CURB-14-DIM
  6
CONTINUOUS
 62
     6
 10
111.3895110313333
 20
37.753838991899997
 30
0.0
 40
2.0
  1
[
 41
0.8
 72
     1
 11
111.65617769799999
 21
37.753838991899997
 31
0.0
  0
TEXT
  5
EA
  8
CURB-14-DIM
  6
CONTINUOUS
 62
     6
 10
113.256177698
 20
37.753838991899997
 30
0.0
 40
2.0
  1
3859.2
 41
0.8
 72
     1
 11
117.256177698
 21
37.753838991899997
 31
0.0
  0
TEXT
  5
EB
  8
CURB-14-DIM
  6
CONTINUOUS
 62
     6
 10
122.5895110313333
 20
37.753838991899997
 30
0.0
 40
2.0
  1
]
 41
0.8
 72
     1
 11
122.856177698
 21
37.753838991899997
 31
0.0
  0
TEXT
  5
EC
  8
CURB-14-DIM
  6
CONTINUOUS
 62
     6
 10
123.65617769799999
 20
37.753838991899997
 30
0.0
 40
2.0
  1
 
 41
0.8
 72
     1
 11
124.456177698
 21
37.753838991899997
 31
0.0
  0
LINE
  5
ED
  8
CURB-14-DIM
  6
CONTINUOUS
 62
     6
 10
38.687427698
 20
91.062936858200004
 30
0.0
 11
38.687427698
 21
37.166338991899998
 31
0.0
  0
LINE
  5
EE
  8
CURB-14-DIM
  6
CONTINUOUS
 62
     6
 10
190.62492769799999
 20
90.958740023299995
 30
0.0
 11
190.62492769799999
 21
58.698684490700003
 31
0.0
  0
LINE
  5
EF
  8
CURB-14-DIM
  6
CONTINUOUS
 62
     6
 10
190.62492769799999
 20
54.260068586800003
 30
0.0
 11
190.62492769799999
 21
48.553276710299997
 31
0.0
  0
LINE
  5
F0
  8
CURB-14-DIM
  6
CONTINUOUS
 62
     6
 10
190.62492769799999
 20
45.573063174799998
 30
0.0
 11
190.62492769799999
 21
37.166338991899998
 31
0.0
  0
LINE
  5
F1
  8
CURB-14-DIM
  6
CONTINUOUS
 62
     6
 10
38.687427698
 20
38.753838991899997
 30
0.0
 11
102.056177698
 21
38.753838991899997
 31
0.0
  0
LINE
  5
F2
  8
CURB-14-DIM
  6
CONTINUOUS
 62
     6
 10
190.62492769799999
 20
38.753838991899997
 30
0.0
 11
127.256177698
 21
38.753838991899997
 31
0.0
  0
INSERT
  5
F3
  8
CURB-14-DIM
  6
CONTINUOUS
 62
     6
  2
_FILLED
 10
38.687427698
 20
38.753838991899997
 30
0.0
 41
4.0
 42
4.0
 43
4.0
 50
180.0
  0
INSERT
  5
F4
  8
CURB-14-DIM
  6
CONTINUOUS
 62
     6
  2
_FILLED
 10
190.62492769799999
 20
38.753838991899997
 30
0.0
 41
4.0
 42
4.0
 43
4.0
  0
ENDBLK
  5
F5
  8
0
  6
ByBlock
 62
     0
  0
BLOCK
  8
CURB-14-DIM
  6
CONTINUOUS
 62
     6
  2
*D8
 70
     1
 10
0.0
 20
0.0
 30
0.0
  3
*D8
  1

  0
TEXT
  5
F8
  8
CURB-14-DIM
  6
CONTINUOUS
 62
     6
 10
17.547229311533329
 20
85.796240023300001
 30
0.0
 40
2.0
  1
14
 41
0.8
 72
     1
 11
18.613895978199999
 21
85.796240023300001
 31
0.0
  0
TEXT
  5
F9
  8
CURB-14-DIM
  6
CONTINUOUS
 62
     6
 10
28.2138959782
 20
85.796240023300001
 30
0.0
 40
2.0
  1
 
 41
0.8
 72
     1
 11
29.013895978200001
 21
85.796240023300001
 31
0.0
  0
TEXT
  5
FA
  8
CURB-14-DIM
  6
CONTINUOUS
 62
     6
 10
17.547229311533329
 20
82.796240023300015
 30
0.0
 40
2.0
  1
[
 41
0.8
 72
     1
 11
17.813895978200001
 21
82.796240023300015
 31
0.0
  0
TEXT
  5
FB
  8
CURB-14-DIM
  6
CONTINUOUS
 62
     6
 10
19.413895978199999
 20
82.796240023300015
 30
0.0
 40
2.0
  1
355.6
 41
0.8
 72
     1
 11
22.613895978199999
 21
82.796240023300015
 31
0.0
  0
TEXT
  5
FC
  8
CURB-14-DIM
  6
CONTINUOUS
 62
     6
 10
27.147229311533341
 20
82.796240023300015
 30
0.0
 40
2.0
  1
]
 41
0.8
 72
     1
 11
27.413895978199999
 21
82.796240023300015
 31
0.0
  0
LINE
  5
FD
  8
CURB-14-DIM
  6
CONTINUOUS
 62
     6
 10
35.127927698000001
 20
79.796240023300001
 30
0.0
 11
21.826395978200001
 21
79.796240023300001
 31
0.0
  0
LINE
  5
FE
  8
CURB-14-DIM
  6
CONTINUOUS
 62
     6
 10
36.693148215400001
 20
93.796240023300001
 30
0.0
 11
21.826395978200001
 21
93.796240023300001
 31
0.0
  0
LINE
  5
FF
  8
CURB-14-DIM
  6
CONTINUOUS
 62
     6
 10
23.41389597820001
 20
79.796240023300001
 30
0.0
 11
23.41389597820001
 21
67.096240023299998
 31
0.0
  0
LINE
  5
100
  8
CURB-14-DIM
  6
CONTINUOUS
 62
     6
 10
23.41389597820001
 20
93.796240023300001
 30
0.0
 11
23.41389597820001
 21
106.4962400233
 31
0.0
  0
INSERT
  5
101
  8
CURB-14-DIM
  6
CONTINUOUS
 62
     6
  2
_FILLED
 10
23.41389597820001
 20
79.796240023300001
 30
0.0
 41
4.0
 42
4.0
 43
4.0
 50
90.0
  0
INSERT
  5
102
  8
CURB-14-DIM
  6
CONTINUOUS
 62
     6
  2
_FILLED
 10
23.41389597820001
 20
93.796240023300001
 30
0.0
 41
4.0
 42
4.0
 43
4.0
 50
270.0
  0
ENDBLK
  5
103
  8
0
  6
ByBlock
 62
     0
  0
BLOCK
  8
UNIT-DIM
  6
CONTINUOUS
 62
     7
  2
*D9
 70
     1
 10
0.0
 20
0.0
 30
0.0
  3
*D9
  1

  0
TEXT
  5
106
  8
UNIT-DIM
  6
CONTINUOUS
 62
     7
 10
169.1331313166333
 20
55.254178827399997
 30
0.0
 40
2.0
  1
37-1/2
 41
0.8
 72
     1
 11
173.3997979833
 21
55.254178827399997
 31
0.0
  0
TEXT
  5
107
  8
UNIT-DIM
  6
CONTINUOUS
 62
     7
 10
179.79979798330001
 20
55.254178827399997
 30
0.0
 40
2.0
  1
 
 41
0.8
 72
     1
 11
180.59979798329999
 21
55.254178827399997
 31
0.0
  0
TEXT
  5
108
  8
UNIT-DIM
  6
CONTINUOUS
 62
     7
 10
169.1331313166333
 20
52.254178827399997
 30
0.0
 40
2.0
  1
[
 41
0.8
 72
     1
 11
169.3997979833
 21
52.254178827399997
 31
0.0
  0
TEXT
  5
109
  8
UNIT-DIM
  6
CONTINUOUS
 62
     7
 10
170.9997979833
 20
52.254178827399997
 30
0.0
 40
2.0
  1
952.5
 41
0.8
 72
     1
 11
174.19979798329999
 21
52.254178827399997
 31
0.0
  0
TEXT
  5
10A
  8
UNIT-DIM
  6
CONTINUOUS
 62
     7
 10
178.73313131663329
 20
52.254178827399997
 30
0.0
 40
2.0
  1
]
 41
0.8
 72
     1
 11
178.9997979833
 21
52.254178827399997
 31
0.0
  0
LINE
  5
10B
  8
UNIT-DIM
  6
CONTINUOUS
 62
     7
 10
193.7497979833
 20
89.176057452600006
 30
0.0
 11
193.7497979833
 21
54.666678827399998
 31
0.0
  0
LINE
  5
10C
  8
UNIT-DIM
  6
CONTINUOUS
 62
     7
 10
156.2497979833
 20
94.458740023299995
 30
0.0
 11
156.2497979833
 21
54.666678827399998
 31
0.0
  0
LINE
  5
10D
  8
UNIT-DIM
  6
CONTINUOUS
 62
     7
 10
193.7497979833
 20
56.25417882739999
 30
0.0
 11
183.3997979833
 21
56.25417882739999
 31
0.0
  0
LINE
  5
10E
  8
UNIT-DIM
  6
CONTINUOUS
 62
     7
 10
156.2497979833
 20
56.25417882739999
 30
0.0
 11
166.59979798329999
 21
56.25417882739999
 31
0.0
  0
INSERT
  5
10F
  8
UNIT-DIM
  6
CONTINUOUS
 62
     7
  2
_FILLED
 10
193.7497979833
 20
56.25417882739999
 30
0.0
 41
4.0
 42
4.0
 43
4.0
  0
INSERT
  5
110
  8
UNIT-DIM
  6
CONTINUOUS
 62
     7
  2
_FILLED
 10
156.2497979833
 20
56.25417882739999
 30
0.0
 41
4.0
 42
4.0
 43
4.0
 50
180.0
  0
ENDBLK
  5
111
  8
0
  6
ByBlock
 62
     0
  0
BLOCK
  8
UNIT-DIM
  6
CONTINUOUS
 62
     7
  2
*D10
 70
     1
 10
0.0
 20
0.0
 30
0.0
  3
*D10
  1

  0
TEXT
  5
114
  8
UNIT-DIM
  6
CONTINUOUS
 62
     7
 10
127.7787792019666
 20
62.056753636300002
 30
0.0
 40
2.0
  1
5-1/4
 41
0.8
 72
     2
 11
134.71211253530001
 21
62.056753636300002
 31
0.0
  0
TEXT
  5
115
  8
UNIT-DIM
  6
CONTINUOUS
 62
     7
 10
137.9121125353
 20
62.056753636300002
 30
0.0
 40
2.0
  1
 
 41
0.8
 72
     2
 11
139.51211253529999
 21
62.056753636300002
 31
0.0
  0
TEXT
  5
116
  8
UNIT-DIM
  6
CONTINUOUS
 62
     7
 10
127.7787792019666
 20
59.056753636300002
 30
0.0
 40
2.0
  1
[
 41
0.8
 72
     2
 11
128.3121125353
 21
59.056753636300002
 31
0.0
  0
TEXT
  5
117
  8
UNIT-DIM
  6
CONTINUOUS
 62
     7
 10
130.4454458686333
 20
59.056753636300002
 30
0.0
 40
2.0
  1
133.4
 41
0.8
 72
     2
 11
136.3121125353
 21
59.056753636300002
 31
0.0
  0
TEXT
  5
118
  8
UNIT-DIM
  6
CONTINUOUS
 62
     7
 10
137.37877920196661
 20
59.056753636300002
 30
0.0
 40
2.0
  1
]
 41
0.8
 72
     2
 11
137.9121125353
 21
59.056753636300002
 31
0.0
  0
LINE
  5
119
  8
UNIT-DIM
  6
CONTINUOUS
 62
     7
 10
150.66823310769999
 20
90.796240023300001
 30
0.0
 11
146.90657295080001
 21
90.796240023300001
 31
0.0
  0
LINE
  5
11A
  8
UNIT-DIM
  6
CONTINUOUS
 62
     7
 10
153.78479776539999
 20
96.046240023300001
 30
0.0
 11
147.49323310770001
 21
96.046240023300001
 31
0.0
  0
LINE
  5
11B
  8
UNIT-DIM
  6
CONTINUOUS
 62
     7
 10
149.08073310770001
 20
90.796240023300001
 30
0.0
 11
149.08073310770001
 21
63.056753636300002
 31
0.0
  0
LINE
  5
11C
  8
UNIT-DIM
  6
CONTINUOUS
 62
     7
 10
149.08073310770001
 20
63.056753636300002
 30
0.0
 11
141.51211253529999
 21
63.056753636300002
 31
0.0
  0
LINE
  5
11D
  8
UNIT-DIM
  6
CONTINUOUS
 62
     7
 10
149.08073310770001
 20
96.046240023300001
 30
0.0
 11
149.08073310770001
 21
108.7462400233
 31
0.0
  0
INSERT
  5
11E
  8
UNIT-DIM
  6
CONTINUOUS
 62
     7
  2
_FILLED
 10
149.08073310770001
 20
90.796240023300001
 30
0.0
 41
4.0
 42
4.0
 43
4.0
 50
90.0
  0
INSERT
  5
11F
  8
UNIT-DIM
  6
CONTINUOUS
 62
     7
  2
_FILLED
 10
149.08073310770001
 20
96.046240023300001
 30
0.0
 41
4.0
 42
4.0
 43
4.0
 50
270.0
  0
ENDBLK
  5
120
  8
0
  6
ByBlock
 62
     0
  0
BLOCK
  8
UNTDUCTDIM
  6
CONTINUOUS
 62
     2
  2
*D11
 70
     1
 10
0.0
 20
0.0
 30
0.0
  3
*D11
  1

  0
TEXT
  5
123
  8
UNTDUCTDIM
  6
CONTINUOUS
 62
     2
 10
90.318731543833309
 20
103.3587400233
 30
0.0
 40
2.0
  1
15-7/8
 41
0.8
 72
     1
 11
94.585398210499989
 21
103.3587400233
 31
0.0
  0
TEXT
  5
124
  8
UNTDUCTDIM
  6
CONTINUOUS
 62
     2
 10
100.98539821049999
 20
103.3587400233
 30
0.0
 40
2.0
  1
 
 41
0.8
 72
     1
 11
101.78539821050001
 21
103.3587400233
 31
0.0
  0
TEXT
  5
125
  8
UNTDUCTDIM
  6
CONTINUOUS
 62
     2
 10
90.318731543833309
 20
100.3587400233
 30
0.0
 40
2.0
  1
[
 41
0.8
 72
     1
 11
90.585398210499989
 21
100.3587400233
 31
0.0
  0
TEXT
  5
126
  8
UNTDUCTDIM
  6
CONTINUOUS
 62
     2
 10
92.318731543833323
 20
100.3587400233
 30
0.0
 40
2.0
  1
403.2
 41
0.8
 72
     1
 11
95.385398210499986
 21
100.3587400233
 31
0.0
  0
TEXT
  5
127
  8
UNTDUCTDIM
  6
CONTINUOUS
 62
     2
 10
99.918731543833346
 20
100.3587400233
 30
0.0
 40
2.0
  1
]
 41
0.8
 72
     1
 11
100.1853982105
 21
100.3587400233
 31
0.0
  0
LINE
  5
128
  8
UNTDUCTDIM
  6
CONTINUOUS
 62
     2
 10
111.66229798329999
 20
112.2962400233
 30
0.0
 11
94.597898210500006
 21
112.2962400233
 31
0.0
  0
LINE
  5
129
  8
UNTDUCTDIM
  6
CONTINUOUS
 62
     2
 10
111.66229798329999
 20
96.421240023300001
 30
0.0
 11
94.597898210500006
 21
96.421240023300001
 31
0.0
  0
LINE
  5
12A
  8
UNTDUCTDIM
  6
CONTINUOUS
 62
     2
 10
96.185398210499983
 20
112.2962400233
 30
0.0
 11
96.185398210499983
 21
124.9962400233
 31
0.0
  0
LINE
  5
12B
  8
UNTDUCTDIM
  6
CONTINUOUS
 62
     2
 10
96.185398210499983
 20
96.421240023300001
 30
0.0
 11
96.185398210499983
 21
83.721240023299998
 31
0.0
  0
INSERT
  5
12C
  8
UNTDUCTDIM
  6
CONTINUOUS
 62
     2
  2
_FILLED
 10
96.185398210499983
 20
112.2962400233
 30
0.0
 41
4.0
 42
4.0
 43
4.0
 50
270.0
  0
INSERT
  5
12D
  8
UNTDUCTDIM
  6
CONTINUOUS
 62
     2
  2
_FILLED
 10
96.185398210499983
 20
96.421240023300001
 30
0.0
 41
4.0
 42
4.0
 43
4.0
 50
90.0
  0
ENDBLK
  5
12E
  8
0
  6
ByBlock
 62
     0
  0
BLOCK
  8
UNTDUCTDIM
  6
CONTINUOUS
 62
     2
  2
*D12
 70
     1
 10
0.0
 20
0.0
 30
0.0
  3
*D12
  1

  0
TEXT
  5
131
  8
UNTDUCTDIM
  6
CONTINUOUS
 62
     2
 10
167.8687103135666
 20
111.96950629689999
 30
0.0
 40
2.0
  1
49-3/8
 41
0.8
 72
     1
 11
172.40204364690001
 21
111.96950629689999
 31
0.0
  0
TEXT
  5
132
  8
UNTDUCTDIM
  6
CONTINUOUS
 62
     2
 10
180.40204364690001
 20
111.96950629689999
 30
0.0
 40
2.0
  1
 
 41
0.8
 72
     1
 11
181.20204364689999
 21
111.96950629689999
 31
0.0
  0
TEXT
  5
133
  8
UNTDUCTDIM
  6
CONTINUOUS
 62
     2
 10
168.1353769802333
 20
108.96950629689999
 30
0.0
 40
2.0
  1
[
 41
0.8
 72
     1
 11
168.40204364690001
 21
108.96950629689999
 31
0.0
  0
TEXT
  5
134
  8
UNTDUCTDIM
  6
CONTINUOUS
 62
     2
 10
170.53537698023331
 20
108.96950629689999
 30
0.0
 40
2.0
  1
1254.1
 41
0.8
 72
     1
 11
174.00204364689989
 21
108.96950629689999
 31
0.0
  0
TEXT
  5
135
  8
UNTDUCTDIM
  6
CONTINUOUS
 62
     2
 10
179.33537698023329
 20
108.96950629689999
 30
0.0
 40
2.0
  1
]
 41
0.8
 72
     1
 11
179.6020436469
 21
108.96950629689999
 31
0.0
  0
LINE
  5
136
  8
UNTDUCTDIM
  6
CONTINUOUS
 62
     2
 10
174.1893528009
 20
96.421240023300001
 30
0.0
 11
176.38954364689999
 21
96.421240023300001
 31
0.0
  0
LINE
  5
137
  8
UNTDUCTDIM
  6
CONTINUOUS
 62
     2
 10
173.21454364690001
 20
145.79624002329999
 30
0.0
 11
175.87132679039999
 21
145.79624002329999
 31
0.0
  0
LINE
  5
138
  8
UNTDUCTDIM
  6
CONTINUOUS
 62
     2
 10
174.80204364689999
 20
96.421240023300001
 30
0.0
 11
174.80204364689999
 21
106.96950629689999
 31
0.0
  0
LINE
  5
139
  8
UNTDUCTDIM
  6
CONTINUOUS
 62
     2
 10
174.80204364689999
 20
145.79624002329999
 30
0.0
 11
174.80204364689999
 21
115.96950629689999
 31
0.0
  0
INSERT
  5
13A
  8
UNTDUCTDIM
  6
CONTINUOUS
 62
     2
  2
_FILLED
 10
174.80204364689999
 20
96.421240023300001
 30
0.0
 41
4.0
 42
4.0
 43
4.0
 50
270.0
  0
INSERT
  5
13B
  8
UNTDUCTDIM
  6
CONTINUOUS
 62
     2
  2
_FILLED
 10
174.80204364689999
 20
145.79624002329999
 30
0.0
 41
4.0
 42
4.0
 43
4.0
 50
90.0
  0
ENDBLK
  5
13C
  8
0
  6
ByBlock
 62
     0
  0
BLOCK
  8
UNTDUCTDIM
  6
CONTINUOUS
 62
     2
  2
*D13
 70
     1
 10
0.0
 20
0.0
 30
0.0
  3
*D13
  1

  0
TEXT
  5
13F
  8
UNTDUCTDIM
  6
CONTINUOUS
 62
     2
 10
90.631113653133326
 20
62.865272651800012
 30
0.0
 40
2.0
  1
5-5/8
 41
0.8
 72
     2
 11
98.097780319799995
 21
62.865272651800012
 31
0.0
  0
TEXT
  5
140
  8
UNTDUCTDIM
  6
CONTINUOUS
 62
     2
 10
101.2977803198
 20
62.865272651800012
 30
0.0
 40
2.0
  1
 
 41
0.8
 72
     2
 11
102.89778031980001
 21
62.865272651800012
 31
0.0
  0
TEXT
  5
141
  8
UNTDUCTDIM
  6
CONTINUOUS
 62
     2
 10
91.164446986466643
 20
59.865272651800012
 30
0.0
 40
2.0
  1
[
 41
0.8
 72
     2
 11
91.697780319799989
 21
59.865272651800012
 31
0.0
  0
TEXT
  5
142
  8
UNTDUCTDIM
  6
CONTINUOUS
 62
     2
 10
93.831113653133315
 20
59.865272651800012
 30
0.0
 40
2.0
  1
142.9
 41
0.8
 72
     2
 11
99.697780319799975
 21
59.865272651800012
 31
0.0
  0
TEXT
  5
143
  8
UNTDUCTDIM
  6
CONTINUOUS
 62
     2
 10
100.7644469864666
 20
59.865272651800012
 30
0.0
 40
2.0
  1
]
 41
0.8
 72
     2
 11
101.2977803198
 21
59.865272651800012
 31
0.0
  0
LINE
  5
144
  8
UNTDUCTDIM
  6
CONTINUOUS
 62
     2
 10
111.66229798329999
 20
96.421240023300001
 30
0.0
 11
106.4411886707
 21
96.421240023300001
 31
0.0
  0
LINE
  5
145
  8
UNTDUCTDIM
  6
CONTINUOUS
 62
     2
 10
108.02868867070001
 20
96.421240023300001
 30
0.0
 11
108.02868867070001
 21
109.1212400233
 31
0.0
  0
LINE
  5
146
  8
UNTDUCTDIM
  6
CONTINUOUS
 62
     2
 10
108.02868867070001
 20
90.796240023300001
 30
0.0
 11
108.02868867070001
 21
63.865272651799998
 31
0.0
  0
LINE
  5
147
  8
UNTDUCTDIM
  6
CONTINUOUS
 62
     2
 10
108.02868867070001
 20
63.865272651799998
 30
0.0
 11
104.89778031980001
 21
63.865272651799998
 31
0.0
  0
INSERT
  5
148
  8
UNTDUCTDIM
  6
CONTINUOUS
 62
     2
  2
_FILLED
 10
108.02868867070001
 20
96.421240023300001
 30
0.0
 41
4.0
 42
4.0
 43
4.0
 50
270.0
  0
INSERT
  5
149
  8
UNTDUCTDIM
  6
CONTINUOUS
 62
     2
  2
_FILLED
 10
108.02868867070001
 20
90.796240023300001
 30
0.0
 41
4.0
 42
4.0
 43
4.0
 50
90.0
  0
ENDBLK
  5
14A
  8
0
  6
ByBlock
 62
     0
  0
BLOCK
  8
UNTDUCTDIM
  6
CONTINUOUS
 62
     2
  2
*D14
 70
     1
 10
0.0
 20
0.0
 30
0.0
  3
*D14
  1

  0
TEXT
  5
14D
  8
UNTDUCTDIM
  6
CONTINUOUS
 62
     2
 10
202.6385096455667
 20
72.025311332100003
 30
0.0
 40
2.0
  1
5-5/8
 41
0.8
 72
     1
 11
206.37184297889999
 21
72.025311332100003
 31
0.0
  0
TEXT
  5
14E
  8
UNTDUCTDIM
  6
CONTINUOUS
 62
     2
 10
213.57184297890001
 20
72.025311332100003
 30
0.0
 40
2.0
  1
 
 41
0.8
 72
     1
 11
214.37184297889999
 21
72.025311332100003
 31
0.0
  0
TEXT
  5
14F
  8
UNTDUCTDIM
  6
CONTINUOUS
 62
     2
 10
202.90517631223329
 20
69.025311332100003
 30
0.0
 40
2.0
  1
[
 41
0.8
 72
     1
 11
203.1718429789
 21
69.025311332100003
 31
0.0
  0
TEXT
  5
150
  8
UNTDUCTDIM
  6
CONTINUOUS
 62
     2
 10
205.03850964556659
 20
69.025311332100003
 30
0.0
 40
2.0
  1
142.9
 41
0.8
 72
     1
 11
207.97184297890001
 21
69.025311332100003
 31
0.0
  0
TEXT
  5
151
  8
UNTDUCTDIM
  6
CONTINUOUS
 62
     2
 10
212.50517631223329
 20
69.025311332100003
 30
0.0
 40
2.0
  1
]
 41
0.8
 72
     1
 11
212.7718429789
 21
69.025311332100003
 31
0.0
  0
LINE
  5
152
  8
UNTDUCTDIM
  6
CONTINUOUS
 62
     2
 10
191.31415908939999
 20
96.421240023300001
 30
0.0
 11
210.3593429789
 21
96.421240023300001
 31
0.0
  0
LINE
  5
153
  8
UNTDUCTDIM
  6
CONTINUOUS
 62
     2
 10
195.86065992299999
 20
90.796240023300001
 30
0.0
 11
210.3593429789
 21
90.796240023300001
 31
0.0
  0
LINE
  5
154
  8
UNTDUCTDIM
  6
CONTINUOUS
 62
     2
 10
208.7718429789
 20
96.421240023300001
 30
0.0
 11
208.7718429789
 21
109.1212400233
 31
0.0
  0
LINE
  5
155
  8
UNTDUCTDIM
  6
CONTINUOUS
 62
     2
 10
208.7718429789
 20
90.796240023300001
 30
0.0
 11
208.7718429789
 21
76.025311332100003
 31
0.0
  0
INSERT
  5
156
  8
UNTDUCTDIM
  6
CONTINUOUS
 62
     2
  2
_FILLED
 10
208.7718429789
 20
96.421240023300001
 30
0.0
 41
4.0
 42
4.0
 43
4.0
 50
270.0
  0
INSERT
  5
157
  8
UNTDUCTDIM
  6
CONTINUOUS
 62
     2
  2
_FILLED
 10
208.7718429789
 20
90.796240023300001
 30
0.0
 41
4.0
 42
4.0
 43
4.0
 50
90.0
  0
ENDBLK
  5
158
  8
0
  6
ByBlock
 62
     0
  0
BLOCK
  8
UNTDUCTDIM
  6
CONTINUOUS
 62
     2
  2
*D15
 70
     1
 10
0.0
 20
0.0
 30
0.0
  3
*D15
  1

  0
TEXT
  5
15B
  8
UNTDUCTDIM
  6
CONTINUOUS
 62
     2
 10
121.9914646499667
 20
45.875172096199989
 30
0.0
 40
2.0
  1
29-3/4
 41
0.8
 72
     1
 11
126.5247979833
 21
45.875172096199989
 31
0.0
  0
TEXT
  5
15C
  8
UNTDUCTDIM
  6
CONTINUOUS
 62
     2
 10
132.92479798330001
 20
45.875172096199989
 30
0.0
 40
2.0
  1
 
 41
0.8
 72
     1
 11
133.72479798329999
 21
45.875172096199989
 31
0.0
  0
TEXT
  5
15D
  8
UNTDUCTDIM
  6
CONTINUOUS
 62
     2
 10
122.2581313166333
 20
42.875172096199989
 30
0.0
 40
2.0
  1
[
 41
0.8
 72
     1
 11
122.5247979833
 21
42.875172096199989
 31
0.0
  0
TEXT
  5
15E
  8
UNTDUCTDIM
  6
CONTINUOUS
 62
     2
 10
124.1247979833
 20
42.875172096199989
 30
0.0
 40
2.0
  1
755.7
 41
0.8
 72
     1
 11
127.3247979833
 21
42.875172096199989
 31
0.0
  0
TEXT
  5
15F
  8
UNTDUCTDIM
  6
CONTINUOUS
 62
     2
 10
131.85813131663329
 20
42.875172096199989
 30
0.0
 40
2.0
  1
]
 41
0.8
 72
     1
 11
132.1247979833
 21
42.875172096199989
 31
0.0
  0
LINE
  5
160
  8
UNTDUCTDIM
  6
CONTINUOUS
 62
     2
 10
142.9997979833
 20
59.858337515699994
 30
0.0
 11
142.9997979833
 21
45.287672096199991
 31
0.0
  0
LINE
  5
161
  8
UNTDUCTDIM
  6
CONTINUOUS
 62
     2
 10
113.2497979833
 20
94.833740023299995
 30
0.0
 11
113.2497979833
 21
45.287672096199991
 31
0.0
  0
LINE
  5
162
  8
UNTDUCTDIM
  6
CONTINUOUS
 62
     2
 10
142.9997979833
 20
46.875172096199996
 30
0.0
 11
136.5247979833
 21
46.875172096199996
 31
0.0
  0
LINE
  5
163
  8
UNTDUCTDIM
  6
CONTINUOUS
 62
     2
 10
113.2497979833
 20
46.875172096199996
 30
0.0
 11
119.72479798329999
 21
46.875172096199996
 31
0.0
  0
INSERT
  5
164
  8
UNTDUCTDIM
  6
CONTINUOUS
 62
     2
  2
_FILLED
 10
142.9997979833
 20
46.875172096199996
 30
0.0
 41
4.0
 42
4.0
 43
4.0
  0
INSERT
  5
165
  8
UNTDUCTDIM
  6
CONTINUOUS
 62
     2
  2
_FILLED
 10
113.2497979833
 20
46.875172096199996
 30
0.0
 41
4.0
 42
4.0
 43
4.0
 50
180.0
  0
ENDBLK
  5
166
  8
0
  6
ByBlock
 62
     0
  0
BLOCK
  8
UNTDUCTDIM
  6
CONTINUOUS
 62
     2
  2
*D16
 70
     1
 10
0.0
 20
0.0
 30
0.0
  3
*D16
  1

  0
TEXT
  5
169
  8
UNTDUCTDIM
  6
CONTINUOUS
 62
     2
 10
148.30358843443329
 20
153.51631075220001
 30
0.0
 40
2.0
  1
23-3/8
 41
0.8
 72
     2
 11
157.37025510110001
 21
153.51631075220001
 31
0.0
  0
TEXT
  5
16A
  8
UNTDUCTDIM
  6
CONTINUOUS
 62
     2
 10
158.97025510110001
 20
153.51631075220001
 30
0.0
 40
2.0
  1
 
 41
0.8
 72
     2
 11
160.5702551011
 21
153.51631075220001
 31
0.0
  0
TEXT
  5
16B
  8
UNTDUCTDIM
  6
CONTINUOUS
 62
     2
 10
148.83692176776671
 20
150.5163107521999
 30
0.0
 40
2.0
  1
[
 41
0.8
 72
     2
 11
149.37025510110001
 21
150.5163107521999
 31
0.0
  0
TEXT
  5
16C
  8
UNTDUCTDIM
  6
CONTINUOUS
 62
     2
 10
150.97025510110001
 20
150.5163107521999
 30
0.0
 40
2.0
  1
593.7
 41
0.8
 72
     2
 11
157.37025510110001
 21
150.5163107521999
 31
0.0
  0
TEXT
  5
16D
  8
UNTDUCTDIM
  6
CONTINUOUS
 62
     2
 10
158.43692176776659
 20
150.5163107521999
 30
0.0
 40
2.0
  1
]
 41
0.8
 72
     2
 11
158.97025510110001
 21
150.5163107521999
 31
0.0
  0
LINE
  5
16E
  8
UNTDUCTDIM
  6
CONTINUOUS
 62
     2
 10
167.1247979833
 20
147.38374002329999
 30
0.0
 11
167.1247979833
 21
156.10381075219999
 31
0.0
  0
LINE
  5
16F
  8
UNTDUCTDIM
  6
CONTINUOUS
 62
     2
 10
190.4997979833
 20
147.38374002329999
 30
0.0
 11
190.4997979833
 21
156.10381075219999
 31
0.0
  0
LINE
  5
170
  8
UNTDUCTDIM
  6
CONTINUOUS
 62
     2
 10
167.1247979833
 20
154.5163107521999
 30
0.0
 11
178.8122979833
 21
154.5163107521999
 31
0.0
  0
LINE
  5
171
  8
UNTDUCTDIM
  6
CONTINUOUS
 62
     2
 10
178.8122979833
 20
154.5163107521999
 30
0.0
 11
162.5702551011
 21
154.5163107521999
 31
0.0
  0
LINE
  5
172
  8
UNTDUCTDIM
  6
CONTINUOUS
 62
     2
 10
190.4997979833
 20
154.5163107521999
 30
0.0
 11
178.8122979833
 21
154.5163107521999
 31
0.0
  0
INSERT
  5
173
  8
UNTDUCTDIM
  6
CONTINUOUS
 62
     2
  2
_FILLED
 10
167.1247979833
 20
154.5163107521999
 30
0.0
 41
4.0
 42
4.0
 43
4.0
 50
180.0
  0
INSERT
  5
174
  8
UNTDUCTDIM
  6
CONTINUOUS
 62
     2
  2
_FILLED
 10
190.4997979833
 20
154.5163107521999
 30
0.0
 41
4.0
 42
4.0
 43
4.0
  0
ENDBLK
  5
175
  8
0
  6
ByBlock
 62
     0
  0
BLOCK
  8
UNTDUCTDIM
  6
CONTINUOUS
 62
     2
  2
*D17
 70
     1
 10
0.0
 20
0.0
 30
0.0
  3
*D17
  1

  0
TEXT
  5
178
  8
UNTDUCTDIM
  6
CONTINUOUS
 62
     2
 10
161.57479798329999
 20
45.875172096199989
 30
0.0
 40
2.0
  1
50-3/4
 41
0.8
 72
     1
 11
165.97479798329999
 21
45.875172096199989
 31
0.0
  0
TEXT
  5
179
  8
UNTDUCTDIM
  6
CONTINUOUS
 62
     2
 10
173.97479798329999
 20
45.875172096199989
 30
0.0
 40
2.0
  1
 
 41
0.8
 72
     1
 11
174.7747979833
 21
45.875172096199989
 31
0.0
  0
TEXT
  5
17A
  8
UNTDUCTDIM
  6
CONTINUOUS
 62
     2
 10
161.70813131663331
 20
42.875172096199989
 30
0.0
 40
2.0
  1
[
 41
0.8
 72
     1
 11
161.97479798329999
 21
42.875172096199989
 31
0.0
  0
TEXT
  5
17B
  8
UNTDUCTDIM
  6
CONTINUOUS
 62
     2
 10
164.10813131663329
 20
42.875172096199989
 30
0.0
 40
2.0
  1
1289.1
 41
0.8
 72
     1
 11
167.57479798329999
 21
42.875172096199989
 31
0.0
  0
TEXT
  5
17C
  8
UNTDUCTDIM
  6
CONTINUOUS
 62
     2
 10
172.9081313166333
 20
42.875172096199989
 30
0.0
 40
2.0
  1
]
 41
0.8
 72
     1
 11
173.17479798330001
 21
42.875172096199989
 31
0.0
  0
LINE
  5
17D
  8
UNTDUCTDIM
  6
CONTINUOUS
 62
     2
 10
142.9997979833
 20
94.833740023299995
 30
0.0
 11
142.9997979833
 21
64.499052089900005
 31
0.0
  0
LINE
  5
17E
  8
UNTDUCTDIM
  6
CONTINUOUS
 62
     2
 10
142.9997979833
 20
62.038721896600002
 30
0.0
 11
142.9997979833
 21
45.287672096199991
 31
0.0
  0
LINE
  5
17F
  8
UNTDUCTDIM
  6
CONTINUOUS
 62
     2
 10
193.7497979833
 20
89.208740023299995
 30
0.0
 11
193.7497979833
 21
45.287672096199991
 31
0.0
  0
LINE
  5
180
  8
UNTDUCTDIM
  6
CONTINUOUS
 62
     2
 10
142.9997979833
 20
46.875172096199996
 30
0.0
 11
159.17479798330001
 21
46.875172096199996
 31
0.0
  0
LINE
  5
181
  8
UNTDUCTDIM
  6
CONTINUOUS
 62
     2
 10
193.7497979833
 20
46.875172096199996
 30
0.0
 11
177.57479798329999
 21
46.875172096199996
 31
0.0
  0
INSERT
  5
182
  8
UNTDUCTDIM
  6
CONTINUOUS
 62
     2
  2
_FILLED
 10
142.9997979833
 20
46.875172096199996
 30
0.0
 41
4.0
 42
4.0
 43
4.0
 50
180.0
  0
INSERT
  5
183
  8
UNTDUCTDIM
  6
CONTINUOUS
 62
     2
  2
_FILLED
 10
193.7497979833
 20
46.875172096199996
 30
0.0
 41
4.0
 42
4.0
 43
4.0
  0
ENDBLK
  5
184
  8
0
  6
ByBlock
 62
     0
  0
BLOCK
  8
UNTDUCTDIM
  6
CONTINUOUS
 62
     2
  2
*D18
 70
     1
 10
0.0
 20
0.0
 30
0.0
  3
*D18
  1

  0
TEXT
  5
187
  8
UNTDUCTDIM
  6
CONTINUOUS
 62
     2
 10
204.01074750879999
 20
62.096295096799999
 30
0.0
 40
2.0
  1
3-1/4
 41
0.8
  0
TEXT
  5
188
  8
UNTDUCTDIM
  6
CONTINUOUS
 62
     2
 10
213.61074750879999
 20
62.096295096799999
 30
0.0
 40
2.0
  1
 
 41
0.8
  0
TEXT
  5
189
  8
UNTDUCTDIM
  6
CONTINUOUS
 62
     2
 10
204.01074750879999
 20
59.096295096800013
 30
0.0
 40
2.0
  1
[
 41
0.8
  0
TEXT
  5
18A
  8
UNTDUCTDIM
  6
CONTINUOUS
 62
     2
 10
205.61074750879999
 20
59.096295096800013
 30
0.0
 40
2.0
  1
82.6
 41
0.8
  0
TEXT
  5
18B
  8
UNTDUCTDIM
  6
CONTINUOUS
 62
     2
 10
212.01074750879999
 20
59.096295096800013
 30
0.0
 40
2.0
  1
]
 41
0.8
  0
LINE
  5
18C
  8
UNTDUCTDIM
  6
CONTINUOUS
 62
     2
 10
190.4997979833
 20
94.833740023299995
 30
0.0
 11
190.4997979833
 21
61.5087950968
 31
0.0
  0
LINE
  5
18D
  8
UNTDUCTDIM
  6
CONTINUOUS
 62
     2
 10
193.7497979833
 20
89.208740023299995
 30
0.0
 11
193.7497979833
 21
61.5087950968
 31
0.0
  0
LINE
  5
18E
  8
UNTDUCTDIM
  6
CONTINUOUS
 62
     2
 10
190.4997979833
 20
63.096295096799999
 30
0.0
 11
177.79979798330001
 21
63.096295096799999
 31
0.0
  0
LINE
  5
18F
  8
UNTDUCTDIM
  6
CONTINUOUS
 62
     2
 10
193.7497979833
 20
63.096295096799999
 30
0.0
 11
202.01074750879999
 21
63.096295096799999
 31
0.0
  0
INSERT
  5
190
  8
UNTDUCTDIM
  6
CONTINUOUS
 62
     2
  2
_FILLED
 10
190.4997979833
 20
63.096295096799999
 30
0.0
 41
4.0
 42
4.0
 43
4.0
  0
INSERT
  5
191
  8
UNTDUCTDIM
  6
CONTINUOUS
 62
     2
  2
_FILLED
 10
193.7497979833
 20
63.096295096799999
 30
0.0
 41
4.0
 42
4.0
 43
4.0
 50
180.0
  0
ENDBLK
  5
192
  8
0
  6
ByBlock
 62
     0
  0
BLOCK
  8
UNIT-DIM
  6
CONTINUOUS
 62
     7
  2
*D19
 70
     1
 10
0.0
 20
0.0
 30
0.0
  3
*D19
  1

  0
TEXT
  5
195
  8
UNIT-DIM
  6
CONTINUOUS
 62
     7
 10
200.93313131663331
 20
160.57273805189999
 30
0.0
 40
2.0
  1
24-1/2
 41
0.8
 72
     1
 11
205.19979798329999
 21
160.57273805189999
 31
0.0
  0
TEXT
  5
196
  8
UNIT-DIM
  6
CONTINUOUS
 62
     7
 10
200.93313131663331
 20
157.57273805189999
 30
0.0
 40
2.0
  1
[
 41
0.8
 72
     1
 11
201.19979798329999
 21
157.57273805189999
 31
0.0
  0
TEXT
  5
197
  8
UNIT-DIM
  6
CONTINUOUS
 62
     7
 10
202.7997979833001
 20
157.57273805189999
 30
0.0
 40
2.0
  1
622.3
 41
0.8
 72
     1
 11
205.9997979833
 21
157.57273805189999
 31
0.0
  0
TEXT
  5
198
  8
UNIT-DIM
  6
CONTINUOUS
 62
     7
 10
210.5331313166333
 20
157.57273805189999
 30
0.0
 40
2.0
  1
]
 41
0.8
 72
     1
 11
210.79979798330001
 21
157.57273805189999
 31
0.0
  0
LINE
  5
199
  8
UNIT-DIM
  6
CONTINUOUS
 62
     7
 10
193.7497979833
 20
149.75865589150001
 30
0.0
 11
193.7497979833
 21
163.1602380519
 31
0.0
  0
LINE
  5
19A
  8
UNIT-DIM
  6
CONTINUOUS
 62
     7
 10
218.2497979833
 20
121.7212702786
 30
0.0
 11
218.2497979833
 21
163.1602380519
 31
0.0
  0
LINE
  5
19B
  8
UNIT-DIM
  6
CONTINUOUS
 62
     7
 10
193.7497979833
 20
161.57273805189999
 30
0.0
 11
198.3997979833
 21
161.57273805189999
 31
0.0
  0
LINE
  5
19C
  8
UNIT-DIM
  6
CONTINUOUS
 62
     7
 10
218.2497979833
 20
161.57273805189999
 30
0.0
 11
213.59979798329999
 21
161.57273805189999
 31
0.0
  0
INSERT
  5
19D
  8
UNIT-DIM
  6
CONTINUOUS
 62
     7
  2
_FILLED
 10
193.7497979833
 20
161.57273805189999
 30
0.0
 41
4.0
 42
4.0
 43
4.0
 50
180.0
  0
INSERT
  5
19E
  8
UNIT-DIM
  6
CONTINUOUS
 62
     7
  2
_FILLED
 10
218.2497979833
 20
161.57273805189999
 30
0.0
 41
4.0
 42
4.0
 43
4.0
  0
ENDBLK
  5
19F
  8
0
  6
ByBlock
 62
     0
  0
BLOCK
  8
SERVCLRDIM
  6
CONTINUOUS
 62
     1
  2
*D20
 70
     1
 10
0.0
 20
0.0
 30
0.0
  3
*D20
  1

  0
TEXT
  5
1A2
  8
SERVCLRDIM
  6
CONTINUOUS
 62
     1
 10
220.7779112366
 20
81.923487750600003
 30
0.0
 40
2.0
  1
OVERALL HEIGHT AND 
 41
0.8
  0
TEXT
  5
1A3
  8
SERVCLRDIM
  6
CONTINUOUS
 62
     1
 10
220.7779112366
 20
78.923487750600003
 30
0.0
 40
2.0
  1
CLEARANCE AREA WILL BE 
 41
0.8
  0
TEXT
  5
1A4
  8
SERVCLRDIM
  6
CONTINUOUS
 62
     1
 10
220.7779112366
 20
75.923487750600003
 30
0.0
 40
2.0
  1
DETERMINED BY ASSEMBLY OF 
 41
0.8
  0
TEXT
  5
1A5
  8
SERVCLRDIM
  6
CONTINUOUS
 62
     1
 10
220.7779112366
 20
72.923487750600003
 30
0.0
 40
2.0
  1
INSTALLER.  SEE CERTIFIED 
 41
0.8
  0
TEXT
  5
1A6
  8
SERVCLRDIM
  6
CONTINUOUS
 62
     1
 10
220.7779112366
 20
69.923487750600003
 30
0.0
 40
2.0
  1
DRAWING FOR FURTHER DETAIL.
 41
0.8
  0
LINE
  5
1A7
  8
SERVCLRDIM
  6
CONTINUOUS
 62
     1
 10
195.3372979833
 20
90.796240023300001
 30
0.0
 11
216.01541123659999
 21
90.796240023300001
 31
0.0
  0
LINE
  5
1A8
  8
SERVCLRDIM
  6
CONTINUOUS
 62
     1
 10
192.212427698
 20
93.796240023300001
 30
0.0
 11
216.01541123659999
 21
93.796240023300001
 31
0.0
  0
LINE
  5
1A9
  8
SERVCLRDIM
  6
CONTINUOUS
 62
     1
 10
214.42791123660001
 20
90.796240023300001
 30
0.0
 11
214.42791123660001
 21
82.923487750600003
 31
0.0
  0
LINE
  5
1AA
  8
SERVCLRDIM
  6
CONTINUOUS
 62
     1
 10
214.42791123660001
 20
82.923487750600003
 30
0.0
 11
218.7779112366
 21
82.923487750600003
 31
0.0
  0
LINE
  5
1AB
  8
SERVCLRDIM
  6
CONTINUOUS
 62
     1
 10
214.42791123660001
 20
93.796240023300001
 30
0.0
 11
214.42791123660001
 21
106.4962400233
 31
0.0
  0
INSERT
  5
1AC
  8
SERVCLRDIM
  6
CONTINUOUS
 62
     1
  2
_FILLED
 10
214.42791123660001
 20
90.796240023300001
 30
0.0
 41
4.0
 42
4.0
 43
4.0
 50
90.0
  0
INSERT
  5
1AD
  8
SERVCLRDIM
  6
CONTINUOUS
 62
     1
  2
_FILLED
 10
214.42791123660001
 20
93.796240023300001
 30
0.0
 41
4.0
 42
4.0
 43
4.0
 50
270.0
  0
ENDBLK
  5
1AE
  8
0
  6
ByBlock
 62
     0
  0
ENDSEC
  0
SECTION
  2
ENTITIES
  0
DIMENSION
  5
1AF
  8
CURB-24-DIM
  6
CONTINUOUS
 62
     6
  2
*D1
 10
190.62492769799999
 20
38.783444987300001
 30
0.0
 11
113.856177698
 21
38.783444987300001
 31
0.0
 70
   128
 13
38.687427698
 23
93.157906541499983
 33
0.0
 14
190.62492769799999
 24
44.055176281000001
 34
0.0
  0
DIMENSION
  5
1B0
  8
UNIT-DIM
  6
CONTINUOUS
 62
     7
  2
*D2
 10
193.7497979833
 20
161.57273805189999
 30
0.0
 11
114.0747978407
 21
160.07273805189999
 31
0.0
 70
   128
 13
35.999797698000002
 23
148.53757199500001
 33
0.0
 14
193.7497979833
 24
149.01770183209999
 34
0.0
  0
DIMENSION
  5
1B1
  8
UNIT-DIM
  6
CONTINUOUS
 62
     7
  2
*D3
 10
235.11732551520001
 20
148.17115589150001
 30
0.0
 11
234.3173255152
 21
117.9836979574
 31
0.0
 70
   128
 13
195.17304182289999
 23
90.796240023300001
 33
0.0
 14
194.5825013669
 24
148.17115589150001
 34
0.0
 50
90.0
  0
DIMENSION
  5
1B2
  8
CURB-24-DIM
  6
CONTINUOUS
 62
     6
  2
*D4
 10
10.989981030899999
 20
93.796240023300001
 30
0.0
 11
10.1899810309
 21
77.769009691099996
 31
0.0
 70
   128
 13
36.715427697999999
 23
69.797969269799992
 33
0.0
 14
38.687427698
 24
93.796240023300001
 34
0.0
 50
90.0
  0
DIMENSION
  5
1B3
  8
SERVCLRDIM
  6
CONTINUOUS
 62
     1
  2
*D5
 10
35.999797698000002
 20
132.20721984310001
 30
0.0
 11
17.199898849
 21
130.70721984310001
 31
0.0
 70
   128
 13
0.0
 23
136.1355959956
 33
0.0
 14
35.999797698000002
 24
144.1355959956
 34
0.0
  0
DIMENSION
  5
1B4
  8
SERVCLRDIM
  6
CONTINUOUS
 62
     1
  2
*D6
 10
218.2497979833
 20
132.20721984310001
 30
0.0
 11
266.24979798330003
 21
129.20721984310001
 31
0.0
 70
   128
 13
314.24979798330003
 23
144.1355959956
 33
0.0
 14
218.2497979833
 24
136.1355959956
 34
0.0
 50
180.0
  0
DIMENSION
  5
1B5
  8
CURB-14-DIM
  6
CONTINUOUS
 62
     6
  2
*D7
 10
190.62492769799999
 20
38.753838991899997
 30
0.0
 11
113.856177698
 21
38.753838991899997
 31
0.0
 70
   128
 13
38.687427698
 23
92.650436858199996
 33
0.0
 14
190.62492769799999
 24
92.546240023300001
 34
0.0
  0
DIMENSION
  5
1B6
  8
CURB-14-DIM
  6
CONTINUOUS
 62
     6
  2
*D8
 10
23.41389597820001
 20
93.796240023300001
 30
0.0
 11
22.613895978199999
 21
85.296240023300015
 31
0.0
 70
   128
 13
36.715427697999999
 23
79.796240023300001
 33
0.0
 14
38.280648215399999
 24
93.796240023300001
 34
0.0
 50
90.0
  0
DIMENSION
  5
1B7
  8
UNIT-DIM
  6
CONTINUOUS
 62
     7
  2
*D9
 10
156.2497979833
 20
56.25417882739999
 30
0.0
 11
174.19979798329999
 21
54.754178827399997
 31
0.0
 70
   128
 13
193.7497979833
 23
90.763557452599997
 33
0.0
 14
156.2497979833
 24
96.046240023300001
 34
0.0
 50
180.0
  0
DIMENSION
  5
1B8
  8
UNIT-DIM
  6
CONTINUOUS
 62
     7
  2
*D10
 10
149.08073310770001
 20
96.046240023300001
 30
0.0
 11
132.3121125353
 21
61.556753636300002
 31
0.0
 70
   128
 13
145.31907295080001
 23
90.796240023300001
 33
0.0
 14
155.37229776539999
 24
96.046240023300001
 34
0.0
 50
90.0
  0
DIMENSION
  5
1B9
  8
UNTDUCTDIM
  6
CONTINUOUS
 62
     2
  2
*D11
 10
96.185398210499983
 20
96.421240023300001
 30
0.0
 11
95.385398210499986
 21
102.8587400233
 31
0.0
 70
   128
 13
113.2497979833
 23
112.2962400233
 33
0.0
 14
113.2497979833
 24
96.421240023300001
 34
0.0
 50
270.0
  0
DIMENSION
  5
1BA
  8
UNTDUCTDIM
  6
CONTINUOUS
 62
     2
  2
*D12
 10
174.80204364689999
 20
145.79624002329999
 30
0.0
 11
174.00204364689989
 21
111.46950629689999
 31
0.0
 70
   128
 13
177.9770436469
 23
96.421240023300001
 33
0.0
 14
171.62704364690001
 24
145.79624002329999
 34
0.0
 50
90.0
  0
DIMENSION
  5
1BB
  8
UNTDUCTDIM
  6
CONTINUOUS
 62
     2
  2
*D13
 10
108.02868867070001
 20
90.796240023300001
 30
0.0
 11
95.697780319799975
 21
62.365272651800012
 31
0.0
 70
   128
 13
113.2497979833
 23
96.421240023300001
 33
0.0
 14
35.999797698000002
 24
90.796240023300001
 34
0.0
 50
270.0
  0
DIMENSION
  5
1BC
  8
UNTDUCTDIM
  6
CONTINUOUS
 62
     2
  2
*D14
 10
208.7718429789
 20
90.796240023300001
 30
0.0
 11
207.97184297890001
 21
71.525311332100003
 31
0.0
 70
   128
 13
189.72665908939999
 23
96.421240023300001
 33
0.0
 14
194.27315992300001
 24
90.796240023300001
 34
0.0
 50
270.0
  0
DIMENSION
  5
1BD
  8
UNTDUCTDIM
  6
CONTINUOUS
 62
     2
  2
*D15
 10
113.2497979833
 20
46.875172096199996
 30
0.0
 11
127.3247979833
 21
45.375172096199989
 31
0.0
 70
   128
 13
142.9997979833
 23
61.445837515699992
 33
0.0
 14
113.2497979833
 24
96.421240023300001
 34
0.0
 50
180.0
  0
DIMENSION
  5
1BE
  8
UNTDUCTDIM
  6
CONTINUOUS
 62
     2
  2
*D16
 10
190.4997979833
 20
154.5163107521999
 30
0.0
 11
153.37025510110001
 21
153.01631075220001
 31
0.0
 70
   128
 13
167.1247979833
 23
145.79624002329999
 33
0.0
 14
190.4997979833
 24
145.79624002329999
 34
0.0
  0
DIMENSION
  5
1BF
  8
UNTDUCTDIM
  6
CONTINUOUS
 62
     2
  2
*D17
 10
193.7497979833
 20
46.875172096199996
 30
0.0
 11
167.57479798329999
 21
45.375172096199989
 31
0.0
 70
   128
 13
142.9997979833
 23
96.421240023300001
 33
0.0
 14
193.7497979833
 24
90.796240023300001
 34
0.0
  0
DIMENSION
  5
1C0
  8
UNTDUCTDIM
  6
CONTINUOUS
 62
     2
  2
*D18
 10
193.7497979833
 20
63.096295096799999
 30
0.0
 11
208.81074750880001
 21
61.596295096800013
 31
0.0
 70
   128
 13
190.4997979833
 23
96.421240023300001
 33
0.0
 14
193.7497979833
 24
90.796240023300001
 34
0.0
  0
DIMENSION
  5
1C1
  8
UNIT-DIM
  6
CONTINUOUS
 62
     7
  2
*D19
 10
218.2497979833
 20
161.57273805189999
 30
0.0
 11
205.9997979833
 21
160.07273805189999
 31
0.0
 70
   128
 13
193.7497979833
 23
148.17115589150001
 33
0.0
 14
218.2497979833
 24
120.1337702786
 34
0.0
  0
DIMENSION
  5
1C2
  8
SERVCLRDIM
  6
CONTINUOUS
 62
     1
  2
*D20
 10
214.42791123660001
 20
93.796240023300001
 30
0.0
 11
242.3779112366
 21
76.923487750600003
 31
0.0
 70
   128
 13
193.7497979833
 23
90.796240023300001
 33
0.0
 14
190.62492769799999
 24
93.796240023300001
 34
0.0
 50
90.0
  0
LINE
  5
1C3
  8
NOTES
  6
CONTINUOUS
 62
     1
 10
0.0
 20
0.0
 30
0.0
 11
48.0
 21
0.0
 31
0.0
  0
LINE
  5
1C4
  8
NOTES
  6
CONTINUOUS
 62
     1
 10
0.0
 20
0.0
 30
0.0
 11
0.0
 21
36.5
 31
0.0
  0
LINE
  5
1C5
  8
NOTES
  6
CONTINUOUS
 62
     1
 10
0.0
 20
4.0
 30
0.0
 11
48.0
 21
4.0
 31
0.0
  0
LINE
  5
1C6
  8
NOTES
  6
CONTINUOUS
 62
     1
 10
0.0
 20
4.5
 30
0.0
 11
48.0
 21
4.5
 31
0.0
  0
LINE
  5
1C7
  8
NOTES
  6
CONTINUOUS
 62
     1
 10
0.0
 20
8.5
 30
0.0
 11
48.0
 21
8.5
 31
0.0
  0
LINE
  5
1C8
  8
NOTES
  6
CONTINUOUS
 62
     1
 10
0.0
 20
12.5
 30
0.0
 11
48.0
 21
12.5
 31
0.0
  0
LINE
  5
1C9
  8
NOTES
  6
CONTINUOUS
 62
     1
 10
0.0
 20
16.5
 30
0.0
 11
48.0
 21
16.5
 31
0.0
  0
LINE
  5
1CA
  8
NOTES
  6
CONTINUOUS
 62
     1
 10
0.0
 20
20.5
 30
0.0
 11
48.0
 21
20.5
 31
0.0
  0
LINE
  5
1CB
  8
NOTES
  6
CONTINUOUS
 62
     1
 10
0.0
 20
24.5
 30
0.0
 11
48.0
 21
24.5
 31
0.0
  0
LINE
  5
1CC
  8
NOTES
  6
CONTINUOUS
 62
     1
 10
0.0
 20
28.5
 30
0.0
 11
48.0
 21
28.5
 31
0.0
  0
LINE
  5
1CD
  8
NOTES
  6
CONTINUOUS
 62
     1
 10
0.0
 20
32.5
 30
0.0
 11
48.0
 21
32.5
 31
0.0
  0
LINE
  5
1CE
  8
NOTES
  6
CONTINUOUS
 62
     1
 10
0.0
 20
36.5
 30
0.0
 11
48.0
 21
36.5
 31
0.0
  0
LINE
  5
1CF
  8
NOTES
  6
CONTINUOUS
 62
     1
 10
16.0
 20
12.5
 30
0.0
 11
16.0
 21
36.5
 31
0.0
  0
LINE
  5
1D0
  8
NOTES
  6
CONTINUOUS
 62
     1
 10
48.0
 20
0.0
 30
0.0
 11
48.0
 21
36.5
 31
0.0
  0
TEXT
  5
1D1
  8
NOTES
  6
CONTINUOUS
 62
     1
 10
0.8
 20
1.0
 30
0.0
 40
2.0
  1
VIEW: BACK
 41
0.8
  0
TEXT
  5
1D2
  8
NOTES
  6
CONTINUOUS
 62
     1
 10
0.8
 20
5.5
 30
0.0
 40
2.0
  1
FILE NAME: 
 41
0.8
  0
TEXT
  5
1D3
  8
NOTES
  6
CONTINUOUS
 62
     1
 10
18.399999999999999
 20
5.5
 30
0.0
 40
2.0
  1
TMB90-B-
 41
0.8
  0
TEXT
  5
1D4
  8
NOTES
  6
CONTINUOUS
 62
     1
 10
17.066666666666659
 20
9.5
 30
0.0
 40
2.0
  1
LAYER KEY
 41
0.8
 72
     1
 11
24.0
 21
9.5
 31
0.0
  0
TEXT
  5
1D5
  8
NOTES
  6
CONTINUOUS
 62
     7
 10
2.6666666666666661
 20
13.5
 30
0.0
 40
2.0
  1
-
 41
8.0
  7
TEXTSTYLE_2
 72
     1
 11
8.0
 21
13.5
 31
0.0
  0
TEXT
  5
1D6
  8
NOTES
  6
CONTINUOUS
 62
     1
 10
16.800000000000001
 20
13.5
 30
0.0
 40
2.0
  1
UNIT
 41
0.8
  0
TEXT
  5
1D7
  8
NOTES
  6
CONTINUOUS
 62
     6
 10
2.6666666666666661
 20
17.5
 30
0.0
 40
2.0
  1
-
 41
8.0
  7
TEXTSTYLE_2
 72
     1
 11
8.0
 21
17.5
 31
0.0
  0
TEXT
  5
1D8
  8
NOTES
  6
CONTINUOUS
 62
     1
 10
16.800000000000001
 20
17.5
 30
0.0
 40
2.0
  1
ROOF CURB
 41
0.8
  0
TEXT
  5
1D9
  8
NOTES
  6
CONTINUOUS
 62
     1
 10
2.6666666666666661
 20
21.5
 30
0.0
 40
2.0
  1
-
 41
8.0
  7
TEXTSTYLE_2
 72
     1
 11
8.0
 21
21.5
 31
0.0
  0
TEXT
  5
1DA
  8
NOTES
  6
CONTINUOUS
 62
     1
 10
16.800000000000001
 20
21.5
 30
0.0
 40
2.0
  1
SERVICE CLEARANCE
 41
0.8
  0
TEXT
  5
1DB
  8
NOTES
  6
CONTINUOUS
 62
     2
 10
2.6666666666666661
 20
25.5
 30
0.0
 40
2.0
  1
-
 41
8.0
  7
TEXTSTYLE_2
 72
     1
 11
8.0
 21
25.5
 31
0.0
  0
TEXT
  5
1DC
  8
NOTES
  6
CONTINUOUS
 62
     1
 10
16.800000000000001
 20
25.5
 30
0.0
 40
2.0
  1
UNIT DUCTS
 41
0.8
  0
TEXT
  5
1DD
  8
NOTES
  6
CONTINUOUS
 62
     5
 10
2.6666666666666661
 20
29.5
 30
0.0
 40
2.0
  1
-
 41
8.0
  7
TEXTSTYLE_2
 72
     1
 11
8.0
 21
29.5
 31
0.0
  0
TEXT
  5
1DE
  8
NOTES
  6
CONTINUOUS
 62
     1
 10
16.800000000000001
 20
29.5
 30
0.0
 40
2.0
  1
CURB DUCTS
 41
0.8
  0
TEXT
  5
1DF
  8
NOTES
  6
HIDDEN
 62
     8
 10
2.6666666666666661
 20
33.5
 30
0.0
 40
2.0
  1
-
 41
8.0
  7
TEXTSTYLE_2
 72
     1
 11
8.0
 21
33.5
 31
0.0
  0
TEXT
  5
1E0
  8
NOTES
  6
CONTINUOUS
 62
     1
 10
16.800000000000001
 20
33.5
 30
0.0
 40
2.0
  1
UNIT HIDDEN
 41
0.8
  0
TEXT
  5
1E1
  8
NOTES
  6
CONTINUOUS
 62
     1
 10
79.322250870600001
 20
151.94211776200001
 30
0.0
 40
2.286
  1
3/4"-14 NPT CONDENSATE DRAIN
 41
0.8
  0
LINE
  5
1E2
  8
NOTES
  6
CONTINUOUS
 62
     1
 10
155.3823935792
 20
96.912258788399996
 30
0.0
 11
133.81212853209999
 21
153.08511776200001
 31
0.0
  0
LINE
  5
1E3
  8
NOTES
  6
CONTINUOUS
 62
     1
 10
133.81212853209999
 20
153.08511776200001
 30
0.0
 11
130.52865087059999
 21
153.08511776200001
 31
0.0
  0
SOLID
  5
1E4
  8
NOTES
  6
CONTINUOUS
 62
     1
 10
153.24833188049999
 20
100.3775554086
 30
0.0
 11
155.3823935792
 21
96.912258788399996
 31
0.0
 12
154.64863975259999
 22
100.9152708196
 32
0.0
 13
154.64863975259999
 23
100.9152708196
 33
0.0
  0
LINE
  5
1E5
  8
SERVCLEAR
  6
DASHED
 62
     1
 10
0.0
 20
148.04595209999999
 30
0.0
 11
0.0
 21
90.796240023300001
 31
0.0
  0
LINE
  5
1E6
  8
0
  6
CONTINUOUS
 62
     7
 10
0.0
 20
0.0
 30
0.0
 11
0.0
 21
175.0
 31
0.0
  0
LINE
  5
1E7
  8
UNIT-SOL
  6
CONTINUOUS
 62
     7
 10
35.999797698000002
 20
148.17115589150001
 30
0.0
 11
35.999797698000002
 21
90.796240023300001
 31
0.0
  0
LINE
  5
1E8
  8
SERVCLEAR
  6
DASHED
 62
     1
 10
36.0
 20
148.17095209999999
 30
0.0
 11
36.0
 21
90.796240023300001
 31
0.0
  0
POLYLINE
  5
1E9
  8
CURB-24
  6
DOT
 62
     6
 66
     1
 10
0.0
 20
0.0
 30
0.0
 40
0.0098425199
 41
0.0098425199
  0
VERTEX
  5
2A0
  8
CURB-24
  6
DOT
 62
     6
 10
38.687427698
 20
92.650436858199996
 30
0.0
  0
VERTEX
  5
2A1
  8
CURB-24
  6
DOT
 62
     6
 10
38.687427698
 20
93.796240023300001
 30
0.0
  0
SEQEND
  5
2A2
  8
CURB-24
  6
DOT
 62
     6
  0
POLYLINE
  5
1ED
  8
CURB-14
  6
DOT
 62
     6
 66
     1
 10
0.0
 20
0.0
 30
0.0
 40
0.0098425199
 41
0.0098425199
  0
VERTEX
  5
2A3
  8
CURB-14
  6
DOT
 62
     6
 10
38.687427698
 20
92.650436858199996
 30
0.0
  0
VERTEX
  5
2A4
  8
CURB-14
  6
DOT
 62
     6
 10
38.687427698
 20
93.796240023300001
 30
0.0
  0
SEQEND
  5
2A5
  8
CURB-14
  6
DOT
 62
     6
  0
POLYLINE
  5
1F1
  8
CURB-24
  6
CONTINUOUS
 62
     6
 66
     1
 10
0.0
 20
0.0
 30
0.0
 40
0.0118110237
 41
0.0118110237
  0
VERTEX
  5
2A6
  8
CURB-24
  6
CONTINUOUS
 62
     6
 10
39.712427697999999
 20
90.796240023300001
 30
0.0
  0
VERTEX
  5
2A7
  8
CURB-24
  6
CONTINUOUS
 62
     6
 10
39.712427697999999
 20
69.797969269799992
 30
0.0
  0
SEQEND
  5
2A8
  8
CURB-24
  6
CONTINUOUS
 62
     6
  0
POLYLINE
  5
1F5
  8
CURB-14
  6
CONTINUOUS
 62
     6
 66
     1
 10
0.0
 20
0.0
 30
0.0
 40
0.0118110237
 41
0.0118110237
  0
VERTEX
  5
2A9
  8
CURB-14
  6
CONTINUOUS
 62
     6
 10
39.712427697999999
 20
90.796240023300001
 30
0.0
  0
VERTEX
  5
2AA
  8
CURB-14
  6
CONTINUOUS
 62
     6
 10
39.712427697999999
 20
79.796240023300001
 30
0.0
  0
SEQEND
  5
2AB
  8
CURB-14
  6
CONTINUOUS
 62
     6
  0
POLYLINE
  5
1F9
  8
CURB-14
  6
DOT
 62
     6
 66
     1
 10
0.0
 20
0.0
 30
0.0
 40
0.0098425199
 41
0.0098425199
  0
VERTEX
  5
2AC
  8
CURB-14
  6
DOT
 62
     6
 10
39.712427697999999
 20
90.796240023300001
 30
0.0
  0
VERTEX
  5
2AD
  8
CURB-14
  6
DOT
 62
     6
 10
39.712427697999999
 20
92.648958686499995
 30
0.0
  0
SEQEND
  5
2AE
  8
CURB-14
  6
DOT
 62
     6
  0
POLYLINE
  5
1FD
  8
CURB-24
  6
DOT
 62
     6
 66
     1
 10
0.0
 20
0.0
 30
0.0
 40
0.0098425199
 41
0.0098425199
  0
VERTEX
  5
2AF
  8
CURB-24
  6
DOT
 62
     6
 10
39.712427697999999
 20
90.796240023300001
 30
0.0
  0
VERTEX
  5
2B0
  8
CURB-24
  6
DOT
 62
     6
 10
39.712427697999999
 20
92.648958686499995
 30
0.0
  0
SEQEND
  5
2B1
  8
CURB-24
  6
DOT
 62
     6
  0
LINE
  5
201
  8
0
  6
CONTINUOUS
 62
     7
 10
0.0
 20
0.0
 30
0.0
 11
325.0
 21
0.0
 31
0.0
  0
LINE
  5
202
  8
UNIT-DUCTS
  6
CONTINUOUS
 62
     2
 10
113.2497979833
 20
112.2962400233
 30
0.0
 11
113.2497979833
 21
96.421240023300001
 31
0.0
  0
LINE
  5
203
  8
UNIT-DUCTS
  6
CONTINUOUS
 62
     2
 10
113.2497979833
 20
96.421240023300001
 30
0.0
 11
142.9997979833
 21
112.2962400233
 31
0.0
  0
LINE
  5
204
  8
UNIT-DUCTS
  6
CONTINUOUS
 62
     2
 10
142.9997979833
 20
112.2962400233
 30
0.0
 11
142.9997979833
 21
96.421240023300001
 31
0.0
  0
POLYLINE
  5
205
  8
CURB-24
  6
CONTINUOUS
 62
     6
 66
     1
 10
0.0
 20
0.0
 30
0.0
 40
0.0098425199
 41
0.0098425199
  0
VERTEX
  5
2B2
  8
CURB-24
  6
CONTINUOUS
 62
     6
 10
36.715427697999999
 20
69.797969269799992
 30
0.0
  0
VERTEX
  5
2B3
  8
CURB-24
  6
CONTINUOUS
 62
     6
 10
191.87792769800001
 20
69.797969269799992
 30
0.0
  0
SEQEND
  5
2B4
  8
CURB-24
  6
CONTINUOUS
 62
     6
  0
LINE
  5
209
  8
HOODS
  6
CONTINUOUS
 62
     7
 10
210.7518105293
 20
111.0402348236
 30
0.0
 11
209.27488098820001
 21
110.5727898649
 31
0.0
  0
POLYLINE
  5
20A
  8
CURB-14
  6
CONTINUOUS
 62
     6
 66
     1
 10
0.0
 20
0.0
 30
0.0
 40
0.0098425199
 41
0.0098425199
  0
VERTEX
  5
2B5
  8
CURB-14
  6
CONTINUOUS
 62
     6
 10
36.715427697999999
 20
79.796240023300001
 30
0.0
  0
VERTEX
  5
2B6
  8
CURB-14
  6
CONTINUOUS
 62
     6
 10
191.87792769800001
 20
79.796240023300001
 30
0.0
  0
SEQEND
  5
2B7
  8
CURB-14
  6
CONTINUOUS
 62
     6
  0
LINE
  5
20E
  8
UNIT-DUCTS
  6
CONTINUOUS
 62
     2
 10
113.2497979833
 20
112.2962400233
 30
0.0
 11
142.9997979833
 21
96.421240023300001
 31
0.0
  0
LINE
  5
20F
  8
UNIT-DUCTS
  6
CONTINUOUS
 62
     2
 10
167.1247979833
 20
145.79624002329999
 30
0.0
 11
167.1247979833
 21
96.421240023300001
 31
0.0
  0
LINE
  5
210
  8
SERVCLEAR
  6
DASHED
 62
     1
 10
314.24979798330003
 20
90.796240023300001
 30
0.0
 11
218.2497979833
 21
90.796240023300001
 31
0.0
  0
LINE
  5
211
  8
UNIT-SOL
  6
CONTINUOUS
 62
     7
 10
193.7497979833
 20
90.796240023300001
 30
0.0
 11
35.999797698000002
 21
90.796240023300001
 31
0.0
  0
LINE
  5
212
  8
SERVCLEAR
  6
DASHED
 62
     1
 10
36.0
 20
90.796240023300001
 30
0.0
 11
0.0
 21
90.796240023300001
 31
0.0
  0
POLYLINE
  5
213
  8
CURB-24
  6
DOT
 62
     6
 66
     1
 10
0.0
 20
0.0
 30
0.0
 40
0.0098425199
 41
0.0098425199
  0
VERTEX
  5
2B8
  8
CURB-24
  6
DOT
 62
     6
 10
38.687427698
 20
93.796240023300001
 30
0.0
  0
VERTEX
  5
2B9
  8
CURB-24
  6
DOT
 62
     6
 10
190.62492769799999
 20
93.796240023300001
 30
0.0
  0
SEQEND
  5
2BA
  8
CURB-24
  6
DOT
 62
     6
  0
POLYLINE
  5
217
  8
CURB-14
  6
DOT
 62
     6
 66
     1
 10
0.0
 20
0.0
 30
0.0
 40
0.0098425199
 41
0.0098425199
  0
VERTEX
  5
2BB
  8
CURB-14
  6
DOT
 62
     6
 10
38.687427698
 20
93.796240023300001
 30
0.0
  0
VERTEX
  5
2BC
  8
CURB-14
  6
DOT
 62
     6
 10
190.62492769799999
 20
93.796240023300001
 30
0.0
  0
SEQEND
  5
2BD
  8
CURB-14
  6
DOT
 62
     6
  0
LINE
  5
21B
  8
UNIT-DUCTS
  6
CONTINUOUS
 62
     2
 10
190.4997979833
 20
96.421240023300001
 30
0.0
 11
167.1247979833
 21
96.421240023300001
 31
0.0
  0
LINE
  5
21C
  8
UNIT-DUCTS
  6
CONTINUOUS
 62
     2
 10
142.9997979833
 20
96.421240023300001
 30
0.0
 11
113.2497979833
 21
96.421240023300001
 31
0.0
  0
POLYLINE
  5
21D
  8
CURB-24
  6
DOT
 62
     6
 66
     1
 10
0.0
 20
0.0
 30
0.0
 40
0.0098425199
 41
0.0098425199
  0
VERTEX
  5
2BE
  8
CURB-24
  6
DOT
 62
     6
 10
190.62492769799999
 20
92.546240023300001
 30
0.0
  0
VERTEX
  5
2BF
  8
CURB-24
  6
DOT
 62
     6
 10
38.687427698
 20
92.650436858199996
 30
0.0
  0
SEQEND
  5
2C0
  8
CURB-24
  6
DOT
 62
     6
  0
POLYLINE
  5
221
  8
CURB-14
  6
DOT
 62
     6
 66
     1
 10
0.0
 20
0.0
 30
0.0
 40
0.0098425199
 41
0.0098425199
  0
VERTEX
  5
2C1
  8
CURB-14
  6
DOT
 62
     6
 10
190.62492769799999
 20
92.546240023300001
 30
0.0
  0
VERTEX
  5
2C2
  8
CURB-14
  6
DOT
 62
     6
 10
38.687427698
 20
92.650436858199996
 30
0.0
  0
SEQEND
  5
2C3
  8
CURB-14
  6
DOT
 62
     6
  0
LINE
  5
225
  8
0
  6
CONTINUOUS
 62
     7
 10
218.2497979833
 20
120.1337702786
 30
0.0
 11
218.22578577260001
 21
120.1097580678
 31
0.0
  0
LINE
  5
226
  8
HOODS
  6
CONTINUOUS
 62
     7
 10
209.27488098820001
 20
110.5727898649
 30
0.0
 11
193.7497979833
 21
96.593942339199998
 31
0.0
  0
LINE
  5
227
  8
HOODS
  6
CONTINUOUS
 62
     7
 10
210.68687807680001
 20
111.04536274989999
 30
0.0
 11
211.61423216220001
 21
111.8803561189
 31
0.0
  0
LINE
  5
228
  8
HOODS
  6
CONTINUOUS
 62
     7
 10
210.7518105293
 20
111.0402348236
 30
0.0
 11
211.64585466119999
 21
111.8452357757
 31
0.0
  0
POLYLINE
  5
229
  8
CURB-24
  6
CONTINUOUS
 62
     6
 66
     1
 10
0.0
 20
0.0
 30
0.0
 40
0.0118110237
 41
0.0118110237
  0
VERTEX
  5
2C4
  8
CURB-24
  6
CONTINUOUS
 62
     6
 10
188.87492769799999
 20
90.796240023300001
 30
0.0
  0
VERTEX
  5
2C5
  8
CURB-24
  6
CONTINUOUS
 62
     6
 10
188.87492769799999
 20
69.797969269799992
 30
0.0
  0
SEQEND
  5
2C6
  8
CURB-24
  6
CONTINUOUS
 62
     6
  0
POLYLINE
  5
22D
  8
CURB-14
  6
CONTINUOUS
 62
     6
 66
     1
 10
0.0
 20
0.0
 30
0.0
 40
0.0118110237
 41
0.0118110237
  0
VERTEX
  5
2C7
  8
CURB-14
  6
CONTINUOUS
 62
     6
 10
188.87492769799999
 20
90.796240023300001
 30
0.0
  0
VERTEX
  5
2C8
  8
CURB-14
  6
CONTINUOUS
 62
     6
 10
188.87492769799999
 20
79.796240023300001
 30
0.0
  0
SEQEND
  5
2C9
  8
CURB-14
  6
CONTINUOUS
 62
     6
  0
POLYLINE
  5
231
  8
CURB-14
  6
DOT
 62
     6
 66
     1
 10
0.0
 20
0.0
 30
0.0
 40
0.0098425199
 41
0.0098425199
  0
VERTEX
  5
2CA
  8
CURB-14
  6
DOT
 62
     6
 10
188.87492769799999
 20
90.796240023300001
 30
0.0
  0
VERTEX
  5
2CB
  8
CURB-14
  6
DOT
 62
     6
 10
188.87492769799999
 20
92.648958686499995
 30
0.0
  0
SEQEND
  5
2CC
  8
CURB-14
  6
DOT
 62
     6
  0
POLYLINE
  5
235
  8
CURB-24
  6
DOT
 62
     6
 66
     1
 10
0.0
 20
0.0
 30
0.0
 40
0.0098425199
 41
0.0098425199
  0
VERTEX
  5
2CD
  8
CURB-24
  6
DOT
 62
     6
 10
188.87492769799999
 20
90.796240023300001
 30
0.0
  0
VERTEX
  5
2CE
  8
CURB-24
  6
DOT
 62
     6
 10
188.87492769799999
 20
92.648958686499995
 30
0.0
  0
SEQEND
  5
2CF
  8
CURB-24
  6
DOT
 62
     6
  0
LINE
  5
239
  8
UNIT-DUCTS
  6
CONTINUOUS
 62
     2
 10
190.4997979833
 20
145.79624002329999
 30
0.0
 11
190.4997979833
 21
96.421240023300001
 31
0.0
  0
POLYLINE
  5
23A
  8
CURB-24
  6
DOT
 62
     6
 66
     1
 10
0.0
 20
0.0
 30
0.0
 40
0.0098425199
 41
0.0098425199
  0
VERTEX
  5
2D0
  8
CURB-24
  6
DOT
 62
     6
 10
190.62492769799999
 20
93.796240023300001
 30
0.0
  0
VERTEX
  5
2D1
  8
CURB-24
  6
DOT
 62
     6
 10
190.62492769799999
 20
92.546240023300001
 30
0.0
  0
SEQEND
  5
2D2
  8
CURB-24
  6
DOT
 62
     6
  0
POLYLINE
  5
23E
  8
CURB-14
  6
DOT
 62
     6
 66
     1
 10
0.0
 20
0.0
 30
0.0
 40
0.0098425199
 41
0.0098425199
  0
VERTEX
  5
2D3
  8
CURB-14
  6
DOT
 62
     6
 10
190.62492769799999
 20
93.796240023300001
 30
0.0
  0
VERTEX
  5
2D4
  8
CURB-14
  6
DOT
 62
     6
 10
190.62492769799999
 20
92.546240023300001
 30
0.0
  0
SEQEND
  5
2D5
  8
CURB-14
  6
DOT
 62
     6
  0
LINE
  5
242
  8
UNIT-SOL
  6
CONTINUOUS
 62
     7
 10
193.7497979833
 20
148.17115589150001
 30
0.0
 11
193.7497979833
 21
90.796240023300001
 31
0.0
  0
LINE
  5
243
  8
UNIT-DUCTS
  6
CONTINUOUS
 62
     2
 10
142.9997979833
 20
112.2962400233
 30
0.0
 11
113.2497979833
 21
112.2962400233
 31
0.0
  0
LINE
  5
244
  8
HOODS
  6
CONTINUOUS
 62
     7
 10
218.22578577260001
 20
120.1097580678
 30
0.0
 11
193.7497979833
 21
120.1097580678
 31
0.0
  0
LINE
  5
245
  8
UNIT-DUCTS
  6
CONTINUOUS
 62
     2
 10
167.1247979833
 20
145.79624002329999
 30
0.0
 11
190.4997979833
 21
96.421240023300001
 31
0.0
  0
LINE
  5
246
  8
HOODS
  6
CONTINUOUS
 62
     7
 10
210.68687807680001
 20
111.04536274989999
 30
0.0
 11
193.7497979833
 21
118.9432529043
 31
0.0
  0
LINE
  5
247
  8
HOODS
  6
CONTINUOUS
 62
     7
 10
217.95167106869999
 20
122.4856131417
 30
0.0
 11
217.95167106869999
 21
120.4318971931
 31
0.0
  0
LINE
  5
248
  8
SERVCLEAR
  6
DASHED
 62
     1
 10
218.2497979833
 20
148.17095209999999
 30
0.0
 11
218.2497979833
 21
90.796240023300001
 31
0.0
  0
LINE
  5
249
  8
HOODS
  6
CONTINUOUS
 62
     7
 10
211.64585466119999
 20
111.8452357757
 30
0.0
 11
211.61423216220001
 21
111.8803561189
 31
0.0
  0
LINE
  5
24A
  8
UNIT-DUCTS
  6
CONTINUOUS
 62
     2
 10
190.4997979833
 20
145.79624002329999
 30
0.0
 11
167.1247979833
 21
145.79624002329999
 31
0.0
  0
LINE
  5
24B
  8
SERVCLEAR
  6
DASHED
 62
     1
 10
0.3125
 20
148.17095209999999
 30
0.0
 11
36.0
 21
148.17095209999999
 31
0.0
  0
LINE
  5
24C
  8
SERVCLEAR
  6
DASHED
 62
     1
 10
218.2497979833
 20
148.17095209999999
 30
0.0
 11
314.24979798330003
 21
148.17095209999999
 31
0.0
  0
LINE
  5
24D
  8
UNIT-SOL
  6
CONTINUOUS
 62
     7
 10
193.7497979833
 20
148.17115589150001
 30
0.0
 11
35.999797698000002
 21
148.17115589150001
 31
0.0
  0
LINE
  5
24E
  8
HOODS
  6
CONTINUOUS
 62
     7
 10
193.7497979833
 20
138.54164470149999
 30
0.0
 11
217.95167106869999
 21
122.4856131417
 31
0.0
  0
LINE
  5
24F
  8
HOODS
  6
CONTINUOUS
 62
     7
 10
218.2497979833
 20
120.1337702786
 30
0.0
 11
217.95167106869999
 21
120.4318971931
 31
0.0
  0
LINE
  5
250
  8
0
  6
CONTINUOUS
 62
     7
 10
0.0
 20
175.0
 30
0.0
 11
325.0
 21
175.0
 31
0.0
  0
LINE
  5
251
  8
SERVCLEAR
  6
DASHED
 62
     1
 10
314.24979798330003
 20
148.04595209999999
 30
0.0
 11
314.24979798330003
 21
90.796240023300001
 31
0.0
  0
LINE
  5
252
  8
0
  6
CONTINUOUS
 62
     7
 10
325.0
 20
0.0
 30
0.0
 11
325.0
 21
175.0
 31
0.0
  0
CIRCLE
  5
253
  8
UNIT-SOL
  6
CONTINUOUS
 62
     7
 10
156.2497979833
 20
96.046240023300001
 30
0.0
 40
1.2257156691999991
  0
ENDSEC
  0
EOF
