  0
SECTION
  2
HEADER
  9
$ACADVER
  1
AC1009
  9
$INSBASE
 10
0.0
 20
0.0
 30
0.0
  9
$EXTMIN
 10
-0.0061030499708181
 20
-0.0053401687244445
 30
-0.0015258207003583
  9
$EXTMAX
 10
200.00610398129331
 20
175.0053409836317
 30
0.0000000349246037
  9
$LIMMIN
 10
0.0
 20
0.0
  9
$LIMMAX
 10
200.0
 20
175.0
  9
$ORTHOMODE
 70
     0
  9
$REGENMODE
 70
     1
  9
$FILLMODE
 70
     1
  9
$QTEXTMODE
 70
     0
  9
$MIRRTEXT
 70
     0
  9
$DRAGMODE
 70
     2
  9
$LTSCALE
 40
11.407407407399999
  9
$OSMODE
 70
    37
  9
$ATTMODE
 70
     1
  9
$TEXTSIZE
 40
0.2
  9
$TRACEWID
 40
0.05
  9
$TEXTSTYLE
  7
STANDARD
  9
$CLAYER
  8
0
  9
$CELTYPE
  6
ByLayer
  9
$CECOLOR
 62
   256
  9
$DIMSCALE
 40
1.0
  9
$DIMASZ
 40
4.0
  9
$DIMEXO
 40
1.587499999999999
  9
$DIMDLI
 40
7.8814814814999989
  9
$DIMRND
 40
0.0
  9
$DIMDLE
 40
0.0
  9
$DIMEXE
 40
1.587499999999999
  9
$DIMTP
 40
0.0
  9
$DIMTM
 40
0.0
  9
$DIMTXT
 40
2.0
  9
$DIMCEN
 40
1.8666666666999989
  9
$DIMTSZ
 40
0.0
  9
$DIMTOL
 70
     0
  9
$DIMLIM
 70
     0
  9
$DIMTIH
 70
     1
  9
$DIMTOH
 70
     1
  9
$DIMSE1
 70
     0
  9
$DIMSE2
 70
     0
  9
$DIMTAD
 70
     0
  9
$DIMZIN
 70
     0
  9
$DIMBLK
  1
_FILLED
  9
$DIMASO
 70
     1
  9
$DIMSHO
 70
     1
  9
$DIMPOST
  1

  9
$DIMAPOST
  1

  9
$DIMALT
 70
     0
  9
$DIMALTD
 70
     2
  9
$DIMALTF
 40
25.399999999999999
  9
$DIMLFAC
 40
1.0
  9
$DIMTOFL
 70
     0
  9
$DIMTVP
 40
0.0
  9
$DIMTIX
 70
     0
  9
$DIMSOXD
 70
     0
  9
$DIMSAH
 70
     0
  9
$DIMBLK1
  1

  9
$DIMBLK2
  1

  9
$DIMSTYLE
  2
STANDARD
  9
$DIMCLRD
 70
     0
  9
$DIMCLRE
 70
     0
  9
$DIMCLRT
 70
     0
  9
$DIMTFAC
 40
1.0
  9
$DIMGAP
 40
0.09
  9
$LUNITS
 70
     2
  9
$LUPREC
 70
     4
  9
$SKETCHINC
 40
0.1
  9
$FILLETRAD
 40
0.0
  9
$AUNITS
 70
     0
  9
$AUPREC
 70
     0
  9
$MENU
  1
.
  9
$ELEVATION
 40
0.0
  9
$PELEVATION
 40
0.0
  9
$THICKNESS
 40
0.0
  9
$LIMCHECK
 70
     0
  9
$BLIPMODE
 70
     0
  9
$CHAMFERA
 40
0.0
  9
$CHAMFERB
 40
0.0
  9
$SKPOLY
 70
     0
  9
$TDCREATE
 40
2456262.5100124311
  9
$TDUPDATE
 40
2456262.5104055558
  9
$TDINDWG
 40
0.0003937037
  9
$TDUSRTIMER
 40
0.0003937037
  9
$USRTIMER
 70
     1
  9
$ANGBASE
 50
0.0
  9
$ANGDIR
 70
     0
  9
$PDMODE
 70
     3
  9
$PDSIZE
 40
7.9375
  9
$PLINEWID
 40
0.0
  9
$COORDS
 70
     1
  9
$SPLFRAME
 70
     0
  9
$SPLINETYPE
 70
     6
  9
$SPLINESEGS
 70
     8
  9
$ATTDIA
 70
     0
  9
$ATTREQ
 70
     1
  9
$HANDLING
 70
     1
  9
$HANDSEED
  5
269
  9
$SURFTAB1
 70
     6
  9
$SURFTAB2
 70
     6
  9
$SURFTYPE
 70
     6
  9
$SURFU
 70
     6
  9
$SURFV
 70
     6
  9
$UCSNAME
  2

  9
$UCSORG
 10
0.0
 20
0.0
 30
0.0
  9
$UCSXDIR
 10
1.0
 20
0.0
 30
0.0
  9
$UCSYDIR
 10
0.0
 20
1.0
 30
0.0
  9
$PUCSNAME
  2

  9
$PUCSORG
 10
0.0
 20
0.0
 30
0.0
  9
$PUCSXDIR
 10
1.0
 20
0.0
 30
0.0
  9
$PUCSYDIR
 10
0.0
 20
1.0
 30
0.0
  9
$USERI1
 70
     0
  9
$USERI2
 70
     0
  9
$USERI3
 70
     0
  9
$USERI4
 70
     0
  9
$USERI5
 70
     0
  9
$USERR1
 40
0.0
  9
$USERR2
 40
0.0
  9
$USERR3
 40
0.0
  9
$USERR4
 40
0.0
  9
$USERR5
 40
0.0
  9
$WORLDVIEW
 70
     1
  9
$SHADEDGE
 70
     3
  9
$SHADEDIF
 70
    70
  9
$TILEMODE
 70
     1
  9
$MAXACTVP
 70
    64
  9
$PLIMCHECK
 70
     0
  9
$PEXTMIN
 10
1.0000000000000000E+020
 20
1.0000000000000000E+020
 30
1.0000000000000000E+020
  9
$PEXTMAX
 10
-1.0000000000000000E+020
 20
-1.0000000000000000E+020
 30
-1.0000000000000000E+020
  9
$PLIMMIN
 10
0.0
 20
0.0
  9
$PLIMMAX
 10
12.0
 20
9.0
  9
$UNITMODE
 70
     0
  9
$VISRETAIN
 70
     1
  9
$PLINEGEN
 70
     0
  9
$PSLTSCALE
 70
     1
  0
ENDSEC
  0
SECTION
  2
TABLES
  0
TABLE
  2
VPORT
 70
     1
  0
VPORT
  2
*ACTIVE
 70
     0
 10
0.0
 20
0.0
 11
1.0
 21
1.0
 12
100.0000004656612
 22
87.500000407453641
 13
0.0
 23
0.0
 14
1.0
 24
1.0
 15
0.0
 25
0.0
 16
0.0
 26
0.0
 36
1.0
 17
0.0
 27
0.0
 37
0.0
 40
183.1188341406019
 41
1.1005586592178771
 42
50.0
 43
0.0
 44
0.0
 50
0.0
 51
0.0
 71
     0
 72
   100
 73
     1
 74
     1
 75
     0
 76
     0
 77
     0
 78
     0
  0
ENDTAB
  0
TABLE
  2
LTYPE
 70
     8
  0
LTYPE
  2
ByBlock
 70
     0
  3

 72
    65
 73
     0
 40
0.0
  0
LTYPE
  2
ByLayer
 70
     0
  3

 72
    65
 73
     0
 40
0.0
  0
LTYPE
  2
CONTINUOUS
 70
     0
  3
Solid line
 72
    65
 73
     0
 40
0.0
  0
LTYPE
  2
CENTER
 70
     0
  3
____ _ ____ _ ____ _ ____ _ ____ _ ____ _ ____
 72
    65
 73
     4
 40
0.6
 49
0.375
 49
-0.075
 49
0.075
 49
-0.075
  0
LTYPE
  2
HIDDEN
 70
     0
  3
- - - - - - - - - - - - - - - - - - - -
 72
    65
 73
     2
 40
0.2
 49
0.1
 49
-0.1
  0
LTYPE
  2
PHANTOM
 70
     0
  3
_____ _ _ _____ _ _ _____ _ _ _____
 72
    65
 73
     6
 40
0.8
 49
0.45
 49
-0.05
 49
0.1
 49
-0.05
 49
0.1
 49
-0.05
  0
LTYPE
  2
DOT
 70
     0
  3
. . . . . . . . . . . . . . . . . . . .
 72
    65
 73
     2
 40
0.2
 49
0.1
 49
-0.1
  0
LTYPE
  2
DASHED
 70
     0
  3
- - - - - - - - - - - - - - - - - - - -
 72
    65
 73
     2
 40
0.2
 49
0.1
 49
-0.1
  0
ENDTAB
  0
TABLE
  2
LAYER
 70
    14
  0
LAYER
  2
0
 70
     0
 62
     7
  6
CONTINUOUS
  0
LAYER
  2
DEFAULT_1
 70
     0
 62
     7
  6
CENTER
  0
LAYER
  2
DEFAULT_2
 70
     0
 62
     8
  6
HIDDEN
  0
LAYER
  2
DEFAULT_3
 70
     0
 62
     7
  6
PHANTOM
  0
LAYER
  2
CURB-14
 70
     0
 62
     6
  6
CONTINUOUS
  0
LAYER
  2
CURB-14-DIM
 70
     0
 62
     6
  6
CONTINUOUS
  0
LAYER
  2
CURB-24
 70
     0
 62
     6
  6
CONTINUOUS
  0
LAYER
  2
CURB-24-DIM
 70
     0
 62
     6
  6
CONTINUOUS
  0
LAYER
  2
HOODS
 70
     0
 62
     7
  6
CONTINUOUS
  0
LAYER
  2
NOTES
 70
     0
 62
     1
  6
CONTINUOUS
  0
LAYER
  2
SERVCLEAR
 70
     0
 62
     1
  6
CONTINUOUS
  0
LAYER
  2
SERVCLRDIM
 70
     0
 62
     1
  6
CONTINUOUS
  0
LAYER
  2
UNIT-DIM
 70
     0
 62
     7
  6
CONTINUOUS
  0
LAYER
  2
UNIT-SOL
 70
     0
 62
     7
  6
CONTINUOUS
  0
ENDTAB
  0
TABLE
  2
STYLE
 70
     4
  0
STYLE
  2
STANDARD
 70
     0
 40
0.0
 41
0.8
 50
0.0
 71
     0
 42
0.2
  3
txt
  4

  0
STYLE
  2
ANNOTATIVE
 70
     0
 40
0.0
 41
1.0
 50
0.0
 71
     0
 42
0.2
  3
txt
  4

  0
STYLE
  2
TEXTSTYLE_1
 70
     0
 40
0.0
 41
0.8
 50
0.0
 71
     0
 42
0.2
  3
gdt
  4

  0
STYLE
  2
TEXTSTYLE_2
 70
     0
 40
0.0
 41
8.0
 50
0.0
 71
     0
 42
0.2
  3
txt
  4

  0
ENDTAB
  0
TABLE
  2
VIEW
 70
     0
  0
ENDTAB
  0
TABLE
  2
UCS
 70
     0
  0
ENDTAB
  0
TABLE
  2
APPID
 70
     4
  0
APPID
  2
ACAD
 70
     0
  0
APPID
  2
ACADANNOTATIVE
 70
     0
  0
APPID
  2
ACAD_NAV_VCDISPLAY
 70
     0
  0
APPID
  2
ACAD_MLEADERVER
 70
     0
  0
ENDTAB
  0
TABLE
  2
DIMSTYLE
 70
     2
  0
DIMSTYLE
  2
STANDARD
 70
     0
  3

  4

  5

  6

  7

 40
1.0
 41
0.18
 42
0.0625
 43
0.38
 44
0.18
 45
0.0
 46
0.0
 47
0.0
 48
0.0
140
0.18
141
0.09
142
0.0
143
25.399999999999999
144
1.0
145
0.0
146
1.0
147
0.09
 71
     0
 72
     0
 73
     1
 74
     1
 75
     0
 76
     0
 77
     0
 78
     0
170
     0
171
     2
172
     0
173
     0
174
     0
175
     0
176
     0
177
     0
178
     0
  0
DIMSTYLE
  2
ANNOTATIVE
 70
     0
  3

  4

  5

  6

  7

 40
1.0
 41
0.18
 42
0.0625
 43
0.38
 44
0.18
 45
0.0
 46
0.0
 47
0.0
 48
0.0
140
0.18
141
0.09
142
0.0
143
25.399999999999999
144
1.0
145
0.0
146
1.0
147
0.09
 71
     0
 72
     0
 73
     1
 74
     1
 75
     0
 76
     0
 77
     0
 78
     0
170
     0
171
     2
172
     0
173
     0
174
     0
175
     0
176
     0
177
     0
178
     0
  0
ENDTAB
  0
ENDSEC
  0
SECTION
  2
BLOCKS
  0
BLOCK
  8
0
  2
$MODEL_SPACE
 70
     0
 10
0.0
 20
0.0
 30
0.0
  3
$MODEL_SPACE
  1

  0
ENDBLK
  5
6D
  8
0
  0
BLOCK
 67
     1
  8
0
  2
$PAPER_SPACE
 70
     0
 10
0.0
 20
0.0
 30
0.0
  3
$PAPER_SPACE
  1

  0
ENDBLK
  5
69
 67
     1
  8
0
  0
BLOCK
  8
0
  2
_FILLED
 70
     0
 10
0.0
 20
0.0
 30
0.0
  3
_FILLED
  1

  0
SOLID
  5
8A
  8
0
  6
ByBlock
 62
     0
 10
0.0
 20
0.0
 30
0.0
 11
-1.0
 21
0.1875
 31
0.0
 12
-1.0
 22
-0.1875
 32
0.0
 13
-1.0
 23
-0.1875
 33
0.0
  0
ENDBLK
  5
8B
  8
0
  6
ByBlock
 62
     0
  0
BLOCK
  8
CURB-24-DIM
  6
CONTINUOUS
 62
     6
  2
*D1
 70
     1
 10
0.0
 20
0.0
 30
0.0
  3
*D1
  1

  0
TEXT
  5
8E
  8
CURB-24-DIM
  6
CONTINUOUS
 62
     6
 10
72.587898056899988
 20
44.699075467699998
 30
0.0
 40
2.0
  1
80-5/8
 41
0.8
 72
     1
 11
76.987898056899994
 21
44.699075467699998
 31
0.0
  0
TEXT
  5
8F
  8
CURB-24-DIM
  6
CONTINUOUS
 62
     6
 10
84.321231390233336
 20
44.699075467699998
 30
0.0
 40
2.0
  1
[
 41
0.8
 72
     1
 11
84.587898056900016
 21
44.699075467699998
 31
0.0
  0
TEXT
  5
90
  8
CURB-24-DIM
  6
CONTINUOUS
 62
     6
 10
86.321231390233351
 20
44.699075467699998
 30
0.0
 40
2.0
  1
2047.9
 41
0.8
 72
     1
 11
90.187898056900011
 21
44.699075467699998
 31
0.0
  0
TEXT
  5
91
  8
CURB-24-DIM
  6
CONTINUOUS
 62
     6
 10
95.521231390233339
 20
44.699075467699998
 30
0.0
 40
2.0
  1
]
 41
0.8
 72
     1
 11
95.787898056900005
 21
44.699075467699998
 31
0.0
  0
TEXT
  5
92
  8
CURB-24-DIM
  6
CONTINUOUS
 62
     6
 10
96.587898056900002
 20
44.699075467699998
 30
0.0
 40
2.0
  1
 
 41
0.8
 72
     1
 11
97.387898056899999
 21
44.699075467699998
 31
0.0
  0
LINE
  5
93
  8
CURB-24-DIM
  6
CONTINUOUS
 62
     6
 10
44.875870900599999
 20
79.409140818300003
 30
0.0
 11
44.875870900599999
 21
44.111575467700007
 31
0.0
  0
LINE
  5
94
  8
CURB-24-DIM
  6
CONTINUOUS
 62
     6
 10
125.4999252132
 20
78.892789539899994
 30
0.0
 11
125.4999252132
 21
44.111575467700007
 31
0.0
  0
LINE
  5
95
  8
CURB-24-DIM
  6
CONTINUOUS
 62
     6
 10
44.875870900599999
 20
45.699075467699998
 30
0.0
 11
70.187898056899996
 21
45.699075467699998
 31
0.0
  0
LINE
  5
96
  8
CURB-24-DIM
  6
CONTINUOUS
 62
     6
 10
125.4999252132
 20
45.699075467699998
 30
0.0
 11
100.1878980569
 21
45.699075467699998
 31
0.0
  0
INSERT
  5
97
  8
CURB-24-DIM
  6
CONTINUOUS
 62
     6
  2
_FILLED
 10
44.875870900599999
 20
45.699075467699998
 30
0.0
 41
4.0
 42
4.0
 43
4.0
 50
180.0
  0
INSERT
  5
98
  8
CURB-24-DIM
  6
CONTINUOUS
 62
     6
  2
_FILLED
 10
125.4999252132
 20
45.699075467699998
 30
0.0
 41
4.0
 42
4.0
 43
4.0
  0
ENDBLK
  5
99
  8
0
  6
ByBlock
 62
     0
  0
BLOCK
  8
SERVCLRDIM
  6
CONTINUOUS
 62
     1
  2
*D2
 70
     1
 10
0.0
 20
0.0
 30
0.0
  3
*D2
  1

  0
TEXT
  5
9C
  8
SERVCLRDIM
  6
CONTINUOUS
 62
     1
 10
16.142750039866659
 20
125.1128219827
 30
0.0
 40
2.0
  1
42
 41
0.8
 72
     1
 11
17.476083373200002
 21
125.1128219827
 31
0.0
  0
TEXT
  5
9D
  8
SERVCLRDIM
  6
CONTINUOUS
 62
     1
 10
28.676083373200001
 20
125.1128219827
 30
0.0
 40
2.0
  1
 
 41
0.8
 72
     1
 11
29.476083373200002
 21
125.1128219827
 31
0.0
  0
TEXT
  5
9E
  8
SERVCLRDIM
  6
CONTINUOUS
 62
     1
 10
16.409416706533332
 20
122.1128219827
 30
0.0
 40
2.0
  1
[
 41
0.8
 72
     1
 11
16.676083373200001
 21
122.1128219827
 31
0.0
  0
TEXT
  5
9F
  8
SERVCLRDIM
  6
CONTINUOUS
 62
     1
 10
18.676083373200001
 20
122.1128219827
 30
0.0
 40
2.0
  1
1066.8
 41
0.8
 72
     1
 11
22.276083373199999
 21
122.1128219827
 31
0.0
  0
TEXT
  5
A0
  8
SERVCLRDIM
  6
CONTINUOUS
 62
     1
 10
27.609416706533342
 20
122.1128219827
 30
0.0
 40
2.0
  1
]
 41
0.8
 72
     1
 11
27.8760833732
 21
122.1128219827
 31
0.0
  0
LINE
  5
A1
  8
SERVCLRDIM
  6
CONTINUOUS
 62
     1
 10
41.999624373599993
 20
127.8009662852
 30
0.0
 11
41.999624373599993
 21
124.52532198270001
 31
0.0
  0
LINE
  5
A2
  8
SERVCLRDIM
  6
CONTINUOUS
 62
     1
 10
0.0
 20
127.16775245469999
 30
0.0
 11
0.0
 21
124.52532198270001
 31
0.0
  0
LINE
  5
A3
  8
SERVCLRDIM
  6
CONTINUOUS
 62
     1
 10
41.999624373599993
 20
126.1128219827
 30
0.0
 11
32.276083373200002
 21
126.1128219827
 31
0.0
  0
LINE
  5
A4
  8
SERVCLRDIM
  6
CONTINUOUS
 62
     1
 10
0.0
 20
126.1128219827
 30
0.0
 11
13.8760833732
 21
126.1128219827
 31
0.0
  0
INSERT
  5
A5
  8
SERVCLRDIM
  6
CONTINUOUS
 62
     1
  2
_FILLED
 10
41.999624373599993
 20
126.1128219827
 30
0.0
 41
4.0
 42
4.0
 43
4.0
  0
INSERT
  5
A6
  8
SERVCLRDIM
  6
CONTINUOUS
 62
     1
  2
_FILLED
 10
0.0
 20
126.1128219827
 30
0.0
 41
4.0
 42
4.0
 43
4.0
 50
180.0
  0
ENDBLK
  5
A7
  8
0
  6
ByBlock
 62
     0
  0
BLOCK
  8
SERVCLRDIM
  6
CONTINUOUS
 62
     1
  2
*D3
 70
     1
 10
0.0
 20
0.0
 30
0.0
  3
*D3
  1

  0
TEXT
  5
AA
  8
SERVCLRDIM
  6
CONTINUOUS
 62
     1
 10
142.4409763058666
 20
130.61327329150001
 30
0.0
 40
2.0
  1
42
 41
0.8
 72
     1
 11
143.7743096392
 21
130.61327329150001
 31
0.0
  0
TEXT
  5
AB
  8
SERVCLRDIM
  6
CONTINUOUS
 62
     1
 10
154.97430963919999
 20
130.61327329150001
 30
0.0
 40
2.0
  1
 
 41
0.8
 72
     1
 11
155.7743096392
 21
130.61327329150001
 31
0.0
  0
TEXT
  5
AC
  8
SERVCLRDIM
  6
CONTINUOUS
 62
     1
 10
142.70764297253331
 20
127.61327329149999
 30
0.0
 40
2.0
  1
[
 41
0.8
 72
     1
 11
142.97430963919999
 21
127.61327329149999
 31
0.0
  0
TEXT
  5
AD
  8
SERVCLRDIM
  6
CONTINUOUS
 62
     1
 10
144.97430963919999
 20
127.61327329149999
 30
0.0
 40
2.0
  1
1066.8
 41
0.8
 72
     1
 11
148.57430963920001
 21
127.61327329149999
 31
0.0
  0
TEXT
  5
AE
  8
SERVCLRDIM
  6
CONTINUOUS
 62
     1
 10
153.9076429725333
 20
127.61327329149999
 30
0.0
 40
2.0
  1
]
 41
0.8
 72
     1
 11
154.1743096392
 21
127.61327329149999
 31
0.0
  0
LINE
  5
AF
  8
SERVCLRDIM
  6
CONTINUOUS
 62
     1
 10
128.37454211670001
 20
134.61538461539999
 30
0.0
 11
128.37454211670001
 21
130.0257732915
 31
0.0
  0
LINE
  5
B0
  8
SERVCLRDIM
  6
CONTINUOUS
 62
     1
 10
170.37407716179999
 20
133.06213017749999
 30
0.0
 11
170.37407716179999
 21
130.0257732915
 31
0.0
  0
LINE
  5
B1
  8
SERVCLRDIM
  6
CONTINUOUS
 62
     1
 10
128.37454211670001
 20
131.61327329150001
 30
0.0
 11
140.1743096392
 21
131.61327329150001
 31
0.0
  0
LINE
  5
B2
  8
SERVCLRDIM
  6
CONTINUOUS
 62
     1
 10
170.37407716179999
 20
131.61327329150001
 30
0.0
 11
158.57430963920001
 21
131.61327329150001
 31
0.0
  0
INSERT
  5
B3
  8
SERVCLRDIM
  6
CONTINUOUS
 62
     1
  2
_FILLED
 10
128.37454211670001
 20
131.61327329150001
 30
0.0
 41
4.0
 42
4.0
 43
4.0
 50
180.0
  0
INSERT
  5
B4
  8
SERVCLRDIM
  6
CONTINUOUS
 62
     1
  2
_FILLED
 10
170.37407716179999
 20
131.61327329150001
 30
0.0
 41
4.0
 42
4.0
 43
4.0
  0
ENDBLK
  5
B5
  8
0
  6
ByBlock
 62
     0
  0
BLOCK
  8
CURB-14-DIM
  6
CONTINUOUS
 62
     6
  2
*D4
 70
     1
 10
0.0
 20
0.0
 30
0.0
  3
*D4
  1

  0
TEXT
  5
B8
  8
CURB-14-DIM
  6
CONTINUOUS
 62
     6
 10
22.79698496133334
 20
74.183853263199993
 30
0.0
 40
2.0
  1
14
 41
0.8
 72
     1
 11
23.863651628
 21
74.183853263199993
 31
0.0
  0
TEXT
  5
B9
  8
CURB-14-DIM
  6
CONTINUOUS
 62
     6
 10
33.463651628000008
 20
74.183853263199993
 30
0.0
 40
2.0
  1
 
 41
0.8
 72
     1
 11
34.263651628000012
 21
74.183853263199993
 31
0.0
  0
TEXT
  5
BA
  8
CURB-14-DIM
  6
CONTINUOUS
 62
     6
 10
22.79698496133334
 20
71.183853263199993
 30
0.0
 40
2.0
  1
[
 41
0.8
 72
     1
 11
23.063651627999999
 21
71.183853263199993
 31
0.0
  0
TEXT
  5
BB
  8
CURB-14-DIM
  6
CONTINUOUS
 62
     6
 10
24.663651628000011
 20
71.183853263199993
 30
0.0
 40
2.0
  1
355.6
 41
0.8
 72
     1
 11
27.86365162800001
 21
71.183853263199993
 31
0.0
  0
TEXT
  5
BC
  8
CURB-14-DIM
  6
CONTINUOUS
 62
     6
 10
32.396984961333338
 20
71.183853263199993
 30
0.0
 40
2.0
  1
]
 41
0.8
 72
     1
 11
32.663651627999997
 21
71.183853263199993
 31
0.0
  0
LINE
  5
BD
  8
CURB-14-DIM
  6
CONTINUOUS
 62
     6
 10
43.28731177209999
 20
82.183326856500003
 30
0.0
 11
27.075942389600002
 21
82.182842210900006
 31
0.0
  0
LINE
  5
BE
  8
CURB-14-DIM
  6
CONTINUOUS
 62
     6
 10
42.967486080299992
 20
68.18524446939999
 30
0.0
 11
27.076360867799998
 21
68.184769397599993
 31
0.0
  0
LINE
  5
BF
  8
CURB-14-DIM
  6
CONTINUOUS
 62
     6
 10
28.663442388899998
 20
82.182889669900007
 30
0.0
 11
28.663062717199999
 21
94.882889664199993
 31
0.0
  0
LINE
  5
C0
  8
CURB-14-DIM
  6
CONTINUOUS
 62
     6
 10
28.663860867099999
 20
68.184816856599994
 30
0.0
 11
28.664240538800001
 21
55.484816862299994
 31
0.0
  0
INSERT
  5
C1
  8
CURB-14-DIM
  6
CONTINUOUS
 62
     6
  2
_FILLED
 10
28.663442388899998
 20
82.182889669900007
 30
0.0
 41
4.0
 42
4.0
 43
4.0
 50
270.001712881
  0
INSERT
  5
C2
  8
CURB-14-DIM
  6
CONTINUOUS
 62
     6
  2
_FILLED
 10
28.663860867099999
 20
68.184816856599994
 30
0.0
 41
4.0
 42
4.0
 43
4.0
 50
90.001712881000017
  0
ENDBLK
  5
C3
  8
0
  6
ByBlock
 62
     0
  0
BLOCK
  8
UNIT-DIM
  6
CONTINUOUS
 62
     7
  2
*D5
 70
     1
 10
0.0
 20
0.0
 30
0.0
  3
*D5
  1

  0
TEXT
  5
C6
  8
UNIT-DIM
  6
CONTINUOUS
 62
     7
 10
90.551914477333327
 20
51.377917807899991
 30
0.0
 40
2.0
  1
4-3/4
 41
0.8
 72
     2
 11
98.018581143999995
 21
51.377917807899991
 31
0.0
  0
TEXT
  5
C7
  8
UNIT-DIM
  6
CONTINUOUS
 62
     7
 10
101.0852478106666
 20
51.377917807899991
 30
0.0
 40
2.0
  1
[
 41
0.8
 72
     2
 11
101.618581144
 21
51.377917807899991
 31
0.0
  0
TEXT
  5
C8
  8
UNIT-DIM
  6
CONTINUOUS
 62
     7
 10
104.018581144
 20
51.377917807899991
 30
0.0
 40
2.0
  1
120.7
 41
0.8
 72
     2
 11
109.618581144
 21
51.377917807899991
 31
0.0
  0
TEXT
  5
C9
  8
UNIT-DIM
  6
CONTINUOUS
 62
     7
 10
110.6852478106666
 20
51.377917807899991
 30
0.0
 40
2.0
  1
]
 41
0.8
 72
     2
 11
111.218581144
 21
51.377917807899991
 31
0.0
  0
TEXT
  5
CA
  8
UNIT-DIM
  6
CONTINUOUS
 62
     7
 10
111.218581144
 20
51.377917807899991
 30
0.0
 40
2.0
  1
 
 41
0.8
 72
     2
 11
112.81858114400001
 21
51.377917807899991
 31
0.0
  0
LINE
  5
CB
  8
UNIT-DIM
  6
CONTINUOUS
 62
     7
 10
128.37454211670001
 20
77.369478430599997
 30
0.0
 11
128.37454211670001
 21
50.790417807899992
 31
0.0
  0
LINE
  5
CC
  8
UNIT-DIM
  6
CONTINUOUS
 62
     7
 10
123.6245746723
 20
86.972689389899983
 30
0.0
 11
123.6245746723
 21
50.790417807899992
 31
0.0
  0
LINE
  5
CD
  8
UNIT-DIM
  6
CONTINUOUS
 62
     7
 10
128.37454211670001
 20
52.377917807899998
 30
0.0
 11
141.0745421167
 21
52.377917807899998
 31
0.0
  0
LINE
  5
CE
  8
UNIT-DIM
  6
CONTINUOUS
 62
     7
 10
123.6245746723
 20
52.377917807899998
 30
0.0
 11
114.81858114400001
 21
52.377917807899998
 31
0.0
  0
INSERT
  5
CF
  8
UNIT-DIM
  6
CONTINUOUS
 62
     7
  2
_FILLED
 10
128.37454211670001
 20
52.377917807899998
 30
0.0
 41
4.0
 42
4.0
 43
4.0
 50
180.0
  0
INSERT
  5
D0
  8
UNIT-DIM
  6
CONTINUOUS
 62
     7
  2
_FILLED
 10
123.6245746723
 20
52.377917807899998
 30
0.0
 41
4.0
 42
4.0
 43
4.0
  0
ENDBLK
  5
D1
  8
0
  6
ByBlock
 62
     0
  0
BLOCK
  8
UNIT-DIM
  6
CONTINUOUS
 62
     7
  2
*D6
 70
     1
 10
0.0
 20
0.0
 30
0.0
  3
*D6
  1

  0
TEXT
  5
D4
  8
UNIT-DIM
  6
CONTINUOUS
 62
     7
 10
138.62779586689999
 20
117.4223353614
 30
0.0
 40
2.0
  1
4-3/4
 41
0.8
  0
TEXT
  5
D5
  8
UNIT-DIM
  6
CONTINUOUS
 62
     7
 10
149.8277958669
 20
117.4223353614
 30
0.0
 40
2.0
  1
 
 41
0.8
  0
TEXT
  5
D6
  8
UNIT-DIM
  6
CONTINUOUS
 62
     7
 10
138.62779586689999
 20
114.4223353614
 30
0.0
 40
2.0
  1
[
 41
0.8
  0
TEXT
  5
D7
  8
UNIT-DIM
  6
CONTINUOUS
 62
     7
 10
140.22779586690001
 20
114.4223353614
 30
0.0
 40
2.0
  1
120.7
 41
0.8
  0
TEXT
  5
D8
  8
UNIT-DIM
  6
CONTINUOUS
 62
     7
 10
148.22779586690001
 20
114.4223353614
 30
0.0
 40
2.0
  1
]
 41
0.8
  0
LINE
  5
D9
  8
UNIT-DIM
  6
CONTINUOUS
 62
     7
 10
128.37454211670001
 20
128.6439251868
 30
0.0
 11
128.37454211670001
 21
116.8348353614
 31
0.0
  0
LINE
  5
DA
  8
UNIT-DIM
  6
CONTINUOUS
 62
     7
 10
123.6245746723
 20
122.9726843933
 30
0.0
 11
123.6245746723
 21
116.8348353614
 31
0.0
  0
LINE
  5
DB
  8
UNIT-DIM
  6
CONTINUOUS
 62
     7
 10
128.37454211670001
 20
118.4223353614
 30
0.0
 11
136.62779586689999
 21
118.4223353614
 31
0.0
  0
LINE
  5
DC
  8
UNIT-DIM
  6
CONTINUOUS
 62
     7
 10
123.6245746723
 20
118.4223353614
 30
0.0
 11
110.9245746723
 21
118.4223353614
 31
0.0
  0
INSERT
  5
DD
  8
UNIT-DIM
  6
CONTINUOUS
 62
     7
  2
_FILLED
 10
128.37454211670001
 20
118.4223353614
 30
0.0
 41
4.0
 42
4.0
 43
4.0
 50
180.0
  0
INSERT
  5
DE
  8
UNIT-DIM
  6
CONTINUOUS
 62
     7
  2
_FILLED
 10
123.6245746723
 20
118.4223353614
 30
0.0
 41
4.0
 42
4.0
 43
4.0
  0
ENDBLK
  5
DF
  8
0
  6
ByBlock
 62
     0
  0
BLOCK
  8
UNIT-DIM
  6
CONTINUOUS
 62
     7
  2
*D7
 70
     1
 10
0.0
 20
0.0
 30
0.0
  3
*D7
  1

  0
TEXT
  5
E2
  8
UNIT-DIM
  6
CONTINUOUS
 62
     7
 10
146.16329053090001
 20
100.1926488452
 30
0.0
 40
2.0
  1
9-3/8
 41
0.8
  0
TEXT
  5
E3
  8
UNIT-DIM
  6
CONTINUOUS
 62
     7
 10
157.3632905309
 20
100.1926488452
 30
0.0
 40
2.0
  1
 
 41
0.8
  0
TEXT
  5
E4
  8
UNIT-DIM
  6
CONTINUOUS
 62
     7
 10
146.16329053090001
 20
97.192648845200011
 30
0.0
 40
2.0
  1
[
 41
0.8
  0
TEXT
  5
E5
  8
UNIT-DIM
  6
CONTINUOUS
 62
     7
 10
147.76329053090001
 20
97.192648845200011
 30
0.0
 40
2.0
  1
238.1
 41
0.8
  0
TEXT
  5
E6
  8
UNIT-DIM
  6
CONTINUOUS
 62
     7
 10
155.76329053090001
 20
97.192648845200011
 30
0.0
 40
2.0
  1
]
 41
0.8
  0
LINE
  5
E7
  8
UNIT-DIM
  6
CONTINUOUS
 62
     7
 10
129.96204211669999
 20
79.185261326999992
 30
0.0
 11
141.4007905309
 21
79.185261326999992
 31
0.0
  0
LINE
  5
E8
  8
UNIT-DIM
  6
CONTINUOUS
 62
     7
 10
125.21207467230001
 20
88.560189389900003
 30
0.0
 11
131.50249050689999
 21
88.560189389900003
 31
0.0
  0
LINE
  5
E9
  8
UNIT-DIM
  6
CONTINUOUS
 62
     7
 10
134.2711070112
 20
88.560189389900003
 30
0.0
 11
141.4007905309
 21
88.560189389900003
 31
0.0
  0
LINE
  5
EA
  8
UNIT-DIM
  6
CONTINUOUS
 62
     7
 10
139.81329053089999
 20
79.185261326999992
 30
0.0
 11
139.81329053089999
 21
83.872725358500006
 31
0.0
  0
LINE
  5
EB
  8
UNIT-DIM
  6
CONTINUOUS
 62
     7
 10
139.81329053089999
 20
88.560189389900003
 30
0.0
 11
139.81329053089999
 21
83.872725358500006
 31
0.0
  0
LINE
  5
EC
  8
UNIT-DIM
  6
CONTINUOUS
 62
     7
 10
139.81329053089999
 20
83.872725358500006
 30
0.0
 11
139.81329053089999
 21
101.1926488452
 31
0.0
  0
LINE
  5
ED
  8
UNIT-DIM
  6
CONTINUOUS
 62
     7
 10
139.81329053089999
 20
101.1926488452
 30
0.0
 11
144.16329053090001
 21
101.1926488452
 31
0.0
  0
INSERT
  5
EE
  8
UNIT-DIM
  6
CONTINUOUS
 62
     7
  2
_FILLED
 10
139.81329053089999
 20
79.185261326999992
 30
0.0
 41
4.0
 42
4.0
 43
4.0
 50
270.0
  0
INSERT
  5
EF
  8
UNIT-DIM
  6
CONTINUOUS
 62
     7
  2
_FILLED
 10
139.81329053089999
 20
88.560189389900003
 30
0.0
 41
4.0
 42
4.0
 43
4.0
 50
90.0
  0
ENDBLK
  5
F0
  8
0
  6
ByBlock
 62
     0
  0
BLOCK
  8
UNIT-DIM
  6
CONTINUOUS
 62
     7
  2
*D8
 70
     1
 10
0.0
 20
0.0
 30
0.0
  3
*D8
  1

  0
TEXT
  5
F3
  8
UNIT-DIM
  6
CONTINUOUS
 62
     7
 10
155.00217903596661
 20
106.9393895268
 30
0.0
 40
2.0
  1
45-3/8
 41
0.8
 72
     1
 11
159.53551236929999
 21
106.9393895268
 31
0.0
  0
TEXT
  5
F4
  8
UNIT-DIM
  6
CONTINUOUS
 62
     7
 10
167.53551236929999
 20
106.9393895268
 30
0.0
 40
2.0
  1
 
 41
0.8
 72
     1
 11
168.33551236930001
 21
106.9393895268
 31
0.0
  0
TEXT
  5
F5
  8
UNIT-DIM
  6
CONTINUOUS
 62
     7
 10
155.26884570263331
 20
103.9393895268
 30
0.0
 40
2.0
  1
[
 41
0.8
 72
     1
 11
155.53551236929999
 21
103.9393895268
 31
0.0
  0
TEXT
  5
F6
  8
UNIT-DIM
  6
CONTINUOUS
 62
     7
 10
157.66884570263329
 20
103.9393895268
 30
0.0
 40
2.0
  1
1152.5
 41
0.8
 72
     1
 11
161.13551236929999
 21
103.9393895268
 31
0.0
  0
TEXT
  5
F7
  8
UNIT-DIM
  6
CONTINUOUS
 62
     7
 10
166.4688457026333
 20
103.9393895268
 30
0.0
 40
2.0
  1
]
 41
0.8
 72
     1
 11
166.73551236930001
 21
103.9393895268
 31
0.0
  0
LINE
  5
F8
  8
UNIT-DIM
  6
CONTINUOUS
 62
     7
 10
125.21207467230001
 20
124.56018439330001
 30
0.0
 11
163.52301236930001
 21
124.56018439330001
 31
0.0
  0
LINE
  5
F9
  8
UNIT-DIM
  6
CONTINUOUS
 62
     7
 10
161.9355123693
 20
79.185261326999992
 30
0.0
 11
161.9355123693
 21
101.9393895268
 31
0.0
  0
LINE
  5
FA
  8
UNIT-DIM
  6
CONTINUOUS
 62
     7
 10
161.9355123693
 20
124.56018439330001
 30
0.0
 11
161.9355123693
 21
110.9393895268
 31
0.0
  0
INSERT
  5
FB
  8
UNIT-DIM
  6
CONTINUOUS
 62
     7
  2
_FILLED
 10
161.9355123693
 20
79.185261326999992
 30
0.0
 41
4.0
 42
4.0
 43
4.0
 50
270.0
  0
INSERT
  5
FC
  8
UNIT-DIM
  6
CONTINUOUS
 62
     7
  2
_FILLED
 10
161.9355123693
 20
124.56018439330001
 30
0.0
 41
4.0
 42
4.0
 43
4.0
 50
90.0
  0
ENDBLK
  5
FD
  8
0
  6
ByBlock
 62
     0
  0
BLOCK
  8
UNIT-DIM
  6
CONTINUOUS
 62
     7
  2
*D9
 70
     1
 10
0.0
 20
0.0
 30
0.0
  3
*D9
  1

  0
TEXT
  5
100
  8
UNIT-DIM
  6
CONTINUOUS
 62
     7
 10
2.3164251302666652
 20
106.8727599587
 30
0.0
 40
2.0
  1
57-3/8
 41
0.8
 72
     1
 11
6.8497584635999988
 21
106.8727599587
 31
0.0
  0
TEXT
  5
101
  8
UNIT-DIM
  6
CONTINUOUS
 62
     7
 10
14.849758463600001
 20
106.8727599587
 30
0.0
 40
2.0
  1
 
 41
0.8
 72
     1
 11
15.6497584636
 21
106.8727599587
 31
0.0
  0
TEXT
  5
102
  8
UNIT-DIM
  6
CONTINUOUS
 62
     7
 10
2.5830917969333331
 20
103.8727599587
 30
0.0
 40
2.0
  1
[
 41
0.8
 72
     1
 11
2.8497584636000002
 21
103.8727599587
 31
0.0
  0
TEXT
  5
103
  8
UNIT-DIM
  6
CONTINUOUS
 62
     7
 10
4.7164251302666669
 20
103.8727599587
 30
0.0
 40
2.0
  1
1457.3
 41
0.8
 72
     1
 11
8.4497584636000003
 21
103.8727599587
 31
0.0
  0
TEXT
  5
104
  8
UNIT-DIM
  6
CONTINUOUS
 62
     7
 10
13.783091796933331
 20
103.8727599587
 30
0.0
 40
2.0
  1
]
 41
0.8
 72
     1
 11
14.0497584636
 21
103.8727599587
 31
0.0
  0
LINE
  5
105
  8
UNIT-DIM
  6
CONTINUOUS
 62
     7
 10
11.415316754099999
 20
79.185261326999992
 30
0.0
 11
7.6622584635999988
 21
79.185261326999992
 31
0.0
  0
LINE
  5
106
  8
UNIT-DIM
  6
CONTINUOUS
 62
     7
 10
11.9476766294
 20
136.56025859030001
 30
0.0
 11
7.6622584635999988
 21
136.56025859030001
 31
0.0
  0
LINE
  5
107
  8
UNIT-DIM
  6
CONTINUOUS
 62
     7
 10
9.2497584635999992
 20
79.185261326999992
 30
0.0
 11
9.2497584635999992
 21
101.8727599587
 31
0.0
  0
LINE
  5
108
  8
UNIT-DIM
  6
CONTINUOUS
 62
     7
 10
9.2497584635999992
 20
136.56025859030001
 30
0.0
 11
9.2497584635999992
 21
110.8727599587
 31
0.0
  0
INSERT
  5
109
  8
UNIT-DIM
  6
CONTINUOUS
 62
     7
  2
_FILLED
 10
9.2497584635999992
 20
79.185261326999992
 30
0.0
 41
4.0
 42
4.0
 43
4.0
 50
270.0
  0
INSERT
  5
10A
  8
UNIT-DIM
  6
CONTINUOUS
 62
     7
  2
_FILLED
 10
9.2497584635999992
 20
136.56025859030001
 30
0.0
 41
4.0
 42
4.0
 43
4.0
 50
90.0
  0
ENDBLK
  5
10B
  8
0
  6
ByBlock
 62
     0
  0
BLOCK
  8
UNIT-DIM
  6
CONTINUOUS
 62
     7
  2
*D10
 70
     1
 10
0.0
 20
0.0
 30
0.0
  3
*D10
  1

  0
TEXT
  5
10E
  8
UNIT-DIM
  6
CONTINUOUS
 62
     7
 10
72.453749911766664
 20
37.874429177000003
 30
0.0
 40
2.0
  1
86-3/8
 41
0.8
 72
     1
 11
76.987083245099996
 21
37.874429177000003
 31
0.0
  0
TEXT
  5
10F
  8
UNIT-DIM
  6
CONTINUOUS
 62
     7
 10
84.320416578433324
 20
37.874429177000003
 30
0.0
 40
2.0
  1
[
 41
0.8
 72
     1
 11
84.587083245100004
 21
37.874429177000003
 31
0.0
  0
TEXT
  5
110
  8
UNIT-DIM
  6
CONTINUOUS
 62
     7
 10
86.453749911766664
 20
37.874429177000003
 30
0.0
 40
2.0
  1
2193.9
 41
0.8
 72
     1
 11
90.187083245099984
 21
37.874429177000003
 31
0.0
  0
TEXT
  5
111
  8
UNIT-DIM
  6
CONTINUOUS
 62
     7
 10
95.520416578433341
 20
37.874429177000003
 30
0.0
 40
2.0
  1
]
 41
0.8
 72
     1
 11
95.787083245100007
 21
37.874429177000003
 31
0.0
  0
TEXT
  5
112
  8
UNIT-DIM
  6
CONTINUOUS
 62
     7
 10
96.587083245100004
 20
37.874429177000003
 30
0.0
 40
2.0
  1
 
 41
0.8
 72
     1
 11
97.387083245100001
 21
37.874429177000003
 31
0.0
  0
LINE
  5
113
  8
UNIT-DIM
  6
CONTINUOUS
 62
     7
 10
128.37454211670001
 20
76.200813814300005
 30
0.0
 11
128.37454211670001
 21
37.286929176999998
 31
0.0
  0
LINE
  5
114
  8
UNIT-DIM
  6
CONTINUOUS
 62
     7
 10
41.999624373599993
 20
77.597761327000001
 30
0.0
 11
41.999624373599993
 21
37.286929176999998
 31
0.0
  0
LINE
  5
115
  8
UNIT-DIM
  6
CONTINUOUS
 62
     7
 10
128.37454211670001
 20
38.874429176999989
 30
0.0
 11
100.1870832451
 21
38.874429176999989
 31
0.0
  0
LINE
  5
116
  8
UNIT-DIM
  6
CONTINUOUS
 62
     7
 10
41.999624373599993
 20
38.874429176999989
 30
0.0
 11
70.187083245099998
 21
38.874429176999989
 31
0.0
  0
INSERT
  5
117
  8
UNIT-DIM
  6
CONTINUOUS
 62
     7
  2
_FILLED
 10
128.37454211670001
 20
38.874429176999989
 30
0.0
 41
4.0
 42
4.0
 43
4.0
  0
INSERT
  5
118
  8
UNIT-DIM
  6
CONTINUOUS
 62
     7
  2
_FILLED
 10
41.999624373599993
 20
38.874429176999989
 30
0.0
 41
4.0
 42
4.0
 43
4.0
 50
180.0
  0
ENDBLK
  5
119
  8
0
  6
ByBlock
 62
     0
  0
BLOCK
  8
CURB-24-DIM
  6
CONTINUOUS
 62
     6
  2
*D11
 70
     1
 10
0.0
 20
0.0
 30
0.0
  3
*D11
  1

  0
TEXT
  5
11C
  8
CURB-24-DIM
  6
CONTINUOUS
 62
     6
 10
9.9532678762666666
 20
73.07712388680001
 30
0.0
 40
2.0
  1
24
 41
0.8
 72
     1
 11
11.286601209600001
 21
73.07712388680001
 31
0.0
  0
TEXT
  5
11D
  8
CURB-24-DIM
  6
CONTINUOUS
 62
     6
 10
20.886601209599998
 20
73.07712388680001
 30
0.0
 40
2.0
  1
 
 41
0.8
 72
     1
 11
21.686601209599999
 21
73.07712388680001
 31
0.0
  0
TEXT
  5
11E
  8
CURB-24-DIM
  6
CONTINUOUS
 62
     6
 10
10.219934542933331
 20
70.07712388680001
 30
0.0
 40
2.0
  1
[
 41
0.8
 72
     1
 11
10.4866012096
 21
70.07712388680001
 31
0.0
  0
TEXT
  5
11F
  8
CURB-24-DIM
  6
CONTINUOUS
 62
     6
 10
12.219934542933331
 20
70.07712388680001
 30
0.0
 40
2.0
  1
609.5
 41
0.8
 72
     1
 11
15.286601209600001
 21
70.07712388680001
 31
0.0
  0
TEXT
  5
120
  8
CURB-24-DIM
  6
CONTINUOUS
 62
     6
 10
19.819934542933328
 20
70.07712388680001
 30
0.0
 40
2.0
  1
]
 41
0.8
 72
     1
 11
20.086601209600001
 21
70.07712388680001
 31
0.0
  0
LINE
  5
121
  8
CURB-24-DIM
  6
CONTINUOUS
 62
     6
 10
40.465886239200003
 20
58.186971296599999
 30
0.0
 11
14.4992011338
 21
58.186808008299998
 31
0.0
  0
LINE
  5
122
  8
CURB-24-DIM
  6
CONTINUOUS
 62
     6
 10
43.287311771399999
 20
82.183364332700009
 30
0.0
 11
32.140869911400003
 21
82.183294239600002
 31
0.0
  0
LINE
  5
123
  8
CURB-24-DIM
  6
CONTINUOUS
 62
     6
 10
30.025341822600002
 20
82.183280936400024
 30
0.0
 11
14.4990502356
 21
82.183183301300005
 31
0.0
  0
LINE
  5
124
  8
CURB-24-DIM
  6
CONTINUOUS
 62
     6
 10
16.086701133799998
 20
58.1868179911
 30
0.0
 11
16.086701133799998
 21
68.07712388680001
 31
0.0
  0
LINE
  5
125
  8
CURB-24-DIM
  6
CONTINUOUS
 62
     6
 10
16.086550235499999
 20
82.1831932841
 30
0.0
 11
16.086701133799998
 21
77.077123886799995
 31
0.0
  0
INSERT
  5
126
  8
CURB-24-DIM
  6
CONTINUOUS
 62
     6
  2
_FILLED
 10
16.086701133799998
 20
58.1868179911
 30
0.0
 41
4.0
 42
4.0
 43
4.0
 50
270.0
  0
INSERT
  5
127
  8
CURB-24-DIM
  6
CONTINUOUS
 62
     6
  2
_FILLED
 10
16.086550235499999
 20
82.1831932841
 30
0.0
 41
4.0
 42
4.0
 43
4.0
 50
90.001693246000016
  0
ENDBLK
  5
128
  8
0
  6
ByBlock
 62
     0
  0
BLOCK
  8
CURB-14-DIM
  6
CONTINUOUS
 62
     6
  2
*D12
 70
     1
 10
0.0
 20
0.0
 30
0.0
  3
*D12
  1

  0
TEXT
  5
12B
  8
CURB-14-DIM
  6
CONTINUOUS
 62
     6
 10
72.587898056899988
 20
44.697865082100002
 30
0.0
 40
2.0
  1
80-5/8
 41
0.8
 72
     1
 11
76.987898056899994
 21
44.697865082100002
 31
0.0
  0
TEXT
  5
12C
  8
CURB-14-DIM
  6
CONTINUOUS
 62
     6
 10
84.321231390233336
 20
44.697865082100002
 30
0.0
 40
2.0
  1
[
 41
0.8
 72
     1
 11
84.587898056900016
 21
44.697865082100002
 31
0.0
  0
TEXT
  5
12D
  8
CURB-14-DIM
  6
CONTINUOUS
 62
     6
 10
86.321231390233351
 20
44.697865082100002
 30
0.0
 40
2.0
  1
2047.9
 41
0.8
 72
     1
 11
90.187898056900011
 21
44.697865082100002
 31
0.0
  0
TEXT
  5
12E
  8
CURB-14-DIM
  6
CONTINUOUS
 62
     6
 10
95.521231390233339
 20
44.697865082100002
 30
0.0
 40
2.0
  1
]
 41
0.8
 72
     1
 11
95.787898056900005
 21
44.697865082100002
 31
0.0
  0
TEXT
  5
12F
  8
CURB-14-DIM
  6
CONTINUOUS
 62
     6
 10
96.587898056900002
 20
44.697865082100002
 30
0.0
 40
2.0
  1
 
 41
0.8
 72
     1
 11
97.387898056899999
 21
44.697865082100002
 31
0.0
  0
LINE
  5
130
  8
CURB-14-DIM
  6
CONTINUOUS
 62
     6
 10
125.4999252132
 20
79.348284636599999
 30
0.0
 11
125.4999252132
 21
44.110365082100003
 31
0.0
  0
LINE
  5
131
  8
CURB-14-DIM
  6
CONTINUOUS
 62
     6
 10
44.875870900599999
 20
79.409140818300003
 30
0.0
 11
44.875870900599999
 21
44.110365082100003
 31
0.0
  0
LINE
  5
132
  8
CURB-14-DIM
  6
CONTINUOUS
 62
     6
 10
125.4999252132
 20
45.697865082099987
 30
0.0
 11
100.1878980569
 21
45.697865082099987
 31
0.0
  0
LINE
  5
133
  8
CURB-14-DIM
  6
CONTINUOUS
 62
     6
 10
44.875870900599999
 20
45.697865082099987
 30
0.0
 11
70.187898056899996
 21
45.697865082099987
 31
0.0
  0
INSERT
  5
134
  8
CURB-14-DIM
  6
CONTINUOUS
 62
     6
  2
_FILLED
 10
125.4999252132
 20
45.697865082099987
 30
0.0
 41
4.0
 42
4.0
 43
4.0
  0
INSERT
  5
135
  8
CURB-14-DIM
  6
CONTINUOUS
 62
     6
  2
_FILLED
 10
44.875870900599999
 20
45.697865082099987
 30
0.0
 41
4.0
 42
4.0
 43
4.0
 50
180.0
  0
ENDBLK
  5
136
  8
0
  6
ByBlock
 62
     0
  0
BLOCK
  8
SERVCLRDIM
  6
CONTINUOUS
 62
     1
  2
*D13
 70
     1
 10
0.0
 20
0.0
 30
0.0
  3
*D13
  1

  0
TEXT
  5
139
  8
SERVCLRDIM
  6
CONTINUOUS
 62
     1
 10
138.61770833329999
 20
67.386891205300003
 30
0.0
 40
2.0
  1
OVERALL HEIGHT AND 
 41
0.8
  0
TEXT
  5
13A
  8
SERVCLRDIM
  6
CONTINUOUS
 62
     1
 10
138.61770833329999
 20
64.386891205300003
 30
0.0
 40
2.0
  1
CLEARANCE AREA WILL BE 
 41
0.8
  0
TEXT
  5
13B
  8
SERVCLRDIM
  6
CONTINUOUS
 62
     1
 10
138.61770833329999
 20
61.386891205299989
 30
0.0
 40
2.0
  1
DETERMINED BY ASSEMBLY OF 
 41
0.8
  0
TEXT
  5
13C
  8
SERVCLRDIM
  6
CONTINUOUS
 62
     1
 10
138.61770833329999
 20
58.386891205299989
 30
0.0
 40
2.0
  1
INSTALLER.  SEE CERTIFIED 
 41
0.8
  0
TEXT
  5
13D
  8
SERVCLRDIM
  6
CONTINUOUS
 62
     1
 10
138.61770833329999
 20
55.386891205299989
 30
0.0
 40
2.0
  1
DRAWING FOR FURTHER DETAIL.
 41
0.8
  0
LINE
  5
13E
  8
SERVCLRDIM
  6
CONTINUOUS
 62
     1
 10
130.07480216440001
 20
79.185261326999992
 30
0.0
 11
134.24104223579999
 21
79.185261326999992
 31
0.0
  0
LINE
  5
13F
  8
SERVCLRDIM
  6
CONTINUOUS
 62
     1
 10
127.08742521320001
 20
82.185784636600005
 30
0.0
 11
134.24104223579999
 21
82.185784636600005
 31
0.0
  0
LINE
  5
140
  8
SERVCLRDIM
  6
CONTINUOUS
 62
     1
 10
132.65354223579999
 20
79.185261326999992
 30
0.0
 11
132.65354223579999
 21
68.386891205300003
 31
0.0
  0
LINE
  5
141
  8
SERVCLRDIM
  6
CONTINUOUS
 62
     1
 10
132.65354223579999
 20
68.386891205300003
 30
0.0
 11
136.61770833329999
 21
68.386891205300003
 31
0.0
  0
LINE
  5
142
  8
SERVCLRDIM
  6
CONTINUOUS
 62
     1
 10
132.65354223579999
 20
82.185784636600005
 30
0.0
 11
132.65354223579999
 21
94.885784636599993
 31
0.0
  0
INSERT
  5
143
  8
SERVCLRDIM
  6
CONTINUOUS
 62
     1
  2
_FILLED
 10
132.65354223579999
 20
79.185261326999992
 30
0.0
 41
4.0
 42
4.0
 43
4.0
 50
90.0
  0
INSERT
  5
144
  8
SERVCLRDIM
  6
CONTINUOUS
 62
     1
  2
_FILLED
 10
132.65354223579999
 20
82.185784636600005
 30
0.0
 41
4.0
 42
4.0
 43
4.0
 50
270.0
  0
ENDBLK
  5
145
  8
0
  6
ByBlock
 62
     0
  0
ENDSEC
  0
SECTION
  2
ENTITIES
  0
DIMENSION
  5
146
  8
CURB-24-DIM
  6
CONTINUOUS
 62
     6
  2
*D1
 10
125.4999252132
 20
45.699075467699998
 30
0.0
 11
84.387898056899985
 21
45.699075467699998
 31
0.0
 70
   128
 13
44.875870900599999
 23
80.996640818299994
 33
0.0
 14
125.4999252132
 24
80.480289539899999
 34
0.0
  0
DIMENSION
  5
147
  8
SERVCLRDIM
  6
CONTINUOUS
 62
     1
  2
*D2
 10
0.0
 20
126.1128219827
 30
0.0
 11
22.276083373199999
 21
124.6128219827
 31
0.0
 70
   128
 13
41.999624373599993
 23
129.3884662852
 33
0.0
 14
0.0
 24
122.9378219827
 34
0.0
 50
180.0
  0
DIMENSION
  5
148
  8
SERVCLRDIM
  6
CONTINUOUS
 62
     1
  2
*D3
 10
170.37407716179999
 20
131.61327329150001
 30
0.0
 11
148.57430963920001
 21
130.11327329150001
 31
0.0
 70
   128
 13
128.37454211670001
 23
136.2028846154
 33
0.0
 14
170.37407716179999
 24
128.4382732915
 34
0.0
  0
DIMENSION
  5
149
  8
CURB-14-DIM
  6
CONTINUOUS
 62
     6
  2
*D4
 10
28.663860867099999
 20
68.184816856599994
 30
0.0
 11
27.86365162800001
 21
73.683853263199993
 31
0.0
 70
   128
 13
44.874811771399997
 23
82.183374315500004
 33
0.0
 14
44.554986079599999
 24
68.185291928300003
 34
0.0
 50
270.001712881
  0
DIMENSION
  5
14A
  8
UNIT-DIM
  6
CONTINUOUS
 62
     7
  2
*D5
 10
123.6245746723
 20
52.377917807899998
 30
0.0
 11
100.618581144
 21
52.377917807899998
 31
0.0
 70
   128
 13
128.37454211670001
 23
78.956978430600003
 33
0.0
 14
123.6245746723
 24
88.560189389900003
 34
0.0
 50
180.0
  0
DIMENSION
  5
14B
  8
UNIT-DIM
  6
CONTINUOUS
 62
     7
  2
*D6
 10
123.6245746723
 20
118.4223353614
 30
0.0
 11
144.22779586690001
 21
116.9223353614
 31
0.0
 70
   128
 13
128.37454211670001
 23
130.23142518680001
 33
0.0
 14
123.6245746723
 24
124.56018439330001
 34
0.0
 50
180.0
  0
DIMENSION
  5
14C
  8
UNIT-DIM
  6
CONTINUOUS
 62
     7
  2
*D7
 10
139.81329053089999
 20
88.560189389900003
 30
0.0
 11
151.76329053090001
 21
99.692648845200011
 31
0.0
 70
   128
 13
128.37454211670001
 23
79.185261326999992
 33
0.0
 14
123.6245746723
 24
88.560189389900003
 34
0.0
 50
90.0
  0
DIMENSION
  5
14D
  8
UNIT-DIM
  6
CONTINUOUS
 62
     7
  2
*D8
 10
161.9355123693
 20
124.56018439330001
 30
0.0
 11
161.13551236929999
 21
106.4393895268
 31
0.0
 70
   128
 13
170.37407716179999
 23
79.185261326999992
 33
0.0
 14
123.6245746723
 24
124.56018439330001
 34
0.0
 50
90.0
  0
DIMENSION
  5
14E
  8
UNIT-DIM
  6
CONTINUOUS
 62
     7
  2
*D9
 10
9.2497584635999992
 20
136.56025859030001
 30
0.0
 11
8.4497584636000003
 21
106.3727599587
 31
0.0
 70
   128
 13
13.002816754099999
 23
79.185261326999992
 33
0.0
 14
13.5351766294
 24
136.56025859030001
 34
0.0
 50
90.0
  0
DIMENSION
  5
14F
  8
UNIT-DIM
  6
CONTINUOUS
 62
     7
  2
*D10
 10
41.999624373599993
 20
38.874429176999989
 30
0.0
 11
84.387083245100015
 21
38.874429176999989
 31
0.0
 70
   128
 13
128.37454211670001
 23
77.788313814299997
 33
0.0
 14
41.999624373599993
 24
79.185261326999992
 34
0.0
 50
180.0
  0
DIMENSION
  5
150
  8
CURB-24-DIM
  6
CONTINUOUS
 62
     6
  2
*D11
 10
16.086550235499999
 20
82.1831932841
 30
0.0
 11
15.286601209600001
 21
72.57712388680001
 31
0.0
 70
   128
 13
42.053386239200002
 23
58.186981279399987
 33
0.0
 14
44.874811771399997
 24
82.183374315500004
 34
0.0
 50
90.000360297399993
  0
DIMENSION
  5
151
  8
CURB-14-DIM
  6
CONTINUOUS
 62
     6
  2
*D12
 10
44.875870900599999
 20
45.697865082099987
 30
0.0
 11
84.387898056899985
 21
45.697865082099987
 31
0.0
 70
   128
 13
125.4999252132
 23
80.935784636600005
 33
0.0
 14
44.875870900599999
 24
80.996640818299994
 34
0.0
 50
180.0
  0
DIMENSION
  5
152
  8
SERVCLRDIM
  6
CONTINUOUS
 62
     1
  2
*D13
 10
132.65354223579999
 20
82.185784636600005
 30
0.0
 11
160.21770833330001
 21
62.386891205300003
 31
0.0
 70
   128
 13
128.48730216440001
 23
79.185261326999992
 33
0.0
 14
125.4999252132
 24
82.185784636600005
 34
0.0
 50
90.0
  0
LINE
  5
153
  8
NOTES
  6
CONTINUOUS
 62
     1
 10
0.0
 20
0.0
 30
0.0
 11
48.0
 21
0.0
 31
0.0
  0
LINE
  5
154
  8
NOTES
  6
CONTINUOUS
 62
     1
 10
0.0
 20
0.0
 30
0.0
 11
0.0
 21
36.5
 31
0.0
  0
LINE
  5
155
  8
NOTES
  6
CONTINUOUS
 62
     1
 10
0.0
 20
4.0
 30
0.0
 11
48.0
 21
4.0
 31
0.0
  0
LINE
  5
156
  8
NOTES
  6
CONTINUOUS
 62
     1
 10
0.0
 20
4.5
 30
0.0
 11
48.0
 21
4.5
 31
0.0
  0
LINE
  5
157
  8
NOTES
  6
CONTINUOUS
 62
     1
 10
0.0
 20
8.5
 30
0.0
 11
48.0
 21
8.5
 31
0.0
  0
LINE
  5
158
  8
NOTES
  6
CONTINUOUS
 62
     1
 10
0.0
 20
12.5
 30
0.0
 11
48.0
 21
12.5
 31
0.0
  0
LINE
  5
159
  8
NOTES
  6
CONTINUOUS
 62
     1
 10
0.0
 20
16.5
 30
0.0
 11
48.0
 21
16.5
 31
0.0
  0
LINE
  5
15A
  8
NOTES
  6
CONTINUOUS
 62
     1
 10
0.0
 20
20.5
 30
0.0
 11
48.0
 21
20.5
 31
0.0
  0
LINE
  5
15B
  8
NOTES
  6
CONTINUOUS
 62
     1
 10
0.0
 20
24.5
 30
0.0
 11
48.0
 21
24.5
 31
0.0
  0
LINE
  5
15C
  8
NOTES
  6
CONTINUOUS
 62
     1
 10
0.0
 20
28.5
 30
0.0
 11
48.0
 21
28.5
 31
0.0
  0
LINE
  5
15D
  8
NOTES
  6
CONTINUOUS
 62
     1
 10
0.0
 20
32.5
 30
0.0
 11
48.0
 21
32.5
 31
0.0
  0
LINE
  5
15E
  8
NOTES
  6
CONTINUOUS
 62
     1
 10
0.0
 20
36.5
 30
0.0
 11
48.0
 21
36.5
 31
0.0
  0
LINE
  5
15F
  8
NOTES
  6
CONTINUOUS
 62
     1
 10
16.0
 20
12.5
 30
0.0
 11
16.0
 21
36.5
 31
0.0
  0
LINE
  5
160
  8
NOTES
  6
CONTINUOUS
 62
     1
 10
48.0
 20
0.0
 30
0.0
 11
48.0
 21
36.5
 31
0.0
  0
TEXT
  5
161
  8
NOTES
  6
CONTINUOUS
 62
     1
 10
0.8
 20
1.0
 30
0.0
 40
2.0
  1
VIEW: LEFT
 41
0.8
  0
TEXT
  5
162
  8
NOTES
  6
CONTINUOUS
 62
     1
 10
0.8
 20
5.5
 30
0.0
 40
2.0
  1
FILE NAME: 
 41
0.8
  0
TEXT
  5
163
  8
NOTES
  6
CONTINUOUS
 62
     1
 10
18.399999999999999
 20
5.5
 30
0.0
 40
2.0
  1
TMP89-L-
 41
0.8
  0
TEXT
  5
164
  8
NOTES
  6
CONTINUOUS
 62
     1
 10
17.066666666666659
 20
9.5
 30
0.0
 40
2.0
  1
LAYER KEY
 41
0.8
 72
     1
 11
24.0
 21
9.5
 31
0.0
  0
TEXT
  5
165
  8
NOTES
  6
CONTINUOUS
 62
     7
 10
2.6666666666666661
 20
13.5
 30
0.0
 40
2.0
  1
-
 41
8.0
  7
TEXTSTYLE_2
 72
     1
 11
8.0
 21
13.5
 31
0.0
  0
TEXT
  5
166
  8
NOTES
  6
CONTINUOUS
 62
     1
 10
16.800000000000001
 20
13.5
 30
0.0
 40
2.0
  1
UNIT
 41
0.8
  0
TEXT
  5
167
  8
NOTES
  6
CONTINUOUS
 62
     6
 10
2.6666666666666661
 20
17.5
 30
0.0
 40
2.0
  1
-
 41
8.0
  7
TEXTSTYLE_2
 72
     1
 11
8.0
 21
17.5
 31
0.0
  0
TEXT
  5
168
  8
NOTES
  6
CONTINUOUS
 62
     1
 10
16.800000000000001
 20
17.5
 30
0.0
 40
2.0
  1
ROOF CURB
 41
0.8
  0
TEXT
  5
169
  8
NOTES
  6
CONTINUOUS
 62
     1
 10
2.6666666666666661
 20
21.5
 30
0.0
 40
2.0
  1
-
 41
8.0
  7
TEXTSTYLE_2
 72
     1
 11
8.0
 21
21.5
 31
0.0
  0
TEXT
  5
16A
  8
NOTES
  6
CONTINUOUS
 62
     1
 10
16.800000000000001
 20
21.5
 30
0.0
 40
2.0
  1
SERVICE CLEARANCE
 41
0.8
  0
TEXT
  5
16B
  8
NOTES
  6
CONTINUOUS
 62
     2
 10
2.6666666666666661
 20
25.5
 30
0.0
 40
2.0
  1
-
 41
8.0
  7
TEXTSTYLE_2
 72
     1
 11
8.0
 21
25.5
 31
0.0
  0
TEXT
  5
16C
  8
NOTES
  6
CONTINUOUS
 62
     1
 10
16.800000000000001
 20
25.5
 30
0.0
 40
2.0
  1
UNIT DUCTS
 41
0.8
  0
TEXT
  5
16D
  8
NOTES
  6
CONTINUOUS
 62
     5
 10
2.6666666666666661
 20
29.5
 30
0.0
 40
2.0
  1
-
 41
8.0
  7
TEXTSTYLE_2
 72
     1
 11
8.0
 21
29.5
 31
0.0
  0
TEXT
  5
16E
  8
NOTES
  6
CONTINUOUS
 62
     1
 10
16.800000000000001
 20
29.5
 30
0.0
 40
2.0
  1
CURB DUCTS
 41
0.8
  0
TEXT
  5
16F
  8
NOTES
  6
HIDDEN
 62
     8
 10
2.6666666666666661
 20
33.5
 30
0.0
 40
2.0
  1
-
 41
8.0
  7
TEXTSTYLE_2
 72
     1
 11
8.0
 21
33.5
 31
0.0
  0
TEXT
  5
170
  8
NOTES
  6
CONTINUOUS
 62
     1
 10
16.800000000000001
 20
33.5
 30
0.0
 40
2.0
  1
UNIT HIDDEN
 41
0.8
  0
TEXT
  5
171
  8
NOTES
  6
CONTINUOUS
 62
     1
 10
16.5627243705
 20
150.22172007349999
 30
0.0
 40
2.0
  1
1 3/8" DIA [35] FIELD POWER SUPPLY KNOCKOUT
 41
0.8
  0
TEXT
  5
172
  8
NOTES
  6
CONTINUOUS
 62
     1
 10
16.5627243705
 20
147.22172007349999
 30
0.0
 40
2.0
  1
3" DIA [76] FIELD POWER SUPPLY KNOCKOUT
 41
0.8
  0
TEXT
  5
173
  8
NOTES
  6
CONTINUOUS
 62
     1
 10
16.5627243705
 20
144.22172007349999
 30
0.0
 40
2.0
  1
3 5/8" DIA [92] FIELD POWER SUPPLY KNOCKOUT
 41
0.8
  0
LINE
  5
174
  8
NOTES
  6
CONTINUOUS
 62
     1
 10
122.82238411420001
 20
90.181942810599992
 30
0.0
 11
89.569482879099994
 21
151.22172007349999
 31
0.0
  0
LINE
  5
175
  8
NOTES
  6
CONTINUOUS
 62
     1
 10
89.569482879099994
 20
151.22172007349999
 30
0.0
 11
85.362724370500004
 21
151.22172007349999
 31
0.0
  0
SOLID
  5
176
  8
NOTES
  6
CONTINUOUS
 62
     1
 10
120.25020748350001
 20
93.33573534979999
 30
0.0
 11
122.82238411420001
 21
90.181942810599992
 31
0.0
 12
121.5674273443
 22
94.053322862399995
 32
0.0
 13
121.5674273443
 23
94.053322862399995
 33
0.0
  0
TEXT
  5
177
  8
NOTES
  6
CONTINUOUS
 62
     1
 10
32.797627314499998
 20
157.22328049410001
 30
0.0
 40
2.0
  1
7/8" DIA [22] FIELD CONTROL WIRING HOLE
 41
0.8
  0
LINE
  5
178
  8
NOTES
  6
CONTINUOUS
 62
     1
 10
123.3917167882
 20
124.9344201561
 30
0.0
 11
100.0636038169
 21
158.22328049410001
 31
0.0
  0
LINE
  5
179
  8
NOTES
  6
CONTINUOUS
 62
     1
 10
100.0636038169
 20
158.22328049410001
 30
0.0
 11
95.197627314500011
 21
158.22328049410001
 31
0.0
  0
SOLID
  5
17A
  8
NOTES
  6
CONTINUOUS
 62
     1
 10
120.4819572558
 20
127.7797319955
 30
0.0
 11
123.3917167882
 21
124.9344201561
 31
0.0
 12
121.71035577719999
 22
128.64056709740001
 32
0.0
 13
121.71035577719999
 23
128.64056709740001
 33
0.0
  0
LINE
  5
17B
  8
SERVCLEAR
  6
DASHED
 62
     1
 10
0.0
 20
79.185261326999992
 30
0.0
 11
0.0
 21
136.56025859030001
 31
0.0
  0
LINE
  5
17C
  8
0
  6
CONTINUOUS
 62
     7
 10
0.0
 20
0.0
 30
0.0
 11
0.0
 21
175.0
 31
0.0
  0
LINE
  5
17D
  8
0
  6
CONTINUOUS
 62
     7
 10
0.0
 20
0.0
 30
0.0
 11
200.0
 21
0.0
 31
0.0
  0
LINE
  5
17E
  8
UNIT-SOL
  6
CONTINUOUS
 62
     7
 10
41.999624373599993
 20
79.185261326999992
 30
0.0
 11
41.999624373599993
 21
136.56025859030001
 31
0.0
  0
LINE
  5
17F
  8
SERVCLEAR
  6
DASHED
 62
     1
 10
42.0
 20
79.185261326999992
 30
0.0
 11
42.0
 21
136.56025859030001
 31
0.0
  0
POLYLINE
  5
180
  8
CURB-24
  6
DOT
 62
     6
 66
     1
 10
0.0
 20
0.0
 30
0.0
 40
0.0098425196
 41
0.0098425196
  0
VERTEX
  5
233
  8
CURB-24
  6
DOT
 62
     6
 10
44.875870900599999
 20
80.996640818299994
 30
0.0
  0
VERTEX
  5
234
  8
CURB-24
  6
DOT
 62
     6
 10
44.874811771399997
 20
82.183374315500004
 30
0.0
  0
SEQEND
  5
235
  8
CURB-24
  6
DOT
 62
     6
  0
POLYLINE
  5
184
  8
CURB-14
  6
DOT
 62
     6
 66
     1
 10
0.0
 20
0.0
 30
0.0
 40
0.0098425196
 41
0.0098425196
  0
VERTEX
  5
236
  8
CURB-14
  6
DOT
 62
     6
 10
44.875870900599999
 20
80.996640818299994
 30
0.0
  0
VERTEX
  5
237
  8
CURB-14
  6
DOT
 62
     6
 10
44.874811771399997
 20
82.183374315500004
 30
0.0
  0
SEQEND
  5
238
  8
CURB-14
  6
DOT
 62
     6
  0
POLYLINE
  5
188
  8
CURB-24
  6
CONTINUOUS
 62
     6
 66
     1
 10
0.0
 20
0.0
 30
0.0
 40
0.0118110234
 41
0.0118110234
  0
VERTEX
  5
239
  8
CURB-24
  6
CONTINUOUS
 62
     6
 10
46.626364213999999
 20
79.185261326999992
 30
0.0
  0
VERTEX
  5
23A
  8
CURB-24
  6
CONTINUOUS
 62
     6
 10
46.632082909799998
 20
58.186990573499997
 30
0.0
  0
SEQEND
  5
23B
  8
CURB-24
  6
CONTINUOUS
 62
     6
  0
POLYLINE
  5
18C
  8
CURB-14
  6
CONTINUOUS
 62
     6
 66
     1
 10
0.0
 20
0.0
 30
0.0
 40
0.0118110234
 41
0.0118110234
  0
VERTEX
  5
23C
  8
CURB-14
  6
CONTINUOUS
 62
     6
 10
46.626364213999999
 20
79.185261326999992
 30
0.0
  0
VERTEX
  5
23D
  8
CURB-14
  6
CONTINUOUS
 62
     6
 10
46.629359968000003
 20
68.185261326999992
 30
0.0
  0
SEQEND
  5
23E
  8
CURB-14
  6
CONTINUOUS
 62
     6
  0
LINE
  5
190
  8
HOODS
  6
CONTINUOUS
 62
     7
 10
43.377413556800001
 20
126.293971086
 30
0.0
 11
43.377413556800001
 21
107.2291559576
 31
0.0
  0
POLYLINE
  5
191
  8
CURB-14
  6
DOT
 62
     6
 66
     1
 10
0.0
 20
0.0
 30
0.0
 40
0.0098425196
 41
0.0098425196
  0
VERTEX
  5
23F
  8
CURB-14
  6
DOT
 62
     6
 10
46.626364213999999
 20
79.185261326999992
 30
0.0
  0
VERTEX
  5
240
  8
CURB-14
  6
DOT
 62
     6
 10
46.626364213999999
 20
81.037979990300002
 30
0.0
  0
SEQEND
  5
241
  8
CURB-14
  6
DOT
 62
     6
  0
POLYLINE
  5
195
  8
CURB-24
  6
DOT
 62
     6
 66
     1
 10
0.0
 20
0.0
 30
0.0
 40
0.0098425196
 41
0.0098425196
  0
VERTEX
  5
242
  8
CURB-24
  6
DOT
 62
     6
 10
46.626364213999999
 20
79.185261326999992
 30
0.0
  0
VERTEX
  5
243
  8
CURB-24
  6
DOT
 62
     6
 10
46.626364213999999
 20
81.037979990300002
 30
0.0
  0
SEQEND
  5
244
  8
CURB-24
  6
DOT
 62
     6
  0
LINE
  5
199
  8
HOODS
  6
CONTINUOUS
 62
     7
 10
58.504964217399987
 20
83.414986973200001
 30
0.0
 11
58.504964217399987
 21
106.7291559576
 31
0.0
  0
POLYLINE
  5
19A
  8
CURB-24
  6
CONTINUOUS
 62
     6
 66
     1
 10
0.0
 20
0.0
 30
0.0
 40
0.0098425196
 41
0.0098425196
  0
VERTEX
  5
245
  8
CURB-24
  6
CONTINUOUS
 62
     6
 10
43.531374373600002
 20
58.186990573499997
 30
0.0
  0
VERTEX
  5
246
  8
CURB-24
  6
CONTINUOUS
 62
     6
 10
126.7499252132
 20
58.187513883100003
 30
0.0
  0
SEQEND
  5
247
  8
CURB-24
  6
CONTINUOUS
 62
     6
  0
POLYLINE
  5
19E
  8
CURB-14
  6
CONTINUOUS
 62
     6
 66
     1
 10
0.0
 20
0.0
 30
0.0
 40
0.0098425196
 41
0.0098425196
  0
VERTEX
  5
248
  8
CURB-14
  6
CONTINUOUS
 62
     6
 10
43.531374373600002
 20
68.185261326999992
 30
0.0
  0
VERTEX
  5
249
  8
CURB-14
  6
CONTINUOUS
 62
     6
 10
126.7499252132
 20
68.185784636600005
 30
0.0
  0
SEQEND
  5
24A
  8
CURB-14
  6
CONTINUOUS
 62
     6
  0
LINE
  5
1A2
  8
SERVCLEAR
  6
DASHED
 62
     1
 10
170.37407716179999
 20
79.185261326999992
 30
0.0
 11
128.37407716179999
 21
79.185261326999992
 31
0.0
  0
LINE
  5
1A3
  8
UNIT-SOL
  6
CONTINUOUS
 62
     7
 10
128.37454211670001
 20
79.185261326999992
 30
0.0
 11
41.999624373599993
 21
79.185261326999992
 31
0.0
  0
LINE
  5
1A4
  8
SERVCLEAR
  6
DASHED
 62
     1
 10
42.0
 20
79.185261326999992
 30
0.0
 11
0.0
 21
79.185261326999992
 31
0.0
  0
POLYLINE
  5
1A5
  8
CURB-24
  6
DOT
 62
     6
 66
     1
 10
0.0
 20
0.0
 30
0.0
 40
0.0098425196
 41
0.0098425196
  0
VERTEX
  5
24B
  8
CURB-24
  6
DOT
 62
     6
 10
125.4999252132
 20
80.935784636600005
 30
0.0
  0
VERTEX
  5
24C
  8
CURB-24
  6
DOT
 62
     6
 10
44.875870900599999
 20
80.996640818299994
 30
0.0
  0
SEQEND
  5
24D
  8
CURB-24
  6
DOT
 62
     6
  0
POLYLINE
  5
1A9
  8
CURB-14
  6
DOT
 62
     6
 66
     1
 10
0.0
 20
0.0
 30
0.0
 40
0.0098425196
 41
0.0098425196
  0
VERTEX
  5
24E
  8
CURB-14
  6
DOT
 62
     6
 10
125.4999252132
 20
80.935784636600005
 30
0.0
  0
VERTEX
  5
24F
  8
CURB-14
  6
DOT
 62
     6
 10
44.875870900599999
 20
80.996640818299994
 30
0.0
  0
SEQEND
  5
250
  8
CURB-14
  6
DOT
 62
     6
  0
POLYLINE
  5
1AD
  8
CURB-24
  6
DOT
 62
     6
 66
     1
 10
0.0
 20
0.0
 30
0.0
 40
0.0098425196
 41
0.0098425196
  0
VERTEX
  5
251
  8
CURB-24
  6
DOT
 62
     6
 10
44.874811771399997
 20
82.183374315500004
 30
0.0
  0
VERTEX
  5
252
  8
CURB-24
  6
DOT
 62
     6
 10
125.4999252132
 20
82.185784636600005
 30
0.0
  0
SEQEND
  5
253
  8
CURB-24
  6
DOT
 62
     6
  0
POLYLINE
  5
1B1
  8
CURB-14
  6
DOT
 62
     6
 66
     1
 10
0.0
 20
0.0
 30
0.0
 40
0.0098425196
 41
0.0098425196
  0
VERTEX
  5
254
  8
CURB-14
  6
DOT
 62
     6
 10
44.874811771399997
 20
82.183374315500004
 30
0.0
  0
VERTEX
  5
255
  8
CURB-14
  6
DOT
 62
     6
 10
125.4999252132
 20
82.185784636600005
 30
0.0
  0
SEQEND
  5
256
  8
CURB-14
  6
DOT
 62
     6
  0
LINE
  5
1B5
  8
HOODS
  6
CONTINUOUS
 62
     7
 10
101.1577124878
 20
83.414986973200001
 30
0.0
 11
58.504964217399987
 21
83.414986973200001
 31
0.0
  0
LINE
  5
1B6
  8
HOODS
  6
CONTINUOUS
 62
     7
 10
101.1577124878
 20
83.414986973200001
 30
0.0
 11
101.1577124878
 21
106.7291559576
 31
0.0
  0
LINE
  5
1B7
  8
UNIT-SOL
  6
CONTINUOUS
 62
     7
 10
122.259352667
 20
87.940229820499994
 30
0.0
 11
121.9899027204
 21
87.784662821299989
 31
0.0
  0
LINE
  5
1B8
  8
UNIT-SOL
  6
CONTINUOUS
 62
     7
 10
122.4050629332
 20
87.687852236200015
 30
0.0
 11
122.13561298659999
 21
87.532285237099984
 31
0.0
  0
LINE
  5
1B9
  8
HOODS
  6
CONTINUOUS
 62
     7
 10
58.5385251485
 20
98.438644194399998
 30
0.0
 11
101.0677534519
 21
98.438644194399998
 31
0.0
  0
LINE
  5
1BA
  8
UNIT-SOL
  6
CONTINUOUS
 62
     7
 10
124.8440864114
 20
87.687852236200015
 30
0.0
 11
125.113536358
 21
87.532285237099984
 31
0.0
  0
LINE
  5
1BB
  8
UNIT-SOL
  6
CONTINUOUS
 62
     7
 10
124.9897966776
 20
87.940229820499994
 30
0.0
 11
125.2592466242
 21
87.784662821299989
 31
0.0
  0
LINE
  5
1BC
  8
HOODS
  6
CONTINUOUS
 62
     7
 10
116.2565975774
 20
107.2291559576
 30
0.0
 11
116.2565975774
 21
126.293971086
 31
0.0
  0
LINE
  5
1BD
  8
HOODS
  6
CONTINUOUS
 62
     7
 10
101.1577124878
 20
106.7291559576
 30
0.0
 11
58.504964217399987
 21
106.7291559576
 31
0.0
  0
LINE
  5
1BE
  8
HOODS
  6
CONTINUOUS
 62
     7
 10
116.2565975774
 20
107.2291559576
 30
0.0
 11
43.377413556800001
 21
107.2291559576
 31
0.0
  0
LINE
  5
1BF
  8
HOODS
  6
CONTINUOUS
 62
     7
 10
43.377413556800001
 20
109.8380521128
 30
0.0
 11
116.2565975774
 21
109.8380521128
 31
0.0
  0
LINE
  5
1C0
  8
UNIT-SOL
  6
CONTINUOUS
 62
     7
 10
123.4788644061
 20
90.363620111399996
 30
0.0
 11
123.4788644061
 21
90.052486113099988
 31
0.0
  0
POLYLINE
  5
1C1
  8
CURB-24
  6
CONTINUOUS
 62
     6
 66
     1
 10
0.0
 20
0.0
 30
0.0
 40
0.0118110234
 41
0.0118110234
  0
VERTEX
  5
257
  8
CURB-24
  6
CONTINUOUS
 62
     6
 10
123.7499252132
 20
79.185784636600005
 30
0.0
  0
VERTEX
  5
258
  8
CURB-24
  6
CONTINUOUS
 62
     6
 10
123.7499252132
 20
58.187513883100003
 30
0.0
  0
SEQEND
  5
259
  8
CURB-24
  6
CONTINUOUS
 62
     6
  0
POLYLINE
  5
1C5
  8
CURB-14
  6
CONTINUOUS
 62
     6
 66
     1
 10
0.0
 20
0.0
 30
0.0
 40
0.0118110234
 41
0.0118110234
  0
VERTEX
  5
25A
  8
CURB-14
  6
CONTINUOUS
 62
     6
 10
123.7499252132
 20
79.185784636600005
 30
0.0
  0
VERTEX
  5
25B
  8
CURB-14
  6
CONTINUOUS
 62
     6
 10
123.7499252132
 20
68.185784636600005
 30
0.0
  0
SEQEND
  5
25C
  8
CURB-14
  6
CONTINUOUS
 62
     6
  0
POLYLINE
  5
1C9
  8
CURB-14
  6
DOT
 62
     6
 66
     1
 10
0.0
 20
0.0
 30
0.0
 40
0.0098425196
 41
0.0098425196
  0
VERTEX
  5
25D
  8
CURB-14
  6
DOT
 62
     6
 10
123.7499252132
 20
79.185784636600005
 30
0.0
  0
VERTEX
  5
25E
  8
CURB-14
  6
DOT
 62
     6
 10
123.7499252132
 20
81.038503299799999
 30
0.0
  0
SEQEND
  5
25F
  8
CURB-14
  6
DOT
 62
     6
  0
POLYLINE
  5
1CD
  8
CURB-24
  6
DOT
 62
     6
 66
     1
 10
0.0
 20
0.0
 30
0.0
 40
0.0098425196
 41
0.0098425196
  0
VERTEX
  5
260
  8
CURB-24
  6
DOT
 62
     6
 10
123.7499252132
 20
79.185784636600005
 30
0.0
  0
VERTEX
  5
261
  8
CURB-24
  6
DOT
 62
     6
 10
123.7499252132
 20
81.038503299799999
 30
0.0
  0
SEQEND
  5
262
  8
CURB-24
  6
DOT
 62
     6
  0
LINE
  5
1D1
  8
UNIT-SOL
  6
CONTINUOUS
 62
     7
 10
123.7702849385
 20
90.363620111399996
 30
0.0
 11
123.7702849385
 21
90.052486113099988
 31
0.0
  0
POLYLINE
  5
1D2
  8
CURB-24
  6
DOT
 62
     6
 66
     1
 10
0.0
 20
0.0
 30
0.0
 40
0.0098425196
 41
0.0098425196
  0
VERTEX
  5
263
  8
CURB-24
  6
DOT
 62
     6
 10
125.4999252132
 20
82.185784636600005
 30
0.0
  0
VERTEX
  5
264
  8
CURB-24
  6
DOT
 62
     6
 10
125.4999252132
 20
80.935784636600005
 30
0.0
  0
SEQEND
  5
265
  8
CURB-24
  6
DOT
 62
     6
  0
POLYLINE
  5
1D6
  8
CURB-14
  6
DOT
 62
     6
 66
     1
 10
0.0
 20
0.0
 30
0.0
 40
0.0098425196
 41
0.0098425196
  0
VERTEX
  5
266
  8
CURB-14
  6
DOT
 62
     6
 10
125.4999252132
 20
82.185784636600005
 30
0.0
  0
VERTEX
  5
267
  8
CURB-14
  6
DOT
 62
     6
 10
125.4999252132
 20
80.935784636600005
 30
0.0
  0
SEQEND
  5
268
  8
CURB-14
  6
DOT
 62
     6
  0
LINE
  5
1DA
  8
SERVCLEAR
  6
DASHED
 62
     1
 10
128.37407716179999
 20
136.56025859030001
 30
0.0
 11
128.37407716179999
 21
79.185261326999992
 31
0.0
  0
LINE
  5
1DB
  8
UNIT-SOL
  6
CONTINUOUS
 62
     7
 10
128.37454211670001
 20
136.56025859030001
 30
0.0
 11
128.37454211670001
 21
79.185261326999992
 31
0.0
  0
LINE
  5
1DC
  8
HOODS
  6
CONTINUOUS
 62
     7
 10
43.377413556800001
 20
126.293971086
 30
0.0
 11
116.2565975774
 21
126.293971086
 31
0.0
  0
LINE
  5
1DD
  8
SERVCLEAR
  6
DASHED
 62
     1
 10
0.0
 20
136.56025859030001
 30
0.0
 11
42.0
 21
136.56025859030001
 31
0.0
  0
LINE
  5
1DE
  8
UNIT-SOL
  6
CONTINUOUS
 62
     7
 10
41.999624373599993
 20
136.56025859030001
 30
0.0
 11
128.37454211670001
 21
136.56025859030001
 31
0.0
  0
LINE
  5
1DF
  8
SERVCLEAR
  6
DASHED
 62
     1
 10
128.37407716179999
 20
136.56025859030001
 30
0.0
 11
170.37407716179999
 21
136.56025859030001
 31
0.0
  0
LINE
  5
1E0
  8
SERVCLEAR
  6
DASHED
 62
     1
 10
170.37407716179999
 20
136.56025859030001
 30
0.0
 11
170.37407716179999
 21
79.185261326999992
 31
0.0
  0
LINE
  5
1E1
  8
0
  6
CONTINUOUS
 62
     7
 10
0.0
 20
175.0
 30
0.0
 11
200.0
 21
175.0
 31
0.0
  0
LINE
  5
1E2
  8
0
  6
CONTINUOUS
 62
     7
 10
200.0
 20
0.0
 30
0.0
 11
200.0
 21
175.0
 31
0.0
  0
CIRCLE
  5
1E3
  8
UNIT-SOL
  6
CONTINUOUS
 62
     7
 10
123.6245746723
 20
88.560189389900003
 30
0.0
 40
1.8093075605999991
  0
CIRCLE
  5
1E4
  8
UNIT-SOL
  6
CONTINUOUS
 62
     7
 10
123.6245746723
 20
88.560189389900003
 30
0.0
 40
1.499393541299999
  0
CIRCLE
  5
1E5
  8
UNIT-SOL
  6
CONTINUOUS
 62
     7
 10
123.6245746723
 20
88.560189389900003
 30
0.0
 40
0.6796463637000001
  0
CIRCLE
  5
1E6
  8
UNIT-SOL
  6
CONTINUOUS
 62
     7
 10
123.6245746723
 20
124.56018439330001
 30
0.0
 40
0.4407666053
  0
ENDSEC
  0
EOF
