  0
SECTION
  2
HEADER
  9
$ACADVER
  1
AC1009
  9
$INSBASE
 10
0.0
 20
0.0
 30
0.0
  9
$EXTMIN
 10
-0.0091545749561419
 20
-0.0076288124635084
 30
-0.0015258207003583
  9
$EXTMAX
 10
300.00915597194012
 20
250.0076299766167
 30
0.0000000349246037
  9
$LIMMIN
 10
0.0
 20
0.0
  9
$LIMMAX
 10
300.0
 20
250.0
  9
$ORTHOMODE
 70
     0
  9
$REGENMODE
 70
     1
  9
$FILLMODE
 70
     1
  9
$QTEXTMODE
 70
     0
  9
$MIRRTEXT
 70
     0
  9
$DRAGMODE
 70
     2
  9
$LTSCALE
 40
16.5
  9
$OSMODE
 70
    37
  9
$ATTMODE
 70
     1
  9
$TEXTSIZE
 40
0.2
  9
$TRACEWID
 40
0.05
  9
$TEXTSTYLE
  7
STANDARD
  9
$CLAYER
  8
0
  9
$CELTYPE
  6
ByLayer
  9
$CECOLOR
 62
   256
  9
$DIMSCALE
 40
1.0
  9
$DIMASZ
 40
4.0
  9
$DIMEXO
 40
1.587499999999999
  9
$DIMDLI
 40
11.4
  9
$DIMRND
 40
0.0
  9
$DIMDLE
 40
0.0
  9
$DIMEXE
 40
1.587499999999999
  9
$DIMTP
 40
0.0
  9
$DIMTM
 40
0.0
  9
$DIMTXT
 40
2.0
  9
$DIMCEN
 40
2.7000000000000002
  9
$DIMTSZ
 40
0.0
  9
$DIMTOL
 70
     0
  9
$DIMLIM
 70
     0
  9
$DIMTIH
 70
     1
  9
$DIMTOH
 70
     1
  9
$DIMSE1
 70
     0
  9
$DIMSE2
 70
     0
  9
$DIMTAD
 70
     0
  9
$DIMZIN
 70
     0
  9
$DIMBLK
  1
_FILLED
  9
$DIMASO
 70
     1
  9
$DIMSHO
 70
     1
  9
$DIMPOST
  1

  9
$DIMAPOST
  1

  9
$DIMALT
 70
     0
  9
$DIMALTD
 70
     2
  9
$DIMALTF
 40
25.399999999999999
  9
$DIMLFAC
 40
1.0
  9
$DIMTOFL
 70
     0
  9
$DIMTVP
 40
0.0
  9
$DIMTIX
 70
     0
  9
$DIMSOXD
 70
     0
  9
$DIMSAH
 70
     0
  9
$DIMBLK1
  1

  9
$DIMBLK2
  1

  9
$DIMSTYLE
  2
STANDARD
  9
$DIMCLRD
 70
     0
  9
$DIMCLRE
 70
     0
  9
$DIMCLRT
 70
     0
  9
$DIMTFAC
 40
1.0
  9
$DIMGAP
 40
0.09
  9
$LUNITS
 70
     2
  9
$LUPREC
 70
     4
  9
$SKETCHINC
 40
0.1
  9
$FILLETRAD
 40
0.0
  9
$AUNITS
 70
     0
  9
$AUPREC
 70
     0
  9
$MENU
  1
.
  9
$ELEVATION
 40
0.0
  9
$PELEVATION
 40
0.0
  9
$THICKNESS
 40
0.0
  9
$LIMCHECK
 70
     0
  9
$BLIPMODE
 70
     0
  9
$CHAMFERA
 40
0.0
  9
$CHAMFERB
 40
0.0
  9
$SKPOLY
 70
     0
  9
$TDCREATE
 40
2456262.5127903591
  9
$TDUPDATE
 40
2456262.5138180442
  9
$TDINDWG
 40
0.0010282639
  9
$TDUSRTIMER
 40
0.0010282639
  9
$USRTIMER
 70
     1
  9
$ANGBASE
 50
0.0
  9
$ANGDIR
 70
     0
  9
$PDMODE
 70
     3
  9
$PDSIZE
 40
7.9375
  9
$PLINEWID
 40
0.0
  9
$COORDS
 70
     1
  9
$SPLFRAME
 70
     0
  9
$SPLINETYPE
 70
     6
  9
$SPLINESEGS
 70
     8
  9
$ATTDIA
 70
     0
  9
$ATTREQ
 70
     1
  9
$HANDLING
 70
     1
  9
$HANDSEED
  5
4EB
  9
$SURFTAB1
 70
     6
  9
$SURFTAB2
 70
     6
  9
$SURFTYPE
 70
     6
  9
$SURFU
 70
     6
  9
$SURFV
 70
     6
  9
$UCSNAME
  2

  9
$UCSORG
 10
0.0
 20
0.0
 30
0.0
  9
$UCSXDIR
 10
1.0
 20
0.0
 30
0.0
  9
$UCSYDIR
 10
0.0
 20
1.0
 30
0.0
  9
$PUCSNAME
  2

  9
$PUCSORG
 10
0.0
 20
0.0
 30
0.0
  9
$PUCSXDIR
 10
1.0
 20
0.0
 30
0.0
  9
$PUCSYDIR
 10
0.0
 20
1.0
 30
0.0
  9
$USERI1
 70
     0
  9
$USERI2
 70
     0
  9
$USERI3
 70
     0
  9
$USERI4
 70
     0
  9
$USERI5
 70
     0
  9
$USERR1
 40
0.0
  9
$USERR2
 40
0.0
  9
$USERR3
 40
0.0
  9
$USERR4
 40
0.0
  9
$USERR5
 40
0.0
  9
$WORLDVIEW
 70
     1
  9
$SHADEDGE
 70
     3
  9
$SHADEDIF
 70
    70
  9
$TILEMODE
 70
     1
  9
$MAXACTVP
 70
    64
  9
$PLIMCHECK
 70
     0
  9
$PEXTMIN
 10
1.0000000000000000E+020
 20
1.0000000000000000E+020
 30
1.0000000000000000E+020
  9
$PEXTMAX
 10
-1.0000000000000000E+020
 20
-1.0000000000000000E+020
 30
-1.0000000000000000E+020
  9
$PLIMMIN
 10
0.0
 20
0.0
  9
$PLIMMAX
 10
12.0
 20
9.0
  9
$UNITMODE
 70
     0
  9
$VISRETAIN
 70
     1
  9
$PLINEGEN
 70
     0
  9
$PSLTSCALE
 70
     1
  0
ENDSEC
  0
SECTION
  2
TABLES
  0
TABLE
  2
VPORT
 70
     1
  0
VPORT
  2
*ACTIVE
 70
     0
 10
0.0
 20
0.0
 11
1.0
 21
1.0
 12
150.00000069849199
 22
125.00000058207659
 13
0.0
 23
0.0
 14
1.0
 24
1.0
 15
0.0
 25
0.0
 16
0.0
 26
0.0
 36
1.0
 17
0.0
 27
0.0
 37
0.0
 40
274.67825121090289
 41
1.1005586592178771
 42
50.0
 43
0.0
 44
0.0
 50
0.0
 51
0.0
 71
     0
 72
   100
 73
     1
 74
     1
 75
     0
 76
     0
 77
     0
 78
     0
  0
ENDTAB
  0
TABLE
  2
LTYPE
 70
     8
  0
LTYPE
  2
ByBlock
 70
     0
  3

 72
    65
 73
     0
 40
0.0
  0
LTYPE
  2
ByLayer
 70
     0
  3

 72
    65
 73
     0
 40
0.0
  0
LTYPE
  2
CONTINUOUS
 70
     0
  3
Solid line
 72
    65
 73
     0
 40
0.0
  0
LTYPE
  2
CENTER
 70
     0
  3
____ _ ____ _ ____ _ ____ _ ____ _ ____ _ ____
 72
    65
 73
     4
 40
0.6
 49
0.375
 49
-0.075
 49
0.075
 49
-0.075
  0
LTYPE
  2
HIDDEN
 70
     0
  3
- - - - - - - - - - - - - - - - - - - -
 72
    65
 73
     2
 40
0.2
 49
0.1
 49
-0.1
  0
LTYPE
  2
PHANTOM
 70
     0
  3
_____ _ _ _____ _ _ _____ _ _ _____
 72
    65
 73
     6
 40
0.8
 49
0.45
 49
-0.05
 49
0.1
 49
-0.05
 49
0.1
 49
-0.05
  0
LTYPE
  2
DOT
 70
     0
  3
. . . . . . . . . . . . . . . . . . . .
 72
    65
 73
     2
 40
0.2
 49
0.1
 49
-0.1
  0
LTYPE
  2
DASHED
 70
     0
  3
- - - - - - - - - - - - - - - - - - - -
 72
    65
 73
     2
 40
0.2
 49
0.1
 49
-0.1
  0
ENDTAB
  0
TABLE
  2
LAYER
 70
    19
  0
LAYER
  2
0
 70
     0
 62
     7
  6
CONTINUOUS
  0
LAYER
  2
DEFAULT_1
 70
     0
 62
     7
  6
CENTER
  0
LAYER
  2
DEFAULT_2
 70
     0
 62
     8
  6
HIDDEN
  0
LAYER
  2
DEFAULT_3
 70
     0
 62
     7
  6
PHANTOM
  0
LAYER
  2
CURB-14
 70
     0
 62
     6
  6
CONTINUOUS
  0
LAYER
  2
CURB-14-DIM
 70
     0
 62
     6
  6
CONTINUOUS
  0
LAYER
  2
CURB-24
 70
     0
 62
     6
  6
CONTINUOUS
  0
LAYER
  2
CURB-24-DIM
 70
     0
 62
     6
  6
CONTINUOUS
  0
LAYER
  2
CURB-DUCTS
 70
     0
 62
     5
  6
CONTINUOUS
  0
LAYER
  2
CURBDUCTDIM
 70
     0
 62
     5
  6
CONTINUOUS
  0
LAYER
  2
HOODS
 70
     0
 62
     7
  6
CONTINUOUS
  0
LAYER
  2
NOTES
 70
     0
 62
     1
  6
CONTINUOUS
  0
LAYER
  2
SERVCLEAR
 70
     0
 62
     1
  6
CONTINUOUS
  0
LAYER
  2
SERVCLRDIM
 70
     0
 62
     1
  6
CONTINUOUS
  0
LAYER
  2
UNIT-DIM
 70
     0
 62
     7
  6
CONTINUOUS
  0
LAYER
  2
UNIT-DUCT-DIM
 70
     0
 62
     2
  6
CONTINUOUS
  0
LAYER
  2
UNIT-DUCTS
 70
     0
 62
     2
  6
CONTINUOUS
  0
LAYER
  2
UNIT-HID
 70
     0
 62
     8
  6
CONTINUOUS
  0
LAYER
  2
UNIT-SOL
 70
     0
 62
     7
  6
CONTINUOUS
  0
ENDTAB
  0
TABLE
  2
STYLE
 70
     4
  0
STYLE
  2
STANDARD
 70
     0
 40
0.0
 41
0.8
 50
0.0
 71
     0
 42
0.2
  3
txt
  4

  0
STYLE
  2
ANNOTATIVE
 70
     0
 40
0.0
 41
1.0
 50
0.0
 71
     0
 42
0.2
  3
txt
  4

  0
STYLE
  2
TEXTSTYLE_1
 70
     0
 40
0.0
 41
0.8
 50
0.0
 71
     0
 42
0.2
  3
gdt
  4

  0
STYLE
  2
TEXTSTYLE_2
 70
     0
 40
0.0
 41
8.0
 50
0.0
 71
     0
 42
0.2
  3
txt
  4

  0
ENDTAB
  0
TABLE
  2
VIEW
 70
     0
  0
ENDTAB
  0
TABLE
  2
UCS
 70
     0
  0
ENDTAB
  0
TABLE
  2
APPID
 70
     4
  0
APPID
  2
ACAD
 70
     0
  0
APPID
  2
ACADANNOTATIVE
 70
     0
  0
APPID
  2
ACAD_NAV_VCDISPLAY
 70
     0
  0
APPID
  2
ACAD_MLEADERVER
 70
     0
  0
ENDTAB
  0
TABLE
  2
DIMSTYLE
 70
     2
  0
DIMSTYLE
  2
STANDARD
 70
     0
  3

  4

  5

  6

  7

 40
1.0
 41
0.18
 42
0.0625
 43
0.38
 44
0.18
 45
0.0
 46
0.0
 47
0.0
 48
0.0
140
0.18
141
0.09
142
0.0
143
25.399999999999999
144
1.0
145
0.0
146
1.0
147
0.09
 71
     0
 72
     0
 73
     1
 74
     1
 75
     0
 76
     0
 77
     0
 78
     0
170
     0
171
     2
172
     0
173
     0
174
     0
175
     0
176
     0
177
     0
178
     0
  0
DIMSTYLE
  2
ANNOTATIVE
 70
     0
  3

  4

  5

  6

  7

 40
1.0
 41
0.18
 42
0.0625
 43
0.38
 44
0.18
 45
0.0
 46
0.0
 47
0.0
 48
0.0
140
0.18
141
0.09
142
0.0
143
25.399999999999999
144
1.0
145
0.0
146
1.0
147
0.09
 71
     0
 72
     0
 73
     1
 74
     1
 75
     0
 76
     0
 77
     0
 78
     0
170
     0
171
     2
172
     0
173
     0
174
     0
175
     0
176
     0
177
     0
178
     0
  0
ENDTAB
  0
ENDSEC
  0
SECTION
  2
BLOCKS
  0
BLOCK
  8
0
  2
$MODEL_SPACE
 70
     0
 10
0.0
 20
0.0
 30
0.0
  3
$MODEL_SPACE
  1

  0
ENDBLK
  5
6D
  8
0
  0
BLOCK
 67
     1
  8
0
  2
$PAPER_SPACE
 70
     0
 10
0.0
 20
0.0
 30
0.0
  3
$PAPER_SPACE
  1

  0
ENDBLK
  5
69
 67
     1
  8
0
  0
BLOCK
  8
0
  2
_FILLED
 70
     0
 10
0.0
 20
0.0
 30
0.0
  3
_FILLED
  1

  0
SOLID
  5
8F
  8
0
  6
ByBlock
 62
     0
 10
0.0
 20
0.0
 30
0.0
 11
-1.0
 21
0.1875
 31
0.0
 12
-1.0
 22
-0.1875
 32
0.0
 13
-1.0
 23
-0.1875
 33
0.0
  0
ENDBLK
  5
90
  8
0
  6
ByBlock
 62
     0
  0
BLOCK
  8
UNIT-DUCT-DIM
  6
CONTINUOUS
 62
     2
  2
*D1
 70
     1
 10
0.0
 20
0.0
 30
0.0
  3
*D1
  1

  0
TEXT
  5
93
  8
UNIT-DUCT-DIM
  6
CONTINUOUS
 62
     2
 10
81.166488750433331
 20
130.46109571989999
 30
0.0
 40
2.0
  1
68-1/8
 41
0.8
 72
     1
 11
85.433155417099996
 21
130.46109571989999
 31
0.0
  0
TEXT
  5
94
  8
UNIT-DUCT-DIM
  6
CONTINUOUS
 62
     2
 10
93.433155417099996
 20
130.46109571989999
 30
0.0
 40
2.0
  1
 
 41
0.8
 72
     1
 11
94.233155417099994
 21
130.46109571989999
 31
0.0
  0
TEXT
  5
95
  8
UNIT-DUCT-DIM
  6
CONTINUOUS
 62
     2
 10
81.166488750433331
 20
127.4610957199
 30
0.0
 40
2.0
  1
[
 41
0.8
 72
     1
 11
81.433155417099996
 21
127.4610957199
 31
0.0
  0
TEXT
  5
96
  8
UNIT-DUCT-DIM
  6
CONTINUOUS
 62
     2
 10
83.433155417099996
 20
127.4610957199
 30
0.0
 40
2.0
  1
1730.5
 41
0.8
 72
     1
 11
87.033155417099991
 21
127.4610957199
 31
0.0
  0
TEXT
  5
97
  8
UNIT-DUCT-DIM
  6
CONTINUOUS
 62
     2
 10
92.366488750433319
 20
127.4610957199
 30
0.0
 40
2.0
  1
]
 41
0.8
 72
     1
 11
92.633155417099985
 21
127.4610957199
 31
0.0
  0
LINE
  5
98
  8
UNIT-DUCT-DIM
  6
CONTINUOUS
 62
     2
 10
126.35445077129999
 20
163.58263009359999
 30
0.0
 11
86.245655417099996
 21
163.58263009359999
 31
0.0
  0
LINE
  5
99
  8
UNIT-DUCT-DIM
  6
CONTINUOUS
 62
     2
 10
126.1948749881
 20
95.451725983399996
 30
0.0
 11
115.8843932613
 21
95.451725983399996
 31
0.0
  0
LINE
  5
9A
  8
UNIT-DUCT-DIM
  6
CONTINUOUS
 62
     2
 10
113.7499915034
 20
95.451725983399996
 30
0.0
 11
103.61158315350001
 21
95.451725983399996
 31
0.0
  0
LINE
  5
9B
  8
UNIT-DUCT-DIM
  6
CONTINUOUS
 62
     2
 10
91.601162058499995
 20
95.451725983399996
 30
0.0
 11
86.245655417099996
 21
95.451725983399996
 31
0.0
  0
LINE
  5
9C
  8
UNIT-DUCT-DIM
  6
CONTINUOUS
 62
     2
 10
87.833155417099988
 20
163.58263009359999
 30
0.0
 11
87.833155417099988
 21
134.46109571989999
 31
0.0
  0
LINE
  5
9D
  8
UNIT-DUCT-DIM
  6
CONTINUOUS
 62
     2
 10
87.833155417099988
 20
95.451725983399996
 30
0.0
 11
87.833155417099988
 21
125.4610957199
 31
0.0
  0
INSERT
  5
9E
  8
UNIT-DUCT-DIM
  6
CONTINUOUS
 62
     2
  2
_FILLED
 10
87.833155417099988
 20
163.58263009359999
 30
0.0
 41
4.0
 42
4.0
 43
4.0
 50
90.0
  0
INSERT
  5
9F
  8
UNIT-DUCT-DIM
  6
CONTINUOUS
 62
     2
  2
_FILLED
 10
87.833155417099988
 20
95.451725983399996
 30
0.0
 41
4.0
 42
4.0
 43
4.0
 50
270.0
  0
ENDBLK
  5
A0
  8
0
  6
ByBlock
 62
     0
  0
BLOCK
  8
UNIT-DUCT-DIM
  6
CONTINUOUS
 62
     2
  2
*D2
 70
     1
 10
0.0
 20
0.0
 30
0.0
  3
*D2
  1

  0
TEXT
  5
A3
  8
UNIT-DUCT-DIM
  6
CONTINUOUS
 62
     2
 10
250.05172195523329
 20
131.76204666340001
 30
0.0
 40
2.0
  1
61-5/8
 41
0.8
 72
     1
 11
254.3183886219
 21
131.76204666340001
 31
0.0
  0
TEXT
  5
A4
  8
UNIT-DUCT-DIM
  6
CONTINUOUS
 62
     2
 10
262.3183886219
 20
131.76204666340001
 30
0.0
 40
2.0
  1
 
 41
0.8
 72
     1
 11
263.11838862190001
 21
131.76204666340001
 31
0.0
  0
TEXT
  5
A5
  8
UNIT-DUCT-DIM
  6
CONTINUOUS
 62
     2
 10
250.05172195523329
 20
128.76204666340001
 30
0.0
 40
2.0
  1
[
 41
0.8
 72
     1
 11
250.3183886219
 21
128.76204666340001
 31
0.0
  0
TEXT
  5
A6
  8
UNIT-DUCT-DIM
  6
CONTINUOUS
 62
     2
 10
252.1850552885667
 20
128.76204666340001
 30
0.0
 40
2.0
  1
1565.5
 41
0.8
 72
     1
 11
255.91838862189999
 21
128.76204666340001
 31
0.0
  0
TEXT
  5
A7
  8
UNIT-DUCT-DIM
  6
CONTINUOUS
 62
     2
 10
261.25172195523339
 20
128.76204666340001
 30
0.0
 40
2.0
  1
]
 41
0.8
 72
     1
 11
261.51838862189999
 21
128.76204666340001
 31
0.0
  0
LINE
  5
A8
  8
UNIT-DUCT-DIM
  6
CONTINUOUS
 62
     2
 10
201.83431641760001
 20
101.94539105280001
 30
0.0
 11
258.30588862190001
 21
101.94539105280001
 31
0.0
  0
LINE
  5
A9
  8
UNIT-DUCT-DIM
  6
CONTINUOUS
 62
     2
 10
201.12753720320001
 20
163.57870227399999
 30
0.0
 11
258.30588862190001
 21
163.57870227399999
 31
0.0
  0
LINE
  5
AA
  8
UNIT-DUCT-DIM
  6
CONTINUOUS
 62
     2
 10
256.71838862189998
 20
101.94539105280001
 30
0.0
 11
256.71838862189998
 21
126.7620466634
 31
0.0
  0
LINE
  5
AB
  8
UNIT-DUCT-DIM
  6
CONTINUOUS
 62
     2
 10
256.71838862189998
 20
163.57870227399999
 30
0.0
 11
256.71838862189998
 21
135.76204666340001
 31
0.0
  0
INSERT
  5
AC
  8
UNIT-DUCT-DIM
  6
CONTINUOUS
 62
     2
  2
_FILLED
 10
256.71838862189998
 20
101.94539105280001
 30
0.0
 41
4.0
 42
4.0
 43
4.0
 50
270.0
  0
INSERT
  5
AD
  8
UNIT-DUCT-DIM
  6
CONTINUOUS
 62
     2
  2
_FILLED
 10
256.71838862189998
 20
163.57870227399999
 30
0.0
 41
4.0
 42
4.0
 43
4.0
 50
90.0
  0
ENDBLK
  5
AE
  8
0
  6
ByBlock
 62
     0
  0
BLOCK
  8
UNIT-DIM
  6
CONTINUOUS
 62
     7
  2
*D3
 70
     1
 10
0.0
 20
0.0
 30
0.0
  3
*D3
  1

  0
TEXT
  5
B1
  8
UNIT-DIM
  6
CONTINUOUS
 62
     7
 10
88.421686744433345
 20
87.425722738799976
 30
0.0
 40
2.0
  1
7-1/8
 41
0.8
 72
     1
 11
91.888353411100013
 21
87.425722738799976
 31
0.0
  0
TEXT
  5
B2
  8
UNIT-DIM
  6
CONTINUOUS
 62
     7
 10
88.421686744433345
 20
84.425722738800005
 30
0.0
 40
2.0
  1
[
 41
0.8
 72
     1
 11
88.68835341110001
 21
84.425722738800005
 31
0.0
  0
TEXT
  5
B3
  8
UNIT-DIM
  6
CONTINUOUS
 62
     7
 10
90.955020077766676
 20
84.425722738800005
 30
0.0
 40
2.0
  1
181.0
 41
0.8
 72
     1
 11
93.488353411100007
 21
84.425722738800005
 31
0.0
  0
TEXT
  5
B4
  8
UNIT-DIM
  6
CONTINUOUS
 62
     7
 10
98.021686744433339
 20
84.425722738800005
 30
0.0
 40
2.0
  1
]
 41
0.8
 72
     1
 11
98.288353411100005
 21
84.425722738800005
 31
0.0
  0
LINE
  5
B5
  8
UNIT-DIM
  6
CONTINUOUS
 62
     7
 10
118.91249999999999
 20
83.455467169000016
 30
0.0
 11
91.900853411100002
 21
83.455467169000016
 31
0.0
  0
LINE
  5
B6
  8
UNIT-DIM
  6
CONTINUOUS
 62
     7
 10
127.03749999999999
 20
90.580467168999988
 30
0.0
 11
117.1596282524
 21
90.580467168999988
 31
0.0
  0
LINE
  5
B7
  8
UNIT-DIM
  6
CONTINUOUS
 62
     7
 10
114.1426504235
 20
90.580467168999988
 30
0.0
 11
91.900853411100002
 21
90.580467168999988
 31
0.0
  0
LINE
  5
B8
  8
UNIT-DIM
  6
CONTINUOUS
 62
     7
 10
93.488353411100007
 20
83.455467169000016
 30
0.0
 11
93.488353411100007
 21
70.755467168999985
 31
0.0
  0
LINE
  5
B9
  8
UNIT-DIM
  6
CONTINUOUS
 62
     7
 10
93.488353411100007
 20
90.580467168999988
 30
0.0
 11
93.488353411100007
 21
103.280467169
 31
0.0
  0
INSERT
  5
BA
  8
UNIT-DIM
  6
CONTINUOUS
 62
     7
  2
_FILLED
 10
93.488353411100007
 20
83.455467169000016
 30
0.0
 41
4.0
 42
4.0
 43
4.0
 50
90.0
  0
INSERT
  5
BB
  8
UNIT-DIM
  6
CONTINUOUS
 62
     7
  2
_FILLED
 10
93.488353411100007
 20
90.580467168999988
 30
0.0
 41
4.0
 42
4.0
 43
4.0
 50
270.0
  0
ENDBLK
  5
BC
  8
0
  6
ByBlock
 62
     0
  0
BLOCK
  8
UNIT-DIM
  6
CONTINUOUS
 62
     7
  2
*D4
 70
     1
 10
0.0
 20
0.0
 30
0.0
  3
*D4
  1

  0
TEXT
  5
BF
  8
UNIT-DIM
  6
CONTINUOUS
 62
     7
 10
102.6986957383
 20
55.752111424699997
 30
0.0
 40
2.0
  1
11
 41
0.8
 72
     2
 11
104.2986957383
 21
55.752111424699997
 31
0.0
  0
TEXT
  5
C0
  8
UNIT-DIM
  6
CONTINUOUS
 62
     7
 10
112.2986957383
 20
55.752111424699997
 30
0.0
 40
2.0
  1
 
 41
0.8
 72
     2
 11
113.89869573830001
 21
55.752111424699997
 31
0.0
  0
TEXT
  5
C1
  8
UNIT-DIM
  6
CONTINUOUS
 62
     7
 10
102.1653624049666
 20
52.752111424699997
 30
0.0
 40
2.0
  1
[
 41
0.8
 72
     2
 11
102.6986957383
 21
52.752111424699997
 31
0.0
  0
TEXT
  5
C2
  8
UNIT-DIM
  6
CONTINUOUS
 62
     7
 10
104.2986957383
 20
52.752111424699997
 30
0.0
 40
2.0
  1
279.4
 41
0.8
 72
     2
 11
110.6986957383
 21
52.752111424699997
 31
0.0
  0
TEXT
  5
C3
  8
UNIT-DIM
  6
CONTINUOUS
 62
     7
 10
111.7653624049666
 20
52.752111424699997
 30
0.0
 40
2.0
  1
]
 41
0.8
 72
     2
 11
112.2986957383
 21
52.752111424699997
 31
0.0
  0
LINE
  5
C4
  8
UNIT-DIM
  6
CONTINUOUS
 62
     7
 10
120.5
 20
80.384610945199995
 30
0.0
 11
120.5
 21
55.164611424699999
 31
0.0
  0
LINE
  5
C5
  8
UNIT-DIM
  6
CONTINUOUS
 62
     7
 10
131.5
 20
88.992967168999996
 30
0.0
 11
131.5
 21
72.707109385500004
 31
0.0
  0
LINE
  5
C6
  8
UNIT-DIM
  6
CONTINUOUS
 62
     7
 10
131.5
 20
69.464745604000001
 30
0.0
 11
131.5
 21
65.082534014700002
 31
0.0
  0
LINE
  5
C7
  8
UNIT-DIM
  6
CONTINUOUS
 62
     7
 10
131.5
 20
62.177376066500003
 30
0.0
 11
131.5
 21
55.164611424699999
 31
0.0
  0
LINE
  5
C8
  8
UNIT-DIM
  6
CONTINUOUS
 62
     7
 10
120.5
 20
56.752111424700011
 30
0.0
 11
126.0
 21
56.752111424700011
 31
0.0
  0
LINE
  5
C9
  8
UNIT-DIM
  6
CONTINUOUS
 62
     7
 10
126.0
 20
56.752111424700011
 30
0.0
 11
115.89869573830001
 21
56.752111424700011
 31
0.0
  0
LINE
  5
CA
  8
UNIT-DIM
  6
CONTINUOUS
 62
     7
 10
131.5
 20
56.752111424700011
 30
0.0
 11
126.0
 21
56.752111424700011
 31
0.0
  0
INSERT
  5
CB
  8
UNIT-DIM
  6
CONTINUOUS
 62
     7
  2
_FILLED
 10
120.5
 20
56.752111424700011
 30
0.0
 41
4.0
 42
4.0
 43
4.0
 50
180.0
  0
INSERT
  5
CC
  8
UNIT-DIM
  6
CONTINUOUS
 62
     7
  2
_FILLED
 10
131.5
 20
56.752111424700011
 30
0.0
 41
4.0
 42
4.0
 43
4.0
  0
ENDBLK
  5
CD
  8
0
  6
ByBlock
 62
     0
  0
BLOCK
  8
UNIT-DIM
  6
CONTINUOUS
 62
     7
  2
*D5
 70
     1
 10
0.0
 20
0.0
 30
0.0
  3
*D5
  1

  0
TEXT
  5
D0
  8
UNIT-DIM
  6
CONTINUOUS
 62
     7
 10
142.83234016150001
 20
49.321590198700001
 30
0.0
 40
2.0
  1
12-7/8
 41
0.8
  0
TEXT
  5
D1
  8
UNIT-DIM
  6
CONTINUOUS
 62
     7
 10
154.0323401615
 20
49.321590198700001
 30
0.0
 40
2.0
  1
 
 41
0.8
  0
TEXT
  5
D2
  8
UNIT-DIM
  6
CONTINUOUS
 62
     7
 10
142.83234016150001
 20
46.321590198700001
 30
0.0
 40
2.0
  1
[
 41
0.8
  0
TEXT
  5
D3
  8
UNIT-DIM
  6
CONTINUOUS
 62
     7
 10
144.43234016150001
 20
46.321590198700001
 30
0.0
 40
2.0
  1
327.0
 41
0.8
  0
TEXT
  5
D4
  8
UNIT-DIM
  6
CONTINUOUS
 62
     7
 10
152.43234016150001
 20
46.321590198700001
 30
0.0
 40
2.0
  1
]
 41
0.8
  0
LINE
  5
D5
  8
UNIT-DIM
  6
CONTINUOUS
 62
     7
 10
120.5
 20
80.193920456699999
 30
0.0
 11
120.5
 21
48.734090198700002
 31
0.0
  0
LINE
  5
D6
  8
UNIT-DIM
  6
CONTINUOUS
 62
     7
 10
133.375
 20
88.992967168999996
 30
0.0
 11
133.375
 21
85.335982422200004
 31
0.0
  0
LINE
  5
D7
  8
UNIT-DIM
  6
CONTINUOUS
 62
     7
 10
133.375
 20
83.438736415099996
 30
0.0
 11
133.375
 21
72.243914559499999
 31
0.0
  0
LINE
  5
D8
  8
UNIT-DIM
  6
CONTINUOUS
 62
     7
 10
133.375
 20
69.650023534300004
 30
0.0
 11
133.375
 21
65.109399314699999
 31
0.0
  0
LINE
  5
D9
  8
UNIT-DIM
  6
CONTINUOUS
 62
     7
 10
133.375
 20
61.9077966778
 30
0.0
 11
133.375
 21
48.734090198700002
 31
0.0
  0
LINE
  5
DA
  8
UNIT-DIM
  6
CONTINUOUS
 62
     7
 10
120.5
 20
50.321590198700001
 30
0.0
 11
126.9375
 21
50.321590198700001
 31
0.0
  0
LINE
  5
DB
  8
UNIT-DIM
  6
CONTINUOUS
 62
     7
 10
133.375
 20
50.321590198700001
 30
0.0
 11
126.9375
 21
50.321590198700001
 31
0.0
  0
LINE
  5
DC
  8
UNIT-DIM
  6
CONTINUOUS
 62
     7
 10
126.9375
 20
50.321590198700001
 30
0.0
 11
140.83234016150001
 21
50.321590198700001
 31
0.0
  0
INSERT
  5
DD
  8
UNIT-DIM
  6
CONTINUOUS
 62
     7
  2
_FILLED
 10
120.5
 20
50.321590198700001
 30
0.0
 41
4.0
 42
4.0
 43
4.0
 50
180.0
  0
INSERT
  5
DE
  8
UNIT-DIM
  6
CONTINUOUS
 62
     7
  2
_FILLED
 10
133.375
 20
50.321590198700001
 30
0.0
 41
4.0
 42
4.0
 43
4.0
  0
ENDBLK
  5
DF
  8
0
  6
ByBlock
 62
     0
  0
BLOCK
  8
UNIT-DIM
  6
CONTINUOUS
 62
     7
  2
*D6
 70
     1
 10
0.0
 20
0.0
 30
0.0
  3
*D6
  1

  0
TEXT
  5
E2
  8
UNIT-DIM
  6
CONTINUOUS
 62
     7
 10
99.094215066666692
 20
44.849435379399999
 30
0.0
 40
2.0
  1
14-7/8
 41
0.8
 72
     2
 11
107.62754839999999
 21
44.849435379399999
 31
0.0
  0
TEXT
  5
E3
  8
UNIT-DIM
  6
CONTINUOUS
 62
     7
 10
109.2275484
 20
44.849435379399999
 30
0.0
 40
2.0
  1
 
 41
0.8
 72
     2
 11
110.8275484
 21
44.849435379399999
 31
0.0
  0
TEXT
  5
E4
  8
UNIT-DIM
  6
CONTINUOUS
 62
     7
 10
99.094215066666663
 20
41.849435379399992
 30
0.0
 40
2.0
  1
[
 41
0.8
 72
     2
 11
99.627548400000023
 21
41.849435379399992
 31
0.0
  0
TEXT
  5
E5
  8
UNIT-DIM
  6
CONTINUOUS
 62
     7
 10
101.2275484
 20
41.849435379399992
 30
0.0
 40
2.0
  1
377.8
 41
0.8
 72
     2
 11
107.62754839999999
 21
41.849435379399992
 31
0.0
  0
TEXT
  5
E6
  8
UNIT-DIM
  6
CONTINUOUS
 62
     7
 10
108.6942150666667
 20
41.849435379399992
 30
0.0
 40
2.0
  1
]
 41
0.8
 72
     2
 11
109.2275484
 21
41.849435379399992
 31
0.0
  0
LINE
  5
E7
  8
UNIT-DIM
  6
CONTINUOUS
 62
     7
 10
120.5
 20
80.216307306600001
 30
0.0
 11
120.5
 21
44.261935379399993
 31
0.0
  0
LINE
  5
E8
  8
UNIT-DIM
  6
CONTINUOUS
 62
     7
 10
135.375
 20
88.992967168999996
 30
0.0
 11
135.375
 21
82.549402349399983
 31
0.0
  0
LINE
  5
E9
  8
UNIT-DIM
  6
CONTINUOUS
 62
     7
 10
135.375
 20
80.237133778300006
 30
0.0
 11
135.375
 21
71.965997664
 31
0.0
  0
LINE
  5
EA
  8
UNIT-DIM
  6
CONTINUOUS
 62
     7
 10
135.375
 20
69.7426624995
 30
0.0
 11
135.375
 21
65.343833795899997
 31
0.0
  0
LINE
  5
EB
  8
UNIT-DIM
  6
CONTINUOUS
 62
     7
 10
135.375
 20
61.730914153699999
 30
0.0
 11
135.375
 21
52.096461774399991
 31
0.0
  0
LINE
  5
EC
  8
UNIT-DIM
  6
CONTINUOUS
 62
     7
 10
135.375
 20
49.595209714399992
 30
0.0
 11
135.375
 21
44.261935379399993
 31
0.0
  0
LINE
  5
ED
  8
UNIT-DIM
  6
CONTINUOUS
 62
     7
 10
120.5
 20
45.849435379399999
 30
0.0
 11
127.9375
 21
45.849435379399999
 31
0.0
  0
LINE
  5
EE
  8
UNIT-DIM
  6
CONTINUOUS
 62
     7
 10
127.9375
 20
45.849435379399999
 30
0.0
 11
112.8275484
 21
45.849435379399999
 31
0.0
  0
LINE
  5
EF
  8
UNIT-DIM
  6
CONTINUOUS
 62
     7
 10
135.375
 20
45.849435379399999
 30
0.0
 11
127.9375
 21
45.849435379399999
 31
0.0
  0
INSERT
  5
F0
  8
UNIT-DIM
  6
CONTINUOUS
 62
     7
  2
_FILLED
 10
120.5
 20
45.849435379399999
 30
0.0
 41
4.0
 42
4.0
 43
4.0
 50
180.0
  0
INSERT
  5
F1
  8
UNIT-DIM
  6
CONTINUOUS
 62
     7
  2
_FILLED
 10
135.375
 20
45.849435379399999
 30
0.0
 41
4.0
 42
4.0
 43
4.0
  0
ENDBLK
  5
F2
  8
0
  6
ByBlock
 62
     0
  0
BLOCK
  8
UNIT-DIM
  6
CONTINUOUS
 62
     7
  2
*D7
 70
     1
 10
0.0
 20
0.0
 30
0.0
  3
*D7
  1

  0
TEXT
  5
F5
  8
UNIT-DIM
  6
CONTINUOUS
 62
     7
 10
58.707218326566661
 20
130.5801775242
 30
0.0
 40
2.0
  1
68
 41
0.8
 72
     1
 11
60.04055165989999
 21
130.5801775242
 31
0.0
  0
TEXT
  5
F6
  8
UNIT-DIM
  6
CONTINUOUS
 62
     7
 10
71.240551659900007
 20
130.5801775242
 30
0.0
 40
2.0
  1
 
 41
0.8
 72
     1
 11
72.040551659900004
 21
130.5801775242
 31
0.0
  0
TEXT
  5
F7
  8
UNIT-DIM
  6
CONTINUOUS
 62
     7
 10
58.973884993233341
 20
127.5801775242
 30
0.0
 40
2.0
  1
[
 41
0.8
 72
     1
 11
59.240551659899999
 21
127.5801775242
 31
0.0
  0
TEXT
  5
F8
  8
UNIT-DIM
  6
CONTINUOUS
 62
     7
 10
61.107218326566667
 20
127.5801775242
 30
0.0
 40
2.0
  1
1727.2
 41
0.8
 72
     1
 11
64.840551659900001
 21
127.5801775242
 31
0.0
  0
TEXT
  5
F9
  8
UNIT-DIM
  6
CONTINUOUS
 62
     7
 10
70.17388499323333
 20
127.5801775242
 30
0.0
 40
2.0
  1
]
 41
0.8
 72
     1
 11
70.440551659899995
 21
127.5801775242
 31
0.0
  0
LINE
  5
FA
  8
UNIT-DIM
  6
CONTINUOUS
 62
     7
 10
94.412499999999994
 20
97.580161405200002
 30
0.0
 11
64.053051659899992
 21
97.580161405200002
 31
0.0
  0
LINE
  5
FB
  8
UNIT-DIM
  6
CONTINUOUS
 62
     7
 10
94.981309715600005
 20
165.5801936432
 30
0.0
 11
64.053051659899992
 21
165.5801936432
 31
0.0
  0
LINE
  5
FC
  8
UNIT-DIM
  6
CONTINUOUS
 62
     7
 10
65.640551659899998
 20
97.580161405200002
 30
0.0
 11
65.640551659899998
 21
125.5801775242
 31
0.0
  0
LINE
  5
FD
  8
UNIT-DIM
  6
CONTINUOUS
 62
     7
 10
65.640551659899998
 20
165.5801936432
 30
0.0
 11
65.640551659899998
 21
134.5801775242
 31
0.0
  0
INSERT
  5
FE
  8
UNIT-DIM
  6
CONTINUOUS
 62
     7
  2
_FILLED
 10
65.640551659899998
 20
97.580161405200002
 30
0.0
 41
4.0
 42
4.0
 43
4.0
 50
270.0
  0
INSERT
  5
FF
  8
UNIT-DIM
  6
CONTINUOUS
 62
     7
  2
_FILLED
 10
65.640551659899998
 20
165.5801936432
 30
0.0
 41
4.0
 42
4.0
 43
4.0
 50
90.0
  0
ENDBLK
  5
100
  8
0
  6
ByBlock
 62
     0
  0
BLOCK
  8
UNIT-DIM
  6
CONTINUOUS
 62
     7
  2
*D8
 70
     1
 10
0.0
 20
0.0
 30
0.0
  3
*D8
  1

  0
TEXT
  5
103
  8
UNIT-DIM
  6
CONTINUOUS
 62
     7
 10
60.040551659899997
 20
89.517814287099995
 30
0.0
 40
2.0
  1
14-1/8
 41
0.8
 72
     1
 11
64.040551659900004
 21
89.517814287099995
 31
0.0
  0
TEXT
  5
104
  8
UNIT-DIM
  6
CONTINUOUS
 62
     7
 10
70.440551659899995
 20
89.517814287099995
 30
0.0
 40
2.0
  1
 
 41
0.8
 72
     1
 11
71.240551659899992
 21
89.517814287099995
 31
0.0
  0
TEXT
  5
105
  8
UNIT-DIM
  6
CONTINUOUS
 62
     7
 10
59.773884993233331
 20
86.517814287099995
 30
0.0
 40
2.0
  1
[
 41
0.8
 72
     1
 11
60.04055165989999
 21
86.517814287099995
 31
0.0
  0
TEXT
  5
106
  8
UNIT-DIM
  6
CONTINUOUS
 62
     7
 10
61.640551659899991
 20
86.517814287099995
 30
0.0
 40
2.0
  1
358.8
 41
0.8
 72
     1
 11
64.840551659900001
 21
86.517814287099995
 31
0.0
  0
TEXT
  5
107
  8
UNIT-DIM
  6
CONTINUOUS
 62
     7
 10
69.373884993233332
 20
86.517814287099995
 30
0.0
 40
2.0
  1
]
 41
0.8
 72
     1
 11
69.640551659899998
 21
86.517814287099995
 31
0.0
  0
LINE
  5
108
  8
UNIT-DIM
  6
CONTINUOUS
 62
     7
 10
109.2889238936
 20
83.455467169000016
 30
0.0
 11
64.053051659899992
 21
83.455467169000016
 31
0.0
  0
LINE
  5
109
  8
UNIT-DIM
  6
CONTINUOUS
 62
     7
 10
94.412499999999994
 20
97.580161405200002
 30
0.0
 11
64.053051659899992
 21
97.580161405200002
 31
0.0
  0
LINE
  5
10A
  8
UNIT-DIM
  6
CONTINUOUS
 62
     7
 10
65.640551659899998
 20
83.455467169000016
 30
0.0
 11
65.640551659899998
 21
70.755467168999985
 31
0.0
  0
LINE
  5
10B
  8
UNIT-DIM
  6
CONTINUOUS
 62
     7
 10
65.640551659899998
 20
97.580161405200002
 30
0.0
 11
65.640551659899998
 21
110.2801614052
 31
0.0
  0
INSERT
  5
10C
  8
UNIT-DIM
  6
CONTINUOUS
 62
     7
  2
_FILLED
 10
65.640551659899998
 20
83.455467169000016
 30
0.0
 41
4.0
 42
4.0
 43
4.0
 50
90.0
  0
INSERT
  5
10D
  8
UNIT-DIM
  6
CONTINUOUS
 62
     7
  2
_FILLED
 10
65.640551659899998
 20
97.580161405200002
 30
0.0
 41
4.0
 42
4.0
 43
4.0
 50
270.0
  0
ENDBLK
  5
10E
  8
0
  6
ByBlock
 62
     0
  0
BLOCK
  8
UNIT-DIM
  6
CONTINUOUS
 62
     7
  2
*D9
 70
     1
 10
0.0
 20
0.0
 30
0.0
  3
*D9
  1

  0
TEXT
  5
111
  8
UNIT-DIM
  6
CONTINUOUS
 62
     7
 10
285.52586103246659
 20
122.371410049
 30
0.0
 40
2.0
  1
86-3/8
 41
0.8
 72
     1
 11
290.05919436580001
 21
122.371410049
 31
0.0
  0
TEXT
  5
112
  8
UNIT-DIM
  6
CONTINUOUS
 62
     7
 10
285.79252769913342
 20
119.371410049
 30
0.0
 40
2.0
  1
[
 41
0.8
 72
     1
 11
286.05919436580001
 21
119.371410049
 31
0.0
  0
TEXT
  5
113
  8
UNIT-DIM
  6
CONTINUOUS
 62
     7
 10
287.92586103246668
 20
119.371410049
 30
0.0
 40
2.0
  1
2193.9
 41
0.8
 72
     1
 11
291.65919436580009
 21
119.371410049
 31
0.0
  0
TEXT
  5
114
  8
UNIT-DIM
  6
CONTINUOUS
 62
     7
 10
296.99252769913329
 20
119.371410049
 30
0.0
 40
2.0
  1
]
 41
0.8
 72
     1
 11
297.2591943658
 21
119.371410049
 31
0.0
  0
LINE
  5
115
  8
UNIT-DIM
  6
CONTINUOUS
 62
     7
 10
249.9850133127
 20
83.455467169000016
 30
0.0
 11
293.24669436580001
 21
83.455467169000016
 31
0.0
  0
LINE
  5
116
  8
UNIT-DIM
  6
CONTINUOUS
 62
     7
 10
249.9850133127
 20
169.830467169
 30
0.0
 11
293.24669436580001
 21
169.830467169
 31
0.0
  0
LINE
  5
117
  8
UNIT-DIM
  6
CONTINUOUS
 62
     7
 10
291.65919436580009
 20
83.455467169000016
 30
0.0
 11
291.65919436580009
 21
117.371410049
 31
0.0
  0
LINE
  5
118
  8
UNIT-DIM
  6
CONTINUOUS
 62
     7
 10
291.65919436580009
 20
169.830467169
 30
0.0
 11
291.65919436580009
 21
126.371410049
 31
0.0
  0
INSERT
  5
119
  8
UNIT-DIM
  6
CONTINUOUS
 62
     7
  2
_FILLED
 10
291.65919436580009
 20
83.455467169000016
 30
0.0
 41
4.0
 42
4.0
 43
4.0
 50
270.0
  0
INSERT
  5
11A
  8
UNIT-DIM
  6
CONTINUOUS
 62
     7
  2
_FILLED
 10
291.65919436580009
 20
169.830467169
 30
0.0
 41
4.0
 42
4.0
 43
4.0
 50
90.0
  0
ENDBLK
  5
11B
  8
0
  6
ByBlock
 62
     0
  0
BLOCK
  8
UNIT-DIM
  6
CONTINUOUS
 62
     7
  2
*D10
 70
     1
 10
0.0
 20
0.0
 30
0.0
  3
*D10
  1

  0
TEXT
  5
11E
  8
UNIT-DIM
  6
CONTINUOUS
 62
     7
 10
187.79808998973331
 20
23.088141415700001
 30
0.0
 40
2.0
  1
127-7/8
 41
0.8
 72
     1
 11
192.8647566564
 21
23.088141415700001
 31
0.0
  0
TEXT
  5
11F
  8
UNIT-DIM
  6
CONTINUOUS
 62
     7
 10
198.46475665639991
 20
23.088141415700001
 30
0.0
 40
2.0
  1
 
 41
0.8
 72
     1
 11
199.2647566563999
 21
23.088141415700001
 31
0.0
  0
TEXT
  5
120
  8
UNIT-DIM
  6
CONTINUOUS
 62
     7
 10
187.79808998973331
 20
20.088141415700001
 30
0.0
 40
2.0
  1
[
 41
0.8
 72
     1
 11
188.06475665639999
 21
20.088141415700001
 31
0.0
  0
TEXT
  5
121
  8
UNIT-DIM
  6
CONTINUOUS
 62
     7
 10
189.1314233230666
 20
20.088141415700001
 30
0.0
 40
2.0
  1
3249
 41
0.8
 72
     1
 11
192.06475665639999
 21
20.088141415700001
 31
0.0
  0
TEXT
  5
122
  8
UNIT-DIM
  6
CONTINUOUS
 62
     7
 10
195.79808998973331
 20
20.088141415700001
 30
0.0
 40
2.0
  1
]
 41
0.8
 72
     1
 11
196.06475665639999
 21
20.088141415700001
 31
0.0
  0
LINE
  5
123
  8
UNIT-DIM
  6
CONTINUOUS
 62
     7
 10
120.5
 20
79.309528940000007
 30
0.0
 11
120.5
 21
22.500641415699999
 31
0.0
  0
LINE
  5
124
  8
UNIT-DIM
  6
CONTINUOUS
 62
     7
 10
248.3975133127
 20
78.865558751899997
 30
0.0
 11
248.3975133127
 21
22.500641415699999
 31
0.0
  0
LINE
  5
125
  8
UNIT-DIM
  6
CONTINUOUS
 62
     7
 10
120.5
 20
24.088141415700001
 30
0.0
 11
185.26475665640001
 21
24.088141415700001
 31
0.0
  0
LINE
  5
126
  8
UNIT-DIM
  6
CONTINUOUS
 62
     7
 10
248.3975133127
 20
24.088141415700001
 30
0.0
 11
202.06475665639999
 21
24.088141415700001
 31
0.0
  0
INSERT
  5
127
  8
UNIT-DIM
  6
CONTINUOUS
 62
     7
  2
_FILLED
 10
120.5
 20
24.088141415700001
 30
0.0
 41
4.0
 42
4.0
 43
4.0
 50
180.0
  0
INSERT
  5
128
  8
UNIT-DIM
  6
CONTINUOUS
 62
     7
  2
_FILLED
 10
248.3975133127
 20
24.088141415700001
 30
0.0
 41
4.0
 42
4.0
 43
4.0
  0
ENDBLK
  5
129
  8
0
  6
ByBlock
 62
     0
  0
BLOCK
  8
SERVCLRDIM
  6
CONTINUOUS
 62
     1
  2
*D11
 70
     1
 10
0.0
 20
0.0
 30
0.0
  3
*D11
  1

  0
TEXT
  5
12C
  8
SERVCLRDIM
  6
CONTINUOUS
 62
     1
 10
26.800000000000001
 20
195.7575772687
 30
0.0
 40
2.0
  1
18-96 DEPENDING ON OPTIONS, 
 41
0.8
 72
     1
 11
48.0
 21
195.7575772687
 31
0.0
  0
TEXT
  5
12D
  8
SERVCLRDIM
  6
CONTINUOUS
 62
     1
 10
26.133333333333329
 20
192.75757726869989
 30
0.0
 40
2.0
  1
SEE PRODUCT DATA FOR DETAILS
 41
0.8
 72
     1
 11
48.0
 21
192.75757726869989
 31
0.0
  0
LINE
  5
12E
  8
SERVCLRDIM
  6
CONTINUOUS
 62
     1
 10
96.0
 20
166.7231984499
 30
0.0
 11
96.0
 21
195.7575772687
 31
0.0
  0
LINE
  5
12F
  8
SERVCLRDIM
  6
CONTINUOUS
 62
     1
 10
96.0
 20
195.7575772687
 30
0.0
 11
96.0
 21
198.34507726870001
 31
0.0
  0
LINE
  5
130
  8
SERVCLRDIM
  6
CONTINUOUS
 62
     1
 10
96.0
 20
196.75757726869989
 30
0.0
 11
72.400000000000006
 21
196.75757726869989
 31
0.0
  0
LINE
  5
131
  8
SERVCLRDIM
  6
CONTINUOUS
 62
     1
 10
0.0
 20
196.75757726869989
 30
0.0
 11
23.600000000000001
 21
196.75757726869989
 31
0.0
  0
INSERT
  5
132
  8
SERVCLRDIM
  6
CONTINUOUS
 62
     1
  2
_FILLED
 10
96.0
 20
196.75757726869989
 30
0.0
 41
4.0
 42
4.0
 43
4.0
  0
INSERT
  5
133
  8
SERVCLRDIM
  6
CONTINUOUS
 62
     1
  2
_FILLED
 10
0.0
 20
196.75757726869989
 30
0.0
 41
4.0
 42
4.0
 43
4.0
 50
180.0
  0
ENDBLK
  5
134
  8
0
  6
ByBlock
 62
     0
  0
BLOCK
  8
SERVCLRDIM
  6
CONTINUOUS
 62
     1
  2
*D12
 70
     1
 10
0.0
 20
0.0
 30
0.0
  3
*D12
  1

  0
TEXT
  5
137
  8
SERVCLRDIM
  6
CONTINUOUS
 62
     1
 10
229.3726492817666
 20
189.83035024340001
 30
0.0
 40
2.0
  1
42
 41
0.8
 72
     1
 11
230.7059826151
 21
189.83035024340001
 31
0.0
  0
TEXT
  5
138
  8
SERVCLRDIM
  6
CONTINUOUS
 62
     1
 10
241.9059826150999
 20
189.83035024340001
 30
0.0
 40
2.0
  1
 
 41
0.8
 72
     1
 11
242.7059826151
 21
189.83035024340001
 31
0.0
  0
TEXT
  5
139
  8
SERVCLRDIM
  6
CONTINUOUS
 62
     1
 10
229.63931594843331
 20
186.83035024340001
 30
0.0
 40
2.0
  1
[
 41
0.8
 72
     1
 11
229.90598261509999
 21
186.83035024340001
 31
0.0
  0
TEXT
  5
13A
  8
SERVCLRDIM
  6
CONTINUOUS
 62
     1
 10
231.90598261509999
 20
186.83035024340001
 30
0.0
 40
2.0
  1
1066.8
 41
0.8
 72
     1
 11
235.50598261510001
 21
186.83035024340001
 31
0.0
  0
TEXT
  5
13B
  8
SERVCLRDIM
  6
CONTINUOUS
 62
     1
 10
240.8393159484333
 20
186.83035024340001
 30
0.0
 40
2.0
  1
]
 41
0.8
 72
     1
 11
241.1059826151
 21
186.83035024340001
 31
0.0
  0
LINE
  5
13C
  8
SERVCLRDIM
  6
CONTINUOUS
 62
     1
 10
237.8934826151
 20
211.83023331780001
 30
0.0
 11
234.32629557269999
 21
211.83023331780001
 31
0.0
  0
LINE
  5
13D
  8
SERVCLRDIM
  6
CONTINUOUS
 62
     1
 10
237.8934826151
 20
169.830467169
 30
0.0
 11
233.0533831491
 21
169.830467169
 31
0.0
  0
LINE
  5
13E
  8
SERVCLRDIM
  6
CONTINUOUS
 62
     1
 10
236.30598261509999
 20
211.83023331780001
 30
0.0
 11
236.30598261509999
 21
193.83035024340001
 31
0.0
  0
LINE
  5
13F
  8
SERVCLRDIM
  6
CONTINUOUS
 62
     1
 10
236.30598261509999
 20
169.830467169
 30
0.0
 11
236.30598261509999
 21
184.83035024340001
 31
0.0
  0
INSERT
  5
140
  8
SERVCLRDIM
  6
CONTINUOUS
 62
     1
  2
_FILLED
 10
236.30598261509999
 20
211.83023331780001
 30
0.0
 41
4.0
 42
4.0
 43
4.0
 50
90.0
  0
INSERT
  5
141
  8
SERVCLRDIM
  6
CONTINUOUS
 62
     1
  2
_FILLED
 10
236.30598261509999
 20
169.830467169
 30
0.0
 41
4.0
 42
4.0
 43
4.0
 50
270.0
  0
ENDBLK
  5
142
  8
0
  6
ByBlock
 62
     0
  0
BLOCK
  8
SERVCLRDIM
  6
CONTINUOUS
 62
     1
  2
*D13
 70
     1
 10
0.0
 20
0.0
 30
0.0
  3
*D13
  1

  0
TEXT
  5
145
  8
SERVCLRDIM
  6
CONTINUOUS
 62
     1
 10
261.06417997936671
 20
184.98010272689999
 30
0.0
 40
2.0
  1
36
 41
0.8
 72
     1
 11
262.39751331270003
 21
184.98010272689999
 31
0.0
  0
TEXT
  5
146
  8
SERVCLRDIM
  6
CONTINUOUS
 62
     1
 10
261.33084664603342
 20
181.98010272689999
 30
0.0
 40
2.0
  1
[
 41
0.8
 72
     1
 11
261.59751331270002
 21
181.98010272689999
 31
0.0
  0
TEXT
  5
147
  8
SERVCLRDIM
  6
CONTINUOUS
 62
     1
 10
263.46417997936669
 20
181.98010272689999
 30
0.0
 40
2.0
  1
914.4
 41
0.8
 72
     1
 11
266.39751331270003
 21
181.98010272689999
 31
0.0
  0
TEXT
  5
148
  8
SERVCLRDIM
  6
CONTINUOUS
 62
     1
 10
270.93084664603327
 20
181.98010272689999
 30
0.0
 40
2.0
  1
]
 41
0.8
 72
     1
 11
271.19751331269998
 21
181.98010272689999
 31
0.0
  0
LINE
  5
149
  8
SERVCLRDIM
  6
CONTINUOUS
 62
     1
 10
248.3975133127
 20
171.65554060880001
 30
0.0
 11
248.3975133127
 21
187.56760272689999
 31
0.0
  0
LINE
  5
14A
  8
SERVCLRDIM
  6
CONTINUOUS
 62
     1
 10
284.39751331270003
 20
187.56760272689999
 30
0.0
 11
284.39751331270003
 21
177.9510962725
 31
0.0
  0
LINE
  5
14B
  8
SERVCLRDIM
  6
CONTINUOUS
 62
     1
 10
248.3975133127
 20
185.98010272689999
 30
0.0
 11
258.7975133127
 21
185.98010272689999
 31
0.0
  0
LINE
  5
14C
  8
SERVCLRDIM
  6
CONTINUOUS
 62
     1
 10
284.39751331270003
 20
185.98010272689999
 30
0.0
 11
273.99751331269999
 21
185.98010272689999
 31
0.0
  0
INSERT
  5
14D
  8
SERVCLRDIM
  6
CONTINUOUS
 62
     1
  2
_FILLED
 10
248.3975133127
 20
185.98010272689999
 30
0.0
 41
4.0
 42
4.0
 43
4.0
 50
180.0
  0
INSERT
  5
14E
  8
SERVCLRDIM
  6
CONTINUOUS
 62
     1
  2
_FILLED
 10
284.39751331270003
 20
185.98010272689999
 30
0.0
 41
4.0
 42
4.0
 43
4.0
  0
ENDBLK
  5
14F
  8
0
  6
ByBlock
 62
     0
  0
BLOCK
  8
SERVCLRDIM
  6
CONTINUOUS
 62
     1
  2
*D14
 70
     1
 10
0.0
 20
0.0
 30
0.0
  3
*D14
  1

  0
TEXT
  5
152
  8
SERVCLRDIM
  6
CONTINUOUS
 62
     1
 10
77.846444927766669
 20
61.455467169000002
 30
0.0
 40
2.0
  1
42
 41
0.8
 72
     1
 11
79.179778261099997
 21
61.455467169000002
 31
0.0
  0
TEXT
  5
153
  8
SERVCLRDIM
  6
CONTINUOUS
 62
     1
 10
78.113111594433335
 20
58.455467168999988
 30
0.0
 40
2.0
  1
[
 41
0.8
 72
     1
 11
78.3797782611
 21
58.455467168999988
 31
0.0
  0
TEXT
  5
154
  8
SERVCLRDIM
  6
CONTINUOUS
 62
     1
 10
80.379778261099986
 20
58.455467168999988
 30
0.0
 40
2.0
  1
1066.8
 41
0.8
 72
     1
 11
83.979778261099995
 21
58.455467168999988
 31
0.0
  0
TEXT
  5
155
  8
SERVCLRDIM
  6
CONTINUOUS
 62
     1
 10
89.313111594433337
 20
58.455467168999988
 30
0.0
 40
2.0
  1
]
 41
0.8
 72
     1
 11
89.579778261100003
 21
58.455467168999988
 31
0.0
  0
LINE
  5
156
  8
SERVCLRDIM
  6
CONTINUOUS
 62
     1
 10
85.5672782611
 20
83.455467169000016
 30
0.0
 11
77.513934551899993
 21
83.455467169000016
 31
0.0
  0
LINE
  5
157
  8
SERVCLRDIM
  6
CONTINUOUS
 62
     1
 10
82.090431078000009
 20
41.455467169000002
 30
0.0
 11
85.5672782611
 21
41.455467169000002
 31
0.0
  0
LINE
  5
158
  8
SERVCLRDIM
  6
CONTINUOUS
 62
     1
 10
83.979778261099995
 20
83.455467169000016
 30
0.0
 11
83.979778261099995
 21
65.455467169000002
 31
0.0
  0
LINE
  5
159
  8
SERVCLRDIM
  6
CONTINUOUS
 62
     1
 10
83.979778261099995
 20
41.455467169000002
 30
0.0
 11
83.979778261099995
 21
56.455467169000002
 31
0.0
  0
INSERT
  5
15A
  8
SERVCLRDIM
  6
CONTINUOUS
 62
     1
  2
_FILLED
 10
83.979778261099995
 20
83.455467169000016
 30
0.0
 41
4.0
 42
4.0
 43
4.0
 50
90.0
  0
INSERT
  5
15B
  8
SERVCLRDIM
  6
CONTINUOUS
 62
     1
  2
_FILLED
 10
83.979778261099995
 20
41.455467169000002
 30
0.0
 41
4.0
 42
4.0
 43
4.0
 50
270.0
  0
ENDBLK
  5
15C
  8
0
  6
ByBlock
 62
     0
  0
BLOCK
  8
CURBDUCTDIM
  6
CONTINUOUS
 62
     5
  2
*D15
 70
     1
 10
0.0
 20
0.0
 30
0.0
  3
*D15
  1

  0
TEXT
  5
15F
  8
CURBDUCTDIM
  6
CONTINUOUS
 62
     5
 10
152.4404290558
 20
184.9589075115
 30
0.0
 40
2.0
  1
21-1/2
 41
0.8
  0
TEXT
  5
160
  8
CURBDUCTDIM
  6
CONTINUOUS
 62
     5
 10
163.64042905580001
 20
184.9589075115
 30
0.0
 40
2.0
  1
 
 41
0.8
  0
TEXT
  5
161
  8
CURBDUCTDIM
  6
CONTINUOUS
 62
     5
 10
152.4404290558
 20
181.9589075115
 30
0.0
 40
2.0
  1
[
 41
0.8
  0
TEXT
  5
162
  8
CURBDUCTDIM
  6
CONTINUOUS
 62
     5
 10
154.04042905579999
 20
181.9589075115
 30
0.0
 40
2.0
  1
546.1
 41
0.8
  0
TEXT
  5
163
  8
CURBDUCTDIM
  6
CONTINUOUS
 62
     5
 10
162.04042905579999
 20
181.9589075115
 30
0.0
 40
2.0
  1
]
 41
0.8
  0
LINE
  5
164
  8
CURBDUCTDIM
  6
CONTINUOUS
 62
     5
 10
125.875
 20
165.85546665070001
 30
0.0
 11
125.875
 21
182.61637144209999
 31
0.0
  0
LINE
  5
165
  8
CURBDUCTDIM
  6
CONTINUOUS
 62
     5
 10
125.875
 20
186.20313176849999
 30
0.0
 11
125.875
 21
187.54640751150001
 31
0.0
  0
LINE
  5
166
  8
CURBDUCTDIM
  6
CONTINUOUS
 62
     5
 10
147.375
 20
165.85546665070001
 30
0.0
 11
147.375
 21
187.54640751150001
 31
0.0
  0
LINE
  5
167
  8
CURBDUCTDIM
  6
CONTINUOUS
 62
     5
 10
125.875
 20
185.9589075115
 30
0.0
 11
136.625
 21
185.9589075115
 31
0.0
  0
LINE
  5
168
  8
CURBDUCTDIM
  6
CONTINUOUS
 62
     5
 10
147.375
 20
185.9589075115
 30
0.0
 11
136.625
 21
185.9589075115
 31
0.0
  0
LINE
  5
169
  8
CURBDUCTDIM
  6
CONTINUOUS
 62
     5
 10
136.625
 20
185.9589075115
 30
0.0
 11
150.4404290558
 21
185.9589075115
 31
0.0
  0
INSERT
  5
16A
  8
CURBDUCTDIM
  6
CONTINUOUS
 62
     5
  2
_FILLED
 10
125.875
 20
185.9589075115
 30
0.0
 41
4.0
 42
4.0
 43
4.0
 50
180.0
  0
INSERT
  5
16B
  8
CURBDUCTDIM
  6
CONTINUOUS
 62
     5
  2
_FILLED
 10
147.375
 20
185.9589075115
 30
0.0
 41
4.0
 42
4.0
 43
4.0
  0
ENDBLK
  5
16C
  8
0
  6
ByBlock
 62
     0
  0
BLOCK
  8
CURBDUCTDIM
  6
CONTINUOUS
 62
     5
  2
*D16
 70
     1
 10
0.0
 20
0.0
 30
0.0
  3
*D16
  1

  0
TEXT
  5
16F
  8
CURBDUCTDIM
  6
CONTINUOUS
 62
     5
 10
181.1333333333333
 20
201.46926995909999
 30
0.0
 40
2.0
  1
27-1/4
 41
0.8
 72
     1
 11
185.40000000000001
 21
201.46926995909999
 31
0.0
  0
TEXT
  5
170
  8
CURBDUCTDIM
  6
CONTINUOUS
 62
     5
 10
191.80000000000001
 20
201.46926995909999
 30
0.0
 40
2.0
  1
 
 41
0.8
 72
     1
 11
192.59999999999999
 21
201.46926995909999
 31
0.0
  0
TEXT
  5
171
  8
CURBDUCTDIM
  6
CONTINUOUS
 62
     5
 10
181.1333333333333
 20
198.46926995909999
 30
0.0
 40
2.0
  1
[
 41
0.8
 72
     1
 11
181.40000000000001
 21
198.46926995909999
 31
0.0
  0
TEXT
  5
172
  8
CURBDUCTDIM
  6
CONTINUOUS
 62
     5
 10
183.0
 20
198.46926995909999
 30
0.0
 40
2.0
  1
692.2
 41
0.8
 72
     1
 11
186.19999999999999
 21
198.46926995909999
 31
0.0
  0
TEXT
  5
173
  8
CURBDUCTDIM
  6
CONTINUOUS
 62
     5
 10
190.73333333333329
 20
198.46926995909999
 30
0.0
 40
2.0
  1
]
 41
0.8
 72
     1
 11
191.0
 21
198.46926995909999
 31
0.0
  0
LINE
  5
174
  8
CURBDUCTDIM
  6
CONTINUOUS
 62
     5
 10
173.375
 20
165.85546665070001
 30
0.0
 11
173.375
 21
192.93967612980001
 31
0.0
  0
LINE
  5
175
  8
CURBDUCTDIM
  6
CONTINUOUS
 62
     5
 10
173.375
 20
196.4239575897
 30
0.0
 11
173.375
 21
204.0567699591
 31
0.0
  0
LINE
  5
176
  8
CURBDUCTDIM
  6
CONTINUOUS
 62
     5
 10
200.625
 20
165.85546665070001
 30
0.0
 11
200.625
 21
204.0567699591
 31
0.0
  0
LINE
  5
177
  8
CURBDUCTDIM
  6
CONTINUOUS
 62
     5
 10
173.375
 20
202.46926995909999
 30
0.0
 11
178.59999999999999
 21
202.46926995909999
 31
0.0
  0
LINE
  5
178
  8
CURBDUCTDIM
  6
CONTINUOUS
 62
     5
 10
200.625
 20
202.46926995909999
 30
0.0
 11
195.40000000000001
 21
202.46926995909999
 31
0.0
  0
INSERT
  5
179
  8
CURBDUCTDIM
  6
CONTINUOUS
 62
     5
  2
_FILLED
 10
173.375
 20
202.46926995909999
 30
0.0
 41
4.0
 42
4.0
 43
4.0
 50
180.0
  0
INSERT
  5
17A
  8
CURBDUCTDIM
  6
CONTINUOUS
 62
     5
  2
_FILLED
 10
200.625
 20
202.46926995909999
 30
0.0
 41
4.0
 42
4.0
 43
4.0
  0
ENDBLK
  5
17B
  8
0
  6
ByBlock
 62
     0
  0
BLOCK
  8
UNIT-DUCT-DIM
  6
CONTINUOUS
 62
     2
  2
*D17
 70
     1
 10
0.0
 20
0.0
 30
0.0
  3
*D17
  1

  0
TEXT
  5
17E
  8
UNIT-DUCT-DIM
  6
CONTINUOUS
 62
     2
 10
82.766488750433325
 20
183.50889855470001
 30
0.0
 40
2.0
  1
6-1/4
 41
0.8
 72
     1
 11
86.233155417099994
 21
183.50889855470001
 31
0.0
  0
TEXT
  5
17F
  8
UNIT-DUCT-DIM
  6
CONTINUOUS
 62
     2
 10
82.766488750433325
 20
180.50889855470001
 30
0.0
 40
2.0
  1
[
 41
0.8
 72
     1
 11
83.033155417100005
 21
180.50889855470001
 31
0.0
  0
TEXT
  5
180
  8
UNIT-DUCT-DIM
  6
CONTINUOUS
 62
     2
 10
84.899822083766637
 20
180.50889855470001
 30
0.0
 40
2.0
  1
158.7
 41
0.8
 72
     1
 11
87.833155417099988
 21
180.50889855470001
 31
0.0
  0
TEXT
  5
181
  8
UNIT-DUCT-DIM
  6
CONTINUOUS
 62
     2
 10
92.366488750433319
 20
180.50889855470001
 30
0.0
 40
2.0
  1
]
 41
0.8
 72
     1
 11
92.633155417099985
 21
180.50889855470001
 31
0.0
  0
TEXT
  5
182
  8
UNIT-DUCT-DIM
  6
CONTINUOUS
 62
     2
 10
85.433155417099996
 20
177.50889855470001
 30
0.0
 40
2.0
  1
TYP.
 41
0.8
 72
     1
 11
87.833155417099988
 21
177.50889855470001
 31
0.0
  0
LINE
  5
183
  8
UNIT-DUCT-DIM
  6
CONTINUOUS
 62
     2
 10
125.1616963587
 20
163.58263009359999
 30
0.0
 11
86.245655417099996
 21
163.58263009359999
 31
0.0
  0
LINE
  5
184
  8
UNIT-DUCT-DIM
  6
CONTINUOUS
 62
     2
 10
153.49265242050001
 20
169.830467169
 30
0.0
 11
146.7735553725
 21
169.830467169
 31
0.0
  0
LINE
  5
185
  8
UNIT-DUCT-DIM
  6
CONTINUOUS
 62
     2
 10
90.732667446200011
 20
169.830467169
 30
0.0
 11
86.245655417099996
 21
169.830467169
 31
0.0
  0
LINE
  5
186
  8
UNIT-DUCT-DIM
  6
CONTINUOUS
 62
     2
 10
87.833155417099988
 20
163.58263009359999
 30
0.0
 11
87.833155417099988
 21
150.8826300936
 31
0.0
  0
LINE
  5
187
  8
UNIT-DUCT-DIM
  6
CONTINUOUS
 62
     2
 10
87.833155417099988
 20
169.830467169
 30
0.0
 11
87.833155417099988
 21
176.50889855470001
 31
0.0
  0
INSERT
  5
188
  8
UNIT-DUCT-DIM
  6
CONTINUOUS
 62
     2
  2
_FILLED
 10
87.833155417099988
 20
163.58263009359999
 30
0.0
 41
4.0
 42
4.0
 43
4.0
 50
90.0
  0
INSERT
  5
189
  8
UNIT-DUCT-DIM
  6
CONTINUOUS
 62
     2
  2
_FILLED
 10
87.833155417099988
 20
169.830467169
 30
0.0
 41
4.0
 42
4.0
 43
4.0
 50
270.0
  0
ENDBLK
  5
18A
  8
0
  6
ByBlock
 62
     0
  0
BLOCK
  8
UNIT-DUCT-DIM
  6
CONTINUOUS
 62
     2
  2
*D18
 70
     1
 10
0.0
 20
0.0
 30
0.0
  3
*D18
  1

  0
TEXT
  5
18D
  8
UNIT-DUCT-DIM
  6
CONTINUOUS
 62
     2
 10
99.485724481766667
 20
176.61608698129999
 30
0.0
 40
2.0
  1
6-1/4
 41
0.8
 72
     2
 11
106.4190578151
 21
176.61608698129999
 31
0.0
  0
TEXT
  5
18E
  8
UNIT-DUCT-DIM
  6
CONTINUOUS
 62
     2
 10
109.61905781510001
 20
176.61608698129999
 30
0.0
 40
2.0
  1
 
 41
0.8
 72
     2
 11
111.2190578151
 21
176.61608698129999
 31
0.0
  0
TEXT
  5
18F
  8
UNIT-DUCT-DIM
  6
CONTINUOUS
 62
     2
 10
99.485724481766667
 20
173.61608698129999
 30
0.0
 40
2.0
  1
[
 41
0.8
 72
     2
 11
100.0190578151
 21
173.61608698129999
 31
0.0
  0
TEXT
  5
190
  8
UNIT-DUCT-DIM
  6
CONTINUOUS
 62
     2
 10
102.1523911484333
 20
173.61608698129999
 30
0.0
 40
2.0
  1
158.7
 41
0.8
 72
     2
 11
108.0190578151
 21
173.61608698129999
 31
0.0
  0
TEXT
  5
191
  8
UNIT-DUCT-DIM
  6
CONTINUOUS
 62
     2
 10
109.0857244817667
 20
173.61608698129999
 30
0.0
 40
2.0
  1
]
 41
0.8
 72
     2
 11
109.61905781510001
 21
173.61608698129999
 31
0.0
  0
LINE
  5
192
  8
UNIT-DUCT-DIM
  6
CONTINUOUS
 62
     2
 10
120.5
 20
173.8502583449
 30
0.0
 11
120.5
 21
179.20358698129999
 31
0.0
  0
LINE
  5
193
  8
UNIT-DUCT-DIM
  6
CONTINUOUS
 62
     2
 10
126.7491963587
 20
165.17013009359999
 30
0.0
 11
126.7491963587
 21
179.20358698129999
 31
0.0
  0
LINE
  5
194
  8
UNIT-DUCT-DIM
  6
CONTINUOUS
 62
     2
 10
120.5
 20
177.61608698129999
 30
0.0
 11
113.2190578151
 21
177.61608698129999
 31
0.0
  0
LINE
  5
195
  8
UNIT-DUCT-DIM
  6
CONTINUOUS
 62
     2
 10
126.7491963587
 20
177.61608698129999
 30
0.0
 11
139.44919635869999
 21
177.61608698129999
 31
0.0
  0
INSERT
  5
196
  8
UNIT-DUCT-DIM
  6
CONTINUOUS
 62
     2
  2
_FILLED
 10
120.5
 20
177.61608698129999
 30
0.0
 41
4.0
 42
4.0
 43
4.0
  0
INSERT
  5
197
  8
UNIT-DUCT-DIM
  6
CONTINUOUS
 62
     2
  2
_FILLED
 10
126.7491963587
 20
177.61608698129999
 30
0.0
 41
4.0
 42
4.0
 43
4.0
 50
180.0
  0
ENDBLK
  5
198
  8
0
  6
ByBlock
 62
     0
  0
BLOCK
  8
UNIT-DUCT-DIM
  6
CONTINUOUS
 62
     2
  2
*D19
 70
     1
 10
0.0
 20
0.0
 30
0.0
  3
*D19
  1

  0
TEXT
  5
19B
  8
UNIT-DUCT-DIM
  6
CONTINUOUS
 62
     2
 10
151.63201130440001
 20
176.61608698129999
 30
0.0
 40
2.0
  1
19-1/4
 41
0.8
  0
TEXT
  5
19C
  8
UNIT-DUCT-DIM
  6
CONTINUOUS
 62
     2
 10
162.8320113044
 20
176.61608698129999
 30
0.0
 40
2.0
  1
 
 41
0.8
  0
TEXT
  5
19D
  8
UNIT-DUCT-DIM
  6
CONTINUOUS
 62
     2
 10
151.63201130440001
 20
173.61608698129999
 30
0.0
 40
2.0
  1
[
 41
0.8
  0
TEXT
  5
19E
  8
UNIT-DUCT-DIM
  6
CONTINUOUS
 62
     2
 10
153.2320113044
 20
173.61608698129999
 30
0.0
 40
2.0
  1
489.0
 41
0.8
  0
TEXT
  5
19F
  8
UNIT-DUCT-DIM
  6
CONTINUOUS
 62
     2
 10
161.2320113044
 20
173.61608698129999
 30
0.0
 40
2.0
  1
]
 41
0.8
  0
LINE
  5
1A0
  8
UNIT-DUCT-DIM
  6
CONTINUOUS
 62
     2
 10
126.7491963587
 20
165.17013009359999
 30
0.0
 11
126.7491963587
 21
179.20358698129999
 31
0.0
  0
LINE
  5
1A1
  8
UNIT-DUCT-DIM
  6
CONTINUOUS
 62
     2
 10
146.00126465010001
 20
165.17013009359999
 30
0.0
 11
146.00126465010001
 21
179.20358698129999
 31
0.0
  0
LINE
  5
1A2
  8
UNIT-DUCT-DIM
  6
CONTINUOUS
 62
     2
 10
126.7491963587
 20
177.61608698129999
 30
0.0
 11
136.37523050440001
 21
177.61608698129999
 31
0.0
  0
LINE
  5
1A3
  8
UNIT-DUCT-DIM
  6
CONTINUOUS
 62
     2
 10
146.00126465010001
 20
177.61608698129999
 30
0.0
 11
136.37523050440001
 21
177.61608698129999
 31
0.0
  0
LINE
  5
1A4
  8
UNIT-DUCT-DIM
  6
CONTINUOUS
 62
     2
 10
136.37523050440001
 20
177.61608698129999
 30
0.0
 11
149.63201130440001
 21
177.61608698129999
 31
0.0
  0
INSERT
  5
1A5
  8
UNIT-DUCT-DIM
  6
CONTINUOUS
 62
     2
  2
_FILLED
 10
126.7491963587
 20
177.61608698129999
 30
0.0
 41
4.0
 42
4.0
 43
4.0
 50
180.0
  0
INSERT
  5
1A6
  8
UNIT-DUCT-DIM
  6
CONTINUOUS
 62
     2
  2
_FILLED
 10
146.00126465010001
 20
177.61608698129999
 30
0.0
 41
4.0
 42
4.0
 43
4.0
  0
ENDBLK
  5
1A7
  8
0
  6
ByBlock
 62
     0
  0
BLOCK
  8
UNIT-DUCT-DIM
  6
CONTINUOUS
 62
     2
  2
*D20
 70
     1
 10
0.0
 20
0.0
 30
0.0
  3
*D20
  1

  0
TEXT
  5
1AA
  8
UNIT-DUCT-DIM
  6
CONTINUOUS
 62
     2
 10
140.44109727496661
 20
193.33915563779999
 30
0.0
 40
2.0
  1
53-3/4
 41
0.8
 72
     1
 11
144.9744306083
 21
193.33915563779999
 31
0.0
  0
TEXT
  5
1AB
  8
UNIT-DUCT-DIM
  6
CONTINUOUS
 62
     2
 10
152.9744306083
 20
193.33915563779999
 30
0.0
 40
2.0
  1
 
 41
0.8
 72
     1
 11
153.77443060830001
 21
193.33915563779999
 31
0.0
  0
TEXT
  5
1AC
  8
UNIT-DUCT-DIM
  6
CONTINUOUS
 62
     2
 10
140.70776394163329
 20
190.33915563779999
 30
0.0
 40
2.0
  1
[
 41
0.8
 72
     1
 11
140.9744306083
 21
190.33915563779999
 31
0.0
  0
TEXT
  5
1AD
  8
UNIT-DUCT-DIM
  6
CONTINUOUS
 62
     2
 10
142.84109727496659
 20
190.33915563779999
 30
0.0
 40
2.0
  1
1365.2
 41
0.8
 72
     1
 11
146.57443060829999
 21
190.33915563779999
 31
0.0
  0
TEXT
  5
1AE
  8
UNIT-DUCT-DIM
  6
CONTINUOUS
 62
     2
 10
151.90776394163331
 20
190.33915563779999
 30
0.0
 40
2.0
  1
]
 41
0.8
 72
     1
 11
152.1744306082999
 21
190.33915563779999
 31
0.0
  0
LINE
  5
1AF
  8
UNIT-DUCT-DIM
  6
CONTINUOUS
 62
     2
 10
120.5
 20
173.6511531445
 30
0.0
 11
120.5
 21
186.4567664846
 31
0.0
  0
LINE
  5
1B0
  8
UNIT-DUCT-DIM
  6
CONTINUOUS
 62
     2
 10
120.5
 20
189.8235388443
 30
0.0
 11
120.5
 21
195.9266556378
 31
0.0
  0
LINE
  5
1B1
  8
UNIT-DUCT-DIM
  6
CONTINUOUS
 62
     2
 10
174.24886121669999
 20
165.166202274
 30
0.0
 11
174.24886121669999
 21
195.9266556378
 31
0.0
  0
LINE
  5
1B2
  8
UNIT-DUCT-DIM
  6
CONTINUOUS
 62
     2
 10
120.5
 20
194.33915563779999
 30
0.0
 11
138.17443060830001
 21
194.33915563779999
 31
0.0
  0
LINE
  5
1B3
  8
UNIT-DUCT-DIM
  6
CONTINUOUS
 62
     2
 10
174.24886121669999
 20
194.33915563779999
 30
0.0
 11
156.57443060829999
 21
194.33915563779999
 31
0.0
  0
INSERT
  5
1B4
  8
UNIT-DUCT-DIM
  6
CONTINUOUS
 62
     2
  2
_FILLED
 10
120.5
 20
194.33915563779999
 30
0.0
 41
4.0
 42
4.0
 43
4.0
 50
180.0
  0
INSERT
  5
1B5
  8
UNIT-DUCT-DIM
  6
CONTINUOUS
 62
     2
  2
_FILLED
 10
174.24886121669999
 20
194.33915563779999
 30
0.0
 41
4.0
 42
4.0
 43
4.0
  0
ENDBLK
  5
1B6
  8
0
  6
ByBlock
 62
     0
  0
BLOCK
  8
UNIT-DUCT-DIM
  6
CONTINUOUS
 62
     2
  2
*D21
 70
     1
 10
0.0
 20
0.0
 30
0.0
  3
*D21
  1

  0
TEXT
  5
1B9
  8
UNIT-DUCT-DIM
  6
CONTINUOUS
 62
     2
 10
181.13178834833329
 20
193.33915563779999
 30
0.0
 40
2.0
  1
25-1/2
 41
0.8
 72
     1
 11
185.398455015
 21
193.33915563779999
 31
0.0
  0
TEXT
  5
1BA
  8
UNIT-DUCT-DIM
  6
CONTINUOUS
 62
     2
 10
191.798455015
 20
193.33915563779999
 30
0.0
 40
2.0
  1
 
 41
0.8
 72
     1
 11
192.59845501500001
 21
193.33915563779999
 31
0.0
  0
TEXT
  5
1BB
  8
UNIT-DUCT-DIM
  6
CONTINUOUS
 62
     2
 10
181.13178834833329
 20
190.33915563779999
 30
0.0
 40
2.0
  1
[
 41
0.8
 72
     1
 11
181.398455015
 21
190.33915563779999
 31
0.0
  0
TEXT
  5
1BC
  8
UNIT-DUCT-DIM
  6
CONTINUOUS
 62
     2
 10
182.99845501499999
 20
190.33915563779999
 30
0.0
 40
2.0
  1
647.7
 41
0.8
 72
     1
 11
186.19845501500001
 21
190.33915563779999
 31
0.0
  0
TEXT
  5
1BD
  8
UNIT-DUCT-DIM
  6
CONTINUOUS
 62
     2
 10
190.73178834833331
 20
190.33915563779999
 30
0.0
 40
2.0
  1
]
 41
0.8
 72
     1
 11
190.99845501499999
 21
190.33915563779999
 31
0.0
  0
LINE
  5
1BE
  8
UNIT-DUCT-DIM
  6
CONTINUOUS
 62
     2
 10
174.24886121669999
 20
165.166202274
 30
0.0
 11
174.24886121669999
 21
195.9266556378
 31
0.0
  0
LINE
  5
1BF
  8
UNIT-DUCT-DIM
  6
CONTINUOUS
 62
     2
 10
199.74804881329999
 20
165.166202274
 30
0.0
 11
199.74804881329999
 21
195.9266556378
 31
0.0
  0
LINE
  5
1C0
  8
UNIT-DUCT-DIM
  6
CONTINUOUS
 62
     2
 10
174.24886121669999
 20
194.33915563779999
 30
0.0
 11
178.59845501500001
 21
194.33915563779999
 31
0.0
  0
LINE
  5
1C1
  8
UNIT-DUCT-DIM
  6
CONTINUOUS
 62
     2
 10
199.74804881329999
 20
194.33915563779999
 30
0.0
 11
195.398455015
 21
194.33915563779999
 31
0.0
  0
INSERT
  5
1C2
  8
UNIT-DUCT-DIM
  6
CONTINUOUS
 62
     2
  2
_FILLED
 10
174.24886121669999
 20
194.33915563779999
 30
0.0
 41
4.0
 42
4.0
 43
4.0
 50
180.0
  0
INSERT
  5
1C3
  8
UNIT-DUCT-DIM
  6
CONTINUOUS
 62
     2
  2
_FILLED
 10
199.74804881329999
 20
194.33915563779999
 30
0.0
 41
4.0
 42
4.0
 43
4.0
  0
ENDBLK
  5
1C4
  8
0
  6
ByBlock
 62
     0
  0
BLOCK
  8
CURBDUCTDIM
  6
CONTINUOUS
 62
     5
  2
*D22
 70
     1
 10
0.0
 20
0.0
 30
0.0
  3
*D22
  1

  0
TEXT
  5
1C7
  8
CURBDUCTDIM
  6
CONTINUOUS
 62
     5
 10
262.01456094073342
 20
118.4049919656
 30
0.0
 40
2.0
  1
63-1/4
 41
0.8
 72
     1
 11
266.28122760740001
 21
118.4049919656
 31
0.0
  0
TEXT
  5
1C8
  8
CURBDUCTDIM
  6
CONTINUOUS
 62
     5
 10
274.28122760740001
 20
118.4049919656
 30
0.0
 40
2.0
  1
 
 41
0.8
 72
     1
 11
275.08122760740002
 21
118.4049919656
 31
0.0
  0
TEXT
  5
1C9
  8
CURBDUCTDIM
  6
CONTINUOUS
 62
     5
 10
262.01456094073342
 20
115.4049919656
 30
0.0
 40
2.0
  1
[
 41
0.8
 72
     1
 11
262.28122760740001
 21
115.4049919656
 31
0.0
  0
TEXT
  5
1CA
  8
CURBDUCTDIM
  6
CONTINUOUS
 62
     5
 10
264.28122760740001
 20
115.4049919656
 30
0.0
 40
2.0
  1
1606.6
 41
0.8
 72
     1
 11
267.88122760739998
 21
115.4049919656
 31
0.0
  0
TEXT
  5
1CB
  8
CURBDUCTDIM
  6
CONTINUOUS
 62
     5
 10
273.21456094073329
 20
115.4049919656
 30
0.0
 40
2.0
  1
]
 41
0.8
 72
     1
 11
273.4812276074
 21
115.4049919656
 31
0.0
  0
LINE
  5
1CC
  8
CURBDUCTDIM
  6
CONTINUOUS
 62
     5
 10
202.21250000000001
 20
164.2679666507
 30
0.0
 11
270.26872760740002
 21
164.2679666507
 31
0.0
  0
LINE
  5
1CD
  8
CURBDUCTDIM
  6
CONTINUOUS
 62
     5
 10
202.21250000000001
 20
101.0179666507
 30
0.0
 11
270.26872760740002
 21
101.0179666507
 31
0.0
  0
LINE
  5
1CE
  8
CURBDUCTDIM
  6
CONTINUOUS
 62
     5
 10
268.68122760739999
 20
164.2679666507
 30
0.0
 11
268.68122760739999
 21
122.4049919656
 31
0.0
  0
LINE
  5
1CF
  8
CURBDUCTDIM
  6
CONTINUOUS
 62
     5
 10
268.68122760739999
 20
101.0179666507
 30
0.0
 11
268.68122760739999
 21
113.4049919656
 31
0.0
  0
INSERT
  5
1D0
  8
CURBDUCTDIM
  6
CONTINUOUS
 62
     5
  2
_FILLED
 10
268.68122760739999
 20
164.2679666507
 30
0.0
 41
4.0
 42
4.0
 43
4.0
 50
90.0
  0
INSERT
  5
1D1
  8
CURBDUCTDIM
  6
CONTINUOUS
 62
     5
  2
_FILLED
 10
268.68122760739999
 20
101.0179666507
 30
0.0
 41
4.0
 42
4.0
 43
4.0
 50
270.0
  0
ENDBLK
  5
1D2
  8
0
  6
ByBlock
 62
     0
  0
BLOCK
  8
CURBDUCTDIM
  6
CONTINUOUS
 62
     5
  2
*D23
 70
     1
 10
0.0
 20
0.0
 30
0.0
  3
*D23
  1

  0
TEXT
  5
1D5
  8
CURBDUCTDIM
  6
CONTINUOUS
 62
     5
 10
70.705984192466673
 20
119.7444164999
 30
0.0
 40
2.0
  1
68-3/4
 41
0.8
 72
     1
 11
75.239317525800004
 21
119.7444164999
 31
0.0
  0
TEXT
  5
1D6
  8
CURBDUCTDIM
  6
CONTINUOUS
 62
     5
 10
83.239317525800004
 20
119.7444164999
 30
0.0
 40
2.0
  1
 
 41
0.8
 72
     1
 11
84.039317525800001
 21
119.7444164999
 31
0.0
  0
TEXT
  5
1D7
  8
CURBDUCTDIM
  6
CONTINUOUS
 62
     5
 10
70.972650859133338
 20
116.7444164999
 30
0.0
 40
2.0
  1
[
 41
0.8
 72
     1
 11
71.239317525800004
 21
116.7444164999
 31
0.0
  0
TEXT
  5
1D8
  8
CURBDUCTDIM
  6
CONTINUOUS
 62
     5
 10
73.105984192466664
 20
116.7444164999
 30
0.0
 40
2.0
  1
1746.3
 41
0.8
 72
     1
 11
76.839317525799999
 21
116.7444164999
 31
0.0
  0
TEXT
  5
1D9
  8
CURBDUCTDIM
  6
CONTINUOUS
 62
     5
 10
82.172650859133313
 20
116.7444164999
 30
0.0
 40
2.0
  1
]
 41
0.8
 72
     1
 11
82.439317525799993
 21
116.7444164999
 31
0.0
  0
LINE
  5
1DA
  8
CURBDUCTDIM
  6
CONTINUOUS
 62
     5
 10
124.28749999999999
 20
164.2679666507
 30
0.0
 11
76.051817525800004
 21
164.2679666507
 31
0.0
  0
LINE
  5
1DB
  8
CURBDUCTDIM
  6
CONTINUOUS
 62
     5
 10
124.28749999999999
 20
95.517966650700004
 30
0.0
 11
116.4421236538
 21
95.517966650700004
 31
0.0
  0
LINE
  5
1DC
  8
CURBDUCTDIM
  6
CONTINUOUS
 62
     5
 10
113.5471559918
 20
95.517966650700004
 30
0.0
 11
95.132371636000016
 21
95.517966650700004
 31
0.0
  0
LINE
  5
1DD
  8
CURBDUCTDIM
  6
CONTINUOUS
 62
     5
 10
91.224165292299986
 20
95.517966650700004
 30
0.0
 11
76.051817525800004
 21
95.517966650700004
 31
0.0
  0
LINE
  5
1DE
  8
CURBDUCTDIM
  6
CONTINUOUS
 62
     5
 10
77.639317525799996
 20
164.2679666507
 30
0.0
 11
77.639317525799996
 21
123.7444164999
 31
0.0
  0
LINE
  5
1DF
  8
CURBDUCTDIM
  6
CONTINUOUS
 62
     5
 10
77.639317525799996
 20
95.517966650700004
 30
0.0
 11
77.639317525799996
 21
114.7444164999
 31
0.0
  0
INSERT
  5
1E0
  8
CURBDUCTDIM
  6
CONTINUOUS
 62
     5
  2
_FILLED
 10
77.639317525799996
 20
164.2679666507
 30
0.0
 41
4.0
 42
4.0
 43
4.0
 50
90.0
  0
INSERT
  5
1E1
  8
CURBDUCTDIM
  6
CONTINUOUS
 62
     5
  2
_FILLED
 10
77.639317525799996
 20
95.517966650700004
 30
0.0
 41
4.0
 42
4.0
 43
4.0
 50
270.0
  0
ENDBLK
  5
1E2
  8
0
  6
ByBlock
 62
     0
  0
BLOCK
  8
CURBDUCTDIM
  6
CONTINUOUS
 62
     5
  2
*D24
 70
     1
 10
0.0
 20
0.0
 30
0.0
  3
*D24
  1

  0
TEXT
  5
1E5
  8
CURBDUCTDIM
  6
CONTINUOUS
 62
     5
 10
72.305984192466667
 20
190.4766792986
 30
0.0
 40
2.0
  1
5-5/8
 41
0.8
 72
     1
 11
76.039317525800001
 21
190.4766792986
 31
0.0
  0
TEXT
  5
1E6
  8
CURBDUCTDIM
  6
CONTINUOUS
 62
     5
 10
72.572650859133333
 20
187.4766792986
 30
0.0
 40
2.0
  1
[
 41
0.8
 72
     1
 11
72.839317525799999
 21
187.4766792986
 31
0.0
  0
TEXT
  5
1E7
  8
CURBDUCTDIM
  6
CONTINUOUS
 62
     5
 10
74.972650859133324
 20
187.4766792986
 30
0.0
 40
2.0
  1
141.3
 41
0.8
 72
     1
 11
77.639317525799996
 21
187.4766792986
 31
0.0
  0
TEXT
  5
1E8
  8
CURBDUCTDIM
  6
CONTINUOUS
 62
     5
 10
82.172650859133313
 20
187.4766792986
 30
0.0
 40
2.0
  1
]
 41
0.8
 72
     1
 11
82.439317525799993
 21
187.4766792986
 31
0.0
  0
TEXT
  5
1E9
  8
CURBDUCTDIM
  6
CONTINUOUS
 62
     5
 10
75.23931752579999
 20
184.4766792986
 30
0.0
 40
2.0
  1
TYP.
 41
0.8
 72
     1
 11
77.639317525799996
 21
184.4766792986
 31
0.0
  0
LINE
  5
1EA
  8
CURBDUCTDIM
  6
CONTINUOUS
 62
     5
 10
124.28749999999999
 20
164.2679666507
 30
0.0
 11
76.051817525800004
 21
164.2679666507
 31
0.0
  0
LINE
  5
1EB
  8
CURBDUCTDIM
  6
CONTINUOUS
 62
     5
 10
118.91249999999999
 20
169.830467169
 30
0.0
 11
98.455699489699995
 21
169.830467169
 31
0.0
  0
LINE
  5
1EC
  8
CURBDUCTDIM
  6
CONTINUOUS
 62
     5
 10
93.739906557800012
 20
169.830467169
 30
0.0
 11
76.051817525800004
 21
169.830467169
 31
0.0
  0
LINE
  5
1ED
  8
CURBDUCTDIM
  6
CONTINUOUS
 62
     5
 10
77.639317525799996
 20
164.2679666507
 30
0.0
 11
77.639317525799996
 21
151.56796665069999
 31
0.0
  0
LINE
  5
1EE
  8
CURBDUCTDIM
  6
CONTINUOUS
 62
     5
 10
77.639317525799996
 20
169.830467169
 30
0.0
 11
77.639317525799996
 21
183.4766792986
 31
0.0
  0
INSERT
  5
1EF
  8
CURBDUCTDIM
  6
CONTINUOUS
 62
     5
  2
_FILLED
 10
77.639317525799996
 20
164.2679666507
 30
0.0
 41
4.0
 42
4.0
 43
4.0
 50
90.0
  0
INSERT
  5
1F0
  8
CURBDUCTDIM
  6
CONTINUOUS
 62
     5
  2
_FILLED
 10
77.639317525799996
 20
169.830467169
 30
0.0
 41
4.0
 42
4.0
 43
4.0
 50
270.0
  0
ENDBLK
  5
1F1
  8
0
  6
ByBlock
 62
     0
  0
BLOCK
  8
CURBDUCTDIM
  6
CONTINUOUS
 62
     5
  2
*D25
 70
     1
 10
0.0
 20
0.0
 30
0.0
  3
*D25
  1

  0
TEXT
  5
1F4
  8
CURBDUCTDIM
  6
CONTINUOUS
 62
     5
 10
99.957289199833326
 20
184.9589075115
 30
0.0
 40
2.0
  1
5-3/8
 41
0.8
 72
     2
 11
107.42395586649999
 21
184.9589075115
 31
0.0
  0
TEXT
  5
1F5
  8
CURBDUCTDIM
  6
CONTINUOUS
 62
     5
 10
110.6239558665
 20
184.9589075115
 30
0.0
 40
2.0
  1
 
 41
0.8
 72
     2
 11
112.22395586650001
 21
184.9589075115
 31
0.0
  0
TEXT
  5
1F6
  8
CURBDUCTDIM
  6
CONTINUOUS
 62
     5
 10
100.4906225331666
 20
181.9589075115
 30
0.0
 40
2.0
  1
[
 41
0.8
 72
     2
 11
101.0239558665
 21
181.9589075115
 31
0.0
  0
TEXT
  5
1F7
  8
CURBDUCTDIM
  6
CONTINUOUS
 62
     5
 10
103.1572891998333
 20
181.9589075115
 30
0.0
 40
2.0
  1
136.5
 41
0.8
 72
     2
 11
109.0239558665
 21
181.9589075115
 31
0.0
  0
TEXT
  5
1F8
  8
CURBDUCTDIM
  6
CONTINUOUS
 62
     5
 10
110.0906225331666
 20
181.9589075115
 30
0.0
 40
2.0
  1
]
 41
0.8
 72
     2
 11
110.6239558665
 21
181.9589075115
 31
0.0
  0
LINE
  5
1F9
  8
CURBDUCTDIM
  6
CONTINUOUS
 62
     5
 10
120.5
 20
171.41796716900001
 30
0.0
 11
120.5
 21
187.54640751150001
 31
0.0
  0
LINE
  5
1FA
  8
CURBDUCTDIM
  6
CONTINUOUS
 62
     5
 10
125.875
 20
165.85546665070001
 30
0.0
 11
125.875
 21
187.54640751150001
 31
0.0
  0
LINE
  5
1FB
  8
CURBDUCTDIM
  6
CONTINUOUS
 62
     5
 10
120.5
 20
185.9589075115
 30
0.0
 11
114.22395586650001
 21
185.9589075115
 31
0.0
  0
LINE
  5
1FC
  8
CURBDUCTDIM
  6
CONTINUOUS
 62
     5
 10
125.875
 20
185.9589075115
 30
0.0
 11
138.57499999999999
 21
185.9589075115
 31
0.0
  0
INSERT
  5
1FD
  8
CURBDUCTDIM
  6
CONTINUOUS
 62
     5
  2
_FILLED
 10
120.5
 20
185.9589075115
 30
0.0
 41
4.0
 42
4.0
 43
4.0
  0
INSERT
  5
1FE
  8
CURBDUCTDIM
  6
CONTINUOUS
 62
     5
  2
_FILLED
 10
125.875
 20
185.9589075115
 30
0.0
 41
4.0
 42
4.0
 43
4.0
 50
180.0
  0
ENDBLK
  5
1FF
  8
0
  6
ByBlock
 62
     0
  0
BLOCK
  8
CURBDUCTDIM
  6
CONTINUOUS
 62
     5
  2
*D26
 70
     1
 10
0.0
 20
0.0
 30
0.0
  3
*D26
  1

  0
TEXT
  5
202
  8
CURBDUCTDIM
  6
CONTINUOUS
 62
     5
 10
140.00416666666661
 20
201.46926995909999
 30
0.0
 40
2.0
  1
52-7/8
 41
0.8
 72
     1
 11
144.53749999999999
 21
201.46926995909999
 31
0.0
  0
TEXT
  5
203
  8
CURBDUCTDIM
  6
CONTINUOUS
 62
     5
 10
152.53749999999999
 20
201.46926995909999
 30
0.0
 40
2.0
  1
 
 41
0.8
 72
     1
 11
153.33750000000001
 21
201.46926995909999
 31
0.0
  0
TEXT
  5
204
  8
CURBDUCTDIM
  6
CONTINUOUS
 62
     5
 10
140.27083333333329
 20
198.46926995909999
 30
0.0
 40
2.0
  1
[
 41
0.8
 72
     1
 11
140.53749999999999
 21
198.46926995909999
 31
0.0
  0
TEXT
  5
205
  8
CURBDUCTDIM
  6
CONTINUOUS
 62
     5
 10
142.53749999999999
 20
198.46926995909999
 30
0.0
 40
2.0
  1
1343.0
 41
0.8
 72
     1
 11
146.13749999999999
 21
198.46926995909999
 31
0.0
  0
TEXT
  5
206
  8
CURBDUCTDIM
  6
CONTINUOUS
 62
     5
 10
151.4708333333333
 20
198.46926995909999
 30
0.0
 40
2.0
  1
]
 41
0.8
 72
     1
 11
151.73750000000001
 21
198.46926995909999
 31
0.0
  0
LINE
  5
207
  8
CURBDUCTDIM
  6
CONTINUOUS
 62
     5
 10
120.5
 20
171.41796716900001
 30
0.0
 11
120.5
 21
204.0567699591
 31
0.0
  0
LINE
  5
208
  8
CURBDUCTDIM
  6
CONTINUOUS
 62
     5
 10
173.375
 20
197.40844420880001
 30
0.0
 11
173.375
 21
204.0567699591
 31
0.0
  0
LINE
  5
209
  8
CURBDUCTDIM
  6
CONTINUOUS
 62
     5
 10
120.5
 20
202.46926995909999
 30
0.0
 11
137.73750000000001
 21
202.46926995909999
 31
0.0
  0
LINE
  5
20A
  8
CURBDUCTDIM
  6
CONTINUOUS
 62
     5
 10
173.375
 20
202.46926995909999
 30
0.0
 11
156.13749999999999
 21
202.46926995909999
 31
0.0
  0
INSERT
  5
20B
  8
CURBDUCTDIM
  6
CONTINUOUS
 62
     5
  2
_FILLED
 10
120.5
 20
202.46926995909999
 30
0.0
 41
4.0
 42
4.0
 43
4.0
 50
180.0
  0
INSERT
  5
20C
  8
CURBDUCTDIM
  6
CONTINUOUS
 62
     5
  2
_FILLED
 10
173.375
 20
202.46926995909999
 30
0.0
 41
4.0
 42
4.0
 43
4.0
  0
ENDBLK
  5
20D
  8
0
  6
ByBlock
 62
     0
  0
BLOCK
  8
UNIT-DIM
  6
CONTINUOUS
 62
     7
  2
*D27
 70
     1
 10
0.0
 20
0.0
 30
0.0
  3
*D27
  1

  0
TEXT
  5
210
  8
UNIT-DIM
  6
CONTINUOUS
 62
     7
 10
142.3719434786
 20
62.387553486899989
 30
0.0
 40
2.0
  1
8-1/8
 41
0.8
  0
TEXT
  5
211
  8
UNIT-DIM
  6
CONTINUOUS
 62
     7
 10
153.57194347859999
 20
62.387553486899989
 30
0.0
 40
2.0
  1
 
 41
0.8
  0
TEXT
  5
212
  8
UNIT-DIM
  6
CONTINUOUS
 62
     7
 10
142.3719434786
 20
59.387553486899989
 30
0.0
 40
2.0
  1
[
 41
0.8
  0
TEXT
  5
213
  8
UNIT-DIM
  6
CONTINUOUS
 62
     7
 10
143.9719434786
 20
59.387553486899989
 30
0.0
 40
2.0
  1
206.4
 41
0.8
  0
TEXT
  5
214
  8
UNIT-DIM
  6
CONTINUOUS
 62
     7
 10
151.9719434786
 20
59.387553486899989
 30
0.0
 40
2.0
  1
]
 41
0.8
  0
LINE
  5
215
  8
UNIT-DIM
  6
CONTINUOUS
 62
     7
 10
120.5
 20
81.867967168999996
 30
0.0
 11
120.5
 21
61.800053486899991
 31
0.0
  0
LINE
  5
216
  8
UNIT-DIM
  6
CONTINUOUS
 62
     7
 10
128.625
 20
86.671404569899991
 30
0.0
 11
128.625
 21
72.136239995400004
 31
0.0
  0
LINE
  5
217
  8
UNIT-DIM
  6
CONTINUOUS
 62
     7
 10
128.625
 20
68.523320353100004
 30
0.0
 11
128.625
 21
61.800053486899991
 31
0.0
  0
LINE
  5
218
  8
UNIT-DIM
  6
CONTINUOUS
 62
     7
 10
120.5
 20
63.387553486900003
 30
0.0
 11
107.8
 21
63.387553486900003
 31
0.0
  0
LINE
  5
219
  8
UNIT-DIM
  6
CONTINUOUS
 62
     7
 10
128.625
 20
63.387553486900003
 30
0.0
 11
140.3719434786
 21
63.387553486900003
 31
0.0
  0
INSERT
  5
21A
  8
UNIT-DIM
  6
CONTINUOUS
 62
     7
  2
_FILLED
 10
120.5
 20
63.387553486900003
 30
0.0
 41
4.0
 42
4.0
 43
4.0
  0
INSERT
  5
21B
  8
UNIT-DIM
  6
CONTINUOUS
 62
     7
  2
_FILLED
 10
128.625
 20
63.387553486900003
 30
0.0
 41
4.0
 42
4.0
 43
4.0
 50
180.0
  0
ENDBLK
  5
21C
  8
0
  6
ByBlock
 62
     0
  0
BLOCK
  8
UNIT-DIM
  6
CONTINUOUS
 62
     7
  2
*D28
 70
     1
 10
0.0
 20
0.0
 30
0.0
  3
*D28
  1

  0
TEXT
  5
21F
  8
UNIT-DIM
  6
CONTINUOUS
 62
     7
 10
103.18333333333329
 20
142.4607306844
 30
0.0
 40
2.0
  1
24-1/2
 41
0.8
 72
     1
 11
107.45
 21
142.4607306844
 31
0.0
  0
TEXT
  5
220
  8
UNIT-DIM
  6
CONTINUOUS
 62
     7
 10
103.18333333333329
 20
139.4607306844
 30
0.0
 40
2.0
  1
[
 41
0.8
 72
     1
 11
103.45
 21
139.4607306844
 31
0.0
  0
TEXT
  5
221
  8
UNIT-DIM
  6
CONTINUOUS
 62
     7
 10
105.05
 20
139.4607306844
 30
0.0
 40
2.0
  1
622.3
 41
0.8
 72
     1
 11
108.25
 21
139.4607306844
 31
0.0
  0
TEXT
  5
222
  8
UNIT-DIM
  6
CONTINUOUS
 62
     7
 10
112.7833333333333
 20
139.4607306844
 30
0.0
 40
2.0
  1
]
 41
0.8
 72
     1
 11
113.05
 21
139.4607306844
 31
0.0
  0
LINE
  5
223
  8
UNIT-DIM
  6
CONTINUOUS
 62
     7
 10
96.0
 20
143.4607306844
 30
0.0
 11
100.65000000000001
 21
143.4607306844
 31
0.0
  0
LINE
  5
224
  8
UNIT-DIM
  6
CONTINUOUS
 62
     7
 10
120.5
 20
143.4607306844
 30
0.0
 11
115.84999999999999
 21
143.4607306844
 31
0.0
  0
INSERT
  5
225
  8
UNIT-DIM
  6
CONTINUOUS
 62
     7
  2
_FILLED
 10
96.0
 20
143.4607306844
 30
0.0
 41
4.0
 42
4.0
 43
4.0
 50
180.0
  0
INSERT
  5
226
  8
UNIT-DIM
  6
CONTINUOUS
 62
     7
  2
_FILLED
 10
120.5
 20
143.4607306844
 30
0.0
 41
4.0
 42
4.0
 43
4.0
  0
ENDBLK
  5
227
  8
0
  6
ByBlock
 62
     0
  0
BLOCK
  8
UNIT-DIM
  6
CONTINUOUS
 62
     7
  2
*D29
 70
     1
 10
0.0
 20
0.0
 30
0.0
  3
*D29
  1

  0
TEXT
  5
22A
  8
UNIT-DIM
  6
CONTINUOUS
 62
     7
 10
137.61458333333329
 20
33.299823266200001
 30
0.0
 40
2.0
  1
57-1/2
 41
0.8
 72
     1
 11
141.88124999999999
 21
33.299823266200001
 31
0.0
  0
TEXT
  5
22B
  8
UNIT-DIM
  6
CONTINUOUS
 62
     7
 10
149.21458333333331
 20
33.299823266200001
 30
0.0
 40
2.0
  1
[
 41
0.8
 72
     1
 11
149.48124999999999
 21
33.299823266200001
 31
0.0
  0
TEXT
  5
22C
  8
UNIT-DIM
  6
CONTINUOUS
 62
     7
 10
151.61458333333329
 20
33.299823266200001
 30
0.0
 40
2.0
  1
1462.1
 41
0.8
 72
     1
 11
155.08125000000001
 21
33.299823266200001
 31
0.0
  0
TEXT
  5
22D
  8
UNIT-DIM
  6
CONTINUOUS
 62
     7
 10
160.4145833333333
 20
33.299823266200001
 30
0.0
 40
2.0
  1
]
 41
0.8
 72
     1
 11
160.68125000000001
 21
33.299823266200001
 31
0.0
  0
LINE
  5
22E
  8
UNIT-DIM
  6
CONTINUOUS
 62
     7
 10
120.5
 20
81.867967168999996
 30
0.0
 11
120.5
 21
32.712323266200002
 31
0.0
  0
LINE
  5
22F
  8
UNIT-DIM
  6
CONTINUOUS
 62
     7
 10
178.0625
 20
78.617967168999996
 30
0.0
 11
178.0625
 21
63.283930270100001
 31
0.0
  0
LINE
  5
230
  8
UNIT-DIM
  6
CONTINUOUS
 62
     7
 10
178.0625
 20
59.173035724599991
 30
0.0
 11
178.0625
 21
32.712323266200002
 31
0.0
  0
LINE
  5
231
  8
UNIT-DIM
  6
CONTINUOUS
 62
     7
 10
120.5
 20
34.299823266200001
 30
0.0
 11
135.08125000000001
 21
34.299823266200001
 31
0.0
  0
LINE
  5
232
  8
UNIT-DIM
  6
CONTINUOUS
 62
     7
 10
178.0625
 20
34.299823266200001
 30
0.0
 11
163.48124999999999
 21
34.299823266200001
 31
0.0
  0
INSERT
  5
233
  8
UNIT-DIM
  6
CONTINUOUS
 62
     7
  2
_FILLED
 10
120.5
 20
34.299823266200001
 30
0.0
 41
4.0
 42
4.0
 43
4.0
 50
180.0
  0
INSERT
  5
234
  8
UNIT-DIM
  6
CONTINUOUS
 62
     7
  2
_FILLED
 10
178.0625
 20
34.299823266200001
 30
0.0
 41
4.0
 42
4.0
 43
4.0
  0
ENDBLK
  5
235
  8
0
  6
ByBlock
 62
     0
  0
BLOCK
  8
UNIT-DIM
  6
CONTINUOUS
 62
     7
  2
*D30
 70
     1
 10
0.0
 20
0.0
 30
0.0
  3
*D30
  1

  0
TEXT
  5
238
  8
UNIT-DIM
  6
CONTINUOUS
 62
     7
 10
160.35071212116671
 20
28.552186902500001
 30
0.0
 40
2.0
  1
77-7/8
 41
0.8
 72
     1
 11
164.88404545450001
 21
28.552186902500001
 31
0.0
  0
TEXT
  5
239
  8
UNIT-DIM
  6
CONTINUOUS
 62
     7
 10
172.2173787878333
 20
28.552186902500001
 30
0.0
 40
2.0
  1
[
 41
0.8
 72
     1
 11
172.48404545450001
 21
28.552186902500001
 31
0.0
  0
TEXT
  5
23A
  8
UNIT-DIM
  6
CONTINUOUS
 62
     7
 10
174.48404545450001
 20
28.552186902500001
 30
0.0
 40
2.0
  1
1978.0
 41
0.8
 72
     1
 11
178.0840454545
 21
28.552186902500001
 31
0.0
  0
TEXT
  5
23B
  8
UNIT-DIM
  6
CONTINUOUS
 62
     7
 10
183.41737878783329
 20
28.552186902500001
 30
0.0
 40
2.0
  1
]
 41
0.8
 72
     1
 11
183.68404545449999
 21
28.552186902500001
 31
0.0
  0
LINE
  5
23C
  8
UNIT-DIM
  6
CONTINUOUS
 62
     7
 10
120.5
 20
81.867967168999996
 30
0.0
 11
120.5
 21
27.964686902499999
 31
0.0
  0
LINE
  5
23D
  8
UNIT-DIM
  6
CONTINUOUS
 62
     7
 10
198.375
 20
77.992967168999996
 30
0.0
 11
198.375
 21
27.964686902499999
 31
0.0
  0
LINE
  5
23E
  8
UNIT-DIM
  6
CONTINUOUS
 62
     7
 10
120.5
 20
29.552186902500001
 30
0.0
 11
158.0840454545
 21
29.552186902500001
 31
0.0
  0
LINE
  5
23F
  8
UNIT-DIM
  6
CONTINUOUS
 62
     7
 10
198.375
 20
29.552186902500001
 30
0.0
 11
186.48404545450001
 21
29.552186902500001
 31
0.0
  0
INSERT
  5
240
  8
UNIT-DIM
  6
CONTINUOUS
 62
     7
  2
_FILLED
 10
120.5
 20
29.552186902500001
 30
0.0
 41
4.0
 42
4.0
 43
4.0
 50
180.0
  0
INSERT
  5
241
  8
UNIT-DIM
  6
CONTINUOUS
 62
     7
  2
_FILLED
 10
198.375
 20
29.552186902500001
 30
0.0
 41
4.0
 42
4.0
 43
4.0
  0
ENDBLK
  5
242
  8
0
  6
ByBlock
 62
     0
  0
BLOCK
  8
UNIT-DIM
  6
CONTINUOUS
 62
     7
  2
*D31
 70
     1
 10
0.0
 20
0.0
 30
0.0
  3
*D31
  1

  0
TEXT
  5
245
  8
UNIT-DIM
  6
CONTINUOUS
 62
     7
 10
202.19039988206671
 20
68.229164441700007
 30
0.0
 40
2.0
  1
3-7/8
 41
0.8
 72
     1
 11
205.92373321540001
 21
68.229164441700007
 31
0.0
  0
TEXT
  5
246
  8
UNIT-DIM
  6
CONTINUOUS
 62
     7
 10
202.45706654873331
 20
65.229164441699993
 30
0.0
 40
2.0
  1
[
 41
0.8
 72
     1
 11
202.72373321539999
 21
65.229164441699993
 31
0.0
  0
TEXT
  5
247
  8
UNIT-DIM
  6
CONTINUOUS
 62
     7
 10
204.32373321540001
 20
65.229164441699993
 30
0.0
 40
2.0
  1
98.4
 41
0.8
 72
     1
 11
206.72373321539999
 21
65.229164441699993
 31
0.0
  0
TEXT
  5
248
  8
UNIT-DIM
  6
CONTINUOUS
 62
     7
 10
210.45706654873331
 20
65.229164441699993
 30
0.0
 40
2.0
  1
]
 41
0.8
 72
     1
 11
210.72373321539999
 21
65.229164441699993
 31
0.0
  0
LINE
  5
249
  8
UNIT-DIM
  6
CONTINUOUS
 62
     7
 10
204.00189101570001
 20
79.580467169000002
 30
0.0
 11
208.31123321539999
 21
79.580467169000002
 31
0.0
  0
LINE
  5
24A
  8
UNIT-DIM
  6
CONTINUOUS
 62
     7
 10
206.72373321539999
 20
83.455467169000016
 30
0.0
 11
206.72373321539999
 21
96.155467168999991
 31
0.0
  0
LINE
  5
24B
  8
UNIT-DIM
  6
CONTINUOUS
 62
     7
 10
206.72373321539999
 20
79.580467169000002
 30
0.0
 11
206.72373321539999
 21
72.229164441699993
 31
0.0
  0
INSERT
  5
24C
  8
UNIT-DIM
  6
CONTINUOUS
 62
     7
  2
_FILLED
 10
206.72373321539999
 20
83.455467169000016
 30
0.0
 41
4.0
 42
4.0
 43
4.0
 50
270.0
  0
INSERT
  5
24D
  8
UNIT-DIM
  6
CONTINUOUS
 62
     7
  2
_FILLED
 10
206.72373321539999
 20
79.580467169000002
 30
0.0
 41
4.0
 42
4.0
 43
4.0
 50
90.0
  0
ENDBLK
  5
24E
  8
0
  6
ByBlock
 62
     0
  0
BLOCK
  8
UNIT-DIM
  6
CONTINUOUS
 62
     7
  2
*D32
 70
     1
 10
0.0
 20
0.0
 30
0.0
  3
*D32
  1

  0
TEXT
  5
251
  8
UNIT-DIM
  6
CONTINUOUS
 62
     7
 10
202.7970149251
 20
59.600156910800003
 30
0.0
 40
2.0
  1
3-1/4
 41
0.8
  0
TEXT
  5
252
  8
UNIT-DIM
  6
CONTINUOUS
 62
     7
 10
202.7970149251
 20
56.600156910800003
 30
0.0
 40
2.0
  1
[
 41
0.8
  0
TEXT
  5
253
  8
UNIT-DIM
  6
CONTINUOUS
 62
     7
 10
204.3970149251
 20
56.600156910800003
 30
0.0
 40
2.0
  1
82.6
 41
0.8
  0
TEXT
  5
254
  8
UNIT-DIM
  6
CONTINUOUS
 62
     7
 10
210.7970149251
 20
56.600156910800003
 30
0.0
 40
2.0
  1
]
 41
0.8
  0
LINE
  5
255
  8
UNIT-DIM
  6
CONTINUOUS
 62
     7
 10
193.50833954710001
 20
80.205467169000002
 30
0.0
 11
197.0350928389
 21
80.205467169000002
 31
0.0
  0
LINE
  5
256
  8
UNIT-DIM
  6
CONTINUOUS
 62
     7
 10
195.44759283889999
 20
83.455467169000016
 30
0.0
 11
195.44759283889999
 21
96.155467168999991
 31
0.0
  0
LINE
  5
257
  8
UNIT-DIM
  6
CONTINUOUS
 62
     7
 10
195.44759283889999
 20
80.205467169000002
 30
0.0
 11
195.44759283889999
 21
60.600156910800003
 31
0.0
  0
LINE
  5
258
  8
UNIT-DIM
  6
CONTINUOUS
 62
     7
 10
195.44759283889999
 20
60.600156910800003
 30
0.0
 11
200.7970149251
 21
60.600156910800003
 31
0.0
  0
INSERT
  5
259
  8
UNIT-DIM
  6
CONTINUOUS
 62
     7
  2
_FILLED
 10
195.44759283889999
 20
83.455467169000016
 30
0.0
 41
4.0
 42
4.0
 43
4.0
 50
270.0
  0
INSERT
  5
25A
  8
UNIT-DIM
  6
CONTINUOUS
 62
     7
  2
_FILLED
 10
195.44759283889999
 20
80.205467169000002
 30
0.0
 41
4.0
 42
4.0
 43
4.0
 50
90.0
  0
ENDBLK
  5
25B
  8
0
  6
ByBlock
 62
     0
  0
BLOCK
  8
UNIT-DIM
  6
CONTINUOUS
 62
     7
  2
*D33
 70
     1
 10
0.0
 20
0.0
 30
0.0
  3
*D33
  1

  0
TEXT
  5
25E
  8
UNIT-DIM
  6
CONTINUOUS
 62
     7
 10
134.23372676486659
 20
38.618261832800002
 30
0.0
 40
2.0
  1
50-1/2
 41
0.8
 72
     1
 11
138.3670600982
 21
38.618261832800002
 31
0.0
  0
TEXT
  5
25F
  8
UNIT-DIM
  6
CONTINUOUS
 62
     7
 10
145.70039343153331
 20
38.618261832800002
 30
0.0
 40
2.0
  1
[
 41
0.8
 72
     1
 11
145.96706009819999
 21
38.618261832800002
 31
0.0
  0
TEXT
  5
260
  8
UNIT-DIM
  6
CONTINUOUS
 62
     7
 10
147.8337267648667
 20
38.618261832800002
 30
0.0
 40
2.0
  1
1283.6
 41
0.8
 72
     1
 11
151.56706009819999
 21
38.618261832800002
 31
0.0
  0
TEXT
  5
261
  8
UNIT-DIM
  6
CONTINUOUS
 62
     7
 10
156.9003934315333
 20
38.618261832800002
 30
0.0
 40
2.0
  1
]
 41
0.8
 72
     1
 11
157.16706009820001
 21
38.618261832800002
 31
0.0
  0
LINE
  5
262
  8
UNIT-DIM
  6
CONTINUOUS
 62
     7
 10
120.5
 20
81.867967168999996
 30
0.0
 11
120.5
 21
38.030761832800003
 31
0.0
  0
LINE
  5
263
  8
UNIT-DIM
  6
CONTINUOUS
 62
     7
 10
171.03412019640001
 20
88.368056802500007
 30
0.0
 11
171.03412019640001
 21
38.030761832800003
 31
0.0
  0
LINE
  5
264
  8
UNIT-DIM
  6
CONTINUOUS
 62
     7
 10
120.5
 20
39.618261832800002
 30
0.0
 11
131.56706009819999
 21
39.618261832800002
 31
0.0
  0
LINE
  5
265
  8
UNIT-DIM
  6
CONTINUOUS
 62
     7
 10
171.03412019640001
 20
39.618261832800002
 30
0.0
 11
159.96706009819999
 21
39.618261832800002
 31
0.0
  0
INSERT
  5
266
  8
UNIT-DIM
  6
CONTINUOUS
 62
     7
  2
_FILLED
 10
120.5
 20
39.618261832800002
 30
0.0
 41
4.0
 42
4.0
 43
4.0
 50
180.0
  0
INSERT
  5
267
  8
UNIT-DIM
  6
CONTINUOUS
 62
     7
  2
_FILLED
 10
171.03412019640001
 20
39.618261832800002
 30
0.0
 41
4.0
 42
4.0
 43
4.0
  0
ENDBLK
  5
268
  8
0
  6
ByBlock
 62
     0
  0
BLOCK
  8
UNIT-DIM
  6
CONTINUOUS
 62
     7
  2
*D34
 70
     1
 10
0.0
 20
0.0
 30
0.0
  3
*D34
  1

  0
TEXT
  5
26B
  8
UNIT-DIM
  6
CONTINUOUS
 62
     7
 10
158.87933255819999
 20
64.241959643399994
 30
0.0
 40
2.0
  1
6-1/2
 41
0.8
  0
TEXT
  5
26C
  8
UNIT-DIM
  6
CONTINUOUS
 62
     7
 10
158.87933255819999
 20
61.241959643400001
 30
0.0
 40
2.0
  1
[
 41
0.8
  0
TEXT
  5
26D
  8
UNIT-DIM
  6
CONTINUOUS
 62
     7
 10
160.47933255820001
 20
61.241959643400001
 30
0.0
 40
2.0
  1
165.1
 41
0.8
  0
TEXT
  5
26E
  8
UNIT-DIM
  6
CONTINUOUS
 62
     7
 10
168.47933255820001
 20
61.241959643400001
 30
0.0
 40
2.0
  1
]
 41
0.8
  0
LINE
  5
26F
  8
UNIT-DIM
  6
CONTINUOUS
 62
     7
 10
169.4466201964
 20
89.955556802499984
 30
0.0
 11
153.73981338670001
 21
89.955556802499984
 31
0.0
  0
LINE
  5
270
  8
UNIT-DIM
  6
CONTINUOUS
 62
     7
 10
155.32731338670001
 20
83.455467169000016
 30
0.0
 11
155.32731338670001
 21
65.241959643400008
 31
0.0
  0
LINE
  5
271
  8
UNIT-DIM
  6
CONTINUOUS
 62
     7
 10
155.32731338670001
 20
65.241959643400008
 30
0.0
 11
156.87933255819999
 21
65.241959643400008
 31
0.0
  0
LINE
  5
272
  8
UNIT-DIM
  6
CONTINUOUS
 62
     7
 10
155.32731338670001
 20
89.955556802499984
 30
0.0
 11
155.32731338670001
 21
102.6555568025
 31
0.0
  0
INSERT
  5
273
  8
UNIT-DIM
  6
CONTINUOUS
 62
     7
  2
_FILLED
 10
155.32731338670001
 20
83.455467169000016
 30
0.0
 41
4.0
 42
4.0
 43
4.0
 50
90.0
  0
INSERT
  5
274
  8
UNIT-DIM
  6
CONTINUOUS
 62
     7
  2
_FILLED
 10
155.32731338670001
 20
89.955556802499984
 30
0.0
 41
4.0
 42
4.0
 43
4.0
 50
270.0
  0
ENDBLK
  5
275
  8
0
  6
ByBlock
 62
     0
  0
BLOCK
  8
CURB-14-DIM
  6
CONTINUOUS
 62
     6
  2
*D35
 70
     1
 10
0.0
 20
0.0
 30
0.0
  3
*D35
  1

  0
TEXT
  5
278
  8
CURB-14-DIM
  6
CONTINUOUS
 62
     6
 10
99.084675308433333
 20
76.045261169
 30
0.0
 40
2.0
  1
2-5/8
 41
0.8
 72
     2
 11
106.5513419751
 21
76.045261169
 31
0.0
  0
TEXT
  5
279
  8
CURB-14-DIM
  6
CONTINUOUS
 62
     6
 10
108.1513419751
 20
76.045261169
 30
0.0
 40
2.0
  1
 
 41
0.8
 72
     2
 11
109.7513419751
 21
76.045261169
 31
0.0
  0
TEXT
  5
27A
  8
CURB-14-DIM
  6
CONTINUOUS
 62
     6
 10
99.618008641766664
 20
73.045261168999986
 30
0.0
 40
2.0
  1
[
 41
0.8
 72
     2
 11
100.1513419751
 21
73.045261168999986
 31
0.0
  0
TEXT
  5
27B
  8
CURB-14-DIM
  6
CONTINUOUS
 62
     6
 10
101.7513419751
 20
73.045261168999986
 30
0.0
 40
2.0
  1
68.3
 41
0.8
 72
     2
 11
106.5513419751
 21
73.045261168999986
 31
0.0
  0
TEXT
  5
27C
  8
CURB-14-DIM
  6
CONTINUOUS
 62
     6
 10
107.61800864176659
 20
73.045261168999986
 30
0.0
 40
2.0
  1
]
 41
0.8
 72
     2
 11
108.1513419751
 21
73.045261168999986
 31
0.0
  0
LINE
  5
27D
  8
CURB-14-DIM
  6
CONTINUOUS
 62
     6
 10
118.91249999999999
 20
83.455467169000016
 30
0.0
 11
113.2756499751
 21
83.455467169000016
 31
0.0
  0
LINE
  5
27E
  8
CURB-14-DIM
  6
CONTINUOUS
 62
     6
 10
121.78749999999999
 20
86.142966650700004
 30
0.0
 11
113.2756499751
 21
86.142966650700004
 31
0.0
  0
LINE
  5
27F
  8
CURB-14-DIM
  6
CONTINUOUS
 62
     6
 10
114.8631499751
 20
83.455467169000016
 30
0.0
 11
114.8631499751
 21
77.045261169
 31
0.0
  0
LINE
  5
280
  8
CURB-14-DIM
  6
CONTINUOUS
 62
     6
 10
114.8631499751
 20
77.045261169
 30
0.0
 11
111.7513419751
 21
77.045261169
 31
0.0
  0
LINE
  5
281
  8
CURB-14-DIM
  6
CONTINUOUS
 62
     6
 10
114.8631499751
 20
86.142966650700004
 30
0.0
 11
114.8631499751
 21
98.842966650699992
 31
0.0
  0
INSERT
  5
282
  8
CURB-14-DIM
  6
CONTINUOUS
 62
     6
  2
_FILLED
 10
114.8631499751
 20
83.455467169000016
 30
0.0
 41
4.0
 42
4.0
 43
4.0
 50
90.0
  0
INSERT
  5
283
  8
CURB-14-DIM
  6
CONTINUOUS
 62
     6
  2
_FILLED
 10
114.8631499751
 20
86.142966650700004
 30
0.0
 41
4.0
 42
4.0
 43
4.0
 50
270.0
  0
ENDBLK
  5
284
  8
0
  6
ByBlock
 62
     0
  0
BLOCK
  8
CURB-14-DIM
  6
CONTINUOUS
 62
     6
  2
*D36
 70
     1
 10
0.0
 20
0.0
 30
0.0
  3
*D36
  1

  0
TEXT
  5
287
  8
CURB-14-DIM
  6
CONTINUOUS
 62
     6
 10
205.15399118030001
 20
206.98482829380001
 30
0.0
 40
2.0
  1
121-5/8
 41
0.8
 72
     1
 11
209.95399118029999
 21
206.98482829380001
 31
0.0
  0
TEXT
  5
288
  8
CURB-14-DIM
  6
CONTINUOUS
 62
     6
 10
217.15399118030001
 20
206.98482829380001
 30
0.0
 40
2.0
  1
 
 41
0.8
 72
     1
 11
217.95399118029999
 21
206.98482829380001
 31
0.0
  0
TEXT
  5
289
  8
CURB-14-DIM
  6
CONTINUOUS
 62
     6
 10
204.8873245136333
 20
203.98482829380001
 30
0.0
 40
2.0
  1
[
 41
0.8
 72
     1
 11
205.15399118030001
 21
203.98482829380001
 31
0.0
  0
TEXT
  5
28A
  8
CURB-14-DIM
  6
CONTINUOUS
 62
     6
 10
206.8873245136333
 20
203.98482829380001
 30
0.0
 40
2.0
  1
3089.3
 41
0.8
 72
     1
 11
210.75399118030001
 21
203.98482829380001
 31
0.0
  0
TEXT
  5
28B
  8
CURB-14-DIM
  6
CONTINUOUS
 62
     6
 10
216.08732451363329
 20
203.98482829380001
 30
0.0
 40
2.0
  1
]
 41
0.8
 72
     1
 11
216.3539911803
 21
203.98482829380001
 31
0.0
  0
LINE
  5
28C
  8
CURB-14-DIM
  6
CONTINUOUS
 62
     6
 10
245.0
 20
169.083700335
 30
0.0
 11
245.0
 21
209.57232829380001
 31
0.0
  0
LINE
  5
28D
  8
CURB-14-DIM
  6
CONTINUOUS
 62
     6
 10
123.375
 20
168.0191694346
 30
0.0
 11
123.375
 21
192.30201463180001
 31
0.0
  0
LINE
  5
28E
  8
CURB-14-DIM
  6
CONTINUOUS
 62
     6
 10
123.375
 20
196.27437345889999
 30
0.0
 11
123.375
 21
200.66175485010001
 31
0.0
  0
LINE
  5
28F
  8
CURB-14-DIM
  6
CONTINUOUS
 62
     6
 10
123.375
 20
203.98193536240001
 30
0.0
 11
123.375
 21
209.57232829380001
 31
0.0
  0
LINE
  5
290
  8
CURB-14-DIM
  6
CONTINUOUS
 62
     6
 10
245.0
 20
207.98482829380001
 30
0.0
 11
220.75399118030001
 21
207.98482829380001
 31
0.0
  0
LINE
  5
291
  8
CURB-14-DIM
  6
CONTINUOUS
 62
     6
 10
123.375
 20
207.98482829380001
 30
0.0
 11
202.3539911803
 21
207.98482829380001
 31
0.0
  0
INSERT
  5
292
  8
CURB-14-DIM
  6
CONTINUOUS
 62
     6
  2
_FILLED
 10
245.0
 20
207.98482829380001
 30
0.0
 41
4.0
 42
4.0
 43
4.0
  0
INSERT
  5
293
  8
CURB-14-DIM
  6
CONTINUOUS
 62
     6
  2
_FILLED
 10
123.375
 20
207.98482829380001
 30
0.0
 41
4.0
 42
4.0
 43
4.0
 50
180.0
  0
ENDBLK
  5
294
  8
0
  6
ByBlock
 62
     0
  0
BLOCK
  8
CURB-14-DIM
  6
CONTINUOUS
 62
     6
  2
*D37
 70
     1
 10
0.0
 20
0.0
 30
0.0
  3
*D37
  1

  0
TEXT
  5
297
  8
CURB-14-DIM
  6
CONTINUOUS
 62
     6
 10
271.25779701020002
 20
129.3003455768
 30
0.0
 40
2.0
  1
80-5/8
 41
0.8
 72
     1
 11
275.6577970102
 21
129.3003455768
 31
0.0
  0
TEXT
  5
298
  8
CURB-14-DIM
  6
CONTINUOUS
 62
     6
 10
283.6577970102
 20
129.3003455768
 30
0.0
 40
2.0
  1
 
 41
0.8
 72
     1
 11
284.45779701020001
 21
129.3003455768
 31
0.0
  0
TEXT
  5
299
  8
CURB-14-DIM
  6
CONTINUOUS
 62
     6
 10
271.3911303435334
 20
126.3003455768
 30
0.0
 40
2.0
  1
[
 41
0.8
 72
     1
 11
271.6577970102
 21
126.3003455768
 31
0.0
  0
TEXT
  5
29A
  8
CURB-14-DIM
  6
CONTINUOUS
 62
     6
 10
273.3911303435334
 20
126.3003455768
 30
0.0
 40
2.0
  1
2047.9
 41
0.8
 72
     1
 11
277.25779701020002
 21
126.3003455768
 31
0.0
  0
TEXT
  5
29B
  8
CURB-14-DIM
  6
CONTINUOUS
 62
     6
 10
282.59113034353328
 20
126.3003455768
 30
0.0
 40
2.0
  1
]
 41
0.8
 72
     1
 11
282.85779701019999
 21
126.3003455768
 31
0.0
  0
LINE
  5
29C
  8
CURB-14-DIM
  6
CONTINUOUS
 62
     6
 10
246.58750000000001
 20
86.142966650700004
 30
0.0
 11
279.64529701020001
 21
86.142966650700004
 31
0.0
  0
LINE
  5
29D
  8
CURB-14-DIM
  6
CONTINUOUS
 62
     6
 10
246.58750000000001
 20
166.7679666507
 30
0.0
 11
279.64529701020001
 21
166.7679666507
 31
0.0
  0
LINE
  5
29E
  8
CURB-14-DIM
  6
CONTINUOUS
 62
     6
 10
278.05779701019998
 20
86.142966650700004
 30
0.0
 11
278.05779701019998
 21
124.3003455768
 31
0.0
  0
LINE
  5
29F
  8
CURB-14-DIM
  6
CONTINUOUS
 62
     6
 10
278.05779701019998
 20
166.7679666507
 30
0.0
 11
278.05779701019998
 21
133.3003455768
 31
0.0
  0
INSERT
  5
2A0
  8
CURB-14-DIM
  6
CONTINUOUS
 62
     6
  2
_FILLED
 10
278.05779701019998
 20
86.142966650700004
 30
0.0
 41
4.0
 42
4.0
 43
4.0
 50
270.0
  0
INSERT
  5
2A1
  8
CURB-14-DIM
  6
CONTINUOUS
 62
     6
  2
_FILLED
 10
278.05779701019998
 20
166.7679666507
 30
0.0
 41
4.0
 42
4.0
 43
4.0
 50
90.0
  0
ENDBLK
  5
2A2
  8
0
  6
ByBlock
 62
     0
  0
BLOCK
  8
CURB-14-DIM
  6
CONTINUOUS
 62
     6
  2
*D38
 70
     1
 10
0.0
 20
0.0
 30
0.0
  3
*D38
  1

  0
TEXT
  5
2A5
  8
CURB-14-DIM
  6
CONTINUOUS
 62
     6
 10
99.629210866033333
 20
69.300743764899991
 30
0.0
 40
2.0
  1
2-7/8
 41
0.8
 72
     2
 11
107.0958775327
 21
69.300743764899991
 31
0.0
  0
TEXT
  5
2A6
  8
CURB-14-DIM
  6
CONTINUOUS
 62
     6
 10
108.6958775327
 20
69.300743764899991
 30
0.0
 40
2.0
  1
 
 41
0.8
 72
     2
 11
110.2958775327
 21
69.300743764899991
 31
0.0
  0
TEXT
  5
2A7
  8
CURB-14-DIM
  6
CONTINUOUS
 62
     6
 10
100.16254419936659
 20
66.300743764899991
 30
0.0
 40
2.0
  1
[
 41
0.8
 72
     2
 11
100.6958775327
 21
66.300743764899991
 31
0.0
  0
TEXT
  5
2A8
  8
CURB-14-DIM
  6
CONTINUOUS
 62
     6
 10
102.5625441993667
 20
66.300743764899991
 30
0.0
 40
2.0
  1
73.0
 41
0.8
 72
     2
 11
107.0958775327
 21
66.300743764899991
 31
0.0
  0
TEXT
  5
2A9
  8
CURB-14-DIM
  6
CONTINUOUS
 62
     6
 10
108.16254419936671
 20
66.300743764899991
 30
0.0
 40
2.0
  1
]
 41
0.8
 72
     2
 11
108.6958775327
 21
66.300743764899991
 31
0.0
  0
LINE
  5
2AA
  8
CURB-14-DIM
  6
CONTINUOUS
 62
     6
 10
120.5
 20
81.867967168999996
 30
0.0
 11
120.5
 21
68.7132437649
 31
0.0
  0
LINE
  5
2AB
  8
CURB-14-DIM
  6
CONTINUOUS
 62
     6
 10
123.375
 20
82.233904051599993
 30
0.0
 11
123.375
 21
68.7132437649
 31
0.0
  0
LINE
  5
2AC
  8
CURB-14-DIM
  6
CONTINUOUS
 62
     6
 10
120.5
 20
70.300743764899991
 30
0.0
 11
112.2958775327
 21
70.300743764899991
 31
0.0
  0
LINE
  5
2AD
  8
CURB-14-DIM
  6
CONTINUOUS
 62
     6
 10
123.375
 20
70.300743764899991
 30
0.0
 11
136.07499999999999
 21
70.300743764899991
 31
0.0
  0
INSERT
  5
2AE
  8
CURB-14-DIM
  6
CONTINUOUS
 62
     6
  2
_FILLED
 10
120.5
 20
70.300743764899991
 30
0.0
 41
4.0
 42
4.0
 43
4.0
  0
INSERT
  5
2AF
  8
CURB-14-DIM
  6
CONTINUOUS
 62
     6
  2
_FILLED
 10
123.375
 20
70.300743764899991
 30
0.0
 41
4.0
 42
4.0
 43
4.0
 50
180.0
  0
ENDBLK
  5
2B0
  8
0
  6
ByBlock
 62
     0
  0
BLOCK
  8
CURB-14-DIM
  6
CONTINUOUS
 62
     6
  2
*D39
 70
     1
 10
0.0
 20
0.0
 30
0.0
  3
*D39
  1

  0
TEXT
  5
2B3
  8
CURB-14-DIM
  6
CONTINUOUS
 62
     6
 10
130.60624999999999
 20
147.51844803989999
 30
0.0
 40
2.0
  1
24-1/16
 41
0.8
 72
     1
 11
135.40625
 21
147.51844803989999
 31
0.0
  0
TEXT
  5
2B4
  8
CURB-14-DIM
  6
CONTINUOUS
 62
     6
 10
130.33958333333331
 20
144.51844803989999
 30
0.0
 40
2.0
  1
[
 41
0.8
 72
     1
 11
130.60624999999999
 21
144.51844803989999
 31
0.0
  0
TEXT
  5
2B5
  8
CURB-14-DIM
  6
CONTINUOUS
 62
     6
 10
132.73958333333329
 20
144.51844803989999
 30
0.0
 40
2.0
  1
611.2
 41
0.8
 72
     1
 11
135.40625
 21
144.51844803989999
 31
0.0
  0
TEXT
  5
2B6
  8
CURB-14-DIM
  6
CONTINUOUS
 62
     6
 10
139.9395833333333
 20
144.51844803989999
 30
0.0
 40
2.0
  1
]
 41
0.8
 72
     1
 11
140.20625000000001
 21
144.51844803989999
 31
0.0
  0
LINE
  5
2B7
  8
CURB-14-DIM
  6
CONTINUOUS
 62
     6
 10
123.375
 20
148.51844803989999
 30
0.0
 11
127.80625000000001
 21
148.51844803989999
 31
0.0
  0
LINE
  5
2B8
  8
CURB-14-DIM
  6
CONTINUOUS
 62
     6
 10
147.4375
 20
148.51844803989999
 30
0.0
 11
143.00624999999999
 21
148.51844803989999
 31
0.0
  0
INSERT
  5
2B9
  8
CURB-14-DIM
  6
CONTINUOUS
 62
     6
  2
_FILLED
 10
123.375
 20
148.51844803989999
 30
0.0
 41
4.0
 42
4.0
 43
4.0
 50
180.0
  0
INSERT
  5
2BA
  8
CURB-14-DIM
  6
CONTINUOUS
 62
     6
  2
_FILLED
 10
147.4375
 20
148.51844803989999
 30
0.0
 41
4.0
 42
4.0
 43
4.0
  0
ENDBLK
  5
2BB
  8
0
  6
ByBlock
 62
     0
  0
BLOCK
  8
CURB-14-DIM
  6
CONTINUOUS
 62
     6
  2
*D40
 70
     1
 10
0.0
 20
0.0
 30
0.0
  3
*D40
  1

  0
TEXT
  5
2BE
  8
CURB-14-DIM
  6
CONTINUOUS
 62
     6
 10
145.98762609369999
 20
120.3160042766
 30
0.0
 40
2.0
  1
50
 41
0.8
 72
     1
 11
147.1876260937
 21
120.3160042766
 31
0.0
  0
TEXT
  5
2BF
  8
CURB-14-DIM
  6
CONTINUOUS
 62
     6
 10
146.12095942703331
 20
117.3160042766
 30
0.0
 40
2.0
  1
[
 41
0.8
 72
     1
 11
146.38762609369999
 21
117.3160042766
 31
0.0
  0
TEXT
  5
2C0
  8
CURB-14-DIM
  6
CONTINUOUS
 62
     6
 10
148.52095942703329
 20
117.3160042766
 30
0.0
 40
2.0
  1
1270.0
 41
0.8
 72
     1
 11
151.98762609369999
 21
117.3160042766
 31
0.0
  0
TEXT
  5
2C1
  8
CURB-14-DIM
  6
CONTINUOUS
 62
     6
 10
157.3209594270333
 20
117.3160042766
 30
0.0
 40
2.0
  1
]
 41
0.8
 72
     1
 11
157.58762609370001
 21
117.3160042766
 31
0.0
  0
LINE
  5
2C2
  8
CURB-14-DIM
  6
CONTINUOUS
 62
     6
 10
123.375
 20
121.3160042766
 30
0.0
 11
143.58762609370001
 21
121.3160042766
 31
0.0
  0
LINE
  5
2C3
  8
CURB-14-DIM
  6
CONTINUOUS
 62
     6
 10
173.375
 20
121.3160042766
 30
0.0
 11
160.38762609369999
 21
121.3160042766
 31
0.0
  0
INSERT
  5
2C4
  8
CURB-14-DIM
  6
CONTINUOUS
 62
     6
  2
_FILLED
 10
123.375
 20
121.3160042766
 30
0.0
 41
4.0
 42
4.0
 43
4.0
 50
180.0
  0
INSERT
  5
2C5
  8
CURB-14-DIM
  6
CONTINUOUS
 62
     6
  2
_FILLED
 10
173.375
 20
121.3160042766
 30
0.0
 41
4.0
 42
4.0
 43
4.0
  0
ENDBLK
  5
2C6
  8
0
  6
ByBlock
 62
     0
  0
BLOCK
  8
CURB-14-DIM
  6
CONTINUOUS
 62
     6
  2
*D41
 70
     1
 10
0.0
 20
0.0
 30
0.0
  3
*D41
  1

  0
TEXT
  5
2C9
  8
CURB-14-DIM
  6
CONTINUOUS
 62
     6
 10
181.9791666666666
 20
120.50446875
 30
0.0
 40
2.0
  1
27-7/8
 41
0.8
 72
     1
 11
186.51249999999999
 21
120.50446875
 31
0.0
  0
TEXT
  5
2CA
  8
CURB-14-DIM
  6
CONTINUOUS
 62
     6
 10
182.24583333333331
 20
117.50446875
 30
0.0
 40
2.0
  1
[
 41
0.8
 72
     1
 11
182.51249999999999
 21
117.50446875
 31
0.0
  0
TEXT
  5
2CB
  8
CURB-14-DIM
  6
CONTINUOUS
 62
     6
 10
184.37916666666661
 20
117.50446875
 30
0.0
 40
2.0
  1
708.0
 41
0.8
 72
     1
 11
187.3125
 21
117.50446875
 31
0.0
  0
TEXT
  5
2CC
  8
CURB-14-DIM
  6
CONTINUOUS
 62
     6
 10
191.8458333333333
 20
117.50446875
 30
0.0
 40
2.0
  1
]
 41
0.8
 72
     1
 11
192.11250000000001
 21
117.50446875
 31
0.0
  0
LINE
  5
2CD
  8
CURB-14-DIM
  6
CONTINUOUS
 62
     6
 10
173.375
 20
121.50446875
 30
0.0
 11
179.71250000000001
 21
121.50446875
 31
0.0
  0
LINE
  5
2CE
  8
CURB-14-DIM
  6
CONTINUOUS
 62
     6
 10
201.25
 20
121.50446875
 30
0.0
 11
194.91249999999999
 21
121.50446875
 31
0.0
  0
INSERT
  5
2CF
  8
CURB-14-DIM
  6
CONTINUOUS
 62
     6
  2
_FILLED
 10
173.375
 20
121.50446875
 30
0.0
 41
4.0
 42
4.0
 43
4.0
 50
180.0
  0
INSERT
  5
2D0
  8
CURB-14-DIM
  6
CONTINUOUS
 62
     6
  2
_FILLED
 10
201.25
 20
121.50446875
 30
0.0
 41
4.0
 42
4.0
 43
4.0
  0
ENDBLK
  5
2D1
  8
0
  6
ByBlock
 62
     0
  0
BLOCK
  8
CURB-14-DIM
  6
CONTINUOUS
 62
     6
  2
*D42
 70
     1
 10
0.0
 20
0.0
 30
0.0
  3
*D42
  1

  0
TEXT
  5
2D4
  8
CURB-14-DIM
  6
CONTINUOUS
 62
     6
 10
131.27708333333331
 20
103.2468457449
 30
0.0
 40
2.0
  1
22-1/4
 41
0.8
 72
     1
 11
135.54374999999999
 21
103.2468457449
 31
0.0
  0
TEXT
  5
2D5
  8
CURB-14-DIM
  6
CONTINUOUS
 62
     6
 10
131.27708333333331
 20
100.2468457449
 30
0.0
 40
2.0
  1
[
 41
0.8
 72
     1
 11
131.54374999999999
 21
100.2468457449
 31
0.0
  0
TEXT
  5
2D6
  8
CURB-14-DIM
  6
CONTINUOUS
 62
     6
 10
133.14375000000001
 20
100.2468457449
 30
0.0
 40
2.0
  1
563.6
 41
0.8
 72
     1
 11
136.34375
 21
100.2468457449
 31
0.0
  0
TEXT
  5
2D7
  8
CURB-14-DIM
  6
CONTINUOUS
 62
     6
 10
140.8770833333333
 20
100.2468457449
 30
0.0
 40
2.0
  1
]
 41
0.8
 72
     1
 11
141.14375000000001
 21
100.2468457449
 31
0.0
  0
LINE
  5
2D8
  8
CURB-14-DIM
  6
CONTINUOUS
 62
     6
 10
125.25
 20
104.2468457449
 30
0.0
 11
112.55
 21
104.2468457449
 31
0.0
  0
LINE
  5
2D9
  8
CURB-14-DIM
  6
CONTINUOUS
 62
     6
 10
147.4375
 20
104.2468457449
 30
0.0
 11
160.13749999999999
 21
104.2468457449
 31
0.0
  0
INSERT
  5
2DA
  8
CURB-14-DIM
  6
CONTINUOUS
 62
     6
  2
_FILLED
 10
125.25
 20
104.2468457449
 30
0.0
 41
4.0
 42
4.0
 43
4.0
  0
INSERT
  5
2DB
  8
CURB-14-DIM
  6
CONTINUOUS
 62
     6
  2
_FILLED
 10
147.4375
 20
104.2468457449
 30
0.0
 41
4.0
 42
4.0
 43
4.0
 50
180.0
  0
ENDBLK
  5
2DC
  8
0
  6
ByBlock
 62
     0
  0
BLOCK
  8
CURB-14-DIM
  6
CONTINUOUS
 62
     6
  2
*D43
 70
     1
 10
0.0
 20
0.0
 30
0.0
  3
*D43
  1

  0
TEXT
  5
2DF
  8
CURB-14-DIM
  6
CONTINUOUS
 62
     6
 10
106.68160741553331
 20
152.90524434299999
 30
0.0
 40
2.0
  1
1-7/8
 41
0.8
 72
     1
 11
110.1482740822
 21
152.90524434299999
 31
0.0
  0
TEXT
  5
2E0
  8
CURB-14-DIM
  6
CONTINUOUS
 62
     6
 10
106.68160741553331
 20
149.90524434299999
 30
0.0
 40
2.0
  1
[
 41
0.8
 72
     1
 11
106.9482740822
 21
149.90524434299999
 31
0.0
  0
TEXT
  5
2E1
  8
CURB-14-DIM
  6
CONTINUOUS
 62
     6
 10
108.5482740822
 20
149.90524434299999
 30
0.0
 40
2.0
  1
47.6
 41
0.8
 72
     1
 11
110.9482740822
 21
149.90524434299999
 31
0.0
  0
TEXT
  5
2E2
  8
CURB-14-DIM
  6
CONTINUOUS
 62
     6
 10
114.68160741553331
 20
149.90524434299999
 30
0.0
 40
2.0
  1
]
 41
0.8
 72
     1
 11
114.9482740822
 21
149.90524434299999
 31
0.0
  0
LINE
  5
2E3
  8
CURB-14-DIM
  6
CONTINUOUS
 62
     6
 10
121.78749999999999
 20
166.7679666507
 30
0.0
 11
109.3607740822
 21
166.7679666507
 31
0.0
  0
LINE
  5
2E4
  8
CURB-14-DIM
  6
CONTINUOUS
 62
     6
 10
123.66249999999999
 20
164.8929666507
 30
0.0
 11
109.3607740822
 21
164.8929666507
 31
0.0
  0
LINE
  5
2E5
  8
CURB-14-DIM
  6
CONTINUOUS
 62
     6
 10
110.9482740822
 20
166.7679666507
 30
0.0
 11
110.9482740822
 21
179.46796665069999
 31
0.0
  0
LINE
  5
2E6
  8
CURB-14-DIM
  6
CONTINUOUS
 62
     6
 10
110.9482740822
 20
164.8929666507
 30
0.0
 11
110.9482740822
 21
156.90524434299999
 31
0.0
  0
INSERT
  5
2E7
  8
CURB-14-DIM
  6
CONTINUOUS
 62
     6
  2
_FILLED
 10
110.9482740822
 20
166.7679666507
 30
0.0
 41
4.0
 42
4.0
 43
4.0
 50
270.0
  0
INSERT
  5
2E8
  8
CURB-14-DIM
  6
CONTINUOUS
 62
     6
  2
_FILLED
 10
110.9482740822
 20
164.8929666507
 30
0.0
 41
4.0
 42
4.0
 43
4.0
 50
90.0
  0
ENDBLK
  5
2E9
  8
0
  6
ByBlock
 62
     0
  0
BLOCK
  8
CURB-14-DIM
  6
CONTINUOUS
 62
     6
  2
*D44
 70
     1
 10
0.0
 20
0.0
 30
0.0
  3
*D44
  1

  0
TEXT
  5
2EC
  8
CURB-14-DIM
  6
CONTINUOUS
 62
     6
 10
183.67156303683331
 20
92.580466650700004
 30
0.0
 40
2.0
  1
14-7/8
 41
0.8
 72
     1
 11
187.9382297034999
 21
92.580466650700004
 31
0.0
  0
TEXT
  5
2ED
  8
CURB-14-DIM
  6
CONTINUOUS
 62
     6
 10
183.67156303683331
 20
89.580466650700004
 30
0.0
 40
2.0
  1
[
 41
0.8
 72
     1
 11
183.9382297034999
 21
89.580466650700004
 31
0.0
  0
TEXT
  5
2EE
  8
CURB-14-DIM
  6
CONTINUOUS
 62
     6
 10
185.53822970350001
 20
89.580466650700004
 30
0.0
 40
2.0
  1
377.8
 41
0.8
 72
     1
 11
188.7382297035
 21
89.580466650700004
 31
0.0
  0
TEXT
  5
2EF
  8
CURB-14-DIM
  6
CONTINUOUS
 62
     6
 10
193.2715630368333
 20
89.580466650700004
 30
0.0
 40
2.0
  1
]
 41
0.8
 72
     1
 11
193.53822970350001
 21
89.580466650700004
 31
0.0
  0
LINE
  5
2F0
  8
CURB-14-DIM
  6
CONTINUOUS
 62
     6
 10
188.7382297035
 20
101.0179666507
 30
0.0
 11
188.7382297035
 21
113.71796665070001
 31
0.0
  0
LINE
  5
2F1
  8
CURB-14-DIM
  6
CONTINUOUS
 62
     6
 10
188.7382297035
 20
86.142966650700004
 30
0.0
 11
188.7382297035
 21
73.442966650700001
 31
0.0
  0
INSERT
  5
2F2
  8
CURB-14-DIM
  6
CONTINUOUS
 62
     6
  2
_FILLED
 10
188.7382297035
 20
101.0179666507
 30
0.0
 41
4.0
 42
4.0
 43
4.0
 50
270.0
  0
INSERT
  5
2F3
  8
CURB-14-DIM
  6
CONTINUOUS
 62
     6
  2
_FILLED
 10
188.7382297035
 20
86.142966650700004
 30
0.0
 41
4.0
 42
4.0
 43
4.0
 50
90.0
  0
ENDBLK
  5
2F4
  8
0
  6
ByBlock
 62
     0
  0
BLOCK
  8
CURB-14-DIM
  6
CONTINUOUS
 62
     6
  2
*D45
 70
     1
 10
0.0
 20
0.0
 30
0.0
  3
*D45
  1

  0
TEXT
  5
2F7
  8
CURB-14-DIM
  6
CONTINUOUS
 62
     6
 10
156.4756482371333
 20
72.008025408100011
 30
0.0
 40
2.0
  1
6-1/4
 41
0.8
 72
     1
 11
159.9423149038
 21
72.008025408100011
 31
0.0
  0
TEXT
  5
2F8
  8
CURB-14-DIM
  6
CONTINUOUS
 62
     6
 10
156.4756482371333
 20
69.008025408100011
 30
0.0
 40
2.0
  1
[
 41
0.8
 72
     1
 11
156.74231490379989
 21
69.008025408100011
 31
0.0
  0
TEXT
  5
2F9
  8
CURB-14-DIM
  6
CONTINUOUS
 62
     6
 10
158.6089815704666
 20
69.008025408100011
 30
0.0
 40
2.0
  1
158.8
 41
0.8
 72
     1
 11
161.54231490379999
 21
69.008025408100011
 31
0.0
  0
TEXT
  5
2FA
  8
CURB-14-DIM
  6
CONTINUOUS
 62
     6
 10
166.07564823713329
 20
69.008025408100011
 30
0.0
 40
2.0
  1
]
 41
0.8
 72
     1
 11
166.3423149038
 21
69.008025408100011
 31
0.0
  0
LINE
  5
2FB
  8
CURB-14-DIM
  6
CONTINUOUS
 62
     6
 10
149.02500000000001
 20
92.392966650700004
 30
0.0
 11
163.1298149038
 21
92.392966650700004
 31
0.0
  0
LINE
  5
2FC
  8
CURB-14-DIM
  6
CONTINUOUS
 62
     6
 10
161.54231490379999
 20
86.142966650700004
 30
0.0
 11
161.54231490379999
 21
76.008025408100011
 31
0.0
  0
LINE
  5
2FD
  8
CURB-14-DIM
  6
CONTINUOUS
 62
     6
 10
161.54231490379999
 20
92.392966650700004
 30
0.0
 11
161.54231490379999
 21
105.09296665070001
 31
0.0
  0
INSERT
  5
2FE
  8
CURB-14-DIM
  6
CONTINUOUS
 62
     6
  2
_FILLED
 10
161.54231490379999
 20
86.142966650700004
 30
0.0
 41
4.0
 42
4.0
 43
4.0
 50
90.0
  0
INSERT
  5
2FF
  8
CURB-14-DIM
  6
CONTINUOUS
 62
     6
  2
_FILLED
 10
161.54231490379999
 20
92.392966650700004
 30
0.0
 41
4.0
 42
4.0
 43
4.0
 50
270.0
  0
ENDBLK
  5
300
  8
0
  6
ByBlock
 62
     0
  0
BLOCK
  8
CURB-14-DIM
  6
CONTINUOUS
 62
     6
  2
*D46
 70
     1
 10
0.0
 20
0.0
 30
0.0
  3
*D46
  1

  0
TEXT
  5
303
  8
CURB-14-DIM
  6
CONTINUOUS
 62
     6
 10
173.3753918269
 20
71.695737980800004
 30
0.0
 40
2.0
  1
2-15/16
 41
0.8
  0
TEXT
  5
304
  8
CURB-14-DIM
  6
CONTINUOUS
 62
     6
 10
173.3753918269
 20
68.695737980800004
 30
0.0
 40
2.0
  1
[
 41
0.8
  0
TEXT
  5
305
  8
CURB-14-DIM
  6
CONTINUOUS
 62
     6
 10
174.97539182689999
 20
68.695737980800004
 30
0.0
 40
2.0
  1
74.6
 41
0.8
  0
TEXT
  5
306
  8
CURB-14-DIM
  6
CONTINUOUS
 62
     6
 10
181.3753918269
 20
68.695737980800004
 30
0.0
 40
2.0
  1
]
 41
0.8
  0
LINE
  5
307
  8
CURB-14-DIM
  6
CONTINUOUS
 62
     6
 10
149.02500000000001
 20
92.392966650700004
 30
0.0
 11
168.61289182690001
 21
92.392966650700004
 31
0.0
  0
LINE
  5
308
  8
CURB-14-DIM
  6
CONTINUOUS
 62
     6
 10
149.02500000000001
 20
95.330466650700004
 30
0.0
 11
168.61289182690001
 21
95.330466650700004
 31
0.0
  0
LINE
  5
309
  8
CURB-14-DIM
  6
CONTINUOUS
 62
     6
 10
167.02539182690001
 20
92.392966650700004
 30
0.0
 11
167.02539182690001
 21
72.695737980800004
 31
0.0
  0
LINE
  5
30A
  8
CURB-14-DIM
  6
CONTINUOUS
 62
     6
 10
167.02539182690001
 20
72.695737980800004
 30
0.0
 11
171.3753918269
 21
72.695737980800004
 31
0.0
  0
LINE
  5
30B
  8
CURB-14-DIM
  6
CONTINUOUS
 62
     6
 10
167.02539182690001
 20
95.330466650700004
 30
0.0
 11
167.02539182690001
 21
108.03046665070001
 31
0.0
  0
INSERT
  5
30C
  8
CURB-14-DIM
  6
CONTINUOUS
 62
     6
  2
_FILLED
 10
167.02539182690001
 20
92.392966650700004
 30
0.0
 41
4.0
 42
4.0
 43
4.0
 50
90.0
  0
INSERT
  5
30D
  8
CURB-14-DIM
  6
CONTINUOUS
 62
     6
  2
_FILLED
 10
167.02539182690001
 20
95.330466650700004
 30
0.0
 41
4.0
 42
4.0
 43
4.0
 50
270.0
  0
ENDBLK
  5
30E
  8
0
  6
ByBlock
 62
     0
  0
BLOCK
  8
CURB-24-DIM
  6
CONTINUOUS
 62
     6
  2
*D47
 70
     1
 10
0.0
 20
0.0
 30
0.0
  3
*D47
  1

  0
TEXT
  5
311
  8
CURB-24-DIM
  6
CONTINUOUS
 62
     6
 10
99.084675308433333
 20
76.045261169
 30
0.0
 40
2.0
  1
2-5/8
 41
0.8
 72
     2
 11
106.5513419751
 21
76.045261169
 31
0.0
  0
TEXT
  5
312
  8
CURB-24-DIM
  6
CONTINUOUS
 62
     6
 10
108.1513419751
 20
76.045261169
 30
0.0
 40
2.0
  1
 
 41
0.8
 72
     2
 11
109.7513419751
 21
76.045261169
 31
0.0
  0
TEXT
  5
313
  8
CURB-24-DIM
  6
CONTINUOUS
 62
     6
 10
99.618008641766664
 20
73.045261168999986
 30
0.0
 40
2.0
  1
[
 41
0.8
 72
     2
 11
100.1513419751
 21
73.045261168999986
 31
0.0
  0
TEXT
  5
314
  8
CURB-24-DIM
  6
CONTINUOUS
 62
     6
 10
101.7513419751
 20
73.045261168999986
 30
0.0
 40
2.0
  1
68.3
 41
0.8
 72
     2
 11
106.5513419751
 21
73.045261168999986
 31
0.0
  0
TEXT
  5
315
  8
CURB-24-DIM
  6
CONTINUOUS
 62
     6
 10
107.61800864176659
 20
73.045261168999986
 30
0.0
 40
2.0
  1
]
 41
0.8
 72
     2
 11
108.1513419751
 21
73.045261168999986
 31
0.0
  0
LINE
  5
316
  8
CURB-24-DIM
  6
CONTINUOUS
 62
     6
 10
118.91249999999999
 20
83.455467169000016
 30
0.0
 11
113.2756499751
 21
83.455467169000016
 31
0.0
  0
LINE
  5
317
  8
CURB-24-DIM
  6
CONTINUOUS
 62
     6
 10
121.78749999999999
 20
86.142966650700004
 30
0.0
 11
113.2756499751
 21
86.142966650700004
 31
0.0
  0
LINE
  5
318
  8
CURB-24-DIM
  6
CONTINUOUS
 62
     6
 10
114.8631499751
 20
83.455467169000016
 30
0.0
 11
114.8631499751
 21
77.045261169
 31
0.0
  0
LINE
  5
319
  8
CURB-24-DIM
  6
CONTINUOUS
 62
     6
 10
114.8631499751
 20
77.045261169
 30
0.0
 11
111.7513419751
 21
77.045261169
 31
0.0
  0
LINE
  5
31A
  8
CURB-24-DIM
  6
CONTINUOUS
 62
     6
 10
114.8631499751
 20
86.142966650700004
 30
0.0
 11
114.8631499751
 21
98.842966650699992
 31
0.0
  0
INSERT
  5
31B
  8
CURB-24-DIM
  6
CONTINUOUS
 62
     6
  2
_FILLED
 10
114.8631499751
 20
83.455467169000016
 30
0.0
 41
4.0
 42
4.0
 43
4.0
 50
90.0
  0
INSERT
  5
31C
  8
CURB-24-DIM
  6
CONTINUOUS
 62
     6
  2
_FILLED
 10
114.8631499751
 20
86.142966650700004
 30
0.0
 41
4.0
 42
4.0
 43
4.0
 50
270.0
  0
ENDBLK
  5
31D
  8
0
  6
ByBlock
 62
     0
  0
BLOCK
  8
CURB-24-DIM
  6
CONTINUOUS
 62
     6
  2
*D48
 70
     1
 10
0.0
 20
0.0
 30
0.0
  3
*D48
  1

  0
TEXT
  5
320
  8
CURB-24-DIM
  6
CONTINUOUS
 62
     6
 10
205.15399118030001
 20
206.98482829380001
 30
0.0
 40
2.0
  1
121-5/8
 41
0.8
 72
     1
 11
209.95399118029999
 21
206.98482829380001
 31
0.0
  0
TEXT
  5
321
  8
CURB-24-DIM
  6
CONTINUOUS
 62
     6
 10
217.15399118030001
 20
206.98482829380001
 30
0.0
 40
2.0
  1
 
 41
0.8
 72
     1
 11
217.95399118029999
 21
206.98482829380001
 31
0.0
  0
TEXT
  5
322
  8
CURB-24-DIM
  6
CONTINUOUS
 62
     6
 10
204.8873245136333
 20
203.98482829380001
 30
0.0
 40
2.0
  1
[
 41
0.8
 72
     1
 11
205.15399118030001
 21
203.98482829380001
 31
0.0
  0
TEXT
  5
323
  8
CURB-24-DIM
  6
CONTINUOUS
 62
     6
 10
206.8873245136333
 20
203.98482829380001
 30
0.0
 40
2.0
  1
3089.3
 41
0.8
 72
     1
 11
210.75399118030001
 21
203.98482829380001
 31
0.0
  0
TEXT
  5
324
  8
CURB-24-DIM
  6
CONTINUOUS
 62
     6
 10
216.08732451363329
 20
203.98482829380001
 30
0.0
 40
2.0
  1
]
 41
0.8
 72
     1
 11
216.3539911803
 21
203.98482829380001
 31
0.0
  0
LINE
  5
325
  8
CURB-24-DIM
  6
CONTINUOUS
 62
     6
 10
245.0
 20
169.083700335
 30
0.0
 11
245.0
 21
209.57232829380001
 31
0.0
  0
LINE
  5
326
  8
CURB-24-DIM
  6
CONTINUOUS
 62
     6
 10
123.375
 20
168.0191694346
 30
0.0
 11
123.375
 21
192.30201463180001
 31
0.0
  0
LINE
  5
327
  8
CURB-24-DIM
  6
CONTINUOUS
 62
     6
 10
123.375
 20
196.27437345889999
 30
0.0
 11
123.375
 21
200.66175485010001
 31
0.0
  0
LINE
  5
328
  8
CURB-24-DIM
  6
CONTINUOUS
 62
     6
 10
123.375
 20
203.98193536240001
 30
0.0
 11
123.375
 21
209.57232829380001
 31
0.0
  0
LINE
  5
329
  8
CURB-24-DIM
  6
CONTINUOUS
 62
     6
 10
245.0
 20
207.98482829380001
 30
0.0
 11
220.75399118030001
 21
207.98482829380001
 31
0.0
  0
LINE
  5
32A
  8
CURB-24-DIM
  6
CONTINUOUS
 62
     6
 10
123.375
 20
207.98482829380001
 30
0.0
 11
202.3539911803
 21
207.98482829380001
 31
0.0
  0
INSERT
  5
32B
  8
CURB-24-DIM
  6
CONTINUOUS
 62
     6
  2
_FILLED
 10
245.0
 20
207.98482829380001
 30
0.0
 41
4.0
 42
4.0
 43
4.0
  0
INSERT
  5
32C
  8
CURB-24-DIM
  6
CONTINUOUS
 62
     6
  2
_FILLED
 10
123.375
 20
207.98482829380001
 30
0.0
 41
4.0
 42
4.0
 43
4.0
 50
180.0
  0
ENDBLK
  5
32D
  8
0
  6
ByBlock
 62
     0
  0
BLOCK
  8
CURB-24-DIM
  6
CONTINUOUS
 62
     6
  2
*D49
 70
     1
 10
0.0
 20
0.0
 30
0.0
  3
*D49
  1

  0
TEXT
  5
330
  8
CURB-24-DIM
  6
CONTINUOUS
 62
     6
 10
271.25779701020002
 20
129.3003455768
 30
0.0
 40
2.0
  1
80-5/8
 41
0.8
 72
     1
 11
275.6577970102
 21
129.3003455768
 31
0.0
  0
TEXT
  5
331
  8
CURB-24-DIM
  6
CONTINUOUS
 62
     6
 10
283.6577970102
 20
129.3003455768
 30
0.0
 40
2.0
  1
 
 41
0.8
 72
     1
 11
284.45779701020001
 21
129.3003455768
 31
0.0
  0
TEXT
  5
332
  8
CURB-24-DIM
  6
CONTINUOUS
 62
     6
 10
271.3911303435334
 20
126.3003455768
 30
0.0
 40
2.0
  1
[
 41
0.8
 72
     1
 11
271.6577970102
 21
126.3003455768
 31
0.0
  0
TEXT
  5
333
  8
CURB-24-DIM
  6
CONTINUOUS
 62
     6
 10
273.3911303435334
 20
126.3003455768
 30
0.0
 40
2.0
  1
2047.9
 41
0.8
 72
     1
 11
277.25779701020002
 21
126.3003455768
 31
0.0
  0
TEXT
  5
334
  8
CURB-24-DIM
  6
CONTINUOUS
 62
     6
 10
282.59113034353328
 20
126.3003455768
 30
0.0
 40
2.0
  1
]
 41
0.8
 72
     1
 11
282.85779701019999
 21
126.3003455768
 31
0.0
  0
LINE
  5
335
  8
CURB-24-DIM
  6
CONTINUOUS
 62
     6
 10
246.58750000000001
 20
86.142966650700004
 30
0.0
 11
279.64529701020001
 21
86.142966650700004
 31
0.0
  0
LINE
  5
336
  8
CURB-24-DIM
  6
CONTINUOUS
 62
     6
 10
246.58750000000001
 20
166.7679666507
 30
0.0
 11
279.64529701020001
 21
166.7679666507
 31
0.0
  0
LINE
  5
337
  8
CURB-24-DIM
  6
CONTINUOUS
 62
     6
 10
278.05779701019998
 20
86.142966650700004
 30
0.0
 11
278.05779701019998
 21
124.3003455768
 31
0.0
  0
LINE
  5
338
  8
CURB-24-DIM
  6
CONTINUOUS
 62
     6
 10
278.05779701019998
 20
166.7679666507
 30
0.0
 11
278.05779701019998
 21
133.3003455768
 31
0.0
  0
INSERT
  5
339
  8
CURB-24-DIM
  6
CONTINUOUS
 62
     6
  2
_FILLED
 10
278.05779701019998
 20
86.142966650700004
 30
0.0
 41
4.0
 42
4.0
 43
4.0
 50
270.0
  0
INSERT
  5
33A
  8
CURB-24-DIM
  6
CONTINUOUS
 62
     6
  2
_FILLED
 10
278.05779701019998
 20
166.7679666507
 30
0.0
 41
4.0
 42
4.0
 43
4.0
 50
90.0
  0
ENDBLK
  5
33B
  8
0
  6
ByBlock
 62
     0
  0
BLOCK
  8
CURB-24-DIM
  6
CONTINUOUS
 62
     6
  2
*D50
 70
     1
 10
0.0
 20
0.0
 30
0.0
  3
*D50
  1

  0
TEXT
  5
33E
  8
CURB-24-DIM
  6
CONTINUOUS
 62
     6
 10
99.629210866033333
 20
69.300743764899991
 30
0.0
 40
2.0
  1
2-7/8
 41
0.8
 72
     2
 11
107.0958775327
 21
69.300743764899991
 31
0.0
  0
TEXT
  5
33F
  8
CURB-24-DIM
  6
CONTINUOUS
 62
     6
 10
108.6958775327
 20
69.300743764899991
 30
0.0
 40
2.0
  1
 
 41
0.8
 72
     2
 11
110.2958775327
 21
69.300743764899991
 31
0.0
  0
TEXT
  5
340
  8
CURB-24-DIM
  6
CONTINUOUS
 62
     6
 10
100.16254419936659
 20
66.300743764899991
 30
0.0
 40
2.0
  1
[
 41
0.8
 72
     2
 11
100.6958775327
 21
66.300743764899991
 31
0.0
  0
TEXT
  5
341
  8
CURB-24-DIM
  6
CONTINUOUS
 62
     6
 10
102.5625441993667
 20
66.300743764899991
 30
0.0
 40
2.0
  1
73.0
 41
0.8
 72
     2
 11
107.0958775327
 21
66.300743764899991
 31
0.0
  0
TEXT
  5
342
  8
CURB-24-DIM
  6
CONTINUOUS
 62
     6
 10
108.16254419936671
 20
66.300743764899991
 30
0.0
 40
2.0
  1
]
 41
0.8
 72
     2
 11
108.6958775327
 21
66.300743764899991
 31
0.0
  0
LINE
  5
343
  8
CURB-24-DIM
  6
CONTINUOUS
 62
     6
 10
120.5
 20
81.867967168999996
 30
0.0
 11
120.5
 21
68.7132437649
 31
0.0
  0
LINE
  5
344
  8
CURB-24-DIM
  6
CONTINUOUS
 62
     6
 10
123.375
 20
82.233904051599993
 30
0.0
 11
123.375
 21
68.7132437649
 31
0.0
  0
LINE
  5
345
  8
CURB-24-DIM
  6
CONTINUOUS
 62
     6
 10
120.5
 20
70.300743764899991
 30
0.0
 11
112.2958775327
 21
70.300743764899991
 31
0.0
  0
LINE
  5
346
  8
CURB-24-DIM
  6
CONTINUOUS
 62
     6
 10
123.375
 20
70.300743764899991
 30
0.0
 11
136.07499999999999
 21
70.300743764899991
 31
0.0
  0
INSERT
  5
347
  8
CURB-24-DIM
  6
CONTINUOUS
 62
     6
  2
_FILLED
 10
120.5
 20
70.300743764899991
 30
0.0
 41
4.0
 42
4.0
 43
4.0
  0
INSERT
  5
348
  8
CURB-24-DIM
  6
CONTINUOUS
 62
     6
  2
_FILLED
 10
123.375
 20
70.300743764899991
 30
0.0
 41
4.0
 42
4.0
 43
4.0
 50
180.0
  0
ENDBLK
  5
349
  8
0
  6
ByBlock
 62
     0
  0
BLOCK
  8
CURB-24-DIM
  6
CONTINUOUS
 62
     6
  2
*D51
 70
     1
 10
0.0
 20
0.0
 30
0.0
  3
*D51
  1

  0
TEXT
  5
34C
  8
CURB-24-DIM
  6
CONTINUOUS
 62
     6
 10
130.60624999999999
 20
147.51844803989999
 30
0.0
 40
2.0
  1
24-1/16
 41
0.8
 72
     1
 11
135.40625
 21
147.51844803989999
 31
0.0
  0
TEXT
  5
34D
  8
CURB-24-DIM
  6
CONTINUOUS
 62
     6
 10
130.33958333333331
 20
144.51844803989999
 30
0.0
 40
2.0
  1
[
 41
0.8
 72
     1
 11
130.60624999999999
 21
144.51844803989999
 31
0.0
  0
TEXT
  5
34E
  8
CURB-24-DIM
  6
CONTINUOUS
 62
     6
 10
132.73958333333329
 20
144.51844803989999
 30
0.0
 40
2.0
  1
611.2
 41
0.8
 72
     1
 11
135.40625
 21
144.51844803989999
 31
0.0
  0
TEXT
  5
34F
  8
CURB-24-DIM
  6
CONTINUOUS
 62
     6
 10
139.9395833333333
 20
144.51844803989999
 30
0.0
 40
2.0
  1
]
 41
0.8
 72
     1
 11
140.20625000000001
 21
144.51844803989999
 31
0.0
  0
LINE
  5
350
  8
CURB-24-DIM
  6
CONTINUOUS
 62
     6
 10
123.375
 20
148.51844803989999
 30
0.0
 11
127.80625000000001
 21
148.51844803989999
 31
0.0
  0
LINE
  5
351
  8
CURB-24-DIM
  6
CONTINUOUS
 62
     6
 10
147.4375
 20
148.51844803989999
 30
0.0
 11
143.00624999999999
 21
148.51844803989999
 31
0.0
  0
INSERT
  5
352
  8
CURB-24-DIM
  6
CONTINUOUS
 62
     6
  2
_FILLED
 10
123.375
 20
148.51844803989999
 30
0.0
 41
4.0
 42
4.0
 43
4.0
 50
180.0
  0
INSERT
  5
353
  8
CURB-24-DIM
  6
CONTINUOUS
 62
     6
  2
_FILLED
 10
147.4375
 20
148.51844803989999
 30
0.0
 41
4.0
 42
4.0
 43
4.0
  0
ENDBLK
  5
354
  8
0
  6
ByBlock
 62
     0
  0
BLOCK
  8
CURB-24-DIM
  6
CONTINUOUS
 62
     6
  2
*D52
 70
     1
 10
0.0
 20
0.0
 30
0.0
  3
*D52
  1

  0
TEXT
  5
357
  8
CURB-24-DIM
  6
CONTINUOUS
 62
     6
 10
146.05566706729999
 20
120.34419633660001
 30
0.0
 40
2.0
  1
50
 41
0.8
 72
     1
 11
147.2556670672999
 21
120.34419633660001
 31
0.0
  0
TEXT
  5
358
  8
CURB-24-DIM
  6
CONTINUOUS
 62
     6
 10
146.18900040063329
 20
117.34419633660001
 30
0.0
 40
2.0
  1
[
 41
0.8
 72
     1
 11
146.4556670673
 21
117.34419633660001
 31
0.0
  0
TEXT
  5
359
  8
CURB-24-DIM
  6
CONTINUOUS
 62
     6
 10
148.5890004006333
 20
117.34419633660001
 30
0.0
 40
2.0
  1
1270.0
 41
0.8
 72
     1
 11
152.05566706729999
 21
117.34419633660001
 31
0.0
  0
TEXT
  5
35A
  8
CURB-24-DIM
  6
CONTINUOUS
 62
     6
 10
157.38900040063331
 20
117.34419633660001
 30
0.0
 40
2.0
  1
]
 41
0.8
 72
     1
 11
157.65566706729999
 21
117.34419633660001
 31
0.0
  0
LINE
  5
35B
  8
CURB-24-DIM
  6
CONTINUOUS
 62
     6
 10
123.375
 20
121.34419633660001
 30
0.0
 11
143.65566706729999
 21
121.34419633660001
 31
0.0
  0
LINE
  5
35C
  8
CURB-24-DIM
  6
CONTINUOUS
 62
     6
 10
173.375
 20
121.34419633660001
 30
0.0
 11
160.4556670673
 21
121.34419633660001
 31
0.0
  0
INSERT
  5
35D
  8
CURB-24-DIM
  6
CONTINUOUS
 62
     6
  2
_FILLED
 10
123.375
 20
121.34419633660001
 30
0.0
 41
4.0
 42
4.0
 43
4.0
 50
180.0
  0
INSERT
  5
35E
  8
CURB-24-DIM
  6
CONTINUOUS
 62
     6
  2
_FILLED
 10
173.375
 20
121.34419633660001
 30
0.0
 41
4.0
 42
4.0
 43
4.0
  0
ENDBLK
  5
35F
  8
0
  6
ByBlock
 62
     0
  0
BLOCK
  8
CURB-24-DIM
  6
CONTINUOUS
 62
     6
  2
*D53
 70
     1
 10
0.0
 20
0.0
 30
0.0
  3
*D53
  1

  0
TEXT
  5
362
  8
CURB-24-DIM
  6
CONTINUOUS
 62
     6
 10
181.9791666666666
 20
120.50446875
 30
0.0
 40
2.0
  1
27-7/8
 41
0.8
 72
     1
 11
186.51249999999999
 21
120.50446875
 31
0.0
  0
TEXT
  5
363
  8
CURB-24-DIM
  6
CONTINUOUS
 62
     6
 10
182.24583333333331
 20
117.50446875
 30
0.0
 40
2.0
  1
[
 41
0.8
 72
     1
 11
182.51249999999999
 21
117.50446875
 31
0.0
  0
TEXT
  5
364
  8
CURB-24-DIM
  6
CONTINUOUS
 62
     6
 10
184.37916666666661
 20
117.50446875
 30
0.0
 40
2.0
  1
708.0
 41
0.8
 72
     1
 11
187.3125
 21
117.50446875
 31
0.0
  0
TEXT
  5
365
  8
CURB-24-DIM
  6
CONTINUOUS
 62
     6
 10
191.8458333333333
 20
117.50446875
 30
0.0
 40
2.0
  1
]
 41
0.8
 72
     1
 11
192.11250000000001
 21
117.50446875
 31
0.0
  0
LINE
  5
366
  8
CURB-24-DIM
  6
CONTINUOUS
 62
     6
 10
173.375
 20
121.50446875
 30
0.0
 11
179.71250000000001
 21
121.50446875
 31
0.0
  0
LINE
  5
367
  8
CURB-24-DIM
  6
CONTINUOUS
 62
     6
 10
201.25
 20
121.50446875
 30
0.0
 11
194.91249999999999
 21
121.50446875
 31
0.0
  0
INSERT
  5
368
  8
CURB-24-DIM
  6
CONTINUOUS
 62
     6
  2
_FILLED
 10
173.375
 20
121.50446875
 30
0.0
 41
4.0
 42
4.0
 43
4.0
 50
180.0
  0
INSERT
  5
369
  8
CURB-24-DIM
  6
CONTINUOUS
 62
     6
  2
_FILLED
 10
201.25
 20
121.50446875
 30
0.0
 41
4.0
 42
4.0
 43
4.0
  0
ENDBLK
  5
36A
  8
0
  6
ByBlock
 62
     0
  0
BLOCK
  8
CURB-24-DIM
  6
CONTINUOUS
 62
     6
  2
*D54
 70
     1
 10
0.0
 20
0.0
 30
0.0
  3
*D54
  1

  0
TEXT
  5
36D
  8
CURB-24-DIM
  6
CONTINUOUS
 62
     6
 10
131.27708333333331
 20
103.2468457449
 30
0.0
 40
2.0
  1
22-1/4
 41
0.8
 72
     1
 11
135.54374999999999
 21
103.2468457449
 31
0.0
  0
TEXT
  5
36E
  8
CURB-24-DIM
  6
CONTINUOUS
 62
     6
 10
131.27708333333331
 20
100.2468457449
 30
0.0
 40
2.0
  1
[
 41
0.8
 72
     1
 11
131.54374999999999
 21
100.2468457449
 31
0.0
  0
TEXT
  5
36F
  8
CURB-24-DIM
  6
CONTINUOUS
 62
     6
 10
133.14375000000001
 20
100.2468457449
 30
0.0
 40
2.0
  1
563.6
 41
0.8
 72
     1
 11
136.34375
 21
100.2468457449
 31
0.0
  0
TEXT
  5
370
  8
CURB-24-DIM
  6
CONTINUOUS
 62
     6
 10
140.8770833333333
 20
100.2468457449
 30
0.0
 40
2.0
  1
]
 41
0.8
 72
     1
 11
141.14375000000001
 21
100.2468457449
 31
0.0
  0
LINE
  5
371
  8
CURB-24-DIM
  6
CONTINUOUS
 62
     6
 10
125.25
 20
104.2468457449
 30
0.0
 11
112.55
 21
104.2468457449
 31
0.0
  0
LINE
  5
372
  8
CURB-24-DIM
  6
CONTINUOUS
 62
     6
 10
147.4375
 20
104.2468457449
 30
0.0
 11
160.13749999999999
 21
104.2468457449
 31
0.0
  0
INSERT
  5
373
  8
CURB-24-DIM
  6
CONTINUOUS
 62
     6
  2
_FILLED
 10
125.25
 20
104.2468457449
 30
0.0
 41
4.0
 42
4.0
 43
4.0
  0
INSERT
  5
374
  8
CURB-24-DIM
  6
CONTINUOUS
 62
     6
  2
_FILLED
 10
147.4375
 20
104.2468457449
 30
0.0
 41
4.0
 42
4.0
 43
4.0
 50
180.0
  0
ENDBLK
  5
375
  8
0
  6
ByBlock
 62
     0
  0
BLOCK
  8
CURB-24-DIM
  6
CONTINUOUS
 62
     6
  2
*D55
 70
     1
 10
0.0
 20
0.0
 30
0.0
  3
*D55
  1

  0
TEXT
  5
378
  8
CURB-24-DIM
  6
CONTINUOUS
 62
     6
 10
106.68160741553331
 20
152.90524434299999
 30
0.0
 40
2.0
  1
1-7/8
 41
0.8
 72
     1
 11
110.1482740822
 21
152.90524434299999
 31
0.0
  0
TEXT
  5
379
  8
CURB-24-DIM
  6
CONTINUOUS
 62
     6
 10
106.68160741553331
 20
149.90524434299999
 30
0.0
 40
2.0
  1
[
 41
0.8
 72
     1
 11
106.9482740822
 21
149.90524434299999
 31
0.0
  0
TEXT
  5
37A
  8
CURB-24-DIM
  6
CONTINUOUS
 62
     6
 10
108.5482740822
 20
149.90524434299999
 30
0.0
 40
2.0
  1
47.6
 41
0.8
 72
     1
 11
110.9482740822
 21
149.90524434299999
 31
0.0
  0
TEXT
  5
37B
  8
CURB-24-DIM
  6
CONTINUOUS
 62
     6
 10
114.68160741553331
 20
149.90524434299999
 30
0.0
 40
2.0
  1
]
 41
0.8
 72
     1
 11
114.9482740822
 21
149.90524434299999
 31
0.0
  0
LINE
  5
37C
  8
CURB-24-DIM
  6
CONTINUOUS
 62
     6
 10
121.78749999999999
 20
166.7679666507
 30
0.0
 11
109.3607740822
 21
166.7679666507
 31
0.0
  0
LINE
  5
37D
  8
CURB-24-DIM
  6
CONTINUOUS
 62
     6
 10
123.66249999999999
 20
164.8929666507
 30
0.0
 11
109.3607740822
 21
164.8929666507
 31
0.0
  0
LINE
  5
37E
  8
CURB-24-DIM
  6
CONTINUOUS
 62
     6
 10
110.9482740822
 20
166.7679666507
 30
0.0
 11
110.9482740822
 21
179.46796665069999
 31
0.0
  0
LINE
  5
37F
  8
CURB-24-DIM
  6
CONTINUOUS
 62
     6
 10
110.9482740822
 20
164.8929666507
 30
0.0
 11
110.9482740822
 21
156.90524434299999
 31
0.0
  0
INSERT
  5
380
  8
CURB-24-DIM
  6
CONTINUOUS
 62
     6
  2
_FILLED
 10
110.9482740822
 20
166.7679666507
 30
0.0
 41
4.0
 42
4.0
 43
4.0
 50
270.0
  0
INSERT
  5
381
  8
CURB-24-DIM
  6
CONTINUOUS
 62
     6
  2
_FILLED
 10
110.9482740822
 20
164.8929666507
 30
0.0
 41
4.0
 42
4.0
 43
4.0
 50
90.0
  0
ENDBLK
  5
382
  8
0
  6
ByBlock
 62
     0
  0
BLOCK
  8
CURB-24-DIM
  6
CONTINUOUS
 62
     6
  2
*D56
 70
     1
 10
0.0
 20
0.0
 30
0.0
  3
*D56
  1

  0
TEXT
  5
385
  8
CURB-24-DIM
  6
CONTINUOUS
 62
     6
 10
183.67156303683331
 20
92.580466650700004
 30
0.0
 40
2.0
  1
14-7/8
 41
0.8
 72
     1
 11
187.9382297034999
 21
92.580466650700004
 31
0.0
  0
TEXT
  5
386
  8
CURB-24-DIM
  6
CONTINUOUS
 62
     6
 10
183.67156303683331
 20
89.580466650700004
 30
0.0
 40
2.0
  1
[
 41
0.8
 72
     1
 11
183.9382297034999
 21
89.580466650700004
 31
0.0
  0
TEXT
  5
387
  8
CURB-24-DIM
  6
CONTINUOUS
 62
     6
 10
185.53822970350001
 20
89.580466650700004
 30
0.0
 40
2.0
  1
377.8
 41
0.8
 72
     1
 11
188.7382297035
 21
89.580466650700004
 31
0.0
  0
TEXT
  5
388
  8
CURB-24-DIM
  6
CONTINUOUS
 62
     6
 10
193.2715630368333
 20
89.580466650700004
 30
0.0
 40
2.0
  1
]
 41
0.8
 72
     1
 11
193.53822970350001
 21
89.580466650700004
 31
0.0
  0
LINE
  5
389
  8
CURB-24-DIM
  6
CONTINUOUS
 62
     6
 10
188.7382297035
 20
101.0179666507
 30
0.0
 11
188.7382297035
 21
113.71796665070001
 31
0.0
  0
LINE
  5
38A
  8
CURB-24-DIM
  6
CONTINUOUS
 62
     6
 10
188.7382297035
 20
86.142966650700004
 30
0.0
 11
188.7382297035
 21
73.442966650700001
 31
0.0
  0
INSERT
  5
38B
  8
CURB-24-DIM
  6
CONTINUOUS
 62
     6
  2
_FILLED
 10
188.7382297035
 20
101.0179666507
 30
0.0
 41
4.0
 42
4.0
 43
4.0
 50
270.0
  0
INSERT
  5
38C
  8
CURB-24-DIM
  6
CONTINUOUS
 62
     6
  2
_FILLED
 10
188.7382297035
 20
86.142966650700004
 30
0.0
 41
4.0
 42
4.0
 43
4.0
 50
90.0
  0
ENDBLK
  5
38D
  8
0
  6
ByBlock
 62
     0
  0
BLOCK
  8
CURB-24-DIM
  6
CONTINUOUS
 62
     6
  2
*D57
 70
     1
 10
0.0
 20
0.0
 30
0.0
  3
*D57
  1

  0
TEXT
  5
390
  8
CURB-24-DIM
  6
CONTINUOUS
 62
     6
 10
156.4756482371333
 20
72.008025408100011
 30
0.0
 40
2.0
  1
6-1/4
 41
0.8
 72
     1
 11
159.9423149038
 21
72.008025408100011
 31
0.0
  0
TEXT
  5
391
  8
CURB-24-DIM
  6
CONTINUOUS
 62
     6
 10
156.4756482371333
 20
69.008025408100011
 30
0.0
 40
2.0
  1
[
 41
0.8
 72
     1
 11
156.74231490379989
 21
69.008025408100011
 31
0.0
  0
TEXT
  5
392
  8
CURB-24-DIM
  6
CONTINUOUS
 62
     6
 10
158.6089815704666
 20
69.008025408100011
 30
0.0
 40
2.0
  1
158.8
 41
0.8
 72
     1
 11
161.54231490379999
 21
69.008025408100011
 31
0.0
  0
TEXT
  5
393
  8
CURB-24-DIM
  6
CONTINUOUS
 62
     6
 10
166.07564823713329
 20
69.008025408100011
 30
0.0
 40
2.0
  1
]
 41
0.8
 72
     1
 11
166.3423149038
 21
69.008025408100011
 31
0.0
  0
LINE
  5
394
  8
CURB-24-DIM
  6
CONTINUOUS
 62
     6
 10
149.02500000000001
 20
92.392966650700004
 30
0.0
 11
163.1298149038
 21
92.392966650700004
 31
0.0
  0
LINE
  5
395
  8
CURB-24-DIM
  6
CONTINUOUS
 62
     6
 10
161.54231490379999
 20
86.142966650700004
 30
0.0
 11
161.54231490379999
 21
76.008025408100011
 31
0.0
  0
LINE
  5
396
  8
CURB-24-DIM
  6
CONTINUOUS
 62
     6
 10
161.54231490379999
 20
92.392966650700004
 30
0.0
 11
161.54231490379999
 21
105.09296665070001
 31
0.0
  0
INSERT
  5
397
  8
CURB-24-DIM
  6
CONTINUOUS
 62
     6
  2
_FILLED
 10
161.54231490379999
 20
86.142966650700004
 30
0.0
 41
4.0
 42
4.0
 43
4.0
 50
90.0
  0
INSERT
  5
398
  8
CURB-24-DIM
  6
CONTINUOUS
 62
     6
  2
_FILLED
 10
161.54231490379999
 20
92.392966650700004
 30
0.0
 41
4.0
 42
4.0
 43
4.0
 50
270.0
  0
ENDBLK
  5
399
  8
0
  6
ByBlock
 62
     0
  0
BLOCK
  8
CURB-24-DIM
  6
CONTINUOUS
 62
     6
  2
*D58
 70
     1
 10
0.0
 20
0.0
 30
0.0
  3
*D58
  1

  0
TEXT
  5
39C
  8
CURB-24-DIM
  6
CONTINUOUS
 62
     6
 10
173.3753918269
 20
71.695737980800004
 30
0.0
 40
2.0
  1
2-15/16
 41
0.8
  0
TEXT
  5
39D
  8
CURB-24-DIM
  6
CONTINUOUS
 62
     6
 10
173.3753918269
 20
68.695737980800004
 30
0.0
 40
2.0
  1
[
 41
0.8
  0
TEXT
  5
39E
  8
CURB-24-DIM
  6
CONTINUOUS
 62
     6
 10
174.97539182689999
 20
68.695737980800004
 30
0.0
 40
2.0
  1
74.6
 41
0.8
  0
TEXT
  5
39F
  8
CURB-24-DIM
  6
CONTINUOUS
 62
     6
 10
181.3753918269
 20
68.695737980800004
 30
0.0
 40
2.0
  1
]
 41
0.8
  0
LINE
  5
3A0
  8
CURB-24-DIM
  6
CONTINUOUS
 62
     6
 10
149.02500000000001
 20
92.392966650700004
 30
0.0
 11
168.61289182690001
 21
92.392966650700004
 31
0.0
  0
LINE
  5
3A1
  8
CURB-24-DIM
  6
CONTINUOUS
 62
     6
 10
149.02500000000001
 20
95.330466650700004
 30
0.0
 11
168.61289182690001
 21
95.330466650700004
 31
0.0
  0
LINE
  5
3A2
  8
CURB-24-DIM
  6
CONTINUOUS
 62
     6
 10
167.02539182690001
 20
92.392966650700004
 30
0.0
 11
167.02539182690001
 21
72.695737980800004
 31
0.0
  0
LINE
  5
3A3
  8
CURB-24-DIM
  6
CONTINUOUS
 62
     6
 10
167.02539182690001
 20
72.695737980800004
 30
0.0
 11
171.3753918269
 21
72.695737980800004
 31
0.0
  0
LINE
  5
3A4
  8
CURB-24-DIM
  6
CONTINUOUS
 62
     6
 10
167.02539182690001
 20
95.330466650700004
 30
0.0
 11
167.02539182690001
 21
108.03046665070001
 31
0.0
  0
INSERT
  5
3A5
  8
CURB-24-DIM
  6
CONTINUOUS
 62
     6
  2
_FILLED
 10
167.02539182690001
 20
92.392966650700004
 30
0.0
 41
4.0
 42
4.0
 43
4.0
 50
90.0
  0
INSERT
  5
3A6
  8
CURB-24-DIM
  6
CONTINUOUS
 62
     6
  2
_FILLED
 10
167.02539182690001
 20
95.330466650700004
 30
0.0
 41
4.0
 42
4.0
 43
4.0
 50
270.0
  0
ENDBLK
  5
3A7
  8
0
  6
ByBlock
 62
     0
  0
ENDSEC
  0
SECTION
  2
ENTITIES
  0
DIMENSION
  5
3A8
  8
UNIT-DUCT-DIM
  6
CONTINUOUS
 62
     2
  2
*D1
 10
87.833155417099988
 20
95.451725983399996
 30
0.0
 11
87.033155417099991
 21
129.96109571989999
 31
0.0
 70
   128
 13
127.9419507713
 23
163.58263009359999
 33
0.0
 14
127.7823749881
 24
95.451725983399996
 34
0.0
 50
270.0
  0
DIMENSION
  5
3A9
  8
UNIT-DUCT-DIM
  6
CONTINUOUS
 62
     2
  2
*D2
 10
256.71838862189998
 20
163.57870227399999
 30
0.0
 11
255.91838862189999
 21
131.26204666340001
 31
0.0
 70
   128
 13
200.2468164176
 23
101.94539105280001
 33
0.0
 14
199.5400372032
 24
163.57870227399999
 34
0.0
 50
90.0
  0
DIMENSION
  5
3AA
  8
UNIT-DIM
  6
CONTINUOUS
 62
     7
  2
*D3
 10
93.488353411100007
 20
90.580467168999988
 30
0.0
 11
93.488353411100007
 21
86.92572273879999
 31
0.0
 70
   128
 13
120.5
 23
83.455467169000016
 33
0.0
 14
128.625
 24
90.580467168999988
 34
0.0
 50
90.0
  0
DIMENSION
  5
3AB
  8
UNIT-DIM
  6
CONTINUOUS
 62
     7
  2
*D4
 10
131.5
 20
56.752111424700011
 30
0.0
 11
106.6986957383
 21
55.252111424699997
 31
0.0
 70
   128
 13
120.5
 23
81.972110945200001
 33
0.0
 14
131.5
 24
90.580467168999988
 34
0.0
  0
DIMENSION
  5
3AC
  8
UNIT-DIM
  6
CONTINUOUS
 62
     7
  2
*D5
 10
133.375
 20
50.321590198700001
 30
0.0
 11
148.43234016150001
 21
48.821590198700001
 31
0.0
 70
   128
 13
120.5
 23
81.781420456700005
 33
0.0
 14
133.375
 24
90.580467168999988
 34
0.0
  0
DIMENSION
  5
3AD
  8
UNIT-DIM
  6
CONTINUOUS
 62
     7
  2
*D6
 10
135.375
 20
45.849435379399999
 30
0.0
 11
103.62754839999999
 21
44.349435379399992
 31
0.0
 70
   128
 13
120.5
 23
81.803807306599992
 33
0.0
 14
135.375
 24
90.580467168999988
 34
0.0
  0
DIMENSION
  5
3AE
  8
UNIT-DIM
  6
CONTINUOUS
 62
     7
  2
*D7
 10
65.640551659899998
 20
165.5801936432
 30
0.0
 11
64.840551659900001
 21
130.0801775242
 31
0.0
 70
   128
 13
96.0
 23
97.580161405200002
 33
0.0
 14
96.568809715599997
 24
165.5801936432
 34
0.0
 50
90.0
  0
DIMENSION
  5
3AF
  8
UNIT-DIM
  6
CONTINUOUS
 62
     7
  2
*D8
 10
65.640551659899998
 20
97.580161405200002
 30
0.0
 11
64.840551659900001
 21
89.017814287099995
 31
0.0
 70
   128
 13
110.87642389360001
 23
83.455467169000016
 33
0.0
 14
96.0
 24
97.580161405200002
 34
0.0
 50
90.0
  0
DIMENSION
  5
3B0
  8
UNIT-DIM
  6
CONTINUOUS
 62
     7
  2
*D9
 10
291.65919436580009
 20
169.830467169
 30
0.0
 11
291.65919436580009
 21
121.871410049
 31
0.0
 70
   128
 13
248.3975133127
 23
83.455467169000016
 33
0.0
 14
248.3975133127
 24
169.830467169
 34
0.0
 50
90.0
  0
DIMENSION
  5
3B1
  8
UNIT-DIM
  6
CONTINUOUS
 62
     7
  2
*D10
 10
248.3975133127
 20
24.088141415700001
 30
0.0
 11
192.8647566564
 21
22.588141415700001
 31
0.0
 70
   128
 13
120.5
 23
80.897028939999998
 33
0.0
 14
248.3975133127
 24
80.453058751900016
 34
0.0
  0
DIMENSION
  5
3B2
  8
SERVCLRDIM
  6
CONTINUOUS
 62
     1
  2
*D11
 10
0.0
 20
196.75757726869989
 30
0.0
 11
48.0
 21
195.2575772687
 31
0.0
 70
   128
 13
96.0
 23
165.13569844989999
 33
0.0
 14
0.0
 24
211.83023331780001
 34
0.0
 50
180.0
  0
DIMENSION
  5
3B3
  8
SERVCLRDIM
  6
CONTINUOUS
 62
     1
  2
*D12
 10
236.30598261509999
 20
169.830467169
 30
0.0
 11
235.50598261510001
 21
189.33035024340001
 31
0.0
 70
   128
 13
232.73879557270001
 23
211.83023331780001
 33
0.0
 14
231.46588314909999
 24
169.830467169
 34
0.0
 50
270.0
  0
DIMENSION
  5
3B4
  8
SERVCLRDIM
  6
CONTINUOUS
 62
     1
  2
*D13
 10
284.39751331270003
 20
185.98010272689999
 30
0.0
 11
266.39751331270003
 21
184.48010272689999
 31
0.0
 70
   128
 13
248.3975133127
 23
170.0680406088
 33
0.0
 14
284.39751331270003
 24
176.36359627249999
 34
0.0
  0
DIMENSION
  5
3B5
  8
SERVCLRDIM
  6
CONTINUOUS
 62
     1
  2
*D14
 10
83.979778261099995
 20
41.455467169000002
 30
0.0
 11
83.979778261099995
 21
60.955467168999988
 31
0.0
 70
   128
 13
75.926434551900002
 23
83.455467169000016
 33
0.0
 14
80.502931077999989
 24
41.455467169000002
 34
0.0
 50
270.0
  0
DIMENSION
  5
3B6
  8
CURBDUCTDIM
  6
CONTINUOUS
 62
     5
  2
*D15
 10
147.375
 20
185.9589075115
 30
0.0
 11
158.04042905579999
 21
184.4589075115
 31
0.0
 70
   128
 13
125.875
 23
164.2679666507
 33
0.0
 14
147.375
 24
164.2679666507
 34
0.0
  0
DIMENSION
  5
3B7
  8
CURBDUCTDIM
  6
CONTINUOUS
 62
     5
  2
*D16
 10
200.625
 20
202.46926995909999
 30
0.0
 11
186.19999999999999
 21
200.96926995909999
 31
0.0
 70
   128
 13
173.375
 23
164.2679666507
 33
0.0
 14
200.625
 24
164.2679666507
 34
0.0
  0
DIMENSION
  5
3B8
  8
UNIT-DUCT-DIM
  6
CONTINUOUS
 62
     2
  2
*D17
 10
87.833155417099988
 20
169.830467169
 30
0.0
 11
87.833155417099988
 21
181.50889855470001
 31
0.0
 70
   128
 13
126.7491963587
 23
163.58263009359999
 33
0.0
 14
155.08015242050001
 24
169.830467169
 34
0.0
 50
90.0
  0
DIMENSION
  5
3B9
  8
UNIT-DUCT-DIM
  6
CONTINUOUS
 62
     2
  2
*D18
 10
126.7491963587
 20
177.61608698129999
 30
0.0
 11
104.0190578151
 21
176.11608698129999
 31
0.0
 70
   128
 13
120.5
 23
172.26275834489999
 33
0.0
 14
126.7491963587
 24
163.58263009359999
 34
0.0
  0
DIMENSION
  5
3BA
  8
UNIT-DUCT-DIM
  6
CONTINUOUS
 62
     2
  2
*D19
 10
146.00126465010001
 20
177.61608698129999
 30
0.0
 11
157.2320113044
 21
176.11608698129999
 31
0.0
 70
   128
 13
126.7491963587
 23
163.58263009359999
 33
0.0
 14
146.00126465010001
 24
163.58263009359999
 34
0.0
  0
DIMENSION
  5
3BB
  8
UNIT-DUCT-DIM
  6
CONTINUOUS
 62
     2
  2
*D20
 10
174.24886121669999
 20
194.33915563779999
 30
0.0
 11
146.57443060829999
 21
192.83915563779999
 31
0.0
 70
   128
 13
120.5
 23
172.06365314449999
 33
0.0
 14
174.24886121669999
 24
163.57870227399999
 34
0.0
  0
DIMENSION
  5
3BC
  8
UNIT-DUCT-DIM
  6
CONTINUOUS
 62
     2
  2
*D21
 10
199.74804881329999
 20
194.33915563779999
 30
0.0
 11
186.19845501500001
 21
192.83915563779999
 31
0.0
 70
   128
 13
174.24886121669999
 23
163.57870227399999
 33
0.0
 14
199.74804881329999
 24
163.57870227399999
 34
0.0
  0
DIMENSION
  5
3BD
  8
CURBDUCTDIM
  6
CONTINUOUS
 62
     5
  2
*D22
 10
268.68122760739999
 20
101.0179666507
 30
0.0
 11
267.88122760739998
 21
117.9049919656
 31
0.0
 70
   128
 13
200.625
 23
164.2679666507
 33
0.0
 14
200.625
 24
101.0179666507
 34
0.0
 50
270.0
  0
DIMENSION
  5
3BE
  8
CURBDUCTDIM
  6
CONTINUOUS
 62
     5
  2
*D23
 10
77.639317525799996
 20
95.517966650700004
 30
0.0
 11
76.839317525799999
 21
119.2444164999
 31
0.0
 70
   128
 13
125.875
 23
164.2679666507
 33
0.0
 14
125.875
 24
95.517966650700004
 34
0.0
 50
270.0
  0
DIMENSION
  5
3BF
  8
CURBDUCTDIM
  6
CONTINUOUS
 62
     5
  2
*D24
 10
77.639317525799996
 20
169.830467169
 30
0.0
 11
77.639317525799996
 21
188.4766792986
 31
0.0
 70
   128
 13
125.875
 23
164.2679666507
 33
0.0
 14
120.5
 24
169.830467169
 34
0.0
 50
90.0
  0
DIMENSION
  5
3C0
  8
CURBDUCTDIM
  6
CONTINUOUS
 62
     5
  2
*D25
 10
125.875
 20
185.9589075115
 30
0.0
 11
105.0239558665
 21
184.4589075115
 31
0.0
 70
   128
 13
120.5
 23
169.830467169
 33
0.0
 14
125.875
 24
164.2679666507
 34
0.0
  0
DIMENSION
  5
3C1
  8
CURBDUCTDIM
  6
CONTINUOUS
 62
     5
  2
*D26
 10
173.375
 20
202.46926995909999
 30
0.0
 11
146.13749999999999
 21
200.96926995909999
 31
0.0
 70
   128
 13
120.5
 23
169.830467169
 33
0.0
 14
173.375
 24
195.8209442088
 34
0.0
  0
DIMENSION
  5
3C2
  8
UNIT-DIM
  6
CONTINUOUS
 62
     7
  2
*D27
 10
128.625
 20
63.387553486900003
 30
0.0
 11
147.9719434786
 21
61.887553486899989
 31
0.0
 70
   128
 13
120.5
 23
83.455467169000016
 33
0.0
 14
128.625
 24
88.258904569899997
 34
0.0
  0
DIMENSION
  5
3C3
  8
UNIT-DIM
  6
CONTINUOUS
 62
     7
  2
*D28
 10
120.5
 20
143.4607306844
 30
0.0
 11
108.25
 21
141.9607306844
 31
0.0
 70
   128
 13
96.0
 23
165.5801936432
 33
0.0
 14
120.5
 24
169.830467169
 34
0.0
  0
DIMENSION
  5
3C4
  8
UNIT-DIM
  6
CONTINUOUS
 62
     7
  2
*D29
 10
178.0625
 20
34.299823266200001
 30
0.0
 11
149.28125
 21
34.299823266200001
 31
0.0
 70
   128
 13
120.5
 23
83.455467169000016
 33
0.0
 14
178.0625
 24
80.205467169000002
 34
0.0
  0
DIMENSION
  5
3C5
  8
UNIT-DIM
  6
CONTINUOUS
 62
     7
  2
*D30
 10
198.375
 20
29.552186902500001
 30
0.0
 11
172.28404545449999
 21
29.552186902500001
 31
0.0
 70
   128
 13
120.5
 23
83.455467169000016
 33
0.0
 14
198.375
 24
79.580467169000002
 34
0.0
  0
DIMENSION
  5
3C6
  8
UNIT-DIM
  6
CONTINUOUS
 62
     7
  2
*D31
 10
206.72373321539999
 20
79.580467169000002
 30
0.0
 11
206.72373321539999
 21
67.729164441699993
 31
0.0
 70
   128
 13
248.3975133127
 23
83.455467169000016
 33
0.0
 14
202.41439101570001
 24
79.580467169000002
 34
0.0
 50
270.0
  0
DIMENSION
  5
3C7
  8
UNIT-DIM
  6
CONTINUOUS
 62
     7
  2
*D32
 10
195.44759283889999
 20
80.205467169000002
 30
0.0
 11
207.59701492510001
 21
59.100156910800003
 31
0.0
 70
   128
 13
248.3975133127
 23
83.455467169000016
 33
0.0
 14
191.9208395471
 24
80.205467169000002
 34
0.0
 50
270.0
  0
DIMENSION
  5
3C8
  8
UNIT-DIM
  6
CONTINUOUS
 62
     7
  2
*D33
 10
171.03412019640001
 20
39.618261832800002
 30
0.0
 11
145.76706009820001
 21
39.618261832800002
 31
0.0
 70
   128
 13
120.5
 23
83.455467169000016
 33
0.0
 14
171.03412019640001
 24
89.955556802499984
 34
0.0
  0
DIMENSION
  5
3C9
  8
UNIT-DIM
  6
CONTINUOUS
 62
     7
  2
*D34
 10
155.32731338670001
 20
89.955556802499984
 30
0.0
 11
164.47933255820001
 21
63.741959643400001
 31
0.0
 70
   128
 13
120.5
 23
83.455467169000016
 33
0.0
 14
171.03412019640001
 24
89.955556802499984
 34
0.0
 50
90.0
  0
DIMENSION
  5
3CA
  8
CURB-14-DIM
  6
CONTINUOUS
 62
     6
  2
*D35
 10
114.8631499751
 20
86.142966650700004
 30
0.0
 11
103.3513419751
 21
75.545261168999986
 31
0.0
 70
   128
 13
120.5
 23
83.455467169000016
 33
0.0
 14
123.375
 24
86.142966650700004
 34
0.0
 50
90.0
  0
DIMENSION
  5
3CB
  8
CURB-14-DIM
  6
CONTINUOUS
 62
     6
  2
*D36
 10
123.375
 20
207.98482829380001
 30
0.0
 11
210.75399118030001
 21
206.48482829380001
 31
0.0
 70
   128
 13
245.0
 23
167.496200335
 33
0.0
 14
123.375
 24
166.4316694346
 34
0.0
 50
180.0
  0
DIMENSION
  5
3CC
  8
CURB-14-DIM
  6
CONTINUOUS
 62
     6
  2
*D37
 10
278.05779701019998
 20
166.7679666507
 30
0.0
 11
277.25779701020002
 21
128.8003455768
 31
0.0
 70
   128
 13
245.0
 23
86.142966650700004
 33
0.0
 14
245.0
 24
166.7679666507
 34
0.0
 50
90.0
  0
DIMENSION
  5
3CD
  8
CURB-14-DIM
  6
CONTINUOUS
 62
     6
  2
*D38
 10
123.375
 20
70.300743764899991
 30
0.0
 11
103.8958775327
 21
68.800743764899991
 31
0.0
 70
   128
 13
120.5
 23
83.455467169000016
 33
0.0
 14
123.375
 24
83.821404051599984
 34
0.0
  0
DIMENSION
  5
3CE
  8
CURB-14-DIM
  6
CONTINUOUS
 62
     6
  2
*D39
 10
147.4375
 20
148.51844803989999
 30
0.0
 11
135.40625
 21
147.01844803989999
 31
0.0
 70
   128
 13
123.375
 23
166.7679666507
 33
0.0
 14
147.4375
 24
164.8929666507
 34
0.0
  0
DIMENSION
  5
3CF
  8
CURB-14-DIM
  6
CONTINUOUS
 62
     6
  2
*D40
 10
173.375
 20
121.3160042766
 30
0.0
 11
151.98762609369999
 21
119.8160042766
 31
0.0
 70
   128
 13
123.375
 23
166.7679666507
 33
0.0
 14
173.375
 24
164.8929666507
 34
0.0
  0
DIMENSION
  5
3D0
  8
CURB-14-DIM
  6
CONTINUOUS
 62
     6
  2
*D41
 10
201.25
 20
121.50446875
 30
0.0
 11
187.3125
 21
120.00446875
 31
0.0
 70
   128
 13
173.375
 23
164.8929666507
 33
0.0
 14
201.25
 24
164.8929666507
 34
0.0
  0
DIMENSION
  5
3D1
  8
CURB-14-DIM
  6
CONTINUOUS
 62
     6
  2
*D42
 10
147.4375
 20
104.2468457449
 30
0.0
 11
136.34375
 21
102.7468457449
 31
0.0
 70
   128
 13
125.25
 23
88.017966650700004
 33
0.0
 14
147.4375
 24
88.017966650700004
 34
0.0
  0
DIMENSION
  5
3D2
  8
CURB-14-DIM
  6
CONTINUOUS
 62
     6
  2
*D43
 10
110.9482740822
 20
164.8929666507
 30
0.0
 11
110.9482740822
 21
152.40524434299999
 31
0.0
 70
   128
 13
123.375
 23
166.7679666507
 33
0.0
 14
125.25
 24
164.8929666507
 34
0.0
 50
270.0
  0
DIMENSION
  5
3D3
  8
CURB-14-DIM
  6
CONTINUOUS
 62
     6
  2
*D44
 10
188.7382297035
 20
86.142966650700004
 30
0.0
 11
188.7382297035
 21
92.080466650700004
 31
0.0
 70
   128
 13
173.375
 23
101.0179666507
 33
0.0
 14
245.0
 24
86.142966650700004
 34
0.0
 50
270.0
  0
DIMENSION
  5
3D4
  8
CURB-14-DIM
  6
CONTINUOUS
 62
     6
  2
*D45
 10
161.54231490379999
 20
92.392966650700004
 30
0.0
 11
161.54231490379999
 21
71.508025408100011
 31
0.0
 70
   128
 13
123.375
 23
86.142966650700004
 33
0.0
 14
147.4375
 24
92.392966650700004
 34
0.0
 50
90.0
  0
DIMENSION
  5
3D5
  8
CURB-14-DIM
  6
CONTINUOUS
 62
     6
  2
*D46
 10
167.02539182690001
 20
95.330466650700004
 30
0.0
 11
178.97539182689999
 21
71.195737980800004
 31
0.0
 70
   128
 13
147.4375
 23
92.392966650700004
 33
0.0
 14
147.4375
 24
95.330466650700004
 34
0.0
 50
90.0
  0
DIMENSION
  5
3D6
  8
CURB-24-DIM
  6
CONTINUOUS
 62
     6
  2
*D47
 10
114.8631499751
 20
86.142966650700004
 30
0.0
 11
103.3513419751
 21
75.545261168999986
 31
0.0
 70
   128
 13
120.5
 23
83.455467169000016
 33
0.0
 14
123.375
 24
86.142966650700004
 34
0.0
 50
90.0
  0
DIMENSION
  5
3D7
  8
CURB-24-DIM
  6
CONTINUOUS
 62
     6
  2
*D48
 10
123.375
 20
207.98482829380001
 30
0.0
 11
210.75399118030001
 21
206.48482829380001
 31
0.0
 70
   128
 13
245.0
 23
167.496200335
 33
0.0
 14
123.375
 24
166.4316694346
 34
0.0
 50
180.0
  0
DIMENSION
  5
3D8
  8
CURB-24-DIM
  6
CONTINUOUS
 62
     6
  2
*D49
 10
278.05779701019998
 20
166.7679666507
 30
0.0
 11
277.25779701020002
 21
128.8003455768
 31
0.0
 70
   128
 13
245.0
 23
86.142966650700004
 33
0.0
 14
245.0
 24
166.7679666507
 34
0.0
 50
90.0
  0
DIMENSION
  5
3D9
  8
CURB-24-DIM
  6
CONTINUOUS
 62
     6
  2
*D50
 10
123.375
 20
70.300743764899991
 30
0.0
 11
103.8958775327
 21
68.800743764899991
 31
0.0
 70
   128
 13
120.5
 23
83.455467169000016
 33
0.0
 14
123.375
 24
83.821404051599984
 34
0.0
  0
DIMENSION
  5
3DA
  8
CURB-24-DIM
  6
CONTINUOUS
 62
     6
  2
*D51
 10
147.4375
 20
148.51844803989999
 30
0.0
 11
135.40625
 21
147.01844803989999
 31
0.0
 70
   128
 13
123.375
 23
166.7679666507
 33
0.0
 14
147.4375
 24
164.8929666507
 34
0.0
  0
DIMENSION
  5
3DB
  8
CURB-24-DIM
  6
CONTINUOUS
 62
     6
  2
*D52
 10
173.375
 20
121.34419633660001
 30
0.0
 11
152.05566706729999
 21
119.84419633660001
 31
0.0
 70
   128
 13
123.375
 23
166.7679666507
 33
0.0
 14
173.375
 24
164.8929666507
 34
0.0
  0
DIMENSION
  5
3DC
  8
CURB-24-DIM
  6
CONTINUOUS
 62
     6
  2
*D53
 10
201.25
 20
121.50446875
 30
0.0
 11
187.3125
 21
120.00446875
 31
0.0
 70
   128
 13
173.375
 23
164.8929666507
 33
0.0
 14
201.25
 24
164.8929666507
 34
0.0
  0
DIMENSION
  5
3DD
  8
CURB-24-DIM
  6
CONTINUOUS
 62
     6
  2
*D54
 10
147.4375
 20
104.2468457449
 30
0.0
 11
136.34375
 21
102.7468457449
 31
0.0
 70
   128
 13
125.25
 23
88.017966650700004
 33
0.0
 14
147.4375
 24
88.017966650700004
 34
0.0
  0
DIMENSION
  5
3DE
  8
CURB-24-DIM
  6
CONTINUOUS
 62
     6
  2
*D55
 10
110.9482740822
 20
164.8929666507
 30
0.0
 11
110.9482740822
 21
152.40524434299999
 31
0.0
 70
   128
 13
123.375
 23
166.7679666507
 33
0.0
 14
125.25
 24
164.8929666507
 34
0.0
 50
270.0
  0
DIMENSION
  5
3DF
  8
CURB-24-DIM
  6
CONTINUOUS
 62
     6
  2
*D56
 10
188.7382297035
 20
86.142966650700004
 30
0.0
 11
188.7382297035
 21
92.080466650700004
 31
0.0
 70
   128
 13
173.375
 23
101.0179666507
 33
0.0
 14
245.0
 24
86.142966650700004
 34
0.0
 50
270.0
  0
DIMENSION
  5
3E0
  8
CURB-24-DIM
  6
CONTINUOUS
 62
     6
  2
*D57
 10
161.54231490379999
 20
92.392966650700004
 30
0.0
 11
161.54231490379999
 21
71.508025408100011
 31
0.0
 70
   128
 13
123.375
 23
86.142966650700004
 33
0.0
 14
147.4375
 24
92.392966650700004
 34
0.0
 50
90.0
  0
DIMENSION
  5
3E1
  8
CURB-24-DIM
  6
CONTINUOUS
 62
     6
  2
*D58
 10
167.02539182690001
 20
95.330466650700004
 30
0.0
 11
178.97539182689999
 21
71.195737980800004
 31
0.0
 70
   128
 13
147.4375
 23
92.392966650700004
 33
0.0
 14
147.4375
 24
95.330466650700004
 34
0.0
 50
90.0
  0
LINE
  5
3E2
  8
NOTES
  6
CONTINUOUS
 62
     1
 10
0.0
 20
0.0
 30
0.0
 11
48.0
 21
0.0
 31
0.0
  0
LINE
  5
3E3
  8
NOTES
  6
CONTINUOUS
 62
     1
 10
0.0
 20
0.0
 30
0.0
 11
0.0
 21
36.5
 31
0.0
  0
LINE
  5
3E4
  8
NOTES
  6
CONTINUOUS
 62
     1
 10
0.0
 20
4.0
 30
0.0
 11
48.0
 21
4.0
 31
0.0
  0
LINE
  5
3E5
  8
NOTES
  6
CONTINUOUS
 62
     1
 10
0.0
 20
4.5
 30
0.0
 11
48.0
 21
4.5
 31
0.0
  0
LINE
  5
3E6
  8
NOTES
  6
CONTINUOUS
 62
     1
 10
0.0
 20
8.5
 30
0.0
 11
48.0
 21
8.5
 31
0.0
  0
LINE
  5
3E7
  8
NOTES
  6
CONTINUOUS
 62
     1
 10
0.0
 20
12.5
 30
0.0
 11
48.0
 21
12.5
 31
0.0
  0
LINE
  5
3E8
  8
NOTES
  6
CONTINUOUS
 62
     1
 10
0.0
 20
16.5
 30
0.0
 11
48.0
 21
16.5
 31
0.0
  0
LINE
  5
3E9
  8
NOTES
  6
CONTINUOUS
 62
     1
 10
0.0
 20
20.5
 30
0.0
 11
48.0
 21
20.5
 31
0.0
  0
LINE
  5
3EA
  8
NOTES
  6
CONTINUOUS
 62
     1
 10
0.0
 20
24.5
 30
0.0
 11
48.0
 21
24.5
 31
0.0
  0
LINE
  5
3EB
  8
NOTES
  6
CONTINUOUS
 62
     1
 10
0.0
 20
28.5
 30
0.0
 11
48.0
 21
28.5
 31
0.0
  0
LINE
  5
3EC
  8
NOTES
  6
CONTINUOUS
 62
     1
 10
0.0
 20
32.5
 30
0.0
 11
48.0
 21
32.5
 31
0.0
  0
LINE
  5
3ED
  8
NOTES
  6
CONTINUOUS
 62
     1
 10
0.0
 20
36.5
 30
0.0
 11
48.0
 21
36.5
 31
0.0
  0
LINE
  5
3EE
  8
NOTES
  6
CONTINUOUS
 62
     1
 10
16.0
 20
12.5
 30
0.0
 11
16.0
 21
36.5
 31
0.0
  0
LINE
  5
3EF
  8
NOTES
  6
CONTINUOUS
 62
     1
 10
48.0
 20
0.0
 30
0.0
 11
48.0
 21
36.5
 31
0.0
  0
TEXT
  5
3F0
  8
NOTES
  6
CONTINUOUS
 62
     1
 10
0.8
 20
1.0
 30
0.0
 40
2.0
  1
VIEW: TOP
 41
0.8
  0
TEXT
  5
3F1
  8
NOTES
  6
CONTINUOUS
 62
     1
 10
0.8
 20
5.5
 30
0.0
 40
2.0
  1
FILE NAME: 
 41
0.8
  0
TEXT
  5
3F2
  8
NOTES
  6
CONTINUOUS
 62
     1
 10
18.399999999999999
 20
5.5
 30
0.0
 40
2.0
  1
TMY60-T-
 41
0.8
  0
TEXT
  5
3F3
  8
NOTES
  6
CONTINUOUS
 62
     1
 10
17.066666666666659
 20
9.5
 30
0.0
 40
2.0
  1
LAYER KEY
 41
0.8
 72
     1
 11
24.0
 21
9.5
 31
0.0
  0
TEXT
  5
3F4
  8
NOTES
  6
CONTINUOUS
 62
     7
 10
5.5555555555333331
 20
13.5
 30
0.0
 40
2.0
  1
-
 41
3.6666666666999999
  7
TEXTSTYLE_2
 72
     1
 11
8.0
 21
13.5
 31
0.0
  0
TEXT
  5
3F5
  8
NOTES
  6
CONTINUOUS
 62
     1
 10
16.800000000000001
 20
13.5
 30
0.0
 40
2.0
  1
UNIT
 41
0.8
  0
TEXT
  5
3F6
  8
NOTES
  6
CONTINUOUS
 62
     6
 10
5.5555555555333331
 20
17.5
 30
0.0
 40
2.0
  1
-
 41
3.6666666666999999
  7
TEXTSTYLE_2
 72
     1
 11
8.0
 21
17.5
 31
0.0
  0
TEXT
  5
3F7
  8
NOTES
  6
CONTINUOUS
 62
     1
 10
16.800000000000001
 20
17.5
 30
0.0
 40
2.0
  1
ROOF CURB
 41
0.8
  0
TEXT
  5
3F8
  8
NOTES
  6
CONTINUOUS
 62
     1
 10
5.5555555555333331
 20
21.5
 30
0.0
 40
2.0
  1
-
 41
3.6666666666999999
  7
TEXTSTYLE_2
 72
     1
 11
8.0
 21
21.5
 31
0.0
  0
TEXT
  5
3F9
  8
NOTES
  6
CONTINUOUS
 62
     1
 10
16.800000000000001
 20
21.5
 30
0.0
 40
2.0
  1
SERVICE CLEARANCE
 41
0.8
  0
TEXT
  5
3FA
  8
NOTES
  6
CONTINUOUS
 62
     2
 10
5.5555555555333331
 20
25.5
 30
0.0
 40
2.0
  1
-
 41
3.6666666666999999
  7
TEXTSTYLE_2
 72
     1
 11
8.0
 21
25.5
 31
0.0
  0
TEXT
  5
3FB
  8
NOTES
  6
CONTINUOUS
 62
     1
 10
16.800000000000001
 20
25.5
 30
0.0
 40
2.0
  1
UNIT DUCTS
 41
0.8
  0
TEXT
  5
3FC
  8
NOTES
  6
CONTINUOUS
 62
     5
 10
5.5555555555333331
 20
29.5
 30
0.0
 40
2.0
  1
-
 41
3.6666666666999999
  7
TEXTSTYLE_2
 72
     1
 11
8.0
 21
29.5
 31
0.0
  0
TEXT
  5
3FD
  8
NOTES
  6
CONTINUOUS
 62
     1
 10
16.800000000000001
 20
29.5
 30
0.0
 40
2.0
  1
CURB DUCTS
 41
0.8
  0
TEXT
  5
3FE
  8
NOTES
  6
HIDDEN
 62
     8
 10
5.5555555555333331
 20
33.5
 30
0.0
 40
2.0
  1
-
 41
3.6666666666999999
  7
TEXTSTYLE_2
 72
     1
 11
8.0
 21
33.5
 31
0.0
  0
TEXT
  5
3FF
  8
NOTES
  6
CONTINUOUS
 62
     1
 10
16.800000000000001
 20
33.5
 30
0.0
 40
2.0
  1
UNIT HIDDEN
 41
0.8
  0
TEXT
  5
400
  8
NOTES
  6
CONTINUOUS
 62
     1
 10
145.0868810426
 20
71.161294200600011
 30
0.0
 40
2.2857261330999989
  1
A,B,C
 41
0.8
  0
LINE
  5
401
  8
NOTES
  6
CONTINUOUS
 62
     1
 10
129.07272081560001
 20
90.068760433400001
 30
0.0
 11
141.21089538320001
 21
72.304157267199997
 31
0.0
  0
LINE
  5
402
  8
NOTES
  6
CONTINUOUS
 62
     1
 10
141.21089538320001
 20
72.304157267199997
 30
0.0
 11
145.0868810426
 21
72.304157267199997
 31
0.0
  0
SOLID
  5
403
  8
NOTES
  6
CONTINUOUS
 62
     1
 10
131.94860903040001
 20
87.189217591900004
 30
0.0
 11
129.07272081560001
 21
90.068760433400001
 31
0.0
 12
130.71011053730001
 22
86.342977978799993
 32
0.0
 13
130.71011053730001
 23
86.342977978799993
 33
0.0
  0
TEXT
  5
404
  8
NOTES
  6
CONTINUOUS
 62
     1
 10
148.28606861590001
 20
76.072005650500003
 30
0.0
 40
2.2857261330999989
  1
D
 41
0.8
  0
LINE
  5
405
  8
NOTES
  6
CONTINUOUS
 62
     1
 10
133.4414123752
 20
90.145545614099987
 30
0.0
 11
143.7402506638
 21
77.214868717000002
 31
0.0
  0
LINE
  5
406
  8
NOTES
  6
CONTINUOUS
 62
     1
 10
143.7402506638
 20
77.214868717000002
 30
0.0
 11
148.28606861590001
 21
77.214868717000002
 31
0.0
  0
SOLID
  5
407
  8
NOTES
  6
CONTINUOUS
 62
     1
 10
136.52010523519999
 20
87.483938905100004
 30
0.0
 11
133.4414123752
 21
90.145545614099987
 31
0.0
 12
135.34678178030001
 22
86.549427230400013
 32
0.0
 13
135.34678178030001
 23
86.549427230400013
 33
0.0
  0
LINE
  5
408
  8
NOTES
  6
CONTINUOUS
 62
     1
 10
131.72930470279999
 20
90.204985191000006
 30
0.0
 11
143.7402506638
 21
77.214868717000002
 31
0.0
  0
LINE
  5
409
  8
NOTES
  6
CONTINUOUS
 62
     1
 10
143.7402506638
 20
77.214868717000002
 30
0.0
 11
148.28606861590001
 21
77.214868717000002
 31
0.0
  0
SOLID
  5
40A
  8
NOTES
  6
CONTINUOUS
 62
     1
 10
134.9955524799
 20
87.777203187099985
 30
0.0
 11
131.72930470279999
 21
90.204985191000006
 31
0.0
 12
133.89419575400001
 22
86.758864656799986
 32
0.0
 13
133.89419575400001
 23
86.758864656799986
 33
0.0
  0
LINE
  5
40B
  8
NOTES
  6
CONTINUOUS
 62
     1
 10
135.50522652020001
 20
90.160219128099996
 30
0.0
 11
143.7402506638
 21
77.214868717000002
 31
0.0
  0
LINE
  5
40C
  8
NOTES
  6
CONTINUOUS
 62
     1
 10
143.7402506638
 20
77.214868717000002
 30
0.0
 11
148.28606861590001
 21
77.214868717000002
 31
0.0
  0
SOLID
  5
40D
  8
NOTES
  6
CONTINUOUS
 62
     1
 10
138.28499637249999
 20
87.187782489900002
 30
0.0
 11
135.50522652020001
 21
90.160219128099996
 31
0.0
 12
137.0193745816
 22
86.382672881000005
 32
0.0
 13
137.0193745816
 23
86.382672881000005
 33
0.0
  0
TEXT
  5
40E
  8
NOTES
  6
CONTINUOUS
 62
     1
 10
6.6373687743999996
 20
242.91863863430001
 30
0.0
 40
2.286
  1
CONNECTION SIZES
 41
0.8
  0
TEXT
  5
40F
  8
NOTES
  6
CONTINUOUS
 62
     1
 10
6.6373687743999996
 20
239.48963863430001
 30
0.0
 40
2.286
  1
A-1 3/8" DIA [35] FIELD POWER SUPPLY KNOCKOUT
 41
0.8
  0
TEXT
  5
410
  8
NOTES
  6
CONTINUOUS
 62
     1
 10
6.6373687743999996
 20
236.06063863430001
 30
0.0
 40
2.286
  1
B-3" DIA [76] FIELD POWER SUPPLY KNOCKOUT
 41
0.8
  0
TEXT
  5
411
  8
NOTES
  6
CONTINUOUS
 62
     1
 10
6.6373687743999996
 20
232.6316386343
 30
0.0
 40
2.286
  1
C-3 5/8" DIA [92] FIELD POWER SUPPLY KNOCKOUT
 41
0.8
  0
TEXT
  5
412
  8
NOTES
  6
CONTINUOUS
 62
     1
 10
6.6373687743999996
 20
229.2026386343
 30
0.0
 40
2.286
  1
D-7/8" DIA [22] FIELD CONTROL WIRING HOLE
 41
0.8
  0
TEXT
  5
413
  8
NOTES
  6
CONTINUOUS
 62
     1
 10
180.99500167010001
 20
59.976778526099991
 30
0.0
 40
2.0
  1
1 1/4"  
 41
0.8
  0
TEXT
  5
414
  8
NOTES
  6
CONTINUOUS
 62
     1
 10
180.99500167010001
 20
56.976778526099999
 30
0.0
 40
2.0
  1
DIA [31.8] 
 41
0.8
  0
TEXT
  5
415
  8
NOTES
  6
CONTINUOUS
 62
     1
 10
180.99500167010001
 20
53.976778526099999
 30
0.0
 40
2.0
  1
KNOCKOUT
 41
0.8
  0
LINE
  5
416
  8
NOTES
  6
CONTINUOUS
 62
     1
 10
171.4619234363
 20
88.708461597500005
 30
0.0
 11
177.45867269460001
 21
60.976778526099999
 31
0.0
  0
LINE
  5
417
  8
NOTES
  6
CONTINUOUS
 62
     1
 10
177.45867269460001
 20
60.976778526099999
 30
0.0
 11
180.99500167010001
 21
60.976778526099999
 31
0.0
  0
SOLID
  5
418
  8
NOTES
  6
CONTINUOUS
 62
     1
 10
173.04040693729999
 20
84.957343119300006
 30
0.0
 11
171.4619234363
 21
88.708461597500005
 31
0.0
 12
171.5742934395
 22
84.640308087299985
 32
0.0
 13
171.5742934395
 23
84.640308087299985
 33
0.0
  0
LINE
  5
419
  8
SERVCLEAR
  6
DASHED
 62
     1
 10
0.0
 20
211.83023331780001
 30
0.0
 11
0.0
 21
41.455467169000002
 31
0.0
  0
LINE
  5
41A
  8
0
  6
CONTINUOUS
 62
     7
 10
0.0
 20
0.0
 30
0.0
 11
0.0
 21
250.0
 31
0.0
  0
LINE
  5
41B
  8
0
  6
CONTINUOUS
 62
     7
 10
0.0
 20
0.0
 30
0.0
 11
300.0
 21
0.0
 31
0.0
  0
LINE
  5
41C
  8
SERVCLEAR
  6
DASHED
 62
     1
 10
284.39751331270003
 20
41.455467169000002
 30
0.0
 11
0.0
 21
41.455467169000002
 31
0.0
  0
LINE
  5
41D
  8
HOODS
  6
CONTINUOUS
 62
     7
 10
96.0
 20
165.5801936432
 30
0.0
 11
96.0
 21
97.580161405200002
 31
0.0
  0
LINE
  5
41E
  8
UNIT-SOL
  6
CONTINUOUS
 62
     7
 10
202.41439101570001
 20
79.580467169000002
 30
0.0
 11
198.375
 21
79.580467169000002
 31
0.0
  0
LINE
  5
41F
  8
UNIT-SOL
  6
CONTINUOUS
 62
     7
 10
178.0625
 20
80.205467169000002
 30
0.0
 11
191.9208395471
 21
80.205467169000002
 31
0.0
  0
LINE
  5
420
  8
UNIT-SOL
  6
CONTINUOUS
 62
     7
 10
120.5
 20
83.455467169000016
 30
0.0
 11
248.3975133127
 21
83.455467169000016
 31
0.0
  0
LINE
  5
421
  8
UNIT-HID
  6
HIDDEN
 62
     8
 10
129.8598289208
 20
89.728868166599995
 30
0.0
 11
130.1290482922
 21
89.573434290099996
 31
0.0
  0
LINE
  5
422
  8
CURB-14
  6
CONTINUOUS
 62
     6
 10
123.375
 20
86.142966650700004
 30
0.0
 11
245.0
 21
86.142966650700004
 31
0.0
  0
LINE
  5
423
  8
CURB-24
  6
CONTINUOUS
 62
     6
 10
123.375
 20
86.142966650700004
 30
0.0
 11
245.0
 21
86.142966650700004
 31
0.0
  0
LINE
  5
424
  8
CURB-14
  6
CONTINUOUS
 62
     6
 10
125.25
 20
88.017966650700004
 30
0.0
 11
243.125
 21
88.017966650700004
 31
0.0
  0
LINE
  5
425
  8
CURB-24
  6
CONTINUOUS
 62
     6
 10
125.25
 20
88.017966650700004
 30
0.0
 11
243.125
 21
88.017966650700004
 31
0.0
  0
LINE
  5
426
  8
UNIT-HID
  6
HIDDEN
 62
     8
 10
128.52279474580001
 20
88.633676216200001
 30
0.0
 11
135.4125942366
 21
88.633676216200001
 31
0.0
  0
LINE
  5
427
  8
UNIT-HID
  6
HIDDEN
 62
     8
 10
171.65789934630001
 20
89.916186519699977
 30
0.0
 11
171.53951290590001
 21
89.916186519699977
 31
0.0
  0
LINE
  5
428
  8
UNIT-HID
  6
HIDDEN
 62
     8
 10
171.65789934630001
 20
89.994927085300006
 30
0.0
 11
171.53951290590001
 21
89.994927085300006
 31
0.0
  0
LINE
  5
429
  8
CURB-14
  6
CONTINUOUS
 62
     6
 10
125.25
 20
92.392966650700004
 30
0.0
 11
147.4375
 21
92.392966650700004
 31
0.0
  0
LINE
  5
42A
  8
CURB-24
  6
CONTINUOUS
 62
     6
 10
125.25
 20
92.392966650700004
 30
0.0
 11
147.4375
 21
92.392966650700004
 31
0.0
  0
LINE
  5
42B
  8
UNIT-HID
  6
HIDDEN
 62
     8
 10
135.4125942366
 20
92.527258121800017
 30
0.0
 11
128.52279474580001
 21
92.527258121800017
 31
0.0
  0
LINE
  5
42C
  8
UNIT-HID
  6
HIDDEN
 62
     8
 10
129.97992083029999
 20
89.936873455400004
 30
0.0
 11
130.24914020169999
 21
89.781439578899992
 31
0.0
  0
LINE
  5
42D
  8
UNIT-SOL
  6
CONTINUOUS
 62
     7
 10
120.5
 20
83.455467169000016
 30
0.0
 11
120.5
 21
169.830467169
 31
0.0
  0
LINE
  5
42E
  8
CURB-14
  6
CONTINUOUS
 62
     6
 10
123.375
 20
86.142966650700004
 30
0.0
 11
123.375
 21
166.7679666507
 31
0.0
  0
LINE
  5
42F
  8
CURB-24
  6
CONTINUOUS
 62
     6
 10
123.375
 20
86.142966650700004
 30
0.0
 11
123.375
 21
166.7679666507
 31
0.0
  0
LINE
  5
430
  8
CURB-14
  6
CONTINUOUS
 62
     6
 10
125.25
 20
88.017966650700004
 30
0.0
 11
125.25
 21
164.8929666507
 31
0.0
  0
LINE
  5
431
  8
CURB-24
  6
CONTINUOUS
 62
     6
 10
125.25
 20
88.017966650700004
 30
0.0
 11
125.25
 21
164.8929666507
 31
0.0
  0
LINE
  5
432
  8
CURB-DUCTS
  6
CONTINUOUS
 62
     5
 10
125.875
 20
164.2679666507
 30
0.0
 11
125.875
 21
95.517966650700004
 31
0.0
  0
LINE
  5
433
  8
UNIT-DUCTS
  6
CONTINUOUS
 62
     2
 10
126.7491963587
 20
95.451725983399996
 30
0.0
 11
126.7491963587
 21
163.58263009359999
 31
0.0
  0
LINE
  5
434
  8
UNIT-HID
  6
HIDDEN
 62
     8
 10
128.50490809050001
 20
92.38652763799999
 30
0.0
 11
128.50490809050001
 21
92.075659884999979
 31
0.0
  0
LINE
  5
435
  8
UNIT-HID
  6
HIDDEN
 62
     8
 10
128.74509190949999
 20
92.38652763799999
 30
0.0
 11
128.74509190949999
 21
92.075659884999979
 31
0.0
  0
LINE
  5
436
  8
CURB-14
  6
CONTINUOUS
 62
     6
 10
125.25
 20
95.330466650700004
 30
0.0
 11
147.4375
 21
95.330466650700004
 31
0.0
  0
LINE
  5
437
  8
CURB-24
  6
CONTINUOUS
 62
     6
 10
125.25
 20
95.330466650700004
 30
0.0
 11
147.4375
 21
95.330466650700004
 31
0.0
  0
LINE
  5
438
  8
UNIT-DUCTS
  6
CONTINUOUS
 62
     2
 10
146.00126465010001
 20
95.451725983399996
 30
0.0
 11
126.7491963587
 21
95.451725983399996
 31
0.0
  0
LINE
  5
439
  8
CURB-DUCTS
  6
CONTINUOUS
 62
     5
 10
125.875
 20
95.517966650700004
 30
0.0
 11
147.375
 21
95.517966650700004
 31
0.0
  0
LINE
  5
43A
  8
HOODS
  6
CONTINUOUS
 62
     7
 10
120.5
 20
97.580161405200002
 30
0.0
 11
96.0
 21
97.580161405200002
 31
0.0
  0
LINE
  5
43B
  8
CURB-DUCTS
  6
CONTINUOUS
 62
     5
 10
173.375
 20
101.0179666507
 30
0.0
 11
200.625
 21
101.0179666507
 31
0.0
  0
LINE
  5
43C
  8
CURB-14
  6
CONTINUOUS
 62
     6
 10
173.375
 20
101.0179666507
 30
0.0
 11
201.25
 21
101.0179666507
 31
0.0
  0
LINE
  5
43D
  8
CURB-24
  6
CONTINUOUS
 62
     6
 10
173.375
 20
101.0179666507
 30
0.0
 11
201.25
 21
101.0179666507
 31
0.0
  0
LINE
  5
43E
  8
UNIT-DUCTS
  6
CONTINUOUS
 62
     2
 10
199.74804881329999
 20
101.94539105280001
 30
0.0
 11
174.24886121669999
 21
101.94539105280001
 31
0.0
  0
LINE
  5
43F
  8
CURB-DUCTS
  6
CONTINUOUS
 62
     5
 10
125.875
 20
164.2679666507
 30
0.0
 11
147.375
 21
95.517966650700004
 31
0.0
  0
LINE
  5
440
  8
UNIT-DUCTS
  6
CONTINUOUS
 62
     2
 10
126.7491963587
 20
163.58263009359999
 30
0.0
 11
146.00126465010001
 21
95.451725983399996
 31
0.0
  0
LINE
  5
441
  8
UNIT-DUCTS
  6
CONTINUOUS
 62
     2
 10
146.00126465010001
 20
163.58263009359999
 30
0.0
 11
146.00126465010001
 21
95.451725983399996
 31
0.0
  0
LINE
  5
442
  8
CURB-DUCTS
  6
CONTINUOUS
 62
     5
 10
147.375
 20
164.2679666507
 30
0.0
 11
147.375
 21
95.517966650700004
 31
0.0
  0
LINE
  5
443
  8
CURB-14
  6
CONTINUOUS
 62
     6
 10
147.4375
 20
88.017966650700004
 30
0.0
 11
147.4375
 21
164.8929666507
 31
0.0
  0
LINE
  5
444
  8
CURB-24
  6
CONTINUOUS
 62
     6
 10
147.4375
 20
88.017966650700004
 30
0.0
 11
147.4375
 21
164.8929666507
 31
0.0
  0
LINE
  5
445
  8
CURB-14
  6
CONTINUOUS
 62
     6
 10
150.4375
 20
88.017966650700004
 30
0.0
 11
150.4375
 21
164.8929666507
 31
0.0
  0
LINE
  5
446
  8
CURB-24
  6
CONTINUOUS
 62
     6
 10
150.4375
 20
88.017966650700004
 30
0.0
 11
150.4375
 21
164.8929666507
 31
0.0
  0
LINE
  5
447
  8
UNIT-HID
  6
HIDDEN
 62
     8
 10
170.6881401178
 20
90.476071311499993
 30
0.0
 11
170.74735292279999
 21
90.373511724799997
 31
0.0
  0
LINE
  5
448
  8
UNIT-HID
  6
HIDDEN
 62
     8
 10
170.75632931769999
 20
90.515445283999995
 30
0.0
 11
170.81554212270001
 21
90.412885697299984
 31
0.0
  0
LINE
  5
449
  8
CURB-14
  6
CONTINUOUS
 62
     6
 10
169.0625
 20
88.017966650700004
 30
0.0
 11
169.0625
 21
164.8929666507
 31
0.0
  0
LINE
  5
44A
  8
CURB-24
  6
CONTINUOUS
 62
     6
 10
169.0625
 20
88.017966650700004
 30
0.0
 11
169.0625
 21
164.8929666507
 31
0.0
  0
LINE
  5
44B
  8
UNIT-HID
  6
HIDDEN
 62
     8
 10
127.0008597983
 20
89.781439578899992
 30
0.0
 11
127.2700791697
 21
89.936873455400004
 31
0.0
  0
LINE
  5
44C
  8
UNIT-HID
  6
HIDDEN
 62
     8
 10
127.12095170790001
 20
89.573434290099996
 30
0.0
 11
127.3901710792
 21
89.728868166599995
 31
0.0
  0
LINE
  5
44D
  8
UNIT-SOL
  6
CONTINUOUS
 62
     7
 10
239.66720417490001
 20
154.06849034870001
 30
0.0
 11
233.26599608910001
 21
150.37275113730001
 31
0.0
  0
LINE
  5
44E
  8
UNIT-SOL
  6
CONTINUOUS
 62
     7
 10
227.0716998382
 20
146.79647252940001
 30
0.0
 11
220.640914968
 21
143.0836571534
 31
0.0
  0
LINE
  5
44F
  8
CURB-DUCTS
  6
CONTINUOUS
 62
     5
 10
173.375
 20
101.0179666507
 30
0.0
 11
173.375
 21
164.2679666507
 31
0.0
  0
LINE
  5
450
  8
CURB-14
  6
CONTINUOUS
 62
     6
 10
173.375
 20
88.017966650700004
 30
0.0
 11
173.375
 21
164.8929666507
 31
0.0
  0
LINE
  5
451
  8
CURB-24
  6
CONTINUOUS
 62
     6
 10
173.375
 20
88.017966650700004
 30
0.0
 11
173.375
 21
164.8929666507
 31
0.0
  0
LINE
  5
452
  8
UNIT-DUCTS
  6
CONTINUOUS
 62
     2
 10
174.24886121669999
 20
101.94539105280001
 30
0.0
 11
174.24886121669999
 21
163.57870227399999
 31
0.0
  0
LINE
  5
453
  8
UNIT-SOL
  6
CONTINUOUS
 62
     7
 10
178.0625
 20
80.205467169000002
 30
0.0
 11
178.0625
 21
83.455467169000016
 31
0.0
  0
LINE
  5
454
  8
UNIT-DUCTS
  6
CONTINUOUS
 62
     2
 10
174.24886121669999
 20
101.94539105280001
 30
0.0
 11
199.74804881329999
 21
163.57870227399999
 31
0.0
  0
LINE
  5
455
  8
CURB-DUCTS
  6
CONTINUOUS
 62
     5
 10
173.375
 20
101.0179666507
 30
0.0
 11
200.625
 21
164.2679666507
 31
0.0
  0
LINE
  5
456
  8
UNIT-SOL
  6
CONTINUOUS
 62
     7
 10
227.0716998382
 20
106.71766659630001
 30
0.0
 11
220.640914968
 21
110.4304819722
 31
0.0
  0
LINE
  5
457
  8
UNIT-SOL
  6
CONTINUOUS
 62
     7
 10
233.26599608910001
 20
103.1413879884
 30
0.0
 11
239.6967809594
 21
99.428572612400004
 31
0.0
  0
LINE
  5
458
  8
UNIT-SOL
  6
CONTINUOUS
 62
     7
 10
191.9208395471
 20
83.455467169000016
 30
0.0
 11
191.9208395471
 21
80.205467169000002
 31
0.0
  0
LINE
  5
459
  8
UNIT-HID
  6
HIDDEN
 62
     8
 10
170.74735292279999
 20
89.537601880300016
 30
0.0
 11
170.6881401178
 21
89.435042293600006
 31
0.0
  0
LINE
  5
45A
  8
UNIT-HID
  6
HIDDEN
 62
     8
 10
170.81554212270001
 20
89.4982279078
 30
0.0
 11
170.75632931769999
 21
89.395668321100004
 31
0.0
  0
LINE
  5
45B
  8
UNIT-SOL
  6
CONTINUOUS
 62
     7
 10
228.2069164275
 20
132.24094807829999
 30
0.0
 11
221.80570834170001
 21
128.54520886680001
 31
0.0
  0
LINE
  5
45C
  8
UNIT-SOL
  6
CONTINUOUS
 62
     7
 10
215.61141209069999
 20
124.9689302589
 30
0.0
 11
209.18062722050001
 21
121.25611488289999
 31
0.0
  0
LINE
  5
45D
  8
UNIT-DUCTS
  6
CONTINUOUS
 62
     2
 10
174.24886121669999
 20
163.57870227399999
 30
0.0
 11
199.74804881329999
 21
163.57870227399999
 31
0.0
  0
LINE
  5
45E
  8
UNIT-DUCTS
  6
CONTINUOUS
 62
     2
 10
126.7491963587
 20
163.58263009359999
 30
0.0
 11
146.00126465010001
 21
163.58263009359999
 31
0.0
  0
LINE
  5
45F
  8
CURB-DUCTS
  6
CONTINUOUS
 62
     5
 10
125.875
 20
164.2679666507
 30
0.0
 11
147.375
 21
164.2679666507
 31
0.0
  0
LINE
  5
460
  8
CURB-DUCTS
  6
CONTINUOUS
 62
     5
 10
173.375
 20
164.2679666507
 30
0.0
 11
200.625
 21
164.2679666507
 31
0.0
  0
LINE
  5
461
  8
CURB-14
  6
CONTINUOUS
 62
     6
 10
125.25
 20
164.8929666507
 30
0.0
 11
243.125
 21
164.8929666507
 31
0.0
  0
LINE
  5
462
  8
CURB-24
  6
CONTINUOUS
 62
     6
 10
125.25
 20
164.8929666507
 30
0.0
 11
243.125
 21
164.8929666507
 31
0.0
  0
LINE
  5
463
  8
HOODS
  6
CONTINUOUS
 62
     7
 10
96.0
 20
165.5801936432
 30
0.0
 11
120.5
 21
165.5801936432
 31
0.0
  0
LINE
  5
464
  8
CURB-14
  6
CONTINUOUS
 62
     6
 10
123.375
 20
166.7679666507
 30
0.0
 11
245.0
 21
166.7679666507
 31
0.0
  0
LINE
  5
465
  8
CURB-24
  6
CONTINUOUS
 62
     6
 10
123.375
 20
166.7679666507
 30
0.0
 11
245.0
 21
166.7679666507
 31
0.0
  0
LINE
  5
466
  8
UNIT-SOL
  6
CONTINUOUS
 62
     7
 10
215.61141209069999
 20
128.54520886680001
 30
0.0
 11
209.18062722050001
 21
132.2580242427
 31
0.0
  0
LINE
  5
467
  8
UNIT-SOL
  6
CONTINUOUS
 62
     7
 10
221.80570834170001
 20
124.9689302589
 30
0.0
 11
228.23649321190001
 21
121.25611488289999
 31
0.0
  0
LINE
  5
468
  8
CURB-DUCTS
  6
CONTINUOUS
 62
     5
 10
173.375
 20
164.2679666507
 30
0.0
 11
200.625
 21
101.0179666507
 31
0.0
  0
LINE
  5
469
  8
UNIT-DUCTS
  6
CONTINUOUS
 62
     2
 10
174.24886121669999
 20
163.57870227399999
 30
0.0
 11
199.74804881329999
 21
101.94539105280001
 31
0.0
  0
LINE
  5
46A
  8
UNIT-SOL
  6
CONTINUOUS
 62
     7
 10
198.375
 20
79.580467169000002
 30
0.0
 11
198.375
 21
83.455467169000016
 31
0.0
  0
LINE
  5
46B
  8
UNIT-DUCTS
  6
CONTINUOUS
 62
     2
 10
199.74804881329999
 20
163.57870227399999
 30
0.0
 11
199.74804881329999
 21
101.94539105280001
 31
0.0
  0
LINE
  5
46C
  8
CURB-DUCTS
  6
CONTINUOUS
 62
     5
 10
200.625
 20
101.0179666507
 30
0.0
 11
200.625
 21
164.2679666507
 31
0.0
  0
LINE
  5
46D
  8
CURB-14
  6
CONTINUOUS
 62
     6
 10
201.25
 20
88.017966650700004
 30
0.0
 11
201.25
 21
164.8929666507
 31
0.0
  0
LINE
  5
46E
  8
CURB-24
  6
CONTINUOUS
 62
     6
 10
201.25
 20
88.017966650700004
 30
0.0
 11
201.25
 21
164.8929666507
 31
0.0
  0
LINE
  5
46F
  8
UNIT-SOL
  6
CONTINUOUS
 62
     7
 10
202.41439101570001
 20
79.580467169000002
 30
0.0
 11
202.41439101570001
 21
83.455467169000016
 31
0.0
  0
LINE
  5
470
  8
UNIT-SOL
  6
CONTINUOUS
 62
     7
 10
120.5
 20
169.830467169
 30
0.0
 11
248.3975133127
 21
169.830467169
 31
0.0
  0
LINE
  5
471
  8
CURB-14
  6
CONTINUOUS
 62
     6
 10
204.25
 20
88.017966650700004
 30
0.0
 11
204.25
 21
164.8929666507
 31
0.0
  0
LINE
  5
472
  8
CURB-24
  6
CONTINUOUS
 62
     6
 10
204.25
 20
88.017966650700004
 30
0.0
 11
204.25
 21
164.8929666507
 31
0.0
  0
LINE
  5
473
  8
UNIT-SOL
  6
CONTINUOUS
 62
     7
 10
239.66720417490001
 20
110.4134058078
 30
0.0
 11
233.26599608910001
 21
106.71766659630001
 31
0.0
  0
LINE
  5
474
  8
UNIT-SOL
  6
CONTINUOUS
 62
     7
 10
227.0716998382
 20
103.1413879884
 30
0.0
 11
220.640914968
 21
99.428572612400004
 31
0.0
  0
LINE
  5
475
  8
UNIT-SOL
  6
CONTINUOUS
 62
     7
 10
227.0716998382
 20
150.37275113730001
 30
0.0
 11
220.640914968
 21
154.08556651320001
 31
0.0
  0
LINE
  5
476
  8
UNIT-SOL
  6
CONTINUOUS
 62
     7
 10
233.26599608910001
 20
146.79647252940001
 30
0.0
 11
239.6967809594
 21
143.0836571534
 31
0.0
  0
LINE
  5
477
  8
UNIT-SOL
  6
CONTINUOUS
 62
     7
 10
218.7085602162
 20
123.1807909549
 30
0.0
 11
218.7085602162
 21
115.755160203
 31
0.0
  0
LINE
  5
478
  8
UNIT-SOL
  6
CONTINUOUS
 62
     7
 10
218.7085602162
 20
130.33334817069999
 30
0.0
 11
218.7085602162
 21
137.75897892259999
 31
0.0
  0
LINE
  5
479
  8
UNIT-SOL
  6
CONTINUOUS
 62
     7
 10
248.3975133127
 20
88.783445269799984
 30
0.0
 11
248.38826379389999
 21
88.803408523899975
 31
0.0
  0
LINE
  5
47A
  8
UNIT-SOL
  6
CONTINUOUS
 62
     7
 10
230.16884796369999
 20
145.00833322540001
 30
0.0
 11
230.16884796369999
 21
137.58270247350001
 31
0.0
  0
LINE
  5
47B
  8
UNIT-SOL
  6
CONTINUOUS
 62
     7
 10
230.16884796369999
 20
101.3532486844
 30
0.0
 11
230.16884796369999
 21
93.927617932499999
 31
0.0
  0
LINE
  5
47C
  8
UNIT-SOL
  6
CONTINUOUS
 62
     7
 10
230.16884796369999
 20
108.5058059002
 30
0.0
 11
230.16884796369999
 21
115.9314366521
 31
0.0
  0
LINE
  5
47D
  8
UNIT-SOL
  6
CONTINUOUS
 62
     7
 10
230.16884796369999
 20
152.1608904412
 30
0.0
 11
230.16884796369999
 21
159.5865211931
 31
0.0
  0
LINE
  5
47E
  8
CURB-14
  6
CONTINUOUS
 62
     6
 10
243.125
 20
88.017966650700004
 30
0.0
 11
243.125
 21
164.8929666507
 31
0.0
  0
LINE
  5
47F
  8
CURB-24
  6
CONTINUOUS
 62
     6
 10
243.125
 20
88.017966650700004
 30
0.0
 11
243.125
 21
164.8929666507
 31
0.0
  0
LINE
  5
480
  8
CURB-14
  6
CONTINUOUS
 62
     6
 10
245.0
 20
86.142966650700004
 30
0.0
 11
245.0
 21
166.7679666507
 31
0.0
  0
LINE
  5
481
  8
CURB-24
  6
CONTINUOUS
 62
     6
 10
245.0
 20
86.142966650700004
 30
0.0
 11
245.0
 21
166.7679666507
 31
0.0
  0
LINE
  5
482
  8
SERVCLEAR
  6
DASHED
 62
     1
 10
0.0
 20
211.83023331780001
 30
0.0
 11
284.39751331270003
 21
211.83023331780001
 31
0.0
  0
LINE
  5
483
  8
UNIT-SOL
  6
CONTINUOUS
 62
     7
 10
248.3975133127
 20
169.830467169
 30
0.0
 11
248.3975133127
 21
83.455467169000016
 31
0.0
  0
LINE
  5
484
  8
0
  6
CONTINUOUS
 62
     7
 10
0.0
 20
250.0
 30
0.0
 11
300.0
 21
250.0
 31
0.0
  0
LINE
  5
485
  8
SERVCLEAR
  6
DASHED
 62
     1
 10
284.39751331270003
 20
211.83023331780001
 30
0.0
 11
284.39751331270003
 21
41.455467169000002
 31
0.0
  0
LINE
  5
486
  8
0
  6
CONTINUOUS
 62
     7
 10
300.0
 20
0.0
 30
0.0
 11
300.0
 21
250.0
 31
0.0
  0
CIRCLE
  5
487
  8
UNIT-SOL
  6
CONTINUOUS
 62
     7
 10
218.7085602162
 20
126.7570695628
 30
0.0
 40
11.001909359800001
  0
CIRCLE
  5
488
  8
UNIT-SOL
  6
CONTINUOUS
 62
     7
 10
230.16884796369999
 20
104.92952729229999
 30
0.0
 40
11.001909359800001
  0
CIRCLE
  5
489
  8
UNIT-SOL
  6
CONTINUOUS
 62
     7
 10
230.16884796369999
 20
148.58461183329999
 30
0.0
 40
11.001909359800001
  0
CIRCLE
  5
48A
  8
UNIT-SOL
  6
CONTINUOUS
 62
     7
 10
218.7085602162
 20
126.7570695628
 30
0.0
 40
8.2660578958000013
  0
CIRCLE
  5
48B
  8
UNIT-SOL
  6
CONTINUOUS
 62
     7
 10
230.16884796369999
 20
104.92952729229999
 30
0.0
 40
8.2660578958000013
  0
CIRCLE
  5
48C
  8
UNIT-SOL
  6
CONTINUOUS
 62
     7
 10
230.16884796369999
 20
148.58461183329999
 30
0.0
 40
8.2660578958000013
  0
CIRCLE
  5
48D
  8
UNIT-SOL
  6
CONTINUOUS
 62
     7
 10
218.7085602162
 20
126.7570695628
 30
0.0
 40
5.8934622782000003
  0
CIRCLE
  5
48E
  8
UNIT-SOL
  6
CONTINUOUS
 62
     7
 10
230.16884796369999
 20
104.92952729229999
 30
0.0
 40
5.8934622782000003
  0
CIRCLE
  5
48F
  8
UNIT-SOL
  6
CONTINUOUS
 62
     7
 10
230.16884796369999
 20
148.58461183329999
 30
0.0
 40
5.8934622782000003
  0
CIRCLE
  5
490
  8
UNIT-SOL
  6
CONTINUOUS
 62
     7
 10
218.7085602162
 20
126.7570695628
 30
0.0
 40
3.5762786079
  0
CIRCLE
  5
491
  8
UNIT-SOL
  6
CONTINUOUS
 62
     7
 10
230.16884796369999
 20
104.92952729229999
 30
0.0
 40
3.5762786079
  0
CIRCLE
  5
492
  8
UNIT-SOL
  6
CONTINUOUS
 62
     7
 10
230.16884796369999
 20
148.58461183329999
 30
0.0
 40
3.5762786079
  0
ARC
  5
493
  8
UNIT-HID
  6
HIDDEN
 62
     8
 10
128.52279474580001
 20
90.580467168999988
 30
0.0
 40
1.9467909500999989
 50
90.0
 51
270.0
  0
ARC
  5
494
  8
UNIT-HID
  6
HIDDEN
 62
     8
 10
135.4125942366
 20
90.580467168999988
 30
0.0
 40
1.9467909500999989
 50
270.0
 51
90.0
  0
CIRCLE
  5
495
  8
UNIT-HID
  6
HIDDEN
 62
     8
 10
128.625
 20
90.580467168999988
 30
0.0
 40
1.810048751899999
  0
CIRCLE
  5
496
  8
UNIT-HID
  6
HIDDEN
 62
     8
 10
128.625
 20
90.580467168999988
 30
0.0
 40
1.5000077747999989
  0
CIRCLE
  5
497
  8
UNIT-HID
  6
HIDDEN
 62
     8
 10
171.03412019640001
 20
89.955556802499984
 30
0.0
 40
1.318431667699999
  0
CIRCLE
  5
498
  8
UNIT-HID
  6
HIDDEN
 62
     8
 10
171.03412019640001
 20
89.955556802499984
 30
0.0
 40
0.8804467804999999
  0
CIRCLE
  5
499
  8
UNIT-HID
  6
HIDDEN
 62
     8
 10
128.625
 20
90.580467168999988
 30
0.0
 40
0.679924784
  0
CIRCLE
  5
49A
  8
UNIT-HID
  6
HIDDEN
 62
     8
 10
171.03412019640001
 20
89.955556802499984
 30
0.0
 40
0.6259874966
  0
CIRCLE
  5
49B
  8
UNIT-HID
  6
HIDDEN
 62
     8
 10
171.03415177069999
 20
89.955556802499984
 30
0.0
 40
0.5068923911
  0
CIRCLE
  5
49C
  8
UNIT-HID
  6
HIDDEN
 62
     8
 10
133.375
 20
90.580467168999988
 30
0.0
 40
0.4399629103000001
  0
CIRCLE
  5
49D
  8
UNIT-HID
  6
HIDDEN
 62
     8
 10
131.5
 20
90.580467168999988
 30
0.0
 40
0.4399629103000001
  0
CIRCLE
  5
49E
  8
UNIT-HID
  6
HIDDEN
 62
     8
 10
135.375
 20
90.580467168999988
 30
0.0
 40
0.4399629103000001
  0
ENDSEC
  0
EOF
