  0
SECTION
  2
HEADER
  9
$ACADVER
  1
AC1009
  9
$INSBASE
 10
0.0
 20
0.0
 30
0.0
  9
$EXTMIN
 10
-0.0099174562026292
 20
-0.004577287478071
 30
-0.0015258207003583
  9
$EXTMAX
 10
325.0099189696017
 20
150.00457798597
 30
0.0000000349246037
  9
$LIMMIN
 10
0.0
 20
0.0
  9
$LIMMAX
 10
325.0
 20
150.0
  9
$ORTHOMODE
 70
     0
  9
$REGENMODE
 70
     1
  9
$FILLMODE
 70
     1
  9
$QTEXTMODE
 70
     0
  9
$MIRRTEXT
 70
     0
  9
$DRAGMODE
 70
     2
  9
$LTSCALE
 40
17.875
  9
$OSMODE
 70
    37
  9
$ATTMODE
 70
     1
  9
$TEXTSIZE
 40
0.2
  9
$TRACEWID
 40
0.05
  9
$TEXTSTYLE
  7
STANDARD
  9
$CLAYER
  8
0
  9
$CELTYPE
  6
ByLayer
  9
$CECOLOR
 62
   256
  9
$DIMSCALE
 40
1.0
  9
$DIMASZ
 40
4.0
  9
$DIMEXO
 40
1.587499999999999
  9
$DIMDLI
 40
12.35
  9
$DIMRND
 40
0.0
  9
$DIMDLE
 40
0.0
  9
$DIMEXE
 40
1.587499999999999
  9
$DIMTP
 40
0.0
  9
$DIMTM
 40
0.0
  9
$DIMTXT
 40
2.0
  9
$DIMCEN
 40
2.9249999999999989
  9
$DIMTSZ
 40
0.0
  9
$DIMTOL
 70
     0
  9
$DIMLIM
 70
     0
  9
$DIMTIH
 70
     1
  9
$DIMTOH
 70
     1
  9
$DIMSE1
 70
     0
  9
$DIMSE2
 70
     0
  9
$DIMTAD
 70
     0
  9
$DIMZIN
 70
     0
  9
$DIMBLK
  1
_FILLED
  9
$DIMASO
 70
     1
  9
$DIMSHO
 70
     1
  9
$DIMPOST
  1

  9
$DIMAPOST
  1

  9
$DIMALT
 70
     0
  9
$DIMALTD
 70
     2
  9
$DIMALTF
 40
25.399999999999999
  9
$DIMLFAC
 40
1.0
  9
$DIMTOFL
 70
     0
  9
$DIMTVP
 40
0.0
  9
$DIMTIX
 70
     0
  9
$DIMSOXD
 70
     0
  9
$DIMSAH
 70
     0
  9
$DIMBLK1
  1

  9
$DIMBLK2
  1

  9
$DIMSTYLE
  2
STANDARD
  9
$DIMCLRD
 70
     0
  9
$DIMCLRE
 70
     0
  9
$DIMCLRT
 70
     0
  9
$DIMTFAC
 40
1.0
  9
$DIMGAP
 40
0.09
  9
$LUNITS
 70
     2
  9
$LUPREC
 70
     4
  9
$SKETCHINC
 40
0.1
  9
$FILLETRAD
 40
0.0
  9
$AUNITS
 70
     0
  9
$AUPREC
 70
     0
  9
$MENU
  1
.
  9
$ELEVATION
 40
0.0
  9
$PELEVATION
 40
0.0
  9
$THICKNESS
 40
0.0
  9
$LIMCHECK
 70
     0
  9
$BLIPMODE
 70
     0
  9
$CHAMFERA
 40
0.0
  9
$CHAMFERB
 40
0.0
  9
$SKPOLY
 70
     0
  9
$TDCREATE
 40
2456262.5159319439
  9
$TDUPDATE
 40
2456262.516297326
  9
$TDINDWG
 40
0.0003658449
  9
$TDUSRTIMER
 40
0.0003658449
  9
$USRTIMER
 70
     1
  9
$ANGBASE
 50
0.0
  9
$ANGDIR
 70
     0
  9
$PDMODE
 70
     3
  9
$PDSIZE
 40
7.9375
  9
$PLINEWID
 40
0.0
  9
$COORDS
 70
     1
  9
$SPLFRAME
 70
     0
  9
$SPLINETYPE
 70
     6
  9
$SPLINESEGS
 70
     8
  9
$ATTDIA
 70
     0
  9
$ATTREQ
 70
     1
  9
$HANDLING
 70
     1
  9
$HANDSEED
  5
28A
  9
$SURFTAB1
 70
     6
  9
$SURFTAB2
 70
     6
  9
$SURFTYPE
 70
     6
  9
$SURFU
 70
     6
  9
$SURFV
 70
     6
  9
$UCSNAME
  2

  9
$UCSORG
 10
0.0
 20
0.0
 30
0.0
  9
$UCSXDIR
 10
1.0
 20
0.0
 30
0.0
  9
$UCSYDIR
 10
0.0
 20
1.0
 30
0.0
  9
$PUCSNAME
  2

  9
$PUCSORG
 10
0.0
 20
0.0
 30
0.0
  9
$PUCSXDIR
 10
1.0
 20
0.0
 30
0.0
  9
$PUCSYDIR
 10
0.0
 20
1.0
 30
0.0
  9
$USERI1
 70
     0
  9
$USERI2
 70
     0
  9
$USERI3
 70
     0
  9
$USERI4
 70
     0
  9
$USERI5
 70
     0
  9
$USERR1
 40
0.0
  9
$USERR2
 40
0.0
  9
$USERR3
 40
0.0
  9
$USERR4
 40
0.0
  9
$USERR5
 40
0.0
  9
$WORLDVIEW
 70
     1
  9
$SHADEDGE
 70
     3
  9
$SHADEDIF
 70
    70
  9
$TILEMODE
 70
     1
  9
$MAXACTVP
 70
    64
  9
$PLIMCHECK
 70
     0
  9
$PEXTMIN
 10
1.0000000000000000E+020
 20
1.0000000000000000E+020
 30
1.0000000000000000E+020
  9
$PEXTMAX
 10
-1.0000000000000000E+020
 20
-1.0000000000000000E+020
 30
-1.0000000000000000E+020
  9
$PLIMMIN
 10
0.0
 20
0.0
  9
$PLIMMAX
 10
12.0
 20
9.0
  9
$UNITMODE
 70
     0
  9
$VISRETAIN
 70
     1
  9
$PLINEGEN
 70
     0
  9
$PSLTSCALE
 70
     1
  0
ENDSEC
  0
SECTION
  2
TABLES
  0
TABLE
  2
VPORT
 70
     1
  0
VPORT
  2
*ACTIVE
 70
     0
 10
0.0
 20
0.0
 11
1.0
 21
1.0
 12
162.50000075669951
 22
75.000000349245994
 13
0.0
 23
0.0
 14
1.0
 24
1.0
 15
0.0
 25
0.0
 16
0.0
 26
0.0
 36
1.0
 17
0.0
 27
0.0
 37
0.0
 40
297.56810547847829
 41
1.1005586592178771
 42
50.0
 43
0.0
 44
0.0
 50
0.0
 51
0.0
 71
     0
 72
   100
 73
     1
 74
     1
 75
     0
 76
     0
 77
     0
 78
     0
  0
ENDTAB
  0
TABLE
  2
LTYPE
 70
     8
  0
LTYPE
  2
ByBlock
 70
     0
  3

 72
    65
 73
     0
 40
0.0
  0
LTYPE
  2
ByLayer
 70
     0
  3

 72
    65
 73
     0
 40
0.0
  0
LTYPE
  2
CONTINUOUS
 70
     0
  3
Solid line
 72
    65
 73
     0
 40
0.0
  0
LTYPE
  2
CENTER
 70
     0
  3
____ _ ____ _ ____ _ ____ _ ____ _ ____ _ ____
 72
    65
 73
     4
 40
0.6
 49
0.375
 49
-0.075
 49
0.075
 49
-0.075
  0
LTYPE
  2
HIDDEN
 70
     0
  3
- - - - - - - - - - - - - - - - - - - -
 72
    65
 73
     2
 40
0.2
 49
0.1
 49
-0.1
  0
LTYPE
  2
PHANTOM
 70
     0
  3
_____ _ _ _____ _ _ _____ _ _ _____
 72
    65
 73
     6
 40
0.8
 49
0.45
 49
-0.05
 49
0.1
 49
-0.05
 49
0.1
 49
-0.05
  0
LTYPE
  2
DOT
 70
     0
  3
. . . . . . . . . . . . . . . . . . . .
 72
    65
 73
     2
 40
0.2
 49
0.1
 49
-0.1
  0
LTYPE
  2
DASHED
 70
     0
  3
- - - - - - - - - - - - - - - - - - - -
 72
    65
 73
     2
 40
0.2
 49
0.1
 49
-0.1
  0
ENDTAB
  0
TABLE
  2
LAYER
 70
    14
  0
LAYER
  2
0
 70
     0
 62
     7
  6
CONTINUOUS
  0
LAYER
  2
DEFAULT_1
 70
     0
 62
     7
  6
CENTER
  0
LAYER
  2
DEFAULT_2
 70
     0
 62
     8
  6
HIDDEN
  0
LAYER
  2
DEFAULT_3
 70
     0
 62
     7
  6
PHANTOM
  0
LAYER
  2
CURB-14
 70
     0
 62
     6
  6
CONTINUOUS
  0
LAYER
  2
CURB-14-DIM
 70
     0
 62
     6
  6
CONTINUOUS
  0
LAYER
  2
CURB-24
 70
     0
 62
     6
  6
CONTINUOUS
  0
LAYER
  2
CURB-24-DIM
 70
     0
 62
     6
  6
CONTINUOUS
  0
LAYER
  2
HOODS
 70
     0
 62
     7
  6
CONTINUOUS
  0
LAYER
  2
NOTES
 70
     0
 62
     1
  6
CONTINUOUS
  0
LAYER
  2
SERVCLEAR
 70
     0
 62
     1
  6
CONTINUOUS
  0
LAYER
  2
SERVCLRDIM
 70
     0
 62
     1
  6
CONTINUOUS
  0
LAYER
  2
UNIT-DIM
 70
     0
 62
     7
  6
CONTINUOUS
  0
LAYER
  2
UNIT-SOL
 70
     0
 62
     7
  6
CONTINUOUS
  0
ENDTAB
  0
TABLE
  2
STYLE
 70
     4
  0
STYLE
  2
STANDARD
 70
     0
 40
0.0
 41
0.8
 50
0.0
 71
     0
 42
0.2
  3
txt
  4

  0
STYLE
  2
ANNOTATIVE
 70
     0
 40
0.0
 41
1.0
 50
0.0
 71
     0
 42
0.2
  3
txt
  4

  0
STYLE
  2
TEXTSTYLE_1
 70
     0
 40
0.0
 41
0.8
 50
0.0
 71
     0
 42
0.2
  3
gdt
  4

  0
STYLE
  2
TEXTSTYLE_2
 70
     0
 40
0.0
 41
8.0
 50
0.0
 71
     0
 42
0.2
  3
txt
  4

  0
ENDTAB
  0
TABLE
  2
VIEW
 70
     0
  0
ENDTAB
  0
TABLE
  2
UCS
 70
     0
  0
ENDTAB
  0
TABLE
  2
APPID
 70
     4
  0
APPID
  2
ACAD
 70
     0
  0
APPID
  2
ACADANNOTATIVE
 70
     0
  0
APPID
  2
ACAD_NAV_VCDISPLAY
 70
     0
  0
APPID
  2
ACAD_MLEADERVER
 70
     0
  0
ENDTAB
  0
TABLE
  2
DIMSTYLE
 70
     2
  0
DIMSTYLE
  2
STANDARD
 70
     0
  3

  4

  5

  6

  7

 40
1.0
 41
0.18
 42
0.0625
 43
0.38
 44
0.18
 45
0.0
 46
0.0
 47
0.0
 48
0.0
140
0.18
141
0.09
142
0.0
143
25.399999999999999
144
1.0
145
0.0
146
1.0
147
0.09
 71
     0
 72
     0
 73
     1
 74
     1
 75
     0
 76
     0
 77
     0
 78
     0
170
     0
171
     2
172
     0
173
     0
174
     0
175
     0
176
     0
177
     0
178
     0
  0
DIMSTYLE
  2
ANNOTATIVE
 70
     0
  3

  4

  5

  6

  7

 40
1.0
 41
0.18
 42
0.0625
 43
0.38
 44
0.18
 45
0.0
 46
0.0
 47
0.0
 48
0.0
140
0.18
141
0.09
142
0.0
143
25.399999999999999
144
1.0
145
0.0
146
1.0
147
0.09
 71
     0
 72
     0
 73
     1
 74
     1
 75
     0
 76
     0
 77
     0
 78
     0
170
     0
171
     2
172
     0
173
     0
174
     0
175
     0
176
     0
177
     0
178
     0
  0
ENDTAB
  0
ENDSEC
  0
SECTION
  2
BLOCKS
  0
BLOCK
  8
0
  2
$MODEL_SPACE
 70
     0
 10
0.0
 20
0.0
 30
0.0
  3
$MODEL_SPACE
  1

  0
ENDBLK
  5
6D
  8
0
  0
BLOCK
 67
     1
  8
0
  2
$PAPER_SPACE
 70
     0
 10
0.0
 20
0.0
 30
0.0
  3
$PAPER_SPACE
  1

  0
ENDBLK
  5
69
 67
     1
  8
0
  0
BLOCK
  8
0
  2
_FILLED
 70
     0
 10
0.0
 20
0.0
 30
0.0
  3
_FILLED
  1

  0
SOLID
  5
8A
  8
0
  6
ByBlock
 62
     0
 10
0.0
 20
0.0
 30
0.0
 11
-1.0
 21
0.1875
 31
0.0
 12
-1.0
 22
-0.1875
 32
0.0
 13
-1.0
 23
-0.1875
 33
0.0
  0
ENDBLK
  5
8B
  8
0
  6
ByBlock
 62
     0
  0
BLOCK
  8
UNIT-DIM
  6
CONTINUOUS
 62
     7
  2
*D1
 70
     1
 10
0.0
 20
0.0
 30
0.0
  3
*D1
  1

  0
TEXT
  5
8E
  8
UNIT-DIM
  6
CONTINUOUS
 62
     7
 10
139.2166666666667
 20
28.175307977700001
 30
0.0
 40
2.0
  1
50-1/2
 41
0.8
 72
     1
 11
143.34999999999999
 21
28.175307977700001
 31
0.0
  0
TEXT
  5
8F
  8
UNIT-DIM
  6
CONTINUOUS
 62
     7
 10
151.34999999999999
 20
28.175307977700001
 30
0.0
 40
2.0
  1
 
 41
0.8
 72
     1
 11
152.15000000000001
 21
28.175307977700001
 31
0.0
  0
TEXT
  5
90
  8
UNIT-DIM
  6
CONTINUOUS
 62
     7
 10
139.08333333333329
 20
25.175307977700001
 30
0.0
 40
2.0
  1
[
 41
0.8
 72
     1
 11
139.34999999999999
 21
25.175307977700001
 31
0.0
  0
TEXT
  5
91
  8
UNIT-DIM
  6
CONTINUOUS
 62
     7
 10
141.21666666666661
 20
25.175307977700001
 30
0.0
 40
2.0
  1
1282.7
 41
0.8
 72
     1
 11
144.94999999999999
 21
25.175307977700001
 31
0.0
  0
TEXT
  5
92
  8
UNIT-DIM
  6
CONTINUOUS
 62
     7
 10
150.2833333333333
 20
25.175307977700001
 30
0.0
 40
2.0
  1
]
 41
0.8
 72
     1
 11
150.55000000000001
 21
25.175307977700001
 31
0.0
  0
LINE
  5
93
  8
UNIT-DIM
  6
CONTINUOUS
 62
     7
 10
120.5
 20
63.534882956200001
 30
0.0
 11
120.5
 21
27.587807977699999
 31
0.0
  0
LINE
  5
94
  8
UNIT-DIM
  6
CONTINUOUS
 62
     7
 10
171.0
 20
79.333740023299995
 30
0.0
 11
171.0
 21
27.587807977699999
 31
0.0
  0
LINE
  5
95
  8
UNIT-DIM
  6
CONTINUOUS
 62
     7
 10
120.5
 20
29.175307977700001
 30
0.0
 11
136.55000000000001
 21
29.175307977700001
 31
0.0
  0
LINE
  5
96
  8
UNIT-DIM
  6
CONTINUOUS
 62
     7
 10
171.0
 20
29.175307977700001
 30
0.0
 11
154.94999999999999
 21
29.175307977700001
 31
0.0
  0
INSERT
  5
97
  8
UNIT-DIM
  6
CONTINUOUS
 62
     7
  2
_FILLED
 10
120.5
 20
29.175307977700001
 30
0.0
 41
4.0
 42
4.0
 43
4.0
 50
180.0
  0
INSERT
  5
98
  8
UNIT-DIM
  6
CONTINUOUS
 62
     7
  2
_FILLED
 10
171.0
 20
29.175307977700001
 30
0.0
 41
4.0
 42
4.0
 43
4.0
  0
ENDBLK
  5
99
  8
0
  6
ByBlock
 62
     0
  0
BLOCK
  8
UNIT-DIM
  6
CONTINUOUS
 62
     7
  2
*D2
 70
     1
 10
0.0
 20
0.0
 30
0.0
  3
*D2
  1

  0
TEXT
  5
9C
  8
UNIT-DIM
  6
CONTINUOUS
 62
     7
 10
151.21166874459999
 20
37.558334079399998
 30
0.0
 40
2.0
  1
15-1/8
 41
0.8
 72
     2
 11
159.21166874459999
 21
37.558334079399998
 31
0.0
  0
TEXT
  5
9D
  8
UNIT-DIM
  6
CONTINUOUS
 62
     7
 10
160.81166874460001
 20
37.558334079399998
 30
0.0
 40
2.0
  1
 
 41
0.8
 72
     2
 11
162.41166874460001
 21
37.558334079399998
 31
0.0
  0
TEXT
  5
9E
  8
UNIT-DIM
  6
CONTINUOUS
 62
     7
 10
150.6783354112666
 20
34.558334079399998
 30
0.0
 40
2.0
  1
[
 41
0.8
 72
     2
 11
151.21166874459999
 21
34.558334079399998
 31
0.0
  0
TEXT
  5
9F
  8
UNIT-DIM
  6
CONTINUOUS
 62
     7
 10
152.81166874460001
 20
34.558334079399998
 30
0.0
 40
2.0
  1
384.2
 41
0.8
 72
     2
 11
159.21166874459999
 21
34.558334079399998
 31
0.0
  0
TEXT
  5
A0
  8
UNIT-DIM
  6
CONTINUOUS
 62
     7
 10
160.2783354112666
 20
34.558334079399998
 30
0.0
 40
2.0
  1
]
 41
0.8
 72
     2
 11
160.81166874460001
 21
34.558334079399998
 31
0.0
  0
LINE
  5
A1
  8
UNIT-DIM
  6
CONTINUOUS
 62
     7
 10
165.2990181049
 20
65.796240023300001
 30
0.0
 11
167.9886426999
 21
65.796240023300001
 31
0.0
  0
LINE
  5
A2
  8
UNIT-DIM
  6
CONTINUOUS
 62
     7
 10
169.65519777110001
 20
80.921240023300015
 30
0.0
 11
165.2990181049
 21
80.921240023300015
 31
0.0
  0
LINE
  5
A3
  8
UNIT-DIM
  6
CONTINUOUS
 62
     7
 10
166.88651810490001
 20
65.796240023300001
 30
0.0
 11
166.88651810490001
 21
73.358740023300001
 31
0.0
  0
LINE
  5
A4
  8
UNIT-DIM
  6
CONTINUOUS
 62
     7
 10
166.88651810490001
 20
73.358740023300001
 30
0.0
 11
166.88651810490001
 21
38.558334079399998
 31
0.0
  0
LINE
  5
A5
  8
UNIT-DIM
  6
CONTINUOUS
 62
     7
 10
166.88651810490001
 20
38.558334079399998
 30
0.0
 11
164.41166874460001
 21
38.558334079399998
 31
0.0
  0
LINE
  5
A6
  8
UNIT-DIM
  6
CONTINUOUS
 62
     7
 10
166.88651810490001
 20
80.921240023300015
 30
0.0
 11
166.88651810490001
 21
73.358740023300001
 31
0.0
  0
INSERT
  5
A7
  8
UNIT-DIM
  6
CONTINUOUS
 62
     7
  2
_FILLED
 10
166.88651810490001
 20
65.796240023300001
 30
0.0
 41
4.0
 42
4.0
 43
4.0
 50
270.0
  0
INSERT
  5
A8
  8
UNIT-DIM
  6
CONTINUOUS
 62
     7
  2
_FILLED
 10
166.88651810490001
 20
80.921240023300015
 30
0.0
 41
4.0
 42
4.0
 43
4.0
 50
90.0
  0
ENDBLK
  5
A9
  8
0
  6
ByBlock
 62
     0
  0
BLOCK
  8
CURB-24-DIM
  6
CONTINUOUS
 62
     6
  2
*D3
 70
     1
 10
0.0
 20
0.0
 30
0.0
  3
*D3
  1

  0
TEXT
  5
AC
  8
CURB-24-DIM
  6
CONTINUOUS
 62
     6
 10
178.2019993333333
 20
19.8468579181
 30
0.0
 40
2.0
  1
135-5/8
 41
0.8
 72
     1
 11
183.268666
 21
19.8468579181
 31
0.0
  0
TEXT
  5
AD
  8
CURB-24-DIM
  6
CONTINUOUS
 62
     6
 10
191.40199933333329
 20
19.8468579181
 30
0.0
 40
2.0
  1
[
 41
0.8
 72
     1
 11
191.668666
 21
19.8468579181
 31
0.0
  0
TEXT
  5
AE
  8
CURB-24-DIM
  6
CONTINUOUS
 62
     6
 10
193.268666
 20
19.8468579181
 30
0.0
 40
2.0
  1
3446.5
 41
0.8
 72
     1
 11
197.268666
 21
19.8468579181
 31
0.0
  0
TEXT
  5
AF
  8
CURB-24-DIM
  6
CONTINUOUS
 62
     6
 10
202.60199933333331
 20
19.8468579181
 30
0.0
 40
2.0
  1
]
 41
0.8
 72
     1
 11
202.86866599999999
 21
19.8468579181
 31
0.0
  0
TEXT
  5
B0
  8
CURB-24-DIM
  6
CONTINUOUS
 62
     6
 10
203.668666
 20
19.8468579181
 30
0.0
 40
2.0
  1
 
 41
0.8
 72
     1
 11
204.46866600000001
 21
19.8468579181
 31
0.0
  0
LINE
  5
B1
  8
CURB-24-DIM
  6
CONTINUOUS
 62
     6
 10
123.62493600000001
 20
22.434357918100002
 30
0.0
 11
123.62493600000001
 21
18.419562596999999
 31
0.0
  0
LINE
  5
B2
  8
CURB-24-DIM
  6
CONTINUOUS
 62
     6
 10
259.31239599999998
 20
65.958740023299995
 30
0.0
 11
259.31239599999998
 21
19.259357918100001
 31
0.0
  0
LINE
  5
B3
  8
CURB-24-DIM
  6
CONTINUOUS
 62
     6
 10
123.62493600000001
 20
20.8468579181
 30
0.0
 11
175.668666
 21
20.8468579181
 31
0.0
  0
LINE
  5
B4
  8
CURB-24-DIM
  6
CONTINUOUS
 62
     6
 10
259.31239599999998
 20
20.8468579181
 30
0.0
 11
207.268666
 21
20.8468579181
 31
0.0
  0
INSERT
  5
B5
  8
CURB-24-DIM
  6
CONTINUOUS
 62
     6
  2
_FILLED
 10
123.62493600000001
 20
20.8468579181
 30
0.0
 41
4.0
 42
4.0
 43
4.0
 50
180.0
  0
INSERT
  5
B6
  8
CURB-24-DIM
  6
CONTINUOUS
 62
     6
  2
_FILLED
 10
259.31239599999998
 20
20.8468579181
 30
0.0
 41
4.0
 42
4.0
 43
4.0
  0
ENDBLK
  5
B7
  8
0
  6
ByBlock
 62
     0
  0
BLOCK
  8
UNIT-DIM
  6
CONTINUOUS
 62
     7
  2
*D4
 70
     1
 10
0.0
 20
0.0
 30
0.0
  3
*D4
  1

  0
TEXT
  5
BA
  8
UNIT-DIM
  6
CONTINUOUS
 62
     7
 10
188.10883328686671
 20
127.98543417240001
 30
0.0
 40
2.0
  1
141-1/2
 41
0.8
 72
     1
 11
192.64216662019999
 21
127.98543417240001
 31
0.0
  0
TEXT
  5
BB
  8
UNIT-DIM
  6
CONTINUOUS
 62
     7
 10
199.8421666202
 20
127.98543417240001
 30
0.0
 40
2.0
  1
 
 41
0.8
 72
     1
 11
200.64216662019999
 21
127.98543417240001
 31
0.0
  0
TEXT
  5
BC
  8
UNIT-DIM
  6
CONTINUOUS
 62
     7
 10
187.5754999535333
 20
124.98543417240001
 30
0.0
 40
2.0
  1
[
 41
0.8
 72
     1
 11
187.8421666202
 21
124.98543417240001
 31
0.0
  0
TEXT
  5
BD
  8
UNIT-DIM
  6
CONTINUOUS
 62
     7
 10
189.70883328686659
 20
124.98543417240001
 30
0.0
 40
2.0
  1
3594.1
 41
0.8
 72
     1
 11
193.4421666202
 21
124.98543417240001
 31
0.0
  0
TEXT
  5
BE
  8
UNIT-DIM
  6
CONTINUOUS
 62
     7
 10
198.77549995353331
 20
124.98543417240001
 30
0.0
 40
2.0
  1
]
 41
0.8
 72
     1
 11
199.04216662019999
 21
124.98543417240001
 31
0.0
  0
LINE
  5
BF
  8
UNIT-DIM
  6
CONTINUOUS
 62
     7
 10
120.5
 20
124.7365481019
 30
0.0
 11
120.5
 21
130.57293417240001
 31
0.0
  0
LINE
  5
C0
  8
UNIT-DIM
  6
CONTINUOUS
 62
     7
 10
261.99999987939998
 20
125.5170411436
 30
0.0
 11
261.99999987939998
 21
130.57293417240001
 31
0.0
  0
LINE
  5
C1
  8
UNIT-DIM
  6
CONTINUOUS
 62
     7
 10
120.5
 20
128.98543417240001
 30
0.0
 11
185.04216662019999
 21
128.98543417240001
 31
0.0
  0
LINE
  5
C2
  8
UNIT-DIM
  6
CONTINUOUS
 62
     7
 10
261.99999987939998
 20
128.98543417240001
 30
0.0
 11
203.4421666202
 21
128.98543417240001
 31
0.0
  0
INSERT
  5
C3
  8
UNIT-DIM
  6
CONTINUOUS
 62
     7
  2
_FILLED
 10
120.5
 20
128.98543417240001
 30
0.0
 41
4.0
 42
4.0
 43
4.0
 50
180.0
  0
INSERT
  5
C4
  8
UNIT-DIM
  6
CONTINUOUS
 62
     7
  2
_FILLED
 10
261.99999987939998
 20
128.98543417240001
 30
0.0
 41
4.0
 42
4.0
 43
4.0
  0
ENDBLK
  5
C5
  8
0
  6
ByBlock
 62
     0
  0
BLOCK
  8
UNIT-DIM
  6
CONTINUOUS
 62
     7
  2
*D5
 70
     1
 10
0.0
 20
0.0
 30
0.0
  3
*D5
  1

  0
TEXT
  5
C8
  8
UNIT-DIM
  6
CONTINUOUS
 62
     7
 10
268.35116572076657
 20
93.483697957399997
 30
0.0
 40
2.0
  1
57-3/8
 41
0.8
 72
     1
 11
272.88449905409999
 21
93.483697957399997
 31
0.0
  0
TEXT
  5
C9
  8
UNIT-DIM
  6
CONTINUOUS
 62
     7
 10
280.88449905409999
 20
93.483697957399997
 30
0.0
 40
2.0
  1
 
 41
0.8
 72
     1
 11
281.6844990541
 21
93.483697957399997
 31
0.0
  0
TEXT
  5
CA
  8
UNIT-DIM
  6
CONTINUOUS
 62
     7
 10
268.61783238743328
 20
90.483697957399997
 30
0.0
 40
2.0
  1
[
 41
0.8
 72
     1
 11
268.88449905409999
 21
90.483697957399997
 31
0.0
  0
TEXT
  5
CB
  8
UNIT-DIM
  6
CONTINUOUS
 62
     7
 10
270.75116572076672
 20
90.483697957399997
 30
0.0
 40
2.0
  1
1457.3
 41
0.8
 72
     1
 11
274.48449905410001
 21
90.483697957399997
 31
0.0
  0
TEXT
  5
CC
  8
UNIT-DIM
  6
CONTINUOUS
 62
     7
 10
279.81783238743333
 20
90.483697957399997
 30
0.0
 40
2.0
  1
]
 41
0.8
 72
     1
 11
280.08449905409998
 21
90.483697957399997
 31
0.0
  0
LINE
  5
CD
  8
UNIT-DIM
  6
CONTINUOUS
 62
     7
 10
263.48494010669998
 20
65.796240023300001
 30
0.0
 11
276.8719990541
 21
65.796240023300001
 31
0.0
  0
LINE
  5
CE
  8
UNIT-DIM
  6
CONTINUOUS
 62
     7
 10
274.28251795419999
 20
123.17115589150001
 30
0.0
 11
276.8719990541
 21
123.17115589150001
 31
0.0
  0
LINE
  5
CF
  8
UNIT-DIM
  6
CONTINUOUS
 62
     7
 10
275.28449905410002
 20
65.796240023300001
 30
0.0
 11
275.28449905410002
 21
88.483697957399997
 31
0.0
  0
LINE
  5
D0
  8
UNIT-DIM
  6
CONTINUOUS
 62
     7
 10
275.28449905410002
 20
123.17115589150001
 30
0.0
 11
275.28449905410002
 21
97.483697957399997
 31
0.0
  0
INSERT
  5
D1
  8
UNIT-DIM
  6
CONTINUOUS
 62
     7
  2
_FILLED
 10
275.28449905410002
 20
65.796240023300001
 30
0.0
 41
4.0
 42
4.0
 43
4.0
 50
270.0
  0
INSERT
  5
D2
  8
UNIT-DIM
  6
CONTINUOUS
 62
     7
  2
_FILLED
 10
275.28449905410002
 20
123.17115589150001
 30
0.0
 41
4.0
 42
4.0
 43
4.0
 50
90.0
  0
ENDBLK
  5
D3
  8
0
  6
ByBlock
 62
     0
  0
BLOCK
  8
CURB-24-DIM
  6
CONTINUOUS
 62
     6
  2
*D6
 70
     1
 10
0.0
 20
0.0
 30
0.0
  3
*D6
  1

  0
TEXT
  5
D6
  8
CURB-24-DIM
  6
CONTINUOUS
 62
     6
 10
77.148562965566668
 20
58.753357192399989
 30
0.0
 40
2.0
  1
24
 41
0.8
 72
     1
 11
78.481896298899997
 21
58.753357192399989
 31
0.0
  0
TEXT
  5
D7
  8
CURB-24-DIM
  6
CONTINUOUS
 62
     6
 10
88.081896298900006
 20
58.753357192399989
 30
0.0
 40
2.0
  1
 
 41
0.8
 72
     1
 11
88.881896298899974
 21
58.753357192399989
 31
0.0
  0
TEXT
  5
D8
  8
CURB-24-DIM
  6
CONTINUOUS
 62
     6
 10
77.415229632233334
 20
55.753357192399989
 30
0.0
 40
2.0
  1
[
 41
0.8
 72
     1
 11
77.6818962989
 21
55.753357192399989
 31
0.0
  0
TEXT
  5
D9
  8
CURB-24-DIM
  6
CONTINUOUS
 62
     6
 10
79.415229632233334
 20
55.753357192399989
 30
0.0
 40
2.0
  1
609.6
 41
0.8
 72
     1
 11
82.481896298899997
 21
55.753357192399989
 31
0.0
  0
TEXT
  5
DA
  8
CURB-24-DIM
  6
CONTINUOUS
 62
     6
 10
87.015229632233314
 20
55.753357192399989
 30
0.0
 40
2.0
  1
]
 41
0.8
 72
     1
 11
87.281896298899994
 21
55.753357192399989
 31
0.0
  0
LINE
  5
DB
  8
CURB-24-DIM
  6
CONTINUOUS
 62
     6
 10
120.787436
 20
44.797969269799992
 30
0.0
 11
104.90844664620001
 21
44.797969269799992
 31
0.0
  0
LINE
  5
DC
  8
CURB-24-DIM
  6
CONTINUOUS
 62
     6
 10
101.9321164062
 20
44.797969269799992
 30
0.0
 11
81.694396298900003
 21
44.797969269799992
 31
0.0
  0
LINE
  5
DD
  8
CURB-24-DIM
  6
CONTINUOUS
 62
     6
 10
122.037436
 20
68.796240023300001
 30
0.0
 11
81.694396298900003
 21
68.796240023300001
 31
0.0
  0
LINE
  5
DE
  8
CURB-24-DIM
  6
CONTINUOUS
 62
     6
 10
83.281896298900008
 20
44.797969269799992
 30
0.0
 11
83.281896298900008
 21
53.753357192399989
 31
0.0
  0
LINE
  5
DF
  8
CURB-24-DIM
  6
CONTINUOUS
 62
     6
 10
83.281896298900008
 20
68.796240023300001
 30
0.0
 11
83.281896298900008
 21
62.753357192400003
 31
0.0
  0
INSERT
  5
E0
  8
CURB-24-DIM
  6
CONTINUOUS
 62
     6
  2
_FILLED
 10
83.281896298900008
 20
44.797969269799992
 30
0.0
 41
4.0
 42
4.0
 43
4.0
 50
270.0
  0
INSERT
  5
E1
  8
CURB-24-DIM
  6
CONTINUOUS
 62
     6
  2
_FILLED
 10
83.281896298900008
 20
68.796240023300001
 30
0.0
 41
4.0
 42
4.0
 43
4.0
 50
90.0
  0
ENDBLK
  5
E2
  8
0
  6
ByBlock
 62
     0
  0
BLOCK
  8
SERVCLRDIM
  6
CONTINUOUS
 62
     1
  2
*D7
 70
     1
 10
0.0
 20
0.0
 30
0.0
  3
*D7
  1

  0
TEXT
  5
E5
  8
SERVCLRDIM
  6
CONTINUOUS
 62
     1
 10
26.800000000000001
 20
106.2878618713
 30
0.0
 40
2.0
  1
18-96 DEPENDING ON OPTIONS, 
 41
0.8
 72
     1
 11
48.0
 21
106.2878618713
 31
0.0
  0
TEXT
  5
E6
  8
SERVCLRDIM
  6
CONTINUOUS
 62
     1
 10
26.133333333333329
 20
103.2878618713
 30
0.0
 40
2.0
  1
SEE PRODUCT DATA FOR DETAILS
 41
0.8
 72
     1
 11
48.0
 21
103.2878618713
 31
0.0
  0
LINE
  5
E7
  8
SERVCLRDIM
  6
CONTINUOUS
 62
     1
 10
96.0
 20
104.6732463125
 30
0.0
 11
96.0
 21
106.2878618713
 31
0.0
  0
LINE
  5
E8
  8
SERVCLRDIM
  6
CONTINUOUS
 62
     1
 10
96.0
 20
106.2878618713
 30
0.0
 11
96.0
 21
108.8753618713
 31
0.0
  0
LINE
  5
E9
  8
SERVCLRDIM
  6
CONTINUOUS
 62
     1
 10
0.0
 20
107.2878618713
 30
0.0
 11
23.600000000000001
 21
107.2878618713
 31
0.0
  0
LINE
  5
EA
  8
SERVCLRDIM
  6
CONTINUOUS
 62
     1
 10
96.0
 20
107.2878618713
 30
0.0
 11
72.400000000000006
 21
107.2878618713
 31
0.0
  0
INSERT
  5
EB
  8
SERVCLRDIM
  6
CONTINUOUS
 62
     1
  2
_FILLED
 10
0.0
 20
107.2878618713
 30
0.0
 41
4.0
 42
4.0
 43
4.0
 50
180.0
  0
INSERT
  5
EC
  8
SERVCLRDIM
  6
CONTINUOUS
 62
     1
  2
_FILLED
 10
96.0
 20
107.2878618713
 30
0.0
 41
4.0
 42
4.0
 43
4.0
  0
ENDBLK
  5
ED
  8
0
  6
ByBlock
 62
     0
  0
BLOCK
  8
SERVCLRDIM
  6
CONTINUOUS
 62
     1
  2
*D8
 70
     1
 10
0.0
 20
0.0
 30
0.0
  3
*D8
  1

  0
TEXT
  5
F0
  8
SERVCLRDIM
  6
CONTINUOUS
 62
     1
 10
277.70034099826671
 20
106.2878618713
 30
0.0
 40
2.0
  1
36
 41
0.8
 72
     1
 11
279.03367433160003
 21
106.2878618713
 31
0.0
  0
TEXT
  5
F1
  8
SERVCLRDIM
  6
CONTINUOUS
 62
     1
 10
288.63367433159999
 20
106.2878618713
 30
0.0
 40
2.0
  1
 
 41
0.8
 72
     1
 11
289.4336743316
 21
106.2878618713
 31
0.0
  0
TEXT
  5
F2
  8
SERVCLRDIM
  6
CONTINUOUS
 62
     1
 10
277.96700766493342
 20
103.2878618713
 30
0.0
 40
2.0
  1
[
 41
0.8
 72
     1
 11
278.23367433160001
 21
103.2878618713
 31
0.0
  0
TEXT
  5
F3
  8
SERVCLRDIM
  6
CONTINUOUS
 62
     1
 10
280.10034099826669
 20
103.2878618713
 30
0.0
 40
2.0
  1
914.4
 41
0.8
 72
     1
 11
283.03367433160003
 21
103.2878618713
 31
0.0
  0
TEXT
  5
F4
  8
SERVCLRDIM
  6
CONTINUOUS
 62
     1
 10
287.56700766493333
 20
103.2878618713
 30
0.0
 40
2.0
  1
]
 41
0.8
 72
     1
 11
287.83367433159998
 21
103.2878618713
 31
0.0
  0
LINE
  5
F5
  8
SERVCLRDIM
  6
CONTINUOUS
 62
     1
 10
297.99999987939998
 20
109.03901465369999
 30
0.0
 11
297.99999987939998
 21
105.7003618713
 31
0.0
  0
LINE
  5
F6
  8
SERVCLRDIM
  6
CONTINUOUS
 62
     1
 10
261.99999987939998
 20
108.66719261980001
 30
0.0
 11
261.99999987939998
 21
105.7003618713
 31
0.0
  0
LINE
  5
F7
  8
SERVCLRDIM
  6
CONTINUOUS
 62
     1
 10
297.99999987939998
 20
107.2878618713
 30
0.0
 11
292.23367433160001
 21
107.2878618713
 31
0.0
  0
LINE
  5
F8
  8
SERVCLRDIM
  6
CONTINUOUS
 62
     1
 10
261.99999987939998
 20
107.2878618713
 30
0.0
 11
275.4336743316
 21
107.2878618713
 31
0.0
  0
INSERT
  5
F9
  8
SERVCLRDIM
  6
CONTINUOUS
 62
     1
  2
_FILLED
 10
297.99999987939998
 20
107.2878618713
 30
0.0
 41
4.0
 42
4.0
 43
4.0
  0
INSERT
  5
FA
  8
SERVCLRDIM
  6
CONTINUOUS
 62
     1
  2
_FILLED
 10
261.99999987939998
 20
107.2878618713
 30
0.0
 41
4.0
 42
4.0
 43
4.0
 50
180.0
  0
ENDBLK
  5
FB
  8
0
  6
ByBlock
 62
     0
  0
BLOCK
  8
CURB-14-DIM
  6
CONTINUOUS
 62
     6
  2
*D9
 70
     1
 10
0.0
 20
0.0
 30
0.0
  3
*D9
  1

  0
TEXT
  5
FE
  8
CURB-14-DIM
  6
CONTINUOUS
 62
     6
 10
178.2019993333333
 20
19.7831650647
 30
0.0
 40
2.0
  1
135-5/8
 41
0.8
 72
     1
 11
183.268666
 21
19.7831650647
 31
0.0
  0
TEXT
  5
FF
  8
CURB-14-DIM
  6
CONTINUOUS
 62
     6
 10
191.40199933333329
 20
19.7831650647
 30
0.0
 40
2.0
  1
[
 41
0.8
 72
     1
 11
191.668666
 21
19.7831650647
 31
0.0
  0
TEXT
  5
100
  8
CURB-14-DIM
  6
CONTINUOUS
 62
     6
 10
193.268666
 20
19.7831650647
 30
0.0
 40
2.0
  1
3446.5
 41
0.8
 72
     1
 11
197.268666
 21
19.7831650647
 31
0.0
  0
TEXT
  5
101
  8
CURB-14-DIM
  6
CONTINUOUS
 62
     6
 10
202.60199933333331
 20
19.7831650647
 30
0.0
 40
2.0
  1
]
 41
0.8
 72
     1
 11
202.86866599999999
 21
19.7831650647
 31
0.0
  0
TEXT
  5
102
  8
CURB-14-DIM
  6
CONTINUOUS
 62
     6
 10
203.668666
 20
19.7831650647
 30
0.0
 40
2.0
  1
 
 41
0.8
 72
     1
 11
204.46866600000001
 21
19.7831650647
 31
0.0
  0
LINE
  5
103
  8
CURB-14-DIM
  6
CONTINUOUS
 62
     6
 10
123.62493600000001
 20
66.062936858200004
 30
0.0
 11
123.62493600000001
 21
30.7514764009
 31
0.0
  0
LINE
  5
104
  8
CURB-14-DIM
  6
CONTINUOUS
 62
     6
 10
123.62493600000001
 20
26.540735866999999
 30
0.0
 11
123.62493600000001
 21
19.195665064699998
 31
0.0
  0
LINE
  5
105
  8
CURB-14-DIM
  6
CONTINUOUS
 62
     6
 10
259.31239599999998
 20
65.958740023299995
 30
0.0
 11
259.31239599999998
 21
19.195665064699998
 31
0.0
  0
LINE
  5
106
  8
CURB-14-DIM
  6
CONTINUOUS
 62
     6
 10
123.62493600000001
 20
20.7831650647
 30
0.0
 11
175.668666
 21
20.7831650647
 31
0.0
  0
LINE
  5
107
  8
CURB-14-DIM
  6
CONTINUOUS
 62
     6
 10
259.31239599999998
 20
20.7831650647
 30
0.0
 11
207.268666
 21
20.7831650647
 31
0.0
  0
INSERT
  5
108
  8
CURB-14-DIM
  6
CONTINUOUS
 62
     6
  2
_FILLED
 10
123.62493600000001
 20
20.7831650647
 30
0.0
 41
4.0
 42
4.0
 43
4.0
 50
180.0
  0
INSERT
  5
109
  8
CURB-14-DIM
  6
CONTINUOUS
 62
     6
  2
_FILLED
 10
259.31239599999998
 20
20.7831650647
 30
0.0
 41
4.0
 42
4.0
 43
4.0
  0
ENDBLK
  5
10A
  8
0
  6
ByBlock
 62
     0
  0
BLOCK
  8
CURB-14-DIM
  6
CONTINUOUS
 62
     6
  2
*D10
 70
     1
 10
0.0
 20
0.0
 30
0.0
  3
*D10
  1

  0
TEXT
  5
10D
  8
CURB-14-DIM
  6
CONTINUOUS
 62
     6
 10
97.629779530333352
 20
64.456362222899998
 30
0.0
 40
2.0
  1
14
 41
0.8
 72
     1
 11
98.696446197000014
 21
64.456362222899998
 31
0.0
  0
TEXT
  5
10E
  8
CURB-14-DIM
  6
CONTINUOUS
 62
     6
 10
108.29644619699999
 20
64.456362222899998
 30
0.0
 40
2.0
  1
 
 41
0.8
 72
     1
 11
109.09644619700001
 21
64.456362222899998
 31
0.0
  0
TEXT
  5
10F
  8
CURB-14-DIM
  6
CONTINUOUS
 62
     6
 10
97.629779530333352
 20
61.456362222899998
 30
0.0
 40
2.0
  1
[
 41
0.8
 72
     1
 11
97.896446197000003
 21
61.456362222899998
 31
0.0
  0
TEXT
  5
110
  8
CURB-14-DIM
  6
CONTINUOUS
 62
     6
 10
99.496446197000026
 20
61.456362222899998
 30
0.0
 40
2.0
  1
355.6
 41
0.8
 72
     1
 11
102.696446197
 21
61.456362222899998
 31
0.0
  0
TEXT
  5
111
  8
CURB-14-DIM
  6
CONTINUOUS
 62
     6
 10
107.2297795303333
 20
61.456362222899998
 30
0.0
 40
2.0
  1
]
 41
0.8
 72
     1
 11
107.496446197
 21
61.456362222899998
 31
0.0
  0
LINE
  5
112
  8
CURB-14-DIM
  6
CONTINUOUS
 62
     6
 10
122.037436
 20
68.796240023300001
 30
0.0
 11
101.90894619700001
 21
68.796240023300001
 31
0.0
  0
LINE
  5
113
  8
CURB-14-DIM
  6
CONTINUOUS
 62
     6
 10
120.3806565174
 20
54.796240023300001
 30
0.0
 11
101.90894619700001
 21
54.796240023300001
 31
0.0
  0
LINE
  5
114
  8
CURB-14-DIM
  6
CONTINUOUS
 62
     6
 10
103.496446197
 20
68.796240023300001
 30
0.0
 11
103.496446197
 21
81.496240023300004
 31
0.0
  0
LINE
  5
115
  8
CURB-14-DIM
  6
CONTINUOUS
 62
     6
 10
103.496446197
 20
54.796240023300001
 30
0.0
 11
103.496446197
 21
42.096240023299998
 31
0.0
  0
INSERT
  5
116
  8
CURB-14-DIM
  6
CONTINUOUS
 62
     6
  2
_FILLED
 10
103.496446197
 20
68.796240023300001
 30
0.0
 41
4.0
 42
4.0
 43
4.0
 50
270.0
  0
INSERT
  5
117
  8
CURB-14-DIM
  6
CONTINUOUS
 62
     6
  2
_FILLED
 10
103.496446197
 20
54.796240023300001
 30
0.0
 41
4.0
 42
4.0
 43
4.0
 50
90.0
  0
ENDBLK
  5
118
  8
0
  6
ByBlock
 62
     0
  0
BLOCK
  8
SERVCLRDIM
  6
CONTINUOUS
 62
     1
  2
*D11
 70
     1
 10
0.0
 20
0.0
 30
0.0
  3
*D11
  1

  0
TEXT
  5
11B
  8
SERVCLRDIM
  6
CONTINUOUS
 62
     1
 10
270.97738082680002
 20
53.481904010999997
 30
0.0
 40
2.0
  1
OVERALL HEIGHT AND 
 41
0.8
  0
TEXT
  5
11C
  8
SERVCLRDIM
  6
CONTINUOUS
 62
     1
 10
270.97738082680002
 20
50.481904011000012
 30
0.0
 40
2.0
  1
CLEARANCE AREA WILL BE 
 41
0.8
  0
TEXT
  5
11D
  8
SERVCLRDIM
  6
CONTINUOUS
 62
     1
 10
270.97738082680002
 20
47.481904010999997
 30
0.0
 40
2.0
  1
DETERMINED BY ASSEMBLY OF 
 41
0.8
  0
TEXT
  5
11E
  8
SERVCLRDIM
  6
CONTINUOUS
 62
     1
 10
270.97738082680002
 20
44.481904010999997
 30
0.0
 40
2.0
  1
INSTALLER.  SEE CERTIFIED 
 41
0.8
  0
TEXT
  5
11F
  8
SERVCLRDIM
  6
CONTINUOUS
 62
     1
 10
270.97738082680002
 20
41.48190401099999
 30
0.0
 40
2.0
  1
DRAWING FOR FURTHER DETAIL.
 41
0.8
  0
LINE
  5
120
  8
SERVCLRDIM
  6
CONTINUOUS
 62
     1
 10
260.02390385249998
 20
68.796240023300001
 30
0.0
 11
270.8744504284
 21
68.796240023300001
 31
0.0
  0
LINE
  5
121
  8
SERVCLRDIM
  6
CONTINUOUS
 62
     1
 10
263.58750014050003
 20
65.796240023300001
 30
0.0
 11
270.8744504284
 21
65.796240023300001
 31
0.0
  0
LINE
  5
122
  8
SERVCLRDIM
  6
CONTINUOUS
 62
     1
 10
269.28695042840002
 20
68.796240023300001
 30
0.0
 11
269.28695042840002
 21
81.496240023300004
 31
0.0
  0
LINE
  5
123
  8
SERVCLRDIM
  6
CONTINUOUS
 62
     1
 10
269.28695042840002
 20
65.796240023300001
 30
0.0
 11
269.28695042840002
 21
54.481904010999997
 31
0.0
  0
LINE
  5
124
  8
SERVCLRDIM
  6
CONTINUOUS
 62
     1
 10
269.28695042840002
 20
54.481904010999997
 30
0.0
 11
269.28698292839999
 21
54.481904010999997
 31
0.0
  0
INSERT
  5
125
  8
SERVCLRDIM
  6
CONTINUOUS
 62
     1
  2
_FILLED
 10
269.28695042840002
 20
68.796240023300001
 30
0.0
 41
4.0
 42
4.0
 43
4.0
 50
270.0
  0
INSERT
  5
126
  8
SERVCLRDIM
  6
CONTINUOUS
 62
     1
  2
_FILLED
 10
269.28695042840002
 20
65.796240023300001
 30
0.0
 41
4.0
 42
4.0
 43
4.0
 50
90.0
  0
ENDBLK
  5
127
  8
0
  6
ByBlock
 62
     0
  0
BLOCK
  8
UNIT-DIM
  6
CONTINUOUS
 62
     7
  2
*D12
 70
     1
 10
0.0
 20
0.0
 30
0.0
  3
*D12
  1

  0
TEXT
  5
12A
  8
UNIT-DIM
  6
CONTINUOUS
 62
     7
 10
102.3833333333333
 20
127.98543417240001
 30
0.0
 40
2.0
  1
24-1/2
 41
0.8
 72
     1
 11
106.65000000000001
 21
127.98543417240001
 31
0.0
  0
TEXT
  5
12B
  8
UNIT-DIM
  6
CONTINUOUS
 62
     7
 10
113.05
 20
127.98543417240001
 30
0.0
 40
2.0
  1
 
 41
0.8
 72
     1
 11
113.84999999999999
 21
127.98543417240001
 31
0.0
  0
TEXT
  5
12C
  8
UNIT-DIM
  6
CONTINUOUS
 62
     7
 10
102.3833333333333
 20
124.98543417240001
 30
0.0
 40
2.0
  1
[
 41
0.8
 72
     1
 11
102.65000000000001
 21
124.98543417240001
 31
0.0
  0
TEXT
  5
12D
  8
UNIT-DIM
  6
CONTINUOUS
 62
     7
 10
104.25
 20
124.98543417240001
 30
0.0
 40
2.0
  1
622.3
 41
0.8
 72
     1
 11
107.45
 21
124.98543417240001
 31
0.0
  0
TEXT
  5
12E
  8
UNIT-DIM
  6
CONTINUOUS
 62
     7
 10
111.98333333333331
 20
124.98543417240001
 30
0.0
 40
2.0
  1
]
 41
0.8
 72
     1
 11
112.25
 21
124.98543417240001
 31
0.0
  0
LINE
  5
12F
  8
UNIT-DIM
  6
CONTINUOUS
 62
     7
 10
120.5
 20
124.7586558915
 30
0.0
 11
120.5
 21
130.57293417240001
 31
0.0
  0
LINE
  5
130
  8
UNIT-DIM
  6
CONTINUOUS
 62
     7
 10
96.0
 20
125.1693516505
 30
0.0
 11
96.0
 21
130.57293417240001
 31
0.0
  0
LINE
  5
131
  8
UNIT-DIM
  6
CONTINUOUS
 62
     7
 10
120.5
 20
128.98543417240001
 30
0.0
 11
133.19999999999999
 21
128.98543417240001
 31
0.0
  0
LINE
  5
132
  8
UNIT-DIM
  6
CONTINUOUS
 62
     7
 10
96.0
 20
128.98543417240001
 30
0.0
 11
83.299999999999997
 21
128.98543417240001
 31
0.0
  0
INSERT
  5
133
  8
UNIT-DIM
  6
CONTINUOUS
 62
     7
  2
_FILLED
 10
120.5
 20
128.98543417240001
 30
0.0
 41
4.0
 42
4.0
 43
4.0
 50
180.0
  0
INSERT
  5
134
  8
UNIT-DIM
  6
CONTINUOUS
 62
     7
  2
_FILLED
 10
96.0
 20
128.98543417240001
 30
0.0
 41
4.0
 42
4.0
 43
4.0
  0
ENDBLK
  5
135
  8
0
  6
ByBlock
 62
     0
  0
ENDSEC
  0
SECTION
  2
ENTITIES
  0
DIMENSION
  5
136
  8
UNIT-DIM
  6
CONTINUOUS
 62
     7
  2
*D1
 10
171.0
 20
29.175307977700001
 30
0.0
 11
144.94999999999999
 21
27.675307977700001
 31
0.0
 70
   128
 13
120.5
 23
65.122382956199999
 33
0.0
 14
171.0
 24
80.921240023300015
 34
0.0
  0
DIMENSION
  5
137
  8
UNIT-DIM
  6
CONTINUOUS
 62
     7
  2
*D2
 10
166.88651810490001
 20
80.921240023300015
 30
0.0
 11
155.21166874459999
 21
37.058334079399998
 31
0.0
 70
   128
 13
163.71151810489999
 23
65.796240023300001
 33
0.0
 14
171.24269777110001
 24
80.921240023300015
 34
0.0
 50
90.0
  0
DIMENSION
  5
138
  8
CURB-24-DIM
  6
CONTINUOUS
 62
     6
  2
*D3
 10
259.31239599999998
 20
20.8468579181
 30
0.0
 11
190.668666
 21
20.8468579181
 31
0.0
 70
   128
 13
123.62493600000001
 23
16.832062597
 33
0.0
 14
259.31239599999998
 24
67.546240023300001
 34
0.0
  0
DIMENSION
  5
139
  8
UNIT-DIM
  6
CONTINUOUS
 62
     7
  2
*D4
 10
261.99999987939998
 20
128.98543417240001
 30
0.0
 11
193.4421666202
 21
127.48543417240001
 31
0.0
 70
   128
 13
120.5
 23
123.14904810189999
 33
0.0
 14
261.99999987939998
 24
123.92954114360001
 34
0.0
  0
DIMENSION
  5
13A
  8
UNIT-DIM
  6
CONTINUOUS
 62
     7
  2
*D5
 10
275.28449905410002
 20
123.17115589150001
 30
0.0
 11
274.48449905410001
 21
92.983697957399997
 31
0.0
 70
   128
 13
261.8974401067
 23
65.796240023300001
 33
0.0
 14
278.45949905409998
 24
123.17115589150001
 34
0.0
 50
90.0
  0
DIMENSION
  5
13B
  8
CURB-24-DIM
  6
CONTINUOUS
 62
     6
  2
*D6
 10
83.281896298900008
 20
68.796240023300001
 30
0.0
 11
82.481896298899997
 21
58.253357192399989
 31
0.0
 70
   128
 13
122.37493600000001
 23
44.797969269799992
 33
0.0
 14
123.62493600000001
 24
68.796240023300001
 34
0.0
 50
90.0
  0
DIMENSION
  5
13C
  8
SERVCLRDIM
  6
CONTINUOUS
 62
     1
  2
*D7
 10
96.0
 20
107.2878618713
 30
0.0
 11
48.0
 21
105.7878618713
 31
0.0
 70
   128
 13
0.0
 23
65.796240023300001
 33
0.0
 14
96.0
 24
103.08574631250001
 34
0.0
  0
DIMENSION
  5
13D
  8
SERVCLRDIM
  6
CONTINUOUS
 62
     1
  2
*D8
 10
261.99999987939998
 20
107.2878618713
 30
0.0
 11
283.03367433160003
 21
105.7878618713
 31
0.0
 70
   128
 13
297.99999987939998
 23
110.6265146537
 33
0.0
 14
261.99999987939998
 24
104.1128618713
 34
0.0
 50
180.0
  0
DIMENSION
  5
13E
  8
CURB-14-DIM
  6
CONTINUOUS
 62
     6
  2
*D9
 10
259.31239599999998
 20
20.7831650647
 30
0.0
 11
190.668666
 21
20.7831650647
 31
0.0
 70
   128
 13
123.62493600000001
 23
67.650436858199996
 33
0.0
 14
259.31239599999998
 24
67.546240023300001
 34
0.0
  0
DIMENSION
  5
13F
  8
CURB-14-DIM
  6
CONTINUOUS
 62
     6
  2
*D10
 10
103.496446197
 20
54.796240023300001
 30
0.0
 11
102.696446197
 21
63.956362222899998
 31
0.0
 70
   128
 13
123.62493600000001
 23
68.796240023300001
 33
0.0
 14
121.9681565174
 24
54.796240023300001
 34
0.0
 50
270.0
  0
DIMENSION
  5
140
  8
SERVCLRDIM
  6
CONTINUOUS
 62
     1
  2
*D11
 10
269.28695042840002
 20
65.796240023300001
 30
0.0
 11
292.57738082679998
 21
48.481904010999997
 31
0.0
 70
   128
 13
258.43640385250001
 23
68.796240023300001
 33
0.0
 14
262.00000014049999
 24
65.796240023300001
 34
0.0
 50
270.0
  0
DIMENSION
  5
141
  8
UNIT-DIM
  6
CONTINUOUS
 62
     7
  2
*D12
 10
96.0
 20
128.98543417240001
 30
0.0
 11
107.45
 21
127.48543417240001
 31
0.0
 70
   128
 13
120.5
 23
123.17115589150001
 33
0.0
 14
96.0
 24
123.5818516505
 34
0.0
 50
180.0
  0
LINE
  5
142
  8
NOTES
  6
CONTINUOUS
 62
     1
 10
0.0
 20
0.0
 30
0.0
 11
48.0
 21
0.0
 31
0.0
  0
LINE
  5
143
  8
NOTES
  6
CONTINUOUS
 62
     1
 10
0.0
 20
0.0
 30
0.0
 11
0.0
 21
36.5
 31
0.0
  0
LINE
  5
144
  8
NOTES
  6
CONTINUOUS
 62
     1
 10
0.0
 20
4.0
 30
0.0
 11
48.0
 21
4.0
 31
0.0
  0
LINE
  5
145
  8
NOTES
  6
CONTINUOUS
 62
     1
 10
0.0
 20
4.5
 30
0.0
 11
48.0
 21
4.5
 31
0.0
  0
LINE
  5
146
  8
NOTES
  6
CONTINUOUS
 62
     1
 10
0.0
 20
8.5
 30
0.0
 11
48.0
 21
8.5
 31
0.0
  0
LINE
  5
147
  8
NOTES
  6
CONTINUOUS
 62
     1
 10
0.0
 20
12.5
 30
0.0
 11
48.0
 21
12.5
 31
0.0
  0
LINE
  5
148
  8
NOTES
  6
CONTINUOUS
 62
     1
 10
0.0
 20
16.5
 30
0.0
 11
48.0
 21
16.5
 31
0.0
  0
LINE
  5
149
  8
NOTES
  6
CONTINUOUS
 62
     1
 10
0.0
 20
20.5
 30
0.0
 11
48.0
 21
20.5
 31
0.0
  0
LINE
  5
14A
  8
NOTES
  6
CONTINUOUS
 62
     1
 10
0.0
 20
24.5
 30
0.0
 11
48.0
 21
24.5
 31
0.0
  0
LINE
  5
14B
  8
NOTES
  6
CONTINUOUS
 62
     1
 10
0.0
 20
28.5
 30
0.0
 11
48.0
 21
28.5
 31
0.0
  0
LINE
  5
14C
  8
NOTES
  6
CONTINUOUS
 62
     1
 10
0.0
 20
32.5
 30
0.0
 11
48.0
 21
32.5
 31
0.0
  0
LINE
  5
14D
  8
NOTES
  6
CONTINUOUS
 62
     1
 10
0.0
 20
36.5
 30
0.0
 11
48.0
 21
36.5
 31
0.0
  0
LINE
  5
14E
  8
NOTES
  6
CONTINUOUS
 62
     1
 10
16.0
 20
12.5
 30
0.0
 11
16.0
 21
36.5
 31
0.0
  0
LINE
  5
14F
  8
NOTES
  6
CONTINUOUS
 62
     1
 10
48.0
 20
0.0
 30
0.0
 11
48.0
 21
36.5
 31
0.0
  0
TEXT
  5
150
  8
NOTES
  6
CONTINUOUS
 62
     1
 10
0.8
 20
1.0
 30
0.0
 40
2.0
  1
VIEW: FRONT
 41
0.8
  0
TEXT
  5
151
  8
NOTES
  6
CONTINUOUS
 62
     1
 10
0.8
 20
5.5
 30
0.0
 40
2.0
  1
FILE NAME: 
 41
0.8
  0
TEXT
  5
152
  8
NOTES
  6
CONTINUOUS
 62
     1
 10
18.399999999999999
 20
5.5
 30
0.0
 40
2.0
  1
TMY80-F-
 41
0.8
  0
TEXT
  5
153
  8
NOTES
  6
CONTINUOUS
 62
     1
 10
17.066666666666659
 20
9.5
 30
0.0
 40
2.0
  1
LAYER KEY
 41
0.8
 72
     1
 11
24.0
 21
9.5
 31
0.0
  0
TEXT
  5
154
  8
NOTES
  6
CONTINUOUS
 62
     7
 10
2.6666666666666661
 20
13.5
 30
0.0
 40
2.0
  1
-
 41
8.0
  7
TEXTSTYLE_2
 72
     1
 11
8.0
 21
13.5
 31
0.0
  0
TEXT
  5
155
  8
NOTES
  6
CONTINUOUS
 62
     1
 10
16.800000000000001
 20
13.5
 30
0.0
 40
2.0
  1
UNIT
 41
0.8
  0
TEXT
  5
156
  8
NOTES
  6
CONTINUOUS
 62
     6
 10
2.6666666666666661
 20
17.5
 30
0.0
 40
2.0
  1
-
 41
8.0
  7
TEXTSTYLE_2
 72
     1
 11
8.0
 21
17.5
 31
0.0
  0
TEXT
  5
157
  8
NOTES
  6
CONTINUOUS
 62
     1
 10
16.800000000000001
 20
17.5
 30
0.0
 40
2.0
  1
ROOF CURB
 41
0.8
  0
TEXT
  5
158
  8
NOTES
  6
CONTINUOUS
 62
     1
 10
2.6666666666666661
 20
21.5
 30
0.0
 40
2.0
  1
-
 41
8.0
  7
TEXTSTYLE_2
 72
     1
 11
8.0
 21
21.5
 31
0.0
  0
TEXT
  5
159
  8
NOTES
  6
CONTINUOUS
 62
     1
 10
16.800000000000001
 20
21.5
 30
0.0
 40
2.0
  1
SERVICE CLEARANCE
 41
0.8
  0
TEXT
  5
15A
  8
NOTES
  6
CONTINUOUS
 62
     2
 10
2.6666666666666661
 20
25.5
 30
0.0
 40
2.0
  1
-
 41
8.0
  7
TEXTSTYLE_2
 72
     1
 11
8.0
 21
25.5
 31
0.0
  0
TEXT
  5
15B
  8
NOTES
  6
CONTINUOUS
 62
     1
 10
16.800000000000001
 20
25.5
 30
0.0
 40
2.0
  1
UNIT DUCTS
 41
0.8
  0
TEXT
  5
15C
  8
NOTES
  6
CONTINUOUS
 62
     5
 10
2.6666666666666661
 20
29.5
 30
0.0
 40
2.0
  1
-
 41
8.0
  7
TEXTSTYLE_2
 72
     1
 11
8.0
 21
29.5
 31
0.0
  0
TEXT
  5
15D
  8
NOTES
  6
CONTINUOUS
 62
     1
 10
16.800000000000001
 20
29.5
 30
0.0
 40
2.0
  1
CURB DUCTS
 41
0.8
  0
TEXT
  5
15E
  8
NOTES
  6
HIDDEN
 62
     8
 10
2.6666666666666661
 20
33.5
 30
0.0
 40
2.0
  1
-
 41
8.0
  7
TEXTSTYLE_2
 72
     1
 11
8.0
 21
33.5
 31
0.0
  0
TEXT
  5
15F
  8
NOTES
  6
CONTINUOUS
 62
     1
 10
16.800000000000001
 20
33.5
 30
0.0
 40
2.0
  1
UNIT HIDDEN
 41
0.8
  0
TEXT
  5
160
  8
NOTES
  6
CONTINUOUS
 62
     1
 10
192.06391970729999
 20
32.973501688500001
 30
0.0
 40
2.0
  1
3/4"-14 NPT GAS CONNECTION 
 41
0.8
  0
LINE
  5
161
  8
NOTES
  6
CONTINUOUS
 62
     1
 10
171.3186283311
 20
79.737662865499999
 30
0.0
 11
185.252780976
 21
33.973501688500001
 31
0.0
  0
LINE
  5
162
  8
NOTES
  6
CONTINUOUS
 62
     1
 10
185.252780976
 20
33.973501688500001
 30
0.0
 11
192.06391970729999
 21
33.973501688500001
 31
0.0
  0
SOLID
  5
163
  8
NOTES
  6
CONTINUOUS
 62
     1
 10
173.2012080726
 20
76.129561769799992
 30
0.0
 11
171.3186283311
 21
79.737662865499999
 31
0.0
 12
171.76624905169999
 22
75.692649183200004
 32
0.0
 13
171.76624905169999
 23
75.692649183200004
 33
0.0
  0
TEXT
  5
164
  8
NOTES
  6
CONTINUOUS
 62
     1
 10
131.6659360163666
 20
96.080152292099996
 30
0.0
 40
2.0
  1
CONTROL
 41
0.8
 72
     1
 11
136.9992693497
 21
96.080152292099996
 31
0.0
  0
TEXT
  5
165
  8
NOTES
  6
CONTINUOUS
 62
     1
 10
134.86593601636659
 20
93.080152292099996
 30
0.0
 40
2.0
  1
BOX
 41
0.8
 72
     1
 11
136.9992693497
 21
93.080152292099996
 31
0.0
  0
TEXT
  5
166
  8
NOTES
  6
CONTINUOUS
 62
     1
 10
132.46593601636661
 20
90.080152292099996
 30
0.0
 40
2.0
  1
ACCESS
 41
0.8
 72
     1
 11
136.9992693497
 21
90.080152292099996
 31
0.0
  0
TEXT
  5
167
  8
NOTES
  6
CONTINUOUS
 62
     1
 10
177.44709847346661
 20
72.344296840500007
 30
0.0
 40
2.0
  1
GAS ACCESS
 41
0.8
 72
     1
 11
185.18043180679999
 21
72.344296840500007
 31
0.0
  0
TEXT
  5
168
  8
NOTES
  6
CONTINUOUS
 62
     1
 10
181.2221398569333
 20
106.76922800209999
 30
0.0
 40
2.0
  1
INDOOR
 41
0.8
 72
     1
 11
185.4888065236
 21
106.76922800209999
 31
0.0
  0
TEXT
  5
169
  8
NOTES
  6
CONTINUOUS
 62
     1
 10
180.68880652359999
 20
103.76922800209999
 30
0.0
 40
2.0
  1
BLOWER
 41
0.8
 72
     1
 11
185.4888065236
 21
103.76922800209999
 31
0.0
  0
TEXT
  5
16A
  8
NOTES
  6
CONTINUOUS
 62
     1
 10
180.95547319026659
 20
100.76922800209999
 30
0.0
 40
2.0
  1
ACCESS
 41
0.8
 72
     1
 11
185.4888065236
 21
100.76922800209999
 31
0.0
  0
TEXT
  5
16B
  8
NOTES
  6
CONTINUOUS
 62
     1
 10
150.60255997223331
 20
99.923402824699991
 30
0.0
 40
2.0
  1
FILTER
 41
0.8
 72
     1
 11
154.86922663889999
 21
99.923402824699991
 31
0.0
  0
TEXT
  5
16C
  8
NOTES
  6
CONTINUOUS
 62
     1
 10
151.6692266389
 20
96.923402824699991
 30
0.0
 40
2.0
  1
AND 
 41
0.8
 72
     1
 11
154.86922663889999
 21
96.923402824699991
 31
0.0
  0
TEXT
  5
16D
  8
NOTES
  6
CONTINUOUS
 62
     1
 10
150.60255997223331
 20
93.923402824700005
 30
0.0
 40
2.0
  1
INDOOR
 41
0.8
 72
     1
 11
154.86922663889999
 21
93.923402824700005
 31
0.0
  0
TEXT
  5
16E
  8
NOTES
  6
CONTINUOUS
 62
     1
 10
152.2025599722333
 20
90.923402824699991
 30
0.0
 40
2.0
  1
COIL
 41
0.8
 72
     1
 11
154.86922663889999
 21
90.923402824699991
 31
0.0
  0
TEXT
  5
16F
  8
NOTES
  6
CONTINUOUS
 62
     1
 10
150.3358933055666
 20
87.923402824699977
 30
0.0
 40
2.0
  1
ACCESS
 41
0.8
 72
     1
 11
154.86922663889999
 21
87.923402824699977
 31
0.0
  0
LINE
  5
170
  8
SERVCLEAR
  6
DASHED
 62
     1
 10
0.0
 20
123.04595209999999
 30
0.0
 11
0.0
 21
65.796240023300001
 31
0.0
  0
LINE
  5
171
  8
0
  6
CONTINUOUS
 62
     7
 10
0.0
 20
0.0
 30
0.0
 11
0.0
 21
150.0
 31
0.0
  0
LINE
  5
172
  8
0
  6
CONTINUOUS
 62
     7
 10
0.0
 20
0.0
 30
0.0
 11
325.0
 21
0.0
 31
0.0
  0
LINE
  5
173
  8
SERVCLEAR
  6
DASHED
 62
     1
 10
96.0
 20
123.17095209999999
 30
0.0
 11
96.0
 21
65.796240023300001
 31
0.0
  0
LINE
  5
174
  8
HOODS
  6
CONTINUOUS
 62
     7
 10
96.29812691459999
 20
97.4856131417
 30
0.0
 11
96.29812691459999
 21
95.431897193099985
 31
0.0
  0
LINE
  5
175
  8
HOODS
  6
CONTINUOUS
 62
     7
 10
96.0
 20
95.133770278599997
 30
0.0
 11
96.29812691459999
 21
95.431897193099985
 31
0.0
  0
LINE
  5
176
  8
HOODS
  6
CONTINUOUS
 62
     7
 10
120.5
 20
113.5416447015
 30
0.0
 11
96.29812691459999
 21
97.4856131417
 31
0.0
  0
LINE
  5
177
  8
HOODS
  6
CONTINUOUS
 62
     7
 10
102.60394332209999
 20
86.84523577569999
 30
0.0
 11
102.6355658211
 21
86.880356118899996
 31
0.0
  0
LINE
  5
178
  8
UNIT-SOL
  6
CONTINUOUS
 62
     7
 10
120.5
 20
123.17115589150001
 30
0.0
 11
120.5
 21
65.796240023300001
 31
0.0
  0
POLYLINE
  5
179
  8
CURB-24
  6
DOT
 62
     6
 66
     1
 10
0.0
 20
0.0
 30
0.0
 40
0.0098425199
 41
0.0098425199
  0
VERTEX
  5
254
  8
CURB-24
  6
DOT
 62
     6
 10
123.62493600000001
 20
67.650436858199996
 30
0.0
  0
VERTEX
  5
255
  8
CURB-24
  6
DOT
 62
     6
 10
123.62493600000001
 20
68.796240023300001
 30
0.0
  0
SEQEND
  5
256
  8
CURB-24
  6
DOT
 62
     6
  0
POLYLINE
  5
17D
  8
CURB-14
  6
DOT
 62
     6
 66
     1
 10
0.0
 20
0.0
 30
0.0
 40
0.0098425199
 41
0.0098425199
  0
VERTEX
  5
257
  8
CURB-14
  6
DOT
 62
     6
 10
123.62493600000001
 20
67.650436858199996
 30
0.0
  0
VERTEX
  5
258
  8
CURB-14
  6
DOT
 62
     6
 10
123.62493600000001
 20
68.796240023300001
 30
0.0
  0
SEQEND
  5
259
  8
CURB-14
  6
DOT
 62
     6
  0
POLYLINE
  5
181
  8
CURB-24
  6
CONTINUOUS
 62
     6
 66
     1
 10
0.0
 20
0.0
 30
0.0
 40
0.0118110237
 41
0.0118110237
  0
VERTEX
  5
25A
  8
CURB-24
  6
CONTINUOUS
 62
     6
 10
125.37493600000001
 20
65.796240023300001
 30
0.0
  0
VERTEX
  5
25B
  8
CURB-24
  6
CONTINUOUS
 62
     6
 10
125.37493600000001
 20
44.797969269799992
 30
0.0
  0
SEQEND
  5
25C
  8
CURB-24
  6
CONTINUOUS
 62
     6
  0
POLYLINE
  5
185
  8
CURB-14
  6
CONTINUOUS
 62
     6
 66
     1
 10
0.0
 20
0.0
 30
0.0
 40
0.0118110237
 41
0.0118110237
  0
VERTEX
  5
25D
  8
CURB-14
  6
CONTINUOUS
 62
     6
 10
125.37493600000001
 20
65.796240023300001
 30
0.0
  0
VERTEX
  5
25E
  8
CURB-14
  6
CONTINUOUS
 62
     6
 10
125.37493600000001
 20
54.796240023300001
 30
0.0
  0
SEQEND
  5
25F
  8
CURB-14
  6
CONTINUOUS
 62
     6
  0
POLYLINE
  5
189
  8
CURB-14
  6
DOT
 62
     6
 66
     1
 10
0.0
 20
0.0
 30
0.0
 40
0.0098425199
 41
0.0098425199
  0
VERTEX
  5
260
  8
CURB-14
  6
DOT
 62
     6
 10
125.37493600000001
 20
65.796240023300001
 30
0.0
  0
VERTEX
  5
261
  8
CURB-14
  6
DOT
 62
     6
 10
125.37493600000001
 20
67.648958686499995
 30
0.0
  0
SEQEND
  5
262
  8
CURB-14
  6
DOT
 62
     6
  0
POLYLINE
  5
18D
  8
CURB-24
  6
DOT
 62
     6
 66
     1
 10
0.0
 20
0.0
 30
0.0
 40
0.0098425199
 41
0.0098425199
  0
VERTEX
  5
263
  8
CURB-24
  6
DOT
 62
     6
 10
125.37493600000001
 20
65.796240023300001
 30
0.0
  0
VERTEX
  5
264
  8
CURB-24
  6
DOT
 62
     6
 10
125.37493600000001
 20
67.648958686499995
 30
0.0
  0
SEQEND
  5
265
  8
CURB-24
  6
DOT
 62
     6
  0
LINE
  5
191
  8
UNIT-SOL
  6
CONTINUOUS
 62
     7
 10
127.0750763767
 20
69.476404517899994
 30
0.0
 11
127.0750763767
 21
121.7949068847
 31
0.0
  0
LINE
  5
192
  8
HOODS
  6
CONTINUOUS
 62
     7
 10
103.5629199065
 20
86.045362749899994
 30
0.0
 11
120.5
 21
93.943252904299996
 31
0.0
  0
LINE
  5
193
  8
HOODS
  6
CONTINUOUS
 62
     7
 10
96.0
 20
95.133770278599997
 30
0.0
 11
96.024012210799995
 21
95.109758067800016
 31
0.0
  0
POLYLINE
  5
194
  8
CURB-24
  6
CONTINUOUS
 62
     6
 66
     1
 10
0.0
 20
0.0
 30
0.0
 40
0.0098425199
 41
0.0098425199
  0
VERTEX
  5
266
  8
CURB-24
  6
CONTINUOUS
 62
     6
 10
122.37493600000001
 20
44.797969269799992
 30
0.0
  0
VERTEX
  5
267
  8
CURB-24
  6
CONTINUOUS
 62
     6
 10
260.56239599999998
 20
44.797969269799992
 30
0.0
  0
SEQEND
  5
268
  8
CURB-24
  6
CONTINUOUS
 62
     6
  0
LINE
  5
198
  8
HOODS
  6
CONTINUOUS
 62
     7
 10
103.497987454
 20
86.040234823600002
 30
0.0
 11
102.60394332209999
 21
86.84523577569999
 31
0.0
  0
LINE
  5
199
  8
HOODS
  6
CONTINUOUS
 62
     7
 10
103.5629199065
 20
86.045362749899994
 30
0.0
 11
102.6355658211
 21
86.880356118899996
 31
0.0
  0
LINE
  5
19A
  8
HOODS
  6
CONTINUOUS
 62
     7
 10
104.9749169951
 20
85.572789864900002
 30
0.0
 11
120.5
 21
71.593942339199998
 31
0.0
  0
LINE
  5
19B
  8
UNIT-SOL
  6
CONTINUOUS
 62
     7
 10
146.53926306189999
 20
69.476404486299998
 30
0.0
 11
146.53926306189999
 21
121.7949068847
 31
0.0
  0
LINE
  5
19C
  8
UNIT-SOL
  6
CONTINUOUS
 62
     7
 10
148.56478863789999
 20
69.476404482999996
 30
0.0
 11
148.56478863789999
 21
121.7949068847
 31
0.0
  0
POLYLINE
  5
19D
  8
CURB-14
  6
CONTINUOUS
 62
     6
 66
     1
 10
0.0
 20
0.0
 30
0.0
 40
0.0098425199
 41
0.0098425199
  0
VERTEX
  5
269
  8
CURB-14
  6
CONTINUOUS
 62
     6
 10
122.37493600000001
 20
54.796240023300001
 30
0.0
  0
VERTEX
  5
26A
  8
CURB-14
  6
CONTINUOUS
 62
     6
 10
260.56239599999998
 20
54.796240023300001
 30
0.0
  0
SEQEND
  5
26B
  8
CURB-14
  6
CONTINUOUS
 62
     6
  0
LINE
  5
1A1
  8
UNIT-SOL
  6
CONTINUOUS
 62
     7
 10
161.2397871997
 20
69.476404462399998
 30
0.0
 11
161.2397871997
 21
121.7949068847
 31
0.0
  0
LINE
  5
1A2
  8
SERVCLEAR
  6
DASHED
 62
     1
 10
297.99999987939998
 20
65.796240023300001
 30
0.0
 11
261.99999987939998
 21
65.796240023300001
 31
0.0
  0
LINE
  5
1A3
  8
SERVCLEAR
  6
DASHED
 62
     1
 10
96.0
 20
65.796240023300001
 30
0.0
 11
0.0
 21
65.796240023300001
 31
0.0
  0
LINE
  5
1A4
  8
UNIT-SOL
  6
CONTINUOUS
 62
     7
 10
120.5
 20
65.796240023300001
 30
0.0
 11
262.00000014049999
 21
65.796240023300001
 31
0.0
  0
POLYLINE
  5
1A5
  8
CURB-24
  6
DOT
 62
     6
 66
     1
 10
0.0
 20
0.0
 30
0.0
 40
0.0098425199
 41
0.0098425199
  0
VERTEX
  5
26C
  8
CURB-24
  6
DOT
 62
     6
 10
123.62493600000001
 20
68.796240023300001
 30
0.0
  0
VERTEX
  5
26D
  8
CURB-24
  6
DOT
 62
     6
 10
259.31239599999998
 20
68.796240023300001
 30
0.0
  0
SEQEND
  5
26E
  8
CURB-24
  6
DOT
 62
     6
  0
POLYLINE
  5
1A9
  8
CURB-14
  6
DOT
 62
     6
 66
     1
 10
0.0
 20
0.0
 30
0.0
 40
0.0098425199
 41
0.0098425199
  0
VERTEX
  5
26F
  8
CURB-14
  6
DOT
 62
     6
 10
123.62493600000001
 20
68.796240023300001
 30
0.0
  0
VERTEX
  5
270
  8
CURB-14
  6
DOT
 62
     6
 10
259.31239599999998
 20
68.796240023300001
 30
0.0
  0
SEQEND
  5
271
  8
CURB-14
  6
DOT
 62
     6
  0
LINE
  5
1AD
  8
UNIT-SOL
  6
CONTINUOUS
 62
     7
 10
127.0750763767
 20
69.476404517899994
 30
0.0
 11
146.53926306189999
 21
69.476404486299998
 31
0.0
  0
LINE
  5
1AE
  8
UNIT-SOL
  6
CONTINUOUS
 62
     7
 10
148.56478863789999
 20
69.476404482999996
 30
0.0
 11
161.2397871997
 21
69.476404462399998
 31
0.0
  0
LINE
  5
1AF
  8
UNIT-SOL
  6
CONTINUOUS
 62
     7
 10
172.60281771279989
 20
69.476404443999996
 30
0.0
 11
197.7477536442
 21
69.476404403100005
 31
0.0
  0
POLYLINE
  5
1B0
  8
CURB-24
  6
DOT
 62
     6
 66
     1
 10
0.0
 20
0.0
 30
0.0
 40
0.0098425199
 41
0.0098425199
  0
VERTEX
  5
272
  8
CURB-24
  6
DOT
 62
     6
 10
259.31239599999998
 20
67.546240023300001
 30
0.0
  0
VERTEX
  5
273
  8
CURB-24
  6
DOT
 62
     6
 10
123.62493600000001
 20
67.650436858199996
 30
0.0
  0
SEQEND
  5
274
  8
CURB-24
  6
DOT
 62
     6
  0
POLYLINE
  5
1B4
  8
CURB-14
  6
DOT
 62
     6
 66
     1
 10
0.0
 20
0.0
 30
0.0
 40
0.0098425199
 41
0.0098425199
  0
VERTEX
  5
275
  8
CURB-14
  6
DOT
 62
     6
 10
259.31239599999998
 20
67.546240023300001
 30
0.0
  0
VERTEX
  5
276
  8
CURB-14
  6
DOT
 62
     6
 10
123.62493600000001
 20
67.650436858199996
 30
0.0
  0
SEQEND
  5
277
  8
CURB-14
  6
DOT
 62
     6
  0
LINE
  5
1B8
  8
HOODS
  6
CONTINUOUS
 62
     7
 10
103.497987454
 20
86.040234823600002
 30
0.0
 11
104.9749169951
 21
85.572789864900002
 31
0.0
  0
LINE
  5
1B9
  8
UNIT-SOL
  6
CONTINUOUS
 62
     7
 10
172.60281771279989
 20
69.476404443999996
 30
0.0
 11
172.60281771279989
 21
85.888821419700008
 31
0.0
  0
LINE
  5
1BA
  8
UNIT-SOL
  6
CONTINUOUS
 62
     7
 10
172.60281771279989
 20
86.545571454500006
 30
0.0
 11
172.60281771279989
 21
121.7949068847
 31
0.0
  0
LINE
  5
1BB
  8
UNIT-SOL
  6
CONTINUOUS
 62
     7
 10
192.34564312219999
 20
77.448114112799999
 30
0.0
 11
178.41098295059999
 21
77.448114112799999
 31
0.0
  0
LINE
  5
1BC
  8
UNIT-SOL
  6
CONTINUOUS
 62
     7
 10
198.82387455349999
 20
81.052515620600005
 30
0.0
 11
202.8855112967
 21
81.052515620600005
 31
0.0
  0
LINE
  5
1BD
  8
UNIT-SOL
  6
CONTINUOUS
 62
     7
 10
178.41098295059999
 20
81.843822217699994
 30
0.0
 11
192.34564312219999
 21
81.843822217699994
 31
0.0
  0
LINE
  5
1BE
  8
UNIT-SOL
  6
CONTINUOUS
 62
     7
 10
202.8855112967
 20
84.655139907299997
 30
0.0
 11
198.82387455349999
 21
84.655139907299997
 31
0.0
  0
LINE
  5
1BF
  8
UNIT-SOL
  6
CONTINUOUS
 62
     7
 10
172.60281771279989
 20
85.888821419700008
 30
0.0
 11
197.7477536442
 21
85.888821419700008
 31
0.0
  0
LINE
  5
1C0
  8
UNIT-SOL
  6
CONTINUOUS
 62
     7
 10
172.60281771279989
 20
86.545571454500006
 30
0.0
 11
197.7477536442
 21
86.545571454500006
 31
0.0
  0
LINE
  5
1C1
  8
UNIT-SOL
  6
CONTINUOUS
 62
     7
 10
178.41098295059999
 20
77.448114112799999
 30
0.0
 11
178.41098295059999
 21
81.843822217699994
 31
0.0
  0
LINE
  5
1C2
  8
HOODS
  6
CONTINUOUS
 62
     7
 10
96.024012210799995
 20
95.109758067800016
 30
0.0
 11
120.5
 21
95.109758067800016
 31
0.0
  0
LINE
  5
1C3
  8
UNIT-SOL
  6
CONTINUOUS
 62
     7
 10
192.34564312219999
 20
81.843822217699994
 30
0.0
 11
192.34564312219999
 21
77.448114112799999
 31
0.0
  0
LINE
  5
1C4
  8
UNIT-SOL
  6
CONTINUOUS
 62
     7
 10
197.7477536442
 20
69.476404403100005
 30
0.0
 11
197.7477536442
 21
85.888821419700008
 31
0.0
  0
LINE
  5
1C5
  8
UNIT-SOL
  6
CONTINUOUS
 62
     7
 10
197.7477536442
 20
86.545571454500006
 30
0.0
 11
197.7477536442
 21
121.7949068847
 31
0.0
  0
LINE
  5
1C6
  8
UNIT-SOL
  6
CONTINUOUS
 62
     7
 10
198.82387455349999
 20
84.655139907299997
 30
0.0
 11
198.82387455349999
 21
81.052515620600005
 31
0.0
  0
LINE
  5
1C7
  8
UNIT-SOL
  6
CONTINUOUS
 62
     7
 10
202.8855112967
 20
81.052515620600005
 30
0.0
 11
202.8855112967
 21
84.655139907299997
 31
0.0
  0
LINE
  5
1C8
  8
UNIT-SOL
  6
CONTINUOUS
 62
     7
 10
127.0750763767
 20
121.7949068847
 30
0.0
 11
146.53926306189999
 21
121.7949068847
 31
0.0
  0
LINE
  5
1C9
  8
UNIT-SOL
  6
CONTINUOUS
 62
     7
 10
148.56478863789999
 20
121.7949068847
 30
0.0
 11
161.2397871997
 21
121.7949068847
 31
0.0
  0
LINE
  5
1CA
  8
UNIT-SOL
  6
CONTINUOUS
 62
     7
 10
172.60281771279989
 20
121.7949068847
 30
0.0
 11
197.7477536442
 21
121.7949068847
 31
0.0
  0
LINE
  5
1CB
  8
SERVCLEAR
  6
DASHED
 62
     1
 10
1.0625
 20
123.17095209999999
 30
0.0
 11
96.0
 21
123.17095209999999
 31
0.0
  0
LINE
  5
1CC
  8
SERVCLEAR
  6
DASHED
 62
     1
 10
261.99999987939998
 20
123.17095209999999
 30
0.0
 11
298.74999987939998
 21
123.17095209999999
 31
0.0
  0
LINE
  5
1CD
  8
UNIT-SOL
  6
CONTINUOUS
 62
     7
 10
120.5
 20
123.17115589150001
 30
0.0
 11
261.99999987939998
 21
123.17115589150001
 31
0.0
  0
LINE
  5
1CE
  8
0
  6
CONTINUOUS
 62
     7
 10
0.0
 20
150.0
 30
0.0
 11
325.0
 21
150.0
 31
0.0
  0
POLYLINE
  5
1CF
  8
CURB-24
  6
CONTINUOUS
 62
     6
 66
     1
 10
0.0
 20
0.0
 30
0.0
 40
0.0118110237
 41
0.0118110237
  0
VERTEX
  5
278
  8
CURB-24
  6
CONTINUOUS
 62
     6
 10
257.56239599999998
 20
65.796240023300001
 30
0.0
  0
VERTEX
  5
279
  8
CURB-24
  6
CONTINUOUS
 62
     6
 10
257.56239599999998
 20
44.797969269799992
 30
0.0
  0
SEQEND
  5
27A
  8
CURB-24
  6
CONTINUOUS
 62
     6
  0
POLYLINE
  5
1D3
  8
CURB-14
  6
CONTINUOUS
 62
     6
 66
     1
 10
0.0
 20
0.0
 30
0.0
 40
0.0118110237
 41
0.0118110237
  0
VERTEX
  5
27B
  8
CURB-14
  6
CONTINUOUS
 62
     6
 10
257.56239599999998
 20
65.796240023300001
 30
0.0
  0
VERTEX
  5
27C
  8
CURB-14
  6
CONTINUOUS
 62
     6
 10
257.56239599999998
 20
54.796240023300001
 30
0.0
  0
SEQEND
  5
27D
  8
CURB-14
  6
CONTINUOUS
 62
     6
  0
POLYLINE
  5
1D7
  8
CURB-14
  6
DOT
 62
     6
 66
     1
 10
0.0
 20
0.0
 30
0.0
 40
0.0098425199
 41
0.0098425199
  0
VERTEX
  5
27E
  8
CURB-14
  6
DOT
 62
     6
 10
257.56239599999998
 20
65.796240023300001
 30
0.0
  0
VERTEX
  5
27F
  8
CURB-14
  6
DOT
 62
     6
 10
257.56239599999998
 20
67.648958686499995
 30
0.0
  0
SEQEND
  5
280
  8
CURB-14
  6
DOT
 62
     6
  0
POLYLINE
  5
1DB
  8
CURB-24
  6
DOT
 62
     6
 66
     1
 10
0.0
 20
0.0
 30
0.0
 40
0.0098425199
 41
0.0098425199
  0
VERTEX
  5
281
  8
CURB-24
  6
DOT
 62
     6
 10
257.56239599999998
 20
65.796240023300001
 30
0.0
  0
VERTEX
  5
282
  8
CURB-24
  6
DOT
 62
     6
 10
257.56239599999998
 20
67.648958686499995
 30
0.0
  0
SEQEND
  5
283
  8
CURB-24
  6
DOT
 62
     6
  0
POLYLINE
  5
1DF
  8
CURB-24
  6
DOT
 62
     6
 66
     1
 10
0.0
 20
0.0
 30
0.0
 40
0.0098425199
 41
0.0098425199
  0
VERTEX
  5
284
  8
CURB-24
  6
DOT
 62
     6
 10
259.31239599999998
 20
68.796240023300001
 30
0.0
  0
VERTEX
  5
285
  8
CURB-24
  6
DOT
 62
     6
 10
259.31239599999998
 20
67.546240023300001
 30
0.0
  0
SEQEND
  5
286
  8
CURB-24
  6
DOT
 62
     6
  0
POLYLINE
  5
1E3
  8
CURB-14
  6
DOT
 62
     6
 66
     1
 10
0.0
 20
0.0
 30
0.0
 40
0.0098425199
 41
0.0098425199
  0
VERTEX
  5
287
  8
CURB-14
  6
DOT
 62
     6
 10
259.31239599999998
 20
68.796240023300001
 30
0.0
  0
VERTEX
  5
288
  8
CURB-14
  6
DOT
 62
     6
 10
259.31239599999998
 20
67.546240023300001
 30
0.0
  0
SEQEND
  5
289
  8
CURB-14
  6
DOT
 62
     6
  0
LINE
  5
1E7
  8
SERVCLEAR
  6
DASHED
 62
     1
 10
261.99999987939998
 20
123.17095209999999
 30
0.0
 11
261.99999987939998
 21
65.796240023300001
 31
0.0
  0
LINE
  5
1E8
  8
UNIT-SOL
  6
CONTINUOUS
 62
     7
 10
261.99999987939998
 20
123.17115589150001
 30
0.0
 11
262.00000014049999
 21
65.796240023300001
 31
0.0
  0
LINE
  5
1E9
  8
SERVCLEAR
  6
DASHED
 62
     1
 10
297.99999987939998
 20
123.04595209999999
 30
0.0
 11
297.99999987939998
 21
65.796240023300001
 31
0.0
  0
LINE
  5
1EA
  8
0
  6
CONTINUOUS
 62
     7
 10
325.0
 20
0.0
 30
0.0
 11
325.0
 21
150.0
 31
0.0
  0
CIRCLE
  5
1EB
  8
UNIT-SOL
  6
CONTINUOUS
 62
     7
 10
171.0
 20
80.921240023300015
 30
0.0
 40
1.2257156691999991
  0
ENDSEC
  0
EOF
