  0
SECTION
  2
HEADER
  9
$ACADVER
  1
AC1009
  9
$INSBASE
 10
0.0
 20
0.0
 30
0.0
  9
$EXTMIN
 10
-0.004577287478071
 20
-0.0038144062317542
 30
-0.0015258207003583
  9
$EXTMAX
 10
150.00457798597
 20
125.00381498830831
 30
0.0000000349246037
  9
$LIMMIN
 10
0.0
 20
0.0
  9
$LIMMAX
 10
150.0
 20
125.0
  9
$ORTHOMODE
 70
     0
  9
$REGENMODE
 70
     1
  9
$FILLMODE
 70
     1
  9
$QTEXTMODE
 70
     0
  9
$MIRRTEXT
 70
     0
  9
$DRAGMODE
 70
     2
  9
$LTSCALE
 40
8.25
  9
$OSMODE
 70
    37
  9
$ATTMODE
 70
     1
  9
$TEXTSIZE
 40
0.2
  9
$TRACEWID
 40
0.05
  9
$TEXTSTYLE
  7
STANDARD
  9
$CLAYER
  8
0
  9
$CELTYPE
  6
BYLAYER
  9
$CECOLOR
 62
   256
  9
$DIMSCALE
 40
1.0
  9
$DIMASZ
 40
2.0
  9
$DIMEXO
 40
1.587499999999999
  9
$DIMDLI
 40
5.7000000000000002
  9
$DIMRND
 40
0.0
  9
$DIMDLE
 40
0.0
  9
$DIMEXE
 40
1.587499999999999
  9
$DIMTP
 40
0.03
  9
$DIMTM
 40
0.03
  9
$DIMTXT
 40
2.0
  9
$DIMCEN
 40
1.3500000000000001
  9
$DIMTSZ
 40
0.0
  9
$DIMTOL
 70
     1
  9
$DIMLIM
 70
     0
  9
$DIMTIH
 70
     1
  9
$DIMTOH
 70
     1
  9
$DIMSE1
 70
     0
  9
$DIMSE2
 70
     0
  9
$DIMTAD
 70
     0
  9
$DIMZIN
 70
     0
  9
$DIMBLK
  1
_FILLED
  9
$DIMASO
 70
     1
  9
$DIMSHO
 70
     1
  9
$DIMPOST
  1

  9
$DIMAPOST
  1

  9
$DIMALT
 70
     0
  9
$DIMALTD
 70
     2
  9
$DIMALTF
 40
25.399999999999999
  9
$DIMLFAC
 40
1.0
  9
$DIMTOFL
 70
     0
  9
$DIMTVP
 40
0.0
  9
$DIMTIX
 70
     0
  9
$DIMSOXD
 70
     0
  9
$DIMSAH
 70
     0
  9
$DIMBLK1
  1

  9
$DIMBLK2
  1

  9
$DIMSTYLE
  2
STANDARD
  9
$DIMCLRD
 70
     0
  9
$DIMCLRE
 70
     0
  9
$DIMCLRT
 70
     0
  9
$DIMTFAC
 40
1.0
  9
$DIMGAP
 40
0.09
  9
$LUNITS
 70
     2
  9
$LUPREC
 70
     4
  9
$SKETCHINC
 40
0.1
  9
$FILLETRAD
 40
0.0
  9
$AUNITS
 70
     0
  9
$AUPREC
 70
     0
  9
$MENU
  1
.
  9
$ELEVATION
 40
0.0
  9
$PELEVATION
 40
0.0
  9
$THICKNESS
 40
0.0
  9
$LIMCHECK
 70
     0
  9
$BLIPMODE
 70
     0
  9
$CHAMFERA
 40
0.0
  9
$CHAMFERB
 40
0.0
  9
$SKPOLY
 70
     0
  9
$TDCREATE
 40
2456328.3224452198
  9
$TDUPDATE
 40
2456328.3231115509
  9
$TDINDWG
 40
0.0006669097
  9
$TDUSRTIMER
 40
0.0006669097
  9
$USRTIMER
 70
     1
  9
$ANGBASE
 50
0.0
  9
$ANGDIR
 70
     0
  9
$PDMODE
 70
     3
  9
$PDSIZE
 40
7.9375
  9
$PLINEWID
 40
0.0
  9
$COORDS
 70
     1
  9
$SPLFRAME
 70
     0
  9
$SPLINETYPE
 70
     6
  9
$SPLINESEGS
 70
     8
  9
$ATTDIA
 70
     0
  9
$ATTREQ
 70
     1
  9
$HANDLING
 70
     1
  9
$HANDSEED
  5
513
  9
$SURFTAB1
 70
     6
  9
$SURFTAB2
 70
     6
  9
$SURFTYPE
 70
     6
  9
$SURFU
 70
     6
  9
$SURFV
 70
     6
  9
$UCSNAME
  2

  9
$UCSORG
 10
0.0
 20
0.0
 30
0.0
  9
$UCSXDIR
 10
1.0
 20
0.0
 30
0.0
  9
$UCSYDIR
 10
0.0
 20
1.0
 30
0.0
  9
$PUCSNAME
  2

  9
$PUCSORG
 10
0.0
 20
0.0
 30
0.0
  9
$PUCSXDIR
 10
1.0
 20
0.0
 30
0.0
  9
$PUCSYDIR
 10
0.0
 20
1.0
 30
0.0
  9
$USERI1
 70
     0
  9
$USERI2
 70
     0
  9
$USERI3
 70
     0
  9
$USERI4
 70
     0
  9
$USERI5
 70
     0
  9
$USERR1
 40
0.0
  9
$USERR2
 40
0.0
  9
$USERR3
 40
0.0
  9
$USERR4
 40
0.0
  9
$USERR5
 40
0.0
  9
$WORLDVIEW
 70
     1
  9
$SHADEDGE
 70
     3
  9
$SHADEDIF
 70
    70
  9
$TILEMODE
 70
     1
  9
$MAXACTVP
 70
    64
  9
$PLIMCHECK
 70
     0
  9
$PEXTMIN
 10
1.0000000000000000E+020
 20
1.0000000000000000E+020
 30
1.0000000000000000E+020
  9
$PEXTMAX
 10
-1.0000000000000000E+020
 20
-1.0000000000000000E+020
 30
-1.0000000000000000E+020
  9
$PLIMMIN
 10
0.0
 20
0.0
  9
$PLIMMAX
 10
12.0
 20
9.0
  9
$UNITMODE
 70
     0
  9
$VISRETAIN
 70
     1
  9
$PLINEGEN
 70
     0
  9
$PSLTSCALE
 70
     1
  0
ENDSEC
  0
SECTION
  2
TABLES
  0
TABLE
  2
VPORT
 70
     1
  0
VPORT
  2
*ACTIVE
 70
     0
 10
0.0
 20
0.0
 11
1.0
 21
1.0
 12
75.00000034924598
 22
62.500000291038297
 13
0.0
 23
0.0
 14
1.0
 24
1.0
 15
0.0
 25
0.0
 16
0.0
 26
0.0
 36
1.0
 17
0.0
 27
0.0
 37
0.0
 40
137.21055624981449
 41
1.1011984021304919
 42
50.0
 43
0.0
 44
0.0
 50
0.0
 51
0.0
 71
     0
 72
   100
 73
     1
 74
     1
 75
     0
 76
     0
 77
     0
 78
     0
  0
ENDTAB
  0
TABLE
  2
LTYPE
 70
     6
  0
LTYPE
  2
CONTINUOUS
 70
     0
  3
Solid line
 72
    65
 73
     0
 40
0.0
  0
LTYPE
  2
CENTER
 70
     0
  3
____ _ ____ _ ____ _ ____ _ ____ _ ____ _ ____
 72
    65
 73
     4
 40
0.6
 49
0.375
 49
-0.075
 49
0.075
 49
-0.075
  0
LTYPE
  2
HIDDEN
 70
     0
  3
- - - - - - - - - - - - - - - - - - - -
 72
    65
 73
     2
 40
0.2
 49
0.1
 49
-0.1
  0
LTYPE
  2
PHANTOM
 70
     0
  3
_____ _ _ _____ _ _ _____ _ _ _____
 72
    65
 73
     6
 40
0.8
 49
0.45
 49
-0.05
 49
0.1
 49
-0.05
 49
0.1
 49
-0.05
  0
LTYPE
  2
DOT
 70
     0
  3
. . . . . . . . . . . . . . . . . . . .
 72
    65
 73
     2
 40
0.2
 49
0.1
 49
-0.1
  0
LTYPE
  2
DASHED
 70
     0
  3
- - - - - - - - - - - - - - - - - - - -
 72
    65
 73
     2
 40
0.2
 49
0.1
 49
-0.1
  0
ENDTAB
  0
TABLE
  2
LAYER
 70
    16
  0
LAYER
  2
0
 70
     0
 62
     7
  6
CONTINUOUS
  0
LAYER
  2
DEFAULT_1
 70
     0
 62
     7
  6
CENTER
  0
LAYER
  2
DEFAULT_2
 70
     0
 62
     8
  6
HIDDEN
  0
LAYER
  2
DEFAULT_3
 70
     0
 62
     7
  6
PHANTOM
  0
LAYER
  2
CURB-14
 70
     0
 62
     6
  6
CONTINUOUS
  0
LAYER
  2
CURB-14-DIM
 70
     0
 62
     6
  6
CONTINUOUS
  0
LAYER
  2
CURB-24
 70
     0
 62
     6
  6
CONTINUOUS
  0
LAYER
  2
CURB-24-DIM
 70
     0
 62
     6
  6
CONTINUOUS
  0
LAYER
  2
HOOD
 70
     0
 62
     7
  6
CONTINUOUS
  0
LAYER
  2
NOTES
 70
     0
 62
     1
  6
CONTINUOUS
  0
LAYER
  2
SERVCLEAR
 70
     0
 62
     1
  6
CONTINUOUS
  0
LAYER
  2
SERVCLRDIM
 70
     0
 62
     1
  6
CONTINUOUS
  0
LAYER
  2
UNIT-DIM
 70
     0
 62
     7
  6
CONTINUOUS
  0
LAYER
  2
UNIT-DUCTS
 70
     0
 62
     2
  6
CONTINUOUS
  0
LAYER
  2
UNIT-SOL
 70
     0
 62
     7
  6
CONTINUOUS
  0
LAYER
  2
UNITDUCTDIM
 70
     0
 62
     2
  6
CONTINUOUS
  0
ENDTAB
  0
TABLE
  2
STYLE
 70
     3
  0
STYLE
  2
STANDARD
 70
     0
 40
0.0
 41
0.8
 50
0.0
 71
     0
 42
0.2
  3
txt
  4

  0
STYLE
  2
TEXTSTYLE_1
 70
     0
 40
0.0
 41
0.8
 50
0.0
 71
     0
 42
0.2
  3
gdt
  4

  0
STYLE
  2
TEXTSTYLE_2
 70
     0
 40
0.0
 41
8.0
 50
0.0
 71
     0
 42
0.2
  3
txt
  4

  0
ENDTAB
  0
TABLE
  2
VIEW
 70
     0
  0
ENDTAB
  0
TABLE
  2
UCS
 70
     0
  0
ENDTAB
  0
TABLE
  2
APPID
 70
     3
  0
APPID
  2
ACAD
 70
     0
  0
APPID
  2
ACAD_NAV_VCDISPLAY
 70
     0
  0
APPID
  2
ACAD_MLEADERVER
 70
     0
  0
ENDTAB
  0
TABLE
  2
DIMSTYLE
 70
     6
  0
DIMSTYLE
  2
STANDARD
 70
     0
  3

  4

  5
_FILLED
  6
_FILLED
  7
_FILLED
 40
1.0
 41
2.0
 42
1.587499999999999
 43
0.38
 44
1.587499999999999
 45
0.0
 46
0.0
 47
0.03
 48
0.03
140
2.0
141
0.09
142
0.0
143
25.399999999999999
144
1.0
145
0.0
146
1.0
147
0.09
 71
     1
 72
     0
 73
     1
 74
     1
 75
     0
 76
     0
 77
     0
 78
     4
170
     0
171
     2
172
     0
173
     0
174
     0
175
     0
176
     0
177
     0
178
     0
  0
DIMSTYLE
  2
DIMSTYLE_1
 70
     0
  3

  4

  5
_FILLED
  6
_FILLED
  7
_FILLED
 40
1.0
 41
2.0
 42
1.587499999999999
 43
0.38
 44
1.587499999999999
 45
0.0
 46
0.0
 47
0.031496063
 48
0.031496063
140
1.75
141
0.09
142
0.0
143
25.399999999999999
144
1.0
145
0.0
146
1.0
147
1.75
 71
     0
 72
     0
 73
     1
 74
     1
 75
     0
 76
     0
 77
     0
 78
     4
170
     0
171
     2
172
     0
173
     0
174
     0
175
     0
176
     0
177
     0
178
     0
  0
DIMSTYLE
  2
DIMSTYLE_2
 70
     0
  3

  4

  5
_FILLED
  6
_FILLED
  7
_FILLED
 40
1.0
 41
2.0
 42
1.587499999999999
 43
0.38
 44
1.587499999999999
 45
0.0
 46
0.0
 47
0.0196850394
 48
0.0196850394
140
1.75
141
0.09
142
0.0
143
25.399999999999999
144
1.0
145
0.0
146
1.0
147
1.75
 71
     0
 72
     0
 73
     1
 74
     1
 75
     0
 76
     0
 77
     0
 78
     4
170
     0
171
     2
172
     0
173
     0
174
     0
175
     0
176
     0
177
     0
178
     0
  0
DIMSTYLE
  2
DIMSTYLE_3
 70
     0
  3

  4

  5
_FILLED
  6
_FILLED
  7
_FILLED
 40
1.0
 41
2.0
 42
1.587499999999999
 43
0.38
 44
1.587499999999999
 45
0.0
 46
0.0
 47
0.0472440945
 48
0.0472440945
140
1.75
141
0.09
142
0.0
143
25.399999999999999
144
1.0
145
0.0
146
1.0
147
1.75
 71
     0
 72
     0
 73
     1
 74
     1
 75
     0
 76
     0
 77
     0
 78
     4
170
     0
171
     2
172
     0
173
     0
174
     0
175
     0
176
     0
177
     0
178
     0
  0
DIMSTYLE
  2
DIMSTYLE_4
 70
     0
  3

  4

  5
_FILLED
  6
_FILLED
  7
_FILLED
 40
1.0
 41
2.0
 42
1.587499999999999
 43
0.38
 44
1.587499999999999
 45
0.0
 46
0.0
 47
0.0
 48
0.0
140
1.75
141
0.09
142
0.0
143
25.399999999999999
144
1.0
145
0.0
146
1.0
147
1.75
 71
     0
 72
     0
 73
     1
 74
     1
 75
     0
 76
     0
 77
     0
 78
     4
170
     0
171
     2
172
     0
173
     0
174
     0
175
     0
176
     0
177
     0
178
     0
  0
DIMSTYLE
  2
DIMSTYLE_5
 70
     0
  3

  4

  5
_FILLED
  6
_FILLED
  7
_FILLED
 40
1.0
 41
2.0
 42
1.587499999999999
 43
0.38
 44
1.587499999999999
 45
0.0
 46
0.0
 47
0.031496063
 48
0.031496063
140
1.75
141
0.09
142
0.0
143
25.399999999999999
144
1.0
145
0.0
146
1.0
147
1.75
 71
     0
 72
     0
 73
     1
 74
     1
 75
     0
 76
     0
 77
     0
 78
     4
170
     0
171
     2
172
     0
173
     0
174
     0
175
     0
176
     0
177
     0
178
     0
  0
ENDTAB
  0
ENDSEC
  0
SECTION
  2
BLOCKS
  0
BLOCK
  8
0
  2
$MODEL_SPACE
 70
     0
 10
0.0
 20
0.0
 30
0.0
  3
$MODEL_SPACE
  1

  0
ENDBLK
  5
21
  8
0
  0
BLOCK
 67
     1
  8
0
  2
$PAPER_SPACE
 70
     0
 10
0.0
 20
0.0
 30
0.0
  3
$PAPER_SPACE
  1

  0
ENDBLK
  5
1D
 67
     1
  8
0
  0
BLOCK
  8
0
  2
_FILLED
 70
     0
 10
0.0
 20
0.0
 30
0.0
  3
_FILLED
  1

  0
SOLID
  5
21E
  8
0
  6
BYBLOCK
 62
     0
 10
0.0
 20
0.0
 30
0.0
 11
-1.0
 21
0.1875
 31
0.0
 12
-1.0
 22
-0.1875
 32
0.0
 13
-1.0
 23
-0.1875
 33
0.0
  0
ENDBLK
  5
21F
  8
0
  6
BYBLOCK
 62
     0
  0
BLOCK
  8
UNIT-DIM
  6
CONTINUOUS
 62
     7
  2
*D1
 70
     1
 10
0.0
 20
0.0
 30
0.0
  3
*D1
  1

  0
INSERT
  5
221
  8
0
  2
*U11
 10
0.0
 20
0.0
 30
0.0
  0
LINE
  5
222
  8
UNIT-DIM
  6
CONTINUOUS
 62
     7
 10
50.987379587500001
 20
64.828773542500002
 30
0.0
 11
50.987379587500001
 21
42.066849965699987
 31
0.0
  0
LINE
  5
223
  8
UNIT-DIM
  6
CONTINUOUS
 62
     7
 10
50.987379587500001
 20
42.066849965699987
 30
0.0
 11
50.987379587500001
 21
41.354349965700003
 31
0.0
  0
LINE
  5
224
  8
UNIT-DIM
  6
CONTINUOUS
 62
     7
 10
77.737379587500001
 20
71.828773542500002
 30
0.0
 11
77.737379587500001
 21
42.066849965699987
 31
0.0
  0
LINE
  5
225
  8
UNIT-DIM
  6
CONTINUOUS
 62
     7
 10
77.737379587500001
 20
42.066849965699987
 30
0.0
 11
77.737379587500001
 21
41.354349965700003
 31
0.0
  0
LINE
  5
226
  8
UNIT-DIM
  6
CONTINUOUS
 62
     7
 10
50.987379587500001
 20
42.941849965700001
 30
0.0
 11
45.987379587500001
 21
42.941849965700001
 31
0.0
  0
LINE
  5
227
  8
UNIT-DIM
  6
CONTINUOUS
 62
     7
 10
77.737379587500001
 20
42.941849965700001
 30
0.0
 11
82.737379587500001
 21
42.941849965700001
 31
0.0
  0
INSERT
  5
228
  8
UNIT-DIM
  6
CONTINUOUS
 62
     7
  2
_FILLED
 10
50.987379587500001
 20
42.941849965700001
 30
0.0
 41
2.0
 42
2.0
 43
2.0
  0
INSERT
  5
229
  8
UNIT-DIM
  6
CONTINUOUS
 62
     7
  2
_FILLED
 10
77.737379587500001
 20
42.941849965700001
 30
0.0
 41
2.0
 42
2.0
 43
2.0
 50
180.0
  0
ENDBLK
  5
22A
  8
0
  6
BYBLOCK
 62
     0
  0
BLOCK
  8
UNIT-DIM
  6
CONTINUOUS
 62
     7
  2
*D2
 70
     1
 10
0.0
 20
0.0
 30
0.0
  3
*D2
  1

  0
INSERT
  5
22C
  8
0
  2
*U12
 10
0.0
 20
0.0
 30
0.0
  0
LINE
  5
22D
  8
UNIT-DIM
  6
CONTINUOUS
 62
     7
 10
77.110687652500005
 20
73.416273542499994
 30
0.0
 11
74.849972968199992
 21
73.416273542499994
 31
0.0
  0
LINE
  5
22E
  8
UNIT-DIM
  6
CONTINUOUS
 62
     7
 10
76.437472968199984
 20
66.416273542499994
 30
0.0
 11
76.437472968199984
 21
61.416273542500001
 31
0.0
  0
LINE
  5
22F
  8
UNIT-DIM
  6
CONTINUOUS
 62
     7
 10
76.437472968199984
 20
73.416273542499994
 30
0.0
 11
76.437472968199984
 21
87.268829885499997
 31
0.0
  0
LINE
  5
230
  8
UNIT-DIM
  6
CONTINUOUS
 62
     7
 10
76.437472968199984
 20
87.268829885499997
 30
0.0
 11
71.207180456199993
 21
87.268829885499997
 31
0.0
  0
INSERT
  5
231
  8
UNIT-DIM
  6
CONTINUOUS
 62
     7
  2
_FILLED
 10
76.437472968199984
 20
66.416273542499994
 30
0.0
 41
2.0
 42
2.0
 43
2.0
 50
90.0
  0
INSERT
  5
232
  8
UNIT-DIM
  6
CONTINUOUS
 62
     7
  2
_FILLED
 10
76.437472968199984
 20
73.416273542499994
 30
0.0
 41
2.0
 42
2.0
 43
2.0
 50
270.0
  0
ENDBLK
  5
233
  8
0
  6
BYBLOCK
 62
     0
  0
BLOCK
  8
UNITDUCTDIM
  6
CONTINUOUS
 62
     2
  2
*D3
 70
     1
 10
0.0
 20
0.0
 30
0.0
  3
*D3
  1

  0
INSERT
  5
235
  8
0
  2
*U13
 10
0.0
 20
0.0
 30
0.0
  0
LINE
  5
236
  8
UNITDUCTDIM
  6
CONTINUOUS
 62
     2
 10
82.237379590900005
 20
93.133611179900001
 30
0.0
 11
82.237379590900005
 21
113.15698269950001
 31
0.0
  0
LINE
  5
237
  8
UNITDUCTDIM
  6
CONTINUOUS
 62
     2
 10
92.741329285900008
 20
93.133611179900001
 30
0.0
 11
92.741329285900008
 21
113.15698269950001
 31
0.0
  0
LINE
  5
238
  8
UNITDUCTDIM
  6
CONTINUOUS
 62
     2
 10
82.237379590900005
 20
111.5694826995
 30
0.0
 11
77.237379590900005
 21
111.5694826995
 31
0.0
  0
LINE
  5
239
  8
UNITDUCTDIM
  6
CONTINUOUS
 62
     2
 10
92.741329285900008
 20
111.5694826995
 30
0.0
 11
97.741329285900008
 21
111.5694826995
 31
0.0
  0
INSERT
  5
23A
  8
UNITDUCTDIM
  6
CONTINUOUS
 62
     2
  2
_FILLED
 10
82.237379590900005
 20
111.5694826995
 30
0.0
 41
2.0
 42
2.0
 43
2.0
  0
INSERT
  5
23B
  8
UNITDUCTDIM
  6
CONTINUOUS
 62
     2
  2
_FILLED
 10
92.741329285900008
 20
111.5694826995
 30
0.0
 41
2.0
 42
2.0
 43
2.0
 50
180.0
  0
ENDBLK
  5
23C
  8
0
  6
BYBLOCK
 62
     0
  0
BLOCK
  8
UNITDUCTDIM
  6
CONTINUOUS
 62
     2
  2
*D4
 70
     1
 10
0.0
 20
0.0
 30
0.0
  3
*D4
  1

  0
INSERT
  5
23E
  8
0
  2
*U14
 10
0.0
 20
0.0
 30
0.0
  0
LINE
  5
23F
  8
UNITDUCTDIM
  6
CONTINUOUS
 62
     2
 10
94.328829285899999
 20
91.5461111794
 30
0.0
 11
114.48946807670001
 21
91.54611117200001
 31
0.0
  0
LINE
  5
240
  8
UNITDUCTDIM
  6
CONTINUOUS
 62
     2
 10
114.48946807670001
 20
91.54611117200001
 30
0.0
 11
123.07696807639999
 21
91.546111168799996
 31
0.0
  0
LINE
  5
241
  8
UNITDUCTDIM
  6
CONTINUOUS
 62
     2
 10
93.732505509899994
 20
72.421111179600004
 30
0.0
 11
114.4894680697
 21
72.421111171999996
 31
0.0
  0
LINE
  5
242
  8
UNITDUCTDIM
  6
CONTINUOUS
 62
     2
 10
114.4894680697
 20
72.421111171999996
 30
0.0
 11
123.0769680694
 21
72.421111168799996
 31
0.0
  0
LINE
  5
243
  8
UNITDUCTDIM
  6
CONTINUOUS
 62
     2
 10
121.4894680764
 20
91.546111169400007
 30
0.0
 11
121.4894680764
 21
84.608611169400007
 31
0.0
  0
LINE
  5
244
  8
UNITDUCTDIM
  6
CONTINUOUS
 62
     2
 10
121.4894680694
 20
72.421111169399992
 30
0.0
 11
121.4894680746
 21
77.608611169399992
 31
0.0
  0
INSERT
  5
245
  8
UNITDUCTDIM
  6
CONTINUOUS
 62
     2
  2
_FILLED
 10
121.4894680764
 20
91.546111169400007
 30
0.0
 41
2.0
 42
2.0
 43
2.0
 50
90.0
  0
INSERT
  5
246
  8
UNITDUCTDIM
  6
CONTINUOUS
 62
     2
  2
_FILLED
 10
121.4894680694
 20
72.421111169399992
 30
0.0
 41
2.0
 42
2.0
 43
2.0
 50
269.99999994220002
  0
ENDBLK
  5
247
  8
0
  6
BYBLOCK
 62
     0
  0
BLOCK
  8
UNITDUCTDIM
  6
CONTINUOUS
 62
     2
  2
*D5
 70
     1
 10
0.0
 20
0.0
 30
0.0
  3
*D5
  1

  0
INSERT
  5
249
  8
0
  2
*U15
 10
0.0
 20
0.0
 30
0.0
  0
LINE
  5
24A
  8
UNITDUCTDIM
  6
CONTINUOUS
 62
     2
 10
57.612379589699998
 20
85.550221457999996
 30
0.0
 11
57.612379589799993
 21
94.794116693999996
 31
0.0
  0
LINE
  5
24B
  8
UNITDUCTDIM
  6
CONTINUOUS
 62
     2
 10
57.612379589799993
 20
94.794116693999996
 30
0.0
 11
57.612379589799993
 21
97.256616694000002
 31
0.0
  0
LINE
  5
24C
  8
UNITDUCTDIM
  6
CONTINUOUS
 62
     2
 10
74.362379587500001
 20
85.550221457899994
 30
0.0
 11
74.362379587500001
 21
86.6191384615
 31
0.0
  0
LINE
  5
24D
  8
UNITDUCTDIM
  6
CONTINUOUS
 62
     2
 10
74.362379587500001
 20
88.068492307699998
 30
0.0
 11
74.362379587500001
 21
94.794116693999996
 31
0.0
  0
LINE
  5
24E
  8
UNITDUCTDIM
  6
CONTINUOUS
 62
     2
 10
74.362379587500001
 20
94.794116693999996
 30
0.0
 11
74.362379587500001
 21
97.256616694000002
 31
0.0
  0
LINE
  5
24F
  8
UNITDUCTDIM
  6
CONTINUOUS
 62
     2
 10
57.612379589799993
 20
95.669116693999996
 30
0.0
 11
52.612379589799993
 21
95.669116693999996
 31
0.0
  0
LINE
  5
250
  8
UNITDUCTDIM
  6
CONTINUOUS
 62
     2
 10
74.362379587500001
 20
95.669116693999996
 30
0.0
 11
79.362379587500001
 21
95.669116693999996
 31
0.0
  0
INSERT
  5
251
  8
UNITDUCTDIM
  6
CONTINUOUS
 62
     2
  2
_FILLED
 10
57.612379589799993
 20
95.669116693999996
 30
0.0
 41
2.0
 42
2.0
 43
2.0
 50
359.99999999980002
  0
INSERT
  5
252
  8
UNITDUCTDIM
  6
CONTINUOUS
 62
     2
  2
_FILLED
 10
74.362379587500001
 20
95.669116693999996
 30
0.0
 41
2.0
 42
2.0
 43
2.0
 50
179.9999999998
  0
ENDBLK
  5
253
  8
0
  6
BYBLOCK
 62
     0
  0
BLOCK
  8
UNITDUCTDIM
  6
CONTINUOUS
 62
     2
  2
*D6
 70
     1
 10
0.0
 20
0.0
 30
0.0
  3
*D6
  1

  0
INSERT
  5
255
  8
0
  2
*U16
 10
0.0
 20
0.0
 30
0.0
  0
LINE
  5
256
  8
UNITDUCTDIM
  6
CONTINUOUS
 62
     2
 10
98.486505001699996
 20
66.416273542499994
 30
0.0
 11
105.5279395221
 21
66.416273542499994
 31
0.0
  0
LINE
  5
257
  8
UNITDUCTDIM
  6
CONTINUOUS
 62
     2
 10
107.42423581840001
 20
66.416273542499994
 30
0.0
 11
112.44942100359999
 21
66.416273542499994
 31
0.0
  0
LINE
  5
258
  8
UNITDUCTDIM
  6
CONTINUOUS
 62
     2
 10
114.15608767019999
 20
66.416273542499994
 30
0.0
 11
123.07696807080001
 21
66.416273542499994
 31
0.0
  0
LINE
  5
259
  8
UNITDUCTDIM
  6
CONTINUOUS
 62
     2
 10
94.328829278899974
 20
72.421111179899995
 30
0.0
 11
123.07696807080001
 21
72.421111179899995
 31
0.0
  0
LINE
  5
25A
  8
UNITDUCTDIM
  6
CONTINUOUS
 62
     2
 10
121.4894680708
 20
66.416273542499994
 30
0.0
 11
121.4894680708
 21
61.708507175999998
 31
0.0
  0
LINE
  5
25B
  8
UNITDUCTDIM
  6
CONTINUOUS
 62
     2
 10
121.4894680708
 20
61.708507175999998
 30
0.0
 11
126.0894680708
 21
61.708507175999998
 31
0.0
  0
LINE
  5
25C
  8
UNITDUCTDIM
  6
CONTINUOUS
 62
     2
 10
121.4894680708
 20
72.421111179899995
 30
0.0
 11
121.4894680708
 21
77.421111179899995
 31
0.0
  0
INSERT
  5
25D
  8
UNITDUCTDIM
  6
CONTINUOUS
 62
     2
  2
_FILLED
 10
121.4894680708
 20
66.416273542499994
 30
0.0
 41
2.0
 42
2.0
 43
2.0
 50
90.0
  0
INSERT
  5
25E
  8
UNITDUCTDIM
  6
CONTINUOUS
 62
     2
  2
_FILLED
 10
121.4894680708
 20
72.421111179899995
 30
0.0
 41
2.0
 42
2.0
 43
2.0
 50
270.0
  0
ENDBLK
  5
25F
  8
0
  6
BYBLOCK
 62
     0
  0
BLOCK
  8
UNITDUCTDIM
  6
CONTINUOUS
 62
     2
  2
*D7
 70
     1
 10
0.0
 20
0.0
 30
0.0
  3
*D7
  1

  0
INSERT
  5
261
  8
0
  2
*U17
 10
0.0
 20
0.0
 30
0.0
  0
LINE
  5
262
  8
UNITDUCTDIM
  6
CONTINUOUS
 62
     2
 10
56.024879587500003
 20
72.541273542799999
 30
0.0
 11
32.617554535300002
 21
72.541273547399996
 31
0.0
  0
LINE
  5
263
  8
UNITDUCTDIM
  6
CONTINUOUS
 62
     2
 10
56.024879589699999
 20
83.962721458299995
 30
0.0
 11
32.617554537499998
 21
83.962721462900006
 31
0.0
  0
LINE
  5
264
  8
UNITDUCTDIM
  6
CONTINUOUS
 62
     2
 10
34.2050545353
 20
72.541273547000003
 30
0.0
 11
34.2050545353
 21
74.307640225299991
 31
0.0
  0
LINE
  5
265
  8
UNITDUCTDIM
  6
CONTINUOUS
 62
     2
 10
34.205054537499997
 20
83.962721462600015
 30
0.0
 11
34.2050545353
 21
82.182640225299977
 31
0.0
  0
INSERT
  5
266
  8
UNITDUCTDIM
  6
CONTINUOUS
 62
     2
  2
_FILLED
 10
34.2050545353
 20
72.541273547000003
 30
0.0
 41
2.0
 42
2.0
 43
2.0
 50
270.0
  0
INSERT
  5
267
  8
UNITDUCTDIM
  6
CONTINUOUS
 62
     2
  2
_FILLED
 10
34.205054537499997
 20
83.962721462600015
 30
0.0
 41
2.0
 42
2.0
 43
2.0
 50
89.999999927900006
  0
ENDBLK
  5
268
  8
0
  6
BYBLOCK
 62
     0
  0
BLOCK
  8
UNITDUCTDIM
  6
CONTINUOUS
 62
     2
  2
*D8
 70
     1
 10
0.0
 20
0.0
 30
0.0
  3
*D8
  1

  0
INSERT
  5
26A
  8
0
  2
*U18
 10
0.0
 20
0.0
 30
0.0
  0
LINE
  5
26B
  8
UNITDUCTDIM
  6
CONTINUOUS
 62
     2
 10
49.926918277600002
 20
66.416273542499994
 30
0.0
 11
38.351880959600003
 21
66.416273542499994
 31
0.0
  0
LINE
  5
26C
  8
UNITDUCTDIM
  6
CONTINUOUS
 62
     2
 10
56.024879587500003
 20
72.541273542399992
 30
0.0
 11
38.351880959600003
 21
72.541273542399992
 31
0.0
  0
LINE
  5
26D
  8
UNITDUCTDIM
  6
CONTINUOUS
 62
     2
 10
39.939380959600001
 20
66.416273542499994
 30
0.0
 11
39.939380959600001
 21
60.568757740099997
 31
0.0
  0
LINE
  5
26E
  8
UNITDUCTDIM
  6
CONTINUOUS
 62
     2
 10
39.939380959600001
 20
60.568757740099997
 30
0.0
 11
33.188029388700002
 21
60.568757740099997
 31
0.0
  0
LINE
  5
26F
  8
UNITDUCTDIM
  6
CONTINUOUS
 62
     2
 10
39.939380959600001
 20
72.541273542399992
 30
0.0
 11
39.939380959600001
 21
77.541273542399992
 31
0.0
  0
INSERT
  5
270
  8
UNITDUCTDIM
  6
CONTINUOUS
 62
     2
  2
_FILLED
 10
39.939380959600001
 20
66.416273542499994
 30
0.0
 41
2.0
 42
2.0
 43
2.0
 50
90.0
  0
INSERT
  5
271
  8
UNITDUCTDIM
  6
CONTINUOUS
 62
     2
  2
_FILLED
 10
39.939380959600001
 20
72.541273542399992
 30
0.0
 41
2.0
 42
2.0
 43
2.0
 50
270.0
  0
ENDBLK
  5
272
  8
0
  6
BYBLOCK
 62
     0
  0
BLOCK
  8
UNITDUCTDIM
  6
CONTINUOUS
 62
     2
  2
*D9
 70
     1
 10
0.0
 20
0.0
 30
0.0
  3
*D9
  1

  0
INSERT
  5
274
  8
0
  2
*U19
 10
0.0
 20
0.0
 30
0.0
  0
LINE
  5
275
  8
UNITDUCTDIM
  6
CONTINUOUS
 62
     2
 10
57.612379590000003
 20
85.550221457999996
 30
0.0
 11
57.612379591599989
 21
93.377129982299991
 31
0.0
  0
LINE
  5
276
  8
UNITDUCTDIM
  6
CONTINUOUS
 62
     2
 10
57.612379591299991
 20
91.789629982299999
 30
0.0
 11
54.299879588400003
 21
91.789629982900024
 31
0.0
  0
LINE
  5
277
  8
UNITDUCTDIM
  6
CONTINUOUS
 62
     2
 10
50.987379585500001
 20
91.789629983600008
 30
0.0
 11
54.299879588400003
 21
91.789629982900024
 31
0.0
  0
LINE
  5
278
  8
UNITDUCTDIM
  6
CONTINUOUS
 62
     2
 10
54.299879588400003
 20
91.789629982900024
 30
0.0
 11
45.472323238999998
 21
91.789629982900024
 31
0.0
  0
INSERT
  5
279
  8
UNITDUCTDIM
  6
CONTINUOUS
 62
     2
  2
_FILLED
 10
57.612379591299991
 20
91.789629982299999
 30
0.0
 41
2.0
 42
2.0
 43
2.0
 50
359.99999998880003
  0
INSERT
  5
27A
  8
UNITDUCTDIM
  6
CONTINUOUS
 62
     2
  2
_FILLED
 10
50.987379585500001
 20
91.789629983600008
 30
0.0
 41
2.0
 42
2.0
 43
2.0
 50
179.9999999888
  0
ENDBLK
  5
27B
  8
0
  6
BYBLOCK
 62
     0
  0
BLOCK
  8
UNITDUCTDIM
  6
CONTINUOUS
 62
     2
  2
*D10
 70
     1
 10
0.0
 20
0.0
 30
0.0
  3
*D10
  1

  0
INSERT
  5
27D
  8
0
  2
*U20
 10
0.0
 20
0.0
 30
0.0
  0
LINE
  5
27E
  8
UNITDUCTDIM
  6
CONTINUOUS
 62
     2
 10
50.987379587500001
 20
103.3787735425
 30
0.0
 11
50.987379587500001
 21
110.6944826995
 31
0.0
  0
LINE
  5
27F
  8
UNITDUCTDIM
  6
CONTINUOUS
 62
     2
 10
50.987379587500001
 20
110.6944826995
 30
0.0
 11
50.987379587500001
 21
113.15698269950001
 31
0.0
  0
LINE
  5
280
  8
UNITDUCTDIM
  6
CONTINUOUS
 62
     2
 10
82.237379590900005
 20
93.133611179900001
 30
0.0
 11
82.237379590900005
 21
110.6944826995
 31
0.0
  0
LINE
  5
281
  8
UNITDUCTDIM
  6
CONTINUOUS
 62
     2
 10
82.237379590900005
 20
110.6944826995
 30
0.0
 11
82.237379590900005
 21
113.15698269950001
 31
0.0
  0
LINE
  5
282
  8
UNITDUCTDIM
  6
CONTINUOUS
 62
     2
 10
50.987379587500001
 20
111.5694826995
 30
0.0
 11
60.572099215400002
 21
111.5694826995
 31
0.0
  0
LINE
  5
283
  8
UNITDUCTDIM
  6
CONTINUOUS
 62
     2
 10
82.237379590900005
 20
111.5694826995
 30
0.0
 11
76.672099215399996
 21
111.5694826995
 31
0.0
  0
INSERT
  5
284
  8
UNITDUCTDIM
  6
CONTINUOUS
 62
     2
  2
_FILLED
 10
50.987379587500001
 20
111.5694826995
 30
0.0
 41
2.0
 42
2.0
 43
2.0
 50
180.0
  0
INSERT
  5
285
  8
UNITDUCTDIM
  6
CONTINUOUS
 62
     2
  2
_FILLED
 10
82.237379590900005
 20
111.5694826995
 30
0.0
 41
2.0
 42
2.0
 43
2.0
  0
ENDBLK
  5
286
  8
0
  6
BYBLOCK
 62
     0
  0
BLOCK
  8
0
  2
*U11
 70
     1
 10
0.0
 20
0.0
 30
0.0
  3
*U11
  1

  0
TEXT
  5
3F8
  8
UNIT-DIM
 62
     7
 10
56.079046254166677
 20
42.066849965699987
 30
0.0
 40
1.75
  1
2'-2 3/4"(681)
 41
0.8
  0
ENDBLK
  5
3FA
  8
0
  0
BLOCK
  8
0
  2
*U12
 70
     1
 10
0.0
 20
0.0
 30
0.0
  3
*U12
  1

  0
TEXT
  5
3FC
  8
UNIT-DIM
 62
     7
 10
60.590513789533318
 20
86.393829885499997
 30
0.0
 40
1.75
  1
7" (177)
 41
0.8
  0
ENDBLK
  5
3FE
  8
0
  0
BLOCK
  8
0
  2
*U13
 70
     1
 10
0.0
 20
0.0
 30
0.0
  3
*U13
  1

  0
TEXT
  5
400
  8
UNITDUCTDIM
 62
     2
 10
84.106021105066645
 20
110.6944826995
 30
0.0
 40
1.75
  1
10-1/2
 41
0.8
  0
TEXT
  5
401
  8
UNITDUCTDIM
 62
     2
 10
84.689354438399988
 20
107.7778160328333
 30
0.0
 40
1.75
  1
[267]
 41
0.8
  0
ENDBLK
  5
403
  8
0
  0
BLOCK
  8
0
  2
*U14
 70
     1
 10
0.0
 20
0.0
 30
0.0
  3
*U14
  1

  0
TEXT
  5
405
  8
UNITDUCTDIM
 62
     2
 10
116.4728014062333
 20
81.108611169399978
 30
0.0
 40
1.75
  1
2'-1 1/8"
 41
0.8
  0
TEXT
  5
406
  8
UNITDUCTDIM
 62
     2
 10
118.6894680729
 20
78.191944502733321
 30
0.0
 40
1.75
  1
[638]
 41
0.8
  0
ENDBLK
  5
408
  8
0
  0
BLOCK
  8
0
  2
*U15
 70
     1
 10
0.0
 20
0.0
 30
0.0
  3
*U15
  1

  0
TEXT
  5
40A
  8
UNITDUCTDIM
 62
     2
 10
60.737379588599993
 20
94.794116693999996
 30
0.0
 40
1.75
  1
1'-4 3/4"
 41
0.8
  0
TEXT
  5
40B
  8
UNITDUCTDIM
 62
     2
 10
63.187379588599988
 20
91.877450027333325
 30
0.0
 40
1.75
  1
[427]
 41
0.8
  0
ENDBLK
  5
40D
  8
0
  0
BLOCK
  8
0
  2
*U16
 70
     1
 10
0.0
 20
0.0
 30
0.0
  3
*U16
  1

  0
TEXT
  5
40F
  8
UNITDUCTDIM
 62
     2
 10
127.8394680708
 20
60.833507176000012
 30
0.0
 40
1.75
  1
6
 41
0.8
  0
TEXT
  5
410
  8
UNITDUCTDIM
 62
     2
 10
129.2394680708
 20
60.833507176000012
 30
0.0
 40
1.75
  1
 
  0
TEXT
  5
411
  8
UNITDUCTDIM
 62
     2
 10
130.9894680708
 20
60.833507176000012
 30
0.0
 40
1.75
  1
[153]
 41
0.8
  0
ENDBLK
  5
413
  8
0
  0
BLOCK
  8
0
  2
*U17
 70
     1
 10
0.0
 20
0.0
 30
0.0
  3
*U17
  1

  0
TEXT
  5
415
  8
UNITDUCTDIM
 62
     2
 10
30.705054536700001
 20
78.682640225299991
 30
0.0
 40
1.75
  1
11-3/8
 41
0.8
  0
TEXT
  5
416
  8
UNITDUCTDIM
 62
     2
 10
31.52172120336667
 20
75.76597355863332
 30
0.0
 40
1.75
  1
[290]
 41
0.8
  0
ENDBLK
  5
418
  8
0
  0
BLOCK
  8
0
  2
*U18
 70
     1
 10
0.0
 20
0.0
 30
0.0
  3
*U18
  1

  0
TEXT
  5
41A
  8
UNITDUCTDIM
 62
     2
 10
18.021362722033331
 20
59.693757740099997
 30
0.0
 40
1.75
  1
6-1/8
 41
0.8
  0
TEXT
  5
41B
  8
UNITDUCTDIM
 62
     2
 10
24.554696055366669
 20
59.693757740099997
 30
0.0
 40
1.75
  1
 
  0
TEXT
  5
41C
  8
UNITDUCTDIM
 62
     2
 10
26.304696055366669
 20
59.693757740099997
 30
0.0
 40
1.75
  1
[156]
 41
0.8
  0
ENDBLK
  5
41E
  8
0
  0
BLOCK
  8
0
  2
*U19
 70
     1
 10
0.0
 20
0.0
 30
0.0
  3
*U19
  1

  0
TEXT
  5
420
  8
UNITDUCTDIM
 62
     2
 10
37.188989905666674
 20
90.914629985000005
 30
0.0
 40
1.75
  1
6-5/8
 41
0.8
  0
TEXT
  5
421
  8
UNITDUCTDIM
 62
     2
 10
38.588989905666672
 20
87.997963318333319
 30
0.0
 40
1.75
  1
[168]
 41
0.8
  0
ENDBLK
  5
423
  8
0
  0
BLOCK
  8
0
  2
*U20
 70
     1
 10
0.0
 20
0.0
 30
0.0
  3
*U20
  1

  0
TEXT
  5
425
  8
UNITDUCTDIM
 62
     2
 10
63.372099215399999
 20
110.6944826995
 30
0.0
 40
1.75
  1
2'-7 1/4"
 41
0.8
  0
TEXT
  5
426
  8
UNITDUCTDIM
 62
     2
 10
65.822099215400002
 20
107.7778160328333
 30
0.0
 40
1.75
  1
(793)
 41
0.8
  0
ENDBLK
  5
428
  8
0
  0
BLOCK
  8
0
  2
*U21
 70
     1
 10
0.0
 20
0.0
 30
0.0
  3
*U21
  1

  0
TEXT
  5
42A
  8
SERVCLRDIM
 62
     1
 10
6.7965516789999993
 20
55.582436497799989
 30
0.0
 40
1.75
  1
OVERALL HEIGHT & CLEARANCE
 41
0.8
  0
TEXT
  5
42B
  8
SERVCLRDIM
 62
     1
 10
6.7965516789999993
 20
52.665769831133332
 30
0.0
 40
1.75
  1
AREA WILL BE DETERMINED BY
 41
0.8
  0
TEXT
  5
42C
  8
SERVCLRDIM
 62
     1
 10
6.7965516789999993
 20
49.749103164466668
 30
0.0
 40
1.75
  1
ASSEMBLY OF INSTALLER. SEE
 41
0.8
  0
TEXT
  5
42D
  8
SERVCLRDIM
 62
     1
 10
6.7965516789999993
 20
46.832436497800003
 30
0.0
 40
1.75
  1
CERTIFIED DRAWING FOR
 41
0.8
  0
TEXT
  5
42E
  8
SERVCLRDIM
 62
     1
 10
6.7965516789999993
 20
43.915769831133339
 30
0.0
 40
1.75
  1
FURTHER DETAIL.
 41
0.8
  0
ENDBLK
  5
430
  8
0
  0
BLOCK
  8
0
  2
*U22
 70
     1
 10
0.0
 20
0.0
 30
0.0
  3
*U22
  1

  0
TEXT
  5
432
  8
CURB-14-DIM
 62
     6
 10
103.78614506060001
 20
63.750917923400003
 30
0.0
 40
1.75
  1
1'-2"
 41
0.8
  0
ENDBLK
  5
434
  8
0
  0
BLOCK
  8
0
  2
*U23
 70
     1
 10
0.0
 20
0.0
 30
0.0
  3
*U23
  1

  0
TEXT
  5
436
  8
CURB-14-DIM
 62
     6
 10
66.11790100266667
 20
38.694296542499998
 30
0.0
 40
1.75
  1
3'-4 11/16"
 41
0.8
  0
ENDBLK
  5
438
  8
0
  0
BLOCK
  8
0
  2
*U24
 70
     1
 10
0.0
 20
0.0
 30
0.0
  3
*U24
  1

  0
TEXT
  5
43A
  8
UNIT-DIM
 62
     7
 10
18.888698254166659
 20
87.995276542499994
 30
0.0
 40
1.75
  1
2'-9 3/8"
 41
0.8
  0
ENDBLK
  5
43C
  8
0
  0
BLOCK
  8
0
  2
*U25
 70
     1
 10
0.0
 20
0.0
 30
0.0
  3
*U25
  1

  0
TEXT
  5
43E
  8
UNIT-DIM
 62
     7
 10
76.466546254166673
 20
117.2722530332
 30
0.0
 40
1.75
  1
3'-10 3/4"
 41
0.8
  0
ENDBLK
  5
440
  8
0
  0
BLOCK
  8
0
  2
*U26
 70
     1
 10
0.0
 20
0.0
 30
0.0
  3
*U26
  1

  0
TEXT
  5
442
  8
UNIT-DIM
 62
     7
 10
21.5720315875
 20
85.078609542500004
 30
0.0
 40
1.75
  1
(847)
 41
0.8
  0
ENDBLK
  5
444
  8
0
  0
BLOCK
  8
0
  2
*U27
 70
     1
 10
0.0
 20
0.0
 30
0.0
  3
*U27
  1

  0
TEXT
  5
446
  8
UNIT-DIM
 62
     7
 10
79.266546254166656
 20
114.3555870332
 30
0.0
 40
1.75
  1
(1187)
 41
0.8
  0
ENDBLK
  5
448
  8
0
  0
BLOCK
  8
0
  2
*U28
 70
     1
 10
0.0
 20
0.0
 30
0.0
  3
*U28
  1

  0
TEXT
  5
44A
  8
CURB-14-DIM
 62
     6
 10
103.3910790262
 20
61.307445284499998
 30
0.0
 40
1.75
  1
(356)
 41
0.8
  0
ENDBLK
  5
44C
  8
0
  0
BLOCK
  8
0
  2
*U29
 70
     1
 10
0.0
 20
0.0
 30
0.0
  3
*U29
  1

  0
TEXT
  5
44E
  8
CURB-14-DIM
 62
     6
 10
69.151234336000002
 20
35.777629542500001
 30
0.0
 40
1.75
  1
(1033)
 41
0.8
  0
ENDBLK
  5
450
  8
0
  0
BLOCK
  8
0
  2
*U30
 70
     1
 10
0.0
 20
0.0
 30
0.0
  3
*U30
  1

  0
TEXT
  5
452
  8
CURB-24-DIM
 62
     6
 10
69.151234336000002
 20
35.777629542500001
 30
0.0
 40
1.75
  1
(1033)
 41
0.8
  0
ENDBLK
  5
454
  8
0
  0
BLOCK
  8
0
  2
*U31
 70
     1
 10
0.0
 20
0.0
 30
0.0
  3
*U31
  1

  0
TEXT
  5
456
  8
CURB-24-DIM
 62
     6
 10
66.11790100266667
 20
38.694296542499998
 30
0.0
 40
1.75
  1
3'-4 11/16"
 41
0.8
  0
ENDBLK
  5
458
  8
0
  0
BLOCK
  8
0
  2
*U32
 70
     1
 10
0.0
 20
0.0
 30
0.0
  3
*U32
  1

  0
TEXT
  5
45A
  8
CURB-24-DIM
 62
     6
 10
112.23139963873329
 20
59.659284542499996
 30
0.0
 40
1.75
  1
2'
 41
0.8
  0
ENDBLK
  5
45C
  8
0
  0
BLOCK
  8
0
  2
*U33
 70
     1
 10
0.0
 20
0.0
 30
0.0
  3
*U33
  1

  0
TEXT
  5
45E
  8
CURB-24-DIM
 62
     6
 10
110.5980663054
 20
56.742618542499997
 30
0.0
 40
1.75
  1
(610)
 41
0.8
  0
ENDBLK
  5
460
  8
0
  0
BLOCK
  8
0
  2
*U34
 70
     1
 10
0.0
 20
0.0
 30
0.0
  3
*U34
  1

  0
TEXT
  5
462
  8
SERVCLRDIM
 62
     1
 10
133.4925689230333
 20
95.441980555200004
 30
0.0
 40
1.75
  1
3'
 41
0.8
  0
ENDBLK
  5
464
  8
0
  0
BLOCK
  8
0
  2
*U35
 70
     1
 10
0.0
 20
0.0
 30
0.0
  3
*U35
  1

  0
TEXT
  5
466
  8
SERVCLRDIM
 62
     1
 10
32.545712920833338
 20
95.714632542000004
 30
0.0
 40
1.75
  1
4'
 41
0.8
  0
ENDBLK
  5
468
  8
0
  0
BLOCK
  8
0
  2
*U36
 70
     1
 10
0.0
 20
0.0
 30
0.0
  3
*U36
  1

  0
TEXT
  5
46A
  8
SERVCLRDIM
 62
     1
 10
131.7425689230333
 20
92.5253135552
 30
0.0
 40
1.75
  1
(914)
 41
0.8
  0
ENDBLK
  5
46C
  8
0
  0
BLOCK
  8
0
  2
*U37
 70
     1
 10
0.0
 20
0.0
 30
0.0
  3
*U37
  1

  0
TEXT
  5
46E
  8
SERVCLRDIM
 62
     1
 10
30.32904625416667
 20
92.797965542000014
 30
0.0
 40
1.75
  1
(1219)
 41
0.8
  0
ENDBLK
  5
470
  8
0
  0
BLOCK
  8
0
  2
*U38
 70
     1
 10
0.0
 20
0.0
 30
0.0
  3
*U38
  1

  0
TEXT
  5
472
  8
NOTES
 62
     1
 10
0.8
 20
1.1248476951999991
 30
0.0
 40
1.75
  1
VIEW: RIGHT
 41
0.8
  0
ENDBLK
  5
474
  8
0
  0
BLOCK
  8
0
  2
*U39
 70
     1
 10
0.0
 20
0.0
 30
0.0
  3
*U39
  1

  0
TEXT
  5
476
  8
NOTES
 62
     1
 10
0.8
 20
5.6241623234000002
 30
0.0
 40
1.75
  1
FILE NAME: TSP10-R-
 41
0.8
  0
ENDBLK
  5
478
  8
0
  0
BLOCK
  8
0
  2
*U40
 70
     1
 10
0.0
 20
0.0
 30
0.0
  3
*U40
  1

  0
TEXT
  5
47A
  8
NOTES
 62
     1
 10
17.066666666700002
 20
9.6235531040000009
 30
0.0
 40
1.75
  1
LAYER KEY
 41
0.8
  0
ENDBLK
  5
47C
  8
0
  0
BLOCK
  8
0
  2
*U41
 70
     1
 10
0.0
 20
0.0
 30
0.0
  3
*U41
  1

  0
TEXT
  5
47E
  8
NOTES
 62
     7
 10
1.0303146667
 20
13.6229438846
 30
0.0
 40
1.75
  1
-
 41
8.0
  7
TEXTSTYLE_2
  0
ENDBLK
  5
480
  8
0
  0
BLOCK
  8
0
  2
*U42
 70
     1
 10
0.0
 20
0.0
 30
0.0
  3
*U42
  1

  0
TEXT
  5
482
  8
NOTES
 62
     1
 10
16.800000000000001
 20
13.6229438846
 30
0.0
 40
1.75
  1
UNIT
 41
0.8
  0
ENDBLK
  5
484
  8
0
  0
BLOCK
  8
0
  2
*U43
 70
     1
 10
0.0
 20
0.0
 30
0.0
  3
*U43
  1

  0
TEXT
  5
486
  8
NOTES
 62
     6
 10
1.0303146667
 20
17.6223346652
 30
0.0
 40
1.75
  1
-
 41
8.0
  7
TEXTSTYLE_2
  0
ENDBLK
  5
488
  8
0
  0
BLOCK
  8
0
  2
*U44
 70
     1
 10
0.0
 20
0.0
 30
0.0
  3
*U44
  1

  0
TEXT
  5
48A
  8
NOTES
 62
     1
 10
16.800000000000001
 20
17.6223346652
 30
0.0
 40
1.75
  1
ROOF CURB
 41
0.8
  0
ENDBLK
  5
48C
  8
0
  0
BLOCK
  8
0
  2
*U45
 70
     1
 10
0.0
 20
0.0
 30
0.0
  3
*U45
  1

  0
TEXT
  5
48E
  8
NOTES
 62
     1
 10
1.0303146667
 20
21.621725445900001
 30
0.0
 40
1.75
  1
-
 41
8.0
  7
TEXTSTYLE_2
  0
ENDBLK
  5
490
  8
0
  0
BLOCK
  8
0
  2
*U46
 70
     1
 10
0.0
 20
0.0
 30
0.0
  3
*U46
  1

  0
TEXT
  5
492
  8
NOTES
 62
     1
 10
16.800000000000001
 20
21.621725445900001
 30
0.0
 40
1.75
  1
SERVICE CLEARANCE
 41
0.8
  0
ENDBLK
  5
494
  8
0
  0
BLOCK
  8
0
  2
*U47
 70
     1
 10
0.0
 20
0.0
 30
0.0
  3
*U47
  1

  0
TEXT
  5
496
  8
NOTES
 62
     2
 10
1.0303146667
 20
25.6211162265
 30
0.0
 40
1.75
  1
-
 41
8.0
  7
TEXTSTYLE_2
  0
ENDBLK
  5
498
  8
0
  0
BLOCK
  8
0
  2
*U48
 70
     1
 10
0.0
 20
0.0
 30
0.0
  3
*U48
  1

  0
TEXT
  5
49A
  8
NOTES
 62
     1
 10
16.800000000000001
 20
25.6211162265
 30
0.0
 40
1.75
  1
UNIT DUCTS
 41
0.8
  0
ENDBLK
  5
49C
  8
0
  0
BLOCK
  8
0
  2
*U49
 70
     1
 10
0.0
 20
0.0
 30
0.0
  3
*U49
  1

  0
TEXT
  5
49E
  8
NOTES
 62
     5
 10
1.0303146667
 20
29.620507007099999
 30
0.0
 40
1.75
  1
-
 41
8.0
  7
TEXTSTYLE_2
  0
ENDBLK
  5
4A0
  8
0
  0
BLOCK
  8
0
  2
*U50
 70
     1
 10
0.0
 20
0.0
 30
0.0
  3
*U50
  1

  0
TEXT
  5
4A2
  8
NOTES
 62
     1
 10
16.800000000000001
 20
29.620507007099999
 30
0.0
 40
1.75
  1
CURB DUCTS
 41
0.8
  0
ENDBLK
  5
4A4
  8
0
  0
BLOCK
  8
0
  2
*U51
 70
     1
 10
0.0
 20
0.0
 30
0.0
  3
*U51
  1

  0
TEXT
  5
4A6
  8
NOTES
 62
     9
 10
1.0303146667
 20
33.619897787699998
 30
0.0
 40
1.75
  1
-
 41
8.0
  7
TEXTSTYLE_2
  0
ENDBLK
  5
4A8
  8
0
  0
BLOCK
  8
0
  2
*U52
 70
     1
 10
0.0
 20
0.0
 30
0.0
  3
*U52
  1

  0
TEXT
  5
4AA
  8
NOTES
 62
     1
 10
16.800000000000001
 20
33.619897787699998
 30
0.0
 40
1.75
  1
UNIT HIDDEN
 41
0.8
  0
ENDBLK
  5
4AC
  8
0
  0
BLOCK
  8
0
  2
*U53
 70
     1
 10
0.0
 20
0.0
 30
0.0
  3
*U53
  1

  0
TEXT
  5
4AE
  8
NOTES
 62
     1
 10
111.59014996099999
 20
41.564965629899987
 30
0.0
 40
1.75
  1
3/4"-14 NPT STANDARD
 41
0.8
  0
TEXT
  5
4AF
  8
NOTES
 62
     1
 10
111.59014996099999
 20
38.64829896323333
 30
0.0
 40
1.75
  1
CONDENSATE DRAIN
 41
0.8
  0
ENDBLK
  5
4B1
  8
0
  0
BLOCK
  8
0
  2
*U54
 70
     1
 10
0.0
 20
0.0
 30
0.0
  3
*U54
  1

  0
TEXT
  5
4B3
  8
NOTES
 62
     1
 10
26.473819277800001
 20
41.387273555900002
 30
0.0
 40
1.75
  1
SUPPLY AIR
 41
0.8
  0
TEXT
  5
4B4
  8
NOTES
 62
     1
 10
26.473819277800001
 20
38.470606889233338
 30
0.0
 40
1.75
  1
HORIZONTAL
 41
0.8
  0
ENDBLK
  5
4B6
  8
0
  0
BLOCK
  8
0
  2
*U55
 70
     1
 10
0.0
 20
0.0
 30
0.0
  3
*U55
  1

  0
TEXT
  5
4B8
  8
NOTES
 62
     1
 10
53.228037070833331
 20
105.47855055549999
 30
0.0
 40
1.75
  1
RETURN AIR
 41
0.8
  0
TEXT
  5
4B9
  8
NOTES
 62
     1
 10
53.228037070833331
 20
102.56188388883329
 30
0.0
 40
1.75
  1
HORIZONTAL
 41
0.8
  0
ENDBLK
  5
4BB
  8
0
  0
ENDSEC
  0
SECTION
  2
ENTITIES
  0
SOLID
  5
287
  8
SERVCLRDIM
  6
CONTINUOUS
 62
     1
 10
46.720615003599988
 20
64.416273542499994
 30
0.0
 11
46.053949003599989
 21
64.416273542499994
 31
0.0
 12
46.387281003599988
 22
66.416273542499994
 32
0.0
 13
46.387281003599988
 23
66.416273542499994
 33
0.0
  0
SOLID
  5
288
  8
SERVCLRDIM
  6
CONTINUOUS
 62
     1
 10
46.720615003599988
 20
72.976273542499996
 30
0.0
 11
46.387281003599988
 21
70.976273542499996
 31
0.0
 12
46.053949003599989
 22
72.976273542499996
 32
0.0
 13
46.053949003599989
 23
72.976273542499996
 33
0.0
  0
SOLID
  5
289
  8
SERVCLRDIM
  6
CONTINUOUS
 62
     1
 10
115.61495682970001
 20
96.277796168699993
 30
0.0
 11
113.73995682970001
 21
96.590296168699993
 31
0.0
 12
115.61495682970001
 22
96.902796168699993
 32
0.0
 13
115.61495682970001
 23
96.902796168699993
 33
0.0
  0
SOLID
  5
28A
  8
SERVCLRDIM
  6
CONTINUOUS
 62
     1
 10
147.86495682969999
 20
96.277796168699993
 30
0.0
 11
147.86495682969999
 21
96.902796168699993
 31
0.0
 12
149.73995682969999
 22
96.590296168699993
 32
0.0
 13
149.73995682969999
 23
96.590296168699993
 33
0.0
  0
SOLID
  5
28B
  8
SERVCLRDIM
  6
CONTINUOUS
 62
     1
 10
49.112379587500001
 20
96.277132542000004
 30
0.0
 11
49.112379587500001
 21
96.902132542000004
 31
0.0
 12
50.987379587500001
 22
96.589632542000004
 32
0.0
 13
50.987379587500001
 23
96.589632542000004
 33
0.0
  0
SOLID
  5
28C
  8
SERVCLRDIM
  6
CONTINUOUS
 62
     1
 10
4.8623795875000004
 20
96.277132542000004
 30
0.0
 11
2.9873795874999991
 21
96.589632542000004
 31
0.0
 12
4.8623795875000004
 22
96.902132542000004
 32
0.0
 13
4.8623795875000004
 23
96.902132542000004
 33
0.0
  0
SOLID
  5
28D
  8
CURB-14-DIM
  6
CONTINUOUS
 62
     6
 10
106.8222464832
 20
69.103773542499994
 30
0.0
 11
106.1972464832
 21
69.103773542499994
 31
0.0
 12
106.5097464832
 22
70.978773542499994
 32
0.0
 13
106.5097464832
 23
70.978773542499994
 33
0.0
  0
SOLID
  5
28E
  8
CURB-14-DIM
  6
CONTINUOUS
 62
     6
 10
106.8222464832
 20
58.853773542500001
 30
0.0
 11
106.5097464832
 21
56.978773542500001
 31
0.0
 12
106.1972464832
 22
58.853773542500001
 32
0.0
 13
106.1972464832
 23
58.853773542500001
 33
0.0
  0
SOLID
  5
28F
  8
CURB-14-DIM
  6
CONTINUOUS
 62
     6
 10
92.799879587500001
 20
39.256796542499998
 30
0.0
 11
92.799879587500001
 21
39.881796542499998
 31
0.0
 12
94.674879587500001
 22
39.569296542499998
 32
0.0
 13
94.674879587500001
 23
39.569296542499998
 33
0.0
  0
SOLID
  5
290
  8
CURB-14-DIM
  6
CONTINUOUS
 62
     6
 10
55.862379587500001
 20
39.256796542499998
 30
0.0
 11
53.987379587500001
 21
39.569296542499998
 31
0.0
 12
55.862379587500001
 22
39.881796542499998
 32
0.0
 13
55.862379587500001
 23
39.881796542499998
 33
0.0
  0
SOLID
  5
291
  8
CURB-24-DIM
  6
CONTINUOUS
 62
     6
 10
55.862379587500001
 20
39.256796542499998
 30
0.0
 11
53.987379587500001
 21
39.569296542499998
 31
0.0
 12
55.862379587500001
 22
39.881796542499998
 32
0.0
 13
55.862379587500001
 23
39.881796542499998
 33
0.0
  0
SOLID
  5
292
  8
CURB-24-DIM
  6
CONTINUOUS
 62
     6
 10
92.799879587500001
 20
39.256796542499998
 30
0.0
 11
92.799879587500001
 21
39.881796542499998
 31
0.0
 12
94.674879587500001
 22
39.569296542499998
 32
0.0
 13
94.674879587500001
 23
39.569296542499998
 33
0.0
  0
SOLID
  5
293
  8
CURB-24-DIM
  6
CONTINUOUS
 62
     6
 10
113.7355663054
 20
69.103773542499994
 30
0.0
 11
113.1105663054
 21
69.103773542499994
 31
0.0
 12
113.4230663054
 22
70.978773542499994
 32
0.0
 13
113.4230663054
 23
70.978773542499994
 33
0.0
  0
SOLID
  5
294
  8
CURB-24-DIM
  6
CONTINUOUS
 62
     6
 10
113.7355663054
 20
48.853773542500001
 30
0.0
 11
113.4230663054
 21
46.978773542500001
 31
0.0
 12
113.1105663054
 22
48.853773542500001
 32
0.0
 13
113.1105663054
 23
48.853773542500001
 33
0.0
  0
SOLID
  5
295
  8
UNIT-DIM
  6
CONTINUOUS
 62
     7
 10
24.3095315875
 20
99.916273542499994
 30
0.0
 11
23.6845315875
 21
99.916273542499994
 31
0.0
 12
23.9970315875
 22
101.79127354249999
 32
0.0
 13
23.9970315875
 23
101.79127354249999
 33
0.0
  0
SOLID
  5
296
  8
UNIT-DIM
  6
CONTINUOUS
 62
     7
 10
24.3095315875
 20
68.291273542499994
 30
0.0
 11
23.9970315875
 21
66.416273542499994
 31
0.0
 12
23.6845315875
 22
68.291273542499994
 32
0.0
 13
23.6845315875
 23
68.291273542499994
 33
0.0
  0
SOLID
  5
297
  8
UNIT-DIM
  6
CONTINUOUS
 62
     7
 10
52.862379587500001
 20
117.9597530332
 30
0.0
 11
50.987379587500001
 21
118.2722530332
 31
0.0
 12
52.862379587500001
 22
118.5847530332
 32
0.0
 13
52.862379587500001
 23
118.5847530332
 33
0.0
  0
SOLID
  5
298
  8
UNIT-DIM
  6
CONTINUOUS
 62
     7
 10
95.862379587500001
 20
117.9597530332
 30
0.0
 11
95.862379587500001
 21
118.5847530332
 31
0.0
 12
97.737379587500001
 22
118.2722530332
 32
0.0
 13
97.737379587500001
 23
118.2722530332
 33
0.0
  0
DIMENSION
  5
299
  8
UNIT-DIM
  6
CONTINUOUS
 62
     7
  2
*D1
 10
77.737379587500001
 20
42.941849965700001
 30
0.0
 11
64.362379587500001
 21
42.941849965700001
 31
0.0
 70
   128
  1
2'-2 3/4"(681)
 13
50.987379587500001
 23
66.416273542499994
 33
0.0
 14
77.737379587500001
 24
73.416273542499994
 34
0.0
  0
DIMENSION
  5
29A
  8
UNIT-DIM
  6
CONTINUOUS
 62
     7
  2
*D2
 10
76.437472968199984
 20
73.416273542499994
 30
0.0
 11
63.857180456199998
 21
87.268829885499997
 31
0.0
 70
   128
  1
7" (177)
 13
50.987379587500001
 23
66.416273542499994
 33
0.0
 14
73.262472968200001
 24
73.416273542499994
 34
0.0
 50
90.0
  0
DIMENSION
  5
29B
  8
UNITDUCTDIM
  6
CONTINUOUS
 62
     2
  2
*D3
 10
92.741329285900008
 20
111.5694826995
 30
0.0
 11
86.789354438399997
 21
110.2569826995
 31
0.0
 70
   128
  1
<> 
 13
82.237379590900005
 23
91.546111179899995
 33
0.0
 14
92.741329285900008
 24
91.546111179899995
 34
0.0
  0
DIMENSION
  5
29C
  8
UNITDUCTDIM
  6
CONTINUOUS
 62
     2
  2
*D4
 10
121.4894680694
 20
72.421111169399992
 30
0.0
 11
121.4894680729
 21
80.671111169399992
 31
0.0
 70
   128
  1
2'-1 1/8" \P[638]
 13
92.741329285900008
 23
91.546111179899995
 33
0.0
 14
92.145005509900017
 24
72.4211111802
 34
0.0
 50
269.99999997899999
  0
DIMENSION
  5
29D
  8
UNITDUCTDIM
  6
CONTINUOUS
 62
     2
  2
*D5
 10
74.362379587500001
 20
95.669116693999996
 30
0.0
 11
65.987379588599993
 21
94.356616693999996
 31
0.0
 70
   128
  1
1'-4 3/4"\P[427]
 13
57.612379589699998
 23
83.962721458000004
 33
0.0
 14
74.362379587500001
 24
83.962721457900003
 34
0.0
 50
359.99999999980002
  0
DIMENSION
  5
29E
  8
UNITDUCTDIM
  6
CONTINUOUS
 62
     2
  2
*D6
 10
121.4894680708
 20
72.421111179899995
 30
0.0
 11
132.91446807080001
 21
61.708507175999998
 31
0.0
 70
   128
  1
<> 
 13
96.899005001700004
 23
66.416273542499994
 33
0.0
 14
92.741329278899997
 24
72.421111179899995
 34
0.0
 50
90.0
  0
DIMENSION
  5
29F
  8
UNITDUCTDIM
  6
CONTINUOUS
 62
     2
  2
*D7
 10
34.205054537499997
 20
83.962721462600015
 30
0.0
 11
33.505054536700001
 21
78.245140225299991
 31
0.0
 70
   128
  1
<> 
 13
57.612379587500001
 23
72.541273542499994
 33
0.0
 14
57.612379589699998
 24
83.962721458000004
 34
0.0
 50
89.999999988799985
  0
DIMENSION
  5
2A0
  8
UNITDUCTDIM
  6
CONTINUOUS
 62
     2
  2
*D8
 10
39.939380959600001
 20
72.541273542399992
 30
0.0
 11
22.1630293887
 21
60.568757740099997
 31
0.0
 70
   128
  1
<> 
 13
51.514418277600001
 23
66.416273542499994
 33
0.0
 14
57.612379587500001
 24
72.541273542399992
 34
0.0
 50
90.0
  0
DIMENSION
  5
2A1
  8
UNITDUCTDIM
  6
CONTINUOUS
 62
     2
  2
*D9
 10
50.987379585500001
 20
91.789629983600008
 30
0.0
 11
38.822323238999999
 21
90.477129985000005
 31
0.0
 70
   128
  1
<> 
 13
57.612379589699998
 23
83.962721458000004
 33
0.0
 14
50.987379587500001
 24
101.79127354249999
 34
0.0
 50
179.9999999888
  0
DIMENSION
  5
2A2
  8
UNITDUCTDIM
  6
CONTINUOUS
 62
     2
  2
*D10
 10
82.237379590900005
 20
111.5694826995
 30
0.0
 11
68.622099215399984
 21
110.2569826995
 31
0.0
 70
   128
  1
2'-7 1/4"\P(793)
 13
50.987379587500001
 23
101.79127354249999
 33
0.0
 14
82.237379590900005
 24
91.546111179899995
 34
0.0
  0
INSERT
  5
2A3
  8
0
  2
*U21
 10
0.0
 20
0.0
 30
0.0
  0
INSERT
  5
2A4
  8
0
  2
*U22
 10
0.0
 20
0.0
 30
0.0
  0
INSERT
  5
2A5
  8
0
  2
*U23
 10
0.0
 20
0.0
 30
0.0
  0
INSERT
  5
2A6
  8
0
  2
*U24
 10
0.0
 20
0.0
 30
0.0
  0
INSERT
  5
2A7
  8
0
  2
*U25
 10
0.0
 20
0.0
 30
0.0
  0
INSERT
  5
2A8
  8
0
  2
*U26
 10
0.0
 20
0.0
 30
0.0
  0
INSERT
  5
2A9
  8
0
  2
*U27
 10
0.0
 20
0.0
 30
0.0
  0
INSERT
  5
2AA
  8
0
  2
*U28
 10
0.0
 20
0.0
 30
0.0
  0
INSERT
  5
2AB
  8
0
  2
*U29
 10
0.0
 20
0.0
 30
0.0
  0
INSERT
  5
2AC
  8
0
  2
*U30
 10
0.0
 20
0.0
 30
0.0
  0
INSERT
  5
2AD
  8
0
  2
*U31
 10
0.0
 20
0.0
 30
0.0
  0
INSERT
  5
2AE
  8
0
  2
*U32
 10
0.0
 20
0.0
 30
0.0
  0
INSERT
  5
2AF
  8
0
  2
*U33
 10
0.0
 20
0.0
 30
0.0
  0
INSERT
  5
2B0
  8
0
  2
*U34
 10
0.0
 20
0.0
 30
0.0
  0
INSERT
  5
2B1
  8
0
  2
*U35
 10
0.0
 20
0.0
 30
0.0
  0
INSERT
  5
2B2
  8
0
  2
*U36
 10
0.0
 20
0.0
 30
0.0
  0
INSERT
  5
2B3
  8
0
  2
*U37
 10
0.0
 20
0.0
 30
0.0
  0
INSERT
  5
2B4
  8
0
  2
*U38
 10
0.0
 20
0.0
 30
0.0
  0
INSERT
  5
2B5
  8
0
  2
*U39
 10
0.0
 20
0.0
 30
0.0
  0
INSERT
  5
2B6
  8
0
  2
*U40
 10
0.0
 20
0.0
 30
0.0
  0
INSERT
  5
2B7
  8
0
  2
*U41
 10
0.0
 20
0.0
 30
0.0
  0
INSERT
  5
2B8
  8
0
  2
*U42
 10
0.0
 20
0.0
 30
0.0
  0
INSERT
  5
2B9
  8
0
  2
*U43
 10
0.0
 20
0.0
 30
0.0
  0
INSERT
  5
2BA
  8
0
  2
*U44
 10
0.0
 20
0.0
 30
0.0
  0
INSERT
  5
2BB
  8
0
  2
*U45
 10
0.0
 20
0.0
 30
0.0
  0
INSERT
  5
2BC
  8
0
  2
*U46
 10
0.0
 20
0.0
 30
0.0
  0
INSERT
  5
2BD
  8
0
  2
*U47
 10
0.0
 20
0.0
 30
0.0
  0
INSERT
  5
2BE
  8
0
  2
*U48
 10
0.0
 20
0.0
 30
0.0
  0
INSERT
  5
2BF
  8
0
  2
*U49
 10
0.0
 20
0.0
 30
0.0
  0
INSERT
  5
2C0
  8
0
  2
*U50
 10
0.0
 20
0.0
 30
0.0
  0
INSERT
  5
2C1
  8
0
  2
*U51
 10
0.0
 20
0.0
 30
0.0
  0
INSERT
  5
2C2
  8
0
  2
*U52
 10
0.0
 20
0.0
 30
0.0
  0
INSERT
  5
2C3
  8
0
  2
*U53
 10
0.0
 20
0.0
 30
0.0
  0
LINE
  5
2C4
  8
NOTES
  6
CONTINUOUS
 62
     1
 10
78.001504279300008
 20
72.991728907400002
 30
0.0
 11
107.9708095786
 21
42.439965629899987
 31
0.0
  0
LINE
  5
2C5
  8
NOTES
  6
CONTINUOUS
 62
     1
 10
107.9708095786
 20
42.439965629899987
 30
0.0
 11
111.59014996099999
 21
42.439965629899987
 31
0.0
  0
SOLID
  5
2C6
  8
NOTES
  6
CONTINUOUS
 62
     1
 10
79.669747124099985
 20
71.826571917600006
 30
0.0
 11
78.001504279300008
 21
72.991728907400002
 31
0.0
 12
79.134337908199996
 22
71.301370078800005
 32
0.0
 13
79.134337908199996
 23
71.301370078800005
 33
0.0
  0
INSERT
  5
2C7
  8
0
  2
*U54
 10
0.0
 20
0.0
 30
0.0
  0
LINE
  5
2C8
  8
NOTES
  6
CONTINUOUS
 62
     1
 10
57.612379588099998
 20
75.656566232200007
 30
0.0
 11
43.519906207799991
 21
42.262273555900002
 31
0.0
  0
LINE
  5
2C9
  8
NOTES
  6
CONTINUOUS
 62
     1
 10
43.519906207799991
 20
42.262273555900002
 30
0.0
 11
40.473819277799997
 21
42.262273555900002
 31
0.0
  0
SOLID
  5
2CA
  8
NOTES
  6
CONTINUOUS
 62
     1
 10
57.180275004799988
 20
73.668121958599997
 30
0.0
 11
57.612379588099998
 21
75.656566232200007
 31
0.0
 12
56.489283428299998
 22
73.959722098
 32
0.0
 13
56.489283428299998
 23
73.959722098
 33
0.0
  0
INSERT
  5
2CB
  8
0
  2
*U55
 10
0.0
 20
0.0
 30
0.0
  0
LINE
  5
2CC
  8
NOTES
  6
CONTINUOUS
 62
     1
 10
82.237379590000003
 20
89.005150730799997
 30
0.0
 11
72.448549891300004
 21
106.35355055549999
 31
0.0
  0
LINE
  5
2CD
  8
NOTES
  6
CONTINUOUS
 62
     1
 10
72.448549891300004
 20
106.35355055549999
 30
0.0
 11
66.294703737500001
 21
106.35355055549999
 31
0.0
  0
SOLID
  5
2CE
  8
NOTES
  6
CONTINUOUS
 62
     1
 10
80.9279464209
 20
90.562716066700006
 30
0.0
 11
82.237379590000003
 21
89.005150730799997
 31
0.0
 12
81.581139135200004
 22
90.931279871200005
 32
0.0
 13
81.581139135200004
 23
90.931279871200005
 33
0.0
  0
LINE
  5
2CF
  8
NOTES
  6
CONTINUOUS
 62
     1
 10
0.0
 20
0.0
 30
0.0
 11
0.0
 21
36.494440873199999
 31
0.0
  0
LINE
  5
2D0
  8
0
  6
CONTINUOUS
 62
     7
 10
0.0
 20
0.0
 30
0.0
 11
0.0
 21
125.0
 31
0.0
  0
LINE
  5
2D1
  8
SERVCLEAR
  6
CENTER
 62
     1
 10
2.9873795874999991
 20
66.416273541999999
 30
0.0
 11
2.9873795874999991
 21
101.791273542
 31
0.0
  0
LINE
  5
2D2
  8
SERVCLRDIM
  6
CONTINUOUS
 62
     1
 10
4.8623795875000004
 20
96.902132542000004
 30
0.0
 11
4.8623795875000004
 21
96.277132542000004
 31
0.0
  0
LINE
  5
2D3
  8
0
  6
CONTINUOUS
 62
     7
 10
0.0
 20
0.0
 30
0.0
 11
150.0
 21
0.0
 31
0.0
  0
LINE
  5
2D4
  8
NOTES
  6
CONTINUOUS
 62
     1
 10
0.0
 20
0.0
 30
0.0
 11
48.0
 21
0.0
 31
0.0
  0
LINE
  5
2D5
  8
NOTES
  6
CONTINUOUS
 62
     1
 10
16.0
 20
12.4980961895
 30
0.0
 11
16.0
 21
36.494440873199999
 31
0.0
  0
LINE
  5
2D6
  8
NOTES
  6
CONTINUOUS
 62
     1
 10
0.0
 20
3.9993907806000002
 30
0.0
 11
48.0
 21
3.9993907806000002
 31
0.0
  0
LINE
  5
2D7
  8
NOTES
  6
CONTINUOUS
 62
     1
 10
0.0
 20
4.4993146281999987
 30
0.0
 11
48.0
 21
4.4993146281999987
 31
0.0
  0
LINE
  5
2D8
  8
UNIT-DIM
  6
CONTINUOUS
 62
     7
 10
23.9970315875
 20
101.79127354249999
 30
0.0
 11
23.6845315875
 21
99.916273542499994
 31
0.0
  0
LINE
  5
2D9
  8
NOTES
  6
CONTINUOUS
 62
     1
 10
0.0
 20
8.4987054087999994
 30
0.0
 11
48.0
 21
8.4987054087999994
 31
0.0
  0
LINE
  5
2DA
  8
UNIT-DIM
  6
CONTINUOUS
 62
     7
 10
23.9970315875
 20
101.71402654249999
 30
0.0
 11
23.9970315875
 21
91.020276542499985
 31
0.0
  0
LINE
  5
2DB
  8
UNIT-DIM
  6
CONTINUOUS
 62
     7
 10
23.9970315875
 20
66.793146542499997
 30
0.0
 11
23.9970315875
 21
83.424396542500006
 31
0.0
  0
LINE
  5
2DC
  8
UNIT-DIM
  6
CONTINUOUS
 62
     7
 10
24.3095315875
 20
68.291273542499994
 30
0.0
 11
23.9970315875
 21
66.416273542499994
 31
0.0
  0
LINE
  5
2DD
  8
NOTES
  6
CONTINUOUS
 62
     1
 10
0.0
 20
12.4980961895
 30
0.0
 11
48.0
 21
12.4980961895
 31
0.0
  0
LINE
  5
2DE
  8
UNIT-DIM
  6
CONTINUOUS
 62
     7
 10
23.9970315875
 20
66.416273542499994
 30
0.0
 11
23.6845315875
 21
68.291273542499994
 31
0.0
  0
LINE
  5
2DF
  8
NOTES
  6
CONTINUOUS
 62
     1
 10
0.0
 20
16.497486970099999
 30
0.0
 11
48.0
 21
16.497486970099999
 31
0.0
  0
LINE
  5
2E0
  8
NOTES
  6
CONTINUOUS
 62
     1
 10
0.0
 20
20.496877750700001
 30
0.0
 11
48.0
 21
20.496877750700001
 31
0.0
  0
LINE
  5
2E1
  8
UNIT-DIM
  6
CONTINUOUS
 62
     7
 10
24.3095315875
 20
99.916273542499994
 30
0.0
 11
23.9970315875
 21
101.79127354249999
 31
0.0
  0
LINE
  5
2E2
  8
NOTES
  6
CONTINUOUS
 62
     1
 10
0.0
 20
24.4962685313
 30
0.0
 11
48.0
 21
24.4962685313
 31
0.0
  0
LINE
  5
2E3
  8
NOTES
  6
CONTINUOUS
 62
     1
 10
0.0
 20
28.495659312000001
 30
0.0
 11
48.0
 21
28.495659312000001
 31
0.0
  0
LINE
  5
2E4
  8
SERVCLRDIM
  6
CONTINUOUS
 62
     1
 10
46.387281003599988
 20
76.3486753424
 30
0.0
 11
46.387281003599988
 21
70.976273542499996
 31
0.0
  0
LINE
  5
2E5
  8
SERVCLRDIM
  6
CONTINUOUS
 62
     1
 10
46.387281003599988
 20
66.416273542499994
 30
0.0
 11
46.387281003599988
 21
56.498129542500003
 31
0.0
  0
LINE
  5
2E6
  8
NOTES
  6
CONTINUOUS
 62
     1
 10
48.0
 20
0.0
 30
0.0
 11
48.0
 21
36.494440873199999
 31
0.0
  0
LINE
  5
2E7
  8
SERVCLRDIM
  6
CONTINUOUS
 62
     1
 10
49.112379587500001
 20
96.902132542000004
 30
0.0
 11
49.112379587500001
 21
96.277132542000004
 31
0.0
  0
LINE
  5
2E8
  8
SERVCLRDIM
  6
CONTINUOUS
 62
     1
 10
46.720615003599988
 20
72.976273542499996
 30
0.0
 11
46.387281003599988
 21
70.976273542499996
 31
0.0
  0
LINE
  5
2E9
  8
SERVCLRDIM
  6
CONTINUOUS
 62
     1
 10
46.387281003599988
 20
66.416273542499994
 30
0.0
 11
46.053949003599989
 21
64.416273542499994
 31
0.0
  0
LINE
  5
2EA
  8
CURB-14-DIM
  6
CONTINUOUS
 62
     6
 10
92.799879587500001
 20
39.256796542499998
 30
0.0
 11
94.674879587500001
 21
39.569296542499998
 31
0.0
  0
LINE
  5
2EB
  8
CURB-24-DIM
  6
CONTINUOUS
 62
     6
 10
92.799879587500001
 20
39.256796542499998
 30
0.0
 11
94.674879587500001
 21
39.569296542499998
 31
0.0
  0
LINE
  5
2EC
  8
NOTES
  6
CONTINUOUS
 62
     1
 10
0.0
 20
32.495050092600003
 30
0.0
 11
48.0
 21
32.495050092600003
 31
0.0
  0
LINE
  5
2ED
  8
NOTES
  6
CONTINUOUS
 62
     1
 10
0.0
 20
36.494440873199999
 30
0.0
 11
48.0
 21
36.494440873199999
 31
0.0
  0
LINE
  5
2EE
  8
CURB-14-DIM
  6
CONTINUOUS
 62
     6
 10
55.862379587500001
 20
39.256796542499998
 30
0.0
 11
53.987379587500001
 21
39.569296542499998
 31
0.0
  0
LINE
  5
2EF
  8
CURB-24-DIM
  6
CONTINUOUS
 62
     6
 10
55.862379587500001
 20
39.256796542499998
 30
0.0
 11
53.987379587500001
 21
39.569296542499998
 31
0.0
  0
LINE
  5
2F0
  8
SERVCLRDIM
  6
CONTINUOUS
 62
     1
 10
46.720615003599988
 20
64.416273542499994
 30
0.0
 11
46.387281003599988
 21
66.416273542499994
 31
0.0
  0
LINE
  5
2F1
  8
SERVCLRDIM
  6
CONTINUOUS
 62
     1
 10
46.387281003599988
 20
70.976273542499996
 30
0.0
 11
46.053949003599989
 21
72.976273542499996
 31
0.0
  0
POLYLINE
  5
2F2
  8
UNIT-SOL
  6
CONTINUOUS
 62
     7
 66
     1
 10
0.0
 20
0.0
 30
0.0
 40
0.15
 41
0.15
  0
VERTEX
  5
4BC
  8
UNIT-SOL
  6
CONTINUOUS
 62
     7
 10
50.987379587500001
 20
101.79127354249999
 30
0.0
  0
VERTEX
  5
4BD
  8
UNIT-SOL
  6
CONTINUOUS
 62
     7
 10
50.987379587500001
 20
66.416273542499994
 30
0.0
  0
SEQEND
  5
4BE
  8
UNIT-SOL
  6
CONTINUOUS
 62
     7
  0
LINE
  5
2F6
  8
SERVCLEAR
  6
CENTER
 62
     1
 10
50.987379587500001
 20
66.416273541999999
 30
0.0
 11
50.987379587500001
 21
101.791273542
 31
0.0
  0
LINE
  5
2F7
  8
UNIT-DIM
  6
CONTINUOUS
 62
     7
 10
50.987379587500001
 20
102.72877354249999
 30
0.0
 11
50.987379587500001
 21
119.51832176870001
 31
0.0
  0
LINE
  5
2F8
  8
UNIT-DIM
  6
CONTINUOUS
 62
     7
 10
52.862379587500001
 20
118.5847530332
 30
0.0
 11
52.862379587500001
 21
117.9597530332
 31
0.0
  0
LINE
  5
2F9
  8
CURB-14-DIM
  6
CONTINUOUS
 62
     6
 10
53.987379587500001
 20
69.041273542499994
 30
0.0
 11
53.987379587500001
 21
38.319296542499998
 31
0.0
  0
LINE
  5
2FA
  8
CURB-24-DIM
  6
CONTINUOUS
 62
     6
 10
53.987379587500001
 20
69.041273542499994
 30
0.0
 11
53.987379587500001
 21
38.319296542499998
 31
0.0
  0
LINE
  5
2FB
  8
CURB-14
  6
HIDDEN
 62
     8
 10
53.987379587500001
 20
69.978773542499994
 30
0.0
 11
53.987379587500001
 21
70.978773542499994
 31
0.0
  0
LINE
  5
2FC
  8
CURB-24
  6
HIDDEN
 62
     8
 10
53.987379587500001
 20
69.978773542499994
 30
0.0
 11
53.987379587500001
 21
70.978773542499994
 31
0.0
  0
LINE
  5
2FD
  8
CURB-14-DIM
  6
CONTINUOUS
 62
     6
 10
94.674879587500001
 20
39.569296542499998
 30
0.0
 11
80.405400336000014
 21
39.569296542499998
 31
0.0
  0
LINE
  5
2FE
  8
CURB-14-DIM
  6
CONTINUOUS
 62
     6
 10
53.987379587500001
 20
39.569296542499998
 30
0.0
 11
63.968899948599997
 21
39.569296542499998
 31
0.0
  0
LINE
  5
2FF
  8
CURB-24-DIM
  6
CONTINUOUS
 62
     6
 10
56.237379587500001
 20
39.569296542499998
 30
0.0
 11
63.968899948599997
 21
39.569296542499998
 31
0.0
  0
LINE
  5
300
  8
CURB-14-DIM
  6
CONTINUOUS
 62
     6
 10
55.862379587500001
 20
39.881796542499998
 30
0.0
 11
55.862379587500001
 21
39.256796542499998
 31
0.0
  0
LINE
  5
301
  8
CURB-24-DIM
  6
CONTINUOUS
 62
     6
 10
55.862379587500001
 20
39.881796542499998
 30
0.0
 11
55.862379587500001
 21
39.256796542499998
 31
0.0
  0
LINE
  5
302
  8
CURB-24
  6
HIDDEN
 62
     8
 10
56.206129587500001
 20
69.978773542499994
 30
0.0
 11
56.206129587500001
 21
66.416273542499994
 31
0.0
  0
LINE
  5
303
  8
CURB-14
  6
HIDDEN
 62
     8
 10
56.206129587500001
 20
69.978773542499994
 30
0.0
 11
56.206129587500001
 21
66.573074542499995
 31
0.0
  0
POLYLINE
  5
304
  8
CURB-24
  6
CONTINUOUS
 62
     6
 66
     1
 10
0.0
 20
0.0
 30
0.0
 40
0.15
 41
0.15
  0
VERTEX
  5
4BF
  8
CURB-24
  6
CONTINUOUS
 62
     6
 10
56.206129587500001
 20
66.260629542499998
 30
0.0
  0
VERTEX
  5
4C0
  8
CURB-24
  6
CONTINUOUS
 62
     6
 10
56.206129587500001
 20
46.978773542500001
 30
0.0
  0
SEQEND
  5
4C1
  8
CURB-24
  6
CONTINUOUS
 62
     6
  0
POLYLINE
  5
308
  8
CURB-14
  6
CONTINUOUS
 62
     6
 66
     1
 10
0.0
 20
0.0
 30
0.0
 40
0.15
 41
0.15
  0
VERTEX
  5
4C2
  8
CURB-14
  6
CONTINUOUS
 62
     6
 10
56.206129587500001
 20
66.260629542499998
 30
0.0
  0
VERTEX
  5
4C3
  8
CURB-14
  6
CONTINUOUS
 62
     6
 10
56.206129587500001
 20
56.978773542500001
 30
0.0
  0
SEQEND
  5
4C4
  8
CURB-14
  6
CONTINUOUS
 62
     6
  0
LINE
  5
30C
  8
UNIT-DUCTS
  6
CONTINUOUS
 62
     2
 10
57.612379587500001
 20
72.541273542499994
 30
0.0
 11
57.612379589699998
 21
83.962721458000004
 31
0.0
  0
LINE
  5
30D
  8
CURB-14-DIM
  6
CONTINUOUS
 62
     6
 10
53.987379587500001
 20
39.569296542499998
 30
0.0
 11
55.862379587500001
 21
39.881796542499998
 31
0.0
  0
LINE
  5
30E
  8
CURB-24-DIM
  6
CONTINUOUS
 62
     6
 10
53.987379587500001
 20
39.569296542499998
 30
0.0
 11
55.862379587500001
 21
39.881796542499998
 31
0.0
  0
POLYLINE
  5
30F
  8
CURB-24
  6
CONTINUOUS
 62
     6
 66
     1
 10
0.0
 20
0.0
 30
0.0
 40
0.15
 41
0.15
  0
VERTEX
  5
4C5
  8
CURB-24
  6
CONTINUOUS
 62
     6
 10
53.206129587500001
 20
46.978773542500001
 30
0.0
  0
VERTEX
  5
4C6
  8
CURB-24
  6
CONTINUOUS
 62
     6
 10
96.206129587500016
 20
46.978773542500001
 30
0.0
  0
SEQEND
  5
4C7
  8
CURB-24
  6
CONTINUOUS
 62
     6
  0
LINE
  5
313
  8
CURB-24-DIM
  6
CONTINUOUS
 62
     6
 10
96.953217541200004
 20
46.978773542500001
 30
0.0
 11
114.79653095730001
 21
46.978773542500001
 31
0.0
  0
LINE
  5
314
  8
CURB-14-DIM
  6
CONTINUOUS
 62
     6
 10
94.674879587500001
 20
39.569296542499998
 30
0.0
 11
92.799879587500001
 21
39.881796542499998
 31
0.0
  0
LINE
  5
315
  8
CURB-24-DIM
  6
CONTINUOUS
 62
     6
 10
94.674879587500001
 20
39.569296542499998
 30
0.0
 11
92.799879587500001
 21
39.881796542499998
 31
0.0
  0
LINE
  5
316
  8
CURB-24-DIM
  6
CONTINUOUS
 62
     6
 10
113.1105663054
 20
48.853773542500001
 30
0.0
 11
113.7355663054
 21
48.853773542500001
 31
0.0
  0
LINE
  5
317
  8
SERVCLRDIM
  6
CONTINUOUS
 62
     1
 10
46.387281003599988
 20
56.498129542500003
 30
0.0
 11
43.34300000359999
 21
56.498129542500003
 31
0.0
  0
POLYLINE
  5
318
  8
CURB-14
  6
CONTINUOUS
 62
     6
 66
     1
 10
0.0
 20
0.0
 30
0.0
 40
0.15
 41
0.15
  0
VERTEX
  5
4C8
  8
CURB-14
  6
CONTINUOUS
 62
     6
 10
53.206129587500001
 20
56.978773542500001
 30
0.0
  0
VERTEX
  5
4C9
  8
CURB-14
  6
CONTINUOUS
 62
     6
 10
96.206129587500016
 20
56.978773542500001
 30
0.0
  0
SEQEND
  5
4CA
  8
CURB-14
  6
CONTINUOUS
 62
     6
  0
LINE
  5
31C
  8
CURB-14-DIM
  6
CONTINUOUS
 62
     6
 10
96.953217541200004
 20
56.978773542500001
 30
0.0
 11
107.8940124387
 21
56.978773542500001
 31
0.0
  0
LINE
  5
31D
  8
UNIT-DUCTS
  6
CONTINUOUS
 62
     2
 10
74.362379587500001
 20
83.962721457900003
 30
0.0
 11
74.36237958529999
 21
72.541273542399992
 31
0.0
  0
LINE
  5
31E
  8
HOOD
  6
CONTINUOUS
 62
     7
 10
112.7958252279
 20
82.883988193299999
 30
0.0
 11
113.1401673906
 21
83.070806115799996
 31
0.0
  0
LINE
  5
31F
  8
CURB-14-DIM
  6
CONTINUOUS
 62
     6
 10
106.1972464832
 20
58.853773542500001
 30
0.0
 11
106.8222464832
 21
58.853773542500001
 31
0.0
  0
LINE
  5
320
  8
UNIT-DUCTS
  6
CONTINUOUS
 62
     2
 10
82.237379583900008
 20
72.421111179899995
 30
0.0
 11
92.741329285900008
 21
91.546111179899995
 31
0.0
  0
LINE
  5
321
  8
SERVCLRDIM
  6
CONTINUOUS
 62
     1
 10
46.053949003599989
 20
64.416273542499994
 30
0.0
 11
46.720615003599988
 21
64.416273542499994
 31
0.0
  0
LINE
  5
322
  8
SERVCLEAR
  6
CENTER
 62
     1
 10
149.73995682969999
 20
66.416273542499994
 30
0.0
 11
113.73995682970001
 21
66.416273542499994
 31
0.0
  0
LINE
  5
323
  8
UNIT-DIM
  6
CONTINUOUS
 62
     7
 10
50.049879587500001
 20
66.416273542499994
 30
0.0
 11
22.7470315875
 21
66.416273542499994
 31
0.0
  0
LINE
  5
324
  8
SERVCLEAR
  6
CENTER
 62
     1
 10
50.987379587500001
 20
66.416273541999999
 30
0.0
 11
2.9873795874999991
 21
66.416273541999999
 31
0.0
  0
POLYLINE
  5
325
  8
UNIT-SOL
  6
CONTINUOUS
 62
     7
 66
     1
 10
0.0
 20
0.0
 30
0.0
 40
0.15
 41
0.15
  0
VERTEX
  5
4CB
  8
UNIT-SOL
  6
CONTINUOUS
 62
     7
 10
50.987379587500001
 20
66.416273542499994
 30
0.0
  0
VERTEX
  5
4CC
  8
UNIT-SOL
  6
CONTINUOUS
 62
     7
 10
97.737379587500001
 20
66.416273542499994
 30
0.0
  0
SEQEND
  5
4CD
  8
UNIT-SOL
  6
CONTINUOUS
 62
     7
  0
LINE
  5
329
  8
UNIT-DIM
  6
CONTINUOUS
 62
     7
 10
23.6845315875
 20
68.291273542499994
 30
0.0
 11
24.3095315875
 21
68.291273542499994
 31
0.0
  0
LINE
  5
32A
  8
UNIT-DUCTS
  6
CONTINUOUS
 62
     2
 10
82.237379583900008
 20
72.421111179899995
 30
0.0
 11
82.237379590900005
 21
91.546111179899995
 31
0.0
  0
LINE
  5
32B
  8
CURB-14-DIM
  6
CONTINUOUS
 62
     6
 10
106.1972464832
 20
69.103773542499994
 30
0.0
 11
106.8222464832
 21
69.103773542499994
 31
0.0
  0
LINE
  5
32C
  8
CURB-24-DIM
  6
CONTINUOUS
 62
     6
 10
113.1105663054
 20
69.103773542499994
 30
0.0
 11
113.7355663054
 21
69.103773542499994
 31
0.0
  0
LINE
  5
32D
  8
CURB-14
  6
HIDDEN
 62
     8
 10
94.674879587500001
 20
69.978773542499994
 30
0.0
 11
53.987379587500001
 21
69.978773542499994
 31
0.0
  0
LINE
  5
32E
  8
CURB-24
  6
HIDDEN
 62
     8
 10
94.674879587500001
 20
69.978773542499994
 30
0.0
 11
53.987379587500001
 21
69.978773542499994
 31
0.0
  0
LINE
  5
32F
  8
SERVCLRDIM
  6
CONTINUOUS
 62
     1
 10
52.976046929500001
 20
70.976273542499996
 30
0.0
 11
45.145924365600003
 21
70.976273542499996
 31
0.0
  0
LINE
  5
330
  8
CURB-14
  6
HIDDEN
 62
     8
 10
53.987379587500001
 20
70.978773542499994
 30
0.0
 11
94.674879587500001
 21
70.978773542499994
 31
0.0
  0
LINE
  5
331
  8
CURB-24
  6
HIDDEN
 62
     8
 10
53.987379587500001
 20
70.978773542499994
 30
0.0
 11
94.674879587500001
 21
70.978773542499994
 31
0.0
  0
LINE
  5
332
  8
CURB-14-DIM
  6
CONTINUOUS
 62
     6
 10
95.345349802700014
 20
70.978773542499994
 30
0.0
 11
107.8940124387
 21
70.978773542499994
 31
0.0
  0
LINE
  5
333
  8
CURB-24-DIM
  6
CONTINUOUS
 62
     6
 10
95.345349802700014
 20
70.978773542499994
 30
0.0
 11
114.79653095730001
 21
70.978773542499994
 31
0.0
  0
LINE
  5
334
  8
HOOD
  6
CONTINUOUS
 62
     7
 10
97.737379587500001
 20
71.3018143141
 30
0.0
 11
104.5917210357
 21
71.3018143141
 31
0.0
  0
LINE
  5
335
  8
UNIT-DUCTS
  6
CONTINUOUS
 62
     2
 10
92.741329278899997
 20
72.421111179899995
 30
0.0
 11
82.237379583900008
 21
72.421111179899995
 31
0.0
  0
LINE
  5
336
  8
UNIT-DUCTS
  6
CONTINUOUS
 62
     2
 10
74.36237958529999
 20
72.541273542399992
 30
0.0
 11
57.612379587500001
 21
72.541273542499994
 31
0.0
  0
LINE
  5
337
  8
SERVCLRDIM
  6
CONTINUOUS
 62
     1
 10
46.053949003599989
 20
72.976273542499996
 30
0.0
 11
46.720615003599988
 21
72.976273542499996
 31
0.0
  0
LINE
  5
338
  8
UNIT-DUCTS
  6
CONTINUOUS
 62
     2
 10
57.612379589500001
 20
83.962721458100006
 30
0.0
 11
74.36237958529999
 21
72.541273542499994
 31
0.0
  0
LINE
  5
339
  8
UNIT-DUCTS
  6
CONTINUOUS
 62
     2
 10
92.741329285900008
 20
91.546111179899995
 30
0.0
 11
92.741329278899997
 21
72.421111179899995
 31
0.0
  0
LINE
  5
33A
  8
CURB-14-DIM
  6
CONTINUOUS
 62
     6
 10
92.799879587500001
 20
39.881796542499998
 30
0.0
 11
92.799879587500001
 21
39.256796542499998
 31
0.0
  0
LINE
  5
33B
  8
CURB-24-DIM
  6
CONTINUOUS
 62
     6
 10
92.799879587500001
 20
39.881796542499998
 30
0.0
 11
92.799879587500001
 21
39.256796542499998
 31
0.0
  0
LINE
  5
33C
  8
CURB-24
  6
HIDDEN
 62
     8
 10
92.831129587500016
 20
69.978773542499994
 30
0.0
 11
92.831129587500016
 21
66.416273542499994
 31
0.0
  0
LINE
  5
33D
  8
CURB-14
  6
HIDDEN
 62
     8
 10
92.831129587500016
 20
69.978773542499994
 30
0.0
 11
92.831129587500016
 21
66.573074542499995
 31
0.0
  0
POLYLINE
  5
33E
  8
CURB-24
  6
CONTINUOUS
 62
     6
 66
     1
 10
0.0
 20
0.0
 30
0.0
 40
0.15
 41
0.15
  0
VERTEX
  5
4CE
  8
CURB-24
  6
CONTINUOUS
 62
     6
 10
92.831129587500016
 20
66.260629542499998
 30
0.0
  0
VERTEX
  5
4CF
  8
CURB-24
  6
CONTINUOUS
 62
     6
 10
92.831129587500016
 20
46.978773542500001
 30
0.0
  0
SEQEND
  5
4D0
  8
CURB-24
  6
CONTINUOUS
 62
     6
  0
POLYLINE
  5
342
  8
CURB-14
  6
CONTINUOUS
 62
     6
 66
     1
 10
0.0
 20
0.0
 30
0.0
 40
0.15
 41
0.15
  0
VERTEX
  5
4D1
  8
CURB-14
  6
CONTINUOUS
 62
     6
 10
92.831129587500016
 20
66.260629542499998
 30
0.0
  0
VERTEX
  5
4D2
  8
CURB-14
  6
CONTINUOUS
 62
     6
 10
92.831129587500016
 20
56.978773542500001
 30
0.0
  0
SEQEND
  5
4D3
  8
CURB-14
  6
CONTINUOUS
 62
     6
  0
LINE
  5
346
  8
CURB-14
  6
HIDDEN
 62
     8
 10
94.674879587500001
 20
70.978773542499994
 30
0.0
 11
94.674879587500001
 21
69.978773542499994
 31
0.0
  0
LINE
  5
347
  8
CURB-24
  6
HIDDEN
 62
     8
 10
94.674879587500001
 20
70.978773542499994
 30
0.0
 11
94.674879587500001
 21
69.978773542499994
 31
0.0
  0
LINE
  5
348
  8
CURB-14-DIM
  6
CONTINUOUS
 62
     6
 10
94.674879587500001
 20
69.041273542499994
 30
0.0
 11
94.674879587500001
 21
38.319296542499998
 31
0.0
  0
LINE
  5
349
  8
CURB-24-DIM
  6
CONTINUOUS
 62
     6
 10
94.674879587500001
 20
69.041273542499994
 30
0.0
 11
94.674879587500001
 21
38.319296542499998
 31
0.0
  0
LINE
  5
34A
  8
UNIT-DIM
  6
CONTINUOUS
 62
     7
 10
95.862379587500001
 20
118.5847530332
 30
0.0
 11
95.862379587500001
 21
117.9597530332
 31
0.0
  0
LINE
  5
34B
  8
SERVCLRDIM
  6
CONTINUOUS
 62
     1
 10
147.86495682969999
 20
96.277796168699993
 30
0.0
 11
149.73995682969999
 21
96.590296168699993
 31
0.0
  0
LINE
  5
34C
  8
UNIT-DUCTS
  6
CONTINUOUS
 62
     2
 10
57.612379589699998
 20
83.962721458000004
 30
0.0
 11
74.362379587500001
 21
83.962721457900003
 31
0.0
  0
LINE
  5
34D
  8
UNIT-DUCTS
  6
CONTINUOUS
 62
     2
 10
82.237379590900005
 20
91.546111179899995
 30
0.0
 11
92.741329278899997
 21
72.421111179899995
 31
0.0
  0
POLYLINE
  5
34E
  8
UNIT-SOL
  6
CONTINUOUS
 62
     7
 66
     1
 10
0.0
 20
0.0
 30
0.0
 40
0.15
 41
0.15
  0
VERTEX
  5
4D4
  8
UNIT-SOL
  6
CONTINUOUS
 62
     7
 10
97.737379587500001
 20
66.416273542499994
 30
0.0
  0
VERTEX
  5
4D5
  8
UNIT-SOL
  6
CONTINUOUS
 62
     7
 10
97.737379587500001
 20
101.79127354249999
 30
0.0
  0
SEQEND
  5
4D6
  8
UNIT-SOL
  6
CONTINUOUS
 62
     7
  0
LINE
  5
352
  8
UNIT-DIM
  6
CONTINUOUS
 62
     7
 10
97.737379587500001
 20
102.72877354249999
 30
0.0
 11
97.737379587500001
 21
119.51832176870001
 31
0.0
  0
LINE
  5
353
  8
HOOD
  6
CONTINUOUS
 62
     7
 10
104.5917210357
 20
71.3018143141
 30
0.0
 11
110.2267346388
 21
83.645894169000016
 31
0.0
  0
LINE
  5
354
  8
SERVCLRDIM
  6
CONTINUOUS
 62
     1
 10
4.8623795875000004
 20
96.277132542000004
 30
0.0
 11
2.9873795874999991
 21
96.589632542000004
 31
0.0
  0
LINE
  5
355
  8
CURB-14-DIM
  6
CONTINUOUS
 62
     6
 10
106.5097464832
 20
70.978773542499994
 30
0.0
 11
106.5097464832
 21
67.106064542499993
 31
0.0
  0
LINE
  5
356
  8
CURB-14-DIM
  6
CONTINUOUS
 62
     6
 10
106.5097464832
 20
57.8764825425
 30
0.0
 11
106.5097464832
 21
60.851482542500001
 31
0.0
  0
LINE
  5
357
  8
CURB-14-DIM
  6
CONTINUOUS
 62
     6
 10
106.5097464832
 20
70.978773542499994
 30
0.0
 11
106.1972464832
 21
69.103773542499994
 31
0.0
  0
LINE
  5
358
  8
CURB-14-DIM
  6
CONTINUOUS
 62
     6
 10
106.8222464832
 20
58.853773542500001
 30
0.0
 11
106.5097464832
 21
56.978773542500001
 31
0.0
  0
LINE
  5
359
  8
HOOD
  6
CONTINUOUS
 62
     7
 10
113.42215206740001
 20
83.378223169400002
 30
0.0
 11
113.4146509131
 21
83.352929832000001
 31
0.0
  0
LINE
  5
35A
  8
HOOD
  6
CONTINUOUS
 62
     7
 10
113.71466349230001
 20
83.236438250299997
 30
0.0
 11
113.638072759
 21
82.978179963299993
 31
0.0
  0
LINE
  5
35B
  8
HOOD
  6
CONTINUOUS
 62
     7
 10
113.73995682970001
 20
83.228937095999996
 30
0.0
 11
113.6633660964
 21
82.970678809000006
 31
0.0
  0
LINE
  5
35C
  8
SERVCLRDIM
  6
CONTINUOUS
 62
     1
 10
113.73995682970001
 20
96.590296168699993
 30
0.0
 11
115.61495682970001
 21
96.902796168699993
 31
0.0
  0
LINE
  5
35D
  8
UNIT-DUCTS
  6
CONTINUOUS
 62
     2
 10
82.237379590900005
 20
91.546111179899995
 30
0.0
 11
92.741329285900008
 21
91.546111179899995
 31
0.0
  0
LINE
  5
35E
  8
SERVCLRDIM
  6
CONTINUOUS
 62
     1
 10
50.987379587500001
 20
96.589632542000004
 30
0.0
 11
49.112379587500001
 21
96.902132542000004
 31
0.0
  0
LINE
  5
35F
  8
HOOD
  6
CONTINUOUS
 62
     7
 10
110.2267346388
 20
83.645894169000016
 30
0.0
 11
112.7958252279
 21
82.883988193299999
 31
0.0
  0
LINE
  5
360
  8
HOOD
  6
CONTINUOUS
 62
     7
 10
113.59777711300001
 20
82.935094442799993
 30
0.0
 11
113.1401673906
 21
83.070806115799996
 31
0.0
  0
LINE
  5
361
  8
HOOD
  6
CONTINUOUS
 62
     7
 10
113.6052782674
 20
82.960387780200008
 30
0.0
 11
97.737379587500001
 21
87.666273542499994
 31
0.0
  0
LINE
  5
362
  8
HOOD
  6
CONTINUOUS
 62
     7
 10
113.69687130920001
 20
83.269232742
 30
0.0
 11
113.4146509131
 21
83.352929832000001
 31
0.0
  0
LINE
  5
363
  8
HOOD
  6
CONTINUOUS
 62
     7
 10
113.42215206740001
 20
83.378223169400002
 30
0.0
 11
113.70437246349999
 21
83.294526079299985
 31
0.0
  0
LINE
  5
364
  8
CURB-14-DIM
  6
CONTINUOUS
 62
     6
 10
106.5097464832
 20
56.978773542500001
 30
0.0
 11
106.1972464832
 21
58.853773542500001
 31
0.0
  0
LINE
  5
365
  8
CURB-24-DIM
  6
CONTINUOUS
 62
     6
 10
113.4230663054
 20
70.978773542499994
 30
0.0
 11
113.1105663054
 21
69.103773542499994
 31
0.0
  0
LINE
  5
366
  8
SERVCLRDIM
  6
CONTINUOUS
 62
     1
 10
50.987379587500001
 20
96.589632542000004
 30
0.0
 11
35.258212587499997
 21
96.589632542000004
 31
0.0
  0
LINE
  5
367
  8
SERVCLRDIM
  6
CONTINUOUS
 62
     1
 10
2.9873795874999991
 20
96.589632542000004
 30
0.0
 11
30.716545587500001
 21
96.589632542000004
 31
0.0
  0
LINE
  5
368
  8
SERVCLRDIM
  6
CONTINUOUS
 62
     1
 10
149.73995682969999
 20
96.590296168699993
 30
0.0
 11
136.56581589070001
 21
96.590296168699993
 31
0.0
  0
LINE
  5
369
  8
SERVCLRDIM
  6
CONTINUOUS
 62
     1
 10
113.73995682970001
 20
96.590296168699993
 30
0.0
 11
131.48981589069999
 21
96.590296168699993
 31
0.0
  0
LINE
  5
36A
  8
CURB-14-DIM
  6
CONTINUOUS
 62
     6
 10
106.8222464832
 20
69.103773542499994
 30
0.0
 11
106.5097464832
 21
70.978773542499994
 31
0.0
  0
LINE
  5
36B
  8
CURB-24-DIM
  6
CONTINUOUS
 62
     6
 10
113.4230663054
 20
46.978773542500001
 30
0.0
 11
113.1105663054
 21
48.853773542500001
 31
0.0
  0
LINE
  5
36C
  8
CURB-24-DIM
  6
CONTINUOUS
 62
     6
 10
113.4230663054
 20
70.348182542499998
 30
0.0
 11
113.4230663054
 21
62.37318254249999
 31
0.0
  0
LINE
  5
36D
  8
CURB-24-DIM
  6
CONTINUOUS
 62
     6
 10
113.4230663054
 20
47.609364542500003
 30
0.0
 11
113.4230663054
 21
55.584364542499991
 31
0.0
  0
LINE
  5
36E
  8
SERVCLEAR
  6
CENTER
 62
     1
 10
113.73995682970001
 20
66.416273542499994
 30
0.0
 11
113.73995682970001
 21
101.79127354249999
 31
0.0
  0
LINE
  5
36F
  8
SERVCLRDIM
  6
CONTINUOUS
 62
     1
 10
115.61495682970001
 20
96.902796168699993
 30
0.0
 11
115.61495682970001
 21
96.277796168699993
 31
0.0
  0
LINE
  5
370
  8
CURB-24-DIM
  6
CONTINUOUS
 62
     6
 10
113.7355663054
 20
48.853773542500001
 30
0.0
 11
113.4230663054
 21
46.978773542500001
 31
0.0
  0
LINE
  5
371
  8
SERVCLRDIM
  6
CONTINUOUS
 62
     1
 10
49.112379587500001
 20
96.277132542000004
 30
0.0
 11
50.987379587500001
 21
96.589632542000004
 31
0.0
  0
LINE
  5
372
  8
UNIT-DIM
  6
CONTINUOUS
 62
     7
 10
23.6845315875
 20
99.916273542499994
 30
0.0
 11
24.3095315875
 21
99.916273542499994
 31
0.0
  0
POLYLINE
  5
373
  8
UNIT-SOL
  6
CONTINUOUS
 62
     7
 66
     1
 10
0.0
 20
0.0
 30
0.0
 40
0.15
 41
0.15
  0
VERTEX
  5
4D7
  8
UNIT-SOL
  6
CONTINUOUS
 62
     7
 10
97.737379587500001
 20
101.79127354249999
 30
0.0
  0
VERTEX
  5
4D8
  8
UNIT-SOL
  6
CONTINUOUS
 62
     7
 10
50.987379587500001
 20
101.79127354249999
 30
0.0
  0
SEQEND
  5
4D9
  8
UNIT-SOL
  6
CONTINUOUS
 62
     7
  0
LINE
  5
377
  8
UNIT-DIM
  6
CONTINUOUS
 62
     7
 10
50.049879587500001
 20
101.79127354249999
 30
0.0
 11
22.7470315875
 21
101.79127354249999
 31
0.0
  0
LINE
  5
378
  8
SERVCLEAR
  6
CENTER
 62
     1
 10
2.9873795874999991
 20
101.791273542
 30
0.0
 11
50.987379587500001
 21
101.791273542
 31
0.0
  0
LINE
  5
379
  8
SERVCLEAR
  6
CENTER
 62
     1
 10
113.73995682970001
 20
101.79127354249999
 30
0.0
 11
149.73995682969999
 21
101.79127354249999
 31
0.0
  0
LINE
  5
37A
  8
SERVCLRDIM
  6
CONTINUOUS
 62
     1
 10
115.61495682970001
 20
96.277796168699993
 30
0.0
 11
113.73995682970001
 21
96.590296168699993
 31
0.0
  0
LINE
  5
37B
  8
CURB-24-DIM
  6
CONTINUOUS
 62
     6
 10
113.7355663054
 20
69.103773542499994
 30
0.0
 11
113.4230663054
 21
70.978773542499994
 31
0.0
  0
LINE
  5
37C
  8
SERVCLRDIM
  6
CONTINUOUS
 62
     1
 10
2.9873795874999991
 20
96.589632542000004
 30
0.0
 11
4.8623795875000004
 21
96.902132542000004
 31
0.0
  0
LINE
  5
37D
  8
SERVCLRDIM
  6
CONTINUOUS
 62
     1
 10
149.73995682969999
 20
96.590296168699993
 30
0.0
 11
147.86495682969999
 21
96.902796168699993
 31
0.0
  0
LINE
  5
37E
  8
UNIT-DIM
  6
CONTINUOUS
 62
     7
 10
95.862379587500001
 20
117.9597530332
 30
0.0
 11
97.737379587500001
 21
118.2722530332
 31
0.0
  0
LINE
  5
37F
  8
UNIT-DIM
  6
CONTINUOUS
 62
     7
 10
52.862379587500001
 20
117.9597530332
 30
0.0
 11
50.987379587500001
 21
118.2722530332
 31
0.0
  0
LINE
  5
380
  8
UNIT-DIM
  6
CONTINUOUS
 62
     7
 10
50.987379587500001
 20
118.2722530332
 30
0.0
 11
74.836560582800004
 21
118.2722530332
 31
0.0
  0
LINE
  5
381
  8
UNIT-DIM
  6
CONTINUOUS
 62
     7
 10
90.280560582800007
 20
118.2722530332
 30
0.0
 11
97.737379587500001
 21
118.2722530332
 31
0.0
  0
LINE
  5
382
  8
UNIT-DIM
  6
CONTINUOUS
 62
     7
 10
50.987379587500001
 20
118.2722530332
 30
0.0
 11
52.862379587500001
 21
118.5847530332
 31
0.0
  0
LINE
  5
383
  8
0
  6
CONTINUOUS
 62
     7
 10
0.0
 20
125.0
 30
0.0
 11
150.0
 21
125.0
 31
0.0
  0
LINE
  5
384
  8
UNIT-DIM
  6
CONTINUOUS
 62
     7
 10
97.737379587500001
 20
118.2722530332
 30
0.0
 11
95.862379587500001
 21
118.5847530332
 31
0.0
  0
LINE
  5
385
  8
SERVCLRDIM
  6
CONTINUOUS
 62
     1
 10
147.86495682969999
 20
96.902796168699993
 30
0.0
 11
147.86495682969999
 21
96.277796168699993
 31
0.0
  0
LINE
  5
386
  8
SERVCLEAR
  6
CENTER
 62
     1
 10
149.73995682969999
 20
66.416273542499994
 30
0.0
 11
149.73995682969999
 21
101.79127354249999
 31
0.0
  0
LINE
  5
387
  8
0
  6
CONTINUOUS
 62
     7
 10
150.0
 20
0.0
 30
0.0
 11
150.0
 21
125.0
 31
0.0
  0
CIRCLE
  5
388
  8
UNIT-SOL
  6
CONTINUOUS
 62
     7
 10
77.737379587500001
 20
73.416273542499994
 30
0.0
 40
0.5
  0
ARC
  5
389
  8
HOOD
  6
CONTINUOUS
 62
     7
 10
113.6893701549
 20
83.243939404599999
 30
0.0
 40
0.0527643907
 50
343.48141227410002
 51
73.481412274199997
  0
ARC
  5
38A
  8
HOOD
  6
CONTINUOUS
 62
     7
 10
113.6127794216
 20
82.985681117600009
 30
0.0
 40
0.0527643907
 50
253.48141227420001
 51
343.4814122741999
  0
ARC
  5
38B
  8
HOOD
  6
CONTINUOUS
 62
     7
 10
113.6127794216
 20
82.985681117600009
 30
0.0
 40
0.0263821954
 50
253.48141227409999
 51
343.48141227400009
  0
ARC
  5
38C
  8
HOOD
  6
CONTINUOUS
 62
     7
 10
113.6893701549
 20
83.243939404599999
 30
0.0
 40
0.0263821954
 50
343.48141227410002
 51
73.481412274299998
  0
ENDSEC
  0
EOF
