  0
SECTION
  2
HEADER
  9
$ACADVER
  1
AC1009
  9
$INSBASE
 10
0.0
 20
0.0
 30
0.0
  9
$EXTMIN
 10
-0.0061030499708181
 20
-0.0068659312171917
 30
-0.0015258207003583
  9
$EXTMAX
 10
200.00610398129331
 20
225.006866978955
 30
0.0000000349246037
  9
$LIMMIN
 10
0.0
 20
0.0
  9
$LIMMAX
 10
200.0
 20
225.0
  9
$ORTHOMODE
 70
     0
  9
$REGENMODE
 70
     1
  9
$FILLMODE
 70
     1
  9
$QTEXTMODE
 70
     0
  9
$MIRRTEXT
 70
     0
  9
$DRAGMODE
 70
     2
  9
$LTSCALE
 40
14.666666666699999
  9
$OSMODE
 70
    37
  9
$ATTMODE
 70
     1
  9
$TEXTSIZE
 40
0.2
  9
$TRACEWID
 40
0.05
  9
$TEXTSTYLE
  7
STANDARD
  9
$CLAYER
  8
0
  9
$CELTYPE
  6
ByLayer
  9
$CECOLOR
 62
   256
  9
$DIMSCALE
 40
1.0
  9
$DIMASZ
 40
2.0
  9
$DIMEXO
 40
1.587499999999999
  9
$DIMDLI
 40
10.1333333333
  9
$DIMRND
 40
0.0
  9
$DIMDLE
 40
0.0
  9
$DIMEXE
 40
1.587499999999999
  9
$DIMTP
 40
0.0
  9
$DIMTM
 40
0.0
  9
$DIMTXT
 40
2.0
  9
$DIMCEN
 40
2.399999999999999
  9
$DIMTSZ
 40
0.0
  9
$DIMTOL
 70
     0
  9
$DIMLIM
 70
     0
  9
$DIMTIH
 70
     1
  9
$DIMTOH
 70
     1
  9
$DIMSE1
 70
     0
  9
$DIMSE2
 70
     0
  9
$DIMTAD
 70
     0
  9
$DIMZIN
 70
     0
  9
$DIMBLK
  1
_FILLED
  9
$DIMASO
 70
     1
  9
$DIMSHO
 70
     1
  9
$DIMPOST
  1

  9
$DIMAPOST
  1

  9
$DIMALT
 70
     0
  9
$DIMALTD
 70
     2
  9
$DIMALTF
 40
25.399999999999999
  9
$DIMLFAC
 40
1.0
  9
$DIMTOFL
 70
     0
  9
$DIMTVP
 40
0.0
  9
$DIMTIX
 70
     0
  9
$DIMSOXD
 70
     0
  9
$DIMSAH
 70
     0
  9
$DIMBLK1
  1

  9
$DIMBLK2
  1

  9
$DIMSTYLE
  2
STANDARD
  9
$DIMCLRD
 70
     0
  9
$DIMCLRE
 70
     0
  9
$DIMCLRT
 70
     0
  9
$DIMTFAC
 40
1.0
  9
$DIMGAP
 40
0.09
  9
$LUNITS
 70
     2
  9
$LUPREC
 70
     4
  9
$SKETCHINC
 40
0.1
  9
$FILLETRAD
 40
0.0
  9
$AUNITS
 70
     0
  9
$AUPREC
 70
     0
  9
$MENU
  1
.
  9
$ELEVATION
 40
0.0
  9
$PELEVATION
 40
0.0
  9
$THICKNESS
 40
0.0
  9
$LIMCHECK
 70
     0
  9
$BLIPMODE
 70
     0
  9
$CHAMFERA
 40
0.0
  9
$CHAMFERB
 40
0.0
  9
$SKPOLY
 70
     0
  9
$TDCREATE
 40
2456262.5919817588
  9
$TDUPDATE
 40
2456262.5933675929
  9
$TDINDWG
 40
0.001386412
  9
$TDUSRTIMER
 40
0.001386412
  9
$USRTIMER
 70
     1
  9
$ANGBASE
 50
0.0
  9
$ANGDIR
 70
     0
  9
$PDMODE
 70
     3
  9
$PDSIZE
 40
7.9375
  9
$PLINEWID
 40
0.0
  9
$COORDS
 70
     1
  9
$SPLFRAME
 70
     0
  9
$SPLINETYPE
 70
     6
  9
$SPLINESEGS
 70
     8
  9
$ATTDIA
 70
     0
  9
$ATTREQ
 70
     1
  9
$HANDLING
 70
     1
  9
$HANDSEED
  5
78E
  9
$SURFTAB1
 70
     6
  9
$SURFTAB2
 70
     6
  9
$SURFTYPE
 70
     6
  9
$SURFU
 70
     6
  9
$SURFV
 70
     6
  9
$UCSNAME
  2

  9
$UCSORG
 10
0.0
 20
0.0
 30
0.0
  9
$UCSXDIR
 10
1.0
 20
0.0
 30
0.0
  9
$UCSYDIR
 10
0.0
 20
1.0
 30
0.0
  9
$PUCSNAME
  2

  9
$PUCSORG
 10
0.0
 20
0.0
 30
0.0
  9
$PUCSXDIR
 10
1.0
 20
0.0
 30
0.0
  9
$PUCSYDIR
 10
0.0
 20
1.0
 30
0.0
  9
$USERI1
 70
     0
  9
$USERI2
 70
     0
  9
$USERI3
 70
     0
  9
$USERI4
 70
     0
  9
$USERI5
 70
     0
  9
$USERR1
 40
0.0
  9
$USERR2
 40
0.0
  9
$USERR3
 40
0.0
  9
$USERR4
 40
0.0
  9
$USERR5
 40
0.0
  9
$WORLDVIEW
 70
     1
  9
$SHADEDGE
 70
     3
  9
$SHADEDIF
 70
    70
  9
$TILEMODE
 70
     1
  9
$MAXACTVP
 70
    64
  9
$PLIMCHECK
 70
     0
  9
$PEXTMIN
 10
1.0000000000000000E+020
 20
1.0000000000000000E+020
 30
1.0000000000000000E+020
  9
$PEXTMAX
 10
-1.0000000000000000E+020
 20
-1.0000000000000000E+020
 30
-1.0000000000000000E+020
  9
$PLIMMIN
 10
0.0
 20
0.0
  9
$PLIMMAX
 10
12.0
 20
9.0
  9
$UNITMODE
 70
     0
  9
$VISRETAIN
 70
     1
  9
$PLINEGEN
 70
     0
  9
$PSLTSCALE
 70
     1
  0
ENDSEC
  0
SECTION
  2
TABLES
  0
TABLE
  2
VPORT
 70
     1
  0
VPORT
  2
*ACTIVE
 70
     0
 10
0.0
 20
0.0
 11
1.0
 21
1.0
 12
100.0000004656612
 22
112.50000052386891
 13
0.0
 23
0.0
 14
1.0
 24
1.0
 15
0.0
 25
0.0
 16
0.0
 26
0.0
 36
1.0
 17
0.0
 27
0.0
 37
0.0
 40
226.8966930182072
 41
1.1005586592178771
 42
50.0
 43
0.0
 44
0.0
 50
0.0
 51
0.0
 71
     0
 72
   100
 73
     1
 74
     1
 75
     0
 76
     0
 77
     0
 78
     0
  0
ENDTAB
  0
TABLE
  2
LTYPE
 70
     8
  0
LTYPE
  2
ByBlock
 70
     0
  3

 72
    65
 73
     0
 40
0.0
  0
LTYPE
  2
ByLayer
 70
     0
  3

 72
    65
 73
     0
 40
0.0
  0
LTYPE
  2
CONTINUOUS
 70
     0
  3
Solid line
 72
    65
 73
     0
 40
0.0
  0
LTYPE
  2
CENTER
 70
     0
  3
____ _ ____ _ ____ _ ____ _ ____ _ ____ _ ____
 72
    65
 73
     4
 40
0.6
 49
0.375
 49
-0.075
 49
0.075
 49
-0.075
  0
LTYPE
  2
HIDDEN
 70
     0
  3
- - - - - - - - - - - - - - - - - - - -
 72
    65
 73
     2
 40
0.2
 49
0.1
 49
-0.1
  0
LTYPE
  2
PHANTOM
 70
     0
  3
_____ _ _ _____ _ _ _____ _ _ _____
 72
    65
 73
     6
 40
0.8
 49
0.45
 49
-0.05
 49
0.1
 49
-0.05
 49
0.1
 49
-0.05
  0
LTYPE
  2
DOT
 70
     0
  3
. . . . . . . . . . . . . . . . . . . .
 72
    65
 73
     2
 40
0.2
 49
0.1
 49
-0.1
  0
LTYPE
  2
DASHED
 70
     0
  3
- - - - - - - - - - - - - - - - - - - -
 72
    65
 73
     2
 40
0.2
 49
0.1
 49
-0.1
  0
ENDTAB
  0
TABLE
  2
LAYER
 70
    19
  0
LAYER
  2
0
 70
     0
 62
     7
  6
CONTINUOUS
  0
LAYER
  2
DEFAULT_1
 70
     0
 62
     7
  6
CENTER
  0
LAYER
  2
DEFAULT_2
 70
     0
 62
     8
  6
HIDDEN
  0
LAYER
  2
DEFAULT_3
 70
     0
 62
     7
  6
PHANTOM
  0
LAYER
  2
CURB-14
 70
     0
 62
     6
  6
CONTINUOUS
  0
LAYER
  2
CURB-14-DIM
 70
     0
 62
     6
  6
CONTINUOUS
  0
LAYER
  2
CURB-24
 70
     0
 62
     6
  6
CONTINUOUS
  0
LAYER
  2
CURB-24-DIM
 70
     0
 62
     6
  6
CONTINUOUS
  0
LAYER
  2
CURB-DUCT
 70
     0
 62
     5
  6
CONTINUOUS
  0
LAYER
  2
CURBDUCTDIM
 70
     0
 62
     5
  6
CONTINUOUS
  0
LAYER
  2
HOOD
 70
     0
 62
     7
  6
CONTINUOUS
  0
LAYER
  2
NOTES
 70
     0
 62
     1
  6
CONTINUOUS
  0
LAYER
  2
SERVCLEAR
 70
     0
 62
     1
  6
CONTINUOUS
  0
LAYER
  2
SERVCLRDIM
 70
     0
 62
     1
  6
CONTINUOUS
  0
LAYER
  2
UNIT-DIM
 70
     0
 62
     7
  6
CONTINUOUS
  0
LAYER
  2
UNIT-DUCTS
 70
     0
 62
     2
  6
CONTINUOUS
  0
LAYER
  2
UNIT-HID
 70
     0
 62
     8
  6
CONTINUOUS
  0
LAYER
  2
UNIT-SOL
 70
     0
 62
     7
  6
CONTINUOUS
  0
LAYER
  2
UNTDUCTDIM
 70
     0
 62
     2
  6
CONTINUOUS
  0
ENDTAB
  0
TABLE
  2
STYLE
 70
     5
  0
STYLE
  2
STANDARD
 70
     0
 40
0.0
 41
0.8
 50
0.0
 71
     0
 42
0.2
  3
txt
  4

  0
STYLE
  2
ANNOTATIVE
 70
     0
 40
0.0
 41
1.0
 50
0.0
 71
     0
 42
0.2
  3
txt
  4

  0
STYLE
  2
TEXTSTYLE_1
 70
     0
 40
0.0
 41
0.8
 50
0.0
 71
     0
 42
0.2
  3
gdt
  4

  0
STYLE
  2
TEXTSTYLE_2
 70
     0
 40
0.0
 41
1.0
 50
0.0
 71
     0
 42
0.2
  3
txt
  4

  0
STYLE
  2
TEXTSTYLE_3
 70
     0
 40
0.0
 41
8.0
 50
0.0
 71
     0
 42
0.2
  3
txt
  4

  0
ENDTAB
  0
TABLE
  2
VIEW
 70
     0
  0
ENDTAB
  0
TABLE
  2
UCS
 70
     0
  0
ENDTAB
  0
TABLE
  2
APPID
 70
     4
  0
APPID
  2
ACAD
 70
     0
  0
APPID
  2
ACADANNOTATIVE
 70
     0
  0
APPID
  2
ACAD_NAV_VCDISPLAY
 70
     0
  0
APPID
  2
ACAD_MLEADERVER
 70
     0
  0
ENDTAB
  0
TABLE
  2
DIMSTYLE
 70
     2
  0
DIMSTYLE
  2
STANDARD
 70
     0
  3

  4

  5

  6

  7

 40
1.0
 41
0.18
 42
0.0625
 43
0.38
 44
0.18
 45
0.0
 46
0.0
 47
0.0
 48
0.0
140
0.18
141
0.09
142
0.0
143
25.399999999999999
144
1.0
145
0.0
146
1.0
147
0.09
 71
     0
 72
     0
 73
     1
 74
     1
 75
     0
 76
     0
 77
     0
 78
     0
170
     0
171
     2
172
     0
173
     0
174
     0
175
     0
176
     0
177
     0
178
     0
  0
DIMSTYLE
  2
ANNOTATIVE
 70
     0
  3

  4

  5

  6

  7

 40
1.0
 41
0.18
 42
0.0625
 43
0.38
 44
0.18
 45
0.0
 46
0.0
 47
0.0
 48
0.0
140
0.18
141
0.09
142
0.0
143
25.399999999999999
144
1.0
145
0.0
146
1.0
147
0.09
 71
     0
 72
     0
 73
     1
 74
     1
 75
     0
 76
     0
 77
     0
 78
     0
170
     0
171
     2
172
     0
173
     0
174
     0
175
     0
176
     0
177
     0
178
     0
  0
ENDTAB
  0
ENDSEC
  0
SECTION
  2
BLOCKS
  0
BLOCK
  8
0
  2
$MODEL_SPACE
 70
     0
 10
0.0
 20
0.0
 30
0.0
  3
$MODEL_SPACE
  1

  0
ENDBLK
  5
6D
  8
0
  0
BLOCK
 67
     1
  8
0
  2
$PAPER_SPACE
 70
     0
 10
0.0
 20
0.0
 30
0.0
  3
$PAPER_SPACE
  1

  0
ENDBLK
  5
69
 67
     1
  8
0
  0
BLOCK
  8
0
  2
_FILLED
 70
     0
 10
0.0
 20
0.0
 30
0.0
  3
_FILLED
  1

  0
SOLID
  5
90
  8
0
  6
ByBlock
 62
     0
 10
0.0
 20
0.0
 30
0.0
 11
-1.0
 21
0.1875
 31
0.0
 12
-1.0
 22
-0.1875
 32
0.0
 13
-1.0
 23
-0.1875
 33
0.0
  0
ENDBLK
  5
91
  8
0
  6
ByBlock
 62
     0
  0
BLOCK
  8
UNTDUCTDIM
  6
CONTINUOUS
 62
     7
  2
*D1
 70
     1
 10
0.0
 20
0.0
 30
0.0
  3
*D1
  1

  0
TEXT
  5
94
  8
UNTDUCTDIM
  6
CONTINUOUS
 62
     7
 10
139.85129833096661
 20
172.1499366006
 30
0.0
 40
1.75
  1
3'-4 3/8"
 41
0.8
 72
     1
 11
145.33463166429999
 21
172.1499366006
 31
0.0
  0
TEXT
  5
95
  8
UNTDUCTDIM
  6
CONTINUOUS
 62
     7
 10
142.18463166430001
 20
169.5249366006
 30
0.0
 40
1.75
  1
(1026)
 41
0.8
 72
     1
 11
145.33463166429999
 21
169.5249366006
 31
0.0
  0
LINE
  5
96
  8
UNTDUCTDIM
  6
CONTINUOUS
 62
     7
 10
155.7151211897
 20
170.7180878721
 30
0.0
 11
155.7151211897
 21
172.1499366006
 31
0.0
  0
LINE
  5
97
  8
UNTDUCTDIM
  6
CONTINUOUS
 62
     7
 10
155.7151211897
 20
172.1499366006
 30
0.0
 11
155.7151211897
 21
174.61243660060001
 31
0.0
  0
LINE
  5
98
  8
UNTDUCTDIM
  6
CONTINUOUS
 62
     7
 10
115.3401211897
 20
170.7180878721
 30
0.0
 11
115.3401211897
 21
172.1499366006
 31
0.0
  0
LINE
  5
99
  8
UNTDUCTDIM
  6
CONTINUOUS
 62
     7
 10
115.3401211897
 20
172.1499366006
 30
0.0
 11
115.3401211897
 21
174.61243660060001
 31
0.0
  0
LINE
  5
9A
  8
UNTDUCTDIM
  6
CONTINUOUS
 62
     7
 10
155.7151211897
 20
173.0249366006
 30
0.0
 11
153.3846316643
 21
173.0249366006
 31
0.0
  0
LINE
  5
9B
  8
UNTDUCTDIM
  6
CONTINUOUS
 62
     7
 10
115.3401211897
 20
173.0249366006
 30
0.0
 11
137.28463166430001
 21
173.0249366006
 31
0.0
  0
INSERT
  5
9C
  8
UNTDUCTDIM
  6
CONTINUOUS
 62
     7
  2
_FILLED
 10
155.7151211897
 20
173.0249366006
 30
0.0
 41
2.0
 42
2.0
 43
2.0
  0
INSERT
  5
9D
  8
UNTDUCTDIM
  6
CONTINUOUS
 62
     7
  2
_FILLED
 10
115.3401211897
 20
173.0249366006
 30
0.0
 41
2.0
 42
2.0
 43
2.0
 50
180.0
  0
ENDBLK
  5
9E
  8
0
  6
ByBlock
 62
     0
  0
BLOCK
  8
UNTDUCTDIM
  6
CONTINUOUS
 62
     7
  2
*D2
 70
     1
 10
0.0
 20
0.0
 30
0.0
  3
*D2
  1

  0
TEXT
  5
A1
  8
UNTDUCTDIM
  6
CONTINUOUS
 62
     7
 10
175.62756528809999
 20
155.40658224949999
 30
0.0
 40
1.75
  1
1' -8 3/4"
 41
0.8
 72
     1
 11
181.5775652881
 21
155.40658224949999
 31
0.0
  0
TEXT
  5
A2
  8
UNTDUCTDIM
  6
CONTINUOUS
 62
     7
 10
178.77756528809999
 20
152.78158224949999
 30
0.0
 40
1.75
  1
(527)
 41
0.8
 72
     1
 11
181.5775652881
 21
152.78158224949999
 31
0.0
  0
LINE
  5
A3
  8
UNTDUCTDIM
  6
CONTINUOUS
 62
     7
 10
160.86512118970001
 20
148.37831032119999
 30
0.0
 11
174.5775652881
 21
148.37831032119999
 31
0.0
  0
LINE
  5
A4
  8
UNTDUCTDIM
  6
CONTINUOUS
 62
     7
 10
174.5775652881
 20
148.37831032119999
 30
0.0
 11
183.16506528810001
 21
148.37831032119999
 31
0.0
  0
LINE
  5
A5
  8
UNTDUCTDIM
  6
CONTINUOUS
 62
     7
 10
157.30262118970001
 20
169.13058787209999
 30
0.0
 11
174.5775652881
 21
169.13058787209999
 31
0.0
  0
LINE
  5
A6
  8
UNTDUCTDIM
  6
CONTINUOUS
 62
     7
 10
174.5775652881
 20
169.13058787209999
 30
0.0
 11
183.16506528810001
 21
169.13058787209999
 31
0.0
  0
LINE
  5
A7
  8
UNTDUCTDIM
  6
CONTINUOUS
 62
     7
 10
181.5775652881
 20
148.37831032119999
 30
0.0
 11
181.5775652881
 21
151.90658224949999
 31
0.0
  0
LINE
  5
A8
  8
UNTDUCTDIM
  6
CONTINUOUS
 62
     7
 10
181.5775652881
 20
169.13058787209999
 30
0.0
 11
181.5775652881
 21
158.90658224949999
 31
0.0
  0
INSERT
  5
A9
  8
UNTDUCTDIM
  6
CONTINUOUS
 62
     7
  2
_FILLED
 10
181.5775652881
 20
148.37831032119999
 30
0.0
 41
2.0
 42
2.0
 43
2.0
 50
270.0
  0
INSERT
  5
AA
  8
UNTDUCTDIM
  6
CONTINUOUS
 62
     7
  2
_FILLED
 10
181.5775652881
 20
169.13058787209999
 30
0.0
 41
2.0
 42
2.0
 43
2.0
 50
90.0
  0
ENDBLK
  5
AB
  8
0
  6
ByBlock
 62
     0
  0
BLOCK
  8
UNTDUCTDIM
  6
CONTINUOUS
 62
     2
  2
*D3
 70
     1
 10
0.0
 20
0.0
 30
0.0
  3
*D3
  1

  0
TEXT
  5
AE
  8
UNTDUCTDIM
  6
CONTINUOUS
 62
     2
 10
167.06140635919999
 20
79.016657059600007
 30
0.0
 40
1.75
  1
 3 1/8"
 41
0.8
  0
TEXT
  5
AF
  8
UNTDUCTDIM
  6
CONTINUOUS
 62
     2
 10
167.06140635919999
 20
76.391657059600007
 30
0.0
 40
1.75
  1
(79)
 41
0.8
  0
LINE
  5
B0
  8
UNTDUCTDIM
  6
CONTINUOUS
 62
     2
 10
156.1526211897
 20
93.293777768300004
 30
0.0
 11
156.1526211897
 21
79.016657059600007
 31
0.0
  0
LINE
  5
B1
  8
UNTDUCTDIM
  6
CONTINUOUS
 62
     2
 10
156.1526211897
 20
79.016657059600007
 30
0.0
 11
156.1526211897
 21
78.304157059600001
 31
0.0
  0
LINE
  5
B2
  8
UNTDUCTDIM
  6
CONTINUOUS
 62
     2
 10
159.2776211897
 20
87.287105925900008
 30
0.0
 11
159.2776211897
 21
85.506453946099995
 31
0.0
  0
LINE
  5
B3
  8
UNTDUCTDIM
  6
CONTINUOUS
 62
     2
 10
159.2776211897
 20
84.284006123699996
 30
0.0
 11
159.2776211897
 21
79.016657059600007
 31
0.0
  0
LINE
  5
B4
  8
UNTDUCTDIM
  6
CONTINUOUS
 62
     2
 10
159.2776211897
 20
79.016657059600007
 30
0.0
 11
159.2776211897
 21
78.304157059600001
 31
0.0
  0
LINE
  5
B5
  8
UNTDUCTDIM
  6
CONTINUOUS
 62
     2
 10
156.1526211897
 20
79.891657059600007
 30
0.0
 11
151.1526211897
 21
79.891657059600007
 31
0.0
  0
LINE
  5
B6
  8
UNTDUCTDIM
  6
CONTINUOUS
 62
     2
 10
159.2776211897
 20
79.891657059600007
 30
0.0
 11
165.31140635919999
 21
79.891657059600007
 31
0.0
  0
INSERT
  5
B7
  8
UNTDUCTDIM
  6
CONTINUOUS
 62
     2
  2
_FILLED
 10
156.1526211897
 20
79.891657059600007
 30
0.0
 41
2.0
 42
2.0
 43
2.0
  0
INSERT
  5
B8
  8
UNTDUCTDIM
  6
CONTINUOUS
 62
     2
  2
_FILLED
 10
159.2776211897
 20
79.891657059600007
 30
0.0
 41
2.0
 42
2.0
 43
2.0
 50
180.0
  0
ENDBLK
  5
B9
  8
0
  6
ByBlock
 62
     0
  0
ENDSEC
  0
SECTION
  2
ENTITIES
  0
SOLID
  5
BA
  8
SERVCLRDIM
  6
CONTINUOUS
 62
     1
 10
181.8901399431
 20
170.94267134910001
 30
0.0
 11
181.5776399431
 21
169.0679569207
 31
0.0
 12
181.2651399431
 22
170.94267134910001
 32
0.0
 13
181.2651399431
 23
170.94267134910001
 33
0.0
  0
SOLID
  5
BB
  8
SERVCLRDIM
  6
CONTINUOUS
 62
     1
 10
181.89295056700001
 20
203.19239674389999
 30
0.0
 11
181.26795056700001
 21
203.19239674389999
 31
0.0
 12
181.58045056700001
 22
205.0671111723
 32
0.0
 13
181.58045056700001
 23
205.0671111723
 33
0.0
  0
SOLID
  5
BC
  8
SERVCLRDIM
  6
CONTINUOUS
 62
     1
 10
69.2776211897
 20
179.744471167
 30
0.0
 11
69.2776211897
 21
180.36937597639999
 31
0.0
 12
71.1526211897
 22
180.0569235717
 32
0.0
 13
71.1526211897
 23
180.0569235717
 33
0.0
  0
SOLID
  5
BD
  8
SERVCLRDIM
  6
CONTINUOUS
 62
     1
 10
25.0276211897
 20
179.744471167
 30
0.0
 11
23.1526211897
 21
180.0569235717
 31
0.0
 12
25.0276211897
 22
180.36937597639999
 32
0.0
 13
25.0276211897
 23
180.36937597639999
 33
0.0
  0
SOLID
  5
BE
  8
SERVCLRDIM
  6
CONTINUOUS
 62
     1
 10
46.802611189700002
 20
86.374986687999993
 30
0.0
 11
45.969277189699987
 21
86.374986687999993
 31
0.0
 12
46.385944189699998
 22
88.874605925899999
 32
0.0
 13
46.385944189699998
 23
88.874605925899999
 33
0.0
  0
SOLID
  5
BF
  8
SERVCLRDIM
  6
CONTINUOUS
 62
     1
 10
46.802611189700002
 20
43.3815357963
 30
0.0
 11
46.385944189699998
 21
40.8819165584
 31
0.0
 12
45.969277189699987
 22
43.3815357963
 32
0.0
 13
45.969277189699987
 23
43.3815357963
 33
0.0
  0
SOLID
  5
C0
  8
SERVCLRDIM
  6
CONTINUOUS
 62
     1
 10
192.80244243280001
 20
70.314589470299993
 30
0.0
 11
192.80244243280001
 21
71.147795882899999
 31
0.0
 12
195.30244243279989
 22
70.731192676600003
 32
0.0
 13
195.30244243279989
 23
70.731192676600003
 33
0.0
  0
SOLID
  5
C1
  8
SERVCLRDIM
  6
CONTINUOUS
 62
     1
 10
161.7776211897
 20
70.314589470299993
 30
0.0
 11
159.2776211897
 21
70.731192676600003
 31
0.0
 12
161.7776211897
 22
71.147795882899999
 32
0.0
 13
161.7776211897
 23
71.147795882899999
 33
0.0
  0
SOLID
  5
C2
  8
CURBDUCTDIM
  6
CONTINUOUS
 62
     5
 10
181.55580018969999
 20
123.2519561184
 30
0.0
 11
180.93080018969999
 21
123.2519561184
 31
0.0
 12
181.24330018969999
 22
125.1266705468
 32
0.0
 13
181.24330018969999
 23
125.1266705468
 33
0.0
  0
SOLID
  5
C3
  8
CURBDUCTDIM
  6
CONTINUOUS
 62
     5
 10
181.55580018969999
 20
95.506163539699983
 30
0.0
 11
181.24330018969999
 21
93.631449111299986
 31
0.0
 12
180.93080018969999
 22
95.506163539699983
 32
0.0
 13
180.93080018969999
 23
95.506163539699983
 33
0.0
  0
SOLID
  5
C4
  8
CURBDUCTDIM
  6
CONTINUOUS
 62
     5
 10
181.55580018969999
 20
130.00092806070001
 30
0.0
 11
181.24330018969999
 21
128.12621363229999
 31
0.0
 12
180.93080018969999
 22
130.00092806070001
 32
0.0
 13
180.93080018969999
 23
130.00092806070001
 33
0.0
  0
SOLID
  5
C5
  8
CURBDUCTDIM
  6
CONTINUOUS
 62
     5
 10
181.55580018969999
 20
141.68666703599999
 30
0.0
 11
180.93080018969999
 21
141.68666703599999
 31
0.0
 12
181.24330018969999
 22
143.5613814644
 32
0.0
 13
181.24330018969999
 23
143.5613814644
 33
0.0
  0
SOLID
  5
C6
  8
CURBDUCTDIM
  6
CONTINUOUS
 62
     5
 10
118.1551211897
 20
161.7001105169
 30
0.0
 11
116.2801211897
 21
162.01256292170001
 31
0.0
 12
118.1551211897
 22
162.32501532640001
 32
0.0
 13
118.1551211897
 23
162.32501532640001
 33
0.0
  0
SOLID
  5
C7
  8
CURBDUCTDIM
  6
CONTINUOUS
 62
     5
 10
154.5901211897
 20
161.7001105169
 30
0.0
 11
154.5901211897
 21
162.32501532640001
 31
0.0
 12
156.4651211897
 22
162.01256292170001
 32
0.0
 13
156.4651211897
 23
162.01256292170001
 33
0.0
  0
SOLID
  5
C8
  8
CURBDUCTDIM
  6
CONTINUOUS
 62
     5
 10
154.59021783750001
 20
76.742117269099992
 30
0.0
 11
154.59021783750001
 21
77.367022078600002
 31
0.0
 12
156.46521783750001
 22
77.054569673800003
 32
0.0
 13
156.46521783750001
 23
77.054569673800003
 33
0.0
  0
SOLID
  5
C9
  8
CURBDUCTDIM
  6
CONTINUOUS
 62
     5
 10
142.4026211897
 20
76.742204031
 30
0.0
 11
140.5276211897
 21
77.054656435699997
 31
0.0
 12
142.4026211897
 22
77.367108840499995
 32
0.0
 13
142.4026211897
 23
77.367108840499995
 33
0.0
  0
SOLID
  5
CA
  8
CURBDUCTDIM
  6
CONTINUOUS
 62
     5
 10
161.7776211897
 20
161.5959603819
 30
0.0
 11
159.2776211897
 21
162.01256292170001
 31
0.0
 12
161.7776211897
 22
162.42916646130001
 32
0.0
 13
161.7776211897
 23
162.42916646130001
 33
0.0
  0
SOLID
  5
CB
  8
CURBDUCTDIM
  6
CONTINUOUS
 62
     5
 10
181.65996618969999
 20
86.374986687999993
 30
0.0
 11
180.8266331897
 21
86.374986687999993
 31
0.0
 12
181.24330018969999
 22
88.874605925899999
 32
0.0
 13
181.24330018969999
 23
88.874605925899999
 33
0.0
  0
SOLID
  5
CC
  8
CURBDUCTDIM
  6
CONTINUOUS
 62
     5
 10
187.13449845060001
 20
122.62705130889999
 30
0.0
 11
186.3011644506
 21
122.62705130889999
 31
0.0
 12
186.71783145059999
 22
125.1266705468
 32
0.0
 13
186.71783145059999
 23
125.1266705468
 33
0.0
  0
SOLID
  5
CD
  8
CURBDUCTDIM
  6
CONTINUOUS
 62
     5
 10
187.13449845060001
 20
130.62583287019999
 30
0.0
 11
186.71783145059999
 21
128.12621363229999
 31
0.0
 12
186.3011644506
 22
130.62583287019999
 32
0.0
 13
186.3011644506
 23
130.62583287019999
 33
0.0
  0
SOLID
  5
CE
  8
CURB-14-DIM
  6
CONTINUOUS
 62
     6
 10
59.7291051897
 20
93.756449111299986
 30
0.0
 11
59.4166051897
 21
91.881734682900003
 31
0.0
 12
59.1041051897
 22
93.756449111299986
 32
0.0
 13
59.1041051897
 23
93.756449111299986
 33
0.0
  0
SOLID
  5
CF
  8
CURB-14-DIM
  6
CONTINUOUS
 62
     6
 10
59.7291051897
 20
143.8738814644
 30
0.0
 11
59.1041051897
 21
143.8738814644
 31
0.0
 12
59.4166051897
 22
145.74859589280001
 32
0.0
 13
59.4166051897
 23
145.74859589280001
 33
0.0
  0
SOLID
  5
D0
  8
CURB-14-DIM
  6
CONTINUOUS
 62
     6
 10
156.9026211897
 20
70.418740271800004
 30
0.0
 11
156.9026211897
 21
71.043645081299999
 31
0.0
 12
158.7776211897
 22
70.731192676600003
 32
0.0
 13
158.7776211897
 23
70.731192676600003
 33
0.0
  0
SOLID
  5
D1
  8
CURB-14-DIM
  6
CONTINUOUS
 62
     6
 10
78.902621189699985
 20
70.418740271800004
 30
0.0
 11
77.027621189699985
 21
70.731192676600003
 31
0.0
 12
78.902621189699985
 22
71.043645081299999
 32
0.0
 13
78.902621189699985
 23
71.043645081299999
 33
0.0
  0
SOLID
  5
D2
  8
CURB-14-DIM
  6
CONTINUOUS
 62
     6
 10
68.6526211897
 20
70.314589136999984
 30
0.0
 11
68.6526211897
 21
71.147796216199993
 31
0.0
 12
71.1526211897
 22
70.731192676600003
 32
0.0
 13
71.1526211897
 23
70.731192676600003
 33
0.0
  0
SOLID
  5
D3
  8
CURB-14-DIM
  6
CONTINUOUS
 62
     6
 10
58.999939189700001
 20
150.81542955910001
 30
0.0
 11
59.833272189699997
 21
150.81542955910001
 31
0.0
 12
59.4166051897
 22
148.31581032119999
 32
0.0
 13
59.4166051897
 23
148.31581032119999
 33
0.0
  0
SOLID
  5
D4
  8
CURB-24-DIM
  6
CONTINUOUS
 62
     6
 10
59.7291051897
 20
93.756449111299986
 30
0.0
 11
59.4166051897
 21
91.881734682900003
 31
0.0
 12
59.1041051897
 22
93.756449111299986
 32
0.0
 13
59.1041051897
 23
93.756449111299986
 33
0.0
  0
SOLID
  5
D5
  8
CURB-24-DIM
  6
CONTINUOUS
 62
     6
 10
59.7291051897
 20
143.8738814644
 30
0.0
 11
59.1041051897
 21
143.8738814644
 31
0.0
 12
59.4166051897
 22
145.74859589280001
 32
0.0
 13
59.4166051897
 23
145.74859589280001
 33
0.0
  0
SOLID
  5
D6
  8
CURB-24-DIM
  6
CONTINUOUS
 62
     6
 10
156.9026211897
 20
70.418740271800004
 30
0.0
 11
156.9026211897
 21
71.043645081299999
 31
0.0
 12
158.7776211897
 22
70.731192676600003
 32
0.0
 13
158.7776211897
 23
70.731192676600003
 33
0.0
  0
SOLID
  5
D7
  8
CURB-24-DIM
  6
CONTINUOUS
 62
     6
 10
78.902621189699985
 20
70.418740271800004
 30
0.0
 11
77.027621189699985
 21
70.731192676600003
 31
0.0
 12
78.902621189699985
 22
71.043645081299999
 32
0.0
 13
78.902621189699985
 23
71.043645081299999
 33
0.0
  0
SOLID
  5
D8
  8
CURB-24-DIM
  6
CONTINUOUS
 62
     6
 10
68.6526211897
 20
70.314589136999984
 30
0.0
 11
68.6526211897
 21
71.147796216199993
 31
0.0
 12
71.1526211897
 22
70.731192676600003
 32
0.0
 13
71.1526211897
 23
70.731192676600003
 33
0.0
  0
SOLID
  5
D9
  8
CURB-24-DIM
  6
CONTINUOUS
 62
     6
 10
58.999939189700001
 20
150.81542955910001
 30
0.0
 11
59.833272189699997
 21
150.81542955910001
 31
0.0
 12
59.4166051897
 22
148.31581032119999
 32
0.0
 13
59.4166051897
 23
148.31581032119999
 33
0.0
  0
SOLID
  5
DA
  8
UNTDUCTDIM
  6
CONTINUOUS
 62
     2
 10
167.5126601897
 20
96.755992196800022
 30
0.0
 11
167.2001601897
 21
94.881277768299995
 31
0.0
 12
166.8876601897
 22
96.755992196800022
 32
0.0
 13
166.8876601897
 23
96.755992196800022
 33
0.0
  0
SOLID
  5
DB
  8
UNTDUCTDIM
  6
CONTINUOUS
 62
     2
 10
167.5126601897
 20
121.7521845757
 30
0.0
 11
166.8876601897
 21
121.7521845757
 31
0.0
 12
167.2001601897
 22
123.6268990041
 32
0.0
 13
167.2001601897
 23
123.6268990041
 33
0.0
  0
SOLID
  5
DC
  8
UNTDUCTDIM
  6
CONTINUOUS
 62
     2
 10
167.5126601897
 20
130.875794794
 30
0.0
 11
167.2001601897
 21
129.00108036559999
 31
0.0
 12
166.8876601897
 22
130.875794794
 32
0.0
 13
166.8876601897
 23
130.875794794
 33
0.0
  0
SOLID
  5
DD
  8
UNTDUCTDIM
  6
CONTINUOUS
 62
     2
 10
167.5126601897
 20
139.74944308849999
 30
0.0
 11
166.8876601897
 21
139.74944308849999
 31
0.0
 12
167.2001601897
 22
141.6241575169
 32
0.0
 13
167.2001601897
 23
141.6241575169
 33
0.0
  0
SOLID
  5
DE
  8
UNTDUCTDIM
  6
CONTINUOUS
 62
     2
 10
154.2776211897
 20
154.13046158680001
 30
0.0
 11
154.2776211897
 21
154.7553663962
 31
0.0
 12
156.1526211897
 22
154.44291399150001
 32
0.0
 13
156.1526211897
 23
154.44291399150001
 33
0.0
  0
SOLID
  5
DF
  8
UNTDUCTDIM
  6
CONTINUOUS
 62
     2
 10
121.6526211897
 20
154.7004615868
 30
0.0
 11
119.7776211897
 21
155.0129139915
 31
0.0
 12
121.6526211897
 22
155.3253663962
 32
0.0
 13
121.6526211897
 23
155.3253663962
 33
0.0
  0
SOLID
  5
E0
  8
UNTDUCTDIM
  6
CONTINUOUS
 62
     2
 10
158.0276211897
 20
84.547768024700005
 30
0.0
 11
156.1526211897
 21
84.860220429400002
 31
0.0
 12
158.0276211897
 22
85.1726728342
 32
0.0
 13
158.0276211897
 23
85.1726728342
 33
0.0
  0
SOLID
  5
E1
  8
UNTDUCTDIM
  6
CONTINUOUS
 62
     2
 10
140.2776211897
 20
84.547768024700005
 30
0.0
 11
140.2776211897
 21
85.1726728342
 31
0.0
 12
142.1526211897
 22
84.860220429400002
 32
0.0
 13
142.1526211897
 23
84.860220429400002
 33
0.0
  0
SOLID
  5
E2
  8
UNIT-DIM
  6
CONTINUOUS
 62
     7
 10
46.698444189699998
 20
90.749320354400012
 30
0.0
 11
46.385944189699998
 21
88.874605925899999
 31
0.0
 12
46.073444189699998
 22
90.749320354400012
 32
0.0
 13
46.073444189699998
 23
90.749320354400012
 33
0.0
  0
SOLID
  5
E3
  8
UNIT-DIM
  6
CONTINUOUS
 62
     7
 10
46.698444189699998
 20
146.50359589280001
 30
0.0
 11
46.073444189699998
 21
146.50359589280001
 31
0.0
 12
46.385944189699998
 22
148.37831032119999
 32
0.0
 13
46.385944189699998
 23
148.37831032119999
 33
0.0
  0
SOLID
  5
E4
  8
UNIT-DIM
  6
CONTINUOUS
 62
     7
 10
157.4026211897
 20
179.744471167
 30
0.0
 11
157.4026211897
 21
180.36937597639999
 31
0.0
 12
159.2776211897
 22
180.0569235717
 32
0.0
 13
159.2776211897
 23
180.0569235717
 33
0.0
  0
SOLID
  5
E5
  8
UNIT-DIM
  6
CONTINUOUS
 62
     7
 10
73.0276211897
 20
179.744471167
 30
0.0
 11
71.1526211897
 21
180.0569235717
 31
0.0
 12
73.0276211897
 22
180.36937597639999
 32
0.0
 13
73.0276211897
 23
180.36937597639999
 33
0.0
  0
DIMENSION
  5
E6
  8
UNTDUCTDIM
  6
CONTINUOUS
 62
     7
  2
*D1
 10
115.3401211897
 20
173.0249366006
 30
0.0
 11
145.33463166429999
 21
171.7124366006
 31
0.0
 70
   128
 13
155.7151211897
 23
169.13058787209999
 33
0.0
 14
115.3401211897
 24
169.13058787209999
 34
0.0
 50
180.0
  0
DIMENSION
  5
E7
  8
UNTDUCTDIM
  6
CONTINUOUS
 62
     7
  2
*D2
 10
181.5775652881
 20
169.13058787209999
 30
0.0
 11
181.5775652881
 21
154.96908224949999
 31
0.0
 70
   128
 13
159.2776211897
 23
148.37831032119999
 33
0.0
 14
155.7151211897
 24
169.13058787209999
 34
0.0
 50
90.0
  0
DIMENSION
  5
E8
  8
UNTDUCTDIM
  6
CONTINUOUS
 62
     2
  2
*D3
 10
159.2776211897
 20
79.891657059600007
 30
0.0
 11
171.96140635919991
 21
78.579157059600007
 31
0.0
 70
   128
 13
156.1526211897
 23
94.881277768299995
 33
0.0
 14
159.2776211897
 24
88.874605925899999
 34
0.0
  0
TEXT
  5
E9
  8
UNTDUCTDIM
  6
CONTINUOUS
 62
     2
 10
160.34599352303329
 20
110.1406033451
 30
0.0
 40
1.75
  1
2'-4 3/4"
  7
TEXTSTYLE_2
 72
     1
 11
167.2001601897
 21
110.1406033451
 31
0.0
  0
TEXT
  5
EA
  8
UNTDUCTDIM
  6
CONTINUOUS
 62
     2
 10
160.8426523609333
 20
135.1029566311
 30
0.0
 40
1.75
  1
1'-0 5/8"
  7
TEXTSTYLE_2
 72
     1
 11
167.25931902759999
 21
135.1029566311
 31
0.0
  0
TEXT
  5
EB
  8
CURBDUCTDIM
  6
CONTINUOUS
 62
     5
 10
174.68080018969999
 20
115.3841836008
 30
0.0
 40
1.75
  1
2'-7 1/2"
  7
TEXTSTYLE_2
 72
     1
 11
181.24330018969999
 21
115.3841836008
 31
0.0
  0
TEXT
  5
EC
  8
CURBDUCTDIM
  6
CONTINUOUS
 62
     5
 10
174.09746685636671
 20
137.3145356114
 30
0.0
 40
1.75
  1
1'-3 7/16"
  7
TEXTSTYLE_2
 72
     1
 11
181.24330018969999
 21
137.3145356114
 31
0.0
  0
TEXT
  5
ED
  8
UNTDUCTDIM
  6
CONTINUOUS
 62
     2
 10
163.84599352303329
 20
132.48252904329999
 30
0.0
 40
1.75
  1
(320)
  7
TEXTSTYLE_2
 72
     1
 11
167.2001601897
 21
132.48252904329999
 31
0.0
  0
TEXT
  5
EE
  8
CURBDUCTDIM
  6
CONTINUOUS
 62
     5
 10
177.74330018969999
 20
134.05168001760001
 30
0.0
 40
1.75
  1
(393)
  7
TEXTSTYLE_2
 72
     1
 11
181.24330018969999
 21
134.05168001760001
 31
0.0
  0
TEXT
  5
EF
  8
UNTDUCTDIM
  6
CONTINUOUS
 62
     2
 10
163.84599352303329
 20
107.22438056759999
 30
0.0
 40
1.75
  1
(730)
  7
TEXTSTYLE_2
 72
     1
 11
167.2001601897
 21
107.22438056759999
 31
0.0
  0
TEXT
  5
F0
  8
CURBDUCTDIM
  6
CONTINUOUS
 62
     5
 10
178.03496685636671
 20
112.4679608233
 30
0.0
 40
1.75
  1
(800)
  7
TEXTSTYLE_2
 72
     1
 11
181.24330018969999
 21
112.4679608233
 31
0.0
  0
TEXT
  5
F1
  8
CURB-14-DIM
  6
CONTINUOUS
 62
     6
 10
53.6041051897
 20
121.97780520729999
 30
0.0
 40
1.75
  1
4'-5 1/2"
  7
TEXTSTYLE_2
 72
     1
 11
60.1666051897
 21
121.97780520729999
 31
0.0
  0
TEXT
  5
F2
  8
UNIT-DIM
  6
CONTINUOUS
 62
     7
 10
40.281777523033341
 20
113.901697598
 30
0.0
 40
1.75
  1
4'-11 1/2"
  7
TEXTSTYLE_2
 72
     1
 11
47.135944189699998
 21
113.901697598
 31
0.0
  0
TEXT
  5
F3
  8
CURB-14-DIM
  6
CONTINUOUS
 62
     6
 10
56.083271856366657
 20
119.0615824298
 30
0.0
 40
1.75
  1
(1359)
  7
TEXTSTYLE_2
 72
     1
 11
60.1666051897
 21
119.0615824298
 31
0.0
  0
TEXT
  5
F4
  8
UNIT-DIM
  6
CONTINUOUS
 62
     7
 10
43.49011085636667
 20
110.9854758204
 30
0.0
 40
1.75
  1
(1510)
  7
TEXTSTYLE_2
 72
     1
 11
47.135944189699998
 21
110.9854758204
 31
0.0
  0
TEXT
  5
F5
  8
UNTDUCTDIM
  6
CONTINUOUS
 62
     2
 10
132.93484218713331
 20
154.28523886240001
 30
0.0
 40
1.75
  1
3'-3/8"
  7
TEXTSTYLE_2
 72
     1
 11
138.0390088538
 21
154.28523886240001
 31
0.0
  0
TEXT
  5
F6
  8
UNTDUCTDIM
  6
CONTINUOUS
 62
     2
 10
146.0901211897
 20
83.985353696199994
 30
0.0
 40
1.75
  1
1'-2"
  7
TEXTSTYLE_2
 72
     1
 11
149.1526211897
 21
83.985353696199994
 31
0.0
  0
TEXT
  5
F7
  8
CURBDUCTDIM
  6
CONTINUOUS
 62
     5
 10
129.2151211897
 20
161.13769618840001
 30
0.0
 40
1.75
  1
3'-4 3/16"
  7
TEXTSTYLE_2
 72
     1
 11
136.6526211897
 21
161.13769618840001
 31
0.0
  0
TEXT
  5
F8
  8
CURBDUCTDIM
  6
CONTINUOUS
 62
     5
 10
118.8720674452333
 20
75.997534605200002
 30
0.0
 40
1.75
  1
1'-3 15/16"
  7
TEXTSTYLE_2
 72
     1
 11
126.6012341119
 21
75.997534605200002
 31
0.0
  0
TEXT
  5
F9
  8
CURB-14-DIM
  6
CONTINUOUS
 62
     6
 10
111.0484545230333
 20
69.856325943299993
 30
0.0
 40
1.75
  1
6'-9 3/4"
  7
TEXTSTYLE_2
 72
     1
 11
117.9026211897
 21
69.856325943299993
 31
0.0
  0
TEXT
  5
FA
  8
UNIT-DIM
  6
CONTINUOUS
 62
     7
 10
95.769577516100014
 20
179.1820568384
 30
0.0
 40
1.75
  1
7'-4 1/8"
  7
TEXTSTYLE_2
 72
     1
 11
102.3320775161
 21
179.1820568384
 31
0.0
  0
TEXT
  5
FB
  8
UNIT-DIM
  6
CONTINUOUS
 62
     7
 10
98.7070775161
 20
176.2658340609
 30
0.0
 40
1.75
  1
(2238)
  7
TEXTSTYLE_2
 72
     1
 11
103.0820775161
 21
176.2658340609
 31
0.0
  0
TEXT
  5
FC
  8
CURBDUCTDIM
  6
CONTINUOUS
 62
     5
 10
133.0067878563666
 20
158.2214744108
 30
0.0
 40
1.75
  1
(1021)
  7
TEXTSTYLE_2
 72
     1
 11
136.6526211897
 21
158.2214744108
 31
0.0
  0
TEXT
  5
FD
  8
UNTDUCTDIM
  6
CONTINUOUS
 62
     2
 10
134.5390088538
 20
151.36901708479999
 30
0.0
 40
1.75
  1
(925)
  7
TEXTSTYLE_2
 72
     1
 11
138.0390088538
 21
151.36901708479999
 31
0.0
  0
TEXT
  5
FE
  8
UNTDUCTDIM
  6
CONTINUOUS
 62
     2
 10
145.6526211897
 20
81.069131918500005
 30
0.0
 40
1.75
  1
(355)
  7
TEXTSTYLE_2
 72
     1
 11
149.1526211897
 21
81.069131918500005
 31
0.0
  0
TEXT
  5
FF
  8
CURBDUCTDIM
  6
CONTINUOUS
 62
     5
 10
123.2470674452333
 20
73.0813128275
 30
0.0
 40
1.75
  1
(402)
  7
TEXTSTYLE_2
 72
     1
 11
126.6012341119
 21
73.0813128275
 31
0.0
  0
TEXT
  5
100
  8
CURB-14-DIM
  6
CONTINUOUS
 62
     6
 10
113.6734545230333
 20
66.940103165799997
 30
0.0
 40
1.75
  1
(2076)
  7
TEXTSTYLE_2
 72
     1
 11
117.9026211897
 21
66.940103165799997
 31
0.0
  0
TEXT
  5
101
  8
SERVCLRDIM
  6
CONTINUOUS
 62
     1
 10
180.60870814426659
 20
191.31632088840001
 30
0.0
 40
1.75
  1
3'
  7
TEXTSTYLE_2
 72
     1
 11
181.62954147759999
 21
191.31632088840001
 31
0.0
  0
TEXT
  5
102
  8
SERVCLRDIM
  6
CONTINUOUS
 62
     1
 10
52.881787856366671
 20
179.1820568384
 30
0.0
 40
1.75
  1
4'
  7
TEXTSTYLE_2
 72
     1
 11
53.902621189699992
 21
179.1820568384
 31
0.0
  0
TEXT
  5
103
  8
SERVCLRDIM
  6
CONTINUOUS
 62
     1
 10
178.42120814426659
 20
188.40009811089999
 30
0.0
 40
1.75
  1
(914)
  7
TEXTSTYLE_2
 72
     1
 11
181.62954147759999
 21
188.40009811089999
 31
0.0
  0
TEXT
  5
104
  8
SERVCLRDIM
  6
CONTINUOUS
 62
     1
 10
50.110954523033328
 20
176.2658340609
 30
0.0
 40
1.75
  1
(1219)
  7
TEXTSTYLE_2
 72
     1
 11
53.902621189699992
 21
176.2658340609
 31
0.0
  0
TEXT
  5
105
  8
CURBDUCTDIM
  6
CONTINUOUS
 62
     5
 10
165.52762085636661
 20
161.13769618840001
 30
0.0
 40
1.75
  1
2 13/16"
  7
TEXTSTYLE_2
 72
     1
 11
171.36095418970001
 21
161.13769618840001
 31
0.0
  0
TEXT
  5
106
  8
CURBDUCTDIM
  6
CONTINUOUS
 62
     5
 10
184.9932995230333
 20
83.000500716900007
 30
0.0
 40
1.75
  1
4 3/4"
  7
TEXTSTYLE_2
 72
     1
 11
189.65996618969999
 21
83.000500716900007
 31
0.0
  0
TEXT
  5
107
  8
CURBDUCTDIM
  6
CONTINUOUS
 62
     5
 10
190.45321399433331
 20
132.21829591189999
 30
0.0
 40
1.75
  1
3"
  7
TEXTSTYLE_2
 72
     1
 11
191.619880661
 21
132.21829591189999
 31
0.0
  0
TEXT
  5
108
  8
CURB-14-DIM
  6
CONTINUOUS
 62
     6
 10
56.9026211897
 20
69.856325943299993
 30
0.0
 40
1.75
  1
5 1/8"
  7
TEXTSTYLE_2
 72
     1
 11
61.2776211897
 21
69.856325943299993
 31
0.0
  0
TEXT
  5
109
  8
CURB-14-DIM
  6
CONTINUOUS
 62
     6
 10
51.718955718433328
 20
152.9647743356
 30
0.0
 40
1.75
  1
3"
  7
TEXTSTYLE_2
 72
     1
 11
52.885622385099992
 21
152.9647743356
 31
0.0
  0
TEXT
  5
10A
  8
SERVCLRDIM
  6
CONTINUOUS
 62
     1
 10
45.36511085636667
 20
58.797542506199989
 30
0.0
 40
1.75
  1
4'
  7
TEXTSTYLE_2
 72
     1
 11
46.385944189699998
 21
58.797542506199989
 31
0.0
  0
TEXT
  5
10B
  8
SERVCLRDIM
  6
CONTINUOUS
 62
     1
 10
42.594277523033327
 20
55.881319728699999
 30
0.0
 40
1.75
  1
(1219)
  7
TEXTSTYLE_2
 72
     1
 11
46.385944189699998
 21
55.881319728699999
 31
0.0
  0
TEXT
  5
10C
  8
CURB-14-DIM
  6
CONTINUOUS
 62
     6
 10
58.2151211897
 20
66.940103165799997
 30
0.0
 40
1.75
  1
(130)
  7
TEXTSTYLE_2
 72
     1
 11
61.2776211897
 21
66.940103165799997
 31
0.0
  0
TEXT
  5
10D
  8
CURB-14-DIM
  6
CONTINUOUS
 62
     6
 10
50.2606223851
 20
150.04855255800001
 30
0.0
 40
1.75
  1
(75)
  7
TEXTSTYLE_2
 72
     1
 11
52.885622385099992
 21
150.04855255800001
 31
0.0
  0
TEXT
  5
10E
  8
CURBDUCTDIM
  6
CONTINUOUS
 62
     5
 10
186.7432995230333
 20
80.084278939200004
 30
0.0
 40
1.75
  1
(121)
  7
TEXTSTYLE_2
 72
     1
 11
189.65996618969999
 21
80.084278939200004
 31
0.0
  0
TEXT
  5
10F
  8
CURBDUCTDIM
  6
CONTINUOUS
 62
     5
 10
188.994880661
 20
129.30207413420001
 30
0.0
 40
1.75
  1
(76)
  7
TEXTSTYLE_2
 72
     1
 11
191.619880661
 21
129.30207413420001
 31
0.0
  0
TEXT
  5
110
  8
CURBDUCTDIM
  6
CONTINUOUS
 62
     5
 10
169.02762085636661
 20
158.2214744108
 30
0.0
 40
1.75
  1
(71)
  7
TEXTSTYLE_2
 72
     1
 11
171.36095418970001
 21
158.2214744108
 31
0.0
  0
TEXT
  5
111
  8
NOTES
  6
CONTINUOUS
 62
     1
 10
0.8
 20
1.1248476951999991
 30
0.0
 40
1.75
  1
VIEW: TOP
 41
0.8
  0
TEXT
  5
112
  8
NOTES
  6
CONTINUOUS
 62
     1
 10
0.8
 20
5.6241623234000002
 30
0.0
 40
1.75
  1
FILE NAME: 
 41
0.8
  0
TEXT
  5
113
  8
NOTES
  6
CONTINUOUS
 62
     1
 10
16.199999999999999
 20
5.6241623234000002
 30
0.0
 40
1.75
  1
TSP34-T-
 41
0.8
  0
TEXT
  5
114
  8
NOTES
  6
CONTINUOUS
 62
     1
 10
17.066666666700002
 20
9.6235531039999991
 30
0.0
 40
1.75
  1
LAYER KEY
 41
0.8
  0
TEXT
  5
115
  8
NOTES
  6
CONTINUOUS
 62
     7
 10
1.0303146667
 20
13.6229438846
 30
0.0
 40
1.75
  1
-
 41
8.0
  7
TEXTSTYLE_3
  0
TEXT
  5
116
  8
NOTES
  6
CONTINUOUS
 62
     1
 10
16.800000000000001
 20
13.6229438846
 30
0.0
 40
1.75
  1
UNIT
 41
0.8
  0
TEXT
  5
117
  8
NOTES
  6
CONTINUOUS
 62
     6
 10
1.0303146667
 20
17.6223346652
 30
0.0
 40
1.75
  1
-
 41
8.0
  7
TEXTSTYLE_3
  0
TEXT
  5
118
  8
NOTES
  6
CONTINUOUS
 62
     1
 10
16.800000000000001
 20
17.6223346652
 30
0.0
 40
1.75
  1
ROOF CURB
 41
0.8
  0
TEXT
  5
119
  8
NOTES
  6
CONTINUOUS
 62
     1
 10
1.0303146667
 20
21.621725445900001
 30
0.0
 40
1.75
  1
-
 41
8.0
  7
TEXTSTYLE_3
  0
TEXT
  5
11A
  8
NOTES
  6
CONTINUOUS
 62
     1
 10
16.800000000000001
 20
21.621725445900001
 30
0.0
 40
1.75
  1
SERVICE CLEARANCE
 41
0.8
  0
TEXT
  5
11B
  8
NOTES
  6
CONTINUOUS
 62
     2
 10
1.0303146667
 20
25.6211162265
 30
0.0
 40
1.75
  1
-
 41
8.0
  7
TEXTSTYLE_3
  0
TEXT
  5
11C
  8
NOTES
  6
CONTINUOUS
 62
     1
 10
16.800000000000001
 20
25.6211162265
 30
0.0
 40
1.75
  1
UNIT DUCTS
 41
0.8
  0
TEXT
  5
11D
  8
NOTES
  6
CONTINUOUS
 62
     5
 10
1.0303146667
 20
29.620507007099999
 30
0.0
 40
1.75
  1
-
 41
8.0
  7
TEXTSTYLE_3
  0
TEXT
  5
11E
  8
NOTES
  6
CONTINUOUS
 62
     1
 10
16.800000000000001
 20
29.620507007099999
 30
0.0
 40
1.75
  1
CURB DUCTS
 41
0.8
  0
TEXT
  5
11F
  8
NOTES
  6
CONTINUOUS
 62
     9
 10
1.0303146667
 20
33.619897787699998
 30
0.0
 40
1.75
  1
-
 41
8.0
  7
TEXTSTYLE_3
  0
TEXT
  5
120
  8
NOTES
  6
CONTINUOUS
 62
     1
 10
16.800000000000001
 20
33.619897787699998
 30
0.0
 40
1.75
  1
UNIT HIDDEN
 41
0.8
  0
TEXT
  5
121
  8
SERVCLRDIM
  6
CONTINUOUS
 62
     1
 10
175.8812644402667
 20
69.427148729699994
 30
0.0
 40
1.75
  1
3'
  7
TEXTSTYLE_2
 72
     1
 11
176.90209777359999
 21
69.427148729699994
 31
0.0
  0
TEXT
  5
122
  8
SERVCLRDIM
  6
CONTINUOUS
 62
     1
 10
173.69376444026659
 20
66.802148729700008
 30
0.0
 40
1.75
  1
(914)
  7
TEXTSTYLE_2
 72
     1
 11
176.90209777359999
 21
66.802148729700008
 31
0.0
  0
TEXT
  5
123
  8
NOTES
  6
CONTINUOUS
 62
     1
 10
95.078431656399999
 20
54.546681555299998
 30
0.0
 40
1.75
  1
CONNECTION SIZES:
  7
TEXTSTYLE_2
  0
TEXT
  5
124
  8
NOTES
  6
CONTINUOUS
 62
     1
 10
95.078431656399999
 20
51.921681555299998
 30
0.0
 40
1.75
  1
1/2"         ACC
  7
TEXTSTYLE_2
  0
TEXT
  5
125
  8
NOTES
  6
CONTINUOUS
 62
     1
 10
95.078431656399999
 20
49.29668155529999
 30
0.0
 40
1.75
  1
1/2"         24V
  7
TEXTSTYLE_2
  0
TEXT
  5
126
  8
NOTES
  6
CONTINUOUS
 62
     1
 10
95.078431656399999
 20
46.67168155529999
 30
0.0
 40
1.75
  1
1 1/4"       POWER
  7
TEXTSTYLE_2
  0
LINE
  5
127
  8
NOTES
  6
CONTINUOUS
 62
     1
 10
99.511199791500005
 20
100.0200360635
 30
0.0
 11
91.438160803399995
 21
55.42168155529999
 31
0.0
  0
LINE
  5
128
  8
NOTES
  6
CONTINUOUS
 62
     1
 10
91.438160803399995
 20
55.42168155529999
 30
0.0
 11
95.078431656399999
 21
55.42168155529999
 31
0.0
  0
SOLID
  5
129
  8
NOTES
  6
CONTINUOUS
 62
     1
 10
99.523959387199994
 20
97.985223494099984
 30
0.0
 11
99.511199791500005
 21
100.0200360635
 31
0.0
 12
98.785953049900002
 22
98.118814833899989
 32
0.0
 13
98.785953049900002
 23
98.118814833899989
 33
0.0
  0
TEXT
  5
12A
  8
CURB-24-DIM
  6
CONTINUOUS
 62
     6
 10
53.6041051897
 20
121.97780520729999
 30
0.0
 40
1.75
  1
4'-5 1/2"
  7
TEXTSTYLE_2
 72
     1
 11
60.1666051897
 21
121.97780520729999
 31
0.0
  0
TEXT
  5
12B
  8
CURB-24-DIM
  6
CONTINUOUS
 62
     6
 10
56.083271856366657
 20
119.0615824298
 30
0.0
 40
1.75
  1
(1359)
  7
TEXTSTYLE_2
 72
     1
 11
60.1666051897
 21
119.0615824298
 31
0.0
  0
TEXT
  5
12C
  8
CURB-24-DIM
  6
CONTINUOUS
 62
     6
 10
111.0484545230333
 20
69.856325943299993
 30
0.0
 40
1.75
  1
6'-9 3/4"
  7
TEXTSTYLE_2
 72
     1
 11
117.9026211897
 21
69.856325943299993
 31
0.0
  0
TEXT
  5
12D
  8
CURB-24-DIM
  6
CONTINUOUS
 62
     6
 10
113.6734545230333
 20
66.940103165799997
 30
0.0
 40
1.75
  1
(2076)
  7
TEXTSTYLE_2
 72
     1
 11
117.9026211897
 21
66.940103165799997
 31
0.0
  0
TEXT
  5
12E
  8
CURB-24-DIM
  6
CONTINUOUS
 62
     6
 10
56.9026211897
 20
69.856325943299993
 30
0.0
 40
1.75
  1
5 1/8"
  7
TEXTSTYLE_2
 72
     1
 11
61.2776211897
 21
69.856325943299993
 31
0.0
  0
TEXT
  5
12F
  8
CURB-24-DIM
  6
CONTINUOUS
 62
     6
 10
51.718955718433328
 20
152.9647743356
 30
0.0
 40
1.75
  1
3"
  7
TEXTSTYLE_2
 72
     1
 11
52.885622385099992
 21
152.9647743356
 31
0.0
  0
TEXT
  5
130
  8
CURB-24-DIM
  6
CONTINUOUS
 62
     6
 10
58.2151211897
 20
66.940103165799997
 30
0.0
 40
1.75
  1
(130)
  7
TEXTSTYLE_2
 72
     1
 11
61.2776211897
 21
66.940103165799997
 31
0.0
  0
TEXT
  5
131
  8
CURB-24-DIM
  6
CONTINUOUS
 62
     6
 10
50.2606223851
 20
150.04855255800001
 30
0.0
 40
1.75
  1
(75)
  7
TEXTSTYLE_2
 72
     1
 11
52.885622385099992
 21
150.04855255800001
 31
0.0
  0
LINE
  5
132
  8
0
  6
CONTINUOUS
 62
     7
 10
0.0
 20
0.0
 30
0.0
 11
200.0
 21
0.0
 31
0.0
  0
LINE
  5
133
  8
NOTES
  6
CONTINUOUS
 62
     1
 10
0.0
 20
0.0
 30
0.0
 11
48.0
 21
0.0
 31
0.0
  0
LINE
  5
134
  8
NOTES
  6
CONTINUOUS
 62
     1
 10
0.0
 20
3.9993907806000002
 30
0.0
 11
48.0
 21
3.9993907806000002
 31
0.0
  0
LINE
  5
135
  8
NOTES
  6
CONTINUOUS
 62
     1
 10
0.0
 20
4.4993146281999987
 30
0.0
 11
48.0
 21
4.4993146281999987
 31
0.0
  0
LINE
  5
136
  8
NOTES
  6
CONTINUOUS
 62
     1
 10
0.0
 20
8.4987054087999994
 30
0.0
 11
48.0
 21
8.4987054087999994
 31
0.0
  0
LINE
  5
137
  8
NOTES
  6
CONTINUOUS
 62
     1
 10
0.0
 20
0.0
 30
0.0
 11
0.0
 21
36.494440873199999
 31
0.0
  0
LINE
  5
138
  8
0
  6
CONTINUOUS
 62
     7
 10
0.0
 20
0.0
 30
0.0
 11
0.0
 21
225.0
 31
0.0
  0
LINE
  5
139
  8
NOTES
  6
CONTINUOUS
 62
     1
 10
0.0
 20
12.4980961895
 30
0.0
 11
48.0
 21
12.4980961895
 31
0.0
  0
LINE
  5
13A
  8
NOTES
  6
CONTINUOUS
 62
     1
 10
0.0
 20
16.497486970099999
 30
0.0
 11
48.0
 21
16.497486970099999
 31
0.0
  0
LINE
  5
13B
  8
NOTES
  6
CONTINUOUS
 62
     1
 10
0.0
 20
20.496877750700001
 30
0.0
 11
48.0
 21
20.496877750700001
 31
0.0
  0
LINE
  5
13C
  8
NOTES
  6
CONTINUOUS
 62
     1
 10
16.0
 20
12.4980961895
 30
0.0
 11
16.0
 21
36.494440873199999
 31
0.0
  0
LINE
  5
13D
  8
NOTES
  6
CONTINUOUS
 62
     1
 10
0.0
 20
24.4962685313
 30
0.0
 11
48.0
 21
24.4962685313
 31
0.0
  0
LINE
  5
13E
  8
NOTES
  6
CONTINUOUS
 62
     1
 10
0.0
 20
28.495659312000001
 30
0.0
 11
48.0
 21
28.495659312000001
 31
0.0
  0
LINE
  5
13F
  8
SERVCLEAR
  6
CENTER
 62
     1
 10
23.1526211897
 20
205.13058787209999
 30
0.0
 11
23.1526211897
 21
40.8819165584
 31
0.0
  0
LINE
  5
140
  8
SERVCLRDIM
  6
CONTINUOUS
 62
     1
 10
25.0276211897
 20
180.36937597639999
 30
0.0
 11
25.0276211897
 21
179.744471167
 31
0.0
  0
LINE
  5
141
  8
NOTES
  6
CONTINUOUS
 62
     1
 10
0.0
 20
32.495050092600003
 30
0.0
 11
48.0
 21
32.495050092600003
 31
0.0
  0
LINE
  5
142
  8
NOTES
  6
CONTINUOUS
 62
     1
 10
0.0
 20
36.494440873199999
 30
0.0
 11
48.0
 21
36.494440873199999
 31
0.0
  0
LINE
  5
143
  8
SERVCLEAR
  6
CENTER
 62
     1
 10
195.30244243279989
 20
40.8819165584
 30
0.0
 11
23.1526211897
 21
40.8819165584
 31
0.0
  0
LINE
  5
144
  8
SERVCLRDIM
  6
CONTINUOUS
 62
     1
 10
45.969277189699987
 20
43.3815357963
 30
0.0
 11
46.802611189700002
 21
43.3815357963
 31
0.0
  0
LINE
  5
145
  8
SERVCLRDIM
  6
CONTINUOUS
 62
     1
 10
46.385944189699998
 20
40.8819165584
 30
0.0
 11
45.969277189699987
 21
43.3815357963
 31
0.0
  0
LINE
  5
146
  8
UNIT-DIM
  6
CONTINUOUS
 62
     7
 10
46.385944189699998
 20
148.37831032119999
 30
0.0
 11
46.073444189699998
 21
146.50359589280001
 31
0.0
  0
LINE
  5
147
  8
SERVCLRDIM
  6
CONTINUOUS
 62
     1
 10
192.80244243280001
 20
70.314589470299993
 30
0.0
 11
195.30244243279989
 21
70.731192676600003
 31
0.0
  0
LINE
  5
148
  8
SERVCLRDIM
  6
CONTINUOUS
 62
     1
 10
46.802611189700002
 20
86.374986687999993
 30
0.0
 11
46.385944189699998
 21
88.874605925899999
 31
0.0
  0
LINE
  5
149
  8
UNIT-DIM
  6
CONTINUOUS
 62
     7
 10
46.385944189699998
 20
88.874605925899999
 30
0.0
 11
46.073444189699998
 21
90.749320354400012
 31
0.0
  0
LINE
  5
14A
  8
UNIT-DIM
  6
CONTINUOUS
 62
     7
 10
46.385944189699998
 20
148.37831032119999
 30
0.0
 11
46.385944189699998
 21
116.2724004735
 31
0.0
  0
LINE
  5
14B
  8
SERVCLRDIM
  6
CONTINUOUS
 62
     1
 10
46.385944189699998
 20
88.874605925899999
 30
0.0
 11
46.385944189699998
 21
62.680281056200002
 31
0.0
  0
LINE
  5
14C
  8
SERVCLRDIM
  6
CONTINUOUS
 62
     1
 10
46.385944189699998
 20
41.1152210196
 30
0.0
 11
46.385944189699998
 21
54.164917184899998
 31
0.0
  0
LINE
  5
14D
  8
UNIT-DIM
  6
CONTINUOUS
 62
     7
 10
46.385944189699998
 20
89.498857834899994
 30
0.0
 11
46.385944189699998
 21
110.0220455778
 31
0.0
  0
LINE
  5
14E
  8
NOTES
  6
CONTINUOUS
 62
     1
 10
48.0
 20
0.0
 30
0.0
 11
48.0
 21
36.494440873199999
 31
0.0
  0
LINE
  5
14F
  8
UNIT-DIM
  6
CONTINUOUS
 62
     7
 10
46.698444189699998
 20
90.749320354400012
 30
0.0
 11
46.385944189699998
 21
88.874605925899999
 31
0.0
  0
LINE
  5
150
  8
SERVCLRDIM
  6
CONTINUOUS
 62
     1
 10
46.385944189699998
 20
88.874605925899999
 30
0.0
 11
45.969277189699987
 21
86.374986687999993
 31
0.0
  0
LINE
  5
151
  8
CURB-14-DIM
  6
CONTINUOUS
 62
     6
 10
59.4166051897
 20
148.31581032119999
 30
0.0
 11
59.833272189699997
 21
150.81542955910001
 31
0.0
  0
LINE
  5
152
  8
CURB-24-DIM
  6
CONTINUOUS
 62
     6
 10
59.4166051897
 20
148.31581032119999
 30
0.0
 11
59.833272189699997
 21
150.81542955910001
 31
0.0
  0
LINE
  5
153
  8
CURB-14-DIM
  6
CONTINUOUS
 62
     6
 10
59.4166051897
 20
145.74859589280001
 30
0.0
 11
59.1041051897
 21
143.8738814644
 31
0.0
  0
LINE
  5
154
  8
CURB-24-DIM
  6
CONTINUOUS
 62
     6
 10
59.4166051897
 20
145.74859589280001
 30
0.0
 11
59.1041051897
 21
143.8738814644
 31
0.0
  0
LINE
  5
155
  8
SERVCLRDIM
  6
CONTINUOUS
 62
     1
 10
159.2776211897
 20
70.731192676600003
 30
0.0
 11
161.7776211897
 21
71.147795882899999
 31
0.0
  0
LINE
  5
156
  8
CURB-14-DIM
  6
CONTINUOUS
 62
     6
 10
156.9026211897
 20
70.418740271800004
 30
0.0
 11
158.7776211897
 21
70.731192676600003
 31
0.0
  0
LINE
  5
157
  8
CURB-24-DIM
  6
CONTINUOUS
 62
     6
 10
156.9026211897
 20
70.418740271800004
 30
0.0
 11
158.7776211897
 21
70.731192676600003
 31
0.0
  0
LINE
  5
158
  8
CURB-14-DIM
  6
CONTINUOUS
 62
     6
 10
71.1526211897
 20
70.731192676600003
 30
0.0
 11
68.6526211897
 21
71.147796216199993
 31
0.0
  0
LINE
  5
159
  8
CURB-24-DIM
  6
CONTINUOUS
 62
     6
 10
71.1526211897
 20
70.731192676600003
 30
0.0
 11
68.6526211897
 21
71.147796216199993
 31
0.0
  0
LINE
  5
15A
  8
UNIT-DIM
  6
CONTINUOUS
 62
     7
 10
46.698444189699998
 20
146.50359589280001
 30
0.0
 11
46.385944189699998
 21
148.37831032119999
 31
0.0
  0
LINE
  5
15B
  8
CURB-14-DIM
  6
CONTINUOUS
 62
     6
 10
59.4166051897
 20
144.68684598359999
 30
0.0
 11
59.4166051897
 21
124.3485080828
 31
0.0
  0
LINE
  5
15C
  8
CURB-24-DIM
  6
CONTINUOUS
 62
     6
 10
59.4166051897
 20
144.68684598359999
 30
0.0
 11
59.4166051897
 21
124.3485080828
 31
0.0
  0
LINE
  5
15D
  8
CURB-14-DIM
  6
CONTINUOUS
 62
     6
 10
59.4166051897
 20
92.50598659180001
 30
0.0
 11
59.4166051897
 21
118.0981521873
 31
0.0
  0
LINE
  5
15E
  8
CURB-24-DIM
  6
CONTINUOUS
 62
     6
 10
59.4166051897
 20
92.50598659180001
 30
0.0
 11
59.4166051897
 21
118.0981521873
 31
0.0
  0
LINE
  5
15F
  8
CURB-14-DIM
  6
CONTINUOUS
 62
     6
 10
59.4166051897
 20
148.37831032119999
 30
0.0
 11
59.4166051897
 21
153.87792955910001
 31
0.0
  0
LINE
  5
160
  8
CURB-24-DIM
  6
CONTINUOUS
 62
     6
 10
59.4166051897
 20
148.37831032119999
 30
0.0
 11
59.4166051897
 21
153.87792955910001
 31
0.0
  0
LINE
  5
161
  8
SERVCLRDIM
  6
CONTINUOUS
 62
     1
 10
46.802611189700002
 20
43.3815357963
 30
0.0
 11
46.385944189699998
 21
40.8819165584
 31
0.0
  0
LINE
  5
162
  8
CURB-14-DIM
  6
CONTINUOUS
 62
     6
 10
59.7291051897
 20
93.756449111299986
 30
0.0
 11
59.4166051897
 21
91.881734682900003
 31
0.0
  0
LINE
  5
163
  8
CURB-24-DIM
  6
CONTINUOUS
 62
     6
 10
59.7291051897
 20
93.756449111299986
 30
0.0
 11
59.4166051897
 21
91.881734682900003
 31
0.0
  0
LINE
  5
164
  8
CURBDUCTDIM
  6
CONTINUOUS
 62
     5
 10
154.5901211897
 20
76.742204031
 30
0.0
 11
156.4651211897
 21
77.054656435699997
 31
0.0
  0
LINE
  5
165
  8
CURBDUCTDIM
  6
CONTINUOUS
 62
     5
 10
140.5276211897
 20
77.054656435699997
 30
0.0
 11
142.4026211897
 21
77.367108840499995
 31
0.0
  0
LINE
  5
166
  8
CURB-14-DIM
  6
CONTINUOUS
 62
     6
 10
77.027621189699985
 20
70.731192676600003
 30
0.0
 11
78.902621189699985
 21
71.043645081299999
 31
0.0
  0
LINE
  5
167
  8
CURB-24-DIM
  6
CONTINUOUS
 62
     6
 10
77.027621189699985
 20
70.731192676600003
 30
0.0
 11
78.902621189699985
 21
71.043645081299999
 31
0.0
  0
LINE
  5
168
  8
UNTDUCTDIM
  6
CONTINUOUS
 62
     2
 10
156.1526211897
 20
84.860220429400002
 30
0.0
 11
158.0276211897
 21
85.1726728342
 31
0.0
  0
LINE
  5
169
  8
CURB-14-DIM
  6
CONTINUOUS
 62
     6
 10
68.6526211897
 20
70.314589136999984
 30
0.0
 11
71.1526211897
 21
70.731192676600003
 31
0.0
  0
LINE
  5
16A
  8
CURB-24-DIM
  6
CONTINUOUS
 62
     6
 10
68.6526211897
 20
70.314589136999984
 30
0.0
 11
71.1526211897
 21
70.731192676600003
 31
0.0
  0
LINE
  5
16B
  8
SERVCLRDIM
  6
CONTINUOUS
 62
     1
 10
192.80244243280001
 20
70.731192676600003
 30
0.0
 11
183.49087416149999
 21
70.731192676600003
 31
0.0
  0
LINE
  5
16C
  8
CURB-14-DIM
  6
CONTINUOUS
 62
     6
 10
156.9026211897
 20
70.731192676600003
 30
0.0
 11
126.0067881897
 21
70.731192676600003
 31
0.0
  0
LINE
  5
16D
  8
CURB-24-DIM
  6
CONTINUOUS
 62
     6
 10
156.9026211897
 20
70.731192676600003
 30
0.0
 11
126.0067881897
 21
70.731192676600003
 31
0.0
  0
LINE
  5
16E
  8
CURB-14-DIM
  6
CONTINUOUS
 62
     6
 10
71.1526211897
 20
70.731192676600003
 30
0.0
 11
66.1526211897
 21
70.731192676600003
 31
0.0
  0
LINE
  5
16F
  8
CURB-24-DIM
  6
CONTINUOUS
 62
     6
 10
71.1526211897
 20
70.731192676600003
 30
0.0
 11
66.1526211897
 21
70.731192676600003
 31
0.0
  0
LINE
  5
170
  8
CURB-14-DIM
  6
CONTINUOUS
 62
     6
 10
77.027621189699985
 20
70.731192676600003
 30
0.0
 11
109.7984541897
 21
70.731192676600003
 31
0.0
  0
LINE
  5
171
  8
CURB-24-DIM
  6
CONTINUOUS
 62
     6
 10
77.027621189699985
 20
70.731192676600003
 30
0.0
 11
109.7984541897
 21
70.731192676600003
 31
0.0
  0
LINE
  5
172
  8
SERVCLRDIM
  6
CONTINUOUS
 62
     1
 10
161.7776211897
 20
70.731192676600003
 30
0.0
 11
171.07420749490001
 21
70.731192676600003
 31
0.0
  0
LINE
  5
173
  8
CURB-14-DIM
  6
CONTINUOUS
 62
     6
 10
78.902621189699985
 20
70.418740271800004
 30
0.0
 11
77.027621189699985
 21
70.731192676600003
 31
0.0
  0
LINE
  5
174
  8
CURB-24-DIM
  6
CONTINUOUS
 62
     6
 10
78.902621189699985
 20
70.418740271800004
 30
0.0
 11
77.027621189699985
 21
70.731192676600003
 31
0.0
  0
LINE
  5
175
  8
CURB-14-DIM
  6
CONTINUOUS
 62
     6
 10
59.4166051897
 20
91.881734682900003
 30
0.0
 11
59.1041051897
 21
93.756449111299986
 31
0.0
  0
LINE
  5
176
  8
CURB-24-DIM
  6
CONTINUOUS
 62
     6
 10
59.4166051897
 20
91.881734682900003
 30
0.0
 11
59.1041051897
 21
93.756449111299986
 31
0.0
  0
LINE
  5
177
  8
CURB-14-DIM
  6
CONTINUOUS
 62
     6
 10
68.6526211897
 20
71.147796216199993
 30
0.0
 11
68.6526211897
 21
70.314589136999984
 31
0.0
  0
LINE
  5
178
  8
CURB-24-DIM
  6
CONTINUOUS
 62
     6
 10
68.6526211897
 20
71.147796216199993
 30
0.0
 11
68.6526211897
 21
70.314589136999984
 31
0.0
  0
LINE
  5
179
  8
SERVCLRDIM
  6
CONTINUOUS
 62
     1
 10
69.2776211897
 20
180.36937597639999
 30
0.0
 11
69.2776211897
 21
179.744471167
 31
0.0
  0
POLYLINE
  5
17A
  8
UNIT-SOL
  6
CONTINUOUS
 62
     7
 66
     1
 10
0.0
 20
0.0
 30
0.0
 40
0.15
 41
0.15
  0
VERTEX
  5
52A
  8
UNIT-SOL
  6
CONTINUOUS
 62
     7
 10
71.1526211897
 20
148.37831032119999
 30
0.0
  0
VERTEX
  5
52B
  8
UNIT-SOL
  6
CONTINUOUS
 62
     7
 10
71.1526211897
 20
88.874605925899999
 30
0.0
  0
SEQEND
  5
52C
  8
UNIT-SOL
  6
CONTINUOUS
 62
     7
  0
LINE
  5
17E
  8
CURB-14-DIM
  6
CONTINUOUS
 62
     6
 10
71.1526211897
 20
87.624796307000011
 30
0.0
 11
71.1526211897
 21
69.481383057599999
 31
0.0
  0
LINE
  5
17F
  8
CURB-24-DIM
  6
CONTINUOUS
 62
     6
 10
71.1526211897
 20
87.624796307000011
 30
0.0
 11
71.1526211897
 21
69.481383057599999
 31
0.0
  0
LINE
  5
180
  8
UNIT-DIM
  6
CONTINUOUS
 62
     7
 10
71.1526211897
 20
149.62811994020001
 30
0.0
 11
71.1526211897
 21
181.36375021629999
 31
0.0
  0
LINE
  5
181
  8
UNIT-DIM
  6
CONTINUOUS
 62
     7
 10
73.0276211897
 20
180.36937597639999
 30
0.0
 11
73.0276211897
 21
179.744471167
 31
0.0
  0
LINE
  5
182
  8
UNTDUCTDIM
  6
CONTINUOUS
 62
     2
 10
140.2776211897
 20
84.547768024700005
 30
0.0
 11
142.1526211897
 21
84.860220429400002
 31
0.0
  0
LINE
  5
183
  8
CURBDUCTDIM
  6
CONTINUOUS
 62
     5
 10
156.4651211897
 20
77.054656435699997
 30
0.0
 11
136.7776211897
 21
77.054656435699997
 31
0.0
  0
LINE
  5
184
  8
CURBDUCTDIM
  6
CONTINUOUS
 62
     5
 10
181.24330018969999
 20
83.875367450200002
 30
0.0
 11
183.74330018969999
 21
83.875367450200002
 31
0.0
  0
LINE
  5
185
  8
UNTDUCTDIM
  6
CONTINUOUS
 62
     2
 10
142.1526211897
 20
84.860220429400002
 30
0.0
 11
138.4026211897
 21
84.860220429400002
 31
0.0
  0
LINE
  5
186
  8
UNTDUCTDIM
  6
CONTINUOUS
 62
     2
 10
156.1526211897
 20
84.860220429400002
 30
0.0
 11
159.9026211897
 21
84.860220429400002
 31
0.0
  0
LINE
  5
187
  8
CURB-14-DIM
  6
CONTINUOUS
 62
     6
 10
158.7776211897
 20
70.731192676600003
 30
0.0
 11
156.9026211897
 21
71.043645081299999
 31
0.0
  0
LINE
  5
188
  8
CURB-24-DIM
  6
CONTINUOUS
 62
     6
 10
158.7776211897
 20
70.731192676600003
 30
0.0
 11
156.9026211897
 21
71.043645081299999
 31
0.0
  0
LINE
  5
189
  8
SERVCLRDIM
  6
CONTINUOUS
 62
     1
 10
161.7776211897
 20
70.314589470299993
 30
0.0
 11
159.2776211897
 21
70.731192676600003
 31
0.0
  0
LINE
  5
18A
  8
CURBDUCTDIM
  6
CONTINUOUS
 62
     5
 10
142.4026211897
 20
76.742204031
 30
0.0
 11
140.5276211897
 21
77.054656435699997
 31
0.0
  0
LINE
  5
18B
  8
CURB-14-DIM
  6
CONTINUOUS
 62
     6
 10
59.7291051897
 20
143.8738814644
 30
0.0
 11
59.4166051897
 21
145.74859589280001
 31
0.0
  0
LINE
  5
18C
  8
CURB-24-DIM
  6
CONTINUOUS
 62
     6
 10
59.7291051897
 20
143.8738814644
 30
0.0
 11
59.4166051897
 21
145.74859589280001
 31
0.0
  0
LINE
  5
18D
  8
CURB-14-DIM
  6
CONTINUOUS
 62
     6
 10
58.999939189700001
 20
150.81542955910001
 30
0.0
 11
59.4166051897
 21
148.31581032119999
 31
0.0
  0
LINE
  5
18E
  8
CURB-24-DIM
  6
CONTINUOUS
 62
     6
 10
58.999939189700001
 20
150.81542955910001
 30
0.0
 11
59.4166051897
 21
148.31581032119999
 31
0.0
  0
LINE
  5
18F
  8
CURB-14
  6
CONTINUOUS
 62
     6
 10
77.027621189699985
 20
145.37359589280001
 30
0.0
 11
77.027621189699985
 21
91.881734682900003
 31
0.0
  0
LINE
  5
190
  8
CURB-24
  6
CONTINUOUS
 62
     6
 10
77.027621189699985
 20
145.37359589280001
 30
0.0
 11
77.027621189699985
 21
91.881734682900003
 31
0.0
  0
LINE
  5
191
  8
CURB-14-DIM
  6
CONTINUOUS
 62
     6
 10
77.027621189699985
 20
90.061925063899977
 30
0.0
 11
77.027621189699985
 21
69.481383057599999
 31
0.0
  0
LINE
  5
192
  8
CURB-24-DIM
  6
CONTINUOUS
 62
     6
 10
77.027621189699985
 20
90.061925063899977
 30
0.0
 11
77.027621189699985
 21
69.481383057599999
 31
0.0
  0
LINE
  5
193
  8
CURB-14
  6
CONTINUOUS
 62
     6
 10
78.7776211897
 20
143.5613814644
 30
0.0
 11
78.7776211897
 21
93.631449111299986
 31
0.0
  0
LINE
  5
194
  8
CURB-24
  6
CONTINUOUS
 62
     6
 10
78.7776211897
 20
143.5613814644
 30
0.0
 11
78.7776211897
 21
93.631449111299986
 31
0.0
  0
LINE
  5
195
  8
CURB-14-DIM
  6
CONTINUOUS
 62
     6
 10
78.902621189699985
 20
71.043645081299999
 30
0.0
 11
78.902621189699985
 21
70.418740271800004
 31
0.0
  0
LINE
  5
196
  8
CURB-24-DIM
  6
CONTINUOUS
 62
     6
 10
78.902621189699985
 20
71.043645081299999
 30
0.0
 11
78.902621189699985
 21
70.418740271800004
 31
0.0
  0
LINE
  5
197
  8
UNIT-SOL
  6
CONTINUOUS
 62
     7
 10
105.6084805192
 20
139.12398511550001
 30
0.0
 11
100.3574895113
 21
136.0923240436
 31
0.0
  0
LINE
  5
198
  8
UNIT-SOL
  6
CONTINUOUS
 62
     7
 10
95.276230867999999
 20
133.158657998
 30
0.0
 11
90.000977654099998
 21
130.11298913499999
 31
0.0
  0
LINE
  5
199
  8
SERVCLRDIM
  6
CONTINUOUS
 62
     1
 10
45.969277189699987
 20
86.374986687999993
 30
0.0
 11
46.802611189700002
 21
86.374986687999993
 31
0.0
  0
LINE
  5
19A
  8
CURBDUCTDIM
  6
CONTINUOUS
 62
     5
 10
180.8266331897
 20
86.374986687999993
 30
0.0
 11
181.65996618969999
 21
86.374986687999993
 31
0.0
  0
LINE
  5
19B
  8
CURB-14-DIM
  6
CONTINUOUS
 62
     6
 10
69.9026211897
 20
88.874605925899999
 30
0.0
 11
58.1666051897
 21
88.874605925899999
 31
0.0
  0
LINE
  5
19C
  8
CURB-24-DIM
  6
CONTINUOUS
 62
     6
 10
69.9026211897
 20
88.874605925899999
 30
0.0
 11
58.1666051897
 21
88.874605925899999
 31
0.0
  0
LINE
  5
19D
  8
UNIT-DIM
  6
CONTINUOUS
 62
     7
 10
69.9026211897
 20
88.874605925899999
 30
0.0
 11
45.135944189699998
 21
88.874605925899999
 31
0.0
  0
POLYLINE
  5
19E
  8
UNIT-SOL
  6
CONTINUOUS
 62
     7
 66
     1
 10
0.0
 20
0.0
 30
0.0
 40
0.15
 41
0.15
  0
VERTEX
  5
52D
  8
UNIT-SOL
  6
CONTINUOUS
 62
     7
 10
71.1526211897
 20
88.874605925899999
 30
0.0
  0
VERTEX
  5
52E
  8
UNIT-SOL
  6
CONTINUOUS
 62
     7
 10
159.2776211897
 20
88.874605925899999
 30
0.0
  0
SEQEND
  5
52F
  8
UNIT-SOL
  6
CONTINUOUS
 62
     7
  0
LINE
  5
1A2
  8
CURBDUCTDIM
  6
CONTINUOUS
 62
     5
 10
160.5276211897
 20
88.874605925899999
 30
0.0
 11
182.49330018969999
 21
88.874605925899999
 31
0.0
  0
LINE
  5
1A3
  8
UNIT-DIM
  6
CONTINUOUS
 62
     7
 10
46.073444189699998
 20
90.749320354400012
 30
0.0
 11
46.698444189699998
 21
90.749320354400012
 31
0.0
  0
LINE
  5
1A4
  8
CURB-14
  6
CONTINUOUS
 62
     6
 10
158.7776211897
 20
91.881734682900003
 30
0.0
 11
77.027621189699985
 21
91.881734682900003
 31
0.0
  0
LINE
  5
1A5
  8
CURB-24
  6
CONTINUOUS
 62
     6
 10
158.7776211897
 20
91.881734682900003
 30
0.0
 11
77.027621189699985
 21
91.881734682900003
 31
0.0
  0
LINE
  5
1A6
  8
CURB-14-DIM
  6
CONTINUOUS
 62
     6
 10
75.0276211897
 20
91.881734682900003
 30
0.0
 11
58.1666051897
 21
91.881734682900003
 31
0.0
  0
LINE
  5
1A7
  8
CURB-24-DIM
  6
CONTINUOUS
 62
     6
 10
75.0276211897
 20
91.881734682900003
 30
0.0
 11
58.1666051897
 21
91.881734682900003
 31
0.0
  0
LINE
  5
1A8
  8
CURB-14
  6
CONTINUOUS
 62
     6
 10
157.0276211897
 20
93.631449111299986
 30
0.0
 11
78.7776211897
 21
93.631449111299986
 31
0.0
  0
LINE
  5
1A9
  8
CURB-24
  6
CONTINUOUS
 62
     6
 10
157.0276211897
 20
93.631449111299986
 30
0.0
 11
78.7776211897
 21
93.631449111299986
 31
0.0
  0
LINE
  5
1AA
  8
CURB-DUCT
  6
CONTINUOUS
 62
     5
 10
140.5276211897
 20
93.631449111299986
 30
0.0
 11
156.4651211897
 21
93.631449111299986
 31
0.0
  0
LINE
  5
1AB
  8
CURBDUCTDIM
  6
CONTINUOUS
 62
     5
 10
157.7151211897
 20
93.631449111299986
 30
0.0
 11
182.49330018969999
 21
93.631449111299986
 31
0.0
  0
LINE
  5
1AC
  8
CURB-14-DIM
  6
CONTINUOUS
 62
     6
 10
59.1041051897
 20
93.756449111299986
 30
0.0
 11
59.7291051897
 21
93.756449111299986
 31
0.0
  0
LINE
  5
1AD
  8
CURB-24-DIM
  6
CONTINUOUS
 62
     6
 10
59.1041051897
 20
93.756449111299986
 30
0.0
 11
59.7291051897
 21
93.756449111299986
 31
0.0
  0
LINE
  5
1AE
  8
UNIT-DUCTS
  6
CONTINUOUS
 62
     2
 10
156.1526211897
 20
94.881277768299995
 30
0.0
 11
142.1526211897
 21
94.881277768299995
 31
0.0
  0
LINE
  5
1AF
  8
UNTDUCTDIM
  6
CONTINUOUS
 62
     2
 10
157.4026211897
 20
94.881277768299995
 30
0.0
 11
168.4501601897
 21
94.881277768299995
 31
0.0
  0
LINE
  5
1B0
  8
CURBDUCTDIM
  6
CONTINUOUS
 62
     5
 10
156.4651211897
 20
77.054656435699997
 30
0.0
 11
154.5901211897
 21
77.367108840499995
 31
0.0
  0
LINE
  5
1B1
  8
SERVCLRDIM
  6
CONTINUOUS
 62
     1
 10
195.30244243279989
 20
70.731192676600003
 30
0.0
 11
192.80244243280001
 21
71.147795882899999
 31
0.0
  0
LINE
  5
1B2
  8
UNTDUCTDIM
  6
CONTINUOUS
 62
     2
 10
142.1526211897
 20
84.860220429400002
 30
0.0
 11
140.2776211897
 21
85.1726728342
 31
0.0
  0
LINE
  5
1B3
  8
UNTDUCTDIM
  6
CONTINUOUS
 62
     2
 10
158.0276211897
 20
84.547768024700005
 30
0.0
 11
156.1526211897
 21
84.860220429400002
 31
0.0
  0
LINE
  5
1B4
  8
UNIT-SOL
  6
CONTINUOUS
 62
     7
 10
86.906942189700004
 20
109.8792089753
 30
0.0
 11
86.906942189700004
 21
103.78787124909999
 31
0.0
  0
LINE
  5
1B5
  8
UNIT-SOL
  6
CONTINUOUS
 62
     7
 10
86.906942189700004
 20
111.68787502080001
 30
0.0
 11
86.906942189700004
 21
113.93787502080001
 31
0.0
  0
LINE
  5
1B6
  8
UNIT-SOL
  6
CONTINUOUS
 62
     7
 10
86.906942189700004
 20
115.7465410664
 30
0.0
 11
86.906942189700004
 21
121.83787879250001
 31
0.0
  0
LINE
  5
1B7
  8
CURBDUCTDIM
  6
CONTINUOUS
 62
     5
 10
180.93080018969999
 20
95.506163539699983
 30
0.0
 11
181.55580018969999
 21
95.506163539699983
 31
0.0
  0
LINE
  5
1B8
  8
UNTDUCTDIM
  6
CONTINUOUS
 62
     2
 10
166.8876601897
 20
96.755992196800022
 30
0.0
 11
167.5126601897
 21
96.755992196800022
 31
0.0
  0
POLYLINE
  5
1B9
  8
UNIT-HID
  6
CONTINUOUS
 62
     9
 66
     1
 10
0.0
 20
0.0
 30
0.0
  0
VERTEX
  5
530
  8
UNIT-HID
  6
CONTINUOUS
 62
     9
 10
98.7776211897
 20
101.5677592297
 30
0.0
  0
VERTEX
  5
531
  8
UNIT-HID
  6
CONTINUOUS
 62
     9
 10
98.779264027800011
 20
101.48672434300001
 30
0.0
  0
VERTEX
  5
532
  8
UNIT-HID
  6
CONTINUOUS
 62
     9
 10
98.784343853900012
 20
101.4039383341
 30
0.0
  0
VERTEX
  5
533
  8
UNIT-HID
  6
CONTINUOUS
 62
     9
 10
98.792860816000001
 20
101.3213697767
 30
0.0
  0
VERTEX
  5
534
  8
UNIT-HID
  6
CONTINUOUS
 62
     9
 10
98.804807914500003
 20
101.2391639106
 30
0.0
  0
VERTEX
  5
535
  8
UNIT-HID
  6
CONTINUOUS
 62
     9
 10
98.820171849599987
 20
101.1574656871
 30
0.0
  0
VERTEX
  5
536
  8
UNIT-HID
  6
CONTINUOUS
 62
     9
 10
98.838933045999994
 20
101.0764195025
 30
0.0
  0
VERTEX
  5
537
  8
UNIT-HID
  6
CONTINUOUS
 62
     9
 10
98.861065688599993
 20
100.9961689327
 30
0.0
  0
VERTEX
  5
538
  8
UNIT-HID
  6
CONTINUOUS
 62
     9
 10
98.886537767199997
 20
100.9168564686
 30
0.0
  0
VERTEX
  5
539
  8
UNIT-HID
  6
CONTINUOUS
 62
     9
 10
98.915311132000014
 20
100.838623255
 30
0.0
  0
VERTEX
  5
53A
  8
UNIT-HID
  6
CONTINUOUS
 62
     9
 10
98.947341558600002
 20
100.76160882969999
 30
0.0
  0
VERTEX
  5
53B
  8
UNIT-HID
  6
CONTINUOUS
 62
     9
 10
98.982578823000011
 20
100.6859508675
 30
0.0
  0
VERTEX
  5
53C
  8
UNIT-HID
  6
CONTINUOUS
 62
     9
 10
99.020966787700004
 20
100.61178492579999
 30
0.0
  0
VERTEX
  5
53D
  8
UNIT-HID
  6
CONTINUOUS
 62
     9
 10
99.062443496399993
 20
100.5392441945
 30
0.0
  0
VERTEX
  5
53E
  8
UNIT-HID
  6
CONTINUOUS
 62
     9
 10
99.106941279800012
 20
100.46845924980001
 30
0.0
  0
VERTEX
  5
53F
  8
UNIT-HID
  6
CONTINUOUS
 62
     9
 10
99.154386870699994
 20
100.3995578124
 30
0.0
  0
VERTEX
  5
540
  8
UNIT-HID
  6
CONTINUOUS
 62
     9
 10
99.204701529000005
 20
100.3326645105
 30
0.0
  0
VERTEX
  5
541
  8
UNIT-HID
  6
CONTINUOUS
 62
     9
 10
99.257801176599997
 20
100.2679006482
 30
0.0
  0
VERTEX
  5
542
  8
UNIT-HID
  6
CONTINUOUS
 62
     9
 10
99.31359654100001
 20
100.2053839793
 30
0.0
  0
VERTEX
  5
543
  8
UNIT-HID
  6
CONTINUOUS
 62
     9
 10
99.371993308600025
 20
100.1452284874
 30
0.0
  0
VERTEX
  5
544
  8
UNIT-HID
  6
CONTINUOUS
 62
     9
 10
99.432892287300007
 20
100.0875441725
 30
0.0
  0
VERTEX
  5
545
  8
UNIT-HID
  6
CONTINUOUS
 62
     9
 10
99.496189577100012
 20
100.0324368441
 30
0.0
  0
VERTEX
  5
546
  8
UNIT-HID
  6
CONTINUOUS
 62
     9
 10
99.561776750100009
 20
99.980007921700008
 30
0.0
  0
VERTEX
  5
547
  8
UNIT-HID
  6
CONTINUOUS
 62
     9
 10
99.629541037600006
 20
99.930354243100012
 30
0.0
  0
VERTEX
  5
548
  8
UNIT-HID
  6
CONTINUOUS
 62
     9
 10
99.699365526500003
 20
99.883567880100017
 30
0.0
  0
VERTEX
  5
549
  8
UNIT-HID
  6
CONTINUOUS
 62
     9
 10
99.771129362200014
 20
99.839735963300015
 30
0.0
  0
VERTEX
  5
54A
  8
UNIT-HID
  6
CONTINUOUS
 62
     9
 10
99.844707959199994
 20
99.798940514199998
 30
0.0
  0
VERTEX
  5
54B
  8
UNIT-HID
  6
CONTINUOUS
 62
     9
 10
99.919973219000013
 20
99.761258287499984
 30
0.0
  0
VERTEX
  5
54C
  8
UNIT-HID
  6
CONTINUOUS
 62
     9
 10
99.996793753700004
 20
99.726760622099974
 30
0.0
  0
VERTEX
  5
54D
  8
UNIT-HID
  6
CONTINUOUS
 62
     9
 10
100.0750351168
 20
99.695513301299997
 30
0.0
  0
VERTEX
  5
54E
  8
UNIT-HID
  6
CONTINUOUS
 62
     9
 10
100.15456003920001
 20
99.667576422999986
 30
0.0
  0
VERTEX
  5
54F
  8
UNIT-HID
  6
CONTINUOUS
 62
     9
 10
100.23522867040001
 20
99.643004280300005
 30
0.0
  0
VERTEX
  5
550
  8
UNIT-HID
  6
CONTINUOUS
 62
     9
 10
100.3168988254
 20
99.621845251599993
 30
0.0
  0
VERTEX
  5
551
  8
UNIT-HID
  6
CONTINUOUS
 62
     9
 10
100.3994262356
 20
99.604141701700001
 30
0.0
  0
VERTEX
  5
552
  8
UNIT-HID
  6
CONTINUOUS
 62
     9
 10
100.48266480389999
 20
99.589929893500013
 30
0.0
  0
VERTEX
  5
553
  8
UNIT-HID
  6
CONTINUOUS
 62
     9
 10
100.56646686329999
 20
99.579239910000013
 30
0.0
  0
VERTEX
  5
554
  8
UNIT-HID
  6
CONTINUOUS
 62
     9
 10
100.6506834395
 20
99.572095588300016
 30
0.0
  0
VERTEX
  5
555
  8
UNIT-HID
  6
CONTINUOUS
 62
     9
 10
100.7351645147
 20
99.568514463799985
 30
0.0
  0
VERTEX
  5
556
  8
UNIT-HID
  6
CONTINUOUS
 62
     9
 10
100.77746185159999
 20
99.56806384570001
 30
0.0
  0
VERTEX
  5
557
  8
UNIT-HID
  6
CONTINUOUS
 62
     9
 10
100.81975929550001
 20
99.568507726000007
 30
0.0
  0
VERTEX
  5
558
  8
UNIT-HID
  6
CONTINUOUS
 62
     9
 10
100.9042410489
 20
99.572075399900015
 30
0.0
  0
VERTEX
  5
559
  8
UNIT-HID
  6
CONTINUOUS
 62
     9
 10
100.9884587025
 20
99.579206304400003
 30
0.0
  0
VERTEX
  5
55A
  8
UNIT-HID
  6
CONTINUOUS
 62
     9
 10
101.0722621038
 20
99.589882886799998
 30
0.0
  0
VERTEX
  5
55B
  8
UNIT-HID
  6
CONTINUOUS
 62
     9
 10
101.1555021476
 20
99.604081270199998
 30
0.0
  0
VERTEX
  5
55C
  8
UNIT-HID
  6
CONTINUOUS
 62
     9
 10
101.2380310419
 20
99.621771308999996
 30
0.0
  0
VERTEX
  5
55D
  8
UNIT-HID
  6
CONTINUOUS
 62
     9
 10
101.319702572
 20
99.642916656300002
 30
0.0
  0
VERTEX
  5
55E
  8
UNIT-HID
  6
CONTINUOUS
 62
     9
 10
101.4003723612
 20
99.667474841299992
 30
0.0
  0
VERTEX
  5
55F
  8
UNIT-HID
  6
CONTINUOUS
 62
     9
 10
101.4798981279
 20
99.695397358700006
 30
0.0
  0
VERTEX
  5
560
  8
UNIT-HID
  6
CONTINUOUS
 62
     9
 10
101.5581399382
 20
99.726629768099997
 30
0.0
  0
VERTEX
  5
561
  8
UNIT-HID
  6
CONTINUOUS
 62
     9
 10
101.63496045470001
 20
99.761111804500004
 30
0.0
  0
VERTEX
  5
562
  8
UNIT-HID
  6
CONTINUOUS
 62
     9
 10
101.7102251796
 20
99.798777498299998
 30
0.0
  0
VERTEX
  5
563
  8
UNIT-HID
  6
CONTINUOUS
 62
     9
 10
101.7838026925
 20
99.839555306200012
 30
0.0
  0
VERTEX
  5
564
  8
UNIT-HID
  6
CONTINUOUS
 62
     9
 10
101.8555648828
 20
99.883368251800007
 30
0.0
  0
VERTEX
  5
565
  8
UNIT-HID
  6
CONTINUOUS
 62
     9
 10
101.9253871759
 20
99.9301340751
 30
0.0
  0
VERTEX
  5
566
  8
UNIT-HID
  6
CONTINUOUS
 62
     9
 10
101.99314875180001
 20
99.979765392000004
 30
0.0
  0
VERTEX
  5
567
  8
UNIT-HID
  6
CONTINUOUS
 62
     9
 10
102.0587327584
 20
100.0321698626
 30
0.0
  0
VERTEX
  5
568
  8
UNIT-HID
  6
CONTINUOUS
 62
     9
 10
102.12202651600001
 20
100.0872503678
 30
0.0
  0
VERTEX
  5
569
  8
UNIT-HID
  6
CONTINUOUS
 62
     9
 10
102.1829217154
 20
100.1449051946
 30
0.0
  0
VERTEX
  5
56A
  8
UNIT-HID
  6
CONTINUOUS
 62
     9
 10
102.24131460709999
 20
100.2050282293
 30
0.0
  0
VERTEX
  5
56B
  8
UNIT-HID
  6
CONTINUOUS
 62
     9
 10
102.297106183
 20
100.267509158
 30
0.0
  0
VERTEX
  5
56C
  8
UNIT-HID
  6
CONTINUOUS
 62
     9
 10
102.3502023492
 20
100.3322336749
 30
0.0
  0
VERTEX
  5
56D
  8
UNIT-HID
  6
CONTINUOUS
 62
     9
 10
102.4005140906
 20
100.3990836972
 30
0.0
  0
VERTEX
  5
56E
  8
UNIT-HID
  6
CONTINUOUS
 62
     9
 10
102.4479576259
 20
100.4679375863
 30
0.0
  0
VERTEX
  5
56F
  8
UNIT-HID
  6
CONTINUOUS
 62
     9
 10
102.4924545539
 20
100.5386703752
 30
0.0
  0
VERTEX
  5
570
  8
UNIT-HID
  6
CONTINUOUS
 62
     9
 10
102.5339319903
 20
100.61115400200001
 30
0.0
  0
VERTEX
  5
571
  8
UNIT-HID
  6
CONTINUOUS
 62
     9
 10
102.57232269550001
 20
100.6852575482
 30
0.0
  0
VERTEX
  5
572
  8
UNIT-HID
  6
CONTINUOUS
 62
     9
 10
102.6075651922
 20
100.7608474817
 30
0.0
  0
VERTEX
  5
573
  8
UNIT-HID
  6
CONTINUOUS
 62
     9
 10
102.6396038733
 20
100.837787905
 30
0.0
  0
VERTEX
  5
574
  8
UNIT-HID
  6
CONTINUOUS
 62
     9
 10
102.66838910120001
 20
100.91594080679999
 30
0.0
  0
VERTEX
  5
575
  8
UNIT-HID
  6
CONTINUOUS
 62
     9
 10
102.69387729570001
 20
100.99516631749999
 30
0.0
  0
VERTEX
  5
576
  8
UNIT-HID
  6
CONTINUOUS
 62
     9
 10
102.7160310135
 20
101.0753229675
 30
0.0
  0
VERTEX
  5
577
  8
UNIT-HID
  6
CONTINUOUS
 62
     9
 10
102.7348190172
 20
101.156267949
 30
0.0
  0
VERTEX
  5
578
  8
UNIT-HID
  6
CONTINUOUS
 62
     9
 10
102.7502163355
 20
101.2378573793
 30
0.0
  0
VERTEX
  5
579
  8
UNIT-HID
  6
CONTINUOUS
 62
     9
 10
102.762204313
 20
101.31994656640001
 30
0.0
  0
VERTEX
  5
57A
  8
UNIT-HID
  6
CONTINUOUS
 62
     9
 10
102.7707706515
 20
101.4023902765
 30
0.0
  0
VERTEX
  5
57B
  8
UNIT-HID
  6
CONTINUOUS
 62
     9
 10
102.77590944240001
 20
101.48504300179999
 30
0.0
  0
VERTEX
  5
57C
  8
UNIT-HID
  6
CONTINUOUS
 62
     9
 10
102.7776211897
 20
101.5677592297
 30
0.0
  0
SEQEND
  5
57D
  8
UNIT-HID
  6
CONTINUOUS
 62
     9
  0
POLYLINE
  5
208
  8
UNIT-HID
  6
CONTINUOUS
 62
     9
 66
     1
 10
0.0
 20
0.0
 30
0.0
  0
VERTEX
  5
57E
  8
UNIT-HID
  6
CONTINUOUS
 62
     9
 10
99.277621189700014
 20
101.5677592297
 30
0.0
  0
VERTEX
  5
57F
  8
UNIT-HID
  6
CONTINUOUS
 62
     9
 10
99.278853318299994
 20
101.50698306469999
 30
0.0
  0
VERTEX
  5
580
  8
UNIT-HID
  6
CONTINUOUS
 62
     9
 10
99.282663187800026
 20
101.444893558
 30
0.0
  0
VERTEX
  5
581
  8
UNIT-HID
  6
CONTINUOUS
 62
     9
 10
99.289050909400004
 20
101.38296714000001
 30
0.0
  0
VERTEX
  5
582
  8
UNIT-HID
  6
CONTINUOUS
 62
     9
 10
99.298011233300016
 20
101.3213127404
 30
0.0
  0
VERTEX
  5
583
  8
UNIT-HID
  6
CONTINUOUS
 62
     9
 10
99.309534184599997
 20
101.2600390727
 30
0.0
  0
VERTEX
  5
584
  8
UNIT-HID
  6
CONTINUOUS
 62
     9
 10
99.323605081900013
 20
101.1992544343
 30
0.0
  0
VERTEX
  5
585
  8
UNIT-HID
  6
CONTINUOUS
 62
     9
 10
99.340204563799986
 20
101.13906650689999
 30
0.0
  0
VERTEX
  5
586
  8
UNIT-HID
  6
CONTINUOUS
 62
     9
 10
99.359308622800015
 20
101.0795821589
 30
0.0
  0
VERTEX
  5
587
  8
UNIT-HID
  6
CONTINUOUS
 62
     9
 10
99.380888646399995
 20
101.0209072487
 30
0.0
  0
VERTEX
  5
588
  8
UNIT-HID
  6
CONTINUOUS
 62
     9
 10
99.404911466300007
 20
100.9631464297
 30
0.0
  0
VERTEX
  5
589
  8
UNIT-HID
  6
CONTINUOUS
 62
     9
 10
99.431339414700005
 20
100.9064029581
 30
0.0
  0
VERTEX
  5
58A
  8
UNIT-HID
  6
CONTINUOUS
 62
     9
 10
99.4601303882
 20
100.85077850179999
 30
0.0
  0
VERTEX
  5
58B
  8
UNIT-HID
  6
CONTINUOUS
 62
     9
 10
99.491237919699998
 20
100.79637295329999
 30
0.0
  0
VERTEX
  5
58C
  8
UNIT-HID
  6
CONTINUOUS
 62
     9
 10
99.524611257299995
 20
100.74328424479999
 30
0.0
  0
VERTEX
  5
58D
  8
UNIT-HID
  6
CONTINUOUS
 62
     9
 10
99.560195450400016
 20
100.69160816669999
 30
0.0
  0
VERTEX
  5
58E
  8
UNIT-HID
  6
CONTINUOUS
 62
     9
 10
99.5979314442
 20
100.64143819029999
 30
0.0
  0
VERTEX
  5
58F
  8
UNIT-HID
  6
CONTINUOUS
 62
     9
 10
99.637756179899995
 20
100.5928652936
 30
0.0
  0
VERTEX
  5
590
  8
UNIT-HID
  6
CONTINUOUS
 62
     9
 10
99.679602703099988
 20
100.5459777919
 30
0.0
  0
VERTEX
  5
591
  8
UNIT-HID
  6
CONTINUOUS
 62
     9
 10
99.723400278899973
 20
100.500861173
 30
0.0
  0
VERTEX
  5
592
  8
UNIT-HID
  6
CONTINUOUS
 62
     9
 10
99.769074512900005
 20
100.4575979368
 30
0.0
  0
VERTEX
  5
593
  8
UNIT-HID
  6
CONTINUOUS
 62
     9
 10
99.816547480300017
 20
100.41626744049999
 30
0.0
  0
VERTEX
  5
594
  8
UNIT-HID
  6
CONTINUOUS
 62
     9
 10
99.86573786000001
 20
100.3769457487
 30
0.0
  0
VERTEX
  5
595
  8
UNIT-HID
  6
CONTINUOUS
 62
     9
 10
99.916561075600001
 20
100.33970548969999
 30
0.0
  0
VERTEX
  5
596
  8
UNIT-HID
  6
CONTINUOUS
 62
     9
 10
99.968929442299995
 20
100.3046157175
 30
0.0
  0
VERTEX
  5
597
  8
UNIT-HID
  6
CONTINUOUS
 62
     9
 10
100.02275231909999
 20
100.2717417799
 30
0.0
  0
VERTEX
  5
598
  8
UNIT-HID
  6
CONTINUOUS
 62
     9
 10
100.07793626679999
 20
100.2411451931
 30
0.0
  0
VERTEX
  5
599
  8
UNIT-HID
  6
CONTINUOUS
 62
     9
 10
100.13438521160001
 20
100.2128835231
 30
0.0
  0
VERTEX
  5
59A
  8
UNIT-HID
  6
CONTINUOUS
 62
     9
 10
100.1920006127
 20
100.187010274
 30
0.0
  0
VERTEX
  5
59B
  8
UNIT-HID
  6
CONTINUOUS
 62
     9
 10
100.25068163500001
 20
100.16357478339999
 30
0.0
  0
VERTEX
  5
59C
  8
UNIT-HID
  6
CONTINUOUS
 62
     9
 10
100.3103253268
 20
100.1426221247
 30
0.0
  0
VERTEX
  5
59D
  8
UNIT-HID
  6
CONTINUOUS
 62
     9
 10
100.37082680020001
 20
100.12419301760001
 30
0.0
  0
VERTEX
  5
59E
  8
UNIT-HID
  6
CONTINUOUS
 62
     9
 10
100.4320794165
 20
100.1083237461
 30
0.0
  0
VERTEX
  5
59F
  8
UNIT-HID
  6
CONTINUOUS
 62
     9
 10
100.4939749741
 20
100.0950460837
 30
0.0
  0
VERTEX
  5
5A0
  8
UNIT-HID
  6
CONTINUOUS
 62
     9
 10
100.5564039003
 20
100.0843872275
 30
0.0
  0
VERTEX
  5
5A1
  8
UNIT-HID
  6
CONTINUOUS
 62
     9
 10
100.61925544490001
 20
100.0763697399
 30
0.0
  0
VERTEX
  5
5A2
  8
UNIT-HID
  6
CONTINUOUS
 62
     9
 10
100.68241787700001
 20
100.0710114987
 30
0.0
  0
VERTEX
  5
5A3
  8
UNIT-HID
  6
CONTINUOUS
 62
     9
 10
100.74577868350001
 20
100.0683256553
 30
0.0
  0
VERTEX
  5
5A4
  8
UNIT-HID
  6
CONTINUOUS
 62
     9
 10
100.7775016862
 20
100.0679876917
 30
0.0
  0
VERTEX
  5
5A5
  8
UNIT-HID
  6
CONTINUOUS
 62
     9
 10
100.809224769
 20
100.068320602
 30
0.0
  0
VERTEX
  5
5A6
  8
UNIT-HID
  6
CONTINUOUS
 62
     9
 10
100.87258608410001
 20
100.0709963573
 30
0.0
  0
VERTEX
  5
5A7
  8
UNIT-HID
  6
CONTINUOUS
 62
     9
 10
100.93574932430001
 20
100.0763445357
 30
0.0
  0
VERTEX
  5
5A8
  8
UNIT-HID
  6
CONTINUOUS
 62
     9
 10
100.9986018753
 20
100.0843519725
 30
0.0
  0
VERTEX
  5
5A9
  8
UNIT-HID
  6
CONTINUOUS
 62
     9
 10
101.06103190810001
 20
100.09500076
 30
0.0
  0
VERTEX
  5
5AA
  8
UNIT-HID
  6
CONTINUOUS
 62
     9
 10
101.1229285789
 20
100.1082682892
 30
0.0
  0
VERTEX
  5
5AB
  8
UNIT-HID
  6
CONTINUOUS
 62
     9
 10
101.1841822264
 20
100.1241272996
 30
0.0
  0
VERTEX
  5
5AC
  8
UNIT-HID
  6
CONTINUOUS
 62
     9
 10
101.2446845683
 20
100.1425459384
 30
0.0
  0
VERTEX
  5
5AD
  8
UNIT-HID
  6
CONTINUOUS
 62
     9
 10
101.3043288933
 20
100.1634878264
 30
0.0
  0
VERTEX
  5
5AE
  8
UNIT-HID
  6
CONTINUOUS
 62
     9
 10
101.36301025109999
 20
100.1869121335
 30
0.0
  0
VERTEX
  5
5AF
  8
UNIT-HID
  6
CONTINUOUS
 62
     9
 10
101.4206256385
 20
100.2127736608
 30
0.0
  0
VERTEX
  5
5B0
  8
UNIT-HID
  6
CONTINUOUS
 62
     9
 10
101.4770741821
 20
100.24102293110001
 30
0.0
  0
VERTEX
  5
5B1
  8
UNIT-HID
  6
CONTINUOUS
 62
     9
 10
101.5322573168
 20
100.2716062871
 30
0.0
  0
VERTEX
  5
5B2
  8
UNIT-HID
  6
CONTINUOUS
 62
     9
 10
101.5860789596
 20
100.3044659963
 30
0.0
  0
VERTEX
  5
5B3
  8
UNIT-HID
  6
CONTINUOUS
 62
     9
 10
101.63844567930001
 20
100.3395403637
 30
0.0
  0
VERTEX
  5
5B4
  8
UNIT-HID
  6
CONTINUOUS
 62
     9
 10
101.6892668613
 20
100.3767638514
 30
0.0
  0
VERTEX
  5
5B5
  8
UNIT-HID
  6
CONTINUOUS
 62
     9
 10
101.7384548662
 20
100.41606720439999
 30
0.0
  0
VERTEX
  5
5B6
  8
UNIT-HID
  6
CONTINUOUS
 62
     9
 10
101.7859251844
 20
100.4573775833
 30
0.0
  0
VERTEX
  5
5B7
  8
UNIT-HID
  6
CONTINUOUS
 62
     9
 10
101.831596584
 20
100.50061870339999
 30
0.0
  0
VERTEX
  5
5B8
  8
UNIT-HID
  6
CONTINUOUS
 62
     9
 10
101.8753912527
 20
100.5457109794
 30
0.0
  0
VERTEX
  5
5B9
  8
UNIT-HID
  6
CONTINUOUS
 62
     9
 10
101.9172349346
 20
100.5925716759
 30
0.0
  0
VERTEX
  5
5BA
  8
UNIT-HID
  6
CONTINUOUS
 62
     9
 10
101.9570570593
 20
100.6411150636
 30
0.0
  0
VERTEX
  5
5BB
  8
UNIT-HID
  6
CONTINUOUS
 62
     9
 10
101.99479086540001
 20
100.6912525803
 30
0.0
  0
VERTEX
  5
5BC
  8
UNIT-HID
  6
CONTINUOUS
 62
     9
 10
102.0303735169
 20
100.7428929971
 30
0.0
  0
VERTEX
  5
5BD
  8
UNIT-HID
  6
CONTINUOUS
 62
     9
 10
102.0637462128
 20
100.7959425888
 30
0.0
  0
VERTEX
  5
5BE
  8
UNIT-HID
  6
CONTINUOUS
 62
     9
 10
102.0948542901
 20
100.85030530900001
 30
0.0
  0
VERTEX
  5
5BF
  8
UNIT-HID
  6
CONTINUOUS
 62
     9
 10
102.1236473191
 20
100.9058829686
 30
0.0
  0
VERTEX
  5
5C0
  8
UNIT-HID
  6
CONTINUOUS
 62
     9
 10
102.1500791915
 20
100.9625754187
 30
0.0
  0
VERTEX
  5
5C1
  8
UNIT-HID
  6
CONTINUOUS
 62
     9
 10
102.17410820240001
 20
101.02028073619999
 30
0.0
  0
VERTEX
  5
5C2
  8
UNIT-HID
  6
CONTINUOUS
 62
     9
 10
102.19569712329999
 20
101.0788954125
 30
0.0
  0
VERTEX
  5
5C3
  8
UNIT-HID
  6
CONTINUOUS
 62
     9
 10
102.21481326919999
 20
101.13831454549999
 30
0.0
  0
VERTEX
  5
5C4
  8
UNIT-HID
  6
CONTINUOUS
 62
     9
 10
102.2314285575
 20
101.1984320331
 30
0.0
  0
VERTEX
  5
5C5
  8
UNIT-HID
  6
CONTINUOUS
 62
     9
 10
102.2455195603
 20
101.2591407692
 30
0.0
  0
VERTEX
  5
5C6
  8
UNIT-HID
  6
CONTINUOUS
 62
     9
 10
102.257067549
 20
101.3203328419
 30
0.0
  0
VERTEX
  5
5C7
  8
UNIT-HID
  6
CONTINUOUS
 62
     9
 10
102.2660585321
 20
101.3818997322
 30
0.0
  0
VERTEX
  5
5C8
  8
UNIT-HID
  6
CONTINUOUS
 62
     9
 10
102.2724832861
 20
101.4437325148
 30
0.0
  0
VERTEX
  5
5C9
  8
UNIT-HID
  6
CONTINUOUS
 62
     9
 10
102.2763373792
 20
101.5057220588
 30
0.0
  0
VERTEX
  5
5CA
  8
UNIT-HID
  6
CONTINUOUS
 62
     9
 10
102.2776211897
 20
101.5677592297
 30
0.0
  0
SEQEND
  5
5CB
  8
UNIT-HID
  6
CONTINUOUS
 62
     9
  0
LINE
  5
257
  8
UNIT-SOL
  6
CONTINUOUS
 62
     7
 10
97.816860189699995
 20
131.69182497529999
 30
0.0
 11
97.816860189699995
 21
125.6004872491
 31
0.0
  0
LINE
  5
258
  8
UNIT-SOL
  6
CONTINUOUS
 62
     7
 10
97.816860189699995
 20
133.50049102080001
 30
0.0
 11
97.816860189699995
 21
135.75049102080001
 31
0.0
  0
LINE
  5
259
  8
UNIT-SOL
  6
CONTINUOUS
 62
     7
 10
97.816860189699995
 20
137.55915706639999
 30
0.0
 11
97.816860189699995
 21
143.65049479250001
 31
0.0
  0
LINE
  5
25A
  8
UNIT-HID
  6
CONTINUOUS
 62
     9
 10
98.7776211897
 20
104.5673023152
 30
0.0
 11
98.7776211897
 21
101.5677592297
 31
0.0
  0
LINE
  5
25B
  8
UNIT-HID
  6
CONTINUOUS
 62
     9
 10
99.277621189700014
 20
104.5673023152
 30
0.0
 11
99.277621189700014
 21
101.5677592297
 31
0.0
  0
LINE
  5
25C
  8
UNIT-SOL
  6
CONTINUOUS
 62
     7
 10
94.698562519199996
 20
117.3113691155
 30
0.0
 11
89.447571511299998
 21
114.2797080436
 31
0.0
  0
LINE
  5
25D
  8
UNIT-SOL
  6
CONTINUOUS
 62
     7
 10
84.366312867999994
 20
111.346041998
 30
0.0
 11
79.091059654099993
 21
108.300373135
 31
0.0
  0
LINE
  5
25E
  8
UNIT-SOL
  6
CONTINUOUS
 62
     7
 10
85.781942189700004
 20
112.81287502080001
 30
0.0
 11
88.031942189699976
 21
112.81287502080001
 31
0.0
  0
LINE
  5
25F
  8
UNIT-SOL
  6
CONTINUOUS
 62
     7
 10
84.366312867999994
 20
114.2797080436
 30
0.0
 11
79.091059654099993
 21
117.3253769067
 31
0.0
  0
LINE
  5
260
  8
UNIT-SOL
  6
CONTINUOUS
 62
     7
 10
89.447571511299998
 20
111.346041998
 30
0.0
 11
94.722824725199985
 21
108.300373135
 31
0.0
  0
POLYLINE
  5
261
  8
UNIT-HID
  6
CONTINUOUS
 62
     9
 66
     1
 10
0.0
 20
0.0
 30
0.0
  0
VERTEX
  5
5CC
  8
UNIT-HID
  6
CONTINUOUS
 62
     9
 10
102.2776211897
 20
104.5673023152
 30
0.0
  0
VERTEX
  5
5CD
  8
UNIT-HID
  6
CONTINUOUS
 62
     9
 10
102.27638906110001
 20
104.6280784802
 30
0.0
  0
VERTEX
  5
5CE
  8
UNIT-HID
  6
CONTINUOUS
 62
     9
 10
102.2725791915
 20
104.69016798680001
 30
0.0
  0
VERTEX
  5
5CF
  8
UNIT-HID
  6
CONTINUOUS
 62
     9
 10
102.26619147
 20
104.75209440490001
 30
0.0
  0
VERTEX
  5
5D0
  8
UNIT-HID
  6
CONTINUOUS
 62
     9
 10
102.257231146
 20
104.81374880449999
 30
0.0
  0
VERTEX
  5
5D1
  8
UNIT-HID
  6
CONTINUOUS
 62
     9
 10
102.2457081947
 20
104.8750224721
 30
0.0
  0
VERTEX
  5
5D2
  8
UNIT-HID
  6
CONTINUOUS
 62
     9
 10
102.2316372974
 20
104.9358071106
 30
0.0
  0
VERTEX
  5
5D3
  8
UNIT-HID
  6
CONTINUOUS
 62
     9
 10
102.2150378155
 20
104.995995038
 30
0.0
  0
VERTEX
  5
5D4
  8
UNIT-HID
  6
CONTINUOUS
 62
     9
 10
102.1959337565
 20
105.055479386
 30
0.0
  0
VERTEX
  5
5D5
  8
UNIT-HID
  6
CONTINUOUS
 62
     9
 10
102.1743537329
 20
105.1141542962
 30
0.0
  0
VERTEX
  5
5D6
  8
UNIT-HID
  6
CONTINUOUS
 62
     9
 10
102.150330913
 20
105.17191511519999
 30
0.0
  0
VERTEX
  5
5D7
  8
UNIT-HID
  6
CONTINUOUS
 62
     9
 10
102.12390296469999
 20
105.22865858679999
 30
0.0
  0
VERTEX
  5
5D8
  8
UNIT-HID
  6
CONTINUOUS
 62
     9
 10
102.0951119911
 20
105.2842830431
 30
0.0
  0
VERTEX
  5
5D9
  8
UNIT-HID
  6
CONTINUOUS
 62
     9
 10
102.0640044595999
 20
105.3386885916
 30
0.0
  0
VERTEX
  5
5DA
  8
UNIT-HID
  6
CONTINUOUS
 62
     9
 10
102.0306311221
 20
105.3917773001
 30
0.0
  0
VERTEX
  5
5DB
  8
UNIT-HID
  6
CONTINUOUS
 62
     9
 10
101.9950469289
 20
105.4434533782
 30
0.0
  0
VERTEX
  5
5DC
  8
UNIT-HID
  6
CONTINUOUS
 62
     9
 10
101.9573109352
 20
105.4936233546
 30
0.0
  0
VERTEX
  5
5DD
  8
UNIT-HID
  6
CONTINUOUS
 62
     9
 10
101.9174861995
 20
105.5421962513
 30
0.0
  0
VERTEX
  5
5DE
  8
UNIT-HID
  6
CONTINUOUS
 62
     9
 10
101.8756396762
 20
105.589083753
 30
0.0
  0
VERTEX
  5
5DF
  8
UNIT-HID
  6
CONTINUOUS
 62
     9
 10
101.8318421005
 20
105.63420037189999
 30
0.0
  0
VERTEX
  5
5E0
  8
UNIT-HID
  6
CONTINUOUS
 62
     9
 10
101.78616786649999
 20
105.6774636081
 30
0.0
  0
VERTEX
  5
5E1
  8
UNIT-HID
  6
CONTINUOUS
 62
     9
 10
101.7386948991
 20
105.7187941044
 30
0.0
  0
VERTEX
  5
5E2
  8
UNIT-HID
  6
CONTINUOUS
 62
     9
 10
101.6895045194
 20
105.7581157962
 30
0.0
  0
VERTEX
  5
5E3
  8
UNIT-HID
  6
CONTINUOUS
 62
     9
 10
101.6386813037
 20
105.7953560552
 30
0.0
  0
VERTEX
  5
5E4
  8
UNIT-HID
  6
CONTINUOUS
 62
     9
 10
101.586312937
 20
105.8304458273
 30
0.0
  0
VERTEX
  5
5E5
  8
UNIT-HID
  6
CONTINUOUS
 62
     9
 10
101.53249006030001
 20
105.863319765
 30
0.0
  0
VERTEX
  5
5E6
  8
UNIT-HID
  6
CONTINUOUS
 62
     9
 10
101.4773061125
 20
105.8939163518
 30
0.0
  0
VERTEX
  5
5E7
  8
UNIT-HID
  6
CONTINUOUS
 62
     9
 10
101.42085716770001
 20
105.92217802179999
 30
0.0
  0
VERTEX
  5
5E8
  8
UNIT-HID
  6
CONTINUOUS
 62
     9
 10
101.3632417667
 20
105.94805127079999
 30
0.0
  0
VERTEX
  5
5E9
  8
UNIT-HID
  6
CONTINUOUS
 62
     9
 10
101.30456074430001
 20
105.9714867615
 30
0.0
  0
VERTEX
  5
5EA
  8
UNIT-HID
  6
CONTINUOUS
 62
     9
 10
101.2449170525
 20
105.9924394202
 30
0.0
  0
VERTEX
  5
5EB
  8
UNIT-HID
  6
CONTINUOUS
 62
     9
 10
101.1844155791
 20
106.0108685272
 30
0.0
  0
VERTEX
  5
5EC
  8
UNIT-HID
  6
CONTINUOUS
 62
     9
 10
101.1231629629
 20
106.0267377988
 30
0.0
  0
VERTEX
  5
5ED
  8
UNIT-HID
  6
CONTINUOUS
 62
     9
 10
101.0612674052
 20
106.0400154612
 30
0.0
  0
VERTEX
  5
5EE
  8
UNIT-HID
  6
CONTINUOUS
 62
     9
 10
100.998838479
 20
106.0506743174
 30
0.0
  0
VERTEX
  5
5EF
  8
UNIT-HID
  6
CONTINUOUS
 62
     9
 10
100.93598693440001
 20
106.058691805
 30
0.0
  0
VERTEX
  5
5F0
  8
UNIT-HID
  6
CONTINUOUS
 62
     9
 10
100.87282450230001
 20
106.06405004619999
 30
0.0
  0
VERTEX
  5
5F1
  8
UNIT-HID
  6
CONTINUOUS
 62
     9
 10
100.80946369590001
 20
106.0667358896
 30
0.0
  0
VERTEX
  5
5F2
  8
UNIT-HID
  6
CONTINUOUS
 62
     9
 10
100.7777406932
 20
106.0670738531
 30
0.0
  0
VERTEX
  5
5F3
  8
UNIT-HID
  6
CONTINUOUS
 62
     9
 10
100.7460176103
 20
106.0667409429
 30
0.0
  0
VERTEX
  5
5F4
  8
UNIT-HID
  6
CONTINUOUS
 62
     9
 10
100.6826562952
 20
106.06406518750001
 30
0.0
  0
VERTEX
  5
5F5
  8
UNIT-HID
  6
CONTINUOUS
 62
     9
 10
100.61949305509999
 20
106.0587170092
 30
0.0
  0
VERTEX
  5
5F6
  8
UNIT-HID
  6
CONTINUOUS
 62
     9
 10
100.5566405041
 20
106.0507095724
 30
0.0
  0
VERTEX
  5
5F7
  8
UNIT-HID
  6
CONTINUOUS
 62
     9
 10
100.49421047120001
 20
106.0400607848
 30
0.0
  0
VERTEX
  5
5F8
  8
UNIT-HID
  6
CONTINUOUS
 62
     9
 10
100.4323138005
 20
106.0267932557
 30
0.0
  0
VERTEX
  5
5F9
  8
UNIT-HID
  6
CONTINUOUS
 62
     9
 10
100.3710601529
 20
106.0109342452
 30
0.0
  0
VERTEX
  5
5FA
  8
UNIT-HID
  6
CONTINUOUS
 62
     9
 10
100.310557811
 20
105.99251560650001
 30
0.0
  0
VERTEX
  5
5FB
  8
UNIT-HID
  6
CONTINUOUS
 62
     9
 10
100.250913486
 20
105.97157371839999
 30
0.0
  0
VERTEX
  5
5FC
  8
UNIT-HID
  6
CONTINUOUS
 62
     9
 10
100.19223212830001
 20
105.94814941129999
 30
0.0
  0
VERTEX
  5
5FD
  8
UNIT-HID
  6
CONTINUOUS
 62
     9
 10
100.1346167409
 20
105.9222878841
 30
0.0
  0
VERTEX
  5
5FE
  8
UNIT-HID
  6
CONTINUOUS
 62
     9
 10
100.0781681972
 20
105.89403861380001
 30
0.0
  0
VERTEX
  5
5FF
  8
UNIT-HID
  6
CONTINUOUS
 62
     9
 10
100.0229850626
 20
105.8634552578
 30
0.0
  0
VERTEX
  5
600
  8
UNIT-HID
  6
CONTINUOUS
 62
     9
 10
99.969163419799997
 20
105.8305955486
 30
0.0
  0
VERTEX
  5
601
  8
UNIT-HID
  6
CONTINUOUS
 62
     9
 10
99.916796700000006
 20
105.7955211811
 30
0.0
  0
VERTEX
  5
602
  8
UNIT-HID
  6
CONTINUOUS
 62
     9
 10
99.865975518100001
 20
105.7582976934
 30
0.0
  0
VERTEX
  5
603
  8
UNIT-HID
  6
CONTINUOUS
 62
     9
 10
99.816787513199998
 20
105.7189943405
 30
0.0
  0
VERTEX
  5
604
  8
UNIT-HID
  6
CONTINUOUS
 62
     9
 10
99.769317194899998
 20
105.6776839616
 30
0.0
  0
VERTEX
  5
605
  8
UNIT-HID
  6
CONTINUOUS
 62
     9
 10
99.723645795400003
 20
105.6344428415
 30
0.0
  0
VERTEX
  5
606
  8
UNIT-HID
  6
CONTINUOUS
 62
     9
 10
99.679851126599999
 20
105.5893505655
 30
0.0
  0
VERTEX
  5
607
  8
UNIT-HID
  6
CONTINUOUS
 62
     9
 10
99.638007444699994
 20
105.54248986899999
 30
0.0
  0
VERTEX
  5
608
  8
UNIT-HID
  6
CONTINUOUS
 62
     9
 10
99.598185319999985
 20
105.4939464813
 30
0.0
  0
VERTEX
  5
609
  8
UNIT-HID
  6
CONTINUOUS
 62
     9
 10
99.560451513999993
 20
105.4438089646
 30
0.0
  0
VERTEX
  5
60A
  8
UNIT-HID
  6
CONTINUOUS
 62
     9
 10
99.524868862499986
 20
105.3921685478
 30
0.0
  0
VERTEX
  5
60B
  8
UNIT-HID
  6
CONTINUOUS
 62
     9
 10
99.491496166499999
 20
105.33911895599999
 30
0.0
  0
VERTEX
  5
60C
  8
UNIT-HID
  6
CONTINUOUS
 62
     9
 10
99.460388089199995
 20
105.28475623590001
 30
0.0
  0
VERTEX
  5
60D
  8
UNIT-HID
  6
CONTINUOUS
 62
     9
 10
99.431595060300012
 20
105.2291785763
 30
0.0
  0
VERTEX
  5
60E
  8
UNIT-HID
  6
CONTINUOUS
 62
     9
 10
99.405163187800014
 20
105.1724861262
 30
0.0
  0
VERTEX
  5
60F
  8
UNIT-HID
  6
CONTINUOUS
 62
     9
 10
99.381134176900005
 20
105.1147808087
 30
0.0
  0
VERTEX
  5
610
  8
UNIT-HID
  6
CONTINUOUS
 62
     9
 10
99.359545256000004
 20
105.05616613239999
 30
0.0
  0
VERTEX
  5
611
  8
UNIT-HID
  6
CONTINUOUS
 62
     9
 10
99.340429110200006
 20
104.9967469993
 30
0.0
  0
VERTEX
  5
612
  8
UNIT-HID
  6
CONTINUOUS
 62
     9
 10
99.323813821800002
 20
104.93662951180001
 30
0.0
  0
VERTEX
  5
613
  8
UNIT-HID
  6
CONTINUOUS
 62
     9
 10
99.309722819000001
 20
104.8759207757
 30
0.0
  0
VERTEX
  5
614
  8
UNIT-HID
  6
CONTINUOUS
 62
     9
 10
99.298174830300013
 20
104.814728703
 30
0.0
  0
VERTEX
  5
615
  8
UNIT-HID
  6
CONTINUOUS
 62
     9
 10
99.289183847199993
 20
104.7531618126
 30
0.0
  0
VERTEX
  5
616
  8
UNIT-HID
  6
CONTINUOUS
 62
     9
 10
99.282759093300001
 20
104.69132903009999
 30
0.0
  0
VERTEX
  5
617
  8
UNIT-HID
  6
CONTINUOUS
 62
     9
 10
99.278905000100011
 20
104.62933948609999
 30
0.0
  0
VERTEX
  5
618
  8
UNIT-HID
  6
CONTINUOUS
 62
     9
 10
99.277621189700014
 20
104.5673023152
 30
0.0
  0
SEQEND
  5
619
  8
UNIT-HID
  6
CONTINUOUS
 62
     9
  0
POLYLINE
  5
2B0
  8
UNIT-HID
  6
CONTINUOUS
 62
     9
 66
     1
 10
0.0
 20
0.0
 30
0.0
  0
VERTEX
  5
61A
  8
UNIT-HID
  6
CONTINUOUS
 62
     9
 10
102.7776211897
 20
104.5673023152
 30
0.0
  0
VERTEX
  5
61B
  8
UNIT-HID
  6
CONTINUOUS
 62
     9
 10
102.7759783515
 20
104.64833720190001
 30
0.0
  0
VERTEX
  5
61C
  8
UNIT-HID
  6
CONTINUOUS
 62
     9
 10
102.7708985255
 20
104.73112321070001
 30
0.0
  0
VERTEX
  5
61D
  8
UNIT-HID
  6
CONTINUOUS
 62
     9
 10
102.7623815634
 20
104.8136917681
 30
0.0
  0
VERTEX
  5
61E
  8
UNIT-HID
  6
CONTINUOUS
 62
     9
 10
102.75043446479999
 20
104.8958976343
 30
0.0
  0
VERTEX
  5
61F
  8
UNIT-HID
  6
CONTINUOUS
 62
     9
 10
102.7350705297
 20
104.9775958578
 30
0.0
  0
VERTEX
  5
620
  8
UNIT-HID
  6
CONTINUOUS
 62
     9
 10
102.7163093333
 20
105.0586420424
 30
0.0
  0
VERTEX
  5
621
  8
UNIT-HID
  6
CONTINUOUS
 62
     9
 10
102.69417669080001
 20
105.1388926122
 30
0.0
  0
VERTEX
  5
622
  8
UNIT-HID
  6
CONTINUOUS
 62
     9
 10
102.6687046122
 20
105.21820507619999
 30
0.0
  0
VERTEX
  5
623
  8
UNIT-HID
  6
CONTINUOUS
 62
     9
 10
102.6399312473
 20
105.2964382899
 30
0.0
  0
VERTEX
  5
624
  8
UNIT-HID
  6
CONTINUOUS
 62
     9
 10
102.6079008208
 20
105.3734527152
 30
0.0
  0
VERTEX
  5
625
  8
UNIT-HID
  6
CONTINUOUS
 62
     9
 10
102.5726635563
 20
105.4491106774
 30
0.0
  0
VERTEX
  5
626
  8
UNIT-HID
  6
CONTINUOUS
 62
     9
 10
102.53427559159999
 20
105.5232766191
 30
0.0
  0
VERTEX
  5
627
  8
UNIT-HID
  6
CONTINUOUS
 62
     9
 10
102.4927988829
 20
105.5958173504
 30
0.0
  0
VERTEX
  5
628
  8
UNIT-HID
  6
CONTINUOUS
 62
     9
 10
102.4483010996
 20
105.66660229510001
 30
0.0
  0
VERTEX
  5
629
  8
UNIT-HID
  6
CONTINUOUS
 62
     9
 10
102.4008555087
 20
105.73550373250001
 30
0.0
  0
VERTEX
  5
62A
  8
UNIT-HID
  6
CONTINUOUS
 62
     9
 10
102.35054085030001
 20
105.8023970344
 30
0.0
  0
VERTEX
  5
62B
  8
UNIT-HID
  6
CONTINUOUS
 62
     9
 10
102.2974412027
 20
105.8671608967
 30
0.0
  0
VERTEX
  5
62C
  8
UNIT-HID
  6
CONTINUOUS
 62
     9
 10
102.2416458384
 20
105.9296775656
 30
0.0
  0
VERTEX
  5
62D
  8
UNIT-HID
  6
CONTINUOUS
 62
     9
 10
102.1832490708
 20
105.98983305749999
 30
0.0
  0
VERTEX
  5
62E
  8
UNIT-HID
  6
CONTINUOUS
 62
     9
 10
102.12235009210001
 20
106.04751737239999
 30
0.0
  0
VERTEX
  5
62F
  8
UNIT-HID
  6
CONTINUOUS
 62
     9
 10
102.0590528022
 20
106.10262470080001
 30
0.0
  0
VERTEX
  5
630
  8
UNIT-HID
  6
CONTINUOUS
 62
     9
 10
101.9934656293
 20
106.1550536232
 30
0.0
  0
VERTEX
  5
631
  8
UNIT-HID
  6
CONTINUOUS
 62
     9
 10
101.92570134170001
 20
106.2047073018
 30
0.0
  0
VERTEX
  5
632
  8
UNIT-HID
  6
CONTINUOUS
 62
     9
 10
101.85587685279999
 20
106.25149366470001
 30
0.0
  0
VERTEX
  5
633
  8
UNIT-HID
  6
CONTINUOUS
 62
     9
 10
101.7841130172
 20
106.2953255816
 30
0.0
  0
VERTEX
  5
634
  8
UNIT-HID
  6
CONTINUOUS
 62
     9
 10
101.7105344201
 20
106.3361210307
 30
0.0
  0
VERTEX
  5
635
  8
UNIT-HID
  6
CONTINUOUS
 62
     9
 10
101.6352691604
 20
106.3738032573
 30
0.0
  0
VERTEX
  5
636
  8
UNIT-HID
  6
CONTINUOUS
 62
     9
 10
101.5584486257
 20
106.40830092269999
 30
0.0
  0
VERTEX
  5
637
  8
UNIT-HID
  6
CONTINUOUS
 62
     9
 10
101.4802072625
 20
106.4395482436
 30
0.0
  0
VERTEX
  5
638
  8
UNIT-HID
  6
CONTINUOUS
 62
     9
 10
101.40068234020001
 20
106.4674851219
 30
0.0
  0
VERTEX
  5
639
  8
UNIT-HID
  6
CONTINUOUS
 62
     9
 10
101.32001370890001
 20
106.49205726460001
 30
0.0
  0
VERTEX
  5
63A
  8
UNIT-HID
  6
CONTINUOUS
 62
     9
 10
101.23834355389999
 20
106.5132162933
 30
0.0
  0
VERTEX
  5
63B
  8
UNIT-HID
  6
CONTINUOUS
 62
     9
 10
101.15581614369999
 20
106.5309198432
 30
0.0
  0
VERTEX
  5
63C
  8
UNIT-HID
  6
CONTINUOUS
 62
     9
 10
101.07257757550001
 20
106.5451316514
 30
0.0
  0
VERTEX
  5
63D
  8
UNIT-HID
  6
CONTINUOUS
 62
     9
 10
100.988775516
 20
106.5558216349
 30
0.0
  0
VERTEX
  5
63E
  8
UNIT-HID
  6
CONTINUOUS
 62
     9
 10
100.9045589399
 20
106.56296595649999
 30
0.0
  0
VERTEX
  5
63F
  8
UNIT-HID
  6
CONTINUOUS
 62
     9
 10
100.82007786459999
 20
106.566547081
 30
0.0
  0
VERTEX
  5
640
  8
UNIT-HID
  6
CONTINUOUS
 62
     9
 10
100.7777805277
 20
106.5669976991
 30
0.0
  0
VERTEX
  5
641
  8
UNIT-HID
  6
CONTINUOUS
 62
     9
 10
100.73548308389999
 20
106.5665538188
 30
0.0
  0
VERTEX
  5
642
  8
UNIT-HID
  6
CONTINUOUS
 62
     9
 10
100.65100133040001
 20
106.562986145
 30
0.0
  0
VERTEX
  5
643
  8
UNIT-HID
  6
CONTINUOUS
 62
     9
 10
100.5667836769
 20
106.55585524049999
 30
0.0
  0
VERTEX
  5
644
  8
UNIT-HID
  6
CONTINUOUS
 62
     9
 10
100.4829802755
 20
106.5451786581
 30
0.0
  0
VERTEX
  5
645
  8
UNIT-HID
  6
CONTINUOUS
 62
     9
 10
100.39974023169999
 20
106.5309802747
 30
0.0
  0
VERTEX
  5
646
  8
UNIT-HID
  6
CONTINUOUS
 62
     9
 10
100.3172113374
 20
106.5132902358
 30
0.0
  0
VERTEX
  5
647
  8
UNIT-HID
  6
CONTINUOUS
 62
     9
 10
100.2355398074
 20
106.4921448886
 30
0.0
  0
VERTEX
  5
648
  8
UNIT-HID
  6
CONTINUOUS
 62
     9
 10
100.1548700181
 20
106.46758670360001
 30
0.0
  0
VERTEX
  5
649
  8
UNIT-HID
  6
CONTINUOUS
 62
     9
 10
100.0753442515
 20
106.43966418620001
 30
0.0
  0
VERTEX
  5
64A
  8
UNIT-HID
  6
CONTINUOUS
 62
     9
 10
99.997102441100012
 20
106.4084317767
 30
0.0
  0
VERTEX
  5
64B
  8
UNIT-HID
  6
CONTINUOUS
 62
     9
 10
99.92028192459999
 20
106.37394974039999
 30
0.0
  0
VERTEX
  5
64C
  8
UNIT-HID
  6
CONTINUOUS
 62
     9
 10
99.845017199799997
 20
106.3362840466
 30
0.0
  0
VERTEX
  5
64D
  8
UNIT-HID
  6
CONTINUOUS
 62
     9
 10
99.771439686899996
 20
106.2955062387
 30
0.0
  0
VERTEX
  5
64E
  8
UNIT-HID
  6
CONTINUOUS
 62
     9
 10
99.699677496500016
 20
106.2516932931
 30
0.0
  0
VERTEX
  5
64F
  8
UNIT-HID
  6
CONTINUOUS
 62
     9
 10
99.629855203500014
 20
106.2049274698
 30
0.0
  0
VERTEX
  5
650
  8
UNIT-HID
  6
CONTINUOUS
 62
     9
 10
99.562093627600007
 20
106.15529615289999
 30
0.0
  0
VERTEX
  5
651
  8
UNIT-HID
  6
CONTINUOUS
 62
     9
 10
99.496509621000015
 20
106.1028916822
 30
0.0
  0
VERTEX
  5
652
  8
UNIT-HID
  6
CONTINUOUS
 62
     9
 10
99.433215863400008
 20
106.047811177
 30
0.0
  0
VERTEX
  5
653
  8
UNIT-HID
  6
CONTINUOUS
 62
     9
 10
99.372320664
 20
105.9901563502
 30
0.0
  0
VERTEX
  5
654
  8
UNIT-HID
  6
CONTINUOUS
 62
     9
 10
99.313927772300005
 20
105.9300333156
 30
0.0
  0
VERTEX
  5
655
  8
UNIT-HID
  6
CONTINUOUS
 62
     9
 10
99.258136196399988
 20
105.8675523869
 30
0.0
  0
VERTEX
  5
656
  8
UNIT-HID
  6
CONTINUOUS
 62
     9
 10
99.205040030100022
 20
105.80282787
 30
0.0
  0
VERTEX
  5
657
  8
UNIT-HID
  6
CONTINUOUS
 62
     9
 10
99.154728288700014
 20
105.7359778477
 30
0.0
  0
VERTEX
  5
658
  8
UNIT-HID
  6
CONTINUOUS
 62
     9
 10
99.107284753399995
 20
105.6671239586
 30
0.0
  0
VERTEX
  5
659
  8
UNIT-HID
  6
CONTINUOUS
 62
     9
 10
99.062787825499996
 20
105.5963911697
 30
0.0
  0
VERTEX
  5
65A
  8
UNIT-HID
  6
CONTINUOUS
 62
     9
 10
99.021310389099995
 20
105.5239075428
 30
0.0
  0
VERTEX
  5
65B
  8
UNIT-HID
  6
CONTINUOUS
 62
     9
 10
98.982919683800006
 20
105.4498039967
 30
0.0
  0
VERTEX
  5
65C
  8
UNIT-HID
  6
CONTINUOUS
 62
     9
 10
98.9476771872
 20
105.3742140632
 30
0.0
  0
VERTEX
  5
65D
  8
UNIT-HID
  6
CONTINUOUS
 62
     9
 10
98.915638505999993
 20
105.2972736399
 30
0.0
  0
VERTEX
  5
65E
  8
UNIT-HID
  6
CONTINUOUS
 62
     9
 10
98.886853278100006
 20
105.2191207381
 30
0.0
  0
VERTEX
  5
65F
  8
UNIT-HID
  6
CONTINUOUS
 62
     9
 10
98.861365083600006
 20
105.1398952274
 30
0.0
  0
VERTEX
  5
660
  8
UNIT-HID
  6
CONTINUOUS
 62
     9
 10
98.839211365899999
 20
105.0597385774
 30
0.0
  0
VERTEX
  5
661
  8
UNIT-HID
  6
CONTINUOUS
 62
     9
 10
98.820423362099973
 20
104.9787935959
 30
0.0
  0
VERTEX
  5
662
  8
UNIT-HID
  6
CONTINUOUS
 62
     9
 10
98.805026043900014
 20
104.8972041656
 30
0.0
  0
VERTEX
  5
663
  8
UNIT-HID
  6
CONTINUOUS
 62
     9
 10
98.793038066399987
 20
104.81511497850001
 30
0.0
  0
VERTEX
  5
664
  8
UNIT-HID
  6
CONTINUOUS
 62
     9
 10
98.78447172780001
 20
104.7326712684
 30
0.0
  0
VERTEX
  5
665
  8
UNIT-HID
  6
CONTINUOUS
 62
     9
 10
98.779332936900005
 20
104.6500185431
 30
0.0
  0
VERTEX
  5
666
  8
UNIT-HID
  6
CONTINUOUS
 62
     9
 10
98.7776211897
 20
104.5673023152
 30
0.0
  0
SEQEND
  5
667
  8
UNIT-HID
  6
CONTINUOUS
 62
     9
  0
LINE
  5
2FF
  8
UNIT-HID
  6
CONTINUOUS
 62
     9
 10
102.2776211897
 20
104.5673023152
 30
0.0
 11
102.2776211897
 21
101.5677592297
 31
0.0
  0
LINE
  5
300
  8
UNIT-HID
  6
CONTINUOUS
 62
     9
 10
102.7776211897
 20
104.5673023152
 30
0.0
 11
102.7776211897
 21
101.5677592297
 31
0.0
  0
LINE
  5
301
  8
UNTDUCTDIM
  6
CONTINUOUS
 62
     2
 10
166.8876601897
 20
121.7521845757
 30
0.0
 11
167.5126601897
 21
121.7521845757
 31
0.0
  0
LINE
  5
302
  8
CURBDUCTDIM
  6
CONTINUOUS
 62
     5
 10
186.3011644506
 20
122.62705130889999
 30
0.0
 11
187.13449845060001
 21
122.62705130889999
 31
0.0
  0
LINE
  5
303
  8
CURB-14
  6
CONTINUOUS
 62
     6
 10
113.2801211897
 20
143.5613814644
 30
0.0
 11
113.2801211897
 21
93.631449111299986
 31
0.0
  0
LINE
  5
304
  8
CURB-24
  6
CONTINUOUS
 62
     6
 10
113.2801211897
 20
143.5613814644
 30
0.0
 11
113.2801211897
 21
93.631449111299986
 31
0.0
  0
POLYLINE
  5
305
  8
HOOD
  6
CONTINUOUS
 62
     7
 66
     1
 10
0.0
 20
0.0
 30
0.0
 40
0.15
 41
0.15
  0
VERTEX
  5
668
  8
HOOD
  6
CONTINUOUS
 62
     7
 10
115.3401211897
 20
169.13058787209999
 30
0.0
  0
VERTEX
  5
669
  8
HOOD
  6
CONTINUOUS
 62
     7
 10
115.3401211897
 20
148.37831032119999
 30
0.0
  0
SEQEND
  5
66A
  8
HOOD
  6
CONTINUOUS
 62
     7
  0
LINE
  5
309
  8
CURB-14
  6
CONTINUOUS
 62
     6
 10
116.2801211897
 20
143.5613814644
 30
0.0
 11
116.2801211897
 21
93.631449111299986
 31
0.0
  0
LINE
  5
30A
  8
CURB-24
  6
CONTINUOUS
 62
     6
 10
116.2801211897
 20
143.5613814644
 30
0.0
 11
116.2801211897
 21
93.631449111299986
 31
0.0
  0
LINE
  5
30B
  8
CURB-DUCT
  6
CONTINUOUS
 62
     5
 10
116.2801211897
 20
128.12621363229999
 30
0.0
 11
116.2801211897
 21
143.5613814644
 31
0.0
  0
LINE
  5
30C
  8
CURBDUCTDIM
  6
CONTINUOUS
 62
     5
 10
116.2801211897
 20
144.11619108330001
 30
0.0
 11
116.2801211897
 21
163.1455318921
 31
0.0
  0
LINE
  5
30D
  8
CURBDUCTDIM
  6
CONTINUOUS
 62
     5
 10
118.1551211897
 20
162.32501532640001
 30
0.0
 11
118.1551211897
 21
161.7001105169
 31
0.0
  0
LINE
  5
30E
  8
UNIT-DUCTS
  6
CONTINUOUS
 62
     2
 10
119.7776211897
 20
129.00108036559999
 30
0.0
 11
119.7776211897
 21
141.6241575169
 31
0.0
  0
LINE
  5
30F
  8
UNTDUCTDIM
  6
CONTINUOUS
 62
     2
 10
119.7776211897
 20
142.87396713589999
 30
0.0
 11
119.7776211897
 21
156.3252236104
 31
0.0
  0
LINE
  5
310
  8
CURBDUCTDIM
  6
CONTINUOUS
 62
     5
 10
180.93080018969999
 20
123.2519561184
 30
0.0
 11
181.55580018969999
 21
123.2519561184
 31
0.0
  0
LINE
  5
311
  8
UNIT-DUCTS
  6
CONTINUOUS
 62
     2
 10
142.1526211897
 20
123.6268990041
 30
0.0
 11
156.1526211897
 21
123.6268990041
 31
0.0
  0
LINE
  5
312
  8
UNTDUCTDIM
  6
CONTINUOUS
 62
     2
 10
157.4026211897
 20
123.6268990041
 30
0.0
 11
168.4501601897
 21
123.6268990041
 31
0.0
  0
LINE
  5
313
  8
CURB-DUCT
  6
CONTINUOUS
 62
     5
 10
156.4651211897
 20
125.1266705468
 30
0.0
 11
140.5276211897
 21
125.1266705468
 31
0.0
  0
LINE
  5
314
  8
CURB-14
  6
CONTINUOUS
 62
     6
 10
157.0276211897
 20
125.1266705468
 30
0.0
 11
116.2801211897
 21
125.1266705468
 31
0.0
  0
LINE
  5
315
  8
CURB-24
  6
CONTINUOUS
 62
     6
 10
157.0276211897
 20
125.1266705468
 30
0.0
 11
116.2801211897
 21
125.1266705468
 31
0.0
  0
LINE
  5
316
  8
CURBDUCTDIM
  6
CONTINUOUS
 62
     5
 10
158.1526211897
 20
125.1266705468
 30
0.0
 11
188.1619924506
 21
125.1266705468
 31
0.0
  0
LINE
  5
317
  8
CURB-DUCT
  6
CONTINUOUS
 62
     5
 10
156.4651211897
 20
128.12621363229999
 30
0.0
 11
116.2801211897
 21
128.12621363229999
 31
0.0
  0
LINE
  5
318
  8
CURB-14
  6
CONTINUOUS
 62
     6
 10
157.0276211897
 20
128.12621363229999
 30
0.0
 11
116.2801211897
 21
128.12621363229999
 31
0.0
  0
LINE
  5
319
  8
CURB-24
  6
CONTINUOUS
 62
     6
 10
157.0276211897
 20
128.12621363229999
 30
0.0
 11
116.2801211897
 21
128.12621363229999
 31
0.0
  0
LINE
  5
31A
  8
CURBDUCTDIM
  6
CONTINUOUS
 62
     5
 10
158.1526211897
 20
128.12621363229999
 30
0.0
 11
188.1619924506
 21
128.12621363229999
 31
0.0
  0
LINE
  5
31B
  8
UNIT-DUCTS
  6
CONTINUOUS
 62
     2
 10
156.1526211897
 20
129.00108036559999
 30
0.0
 11
119.7776211897
 21
129.00108036559999
 31
0.0
  0
LINE
  5
31C
  8
UNTDUCTDIM
  6
CONTINUOUS
 62
     2
 10
157.4026211897
 20
129.00108036559999
 30
0.0
 11
168.4501601897
 21
129.00108036559999
 31
0.0
  0
LINE
  5
31D
  8
CURBDUCTDIM
  6
CONTINUOUS
 62
     5
 10
180.93080018969999
 20
130.00092806070001
 30
0.0
 11
181.55580018969999
 21
130.00092806070001
 31
0.0
  0
LINE
  5
31E
  8
CURBDUCTDIM
  6
CONTINUOUS
 62
     5
 10
186.3011644506
 20
130.62583287019999
 30
0.0
 11
187.13449845060001
 21
130.62583287019999
 31
0.0
  0
LINE
  5
31F
  8
UNTDUCTDIM
  6
CONTINUOUS
 62
     2
 10
166.8876601897
 20
130.875794794
 30
0.0
 11
167.5126601897
 21
130.875794794
 31
0.0
  0
LINE
  5
320
  8
UNIT-SOL
  6
CONTINUOUS
 62
     7
 10
95.276230867999999
 20
136.0923240436
 30
0.0
 11
90.000977654099998
 21
139.13799290669999
 31
0.0
  0
LINE
  5
321
  8
UNIT-SOL
  6
CONTINUOUS
 62
     7
 10
100.3574895113
 20
133.158657998
 30
0.0
 11
105.6327427252
 21
130.11298913499999
 31
0.0
  0
LINE
  5
322
  8
UNTDUCTDIM
  6
CONTINUOUS
 62
     2
 10
121.6526211897
 20
155.3253663962
 30
0.0
 11
121.6526211897
 21
154.7004615868
 31
0.0
  0
LINE
  5
323
  8
CURBDUCTDIM
  6
CONTINUOUS
 62
     5
 10
186.71783145059999
 20
133.12545210810001
 30
0.0
 11
189.21783145059999
 21
133.12545210810001
 31
0.0
  0
LINE
  5
324
  8
UNIT-SOL
  6
CONTINUOUS
 62
     7
 10
96.691860189699995
 20
134.62549102080001
 30
0.0
 11
98.941860189699995
 21
134.62549102080001
 31
0.0
  0
LINE
  5
325
  8
UNTDUCTDIM
  6
CONTINUOUS
 62
     2
 10
166.8876601897
 20
139.74944308849999
 30
0.0
 11
167.5126601897
 21
139.74944308849999
 31
0.0
  0
LINE
  5
326
  8
UNIT-DUCTS
  6
CONTINUOUS
 62
     2
 10
119.7776211897
 20
141.6241575169
 30
0.0
 11
156.1526211897
 21
141.6241575169
 31
0.0
  0
LINE
  5
327
  8
UNTDUCTDIM
  6
CONTINUOUS
 62
     2
 10
157.4026211897
 20
141.6241575169
 30
0.0
 11
168.4501601897
 21
141.6241575169
 31
0.0
  0
POLYLINE
  5
328
  8
CURB-14
  6
CONTINUOUS
 62
     6
 66
     1
 10
0.0
 20
0.0
 30
0.0
  0
VERTEX
  5
66B
  8
CURB-14
  6
CONTINUOUS
 62
     6
 10
134.8401211897
 20
126.1890087229
 30
0.0
  0
VERTEX
  5
66C
  8
CURB-14
  6
CONTINUOUS
 62
     6
 10
134.83959448990001
 20
126.21935944809999
 30
0.0
  0
VERTEX
  5
66D
  8
CURB-14
  6
CONTINUOUS
 62
     6
 10
134.83723556480001
 20
126.26000154730001
 30
0.0
  0
VERTEX
  5
66E
  8
CURB-14
  6
CONTINUOUS
 62
     6
 10
134.8329831021
 20
126.3005296252
 30
0.0
  0
VERTEX
  5
66F
  8
CURB-14
  6
CONTINUOUS
 62
     6
 10
134.82684102580001
 20
126.3408537068
 30
0.0
  0
VERTEX
  5
670
  8
CURB-14
  6
CONTINUOUS
 62
     6
 10
134.81881765910001
 20
126.38088399759999
 30
0.0
  0
VERTEX
  5
671
  8
CURB-14
  6
CONTINUOUS
 62
     6
 10
134.8089257053
 20
126.4205310928
 30
0.0
  0
VERTEX
  5
672
  8
CURB-14
  6
CONTINUOUS
 62
     6
 10
134.79718221959999
 20
126.45970618600001
 30
0.0
  0
VERTEX
  5
673
  8
CURB-14
  6
CONTINUOUS
 62
     6
 10
134.7836085717
 20
126.4983212761
 30
0.0
  0
VERTEX
  5
674
  8
CURB-14
  6
CONTINUOUS
 62
     6
 10
134.76823040049999
 20
126.5362893731
 30
0.0
  0
VERTEX
  5
675
  8
CURB-14
  6
CONTINUOUS
 62
     6
 10
134.7510775595
 20
126.57352470070001
 30
0.0
  0
VERTEX
  5
676
  8
CURB-14
  6
CONTINUOUS
 62
     6
 10
134.73218405290001
 20
126.6099428973
 30
0.0
  0
VERTEX
  5
677
  8
CURB-14
  6
CONTINUOUS
 62
     6
 10
134.71158796340001
 20
126.6454612134
 30
0.0
  0
VERTEX
  5
678
  8
CURB-14
  6
CONTINUOUS
 62
     6
 10
134.68933137120001
 20
126.67999870600001
 30
0.0
  0
VERTEX
  5
679
  8
CURB-14
  6
CONTINUOUS
 62
     6
 10
134.66546026379999
 20
126.7134764285
 30
0.0
  0
VERTEX
  5
67A
  8
CURB-14
  6
CONTINUOUS
 62
     6
 10
134.64002443749999
 20
126.745817617
 30
0.0
  0
VERTEX
  5
67B
  8
CURB-14
  6
CONTINUOUS
 62
     6
 10
134.6130773905
 20
126.7769478716
 30
0.0
  0
VERTEX
  5
67C
  8
CURB-14
  6
CONTINUOUS
 62
     6
 10
134.58467620779999
 20
126.80679533289999
 30
0.0
  0
VERTEX
  5
67D
  8
CURB-14
  6
CONTINUOUS
 62
     6
 10
134.55488143759999
 20
126.8352908528
 30
0.0
  0
VERTEX
  5
67E
  8
CURB-14
  6
CONTINUOUS
 62
     6
 10
134.52375695999999
 20
126.8623681593
 30
0.0
  0
VERTEX
  5
67F
  8
CURB-14
  6
CONTINUOUS
 62
     6
 10
134.4913698487
 20
126.88796401570001
 30
0.0
  0
VERTEX
  5
680
  8
CURB-14
  6
CONTINUOUS
 62
     6
 10
134.4577902243
 20
126.9120183725
 30
0.0
  0
VERTEX
  5
681
  8
CURB-14
  6
CONTINUOUS
 62
     6
 10
134.42309110139999
 20
126.93447451279999
 30
0.0
  0
VERTEX
  5
682
  8
CURB-14
  6
CONTINUOUS
 62
     6
 10
134.38734822820001
 20
126.95527919040001
 30
0.0
  0
VERTEX
  5
683
  8
CURB-14
  6
CONTINUOUS
 62
     6
 10
134.3506399206
 20
126.9743827601
 30
0.0
  0
VERTEX
  5
684
  8
CURB-14
  6
CONTINUOUS
 62
     6
 10
134.31304688930001
 20
126.99173930000001
 30
0.0
  0
VERTEX
  5
685
  8
CURB-14
  6
CONTINUOUS
 62
     6
 10
134.274652062
 20
127.0073067263
 30
0.0
  0
VERTEX
  5
686
  8
CURB-14
  6
CONTINUOUS
 62
     6
 10
134.23554039929999
 20
127.0210468984
 30
0.0
  0
VERTEX
  5
687
  8
CURB-14
  6
CONTINUOUS
 62
     6
 10
134.19579870659999
 20
127.0329257164
 30
0.0
  0
VERTEX
  5
688
  8
CURB-14
  6
CONTINUOUS
 62
     6
 10
134.15551544140001
 20
127.0429132089
 30
0.0
  0
VERTEX
  5
689
  8
CURB-14
  6
CONTINUOUS
 62
     6
 10
134.1147805153
 20
127.050983612
 30
0.0
  0
VERTEX
  5
68A
  8
CURB-14
  6
CONTINUOUS
 62
     6
 10
134.07368509419999
 20
127.0571154384
 30
0.0
  0
VERTEX
  5
68B
  8
CURB-14
  6
CONTINUOUS
 62
     6
 10
134.03232139389999
 20
127.0612915377
 30
0.0
  0
VERTEX
  5
68C
  8
CURB-14
  6
CONTINUOUS
 62
     6
 10
133.9907824732
 20
127.063499146
 30
0.0
  0
VERTEX
  5
68D
  8
CURB-14
  6
CONTINUOUS
 62
     6
 10
133.96997430830001
 20
127.0638619994
 30
0.0
  0
VERTEX
  5
68E
  8
CURB-14
  6
CONTINUOUS
 62
     6
 10
133.94916202549999
 20
127.0637299263
 30
0.0
  0
VERTEX
  5
68F
  8
CURB-14
  6
CONTINUOUS
 62
     6
 10
133.90759571449999
 20
127.0619827366
 30
0.0
  0
VERTEX
  5
690
  8
CURB-14
  6
CONTINUOUS
 62
     6
 10
133.8661829431
 20
127.05826473
 30
0.0
  0
VERTEX
  5
691
  8
CURB-14
  6
CONTINUOUS
 62
     6
 10
133.82501703969999
 20
127.0525876753
 30
0.0
  0
VERTEX
  5
692
  8
CURB-14
  6
CONTINUOUS
 62
     6
 10
133.7841905338
 20
127.044967758
 30
0.0
  0
VERTEX
  5
693
  8
CURB-14
  6
CONTINUOUS
 62
     6
 10
133.74379494620001
 20
127.0354255323
 30
0.0
  0
VERTEX
  5
694
  8
CURB-14
  6
CONTINUOUS
 62
     6
 10
133.70392058269999
 20
127.02398586309999
 30
0.0
  0
VERTEX
  5
695
  8
CURB-14
  6
CONTINUOUS
 62
     6
 10
133.66465633109999
 20
127.01067785799999
 30
0.0
  0
VERTEX
  5
696
  8
CURB-14
  6
CONTINUOUS
 62
     6
 10
133.62608946079999
 20
126.9955347905
 30
0.0
  0
VERTEX
  5
697
  8
CURB-14
  6
CONTINUOUS
 62
     6
 10
133.58830542730001
 20
126.97859401309999
 30
0.0
  0
VERTEX
  5
698
  8
CURB-14
  6
CONTINUOUS
 62
     6
 10
133.55138768079999
 20
126.9598968616
 30
0.0
  0
VERTEX
  5
699
  8
CURB-14
  6
CONTINUOUS
 62
     6
 10
133.51541747959999
 20
126.9394885506
 30
0.0
  0
VERTEX
  5
69A
  8
CURB-14
  6
CONTINUOUS
 62
     6
 10
133.48047370899999
 20
126.91741806020001
 30
0.0
  0
VERTEX
  5
69B
  8
CURB-14
  6
CONTINUOUS
 62
     6
 10
133.4466327053
 20
126.89373801470001
 30
0.0
  0
VERTEX
  5
69C
  8
CURB-14
  6
CONTINUOUS
 62
     6
 10
133.41396808670001
 20
126.8685045524
 30
0.0
  0
VERTEX
  5
69D
  8
CURB-14
  6
CONTINUOUS
 62
     6
 10
133.38255058940001
 20
126.84177718869999
 30
0.0
  0
VERTEX
  5
69E
  8
CURB-14
  6
CONTINUOUS
 62
     6
 10
133.35244791150001
 20
126.8136186711
 30
0.0
  0
VERTEX
  5
69F
  8
CURB-14
  6
CONTINUOUS
 62
     6
 10
133.3237245629
 20
126.7840948275
 30
0.0
  0
VERTEX
  5
6A0
  8
CURB-14
  6
CONTINUOUS
 62
     6
 10
133.29644172319999
 20
126.7532744073
 30
0.0
  0
VERTEX
  5
6A1
  8
CURB-14
  6
CONTINUOUS
 62
     6
 10
133.2706571068
 20
126.7212289167
 30
0.0
  0
VERTEX
  5
6A2
  8
CURB-14
  6
CONTINUOUS
 62
     6
 10
133.24642483549999
 20
126.68803244759999
 30
0.0
  0
VERTEX
  5
6A3
  8
CURB-14
  6
CONTINUOUS
 62
     6
 10
133.22379531959999
 20
126.6537615013
 30
0.0
  0
VERTEX
  5
6A4
  8
CURB-14
  6
CONTINUOUS
 62
     6
 10
133.20281514659999
 20
126.6184948067
 30
0.0
  0
VERTEX
  5
6A5
  8
CURB-14
  6
CONTINUOUS
 62
     6
 10
133.18352697890001
 20
126.58231313340001
 30
0.0
  0
VERTEX
  5
6A6
  8
CURB-14
  6
CONTINUOUS
 62
     6
 10
133.1659694587
 20
126.54529910159999
 30
0.0
  0
VERTEX
  5
6A7
  8
CURB-14
  6
CONTINUOUS
 62
     6
 10
133.1501771227
 20
126.50753698680001
 30
0.0
  0
VERTEX
  5
6A8
  8
CURB-14
  6
CONTINUOUS
 62
     6
 10
133.13618032470001
 20
126.4691125211
 30
0.0
  0
VERTEX
  5
6A9
  8
CURB-14
  6
CONTINUOUS
 62
     6
 10
133.12400516650001
 20
126.43011269260001
 30
0.0
  0
VERTEX
  5
6AA
  8
CURB-14
  6
CONTINUOUS
 62
     6
 10
133.11367343789999
 20
126.39062554039999
 30
0.0
  0
VERTEX
  5
6AB
  8
CURB-14
  6
CONTINUOUS
 62
     6
 10
133.1052025649
 20
126.3507399483
 30
0.0
  0
VERTEX
  5
6AC
  8
CURB-14
  6
CONTINUOUS
 62
     6
 10
133.0986055656
 20
126.3105454368
 30
0.0
  0
VERTEX
  5
6AD
  8
CURB-14
  6
CONTINUOUS
 62
     6
 10
133.09389101549999
 20
126.2701319529
 30
0.0
  0
VERTEX
  5
6AE
  8
CURB-14
  6
CONTINUOUS
 62
     6
 10
133.0910630189
 20
126.2295896593
 30
0.0
  0
VERTEX
  5
6AF
  8
CURB-14
  6
CONTINUOUS
 62
     6
 10
133.0901211897
 20
126.1890087229
 30
0.0
  0
VERTEX
  5
6B0
  8
CURB-14
  6
CONTINUOUS
 62
     6
 10
133.0906478894
 20
126.1586579977
 30
0.0
  0
VERTEX
  5
6B1
  8
CURB-14
  6
CONTINUOUS
 62
     6
 10
133.0930068145
 20
126.1180158985
 30
0.0
  0
VERTEX
  5
6B2
  8
CURB-14
  6
CONTINUOUS
 62
     6
 10
133.0972592771999
 20
126.0774878207
 30
0.0
  0
VERTEX
  5
6B3
  8
CURB-14
  6
CONTINUOUS
 62
     6
 10
133.10340135359999
 20
126.03716373899999
 30
0.0
  0
VERTEX
  5
6B4
  8
CURB-14
  6
CONTINUOUS
 62
     6
 10
133.11142472029999
 20
125.9971334482
 30
0.0
  0
VERTEX
  5
6B5
  8
CURB-14
  6
CONTINUOUS
 62
     6
 10
133.12131667400001
 20
125.95748635299999
 30
0.0
  0
VERTEX
  5
6B6
  8
CURB-14
  6
CONTINUOUS
 62
     6
 10
133.1330601597999
 20
125.91831125989999
 30
0.0
  0
VERTEX
  5
6B7
  8
CURB-14
  6
CONTINUOUS
 62
     6
 10
133.1466338077
 20
125.8796961697
 30
0.0
  0
VERTEX
  5
6B8
  8
CURB-14
  6
CONTINUOUS
 62
     6
 10
133.1620119788
 20
125.8417280728
 30
0.0
  0
VERTEX
  5
6B9
  8
CURB-14
  6
CONTINUOUS
 62
     6
 10
133.1791648199
 20
125.80449274519999
 30
0.0
  0
VERTEX
  5
6BA
  8
CURB-14
  6
CONTINUOUS
 62
     6
 10
133.19805832649999
 20
125.7680745486
 30
0.0
  0
VERTEX
  5
6BB
  8
CURB-14
  6
CONTINUOUS
 62
     6
 10
133.21865441590001
 20
125.7325562324
 30
0.0
  0
VERTEX
  5
6BC
  8
CURB-14
  6
CONTINUOUS
 62
     6
 10
133.2409110081
 20
125.69801873980001
 30
0.0
  0
VERTEX
  5
6BD
  8
CURB-14
  6
CONTINUOUS
 62
     6
 10
133.2647821155
 20
125.6645410173
 30
0.0
  0
VERTEX
  5
6BE
  8
CURB-14
  6
CONTINUOUS
 62
     6
 10
133.29021794190001
 20
125.6321998289
 30
0.0
  0
VERTEX
  5
6BF
  8
CURB-14
  6
CONTINUOUS
 62
     6
 10
133.31716498879999
 20
125.6010695743
 30
0.0
  0
VERTEX
  5
6C0
  8
CURB-14
  6
CONTINUOUS
 62
     6
 10
133.3455661715
 20
125.5712221129
 30
0.0
  0
VERTEX
  5
6C1
  8
CURB-14
  6
CONTINUOUS
 62
     6
 10
133.37536094180001
 20
125.5427265931
 30
0.0
  0
VERTEX
  5
6C2
  8
CURB-14
  6
CONTINUOUS
 62
     6
 10
133.4064854193
 20
125.51564928649999
 30
0.0
  0
VERTEX
  5
6C3
  8
CURB-14
  6
CONTINUOUS
 62
     6
 10
133.43887253060001
 20
125.49005343020001
 30
0.0
  0
VERTEX
  5
6C4
  8
CURB-14
  6
CONTINUOUS
 62
     6
 10
133.47245215500001
 20
125.4659990734
 30
0.0
  0
VERTEX
  5
6C5
  8
CURB-14
  6
CONTINUOUS
 62
     6
 10
133.50715127800001
 20
125.44354293310001
 30
0.0
  0
VERTEX
  5
6C6
  8
CURB-14
  6
CONTINUOUS
 62
     6
 10
133.54289415119999
 20
125.42273825549999
 30
0.0
  0
VERTEX
  5
6C7
  8
CURB-14
  6
CONTINUOUS
 62
     6
 10
133.5796024588
 20
125.4036346858
 30
0.0
  0
VERTEX
  5
6C8
  8
CURB-14
  6
CONTINUOUS
 62
     6
 10
133.61719549
 20
125.38627814580001
 30
0.0
  0
VERTEX
  5
6C9
  8
CURB-14
  6
CONTINUOUS
 62
     6
 10
133.6555903174
 20
125.3707107195999
 30
0.0
  0
VERTEX
  5
6CA
  8
CURB-14
  6
CONTINUOUS
 62
     6
 10
133.69470198010001
 20
125.3569705475
 30
0.0
  0
VERTEX
  5
6CB
  8
CURB-14
  6
CONTINUOUS
 62
     6
 10
133.7344436727
 20
125.3450917295
 30
0.0
  0
VERTEX
  5
6CC
  8
CURB-14
  6
CONTINUOUS
 62
     6
 10
133.77472693799999
 20
125.335104237
 30
0.0
  0
VERTEX
  5
6CD
  8
CURB-14
  6
CONTINUOUS
 62
     6
 10
133.81546186400001
 20
125.3270338339
 30
0.0
  0
VERTEX
  5
6CE
  8
CURB-14
  6
CONTINUOUS
 62
     6
 10
133.8565572851
 20
125.32090200739999
 30
0.0
  0
VERTEX
  5
6CF
  8
CURB-14
  6
CONTINUOUS
 62
     6
 10
133.89792098549989
 20
125.3167259081
 30
0.0
  0
VERTEX
  5
6D0
  8
CURB-14
  6
CONTINUOUS
 62
     6
 10
133.93945990610001
 20
125.3145182998
 30
0.0
  0
VERTEX
  5
6D1
  8
CURB-14
  6
CONTINUOUS
 62
     6
 10
133.960268071
 20
125.31415544639999
 30
0.0
  0
VERTEX
  5
6D2
  8
CURB-14
  6
CONTINUOUS
 62
     6
 10
133.98108035390001
 20
125.3142875196
 30
0.0
  0
VERTEX
  5
6D3
  8
CURB-14
  6
CONTINUOUS
 62
     6
 10
134.02264666490001
 20
125.3160347092
 30
0.0
  0
VERTEX
  5
6D4
  8
CURB-14
  6
CONTINUOUS
 62
     6
 10
134.0640594363
 20
125.31975271580001
 30
0.0
  0
VERTEX
  5
6D5
  8
CURB-14
  6
CONTINUOUS
 62
     6
 10
134.1052253396
 20
125.3254297706
 30
0.0
  0
VERTEX
  5
6D6
  8
CURB-14
  6
CONTINUOUS
 62
     6
 10
134.14605184550001
 20
125.3330496879
 30
0.0
  0
VERTEX
  5
6D7
  8
CURB-14
  6
CONTINUOUS
 62
     6
 10
134.18644743319999
 20
125.3425919136
 30
0.0
  0
VERTEX
  5
6D8
  8
CURB-14
  6
CONTINUOUS
 62
     6
 10
134.22632179659999
 20
125.3540315828
 30
0.0
  0
VERTEX
  5
6D9
  8
CURB-14
  6
CONTINUOUS
 62
     6
 10
134.26558604830001
 20
125.36733958790001
 30
0.0
  0
VERTEX
  5
6DA
  8
CURB-14
  6
CONTINUOUS
 62
     6
 10
134.30415291860001
 20
125.3824826553
 30
0.0
  0
VERTEX
  5
6DB
  8
CURB-14
  6
CONTINUOUS
 62
     6
 10
134.34193695210001
 20
125.39942343280001
 30
0.0
  0
VERTEX
  5
6DC
  8
CURB-14
  6
CONTINUOUS
 62
     6
 10
134.37885469860001
 20
125.4181205843
 30
0.0
  0
VERTEX
  5
6DD
  8
CURB-14
  6
CONTINUOUS
 62
     6
 10
134.41482489969999
 20
125.4385288953
 30
0.0
  0
VERTEX
  5
6DE
  8
CURB-14
  6
CONTINUOUS
 62
     6
 10
134.4497686704
 20
125.46059938560001
 30
0.0
  0
VERTEX
  5
6DF
  8
CURB-14
  6
CONTINUOUS
 62
     6
 10
134.48360967400001
 20
125.48427943119999
 30
0.0
  0
VERTEX
  5
6E0
  8
CURB-14
  6
CONTINUOUS
 62
     6
 10
134.5162742926
 20
125.5095128935
 30
0.0
  0
VERTEX
  5
6E1
  8
CURB-14
  6
CONTINUOUS
 62
     6
 10
134.5476917899
 20
125.53624025720001
 30
0.0
  0
VERTEX
  5
6E2
  8
CURB-14
  6
CONTINUOUS
 62
     6
 10
134.57779446789999
 20
125.5643987747
 30
0.0
  0
VERTEX
  5
6E3
  8
CURB-14
  6
CONTINUOUS
 62
     6
 10
134.6065178165
 20
125.5939226184
 30
0.0
  0
VERTEX
  5
6E4
  8
CURB-14
  6
CONTINUOUS
 62
     6
 10
134.63380065609999
 20
125.6247430386
 30
0.0
  0
VERTEX
  5
6E5
  8
CURB-14
  6
CONTINUOUS
 62
     6
 10
134.6595852726
 20
125.6567885292
 30
0.0
  0
VERTEX
  5
6E6
  8
CURB-14
  6
CONTINUOUS
 62
     6
 10
134.68381754390001
 20
125.68998499830001
 30
0.0
  0
VERTEX
  5
6E7
  8
CURB-14
  6
CONTINUOUS
 62
     6
 10
134.70644705980001
 20
125.7242559445
 30
0.0
  0
VERTEX
  5
6E8
  8
CURB-14
  6
CONTINUOUS
 62
     6
 10
134.72742723269999
 20
125.7595226392
 30
0.0
  0
VERTEX
  5
6E9
  8
CURB-14
  6
CONTINUOUS
 62
     6
 10
134.74671540049999
 20
125.79570431250001
 30
0.0
  0
VERTEX
  5
6EA
  8
CURB-14
  6
CONTINUOUS
 62
     6
 10
134.76427292069999
 20
125.8327183442
 30
0.0
  0
VERTEX
  5
6EB
  8
CURB-14
  6
CONTINUOUS
 62
     6
 10
134.7800652567
 20
125.87048045909999
 30
0.0
  0
VERTEX
  5
6EC
  8
CURB-14
  6
CONTINUOUS
 62
     6
 10
134.79406205469999
 20
125.9089049247
 30
0.0
  0
VERTEX
  5
6ED
  8
CURB-14
  6
CONTINUOUS
 62
     6
 10
134.80623721289999
 20
125.94790475329999
 30
0.0
  0
VERTEX
  5
6EE
  8
CURB-14
  6
CONTINUOUS
 62
     6
 10
134.81656894139999
 20
125.9873919055
 30
0.0
  0
VERTEX
  5
6EF
  8
CURB-14
  6
CONTINUOUS
 62
     6
 10
134.8250398145
 20
126.02727749749999
 30
0.0
  0
VERTEX
  5
6F0
  8
CURB-14
  6
CONTINUOUS
 62
     6
 10
134.83163681369999
 20
126.067472009
 30
0.0
  0
VERTEX
  5
6F1
  8
CURB-14
  6
CONTINUOUS
 62
     6
 10
134.83635136390001
 20
126.1078854929
 30
0.0
  0
VERTEX
  5
6F2
  8
CURB-14
  6
CONTINUOUS
 62
     6
 10
134.83917936040001
 20
126.14842778649999
 30
0.0
  0
VERTEX
  5
6F3
  8
CURB-14
  6
CONTINUOUS
 62
     6
 10
134.8401211897
 20
126.1890087229
 30
0.0
  0
SEQEND
  5
6F4
  8
CURB-14
  6
CONTINUOUS
 62
     6
  0
POLYLINE
  5
3B3
  8
CURB-24
  6
CONTINUOUS
 62
     6
 66
     1
 10
0.0
 20
0.0
 30
0.0
  0
VERTEX
  5
6F5
  8
CURB-24
  6
CONTINUOUS
 62
     6
 10
134.8401211897
 20
126.1890087229
 30
0.0
  0
VERTEX
  5
6F6
  8
CURB-24
  6
CONTINUOUS
 62
     6
 10
134.83959448990001
 20
126.21935944809999
 30
0.0
  0
VERTEX
  5
6F7
  8
CURB-24
  6
CONTINUOUS
 62
     6
 10
134.83723556480001
 20
126.26000154730001
 30
0.0
  0
VERTEX
  5
6F8
  8
CURB-24
  6
CONTINUOUS
 62
     6
 10
134.8329831021
 20
126.3005296252
 30
0.0
  0
VERTEX
  5
6F9
  8
CURB-24
  6
CONTINUOUS
 62
     6
 10
134.82684102580001
 20
126.3408537068
 30
0.0
  0
VERTEX
  5
6FA
  8
CURB-24
  6
CONTINUOUS
 62
     6
 10
134.81881765910001
 20
126.38088399759999
 30
0.0
  0
VERTEX
  5
6FB
  8
CURB-24
  6
CONTINUOUS
 62
     6
 10
134.8089257053
 20
126.4205310928
 30
0.0
  0
VERTEX
  5
6FC
  8
CURB-24
  6
CONTINUOUS
 62
     6
 10
134.79718221959999
 20
126.45970618600001
 30
0.0
  0
VERTEX
  5
6FD
  8
CURB-24
  6
CONTINUOUS
 62
     6
 10
134.7836085717
 20
126.4983212761
 30
0.0
  0
VERTEX
  5
6FE
  8
CURB-24
  6
CONTINUOUS
 62
     6
 10
134.76823040049999
 20
126.5362893731
 30
0.0
  0
VERTEX
  5
6FF
  8
CURB-24
  6
CONTINUOUS
 62
     6
 10
134.7510775595
 20
126.57352470070001
 30
0.0
  0
VERTEX
  5
700
  8
CURB-24
  6
CONTINUOUS
 62
     6
 10
134.73218405290001
 20
126.6099428973
 30
0.0
  0
VERTEX
  5
701
  8
CURB-24
  6
CONTINUOUS
 62
     6
 10
134.71158796340001
 20
126.6454612134
 30
0.0
  0
VERTEX
  5
702
  8
CURB-24
  6
CONTINUOUS
 62
     6
 10
134.68933137120001
 20
126.67999870600001
 30
0.0
  0
VERTEX
  5
703
  8
CURB-24
  6
CONTINUOUS
 62
     6
 10
134.66546026379999
 20
126.7134764285
 30
0.0
  0
VERTEX
  5
704
  8
CURB-24
  6
CONTINUOUS
 62
     6
 10
134.64002443749999
 20
126.745817617
 30
0.0
  0
VERTEX
  5
705
  8
CURB-24
  6
CONTINUOUS
 62
     6
 10
134.6130773905
 20
126.7769478716
 30
0.0
  0
VERTEX
  5
706
  8
CURB-24
  6
CONTINUOUS
 62
     6
 10
134.58467620779999
 20
126.80679533289999
 30
0.0
  0
VERTEX
  5
707
  8
CURB-24
  6
CONTINUOUS
 62
     6
 10
134.55488143759999
 20
126.8352908528
 30
0.0
  0
VERTEX
  5
708
  8
CURB-24
  6
CONTINUOUS
 62
     6
 10
134.52375695999999
 20
126.8623681593
 30
0.0
  0
VERTEX
  5
709
  8
CURB-24
  6
CONTINUOUS
 62
     6
 10
134.4913698487
 20
126.88796401570001
 30
0.0
  0
VERTEX
  5
70A
  8
CURB-24
  6
CONTINUOUS
 62
     6
 10
134.4577902243
 20
126.9120183725
 30
0.0
  0
VERTEX
  5
70B
  8
CURB-24
  6
CONTINUOUS
 62
     6
 10
134.42309110139999
 20
126.93447451279999
 30
0.0
  0
VERTEX
  5
70C
  8
CURB-24
  6
CONTINUOUS
 62
     6
 10
134.38734822820001
 20
126.95527919040001
 30
0.0
  0
VERTEX
  5
70D
  8
CURB-24
  6
CONTINUOUS
 62
     6
 10
134.3506399206
 20
126.9743827601
 30
0.0
  0
VERTEX
  5
70E
  8
CURB-24
  6
CONTINUOUS
 62
     6
 10
134.31304688930001
 20
126.99173930000001
 30
0.0
  0
VERTEX
  5
70F
  8
CURB-24
  6
CONTINUOUS
 62
     6
 10
134.274652062
 20
127.0073067263
 30
0.0
  0
VERTEX
  5
710
  8
CURB-24
  6
CONTINUOUS
 62
     6
 10
134.23554039929999
 20
127.0210468984
 30
0.0
  0
VERTEX
  5
711
  8
CURB-24
  6
CONTINUOUS
 62
     6
 10
134.19579870659999
 20
127.0329257164
 30
0.0
  0
VERTEX
  5
712
  8
CURB-24
  6
CONTINUOUS
 62
     6
 10
134.15551544140001
 20
127.0429132089
 30
0.0
  0
VERTEX
  5
713
  8
CURB-24
  6
CONTINUOUS
 62
     6
 10
134.1147805153
 20
127.050983612
 30
0.0
  0
VERTEX
  5
714
  8
CURB-24
  6
CONTINUOUS
 62
     6
 10
134.07368509419999
 20
127.0571154384
 30
0.0
  0
VERTEX
  5
715
  8
CURB-24
  6
CONTINUOUS
 62
     6
 10
134.03232139389999
 20
127.0612915377
 30
0.0
  0
VERTEX
  5
716
  8
CURB-24
  6
CONTINUOUS
 62
     6
 10
133.9907824732
 20
127.063499146
 30
0.0
  0
VERTEX
  5
717
  8
CURB-24
  6
CONTINUOUS
 62
     6
 10
133.96997430830001
 20
127.0638619994
 30
0.0
  0
VERTEX
  5
718
  8
CURB-24
  6
CONTINUOUS
 62
     6
 10
133.94916202549999
 20
127.0637299263
 30
0.0
  0
VERTEX
  5
719
  8
CURB-24
  6
CONTINUOUS
 62
     6
 10
133.90759571449999
 20
127.0619827366
 30
0.0
  0
VERTEX
  5
71A
  8
CURB-24
  6
CONTINUOUS
 62
     6
 10
133.8661829431
 20
127.05826473
 30
0.0
  0
VERTEX
  5
71B
  8
CURB-24
  6
CONTINUOUS
 62
     6
 10
133.82501703969999
 20
127.0525876753
 30
0.0
  0
VERTEX
  5
71C
  8
CURB-24
  6
CONTINUOUS
 62
     6
 10
133.7841905338
 20
127.044967758
 30
0.0
  0
VERTEX
  5
71D
  8
CURB-24
  6
CONTINUOUS
 62
     6
 10
133.74379494620001
 20
127.0354255323
 30
0.0
  0
VERTEX
  5
71E
  8
CURB-24
  6
CONTINUOUS
 62
     6
 10
133.70392058269999
 20
127.02398586309999
 30
0.0
  0
VERTEX
  5
71F
  8
CURB-24
  6
CONTINUOUS
 62
     6
 10
133.66465633109999
 20
127.01067785799999
 30
0.0
  0
VERTEX
  5
720
  8
CURB-24
  6
CONTINUOUS
 62
     6
 10
133.62608946079999
 20
126.9955347905
 30
0.0
  0
VERTEX
  5
721
  8
CURB-24
  6
CONTINUOUS
 62
     6
 10
133.58830542730001
 20
126.97859401309999
 30
0.0
  0
VERTEX
  5
722
  8
CURB-24
  6
CONTINUOUS
 62
     6
 10
133.55138768079999
 20
126.9598968616
 30
0.0
  0
VERTEX
  5
723
  8
CURB-24
  6
CONTINUOUS
 62
     6
 10
133.51541747959999
 20
126.9394885506
 30
0.0
  0
VERTEX
  5
724
  8
CURB-24
  6
CONTINUOUS
 62
     6
 10
133.48047370899999
 20
126.91741806020001
 30
0.0
  0
VERTEX
  5
725
  8
CURB-24
  6
CONTINUOUS
 62
     6
 10
133.4466327053
 20
126.89373801470001
 30
0.0
  0
VERTEX
  5
726
  8
CURB-24
  6
CONTINUOUS
 62
     6
 10
133.41396808670001
 20
126.8685045524
 30
0.0
  0
VERTEX
  5
727
  8
CURB-24
  6
CONTINUOUS
 62
     6
 10
133.38255058940001
 20
126.84177718869999
 30
0.0
  0
VERTEX
  5
728
  8
CURB-24
  6
CONTINUOUS
 62
     6
 10
133.35244791150001
 20
126.8136186711
 30
0.0
  0
VERTEX
  5
729
  8
CURB-24
  6
CONTINUOUS
 62
     6
 10
133.3237245629
 20
126.7840948275
 30
0.0
  0
VERTEX
  5
72A
  8
CURB-24
  6
CONTINUOUS
 62
     6
 10
133.29644172319999
 20
126.7532744073
 30
0.0
  0
VERTEX
  5
72B
  8
CURB-24
  6
CONTINUOUS
 62
     6
 10
133.2706571068
 20
126.7212289167
 30
0.0
  0
VERTEX
  5
72C
  8
CURB-24
  6
CONTINUOUS
 62
     6
 10
133.24642483549999
 20
126.68803244759999
 30
0.0
  0
VERTEX
  5
72D
  8
CURB-24
  6
CONTINUOUS
 62
     6
 10
133.22379531959999
 20
126.6537615013
 30
0.0
  0
VERTEX
  5
72E
  8
CURB-24
  6
CONTINUOUS
 62
     6
 10
133.20281514659999
 20
126.6184948067
 30
0.0
  0
VERTEX
  5
72F
  8
CURB-24
  6
CONTINUOUS
 62
     6
 10
133.18352697890001
 20
126.58231313340001
 30
0.0
  0
VERTEX
  5
730
  8
CURB-24
  6
CONTINUOUS
 62
     6
 10
133.1659694587
 20
126.54529910159999
 30
0.0
  0
VERTEX
  5
731
  8
CURB-24
  6
CONTINUOUS
 62
     6
 10
133.1501771227
 20
126.50753698680001
 30
0.0
  0
VERTEX
  5
732
  8
CURB-24
  6
CONTINUOUS
 62
     6
 10
133.13618032470001
 20
126.4691125211
 30
0.0
  0
VERTEX
  5
733
  8
CURB-24
  6
CONTINUOUS
 62
     6
 10
133.12400516650001
 20
126.43011269260001
 30
0.0
  0
VERTEX
  5
734
  8
CURB-24
  6
CONTINUOUS
 62
     6
 10
133.11367343789999
 20
126.39062554039999
 30
0.0
  0
VERTEX
  5
735
  8
CURB-24
  6
CONTINUOUS
 62
     6
 10
133.1052025649
 20
126.3507399483
 30
0.0
  0
VERTEX
  5
736
  8
CURB-24
  6
CONTINUOUS
 62
     6
 10
133.0986055656
 20
126.3105454368
 30
0.0
  0
VERTEX
  5
737
  8
CURB-24
  6
CONTINUOUS
 62
     6
 10
133.09389101549999
 20
126.2701319529
 30
0.0
  0
VERTEX
  5
738
  8
CURB-24
  6
CONTINUOUS
 62
     6
 10
133.0910630189
 20
126.2295896593
 30
0.0
  0
VERTEX
  5
739
  8
CURB-24
  6
CONTINUOUS
 62
     6
 10
133.0901211897
 20
126.1890087229
 30
0.0
  0
VERTEX
  5
73A
  8
CURB-24
  6
CONTINUOUS
 62
     6
 10
133.0906478894
 20
126.1586579977
 30
0.0
  0
VERTEX
  5
73B
  8
CURB-24
  6
CONTINUOUS
 62
     6
 10
133.0930068145
 20
126.1180158985
 30
0.0
  0
VERTEX
  5
73C
  8
CURB-24
  6
CONTINUOUS
 62
     6
 10
133.0972592771999
 20
126.0774878207
 30
0.0
  0
VERTEX
  5
73D
  8
CURB-24
  6
CONTINUOUS
 62
     6
 10
133.10340135359999
 20
126.03716373899999
 30
0.0
  0
VERTEX
  5
73E
  8
CURB-24
  6
CONTINUOUS
 62
     6
 10
133.11142472029999
 20
125.9971334482
 30
0.0
  0
VERTEX
  5
73F
  8
CURB-24
  6
CONTINUOUS
 62
     6
 10
133.12131667400001
 20
125.95748635299999
 30
0.0
  0
VERTEX
  5
740
  8
CURB-24
  6
CONTINUOUS
 62
     6
 10
133.1330601597999
 20
125.91831125989999
 30
0.0
  0
VERTEX
  5
741
  8
CURB-24
  6
CONTINUOUS
 62
     6
 10
133.1466338077
 20
125.8796961697
 30
0.0
  0
VERTEX
  5
742
  8
CURB-24
  6
CONTINUOUS
 62
     6
 10
133.1620119788
 20
125.8417280728
 30
0.0
  0
VERTEX
  5
743
  8
CURB-24
  6
CONTINUOUS
 62
     6
 10
133.1791648199
 20
125.80449274519999
 30
0.0
  0
VERTEX
  5
744
  8
CURB-24
  6
CONTINUOUS
 62
     6
 10
133.19805832649999
 20
125.7680745486
 30
0.0
  0
VERTEX
  5
745
  8
CURB-24
  6
CONTINUOUS
 62
     6
 10
133.21865441590001
 20
125.7325562324
 30
0.0
  0
VERTEX
  5
746
  8
CURB-24
  6
CONTINUOUS
 62
     6
 10
133.2409110081
 20
125.69801873980001
 30
0.0
  0
VERTEX
  5
747
  8
CURB-24
  6
CONTINUOUS
 62
     6
 10
133.2647821155
 20
125.6645410173
 30
0.0
  0
VERTEX
  5
748
  8
CURB-24
  6
CONTINUOUS
 62
     6
 10
133.29021794190001
 20
125.6321998289
 30
0.0
  0
VERTEX
  5
749
  8
CURB-24
  6
CONTINUOUS
 62
     6
 10
133.31716498879999
 20
125.6010695743
 30
0.0
  0
VERTEX
  5
74A
  8
CURB-24
  6
CONTINUOUS
 62
     6
 10
133.3455661715
 20
125.5712221129
 30
0.0
  0
VERTEX
  5
74B
  8
CURB-24
  6
CONTINUOUS
 62
     6
 10
133.37536094180001
 20
125.5427265931
 30
0.0
  0
VERTEX
  5
74C
  8
CURB-24
  6
CONTINUOUS
 62
     6
 10
133.4064854193
 20
125.51564928649999
 30
0.0
  0
VERTEX
  5
74D
  8
CURB-24
  6
CONTINUOUS
 62
     6
 10
133.43887253060001
 20
125.49005343020001
 30
0.0
  0
VERTEX
  5
74E
  8
CURB-24
  6
CONTINUOUS
 62
     6
 10
133.47245215500001
 20
125.4659990734
 30
0.0
  0
VERTEX
  5
74F
  8
CURB-24
  6
CONTINUOUS
 62
     6
 10
133.50715127800001
 20
125.44354293310001
 30
0.0
  0
VERTEX
  5
750
  8
CURB-24
  6
CONTINUOUS
 62
     6
 10
133.54289415119999
 20
125.42273825549999
 30
0.0
  0
VERTEX
  5
751
  8
CURB-24
  6
CONTINUOUS
 62
     6
 10
133.5796024588
 20
125.4036346858
 30
0.0
  0
VERTEX
  5
752
  8
CURB-24
  6
CONTINUOUS
 62
     6
 10
133.61719549
 20
125.38627814580001
 30
0.0
  0
VERTEX
  5
753
  8
CURB-24
  6
CONTINUOUS
 62
     6
 10
133.6555903174
 20
125.3707107195999
 30
0.0
  0
VERTEX
  5
754
  8
CURB-24
  6
CONTINUOUS
 62
     6
 10
133.69470198010001
 20
125.3569705475
 30
0.0
  0
VERTEX
  5
755
  8
CURB-24
  6
CONTINUOUS
 62
     6
 10
133.7344436727
 20
125.3450917295
 30
0.0
  0
VERTEX
  5
756
  8
CURB-24
  6
CONTINUOUS
 62
     6
 10
133.77472693799999
 20
125.335104237
 30
0.0
  0
VERTEX
  5
757
  8
CURB-24
  6
CONTINUOUS
 62
     6
 10
133.81546186400001
 20
125.3270338339
 30
0.0
  0
VERTEX
  5
758
  8
CURB-24
  6
CONTINUOUS
 62
     6
 10
133.8565572851
 20
125.32090200739999
 30
0.0
  0
VERTEX
  5
759
  8
CURB-24
  6
CONTINUOUS
 62
     6
 10
133.89792098549989
 20
125.3167259081
 30
0.0
  0
VERTEX
  5
75A
  8
CURB-24
  6
CONTINUOUS
 62
     6
 10
133.93945990610001
 20
125.3145182998
 30
0.0
  0
VERTEX
  5
75B
  8
CURB-24
  6
CONTINUOUS
 62
     6
 10
133.960268071
 20
125.31415544639999
 30
0.0
  0
VERTEX
  5
75C
  8
CURB-24
  6
CONTINUOUS
 62
     6
 10
133.98108035390001
 20
125.3142875196
 30
0.0
  0
VERTEX
  5
75D
  8
CURB-24
  6
CONTINUOUS
 62
     6
 10
134.02264666490001
 20
125.3160347092
 30
0.0
  0
VERTEX
  5
75E
  8
CURB-24
  6
CONTINUOUS
 62
     6
 10
134.0640594363
 20
125.31975271580001
 30
0.0
  0
VERTEX
  5
75F
  8
CURB-24
  6
CONTINUOUS
 62
     6
 10
134.1052253396
 20
125.3254297706
 30
0.0
  0
VERTEX
  5
760
  8
CURB-24
  6
CONTINUOUS
 62
     6
 10
134.14605184550001
 20
125.3330496879
 30
0.0
  0
VERTEX
  5
761
  8
CURB-24
  6
CONTINUOUS
 62
     6
 10
134.18644743319999
 20
125.3425919136
 30
0.0
  0
VERTEX
  5
762
  8
CURB-24
  6
CONTINUOUS
 62
     6
 10
134.22632179659999
 20
125.3540315828
 30
0.0
  0
VERTEX
  5
763
  8
CURB-24
  6
CONTINUOUS
 62
     6
 10
134.26558604830001
 20
125.36733958790001
 30
0.0
  0
VERTEX
  5
764
  8
CURB-24
  6
CONTINUOUS
 62
     6
 10
134.30415291860001
 20
125.3824826553
 30
0.0
  0
VERTEX
  5
765
  8
CURB-24
  6
CONTINUOUS
 62
     6
 10
134.34193695210001
 20
125.39942343280001
 30
0.0
  0
VERTEX
  5
766
  8
CURB-24
  6
CONTINUOUS
 62
     6
 10
134.37885469860001
 20
125.4181205843
 30
0.0
  0
VERTEX
  5
767
  8
CURB-24
  6
CONTINUOUS
 62
     6
 10
134.41482489969999
 20
125.4385288953
 30
0.0
  0
VERTEX
  5
768
  8
CURB-24
  6
CONTINUOUS
 62
     6
 10
134.4497686704
 20
125.46059938560001
 30
0.0
  0
VERTEX
  5
769
  8
CURB-24
  6
CONTINUOUS
 62
     6
 10
134.48360967400001
 20
125.48427943119999
 30
0.0
  0
VERTEX
  5
76A
  8
CURB-24
  6
CONTINUOUS
 62
     6
 10
134.5162742926
 20
125.5095128935
 30
0.0
  0
VERTEX
  5
76B
  8
CURB-24
  6
CONTINUOUS
 62
     6
 10
134.5476917899
 20
125.53624025720001
 30
0.0
  0
VERTEX
  5
76C
  8
CURB-24
  6
CONTINUOUS
 62
     6
 10
134.57779446789999
 20
125.5643987747
 30
0.0
  0
VERTEX
  5
76D
  8
CURB-24
  6
CONTINUOUS
 62
     6
 10
134.6065178165
 20
125.5939226184
 30
0.0
  0
VERTEX
  5
76E
  8
CURB-24
  6
CONTINUOUS
 62
     6
 10
134.63380065609999
 20
125.6247430386
 30
0.0
  0
VERTEX
  5
76F
  8
CURB-24
  6
CONTINUOUS
 62
     6
 10
134.6595852726
 20
125.6567885292
 30
0.0
  0
VERTEX
  5
770
  8
CURB-24
  6
CONTINUOUS
 62
     6
 10
134.68381754390001
 20
125.68998499830001
 30
0.0
  0
VERTEX
  5
771
  8
CURB-24
  6
CONTINUOUS
 62
     6
 10
134.70644705980001
 20
125.7242559445
 30
0.0
  0
VERTEX
  5
772
  8
CURB-24
  6
CONTINUOUS
 62
     6
 10
134.72742723269999
 20
125.7595226392
 30
0.0
  0
VERTEX
  5
773
  8
CURB-24
  6
CONTINUOUS
 62
     6
 10
134.74671540049999
 20
125.79570431250001
 30
0.0
  0
VERTEX
  5
774
  8
CURB-24
  6
CONTINUOUS
 62
     6
 10
134.76427292069999
 20
125.8327183442
 30
0.0
  0
VERTEX
  5
775
  8
CURB-24
  6
CONTINUOUS
 62
     6
 10
134.7800652567
 20
125.87048045909999
 30
0.0
  0
VERTEX
  5
776
  8
CURB-24
  6
CONTINUOUS
 62
     6
 10
134.79406205469999
 20
125.9089049247
 30
0.0
  0
VERTEX
  5
777
  8
CURB-24
  6
CONTINUOUS
 62
     6
 10
134.80623721289999
 20
125.94790475329999
 30
0.0
  0
VERTEX
  5
778
  8
CURB-24
  6
CONTINUOUS
 62
     6
 10
134.81656894139999
 20
125.9873919055
 30
0.0
  0
VERTEX
  5
779
  8
CURB-24
  6
CONTINUOUS
 62
     6
 10
134.8250398145
 20
126.02727749749999
 30
0.0
  0
VERTEX
  5
77A
  8
CURB-24
  6
CONTINUOUS
 62
     6
 10
134.83163681369999
 20
126.067472009
 30
0.0
  0
VERTEX
  5
77B
  8
CURB-24
  6
CONTINUOUS
 62
     6
 10
134.83635136390001
 20
126.1078854929
 30
0.0
  0
VERTEX
  5
77C
  8
CURB-24
  6
CONTINUOUS
 62
     6
 10
134.83917936040001
 20
126.14842778649999
 30
0.0
  0
VERTEX
  5
77D
  8
CURB-24
  6
CONTINUOUS
 62
     6
 10
134.8401211897
 20
126.1890087229
 30
0.0
  0
SEQEND
  5
77E
  8
CURB-24
  6
CONTINUOUS
 62
     6
  0
LINE
  5
43E
  8
CURB-14
  6
CONTINUOUS
 62
     6
 10
137.5276211897
 20
125.1266705468
 30
0.0
 11
137.5276211897
 21
93.631449111299986
 31
0.0
  0
LINE
  5
43F
  8
CURB-24
  6
CONTINUOUS
 62
     6
 10
137.5276211897
 20
125.1266705468
 30
0.0
 11
137.5276211897
 21
93.631449111299986
 31
0.0
  0
LINE
  5
440
  8
UNTDUCTDIM
  6
CONTINUOUS
 62
     2
 10
154.2776211897
 20
154.13046158680001
 30
0.0
 11
156.1526211897
 21
154.44291399150001
 31
0.0
  0
LINE
  5
441
  8
CURBDUCTDIM
  6
CONTINUOUS
 62
     5
 10
180.93080018969999
 20
141.68666703599999
 30
0.0
 11
181.55580018969999
 21
141.68666703599999
 31
0.0
  0
LINE
  5
442
  8
CURB-14
  6
CONTINUOUS
 62
     6
 10
78.7776211897
 20
143.5613814644
 30
0.0
 11
157.0276211897
 21
143.5613814644
 31
0.0
  0
LINE
  5
443
  8
CURB-24
  6
CONTINUOUS
 62
     6
 10
78.7776211897
 20
143.5613814644
 30
0.0
 11
157.0276211897
 21
143.5613814644
 31
0.0
  0
LINE
  5
444
  8
CURB-DUCT
  6
CONTINUOUS
 62
     5
 10
116.2801211897
 20
143.5613814644
 30
0.0
 11
156.4651211897
 21
143.5613814644
 31
0.0
  0
LINE
  5
445
  8
CURBDUCTDIM
  6
CONTINUOUS
 62
     5
 10
157.7151211897
 20
143.5613814644
 30
0.0
 11
182.49330018969999
 21
143.5613814644
 31
0.0
  0
LINE
  5
446
  8
CURB-14-DIM
  6
CONTINUOUS
 62
     6
 10
59.1041051897
 20
143.8738814644
 30
0.0
 11
59.7291051897
 21
143.8738814644
 31
0.0
  0
LINE
  5
447
  8
CURB-24-DIM
  6
CONTINUOUS
 62
     6
 10
59.1041051897
 20
143.8738814644
 30
0.0
 11
59.7291051897
 21
143.8738814644
 31
0.0
  0
LINE
  5
448
  8
CURB-14
  6
CONTINUOUS
 62
     6
 10
158.7776211897
 20
145.37359589280001
 30
0.0
 11
77.027621189699985
 21
145.37359589280001
 31
0.0
  0
LINE
  5
449
  8
CURB-24
  6
CONTINUOUS
 62
     6
 10
158.7776211897
 20
145.37359589280001
 30
0.0
 11
77.027621189699985
 21
145.37359589280001
 31
0.0
  0
LINE
  5
44A
  8
CURB-14-DIM
  6
CONTINUOUS
 62
     6
 10
75.0276211897
 20
145.74859589280001
 30
0.0
 11
58.1666051897
 21
145.74859589280001
 31
0.0
  0
LINE
  5
44B
  8
CURB-24-DIM
  6
CONTINUOUS
 62
     6
 10
75.0276211897
 20
145.74859589280001
 30
0.0
 11
58.1666051897
 21
145.74859589280001
 31
0.0
  0
LINE
  5
44C
  8
UNIT-DIM
  6
CONTINUOUS
 62
     7
 10
46.073444189699998
 20
146.50359589280001
 30
0.0
 11
46.698444189699998
 21
146.50359589280001
 31
0.0
  0
POLYLINE
  5
44D
  8
UNIT-SOL
  6
CONTINUOUS
 62
     7
 66
     1
 10
0.0
 20
0.0
 30
0.0
 40
0.15
 41
0.15
  0
VERTEX
  5
77F
  8
UNIT-SOL
  6
CONTINUOUS
 62
     7
 10
159.2776211897
 20
148.37831032119999
 30
0.0
  0
VERTEX
  5
780
  8
UNIT-SOL
  6
CONTINUOUS
 62
     7
 10
71.1526211897
 20
148.37831032119999
 30
0.0
  0
SEQEND
  5
781
  8
UNIT-SOL
  6
CONTINUOUS
 62
     7
  0
LINE
  5
451
  8
UNIT-DIM
  6
CONTINUOUS
 62
     7
 10
69.9026211897
 20
148.37831032119999
 30
0.0
 11
45.135944189699998
 21
148.37831032119999
 31
0.0
  0
LINE
  5
452
  8
CURB-14-DIM
  6
CONTINUOUS
 62
     6
 10
59.833272189699997
 20
150.81542955910001
 30
0.0
 11
58.999939189700001
 21
150.81542955910001
 31
0.0
  0
LINE
  5
453
  8
CURB-24-DIM
  6
CONTINUOUS
 62
     6
 10
59.833272189699997
 20
150.81542955910001
 30
0.0
 11
58.999939189700001
 21
150.81542955910001
 31
0.0
  0
LINE
  5
454
  8
UNIT-DUCTS
  6
CONTINUOUS
 62
     2
 10
119.7776211897
 20
141.6241575169
 30
0.0
 11
156.1526211897
 21
129.00108036559999
 31
0.0
  0
LINE
  5
455
  8
CURB-DUCT
  6
CONTINUOUS
 62
     5
 10
116.2801211897
 20
143.5613814644
 30
0.0
 11
156.4651211897
 21
128.12621363229999
 31
0.0
  0
LINE
  5
456
  8
UNTDUCTDIM
  6
CONTINUOUS
 62
     2
 10
140.2776211897
 20
85.1726728342
 30
0.0
 11
140.2776211897
 21
84.547768024700005
 31
0.0
  0
LINE
  5
457
  8
CURB-DUCT
  6
CONTINUOUS
 62
     5
 10
140.5276211897
 20
125.1266705468
 30
0.0
 11
140.5276211897
 21
93.631449111299986
 31
0.0
  0
LINE
  5
458
  8
CURB-14
  6
CONTINUOUS
 62
     6
 10
140.5276211897
 20
125.1266705468
 30
0.0
 11
140.5276211897
 21
93.631449111299986
 31
0.0
  0
LINE
  5
459
  8
CURB-24
  6
CONTINUOUS
 62
     6
 10
140.5276211897
 20
125.1266705468
 30
0.0
 11
140.5276211897
 21
93.631449111299986
 31
0.0
  0
LINE
  5
45A
  8
CURBDUCTDIM
  6
CONTINUOUS
 62
     5
 10
140.5276211897
 20
91.936639492299975
 30
0.0
 11
140.5276211897
 21
85.627177600300001
 31
0.0
  0
LINE
  5
45B
  8
CURBDUCTDIM
  6
CONTINUOUS
 62
     5
 10
140.5276211897
 20
84.093263258500016
 30
0.0
 11
140.5276211897
 21
75.804846816800008
 31
0.0
  0
LINE
  5
45C
  8
UNTDUCTDIM
  6
CONTINUOUS
 62
     2
 10
142.1526211897
 20
93.061468149399985
 30
0.0
 11
142.1526211897
 21
83.610410810499999
 31
0.0
  0
LINE
  5
45D
  8
UNIT-DUCTS
  6
CONTINUOUS
 62
     2
 10
142.1526211897
 20
94.881277768299995
 30
0.0
 11
142.1526211897
 21
123.6268990041
 31
0.0
  0
LINE
  5
45E
  8
CURBDUCTDIM
  6
CONTINUOUS
 62
     5
 10
142.4026211897
 20
77.367108840499995
 30
0.0
 11
142.4026211897
 21
76.742204031
 31
0.0
  0
LINE
  5
45F
  8
UNIT-DUCTS
  6
CONTINUOUS
 62
     2
 10
156.1526211897
 20
123.6268990041
 30
0.0
 11
142.1526211897
 21
94.881277768299995
 31
0.0
  0
LINE
  5
460
  8
CURB-DUCT
  6
CONTINUOUS
 62
     5
 10
156.4651211897
 20
125.1266705468
 30
0.0
 11
140.5276211897
 21
93.631449111299986
 31
0.0
  0
LINE
  5
461
  8
UNTDUCTDIM
  6
CONTINUOUS
 62
     2
 10
119.7776211897
 20
155.0129139915
 30
0.0
 11
121.6526211897
 21
155.3253663962
 31
0.0
  0
LINE
  5
462
  8
CURBDUCTDIM
  6
CONTINUOUS
 62
     5
 10
159.2776211897
 20
162.01256292170001
 30
0.0
 11
161.7776211897
 21
162.42916646130001
 31
0.0
  0
LINE
  5
463
  8
CURBDUCTDIM
  6
CONTINUOUS
 62
     5
 10
154.5901211897
 20
161.7001105169
 30
0.0
 11
156.4651211897
 21
162.01256292170001
 31
0.0
  0
LINE
  5
464
  8
CURBDUCTDIM
  6
CONTINUOUS
 62
     5
 10
116.2801211897
 20
162.01256292170001
 30
0.0
 11
118.1551211897
 21
162.32501532640001
 31
0.0
  0
LINE
  5
465
  8
CURB-14-DIM
  6
CONTINUOUS
 62
     6
 10
59.4166051897
 20
153.87792955910001
 30
0.0
 11
56.9166051897
 21
153.87792955910001
 31
0.0
  0
LINE
  5
466
  8
CURB-24-DIM
  6
CONTINUOUS
 62
     6
 10
59.4166051897
 20
153.87792955910001
 30
0.0
 11
56.9166051897
 21
153.87792955910001
 31
0.0
  0
LINE
  5
467
  8
UNTDUCTDIM
  6
CONTINUOUS
 62
     2
 10
154.2776211897
 20
154.50541399150001
 30
0.0
 11
146.92345418970001
 21
154.50541399150001
 31
0.0
  0
LINE
  5
468
  8
UNTDUCTDIM
  6
CONTINUOUS
 62
     2
 10
119.7776211897
 20
155.0754139915
 30
0.0
 11
129.00678818969999
 21
155.0754139915
 31
0.0
  0
LINE
  5
469
  8
UNTDUCTDIM
  6
CONTINUOUS
 62
     2
 10
121.6526211897
 20
154.7004615868
 30
0.0
 11
119.7776211897
 21
155.0129139915
 31
0.0
  0
LINE
  5
46A
  8
CURB-DUCT
  6
CONTINUOUS
 62
     5
 10
140.5276211897
 20
125.1266705468
 30
0.0
 11
156.4651211897
 21
93.631449111299986
 31
0.0
  0
LINE
  5
46B
  8
UNIT-DUCTS
  6
CONTINUOUS
 62
     2
 10
142.1526211897
 20
123.6268990041
 30
0.0
 11
156.1526211897
 21
94.881277768299995
 31
0.0
  0
LINE
  5
46C
  8
UNTDUCTDIM
  6
CONTINUOUS
 62
     2
 10
154.2776211897
 20
154.7553663962
 30
0.0
 11
154.2776211897
 21
154.13046158680001
 31
0.0
  0
LINE
  5
46D
  8
CURBDUCTDIM
  6
CONTINUOUS
 62
     5
 10
154.5901211897
 20
162.32501532640001
 30
0.0
 11
154.5901211897
 21
161.7001105169
 31
0.0
  0
LINE
  5
46E
  8
CURBDUCTDIM
  6
CONTINUOUS
 62
     5
 10
154.5901211897
 20
77.367108840499995
 30
0.0
 11
154.5901211897
 21
76.742204031
 31
0.0
  0
POLYLINE
  5
46F
  8
HOOD
  6
CONTINUOUS
 62
     7
 66
     1
 10
0.0
 20
0.0
 30
0.0
 40
0.15
 41
0.15
  0
VERTEX
  5
782
  8
HOOD
  6
CONTINUOUS
 62
     7
 10
155.7151211897
 20
148.37831032119999
 30
0.0
  0
VERTEX
  5
783
  8
HOOD
  6
CONTINUOUS
 62
     7
 10
155.7151211897
 20
169.13058787209999
 30
0.0
  0
SEQEND
  5
784
  8
HOOD
  6
CONTINUOUS
 62
     7
  0
LINE
  5
473
  8
UNIT-DUCTS
  6
CONTINUOUS
 62
     2
 10
156.1526211897
 20
141.6241575169
 30
0.0
 11
156.1526211897
 21
129.00108036559999
 31
0.0
  0
LINE
  5
474
  8
UNIT-DUCTS
  6
CONTINUOUS
 62
     2
 10
156.1526211897
 20
123.6268990041
 30
0.0
 11
156.1526211897
 21
94.881277768299995
 31
0.0
  0
LINE
  5
475
  8
UNTDUCTDIM
  6
CONTINUOUS
 62
     2
 10
156.1526211897
 20
93.061468149399985
 30
0.0
 11
156.1526211897
 21
83.610410810499999
 31
0.0
  0
LINE
  5
476
  8
UNTDUCTDIM
  6
CONTINUOUS
 62
     2
 10
156.1526211897
 20
142.87396713589999
 30
0.0
 11
156.1526211897
 21
156.3252236104
 31
0.0
  0
LINE
  5
477
  8
CURB-DUCT
  6
CONTINUOUS
 62
     5
 10
156.4651211897
 20
143.5613814644
 30
0.0
 11
156.4651211897
 21
128.12621363229999
 31
0.0
  0
LINE
  5
478
  8
CURBDUCTDIM
  6
CONTINUOUS
 62
     5
 10
156.4651211897
 20
92.374072858999995
 30
0.0
 11
156.4651211897
 21
85.418714355100008
 31
0.0
  0
LINE
  5
479
  8
CURBDUCTDIM
  6
CONTINUOUS
 62
     5
 10
156.4651211897
 20
84.301726503699996
 30
0.0
 11
156.4651211897
 21
75.804846816800008
 31
0.0
  0
LINE
  5
47A
  8
CURB-DUCT
  6
CONTINUOUS
 62
     5
 10
156.4651211897
 20
93.631449111299986
 30
0.0
 11
156.4651211897
 21
125.1266705468
 31
0.0
  0
LINE
  5
47B
  8
CURBDUCTDIM
  6
CONTINUOUS
 62
     5
 10
156.4651211897
 20
143.67875771670001
 30
0.0
 11
156.4651211897
 21
163.32487254060001
 31
0.0
  0
LINE
  5
47C
  8
CURB-14-DIM
  6
CONTINUOUS
 62
     6
 10
156.9026211897
 20
71.043645081299999
 30
0.0
 11
156.9026211897
 21
70.418740271800004
 31
0.0
  0
LINE
  5
47D
  8
CURB-24-DIM
  6
CONTINUOUS
 62
     6
 10
156.9026211897
 20
71.043645081299999
 30
0.0
 11
156.9026211897
 21
70.418740271800004
 31
0.0
  0
LINE
  5
47E
  8
CURB-14
  6
CONTINUOUS
 62
     6
 10
157.0276211897
 20
143.5613814644
 30
0.0
 11
157.0276211897
 21
93.631449111299986
 31
0.0
  0
LINE
  5
47F
  8
CURB-24
  6
CONTINUOUS
 62
     6
 10
157.0276211897
 20
143.5613814644
 30
0.0
 11
157.0276211897
 21
93.631449111299986
 31
0.0
  0
LINE
  5
480
  8
UNIT-DIM
  6
CONTINUOUS
 62
     7
 10
157.4026211897
 20
179.744471167
 30
0.0
 11
159.2776211897
 21
180.0569235717
 31
0.0
  0
LINE
  5
481
  8
CURBDUCTDIM
  6
CONTINUOUS
 62
     5
 10
154.5901211897
 20
162.07506292170001
 30
0.0
 11
144.75678818969999
 21
162.07506292170001
 31
0.0
  0
LINE
  5
482
  8
CURBDUCTDIM
  6
CONTINUOUS
 62
     5
 10
116.2801211897
 20
162.07506292170001
 30
0.0
 11
128.54845418970001
 21
162.07506292170001
 31
0.0
  0
LINE
  5
483
  8
CURBDUCTDIM
  6
CONTINUOUS
 62
     5
 10
161.7776211897
 20
162.07506292170001
 30
0.0
 11
164.2776211897
 21
162.07506292170001
 31
0.0
  0
POLYLINE
  5
484
  8
HOOD
  6
CONTINUOUS
 62
     7
 66
     1
 10
0.0
 20
0.0
 30
0.0
 40
0.15
 41
0.15
  0
VERTEX
  5
785
  8
HOOD
  6
CONTINUOUS
 62
     7
 10
155.7151211897
 20
167.03824959389999
 30
0.0
  0
VERTEX
  5
786
  8
HOOD
  6
CONTINUOUS
 62
     7
 10
115.3401211897
 20
167.03824959389999
 30
0.0
  0
SEQEND
  5
787
  8
HOOD
  6
CONTINUOUS
 62
     7
  0
POLYLINE
  5
488
  8
HOOD
  6
CONTINUOUS
 62
     7
 66
     1
 10
0.0
 20
0.0
 30
0.0
 40
0.15
 41
0.15
  0
VERTEX
  5
788
  8
HOOD
  6
CONTINUOUS
 62
     7
 10
155.7151211897
 20
169.13058787209999
 30
0.0
  0
VERTEX
  5
789
  8
HOOD
  6
CONTINUOUS
 62
     7
 10
115.3401211897
 20
169.13058787209999
 30
0.0
  0
SEQEND
  5
78A
  8
HOOD
  6
CONTINUOUS
 62
     7
  0
LINE
  5
48C
  8
UNTDUCTDIM
  6
CONTINUOUS
 62
     2
 10
156.1526211897
 20
154.44291399150001
 30
0.0
 11
154.2776211897
 21
154.7553663962
 31
0.0
  0
LINE
  5
48D
  8
CURBDUCTDIM
  6
CONTINUOUS
 62
     5
 10
118.1551211897
 20
161.7001105169
 30
0.0
 11
116.2801211897
 21
162.01256292170001
 31
0.0
  0
LINE
  5
48E
  8
SERVCLRDIM
  6
CONTINUOUS
 62
     1
 10
25.0276211897
 20
179.744471167
 30
0.0
 11
23.1526211897
 21
180.0569235717
 31
0.0
  0
LINE
  5
48F
  8
UNIT-DIM
  6
CONTINUOUS
 62
     7
 10
157.4026211897
 20
180.36937597639999
 30
0.0
 11
157.4026211897
 21
179.744471167
 31
0.0
  0
LINE
  5
490
  8
UNTDUCTDIM
  6
CONTINUOUS
 62
     2
 10
158.0276211897
 20
85.1726728342
 30
0.0
 11
158.0276211897
 21
84.547768024700005
 31
0.0
  0
LINE
  5
491
  8
CURB-14
  6
CONTINUOUS
 62
     6
 10
158.7776211897
 20
145.37359589280001
 30
0.0
 11
158.7776211897
 21
91.881734682900003
 31
0.0
  0
LINE
  5
492
  8
CURB-24
  6
CONTINUOUS
 62
     6
 10
158.7776211897
 20
145.37359589280001
 30
0.0
 11
158.7776211897
 21
91.881734682900003
 31
0.0
  0
LINE
  5
493
  8
UNTDUCTDIM
  6
CONTINUOUS
 62
     6
 10
158.7776211897
 20
90.061925063899977
 30
0.0
 11
158.7776211897
 21
85.415840130899994
 31
0.0
  0
LINE
  5
494
  8
UNTDUCTDIM
  6
CONTINUOUS
 62
     6
 10
158.7776211897
 20
84.321940410500005
 30
0.0
 11
158.7776211897
 21
69.481383057599999
 31
0.0
  0
LINE
  5
495
  8
UNTDUCTDIM
  6
CONTINUOUS
 62
     1
 10
159.2776211897
 20
87.701497637800003
 30
0.0
 11
159.2776211897
 21
85.415840130899994
 31
0.0
  0
LINE
  5
496
  8
UNTDUCTDIM
  6
CONTINUOUS
 62
     1
 10
159.2776211897
 20
84.321940410500005
 30
0.0
 11
159.2776211897
 21
69.488811681100003
 31
0.0
  0
POLYLINE
  5
497
  8
UNIT-SOL
  6
CONTINUOUS
 62
     7
 66
     1
 10
0.0
 20
0.0
 30
0.0
 40
0.15
 41
0.15
  0
VERTEX
  5
78B
  8
UNIT-SOL
  6
CONTINUOUS
 62
     7
 10
159.2776211897
 20
88.874605925899999
 30
0.0
  0
VERTEX
  5
78C
  8
UNIT-SOL
  6
CONTINUOUS
 62
     7
 10
159.2776211897
 20
148.37831032119999
 30
0.0
  0
SEQEND
  5
78D
  8
UNIT-SOL
  6
CONTINUOUS
 62
     7
  0
LINE
  5
49B
  8
CURBDUCTDIM
  6
CONTINUOUS
 62
     5
 10
159.2776211897
 20
149.62811994020001
 30
0.0
 11
159.2776211897
 21
163.32487254060001
 31
0.0
  0
LINE
  5
49C
  8
UNIT-DIM
  6
CONTINUOUS
 62
     7
 10
159.2776211897
 20
149.62811994020001
 30
0.0
 11
159.2776211897
 21
181.36375021629999
 31
0.0
  0
LINE
  5
49D
  8
CURBDUCTDIM
  6
CONTINUOUS
 62
     5
 10
161.7776211897
 20
162.42916646130001
 30
0.0
 11
161.7776211897
 21
161.5959603819
 31
0.0
  0
LINE
  5
49E
  8
SERVCLRDIM
  6
CONTINUOUS
 62
     1
 10
161.7776211897
 20
71.147795882899999
 30
0.0
 11
161.7776211897
 21
70.314589470299993
 31
0.0
  0
LINE
  5
49F
  8
UNTDUCTDIM
  6
CONTINUOUS
 62
     2
 10
167.2001601897
 20
141.6241575169
 30
0.0
 11
166.8876601897
 21
139.74944308849999
 31
0.0
  0
LINE
  5
4A0
  8
UNTDUCTDIM
  6
CONTINUOUS
 62
     2
 10
167.5126601897
 20
130.875794794
 30
0.0
 11
167.2001601897
 21
129.00108036559999
 31
0.0
  0
LINE
  5
4A1
  8
UNTDUCTDIM
  6
CONTINUOUS
 62
     2
 10
167.2001601897
 20
123.6268990041
 30
0.0
 11
166.8876601897
 21
121.7521845757
 31
0.0
  0
LINE
  5
4A2
  8
SERVCLRDIM
  6
CONTINUOUS
 62
     1
 10
181.2651399431
 20
170.94267134910001
 30
0.0
 11
181.8901399431
 21
170.94267134910001
 31
0.0
  0
LINE
  5
4A3
  8
CURBDUCTDIM
  6
CONTINUOUS
 62
     5
 10
156.4651211897
 20
162.01256292170001
 30
0.0
 11
154.5901211897
 21
162.32501532640001
 31
0.0
  0
LINE
  5
4A4
  8
CURBDUCTDIM
  6
CONTINUOUS
 62
     5
 10
161.7776211897
 20
161.5959603819
 30
0.0
 11
159.2776211897
 21
162.01256292170001
 31
0.0
  0
LINE
  5
4A5
  8
UNIT-DIM
  6
CONTINUOUS
 62
     7
 10
73.0276211897
 20
179.744471167
 30
0.0
 11
71.1526211897
 21
180.0569235717
 31
0.0
  0
LINE
  5
4A6
  8
SERVCLRDIM
  6
CONTINUOUS
 62
     1
 10
71.1526211897
 20
180.0569235717
 30
0.0
 11
69.2776211897
 21
180.36937597639999
 31
0.0
  0
LINE
  5
4A7
  8
UNTDUCTDIM
  6
CONTINUOUS
 62
     2
 10
167.2001601897
 20
94.881277768299995
 30
0.0
 11
166.8876601897
 21
96.755992196800022
 31
0.0
  0
LINE
  5
4A8
  8
UNTDUCTDIM
  6
CONTINUOUS
 62
     2
 10
167.2001601897
 20
141.51082478070001
 30
0.0
 11
167.2001601897
 21
138.14833198260001
 31
0.0
  0
LINE
  5
4A9
  8
UNTDUCTDIM
  6
CONTINUOUS
 62
     2
 10
167.2001601897
 20
123.5135662678
 30
0.0
 11
167.2001601897
 21
112.8901845068
 31
0.0
  0
LINE
  5
4AA
  8
UNTDUCTDIM
  6
CONTINUOUS
 62
     2
 10
167.2001601897
 20
95.816589294199986
 30
0.0
 11
167.2001601897
 21
106.4399710552
 31
0.0
  0
LINE
  5
4AB
  8
UNTDUCTDIM
  6
CONTINUOUS
 62
     2
 10
167.2001601897
 20
129.93639189140001
 30
0.0
 11
167.2001601897
 21
131.69811953089999
 31
0.0
  0
LINE
  5
4AC
  8
UNTDUCTDIM
  6
CONTINUOUS
 62
     2
 10
167.5126601897
 20
96.755992196800022
 30
0.0
 11
167.2001601897
 21
94.881277768299995
 31
0.0
  0
LINE
  5
4AD
  8
SERVCLRDIM
  6
CONTINUOUS
 62
     1
 10
181.8901399431
 20
170.94267134910001
 30
0.0
 11
181.5776399431
 21
169.0679569207
 31
0.0
  0
LINE
  5
4AE
  8
CURBDUCTDIM
  6
CONTINUOUS
 62
     5
 10
181.24330018969999
 20
143.5613814644
 30
0.0
 11
180.93080018969999
 21
141.68666703599999
 31
0.0
  0
LINE
  5
4AF
  8
SERVCLRDIM
  6
CONTINUOUS
 62
     1
 10
69.2776211897
 20
179.744471167
 30
0.0
 11
71.1526211897
 21
180.0569235717
 31
0.0
  0
LINE
  5
4B0
  8
UNIT-DIM
  6
CONTINUOUS
 62
     7
 10
71.1526211897
 20
180.0569235717
 30
0.0
 11
73.0276211897
 21
180.36937597639999
 31
0.0
  0
LINE
  5
4B1
  8
UNIT-DIM
  6
CONTINUOUS
 62
     7
 10
157.4026211897
 20
180.11942357169991
 30
0.0
 11
110.8983560213
 21
180.11942357169991
 31
0.0
  0
LINE
  5
4B2
  8
SERVCLRDIM
  6
CONTINUOUS
 62
     1
 10
69.2776211897
 20
180.11942357169991
 30
0.0
 11
55.423454189700003
 21
180.11942357169991
 31
0.0
  0
LINE
  5
4B3
  8
SERVCLRDIM
  6
CONTINUOUS
 62
     1
 10
23.1526211897
 20
180.11942357169991
 30
0.0
 11
50.881788189700003
 21
180.11942357169991
 31
0.0
  0
LINE
  5
4B4
  8
UNIT-DIM
  6
CONTINUOUS
 62
     7
 10
72.2776211897
 20
180.11942357169991
 30
0.0
 11
93.610642892799987
 21
180.11942357169991
 31
0.0
  0
LINE
  5
4B5
  8
UNTDUCTDIM
  6
CONTINUOUS
 62
     2
 10
167.5126601897
 20
121.7521845757
 30
0.0
 11
167.2001601897
 21
123.6268990041
 31
0.0
  0
LINE
  5
4B6
  8
UNTDUCTDIM
  6
CONTINUOUS
 62
     2
 10
167.2001601897
 20
129.00108036559999
 30
0.0
 11
166.8876601897
 21
130.875794794
 31
0.0
  0
LINE
  5
4B7
  8
UNTDUCTDIM
  6
CONTINUOUS
 62
     2
 10
167.5126601897
 20
139.74944308849999
 30
0.0
 11
167.2001601897
 21
141.6241575169
 31
0.0
  0
LINE
  5
4B8
  8
CURBDUCTDIM
  6
CONTINUOUS
 62
     5
 10
181.24330018969999
 20
143.5613814644
 30
0.0
 11
181.24330018969999
 21
139.7174829569
 31
0.0
  0
LINE
  5
4B9
  8
CURBDUCTDIM
  6
CONTINUOUS
 62
     5
 10
181.24330018969999
 20
125.01333781060001
 30
0.0
 11
181.24330018969999
 21
118.13376476249999
 31
0.0
  0
LINE
  5
4BA
  8
CURBDUCTDIM
  6
CONTINUOUS
 62
     5
 10
181.24330018969999
 20
86.374986687999993
 30
0.0
 11
181.24330018969999
 21
83.875367450200002
 31
0.0
  0
LINE
  5
4BB
  8
CURBDUCTDIM
  6
CONTINUOUS
 62
     5
 10
181.24330018969999
 20
94.566760637099975
 30
0.0
 11
181.24330018969999
 21
111.1211189441
 31
0.0
  0
LINE
  5
4BC
  8
CURBDUCTDIM
  6
CONTINUOUS
 62
     5
 10
181.24330018969999
 20
129.06152515810001
 30
0.0
 11
181.24330018969999
 21
133.38469561799999
 31
0.0
  0
LINE
  5
4BD
  8
SERVCLRDIM
  6
CONTINUOUS
 62
     1
 10
181.5776399431
 20
169.1304569207
 30
0.0
 11
181.5776399431
 21
187.54516458419999
 31
0.0
  0
LINE
  5
4BE
  8
SERVCLRDIM
  6
CONTINUOUS
 62
     1
 10
181.5776399431
 20
194.0380595238
 30
0.0
 11
181.5776399431
 21
205.1304569207
 31
0.0
  0
LINE
  5
4BF
  8
CURBDUCTDIM
  6
CONTINUOUS
 62
     5
 10
181.55580018969999
 20
130.00092806070001
 30
0.0
 11
181.24330018969999
 21
128.12621363229999
 31
0.0
  0
LINE
  5
4C0
  8
CURBDUCTDIM
  6
CONTINUOUS
 62
     5
 10
181.24330018969999
 20
125.1266705468
 30
0.0
 11
180.93080018969999
 21
123.2519561184
 31
0.0
  0
LINE
  5
4C1
  8
CURBDUCTDIM
  6
CONTINUOUS
 62
     5
 10
187.13449845060001
 20
130.62583287019999
 30
0.0
 11
186.71783145059999
 21
128.12621363229999
 31
0.0
  0
LINE
  5
4C2
  8
CURBDUCTDIM
  6
CONTINUOUS
 62
     5
 10
181.55580018969999
 20
95.506163539699983
 30
0.0
 11
181.24330018969999
 21
93.631449111299986
 31
0.0
  0
LINE
  5
4C3
  8
CURBDUCTDIM
  6
CONTINUOUS
 62
     5
 10
186.71783145059999
 20
125.1266705468
 30
0.0
 11
186.3011644506
 21
122.62705130889999
 31
0.0
  0
LINE
  5
4C4
  8
CURBDUCTDIM
  6
CONTINUOUS
 62
     5
 10
181.24330018969999
 20
88.874605925899999
 30
0.0
 11
180.8266331897
 21
86.374986687999993
 31
0.0
  0
LINE
  5
4C5
  8
SERVCLRDIM
  6
CONTINUOUS
 62
     1
 10
23.1526211897
 20
180.0569235717
 30
0.0
 11
25.0276211897
 21
180.36937597639999
 31
0.0
  0
LINE
  5
4C6
  8
UNIT-DIM
  6
CONTINUOUS
 62
     7
 10
159.2776211897
 20
180.0569235717
 30
0.0
 11
157.4026211897
 21
180.36937597639999
 31
0.0
  0
LINE
  5
4C7
  8
CURBDUCTDIM
  6
CONTINUOUS
 62
     5
 10
181.65996618969999
 20
86.374986687999993
 30
0.0
 11
181.24330018969999
 21
88.874605925899999
 31
0.0
  0
LINE
  5
4C8
  8
CURBDUCTDIM
  6
CONTINUOUS
 62
     5
 10
181.24330018969999
 20
93.631449111299986
 30
0.0
 11
180.93080018969999
 21
95.506163539699983
 31
0.0
  0
LINE
  5
4C9
  8
CURBDUCTDIM
  6
CONTINUOUS
 62
     5
 10
181.55580018969999
 20
123.2519561184
 30
0.0
 11
181.24330018969999
 21
125.1266705468
 31
0.0
  0
LINE
  5
4CA
  8
CURBDUCTDIM
  6
CONTINUOUS
 62
     5
 10
181.24330018969999
 20
128.12621363229999
 30
0.0
 11
180.93080018969999
 21
130.00092806070001
 31
0.0
  0
LINE
  5
4CB
  8
CURBDUCTDIM
  6
CONTINUOUS
 62
     5
 10
186.71783145059999
 20
122.62705130889999
 30
0.0
 11
186.71783145059999
 21
120.127432071
 31
0.0
  0
LINE
  5
4CC
  8
CURBDUCTDIM
  6
CONTINUOUS
 62
     5
 10
186.71783145059999
 20
130.62583287019999
 30
0.0
 11
186.71783145059999
 21
133.12545210810001
 31
0.0
  0
LINE
  5
4CD
  8
SERVCLRDIM
  6
CONTINUOUS
 62
     1
 10
192.80244243280001
 20
71.147795882899999
 30
0.0
 11
192.80244243280001
 21
70.314589470299993
 31
0.0
  0
LINE
  5
4CE
  8
SERVCLEAR
  6
CENTER
 62
     1
 10
195.2440444243
 20
205.13058787209999
 30
0.0
 11
23.1526211897
 21
205.13058787209999
 31
0.0
  0
LINE
  5
4CF
  8
CURBDUCTDIM
  6
CONTINUOUS
 62
     5
 10
181.55580018969999
 20
141.68666703599999
 30
0.0
 11
181.24330018969999
 21
143.5613814644
 31
0.0
  0
LINE
  5
4D0
  8
CURBDUCTDIM
  6
CONTINUOUS
 62
     5
 10
187.13449845060001
 20
122.62705130889999
 30
0.0
 11
186.71783145059999
 21
125.1266705468
 31
0.0
  0
LINE
  5
4D1
  8
CURBDUCTDIM
  6
CONTINUOUS
 62
     5
 10
186.71783145059999
 20
128.12621363229999
 30
0.0
 11
186.3011644506
 21
130.62583287019999
 31
0.0
  0
LINE
  5
4D2
  8
SERVCLRDIM
  6
CONTINUOUS
 62
     1
 10
181.5776399431
 20
169.0679569207
 30
0.0
 11
181.2651399431
 21
170.94267134910001
 31
0.0
  0
LINE
  5
4D3
  8
SERVCLEAR
  6
CENTER
 62
     1
 10
195.30244243279989
 20
40.8819165584
 30
0.0
 11
195.2440444243
 21
205.13058787209999
 31
0.0
  0
LINE
  5
4D4
  8
0
  6
CONTINUOUS
 62
     7
 10
200.0
 20
0.0
 30
0.0
 11
200.0
 21
225.0
 31
0.0
  0
LINE
  5
4D5
  8
0
  6
CONTINUOUS
 62
     7
 10
0.0
 20
225.0
 30
0.0
 11
200.0
 21
225.0
 31
0.0
  0
CIRCLE
  5
4D6
  8
UNIT-SOL
  6
CONTINUOUS
 62
     7
 10
97.816860189699995
 20
134.62549102080001
 30
0.0
 40
9.0250037716999998
  0
CIRCLE
  5
4D7
  8
UNIT-SOL
  6
CONTINUOUS
 62
     7
 10
86.906942189700004
 20
112.81287502080001
 30
0.0
 40
9.0250037716999998
  0
CIRCLE
  5
4D8
  8
UNIT-SOL
  6
CONTINUOUS
 62
     7
 10
97.816860189699995
 20
134.62549102080001
 30
0.0
 40
6.780750617599999
  0
CIRCLE
  5
4D9
  8
UNIT-SOL
  6
CONTINUOUS
 62
     7
 10
86.906942189700004
 20
112.81287502080001
 30
0.0
 40
6.780750617599999
  0
CIRCLE
  5
4DA
  8
UNIT-SOL
  6
CONTINUOUS
 62
     7
 10
97.816860189699995
 20
134.62549102080001
 30
0.0
 40
4.8344807751000003
  0
CIRCLE
  5
4DB
  8
UNIT-SOL
  6
CONTINUOUS
 62
     7
 10
86.906942189700004
 20
112.81287502080001
 30
0.0
 40
4.8344807751000003
  0
CIRCLE
  5
4DC
  8
UNIT-SOL
  6
CONTINUOUS
 62
     7
 10
97.816860189699995
 20
134.62549102080001
 30
0.0
 40
2.9336660454999999
  0
CIRCLE
  5
4DD
  8
UNIT-SOL
  6
CONTINUOUS
 62
     7
 10
86.906942189700004
 20
112.81287502080001
 30
0.0
 40
2.9336660454999999
  0
ENDSEC
  0
EOF
