  0
SECTION
  2
HEADER
  9
$ACADVER
  1
AC1009
  9
$INSBASE
 10
0.0
 20
0.0
 30
0.0
  9
$EXTMIN
 10
-0.0061030499708181
 20
-0.004577287478071
 30
-0.0015258207003583
  9
$EXTMAX
 10
200.00610398129331
 20
150.00457798597
 30
0.0000000349246037
  9
$LIMMIN
 10
0.0
 20
0.0
  9
$LIMMAX
 10
200.0
 20
150.0
  9
$ORTHOMODE
 70
     0
  9
$REGENMODE
 70
     1
  9
$FILLMODE
 70
     1
  9
$QTEXTMODE
 70
     0
  9
$MIRRTEXT
 70
     0
  9
$DRAGMODE
 70
     2
  9
$LTSCALE
 40
11.0
  9
$OSMODE
 70
    37
  9
$ATTMODE
 70
     1
  9
$TEXTSIZE
 40
0.2
  9
$TRACEWID
 40
0.05
  9
$TEXTSTYLE
  7
STANDARD
  9
$CLAYER
  8
0
  9
$CELTYPE
  6
ByLayer
  9
$CECOLOR
 62
   256
  9
$DIMSCALE
 40
1.0
  9
$DIMASZ
 40
2.0
  9
$DIMEXO
 40
1.587499999999999
  9
$DIMDLI
 40
7.5999999999999988
  9
$DIMRND
 40
0.0
  9
$DIMDLE
 40
0.0
  9
$DIMEXE
 40
1.587499999999999
  9
$DIMTP
 40
0.0
  9
$DIMTM
 40
0.0
  9
$DIMTXT
 40
2.0
  9
$DIMCEN
 40
1.8
  9
$DIMTSZ
 40
0.0
  9
$DIMTOL
 70
     0
  9
$DIMLIM
 70
     0
  9
$DIMTIH
 70
     1
  9
$DIMTOH
 70
     1
  9
$DIMSE1
 70
     0
  9
$DIMSE2
 70
     0
  9
$DIMTAD
 70
     0
  9
$DIMZIN
 70
     0
  9
$DIMBLK
  1

  9
$DIMASO
 70
     1
  9
$DIMSHO
 70
     1
  9
$DIMPOST
  1

  9
$DIMAPOST
  1

  9
$DIMALT
 70
     0
  9
$DIMALTD
 70
     2
  9
$DIMALTF
 40
25.399999999999999
  9
$DIMLFAC
 40
1.0
  9
$DIMTOFL
 70
     0
  9
$DIMTVP
 40
0.0
  9
$DIMTIX
 70
     0
  9
$DIMSOXD
 70
     0
  9
$DIMSAH
 70
     0
  9
$DIMBLK1
  1

  9
$DIMBLK2
  1

  9
$DIMSTYLE
  2
STANDARD
  9
$DIMCLRD
 70
     0
  9
$DIMCLRE
 70
     0
  9
$DIMCLRT
 70
     0
  9
$DIMTFAC
 40
1.0
  9
$DIMGAP
 40
0.09
  9
$LUNITS
 70
     2
  9
$LUPREC
 70
     4
  9
$SKETCHINC
 40
0.1
  9
$FILLETRAD
 40
0.0
  9
$AUNITS
 70
     0
  9
$AUPREC
 70
     0
  9
$MENU
  1
.
  9
$ELEVATION
 40
0.0
  9
$PELEVATION
 40
0.0
  9
$THICKNESS
 40
0.0
  9
$LIMCHECK
 70
     0
  9
$BLIPMODE
 70
     0
  9
$CHAMFERA
 40
0.0
  9
$CHAMFERB
 40
0.0
  9
$SKPOLY
 70
     0
  9
$TDCREATE
 40
2456262.588081019
  9
$TDUPDATE
 40
2456262.5886592008
  9
$TDINDWG
 40
0.0005788773
  9
$TDUSRTIMER
 40
0.0005788773
  9
$USRTIMER
 70
     1
  9
$ANGBASE
 50
0.0
  9
$ANGDIR
 70
     0
  9
$PDMODE
 70
     3
  9
$PDSIZE
 40
7.9375
  9
$PLINEWID
 40
0.0
  9
$COORDS
 70
     1
  9
$SPLFRAME
 70
     0
  9
$SPLINETYPE
 70
     6
  9
$SPLINESEGS
 70
     8
  9
$ATTDIA
 70
     0
  9
$ATTREQ
 70
     1
  9
$HANDLING
 70
     1
  9
$HANDSEED
  5
1D0
  9
$SURFTAB1
 70
     6
  9
$SURFTAB2
 70
     6
  9
$SURFTYPE
 70
     6
  9
$SURFU
 70
     6
  9
$SURFV
 70
     6
  9
$UCSNAME
  2

  9
$UCSORG
 10
0.0
 20
0.0
 30
0.0
  9
$UCSXDIR
 10
1.0
 20
0.0
 30
0.0
  9
$UCSYDIR
 10
0.0
 20
1.0
 30
0.0
  9
$PUCSNAME
  2

  9
$PUCSORG
 10
0.0
 20
0.0
 30
0.0
  9
$PUCSXDIR
 10
1.0
 20
0.0
 30
0.0
  9
$PUCSYDIR
 10
0.0
 20
1.0
 30
0.0
  9
$USERI1
 70
     0
  9
$USERI2
 70
     0
  9
$USERI3
 70
     0
  9
$USERI4
 70
     0
  9
$USERI5
 70
     0
  9
$USERR1
 40
0.0
  9
$USERR2
 40
0.0
  9
$USERR3
 40
0.0
  9
$USERR4
 40
0.0
  9
$USERR5
 40
0.0
  9
$WORLDVIEW
 70
     1
  9
$SHADEDGE
 70
     3
  9
$SHADEDIF
 70
    70
  9
$TILEMODE
 70
     1
  9
$MAXACTVP
 70
    64
  9
$PLIMCHECK
 70
     0
  9
$PEXTMIN
 10
1.0000000000000000E+020
 20
1.0000000000000000E+020
 30
1.0000000000000000E+020
  9
$PEXTMAX
 10
-1.0000000000000000E+020
 20
-1.0000000000000000E+020
 30
-1.0000000000000000E+020
  9
$PLIMMIN
 10
0.0
 20
0.0
  9
$PLIMMAX
 10
12.0
 20
9.0
  9
$UNITMODE
 70
     0
  9
$VISRETAIN
 70
     1
  9
$PLINEGEN
 70
     0
  9
$PSLTSCALE
 70
     1
  0
ENDSEC
  0
SECTION
  2
TABLES
  0
TABLE
  2
VPORT
 70
     1
  0
VPORT
  2
*ACTIVE
 70
     0
 10
0.0
 20
0.0
 11
1.0
 21
1.0
 12
100.0000004656612
 22
75.00000034924598
 13
0.0
 23
0.0
 14
1.0
 24
1.0
 15
0.0
 25
0.0
 16
0.0
 26
0.0
 36
1.0
 17
0.0
 27
0.0
 37
0.0
 40
183.1188341406019
 41
1.1005586592178771
 42
50.0
 43
0.0
 44
0.0
 50
0.0
 51
0.0
 71
     0
 72
   100
 73
     1
 74
     1
 75
     0
 76
     0
 77
     0
 78
     0
  0
ENDTAB
  0
TABLE
  2
LTYPE
 70
     8
  0
LTYPE
  2
ByBlock
 70
     0
  3

 72
    65
 73
     0
 40
0.0
  0
LTYPE
  2
ByLayer
 70
     0
  3

 72
    65
 73
     0
 40
0.0
  0
LTYPE
  2
CONTINUOUS
 70
     0
  3
Solid line
 72
    65
 73
     0
 40
0.0
  0
LTYPE
  2
CENTER
 70
     0
  3
____ _ ____ _ ____ _ ____ _ ____ _ ____ _ ____
 72
    65
 73
     4
 40
0.6
 49
0.375
 49
-0.075
 49
0.075
 49
-0.075
  0
LTYPE
  2
HIDDEN
 70
     0
  3
- - - - - - - - - - - - - - - - - - - -
 72
    65
 73
     2
 40
0.2
 49
0.1
 49
-0.1
  0
LTYPE
  2
PHANTOM
 70
     0
  3
_____ _ _ _____ _ _ _____ _ _ _____
 72
    65
 73
     6
 40
0.8
 49
0.45
 49
-0.05
 49
0.1
 49
-0.05
 49
0.1
 49
-0.05
  0
LTYPE
  2
DOT
 70
     0
  3
. . . . . . . . . . . . . . . . . . . .
 72
    65
 73
     2
 40
0.2
 49
0.1
 49
-0.1
  0
LTYPE
  2
DASHED
 70
     0
  3
- - - - - - - - - - - - - - - - - - - -
 72
    65
 73
     2
 40
0.2
 49
0.1
 49
-0.1
  0
ENDTAB
  0
TABLE
  2
LAYER
 70
    13
  0
LAYER
  2
0
 70
     0
 62
     7
  6
CONTINUOUS
  0
LAYER
  2
DEFAULT_1
 70
     0
 62
     7
  6
CENTER
  0
LAYER
  2
DEFAULT_2
 70
     0
 62
     8
  6
HIDDEN
  0
LAYER
  2
DEFAULT_3
 70
     0
 62
     7
  6
PHANTOM
  0
LAYER
  2
CURB-14
 70
     0
 62
     6
  6
CONTINUOUS
  0
LAYER
  2
CURB-14-DIM
 70
     0
 62
     6
  6
CONTINUOUS
  0
LAYER
  2
CURB-24
 70
     0
 62
     6
  6
CONTINUOUS
  0
LAYER
  2
CURB-24-DIM
 70
     0
 62
     6
  6
CONTINUOUS
  0
LAYER
  2
NOTES
 70
     0
 62
     1
  6
CONTINUOUS
  0
LAYER
  2
SERVCLEAR
 70
     0
 62
     1
  6
CONTINUOUS
  0
LAYER
  2
SERVCLRDIM
 70
     0
 62
     1
  6
CONTINUOUS
  0
LAYER
  2
UNIT-DIM
 70
     0
 62
     7
  6
CONTINUOUS
  0
LAYER
  2
UNIT-SOL
 70
     0
 62
     7
  6
CONTINUOUS
  0
ENDTAB
  0
TABLE
  2
STYLE
 70
     5
  0
STYLE
  2
STANDARD
 70
     0
 40
0.0
 41
0.8
 50
0.0
 71
     0
 42
0.2
  3
txt
  4

  0
STYLE
  2
ANNOTATIVE
 70
     0
 40
0.0
 41
1.0
 50
0.0
 71
     0
 42
0.2
  3
txt
  4

  0
STYLE
  2
TEXTSTYLE_1
 70
     0
 40
0.0
 41
0.8
 50
0.0
 71
     0
 42
0.2
  3
gdt
  4

  0
STYLE
  2
TEXTSTYLE_2
 70
     0
 40
0.0
 41
1.0
 50
0.0
 71
     0
 42
0.2
  3
txt
  4

  0
STYLE
  2
TEXTSTYLE_3
 70
     0
 40
0.0
 41
8.0
 50
0.0
 71
     0
 42
0.2
  3
txt
  4

  0
ENDTAB
  0
TABLE
  2
VIEW
 70
     0
  0
ENDTAB
  0
TABLE
  2
UCS
 70
     0
  0
ENDTAB
  0
TABLE
  2
APPID
 70
     4
  0
APPID
  2
ACAD
 70
     0
  0
APPID
  2
ACADANNOTATIVE
 70
     0
  0
APPID
  2
ACAD_NAV_VCDISPLAY
 70
     0
  0
APPID
  2
ACAD_MLEADERVER
 70
     0
  0
ENDTAB
  0
TABLE
  2
DIMSTYLE
 70
     2
  0
DIMSTYLE
  2
STANDARD
 70
     0
  3

  4

  5

  6

  7

 40
1.0
 41
0.18
 42
0.0625
 43
0.38
 44
0.18
 45
0.0
 46
0.0
 47
0.0
 48
0.0
140
0.18
141
0.09
142
0.0
143
25.399999999999999
144
1.0
145
0.0
146
1.0
147
0.09
 71
     0
 72
     0
 73
     1
 74
     1
 75
     0
 76
     0
 77
     0
 78
     0
170
     0
171
     2
172
     0
173
     0
174
     0
175
     0
176
     0
177
     0
178
     0
  0
DIMSTYLE
  2
ANNOTATIVE
 70
     0
  3

  4

  5

  6

  7

 40
1.0
 41
0.18
 42
0.0625
 43
0.38
 44
0.18
 45
0.0
 46
0.0
 47
0.0
 48
0.0
140
0.18
141
0.09
142
0.0
143
25.399999999999999
144
1.0
145
0.0
146
1.0
147
0.09
 71
     0
 72
     0
 73
     1
 74
     1
 75
     0
 76
     0
 77
     0
 78
     0
170
     0
171
     2
172
     0
173
     0
174
     0
175
     0
176
     0
177
     0
178
     0
  0
ENDTAB
  0
ENDSEC
  0
SECTION
  2
BLOCKS
  0
BLOCK
  8
0
  2
$MODEL_SPACE
 70
     0
 10
0.0
 20
0.0
 30
0.0
  3
$MODEL_SPACE
  1

  0
ENDBLK
  5
6D
  8
0
  0
BLOCK
 67
     1
  8
0
  2
$PAPER_SPACE
 70
     0
 10
0.0
 20
0.0
 30
0.0
  3
$PAPER_SPACE
  1

  0
ENDBLK
  5
69
 67
     1
  8
0
  0
ENDSEC
  0
SECTION
  2
ENTITIES
  0
SOLID
  5
88
  8
SERVCLRDIM
  6
CONTINUOUS
 62
     1
 10
57.611096938999992
 20
64.416273542499994
 30
0.0
 11
56.944430938999993
 21
64.416273542499994
 31
0.0
 12
57.277762938999992
 22
66.416273542499994
 32
0.0
 13
57.277762938999992
 23
66.416273542499994
 33
0.0
  0
SOLID
  5
89
  8
SERVCLRDIM
  6
CONTINUOUS
 62
     1
 10
57.611096938999992
 20
72.976273542499996
 30
0.0
 11
57.277762938999992
 21
70.976273542499996
 31
0.0
 12
56.944430938999993
 22
72.976273542499996
 32
0.0
 13
56.944430938999993
 23
72.976273542499996
 33
0.0
  0
SOLID
  5
8A
  8
SERVCLRDIM
  6
CONTINUOUS
 62
     1
 10
156.64219993899999
 20
96.062765499999998
 30
0.0
 11
154.76719993899999
 21
96.375265499999998
 31
0.0
 12
156.64219993899999
 22
96.687765499999998
 32
0.0
 13
156.64219993899999
 23
96.687765499999998
 33
0.0
  0
SOLID
  5
8B
  8
SERVCLRDIM
  6
CONTINUOUS
 62
     1
 10
188.89219993899999
 20
96.062765499999998
 30
0.0
 11
188.89219993899999
 21
96.687765499999998
 31
0.0
 12
190.76719993899999
 22
96.375265499999998
 32
0.0
 13
190.76719993899999
 23
96.375265499999998
 33
0.0
  0
SOLID
  5
8C
  8
SERVCLRDIM
  6
CONTINUOUS
 62
     1
 10
64.767199938999994
 20
96.062765499999998
 30
0.0
 11
64.767199938999994
 21
96.687765499999998
 31
0.0
 12
66.642199938999994
 22
96.375265499999998
 32
0.0
 13
66.642199938999994
 23
96.375265499999998
 33
0.0
  0
SOLID
  5
8D
  8
SERVCLRDIM
  6
CONTINUOUS
 62
     1
 10
20.517199939000001
 20
96.062765499999998
 30
0.0
 11
18.642199939000001
 21
96.375265499999998
 31
0.0
 12
20.517199939000001
 22
96.687765499999998
 32
0.0
 13
20.517199939000001
 23
96.687765499999998
 33
0.0
  0
SOLID
  5
8E
  8
CURB-14-DIM
  6
CONTINUOUS
 62
     6
 10
166.44877893899999
 20
69.103773542499994
 30
0.0
 11
165.82377893899999
 21
69.103773542499994
 31
0.0
 12
166.13627893899999
 22
70.978773542499994
 32
0.0
 13
166.13627893899999
 23
70.978773542499994
 33
0.0
  0
SOLID
  5
8F
  8
CURB-14-DIM
  6
CONTINUOUS
 62
     6
 10
166.44877893899999
 20
58.853773542500001
 30
0.0
 11
166.13627893899999
 21
56.978773542500001
 31
0.0
 12
165.82377893899999
 22
58.853773542500001
 32
0.0
 13
165.82377893899999
 23
58.853773542500001
 33
0.0
  0
SOLID
  5
90
  8
CURB-14-DIM
  6
CONTINUOUS
 62
     6
 10
150.14219993899999
 20
39.256796542499998
 30
0.0
 11
150.14219993899999
 21
39.881796542499998
 31
0.0
 12
152.01719993899999
 22
39.569296542499998
 32
0.0
 13
152.01719993899999
 23
39.569296542499998
 33
0.0
  0
SOLID
  5
91
  8
CURB-14-DIM
  6
CONTINUOUS
 62
     6
 10
72.142199938999994
 20
39.256796542499998
 30
0.0
 11
70.267199938999994
 21
39.569296542499998
 31
0.0
 12
72.142199938999994
 22
39.881796542499998
 32
0.0
 13
72.142199938999994
 23
39.881796542499998
 33
0.0
  0
SOLID
  5
92
  8
CURB-24-DIM
  6
CONTINUOUS
 62
     6
 10
72.142199938999994
 20
39.256796542499998
 30
0.0
 11
70.267199938999994
 21
39.569296542499998
 31
0.0
 12
72.142199938999994
 22
39.881796542499998
 32
0.0
 13
72.142199938999994
 23
39.881796542499998
 33
0.0
  0
SOLID
  5
93
  8
CURB-24-DIM
  6
CONTINUOUS
 62
     6
 10
150.14219993899999
 20
39.256796542499998
 30
0.0
 11
150.14219993899999
 21
39.881796542499998
 31
0.0
 12
152.01719993899999
 22
39.569296542499998
 32
0.0
 13
152.01719993899999
 23
39.569296542499998
 33
0.0
  0
SOLID
  5
94
  8
CURB-24-DIM
  6
CONTINUOUS
 62
     6
 10
176.44877893899999
 20
69.103773542499994
 30
0.0
 11
175.82377893899999
 21
69.103773542499994
 31
0.0
 12
176.13627893899999
 22
70.978773542499994
 32
0.0
 13
176.13627893899999
 23
70.978773542499994
 33
0.0
  0
SOLID
  5
95
  8
CURB-24-DIM
  6
CONTINUOUS
 62
     6
 10
176.44877893899999
 20
48.853773542500001
 30
0.0
 11
176.13627893899999
 21
46.978773542500001
 31
0.0
 12
175.82377893899999
 22
48.853773542500001
 32
0.0
 13
175.82377893899999
 23
48.853773542500001
 33
0.0
  0
SOLID
  5
96
  8
UNIT-DIM
  6
CONTINUOUS
 62
     7
 10
39.964351938999997
 20
105.80111606209999
 30
0.0
 11
39.339351938999997
 21
105.80111606209999
 31
0.0
 12
39.651851938999997
 22
107.67611606209999
 32
0.0
 13
39.651851938999997
 23
107.67611606209999
 33
0.0
  0
SOLID
  5
97
  8
UNIT-DIM
  6
CONTINUOUS
 62
     7
 10
39.964351938999997
 20
68.291273542499994
 30
0.0
 11
39.651851938999997
 21
66.416273542499994
 31
0.0
 12
39.339351938999997
 22
68.291273542499994
 32
0.0
 13
39.339351938999997
 23
68.291273542499994
 33
0.0
  0
SOLID
  5
98
  8
UNIT-DIM
  6
CONTINUOUS
 62
     7
 10
68.892199938999994
 20
124.5481680621
 30
0.0
 11
67.017199938999994
 21
124.8606680621
 31
0.0
 12
68.892199938999994
 22
125.1731680621
 32
0.0
 13
68.892199938999994
 23
125.1731680621
 33
0.0
  0
SOLID
  5
99
  8
UNIT-DIM
  6
CONTINUOUS
 62
     7
 10
152.51719993899999
 20
124.5481680621
 30
0.0
 11
152.51719993899999
 21
125.1731680621
 31
0.0
 12
154.39219993899999
 22
124.8606680621
 32
0.0
 13
154.39219993899999
 23
124.8606680621
 33
0.0
  0
TEXT
  5
9A
  8
SERVCLRDIM
  6
CONTINUOUS
 62
     1
 10
8.1110797270999981
 20
55.663618113200002
 30
0.0
 40
1.75
  1
OVERALL HEIGHT & CLEARANCE
  7
TEXTSTYLE_2
  0
TEXT
  5
9B
  8
SERVCLRDIM
  6
CONTINUOUS
 62
     1
 10
8.1110797270999981
 20
53.038618113200002
 30
0.0
 40
1.75
  1
AREA WILL BE DETERMINED BY
  7
TEXTSTYLE_2
  0
TEXT
  5
9C
  8
SERVCLRDIM
  6
CONTINUOUS
 62
     1
 10
8.1110797270999981
 20
50.413618113199988
 30
0.0
 40
1.75
  1
ASSEMBLY OF INSTALLER. SEE
  7
TEXTSTYLE_2
  0
TEXT
  5
9D
  8
SERVCLRDIM
  6
CONTINUOUS
 62
     1
 10
8.1110797270999981
 20
47.788618113199988
 30
0.0
 40
1.75
  1
CERTIFIED DRAWING FOR
  7
TEXTSTYLE_2
  0
TEXT
  5
9E
  8
SERVCLRDIM
  6
CONTINUOUS
 62
     1
 10
8.1110797270999981
 20
45.163618113199988
 30
0.0
 40
1.75
  1
FURTHER DETAIL.
  7
TEXTSTYLE_2
  0
TEXT
  5
9F
  8
CURB-14-DIM
  6
CONTINUOUS
 62
     6
 10
162.8001775164
 20
63.75091792340001
 30
0.0
 40
1.75
  1
1'-2"
  7
TEXTSTYLE_2
 72
     1
 11
165.8626775164
 21
63.75091792340001
 31
0.0
  0
TEXT
  5
A0
  8
CURB-14-DIM
  6
CONTINUOUS
 62
     6
 10
104.28803327233329
 20
38.694296542499998
 30
0.0
 40
1.75
  1
6'-9 3/4"
  7
TEXTSTYLE_2
 72
     1
 11
111.14219993899999
 21
38.694296542499998
 31
0.0
  0
TEXT
  5
A1
  8
UNIT-DIM
  6
CONTINUOUS
 62
     7
 10
33.464351938999997
 20
87.995276542499994
 30
0.0
 40
1.75
  1
3'-5 1/4"
  7
TEXTSTYLE_2
 72
     1
 11
40.026851938999997
 21
87.995276542499994
 31
0.0
  0
TEXT
  5
A2
  8
UNIT-DIM
  6
CONTINUOUS
 62
     7
 10
104.14219993899999
 20
123.9856680621
 30
0.0
 40
1.75
  1
7'-4 1/8"
  7
TEXTSTYLE_2
 72
     1
 11
110.70469993899999
 21
123.9856680621
 31
0.0
  0
TEXT
  5
A3
  8
UNIT-DIM
  6
CONTINUOUS
 62
     7
 10
36.089351939000011
 20
85.078609542500004
 30
0.0
 40
1.75
  1
(1048)
  7
TEXTSTYLE_2
 72
     1
 11
40.026851938999997
 21
85.078609542500004
 31
0.0
  0
TEXT
  5
A4
  8
UNIT-DIM
  6
CONTINUOUS
 62
     7
 10
106.32969993899999
 20
121.0690020621
 30
0.0
 40
1.75
  1
(2238)
  7
TEXTSTYLE_2
 72
     1
 11
110.70469993899999
 21
121.0690020621
 31
0.0
  0
TEXT
  5
A5
  8
CURB-14-DIM
  6
CONTINUOUS
 62
     6
 10
162.31761148199999
 20
61.307445284499998
 30
0.0
 40
1.75
  1
(356)
  7
TEXTSTYLE_2
 72
     1
 11
165.81761148199999
 21
61.307445284499998
 31
0.0
  0
TEXT
  5
A6
  8
CURB-14-DIM
  6
CONTINUOUS
 62
     6
 10
106.91303327233329
 20
35.777629542500001
 30
0.0
 40
1.75
  1
(2076)
  7
TEXTSTYLE_2
 72
     1
 11
111.14219993899999
 21
35.777629542500001
 31
0.0
  0
TEXT
  5
A7
  8
CURB-24-DIM
  6
CONTINUOUS
 62
     6
 10
106.91303327233329
 20
35.777629542500001
 30
0.0
 40
1.75
  1
(2076)
  7
TEXTSTYLE_2
 72
     1
 11
111.14219993899999
 21
35.777629542500001
 31
0.0
  0
TEXT
  5
A8
  8
CURB-24-DIM
  6
CONTINUOUS
 62
     6
 10
104.28803327233329
 20
38.694296542499998
 30
0.0
 40
1.75
  1
6'-9 3/4"
  7
TEXTSTYLE_2
 72
     1
 11
111.14219993899999
 21
38.694296542499998
 31
0.0
  0
TEXT
  5
A9
  8
CURB-24-DIM
  6
CONTINUOUS
 62
     6
 10
174.74044560566671
 20
59.659284542499996
 30
0.0
 40
1.75
  1
2'
  7
TEXTSTYLE_2
 72
     1
 11
175.76127893899999
 21
59.659284542499996
 31
0.0
  0
TEXT
  5
AA
  8
CURB-24-DIM
  6
CONTINUOUS
 62
     6
 10
172.69877893899999
 20
56.742618542499997
 30
0.0
 40
1.75
  1
(610)
  7
TEXTSTYLE_2
 72
     1
 11
175.76127893899999
 21
56.742618542499997
 31
0.0
  0
TEXT
  5
AB
  8
SERVCLRDIM
  6
CONTINUOUS
 62
     1
 10
174.1198986990666
 20
95.016456553099985
 30
0.0
 40
1.75
  1
3'
  7
TEXTSTYLE_2
 72
     1
 11
175.1407320324
 21
95.016456553099985
 31
0.0
  0
TEXT
  5
AC
  8
SERVCLRDIM
  6
CONTINUOUS
 62
     1
 10
47.996366605666651
 20
95.500265499999998
 30
0.0
 40
1.75
  1
4'
  7
TEXTSTYLE_2
 72
     1
 11
49.017199938999987
 21
95.500265499999998
 31
0.0
  0
TEXT
  5
AD
  8
SERVCLRDIM
  6
CONTINUOUS
 62
     1
 10
171.93239869906671
 20
92.099789553099995
 30
0.0
 40
1.75
  1
(914)
  7
TEXTSTYLE_2
 72
     1
 11
175.1407320324
 21
92.099789553099995
 31
0.0
  0
TEXT
  5
AE
  8
SERVCLRDIM
  6
CONTINUOUS
 62
     1
 10
45.22553327233333
 20
92.583598499999994
 30
0.0
 40
1.75
  1
(1219)
  7
TEXTSTYLE_2
 72
     1
 11
49.017199938999987
 21
92.583598499999994
 31
0.0
  0
TEXT
  5
AF
  8
NOTES
  6
CONTINUOUS
 62
     1
 10
0.8
 20
1.1248476951999991
 30
0.0
 40
1.75
  1
VIEW: FRONT
 41
0.8
  0
TEXT
  5
B0
  8
NOTES
  6
CONTINUOUS
 62
     1
 10
0.8
 20
5.6241623234000002
 30
0.0
 40
1.75
  1
FILE NAME: 
 41
0.8
  0
TEXT
  5
B1
  8
NOTES
  6
CONTINUOUS
 62
     1
 10
16.199999999999999
 20
5.6241623234000002
 30
0.0
 40
1.75
  1
TSP30-F-
 41
0.8
  0
TEXT
  5
B2
  8
NOTES
  6
CONTINUOUS
 62
     1
 10
17.066666666700002
 20
9.6235531039999991
 30
0.0
 40
1.75
  1
LAYER KEY
 41
0.8
  0
TEXT
  5
B3
  8
NOTES
  6
CONTINUOUS
 62
     7
 10
1.0303146667
 20
13.6229438846
 30
0.0
 40
1.75
  1
-
 41
8.0
  7
TEXTSTYLE_3
  0
TEXT
  5
B4
  8
NOTES
  6
CONTINUOUS
 62
     1
 10
16.800000000000001
 20
13.6229438846
 30
0.0
 40
1.75
  1
UNIT
 41
0.8
  0
TEXT
  5
B5
  8
NOTES
  6
CONTINUOUS
 62
     6
 10
1.0303146667
 20
17.6223346652
 30
0.0
 40
1.75
  1
-
 41
8.0
  7
TEXTSTYLE_3
  0
TEXT
  5
B6
  8
NOTES
  6
CONTINUOUS
 62
     1
 10
16.800000000000001
 20
17.6223346652
 30
0.0
 40
1.75
  1
ROOF CURB
 41
0.8
  0
TEXT
  5
B7
  8
NOTES
  6
CONTINUOUS
 62
     1
 10
1.0303146667
 20
21.621725445900001
 30
0.0
 40
1.75
  1
-
 41
8.0
  7
TEXTSTYLE_3
  0
TEXT
  5
B8
  8
NOTES
  6
CONTINUOUS
 62
     1
 10
16.800000000000001
 20
21.621725445900001
 30
0.0
 40
1.75
  1
SERVICE CLEARANCE
 41
0.8
  0
TEXT
  5
B9
  8
NOTES
  6
CONTINUOUS
 62
     2
 10
1.0303146667
 20
25.6211162265
 30
0.0
 40
1.75
  1
-
 41
8.0
  7
TEXTSTYLE_3
  0
TEXT
  5
BA
  8
NOTES
  6
CONTINUOUS
 62
     1
 10
16.800000000000001
 20
25.6211162265
 30
0.0
 40
1.75
  1
UNIT DUCTS
 41
0.8
  0
TEXT
  5
BB
  8
NOTES
  6
CONTINUOUS
 62
     5
 10
1.0303146667
 20
29.620507007099999
 30
0.0
 40
1.75
  1
-
 41
8.0
  7
TEXTSTYLE_3
  0
TEXT
  5
BC
  8
NOTES
  6
CONTINUOUS
 62
     1
 10
16.800000000000001
 20
29.620507007099999
 30
0.0
 40
1.75
  1
CURB DUCTS
 41
0.8
  0
TEXT
  5
BD
  8
NOTES
  6
CONTINUOUS
 62
     9
 10
1.0303146667
 20
33.619897787699998
 30
0.0
 40
1.75
  1
-
 41
8.0
  7
TEXTSTYLE_3
  0
TEXT
  5
BE
  8
NOTES
  6
CONTINUOUS
 62
     1
 10
16.800000000000001
 20
33.619897787699998
 30
0.0
 40
1.75
  1
UNIT HIDDEN
 41
0.8
  0
TEXT
  5
BF
  8
NOTES
  6
CONTINUOUS
 62
     1
 10
78.831539127599996
 20
94.205494415900006
 30
0.0
 40
1.7069028806999991
  1
CONTROL BOX
 41
0.8
  0
TEXT
  5
C0
  8
NOTES
  6
CONTINUOUS
 62
     1
 10
82.976874695099994
 20
91.360656281299995
 30
0.0
 40
1.7069028806999991
  1
ACCESS 
 41
0.8
  0
TEXT
  5
C1
  8
NOTES
  6
CONTINUOUS
 62
     1
 10
83.830326135500002
 20
88.515818146699999
 30
0.0
 40
1.7069028806999991
  1
PANEL
 41
0.8
  0
TEXT
  5
C2
  8
NOTES
  6
CONTINUOUS
 62
     1
 10
131.4258789175
 20
94.187759462700015
 30
0.0
 40
1.7069028806999991
  1
INDOOR 
 41
0.8
  0
TEXT
  5
C3
  8
NOTES
  6
CONTINUOUS
 62
     1
 10
131.38387007919999
 20
91.437293168099998
 30
0.0
 40
1.7069028806999991
  1
BLOWER
 41
0.8
  0
TEXT
  5
C4
  8
NOTES
  6
CONTINUOUS
 62
     1
 10
127.1269670409
 20
88.49808319360001
 30
0.0
 40
1.7069028806999991
  1
ACCESS PANEL
 41
0.8
  0
LINE
  5
C5
  8
NOTES
  6
CONTINUOUS
 62
     1
 10
0.0
 20
0.0
 30
0.0
 11
0.0
 21
36.494440873199999
 31
0.0
  0
LINE
  5
C6
  8
0
  6
CONTINUOUS
 62
     7
 10
0.0
 20
0.0
 30
0.0
 11
0.0
 21
150.0
 31
0.0
  0
LINE
  5
C7
  8
NOTES
  6
CONTINUOUS
 62
     1
 10
16.0
 20
12.4980961895
 30
0.0
 11
16.0
 21
36.494440873199999
 31
0.0
  0
LINE
  5
C8
  8
SERVCLEAR
  6
CENTER
 62
     1
 10
18.642199939000001
 20
66.416273542499994
 30
0.0
 11
18.642199939000001
 21
107.67611606209999
 31
0.0
  0
LINE
  5
C9
  8
SERVCLRDIM
  6
CONTINUOUS
 62
     1
 10
20.517199939000001
 20
96.687765499999998
 30
0.0
 11
20.517199939000001
 21
96.062765499999998
 31
0.0
  0
LINE
  5
CA
  8
0
  6
CONTINUOUS
 62
     7
 10
0.0
 20
0.0
 30
0.0
 11
200.0
 21
0.0
 31
0.0
  0
LINE
  5
CB
  8
NOTES
  6
CONTINUOUS
 62
     1
 10
0.0
 20
0.0
 30
0.0
 11
48.0
 21
0.0
 31
0.0
  0
LINE
  5
CC
  8
NOTES
  6
CONTINUOUS
 62
     1
 10
0.0
 20
3.9993907806000002
 30
0.0
 11
48.0
 21
3.9993907806000002
 31
0.0
  0
LINE
  5
CD
  8
NOTES
  6
CONTINUOUS
 62
     1
 10
0.0
 20
4.4993146281999987
 30
0.0
 11
48.0
 21
4.4993146281999987
 31
0.0
  0
LINE
  5
CE
  8
UNIT-DIM
  6
CONTINUOUS
 62
     7
 10
39.651851938999997
 20
107.67611606209999
 30
0.0
 11
39.339351938999997
 21
105.80111606209999
 31
0.0
  0
LINE
  5
CF
  8
NOTES
  6
CONTINUOUS
 62
     1
 10
0.0
 20
8.4987054087999994
 30
0.0
 11
48.0
 21
8.4987054087999994
 31
0.0
  0
LINE
  5
D0
  8
NOTES
  6
CONTINUOUS
 62
     1
 10
0.0
 20
12.4980961895
 30
0.0
 11
48.0
 21
12.4980961895
 31
0.0
  0
LINE
  5
D1
  8
UNIT-DIM
  6
CONTINUOUS
 62
     7
 10
39.651851938999997
 20
107.59886906209999
 30
0.0
 11
39.651851938999997
 21
91.020276542499985
 31
0.0
  0
LINE
  5
D2
  8
UNIT-DIM
  6
CONTINUOUS
 62
     7
 10
39.651851938999997
 20
66.793146542499997
 30
0.0
 11
39.651851938999997
 21
83.424396542500006
 31
0.0
  0
LINE
  5
D3
  8
UNIT-DIM
  6
CONTINUOUS
 62
     7
 10
39.964351938999997
 20
68.291273542499994
 30
0.0
 11
39.651851938999997
 21
66.416273542499994
 31
0.0
  0
LINE
  5
D4
  8
NOTES
  6
CONTINUOUS
 62
     1
 10
0.0
 20
16.497486970099999
 30
0.0
 11
48.0
 21
16.497486970099999
 31
0.0
  0
LINE
  5
D5
  8
UNIT-DIM
  6
CONTINUOUS
 62
     7
 10
39.651851938999997
 20
66.416273542499994
 30
0.0
 11
39.339351938999997
 21
68.291273542499994
 31
0.0
  0
LINE
  5
D6
  8
NOTES
  6
CONTINUOUS
 62
     1
 10
48.0
 20
0.0
 30
0.0
 11
48.0
 21
36.494440873199999
 31
0.0
  0
LINE
  5
D7
  8
NOTES
  6
CONTINUOUS
 62
     1
 10
0.0
 20
20.496877750700001
 30
0.0
 11
48.0
 21
20.496877750700001
 31
0.0
  0
LINE
  5
D8
  8
NOTES
  6
CONTINUOUS
 62
     1
 10
0.0
 20
24.4962685313
 30
0.0
 11
48.0
 21
24.4962685313
 31
0.0
  0
LINE
  5
D9
  8
UNIT-DIM
  6
CONTINUOUS
 62
     7
 10
39.964351938999997
 20
105.80111606209999
 30
0.0
 11
39.651851938999997
 21
107.67611606209999
 31
0.0
  0
LINE
  5
DA
  8
SERVCLRDIM
  6
CONTINUOUS
 62
     1
 10
57.277762938999992
 20
76.3486753424
 30
0.0
 11
57.277762938999992
 21
70.976273542499996
 31
0.0
  0
LINE
  5
DB
  8
SERVCLRDIM
  6
CONTINUOUS
 62
     1
 10
57.277762938999992
 20
66.416273542499994
 30
0.0
 11
57.277762938999992
 21
56.498129542500003
 31
0.0
  0
LINE
  5
DC
  8
SERVCLRDIM
  6
CONTINUOUS
 62
     1
 10
57.611096938999992
 20
72.976273542499996
 30
0.0
 11
57.277762938999992
 21
70.976273542499996
 31
0.0
  0
LINE
  5
DD
  8
CURB-14-DIM
  6
CONTINUOUS
 62
     6
 10
150.14219993899999
 20
39.256796542499998
 30
0.0
 11
152.01719993899999
 21
39.569296542499998
 31
0.0
  0
LINE
  5
DE
  8
CURB-24-DIM
  6
CONTINUOUS
 62
     6
 10
150.14219993899999
 20
39.256796542499998
 30
0.0
 11
152.01719993899999
 21
39.569296542499998
 31
0.0
  0
LINE
  5
DF
  8
NOTES
  6
CONTINUOUS
 62
     1
 10
0.0
 20
28.495659312000001
 30
0.0
 11
48.0
 21
28.495659312000001
 31
0.0
  0
LINE
  5
E0
  8
NOTES
  6
CONTINUOUS
 62
     1
 10
0.0
 20
32.495050092600003
 30
0.0
 11
48.0
 21
32.495050092600003
 31
0.0
  0
LINE
  5
E1
  8
SERVCLRDIM
  6
CONTINUOUS
 62
     1
 10
57.611096938999992
 20
64.416273542499994
 30
0.0
 11
57.277762938999992
 21
66.416273542499994
 31
0.0
  0
LINE
  5
E2
  8
SERVCLRDIM
  6
CONTINUOUS
 62
     1
 10
57.277762938999992
 20
70.976273542499996
 30
0.0
 11
56.944430938999993
 21
72.976273542499996
 31
0.0
  0
LINE
  5
E3
  8
SERVCLRDIM
  6
CONTINUOUS
 62
     1
 10
64.767199938999994
 20
96.687765499999998
 30
0.0
 11
64.767199938999994
 21
96.062765499999998
 31
0.0
  0
LINE
  5
E4
  8
SERVCLRDIM
  6
CONTINUOUS
 62
     1
 10
57.277762938999992
 20
66.416273542499994
 30
0.0
 11
56.944430938999993
 21
64.416273542499994
 31
0.0
  0
LINE
  5
E5
  8
NOTES
  6
CONTINUOUS
 62
     1
 10
0.0
 20
36.494440873199999
 30
0.0
 11
48.0
 21
36.494440873199999
 31
0.0
  0
LINE
  5
E6
  8
CURB-14-DIM
  6
CONTINUOUS
 62
     6
 10
150.14219993899999
 20
39.569296542499998
 30
0.0
 11
119.246365939
 21
39.569296542499998
 31
0.0
  0
LINE
  5
E7
  8
CURB-24-DIM
  6
CONTINUOUS
 62
     6
 10
150.14219993899999
 20
39.569296542499998
 30
0.0
 11
119.246365939
 21
39.569296542499998
 31
0.0
  0
LINE
  5
E8
  8
CURB-14-DIM
  6
CONTINUOUS
 62
     6
 10
70.267199938999994
 20
39.569296542499998
 30
0.0
 11
103.038032939
 21
39.569296542499998
 31
0.0
  0
LINE
  5
E9
  8
CURB-24-DIM
  6
CONTINUOUS
 62
     6
 10
72.517199938999994
 20
39.569296542499998
 30
0.0
 11
103.038032939
 21
39.569296542499998
 31
0.0
  0
LINE
  5
EA
  8
CURB-14-DIM
  6
CONTINUOUS
 62
     6
 10
72.142199938999994
 20
39.256796542499998
 30
0.0
 11
70.267199938999994
 21
39.569296542499998
 31
0.0
  0
LINE
  5
EB
  8
CURB-24-DIM
  6
CONTINUOUS
 62
     6
 10
72.142199938999994
 20
39.256796542499998
 30
0.0
 11
70.267199938999994
 21
39.569296542499998
 31
0.0
  0
POLYLINE
  5
EC
  8
UNIT-SOL
  6
CONTINUOUS
 62
     7
 66
     1
 10
0.0
 20
0.0
 30
0.0
 40
0.15
 41
0.15
  0
VERTEX
  5
1B2
  8
UNIT-SOL
  6
CONTINUOUS
 62
     7
 10
66.642199938999994
 20
107.67611606209999
 30
0.0
  0
VERTEX
  5
1B3
  8
UNIT-SOL
  6
CONTINUOUS
 62
     7
 10
66.642199938999994
 20
66.416273542499994
 30
0.0
  0
SEQEND
  5
1B4
  8
UNIT-SOL
  6
CONTINUOUS
 62
     7
  0
LINE
  5
F0
  8
UNIT-DIM
  6
CONTINUOUS
 62
     7
 10
66.642199938999994
 20
108.61361606209999
 30
0.0
 11
66.642199938999994
 21
126.1106680621
 31
0.0
  0
LINE
  5
F1
  8
UNIT-DIM
  6
CONTINUOUS
 62
     7
 10
68.892199938999994
 20
125.1731680621
 30
0.0
 11
68.892199938999994
 21
124.5481680621
 31
0.0
  0
LINE
  5
F2
  8
CURB-14-DIM
  6
CONTINUOUS
 62
     6
 10
70.267199938999994
 20
69.041273542499994
 30
0.0
 11
70.267199938999994
 21
38.319296542499998
 31
0.0
  0
LINE
  5
F3
  8
CURB-24-DIM
  6
CONTINUOUS
 62
     6
 10
70.267199938999994
 20
69.041273542499994
 30
0.0
 11
70.267199938999994
 21
38.319296542499998
 31
0.0
  0
LINE
  5
F4
  8
CURB-14
  6
HIDDEN
 62
     8
 10
70.267199938999994
 20
69.978773542499994
 30
0.0
 11
70.267199938999994
 21
70.978773542499994
 31
0.0
  0
LINE
  5
F5
  8
CURB-24
  6
HIDDEN
 62
     8
 10
70.267199938999994
 20
69.978773542499994
 30
0.0
 11
70.267199938999994
 21
70.978773542499994
 31
0.0
  0
LINE
  5
F6
  8
CURB-14-DIM
  6
CONTINUOUS
 62
     6
 10
72.142199938999994
 20
39.881796542499998
 30
0.0
 11
72.142199938999994
 21
39.256796542499998
 31
0.0
  0
LINE
  5
F7
  8
CURB-24-DIM
  6
CONTINUOUS
 62
     6
 10
72.142199938999994
 20
39.881796542499998
 30
0.0
 11
72.142199938999994
 21
39.256796542499998
 31
0.0
  0
LINE
  5
F8
  8
CURB-24
  6
HIDDEN
 62
     8
 10
72.485949938999994
 20
69.978773542499994
 30
0.0
 11
72.485949938999994
 21
66.573074542499995
 31
0.0
  0
LINE
  5
F9
  8
CURB-14
  6
HIDDEN
 62
     8
 10
72.485949938999994
 20
69.978773542499994
 30
0.0
 11
72.485949938999994
 21
66.573074542499995
 31
0.0
  0
POLYLINE
  5
FA
  8
CURB-24
  6
CONTINUOUS
 62
     6
 66
     1
 10
0.0
 20
0.0
 30
0.0
 40
0.15
 41
0.15
  0
VERTEX
  5
1B5
  8
CURB-24
  6
CONTINUOUS
 62
     6
 10
72.485949938999994
 20
66.260629542499998
 30
0.0
  0
VERTEX
  5
1B6
  8
CURB-24
  6
CONTINUOUS
 62
     6
 10
72.485949938999994
 20
46.978773542500001
 30
0.0
  0
SEQEND
  5
1B7
  8
CURB-24
  6
CONTINUOUS
 62
     6
  0
POLYLINE
  5
FE
  8
CURB-14
  6
CONTINUOUS
 62
     6
 66
     1
 10
0.0
 20
0.0
 30
0.0
 40
0.15
 41
0.15
  0
VERTEX
  5
1B8
  8
CURB-14
  6
CONTINUOUS
 62
     6
 10
72.485949938999994
 20
66.260629542499998
 30
0.0
  0
VERTEX
  5
1B9
  8
CURB-14
  6
CONTINUOUS
 62
     6
 10
72.485949938999994
 20
56.978773542500001
 30
0.0
  0
SEQEND
  5
1BA
  8
CURB-14
  6
CONTINUOUS
 62
     6
  0
LINE
  5
102
  8
CURB-14-DIM
  6
CONTINUOUS
 62
     6
 10
70.267199938999994
 20
39.569296542499998
 30
0.0
 11
72.142199938999994
 21
39.881796542499998
 31
0.0
  0
LINE
  5
103
  8
CURB-24-DIM
  6
CONTINUOUS
 62
     6
 10
70.267199938999994
 20
39.569296542499998
 30
0.0
 11
72.142199938999994
 21
39.881796542499998
 31
0.0
  0
POLYLINE
  5
104
  8
CURB-24
  6
CONTINUOUS
 62
     6
 66
     1
 10
0.0
 20
0.0
 30
0.0
 40
0.15
 41
0.15
  0
VERTEX
  5
1BB
  8
CURB-24
  6
CONTINUOUS
 62
     6
 10
69.485949938999994
 20
46.978773542500001
 30
0.0
  0
VERTEX
  5
1BC
  8
CURB-24
  6
CONTINUOUS
 62
     6
 10
153.54844993899999
 20
46.978773542500001
 30
0.0
  0
SEQEND
  5
1BD
  8
CURB-24
  6
CONTINUOUS
 62
     6
  0
LINE
  5
108
  8
CURB-24-DIM
  6
CONTINUOUS
 62
     6
 10
154.48594993899999
 20
46.978773542500001
 30
0.0
 11
177.38627893899999
 21
46.978773542500001
 31
0.0
  0
LINE
  5
109
  8
CURB-24-DIM
  6
CONTINUOUS
 62
     6
 10
175.82377893899999
 20
48.853773542500001
 30
0.0
 11
176.44877893899999
 21
48.853773542500001
 31
0.0
  0
LINE
  5
10A
  8
CURB-14-DIM
  6
CONTINUOUS
 62
     6
 10
152.01719993899999
 20
39.569296542499998
 30
0.0
 11
150.14219993899999
 21
39.881796542499998
 31
0.0
  0
LINE
  5
10B
  8
CURB-24-DIM
  6
CONTINUOUS
 62
     6
 10
152.01719993899999
 20
39.569296542499998
 30
0.0
 11
150.14219993899999
 21
39.881796542499998
 31
0.0
  0
LINE
  5
10C
  8
SERVCLRDIM
  6
CONTINUOUS
 62
     1
 10
57.277762938999992
 20
56.498129542500003
 30
0.0
 11
54.233481938999986
 21
56.498129542500003
 31
0.0
  0
POLYLINE
  5
10D
  8
CURB-14
  6
CONTINUOUS
 62
     6
 66
     1
 10
0.0
 20
0.0
 30
0.0
 40
0.15
 41
0.15
  0
VERTEX
  5
1BE
  8
CURB-14
  6
CONTINUOUS
 62
     6
 10
69.485949938999994
 20
56.978773542500001
 30
0.0
  0
VERTEX
  5
1BF
  8
CURB-14
  6
CONTINUOUS
 62
     6
 10
153.54844993899999
 20
56.978773542500001
 30
0.0
  0
SEQEND
  5
1C0
  8
CURB-14
  6
CONTINUOUS
 62
     6
  0
LINE
  5
111
  8
CURB-14-DIM
  6
CONTINUOUS
 62
     6
 10
154.48594993899999
 20
56.978773542500001
 30
0.0
 11
167.38627893899999
 21
56.978773542500001
 31
0.0
  0
LINE
  5
112
  8
CURB-14-DIM
  6
CONTINUOUS
 62
     6
 10
165.82377893899999
 20
58.853773542500001
 30
0.0
 11
166.44877893899999
 21
58.853773542500001
 31
0.0
  0
LINE
  5
113
  8
SERVCLRDIM
  6
CONTINUOUS
 62
     1
 10
56.944430938999993
 20
64.416273542499994
 30
0.0
 11
57.611096938999992
 21
64.416273542499994
 31
0.0
  0
LINE
  5
114
  8
UNIT-DIM
  6
CONTINUOUS
 62
     7
 10
65.704699938999994
 20
66.416273542499994
 30
0.0
 11
38.401851938999997
 21
66.416273542499994
 31
0.0
  0
LINE
  5
115
  8
SERVCLEAR
  6
CENTER
 62
     1
 10
190.76719993899999
 20
66.416273542499994
 30
0.0
 11
18.642199939000001
 21
66.416273542499994
 31
0.0
  0
POLYLINE
  5
116
  8
UNIT-SOL
  6
CONTINUOUS
 62
     7
 66
     1
 10
0.0
 20
0.0
 30
0.0
 40
0.15
 41
0.15
  0
VERTEX
  5
1C1
  8
UNIT-SOL
  6
CONTINUOUS
 62
     7
 10
66.642199938999994
 20
66.416273542499994
 30
0.0
  0
VERTEX
  5
1C2
  8
UNIT-SOL
  6
CONTINUOUS
 62
     7
 10
154.76719993899999
 20
66.416273542499994
 30
0.0
  0
SEQEND
  5
1C3
  8
UNIT-SOL
  6
CONTINUOUS
 62
     7
  0
LINE
  5
11A
  8
UNIT-DIM
  6
CONTINUOUS
 62
     7
 10
39.339351938999997
 20
68.291273542499994
 30
0.0
 11
39.964351938999997
 21
68.291273542499994
 31
0.0
  0
LINE
  5
11B
  8
CURB-14-DIM
  6
CONTINUOUS
 62
     6
 10
165.82377893899999
 20
69.103773542499994
 30
0.0
 11
166.44877893899999
 21
69.103773542499994
 31
0.0
  0
LINE
  5
11C
  8
CURB-24-DIM
  6
CONTINUOUS
 62
     6
 10
175.82377893899999
 20
69.103773542499994
 30
0.0
 11
176.44877893899999
 21
69.103773542499994
 31
0.0
  0
LINE
  5
11D
  8
CURB-14
  6
HIDDEN
 62
     8
 10
152.01719993899999
 20
69.978773542499994
 30
0.0
 11
70.267199938999994
 21
69.978773542499994
 31
0.0
  0
LINE
  5
11E
  8
CURB-24
  6
HIDDEN
 62
     8
 10
152.01719993899999
 20
69.978773542499994
 30
0.0
 11
70.267199938999994
 21
69.978773542499994
 31
0.0
  0
LINE
  5
11F
  8
SERVCLRDIM
  6
CONTINUOUS
 62
     1
 10
67.454699938999994
 20
70.976273542499996
 30
0.0
 11
56.402762938999999
 21
70.976273542499996
 31
0.0
  0
LINE
  5
120
  8
CURB-14
  6
HIDDEN
 62
     8
 10
70.267199938999994
 20
70.978773542499994
 30
0.0
 11
152.01719993899999
 21
70.978773542499994
 31
0.0
  0
LINE
  5
121
  8
CURB-24
  6
HIDDEN
 62
     8
 10
70.267199938999994
 20
70.978773542499994
 30
0.0
 11
152.01719993899999
 21
70.978773542499994
 31
0.0
  0
LINE
  5
122
  8
CURB-14-DIM
  6
CONTINUOUS
 62
     6
 10
153.32969993899999
 20
70.978773542499994
 30
0.0
 11
167.38627893899999
 21
70.978773542499994
 31
0.0
  0
LINE
  5
123
  8
CURB-24-DIM
  6
CONTINUOUS
 62
     6
 10
153.32969993899999
 20
70.978773542499994
 30
0.0
 11
177.38627893899999
 21
70.978773542499994
 31
0.0
  0
LINE
  5
124
  8
SERVCLRDIM
  6
CONTINUOUS
 62
     1
 10
56.944430938999993
 20
72.976273542499996
 30
0.0
 11
57.611096938999992
 21
72.976273542499996
 31
0.0
  0
LINE
  5
125
  8
SERVCLRDIM
  6
CONTINUOUS
 62
     1
 10
188.89219993899999
 20
96.062765499999998
 30
0.0
 11
190.76719993899999
 21
96.375265499999998
 31
0.0
  0
LINE
  5
126
  8
SERVCLRDIM
  6
CONTINUOUS
 62
     1
 10
20.517199939000001
 20
96.062765499999998
 30
0.0
 11
18.642199939000001
 21
96.375265499999998
 31
0.0
  0
LINE
  5
127
  8
UNIT-SOL
  6
CONTINUOUS
 62
     7
 10
113.7373046875
 20
107.67611606209999
 30
0.0
 11
113.7373046875
 21
66.416273542499994
 31
0.0
  0
LINE
  5
128
  8
SERVCLRDIM
  6
CONTINUOUS
 62
     1
 10
154.76719993899999
 20
96.375265499999998
 30
0.0
 11
156.64219993899999
 21
96.687765499999998
 31
0.0
  0
LINE
  5
129
  8
SERVCLRDIM
  6
CONTINUOUS
 62
     1
 10
190.76719993899999
 20
96.375265499999998
 30
0.0
 11
177.59305900000001
 21
96.375265499999998
 31
0.0
  0
LINE
  5
12A
  8
SERVCLRDIM
  6
CONTINUOUS
 62
     1
 10
66.642199938999994
 20
96.375265499999998
 30
0.0
 11
50.913032938999997
 21
96.375265499999998
 31
0.0
  0
LINE
  5
12B
  8
SERVCLRDIM
  6
CONTINUOUS
 62
     1
 10
18.642199939000001
 20
96.375265499999998
 30
0.0
 11
46.371365938999993
 21
96.375265499999998
 31
0.0
  0
LINE
  5
12C
  8
SERVCLRDIM
  6
CONTINUOUS
 62
     1
 10
155.29449993899999
 20
96.375265499999998
 30
0.0
 11
172.51705899999999
 21
96.375265499999998
 31
0.0
  0
LINE
  5
12D
  8
SERVCLRDIM
  6
CONTINUOUS
 62
     1
 10
66.642199938999994
 20
96.375265499999998
 30
0.0
 11
64.767199938999994
 21
96.687765499999998
 31
0.0
  0
LINE
  5
12E
  8
SERVCLRDIM
  6
CONTINUOUS
 62
     1
 10
64.767199938999994
 20
96.062765499999998
 30
0.0
 11
66.642199938999994
 21
96.375265499999998
 31
0.0
  0
LINE
  5
12F
  8
SERVCLRDIM
  6
CONTINUOUS
 62
     1
 10
18.642199939000001
 20
96.375265499999998
 30
0.0
 11
20.517199939000001
 21
96.687765499999998
 31
0.0
  0
LINE
  5
130
  8
UNIT-DIM
  6
CONTINUOUS
 62
     7
 10
39.339351938999997
 20
105.80111606209999
 30
0.0
 11
39.964351938999997
 21
105.80111606209999
 31
0.0
  0
POLYLINE
  5
131
  8
UNIT-SOL
  6
CONTINUOUS
 62
     7
 66
     1
 10
0.0
 20
0.0
 30
0.0
 40
0.15
 41
0.15
  0
VERTEX
  5
1C4
  8
UNIT-SOL
  6
CONTINUOUS
 62
     7
 10
154.76719993899999
 20
107.67611606209999
 30
0.0
  0
VERTEX
  5
1C5
  8
UNIT-SOL
  6
CONTINUOUS
 62
     7
 10
66.642199938999994
 20
107.67611606209999
 30
0.0
  0
SEQEND
  5
1C6
  8
UNIT-SOL
  6
CONTINUOUS
 62
     7
  0
LINE
  5
135
  8
UNIT-DIM
  6
CONTINUOUS
 62
     7
 10
65.704699938999994
 20
107.67611606209999
 30
0.0
 11
38.401851938999997
 21
107.67611606209999
 31
0.0
  0
LINE
  5
136
  8
SERVCLEAR
  6
CENTER
 62
     1
 10
18.642199939000001
 20
107.67611606209999
 30
0.0
 11
190.76719993899999
 21
107.67611606209999
 31
0.0
  0
LINE
  5
137
  8
SERVCLRDIM
  6
CONTINUOUS
 62
     1
 10
156.64219993899999
 20
96.062765499999998
 30
0.0
 11
154.76719993899999
 21
96.375265499999998
 31
0.0
  0
LINE
  5
138
  8
UNIT-DIM
  6
CONTINUOUS
 62
     7
 10
152.51719993899999
 20
124.5481680621
 30
0.0
 11
154.39219993899999
 21
124.8606680621
 31
0.0
  0
LINE
  5
139
  8
SERVCLRDIM
  6
CONTINUOUS
 62
     1
 10
190.76719993899999
 20
96.375265499999998
 30
0.0
 11
188.89219993899999
 21
96.687765499999998
 31
0.0
  0
LINE
  5
13A
  8
UNIT-DIM
  6
CONTINUOUS
 62
     7
 10
68.892199938999994
 20
124.5481680621
 30
0.0
 11
67.017199938999994
 21
124.8606680621
 31
0.0
  0
LINE
  5
13B
  8
CURB-14-DIM
  6
CONTINUOUS
 62
     6
 10
150.14219993899999
 20
39.881796542499998
 30
0.0
 11
150.14219993899999
 21
39.256796542499998
 31
0.0
  0
LINE
  5
13C
  8
CURB-24-DIM
  6
CONTINUOUS
 62
     6
 10
150.14219993899999
 20
39.881796542499998
 30
0.0
 11
150.14219993899999
 21
39.256796542499998
 31
0.0
  0
LINE
  5
13D
  8
CURB-24
  6
HIDDEN
 62
     8
 10
150.17344993899999
 20
69.978773542499994
 30
0.0
 11
150.17344993899999
 21
66.573074542499995
 31
0.0
  0
LINE
  5
13E
  8
CURB-14
  6
HIDDEN
 62
     8
 10
150.17344993899999
 20
69.978773542499994
 30
0.0
 11
150.17344993899999
 21
66.573074542499995
 31
0.0
  0
POLYLINE
  5
13F
  8
CURB-24
  6
CONTINUOUS
 62
     6
 66
     1
 10
0.0
 20
0.0
 30
0.0
 40
0.15
 41
0.15
  0
VERTEX
  5
1C7
  8
CURB-24
  6
CONTINUOUS
 62
     6
 10
150.17344993899999
 20
66.260629542499998
 30
0.0
  0
VERTEX
  5
1C8
  8
CURB-24
  6
CONTINUOUS
 62
     6
 10
150.17344993899999
 20
46.978773542500001
 30
0.0
  0
SEQEND
  5
1C9
  8
CURB-24
  6
CONTINUOUS
 62
     6
  0
POLYLINE
  5
143
  8
CURB-14
  6
CONTINUOUS
 62
     6
 66
     1
 10
0.0
 20
0.0
 30
0.0
 40
0.15
 41
0.15
  0
VERTEX
  5
1CA
  8
CURB-14
  6
CONTINUOUS
 62
     6
 10
150.17344993899999
 20
66.260629542499998
 30
0.0
  0
VERTEX
  5
1CB
  8
CURB-14
  6
CONTINUOUS
 62
     6
 10
150.17344993899999
 20
56.978773542500001
 30
0.0
  0
SEQEND
  5
1CC
  8
CURB-14
  6
CONTINUOUS
 62
     6
  0
LINE
  5
147
  8
CURB-14
  6
HIDDEN
 62
     8
 10
152.01719993899999
 20
70.978773542499994
 30
0.0
 11
152.01719993899999
 21
69.978773542499994
 31
0.0
  0
LINE
  5
148
  8
CURB-24
  6
HIDDEN
 62
     8
 10
152.01719993899999
 20
70.978773542499994
 30
0.0
 11
152.01719993899999
 21
69.978773542499994
 31
0.0
  0
LINE
  5
149
  8
CURB-14-DIM
  6
CONTINUOUS
 62
     6
 10
152.01719993899999
 20
69.041273542499994
 30
0.0
 11
152.01719993899999
 21
38.319296542499998
 31
0.0
  0
LINE
  5
14A
  8
CURB-24-DIM
  6
CONTINUOUS
 62
     6
 10
152.01719993899999
 20
69.041273542499994
 30
0.0
 11
152.01719993899999
 21
38.319296542499998
 31
0.0
  0
LINE
  5
14B
  8
UNIT-DIM
  6
CONTINUOUS
 62
     7
 10
152.51719993899999
 20
125.1731680621
 30
0.0
 11
152.51719993899999
 21
124.5481680621
 31
0.0
  0
POLYLINE
  5
14C
  8
UNIT-SOL
  6
CONTINUOUS
 62
     7
 66
     1
 10
0.0
 20
0.0
 30
0.0
 40
0.15
 41
0.15
  0
VERTEX
  5
1CD
  8
UNIT-SOL
  6
CONTINUOUS
 62
     7
 10
154.76719993899999
 20
66.416273542499994
 30
0.0
  0
VERTEX
  5
1CE
  8
UNIT-SOL
  6
CONTINUOUS
 62
     7
 10
154.76719993899999
 20
107.67611606209999
 30
0.0
  0
SEQEND
  5
1CF
  8
UNIT-SOL
  6
CONTINUOUS
 62
     7
  0
LINE
  5
150
  8
UNIT-DIM
  6
CONTINUOUS
 62
     7
 10
154.76719993899999
 20
108.61361606209999
 30
0.0
 11
154.76719993899999
 21
126.1106680621
 31
0.0
  0
LINE
  5
151
  8
SERVCLRDIM
  6
CONTINUOUS
 62
     1
 10
156.64219993899999
 20
96.687765499999998
 30
0.0
 11
156.64219993899999
 21
96.062765499999998
 31
0.0
  0
LINE
  5
152
  8
UNIT-DIM
  6
CONTINUOUS
 62
     7
 10
67.017199938999994
 20
124.8606680621
 30
0.0
 11
68.892199938999994
 21
125.1731680621
 31
0.0
  0
LINE
  5
153
  8
UNIT-DIM
  6
CONTINUOUS
 62
     7
 10
152.89219993899999
 20
124.8606680621
 30
0.0
 11
118.808865939
 21
124.8606680621
 31
0.0
  0
LINE
  5
154
  8
UNIT-DIM
  6
CONTINUOUS
 62
     7
 10
68.517199938999994
 20
124.8606680621
 30
0.0
 11
102.600532939
 21
124.8606680621
 31
0.0
  0
LINE
  5
155
  8
UNIT-DIM
  6
CONTINUOUS
 62
     7
 10
154.39219993899999
 20
124.8606680621
 30
0.0
 11
152.51719993899999
 21
125.1731680621
 31
0.0
  0
LINE
  5
156
  8
CURB-14-DIM
  6
CONTINUOUS
 62
     6
 10
166.13627893899999
 20
56.978773542500001
 30
0.0
 11
165.82377893899999
 21
58.853773542500001
 31
0.0
  0
LINE
  5
157
  8
CURB-14-DIM
  6
CONTINUOUS
 62
     6
 10
166.13627893899999
 20
70.081064542500002
 30
0.0
 11
166.13627893899999
 21
67.106064542499993
 31
0.0
  0
LINE
  5
158
  8
CURB-14-DIM
  6
CONTINUOUS
 62
     6
 10
166.13627893899999
 20
57.8764825425
 30
0.0
 11
166.13627893899999
 21
60.851482542500001
 31
0.0
  0
LINE
  5
159
  8
CURB-14-DIM
  6
CONTINUOUS
 62
     6
 10
166.13627893899999
 20
70.978773542499994
 30
0.0
 11
165.82377893899999
 21
69.103773542499994
 31
0.0
  0
LINE
  5
15A
  8
CURB-14-DIM
  6
CONTINUOUS
 62
     6
 10
166.44877893899999
 20
58.853773542500001
 30
0.0
 11
166.13627893899999
 21
56.978773542500001
 31
0.0
  0
LINE
  5
15B
  8
CURB-14-DIM
  6
CONTINUOUS
 62
     6
 10
166.44877893899999
 20
69.103773542499994
 30
0.0
 11
166.13627893899999
 21
70.978773542499994
 31
0.0
  0
LINE
  5
15C
  8
CURB-24-DIM
  6
CONTINUOUS
 62
     6
 10
176.13627893899999
 20
46.978773542500001
 30
0.0
 11
175.82377893899999
 21
48.853773542500001
 31
0.0
  0
LINE
  5
15D
  8
CURB-24-DIM
  6
CONTINUOUS
 62
     6
 10
176.13627893899999
 20
70.348182542499998
 30
0.0
 11
176.13627893899999
 21
62.37318254249999
 31
0.0
  0
LINE
  5
15E
  8
CURB-24-DIM
  6
CONTINUOUS
 62
     6
 10
176.13627893899999
 20
47.609364542500003
 30
0.0
 11
176.13627893899999
 21
55.584364542499991
 31
0.0
  0
LINE
  5
15F
  8
CURB-24-DIM
  6
CONTINUOUS
 62
     6
 10
176.13627893899999
 20
70.978773542499994
 30
0.0
 11
175.82377893899999
 21
69.103773542499994
 31
0.0
  0
LINE
  5
160
  8
0
  6
CONTINUOUS
 62
     7
 10
0.0
 20
150.0
 30
0.0
 11
200.0
 21
150.0
 31
0.0
  0
LINE
  5
161
  8
CURB-24-DIM
  6
CONTINUOUS
 62
     6
 10
176.44877893899999
 20
69.103773542499994
 30
0.0
 11
176.13627893899999
 21
70.978773542499994
 31
0.0
  0
LINE
  5
162
  8
CURB-24-DIM
  6
CONTINUOUS
 62
     6
 10
176.44877893899999
 20
48.853773542500001
 30
0.0
 11
176.13627893899999
 21
46.978773542500001
 31
0.0
  0
LINE
  5
163
  8
SERVCLRDIM
  6
CONTINUOUS
 62
     1
 10
188.89219993899999
 20
96.687765499999998
 30
0.0
 11
188.89219993899999
 21
96.062765499999998
 31
0.0
  0
LINE
  5
164
  8
SERVCLEAR
  6
CENTER
 62
     1
 10
190.76719993899999
 20
107.67611606209999
 30
0.0
 11
190.76719993899999
 21
66.416273542499994
 31
0.0
  0
LINE
  5
165
  8
0
  6
CONTINUOUS
 62
     7
 10
200.0
 20
0.0
 30
0.0
 11
200.0
 21
150.0
 31
0.0
  0
ENDSEC
  0
EOF
