  0
SECTION
  2
HEADER
  9
$ACADVER
  1
AC1009
  9
$INSBASE
 10
0.0
 20
0.0
 30
0.0
  9
$EXTMIN
 10
-0.0053401687244445
 20
-0.004577287478071
 30
-0.0015258207003583
  9
$EXTMAX
 10
175.0053409836317
 20
150.00457798597
 30
0.0000000349246037
  9
$LIMMIN
 10
0.0
 20
0.0
  9
$LIMMAX
 10
175.0
 20
150.0
  9
$ORTHOMODE
 70
     0
  9
$REGENMODE
 70
     1
  9
$FILLMODE
 70
     1
  9
$QTEXTMODE
 70
     0
  9
$MIRRTEXT
 70
     0
  9
$DRAGMODE
 70
     2
  9
$LTSCALE
 40
9.777777777799999
  9
$OSMODE
 70
    37
  9
$ATTMODE
 70
     1
  9
$TEXTSIZE
 40
0.2
  9
$TRACEWID
 40
0.05
  9
$TEXTSTYLE
  7
STANDARD
  9
$CLAYER
  8
0
  9
$CELTYPE
  6
ByLayer
  9
$CECOLOR
 62
   256
  9
$DIMSCALE
 40
1.0
  9
$DIMASZ
 40
2.0
  9
$DIMEXO
 40
1.587499999999999
  9
$DIMDLI
 40
6.7555555555999991
  9
$DIMRND
 40
0.0
  9
$DIMDLE
 40
0.0
  9
$DIMEXE
 40
1.587499999999999
  9
$DIMTP
 40
0.0
  9
$DIMTM
 40
0.0
  9
$DIMTXT
 40
2.0
  9
$DIMCEN
 40
1.6000000000000001
  9
$DIMTSZ
 40
0.0
  9
$DIMTOL
 70
     0
  9
$DIMLIM
 70
     0
  9
$DIMTIH
 70
     1
  9
$DIMTOH
 70
     1
  9
$DIMSE1
 70
     0
  9
$DIMSE2
 70
     0
  9
$DIMTAD
 70
     0
  9
$DIMZIN
 70
     0
  9
$DIMBLK
  1
_FILLED
  9
$DIMASO
 70
     1
  9
$DIMSHO
 70
     1
  9
$DIMPOST
  1

  9
$DIMAPOST
  1

  9
$DIMALT
 70
     0
  9
$DIMALTD
 70
     2
  9
$DIMALTF
 40
25.399999999999999
  9
$DIMLFAC
 40
1.0
  9
$DIMTOFL
 70
     0
  9
$DIMTVP
 40
0.0
  9
$DIMTIX
 70
     0
  9
$DIMSOXD
 70
     0
  9
$DIMSAH
 70
     0
  9
$DIMBLK1
  1

  9
$DIMBLK2
  1

  9
$DIMSTYLE
  2
STANDARD
  9
$DIMCLRD
 70
     0
  9
$DIMCLRE
 70
     0
  9
$DIMCLRT
 70
     0
  9
$DIMTFAC
 40
1.0
  9
$DIMGAP
 40
0.09
  9
$LUNITS
 70
     2
  9
$LUPREC
 70
     4
  9
$SKETCHINC
 40
0.1
  9
$FILLETRAD
 40
0.0
  9
$AUNITS
 70
     0
  9
$AUPREC
 70
     0
  9
$MENU
  1
.
  9
$ELEVATION
 40
0.0
  9
$PELEVATION
 40
0.0
  9
$THICKNESS
 40
0.0
  9
$LIMCHECK
 70
     0
  9
$BLIPMODE
 70
     0
  9
$CHAMFERA
 40
0.0
  9
$CHAMFERB
 40
0.0
  9
$SKPOLY
 70
     0
  9
$TDCREATE
 40
2456262.5893588308
  9
$TDUPDATE
 40
2456262.5911253709
  9
$TDINDWG
 40
0.0017670023
  9
$TDUSRTIMER
 40
0.0017670023
  9
$USRTIMER
 70
     1
  9
$ANGBASE
 50
0.0
  9
$ANGDIR
 70
     0
  9
$PDMODE
 70
     3
  9
$PDSIZE
 40
7.9375
  9
$PLINEWID
 40
0.0
  9
$COORDS
 70
     1
  9
$SPLFRAME
 70
     0
  9
$SPLINETYPE
 70
     6
  9
$SPLINESEGS
 70
     8
  9
$ATTDIA
 70
     0
  9
$ATTREQ
 70
     1
  9
$HANDLING
 70
     1
  9
$HANDSEED
  5
275
  9
$SURFTAB1
 70
     6
  9
$SURFTAB2
 70
     6
  9
$SURFTYPE
 70
     6
  9
$SURFU
 70
     6
  9
$SURFV
 70
     6
  9
$UCSNAME
  2

  9
$UCSORG
 10
0.0
 20
0.0
 30
0.0
  9
$UCSXDIR
 10
1.0
 20
0.0
 30
0.0
  9
$UCSYDIR
 10
0.0
 20
1.0
 30
0.0
  9
$PUCSNAME
  2

  9
$PUCSORG
 10
0.0
 20
0.0
 30
0.0
  9
$PUCSXDIR
 10
1.0
 20
0.0
 30
0.0
  9
$PUCSYDIR
 10
0.0
 20
1.0
 30
0.0
  9
$USERI1
 70
     0
  9
$USERI2
 70
     0
  9
$USERI3
 70
     0
  9
$USERI4
 70
     0
  9
$USERI5
 70
     0
  9
$USERR1
 40
0.0
  9
$USERR2
 40
0.0
  9
$USERR3
 40
0.0
  9
$USERR4
 40
0.0
  9
$USERR5
 40
0.0
  9
$WORLDVIEW
 70
     1
  9
$SHADEDGE
 70
     3
  9
$SHADEDIF
 70
    70
  9
$TILEMODE
 70
     1
  9
$MAXACTVP
 70
    64
  9
$PLIMCHECK
 70
     0
  9
$PEXTMIN
 10
1.0000000000000000E+020
 20
1.0000000000000000E+020
 30
1.0000000000000000E+020
  9
$PEXTMAX
 10
-1.0000000000000000E+020
 20
-1.0000000000000000E+020
 30
-1.0000000000000000E+020
  9
$PLIMMIN
 10
0.0
 20
0.0
  9
$PLIMMAX
 10
12.0
 20
9.0
  9
$UNITMODE
 70
     0
  9
$VISRETAIN
 70
     1
  9
$PLINEGEN
 70
     0
  9
$PSLTSCALE
 70
     1
  0
ENDSEC
  0
SECTION
  2
TABLES
  0
TABLE
  2
VPORT
 70
     1
  0
VPORT
  2
*ACTIVE
 70
     0
 10
0.0
 20
0.0
 11
1.0
 21
1.0
 12
87.500000407453655
 22
75.000000349245994
 13
0.0
 23
0.0
 14
1.0
 24
1.0
 15
0.0
 25
0.0
 16
0.0
 26
0.0
 36
1.0
 17
0.0
 27
0.0
 37
0.0
 40
160.2289798730267
 41
1.1005586592178771
 42
50.0
 43
0.0
 44
0.0
 50
0.0
 51
0.0
 71
     0
 72
   100
 73
     1
 74
     1
 75
     0
 76
     0
 77
     0
 78
     0
  0
ENDTAB
  0
TABLE
  2
LTYPE
 70
     8
  0
LTYPE
  2
ByBlock
 70
     0
  3

 72
    65
 73
     0
 40
0.0
  0
LTYPE
  2
ByLayer
 70
     0
  3

 72
    65
 73
     0
 40
0.0
  0
LTYPE
  2
CONTINUOUS
 70
     0
  3
Solid line
 72
    65
 73
     0
 40
0.0
  0
LTYPE
  2
CENTER
 70
     0
  3
____ _ ____ _ ____ _ ____ _ ____ _ ____ _ ____
 72
    65
 73
     4
 40
0.6
 49
0.375
 49
-0.075
 49
0.075
 49
-0.075
  0
LTYPE
  2
HIDDEN
 70
     0
  3
- - - - - - - - - - - - - - - - - - - -
 72
    65
 73
     2
 40
0.2
 49
0.1
 49
-0.1
  0
LTYPE
  2
PHANTOM
 70
     0
  3
_____ _ _ _____ _ _ _____ _ _ _____
 72
    65
 73
     6
 40
0.8
 49
0.45
 49
-0.05
 49
0.1
 49
-0.05
 49
0.1
 49
-0.05
  0
LTYPE
  2
DOT
 70
     0
  3
. . . . . . . . . . . . . . . . . . . .
 72
    65
 73
     2
 40
0.2
 49
0.1
 49
-0.1
  0
LTYPE
  2
DASHED
 70
     0
  3
- - - - - - - - - - - - - - - - - - - -
 72
    65
 73
     2
 40
0.2
 49
0.1
 49
-0.1
  0
ENDTAB
  0
TABLE
  2
LAYER
 70
    16
  0
LAYER
  2
0
 70
     0
 62
     7
  6
CONTINUOUS
  0
LAYER
  2
DEFAULT_1
 70
     0
 62
     7
  6
CENTER
  0
LAYER
  2
DEFAULT_2
 70
     0
 62
     8
  6
HIDDEN
  0
LAYER
  2
DEFAULT_3
 70
     0
 62
     7
  6
PHANTOM
  0
LAYER
  2
CURB-14
 70
     0
 62
     6
  6
CONTINUOUS
  0
LAYER
  2
CURB-14-DIM
 70
     0
 62
     6
  6
CONTINUOUS
  0
LAYER
  2
CURB-24
 70
     0
 62
     6
  6
CONTINUOUS
  0
LAYER
  2
CURB-24-DIM
 70
     0
 62
     6
  6
CONTINUOUS
  0
LAYER
  2
HOOD
 70
     0
 62
     7
  6
CONTINUOUS
  0
LAYER
  2
NOTES
 70
     0
 62
     1
  6
CONTINUOUS
  0
LAYER
  2
SERVCLEAR
 70
     0
 62
     1
  6
CONTINUOUS
  0
LAYER
  2
SERVCLRDIM
 70
     0
 62
     1
  6
CONTINUOUS
  0
LAYER
  2
UNIT-DIM
 70
     0
 62
     7
  6
CONTINUOUS
  0
LAYER
  2
UNIT-DUCTS
 70
     0
 62
     2
  6
CONTINUOUS
  0
LAYER
  2
UNIT-SOL
 70
     0
 62
     7
  6
CONTINUOUS
  0
LAYER
  2
UNITDUCTDIM
 70
     0
 62
     2
  6
CONTINUOUS
  0
ENDTAB
  0
TABLE
  2
STYLE
 70
     4
  0
STYLE
  2
STANDARD
 70
     0
 40
0.0
 41
0.8
 50
0.0
 71
     0
 42
0.2
  3
txt
  4

  0
STYLE
  2
ANNOTATIVE
 70
     0
 40
0.0
 41
1.0
 50
0.0
 71
     0
 42
0.2
  3
txt
  4

  0
STYLE
  2
TEXTSTYLE_1
 70
     0
 40
0.0
 41
0.8
 50
0.0
 71
     0
 42
0.2
  3
gdt
  4

  0
STYLE
  2
TEXTSTYLE_2
 70
     0
 40
0.0
 41
8.0
 50
0.0
 71
     0
 42
0.2
  3
txt
  4

  0
ENDTAB
  0
TABLE
  2
VIEW
 70
     0
  0
ENDTAB
  0
TABLE
  2
UCS
 70
     0
  0
ENDTAB
  0
TABLE
  2
APPID
 70
     4
  0
APPID
  2
ACAD
 70
     0
  0
APPID
  2
ACADANNOTATIVE
 70
     0
  0
APPID
  2
ACAD_NAV_VCDISPLAY
 70
     0
  0
APPID
  2
ACAD_MLEADERVER
 70
     0
  0
ENDTAB
  0
TABLE
  2
DIMSTYLE
 70
     2
  0
DIMSTYLE
  2
STANDARD
 70
     0
  3

  4

  5

  6

  7

 40
1.0
 41
0.18
 42
0.0625
 43
0.38
 44
0.18
 45
0.0
 46
0.0
 47
0.0
 48
0.0
140
0.18
141
0.09
142
0.0
143
25.399999999999999
144
1.0
145
0.0
146
1.0
147
0.09
 71
     0
 72
     0
 73
     1
 74
     1
 75
     0
 76
     0
 77
     0
 78
     0
170
     0
171
     2
172
     0
173
     0
174
     0
175
     0
176
     0
177
     0
178
     0
  0
DIMSTYLE
  2
ANNOTATIVE
 70
     0
  3

  4

  5

  6

  7

 40
1.0
 41
0.18
 42
0.0625
 43
0.38
 44
0.18
 45
0.0
 46
0.0
 47
0.0
 48
0.0
140
0.18
141
0.09
142
0.0
143
25.399999999999999
144
1.0
145
0.0
146
1.0
147
0.09
 71
     0
 72
     0
 73
     1
 74
     1
 75
     0
 76
     0
 77
     0
 78
     0
170
     0
171
     2
172
     0
173
     0
174
     0
175
     0
176
     0
177
     0
178
     0
  0
ENDTAB
  0
ENDSEC
  0
SECTION
  2
BLOCKS
  0
BLOCK
  8
0
  2
$MODEL_SPACE
 70
     0
 10
0.0
 20
0.0
 30
0.0
  3
$MODEL_SPACE
  1

  0
ENDBLK
  5
6D
  8
0
  0
BLOCK
 67
     1
  8
0
  2
$PAPER_SPACE
 70
     0
 10
0.0
 20
0.0
 30
0.0
  3
$PAPER_SPACE
  1

  0
ENDBLK
  5
69
 67
     1
  8
0
  0
BLOCK
  8
0
  2
_FILLED
 70
     0
 10
0.0
 20
0.0
 30
0.0
  3
_FILLED
  1

  0
SOLID
  5
8C
  8
0
  6
ByBlock
 62
     0
 10
0.0
 20
0.0
 30
0.0
 11
-1.0
 21
0.1875
 31
0.0
 12
-1.0
 22
-0.1875
 32
0.0
 13
-1.0
 23
-0.1875
 33
0.0
  0
ENDBLK
  5
8D
  8
0
  6
ByBlock
 62
     0
  0
BLOCK
  8
UNIT-DIM
  6
CONTINUOUS
 62
     7
  2
*D1
 70
     1
 10
0.0
 20
0.0
 30
0.0
  3
*D1
  1

  0
TEXT
  5
90
  8
UNIT-DIM
  6
CONTINUOUS
 62
     7
 10
57.954166666666673
 20
42.066849966199989
 30
0.0
 40
1.75
  1
3'-1 7/8" (962)
 41
0.8
 72
     1
 11
66.9375
 21
42.066849966199989
 31
0.0
  0
LINE
  5
91
  8
UNIT-DIM
  6
CONTINUOUS
 62
     7
 10
48.0
 20
64.828773542899995
 30
0.0
 11
48.0
 21
42.066849966199989
 31
0.0
  0
LINE
  5
92
  8
UNIT-DIM
  6
CONTINUOUS
 62
     7
 10
48.0
 20
42.066849966199989
 30
0.0
 11
48.0
 21
41.35434996619999
 31
0.0
  0
LINE
  5
93
  8
UNIT-DIM
  6
CONTINUOUS
 62
     7
 10
85.875
 20
71.828773542899995
 30
0.0
 11
85.875
 21
42.066849966199989
 31
0.0
  0
LINE
  5
94
  8
UNIT-DIM
  6
CONTINUOUS
 62
     7
 10
85.875
 20
42.066849966199989
 30
0.0
 11
85.875
 21
41.35434996619999
 31
0.0
  0
LINE
  5
95
  8
UNIT-DIM
  6
CONTINUOUS
 62
     7
 10
48.0
 20
42.941849966199989
 30
0.0
 11
54.6875
 21
42.941849966199989
 31
0.0
  0
LINE
  5
96
  8
UNIT-DIM
  6
CONTINUOUS
 62
     7
 10
85.875
 20
42.941849966199989
 30
0.0
 11
79.1875
 21
42.941849966199989
 31
0.0
  0
INSERT
  5
97
  8
UNIT-DIM
  6
CONTINUOUS
 62
     7
  2
_FILLED
 10
48.0
 20
42.941849966199989
 30
0.0
 41
2.0
 42
2.0
 43
2.0
 50
180.0
  0
INSERT
  5
98
  8
UNIT-DIM
  6
CONTINUOUS
 62
     7
  2
_FILLED
 10
85.875
 20
42.941849966199989
 30
0.0
 41
2.0
 42
2.0
 43
2.0
  0
ENDBLK
  5
99
  8
0
  6
ByBlock
 62
     0
  0
BLOCK
  8
UNIT-DIM
  6
CONTINUOUS
 62
     7
  2
*D2
 70
     1
 10
0.0
 20
0.0
 30
0.0
  3
*D2
  1

  0
TEXT
  5
9C
  8
UNIT-DIM
  6
CONTINUOUS
 62
     7
 10
69.023838202033318
 20
88.453605886000005
 30
0.0
 40
1.75
  1
7" (177)
 41
0.8
 72
     2
 11
77.890504868699992
 21
88.453605886000005
 31
0.0
  0
LINE
  5
9D
  8
UNIT-DIM
  6
CONTINUOUS
 62
     7
 10
85.248308065000003
 20
73.416273542900001
 30
0.0
 11
83.283297380799979
 21
73.416273542900001
 31
0.0
  0
LINE
  5
9E
  8
UNIT-DIM
  6
CONTINUOUS
 62
     7
 10
84.870797380799999
 20
66.416273542900001
 30
0.0
 11
84.870797380799999
 21
61.416273542900001
 31
0.0
  0
LINE
  5
9F
  8
UNIT-DIM
  6
CONTINUOUS
 62
     7
 10
84.870797380799999
 20
73.416273542900001
 30
0.0
 11
84.870797380799999
 21
89.328605886000005
 31
0.0
  0
LINE
  5
A0
  8
UNIT-DIM
  6
CONTINUOUS
 62
     7
 10
84.870797380799999
 20
89.328605886000005
 30
0.0
 11
79.640504868699992
 21
89.328605886000005
 31
0.0
  0
INSERT
  5
A1
  8
UNIT-DIM
  6
CONTINUOUS
 62
     7
  2
_FILLED
 10
84.870797380799999
 20
66.416273542900001
 30
0.0
 41
2.0
 42
2.0
 43
2.0
 50
90.0
  0
INSERT
  5
A2
  8
UNIT-DIM
  6
CONTINUOUS
 62
     7
  2
_FILLED
 10
84.870797380799999
 20
73.416273542900001
 30
0.0
 41
2.0
 42
2.0
 43
2.0
 50
270.0
  0
ENDBLK
  5
A3
  8
0
  6
ByBlock
 62
     0
  0
BLOCK
  8
UNITDUCTDIM
  6
CONTINUOUS
 62
     2
  2
*D3
 70
     1
 10
0.0
 20
0.0
 30
0.0
  3
*D3
  1

  0
TEXT
  5
A6
  8
UNITDUCTDIM
  6
CONTINUOUS
 62
     2
 10
111.40735209509999
 20
109.4169286219
 30
0.0
 40
1.75
  1
1'-5/8'
 41
0.8
  0
TEXT
  5
A7
  8
UNITDUCTDIM
  6
CONTINUOUS
 62
     2
 10
111.40735209509999
 20
106.7919286219
 30
0.0
 40
1.75
  1
[321]
 41
0.8
  0
LINE
  5
A8
  8
UNITDUCTDIM
  6
CONTINUOUS
 62
     2
 10
89.875000006999997
 20
107.5086111804
 30
0.0
 11
89.875000006999997
 21
109.4169286219
 31
0.0
  0
LINE
  5
A9
  8
UNITDUCTDIM
  6
CONTINUOUS
 62
     2
 10
89.875000006999997
 20
109.4169286219
 30
0.0
 11
89.875000006999997
 21
111.8794286219
 31
0.0
  0
LINE
  5
AA
  8
UNITDUCTDIM
  6
CONTINUOUS
 62
     2
 10
102.503949702
 20
107.5086111804
 30
0.0
 11
102.503949702
 21
109.4169286219
 31
0.0
  0
LINE
  5
AB
  8
UNITDUCTDIM
  6
CONTINUOUS
 62
     2
 10
102.503949702
 20
109.4169286219
 30
0.0
 11
102.503949702
 21
111.8794286219
 31
0.0
  0
LINE
  5
AC
  8
UNITDUCTDIM
  6
CONTINUOUS
 62
     2
 10
89.875000006999997
 20
110.2919286219
 30
0.0
 11
96.189474854500006
 21
110.2919286219
 31
0.0
  0
LINE
  5
AD
  8
UNITDUCTDIM
  6
CONTINUOUS
 62
     2
 10
102.503949702
 20
110.2919286219
 30
0.0
 11
96.189474854500006
 21
110.2919286219
 31
0.0
  0
LINE
  5
AE
  8
UNITDUCTDIM
  6
CONTINUOUS
 62
     2
 10
96.189474854500006
 20
110.2919286219
 30
0.0
 11
109.65735209509999
 21
110.2919286219
 31
0.0
  0
INSERT
  5
AF
  8
UNITDUCTDIM
  6
CONTINUOUS
 62
     2
  2
_FILLED
 10
89.875000006999997
 20
110.2919286219
 30
0.0
 41
2.0
 42
2.0
 43
2.0
 50
180.0
  0
INSERT
  5
B0
  8
UNITDUCTDIM
  6
CONTINUOUS
 62
     2
  2
_FILLED
 10
102.503949702
 20
110.2919286219
 30
0.0
 41
2.0
 42
2.0
 43
2.0
  0
ENDBLK
  5
B1
  8
0
  6
ByBlock
 62
     0
  0
BLOCK
  8
UNITDUCTDIM
  6
CONTINUOUS
 62
     2
  2
*D4
 70
     1
 10
0.0
 20
0.0
 30
0.0
  3
*D4
  1

  0
TEXT
  5
B4
  8
UNITDUCTDIM
  6
CONTINUOUS
 62
     2
 10
129.58542182453331
 20
88.171111173400007
 30
0.0
 40
1.75
  1
2'-9 3/4" 
 41
0.8
 72
     1
 11
136.0020884912
 21
88.171111173400007
 31
0.0
  0
TEXT
  5
B5
  8
UNITDUCTDIM
  6
CONTINUOUS
 62
     2
 10
133.20208849119999
 20
85.546111173400007
 30
0.0
 40
1.75
  1
[857]
 41
0.8
 72
     1
 11
136.0020884912
 21
85.546111173400007
 31
0.0
  0
LINE
  5
B6
  8
UNITDUCTDIM
  6
CONTINUOUS
 62
     2
 10
104.09144970200001
 20
105.9211111801
 30
0.0
 11
129.00208849489999
 21
105.92111117490001
 31
0.0
  0
LINE
  5
B7
  8
UNITDUCTDIM
  6
CONTINUOUS
 62
     2
 10
129.00208849489999
 20
105.92111117490001
 30
0.0
 11
137.5895884947
 21
105.9211111731
 31
0.0
  0
LINE
  5
B8
  8
UNITDUCTDIM
  6
CONTINUOUS
 62
     2
 10
103.495125926
 20
72.1711111802
 30
0.0
 11
129.00208848790001
 21
72.171111174899991
 31
0.0
  0
LINE
  5
B9
  8
UNITDUCTDIM
  6
CONTINUOUS
 62
     2
 10
129.00208848790001
 20
72.171111174899991
 30
0.0
 11
137.58958848770001
 21
72.171111173100002
 31
0.0
  0
LINE
  5
BA
  8
UNITDUCTDIM
  6
CONTINUOUS
 62
     2
 10
136.00208849469999
 20
105.92111117340001
 30
0.0
 11
136.00208849469999
 21
91.671111173400007
 31
0.0
  0
LINE
  5
BB
  8
UNITDUCTDIM
  6
CONTINUOUS
 62
     2
 10
136.00208848770001
 20
72.171111173400007
 30
0.0
 11
136.0020884939
 21
84.671111173400007
 31
0.0
  0
INSERT
  5
BC
  8
UNITDUCTDIM
  6
CONTINUOUS
 62
     2
  2
_FILLED
 10
136.00208849469999
 20
105.92111117340001
 30
0.0
 41
2.0
 42
2.0
 43
2.0
 50
90.0
  0
INSERT
  5
BD
  8
UNITDUCTDIM
  6
CONTINUOUS
 62
     2
  2
_FILLED
 10
136.00208848770001
 20
72.171111173400007
 30
0.0
 41
2.0
 42
2.0
 43
2.0
 50
269.99999997190002
  0
ENDBLK
  5
BE
  8
0
  6
ByBlock
 62
     0
  0
BLOCK
  8
UNITDUCTDIM
  6
CONTINUOUS
 62
     2
  2
*D5
 70
     1
 10
0.0
 20
0.0
 30
0.0
  3
*D5
  1

  0
TEXT
  5
C1
  8
UNITDUCTDIM
  6
CONTINUOUS
 62
     2
 10
59.460763123666673
 20
94.794116694400003
 30
0.0
 40
1.75
  1
2'-4 3/8" [721]
 41
0.8
 72
     1
 11
68.444096457000001
 21
94.794116694400003
 31
0.0
  0
LINE
  5
C2
  8
UNITDUCTDIM
  6
CONTINUOUS
 62
     2
 10
54.250000002199997
 20
87.675221458400003
 30
0.0
 11
54.250000002299991
 21
94.794116694400003
 31
0.0
  0
LINE
  5
C3
  8
UNITDUCTDIM
  6
CONTINUOUS
 62
     2
 10
54.250000002299991
 20
94.794116694400003
 30
0.0
 11
54.250000002299991
 21
97.256616694500011
 31
0.0
  0
LINE
  5
C4
  8
UNITDUCTDIM
  6
CONTINUOUS
 62
     2
 10
82.638192911800004
 20
87.675221458400003
 30
0.0
 11
82.638192911800004
 21
88.744138462000009
 31
0.0
  0
LINE
  5
C5
  8
UNITDUCTDIM
  6
CONTINUOUS
 62
     2
 10
82.638192911800004
 20
90.193492308099977
 30
0.0
 11
82.638192911800004
 21
94.794116694400003
 31
0.0
  0
LINE
  5
C6
  8
UNITDUCTDIM
  6
CONTINUOUS
 62
     2
 10
82.638192911800004
 20
94.794116694400003
 30
0.0
 11
82.638192911800004
 21
97.256616694399995
 31
0.0
  0
LINE
  5
C7
  8
UNITDUCTDIM
  6
CONTINUOUS
 62
     2
 10
54.250000002299991
 20
95.669116694500005
 30
0.0
 11
49.250000002299991
 21
95.669116694500005
 31
0.0
  0
LINE
  5
C8
  8
UNITDUCTDIM
  6
CONTINUOUS
 62
     2
 10
82.638192911800004
 20
95.669116694400003
 30
0.0
 11
87.638192911800004
 21
95.669116694400003
 31
0.0
  0
INSERT
  5
C9
  8
UNITDUCTDIM
  6
CONTINUOUS
 62
     2
  2
_FILLED
 10
54.250000002299991
 20
95.669116694500005
 30
0.0
 41
2.0
 42
2.0
 43
2.0
 50
359.9999999998999
  0
INSERT
  5
CA
  8
UNITDUCTDIM
  6
CONTINUOUS
 62
     2
  2
_FILLED
 10
82.638192911800004
 20
95.669116694400003
 30
0.0
 41
2.0
 42
2.0
 43
2.0
 50
179.99999999990001
  0
ENDBLK
  5
CB
  8
0
  6
ByBlock
 62
     0
  0
BLOCK
  8
UNITDUCTDIM
  6
CONTINUOUS
 62
     2
  2
*D6
 70
     1
 10
0.0
 20
0.0
 30
0.0
  3
*D6
  1

  0
TEXT
  5
CE
  8
UNITDUCTDIM
  6
CONTINUOUS
 62
     2
 10
142.35208848689999
 20
60.8335071765
 30
0.0
 40
1.75
  1
5-3/4" [146] 
 41
0.8
  0
LINE
  5
CF
  8
UNITDUCTDIM
  6
CONTINUOUS
 62
     2
 10
108.24912541419999
 20
66.416273542900001
 30
0.0
 11
115.2905599346
 21
66.416273542900001
 31
0.0
  0
LINE
  5
D0
  8
UNITDUCTDIM
  6
CONTINUOUS
 62
     2
 10
117.18685623090001
 20
66.416273542900001
 30
0.0
 11
122.21204141610001
 21
66.416273542900001
 31
0.0
  0
LINE
  5
D1
  8
UNITDUCTDIM
  6
CONTINUOUS
 62
     2
 10
123.91870808269999
 20
66.416273542900001
 30
0.0
 11
137.5895884869
 21
66.416273542900001
 31
0.0
  0
LINE
  5
D2
  8
UNITDUCTDIM
  6
CONTINUOUS
 62
     2
 10
104.09144969499999
 20
72.171111180400004
 30
0.0
 11
137.5895884869
 21
72.171111180400004
 31
0.0
  0
LINE
  5
D3
  8
UNITDUCTDIM
  6
CONTINUOUS
 62
     2
 10
136.00208848689999
 20
66.416273542900001
 30
0.0
 11
136.00208848689999
 21
61.7085071765
 31
0.0
  0
LINE
  5
D4
  8
UNITDUCTDIM
  6
CONTINUOUS
 62
     2
 10
136.00208848689999
 20
61.7085071765
 30
0.0
 11
140.60208848689999
 21
61.7085071765
 31
0.0
  0
LINE
  5
D5
  8
UNITDUCTDIM
  6
CONTINUOUS
 62
     2
 10
136.00208848689999
 20
72.171111180400004
 30
0.0
 11
136.00208848689999
 21
77.171111180400004
 31
0.0
  0
INSERT
  5
D6
  8
UNITDUCTDIM
  6
CONTINUOUS
 62
     2
  2
_FILLED
 10
136.00208848689999
 20
66.416273542900001
 30
0.0
 41
2.0
 42
2.0
 43
2.0
 50
90.0
  0
INSERT
  5
D7
  8
UNITDUCTDIM
  6
CONTINUOUS
 62
     2
  2
_FILLED
 10
136.00208848689999
 20
72.171111180400004
 30
0.0
 41
2.0
 42
2.0
 43
2.0
 50
270.0
  0
ENDBLK
  5
D8
  8
0
  6
ByBlock
 62
     0
  0
BLOCK
  8
UNITDUCTDIM
  6
CONTINUOUS
 62
     2
  2
*D7
 70
     1
 10
0.0
 20
0.0
 30
0.0
  3
*D7
  1

  0
TEXT
  5
DB
  8
UNITDUCTDIM
  6
CONTINUOUS
 62
     2
 10
26.201008283233332
 20
79.843427703399996
 30
0.0
 40
1.75
  1
1'-1 7/8"
 41
0.8
 72
     1
 11
31.217674949900001
 21
79.843427703399996
 31
0.0
  0
TEXT
  5
DC
  8
UNITDUCTDIM
  6
CONTINUOUS
 62
     2
 10
27.48434161656666
 20
77.218427703399996
 30
0.0
 40
1.75
  1
[354] 
 41
0.8
 72
     1
 11
31.217674949900001
 21
77.218427703399996
 31
0.0
  0
LINE
  5
DD
  8
UNITDUCTDIM
  6
CONTINUOUS
 62
     2
 10
52.662500000000001
 20
72.166273543199992
 30
0.0
 11
29.630174948499999
 21
72.166273546900001
 31
0.0
  0
LINE
  5
DE
  8
UNITDUCTDIM
  6
CONTINUOUS
 62
     2
 10
52.662500002200012
 20
86.087721458700003
 30
0.0
 11
29.630174950800001
 21
86.087721462399983
 31
0.0
  0
LINE
  5
DF
  8
UNITDUCTDIM
  6
CONTINUOUS
 62
     2
 10
31.217674948500001
 20
72.166273546599996
 30
0.0
 11
31.217674948500001
 21
76.343427703399996
 31
0.0
  0
LINE
  5
E0
  8
UNITDUCTDIM
  6
CONTINUOUS
 62
     2
 10
31.217674950799999
 20
86.087721462199994
 30
0.0
 11
31.217674948500001
 21
83.343427703399996
 31
0.0
  0
INSERT
  5
E1
  8
UNITDUCTDIM
  6
CONTINUOUS
 62
     2
  2
_FILLED
 10
31.217674948500001
 20
72.166273546599996
 30
0.0
 41
2.0
 42
2.0
 43
2.0
 50
270.0
  0
INSERT
  5
E2
  8
UNITDUCTDIM
  6
CONTINUOUS
 62
     2
  2
_FILLED
 10
31.217674950799999
 20
86.087721462199994
 30
0.0
 41
2.0
 42
2.0
 43
2.0
 50
89.999999953200003
  0
ENDBLK
  5
E3
  8
0
  6
ByBlock
 62
     0
  0
BLOCK
  8
UNITDUCTDIM
  6
CONTINUOUS
 62
     2
  2
*D8
 70
     1
 10
0.0
 20
0.0
 30
0.0
  3
*D8
  1

  0
TEXT
  5
E6
  8
UNITDUCTDIM
  6
CONTINUOUS
 62
     2
 10
13.983983134633331
 20
59.693757740499997
 30
0.0
 40
1.75
  1
5-3/4" [146]
 41
0.8
 72
     2
 11
28.450649801299999
 21
59.693757740499997
 31
0.0
  0
LINE
  5
E7
  8
UNITDUCTDIM
  6
CONTINUOUS
 62
     2
 10
46.939538690200003
 20
66.416273542900001
 30
0.0
 11
35.364501372100001
 21
66.416273542900001
 31
0.0
  0
LINE
  5
E8
  8
UNITDUCTDIM
  6
CONTINUOUS
 62
     2
 10
52.662500000000001
 20
72.166273542900001
 30
0.0
 11
35.364501372100001
 21
72.166273542900001
 31
0.0
  0
LINE
  5
E9
  8
UNITDUCTDIM
  6
CONTINUOUS
 62
     2
 10
36.9520013721
 20
66.416273542900001
 30
0.0
 11
36.9520013721
 21
60.568757740499997
 31
0.0
  0
LINE
  5
EA
  8
UNITDUCTDIM
  6
CONTINUOUS
 62
     2
 10
36.9520013721
 20
60.568757740499997
 30
0.0
 11
30.200649801299999
 21
60.568757740499997
 31
0.0
  0
LINE
  5
EB
  8
UNITDUCTDIM
  6
CONTINUOUS
 62
     2
 10
36.9520013721
 20
72.166273542900001
 30
0.0
 11
36.9520013721
 21
77.166273542900001
 31
0.0
  0
INSERT
  5
EC
  8
UNITDUCTDIM
  6
CONTINUOUS
 62
     2
  2
_FILLED
 10
36.9520013721
 20
66.416273542900001
 30
0.0
 41
2.0
 42
2.0
 43
2.0
 50
90.0
  0
INSERT
  5
ED
  8
UNITDUCTDIM
  6
CONTINUOUS
 62
     2
  2
_FILLED
 10
36.9520013721
 20
72.166273542900001
 30
0.0
 41
2.0
 42
2.0
 43
2.0
 50
270.0
  0
ENDBLK
  5
EE
  8
0
  6
ByBlock
 62
     0
  0
BLOCK
  8
UNITDUCTDIM
  6
CONTINUOUS
 62
     2
  2
*D9
 70
     1
 10
0.0
 20
0.0
 30
0.0
  3
*D9
  1

  0
TEXT
  5
F1
  8
UNITDUCTDIM
  6
CONTINUOUS
 62
     2
 10
33.268276984233331
 20
90.914629985499985
 30
0.0
 40
1.75
  1
6-1/4
 41
0.8
 72
     2
 11
39.334943650900001
 21
90.914629985499985
 31
0.0
  0
TEXT
  5
F2
  8
UNITDUCTDIM
  6
CONTINUOUS
 62
     2
 10
39.334943650900001
 20
90.914629985499985
 30
0.0
 40
1.75
  1
 
 41
0.8
 72
     2
 11
40.7349436509
 21
90.914629985499985
 31
0.0
  0
TEXT
  5
F3
  8
UNITDUCTDIM
  6
CONTINUOUS
 62
     2
 10
33.268276984233331
 20
88.289629985499985
 30
0.0
 40
1.75
  1
[
 41
0.8
 72
     2
 11
33.7349436509
 21
88.289629985499985
 31
0.0
  0
TEXT
  5
F4
  8
UNITDUCTDIM
  6
CONTINUOUS
 62
     2
 10
34.668276984233337
 20
88.289629985499985
 30
0.0
 40
1.75
  1
159
 41
0.8
 72
     2
 11
37.934943650900003
 21
88.289629985499985
 31
0.0
  0
TEXT
  5
F5
  8
UNITDUCTDIM
  6
CONTINUOUS
 62
     2
 10
38.868276984233333
 20
88.289629985499985
 30
0.0
 40
1.75
  1
]
 41
0.8
 72
     2
 11
39.334943650900001
 21
88.289629985499985
 31
0.0
  0
LINE
  5
F6
  8
UNITDUCTDIM
  6
CONTINUOUS
 62
     2
 10
54.250000002500002
 20
87.675221458400003
 30
0.0
 11
54.250000003399997
 21
93.377129983299994
 31
0.0
  0
LINE
  5
F7
  8
UNITDUCTDIM
  6
CONTINUOUS
 62
     2
 10
54.2500000032
 20
91.789629983300003
 30
0.0
 11
51.125000000299991
 21
91.789629983799983
 31
0.0
  0
LINE
  5
F8
  8
UNITDUCTDIM
  6
CONTINUOUS
 62
     2
 10
47.999999997399989
 20
91.789629984300007
 30
0.0
 11
51.125000000299991
 21
91.789629983799983
 31
0.0
  0
LINE
  5
F9
  8
UNITDUCTDIM
  6
CONTINUOUS
 62
     2
 10
51.125000000299991
 20
91.789629983799983
 30
0.0
 11
42.4849436509
 21
91.789629983799983
 31
0.0
  0
INSERT
  5
FA
  8
UNITDUCTDIM
  6
CONTINUOUS
 62
     2
  2
_FILLED
 10
54.2500000032
 20
91.789629983300003
 30
0.0
 41
2.0
 42
2.0
 43
2.0
 50
359.99999999080001
  0
INSERT
  5
FB
  8
UNITDUCTDIM
  6
CONTINUOUS
 62
     2
  2
_FILLED
 10
47.999999997399989
 20
91.789629984300007
 30
0.0
 41
2.0
 42
2.0
 43
2.0
 50
179.99999999080001
  0
ENDBLK
  5
FC
  8
0
  6
ByBlock
 62
     0
  0
ENDSEC
  0
SECTION
  2
ENTITIES
  0
SOLID
  5
FD
  8
SERVCLRDIM
  6
CONTINUOUS
 62
     1
 10
43.733235416099987
 20
64.416273542900001
 30
0.0
 11
43.066569416100002
 21
64.416273542900001
 31
0.0
 12
43.399901416099993
 22
66.416273542900001
 32
0.0
 13
43.399901416099993
 23
66.416273542900001
 33
0.0
  0
SOLID
  5
FE
  8
SERVCLRDIM
  6
CONTINUOUS
 62
     1
 10
43.733235416099987
 20
72.976273542900003
 30
0.0
 11
43.399901416099993
 21
70.976273542900003
 31
0.0
 12
43.066569416100002
 22
72.976273542900003
 32
0.0
 13
43.066569416100002
 23
72.976273542900003
 33
0.0
  0
SOLID
  5
FF
  8
SERVCLRDIM
  6
CONTINUOUS
 62
     1
 10
130.1275772422
 20
102.2777961692
 30
0.0
 11
128.2525772422
 21
102.5902961692
 31
0.0
 12
130.1275772422
 22
102.9027961692
 32
0.0
 13
130.1275772422
 23
102.9027961692
 33
0.0
  0
SOLID
  5
100
  8
SERVCLRDIM
  6
CONTINUOUS
 62
     1
 10
162.3775772422
 20
102.2777961692
 30
0.0
 11
162.3775772422
 21
102.9027961692
 31
0.0
 12
164.2525772422
 22
102.5902961692
 32
0.0
 13
164.2525772422
 23
102.5902961692
 33
0.0
  0
SOLID
  5
101
  8
SERVCLRDIM
  6
CONTINUOUS
 62
     1
 10
46.124999999999993
 20
102.27713254290001
 30
0.0
 11
46.124999999999993
 21
102.90213254290001
 31
0.0
 12
48.0
 22
102.58963254290001
 32
0.0
 13
48.0
 23
102.58963254290001
 33
0.0
  0
SOLID
  5
102
  8
SERVCLRDIM
  6
CONTINUOUS
 62
     1
 10
1.875
 20
102.27713254290001
 30
0.0
 11
0.0
 21
102.58963254290001
 31
0.0
 12
1.875
 22
102.90213254290001
 32
0.0
 13
1.875
 23
102.90213254290001
 33
0.0
  0
SOLID
  5
103
  8
CURB-14-DIM
  6
CONTINUOUS
 62
     6
 10
116.5848668957
 20
69.103773542900001
 30
0.0
 11
115.9598668957
 21
69.103773542900001
 31
0.0
 12
116.2723668957
 22
70.978773542900001
 32
0.0
 13
116.2723668957
 23
70.978773542900001
 33
0.0
  0
SOLID
  5
104
  8
CURB-14-DIM
  6
CONTINUOUS
 62
     6
 10
116.5848668957
 20
58.853773542900001
 30
0.0
 11
116.2723668957
 21
56.978773542900001
 31
0.0
 12
115.9598668957
 22
58.853773542900001
 32
0.0
 13
115.9598668957
 23
58.853773542900001
 33
0.0
  0
SOLID
  5
105
  8
CURB-14-DIM
  6
CONTINUOUS
 62
     6
 10
102.625
 20
39.256796542899998
 30
0.0
 11
102.625
 21
39.881796542899998
 31
0.0
 12
104.5
 22
39.569296542899998
 32
0.0
 13
104.5
 23
39.569296542899998
 33
0.0
  0
SOLID
  5
106
  8
CURB-14-DIM
  6
CONTINUOUS
 62
     6
 10
52.875
 20
39.256796542899998
 30
0.0
 11
51.0
 21
39.569296542899998
 31
0.0
 12
52.875
 22
39.881796542899998
 32
0.0
 13
52.875
 23
39.881796542899998
 33
0.0
  0
SOLID
  5
107
  8
CURB-24-DIM
  6
CONTINUOUS
 62
     6
 10
52.875
 20
39.256796542899998
 30
0.0
 11
51.0
 21
39.569296542899998
 31
0.0
 12
52.875
 22
39.881796542899998
 32
0.0
 13
52.875
 23
39.881796542899998
 33
0.0
  0
SOLID
  5
108
  8
CURB-24-DIM
  6
CONTINUOUS
 62
     6
 10
102.625
 20
39.256796542899998
 30
0.0
 11
102.625
 21
39.881796542899998
 31
0.0
 12
104.5
 22
39.569296542899998
 32
0.0
 13
104.5
 23
39.569296542899998
 33
0.0
  0
SOLID
  5
109
  8
CURB-24-DIM
  6
CONTINUOUS
 62
     6
 10
123.4981867179
 20
69.103773542900001
 30
0.0
 11
122.8731867179
 21
69.103773542900001
 31
0.0
 12
123.1856867179
 22
70.978773542900001
 32
0.0
 13
123.1856867179
 23
70.978773542900001
 33
0.0
  0
SOLID
  5
10A
  8
CURB-24-DIM
  6
CONTINUOUS
 62
     6
 10
123.4981867179
 20
48.853773542900001
 30
0.0
 11
123.1856867179
 21
46.978773542900001
 31
0.0
 12
122.8731867179
 22
48.853773542900001
 32
0.0
 13
122.8731867179
 23
48.853773542900001
 33
0.0
  0
SOLID
  5
10B
  8
UNIT-DIM
  6
CONTINUOUS
 62
     7
 10
21.322151999999999
 20
105.7912735429
 30
0.0
 11
20.697151999999999
 21
105.7912735429
 31
0.0
 12
21.009651999999999
 22
107.6662735429
 32
0.0
 13
21.009651999999999
 23
107.6662735429
 33
0.0
  0
SOLID
  5
10C
  8
UNIT-DIM
  6
CONTINUOUS
 62
     7
 10
21.322151999999999
 20
68.291273542900001
 30
0.0
 11
21.009651999999999
 21
66.416273542900001
 31
0.0
 12
20.697151999999999
 22
68.291273542900001
 32
0.0
 13
20.697151999999999
 23
68.291273542900001
 33
0.0
  0
SOLID
  5
10D
  8
UNIT-DIM
  6
CONTINUOUS
 62
     7
 10
49.875
 20
117.8347530337
 30
0.0
 11
48.0
 21
118.1472530337
 31
0.0
 12
49.875
 22
118.4597530337
 32
0.0
 13
49.875
 23
118.4597530337
 33
0.0
  0
SOLID
  5
10E
  8
UNIT-DIM
  6
CONTINUOUS
 62
     7
 10
105.625
 20
117.8347530337
 30
0.0
 11
105.625
 21
118.4597530337
 31
0.0
 12
107.5
 22
118.1472530337
 32
0.0
 13
107.5
 23
118.1472530337
 33
0.0
  0
DIMENSION
  5
10F
  8
UNIT-DIM
  6
CONTINUOUS
 62
     7
  2
*D1
 10
85.875
 20
42.941849966199989
 30
0.0
 11
66.9375
 21
42.941849966199989
 31
0.0
 70
   128
 13
48.0
 23
66.416273542900001
 33
0.0
 14
85.875
 24
73.416273542900001
 34
0.0
  0
DIMENSION
  5
110
  8
UNIT-DIM
  6
CONTINUOUS
 62
     7
  2
*D2
 10
84.870797380799999
 20
73.416273542900001
 30
0.0
 11
72.290504868699998
 21
89.328605886000005
 31
0.0
 70
   128
 13
48.0
 23
66.416273542900001
 33
0.0
 14
81.695797380800016
 24
73.416273542900001
 34
0.0
 50
90.0
  0
DIMENSION
  5
111
  8
UNITDUCTDIM
  6
CONTINUOUS
 62
     2
  2
*D3
 10
102.503949702
 20
110.2919286219
 30
0.0
 11
116.3073520951
 21
108.9794286219
 31
0.0
 70
   128
 13
89.875000006999997
 23
105.9211111804
 33
0.0
 14
102.503949702
 24
105.9211111804
 34
0.0
  0
DIMENSION
  5
112
  8
UNITDUCTDIM
  6
CONTINUOUS
 62
     2
  2
*D4
 10
136.00208848770001
 20
72.171111173400007
 30
0.0
 11
136.0020884912
 21
87.733611173400007
 31
0.0
 70
   128
 13
102.503949702
 23
105.9211111804
 33
0.0
 14
101.90762592599999
 24
72.171111180500006
 34
0.0
 50
269.9999999881
  0
DIMENSION
  5
113
  8
UNITDUCTDIM
  6
CONTINUOUS
 62
     2
  2
*D5
 10
82.638192911800004
 20
95.669116694400003
 30
0.0
 11
68.444096457000001
 21
95.669116694400003
 31
0.0
 70
   128
 13
54.250000002199997
 23
86.087721458399983
 33
0.0
 14
82.638192911800004
 24
86.087721458399983
 34
0.0
 50
359.9999999998999
  0
DIMENSION
  5
114
  8
UNITDUCTDIM
  6
CONTINUOUS
 62
     2
  2
*D6
 10
136.00208848689999
 20
72.171111180400004
 30
0.0
 11
151.45208848690001
 21
61.7085071765
 31
0.0
 70
   128
 13
106.6616254142
 23
66.416273542900001
 33
0.0
 14
102.503949695
 24
72.171111180400004
 34
0.0
 50
90.0
  0
DIMENSION
  5
115
  8
UNITDUCTDIM
  6
CONTINUOUS
 62
     2
  2
*D7
 10
31.217674950799999
 20
86.087721462199994
 30
0.0
 11
31.217674949900001
 21
79.405927703399996
 31
0.0
 70
   128
 13
54.25
 23
72.166273542900001
 33
0.0
 14
54.250000002199997
 24
86.087721458399983
 34
0.0
 50
89.999999990799992
  0
DIMENSION
  5
116
  8
UNITDUCTDIM
  6
CONTINUOUS
 62
     2
  2
*D8
 10
36.9520013721
 20
72.166273542900001
 30
0.0
 11
20.050649801300001
 21
60.568757740499997
 31
0.0
 70
   128
 13
48.527038690200001
 23
66.416273542900001
 33
0.0
 14
54.25
 24
72.166273542900001
 34
0.0
 50
90.0
  0
DIMENSION
  5
117
  8
UNITDUCTDIM
  6
CONTINUOUS
 62
     2
  2
*D9
 10
47.999999997399989
 20
91.789629984300007
 30
0.0
 11
35.834943650900001
 21
90.477129985499985
 31
0.0
 70
   128
 13
54.250000002199997
 23
86.087721458399983
 33
0.0
 14
48.0
 24
107.6662735429
 34
0.0
 50
179.99999999080001
  0
TEXT
  5
118
  8
SERVCLRDIM
  6
CONTINUOUS
 62
     1
 10
3.8091720914999989
 20
55.582436498199989
 30
0.0
 40
1.75
  1
OVERALL HEIGHT & CLEARANCE
 41
0.8
  0
TEXT
  5
119
  8
SERVCLRDIM
  6
CONTINUOUS
 62
     1
 10
3.8091720914999989
 20
52.957436498200003
 30
0.0
 40
1.75
  1
AREA WILL BE DETERMINED BY
 41
0.8
  0
TEXT
  5
11A
  8
SERVCLRDIM
  6
CONTINUOUS
 62
     1
 10
3.8091720914999989
 20
50.332436498200003
 30
0.0
 40
1.75
  1
ASSEMBLY OF INSTALLER. SEE
 41
0.8
  0
TEXT
  5
11B
  8
SERVCLRDIM
  6
CONTINUOUS
 62
     1
 10
3.8091720914999989
 20
47.707436498199989
 30
0.0
 40
1.75
  1
CERTIFIED DRAWING FOR
 41
0.8
  0
TEXT
  5
11C
  8
SERVCLRDIM
  6
CONTINUOUS
 62
     1
 10
3.8091720914999989
 20
45.082436498199989
 30
0.0
 40
1.75
  1
FURTHER DETAIL.
 41
0.8
  0
TEXT
  5
11D
  8
CURB-14-DIM
  6
CONTINUOUS
 62
     6
 10
113.5487654731
 20
63.75091792380001
 30
0.0
 40
1.75
  1
1'-2"
 41
0.8
 72
     1
 11
115.99876547309999
 21
63.75091792380001
 31
0.0
  0
TEXT
  5
11E
  8
CURB-14-DIM
  6
CONTINUOUS
 62
     6
 10
76.876354748500006
 20
38.694296542899998
 30
0.0
 40
1.75
  1
4'-5 1/2"
 41
0.8
 72
     1
 11
82.126354748500006
 21
38.694296542899998
 31
0.0
  0
TEXT
  5
11F
  8
UNIT-DIM
  6
CONTINUOUS
 62
     7
 10
16.134651999999999
 20
87.995276542900015
 30
0.0
 40
1.75
  1
3'-5 1/4"
 41
0.8
 72
     1
 11
21.384651999999999
 21
87.995276542900015
 31
0.0
  0
TEXT
  5
120
  8
UNIT-DIM
  6
CONTINUOUS
 62
     7
 10
86.579166666666666
 20
117.2722530337
 30
0.0
 40
1.75
  1
4'-11 1/2"
 41
0.8
 72
     1
 11
92.0625
 21
117.2722530337
 31
0.0
  0
TEXT
  5
121
  8
UNIT-DIM
  6
CONTINUOUS
 62
     7
 10
18.234652000000001
 20
85.078609542899997
 30
0.0
 40
1.75
  1
(1048)
 41
0.8
 72
     1
 11
21.384651999999999
 21
85.078609542899997
 31
0.0
  0
TEXT
  5
122
  8
UNIT-DIM
  6
CONTINUOUS
 62
     7
 10
89.145833333333314
 20
114.3555870337
 30
0.0
 40
1.75
  1
(1510)
 41
0.8
 72
     1
 11
92.0625
 21
114.3555870337
 31
0.0
  0
TEXT
  5
123
  8
CURB-14-DIM
  6
CONTINUOUS
 62
     6
 10
113.1536994387
 20
61.307445284899998
 30
0.0
 40
1.75
  1
(356)
 41
0.8
 72
     1
 11
115.9536994387
 21
61.307445284899998
 31
0.0
  0
TEXT
  5
124
  8
CURB-14-DIM
  6
CONTINUOUS
 62
     6
 10
78.85968808183334
 20
35.777629542900002
 30
0.0
 40
1.75
  1
(1359)
 41
0.8
 72
     1
 11
82.126354748500006
 21
35.777629542900002
 31
0.0
  0
TEXT
  5
125
  8
CURB-24-DIM
  6
CONTINUOUS
 62
     6
 10
78.85968808183334
 20
35.777629542900002
 30
0.0
 40
1.75
  1
(1359)
 41
0.8
 72
     1
 11
82.126354748500006
 21
35.777629542900002
 31
0.0
  0
TEXT
  5
126
  8
CURB-24-DIM
  6
CONTINUOUS
 62
     6
 10
76.876354748500006
 20
38.694296542899998
 30
0.0
 40
1.75
  1
4'-5 1/2"
 41
0.8
 72
     1
 11
82.126354748500006
 21
38.694296542899998
 31
0.0
  0
TEXT
  5
127
  8
CURB-24-DIM
  6
CONTINUOUS
 62
     6
 10
121.99402005123331
 20
59.659284542899996
 30
0.0
 40
1.75
  1
2'
 41
0.8
 72
     1
 11
122.8106867179
 21
59.659284542899996
 31
0.0
  0
TEXT
  5
128
  8
CURB-24-DIM
  6
CONTINUOUS
 62
     6
 10
120.36068671789999
 20
56.742618542899997
 30
0.0
 40
1.75
  1
(610)
 41
0.8
 72
     1
 11
122.8106867179
 21
56.742618542899997
 31
0.0
  0
TEXT
  5
129
  8
SERVCLRDIM
  6
CONTINUOUS
 62
     1
 10
148.0051893356333
 20
101.4419805557
 30
0.0
 40
1.75
  1
3'
 41
0.8
 72
     1
 11
148.8218560023
 21
101.4419805557
 31
0.0
  0
TEXT
  5
12A
  8
SERVCLRDIM
  6
CONTINUOUS
 62
     1
 10
29.558333333333341
 20
101.71463254290001
 30
0.0
 40
1.75
  1
4'
 41
0.8
 72
     1
 11
30.375
 21
101.71463254290001
 31
0.0
  0
TEXT
  5
12B
  8
SERVCLRDIM
  6
CONTINUOUS
 62
     1
 10
146.2551893356333
 20
98.525313555699995
 30
0.0
 40
1.75
  1
(914)
 41
0.8
 72
     1
 11
148.8218560023
 21
98.525313555699995
 31
0.0
  0
TEXT
  5
12C
  8
SERVCLRDIM
  6
CONTINUOUS
 62
     1
 10
27.341666666666669
 20
98.79796554290003
 30
0.0
 40
1.75
  1
(1219)
 41
0.8
 72
     1
 11
30.375
 21
98.79796554290003
 31
0.0
  0
TEXT
  5
12D
  8
NOTES
  6
CONTINUOUS
 62
     1
 10
0.8
 20
1.1248476951999991
 30
0.0
 40
1.75
  1
VIEW: RIGHT
 41
0.8
  0
TEXT
  5
12E
  8
NOTES
  6
CONTINUOUS
 62
     1
 10
0.8
 20
5.6241623234000002
 30
0.0
 40
1.75
  1
FILE NAME: 
 41
0.8
  0
TEXT
  5
12F
  8
NOTES
  6
CONTINUOUS
 62
     1
 10
16.199999999999999
 20
5.6241623234000002
 30
0.0
 40
1.75
  1
TSP30-R-
 41
0.8
  0
TEXT
  5
130
  8
NOTES
  6
CONTINUOUS
 62
     1
 10
17.066666666700002
 20
9.6235531039999991
 30
0.0
 40
1.75
  1
LAYER KEY
 41
0.8
  0
TEXT
  5
131
  8
NOTES
  6
CONTINUOUS
 62
     7
 10
1.0303146667
 20
13.6229438846
 30
0.0
 40
1.75
  1
-
 41
8.0
  7
TEXTSTYLE_2
  0
TEXT
  5
132
  8
NOTES
  6
CONTINUOUS
 62
     1
 10
16.800000000000001
 20
13.6229438846
 30
0.0
 40
1.75
  1
UNIT
 41
0.8
  0
TEXT
  5
133
  8
NOTES
  6
CONTINUOUS
 62
     6
 10
1.0303146667
 20
17.6223346652
 30
0.0
 40
1.75
  1
-
 41
8.0
  7
TEXTSTYLE_2
  0
TEXT
  5
134
  8
NOTES
  6
CONTINUOUS
 62
     1
 10
16.800000000000001
 20
17.6223346652
 30
0.0
 40
1.75
  1
ROOF CURB
 41
0.8
  0
TEXT
  5
135
  8
NOTES
  6
CONTINUOUS
 62
     1
 10
1.0303146667
 20
21.621725445900001
 30
0.0
 40
1.75
  1
-
 41
8.0
  7
TEXTSTYLE_2
  0
TEXT
  5
136
  8
NOTES
  6
CONTINUOUS
 62
     1
 10
16.800000000000001
 20
21.621725445900001
 30
0.0
 40
1.75
  1
SERVICE CLEARANCE
 41
0.8
  0
TEXT
  5
137
  8
NOTES
  6
CONTINUOUS
 62
     2
 10
1.0303146667
 20
25.6211162265
 30
0.0
 40
1.75
  1
-
 41
8.0
  7
TEXTSTYLE_2
  0
TEXT
  5
138
  8
NOTES
  6
CONTINUOUS
 62
     1
 10
16.800000000000001
 20
25.6211162265
 30
0.0
 40
1.75
  1
UNIT DUCTS
 41
0.8
  0
TEXT
  5
139
  8
NOTES
  6
CONTINUOUS
 62
     5
 10
1.0303146667
 20
29.620507007099999
 30
0.0
 40
1.75
  1
-
 41
8.0
  7
TEXTSTYLE_2
  0
TEXT
  5
13A
  8
NOTES
  6
CONTINUOUS
 62
     1
 10
16.800000000000001
 20
29.620507007099999
 30
0.0
 40
1.75
  1
CURB DUCTS
 41
0.8
  0
TEXT
  5
13B
  8
NOTES
  6
CONTINUOUS
 62
     9
 10
1.0303146667
 20
33.619897787699998
 30
0.0
 40
1.75
  1
-
 41
8.0
  7
TEXTSTYLE_2
  0
TEXT
  5
13C
  8
NOTES
  6
CONTINUOUS
 62
     1
 10
16.800000000000001
 20
33.619897787699998
 30
0.0
 40
1.75
  1
UNIT HIDDEN
 41
0.8
  0
TEXT
  5
13D
  8
NOTES
  6
CONTINUOUS
 62
     1
 10
108.60277037349999
 20
41.564965630300001
 30
0.0
 40
1.75
  1
3/4"-14 NPT STANDARD 
 41
0.8
  0
TEXT
  5
13E
  8
NOTES
  6
CONTINUOUS
 62
     1
 10
108.60277037349999
 20
38.939965630300001
 30
0.0
 40
1.75
  1
CONDENSATE DRAIN
 41
0.8
  0
LINE
  5
13F
  8
NOTES
  6
CONTINUOUS
 62
     1
 10
86.139124691800006
 20
72.991728907799995
 30
0.0
 11
104.9834299912
 21
42.439965630300001
 31
0.0
  0
LINE
  5
140
  8
NOTES
  6
CONTINUOUS
 62
     1
 10
104.9834299912
 20
42.439965630300001
 30
0.0
 11
108.60277037349999
 21
42.439965630300001
 31
0.0
  0
SOLID
  5
141
  8
NOTES
  6
CONTINUOUS
 62
     1
 10
87.508235793799997
 20
71.486351948199996
 30
0.0
 11
86.139124691800006
 21
72.991728907799995
 31
0.0
 12
86.869895461900001
 22
71.092624097200002
 32
0.0
 13
86.869895461900001
 23
71.092624097200002
 33
0.0
  0
TEXT
  5
142
  8
NOTES
  6
CONTINUOUS
 62
     1
 10
25.511439690300001
 20
41.38727355639999
 30
0.0
 40
1.75
  1
SUPPLY AIR
 41
0.8
  0
TEXT
  5
143
  8
NOTES
  6
CONTINUOUS
 62
     1
 10
25.511439690300001
 20
38.762273556399997
 30
0.0
 40
1.75
  1
HORIZONTAL
 41
0.8
  0
LINE
  5
144
  8
NOTES
  6
CONTINUOUS
 62
     1
 10
54.250000000599996
 20
75.963461538900006
 30
0.0
 11
42.557526620300003
 21
42.26227355639999
 31
0.0
  0
LINE
  5
145
  8
NOTES
  6
CONTINUOUS
 62
     1
 10
42.557526620300003
 20
42.26227355639999
 30
0.0
 11
39.511439690300001
 21
42.26227355639999
 31
0.0
  0
SOLID
  5
146
  8
NOTES
  6
CONTINUOUS
 62
     1
 10
53.948726360999999
 20
73.951035343000001
 30
0.0
 11
54.250000000599996
 21
75.963461538900006
 31
0.0
 12
53.240160363699999
 22
74.196869082299997
 32
0.0
 13
53.240160363699999
 23
74.196869082299997
 33
0.0
  0
TEXT
  5
147
  8
NOTES
  6
CONTINUOUS
 62
     1
 10
64.096825702033343
 20
111.90780769280001
 30
0.0
 40
1.75
  1
RETURN AIR
 41
0.8
 72
     2
 11
77.163492368700005
 21
111.90780769280001
 31
0.0
  0
TEXT
  5
148
  8
NOTES
  6
CONTINUOUS
 62
     1
 10
64.096825702033343
 20
109.28280769280001
 30
0.0
 40
1.75
  1
HORIZONTAL
 41
0.8
 72
     2
 11
77.163492368700005
 21
109.28280769280001
 31
0.0
  0
LINE
  5
149
  8
NOTES
  6
CONTINUOUS
 62
     1
 10
89.875000006100009
 20
101.4370633289
 30
0.0
 11
83.317338522499995
 21
112.78280769280001
 31
0.0
  0
LINE
  5
14A
  8
NOTES
  6
CONTINUOUS
 62
     1
 10
83.317338522499995
 20
112.78280769280001
 30
0.0
 11
77.163492368700005
 21
112.78280769280001
 31
0.0
  0
SOLID
  5
14B
  8
NOTES
  6
CONTINUOUS
 62
     1
 10
88.549506425700017
 20
102.9809842364
 30
0.0
 11
89.875000006100009
 21
101.4370633289
 31
0.0
 12
89.198847148600024
 22
103.35629294349999
 32
0.0
 13
89.198847148600024
 23
103.35629294349999
 33
0.0
  0
LINE
  5
14C
  8
NOTES
  6
CONTINUOUS
 62
     1
 10
0.0
 20
0.0
 30
0.0
 11
0.0
 21
36.494440873199999
 31
0.0
  0
LINE
  5
14D
  8
SERVCLEAR
  6
CENTER
 62
     1
 10
0.0
 20
66.416273542499994
 30
0.0
 11
0.0
 21
107.66627354249999
 31
0.0
  0
LINE
  5
14E
  8
0
  6
CONTINUOUS
 62
     7
 10
0.0
 20
0.0
 30
0.0
 11
0.0
 21
150.0
 31
0.0
  0
LINE
  5
14F
  8
SERVCLRDIM
  6
CONTINUOUS
 62
     1
 10
1.875
 20
102.90213254290001
 30
0.0
 11
1.875
 21
102.27713254290001
 31
0.0
  0
LINE
  5
150
  8
0
  6
CONTINUOUS
 62
     7
 10
0.0
 20
0.0
 30
0.0
 11
175.0
 21
0.0
 31
0.0
  0
LINE
  5
151
  8
NOTES
  6
CONTINUOUS
 62
     1
 10
0.0
 20
0.0
 30
0.0
 11
48.0
 21
0.0
 31
0.0
  0
LINE
  5
152
  8
NOTES
  6
CONTINUOUS
 62
     1
 10
16.0
 20
12.4980961895
 30
0.0
 11
16.0
 21
36.494440873199999
 31
0.0
  0
LINE
  5
153
  8
UNIT-DIM
  6
CONTINUOUS
 62
     7
 10
21.009651999999999
 20
107.6662735429
 30
0.0
 11
20.697151999999999
 21
105.7912735429
 31
0.0
  0
LINE
  5
154
  8
NOTES
  6
CONTINUOUS
 62
     1
 10
0.0
 20
3.9993907806000002
 30
0.0
 11
48.0
 21
3.9993907806000002
 31
0.0
  0
LINE
  5
155
  8
NOTES
  6
CONTINUOUS
 62
     1
 10
0.0
 20
4.4993146281999987
 30
0.0
 11
48.0
 21
4.4993146281999987
 31
0.0
  0
LINE
  5
156
  8
UNIT-DIM
  6
CONTINUOUS
 62
     7
 10
21.009651999999999
 20
107.5890265429
 30
0.0
 11
21.009651999999999
 21
91.020276542900007
 31
0.0
  0
LINE
  5
157
  8
UNIT-DIM
  6
CONTINUOUS
 62
     7
 10
21.009651999999999
 20
66.793146542900004
 30
0.0
 11
21.009651999999999
 21
83.424396542899999
 31
0.0
  0
LINE
  5
158
  8
UNIT-DIM
  6
CONTINUOUS
 62
     7
 10
21.322151999999999
 20
68.291273542900001
 30
0.0
 11
21.009651999999999
 21
66.416273542900001
 31
0.0
  0
LINE
  5
159
  8
NOTES
  6
CONTINUOUS
 62
     1
 10
0.0
 20
8.4987054087999994
 30
0.0
 11
48.0
 21
8.4987054087999994
 31
0.0
  0
LINE
  5
15A
  8
NOTES
  6
CONTINUOUS
 62
     1
 10
0.0
 20
12.4980961895
 30
0.0
 11
48.0
 21
12.4980961895
 31
0.0
  0
LINE
  5
15B
  8
UNIT-DIM
  6
CONTINUOUS
 62
     7
 10
21.009651999999999
 20
66.416273542900001
 30
0.0
 11
20.697151999999999
 21
68.291273542900001
 31
0.0
  0
LINE
  5
15C
  8
NOTES
  6
CONTINUOUS
 62
     1
 10
0.0
 20
16.497486970099999
 30
0.0
 11
48.0
 21
16.497486970099999
 31
0.0
  0
LINE
  5
15D
  8
UNIT-DIM
  6
CONTINUOUS
 62
     7
 10
21.322151999999999
 20
105.7912735429
 30
0.0
 11
21.009651999999999
 21
107.6662735429
 31
0.0
  0
LINE
  5
15E
  8
NOTES
  6
CONTINUOUS
 62
     1
 10
0.0
 20
20.496877750700001
 30
0.0
 11
48.0
 21
20.496877750700001
 31
0.0
  0
LINE
  5
15F
  8
NOTES
  6
CONTINUOUS
 62
     1
 10
0.0
 20
24.4962685313
 30
0.0
 11
48.0
 21
24.4962685313
 31
0.0
  0
LINE
  5
160
  8
SERVCLRDIM
  6
CONTINUOUS
 62
     1
 10
43.399901416099993
 20
76.348675342899995
 30
0.0
 11
43.399901416099993
 21
70.976273542900003
 31
0.0
  0
LINE
  5
161
  8
SERVCLRDIM
  6
CONTINUOUS
 62
     1
 10
43.399901416099993
 20
66.416273542900001
 30
0.0
 11
43.399901416099993
 21
56.498129542900003
 31
0.0
  0
LINE
  5
162
  8
SERVCLRDIM
  6
CONTINUOUS
 62
     1
 10
43.733235416099987
 20
72.976273542900003
 30
0.0
 11
43.399901416099993
 21
70.976273542900003
 31
0.0
  0
LINE
  5
163
  8
NOTES
  6
CONTINUOUS
 62
     1
 10
0.0
 20
28.495659312000001
 30
0.0
 11
48.0
 21
28.495659312000001
 31
0.0
  0
LINE
  5
164
  8
SERVCLRDIM
  6
CONTINUOUS
 62
     1
 10
43.733235416099987
 20
64.416273542900001
 30
0.0
 11
43.399901416099993
 21
66.416273542900001
 31
0.0
  0
LINE
  5
165
  8
SERVCLRDIM
  6
CONTINUOUS
 62
     1
 10
43.399901416099993
 20
70.976273542900003
 30
0.0
 11
43.066569416100002
 21
72.976273542900003
 31
0.0
  0
LINE
  5
166
  8
SERVCLRDIM
  6
CONTINUOUS
 62
     1
 10
46.124999999999993
 20
102.90213254290001
 30
0.0
 11
46.124999999999993
 21
102.27713254290001
 31
0.0
  0
POLYLINE
  5
167
  8
UNIT-SOL
  6
CONTINUOUS
 62
     7
 66
     1
 10
0.0
 20
0.0
 30
0.0
 40
0.15
 41
0.15
  0
VERTEX
  5
257
  8
UNIT-SOL
  6
CONTINUOUS
 62
     7
 10
48.0
 20
107.6662735429
 30
0.0
  0
VERTEX
  5
258
  8
UNIT-SOL
  6
CONTINUOUS
 62
     7
 10
48.0
 20
66.416273542900001
 30
0.0
  0
SEQEND
  5
259
  8
UNIT-SOL
  6
CONTINUOUS
 62
     7
  0
LINE
  5
16B
  8
NOTES
  6
CONTINUOUS
 62
     1
 10
48.0
 20
0.0
 30
0.0
 11
48.0
 21
36.494440873199999
 31
0.0
  0
LINE
  5
16C
  8
SERVCLEAR
  6
CENTER
 62
     1
 10
48.0
 20
66.416273542499994
 30
0.0
 11
48.0
 21
107.66627354249999
 31
0.0
  0
LINE
  5
16D
  8
UNIT-DIM
  6
CONTINUOUS
 62
     7
 10
48.0
 20
108.6037735429
 30
0.0
 11
48.0
 21
119.3933217692
 31
0.0
  0
LINE
  5
16E
  8
UNIT-DIM
  6
CONTINUOUS
 62
     7
 10
49.875
 20
118.4597530337
 30
0.0
 11
49.875
 21
117.8347530337
 31
0.0
  0
LINE
  5
16F
  8
CURB-14-DIM
  6
CONTINUOUS
 62
     6
 10
51.0
 20
69.041273542900001
 30
0.0
 11
51.0
 21
38.319296542899998
 31
0.0
  0
LINE
  5
170
  8
CURB-24-DIM
  6
CONTINUOUS
 62
     6
 10
51.0
 20
69.041273542900001
 30
0.0
 11
51.0
 21
38.319296542899998
 31
0.0
  0
LINE
  5
171
  8
CURB-14
  6
HIDDEN
 62
     8
 10
51.0
 20
69.978773542900001
 30
0.0
 11
51.0
 21
70.978773542900001
 31
0.0
  0
LINE
  5
172
  8
CURB-24
  6
HIDDEN
 62
     8
 10
51.0
 20
69.978773542900001
 30
0.0
 11
51.0
 21
70.978773542900001
 31
0.0
  0
LINE
  5
173
  8
SERVCLRDIM
  6
CONTINUOUS
 62
     1
 10
43.399901416099993
 20
66.416273542900001
 30
0.0
 11
43.066569416100002
 21
64.416273542900001
 31
0.0
  0
LINE
  5
174
  8
CURB-14-DIM
  6
CONTINUOUS
 62
     6
 10
102.625
 20
39.256796542899998
 30
0.0
 11
104.5
 21
39.569296542899998
 31
0.0
  0
LINE
  5
175
  8
CURB-24-DIM
  6
CONTINUOUS
 62
     6
 10
102.625
 20
39.256796542899998
 30
0.0
 11
104.5
 21
39.569296542899998
 31
0.0
  0
LINE
  5
176
  8
NOTES
  6
CONTINUOUS
 62
     1
 10
0.0
 20
32.495050092600003
 30
0.0
 11
48.0
 21
32.495050092600003
 31
0.0
  0
LINE
  5
177
  8
NOTES
  6
CONTINUOUS
 62
     1
 10
0.0
 20
36.494440873199999
 30
0.0
 11
48.0
 21
36.494440873199999
 31
0.0
  0
LINE
  5
178
  8
CURB-14-DIM
  6
CONTINUOUS
 62
     6
 10
52.875
 20
39.256796542899998
 30
0.0
 11
51.0
 21
39.569296542899998
 31
0.0
  0
LINE
  5
179
  8
CURB-24-DIM
  6
CONTINUOUS
 62
     6
 10
52.875
 20
39.256796542899998
 30
0.0
 11
51.0
 21
39.569296542899998
 31
0.0
  0
LINE
  5
17A
  8
CURB-14-DIM
  6
CONTINUOUS
 62
     6
 10
52.875
 20
39.881796542899998
 30
0.0
 11
52.875
 21
39.256796542899998
 31
0.0
  0
LINE
  5
17B
  8
CURB-24-DIM
  6
CONTINUOUS
 62
     6
 10
52.875
 20
39.881796542899998
 30
0.0
 11
52.875
 21
39.256796542899998
 31
0.0
  0
LINE
  5
17C
  8
CURB-24
  6
HIDDEN
 62
     8
 10
53.21875
 20
69.978773542900001
 30
0.0
 11
53.21875
 21
66.416273542900001
 31
0.0
  0
LINE
  5
17D
  8
CURB-14
  6
HIDDEN
 62
     8
 10
53.21875
 20
69.978773542900001
 30
0.0
 11
53.21875
 21
66.573074542900002
 31
0.0
  0
POLYLINE
  5
17E
  8
CURB-24
  6
CONTINUOUS
 62
     6
 66
     1
 10
0.0
 20
0.0
 30
0.0
 40
0.15
 41
0.15
  0
VERTEX
  5
25A
  8
CURB-24
  6
CONTINUOUS
 62
     6
 10
53.21875
 20
66.260629542900006
 30
0.0
  0
VERTEX
  5
25B
  8
CURB-24
  6
CONTINUOUS
 62
     6
 10
53.21875
 20
46.978773542900001
 30
0.0
  0
SEQEND
  5
25C
  8
CURB-24
  6
CONTINUOUS
 62
     6
  0
POLYLINE
  5
182
  8
CURB-14
  6
CONTINUOUS
 62
     6
 66
     1
 10
0.0
 20
0.0
 30
0.0
 40
0.15
 41
0.15
  0
VERTEX
  5
25D
  8
CURB-14
  6
CONTINUOUS
 62
     6
 10
53.21875
 20
66.260629542900006
 30
0.0
  0
VERTEX
  5
25E
  8
CURB-14
  6
CONTINUOUS
 62
     6
 10
53.21875
 20
56.978773542900001
 30
0.0
  0
SEQEND
  5
25F
  8
CURB-14
  6
CONTINUOUS
 62
     6
  0
LINE
  5
186
  8
UNIT-DUCTS
  6
CONTINUOUS
 62
     2
 10
54.25
 20
72.166273542900001
 30
0.0
 11
54.250000002199997
 21
86.087721458399983
 31
0.0
  0
LINE
  5
187
  8
CURB-14-DIM
  6
CONTINUOUS
 62
     6
 10
104.5
 20
39.569296542899998
 30
0.0
 11
90.230520748499984
 21
39.569296542899998
 31
0.0
  0
LINE
  5
188
  8
CURB-24-DIM
  6
CONTINUOUS
 62
     6
 10
102.625
 20
39.569296542899998
 30
0.0
 11
90.230520748499984
 21
39.569296542899998
 31
0.0
  0
LINE
  5
189
  8
CURB-14-DIM
  6
CONTINUOUS
 62
     6
 10
51.0
 20
39.569296542899998
 30
0.0
 11
75.865937748500002
 21
39.569296542899998
 31
0.0
  0
LINE
  5
18A
  8
CURB-24-DIM
  6
CONTINUOUS
 62
     6
 10
53.25
 20
39.569296542899998
 30
0.0
 11
75.865937748500002
 21
39.569296542899998
 31
0.0
  0
LINE
  5
18B
  8
CURB-14-DIM
  6
CONTINUOUS
 62
     6
 10
104.5
 20
39.569296542899998
 30
0.0
 11
102.625
 21
39.881796542899998
 31
0.0
  0
LINE
  5
18C
  8
CURB-24-DIM
  6
CONTINUOUS
 62
     6
 10
104.5
 20
39.569296542899998
 30
0.0
 11
102.625
 21
39.881796542899998
 31
0.0
  0
LINE
  5
18D
  8
CURB-14-DIM
  6
CONTINUOUS
 62
     6
 10
51.0
 20
39.569296542899998
 30
0.0
 11
52.875
 21
39.881796542899998
 31
0.0
  0
LINE
  5
18E
  8
CURB-24-DIM
  6
CONTINUOUS
 62
     6
 10
51.0
 20
39.569296542899998
 30
0.0
 11
52.875
 21
39.881796542899998
 31
0.0
  0
POLYLINE
  5
18F
  8
CURB-24
  6
CONTINUOUS
 62
     6
 66
     1
 10
0.0
 20
0.0
 30
0.0
 40
0.15
 41
0.15
  0
VERTEX
  5
260
  8
CURB-24
  6
CONTINUOUS
 62
     6
 10
50.21875
 20
46.978773542900001
 30
0.0
  0
VERTEX
  5
261
  8
CURB-24
  6
CONTINUOUS
 62
     6
 10
106.03125
 20
46.978773542900001
 30
0.0
  0
SEQEND
  5
262
  8
CURB-24
  6
CONTINUOUS
 62
     6
  0
LINE
  5
193
  8
CURB-24-DIM
  6
CONTINUOUS
 62
     6
 10
106.7783379537
 20
46.978773542900001
 30
0.0
 11
124.55915136980001
 21
46.978773542900001
 31
0.0
  0
LINE
  5
194
  8
CURB-24-DIM
  6
CONTINUOUS
 62
     6
 10
122.8731867179
 20
48.853773542900001
 30
0.0
 11
123.4981867179
 21
48.853773542900001
 31
0.0
  0
LINE
  5
195
  8
SERVCLRDIM
  6
CONTINUOUS
 62
     1
 10
43.399901416099993
 20
56.498129542900003
 30
0.0
 11
40.355620416100003
 21
56.498129542900003
 31
0.0
  0
POLYLINE
  5
196
  8
CURB-14
  6
CONTINUOUS
 62
     6
 66
     1
 10
0.0
 20
0.0
 30
0.0
 40
0.15
 41
0.15
  0
VERTEX
  5
263
  8
CURB-14
  6
CONTINUOUS
 62
     6
 10
50.21875
 20
56.978773542900001
 30
0.0
  0
VERTEX
  5
264
  8
CURB-14
  6
CONTINUOUS
 62
     6
 10
106.03125
 20
56.978773542900001
 30
0.0
  0
SEQEND
  5
265
  8
CURB-14
  6
CONTINUOUS
 62
     6
  0
LINE
  5
19A
  8
CURB-14-DIM
  6
CONTINUOUS
 62
     6
 10
106.7783379537
 20
56.978773542900001
 30
0.0
 11
117.6566328513
 21
56.978773542900001
 31
0.0
  0
LINE
  5
19B
  8
CURB-14-DIM
  6
CONTINUOUS
 62
     6
 10
115.9598668957
 20
58.853773542900001
 30
0.0
 11
116.5848668957
 21
58.853773542900001
 31
0.0
  0
LINE
  5
19C
  8
SERVCLRDIM
  6
CONTINUOUS
 62
     1
 10
43.066569416100002
 20
64.416273542900001
 30
0.0
 11
43.733235416099987
 21
64.416273542900001
 31
0.0
  0
LINE
  5
19D
  8
SERVCLEAR
  6
CENTER
 62
     1
 10
164.2525772422
 20
66.416273542900001
 30
0.0
 11
128.2525772422
 21
66.416273542900001
 31
0.0
  0
LINE
  5
19E
  8
UNIT-DIM
  6
CONTINUOUS
 62
     7
 10
47.062499999999993
 20
66.416273542900001
 30
0.0
 11
19.759651999999999
 21
66.416273542900001
 31
0.0
  0
LINE
  5
19F
  8
SERVCLEAR
  6
CENTER
 62
     1
 10
48.0
 20
66.416273542499994
 30
0.0
 11
0.0
 21
66.416273542499994
 31
0.0
  0
POLYLINE
  5
1A0
  8
UNIT-SOL
  6
CONTINUOUS
 62
     7
 66
     1
 10
0.0
 20
0.0
 30
0.0
 40
0.15
 41
0.15
  0
VERTEX
  5
266
  8
UNIT-SOL
  6
CONTINUOUS
 62
     7
 10
48.0
 20
66.416273542900001
 30
0.0
  0
VERTEX
  5
267
  8
UNIT-SOL
  6
CONTINUOUS
 62
     7
 10
107.5
 20
66.416273542900001
 30
0.0
  0
SEQEND
  5
268
  8
UNIT-SOL
  6
CONTINUOUS
 62
     7
  0
LINE
  5
1A4
  8
UNIT-DIM
  6
CONTINUOUS
 62
     7
 10
20.697151999999999
 20
68.291273542900001
 30
0.0
 11
21.322151999999999
 21
68.291273542900001
 31
0.0
  0
LINE
  5
1A5
  8
CURB-14-DIM
  6
CONTINUOUS
 62
     6
 10
115.9598668957
 20
69.103773542900001
 30
0.0
 11
116.5848668957
 21
69.103773542900001
 31
0.0
  0
LINE
  5
1A6
  8
CURB-24-DIM
  6
CONTINUOUS
 62
     6
 10
122.8731867179
 20
69.103773542900001
 30
0.0
 11
123.4981867179
 21
69.103773542900001
 31
0.0
  0
LINE
  5
1A7
  8
UNIT-DUCTS
  6
CONTINUOUS
 62
     2
 10
82.638192911800004
 20
86.087721458399983
 30
0.0
 11
82.638192909599994
 21
72.166273542900001
 31
0.0
  0
LINE
  5
1A8
  8
CURB-14
  6
HIDDEN
 62
     8
 10
104.5
 20
69.978773542900001
 30
0.0
 11
51.0
 21
69.978773542900001
 31
0.0
  0
LINE
  5
1A9
  8
CURB-24
  6
HIDDEN
 62
     8
 10
104.5
 20
69.978773542900001
 30
0.0
 11
51.0
 21
69.978773542900001
 31
0.0
  0
LINE
  5
1AA
  8
SERVCLRDIM
  6
CONTINUOUS
 62
     1
 10
49.988667341999992
 20
70.976273542900003
 30
0.0
 11
42.158544778100001
 21
70.976273542900003
 31
0.0
  0
LINE
  5
1AB
  8
CURB-14
  6
HIDDEN
 62
     8
 10
51.0
 20
70.978773542900001
 30
0.0
 11
104.5
 21
70.978773542900001
 31
0.0
  0
LINE
  5
1AC
  8
CURB-24
  6
HIDDEN
 62
     8
 10
51.0
 20
70.978773542900001
 30
0.0
 11
104.5
 21
70.978773542900001
 31
0.0
  0
LINE
  5
1AD
  8
CURB-14-DIM
  6
CONTINUOUS
 62
     6
 10
105.1704702152
 20
70.978773542900001
 30
0.0
 11
117.6566328513
 21
70.978773542900001
 31
0.0
  0
LINE
  5
1AE
  8
CURB-24-DIM
  6
CONTINUOUS
 62
     6
 10
105.1704702152
 20
70.978773542900001
 30
0.0
 11
124.55915136980001
 21
70.978773542900001
 31
0.0
  0
LINE
  5
1AF
  8
HOOD
  6
CONTINUOUS
 62
     7
 10
107.5
 20
71.301814314599994
 30
0.0
 11
114.3543414482
 21
71.301814314599994
 31
0.0
  0
LINE
  5
1B0
  8
UNIT-DUCTS
  6
CONTINUOUS
 62
     2
 10
82.638192909599994
 20
72.166273542900001
 30
0.0
 11
54.25
 21
72.166273542900001
 31
0.0
  0
LINE
  5
1B1
  8
UNIT-DUCTS
  6
CONTINUOUS
 62
     2
 10
102.503949695
 20
72.171111180400004
 30
0.0
 11
89.875
 21
72.171111180400004
 31
0.0
  0
LINE
  5
1B2
  8
SERVCLRDIM
  6
CONTINUOUS
 62
     1
 10
43.066569416100002
 20
72.976273542900003
 30
0.0
 11
43.733235416099987
 21
72.976273542900003
 31
0.0
  0
LINE
  5
1B3
  8
UNIT-DUCTS
  6
CONTINUOUS
 62
     2
 10
54.250000002100002
 20
86.087721458499999
 30
0.0
 11
82.638192909599994
 21
72.166273542900001
 31
0.0
  0
LINE
  5
1B4
  8
UNIT-DUCTS
  6
CONTINUOUS
 62
     2
 10
89.875
 20
72.171111180400004
 30
0.0
 11
89.875000006999997
 21
105.9211111804
 31
0.0
  0
LINE
  5
1B5
  8
UNIT-DUCTS
  6
CONTINUOUS
 62
     2
 10
89.875
 20
72.171111180400004
 30
0.0
 11
102.503949702
 21
105.9211111804
 31
0.0
  0
LINE
  5
1B6
  8
HOOD
  6
CONTINUOUS
 62
     7
 10
127.3084456404
 20
86.225297741299997
 30
0.0
 11
127.6527878031
 21
86.412115663799995
 31
0.0
  0
LINE
  5
1B7
  8
UNIT-DUCTS
  6
CONTINUOUS
 62
     2
 10
54.250000002199997
 20
86.087721458399983
 30
0.0
 11
82.638192911800004
 21
86.087721458399983
 31
0.0
  0
LINE
  5
1B8
  8
SERVCLRDIM
  6
CONTINUOUS
 62
     1
 10
1.875
 20
102.27713254290001
 30
0.0
 11
0.0
 21
102.58963254290001
 31
0.0
  0
LINE
  5
1B9
  8
UNIT-DUCTS
  6
CONTINUOUS
 62
     2
 10
89.875000006999997
 20
105.9211111804
 30
0.0
 11
102.503949695
 21
72.171111180400004
 31
0.0
  0
LINE
  5
1BA
  8
UNIT-DUCTS
  6
CONTINUOUS
 62
     2
 10
102.503949702
 20
105.9211111804
 30
0.0
 11
102.503949695
 21
72.171111180400004
 31
0.0
  0
LINE
  5
1BB
  8
CURB-14-DIM
  6
CONTINUOUS
 62
     6
 10
102.625
 20
39.881796542899998
 30
0.0
 11
102.625
 21
39.256796542899998
 31
0.0
  0
LINE
  5
1BC
  8
CURB-24-DIM
  6
CONTINUOUS
 62
     6
 10
102.625
 20
39.881796542899998
 30
0.0
 11
102.625
 21
39.256796542899998
 31
0.0
  0
LINE
  5
1BD
  8
CURB-24
  6
HIDDEN
 62
     8
 10
102.65625
 20
69.978773542900001
 30
0.0
 11
102.65625
 21
66.416273542900001
 31
0.0
  0
LINE
  5
1BE
  8
CURB-14
  6
HIDDEN
 62
     8
 10
102.65625
 20
69.978773542900001
 30
0.0
 11
102.65625
 21
66.573074542900002
 31
0.0
  0
POLYLINE
  5
1BF
  8
CURB-24
  6
CONTINUOUS
 62
     6
 66
     1
 10
0.0
 20
0.0
 30
0.0
 40
0.15
 41
0.15
  0
VERTEX
  5
269
  8
CURB-24
  6
CONTINUOUS
 62
     6
 10
102.65625
 20
66.260629542900006
 30
0.0
  0
VERTEX
  5
26A
  8
CURB-24
  6
CONTINUOUS
 62
     6
 10
102.65625
 20
46.978773542900001
 30
0.0
  0
SEQEND
  5
26B
  8
CURB-24
  6
CONTINUOUS
 62
     6
  0
POLYLINE
  5
1C3
  8
CURB-14
  6
CONTINUOUS
 62
     6
 66
     1
 10
0.0
 20
0.0
 30
0.0
 40
0.15
 41
0.15
  0
VERTEX
  5
26C
  8
CURB-14
  6
CONTINUOUS
 62
     6
 10
102.65625
 20
66.260629542900006
 30
0.0
  0
VERTEX
  5
26D
  8
CURB-14
  6
CONTINUOUS
 62
     6
 10
102.65625
 20
56.978773542900001
 30
0.0
  0
SEQEND
  5
26E
  8
CURB-14
  6
CONTINUOUS
 62
     6
  0
LINE
  5
1C7
  8
CURB-14
  6
HIDDEN
 62
     8
 10
104.5
 20
70.978773542900001
 30
0.0
 11
104.5
 21
69.978773542900001
 31
0.0
  0
LINE
  5
1C8
  8
CURB-24
  6
HIDDEN
 62
     8
 10
104.5
 20
70.978773542900001
 30
0.0
 11
104.5
 21
69.978773542900001
 31
0.0
  0
LINE
  5
1C9
  8
CURB-14-DIM
  6
CONTINUOUS
 62
     6
 10
104.5
 20
69.041273542900001
 30
0.0
 11
104.5
 21
38.319296542899998
 31
0.0
  0
LINE
  5
1CA
  8
CURB-24-DIM
  6
CONTINUOUS
 62
     6
 10
104.5
 20
69.041273542900001
 30
0.0
 11
104.5
 21
38.319296542899998
 31
0.0
  0
LINE
  5
1CB
  8
UNIT-DIM
  6
CONTINUOUS
 62
     7
 10
105.625
 20
118.4597530337
 30
0.0
 11
105.625
 21
117.8347530337
 31
0.0
  0
LINE
  5
1CC
  8
SERVCLRDIM
  6
CONTINUOUS
 62
     1
 10
162.3775772422
 20
102.2777961692
 30
0.0
 11
164.2525772422
 21
102.5902961692
 31
0.0
  0
POLYLINE
  5
1CD
  8
UNIT-SOL
  6
CONTINUOUS
 62
     7
 66
     1
 10
0.0
 20
0.0
 30
0.0
 40
0.15
 41
0.15
  0
VERTEX
  5
26F
  8
UNIT-SOL
  6
CONTINUOUS
 62
     7
 10
107.5
 20
66.416273542900001
 30
0.0
  0
VERTEX
  5
270
  8
UNIT-SOL
  6
CONTINUOUS
 62
     7
 10
107.5
 20
107.6662735429
 30
0.0
  0
SEQEND
  5
271
  8
UNIT-SOL
  6
CONTINUOUS
 62
     7
  0
LINE
  5
1D1
  8
UNIT-DIM
  6
CONTINUOUS
 62
     7
 10
107.5
 20
108.6037735429
 30
0.0
 11
107.5
 21
119.3933217692
 31
0.0
  0
LINE
  5
1D2
  8
HOOD
  6
CONTINUOUS
 62
     7
 10
114.3543414482
 20
71.301814314599994
 30
0.0
 11
124.7393550513
 21
86.987203717000014
 31
0.0
  0
LINE
  5
1D3
  8
SERVCLRDIM
  6
CONTINUOUS
 62
     1
 10
128.2525772422
 20
102.5902961692
 30
0.0
 11
130.1275772422
 21
102.9027961692
 31
0.0
  0
LINE
  5
1D4
  8
SERVCLRDIM
  6
CONTINUOUS
 62
     1
 10
48.0
 20
102.58963254290001
 30
0.0
 11
46.124999999999993
 21
102.90213254290001
 31
0.0
  0
LINE
  5
1D5
  8
HOOD
  6
CONTINUOUS
 62
     7
 10
124.7393550513
 20
86.987203717000014
 30
0.0
 11
127.3084456404
 21
86.225297741299997
 31
0.0
  0
LINE
  5
1D6
  8
HOOD
  6
CONTINUOUS
 62
     7
 10
128.11039752560001
 20
86.276403990800006
 30
0.0
 11
127.6527878031
 21
86.412115663799995
 31
0.0
  0
LINE
  5
1D7
  8
HOOD
  6
CONTINUOUS
 62
     7
 10
128.11789867990001
 20
86.301697328099991
 30
0.0
 11
107.5
 21
92.416273542900015
 31
0.0
  0
LINE
  5
1D8
  8
HOOD
  6
CONTINUOUS
 62
     7
 10
128.20949172179999
 20
86.610542289999984
 30
0.0
 11
127.9272713256
 21
86.694239379899997
 31
0.0
  0
LINE
  5
1D9
  8
HOOD
  6
CONTINUOUS
 62
     7
 10
127.9347724799
 20
86.719532717399986
 30
0.0
 11
128.21699287600001
 21
86.635835627299997
 31
0.0
  0
LINE
  5
1DA
  8
CURB-14-DIM
  6
CONTINUOUS
 62
     6
 10
116.2723668957
 20
56.978773542900001
 30
0.0
 11
115.9598668957
 21
58.853773542900001
 31
0.0
  0
LINE
  5
1DB
  8
CURB-14-DIM
  6
CONTINUOUS
 62
     6
 10
116.2723668957
 20
70.978773542900001
 30
0.0
 11
116.2723668957
 21
67.1060645429
 31
0.0
  0
LINE
  5
1DC
  8
CURB-14-DIM
  6
CONTINUOUS
 62
     6
 10
116.2723668957
 20
57.8764825429
 30
0.0
 11
116.2723668957
 21
60.851482542900001
 31
0.0
  0
LINE
  5
1DD
  8
CURB-14-DIM
  6
CONTINUOUS
 62
     6
 10
116.2723668957
 20
70.978773542900001
 30
0.0
 11
115.9598668957
 21
69.103773542900001
 31
0.0
  0
LINE
  5
1DE
  8
CURB-14-DIM
  6
CONTINUOUS
 62
     6
 10
116.5848668957
 20
58.853773542900001
 30
0.0
 11
116.2723668957
 21
56.978773542900001
 31
0.0
  0
LINE
  5
1DF
  8
SERVCLRDIM
  6
CONTINUOUS
 62
     1
 10
48.0
 20
102.58963254290001
 30
0.0
 11
32.270833000000003
 21
102.58963254290001
 31
0.0
  0
LINE
  5
1E0
  8
SERVCLRDIM
  6
CONTINUOUS
 62
     1
 10
0.0
 20
102.58963254290001
 30
0.0
 11
27.729165999999999
 21
102.58963254290001
 31
0.0
  0
LINE
  5
1E1
  8
SERVCLRDIM
  6
CONTINUOUS
 62
     1
 10
164.2525772422
 20
102.5902961692
 30
0.0
 11
151.07843630319999
 21
102.5902961692
 31
0.0
  0
LINE
  5
1E2
  8
SERVCLRDIM
  6
CONTINUOUS
 62
     1
 10
128.2525772422
 20
102.5902961692
 30
0.0
 11
146.0024363032
 21
102.5902961692
 31
0.0
  0
LINE
  5
1E3
  8
UNIT-DIM
  6
CONTINUOUS
 62
     7
 10
20.697151999999999
 20
105.7912735429
 30
0.0
 11
21.322151999999999
 21
105.7912735429
 31
0.0
  0
LINE
  5
1E4
  8
UNIT-DUCTS
  6
CONTINUOUS
 62
     2
 10
89.875000006999997
 20
105.9211111804
 30
0.0
 11
102.503949702
 21
105.9211111804
 31
0.0
  0
LINE
  5
1E5
  8
CURB-14-DIM
  6
CONTINUOUS
 62
     6
 10
116.5848668957
 20
69.103773542900001
 30
0.0
 11
116.2723668957
 21
70.978773542900001
 31
0.0
  0
LINE
  5
1E6
  8
CURB-24-DIM
  6
CONTINUOUS
 62
     6
 10
123.1856867179
 20
46.978773542900001
 30
0.0
 11
122.8731867179
 21
48.853773542900001
 31
0.0
  0
LINE
  5
1E7
  8
CURB-24-DIM
  6
CONTINUOUS
 62
     6
 10
123.1856867179
 20
70.348182542900005
 30
0.0
 11
123.1856867179
 21
62.37318254289999
 31
0.0
  0
LINE
  5
1E8
  8
CURB-24-DIM
  6
CONTINUOUS
 62
     6
 10
123.1856867179
 20
47.609364542899989
 30
0.0
 11
123.1856867179
 21
55.584364542899991
 31
0.0
  0
LINE
  5
1E9
  8
CURB-24-DIM
  6
CONTINUOUS
 62
     6
 10
123.1856867179
 20
70.978773542900001
 30
0.0
 11
122.8731867179
 21
69.103773542900001
 31
0.0
  0
LINE
  5
1EA
  8
HOOD
  6
CONTINUOUS
 62
     7
 10
127.9347724799
 20
86.719532717399986
 30
0.0
 11
127.9272713256
 21
86.694239379899997
 31
0.0
  0
LINE
  5
1EB
  8
HOOD
  6
CONTINUOUS
 62
     7
 10
128.2272839048
 20
86.577747798299995
 30
0.0
 11
128.1506931715
 21
86.319489511200004
 31
0.0
  0
LINE
  5
1EC
  8
HOOD
  6
CONTINUOUS
 62
     7
 10
128.2525772422
 20
86.570246643999994
 30
0.0
 11
128.1759865089
 21
86.311988357000004
 31
0.0
  0
LINE
  5
1ED
  8
SERVCLRDIM
  6
CONTINUOUS
 62
     1
 10
46.124999999999993
 20
102.27713254290001
 30
0.0
 11
48.0
 21
102.58963254290001
 31
0.0
  0
POLYLINE
  5
1EE
  8
UNIT-SOL
  6
CONTINUOUS
 62
     7
 66
     1
 10
0.0
 20
0.0
 30
0.0
 40
0.15
 41
0.15
  0
VERTEX
  5
272
  8
UNIT-SOL
  6
CONTINUOUS
 62
     7
 10
107.5
 20
107.6662735429
 30
0.0
  0
VERTEX
  5
273
  8
UNIT-SOL
  6
CONTINUOUS
 62
     7
 10
48.0
 20
107.6662735429
 30
0.0
  0
SEQEND
  5
274
  8
UNIT-SOL
  6
CONTINUOUS
 62
     7
  0
LINE
  5
1F2
  8
UNIT-DIM
  6
CONTINUOUS
 62
     7
 10
47.062499999999993
 20
107.6662735429
 30
0.0
 11
19.759651999999999
 21
107.6662735429
 31
0.0
  0
LINE
  5
1F3
  8
SERVCLEAR
  6
CENTER
 62
     1
 10
0.0
 20
107.66627354249999
 30
0.0
 11
48.0
 21
107.66627354249999
 31
0.0
  0
LINE
  5
1F4
  8
SERVCLEAR
  6
CENTER
 62
     1
 10
128.2525772422
 20
107.6662735429
 30
0.0
 11
164.2525772422
 21
107.6662735429
 31
0.0
  0
LINE
  5
1F5
  8
SERVCLRDIM
  6
CONTINUOUS
 62
     1
 10
130.1275772422
 20
102.2777961692
 30
0.0
 11
128.2525772422
 21
102.5902961692
 31
0.0
  0
LINE
  5
1F6
  8
UNIT-DIM
  6
CONTINUOUS
 62
     7
 10
49.875
 20
117.8347530337
 30
0.0
 11
48.0
 21
118.1472530337
 31
0.0
  0
LINE
  5
1F7
  8
CURB-24-DIM
  6
CONTINUOUS
 62
     6
 10
123.4981867179
 20
69.103773542900001
 30
0.0
 11
123.1856867179
 21
70.978773542900001
 31
0.0
  0
LINE
  5
1F8
  8
SERVCLEAR
  6
CENTER
 62
     1
 10
128.2525772422
 20
66.416273542900001
 30
0.0
 11
128.2525772422
 21
107.6662735429
 31
0.0
  0
LINE
  5
1F9
  8
SERVCLRDIM
  6
CONTINUOUS
 62
     1
 10
130.1275772422
 20
102.9027961692
 30
0.0
 11
130.1275772422
 21
102.2777961692
 31
0.0
  0
LINE
  5
1FA
  8
CURB-24-DIM
  6
CONTINUOUS
 62
     6
 10
123.4981867179
 20
48.853773542900001
 30
0.0
 11
123.1856867179
 21
46.978773542900001
 31
0.0
  0
LINE
  5
1FB
  8
UNIT-DIM
  6
CONTINUOUS
 62
     7
 10
105.625
 20
117.8347530337
 30
0.0
 11
107.5
 21
118.1472530337
 31
0.0
  0
LINE
  5
1FC
  8
SERVCLRDIM
  6
CONTINUOUS
 62
     1
 10
0.0
 20
102.58963254290001
 30
0.0
 11
1.875
 21
102.90213254290001
 31
0.0
  0
LINE
  5
1FD
  8
UNIT-DIM
  6
CONTINUOUS
 62
     7
 10
107.5
 20
118.1472530337
 30
0.0
 11
100.16666600000001
 21
118.1472530337
 31
0.0
  0
LINE
  5
1FE
  8
UNIT-DIM
  6
CONTINUOUS
 62
     7
 10
48.0
 20
118.1472530337
 30
0.0
 11
83.958332999999996
 21
118.1472530337
 31
0.0
  0
LINE
  5
1FF
  8
SERVCLRDIM
  6
CONTINUOUS
 62
     1
 10
164.2525772422
 20
102.5902961692
 30
0.0
 11
162.3775772422
 21
102.9027961692
 31
0.0
  0
LINE
  5
200
  8
UNIT-DIM
  6
CONTINUOUS
 62
     7
 10
48.0
 20
118.1472530337
 30
0.0
 11
49.875
 21
118.4597530337
 31
0.0
  0
LINE
  5
201
  8
UNIT-DIM
  6
CONTINUOUS
 62
     7
 10
107.5
 20
118.1472530337
 30
0.0
 11
105.625
 21
118.4597530337
 31
0.0
  0
LINE
  5
202
  8
SERVCLRDIM
  6
CONTINUOUS
 62
     1
 10
162.3775772422
 20
102.9027961692
 30
0.0
 11
162.3775772422
 21
102.2777961692
 31
0.0
  0
LINE
  5
203
  8
0
  6
CONTINUOUS
 62
     7
 10
0.0
 20
150.0
 30
0.0
 11
175.0
 21
150.0
 31
0.0
  0
LINE
  5
204
  8
SERVCLEAR
  6
CENTER
 62
     1
 10
164.2525772422
 20
66.416273542900001
 30
0.0
 11
164.2525772422
 21
107.6662735429
 31
0.0
  0
LINE
  5
205
  8
0
  6
CONTINUOUS
 62
     7
 10
175.0
 20
0.0
 30
0.0
 11
175.0
 21
150.0
 31
0.0
  0
CIRCLE
  5
206
  8
UNIT-SOL
  6
CONTINUOUS
 62
     7
 10
85.875
 20
73.416273542900001
 30
0.0
 40
0.5
  0
ARC
  5
207
  8
HOOD
  6
CONTINUOUS
 62
     7
 10
128.20199056749999
 20
86.585248952599997
 30
0.0
 40
0.0527643907
 50
343.48141227410002
 51
73.481412274199997
  0
ARC
  5
208
  8
HOOD
  6
CONTINUOUS
 62
     7
 10
128.12539983409999
 20
86.326990665499991
 30
0.0
 40
0.0527643907
 50
253.48141227420001
 51
343.4814122741999
  0
ARC
  5
209
  8
HOOD
  6
CONTINUOUS
 62
     7
 10
128.12539983409999
 20
86.326990665499991
 30
0.0
 40
0.0263821954
 50
253.48141227409999
 51
343.48141227400009
  0
ARC
  5
20A
  8
HOOD
  6
CONTINUOUS
 62
     7
 10
128.20199056749999
 20
86.585248952599997
 30
0.0
 40
0.0263821954
 50
343.4814122741999
 51
73.481412274299998
  0
ENDSEC
  0
EOF
