  0
SECTION
  2
HEADER
  9
$ACADVER
  1
AC1009
  9
$INSBASE
 10
0.0
 20
0.0
 30
0.0
  9
$EXTMIN
 10
-0.0076288124635084
 20
-0.0076288124635084
 30
-0.0015258207003583
  9
$EXTMAX
 10
250.0076299766167
 20
250.0076299766167
 30
0.0000000349246037
  9
$LIMMIN
 10
0.0
 20
0.0
  9
$LIMMAX
 10
250.0
 20
250.0
  9
$ORTHOMODE
 70
     0
  9
$REGENMODE
 70
     1
  9
$FILLMODE
 70
     1
  9
$QTEXTMODE
 70
     0
  9
$MIRRTEXT
 70
     0
  9
$DRAGMODE
 70
     2
  9
$LTSCALE
 40
16.2962962963
  9
$OSMODE
 70
    37
  9
$ATTMODE
 70
     1
  9
$TEXTSIZE
 40
0.2
  9
$TRACEWID
 40
0.05
  9
$TEXTSTYLE
  7
STANDARD
  9
$CLAYER
  8
0
  9
$CELTYPE
  6
ByLayer
  9
$CECOLOR
 62
   256
  9
$DIMSCALE
 40
1.0
  9
$DIMASZ
 40
4.0
  9
$DIMEXO
 40
1.587499999999999
  9
$DIMDLI
 40
11.2592592593
  9
$DIMRND
 40
0.0
  9
$DIMDLE
 40
0.0
  9
$DIMEXE
 40
1.587499999999999
  9
$DIMTP
 40
0.0
  9
$DIMTM
 40
0.0
  9
$DIMTXT
 40
2.0
  9
$DIMCEN
 40
2.666666666699999
  9
$DIMTSZ
 40
0.0
  9
$DIMTOL
 70
     0
  9
$DIMLIM
 70
     0
  9
$DIMTIH
 70
     1
  9
$DIMTOH
 70
     1
  9
$DIMSE1
 70
     0
  9
$DIMSE2
 70
     0
  9
$DIMTAD
 70
     0
  9
$DIMZIN
 70
     0
  9
$DIMBLK
  1
_FILLED
  9
$DIMASO
 70
     1
  9
$DIMSHO
 70
     1
  9
$DIMPOST
  1

  9
$DIMAPOST
  1

  9
$DIMALT
 70
     0
  9
$DIMALTD
 70
     2
  9
$DIMALTF
 40
25.399999999999999
  9
$DIMLFAC
 40
1.0
  9
$DIMTOFL
 70
     0
  9
$DIMTVP
 40
0.0
  9
$DIMTIX
 70
     0
  9
$DIMSOXD
 70
     0
  9
$DIMSAH
 70
     0
  9
$DIMBLK1
  1

  9
$DIMBLK2
  1

  9
$DIMSTYLE
  2
STANDARD
  9
$DIMCLRD
 70
     0
  9
$DIMCLRE
 70
     0
  9
$DIMCLRT
 70
     0
  9
$DIMTFAC
 40
1.0
  9
$DIMGAP
 40
0.09
  9
$LUNITS
 70
     2
  9
$LUPREC
 70
     4
  9
$SKETCHINC
 40
0.1
  9
$FILLETRAD
 40
0.0
  9
$AUNITS
 70
     0
  9
$AUPREC
 70
     0
  9
$MENU
  1
.
  9
$ELEVATION
 40
0.0
  9
$PELEVATION
 40
0.0
  9
$THICKNESS
 40
0.0
  9
$LIMCHECK
 70
     0
  9
$BLIPMODE
 70
     0
  9
$CHAMFERA
 40
0.0
  9
$CHAMFERB
 40
0.0
  9
$SKPOLY
 70
     0
  9
$TDCREATE
 40
2456262.5652095489
  9
$TDUPDATE
 40
2456262.5663222228
  9
$TDINDWG
 40
0.0011132523
  9
$TDUSRTIMER
 40
0.0011132523
  9
$USRTIMER
 70
     1
  9
$ANGBASE
 50
0.0
  9
$ANGDIR
 70
     0
  9
$PDMODE
 70
     3
  9
$PDSIZE
 40
7.9375
  9
$PLINEWID
 40
0.0
  9
$COORDS
 70
     1
  9
$SPLFRAME
 70
     0
  9
$SPLINETYPE
 70
     6
  9
$SPLINESEGS
 70
     8
  9
$ATTDIA
 70
     0
  9
$ATTREQ
 70
     1
  9
$HANDLING
 70
     1
  9
$HANDSEED
  5
3AC
  9
$SURFTAB1
 70
     6
  9
$SURFTAB2
 70
     6
  9
$SURFTYPE
 70
     6
  9
$SURFU
 70
     6
  9
$SURFV
 70
     6
  9
$UCSNAME
  2

  9
$UCSORG
 10
0.0
 20
0.0
 30
0.0
  9
$UCSXDIR
 10
1.0
 20
0.0
 30
0.0
  9
$UCSYDIR
 10
0.0
 20
1.0
 30
0.0
  9
$PUCSNAME
  2

  9
$PUCSORG
 10
0.0
 20
0.0
 30
0.0
  9
$PUCSXDIR
 10
1.0
 20
0.0
 30
0.0
  9
$PUCSYDIR
 10
0.0
 20
1.0
 30
0.0
  9
$USERI1
 70
     0
  9
$USERI2
 70
     0
  9
$USERI3
 70
     0
  9
$USERI4
 70
     0
  9
$USERI5
 70
     0
  9
$USERR1
 40
0.0
  9
$USERR2
 40
0.0
  9
$USERR3
 40
0.0
  9
$USERR4
 40
0.0
  9
$USERR5
 40
0.0
  9
$WORLDVIEW
 70
     1
  9
$SHADEDGE
 70
     3
  9
$SHADEDIF
 70
    70
  9
$TILEMODE
 70
     1
  9
$MAXACTVP
 70
    64
  9
$PLIMCHECK
 70
     0
  9
$PEXTMIN
 10
1.0000000000000000E+020
 20
1.0000000000000000E+020
 30
1.0000000000000000E+020
  9
$PEXTMAX
 10
-1.0000000000000000E+020
 20
-1.0000000000000000E+020
 30
-1.0000000000000000E+020
  9
$PLIMMIN
 10
0.0
 20
0.0
  9
$PLIMMAX
 10
12.0
 20
9.0
  9
$UNITMODE
 70
     0
  9
$VISRETAIN
 70
     1
  9
$PLINEGEN
 70
     0
  9
$PSLTSCALE
 70
     1
  0
ENDSEC
  0
SECTION
  2
TABLES
  0
TABLE
  2
VPORT
 70
     1
  0
VPORT
  2
*ACTIVE
 70
     0
 10
0.0
 20
0.0
 11
1.0
 21
1.0
 12
125.00000058207659
 22
125.00000058207659
 13
0.0
 23
0.0
 14
1.0
 24
1.0
 15
0.0
 25
0.0
 16
0.0
 26
0.0
 36
1.0
 17
0.0
 27
0.0
 37
0.0
 40
252.10743668689679
 41
1.1005586592178771
 42
50.0
 43
0.0
 44
0.0
 50
0.0
 51
0.0
 71
     0
 72
   100
 73
     1
 74
     1
 75
     0
 76
     0
 77
     0
 78
     0
  0
ENDTAB
  0
TABLE
  2
LTYPE
 70
     8
  0
LTYPE
  2
ByBlock
 70
     0
  3

 72
    65
 73
     0
 40
0.0
  0
LTYPE
  2
ByLayer
 70
     0
  3

 72
    65
 73
     0
 40
0.0
  0
LTYPE
  2
CONTINUOUS
 70
     0
  3
Solid line
 72
    65
 73
     0
 40
0.0
  0
LTYPE
  2
CENTER
 70
     0
  3
____ _ ____ _ ____ _ ____ _ ____ _ ____ _ ____
 72
    65
 73
     4
 40
0.6
 49
0.375
 49
-0.075
 49
0.075
 49
-0.075
  0
LTYPE
  2
HIDDEN
 70
     0
  3
- - - - - - - - - - - - - - - - - - - -
 72
    65
 73
     2
 40
0.2
 49
0.1
 49
-0.1
  0
LTYPE
  2
PHANTOM
 70
     0
  3
_____ _ _ _____ _ _ _____ _ _ _____
 72
    65
 73
     6
 40
0.8
 49
0.45
 49
-0.05
 49
0.1
 49
-0.05
 49
0.1
 49
-0.05
  0
LTYPE
  2
DOT
 70
     0
  3
. . . . . . . . . . . . . . . . . . . .
 72
    65
 73
     2
 40
0.2
 49
0.1
 49
-0.1
  0
LTYPE
  2
DASHED
 70
     0
  3
- - - - - - - - - - - - - - - - - - - -
 72
    65
 73
     2
 40
0.2
 49
0.1
 49
-0.1
  0
ENDTAB
  0
TABLE
  2
LAYER
 70
    19
  0
LAYER
  2
0
 70
     0
 62
     7
  6
CONTINUOUS
  0
LAYER
  2
DEFAULT_1
 70
     0
 62
     7
  6
CENTER
  0
LAYER
  2
DEFAULT_2
 70
     0
 62
     8
  6
HIDDEN
  0
LAYER
  2
DEFAULT_3
 70
     0
 62
     7
  6
PHANTOM
  0
LAYER
  2
CURB-14
 70
     0
 62
     6
  6
CONTINUOUS
  0
LAYER
  2
CURB-14-DIM
 70
     0
 62
     6
  6
CONTINUOUS
  0
LAYER
  2
CURB-24
 70
     0
 62
     6
  6
CONTINUOUS
  0
LAYER
  2
CURB-24-DIM
 70
     0
 62
     6
  6
CONTINUOUS
  0
LAYER
  2
CURB-DUCTS
 70
     0
 62
     5
  6
CONTINUOUS
  0
LAYER
  2
CURBDUCTDIM
 70
     0
 62
     5
  6
CONTINUOUS
  0
LAYER
  2
HOOD
 70
     0
 62
     7
  6
CONTINUOUS
  0
LAYER
  2
NOTES
 70
     0
 62
     1
  6
CONTINUOUS
  0
LAYER
  2
SERVCLEAR
 70
     0
 62
     1
  6
CONTINUOUS
  0
LAYER
  2
SERVCLRDIM
 70
     0
 62
     1
  6
CONTINUOUS
  0
LAYER
  2
UNIT-DIM
 70
     0
 62
     7
  6
CONTINUOUS
  0
LAYER
  2
UNIT-DUCTS
 70
     0
 62
     2
  6
CONTINUOUS
  0
LAYER
  2
UNIT-HID
 70
     0
 62
     8
  6
CONTINUOUS
  0
LAYER
  2
UNIT-SOL
 70
     0
 62
     7
  6
CONTINUOUS
  0
LAYER
  2
UNITDUCTDIM
 70
     0
 62
     2
  6
CONTINUOUS
  0
ENDTAB
  0
TABLE
  2
STYLE
 70
     4
  0
STYLE
  2
STANDARD
 70
     0
 40
0.0
 41
0.8
 50
0.0
 71
     0
 42
0.2
  3
txt
  4

  0
STYLE
  2
ANNOTATIVE
 70
     0
 40
0.0
 41
1.0
 50
0.0
 71
     0
 42
0.2
  3
txt
  4

  0
STYLE
  2
TEXTSTYLE_1
 70
     0
 40
0.0
 41
0.8
 50
0.0
 71
     0
 42
0.2
  3
gdt
  4

  0
STYLE
  2
TEXTSTYLE_2
 70
     0
 40
0.0
 41
8.0
 50
0.0
 71
     0
 42
0.2
  3
txt
  4

  0
ENDTAB
  0
TABLE
  2
VIEW
 70
     0
  0
ENDTAB
  0
TABLE
  2
UCS
 70
     0
  0
ENDTAB
  0
TABLE
  2
APPID
 70
     4
  0
APPID
  2
ACAD
 70
     0
  0
APPID
  2
ACADANNOTATIVE
 70
     0
  0
APPID
  2
ACAD_NAV_VCDISPLAY
 70
     0
  0
APPID
  2
ACAD_MLEADERVER
 70
     0
  0
ENDTAB
  0
TABLE
  2
DIMSTYLE
 70
     2
  0
DIMSTYLE
  2
STANDARD
 70
     0
  3

  4

  5

  6

  7

 40
1.0
 41
0.18
 42
0.0625
 43
0.38
 44
0.18
 45
0.0
 46
0.0
 47
0.0
 48
0.0
140
0.18
141
0.09
142
0.0
143
25.399999999999999
144
1.0
145
0.0
146
1.0
147
0.09
 71
     0
 72
     0
 73
     1
 74
     1
 75
     0
 76
     0
 77
     0
 78
     0
170
     0
171
     2
172
     0
173
     0
174
     0
175
     0
176
     0
177
     0
178
     0
  0
DIMSTYLE
  2
ANNOTATIVE
 70
     0
  3

  4

  5

  6

  7

 40
1.0
 41
0.18
 42
0.0625
 43
0.38
 44
0.18
 45
0.0
 46
0.0
 47
0.0
 48
0.0
140
0.18
141
0.09
142
0.0
143
25.399999999999999
144
1.0
145
0.0
146
1.0
147
0.09
 71
     0
 72
     0
 73
     1
 74
     1
 75
     0
 76
     0
 77
     0
 78
     0
170
     0
171
     2
172
     0
173
     0
174
     0
175
     0
176
     0
177
     0
178
     0
  0
ENDTAB
  0
ENDSEC
  0
SECTION
  2
BLOCKS
  0
BLOCK
  8
0
  2
$MODEL_SPACE
 70
     0
 10
0.0
 20
0.0
 30
0.0
  3
$MODEL_SPACE
  1

  0
ENDBLK
  5
6D
  8
0
  0
BLOCK
 67
     1
  8
0
  2
$PAPER_SPACE
 70
     0
 10
0.0
 20
0.0
 30
0.0
  3
$PAPER_SPACE
  1

  0
ENDBLK
  5
69
 67
     1
  8
0
  0
BLOCK
  8
0
  2
_FILLED
 70
     0
 10
0.0
 20
0.0
 30
0.0
  3
_FILLED
  1

  0
SOLID
  5
8F
  8
0
  6
ByBlock
 62
     0
 10
0.0
 20
0.0
 30
0.0
 11
-1.0
 21
0.1875
 31
0.0
 12
-1.0
 22
-0.1875
 32
0.0
 13
-1.0
 23
-0.1875
 33
0.0
  0
ENDBLK
  5
90
  8
0
  6
ByBlock
 62
     0
  0
BLOCK
  8
SERVCLRDIM
  6
CONTINUOUS
 62
     1
  2
*D1
 70
     1
 10
0.0
 20
0.0
 30
0.0
  3
*D1
  1

  0
TEXT
  5
93
  8
SERVCLRDIM
  6
CONTINUOUS
 62
     1
 10
123.0992916667
 20
26.667749272399998
 30
0.0
 40
2.0
  1
36-48" DEPENDING ON OPTIONS.
 41
0.8
  0
TEXT
  5
94
  8
SERVCLRDIM
  6
CONTINUOUS
 62
     1
 10
123.0992916667
 20
23.667749272399998
 30
0.0
 40
2.0
  1
CHECK FOR ADJACENT UNITS OR
 41
0.8
  0
TEXT
  5
95
  8
SERVCLRDIM
  6
CONTINUOUS
 62
     1
 10
123.0992916667
 20
20.667749272399998
 30
0.0
 40
2.0
  1
BUILDING FRESH AIR INTAKE
 41
0.8
  0
TEXT
  5
96
  8
SERVCLRDIM
  6
CONTINUOUS
 62
     1
 10
123.0992916667
 20
17.667749272399998
 30
0.0
 40
2.0
  1
WITHIN 10FT. OF THIS UNITS
 41
0.8
  0
TEXT
  5
97
  8
SERVCLRDIM
  6
CONTINUOUS
 62
     1
 10
123.0992916667
 20
14.6677492724
 30
0.0
 40
2.0
  1
FLUE OUTLET. SEE PRODUCT DATA
 41
0.8
  0
TEXT
  5
98
  8
SERVCLRDIM
  6
CONTINUOUS
 62
     1
 10
123.0992916667
 20
11.6677492724
 30
0.0
 40
2.0
  1
FOR DETAILS.
 41
0.8
  0
LINE
  5
99
  8
SERVCLRDIM
  6
CONTINUOUS
 62
     1
 10
107.161656299
 20
41.521221494700001
 30
0.0
 11
118.33679166669999
 21
41.521221494700001
 31
0.0
  0
LINE
  5
9A
  8
SERVCLRDIM
  6
CONTINUOUS
 62
     1
 10
116.7492916667
 20
89.521221494699986
 30
0.0
 11
116.7492916667
 21
65.521221494700001
 31
0.0
  0
LINE
  5
9B
  8
SERVCLRDIM
  6
CONTINUOUS
 62
     1
 10
116.7492916667
 20
41.521221494700001
 30
0.0
 11
116.7492916667
 21
65.521221494700001
 31
0.0
  0
LINE
  5
9C
  8
SERVCLRDIM
  6
CONTINUOUS
 62
     1
 10
116.7492916667
 20
65.521221494700001
 30
0.0
 11
116.7492916667
 21
27.667749272399998
 31
0.0
  0
LINE
  5
9D
  8
SERVCLRDIM
  6
CONTINUOUS
 62
     1
 10
116.7492916667
 20
27.667749272399998
 30
0.0
 11
121.0992916667
 21
27.667749272399998
 31
0.0
  0
INSERT
  5
9E
  8
SERVCLRDIM
  6
CONTINUOUS
 62
     1
  2
_FILLED
 10
116.7492916667
 20
89.521221494699986
 30
0.0
 41
4.0
 42
4.0
 43
4.0
 50
90.0
  0
INSERT
  5
9F
  8
SERVCLRDIM
  6
CONTINUOUS
 62
     1
  2
_FILLED
 10
116.7492916667
 20
41.521221494700001
 30
0.0
 41
4.0
 42
4.0
 43
4.0
 50
270.0
  0
ENDBLK
  5
A0
  8
0
  6
ByBlock
 62
     0
  0
BLOCK
  8
SERVCLRDIM
  6
CONTINUOUS
 62
     1
  2
*D2
 70
     1
 10
0.0
 20
0.0
 30
0.0
  3
*D2
  1

  0
TEXT
  5
A3
  8
SERVCLRDIM
  6
CONTINUOUS
 62
     1
 10
188.62694716089999
 20
197.51835294680001
 30
0.0
 40
2.0
  1
18-36 DEPENDING
 41
0.8
  0
TEXT
  5
A4
  8
SERVCLRDIM
  6
CONTINUOUS
 62
     1
 10
188.62694716089999
 20
194.51835294680001
 30
0.0
 40
2.0
  1
ON OPTIONS, SEE
 41
0.8
  0
TEXT
  5
A5
  8
SERVCLRDIM
  6
CONTINUOUS
 62
     1
 10
188.62694716089999
 20
191.51835294680001
 30
0.0
 40
2.0
  1
PRODUCT DATA FOR 
 41
0.8
  0
TEXT
  5
A6
  8
SERVCLRDIM
  6
CONTINUOUS
 62
     1
 10
188.62694716089999
 20
188.51835294680001
 30
0.0
 40
2.0
  1
DETAILS.
 41
0.8
  0
LINE
  5
A7
  8
SERVCLRDIM
  6
CONTINUOUS
 62
     1
 10
184.27444467090001
 20
191.13266528470001
 30
0.0
 11
184.27444467090001
 21
197.51835294680001
 31
0.0
  0
LINE
  5
A8
  8
SERVCLRDIM
  6
CONTINUOUS
 62
     1
 10
184.27444467090001
 20
197.51835294680001
 30
0.0
 11
184.27444467090001
 21
200.10585294680001
 31
0.0
  0
LINE
  5
A9
  8
SERVCLRDIM
  6
CONTINUOUS
 62
     1
 10
184.27444467090001
 20
198.51835294680001
 30
0.0
 11
171.57444467089999
 21
198.51835294680001
 31
0.0
  0
LINE
  5
AA
  8
SERVCLRDIM
  6
CONTINUOUS
 62
     1
 10
220.24319467090001
 20
198.51835294680001
 30
0.0
 11
232.9431946709
 21
198.51835294680001
 31
0.0
  0
INSERT
  5
AB
  8
SERVCLRDIM
  6
CONTINUOUS
 62
     1
  2
_FILLED
 10
184.27444467090001
 20
198.51835294680001
 30
0.0
 41
4.0
 42
4.0
 43
4.0
  0
INSERT
  5
AC
  8
SERVCLRDIM
  6
CONTINUOUS
 62
     1
  2
_FILLED
 10
220.24319467090001
 20
198.51835294680001
 30
0.0
 41
4.0
 42
4.0
 43
4.0
 50
180.0
  0
ENDBLK
  5
AD
  8
0
  6
ByBlock
 62
     0
  0
BLOCK
  8
UNIT-DIM
  6
CONTINUOUS
 62
     7
  2
*D3
 70
     1
 10
0.0
 20
0.0
 30
0.0
  3
*D3
  1

  0
TEXT
  5
B0
  8
UNIT-DIM
  6
CONTINUOUS
 62
     7
 10
221.39895603490001
 20
101.0126737894
 30
0.0
 40
2.0
  1
41-1/2
 41
0.8
 72
     1
 11
225.39895603490001
 21
101.0126737894
 31
0.0
  0
TEXT
  5
B1
  8
UNIT-DIM
  6
CONTINUOUS
 62
     7
 10
230.19895603489999
 20
101.0126737894
 30
0.0
 40
2.0
  1
 
 41
0.8
 72
     1
 11
230.9989560349
 21
101.0126737894
 31
0.0
  0
TEXT
  5
B2
  8
UNIT-DIM
  6
CONTINUOUS
 62
     7
 10
221.1322893682333
 20
98.012673789400026
 30
0.0
 40
2.0
  1
[
 41
0.8
 72
     1
 11
221.39895603490001
 21
98.012673789400026
 31
0.0
  0
TEXT
  5
B3
  8
UNIT-DIM
  6
CONTINUOUS
 62
     7
 10
222.86562270156671
 20
98.012673789400026
 30
0.0
 40
2.0
  1
1055
 41
0.8
 72
     1
 11
225.39895603490001
 21
98.012673789400026
 31
0.0
  0
TEXT
  5
B4
  8
UNIT-DIM
  6
CONTINUOUS
 62
     7
 10
229.1322893682333
 20
98.012673789400026
 30
0.0
 40
2.0
  1
]
 41
0.8
 72
     1
 11
229.39895603490001
 21
98.012673789400026
 31
0.0
  0
LINE
  5
B5
  8
UNIT-DIM
  6
CONTINUOUS
 62
     7
 10
185.8619446708999
 20
89.521221494699986
 30
0.0
 11
227.7864560349
 21
89.521221494699986
 31
0.0
  0
LINE
  5
B6
  8
UNIT-DIM
  6
CONTINUOUS
 62
     7
 10
160.5929587697
 20
131.05480235260001
 30
0.0
 11
212.53022178660001
 21
131.05480235260001
 31
0.0
  0
LINE
  5
B7
  8
UNIT-DIM
  6
CONTINUOUS
 62
     7
 10
215.6469378024
 20
131.05480235260001
 30
0.0
 11
227.7864560349
 21
131.05480235260001
 31
0.0
  0
LINE
  5
B8
  8
UNIT-DIM
  6
CONTINUOUS
 62
     7
 10
226.19895603489999
 20
89.521221494699986
 30
0.0
 11
226.19895603489999
 21
96.012673789400012
 31
0.0
  0
LINE
  5
B9
  8
UNIT-DIM
  6
CONTINUOUS
 62
     7
 10
226.19895603489999
 20
131.05480235260001
 30
0.0
 11
226.19895603489999
 21
105.0126737894
 31
0.0
  0
INSERT
  5
BA
  8
UNIT-DIM
  6
CONTINUOUS
 62
     7
  2
_FILLED
 10
226.19895603489999
 20
89.521221494699986
 30
0.0
 41
4.0
 42
4.0
 43
4.0
 50
270.0
  0
INSERT
  5
BB
  8
UNIT-DIM
  6
CONTINUOUS
 62
     7
  2
_FILLED
 10
226.19895603489999
 20
131.05480235260001
 30
0.0
 41
4.0
 42
4.0
 43
4.0
 50
90.0
  0
ENDBLK
  5
BC
  8
0
  6
ByBlock
 62
     0
  0
BLOCK
  8
UNIT-DIM
  6
CONTINUOUS
 62
     7
  2
*D4
 70
     1
 10
0.0
 20
0.0
 30
0.0
  3
*D4
  1

  0
TEXT
  5
BF
  8
UNIT-DIM
  6
CONTINUOUS
 62
     7
 10
190.70801039989999
 20
139.9391343371
 30
0.0
 40
2.0
  1
26
 41
0.8
  0
TEXT
  5
C0
  8
UNIT-DIM
  6
CONTINUOUS
 62
     7
 10
201.90801039990001
 20
139.9391343371
 30
0.0
 40
2.0
  1
 
 41
0.8
  0
TEXT
  5
C1
  8
UNIT-DIM
  6
CONTINUOUS
 62
     7
 10
190.70801039989999
 20
136.9391343371
 30
0.0
 40
2.0
  1
[
 41
0.8
  0
TEXT
  5
C2
  8
UNIT-DIM
  6
CONTINUOUS
 62
     7
 10
192.30801039990001
 20
136.9391343371
 30
0.0
 40
2.0
  1
660.6
 41
0.8
  0
TEXT
  5
C3
  8
UNIT-DIM
  6
CONTINUOUS
 62
     7
 10
200.30801039990001
 20
136.9391343371
 30
0.0
 40
2.0
  1
]
 41
0.8
  0
LINE
  5
C4
  8
UNIT-DIM
  6
CONTINUOUS
 62
     7
 10
158.26500095590001
 20
133.3827601664
 30
0.0
 11
158.26500095590001
 21
142.52663433709989
 31
0.0
  0
LINE
  5
C5
  8
UNIT-DIM
  6
CONTINUOUS
 62
     7
 10
184.27444467090001
 20
140.9391343371
 30
0.0
 11
171.26972281339999
 21
140.9391343371
 31
0.0
  0
LINE
  5
C6
  8
UNIT-DIM
  6
CONTINUOUS
 62
     7
 10
171.26972281339999
 20
140.9391343371
 30
0.0
 11
188.70801039989999
 21
140.9391343371
 31
0.0
  0
LINE
  5
C7
  8
UNIT-DIM
  6
CONTINUOUS
 62
     7
 10
158.26500095590001
 20
140.9391343371
 30
0.0
 11
171.26972281339999
 21
140.9391343371
 31
0.0
  0
INSERT
  5
C8
  8
UNIT-DIM
  6
CONTINUOUS
 62
     7
  2
_FILLED
 10
184.27444467090001
 20
140.9391343371
 30
0.0
 41
4.0
 42
4.0
 43
4.0
  0
INSERT
  5
C9
  8
UNIT-DIM
  6
CONTINUOUS
 62
     7
  2
_FILLED
 10
158.26500095590001
 20
140.9391343371
 30
0.0
 41
4.0
 42
4.0
 43
4.0
 50
180.0
  0
ENDBLK
  5
CA
  8
0
  6
ByBlock
 62
     0
  0
BLOCK
  8
UNIT-DIM
  6
CONTINUOUS
 62
     7
  2
*D5
 70
     1
 10
0.0
 20
0.0
 30
0.0
  3
*D5
  1

  0
TEXT
  5
CD
  8
UNIT-DIM
  6
CONTINUOUS
 62
     7
 10
106.78807819696659
 20
166.39260302549999
 30
0.0
 40
2.0
  1
29
 41
0.8
 72
     1
 11
108.12141153029999
 21
166.39260302549999
 31
0.0
  0
TEXT
  5
CE
  8
UNIT-DIM
  6
CONTINUOUS
 62
     7
 10
114.5214115303
 20
166.39260302549999
 30
0.0
 40
2.0
  1
 
 41
0.8
 72
     1
 11
115.3214115303
 21
166.39260302549999
 31
0.0
  0
TEXT
  5
CF
  8
UNIT-DIM
  6
CONTINUOUS
 62
     7
 10
107.0547448636333
 20
163.39260302549999
 30
0.0
 40
2.0
  1
[
 41
0.8
 72
     1
 11
107.3214115303
 21
163.39260302549999
 31
0.0
  0
TEXT
  5
D0
  8
UNIT-DIM
  6
CONTINUOUS
 62
     7
 10
108.3880781969666
 20
163.39260302549999
 30
0.0
 40
2.0
  1
738
 41
0.8
 72
     1
 11
110.5214115303
 21
163.39260302549999
 31
0.0
  0
TEXT
  5
D1
  8
UNIT-DIM
  6
CONTINUOUS
 62
     7
 10
113.45474486363329
 20
163.39260302549999
 30
0.0
 40
2.0
  1
]
 41
0.8
 72
     1
 11
113.7214115303
 21
163.39260302549999
 31
0.0
  0
LINE
  5
D2
  8
UNIT-DIM
  6
CONTINUOUS
 62
     7
 10
127.9566380894
 20
181.91596228610001
 30
0.0
 11
109.73391153030001
 21
181.91596228610001
 31
0.0
  0
LINE
  5
D3
  8
UNIT-DIM
  6
CONTINUOUS
 62
     7
 10
111.3214115303
 20
152.86924376479999
 30
0.0
 11
111.3214115303
 21
161.39260302549999
 31
0.0
  0
LINE
  5
D4
  8
UNIT-DIM
  6
CONTINUOUS
 62
     7
 10
111.3214115303
 20
181.91596228610001
 30
0.0
 11
111.3214115303
 21
170.39260302549999
 31
0.0
  0
INSERT
  5
D5
  8
UNIT-DIM
  6
CONTINUOUS
 62
     7
  2
_FILLED
 10
111.3214115303
 20
152.86924376479999
 30
0.0
 41
4.0
 42
4.0
 43
4.0
 50
270.0
  0
INSERT
  5
D6
  8
UNIT-DIM
  6
CONTINUOUS
 62
     7
  2
_FILLED
 10
111.3214115303
 20
181.91596228610001
 30
0.0
 41
4.0
 42
4.0
 43
4.0
 50
90.0
  0
ENDBLK
  5
D7
  8
0
  6
ByBlock
 62
     0
  0
BLOCK
  8
UNIT-DIM
  6
CONTINUOUS
 62
     7
  2
*D6
 70
     1
 10
0.0
 20
0.0
 30
0.0
  3
*D6
  1

  0
TEXT
  5
DA
  8
UNIT-DIM
  6
CONTINUOUS
 62
     7
 10
150.6594434488666
 20
188.2149470299
 30
0.0
 40
2.0
  1
52-7/8
 41
0.8
 72
     1
 11
155.1927767821999
 21
188.2149470299
 31
0.0
  0
TEXT
  5
DB
  8
UNIT-DIM
  6
CONTINUOUS
 62
     7
 10
159.99277678219991
 20
188.2149470299
 30
0.0
 40
2.0
  1
 
 41
0.8
 72
     1
 11
160.79277678220001
 21
188.2149470299
 31
0.0
  0
TEXT
  5
DC
  8
UNIT-DIM
  6
CONTINUOUS
 62
     7
 10
150.92611011553331
 20
185.2149470299
 30
0.0
 40
2.0
  1
[
 41
0.8
 72
     1
 11
151.1927767821999
 21
185.2149470299
 31
0.0
  0
TEXT
  5
DD
  8
UNIT-DIM
  6
CONTINUOUS
 62
     7
 10
152.5261101155333
 20
185.2149470299
 30
0.0
 40
2.0
  1
1344
 41
0.8
 72
     1
 11
155.1927767821999
 21
185.2149470299
 31
0.0
  0
TEXT
  5
DE
  8
UNIT-DIM
  6
CONTINUOUS
 62
     7
 10
158.92611011553331
 20
185.2149470299
 30
0.0
 40
2.0
  1
]
 41
0.8
 72
     1
 11
159.19277678220001
 21
185.2149470299
 31
0.0
  0
LINE
  5
DF
  8
UNIT-DIM
  6
CONTINUOUS
 62
     7
 10
182.44141547500001
 20
183.50346228609999
 30
0.0
 11
182.44141547500001
 21
190.80244702990001
 31
0.0
  0
LINE
  5
E0
  8
UNIT-DIM
  6
CONTINUOUS
 62
     7
 10
129.54413808940001
 20
183.50346228609999
 30
0.0
 11
129.54413808940001
 21
190.80244702990001
 31
0.0
  0
LINE
  5
E1
  8
UNIT-DIM
  6
CONTINUOUS
 62
     7
 10
182.44141547500001
 20
189.2149470299
 30
0.0
 11
163.59277678219999
 21
189.2149470299
 31
0.0
  0
LINE
  5
E2
  8
UNIT-DIM
  6
CONTINUOUS
 62
     7
 10
129.54413808940001
 20
189.2149470299
 30
0.0
 11
148.3927767822
 21
189.2149470299
 31
0.0
  0
INSERT
  5
E3
  8
UNIT-DIM
  6
CONTINUOUS
 62
     7
  2
_FILLED
 10
182.44141547500001
 20
189.2149470299
 30
0.0
 41
4.0
 42
4.0
 43
4.0
  0
INSERT
  5
E4
  8
UNIT-DIM
  6
CONTINUOUS
 62
     7
  2
_FILLED
 10
129.54413808940001
 20
189.2149470299
 30
0.0
 41
4.0
 42
4.0
 43
4.0
 50
180.0
  0
ENDBLK
  5
E5
  8
0
  6
ByBlock
 62
     0
  0
BLOCK
  8
UNIT-DIM
  6
CONTINUOUS
 62
     7
  2
*D7
 70
     1
 10
0.0
 20
0.0
 30
0.0
  3
*D7
  1

  0
TEXT
  5
E8
  8
UNIT-DIM
  6
CONTINUOUS
 62
     7
 10
33.370318034466671
 20
119.41573764340001
 30
0.0
 40
2.0
  1
15
 41
0.8
 72
     2
 11
35.503651367800003
 21
119.41573764340001
 31
0.0
  0
TEXT
  5
E9
  8
UNIT-DIM
  6
CONTINUOUS
 62
     7
 10
40.303651367800001
 20
119.41573764340001
 30
0.0
 40
2.0
  1
 
 41
0.8
 72
     2
 11
41.903651367800002
 21
119.41573764340001
 31
0.0
  0
TEXT
  5
EA
  8
UNIT-DIM
  6
CONTINUOUS
 62
     7
 10
33.370318034466671
 20
116.41573764340001
 30
0.0
 40
2.0
  1
[
 41
0.8
 72
     2
 11
33.903651367800002
 21
116.41573764340001
 31
0.0
  0
TEXT
  5
EB
  8
UNIT-DIM
  6
CONTINUOUS
 62
     7
 10
34.436984701133333
 20
116.41573764340001
 30
0.0
 40
2.0
  1
382
 41
0.8
 72
     2
 11
38.703651367799999
 21
116.41573764340001
 31
0.0
  0
TEXT
  5
EC
  8
UNIT-DIM
  6
CONTINUOUS
 62
     7
 10
39.770318034466669
 20
116.41573764340001
 30
0.0
 40
2.0
  1
]
 41
0.8
 72
     2
 11
40.303651367800001
 21
116.41573764340001
 31
0.0
  0
LINE
  5
ED
  8
UNIT-DIM
  6
CONTINUOUS
 62
     7
 10
66.831595069700001
 20
89.521221494699986
 30
0.0
 11
44.719582636200002
 21
89.521221494699986
 31
0.0
  0
LINE
  5
EE
  8
UNIT-DIM
  6
CONTINUOUS
 62
     7
 10
111.0871680864
 20
104.5515394327
 30
0.0
 11
44.719582636200002
 21
104.5515394327
 31
0.0
  0
LINE
  5
EF
  8
UNIT-DIM
  6
CONTINUOUS
 62
     7
 10
46.307082636199993
 20
89.521221494699986
 30
0.0
 11
46.307082636199993
 21
97.036380463700013
 31
0.0
  0
LINE
  5
F0
  8
UNIT-DIM
  6
CONTINUOUS
 62
     7
 10
46.307082636199993
 20
104.5515394327
 30
0.0
 11
46.307082636199993
 21
97.036380463700013
 31
0.0
  0
LINE
  5
F1
  8
UNIT-DIM
  6
CONTINUOUS
 62
     7
 10
46.307082636199993
 20
97.036380463700013
 30
0.0
 11
46.307082636199993
 21
120.41573764340001
 31
0.0
  0
LINE
  5
F2
  8
UNIT-DIM
  6
CONTINUOUS
 62
     7
 10
46.307082636199993
 20
120.41573764340001
 30
0.0
 11
43.903651367799988
 21
120.41573764340001
 31
0.0
  0
INSERT
  5
F3
  8
UNIT-DIM
  6
CONTINUOUS
 62
     7
  2
_FILLED
 10
46.307082636199993
 20
89.521221494699986
 30
0.0
 41
4.0
 42
4.0
 43
4.0
 50
270.0
  0
INSERT
  5
F4
  8
UNIT-DIM
  6
CONTINUOUS
 62
     7
  2
_FILLED
 10
46.307082636199993
 20
104.5515394327
 30
0.0
 41
4.0
 42
4.0
 43
4.0
 50
90.0
  0
ENDBLK
  5
F5
  8
0
  6
ByBlock
 62
     0
  0
BLOCK
  8
UNIT-DIM
  6
CONTINUOUS
 62
     7
  2
*D8
 70
     1
 10
0.0
 20
0.0
 30
0.0
  3
*D8
  1

  0
TEXT
  5
F8
  8
UNIT-DIM
  6
CONTINUOUS
 62
     7
 10
24.85336353360001
 20
82.286434338199996
 30
0.0
 40
2.0
  1
18-1/8
 41
0.8
 72
     2
 11
32.853363533600003
 21
82.286434338199996
 31
0.0
  0
TEXT
  5
F9
  8
UNIT-DIM
  6
CONTINUOUS
 62
     7
 10
32.853363533600003
 20
82.286434338199996
 30
0.0
 40
2.0
  1
 
 41
0.8
 72
     2
 11
34.453363533599997
 21
82.286434338199996
 31
0.0
  0
TEXT
  5
FA
  8
UNIT-DIM
  6
CONTINUOUS
 62
     7
 10
24.320030200266661
 20
79.286434338199996
 30
0.0
 40
2.0
  1
[
 41
0.8
 72
     2
 11
24.8533635336
 21
79.286434338199996
 31
0.0
  0
TEXT
  5
FB
  8
UNIT-DIM
  6
CONTINUOUS
 62
     7
 10
25.92003020026667
 20
79.286434338199996
 30
0.0
 40
2.0
  1
461
 41
0.8
 72
     2
 11
29.6533635336
 21
79.286434338199996
 31
0.0
  0
TEXT
  5
FC
  8
UNIT-DIM
  6
CONTINUOUS
 62
     7
 10
30.72003020026667
 20
79.286434338199996
 30
0.0
 40
2.0
  1
]
 41
0.8
 72
     2
 11
31.253363533600002
 21
79.286434338199996
 31
0.0
  0
LINE
  5
FD
  8
UNIT-DIM
  6
CONTINUOUS
 62
     7
 10
66.831595069700001
 20
89.521221494699986
 30
0.0
 11
36.738114394199997
 21
89.521221494699986
 31
0.0
  0
LINE
  5
FE
  8
UNIT-DIM
  6
CONTINUOUS
 62
     7
 10
111.0871680864
 20
107.6763214066
 30
0.0
 11
62.0634270356
 21
107.6763214066
 31
0.0
  0
LINE
  5
FF
  8
UNIT-DIM
  6
CONTINUOUS
 62
     7
 10
60.405599367600011
 20
107.6763214066
 30
0.0
 11
47.0600866403
 21
107.6763214066
 31
0.0
  0
LINE
  5
100
  8
UNIT-DIM
  6
CONTINUOUS
 62
     7
 10
45.3193675889
 20
107.6763214066
 30
0.0
 11
36.738114394199997
 21
107.6763214066
 31
0.0
  0
LINE
  5
101
  8
UNIT-DIM
  6
CONTINUOUS
 62
     7
 10
38.325614394200002
 20
89.521221494699986
 30
0.0
 11
38.325614394200002
 21
98.598771450599997
 31
0.0
  0
LINE
  5
102
  8
UNIT-DIM
  6
CONTINUOUS
 62
     7
 10
38.325614394200002
 20
98.598771450599997
 30
0.0
 11
38.325614394200002
 21
83.286434338199996
 31
0.0
  0
LINE
  5
103
  8
UNIT-DIM
  6
CONTINUOUS
 62
     7
 10
38.325614394200002
 20
83.286434338199996
 30
0.0
 11
36.453363533600012
 21
83.286434338199996
 31
0.0
  0
LINE
  5
104
  8
UNIT-DIM
  6
CONTINUOUS
 62
     7
 10
38.325614394200002
 20
107.6763214066
 30
0.0
 11
38.325614394200002
 21
98.598771450599997
 31
0.0
  0
INSERT
  5
105
  8
UNIT-DIM
  6
CONTINUOUS
 62
     7
  2
_FILLED
 10
38.325614394200002
 20
89.521221494699986
 30
0.0
 41
4.0
 42
4.0
 43
4.0
 50
270.0
  0
INSERT
  5
106
  8
UNIT-DIM
  6
CONTINUOUS
 62
     7
  2
_FILLED
 10
38.325614394200002
 20
107.6763214066
 30
0.0
 41
4.0
 42
4.0
 43
4.0
 50
90.0
  0
ENDBLK
  5
107
  8
0
  6
ByBlock
 62
     0
  0
BLOCK
  8
UNIT-DIM
  6
CONTINUOUS
 62
     7
  2
*D9
 70
     1
 10
0.0
 20
0.0
 30
0.0
  3
*D9
  1

  0
TEXT
  5
10A
  8
UNIT-DIM
  6
CONTINUOUS
 62
     7
 10
22.45067894306667
 20
98.777919703500004
 30
0.0
 40
2.0
  1
20-1/2
 41
0.8
 72
     1
 11
26.584012276399999
 21
98.777919703500004
 31
0.0
  0
TEXT
  5
10B
  8
UNIT-DIM
  6
CONTINUOUS
 62
     7
 10
31.3840122764
 20
98.777919703500004
 30
0.0
 40
2.0
  1
 
 41
0.8
 72
     1
 11
32.184012276399997
 21
98.777919703500004
 31
0.0
  0
TEXT
  5
10C
  8
UNIT-DIM
  6
CONTINUOUS
 62
     7
 10
22.31734560973333
 20
95.777919703500004
 30
0.0
 40
2.0
  1
[
 41
0.8
 72
     1
 11
22.584012276399999
 21
95.777919703500004
 31
0.0
  0
TEXT
  5
10D
  8
UNIT-DIM
  6
CONTINUOUS
 62
     7
 10
23.917345609733331
 20
95.777919703500004
 30
0.0
 40
2.0
  1
521
 41
0.8
 72
     1
 11
25.784012276399999
 21
95.777919703500004
 31
0.0
  0
TEXT
  5
10E
  8
UNIT-DIM
  6
CONTINUOUS
 62
     7
 10
28.717345609733329
 20
95.777919703500004
 30
0.0
 40
2.0
  1
]
 41
0.8
 72
     1
 11
28.984012276400001
 21
95.777919703500004
 31
0.0
  0
LINE
  5
10F
  8
UNIT-DIM
  6
CONTINUOUS
 62
     7
 10
66.831595069700001
 20
89.521221494699986
 30
0.0
 11
25.796512276400001
 21
89.521221494699986
 31
0.0
  0
LINE
  5
110
  8
UNIT-DIM
  6
CONTINUOUS
 62
     7
 10
111.0871680864
 20
110.03461791230001
 30
0.0
 11
61.980535652199997
 21
110.03461791230001
 31
0.0
  0
LINE
  5
111
  8
UNIT-DIM
  6
CONTINUOUS
 62
     7
 10
60.488490751000001
 20
110.03461791230001
 30
0.0
 11
47.142978023699989
 21
110.03461791230001
 31
0.0
  0
LINE
  5
112
  8
UNIT-DIM
  6
CONTINUOUS
 62
     7
 10
45.4851503557
 20
110.03461791230001
 30
0.0
 11
25.796512276400001
 21
110.03461791230001
 31
0.0
  0
LINE
  5
113
  8
UNIT-DIM
  6
CONTINUOUS
 62
     7
 10
27.3840122764
 20
89.521221494699986
 30
0.0
 11
27.3840122764
 21
93.777919703500004
 31
0.0
  0
LINE
  5
114
  8
UNIT-DIM
  6
CONTINUOUS
 62
     7
 10
27.3840122764
 20
110.03461791230001
 30
0.0
 11
27.3840122764
 21
102.7779197035
 31
0.0
  0
INSERT
  5
115
  8
UNIT-DIM
  6
CONTINUOUS
 62
     7
  2
_FILLED
 10
27.3840122764
 20
89.521221494699986
 30
0.0
 41
4.0
 42
4.0
 43
4.0
 50
270.0
  0
INSERT
  5
116
  8
UNIT-DIM
  6
CONTINUOUS
 62
     7
  2
_FILLED
 10
27.3840122764
 20
110.03461791230001
 30
0.0
 41
4.0
 42
4.0
 43
4.0
 50
90.0
  0
ENDBLK
  5
117
  8
0
  6
ByBlock
 62
     0
  0
BLOCK
  8
UNIT-DIM
  6
CONTINUOUS
 62
     7
  2
*D10
 70
     1
 10
0.0
 20
0.0
 30
0.0
  3
*D10
  1

  0
TEXT
  5
11A
  8
UNIT-DIM
  6
CONTINUOUS
 62
     7
 10
8.408359277833334
 20
99.771631855100011
 30
0.0
 40
2.0
  1
22-1/2
 41
0.8
 72
     1
 11
12.6750259445
 21
99.771631855100011
 31
0.0
  0
TEXT
  5
11B
  8
UNIT-DIM
  6
CONTINUOUS
 62
     7
 10
17.4750259445
 20
99.771631855100011
 30
0.0
 40
2.0
  1
 
 41
0.8
 72
     1
 11
18.275025944500001
 21
99.771631855100011
 31
0.0
  0
TEXT
  5
11C
  8
UNIT-DIM
  6
CONTINUOUS
 62
     7
 10
8.4083592778333323
 20
96.771631855099997
 30
0.0
 40
2.0
  1
[
 41
0.8
 72
     1
 11
8.6750259444999998
 21
96.771631855099997
 31
0.0
  0
TEXT
  5
11D
  8
UNIT-DIM
  6
CONTINUOUS
 62
     7
 10
9.7416926111666662
 20
96.771631855099997
 30
0.0
 40
2.0
  1
572
 41
0.8
 72
     1
 11
11.875025944500001
 21
96.771631855099997
 31
0.0
  0
TEXT
  5
11E
  8
UNIT-DIM
  6
CONTINUOUS
 62
     7
 10
14.808359277833331
 20
96.771631855099997
 30
0.0
 40
2.0
  1
]
 41
0.8
 72
     1
 11
15.0750259445
 21
96.771631855099997
 31
0.0
  0
LINE
  5
11F
  8
UNIT-DIM
  6
CONTINUOUS
 62
     7
 10
66.831595069700001
 20
89.521221494699986
 30
0.0
 11
11.8875259445
 21
89.521221494699986
 31
0.0
  0
LINE
  5
120
  8
UNIT-DIM
  6
CONTINUOUS
 62
     7
 10
111.0871680864
 20
112.0220422156
 30
0.0
 11
61.980535652199997
 21
112.0220422156
 31
0.0
  0
LINE
  5
121
  8
UNIT-DIM
  6
CONTINUOUS
 62
     7
 10
60.405599367600011
 20
112.0220422156
 30
0.0
 11
47.308760790500003
 21
112.0220422156
 31
0.0
  0
LINE
  5
122
  8
UNIT-DIM
  6
CONTINUOUS
 62
     7
 10
45.4851503557
 20
112.0220422156
 30
0.0
 11
11.8875259445
 21
112.0220422156
 31
0.0
  0
LINE
  5
123
  8
UNIT-DIM
  6
CONTINUOUS
 62
     7
 10
13.4750259445
 20
89.521221494699986
 30
0.0
 11
13.4750259445
 21
94.771631855099983
 31
0.0
  0
LINE
  5
124
  8
UNIT-DIM
  6
CONTINUOUS
 62
     7
 10
13.4750259445
 20
112.0220422156
 30
0.0
 11
13.4750259445
 21
103.7716318551
 31
0.0
  0
INSERT
  5
125
  8
UNIT-DIM
  6
CONTINUOUS
 62
     7
  2
_FILLED
 10
13.4750259445
 20
89.521221494699986
 30
0.0
 41
4.0
 42
4.0
 43
4.0
 50
270.0
  0
INSERT
  5
126
  8
UNIT-DIM
  6
CONTINUOUS
 62
     7
  2
_FILLED
 10
13.4750259445
 20
112.0220422156
 30
0.0
 41
4.0
 42
4.0
 43
4.0
 50
90.0
  0
ENDBLK
  5
127
  8
0
  6
ByBlock
 62
     0
  0
BLOCK
  8
UNIT-DIM
  6
CONTINUOUS
 62
     7
  2
*D11
 70
     1
 10
0.0
 20
0.0
 30
0.0
  3
*D11
  1

  0
TEXT
  5
12A
  8
UNIT-DIM
  6
CONTINUOUS
 62
     7
 10
83.880214911333326
 20
79.868750238299995
 30
0.0
 40
2.0
  1
44-1/4
 41
0.8
 72
     1
 11
88.146881577999991
 21
79.868750238299995
 31
0.0
  0
TEXT
  5
12B
  8
UNIT-DIM
  6
CONTINUOUS
 62
     7
 10
96.146881577999991
 20
79.868750238299995
 30
0.0
 40
2.0
  1
 
 41
0.8
 72
     1
 11
96.946881577999989
 21
79.868750238299995
 31
0.0
  0
TEXT
  5
12C
  8
UNIT-DIM
  6
CONTINUOUS
 62
     7
 10
83.880214911333354
 20
76.868750238299995
 30
0.0
 40
2.0
  1
[
 41
0.8
 72
     1
 11
84.146881578000006
 21
76.868750238299995
 31
0.0
  0
TEXT
  5
12D
  8
UNIT-DIM
  6
CONTINUOUS
 62
     7
 10
86.546881577999983
 20
76.868750238299995
 30
0.0
 40
2.0
  1
1124.1
 41
0.8
 72
     1
 11
89.746881577999986
 21
76.868750238299995
 31
0.0
  0
TEXT
  5
12E
  8
UNIT-DIM
  6
CONTINUOUS
 62
     7
 10
95.080214911333314
 20
76.868750238299995
 30
0.0
 40
2.0
  1
]
 41
0.8
 72
     1
 11
95.346881577999994
 21
76.868750238299995
 31
0.0
  0
LINE
  5
12F
  8
UNIT-DIM
  6
CONTINUOUS
 62
     7
 10
68.419095069700006
 20
87.933721494699995
 30
0.0
 11
68.419095069700006
 21
79.281250238300004
 31
0.0
  0
LINE
  5
130
  8
UNIT-DIM
  6
CONTINUOUS
 62
     7
 10
112.6746680864
 20
103.8574871582
 30
0.0
 11
112.6746680864
 21
79.281250238300004
 31
0.0
  0
LINE
  5
131
  8
UNIT-DIM
  6
CONTINUOUS
 62
     7
 10
68.419095069700006
 20
80.868750238299995
 30
0.0
 11
81.346881578000009
 21
80.868750238299995
 31
0.0
  0
LINE
  5
132
  8
UNIT-DIM
  6
CONTINUOUS
 62
     7
 10
112.6746680864
 20
80.868750238299995
 30
0.0
 11
99.746881577999986
 21
80.868750238299995
 31
0.0
  0
INSERT
  5
133
  8
UNIT-DIM
  6
CONTINUOUS
 62
     7
  2
_FILLED
 10
68.419095069700006
 20
80.868750238299995
 30
0.0
 41
4.0
 42
4.0
 43
4.0
 50
180.0
  0
INSERT
  5
134
  8
UNIT-DIM
  6
CONTINUOUS
 62
     7
  2
_FILLED
 10
112.6746680864
 20
80.868750238299995
 30
0.0
 41
4.0
 42
4.0
 43
4.0
  0
ENDBLK
  5
135
  8
0
  6
ByBlock
 62
     0
  0
BLOCK
  8
UNITDUCTDIM
  6
CONTINUOUS
 62
     2
  2
*D12
 70
     1
 10
0.0
 20
0.0
 30
0.0
  3
*D12
  1

  0
TEXT
  5
138
  8
UNITDUCTDIM
  6
CONTINUOUS
 62
     2
 10
207.1853821944666
 20
110.69997149469999
 30
0.0
 40
2.0
  1
44-3/8
 41
0.8
 72
     1
 11
211.71871552779999
 21
110.69997149469999
 31
0.0
  0
TEXT
  5
139
  8
UNITDUCTDIM
  6
CONTINUOUS
 62
     2
 10
219.71871552779999
 20
110.69997149469999
 30
0.0
 40
2.0
  1
 
 41
0.8
 72
     1
 11
220.5187155278
 21
110.69997149469999
 31
0.0
  0
TEXT
  5
13A
  8
UNITDUCTDIM
  6
CONTINUOUS
 62
     2
 10
207.45204886113331
 20
107.69997149469999
 30
0.0
 40
2.0
  1
[
 41
0.8
 72
     1
 11
207.71871552779999
 21
107.69997149469999
 31
0.0
  0
TEXT
  5
13B
  8
UNITDUCTDIM
  6
CONTINUOUS
 62
     2
 10
209.85204886113331
 20
107.69997149469999
 30
0.0
 40
2.0
  1
1126.7
 41
0.8
 72
     1
 11
213.31871552780001
 21
107.69997149469999
 31
0.0
  0
TEXT
  5
13C
  8
UNITDUCTDIM
  6
CONTINUOUS
 62
     2
 10
218.6520488611333
 20
107.69997149469999
 30
0.0
 40
2.0
  1
]
 41
0.8
 72
     1
 11
218.9187155278
 21
107.69997149469999
 31
0.0
  0
LINE
  5
13D
  8
UNITDUCTDIM
  6
CONTINUOUS
 62
     2
 10
185.8619446708999
 20
89.521221494699986
 30
0.0
 11
215.7062155278
 21
89.521221494699986
 31
0.0
  0
LINE
  5
13E
  8
UNITDUCTDIM
  6
CONTINUOUS
 62
     2
 10
180.0863930749
 20
133.87872149469999
 30
0.0
 11
215.7062155278
 21
133.87872149469999
 31
0.0
  0
LINE
  5
13F
  8
UNITDUCTDIM
  6
CONTINUOUS
 62
     2
 10
214.11871552779999
 20
89.521221494699986
 30
0.0
 11
214.11871552779999
 21
105.69997149469999
 31
0.0
  0
LINE
  5
140
  8
UNITDUCTDIM
  6
CONTINUOUS
 62
     2
 10
214.11871552779999
 20
133.87872149469999
 30
0.0
 11
214.11871552779999
 21
114.69997149469999
 31
0.0
  0
INSERT
  5
141
  8
UNITDUCTDIM
  6
CONTINUOUS
 62
     2
  2
_FILLED
 10
214.11871552779999
 20
89.521221494699986
 30
0.0
 41
4.0
 42
4.0
 43
4.0
 50
270.0
  0
INSERT
  5
142
  8
UNITDUCTDIM
  6
CONTINUOUS
 62
     2
  2
_FILLED
 10
214.11871552779999
 20
133.87872149469999
 30
0.0
 41
4.0
 42
4.0
 43
4.0
 50
90.0
  0
ENDBLK
  5
143
  8
0
  6
ByBlock
 62
     0
  0
BLOCK
  8
UNITDUCTDIM
  6
CONTINUOUS
 62
     2
  2
*D13
 70
     1
 10
0.0
 20
0.0
 30
0.0
  3
*D13
  1

  0
TEXT
  5
146
  8
UNITDUCTDIM
  6
CONTINUOUS
 62
     2
 10
208.25204886113329
 20
139.19471172039999
 30
0.0
 40
2.0
  1
12-5/8
 41
0.8
 72
     1
 11
212.5187155278
 21
139.19471172039999
 31
0.0
  0
TEXT
  5
147
  8
UNITDUCTDIM
  6
CONTINUOUS
 62
     2
 10
218.9187155278
 20
139.19471172039999
 30
0.0
 40
2.0
  1
 
 41
0.8
 72
     1
 11
219.71871552779999
 21
139.19471172039999
 31
0.0
  0
TEXT
  5
148
  8
UNITDUCTDIM
  6
CONTINUOUS
 62
     2
 10
208.25204886113329
 20
136.19471172039999
 30
0.0
 40
2.0
  1
[
 41
0.8
 72
     1
 11
208.5187155278
 21
136.19471172039999
 31
0.0
  0
TEXT
  5
149
  8
UNITDUCTDIM
  6
CONTINUOUS
 62
     2
 10
210.25204886113329
 20
136.19471172039999
 30
0.0
 40
2.0
  1
320.9
 41
0.8
 72
     1
 11
213.31871552780001
 21
136.19471172039999
 31
0.0
  0
TEXT
  5
14A
  8
UNITDUCTDIM
  6
CONTINUOUS
 62
     2
 10
217.85204886113331
 20
136.19471172039999
 30
0.0
 40
2.0
  1
]
 41
0.8
 72
     1
 11
218.11871552779999
 21
136.19471172039999
 31
0.0
  0
LINE
  5
14B
  8
UNITDUCTDIM
  6
CONTINUOUS
 62
     2
 10
180.0881130203
 20
133.87872149469999
 30
0.0
 11
215.7062155278
 21
133.87872149469999
 31
0.0
  0
LINE
  5
14C
  8
UNITDUCTDIM
  6
CONTINUOUS
 62
     2
 10
180.0881130203
 20
146.51070194619999
 30
0.0
 11
215.7062155278
 21
146.51070194619999
 31
0.0
  0
LINE
  5
14D
  8
UNITDUCTDIM
  6
CONTINUOUS
 62
     2
 10
214.11871552779999
 20
133.87872149469999
 30
0.0
 11
214.11871552779999
 21
121.1787214947
 31
0.0
  0
LINE
  5
14E
  8
UNITDUCTDIM
  6
CONTINUOUS
 62
     2
 10
214.11871552779999
 20
146.51070194619999
 30
0.0
 11
214.11871552779999
 21
159.2107019462
 31
0.0
  0
INSERT
  5
14F
  8
UNITDUCTDIM
  6
CONTINUOUS
 62
     2
  2
_FILLED
 10
214.11871552779999
 20
133.87872149469999
 30
0.0
 41
4.0
 42
4.0
 43
4.0
 50
90.0
  0
INSERT
  5
150
  8
UNITDUCTDIM
  6
CONTINUOUS
 62
     2
  2
_FILLED
 10
214.11871552779999
 20
146.51070194619999
 30
0.0
 41
4.0
 42
4.0
 43
4.0
 50
270.0
  0
ENDBLK
  5
151
  8
0
  6
ByBlock
 62
     0
  0
BLOCK
  8
UNIT-DIM
  6
CONTINUOUS
 62
     7
  2
*D14
 70
     1
 10
0.0
 20
0.0
 30
0.0
  3
*D14
  1

  0
TEXT
  5
154
  8
UNIT-DIM
  6
CONTINUOUS
 62
     7
 10
94.181616579599975
 20
188.2149470299
 30
0.0
 40
2.0
  1
61-1/8
 41
0.8
 72
     1
 11
98.181616579599989
 21
188.2149470299
 31
0.0
  0
TEXT
  5
155
  8
UNIT-DIM
  6
CONTINUOUS
 62
     7
 10
102.9816165796
 20
188.2149470299
 30
0.0
 40
2.0
  1
 
 41
0.8
 72
     1
 11
103.7816165796
 21
188.2149470299
 31
0.0
  0
TEXT
  5
156
  8
UNIT-DIM
  6
CONTINUOUS
 62
     7
 10
93.914949912933324
 20
185.2149470299
 30
0.0
 40
2.0
  1
[
 41
0.8
 72
     1
 11
94.181616579599975
 21
185.2149470299
 31
0.0
  0
TEXT
  5
157
  8
UNIT-DIM
  6
CONTINUOUS
 62
     7
 10
95.514949912933304
 20
185.2149470299
 30
0.0
 40
2.0
  1
1553
 41
0.8
 72
     1
 11
98.181616579599989
 21
185.2149470299
 31
0.0
  0
TEXT
  5
158
  8
UNIT-DIM
  6
CONTINUOUS
 62
     7
 10
101.9149499129333
 20
185.2149470299
 30
0.0
 40
2.0
  1
]
 41
0.8
 72
     1
 11
102.1816165796
 21
185.2149470299
 31
0.0
  0
LINE
  5
159
  8
UNIT-DIM
  6
CONTINUOUS
 62
     7
 10
68.419095069700006
 20
154.4567437648
 30
0.0
 11
68.419095069700006
 21
190.80244702990001
 31
0.0
  0
LINE
  5
15A
  8
UNIT-DIM
  6
CONTINUOUS
 62
     7
 10
129.54413808940001
 20
183.50346228609999
 30
0.0
 11
129.54413808940001
 21
190.80244702990001
 31
0.0
  0
LINE
  5
15B
  8
UNIT-DIM
  6
CONTINUOUS
 62
     7
 10
68.419095069700006
 20
189.2149470299
 30
0.0
 11
91.381616579599992
 21
189.2149470299
 31
0.0
  0
LINE
  5
15C
  8
UNIT-DIM
  6
CONTINUOUS
 62
     7
 10
129.54413808940001
 20
189.2149470299
 30
0.0
 11
106.5816165796
 21
189.2149470299
 31
0.0
  0
INSERT
  5
15D
  8
UNIT-DIM
  6
CONTINUOUS
 62
     7
  2
_FILLED
 10
68.419095069700006
 20
189.2149470299
 30
0.0
 41
4.0
 42
4.0
 43
4.0
 50
180.0
  0
INSERT
  5
15E
  8
UNIT-DIM
  6
CONTINUOUS
 62
     7
  2
_FILLED
 10
129.54413808940001
 20
189.2149470299
 30
0.0
 41
4.0
 42
4.0
 43
4.0
  0
ENDBLK
  5
15F
  8
0
  6
ByBlock
 62
     0
  0
BLOCK
  8
UNITDUCTDIM
  6
CONTINUOUS
 62
     2
  2
*D15
 70
     1
 10
0.0
 20
0.0
 30
0.0
  3
*D15
  1

  0
TEXT
  5
162
  8
UNITDUCTDIM
  6
CONTINUOUS
 62
     2
 10
194.7062743683
 20
157.8640511982
 30
0.0
 40
2.0
  1
5-3/4
 41
0.8
  0
TEXT
  5
163
  8
UNITDUCTDIM
  6
CONTINUOUS
 62
     2
 10
205.90627436829999
 20
157.8640511982
 30
0.0
 40
2.0
  1
 
 41
0.8
  0
TEXT
  5
164
  8
UNITDUCTDIM
  6
CONTINUOUS
 62
     2
 10
194.7062743683
 20
154.8640511982
 30
0.0
 40
2.0
  1
[
 41
0.8
  0
TEXT
  5
165
  8
UNITDUCTDIM
  6
CONTINUOUS
 62
     2
 10
196.3062743683
 20
154.8640511982
 30
0.0
 40
2.0
  1
146.7
 41
0.8
  0
TEXT
  5
166
  8
UNITDUCTDIM
  6
CONTINUOUS
 62
     2
 10
204.3062743683
 20
154.8640511982
 30
0.0
 40
2.0
  1
]
 41
0.8
  0
LINE
  5
167
  8
UNITDUCTDIM
  6
CONTINUOUS
 62
     2
 10
184.27444467090001
 20
154.4567437648
 30
0.0
 11
184.27444467090001
 21
160.45155119820001
 31
0.0
  0
LINE
  5
168
  8
UNITDUCTDIM
  6
CONTINUOUS
 62
     2
 10
178.50061302029999
 20
148.09820194619999
 30
0.0
 11
178.50061302029999
 21
160.45155119820001
 31
0.0
  0
LINE
  5
169
  8
UNITDUCTDIM
  6
CONTINUOUS
 62
     2
 10
184.27444467090001
 20
158.8640511982
 30
0.0
 11
192.7062743683
 21
158.8640511982
 31
0.0
  0
LINE
  5
16A
  8
UNITDUCTDIM
  6
CONTINUOUS
 62
     2
 10
178.50061302029999
 20
158.8640511982
 30
0.0
 11
165.80061302030001
 21
158.8640511982
 31
0.0
  0
INSERT
  5
16B
  8
UNITDUCTDIM
  6
CONTINUOUS
 62
     2
  2
_FILLED
 10
184.27444467090001
 20
158.8640511982
 30
0.0
 41
4.0
 42
4.0
 43
4.0
 50
180.0
  0
INSERT
  5
16C
  8
UNITDUCTDIM
  6
CONTINUOUS
 62
     2
  2
_FILLED
 10
178.50061302029999
 20
158.8640511982
 30
0.0
 41
4.0
 42
4.0
 43
4.0
  0
ENDBLK
  5
16D
  8
0
  6
ByBlock
 62
     0
  0
BLOCK
  8
UNITDUCTDIM
  6
CONTINUOUS
 62
     2
  2
*D16
 70
     1
 10
0.0
 20
0.0
 30
0.0
  3
*D16
  1

  0
TEXT
  5
170
  8
UNITDUCTDIM
  6
CONTINUOUS
 62
     2
 10
148.1422352619667
 20
168.57321454480001
 30
0.0
 40
2.0
  1
46-7/8
 41
0.8
 72
     1
 11
152.67556859530001
 21
168.57321454480001
 31
0.0
  0
TEXT
  5
171
  8
UNITDUCTDIM
  6
CONTINUOUS
 62
     2
 10
160.67556859530001
 20
168.57321454480001
 30
0.0
 40
2.0
  1
 
 41
0.8
 72
     1
 11
161.47556859529999
 21
168.57321454480001
 31
0.0
  0
TEXT
  5
172
  8
UNITDUCTDIM
  6
CONTINUOUS
 62
     2
 10
148.4089019286333
 20
165.57321454480001
 30
0.0
 40
2.0
  1
[
 41
0.8
 72
     1
 11
148.67556859530001
 21
165.57321454480001
 31
0.0
  0
TEXT
  5
173
  8
UNITDUCTDIM
  6
CONTINUOUS
 62
     2
 10
151.07556859530001
 20
165.57321454480001
 30
0.0
 40
2.0
  1
1190.0
 41
0.8
 72
     1
 11
154.2755685953
 21
165.57321454480001
 31
0.0
  0
TEXT
  5
174
  8
UNITDUCTDIM
  6
CONTINUOUS
 62
     2
 10
159.60890192863329
 20
165.57321454480001
 30
0.0
 40
2.0
  1
]
 41
0.8
 72
     1
 11
159.8755685953
 21
165.57321454480001
 31
0.0
  0
LINE
  5
175
  8
UNITDUCTDIM
  6
CONTINUOUS
 62
     2
 10
178.50061302029999
 20
148.09820194619999
 30
0.0
 11
178.50061302029999
 21
171.16071454479999
 31
0.0
  0
LINE
  5
176
  8
UNITDUCTDIM
  6
CONTINUOUS
 62
     2
 10
131.6505241703
 20
148.09820194619999
 30
0.0
 11
131.6505241703
 21
171.16071454479999
 31
0.0
  0
LINE
  5
177
  8
UNITDUCTDIM
  6
CONTINUOUS
 62
     2
 10
178.50061302029999
 20
169.57321454480001
 30
0.0
 11
164.2755685953
 21
169.57321454480001
 31
0.0
  0
LINE
  5
178
  8
UNITDUCTDIM
  6
CONTINUOUS
 62
     2
 10
131.6505241703
 20
169.57321454480001
 30
0.0
 11
145.8755685953
 21
169.57321454480001
 31
0.0
  0
INSERT
  5
179
  8
UNITDUCTDIM
  6
CONTINUOUS
 62
     2
  2
_FILLED
 10
178.50061302029999
 20
169.57321454480001
 30
0.0
 41
4.0
 42
4.0
 43
4.0
  0
INSERT
  5
17A
  8
UNITDUCTDIM
  6
CONTINUOUS
 62
     2
  2
_FILLED
 10
131.6505241703
 20
169.57321454480001
 30
0.0
 41
4.0
 42
4.0
 43
4.0
 50
180.0
  0
ENDBLK
  5
17B
  8
0
  6
ByBlock
 62
     0
  0
BLOCK
  8
UNITDUCTDIM
  6
CONTINUOUS
 62
     2
  2
*D17
 70
     1
 10
0.0
 20
0.0
 30
0.0
  3
*D17
  1

  0
TEXT
  5
17E
  8
UNITDUCTDIM
  6
CONTINUOUS
 62
     2
 10
195.79941737760001
 20
62.217214536499988
 30
0.0
 40
2.0
  1
6-1/4
 41
0.8
  0
TEXT
  5
17F
  8
UNITDUCTDIM
  6
CONTINUOUS
 62
     2
 10
206.9994173776
 20
62.217214536499988
 30
0.0
 40
2.0
  1
 
 41
0.8
  0
TEXT
  5
180
  8
UNITDUCTDIM
  6
CONTINUOUS
 62
     2
 10
195.79941737760001
 20
59.217214536500002
 30
0.0
 40
2.0
  1
[
 41
0.8
  0
TEXT
  5
181
  8
UNITDUCTDIM
  6
CONTINUOUS
 62
     2
 10
197.3994173776
 20
59.217214536500002
 30
0.0
 40
2.0
  1
159.4
 41
0.8
  0
TEXT
  5
182
  8
UNITDUCTDIM
  6
CONTINUOUS
 62
     2
 10
205.3994173776
 20
59.217214536500002
 30
0.0
 40
2.0
  1
]
 41
0.8
  0
LINE
  5
183
  8
UNITDUCTDIM
  6
CONTINUOUS
 62
     2
 10
177.99949115070001
 20
77.762680158100011
 30
0.0
 11
177.99949115070001
 21
61.629714536499989
 31
0.0
  0
LINE
  5
184
  8
UNITDUCTDIM
  6
CONTINUOUS
 62
     2
 10
184.27444467090001
 20
87.933721494699995
 30
0.0
 11
184.27444467090001
 21
61.629714536499989
 31
0.0
  0
LINE
  5
185
  8
UNITDUCTDIM
  6
CONTINUOUS
 62
     2
 10
177.99949115070001
 20
63.217214536499988
 30
0.0
 11
165.29949115069999
 21
63.217214536499988
 31
0.0
  0
LINE
  5
186
  8
UNITDUCTDIM
  6
CONTINUOUS
 62
     2
 10
184.27444467090001
 20
63.217214536499988
 30
0.0
 11
193.79941737759989
 21
63.217214536499988
 31
0.0
  0
INSERT
  5
187
  8
UNITDUCTDIM
  6
CONTINUOUS
 62
     2
  2
_FILLED
 10
177.99949115070001
 20
63.217214536499988
 30
0.0
 41
4.0
 42
4.0
 43
4.0
  0
INSERT
  5
188
  8
UNITDUCTDIM
  6
CONTINUOUS
 62
     2
  2
_FILLED
 10
184.27444467090001
 20
63.217214536499988
 30
0.0
 41
4.0
 42
4.0
 43
4.0
 50
180.0
  0
ENDBLK
  5
189
  8
0
  6
ByBlock
 62
     0
  0
BLOCK
  8
UNITDUCTDIM
  6
CONTINUOUS
 62
     2
  2
*D18
 70
     1
 10
0.0
 20
0.0
 30
0.0
  3
*D18
  1

  0
TEXT
  5
18C
  8
UNITDUCTDIM
  6
CONTINUOUS
 62
     2
 10
132.71550640813331
 20
62.217214536499988
 30
0.0
 40
2.0
  1
26-3/4
 41
0.8
 72
     2
 11
141.7821730748
 21
62.217214536499988
 31
0.0
  0
TEXT
  5
18D
  8
UNITDUCTDIM
  6
CONTINUOUS
 62
     2
 10
143.38217307479999
 20
62.217214536499988
 30
0.0
 40
2.0
  1
 
 41
0.8
 72
     2
 11
144.98217307479999
 21
62.217214536499988
 31
0.0
  0
TEXT
  5
18E
  8
UNITDUCTDIM
  6
CONTINUOUS
 62
     2
 10
133.24883974146661
 20
59.217214536500002
 30
0.0
 40
2.0
  1
[
 41
0.8
 72
     2
 11
133.7821730748
 21
59.217214536500002
 31
0.0
  0
TEXT
  5
18F
  8
UNITDUCTDIM
  6
CONTINUOUS
 62
     2
 10
135.9155064081333
 20
59.217214536500002
 30
0.0
 40
2.0
  1
679.1
 41
0.8
 72
     2
 11
141.7821730748
 21
59.217214536500002
 31
0.0
  0
TEXT
  5
190
  8
UNITDUCTDIM
  6
CONTINUOUS
 62
     2
 10
142.84883974146661
 20
59.217214536500002
 30
0.0
 40
2.0
  1
]
 41
0.8
 72
     2
 11
143.38217307479999
 21
59.217214536500002
 31
0.0
  0
LINE
  5
191
  8
UNITDUCTDIM
  6
CONTINUOUS
 62
     2
 10
151.2615047722
 20
92.791221494699997
 30
0.0
 11
151.2615047722
 21
84.809742924899993
 31
0.0
  0
LINE
  5
192
  8
UNITDUCTDIM
  6
CONTINUOUS
 62
     2
 10
151.2615047722
 20
82.074327272700003
 30
0.0
 11
151.2615047722
 21
61.629714536499989
 31
0.0
  0
LINE
  5
193
  8
UNITDUCTDIM
  6
CONTINUOUS
 62
     2
 10
177.99949115070001
 20
92.791221494699997
 30
0.0
 11
177.99949115070001
 21
84.9755256917
 31
0.0
  0
LINE
  5
194
  8
UNITDUCTDIM
  6
CONTINUOUS
 62
     2
 10
177.99949115070001
 20
82.240110039499996
 30
0.0
 11
177.99949115070001
 21
61.629714536499989
 31
0.0
  0
LINE
  5
195
  8
UNITDUCTDIM
  6
CONTINUOUS
 62
     2
 10
151.2615047722
 20
63.217214536499988
 30
0.0
 11
164.63049796140001
 21
63.217214536499988
 31
0.0
  0
LINE
  5
196
  8
UNITDUCTDIM
  6
CONTINUOUS
 62
     2
 10
164.63049796140001
 20
63.217214536499988
 30
0.0
 11
146.98217307479999
 21
63.217214536499988
 31
0.0
  0
LINE
  5
197
  8
UNITDUCTDIM
  6
CONTINUOUS
 62
     2
 10
177.99949115070001
 20
63.217214536499988
 30
0.0
 11
164.63049796140001
 21
63.217214536499988
 31
0.0
  0
INSERT
  5
198
  8
UNITDUCTDIM
  6
CONTINUOUS
 62
     2
  2
_FILLED
 10
151.2615047722
 20
63.217214536499988
 30
0.0
 41
4.0
 42
4.0
 43
4.0
 50
180.0
  0
INSERT
  5
199
  8
UNITDUCTDIM
  6
CONTINUOUS
 62
     2
  2
_FILLED
 10
177.99949115070001
 20
63.217214536499988
 30
0.0
 41
4.0
 42
4.0
 43
4.0
  0
ENDBLK
  5
19A
  8
0
  6
ByBlock
 62
     0
  0
BLOCK
  8
UNITDUCTDIM
  6
CONTINUOUS
 62
     2
  2
*D19
 70
     1
 10
0.0
 20
0.0
 30
0.0
  3
*D19
  1

  0
TEXT
  5
19D
  8
UNITDUCTDIM
  6
CONTINUOUS
 62
     2
 10
191.26763290916659
 20
120.1809239414
 30
0.0
 40
2.0
  1
34
 41
0.8
 72
     1
 11
192.60096624249999
 21
120.1809239414
 31
0.0
  0
TEXT
  5
19E
  8
UNITDUCTDIM
  6
CONTINUOUS
 62
     2
 10
202.20096624249999
 20
120.1809239414
 30
0.0
 40
2.0
  1
 
 41
0.8
 72
     1
 11
203.0009662425
 21
120.1809239414
 31
0.0
  0
TEXT
  5
19F
  8
UNITDUCTDIM
  6
CONTINUOUS
 62
     2
 10
191.5342995758333
 20
117.1809239414
 30
0.0
 40
2.0
  1
[
 41
0.8
 72
     1
 11
191.80096624250001
 21
117.1809239414
 31
0.0
  0
TEXT
  5
1A0
  8
UNITDUCTDIM
  6
CONTINUOUS
 62
     2
 10
193.5342995758333
 20
117.1809239414
 30
0.0
 40
2.0
  1
863.0
 41
0.8
 72
     1
 11
196.60096624249999
 21
117.1809239414
 31
0.0
  0
TEXT
  5
1A1
  8
UNITDUCTDIM
  6
CONTINUOUS
 62
     2
 10
201.1342995758333
 20
117.1809239414
 30
0.0
 40
2.0
  1
]
 41
0.8
 72
     1
 11
201.4009662425
 21
117.1809239414
 31
0.0
  0
LINE
  5
1A2
  8
UNITDUCTDIM
  6
CONTINUOUS
 62
     2
 10
179.58699115069999
 20
94.378721494699988
 30
0.0
 11
198.98846624250001
 21
94.378721494699988
 31
0.0
  0
LINE
  5
1A3
  8
UNITDUCTDIM
  6
CONTINUOUS
 62
     2
 10
179.58699115069999
 20
128.3541479022
 30
0.0
 11
198.98846624250001
 21
128.3541479022
 31
0.0
  0
LINE
  5
1A4
  8
UNITDUCTDIM
  6
CONTINUOUS
 62
     2
 10
197.4009662425
 20
94.378721494699988
 30
0.0
 11
197.4009662425
 21
115.1809239414
 31
0.0
  0
LINE
  5
1A5
  8
UNITDUCTDIM
  6
CONTINUOUS
 62
     2
 10
197.4009662425
 20
128.3541479022
 30
0.0
 11
197.4009662425
 21
124.1809239414
 31
0.0
  0
INSERT
  5
1A6
  8
UNITDUCTDIM
  6
CONTINUOUS
 62
     2
  2
_FILLED
 10
197.4009662425
 20
94.378721494699988
 30
0.0
 41
4.0
 42
4.0
 43
4.0
 50
270.0
  0
INSERT
  5
1A7
  8
UNITDUCTDIM
  6
CONTINUOUS
 62
     2
  2
_FILLED
 10
197.4009662425
 20
128.3541479022
 30
0.0
 41
4.0
 42
4.0
 43
4.0
 50
90.0
  0
ENDBLK
  5
1A8
  8
0
  6
ByBlock
 62
     0
  0
BLOCK
  8
SERVCLRDIM
  6
CONTINUOUS
 62
     1
  2
*D20
 70
     1
 10
0.0
 20
0.0
 30
0.0
  3
*D20
  1

  0
TEXT
  5
1AB
  8
SERVCLRDIM
  6
CONTINUOUS
 62
     1
 10
33.234720069700003
 20
166.65709385509999
 30
0.0
 40
2.0
  1
12-48 DEPENDING
 41
0.8
 72
     1
 11
44.434720069699999
 21
166.65709385509999
 31
0.0
  0
TEXT
  5
1AC
  8
SERVCLRDIM
  6
CONTINUOUS
 62
     1
 10
32.301386736366673
 20
163.65709385509999
 30
0.0
 40
2.0
  1
ON OPTIONS, SEE 
 41
0.8
 72
     1
 11
44.434720069699999
 21
163.65709385509999
 31
0.0
  0
TEXT
  5
1AD
  8
SERVCLRDIM
  6
CONTINUOUS
 62
     1
 10
31.901386736366671
 20
160.65709385509999
 30
0.0
 40
2.0
  1
PRODUCT DATA FOR
 41
0.8
 72
     1
 11
44.434720069699999
 21
160.65709385509999
 31
0.0
  0
TEXT
  5
1AE
  8
SERVCLRDIM
  6
CONTINUOUS
 62
     1
 10
39.101386736366671
 20
157.65709385509999
 30
0.0
 40
2.0
  1
DETAILS.
 41
0.8
 72
     1
 11
44.434720069699999
 21
157.65709385509999
 31
0.0
  0
LINE
  5
1AF
  8
SERVCLRDIM
  6
CONTINUOUS
 62
     1
 10
68.419095069700006
 20
154.4567437648
 30
0.0
 11
68.419095069700006
 21
166.65709385509999
 31
0.0
  0
LINE
  5
1B0
  8
SERVCLRDIM
  6
CONTINUOUS
 62
     1
 10
68.419095069700006
 20
166.65709385509999
 30
0.0
 11
68.419095069700006
 21
169.24459385509999
 31
0.0
  0
LINE
  5
1B1
  8
SERVCLRDIM
  6
CONTINUOUS
 62
     1
 10
20.450345069699999
 20
169.24459385509999
 30
0.0
 11
20.450345069699999
 21
166.65709385509999
 31
0.0
  0
LINE
  5
1B2
  8
SERVCLRDIM
  6
CONTINUOUS
 62
     1
 10
20.450345069699999
 20
166.65709385509999
 30
0.0
 11
20.450345069699999
 21
163.94954042910001
 31
0.0
  0
LINE
  5
1B3
  8
SERVCLRDIM
  6
CONTINUOUS
 62
     1
 10
68.419095069700006
 20
167.65709385509999
 30
0.0
 11
58.434720069699999
 21
167.65709385509999
 31
0.0
  0
LINE
  5
1B4
  8
SERVCLRDIM
  6
CONTINUOUS
 62
     1
 10
20.450345069699999
 20
167.65709385509999
 30
0.0
 11
30.434720069699999
 21
167.65709385509999
 31
0.0
  0
INSERT
  5
1B5
  8
SERVCLRDIM
  6
CONTINUOUS
 62
     1
  2
_FILLED
 10
68.419095069700006
 20
167.65709385509999
 30
0.0
 41
4.0
 42
4.0
 43
4.0
  0
INSERT
  5
1B6
  8
SERVCLRDIM
  6
CONTINUOUS
 62
     1
  2
_FILLED
 10
20.450345069699999
 20
167.65709385509999
 30
0.0
 41
4.0
 42
4.0
 43
4.0
 50
180.0
  0
ENDBLK
  5
1B7
  8
0
  6
ByBlock
 62
     0
  0
BLOCK
  8
SERVCLRDIM
  6
CONTINUOUS
 62
     1
  2
*D21
 70
     1
 10
0.0
 20
0.0
 30
0.0
  3
*D21
  1

  0
TEXT
  5
1BA
  8
SERVCLRDIM
  6
CONTINUOUS
 62
     1
 10
97.046962840899994
 20
215.7477719796
 30
0.0
 40
2.0
  1
36-42" DEPENDING ON
 41
0.8
 72
     1
 11
111.4469628409
 21
215.7477719796
 31
0.0
  0
TEXT
  5
1BB
  8
SERVCLRDIM
  6
CONTINUOUS
 62
     1
 10
98.113629507566671
 20
212.7477719796
 30
0.0
 40
2.0
  1
OPTIONS. CHECK FOR
 41
0.8
 72
     1
 11
111.4469628409
 21
212.7477719796
 31
0.0
  0
TEXT
  5
1BC
  8
SERVCLRDIM
  6
CONTINUOUS
 62
     1
 10
92.513629507566662
 20
209.7477719796
 30
0.0
 40
2.0
  1
SOURCES OF FLUE PRODUCTS
 41
0.8
 72
     1
 11
111.4469628409
 21
209.7477719796
 31
0.0
  0
TEXT
  5
1BD
  8
SERVCLRDIM
  6
CONTINUOUS
 62
     1
 10
92.380296174233337
 20
206.7477719796
 30
0.0
 40
2.0
  1
WITHIN 10FT. OF UNIT FRESH
 41
0.8
 72
     1
 11
111.4469628409
 21
206.7477719796
 31
0.0
  0
TEXT
  5
1BE
  8
SERVCLRDIM
  6
CONTINUOUS
 62
     1
 10
96.780296174233342
 20
203.7477719796
 30
0.0
 40
2.0
  1
AIR INTAKE HOOD. SEE
 41
0.8
 72
     1
 11
111.4469628409
 21
203.7477719796
 31
0.0
  0
TEXT
  5
1BF
  8
SERVCLRDIM
  6
CONTINUOUS
 62
     1
 10
92.513629507566677
 20
200.7477719796
 30
0.0
 40
2.0
  1
PRODUCT DATA FOR DETAILS.
 41
0.8
 72
     1
 11
111.4469628409
 21
200.7477719796
 31
0.0
  0
LINE
  5
1C0
  8
SERVCLRDIM
  6
CONTINUOUS
 62
     1
 10
127.9566380894
 20
181.91596228610001
 30
0.0
 11
109.85946284089999
 21
181.91596228610001
 31
0.0
  0
LINE
  5
1C1
  8
SERVCLRDIM
  6
CONTINUOUS
 62
     1
 10
111.4469628409
 20
181.91596228610001
 30
0.0
 11
111.4469628409
 21
199.7477719796
 31
0.0
  0
LINE
  5
1C2
  8
SERVCLRDIM
  6
CONTINUOUS
 62
     1
 10
111.4469628409
 20
223.85346228610001
 30
0.0
 11
111.4469628409
 21
219.7477719796
 31
0.0
  0
INSERT
  5
1C3
  8
SERVCLRDIM
  6
CONTINUOUS
 62
     1
  2
_FILLED
 10
111.4469628409
 20
181.91596228610001
 30
0.0
 41
4.0
 42
4.0
 43
4.0
 50
270.0
  0
INSERT
  5
1C4
  8
SERVCLRDIM
  6
CONTINUOUS
 62
     1
  2
_FILLED
 10
111.4469628409
 20
223.85346228610001
 30
0.0
 41
4.0
 42
4.0
 43
4.0
 50
90.0
  0
ENDBLK
  5
1C5
  8
0
  6
ByBlock
 62
     0
  0
BLOCK
  8
CURB-14-DIM
  6
CONTINUOUS
 62
     6
  2
*D22
 70
     1
 10
0.0
 20
0.0
 30
0.0
  3
*D22
  1

  0
TEXT
  5
1C8
  8
CURB-14-DIM
  6
CONTINUOUS
 62
     6
 10
54.701150385133339
 20
120.19566694620001
 30
0.0
 40
2.0
  1
57-1/2
 41
0.8
 72
     1
 11
58.967817051799997
 21
120.19566694620001
 31
0.0
  0
TEXT
  5
1C9
  8
CURB-14-DIM
  6
CONTINUOUS
 62
     6
 10
66.967817051800012
 20
120.19566694620001
 30
0.0
 40
2.0
  1
 
 41
0.8
 72
     1
 11
67.767817051800009
 21
120.19566694620001
 31
0.0
  0
TEXT
  5
1CA
  8
CURB-14-DIM
  6
CONTINUOUS
 62
     6
 10
54.701150385133339
 20
117.19566694620001
 30
0.0
 40
2.0
  1
[
 41
0.8
 72
     1
 11
54.967817051799997
 21
117.19566694620001
 31
0.0
  0
TEXT
  5
1CB
  8
CURB-14-DIM
  6
CONTINUOUS
 62
     6
 10
57.10115038513333
 20
117.19566694620001
 30
0.0
 40
2.0
  1
1462.1
 41
0.8
 72
     1
 11
60.567817051799999
 21
117.19566694620001
 31
0.0
  0
TEXT
  5
1CC
  8
CURB-14-DIM
  6
CONTINUOUS
 62
     6
 10
65.901150385133334
 20
117.19566694620001
 30
0.0
 40
2.0
  1
]
 41
0.8
 72
     1
 11
66.1678170518
 21
117.19566694620001
 31
0.0
  0
LINE
  5
1CD
  8
CURB-14-DIM
  6
CONTINUOUS
 62
     6
 10
70.026374852100005
 20
92.414416946200006
 30
0.0
 11
59.780317051800012
 21
92.414416946200006
 31
0.0
  0
LINE
  5
1CE
  8
CURB-14-DIM
  6
CONTINUOUS
 62
     6
 10
70.134224570599983
 20
149.97691694619999
 30
0.0
 11
59.780317051800012
 21
149.97691694619999
 31
0.0
  0
LINE
  5
1CF
  8
CURB-14-DIM
  6
CONTINUOUS
 62
     6
 10
61.367817051800003
 20
92.414416946200006
 30
0.0
 11
61.367817051800003
 21
115.19566694620001
 31
0.0
  0
LINE
  5
1D0
  8
CURB-14-DIM
  6
CONTINUOUS
 62
     6
 10
61.367817051800003
 20
149.97691694619999
 30
0.0
 11
61.367817051800003
 21
124.19566694620001
 31
0.0
  0
INSERT
  5
1D1
  8
CURB-14-DIM
  6
CONTINUOUS
 62
     6
  2
_FILLED
 10
61.367817051800003
 20
92.414416946200006
 30
0.0
 41
4.0
 42
4.0
 43
4.0
 50
270.0
  0
INSERT
  5
1D2
  8
CURB-14-DIM
  6
CONTINUOUS
 62
     6
  2
_FILLED
 10
61.367817051800003
 20
149.97691694619999
 30
0.0
 41
4.0
 42
4.0
 43
4.0
 50
90.0
  0
ENDBLK
  5
1D3
  8
0
  6
ByBlock
 62
     0
  0
BLOCK
  8
CURB-14-DIM
  6
CONTINUOUS
 62
     6
  2
*D23
 70
     1
 10
0.0
 20
0.0
 30
0.0
  3
*D23
  1

  0
TEXT
  5
1D6
  8
CURB-14-DIM
  6
CONTINUOUS
 62
     6
 10
120.08005790393329
 20
55.916001299599991
 30
0.0
 40
2.0
  1
109-1/4
 41
0.8
 72
     1
 11
124.74672457059999
 21
55.916001299599991
 31
0.0
  0
TEXT
  5
1D7
  8
CURB-14-DIM
  6
CONTINUOUS
 62
     6
 10
131.9467245706
 20
55.916001299599991
 30
0.0
 40
2.0
  1
 
 41
0.8
 72
     1
 11
132.74672457060001
 21
55.916001299599991
 31
0.0
  0
TEXT
  5
1D8
  8
CURB-14-DIM
  6
CONTINUOUS
 62
     6
 10
119.6800579039333
 20
52.916001299599991
 30
0.0
 40
2.0
  1
[
 41
0.8
 72
     1
 11
119.9467245706
 21
52.916001299599991
 31
0.0
  0
TEXT
  5
1D9
  8
CURB-14-DIM
  6
CONTINUOUS
 62
     6
 10
121.6800579039333
 20
52.916001299599991
 30
0.0
 40
2.0
  1
2775.0
 41
0.8
 72
     1
 11
125.54672457060001
 21
52.916001299599991
 31
0.0
  0
TEXT
  5
1DA
  8
CURB-14-DIM
  6
CONTINUOUS
 62
     6
 10
130.88005790393331
 20
52.916001299599991
 30
0.0
 40
2.0
  1
]
 41
0.8
 72
     1
 11
131.14672457060001
 21
52.916001299599991
 31
0.0
  0
LINE
  5
1DB
  8
CURB-14-DIM
  6
CONTINUOUS
 62
     6
 10
71.721724570600003
 20
90.826916946200015
 30
0.0
 11
71.721724570600003
 21
82.651743873499996
 31
0.0
  0
LINE
  5
1DC
  8
CURB-14-DIM
  6
CONTINUOUS
 62
     6
 10
71.721724570600003
 20
79.584762687700007
 30
0.0
 11
71.721724570600003
 21
55.328501299599992
 31
0.0
  0
LINE
  5
1DD
  8
CURB-14-DIM
  6
CONTINUOUS
 62
     6
 10
180.9717245706
 20
90.826916946200015
 30
0.0
 11
180.9717245706
 21
55.328501299599992
 31
0.0
  0
LINE
  5
1DE
  8
CURB-14-DIM
  6
CONTINUOUS
 62
     6
 10
71.721724570600003
 20
56.916001299599998
 30
0.0
 11
117.1467245706
 21
56.916001299599998
 31
0.0
  0
LINE
  5
1DF
  8
CURB-14-DIM
  6
CONTINUOUS
 62
     6
 10
180.9717245706
 20
56.916001299599998
 30
0.0
 11
135.54672457059999
 21
56.916001299599998
 31
0.0
  0
INSERT
  5
1E0
  8
CURB-14-DIM
  6
CONTINUOUS
 62
     6
  2
_FILLED
 10
71.721724570600003
 20
56.916001299599998
 30
0.0
 41
4.0
 42
4.0
 43
4.0
 50
180.0
  0
INSERT
  5
1E1
  8
CURB-14-DIM
  6
CONTINUOUS
 62
     6
  2
_FILLED
 10
180.9717245706
 20
56.916001299599998
 30
0.0
 41
4.0
 42
4.0
 43
4.0
  0
ENDBLK
  5
1E2
  8
0
  6
ByBlock
 62
     0
  0
BLOCK
  8
CURBDUCTDIM
  6
CONTINUOUS
 62
     5
  2
*D24
 70
     1
 10
0.0
 20
0.0
 30
0.0
  3
*D24
  1

  0
TEXT
  5
1E5
  8
CURBDUCTDIM
  6
CONTINUOUS
 62
     5
 10
147.23422457059999
 20
175.65290275379999
 30
0.0
 40
2.0
  1
50-3/8
 41
0.8
 72
     1
 11
151.6342245706
 21
175.65290275379999
 31
0.0
  0
TEXT
  5
1E6
  8
CURBDUCTDIM
  6
CONTINUOUS
 62
     5
 10
159.6342245706
 20
175.65290275379999
 30
0.0
 40
2.0
  1
 
 41
0.8
 72
     1
 11
160.43422457060001
 21
175.65290275379999
 31
0.0
  0
TEXT
  5
1E7
  8
CURBDUCTDIM
  6
CONTINUOUS
 62
     5
 10
147.36755790393329
 20
172.65290275379999
 30
0.0
 40
2.0
  1
[
 41
0.8
 72
     1
 11
147.6342245706
 21
172.65290275379999
 31
0.0
  0
TEXT
  5
1E8
  8
CURBDUCTDIM
  6
CONTINUOUS
 62
     5
 10
149.50089123726659
 20
172.65290275379999
 30
0.0
 40
2.0
  1
1279.5
 41
0.8
 72
     1
 11
153.23422457059999
 21
172.65290275379999
 31
0.0
  0
TEXT
  5
1E9
  8
CURBDUCTDIM
  6
CONTINUOUS
 62
     5
 10
158.56755790393331
 20
172.65290275379999
 30
0.0
 40
2.0
  1
]
 41
0.8
 72
     1
 11
158.83422457060001
 21
172.65290275379999
 31
0.0
  0
LINE
  5
1EA
  8
CURBDUCTDIM
  6
CONTINUOUS
 62
     5
 10
128.8467245706
 20
149.8144169462
 30
0.0
 11
128.8467245706
 21
176.25674577519999
 31
0.0
  0
LINE
  5
1EB
  8
CURBDUCTDIM
  6
CONTINUOUS
 62
     5
 10
179.2217245706
 20
149.8144169462
 30
0.0
 11
179.2217245706
 21
176.96694566959999
 31
0.0
  0
LINE
  5
1EC
  8
CURBDUCTDIM
  6
CONTINUOUS
 62
     5
 10
128.8467245706
 20
176.65290275379999
 30
0.0
 11
144.8342245705999
 21
176.65290275379999
 31
0.0
  0
LINE
  5
1ED
  8
CURBDUCTDIM
  6
CONTINUOUS
 62
     5
 10
179.2217245706
 20
176.65290275379999
 30
0.0
 11
163.23422457059999
 21
176.65290275379999
 31
0.0
  0
INSERT
  5
1EE
  8
CURBDUCTDIM
  6
CONTINUOUS
 62
     5
  2
_FILLED
 10
128.8467245706
 20
176.65290275379999
 30
0.0
 41
4.0
 42
4.0
 43
4.0
 50
180.0
  0
INSERT
  5
1EF
  8
CURBDUCTDIM
  6
CONTINUOUS
 62
     5
  2
_FILLED
 10
179.2217245706
 20
176.65290275379999
 30
0.0
 41
4.0
 42
4.0
 43
4.0
  0
ENDBLK
  5
1F0
  8
0
  6
ByBlock
 62
     0
  0
BLOCK
  8
CURBDUCTDIM
  6
CONTINUOUS
 62
     5
  2
*D25
 70
     1
 10
0.0
 20
0.0
 30
0.0
  3
*D25
  1

  0
TEXT
  5
1F3
  8
CURBDUCTDIM
  6
CONTINUOUS
 62
     5
 10
158.6363079039333
 20
82.326110398400004
 30
0.0
 40
2.0
  1
29-1/2
 41
0.8
 72
     1
 11
162.90297457060001
 21
82.326110398400004
 31
0.0
  0
TEXT
  5
1F4
  8
CURBDUCTDIM
  6
CONTINUOUS
 62
     5
 10
169.30297457060001
 20
82.326110398400004
 30
0.0
 40
2.0
  1
 
 41
0.8
 72
     1
 11
170.1029745706
 21
82.326110398400004
 31
0.0
  0
TEXT
  5
1F5
  8
CURBDUCTDIM
  6
CONTINUOUS
 62
     5
 10
158.6363079039333
 20
79.326110398400004
 30
0.0
 40
2.0
  1
[
 41
0.8
 72
     1
 11
158.90297457060001
 21
79.326110398400004
 31
0.0
  0
TEXT
  5
1F6
  8
CURBDUCTDIM
  6
CONTINUOUS
 62
     5
 10
160.5029745706
 20
79.326110398400004
 30
0.0
 40
2.0
  1
747.7
 41
0.8
 72
     1
 11
163.70297457059999
 21
79.326110398400004
 31
0.0
  0
TEXT
  5
1F7
  8
CURBDUCTDIM
  6
CONTINUOUS
 62
     5
 10
168.23630790393329
 20
79.326110398400004
 30
0.0
 40
2.0
  1
]
 41
0.8
 72
     1
 11
168.5029745706
 21
79.326110398400004
 31
0.0
  0
LINE
  5
1F8
  8
CURBDUCTDIM
  6
CONTINUOUS
 62
     5
 10
149.7842245706
 20
92.576916946200015
 30
0.0
 11
149.7842245706
 21
81.738610398399999
 31
0.0
  0
LINE
  5
1F9
  8
CURBDUCTDIM
  6
CONTINUOUS
 62
     5
 10
179.2217245706
 20
92.576916946200015
 30
0.0
 11
179.2217245706
 21
81.738610398399999
 31
0.0
  0
LINE
  5
1FA
  8
CURBDUCTDIM
  6
CONTINUOUS
 62
     5
 10
149.7842245706
 20
83.326110398400004
 30
0.0
 11
156.1029745706
 21
83.326110398400004
 31
0.0
  0
LINE
  5
1FB
  8
CURBDUCTDIM
  6
CONTINUOUS
 62
     5
 10
179.2217245706
 20
83.326110398400004
 30
0.0
 11
172.90297457060001
 21
83.326110398400004
 31
0.0
  0
INSERT
  5
1FC
  8
CURBDUCTDIM
  6
CONTINUOUS
 62
     5
  2
_FILLED
 10
149.7842245706
 20
83.326110398400004
 30
0.0
 41
4.0
 42
4.0
 43
4.0
 50
180.0
  0
INSERT
  5
1FD
  8
CURBDUCTDIM
  6
CONTINUOUS
 62
     5
  2
_FILLED
 10
179.2217245706
 20
83.326110398400004
 30
0.0
 41
4.0
 42
4.0
 43
4.0
  0
ENDBLK
  5
1FE
  8
0
  6
ByBlock
 62
     0
  0
BLOCK
  8
CURBDUCTDIM
  6
CONTINUOUS
 62
     5
  2
*D26
 70
     1
 10
0.0
 20
0.0
 30
0.0
  3
*D26
  1

  0
TEXT
  5
201
  8
CURBDUCTDIM
  6
CONTINUOUS
 62
     5
 10
199.0507276855333
 20
105.3965691458
 30
0.0
 40
2.0
  1
35-1/2
 41
0.8
 72
     1
 11
203.31739435220001
 21
105.3965691458
 31
0.0
  0
TEXT
  5
202
  8
CURBDUCTDIM
  6
CONTINUOUS
 62
     5
 10
209.71739435219999
 20
105.3965691458
 30
0.0
 40
2.0
  1
 
 41
0.8
 72
     1
 11
210.5173943522
 21
105.3965691458
 31
0.0
  0
TEXT
  5
203
  8
CURBDUCTDIM
  6
CONTINUOUS
 62
     5
 10
199.0507276855333
 20
102.3965691458
 30
0.0
 40
2.0
  1
[
 41
0.8
 72
     1
 11
199.31739435220001
 21
102.3965691458
 31
0.0
  0
TEXT
  5
204
  8
CURBDUCTDIM
  6
CONTINUOUS
 62
     5
 10
201.45072768553339
 20
102.3965691458
 30
0.0
 40
2.0
  1
900.1
 41
0.8
 72
     1
 11
204.11739435219999
 21
102.3965691458
 31
0.0
  0
TEXT
  5
205
  8
CURBDUCTDIM
  6
CONTINUOUS
 62
     5
 10
208.6507276855333
 20
102.3965691458
 30
0.0
 40
2.0
  1
]
 41
0.8
 72
     1
 11
208.91739435220001
 21
102.3965691458
 31
0.0
  0
LINE
  5
206
  8
CURBDUCTDIM
  6
CONTINUOUS
 62
     5
 10
180.80922457060001
 20
129.60191694619999
 30
0.0
 11
206.50489435220001
 21
129.60191694619999
 31
0.0
  0
LINE
  5
207
  8
CURBDUCTDIM
  6
CONTINUOUS
 62
     5
 10
180.80922457060001
 20
94.164416946200006
 30
0.0
 11
206.50489435220001
 21
94.164416946200006
 31
0.0
  0
LINE
  5
208
  8
CURBDUCTDIM
  6
CONTINUOUS
 62
     5
 10
204.91739435220001
 20
129.60191694619999
 30
0.0
 11
204.91739435220001
 21
109.3965691458
 31
0.0
  0
LINE
  5
209
  8
CURBDUCTDIM
  6
CONTINUOUS
 62
     5
 10
204.91739435220001
 20
94.164416946200006
 30
0.0
 11
204.91739435220001
 21
100.3965691458
 31
0.0
  0
INSERT
  5
20A
  8
CURBDUCTDIM
  6
CONTINUOUS
 62
     5
  2
_FILLED
 10
204.91739435220001
 20
129.60191694619999
 30
0.0
 41
4.0
 42
4.0
 43
4.0
 50
90.0
  0
INSERT
  5
20B
  8
CURBDUCTDIM
  6
CONTINUOUS
 62
     5
  2
_FILLED
 10
204.91739435220001
 20
94.164416946200006
 30
0.0
 41
4.0
 42
4.0
 43
4.0
 50
270.0
  0
ENDBLK
  5
20C
  8
0
  6
ByBlock
 62
     0
  0
BLOCK
  8
CURBDUCTDIM
  6
CONTINUOUS
 62
     5
  2
*D27
 70
     1
 10
0.0
 20
0.0
 30
0.0
  3
*D27
  1

  0
TEXT
  5
20F
  8
CURBDUCTDIM
  6
CONTINUOUS
 62
     5
 10
137.17393699300001
 20
161.9092881414
 30
0.0
 40
2.0
  1
15-1/4
 41
0.8
 72
     1
 11
141.17393699300001
 21
161.9092881414
 31
0.0
  0
TEXT
  5
210
  8
CURBDUCTDIM
  6
CONTINUOUS
 62
     5
 10
136.9072703263333
 20
158.9092881414
 30
0.0
 40
2.0
  1
[
 41
0.8
 72
     1
 11
137.17393699300001
 21
158.9092881414
 31
0.0
  0
TEXT
  5
211
  8
CURBDUCTDIM
  6
CONTINUOUS
 62
     5
 10
138.77393699300001
 20
158.9092881414
 30
0.0
 40
2.0
  1
388.9
 41
0.8
 72
     1
 11
141.973936993
 21
158.9092881414
 31
0.0
  0
TEXT
  5
212
  8
CURBDUCTDIM
  6
CONTINUOUS
 62
     5
 10
146.5072703263333
 20
158.9092881414
 30
0.0
 40
2.0
  1
]
 41
0.8
 72
     1
 11
146.77393699300001
 21
158.9092881414
 31
0.0
  0
LINE
  5
213
  8
CURBDUCTDIM
  6
CONTINUOUS
 62
     5
 10
141.28212227509999
 20
148.22691694619999
 30
0.0
 11
143.561436993
 21
148.22691694619999
 31
0.0
  0
LINE
  5
214
  8
CURBDUCTDIM
  6
CONTINUOUS
 62
     5
 10
140.77216211570001
 20
132.91441694619999
 30
0.0
 11
143.561436993
 21
132.91441694619999
 31
0.0
  0
LINE
  5
215
  8
CURBDUCTDIM
  6
CONTINUOUS
 62
     5
 10
141.973936993
 20
148.22691694619999
 30
0.0
 11
141.973936993
 21
156.9092881414
 31
0.0
  0
LINE
  5
216
  8
CURBDUCTDIM
  6
CONTINUOUS
 62
     5
 10
141.973936993
 20
132.91441694619999
 30
0.0
 11
141.973936993
 21
120.2144169462
 31
0.0
  0
INSERT
  5
217
  8
CURBDUCTDIM
  6
CONTINUOUS
 62
     5
  2
_FILLED
 10
141.973936993
 20
148.22691694619999
 30
0.0
 41
4.0
 42
4.0
 43
4.0
 50
270.0
  0
INSERT
  5
218
  8
CURBDUCTDIM
  6
CONTINUOUS
 62
     5
  2
_FILLED
 10
141.973936993
 20
132.91441694619999
 30
0.0
 41
4.0
 42
4.0
 43
4.0
 50
90.0
  0
ENDBLK
  5
219
  8
0
  6
ByBlock
 62
     0
  0
BLOCK
  8
UNITDUCTDIM
  6
CONTINUOUS
 62
     2
  2
*D28
 70
     1
 10
0.0
 20
0.0
 30
0.0
  3
*D28
  1

  0
TEXT
  5
21C
  8
UNITDUCTDIM
  6
CONTINUOUS
 62
     2
 10
193.83651952899999
 20
78.101646458999994
 30
0.0
 40
2.0
  1
4-7/8
 41
0.8
  0
TEXT
  5
21D
  8
UNITDUCTDIM
  6
CONTINUOUS
 62
     2
 10
193.83651952899999
 20
75.101646458999994
 30
0.0
 40
2.0
  1
[
 41
0.8
  0
TEXT
  5
21E
  8
UNITDUCTDIM
  6
CONTINUOUS
 62
     2
 10
195.43651952900001
 20
75.101646458999994
 30
0.0
 40
2.0
  1
123.4
 41
0.8
  0
TEXT
  5
21F
  8
UNITDUCTDIM
  6
CONTINUOUS
 62
     2
 10
203.43651952900001
 20
75.101646458999994
 30
0.0
 40
2.0
  1
]
 41
0.8
  0
LINE
  5
220
  8
UNITDUCTDIM
  6
CONTINUOUS
 62
     2
 10
185.8619446708999
 20
89.521221494699986
 30
0.0
 11
190.84392454889999
 21
89.521221494699986
 31
0.0
  0
LINE
  5
221
  8
UNITDUCTDIM
  6
CONTINUOUS
 62
     2
 10
179.58699115069999
 20
94.378721494699988
 30
0.0
 11
190.84392454889999
 21
94.378721494699988
 31
0.0
  0
LINE
  5
222
  8
UNITDUCTDIM
  6
CONTINUOUS
 62
     2
 10
189.25642454889999
 20
89.521221494699986
 30
0.0
 11
189.25642454889999
 21
79.101646458999994
 31
0.0
  0
LINE
  5
223
  8
UNITDUCTDIM
  6
CONTINUOUS
 62
     2
 10
189.25642454889999
 20
79.101646458999994
 30
0.0
 11
191.83651952899999
 21
79.101646458999994
 31
0.0
  0
LINE
  5
224
  8
UNITDUCTDIM
  6
CONTINUOUS
 62
     2
 10
189.25642454889999
 20
94.378721494699988
 30
0.0
 11
189.25642454889999
 21
107.07872149470001
 31
0.0
  0
INSERT
  5
225
  8
UNITDUCTDIM
  6
CONTINUOUS
 62
     2
  2
_FILLED
 10
189.25642454889999
 20
89.521221494699986
 30
0.0
 41
4.0
 42
4.0
 43
4.0
 50
90.0
  0
INSERT
  5
226
  8
UNITDUCTDIM
  6
CONTINUOUS
 62
     2
  2
_FILLED
 10
189.25642454889999
 20
94.378721494699988
 30
0.0
 41
4.0
 42
4.0
 43
4.0
 50
270.0
  0
ENDBLK
  5
227
  8
0
  6
ByBlock
 62
     0
  0
BLOCK
  8
CURB-14-DIM
  6
CONTINUOUS
 62
     6
  2
*D29
 70
     1
 10
0.0
 20
0.0
 30
0.0
  3
*D29
  1

  0
TEXT
  5
22A
  8
CURB-14-DIM
  6
CONTINUOUS
 62
     6
 10
48.035900946933317
 20
78.495576017100007
 30
0.0
 40
2.0
  1
2-7/8
 41
0.8
 72
     2
 11
55.5025676136
 21
78.495576017100007
 31
0.0
  0
TEXT
  5
22B
  8
CURB-14-DIM
  6
CONTINUOUS
 62
     6
 10
48.569234280266663
 20
75.495576017100007
 30
0.0
 40
2.0
  1
[
 41
0.8
 72
     2
 11
49.102567613599987
 21
75.495576017100007
 31
0.0
  0
TEXT
  5
22C
  8
CURB-14-DIM
  6
CONTINUOUS
 62
     6
 10
49.63590094693334
 20
75.495576017100007
 30
0.0
 40
2.0
  1
73
 41
0.8
 72
     2
 11
52.30256761359999
 21
75.495576017100007
 31
0.0
  0
TEXT
  5
22D
  8
CURB-14-DIM
  6
CONTINUOUS
 62
     6
 10
53.369234280266667
 20
75.495576017100007
 30
0.0
 40
2.0
  1
]
 41
0.8
 72
     2
 11
53.902567613599992
 21
75.495576017100007
 31
0.0
  0
LINE
  5
22E
  8
CURB-14-DIM
  6
CONTINUOUS
 62
     6
 10
70.134224570599983
 20
92.414416946200006
 30
0.0
 11
59.780317051800012
 21
92.414416946200006
 31
0.0
  0
LINE
  5
22F
  8
CURB-14-DIM
  6
CONTINUOUS
 62
     6
 10
66.831595069700001
 20
89.521221494699986
 30
0.0
 11
59.780317051800012
 21
89.521221494699986
 31
0.0
  0
LINE
  5
230
  8
CURB-14-DIM
  6
CONTINUOUS
 62
     6
 10
61.367817051800003
 20
92.414416946200006
 30
0.0
 11
61.367817051800003
 21
105.1144169462
 31
0.0
  0
LINE
  5
231
  8
CURB-14-DIM
  6
CONTINUOUS
 62
     6
 10
61.367817051800003
 20
89.521221494699986
 30
0.0
 11
61.367817051800003
 21
79.495576017100007
 31
0.0
  0
LINE
  5
232
  8
CURB-14-DIM
  6
CONTINUOUS
 62
     6
 10
61.367817051800003
 20
79.495576017100007
 30
0.0
 11
57.502567613599993
 21
79.495576017100007
 31
0.0
  0
INSERT
  5
233
  8
CURB-14-DIM
  6
CONTINUOUS
 62
     6
  2
_FILLED
 10
61.367817051800003
 20
92.414416946200006
 30
0.0
 41
4.0
 42
4.0
 43
4.0
 50
270.0
  0
INSERT
  5
234
  8
CURB-14-DIM
  6
CONTINUOUS
 62
     6
  2
_FILLED
 10
61.367817051800003
 20
89.521221494699986
 30
0.0
 41
4.0
 42
4.0
 43
4.0
 50
90.0
  0
ENDBLK
  5
235
  8
0
  6
ByBlock
 62
     0
  0
BLOCK
  8
CURB-14-DIM
  6
CONTINUOUS
 62
     6
  2
*D30
 70
     1
 10
0.0
 20
0.0
 30
0.0
  3
*D30
  1

  0
TEXT
  5
238
  8
CURB-14-DIM
  6
CONTINUOUS
 62
     6
 10
52.411437224866667
 20
55.916001299599991
 30
0.0
 40
2.0
  1
3-1/4
 41
0.8
 72
     2
 11
59.344770558199997
 21
55.916001299599991
 31
0.0
  0
TEXT
  5
239
  8
CURB-14-DIM
  6
CONTINUOUS
 62
     6
 10
52.411437224866667
 20
52.916001299599991
 30
0.0
 40
2.0
  1
[
 41
0.8
 72
     2
 11
52.944770558199991
 21
52.916001299599991
 31
0.0
  0
TEXT
  5
23A
  8
CURB-14-DIM
  6
CONTINUOUS
 62
     6
 10
53.47810389153333
 20
52.916001299599991
 30
0.0
 40
2.0
  1
84
 41
0.8
 72
     2
 11
56.144770558200001
 21
52.916001299599991
 31
0.0
  0
TEXT
  5
23B
  8
CURB-14-DIM
  6
CONTINUOUS
 62
     6
 10
57.211437224866657
 20
52.916001299599991
 30
0.0
 40
2.0
  1
]
 41
0.8
 72
     2
 11
57.744770558200003
 21
52.916001299599991
 31
0.0
  0
LINE
  5
23C
  8
CURB-14-DIM
  6
CONTINUOUS
 62
     6
 10
71.721724570600003
 20
74.166790829999997
 30
0.0
 11
71.721724570600003
 21
55.328501299599992
 31
0.0
  0
LINE
  5
23D
  8
CURB-14-DIM
  6
CONTINUOUS
 62
     6
 10
68.419095069700006
 20
87.933721494699995
 30
0.0
 11
68.419095069700006
 21
55.328501299599992
 31
0.0
  0
LINE
  5
23E
  8
CURB-14-DIM
  6
CONTINUOUS
 62
     6
 10
71.721724570600003
 20
56.916001299599998
 30
0.0
 11
84.421724570600006
 21
56.916001299599998
 31
0.0
  0
LINE
  5
23F
  8
CURB-14-DIM
  6
CONTINUOUS
 62
     6
 10
68.419095069700006
 20
56.916001299599998
 30
0.0
 11
61.34477055819999
 21
56.916001299599998
 31
0.0
  0
INSERT
  5
240
  8
CURB-14-DIM
  6
CONTINUOUS
 62
     6
  2
_FILLED
 10
71.721724570600003
 20
56.916001299599998
 30
0.0
 41
4.0
 42
4.0
 43
4.0
 50
180.0
  0
INSERT
  5
241
  8
CURB-14-DIM
  6
CONTINUOUS
 62
     6
  2
_FILLED
 10
68.419095069700006
 20
56.916001299599998
 30
0.0
 41
4.0
 42
4.0
 43
4.0
  0
ENDBLK
  5
242
  8
0
  6
ByBlock
 62
     0
  0
BLOCK
  8
UNIT-DIM
  6
CONTINUOUS
 62
     7
  2
*D31
 70
     1
 10
0.0
 20
0.0
 30
0.0
  3
*D31
  1

  0
TEXT
  5
245
  8
UNIT-DIM
  6
CONTINUOUS
 62
     7
 10
227.88201223856669
 20
124.20663248309999
 30
0.0
 40
2.0
  1
63-3/8
 41
0.8
 72
     1
 11
232.41534557189999
 21
124.20663248309999
 31
0.0
  0
TEXT
  5
246
  8
UNIT-DIM
  6
CONTINUOUS
 62
     7
 10
228.14867890523331
 20
121.20663248309999
 30
0.0
 40
2.0
  1
[
 41
0.8
 72
     1
 11
228.41534557189999
 21
121.20663248309999
 31
0.0
  0
TEXT
  5
247
  8
UNIT-DIM
  6
CONTINUOUS
 62
     7
 10
230.54867890523329
 20
121.20663248309999
 30
0.0
 40
2.0
  1
1609.0
 41
0.8
 72
     1
 11
234.01534557190001
 21
121.20663248309999
 31
0.0
  0
TEXT
  5
248
  8
UNIT-DIM
  6
CONTINUOUS
 62
     7
 10
239.3486789052333
 20
121.20663248309999
 30
0.0
 40
2.0
  1
]
 41
0.8
 72
     1
 11
239.61534557190001
 21
121.20663248309999
 31
0.0
  0
LINE
  5
249
  8
UNIT-DIM
  6
CONTINUOUS
 62
     7
 10
185.8619446708999
 20
152.86924376479999
 30
0.0
 11
213.1228466087
 21
152.86924376479999
 31
0.0
  0
LINE
  5
24A
  8
UNIT-DIM
  6
CONTINUOUS
 62
     7
 10
215.1122398103
 20
152.86924376479999
 30
0.0
 11
235.60284557189999
 21
152.86924376479999
 31
0.0
  0
LINE
  5
24B
  8
UNIT-DIM
  6
CONTINUOUS
 62
     7
 10
185.8619446708999
 20
89.521221494699986
 30
0.0
 11
235.60284557189999
 21
89.521221494699986
 31
0.0
  0
LINE
  5
24C
  8
UNIT-DIM
  6
CONTINUOUS
 62
     7
 10
234.01534557190001
 20
152.86924376479999
 30
0.0
 11
234.01534557190001
 21
128.20663248310001
 31
0.0
  0
LINE
  5
24D
  8
UNIT-DIM
  6
CONTINUOUS
 62
     7
 10
234.01534557190001
 20
89.521221494699986
 30
0.0
 11
234.01534557190001
 21
119.20663248309999
 31
0.0
  0
INSERT
  5
24E
  8
UNIT-DIM
  6
CONTINUOUS
 62
     7
  2
_FILLED
 10
234.01534557190001
 20
152.86924376479999
 30
0.0
 41
4.0
 42
4.0
 43
4.0
 50
90.0
  0
INSERT
  5
24F
  8
UNIT-DIM
  6
CONTINUOUS
 62
     7
  2
_FILLED
 10
234.01534557190001
 20
89.521221494699986
 30
0.0
 41
4.0
 42
4.0
 43
4.0
 50
270.0
  0
ENDBLK
  5
250
  8
0
  6
ByBlock
 62
     0
  0
BLOCK
  8
UNIT-DIM
  6
CONTINUOUS
 62
     7
  2
*D32
 70
     1
 10
0.0
 20
0.0
 30
0.0
  3
*D32
  1

  0
TEXT
  5
253
  8
UNIT-DIM
  6
CONTINUOUS
 62
     7
 10
135.95124315890001
 20
197.51835294680001
 30
0.0
 40
2.0
  1
115-7/8
 41
0.8
 72
     1
 11
140.7512431589
 21
197.51835294680001
 31
0.0
  0
TEXT
  5
254
  8
UNIT-DIM
  6
CONTINUOUS
 62
     7
 10
135.6845764922333
 20
194.51835294680001
 30
0.0
 40
2.0
  1
[
 41
0.8
 72
     1
 11
135.95124315890001
 21
194.51835294680001
 31
0.0
  0
TEXT
  5
255
  8
UNIT-DIM
  6
CONTINUOUS
 62
     7
 10
137.55124315890001
 20
194.51835294680001
 30
0.0
 40
2.0
  1
2942.7
 41
0.8
 72
     1
 11
141.55124315890001
 21
194.51835294680001
 31
0.0
  0
TEXT
  5
256
  8
UNIT-DIM
  6
CONTINUOUS
 62
     7
 10
146.88457649223329
 20
194.51835294680001
 30
0.0
 40
2.0
  1
]
 41
0.8
 72
     1
 11
147.1512431589
 21
194.51835294680001
 31
0.0
  0
LINE
  5
257
  8
UNIT-DIM
  6
CONTINUOUS
 62
     7
 10
68.419095069700006
 20
154.4567437648
 30
0.0
 11
68.419095069700006
 21
200.10585294680001
 31
0.0
  0
LINE
  5
258
  8
UNIT-DIM
  6
CONTINUOUS
 62
     7
 10
184.27444467090001
 20
154.4567437648
 30
0.0
 11
184.27444467090001
 21
200.10585294680001
 31
0.0
  0
LINE
  5
259
  8
UNIT-DIM
  6
CONTINUOUS
 62
     7
 10
68.419095069700006
 20
198.51835294680001
 30
0.0
 11
133.1512431589
 21
198.51835294680001
 31
0.0
  0
LINE
  5
25A
  8
UNIT-DIM
  6
CONTINUOUS
 62
     7
 10
184.27444467090001
 20
198.51835294680001
 30
0.0
 11
149.95124315890001
 21
198.51835294680001
 31
0.0
  0
INSERT
  5
25B
  8
UNIT-DIM
  6
CONTINUOUS
 62
     7
  2
_FILLED
 10
68.419095069700006
 20
198.51835294680001
 30
0.0
 41
4.0
 42
4.0
 43
4.0
 50
180.0
  0
INSERT
  5
25C
  8
UNIT-DIM
  6
CONTINUOUS
 62
     7
  2
_FILLED
 10
184.27444467090001
 20
198.51835294680001
 30
0.0
 41
4.0
 42
4.0
 43
4.0
  0
ENDBLK
  5
25D
  8
0
  6
ByBlock
 62
     0
  0
BLOCK
  8
CURB-24-DIM
  6
CONTINUOUS
 62
     6
  2
*D33
 70
     1
 10
0.0
 20
0.0
 30
0.0
  3
*D33
  1

  0
TEXT
  5
260
  8
CURB-24-DIM
  6
CONTINUOUS
 62
     6
 10
54.701150385133339
 20
120.19566694620001
 30
0.0
 40
2.0
  1
57-1/2
 41
0.8
 72
     1
 11
58.967817051799997
 21
120.19566694620001
 31
0.0
  0
TEXT
  5
261
  8
CURB-24-DIM
  6
CONTINUOUS
 62
     6
 10
66.967817051800012
 20
120.19566694620001
 30
0.0
 40
2.0
  1
 
 41
0.8
 72
     1
 11
67.767817051800009
 21
120.19566694620001
 31
0.0
  0
TEXT
  5
262
  8
CURB-24-DIM
  6
CONTINUOUS
 62
     6
 10
54.701150385133339
 20
117.19566694620001
 30
0.0
 40
2.0
  1
[
 41
0.8
 72
     1
 11
54.967817051799997
 21
117.19566694620001
 31
0.0
  0
TEXT
  5
263
  8
CURB-24-DIM
  6
CONTINUOUS
 62
     6
 10
57.10115038513333
 20
117.19566694620001
 30
0.0
 40
2.0
  1
1462.1
 41
0.8
 72
     1
 11
60.567817051799999
 21
117.19566694620001
 31
0.0
  0
TEXT
  5
264
  8
CURB-24-DIM
  6
CONTINUOUS
 62
     6
 10
65.901150385133334
 20
117.19566694620001
 30
0.0
 40
2.0
  1
]
 41
0.8
 72
     1
 11
66.1678170518
 21
117.19566694620001
 31
0.0
  0
LINE
  5
265
  8
CURB-24-DIM
  6
CONTINUOUS
 62
     6
 10
70.026374852100005
 20
92.414416946200006
 30
0.0
 11
59.780317051800012
 21
92.414416946200006
 31
0.0
  0
LINE
  5
266
  8
CURB-24-DIM
  6
CONTINUOUS
 62
     6
 10
70.134224570599983
 20
149.97691694619999
 30
0.0
 11
59.780317051800012
 21
149.97691694619999
 31
0.0
  0
LINE
  5
267
  8
CURB-24-DIM
  6
CONTINUOUS
 62
     6
 10
61.367817051800003
 20
92.414416946200006
 30
0.0
 11
61.367817051800003
 21
115.19566694620001
 31
0.0
  0
LINE
  5
268
  8
CURB-24-DIM
  6
CONTINUOUS
 62
     6
 10
61.367817051800003
 20
149.97691694619999
 30
0.0
 11
61.367817051800003
 21
125.19566694620001
 31
0.0
  0
INSERT
  5
269
  8
CURB-24-DIM
  6
CONTINUOUS
 62
     6
  2
_FILLED
 10
61.367817051800003
 20
92.414416946200006
 30
0.0
 41
4.0
 42
4.0
 43
4.0
 50
270.0
  0
INSERT
  5
26A
  8
CURB-24-DIM
  6
CONTINUOUS
 62
     6
  2
_FILLED
 10
61.367817051800003
 20
149.97691694619999
 30
0.0
 41
4.0
 42
4.0
 43
4.0
 50
90.0
  0
ENDBLK
  5
26B
  8
0
  6
ByBlock
 62
     0
  0
BLOCK
  8
CURB-24-DIM
  6
CONTINUOUS
 62
     6
  2
*D34
 70
     1
 10
0.0
 20
0.0
 30
0.0
  3
*D34
  1

  0
TEXT
  5
26E
  8
CURB-24-DIM
  6
CONTINUOUS
 62
     6
 10
120.08005790393329
 20
55.916001299599991
 30
0.0
 40
2.0
  1
109-1/4
 41
0.8
 72
     1
 11
124.74672457059999
 21
55.916001299599991
 31
0.0
  0
TEXT
  5
26F
  8
CURB-24-DIM
  6
CONTINUOUS
 62
     6
 10
131.9467245706
 20
55.916001299599991
 30
0.0
 40
2.0
  1
 
 41
0.8
 72
     1
 11
132.74672457060001
 21
55.916001299599991
 31
0.0
  0
TEXT
  5
270
  8
CURB-24-DIM
  6
CONTINUOUS
 62
     6
 10
119.6800579039333
 20
52.916001299599991
 30
0.0
 40
2.0
  1
[
 41
0.8
 72
     1
 11
119.9467245706
 21
52.916001299599991
 31
0.0
  0
TEXT
  5
271
  8
CURB-24-DIM
  6
CONTINUOUS
 62
     6
 10
121.6800579039333
 20
52.916001299599991
 30
0.0
 40
2.0
  1
2775.0
 41
0.8
 72
     1
 11
125.54672457060001
 21
52.916001299599991
 31
0.0
  0
TEXT
  5
272
  8
CURB-24-DIM
  6
CONTINUOUS
 62
     6
 10
130.88005790393331
 20
52.916001299599991
 30
0.0
 40
2.0
  1
]
 41
0.8
 72
     1
 11
131.14672457060001
 21
52.916001299599991
 31
0.0
  0
LINE
  5
273
  8
CURB-24-DIM
  6
CONTINUOUS
 62
     6
 10
71.721724570600003
 20
90.826916946200015
 30
0.0
 11
71.721724570600003
 21
82.651743873499996
 31
0.0
  0
LINE
  5
274
  8
CURB-24-DIM
  6
CONTINUOUS
 62
     6
 10
71.721724570600003
 20
79.584762687700007
 30
0.0
 11
71.721724570600003
 21
55.328501299599992
 31
0.0
  0
LINE
  5
275
  8
CURB-24-DIM
  6
CONTINUOUS
 62
     6
 10
180.9717245706
 20
90.826916946200015
 30
0.0
 11
180.9717245706
 21
55.328501299599992
 31
0.0
  0
LINE
  5
276
  8
CURB-24-DIM
  6
CONTINUOUS
 62
     6
 10
71.721724570600003
 20
56.916001299599998
 30
0.0
 11
117.1467245706
 21
56.916001299599998
 31
0.0
  0
LINE
  5
277
  8
CURB-24-DIM
  6
CONTINUOUS
 62
     6
 10
180.9717245706
 20
56.916001299599998
 30
0.0
 11
135.54672457059999
 21
56.916001299599998
 31
0.0
  0
INSERT
  5
278
  8
CURB-24-DIM
  6
CONTINUOUS
 62
     6
  2
_FILLED
 10
71.721724570600003
 20
56.916001299599998
 30
0.0
 41
4.0
 42
4.0
 43
4.0
 50
180.0
  0
INSERT
  5
279
  8
CURB-24-DIM
  6
CONTINUOUS
 62
     6
  2
_FILLED
 10
180.9717245706
 20
56.916001299599998
 30
0.0
 41
4.0
 42
4.0
 43
4.0
  0
ENDBLK
  5
27A
  8
0
  6
ByBlock
 62
     0
  0
BLOCK
  8
CURB-24-DIM
  6
CONTINUOUS
 62
     6
  2
*D35
 70
     1
 10
0.0
 20
0.0
 30
0.0
  3
*D35
  1

  0
TEXT
  5
27D
  8
CURB-24-DIM
  6
CONTINUOUS
 62
     6
 10
48.035900946933317
 20
78.495576017100007
 30
0.0
 40
2.0
  1
2-7/8
 41
0.8
 72
     2
 11
55.5025676136
 21
78.495576017100007
 31
0.0
  0
TEXT
  5
27E
  8
CURB-24-DIM
  6
CONTINUOUS
 62
     6
 10
48.569234280266663
 20
75.495576017100007
 30
0.0
 40
2.0
  1
[
 41
0.8
 72
     2
 11
49.102567613599987
 21
75.495576017100007
 31
0.0
  0
TEXT
  5
27F
  8
CURB-24-DIM
  6
CONTINUOUS
 62
     6
 10
49.63590094693334
 20
75.495576017100007
 30
0.0
 40
2.0
  1
73
 41
0.8
 72
     2
 11
52.30256761359999
 21
75.495576017100007
 31
0.0
  0
TEXT
  5
280
  8
CURB-24-DIM
  6
CONTINUOUS
 62
     6
 10
53.369234280266667
 20
75.495576017100007
 30
0.0
 40
2.0
  1
]
 41
0.8
 72
     2
 11
53.902567613599992
 21
75.495576017100007
 31
0.0
  0
LINE
  5
281
  8
CURB-24-DIM
  6
CONTINUOUS
 62
     6
 10
70.134224570599983
 20
92.414416946200006
 30
0.0
 11
59.780317051800012
 21
92.414416946200006
 31
0.0
  0
LINE
  5
282
  8
CURB-24-DIM
  6
CONTINUOUS
 62
     6
 10
66.831595069700001
 20
89.521221494699986
 30
0.0
 11
59.780317051800012
 21
89.521221494699986
 31
0.0
  0
LINE
  5
283
  8
CURB-24-DIM
  6
CONTINUOUS
 62
     6
 10
61.367817051800003
 20
92.414416946200006
 30
0.0
 11
61.367817051800003
 21
105.1144169462
 31
0.0
  0
LINE
  5
284
  8
CURB-24-DIM
  6
CONTINUOUS
 62
     6
 10
61.367817051800003
 20
89.521221494699986
 30
0.0
 11
61.367817051800003
 21
79.495576017100007
 31
0.0
  0
LINE
  5
285
  8
CURB-24-DIM
  6
CONTINUOUS
 62
     6
 10
61.367817051800003
 20
79.495576017100007
 30
0.0
 11
57.502567613599993
 21
79.495576017100007
 31
0.0
  0
INSERT
  5
286
  8
CURB-24-DIM
  6
CONTINUOUS
 62
     6
  2
_FILLED
 10
61.367817051800003
 20
92.414416946200006
 30
0.0
 41
4.0
 42
4.0
 43
4.0
 50
270.0
  0
INSERT
  5
287
  8
CURB-24-DIM
  6
CONTINUOUS
 62
     6
  2
_FILLED
 10
61.367817051800003
 20
89.521221494699986
 30
0.0
 41
4.0
 42
4.0
 43
4.0
 50
90.0
  0
ENDBLK
  5
288
  8
0
  6
ByBlock
 62
     0
  0
BLOCK
  8
CURB-24-DIM
  6
CONTINUOUS
 62
     6
  2
*D36
 70
     1
 10
0.0
 20
0.0
 30
0.0
  3
*D36
  1

  0
TEXT
  5
28B
  8
CURB-24-DIM
  6
CONTINUOUS
 62
     6
 10
52.411437224866667
 20
55.916001299599991
 30
0.0
 40
2.0
  1
3-1/4
 41
0.8
 72
     2
 11
59.344770558199997
 21
55.916001299599991
 31
0.0
  0
TEXT
  5
28C
  8
CURB-24-DIM
  6
CONTINUOUS
 62
     6
 10
52.411437224866667
 20
52.916001299599991
 30
0.0
 40
2.0
  1
[
 41
0.8
 72
     2
 11
52.944770558199991
 21
52.916001299599991
 31
0.0
  0
TEXT
  5
28D
  8
CURB-24-DIM
  6
CONTINUOUS
 62
     6
 10
53.47810389153333
 20
52.916001299599991
 30
0.0
 40
2.0
  1
84
 41
0.8
 72
     2
 11
56.144770558200001
 21
52.916001299599991
 31
0.0
  0
TEXT
  5
28E
  8
CURB-24-DIM
  6
CONTINUOUS
 62
     6
 10
57.211437224866657
 20
52.916001299599991
 30
0.0
 40
2.0
  1
]
 41
0.8
 72
     2
 11
57.744770558200003
 21
52.916001299599991
 31
0.0
  0
LINE
  5
28F
  8
CURB-24-DIM
  6
CONTINUOUS
 62
     6
 10
71.721724570600003
 20
74.166790829999997
 30
0.0
 11
71.721724570600003
 21
55.328501299599992
 31
0.0
  0
LINE
  5
290
  8
CURB-24-DIM
  6
CONTINUOUS
 62
     6
 10
68.419095069700006
 20
87.933721494699995
 30
0.0
 11
68.419095069700006
 21
55.328501299599992
 31
0.0
  0
LINE
  5
291
  8
CURB-24-DIM
  6
CONTINUOUS
 62
     6
 10
71.721724570600003
 20
56.916001299599998
 30
0.0
 11
84.421724570600006
 21
56.916001299599998
 31
0.0
  0
LINE
  5
292
  8
CURB-24-DIM
  6
CONTINUOUS
 62
     6
 10
68.419095069700006
 20
56.916001299599998
 30
0.0
 11
61.34477055819999
 21
56.916001299599998
 31
0.0
  0
INSERT
  5
293
  8
CURB-24-DIM
  6
CONTINUOUS
 62
     6
  2
_FILLED
 10
71.721724570600003
 20
56.916001299599998
 30
0.0
 41
4.0
 42
4.0
 43
4.0
 50
180.0
  0
INSERT
  5
294
  8
CURB-24-DIM
  6
CONTINUOUS
 62
     6
  2
_FILLED
 10
68.419095069700006
 20
56.916001299599998
 30
0.0
 41
4.0
 42
4.0
 43
4.0
  0
ENDBLK
  5
295
  8
0
  6
ByBlock
 62
     0
  0
ENDSEC
  0
SECTION
  2
ENTITIES
  0
DIMENSION
  5
296
  8
SERVCLRDIM
  6
CONTINUOUS
 62
     1
  2
*D1
 10
116.7492916667
 20
41.521221494700001
 30
0.0
 11
146.29929166669999
 21
20.167749272399998
 31
0.0
 70
   128
 13
68.419095069700006
 23
89.521221494699986
 33
0.0
 14
105.57415629899999
 24
41.521221494700001
 34
0.0
 50
270.0
  0
DIMENSION
  5
297
  8
SERVCLRDIM
  6
CONTINUOUS
 62
     1
  2
*D2
 10
220.24319467090001
 20
198.51835294680001
 30
0.0
 11
202.22694716090001
 21
194.01835294680001
 31
0.0
 70
   128
 13
184.27444467090001
 23
189.5451652847
 33
0.0
 14
220.24319467090001
 24
223.85346228610001
 34
0.0
  0
DIMENSION
  5
298
  8
UNIT-DIM
  6
CONTINUOUS
 62
     7
  2
*D3
 10
226.19895603489999
 20
131.05480235260001
 30
0.0
 11
225.39895603490001
 21
100.5126737894
 31
0.0
 70
   128
 13
184.27444467090001
 23
89.521221494699986
 33
0.0
 14
159.0054587697
 24
131.05480235260001
 34
0.0
 50
90.0
  0
DIMENSION
  5
299
  8
UNIT-DIM
  6
CONTINUOUS
 62
     7
  2
*D4
 10
158.26500095590001
 20
140.9391343371
 30
0.0
 11
196.30801039990001
 21
139.4391343371
 31
0.0
 70
   128
 13
184.27444467090001
 23
152.86924376479999
 33
0.0
 14
158.26500095590001
 24
131.7952601664
 34
0.0
 50
180.0
  0
DIMENSION
  5
29A
  8
UNIT-DIM
  6
CONTINUOUS
 62
     7
  2
*D5
 10
111.3214115303
 20
181.91596228610001
 30
0.0
 11
110.5214115303
 21
165.89260302549999
 31
0.0
 70
   128
 13
184.27444467090001
 23
152.86924376479999
 33
0.0
 14
129.54413808940001
 24
181.91596228610001
 34
0.0
 50
90.0
  0
DIMENSION
  5
29B
  8
UNIT-DIM
  6
CONTINUOUS
 62
     7
  2
*D6
 10
129.54413808940001
 20
189.2149470299
 30
0.0
 11
155.1927767821999
 21
187.7149470299
 31
0.0
 70
   128
 13
182.44141547500001
 23
181.91596228610001
 33
0.0
 14
129.54413808940001
 24
181.91596228610001
 34
0.0
 50
180.0
  0
DIMENSION
  5
29C
  8
UNIT-DIM
  6
CONTINUOUS
 62
     7
  2
*D7
 10
46.307082636199993
 20
104.5515394327
 30
0.0
 11
36.303651367800001
 21
118.91573764340001
 31
0.0
 70
   128
 13
68.419095069700006
 23
89.521221494699986
 33
0.0
 14
112.6746680864
 24
104.5515394327
 34
0.0
 50
90.0
  0
DIMENSION
  5
29D
  8
UNIT-DIM
  6
CONTINUOUS
 62
     7
  2
*D8
 10
38.325614394200002
 20
107.6763214066
 30
0.0
 11
28.053363533599999
 21
81.786434338199996
 31
0.0
 70
   128
 13
68.419095069700006
 23
89.521221494699986
 33
0.0
 14
112.6746680864
 24
107.6763214066
 34
0.0
 50
90.0
  0
DIMENSION
  5
29E
  8
UNIT-DIM
  6
CONTINUOUS
 62
     7
  2
*D9
 10
27.3840122764
 20
110.03461791230001
 30
0.0
 11
26.584012276399999
 21
98.277919703500004
 31
0.0
 70
   128
 13
68.419095069700006
 23
89.521221494699986
 33
0.0
 14
112.6746680864
 24
110.03461791230001
 34
0.0
 50
90.0
  0
DIMENSION
  5
29F
  8
UNIT-DIM
  6
CONTINUOUS
 62
     7
  2
*D10
 10
13.4750259445
 20
112.0220422156
 30
0.0
 11
12.6750259445
 21
99.271631855099997
 31
0.0
 70
   128
 13
68.419095069700006
 23
89.521221494699986
 33
0.0
 14
112.6746680864
 24
112.0220422156
 34
0.0
 50
90.0
  0
DIMENSION
  5
2A0
  8
UNIT-DIM
  6
CONTINUOUS
 62
     7
  2
*D11
 10
112.6746680864
 20
80.868750238299995
 30
0.0
 11
89.746881577999986
 21
79.368750238299995
 31
0.0
 70
   128
 13
68.419095069700006
 23
89.521221494699986
 33
0.0
 14
112.6746680864
 24
105.44498715819999
 34
0.0
  0
DIMENSION
  5
2A1
  8
UNITDUCTDIM
  6
CONTINUOUS
 62
     2
  2
*D12
 10
214.11871552779999
 20
133.87872149469999
 30
0.0
 11
213.31871552780001
 21
110.19997149469999
 31
0.0
 70
   128
 13
184.27444467090001
 23
89.521221494699986
 33
0.0
 14
178.4988930749
 24
133.87872149469999
 34
0.0
 50
90.0
  0
DIMENSION
  5
2A2
  8
UNITDUCTDIM
  6
CONTINUOUS
 62
     2
  2
*D13
 10
214.11871552779999
 20
146.51070194619999
 30
0.0
 11
213.31871552780001
 21
138.69471172039999
 31
0.0
 70
   128
 13
178.50061302029999
 23
133.87872149469999
 33
0.0
 14
178.50061302029999
 24
146.51070194619999
 34
0.0
 50
90.0
  0
DIMENSION
  5
2A3
  8
UNIT-DIM
  6
CONTINUOUS
 62
     7
  2
*D14
 10
129.54413808940001
 20
189.2149470299
 30
0.0
 11
98.181616579599989
 21
187.7149470299
 31
0.0
 70
   128
 13
68.419095069700006
 23
152.86924376479999
 33
0.0
 14
129.54413808940001
 24
181.91596228610001
 34
0.0
  0
DIMENSION
  5
2A4
  8
UNITDUCTDIM
  6
CONTINUOUS
 62
     2
  2
*D15
 10
178.50061302029999
 20
158.8640511982
 30
0.0
 11
200.3062743683
 21
157.3640511982
 31
0.0
 70
   128
 13
184.27444467090001
 23
152.86924376479999
 33
0.0
 14
178.50061302029999
 24
146.51070194619999
 34
0.0
 50
180.0
  0
DIMENSION
  5
2A5
  8
UNITDUCTDIM
  6
CONTINUOUS
 62
     2
  2
*D16
 10
131.6505241703
 20
169.57321454480001
 30
0.0
 11
154.2755685953
 21
168.07321454480001
 31
0.0
 70
   128
 13
178.50061302029999
 23
146.51070194619999
 33
0.0
 14
131.6505241703
 24
146.51070194619999
 34
0.0
 50
180.0
  0
DIMENSION
  5
2A6
  8
UNITDUCTDIM
  6
CONTINUOUS
 62
     2
  2
*D17
 10
184.27444467090001
 20
63.217214536499988
 30
0.0
 11
201.3994173776
 21
61.717214536500002
 31
0.0
 70
   128
 13
177.99949115070001
 23
79.350180158100002
 33
0.0
 14
184.27444467090001
 24
89.521221494699986
 34
0.0
  0
DIMENSION
  5
2A7
  8
UNITDUCTDIM
  6
CONTINUOUS
 62
     2
  2
*D18
 10
177.99949115070001
 20
63.217214536499988
 30
0.0
 11
137.7821730748
 21
61.717214536500002
 31
0.0
 70
   128
 13
151.2615047722
 23
94.378721494699988
 33
0.0
 14
177.99949115070001
 24
94.378721494699988
 34
0.0
  0
DIMENSION
  5
2A8
  8
UNITDUCTDIM
  6
CONTINUOUS
 62
     2
  2
*D19
 10
197.4009662425
 20
128.3541479022
 30
0.0
 11
196.60096624249999
 21
119.6809239414
 31
0.0
 70
   128
 13
177.99949115070001
 23
94.378721494699988
 33
0.0
 14
177.99949115070001
 24
128.3541479022
 34
0.0
 50
90.0
  0
DIMENSION
  5
2A9
  8
SERVCLRDIM
  6
CONTINUOUS
 62
     1
  2
*D20
 10
20.450345069699999
 20
167.65709385509999
 30
0.0
 11
44.434720069699999
 21
163.15709385509999
 31
0.0
 70
   128
 13
68.419095069700006
 23
152.86924376479999
 33
0.0
 14
20.450345069699999
 24
162.36204042910001
 34
0.0
 50
180.0
  0
DIMENSION
  5
2AA
  8
SERVCLRDIM
  6
CONTINUOUS
 62
     1
  2
*D21
 10
111.4469628409
 20
223.85346228610001
 30
0.0
 11
111.4469628409
 21
209.2477719796
 31
0.0
 70
   128
 13
129.54413808940001
 23
181.91596228610001
 33
0.0
 14
220.24319467090001
 24
223.85346228610001
 34
0.0
 50
90.0
  0
DIMENSION
  5
2AB
  8
CURB-14-DIM
  6
CONTINUOUS
 62
     6
  2
*D22
 10
61.367817051800003
 20
149.97691694619999
 30
0.0
 11
60.567817051799999
 21
119.69566694620001
 31
0.0
 70
   128
 13
71.613874852099997
 23
92.414416946200006
 33
0.0
 14
71.721724570600003
 24
149.97691694619999
 34
0.0
 50
90.0
  0
DIMENSION
  5
2AC
  8
CURB-14-DIM
  6
CONTINUOUS
 62
     6
  2
*D23
 10
180.9717245706
 20
56.916001299599998
 30
0.0
 11
125.54672457060001
 21
55.416001299599991
 31
0.0
 70
   128
 13
71.721724570600003
 23
92.414416946200006
 33
0.0
 14
180.9717245706
 24
92.414416946200006
 34
0.0
  0
DIMENSION
  5
2AD
  8
CURBDUCTDIM
  6
CONTINUOUS
 62
     5
  2
*D24
 10
179.2217245706
 20
176.65290275379999
 30
0.0
 11
153.23422457059999
 21
175.15290275379999
 31
0.0
 70
   128
 13
128.8467245706
 23
148.22691694619999
 33
0.0
 14
179.2217245706
 24
148.22691694619999
 34
0.0
  0
DIMENSION
  5
2AE
  8
CURBDUCTDIM
  6
CONTINUOUS
 62
     5
  2
*D25
 10
179.2217245706
 20
83.326110398400004
 30
0.0
 11
163.70297457059999
 21
81.826110398400004
 31
0.0
 70
   128
 13
149.7842245706
 23
94.164416946200006
 33
0.0
 14
179.2217245706
 24
94.164416946200006
 34
0.0
  0
DIMENSION
  5
2AF
  8
CURBDUCTDIM
  6
CONTINUOUS
 62
     5
  2
*D26
 10
204.91739435220001
 20
94.164416946200006
 30
0.0
 11
204.11739435219999
 21
104.8965691458
 31
0.0
 70
   128
 13
179.2217245706
 23
129.60191694619999
 33
0.0
 14
179.2217245706
 24
94.164416946200006
 34
0.0
 50
270.0
  0
DIMENSION
  5
2B0
  8
CURBDUCTDIM
  6
CONTINUOUS
 62
     5
  2
*D27
 10
141.973936993
 20
132.91441694619999
 30
0.0
 11
141.973936993
 21
161.4092881414
 31
0.0
 70
   128
 13
145.14893699299989
 23
148.22691694619999
 33
0.0
 14
145.14893699299989
 24
132.91441694619999
 34
0.0
 50
270.0
  0
DIMENSION
  5
2B1
  8
UNITDUCTDIM
  6
CONTINUOUS
 62
     2
  2
*D28
 10
189.25642454889999
 20
94.378721494699988
 30
0.0
 11
199.43651952900001
 21
77.601646458999994
 31
0.0
 70
   128
 13
184.27444467090001
 23
89.521221494699986
 33
0.0
 14
177.99949115070001
 24
94.378721494699988
 34
0.0
 50
90.0
  0
DIMENSION
  5
2B2
  8
CURB-14-DIM
  6
CONTINUOUS
 62
     6
  2
*D29
 10
61.367817051800003
 20
89.521221494699986
 30
0.0
 11
51.502567613599993
 21
77.995576017100007
 31
0.0
 70
   128
 13
71.721724570600003
 23
92.414416946200006
 33
0.0
 14
68.419095069700006
 24
89.521221494699986
 34
0.0
 50
270.0
  0
DIMENSION
  5
2B3
  8
CURB-14-DIM
  6
CONTINUOUS
 62
     6
  2
*D30
 10
68.419095069700006
 20
56.916001299599998
 30
0.0
 11
55.344770558199997
 21
55.416001299599991
 31
0.0
 70
   128
 13
71.721724570600003
 23
75.754290830000002
 33
0.0
 14
68.419095069700006
 24
89.521221494699986
 34
0.0
 50
180.0
  0
DIMENSION
  5
2B4
  8
UNIT-DIM
  6
CONTINUOUS
 62
     7
  2
*D31
 10
234.01534557190001
 20
89.521221494699986
 30
0.0
 11
234.01534557190001
 21
123.70663248309999
 31
0.0
 70
   128
 13
184.27444467090001
 23
152.86924376479999
 33
0.0
 14
184.27444467090001
 24
89.521221494699986
 34
0.0
 50
270.0
  0
DIMENSION
  5
2B5
  8
UNIT-DIM
  6
CONTINUOUS
 62
     7
  2
*D32
 10
184.27444467090001
 20
198.51835294680001
 30
0.0
 11
141.55124315890001
 21
197.01835294680001
 31
0.0
 70
   128
 13
68.419095069700006
 23
152.86924376479999
 33
0.0
 14
184.27444467090001
 24
152.86924376479999
 34
0.0
  0
DIMENSION
  5
2B6
  8
CURB-24-DIM
  6
CONTINUOUS
 62
     6
  2
*D33
 10
61.367817051800003
 20
149.97691694619999
 30
0.0
 11
60.567817051799999
 21
119.69566694620001
 31
0.0
 70
   128
 13
71.613874852099997
 23
92.414416946200006
 33
0.0
 14
71.721724570600003
 24
149.97691694619999
 34
0.0
 50
90.0
  0
DIMENSION
  5
2B7
  8
CURB-24-DIM
  6
CONTINUOUS
 62
     6
  2
*D34
 10
180.9717245706
 20
56.916001299599998
 30
0.0
 11
125.54672457060001
 21
55.416001299599991
 31
0.0
 70
   128
 13
71.721724570600003
 23
92.414416946200006
 33
0.0
 14
180.9717245706
 24
92.414416946200006
 34
0.0
  0
DIMENSION
  5
2B8
  8
CURB-24-DIM
  6
CONTINUOUS
 62
     6
  2
*D35
 10
61.367817051800003
 20
89.521221494699986
 30
0.0
 11
51.502567613599993
 21
77.995576017100007
 31
0.0
 70
   128
 13
71.721724570600003
 23
92.414416946200006
 33
0.0
 14
68.419095069700006
 24
89.521221494699986
 34
0.0
 50
270.0
  0
DIMENSION
  5
2B9
  8
CURB-24-DIM
  6
CONTINUOUS
 62
     6
  2
*D36
 10
68.419095069700006
 20
56.916001299599998
 30
0.0
 11
55.344770558199997
 21
55.416001299599991
 31
0.0
 70
   128
 13
71.721724570600003
 23
75.754290830000002
 33
0.0
 14
68.419095069700006
 24
89.521221494699986
 34
0.0
 50
180.0
  0
LINE
  5
2BA
  8
NOTES
  6
CONTINUOUS
 62
     1
 10
0.0
 20
0.0
 30
0.0
 11
48.0
 21
0.0
 31
0.0
  0
LINE
  5
2BB
  8
NOTES
  6
CONTINUOUS
 62
     1
 10
0.0
 20
0.0
 30
0.0
 11
0.0
 21
36.5
 31
0.0
  0
LINE
  5
2BC
  8
NOTES
  6
CONTINUOUS
 62
     1
 10
0.0
 20
4.0
 30
0.0
 11
48.0
 21
4.0
 31
0.0
  0
LINE
  5
2BD
  8
NOTES
  6
CONTINUOUS
 62
     1
 10
0.0
 20
4.5
 30
0.0
 11
48.0
 21
4.5
 31
0.0
  0
LINE
  5
2BE
  8
NOTES
  6
CONTINUOUS
 62
     1
 10
0.0
 20
8.5
 30
0.0
 11
48.0
 21
8.5
 31
0.0
  0
LINE
  5
2BF
  8
NOTES
  6
CONTINUOUS
 62
     1
 10
0.0
 20
12.5
 30
0.0
 11
48.0
 21
12.5
 31
0.0
  0
LINE
  5
2C0
  8
NOTES
  6
CONTINUOUS
 62
     1
 10
0.0
 20
16.5
 30
0.0
 11
48.0
 21
16.5
 31
0.0
  0
LINE
  5
2C1
  8
NOTES
  6
CONTINUOUS
 62
     1
 10
0.0
 20
20.5
 30
0.0
 11
48.0
 21
20.5
 31
0.0
  0
LINE
  5
2C2
  8
NOTES
  6
CONTINUOUS
 62
     1
 10
0.0
 20
24.5
 30
0.0
 11
48.0
 21
24.5
 31
0.0
  0
LINE
  5
2C3
  8
NOTES
  6
CONTINUOUS
 62
     1
 10
0.0
 20
28.5
 30
0.0
 11
48.0
 21
28.5
 31
0.0
  0
LINE
  5
2C4
  8
NOTES
  6
CONTINUOUS
 62
     1
 10
0.0
 20
32.5
 30
0.0
 11
48.0
 21
32.5
 31
0.0
  0
LINE
  5
2C5
  8
NOTES
  6
CONTINUOUS
 62
     1
 10
0.0
 20
36.5
 30
0.0
 11
48.0
 21
36.5
 31
0.0
  0
LINE
  5
2C6
  8
NOTES
  6
CONTINUOUS
 62
     1
 10
16.0
 20
12.5
 30
0.0
 11
16.0
 21
36.5
 31
0.0
  0
LINE
  5
2C7
  8
NOTES
  6
CONTINUOUS
 62
     1
 10
48.0
 20
0.0
 30
0.0
 11
48.0
 21
36.5
 31
0.0
  0
TEXT
  5
2C8
  8
NOTES
  6
CONTINUOUS
 62
     1
 10
0.8
 20
1.0
 30
0.0
 40
2.0
  1
VIEW: TOP
 41
0.8
  0
TEXT
  5
2C9
  8
NOTES
  6
CONTINUOUS
 62
     1
 10
0.8
 20
5.5
 30
0.0
 40
2.0
  1
FILE NAME: 
 41
0.8
  0
TEXT
  5
2CA
  8
NOTES
  6
CONTINUOUS
 62
     1
 10
18.399999999999999
 20
5.5
 30
0.0
 40
2.0
  1
TSP50LT-
 41
0.8
  0
TEXT
  5
2CB
  8
NOTES
  6
CONTINUOUS
 62
     1
 10
17.066666666666659
 20
9.5
 30
0.0
 40
2.0
  1
LAYER KEY
 41
0.8
 72
     1
 11
24.0
 21
9.5
 31
0.0
  0
TEXT
  5
2CC
  8
NOTES
  6
CONTINUOUS
 62
     7
 10
5.5555555555333331
 20
13.5
 30
0.0
 40
2.0
  1
-
 41
3.6666666666999999
  7
TEXTSTYLE_2
 72
     1
 11
8.0
 21
13.5
 31
0.0
  0
TEXT
  5
2CD
  8
NOTES
  6
CONTINUOUS
 62
     1
 10
16.800000000000001
 20
13.5
 30
0.0
 40
2.0
  1
UNIT
 41
0.8
  0
TEXT
  5
2CE
  8
NOTES
  6
CONTINUOUS
 62
     6
 10
5.5555555555333331
 20
17.5
 30
0.0
 40
2.0
  1
-
 41
3.6666666666999999
  7
TEXTSTYLE_2
 72
     1
 11
8.0
 21
17.5
 31
0.0
  0
TEXT
  5
2CF
  8
NOTES
  6
CONTINUOUS
 62
     1
 10
16.800000000000001
 20
17.5
 30
0.0
 40
2.0
  1
ROOF CURB
 41
0.8
  0
TEXT
  5
2D0
  8
NOTES
  6
CONTINUOUS
 62
     1
 10
5.5555555555333331
 20
21.5
 30
0.0
 40
2.0
  1
-
 41
3.6666666666999999
  7
TEXTSTYLE_2
 72
     1
 11
8.0
 21
21.5
 31
0.0
  0
TEXT
  5
2D1
  8
NOTES
  6
CONTINUOUS
 62
     1
 10
16.800000000000001
 20
21.5
 30
0.0
 40
2.0
  1
SERVICE CLEARANCE
 41
0.8
  0
TEXT
  5
2D2
  8
NOTES
  6
CONTINUOUS
 62
     2
 10
5.5555555555333331
 20
25.5
 30
0.0
 40
2.0
  1
-
 41
3.6666666666999999
  7
TEXTSTYLE_2
 72
     1
 11
8.0
 21
25.5
 31
0.0
  0
TEXT
  5
2D3
  8
NOTES
  6
CONTINUOUS
 62
     1
 10
16.800000000000001
 20
25.5
 30
0.0
 40
2.0
  1
UNIT DUCTS
 41
0.8
  0
TEXT
  5
2D4
  8
NOTES
  6
CONTINUOUS
 62
     5
 10
5.5555555555333331
 20
29.5
 30
0.0
 40
2.0
  1
-
 41
3.6666666666999999
  7
TEXTSTYLE_2
 72
     1
 11
8.0
 21
29.5
 31
0.0
  0
TEXT
  5
2D5
  8
NOTES
  6
CONTINUOUS
 62
     1
 10
16.800000000000001
 20
29.5
 30
0.0
 40
2.0
  1
CURB DUCTS
 41
0.8
  0
TEXT
  5
2D6
  8
NOTES
  6
HIDDEN
 62
     8
 10
5.5555555555333331
 20
33.5
 30
0.0
 40
2.0
  1
-
 41
3.6666666666999999
  7
TEXTSTYLE_2
 72
     1
 11
8.0
 21
33.5
 31
0.0
  0
TEXT
  5
2D7
  8
NOTES
  6
CONTINUOUS
 62
     1
 10
16.800000000000001
 20
33.5
 30
0.0
 40
2.0
  1
UNIT HIDDEN
 41
0.8
  0
TEXT
  5
2D8
  8
NOTES
  6
CONTINUOUS
 62
     1
 10
121.2740884559
 20
77.851939701399985
 30
0.0
 40
1.707479
  1
3/4"-14 NPT
 41
0.8
  0
TEXT
  5
2D9
  8
NOTES
  6
CONTINUOUS
 62
     1
 10
121.2740884559
 20
75.290721201400004
 30
0.0
 40
1.707479
  1
ALTERNATE DRAIN 
 41
0.8
  0
TEXT
  5
2DA
  8
NOTES
  6
CONTINUOUS
 62
     1
 10
121.2740884559
 20
72.729502701399994
 30
0.0
 40
1.707479
  1
OPENING IN BASE 
 41
0.8
  0
TEXT
  5
2DB
  8
NOTES
  6
CONTINUOUS
 62
     1
 10
121.2740884559
 20
70.168284201399999
 30
0.0
 40
1.707479
  1
PAN
 41
0.8
  0
LINE
  5
2DC
  8
NOTES
  6
CONTINUOUS
 62
     1
 10
157.94988341749999
 20
130.64726491089999
 30
0.0
 11
141.02769289950001
 21
78.705679201400002
 31
0.0
  0
LINE
  5
2DD
  8
NOTES
  6
CONTINUOUS
 62
     1
 10
141.02769289950001
 20
78.705679201400002
 30
0.0
 11
136.29990365590001
 21
78.705679201400002
 31
0.0
  0
SOLID
  5
2DE
  8
NOTES
  6
CONTINUOUS
 62
     1
 10
157.42392175809999
 20
126.6116900655
 30
0.0
 11
157.94988341749999
 21
130.64726491089999
 31
0.0
 12
155.99770336079999
 22
127.0763416373
 32
0.0
 13
155.99770336079999
 23
127.0763416373
 33
0.0
  0
TEXT
  5
2DF
  8
NOTES
  6
CONTINUOUS
 62
     1
 10
6.6373687743999996
 20
242.91863863430001
 30
0.0
 40
2.286
  1
CONNECTION SIZES
 41
0.8
  0
TEXT
  5
2E0
  8
NOTES
  6
CONTINUOUS
 62
     1
 10
6.6373687743999996
 20
239.48963863430001
 30
0.0
 40
2.286
  1
A-7/8" DIA [22] ACCESSORY WIRING HOLE
 41
0.8
  0
TEXT
  5
2E1
  8
NOTES
  6
CONTINUOUS
 62
     1
 10
6.6373687743999996
 20
236.06063863430001
 30
0.0
 40
2.286
  1
B-7/8" DIA [22] FIELD CONTROL WIRING HOLE
 41
0.8
  0
TEXT
  5
2E2
  8
NOTES
  6
CONTINUOUS
 62
     1
 10
6.6373687743999996
 20
232.6316386343
 30
0.0
 40
2.286
  1
C-1 1/2 - 2 1/2" DIA [35-64] FIELD POWER SUPPLY KNOCKOUT
 41
0.8
  0
TEXT
  5
2E3
  8
NOTES
  6
CONTINUOUS
 62
     1
 10
115.30220011500001
 20
112.090091946
 30
0.0
 40
2.0
  1
A
 41
0.8
  0
TEXT
  5
2E4
  8
NOTES
  6
CONTINUOUS
 62
     1
 10
115.30220011500001
 20
109.090091946
 30
0.0
 40
2.0
  1
B
 41
0.8
  0
TEXT
  5
2E5
  8
NOTES
  6
CONTINUOUS
 62
     1
 10
115.30220011500001
 20
106.090091946
 30
0.0
 40
2.0
  1
C
 41
0.8
  0
LINE
  5
2E6
  8
0
  6
CONTINUOUS
 62
     7
 10
0.0
 20
0.0
 30
0.0
 11
0.0
 21
250.0
 31
0.0
  0
LINE
  5
2E7
  8
0
  6
CONTINUOUS
 62
     7
 10
0.0
 20
0.0
 30
0.0
 11
250.0
 21
0.0
 31
0.0
  0
LINE
  5
2E8
  8
SERVCLEAR
  6
DASHED
 62
     1
 10
20.450345069699999
 20
223.85346228610001
 30
0.0
 11
20.450345069699999
 21
41.521221494700001
 31
0.0
  0
LINE
  5
2E9
  8
SERVCLEAR
  6
DASHED
 62
     1
 10
20.450345069699999
 20
41.521221494700001
 30
0.0
 11
220.24319467090001
 21
41.521221494700001
 31
0.0
  0
LINE
  5
2EA
  8
UNIT-SOL
  6
CONTINUOUS
 62
     7
 10
68.419095069700006
 20
89.521221494699986
 30
0.0
 11
68.419095069700006
 21
152.86924376479999
 31
0.0
  0
LINE
  5
2EB
  8
CURB-14
  6
CONTINUOUS
 62
     6
 10
71.721724570600003
 20
92.414416946200006
 30
0.0
 11
71.721724570600003
 21
149.97691694619999
 31
0.0
  0
LINE
  5
2EC
  8
CURB-24
  6
CONTINUOUS
 62
     6
 10
71.721724570600003
 20
92.414416946200006
 30
0.0
 11
71.721724570600003
 21
149.97691694619999
 31
0.0
  0
LINE
  5
2ED
  8
CURB-14
  6
CONTINUOUS
 62
     6
 10
73.471724570600003
 20
94.164416946200006
 30
0.0
 11
73.471724570600003
 21
148.22691694619999
 31
0.0
  0
LINE
  5
2EE
  8
CURB-24
  6
CONTINUOUS
 62
     6
 10
73.471724570600003
 20
94.164416946200006
 30
0.0
 11
73.471724570600003
 21
148.22691694619999
 31
0.0
  0
LINE
  5
2EF
  8
UNIT-SOL
  6
CONTINUOUS
 62
     7
 10
84.265461313499983
 20
132.8774370889
 30
0.0
 11
84.265461313499983
 21
124.755653454
 31
0.0
  0
LINE
  5
2F0
  8
UNIT-SOL
  6
CONTINUOUS
 62
     7
 10
84.265461313499983
 20
140.7005465437
 30
0.0
 11
84.265461313499983
 21
148.8223301786
 31
0.0
  0
LINE
  5
2F1
  8
UNIT-SOL
  6
CONTINUOUS
 62
     7
 10
84.265897197899989
 20
105.71395737269999
 30
0.0
 11
84.265897197899989
 21
97.592173737800024
 31
0.0
  0
LINE
  5
2F2
  8
UNIT-SOL
  6
CONTINUOUS
 62
     7
 10
84.265897197899989
 20
113.5370668275
 30
0.0
 11
84.265897197899989
 21
121.6588504624
 31
0.0
  0
LINE
  5
2F3
  8
UNIT-SOL
  6
CONTINUOUS
 62
     7
 10
94.654288419599993
 20
142.7869839425
 30
0.0
 11
87.652967075799992
 21
138.74476917999999
 31
0.0
  0
LINE
  5
2F4
  8
UNIT-SOL
  6
CONTINUOUS
 62
     7
 10
80.877955551300005
 20
134.8332144526
 30
0.0
 11
73.8442845995
 21
130.77232263510001
 31
0.0
  0
LINE
  5
2F5
  8
UNIT-SOL
  6
CONTINUOUS
 62
     7
 10
68.419095069700006
 20
89.521221494699986
 30
0.0
 11
184.27444467090001
 21
89.521221494699986
 31
0.0
  0
LINE
  5
2F6
  8
CURB-14
  6
CONTINUOUS
 62
     6
 10
71.721724570600003
 20
92.414416946200006
 30
0.0
 11
180.9717245706
 21
92.414416946200006
 31
0.0
  0
LINE
  5
2F7
  8
CURB-24
  6
CONTINUOUS
 62
     6
 10
71.721724570600003
 20
92.414416946200006
 30
0.0
 11
180.9717245706
 21
92.414416946200006
 31
0.0
  0
LINE
  5
2F8
  8
CURB-14
  6
CONTINUOUS
 62
     6
 10
73.471724570600003
 20
94.164416946200006
 30
0.0
 11
179.2217245706
 21
94.164416946200006
 31
0.0
  0
LINE
  5
2F9
  8
CURB-24
  6
CONTINUOUS
 62
     6
 10
73.471724570600003
 20
94.164416946200006
 30
0.0
 11
179.2217245706
 21
94.164416946200006
 31
0.0
  0
LINE
  5
2FA
  8
CURB-DUCTS
  6
CONTINUOUS
 62
     5
 10
149.7842245706
 20
94.164416946200006
 30
0.0
 11
179.2217245706
 21
94.164416946200006
 31
0.0
  0
LINE
  5
2FB
  8
UNIT-DUCTS
  6
CONTINUOUS
 62
     2
 10
151.2615047722
 20
94.378721494699988
 30
0.0
 11
177.99949115070001
 21
94.378721494699988
 31
0.0
  0
LINE
  5
2FC
  8
UNIT-SOL
  6
CONTINUOUS
 62
     7
 10
80.878391435699996
 20
111.5812894638
 30
0.0
 11
73.844720483900005
 21
115.6421812812
 31
0.0
  0
LINE
  5
2FD
  8
UNIT-SOL
  6
CONTINUOUS
 62
     7
 10
87.653402960199983
 20
107.6697347364
 30
0.0
 11
94.687073912000002
 21
103.6088429189
 31
0.0
  0
LINE
  5
2FE
  8
UNIT-HID
  6
HIDDEN
 62
     8
 10
115.03596428829999
 20
102.4106308763
 30
0.0
 11
110.3133718844
 21
102.4106308763
 31
0.0
  0
LINE
  5
2FF
  8
UNIT-HID
  6
HIDDEN
 62
     8
 10
111.97972649490001
 20
103.1977296103
 30
0.0
 11
113.3696096778
 21
103.1977296103
 31
0.0
  0
LINE
  5
300
  8
UNIT-HID
  6
HIDDEN
 62
     8
 10
110.3133718844
 20
102.4106308763
 30
0.0
 11
110.3133718844
 21
114.41388656949999
 31
0.0
  0
LINE
  5
301
  8
UNIT-HID
  6
HIDDEN
 62
     8
 10
111.1752449982
 20
112.8223063387
 30
0.0
 11
111.1752449982
 21
104.0022111071
 31
0.0
  0
LINE
  5
302
  8
UNIT-SOL
  6
CONTINUOUS
 62
     7
 10
111.752910017
 20
132.87671967169999
 30
0.0
 11
111.752910017
 21
124.7549360368
 31
0.0
  0
LINE
  5
303
  8
UNIT-SOL
  6
CONTINUOUS
 62
     7
 10
111.752910017
 20
140.69982912649999
 30
0.0
 11
111.752910017
 21
148.82161276139999
 31
0.0
  0
LINE
  5
304
  8
UNIT-HID
  6
HIDDEN
 62
     8
 10
114.17409117459999
 20
104.0022111071
 30
0.0
 11
114.17409117459999
 21
112.8223063387
 31
0.0
  0
LINE
  5
305
  8
UNIT-HID
  6
HIDDEN
 62
     8
 10
115.03596428829999
 20
114.41388656949999
 30
0.0
 11
115.03596428829999
 21
102.4106308763
 31
0.0
  0
LINE
  5
306
  8
UNIT-SOL
  6
CONTINUOUS
 62
     7
 10
122.141737123
 20
142.78626652540001
 30
0.0
 11
115.1404157792
 21
138.74405176280001
 31
0.0
  0
LINE
  5
307
  8
UNIT-SOL
  6
CONTINUOUS
 62
     7
 10
108.3654042548
 20
134.8324970354
 30
0.0
 11
101.33173330290001
 21
130.77160521799999
 31
0.0
  0
LINE
  5
308
  8
UNIT-HID
  6
HIDDEN
 62
     8
 10
113.3696096778
 20
113.6267878355
 30
0.0
 11
111.97972649490001
 21
113.6267878355
 31
0.0
  0
LINE
  5
309
  8
UNIT-HID
  6
HIDDEN
 62
     8
 10
110.3133718844
 20
114.41388656949999
 30
0.0
 11
115.03596428829999
 21
114.41388656949999
 31
0.0
  0
LINE
  5
30A
  8
UNIT-SOL
  6
CONTINUOUS
 62
     7
 10
80.877955551300005
 20
138.74476917999999
 30
0.0
 11
73.8442845995
 21
142.8056609974
 31
0.0
  0
LINE
  5
30B
  8
UNIT-SOL
  6
CONTINUOUS
 62
     7
 10
87.652967075799992
 20
134.8332144526
 30
0.0
 11
94.686638027599997
 21
130.77232263510001
 31
0.0
  0
LINE
  5
30C
  8
CURB-14
  6
CONTINUOUS
 62
     6
 10
125.8467245706
 20
94.164416946200006
 30
0.0
 11
125.8467245706
 21
148.22691694619999
 31
0.0
  0
LINE
  5
30D
  8
CURB-24
  6
CONTINUOUS
 62
     6
 10
125.8467245706
 20
94.164416946200006
 30
0.0
 11
125.8467245706
 21
148.22691694619999
 31
0.0
  0
LINE
  5
30E
  8
UNIT-SOL
  6
CONTINUOUS
 62
     7
 10
94.654724303999998
 20
115.6235042263
 30
0.0
 11
87.653402960199983
 21
111.5812894638
 31
0.0
  0
LINE
  5
30F
  8
UNIT-SOL
  6
CONTINUOUS
 62
     7
 10
80.878391435699996
 20
107.6697347364
 30
0.0
 11
73.844720483900005
 21
103.6088429189
 31
0.0
  0
LINE
  5
310
  8
CURB-DUCTS
  6
CONTINUOUS
 62
     5
 10
128.8467245706
 20
132.91441694619999
 30
0.0
 11
179.2217245706
 21
148.22691694619999
 31
0.0
  0
LINE
  5
311
  8
CURB-DUCTS
  6
CONTINUOUS
 62
     5
 10
128.8467245706
 20
148.22691694619999
 30
0.0
 11
128.8467245706
 21
132.91441694619999
 31
0.0
  0
LINE
  5
312
  8
CURB-14
  6
CONTINUOUS
 62
     6
 10
128.8467245706
 20
94.164416946200006
 30
0.0
 11
128.8467245706
 21
148.22691694619999
 31
0.0
  0
LINE
  5
313
  8
CURB-24
  6
CONTINUOUS
 62
     6
 10
128.8467245706
 20
94.164416946200006
 30
0.0
 11
128.8467245706
 21
148.22691694619999
 31
0.0
  0
LINE
  5
314
  8
HOOD
  6
CONTINUOUS
 62
     7
 10
129.54413808940001
 20
181.91596228610001
 30
0.0
 11
129.54413808940001
 21
152.86924376479999
 31
0.0
  0
LINE
  5
315
  8
UNIT-DUCTS
  6
CONTINUOUS
 62
     2
 10
131.6505241703
 20
146.51070194619999
 30
0.0
 11
131.6505241703
 21
133.87872149469999
 31
0.0
  0
LINE
  5
316
  8
UNIT-DUCTS
  6
CONTINUOUS
 62
     2
 10
131.6505241703
 20
133.87872149469999
 30
0.0
 11
178.50061302029999
 21
146.51070194619999
 31
0.0
  0
LINE
  5
317
  8
UNIT-DUCTS
  6
CONTINUOUS
 62
     2
 10
177.99949115070001
 20
128.3541479022
 30
0.0
 11
151.2615047722
 21
128.3541479022
 31
0.0
  0
LINE
  5
318
  8
CURB-14
  6
CONTINUOUS
 62
     6
 10
128.8467245706
 20
129.60191694619999
 30
0.0
 11
179.2217245706
 21
129.60191694619999
 31
0.0
  0
LINE
  5
319
  8
CURB-24
  6
CONTINUOUS
 62
     6
 10
128.8467245706
 20
129.60191694619999
 30
0.0
 11
179.2217245706
 21
129.60191694619999
 31
0.0
  0
LINE
  5
31A
  8
CURB-DUCTS
  6
CONTINUOUS
 62
     5
 10
149.7842245706
 20
129.60191694619999
 30
0.0
 11
179.2217245706
 21
129.60191694619999
 31
0.0
  0
LINE
  5
31B
  8
UNIT-HID
  6
CENTER
 62
     8
 10
157.52454314209999
 20
131.05480235260001
 30
0.0
 11
159.0054587697
 21
131.05480235260001
 31
0.0
  0
LINE
  5
31C
  8
CURB-DUCTS
  6
CONTINUOUS
 62
     5
 10
128.8467245706
 20
132.91441694619999
 30
0.0
 11
179.2217245706
 21
132.91441694619999
 31
0.0
  0
LINE
  5
31D
  8
CURB-14
  6
CONTINUOUS
 62
     6
 10
128.8467245706
 20
132.91441694619999
 30
0.0
 11
179.2217245706
 21
132.91441694619999
 31
0.0
  0
LINE
  5
31E
  8
CURB-24
  6
CONTINUOUS
 62
     6
 10
128.8467245706
 20
132.91441694619999
 30
0.0
 11
179.2217245706
 21
132.91441694619999
 31
0.0
  0
LINE
  5
31F
  8
UNIT-DUCTS
  6
CONTINUOUS
 62
     2
 10
131.6505241703
 20
133.87872149469999
 30
0.0
 11
178.50061302029999
 21
133.87872149469999
 31
0.0
  0
LINE
  5
320
  8
UNIT-SOL
  6
CONTINUOUS
 62
     7
 10
108.3654042548
 20
138.74405176280001
 30
0.0
 11
101.33173330290001
 21
142.80494358030001
 31
0.0
  0
LINE
  5
321
  8
UNIT-SOL
  6
CONTINUOUS
 62
     7
 10
115.1404157792
 20
134.8324970354
 30
0.0
 11
122.174086731
 21
130.77160521799999
 31
0.0
  0
LINE
  5
322
  8
CURB-14
  6
CONTINUOUS
 62
     6
 10
146.7842245706
 20
94.164416946200006
 30
0.0
 11
146.7842245706
 21
129.60191694619999
 31
0.0
  0
LINE
  5
323
  8
CURB-24
  6
CONTINUOUS
 62
     6
 10
146.7842245706
 20
94.164416946200006
 30
0.0
 11
146.7842245706
 21
129.60191694619999
 31
0.0
  0
LINE
  5
324
  8
UNIT-DUCTS
  6
CONTINUOUS
 62
     2
 10
178.50061302029999
 20
146.51070194619999
 30
0.0
 11
131.6505241703
 21
146.51070194619999
 31
0.0
  0
LINE
  5
325
  8
CURB-DUCTS
  6
CONTINUOUS
 62
     5
 10
149.7842245706
 20
129.60191694619999
 30
0.0
 11
179.2217245706
 21
94.164416946200006
 31
0.0
  0
LINE
  5
326
  8
CURB-DUCTS
  6
CONTINUOUS
 62
     5
 10
149.7842245706
 20
94.164416946200006
 30
0.0
 11
149.7842245706
 21
129.60191694619999
 31
0.0
  0
LINE
  5
327
  8
CURB-14
  6
CONTINUOUS
 62
     6
 10
149.7842245706
 20
94.164416946200006
 30
0.0
 11
149.7842245706
 21
129.60191694619999
 31
0.0
  0
LINE
  5
328
  8
CURB-24
  6
CONTINUOUS
 62
     6
 10
149.7842245706
 20
94.164416946200006
 30
0.0
 11
149.7842245706
 21
129.60191694619999
 31
0.0
  0
LINE
  5
329
  8
UNIT-DUCTS
  6
CONTINUOUS
 62
     2
 10
151.2615047722
 20
128.3541479022
 30
0.0
 11
151.2615047722
 21
94.378721494699988
 31
0.0
  0
LINE
  5
32A
  8
CURB-14
  6
CONTINUOUS
 62
     6
 10
73.471724570600003
 20
148.22691694619999
 30
0.0
 11
179.2217245706
 21
148.22691694619999
 31
0.0
  0
LINE
  5
32B
  8
CURB-24
  6
CONTINUOUS
 62
     6
 10
73.471724570600003
 20
148.22691694619999
 30
0.0
 11
179.2217245706
 21
148.22691694619999
 31
0.0
  0
LINE
  5
32C
  8
CURB-DUCTS
  6
CONTINUOUS
 62
     5
 10
128.8467245706
 20
148.22691694619999
 30
0.0
 11
179.2217245706
 21
148.22691694619999
 31
0.0
  0
LINE
  5
32D
  8
CURB-14
  6
CONTINUOUS
 62
     6
 10
71.721724570600003
 20
149.97691694619999
 30
0.0
 11
180.9717245706
 21
149.97691694619999
 31
0.0
  0
LINE
  5
32E
  8
CURB-24
  6
CONTINUOUS
 62
     6
 10
71.721724570600003
 20
149.97691694619999
 30
0.0
 11
180.9717245706
 21
149.97691694619999
 31
0.0
  0
LINE
  5
32F
  8
UNIT-SOL
  6
CONTINUOUS
 62
     7
 10
68.419095069700006
 20
152.86924376479999
 30
0.0
 11
184.27444467090001
 21
152.86924376479999
 31
0.0
  0
LINE
  5
330
  8
UNIT-DUCTS
  6
CONTINUOUS
 62
     2
 10
131.6505241703
 20
146.51070194619999
 30
0.0
 11
178.50061302029999
 21
133.87872149469999
 31
0.0
  0
LINE
  5
331
  8
CURB-DUCTS
  6
CONTINUOUS
 62
     5
 10
128.8467245706
 20
148.22691694619999
 30
0.0
 11
179.2217245706
 21
132.91441694619999
 31
0.0
  0
LINE
  5
332
  8
UNIT-DUCTS
  6
CONTINUOUS
 62
     2
 10
151.2615047722
 20
128.3541479022
 30
0.0
 11
177.99949115070001
 21
94.378721494699988
 31
0.0
  0
LINE
  5
333
  8
UNIT-HID
  6
CENTER
 62
     8
 10
158.26500095590001
 20
130.31434453879999
 30
0.0
 11
158.26500095590001
 21
131.7952601664
 31
0.0
  0
LINE
  5
334
  8
UNIT-DUCTS
  6
CONTINUOUS
 62
     2
 10
177.99949115070001
 20
94.378721494699988
 30
0.0
 11
177.99949115070001
 21
128.3541479022
 31
0.0
  0
LINE
  5
335
  8
HOOD
  6
CONTINUOUS
 62
     7
 10
182.47266547500001
 20
152.86924376479999
 30
0.0
 11
182.44141547500001
 21
181.91596228610001
 31
0.0
  0
LINE
  5
336
  8
UNIT-DUCTS
  6
CONTINUOUS
 62
     2
 10
178.50061302029999
 20
133.87872149469999
 30
0.0
 11
178.50061302029999
 21
146.51070194619999
 31
0.0
  0
LINE
  5
337
  8
CURB-DUCTS
  6
CONTINUOUS
 62
     5
 10
179.2217245706
 20
148.22691694619999
 30
0.0
 11
179.2217245706
 21
132.91441694619999
 31
0.0
  0
LINE
  5
338
  8
CURB-DUCTS
  6
CONTINUOUS
 62
     5
 10
179.2217245706
 20
94.164416946200006
 30
0.0
 11
179.2217245706
 21
129.60191694619999
 31
0.0
  0
LINE
  5
339
  8
CURB-14
  6
CONTINUOUS
 62
     6
 10
179.2217245706
 20
94.164416946200006
 30
0.0
 11
179.2217245706
 21
148.22691694619999
 31
0.0
  0
LINE
  5
33A
  8
CURB-24
  6
CONTINUOUS
 62
     6
 10
179.2217245706
 20
94.164416946200006
 30
0.0
 11
179.2217245706
 21
148.22691694619999
 31
0.0
  0
LINE
  5
33B
  8
CURB-14
  6
CONTINUOUS
 62
     6
 10
180.9717245706
 20
92.414416946200006
 30
0.0
 11
180.9717245706
 21
149.97691694619999
 31
0.0
  0
LINE
  5
33C
  8
CURB-24
  6
CONTINUOUS
 62
     6
 10
180.9717245706
 20
92.414416946200006
 30
0.0
 11
180.9717245706
 21
149.97691694619999
 31
0.0
  0
LINE
  5
33D
  8
UNIT-SOL
  6
CONTINUOUS
 62
     7
 10
184.27444467090001
 20
152.86924376479999
 30
0.0
 11
184.27444467090001
 21
89.521221494699986
 31
0.0
  0
LINE
  5
33E
  8
HOOD
  6
CONTINUOUS
 62
     7
 10
182.44141547500001
 20
181.91596228610001
 30
0.0
 11
129.54413808940001
 21
181.91596228610001
 31
0.0
  0
LINE
  5
33F
  8
SERVCLEAR
  6
DASHED
 62
     1
 10
220.24319467090001
 20
223.85346228610001
 30
0.0
 11
220.24319467090001
 21
41.521221494700001
 31
0.0
  0
LINE
  5
340
  8
SERVCLEAR
  6
DASHED
 62
     1
 10
20.450345069699999
 20
223.85346228610001
 30
0.0
 11
220.24319467090001
 21
223.85346228610001
 31
0.0
  0
LINE
  5
341
  8
0
  6
CONTINUOUS
 62
     7
 10
250.0
 20
0.0
 30
0.0
 11
250.0
 21
250.0
 31
0.0
  0
LINE
  5
342
  8
0
  6
CONTINUOUS
 62
     7
 10
0.0
 20
250.0
 30
0.0
 11
250.0
 21
250.0
 31
0.0
  0
CIRCLE
  5
343
  8
UNIT-SOL
  6
CONTINUOUS
 62
     7
 10
84.265461313499983
 20
136.7889918162999
 30
0.0
 40
12.0333383623
  0
CIRCLE
  5
344
  8
UNIT-SOL
  6
CONTINUOUS
 62
     7
 10
111.752910017
 20
136.7882743991
 30
0.0
 40
12.0333383623
  0
CIRCLE
  5
345
  8
UNIT-SOL
  6
CONTINUOUS
 62
     7
 10
84.265897197899989
 20
109.6255121001
 30
0.0
 40
12.0333383623
  0
CIRCLE
  5
346
  8
UNIT-SOL
  6
CONTINUOUS
 62
     7
 10
84.265461313499983
 20
136.7889918162999
 30
0.0
 40
9.041000823500001
  0
CIRCLE
  5
347
  8
UNIT-SOL
  6
CONTINUOUS
 62
     7
 10
111.752910017
 20
136.7882743991
 30
0.0
 40
9.041000823500001
  0
CIRCLE
  5
348
  8
UNIT-SOL
  6
CONTINUOUS
 62
     7
 10
84.265897197899989
 20
109.6255121001
 30
0.0
 40
9.041000823500001
  0
CIRCLE
  5
349
  8
UNIT-SOL
  6
CONTINUOUS
 62
     7
 10
84.265461313499983
 20
136.7889918162999
 30
0.0
 40
6.4459743667999989
  0
CIRCLE
  5
34A
  8
UNIT-SOL
  6
CONTINUOUS
 62
     7
 10
111.752910017
 20
136.7882743991
 30
0.0
 40
6.4459743667999989
  0
CIRCLE
  5
34B
  8
UNIT-SOL
  6
CONTINUOUS
 62
     7
 10
84.265897197899989
 20
109.6255121001
 30
0.0
 40
6.4459743667999989
  0
CIRCLE
  5
34C
  8
UNIT-SOL
  6
CONTINUOUS
 62
     7
 10
84.265461313499983
 20
136.7889918162999
 30
0.0
 40
3.9115547274
  0
CIRCLE
  5
34D
  8
UNIT-SOL
  6
CONTINUOUS
 62
     7
 10
111.752910017
 20
136.7882743991
 30
0.0
 40
3.9115547274
  0
CIRCLE
  5
34E
  8
UNIT-SOL
  6
CONTINUOUS
 62
     7
 10
84.265897197899989
 20
109.6255121001
 30
0.0
 40
3.9115547274
  0
ARC
  5
34F
  8
UNIT-HID
  6
HIDDEN
 62
     8
 10
111.97972649490001
 20
102.1981142181
 30
0.0
 40
0.9996153922
 50
90.0
 51
107.4070183143
  0
ARC
  5
350
  8
UNIT-HID
  6
HIDDEN
 62
     8
 10
113.3696096778
 20
102.1981142181
 30
0.0
 40
0.9996153922
 50
72.592981685699996
 51
90.0
  0
ARC
  5
351
  8
UNIT-HID
  6
HIDDEN
 62
     8
 10
110.175629606
 20
104.0022111071
 30
0.0
 40
0.9996153922
 50
342.59298168570001
 51
0.0
  0
ARC
  5
352
  8
UNIT-HID
  6
HIDDEN
 62
     8
 10
110.175629606
 20
112.8223063387
 30
0.0
 40
0.9996153922
 50
0.0
 51
17.4070183143
  0
ARC
  5
353
  8
UNIT-HID
  6
HIDDEN
 62
     8
 10
115.17370656680001
 20
104.0022111071
 30
0.0
 40
0.9996153922
 50
180.0
 51
197.40701831429999
  0
ARC
  5
354
  8
UNIT-HID
  6
HIDDEN
 62
     8
 10
115.17370656680001
 20
112.8223063387
 30
0.0
 40
0.9996153922
 50
162.59298168570001
 51
180.0
  0
ARC
  5
355
  8
UNIT-HID
  6
HIDDEN
 62
     8
 10
113.3696096778
 20
114.6264032277
 30
0.0
 40
0.9996153922
 50
270.0
 51
287.40701831429999
  0
ARC
  5
356
  8
UNIT-HID
  6
HIDDEN
 62
     8
 10
111.97972649490001
 20
114.6264032277
 30
0.0
 40
0.9996153922
 50
252.59298168570001
 51
270.0
  0
CIRCLE
  5
357
  8
UNIT-HID
  6
HIDDEN
 62
     8
 10
158.26500095590001
 20
131.05480235260001
 30
0.0
 40
0.5151561214
  0
ARC
  5
358
  8
UNIT-HID
  6
HIDDEN
 62
     8
 10
111.5491168968
 20
103.5716015089
 30
0.0
 40
0.4397914176
 50
162.59298168570001
 51
287.40701831429999
  0
ARC
  5
359
  8
UNIT-HID
  6
HIDDEN
 62
     8
 10
113.80021927600001
 20
103.5716015089
 30
0.0
 40
0.4397914176
 50
252.59298168570001
 51
17.4070183143
  0
ARC
  5
35A
  8
UNIT-HID
  6
HIDDEN
 62
     8
 10
113.80021927600001
 20
113.2529159369
 30
0.0
 40
0.4397914176
 50
342.59298168570001
 51
107.4070183143
  0
ARC
  5
35B
  8
UNIT-HID
  6
HIDDEN
 62
     8
 10
111.5491168968
 20
113.2529159369
 30
0.0
 40
0.4397914176
 50
72.592981685699996
 51
197.40701831429999
  0
CIRCLE
  5
35C
  8
UNIT-HID
  6
HIDDEN
 62
     8
 10
112.6746680864
 20
104.5515394327
 30
0.0
 40
0.1636711208
  0
CIRCLE
  5
35D
  8
UNIT-HID
  6
HIDDEN
 62
     8
 10
112.6746680864
 20
110.03461791230001
 30
0.0
 40
0.1636711208
  0
CIRCLE
  5
35E
  8
UNIT-HID
  6
HIDDEN
 62
     8
 10
112.6746680864
 20
107.6763214066
 30
0.0
 40
0.1636711208
  0
CIRCLE
  5
35F
  8
UNIT-HID
  6
HIDDEN
 62
     8
 10
112.6746680864
 20
112.0220422156
 30
0.0
 40
0.1636711208
  0
ENDSEC
  0
EOF
