  0
SECTION
  2
HEADER
  9
$ACADVER
  1
AC1009
  9
$INSBASE
 10
0.0
 20
0.0
 30
0.0
  9
$EXTMIN
 10
-0.0068659312171917
 20
-0.004577287478071
 30
-0.0015258207003583
  9
$EXTMAX
 10
225.006866978955
 20
150.00457798597
 30
0.0000000349246037
  9
$LIMMIN
 10
0.0
 20
0.0
  9
$LIMMAX
 10
225.0
 20
150.0
  9
$ORTHOMODE
 70
     0
  9
$REGENMODE
 70
     1
  9
$FILLMODE
 70
     1
  9
$QTEXTMODE
 70
     0
  9
$MIRRTEXT
 70
     0
  9
$DRAGMODE
 70
     2
  9
$LTSCALE
 40
12.375
  9
$OSMODE
 70
    37
  9
$ATTMODE
 70
     1
  9
$TEXTSIZE
 40
0.2
  9
$TRACEWID
 40
0.05
  9
$TEXTSTYLE
  7
STANDARD
  9
$CLAYER
  8
0
  9
$CELTYPE
  6
ByLayer
  9
$CECOLOR
 62
   256
  9
$DIMSCALE
 40
1.0
  9
$DIMASZ
 40
4.0
  9
$DIMEXO
 40
1.587499999999999
  9
$DIMDLI
 40
8.5500000000000007
  9
$DIMRND
 40
0.0
  9
$DIMDLE
 40
0.0
  9
$DIMEXE
 40
1.587499999999999
  9
$DIMTP
 40
0.0
  9
$DIMTM
 40
0.0
  9
$DIMTXT
 40
2.0
  9
$DIMCEN
 40
2.024999999999999
  9
$DIMTSZ
 40
0.0
  9
$DIMTOL
 70
     0
  9
$DIMLIM
 70
     0
  9
$DIMTIH
 70
     1
  9
$DIMTOH
 70
     1
  9
$DIMSE1
 70
     0
  9
$DIMSE2
 70
     0
  9
$DIMTAD
 70
     0
  9
$DIMZIN
 70
     0
  9
$DIMBLK
  1
_FILLED
  9
$DIMASO
 70
     1
  9
$DIMSHO
 70
     1
  9
$DIMPOST
  1

  9
$DIMAPOST
  1

  9
$DIMALT
 70
     0
  9
$DIMALTD
 70
     2
  9
$DIMALTF
 40
25.399999999999999
  9
$DIMLFAC
 40
1.0
  9
$DIMTOFL
 70
     0
  9
$DIMTVP
 40
0.0
  9
$DIMTIX
 70
     0
  9
$DIMSOXD
 70
     0
  9
$DIMSAH
 70
     0
  9
$DIMBLK1
  1

  9
$DIMBLK2
  1

  9
$DIMSTYLE
  2
STANDARD
  9
$DIMCLRD
 70
     0
  9
$DIMCLRE
 70
     0
  9
$DIMCLRT
 70
     0
  9
$DIMTFAC
 40
1.0
  9
$DIMGAP
 40
0.09
  9
$LUNITS
 70
     2
  9
$LUPREC
 70
     4
  9
$SKETCHINC
 40
0.1
  9
$FILLETRAD
 40
0.0
  9
$AUNITS
 70
     0
  9
$AUPREC
 70
     0
  9
$MENU
  1
.
  9
$ELEVATION
 40
0.0
  9
$PELEVATION
 40
0.0
  9
$THICKNESS
 40
0.0
  9
$LIMCHECK
 70
     0
  9
$BLIPMODE
 70
     0
  9
$CHAMFERA
 40
0.0
  9
$CHAMFERB
 40
0.0
  9
$SKPOLY
 70
     0
  9
$TDCREATE
 40
2456262.5645804401
  9
$TDUPDATE
 40
2456262.5649701278
  9
$TDINDWG
 40
0.0003901505
  9
$TDUSRTIMER
 40
0.0003901505
  9
$USRTIMER
 70
     1
  9
$ANGBASE
 50
0.0
  9
$ANGDIR
 70
     0
  9
$PDMODE
 70
     3
  9
$PDSIZE
 40
7.9375
  9
$PLINEWID
 40
0.0
  9
$COORDS
 70
     1
  9
$SPLFRAME
 70
     0
  9
$SPLINETYPE
 70
     6
  9
$SPLINESEGS
 70
     8
  9
$ATTDIA
 70
     0
  9
$ATTREQ
 70
     1
  9
$HANDLING
 70
     1
  9
$HANDSEED
  5
2CA
  9
$SURFTAB1
 70
     6
  9
$SURFTAB2
 70
     6
  9
$SURFTYPE
 70
     6
  9
$SURFU
 70
     6
  9
$SURFV
 70
     6
  9
$UCSNAME
  2

  9
$UCSORG
 10
0.0
 20
0.0
 30
0.0
  9
$UCSXDIR
 10
1.0
 20
0.0
 30
0.0
  9
$UCSYDIR
 10
0.0
 20
1.0
 30
0.0
  9
$PUCSNAME
  2

  9
$PUCSORG
 10
0.0
 20
0.0
 30
0.0
  9
$PUCSXDIR
 10
1.0
 20
0.0
 30
0.0
  9
$PUCSYDIR
 10
0.0
 20
1.0
 30
0.0
  9
$USERI1
 70
     0
  9
$USERI2
 70
     0
  9
$USERI3
 70
     0
  9
$USERI4
 70
     0
  9
$USERI5
 70
     0
  9
$USERR1
 40
0.0
  9
$USERR2
 40
0.0
  9
$USERR3
 40
0.0
  9
$USERR4
 40
0.0
  9
$USERR5
 40
0.0
  9
$WORLDVIEW
 70
     1
  9
$SHADEDGE
 70
     3
  9
$SHADEDIF
 70
    70
  9
$TILEMODE
 70
     1
  9
$MAXACTVP
 70
    64
  9
$PLIMCHECK
 70
     0
  9
$PEXTMIN
 10
1.0000000000000000E+020
 20
1.0000000000000000E+020
 30
1.0000000000000000E+020
  9
$PEXTMAX
 10
-1.0000000000000000E+020
 20
-1.0000000000000000E+020
 30
-1.0000000000000000E+020
  9
$PLIMMIN
 10
0.0
 20
0.0
  9
$PLIMMAX
 10
12.0
 20
9.0
  9
$UNITMODE
 70
     0
  9
$VISRETAIN
 70
     1
  9
$PLINEGEN
 70
     0
  9
$PSLTSCALE
 70
     1
  0
ENDSEC
  0
SECTION
  2
TABLES
  0
TABLE
  2
VPORT
 70
     1
  0
VPORT
  2
*ACTIVE
 70
     0
 10
0.0
 20
0.0
 11
1.0
 21
1.0
 12
112.50000052386891
 22
75.000000349245994
 13
0.0
 23
0.0
 14
1.0
 24
1.0
 15
0.0
 25
0.0
 16
0.0
 26
0.0
 36
1.0
 17
0.0
 27
0.0
 37
0.0
 40
206.00868840817719
 41
1.1005586592178771
 42
50.0
 43
0.0
 44
0.0
 50
0.0
 51
0.0
 71
     0
 72
   100
 73
     1
 74
     1
 75
     0
 76
     0
 77
     0
 78
     0
  0
ENDTAB
  0
TABLE
  2
LTYPE
 70
     8
  0
LTYPE
  2
ByBlock
 70
     0
  3

 72
    65
 73
     0
 40
0.0
  0
LTYPE
  2
ByLayer
 70
     0
  3

 72
    65
 73
     0
 40
0.0
  0
LTYPE
  2
CONTINUOUS
 70
     0
  3
Solid line
 72
    65
 73
     0
 40
0.0
  0
LTYPE
  2
CENTER
 70
     0
  3
____ _ ____ _ ____ _ ____ _ ____ _ ____ _ ____
 72
    65
 73
     4
 40
0.6
 49
0.375
 49
-0.075
 49
0.075
 49
-0.075
  0
LTYPE
  2
HIDDEN
 70
     0
  3
- - - - - - - - - - - - - - - - - - - -
 72
    65
 73
     2
 40
0.2
 49
0.1
 49
-0.1
  0
LTYPE
  2
PHANTOM
 70
     0
  3
_____ _ _ _____ _ _ _____ _ _ _____
 72
    65
 73
     6
 40
0.8
 49
0.45
 49
-0.05
 49
0.1
 49
-0.05
 49
0.1
 49
-0.05
  0
LTYPE
  2
DOT
 70
     0
  3
. . . . . . . . . . . . . . . . . . . .
 72
    65
 73
     2
 40
0.2
 49
0.1
 49
-0.1
  0
LTYPE
  2
DASHED
 70
     0
  3
- - - - - - - - - - - - - - - - - - - -
 72
    65
 73
     2
 40
0.2
 49
0.1
 49
-0.1
  0
ENDTAB
  0
TABLE
  2
LAYER
 70
    14
  0
LAYER
  2
0
 70
     0
 62
     7
  6
CONTINUOUS
  0
LAYER
  2
DEFAULT_1
 70
     0
 62
     7
  6
CENTER
  0
LAYER
  2
DEFAULT_2
 70
     0
 62
     8
  6
HIDDEN
  0
LAYER
  2
DEFAULT_3
 70
     0
 62
     7
  6
PHANTOM
  0
LAYER
  2
CURB-14
 70
     0
 62
     6
  6
CONTINUOUS
  0
LAYER
  2
CURB-14-DIM
 70
     0
 62
     6
  6
CONTINUOUS
  0
LAYER
  2
CURB-24
 70
     0
 62
     6
  6
CONTINUOUS
  0
LAYER
  2
CURB-24-DIM
 70
     0
 62
     6
  6
CONTINUOUS
  0
LAYER
  2
HOOD
 70
     0
 62
     7
  6
CONTINUOUS
  0
LAYER
  2
NOTES
 70
     0
 62
     1
  6
CONTINUOUS
  0
LAYER
  2
SERVCLEAR
 70
     0
 62
     1
  6
CONTINUOUS
  0
LAYER
  2
SERVCLRDIM
 70
     0
 62
     1
  6
CONTINUOUS
  0
LAYER
  2
UNIT-DIM
 70
     0
 62
     7
  6
CONTINUOUS
  0
LAYER
  2
UNIT-SOL
 70
     0
 62
     7
  6
CONTINUOUS
  0
ENDTAB
  0
TABLE
  2
STYLE
 70
     4
  0
STYLE
  2
STANDARD
 70
     0
 40
0.0
 41
0.8
 50
0.0
 71
     0
 42
0.2
  3
txt
  4

  0
STYLE
  2
ANNOTATIVE
 70
     0
 40
0.0
 41
1.0
 50
0.0
 71
     0
 42
0.2
  3
txt
  4

  0
STYLE
  2
TEXTSTYLE_1
 70
     0
 40
0.0
 41
0.8
 50
0.0
 71
     0
 42
0.2
  3
gdt
  4

  0
STYLE
  2
TEXTSTYLE_2
 70
     0
 40
0.0
 41
8.0
 50
0.0
 71
     0
 42
0.2
  3
txt
  4

  0
ENDTAB
  0
TABLE
  2
VIEW
 70
     0
  0
ENDTAB
  0
TABLE
  2
UCS
 70
     0
  0
ENDTAB
  0
TABLE
  2
APPID
 70
     4
  0
APPID
  2
ACAD
 70
     0
  0
APPID
  2
ACADANNOTATIVE
 70
     0
  0
APPID
  2
ACAD_NAV_VCDISPLAY
 70
     0
  0
APPID
  2
ACAD_MLEADERVER
 70
     0
  0
ENDTAB
  0
TABLE
  2
DIMSTYLE
 70
     2
  0
DIMSTYLE
  2
STANDARD
 70
     0
  3

  4

  5

  6

  7

 40
1.0
 41
0.18
 42
0.0625
 43
0.38
 44
0.18
 45
0.0
 46
0.0
 47
0.0
 48
0.0
140
0.18
141
0.09
142
0.0
143
25.399999999999999
144
1.0
145
0.0
146
1.0
147
0.09
 71
     0
 72
     0
 73
     1
 74
     1
 75
     0
 76
     0
 77
     0
 78
     0
170
     0
171
     2
172
     0
173
     0
174
     0
175
     0
176
     0
177
     0
178
     0
  0
DIMSTYLE
  2
ANNOTATIVE
 70
     0
  3

  4

  5

  6

  7

 40
1.0
 41
0.18
 42
0.0625
 43
0.38
 44
0.18
 45
0.0
 46
0.0
 47
0.0
 48
0.0
140
0.18
141
0.09
142
0.0
143
25.399999999999999
144
1.0
145
0.0
146
1.0
147
0.09
 71
     0
 72
     0
 73
     1
 74
     1
 75
     0
 76
     0
 77
     0
 78
     0
170
     0
171
     2
172
     0
173
     0
174
     0
175
     0
176
     0
177
     0
178
     0
  0
ENDTAB
  0
ENDSEC
  0
SECTION
  2
BLOCKS
  0
BLOCK
  8
0
  2
$MODEL_SPACE
 70
     0
 10
0.0
 20
0.0
 30
0.0
  3
$MODEL_SPACE
  1

  0
ENDBLK
  5
6D
  8
0
  0
BLOCK
 67
     1
  8
0
  2
$PAPER_SPACE
 70
     0
 10
0.0
 20
0.0
 30
0.0
  3
$PAPER_SPACE
  1

  0
ENDBLK
  5
69
 67
     1
  8
0
  0
BLOCK
  8
0
  2
_FILLED
 70
     0
 10
0.0
 20
0.0
 30
0.0
  3
_FILLED
  1

  0
SOLID
  5
8A
  8
0
  6
ByBlock
 62
     0
 10
0.0
 20
0.0
 30
0.0
 11
-1.0
 21
0.1875
 31
0.0
 12
-1.0
 22
-0.1875
 32
0.0
 13
-1.0
 23
-0.1875
 33
0.0
  0
ENDBLK
  5
8B
  8
0
  6
ByBlock
 62
     0
  0
BLOCK
  8
UNIT-DIM
  6
CONTINUOUS
 62
     7
  2
*D1
 70
     1
 10
0.0
 20
0.0
 30
0.0
  3
*D1
  1

  0
TEXT
  5
8E
  8
UNIT-DIM
  6
CONTINUOUS
 62
     7
 10
159.5962919685
 20
49.125040337399987
 30
0.0
 40
2.0
  1
4-3/8
 41
0.8
  0
TEXT
  5
8F
  8
UNIT-DIM
  6
CONTINUOUS
 62
     7
 10
159.5962919685
 20
46.125040337399987
 30
0.0
 40
2.0
  1
[
 41
0.8
  0
TEXT
  5
90
  8
UNIT-DIM
  6
CONTINUOUS
 62
     7
 10
161.19629196849999
 20
46.125040337399987
 30
0.0
 40
2.0
  1
111.1
 41
0.8
  0
TEXT
  5
91
  8
UNIT-DIM
  6
CONTINUOUS
 62
     7
 10
169.19629196849999
 20
46.125040337399987
 30
0.0
 40
2.0
  1
]
 41
0.8
  0
LINE
  5
92
  8
UNIT-DIM
  6
CONTINUOUS
 62
     7
 10
149.2132233433
 20
58.446934699099998
 30
0.0
 11
149.2132233433
 21
48.537540337399989
 31
0.0
  0
LINE
  5
93
  8
UNIT-DIM
  6
CONTINUOUS
 62
     7
 10
144.8382233433
 20
64.822348013599992
 30
0.0
 11
144.8382233433
 21
48.537540337399989
 31
0.0
  0
LINE
  5
94
  8
UNIT-DIM
  6
CONTINUOUS
 62
     7
 10
149.2132233433
 20
50.125040337399987
 30
0.0
 11
157.5962919685
 21
50.125040337399987
 31
0.0
  0
LINE
  5
95
  8
UNIT-DIM
  6
CONTINUOUS
 62
     7
 10
144.8382233433
 20
50.125040337399987
 30
0.0
 11
132.13822334330001
 21
50.125040337399987
 31
0.0
  0
INSERT
  5
96
  8
UNIT-DIM
  6
CONTINUOUS
 62
     7
  2
_FILLED
 10
149.2132233433
 20
50.125040337399987
 30
0.0
 41
4.0
 42
4.0
 43
4.0
 50
180.0
  0
INSERT
  5
97
  8
UNIT-DIM
  6
CONTINUOUS
 62
     7
  2
_FILLED
 10
144.8382233433
 20
50.125040337399987
 30
0.0
 41
4.0
 42
4.0
 43
4.0
  0
ENDBLK
  5
98
  8
0
  6
ByBlock
 62
     0
  0
BLOCK
  8
SERVCLRDIM
  6
CONTINUOUS
 62
     1
  2
*D2
 70
     1
 10
0.0
 20
0.0
 30
0.0
  3
*D2
  1

  0
TEXT
  5
9B
  8
SERVCLRDIM
  6
CONTINUOUS
 62
     1
 10
16.4189539055
 20
133.229964045
 30
0.0
 40
1.8999999999999999
  1
36-42" DEPENDING ON
 41
0.8
  0
TEXT
  5
9C
  8
SERVCLRDIM
  6
CONTINUOUS
 62
     1
 10
16.4189539055
 20
130.37996404500001
 30
0.0
 40
1.8999999999999999
  1
OPTIONS. CHECK FOR
 41
0.8
  0
TEXT
  5
9D
  8
SERVCLRDIM
  6
CONTINUOUS
 62
     1
 10
16.4189539055
 20
127.529964045
 30
0.0
 40
1.8999999999999999
  1
SOURCES OF FLUE PRODUCTS
 41
0.8
  0
TEXT
  5
9E
  8
SERVCLRDIM
  6
CONTINUOUS
 62
     1
 10
16.4189539055
 20
124.67996404500001
 30
0.0
 40
1.8999999999999999
  1
WITHIN 10FT. OF UNIT FRESH
 41
0.8
  0
TEXT
  5
9F
  8
SERVCLRDIM
  6
CONTINUOUS
 62
     1
 10
16.4189539055
 20
121.829964045
 30
0.0
 40
1.8999999999999999
  1
AIR INTAKE HOOD. SEE
 41
0.8
  0
TEXT
  5
A0
  8
SERVCLRDIM
  6
CONTINUOUS
 62
     1
 10
16.4189539055
 20
118.979964045
 30
0.0
 40
1.8999999999999999
  1
PRODUCT DATA FOR DETAILS.
 41
0.8
  0
LINE
  5
A1
  8
SERVCLRDIM
  6
CONTINUOUS
 62
     1
 10
14.8317304078
 20
117.61819515400001
 30
0.0
 11
14.8317304078
 21
133.229964045
 31
0.0
  0
LINE
  5
A2
  8
SERVCLRDIM
  6
CONTINUOUS
 62
     1
 10
14.8317304078
 20
133.229964045
 30
0.0
 11
14.8317304078
 21
135.767464045
 31
0.0
  0
LINE
  5
A3
  8
SERVCLRDIM
  6
CONTINUOUS
 62
     1
 10
56.831730407799988
 20
117.61819515400001
 30
0.0
 11
56.831730407799988
 21
133.229964045
 31
0.0
  0
LINE
  5
A4
  8
SERVCLRDIM
  6
CONTINUOUS
 62
     1
 10
56.831730407799988
 20
133.229964045
 30
0.0
 11
56.831730407799988
 21
135.767464045
 31
0.0
  0
LINE
  5
A5
  8
SERVCLRDIM
  6
CONTINUOUS
 62
     1
 10
14.8317304078
 20
134.17996404499999
 30
0.0
 11
2.1317304078000001
 21
134.17996404499999
 31
0.0
  0
LINE
  5
A6
  8
SERVCLRDIM
  6
CONTINUOUS
 62
     1
 10
56.831730407799988
 20
134.17996404499999
 30
0.0
 11
69.531730407799998
 21
134.17996404499999
 31
0.0
  0
INSERT
  5
A7
  8
SERVCLRDIM
  6
CONTINUOUS
 62
     1
  2
_FILLED
 10
14.8317304078
 20
134.17996404499999
 30
0.0
 41
4.0
 42
4.0
 43
4.0
  0
INSERT
  5
A8
  8
SERVCLRDIM
  6
CONTINUOUS
 62
     1
  2
_FILLED
 10
56.831730407799988
 20
134.17996404499999
 30
0.0
 41
4.0
 42
4.0
 43
4.0
 50
180.0
  0
ENDBLK
  5
A9
  8
0
  6
ByBlock
 62
     0
  0
BLOCK
  8
SERVCLRDIM
  6
CONTINUOUS
 62
     1
  2
*D3
 70
     1
 10
0.0
 20
0.0
 30
0.0
  3
*D3
  1

  0
TEXT
  5
AC
  8
SERVCLRDIM
  6
CONTINUOUS
 62
     1
 10
150.56453953880001
 20
133.229964045
 30
0.0
 40
1.8999999999999999
  1
36-48" DEPENDING ON OPTIONS.
 41
0.8
  0
TEXT
  5
AD
  8
SERVCLRDIM
  6
CONTINUOUS
 62
     1
 10
150.56453953880001
 20
130.37996404500001
 30
0.0
 40
1.8999999999999999
  1
SEE PRODUCT DATA FOR DETAILS.
 41
0.8
  0
LINE
  5
AE
  8
SERVCLRDIM
  6
CONTINUOUS
 62
     1
 10
149.2132233433
 20
117.61819515400001
 30
0.0
 11
149.2132233433
 21
133.229964045
 31
0.0
  0
LINE
  5
AF
  8
SERVCLRDIM
  6
CONTINUOUS
 62
     1
 10
149.2132233433
 20
133.229964045
 30
0.0
 11
149.2132233433
 21
135.767464045
 31
0.0
  0
LINE
  5
B0
  8
SERVCLRDIM
  6
CONTINUOUS
 62
     1
 10
197.2132233433
 20
117.61819515400001
 30
0.0
 11
197.2132233433
 21
133.229964045
 31
0.0
  0
LINE
  5
B1
  8
SERVCLRDIM
  6
CONTINUOUS
 62
     1
 10
197.2132233433
 20
133.229964045
 30
0.0
 11
197.2132233433
 21
135.767464045
 31
0.0
  0
LINE
  5
B2
  8
SERVCLRDIM
  6
CONTINUOUS
 62
     1
 10
149.2132233433
 20
134.17996404499999
 30
0.0
 11
136.51322334330001
 21
134.17996404499999
 31
0.0
  0
LINE
  5
B3
  8
SERVCLRDIM
  6
CONTINUOUS
 62
     1
 10
197.2132233433
 20
134.17996404499999
 30
0.0
 11
209.91322334329999
 21
134.17996404499999
 31
0.0
  0
INSERT
  5
B4
  8
SERVCLRDIM
  6
CONTINUOUS
 62
     1
  2
_FILLED
 10
149.2132233433
 20
134.17996404499999
 30
0.0
 41
4.0
 42
4.0
 43
4.0
  0
INSERT
  5
B5
  8
SERVCLRDIM
  6
CONTINUOUS
 62
     1
  2
_FILLED
 10
197.2132233433
 20
134.17996404499999
 30
0.0
 41
4.0
 42
4.0
 43
4.0
 50
180.0
  0
ENDBLK
  5
B6
  8
0
  6
ByBlock
 62
     0
  0
BLOCK
  8
CURB-14-DIM
  6
CONTINUOUS
 62
     6
  2
*D4
 70
     1
 10
0.0
 20
0.0
 30
0.0
  3
*D4
  1

  0
TEXT
  5
B9
  8
CURB-14-DIM
  6
CONTINUOUS
 62
     6
 10
104.7931067900667
 20
30.3150161266
 30
0.0
 40
2.0
  1
57-5/8
 41
0.8
 72
     1
 11
109.3264401234
 21
30.3150161266
 31
0.0
  0
TEXT
  5
BA
  8
CURB-14-DIM
  6
CONTINUOUS
 62
     6
 10
116.6597734567333
 20
30.3150161266
 30
0.0
 40
2.0
  1
[
 41
0.8
 72
     1
 11
116.9264401234
 21
30.3150161266
 31
0.0
  0
TEXT
  5
BB
  8
CURB-14-DIM
  6
CONTINUOUS
 62
     6
 10
119.0597734567333
 20
30.3150161266
 30
0.0
 40
2.0
  1
1462.1
 41
0.8
 72
     1
 11
122.52644012339999
 21
30.3150161266
 31
0.0
  0
TEXT
  5
BC
  8
CURB-14-DIM
  6
CONTINUOUS
 62
     6
 10
127.85977345673329
 20
30.3150161266
 30
0.0
 40
2.0
  1
]
 41
0.8
 72
     1
 11
128.12644012339999
 21
30.3150161266
 31
0.0
  0
TEXT
  5
BD
  8
CURB-14-DIM
  6
CONTINUOUS
 62
     6
 10
128.9264401234
 20
30.3150161266
 30
0.0
 40
2.0
  1
 
 41
0.8
 72
     1
 11
129.72644012340001
 21
30.3150161266
 31
0.0
  0
LINE
  5
BE
  8
CURB-14-DIM
  6
CONTINUOUS
 62
     6
 10
88.745190123399993
 20
32.902516126599998
 30
0.0
 11
88.745190123399993
 21
30.097730376200001
 31
0.0
  0
LINE
  5
BF
  8
CURB-14-DIM
  6
CONTINUOUS
 62
     6
 10
146.30769012339999
 20
59.804424227799998
 30
0.0
 11
146.30769012339999
 21
29.727516126600001
 31
0.0
  0
LINE
  5
C0
  8
CURB-14-DIM
  6
CONTINUOUS
 62
     6
 10
88.745190123399993
 20
31.3150161266
 30
0.0
 11
102.52644012339999
 21
31.3150161266
 31
0.0
  0
LINE
  5
C1
  8
CURB-14-DIM
  6
CONTINUOUS
 62
     6
 10
146.30769012339999
 20
31.3150161266
 30
0.0
 11
132.52644012339999
 21
31.3150161266
 31
0.0
  0
INSERT
  5
C2
  8
CURB-14-DIM
  6
CONTINUOUS
 62
     6
  2
_FILLED
 10
88.745190123399993
 20
31.3150161266
 30
0.0
 41
4.0
 42
4.0
 43
4.0
 50
180.0
  0
INSERT
  5
C3
  8
CURB-14-DIM
  6
CONTINUOUS
 62
     6
  2
_FILLED
 10
146.30769012339999
 20
31.3150161266
 30
0.0
 41
4.0
 42
4.0
 43
4.0
  0
ENDBLK
  5
C4
  8
0
  6
ByBlock
 62
     0
  0
BLOCK
  8
CURB-24-DIM
  6
CONTINUOUS
 62
     6
  2
*D5
 70
     1
 10
0.0
 20
0.0
 30
0.0
  3
*D5
  1

  0
TEXT
  5
C7
  8
CURB-24-DIM
  6
CONTINUOUS
 62
     6
 10
49.079724116666661
 20
47.463528994899988
 30
0.0
 40
2.0
  1
24
 41
0.8
 72
     1
 11
50.41305744999999
 21
47.463528994899988
 31
0.0
  0
TEXT
  5
C8
  8
CURB-24-DIM
  6
CONTINUOUS
 62
     6
 10
60.013057449999998
 20
47.463528994899988
 30
0.0
 40
2.0
  1
 
 41
0.8
 72
     1
 11
60.813057450000002
 21
47.463528994899988
 31
0.0
  0
TEXT
  5
C9
  8
CURB-24-DIM
  6
CONTINUOUS
 62
     6
 10
49.346390783333327
 20
44.463528994899988
 30
0.0
 40
2.0
  1
[
 41
0.8
 72
     1
 11
49.613057449999999
 21
44.463528994899988
 31
0.0
  0
TEXT
  5
CA
  8
CURB-24-DIM
  6
CONTINUOUS
 62
     6
 10
51.346390783333327
 20
44.463528994899988
 30
0.0
 40
2.0
  1
609.6
 41
0.8
 72
     1
 11
54.413057449999997
 21
44.463528994899988
 31
0.0
  0
TEXT
  5
CB
  8
CURB-24-DIM
  6
CONTINUOUS
 62
     6
 10
58.946390783333342
 20
44.463528994899988
 30
0.0
 40
2.0
  1
]
 41
0.8
 72
     1
 11
59.213057450000001
 21
44.463528994899988
 31
0.0
  0
LINE
  5
CC
  8
CURB-24-DIM
  6
CONTINUOUS
 62
     6
 10
85.907690123400002
 20
37.661577260100003
 30
0.0
 11
67.224351454499995
 21
37.661577260100003
 31
0.0
  0
LINE
  5
CD
  8
CURB-24-DIM
  6
CONTINUOUS
 62
     6
 10
65.295339108800007
 20
37.661577260100003
 30
0.0
 11
53.625557450000002
 21
37.661577260100003
 31
0.0
  0
LINE
  5
CE
  8
CURB-24-DIM
  6
CONTINUOUS
 62
     6
 10
87.157690123400002
 20
61.659848013599998
 30
0.0
 11
53.625557450000002
 21
61.659848013599998
 31
0.0
  0
LINE
  5
CF
  8
CURB-24-DIM
  6
CONTINUOUS
 62
     6
 10
55.213057450000001
 20
37.661577260100003
 30
0.0
 11
55.213057450000001
 21
42.463528994899988
 31
0.0
  0
LINE
  5
D0
  8
CURB-24-DIM
  6
CONTINUOUS
 62
     6
 10
55.213057450000001
 20
61.659848013599998
 30
0.0
 11
55.213057450000001
 21
51.463528994900003
 31
0.0
  0
INSERT
  5
D1
  8
CURB-24-DIM
  6
CONTINUOUS
 62
     6
  2
_FILLED
 10
55.213057450000001
 20
37.661577260100003
 30
0.0
 41
4.0
 42
4.0
 43
4.0
 50
270.0
  0
INSERT
  5
D2
  8
CURB-24-DIM
  6
CONTINUOUS
 62
     6
  2
_FILLED
 10
55.213057450000001
 20
61.659848013599998
 30
0.0
 41
4.0
 42
4.0
 43
4.0
 50
90.0
  0
ENDBLK
  5
D3
  8
0
  6
ByBlock
 62
     0
  0
BLOCK
  8
CURB-24-DIM
  6
CONTINUOUS
 62
     6
  2
*D6
 70
     1
 10
0.0
 20
0.0
 30
0.0
  3
*D6
  1

  0
TEXT
  5
D6
  8
CURB-24-DIM
  6
CONTINUOUS
 62
     6
 10
104.7931067900667
 20
30.3090100786
 30
0.0
 40
2.0
  1
57-5/8
 41
0.8
 72
     1
 11
109.3264401234
 21
30.3090100786
 31
0.0
  0
TEXT
  5
D7
  8
CURB-24-DIM
  6
CONTINUOUS
 62
     6
 10
116.6597734567333
 20
30.3090100786
 30
0.0
 40
2.0
  1
[
 41
0.8
 72
     1
 11
116.9264401234
 21
30.3090100786
 31
0.0
  0
TEXT
  5
D8
  8
CURB-24-DIM
  6
CONTINUOUS
 62
     6
 10
119.0597734567333
 20
30.3090100786
 30
0.0
 40
2.0
  1
1462.1
 41
0.8
 72
     1
 11
122.52644012339999
 21
30.3090100786
 31
0.0
  0
TEXT
  5
D9
  8
CURB-24-DIM
  6
CONTINUOUS
 62
     6
 10
127.85977345673329
 20
30.3090100786
 30
0.0
 40
2.0
  1
]
 41
0.8
 72
     1
 11
128.12644012339999
 21
30.3090100786
 31
0.0
  0
TEXT
  5
DA
  8
CURB-24-DIM
  6
CONTINUOUS
 62
     6
 10
128.9264401234
 20
30.3090100786
 30
0.0
 40
2.0
  1
 
 41
0.8
 72
     1
 11
129.72644012340001
 21
30.3090100786
 31
0.0
  0
LINE
  5
DB
  8
CURB-24-DIM
  6
CONTINUOUS
 62
     6
 10
88.745190123399993
 20
59.804424227799998
 30
0.0
 11
88.745190123399993
 21
29.721510078600001
 31
0.0
  0
LINE
  5
DC
  8
CURB-24-DIM
  6
CONTINUOUS
 62
     6
 10
146.30769012339999
 20
59.804424227799998
 30
0.0
 11
146.30769012339999
 21
29.721510078600001
 31
0.0
  0
LINE
  5
DD
  8
CURB-24-DIM
  6
CONTINUOUS
 62
     6
 10
88.745190123399993
 20
31.3090100786
 30
0.0
 11
102.52644012339999
 21
31.3090100786
 31
0.0
  0
LINE
  5
DE
  8
CURB-24-DIM
  6
CONTINUOUS
 62
     6
 10
146.30769012339999
 20
31.3090100786
 30
0.0
 11
132.52644012339999
 21
31.3090100786
 31
0.0
  0
INSERT
  5
DF
  8
CURB-24-DIM
  6
CONTINUOUS
 62
     6
  2
_FILLED
 10
88.745190123399993
 20
31.3090100786
 30
0.0
 41
4.0
 42
4.0
 43
4.0
 50
180.0
  0
INSERT
  5
E0
  8
CURB-24-DIM
  6
CONTINUOUS
 62
     6
  2
_FILLED
 10
146.30769012339999
 20
31.3090100786
 30
0.0
 41
4.0
 42
4.0
 43
4.0
  0
ENDBLK
  5
E1
  8
0
  6
ByBlock
 62
     0
  0
BLOCK
  8
CURB-14-DIM
  6
CONTINUOUS
 62
     6
  2
*D7
 70
     1
 10
0.0
 20
0.0
 30
0.0
  3
*D7
  1

  0
TEXT
  5
E4
  8
CURB-14-DIM
  6
CONTINUOUS
 62
     6
 10
60.364115443933343
 20
55.049778569099999
 30
0.0
 40
2.0
  1
14
 41
0.8
 72
     1
 11
61.430782110599999
 21
55.049778569099999
 31
0.0
  0
TEXT
  5
E5
  8
CURB-14-DIM
  6
CONTINUOUS
 62
     6
 10
71.030782110600001
 20
55.049778569099999
 30
0.0
 40
2.0
  1
 
 41
0.8
 72
     1
 11
71.830782110599984
 21
55.049778569099999
 31
0.0
  0
TEXT
  5
E6
  8
CURB-14-DIM
  6
CONTINUOUS
 62
     6
 10
60.364115443933343
 20
52.049778569099999
 30
0.0
 40
2.0
  1
[
 41
0.8
 72
     1
 11
60.630782110600002
 21
52.049778569099999
 31
0.0
  0
TEXT
  5
E7
  8
CURB-14-DIM
  6
CONTINUOUS
 62
     6
 10
62.230782110600003
 20
52.049778569099999
 30
0.0
 40
2.0
  1
355.6
 41
0.8
 72
     1
 11
65.430782110600006
 21
52.049778569099999
 31
0.0
  0
TEXT
  5
E8
  8
CURB-14-DIM
  6
CONTINUOUS
 62
     6
 10
69.964115443933338
 20
52.049778569099999
 30
0.0
 40
2.0
  1
]
 41
0.8
 72
     1
 11
70.230782110600003
 21
52.049778569099999
 31
0.0
  0
LINE
  5
E9
  8
CURB-14-DIM
  6
CONTINUOUS
 62
     6
 10
87.157690123400002
 20
61.659848013599998
 30
0.0
 11
64.643282110599984
 21
61.659848013599998
 31
0.0
  0
LINE
  5
EA
  8
CURB-14-DIM
  6
CONTINUOUS
 62
     6
 10
85.500910640800001
 20
47.659848013599998
 30
0.0
 11
64.643282110599984
 21
47.659848013599998
 31
0.0
  0
LINE
  5
EB
  8
CURB-14-DIM
  6
CONTINUOUS
 62
     6
 10
66.230782110600003
 20
61.659848013599998
 30
0.0
 11
66.230782110600003
 21
74.359848013600001
 31
0.0
  0
LINE
  5
EC
  8
CURB-14-DIM
  6
CONTINUOUS
 62
     6
 10
66.230782110600003
 20
47.659848013599998
 30
0.0
 11
66.230782110600003
 21
34.959848013600009
 31
0.0
  0
INSERT
  5
ED
  8
CURB-14-DIM
  6
CONTINUOUS
 62
     6
  2
_FILLED
 10
66.230782110600003
 20
61.659848013599998
 30
0.0
 41
4.0
 42
4.0
 43
4.0
 50
270.0
  0
INSERT
  5
EE
  8
CURB-14-DIM
  6
CONTINUOUS
 62
     6
  2
_FILLED
 10
66.230782110600003
 20
47.659848013599998
 30
0.0
 41
4.0
 42
4.0
 43
4.0
 50
90.0
  0
ENDBLK
  5
EF
  8
0
  6
ByBlock
 62
     0
  0
BLOCK
  8
UNIT-DIM
  6
CONTINUOUS
 62
     1
  2
*D8
 70
     1
 10
0.0
 20
0.0
 30
0.0
  3
*D8
  1

  0
TEXT
  5
F2
  8
UNIT-DIM
  6
CONTINUOUS
 62
     1
 10
159.15128583040001
 20
28.4908972763
 30
0.0
 40
2.0
  1
OVERALL HEIGHT AND 
 41
0.8
  0
TEXT
  5
F3
  8
UNIT-DIM
  6
CONTINUOUS
 62
     1
 10
159.15128583040001
 20
25.4908972763
 30
0.0
 40
2.0
  1
CLEARANCE AREA WILL BE 
 41
0.8
  0
TEXT
  5
F4
  8
UNIT-DIM
  6
CONTINUOUS
 62
     1
 10
159.15128583040001
 20
22.4908972763
 30
0.0
 40
2.0
  1
DETERMINED BY ASSEMBLY OF 
 41
0.8
  0
TEXT
  5
F5
  8
UNIT-DIM
  6
CONTINUOUS
 62
     1
 10
159.15128583040001
 20
19.4908972763
 30
0.0
 40
2.0
  1
INSTALLER.  SEE CERTIFIED 
 41
0.8
  0
TEXT
  5
F6
  8
UNIT-DIM
  6
CONTINUOUS
 62
     1
 10
159.15128583040001
 20
16.4908972763
 30
0.0
 40
2.0
  1
DRAWING FOR FURTHER DETAIL.
 41
0.8
  0
LINE
  5
F7
  8
UNIT-DIM
  6
CONTINUOUS
 62
     1
 10
147.0191979759
 20
61.659848013599998
 30
0.0
 11
156.5740889516
 21
61.659848013599998
 31
0.0
  0
LINE
  5
F8
  8
UNIT-DIM
  6
CONTINUOUS
 62
     1
 10
148.05312542979999
 20
58.659848013599991
 30
0.0
 11
156.5740889516
 21
58.659848013599991
 31
0.0
  0
LINE
  5
F9
  8
UNIT-DIM
  6
CONTINUOUS
 62
     1
 10
154.9865889516
 20
61.659848013599998
 30
0.0
 11
154.9865889516
 21
74.359848013600001
 31
0.0
  0
LINE
  5
FA
  8
UNIT-DIM
  6
CONTINUOUS
 62
     1
 10
154.9865889516
 20
58.659848013599991
 30
0.0
 11
154.9865889516
 21
29.4908972763
 31
0.0
  0
LINE
  5
FB
  8
UNIT-DIM
  6
CONTINUOUS
 62
     1
 10
154.9865889516
 20
29.4908972763
 30
0.0
 11
157.15128583040001
 21
29.4908972763
 31
0.0
  0
INSERT
  5
FC
  8
UNIT-DIM
  6
CONTINUOUS
 62
     1
  2
_FILLED
 10
154.9865889516
 20
61.659848013599998
 30
0.0
 41
4.0
 42
4.0
 43
4.0
 50
270.0
  0
INSERT
  5
FD
  8
UNIT-DIM
  6
CONTINUOUS
 62
     1
  2
_FILLED
 10
154.9865889516
 20
58.659848013599991
 30
0.0
 41
4.0
 42
4.0
 43
4.0
 50
90.0
  0
ENDBLK
  5
FE
  8
0
  6
ByBlock
 62
     0
  0
BLOCK
  8
UNIT-DIM
  6
CONTINUOUS
 62
     7
  2
*D9
 70
     1
 10
0.0
 20
0.0
 30
0.0
  3
*D9
  1

  0
TEXT
  5
101
  8
UNIT-DIM
  6
CONTINUOUS
 62
     7
 10
165.86815924516671
 20
39.997205941300003
 30
0.0
 40
2.0
  1
7-3/4
 41
0.8
 72
     1
 11
169.6014925785
 21
39.997205941300003
 31
0.0
  0
TEXT
  5
102
  8
UNIT-DIM
  6
CONTINUOUS
 62
     7
 10
166.1348259118333
 20
36.997205941300003
 30
0.0
 40
2.0
  1
[
 41
0.8
 72
     1
 11
166.40149257850001
 21
36.997205941300003
 31
0.0
  0
TEXT
  5
103
  8
UNIT-DIM
  6
CONTINUOUS
 62
     7
 10
168.2681592451666
 20
36.997205941300003
 30
0.0
 40
2.0
  1
196.9
 41
0.8
 72
     1
 11
171.20149257849999
 21
36.997205941300003
 31
0.0
  0
TEXT
  5
104
  8
UNIT-DIM
  6
CONTINUOUS
 62
     7
 10
175.7348259118333
 20
36.997205941300003
 30
0.0
 40
2.0
  1
]
 41
0.8
 72
     1
 11
176.00149257849989
 21
36.997205941300003
 31
0.0
  0
LINE
  5
105
  8
UNIT-DIM
  6
CONTINUOUS
 62
     7
 10
148.05312542979999
 20
58.659848013599991
 30
0.0
 11
172.7889925785
 21
58.659848013599991
 31
0.0
  0
LINE
  5
106
  8
UNIT-DIM
  6
CONTINUOUS
 62
     7
 10
146.42572334330001
 20
66.409848013599998
 30
0.0
 11
172.7889925785
 21
66.409848013599998
 31
0.0
  0
LINE
  5
107
  8
UNIT-DIM
  6
CONTINUOUS
 62
     7
 10
171.20149257849999
 20
58.659848013599991
 30
0.0
 11
171.20149257849999
 21
43.997205941300003
 31
0.0
  0
LINE
  5
108
  8
UNIT-DIM
  6
CONTINUOUS
 62
     7
 10
171.20149257849999
 20
66.409848013599998
 30
0.0
 11
171.20149257849999
 21
79.109848013600001
 31
0.0
  0
INSERT
  5
109
  8
UNIT-DIM
  6
CONTINUOUS
 62
     7
  2
_FILLED
 10
171.20149257849999
 20
58.659848013599991
 30
0.0
 41
4.0
 42
4.0
 43
4.0
 50
90.0
  0
INSERT
  5
10A
  8
UNIT-DIM
  6
CONTINUOUS
 62
     7
  2
_FILLED
 10
171.20149257849999
 20
66.409848013599998
 30
0.0
 41
4.0
 42
4.0
 43
4.0
 50
270.0
  0
ENDBLK
  5
10B
  8
0
  6
ByBlock
 62
     0
  0
BLOCK
  8
UNIT-DIM
  6
CONTINUOUS
 62
     7
  2
*D10
 70
     1
 10
0.0
 20
0.0
 30
0.0
  3
*D10
  1

  0
TEXT
  5
10E
  8
UNIT-DIM
  6
CONTINUOUS
 62
     7
 10
18.99668087376666
 20
86.345271583799985
 30
0.0
 40
2.0
  1
57-3/8
 41
0.8
 72
     1
 11
23.530014207099999
 21
86.345271583799985
 31
0.0
  0
TEXT
  5
10F
  8
UNIT-DIM
  6
CONTINUOUS
 62
     7
 10
19.26334754043333
 20
83.345271583799999
 30
0.0
 40
2.0
  1
[
 41
0.8
 72
     1
 11
19.530014207099999
 21
83.345271583799999
 31
0.0
  0
TEXT
  5
110
  8
UNIT-DIM
  6
CONTINUOUS
 62
     7
 10
20.863347540433331
 20
83.345271583799999
 30
0.0
 40
2.0
  1
1457
 41
0.8
 72
     1
 11
23.530014207099999
 21
83.345271583799999
 31
0.0
  0
TEXT
  5
111
  8
UNIT-DIM
  6
CONTINUOUS
 62
     7
 10
27.26334754043334
 20
83.345271583799999
 30
0.0
 40
2.0
  1
]
 41
0.8
 72
     1
 11
27.530014207099999
 21
83.345271583799999
 31
0.0
  0
LINE
  5
112
  8
UNIT-DIM
  6
CONTINUOUS
 62
     7
 10
24.673868277499999
 20
116.030695154
 30
0.0
 11
21.9425142071
 21
116.030695154
 31
0.0
  0
LINE
  5
113
  8
UNIT-DIM
  6
CONTINUOUS
 62
     7
 10
24.673868277499999
 20
58.659848013599991
 30
0.0
 11
21.9425142071
 21
58.659848013599991
 31
0.0
  0
LINE
  5
114
  8
UNIT-DIM
  6
CONTINUOUS
 62
     7
 10
23.530014207099999
 20
116.030695154
 30
0.0
 11
23.530014207099999
 21
90.345271583799985
 31
0.0
  0
LINE
  5
115
  8
UNIT-DIM
  6
CONTINUOUS
 62
     7
 10
23.530014207099999
 20
58.659848013599991
 30
0.0
 11
23.530014207099999
 21
81.345271583799999
 31
0.0
  0
INSERT
  5
116
  8
UNIT-DIM
  6
CONTINUOUS
 62
     7
  2
_FILLED
 10
23.530014207099999
 20
116.030695154
 30
0.0
 41
4.0
 42
4.0
 43
4.0
 50
90.0
  0
INSERT
  5
117
  8
UNIT-DIM
  6
CONTINUOUS
 62
     7
  2
_FILLED
 10
23.530014207099999
 20
58.659848013599991
 30
0.0
 41
4.0
 42
4.0
 43
4.0
 50
270.0
  0
ENDBLK
  5
118
  8
0
  6
ByBlock
 62
     0
  0
BLOCK
  8
UNIT-DIM
  6
CONTINUOUS
 62
     7
  2
*D11
 70
     1
 10
0.0
 20
0.0
 30
0.0
  3
*D11
  1

  0
TEXT
  5
11B
  8
UNIT-DIM
  6
CONTINUOUS
 62
     7
 10
175.34603283543331
 20
64.534848013599998
 30
0.0
 40
2.0
  1
13-3/4
 41
0.8
 72
     1
 11
179.61269950210001
 21
64.534848013599998
 31
0.0
  0
TEXT
  5
11C
  8
UNIT-DIM
  6
CONTINUOUS
 62
     7
 10
175.34603283543331
 20
61.534848013599998
 30
0.0
 40
2.0
  1
[
 41
0.8
 72
     1
 11
175.61269950210001
 21
61.534848013599998
 31
0.0
  0
TEXT
  5
11D
  8
UNIT-DIM
  6
CONTINUOUS
 62
     7
 10
177.21269950210001
 20
61.534848013599998
 30
0.0
 40
2.0
  1
349.3
 41
0.8
 72
     1
 11
180.4126995021
 21
61.534848013599998
 31
0.0
  0
TEXT
  5
11E
  8
UNIT-DIM
  6
CONTINUOUS
 62
     7
 10
184.9460328354333
 20
61.534848013599998
 30
0.0
 40
2.0
  1
]
 41
0.8
 72
     1
 11
185.21269950209989
 21
61.534848013599998
 31
0.0
  0
LINE
  5
11F
  8
UNIT-DIM
  6
CONTINUOUS
 62
     7
 10
148.05312542979999
 20
58.659848013599991
 30
0.0
 11
182.0001995021
 21
58.659848013599991
 31
0.0
  0
LINE
  5
120
  8
UNIT-DIM
  6
CONTINUOUS
 62
     7
 10
146.42572334330001
 20
72.409848013599984
 30
0.0
 11
170.44273593969999
 21
72.409848013599984
 31
0.0
  0
LINE
  5
121
  8
UNIT-DIM
  6
CONTINUOUS
 62
     7
 10
172.07424910579999
 20
72.409848013599984
 30
0.0
 11
182.0001995021
 21
72.409848013599984
 31
0.0
  0
LINE
  5
122
  8
UNIT-DIM
  6
CONTINUOUS
 62
     7
 10
180.4126995021
 20
58.659848013599991
 30
0.0
 11
180.4126995021
 21
45.959848013599988
 31
0.0
  0
LINE
  5
123
  8
UNIT-DIM
  6
CONTINUOUS
 62
     7
 10
180.4126995021
 20
72.409848013599984
 30
0.0
 11
180.4126995021
 21
85.109848013600015
 31
0.0
  0
INSERT
  5
124
  8
UNIT-DIM
  6
CONTINUOUS
 62
     7
  2
_FILLED
 10
180.4126995021
 20
58.659848013599991
 30
0.0
 41
4.0
 42
4.0
 43
4.0
 50
90.0
  0
INSERT
  5
125
  8
UNIT-DIM
  6
CONTINUOUS
 62
     7
  2
_FILLED
 10
180.4126995021
 20
72.409848013599984
 30
0.0
 41
4.0
 42
4.0
 43
4.0
 50
270.0
  0
ENDBLK
  5
126
  8
0
  6
ByBlock
 62
     0
  0
BLOCK
  8
UNIT-DIM
  6
CONTINUOUS
 62
     7
  2
*D12
 70
     1
 10
0.0
 20
0.0
 30
0.0
  3
*D12
  1

  0
TEXT
  5
129
  8
UNIT-DIM
  6
CONTINUOUS
 62
     7
 10
186.0731921249
 20
49.865700052100003
 30
0.0
 40
2.0
  1
19-1/4
 41
0.8
 72
     1
 11
190.0731921249
 21
49.865700052100003
 31
0.0
  0
TEXT
  5
12A
  8
UNIT-DIM
  6
CONTINUOUS
 62
     7
 10
185.8065254582333
 20
46.865700052100003
 30
0.0
 40
2.0
  1
[
 41
0.8
 72
     1
 11
186.0731921249
 21
46.865700052100003
 31
0.0
  0
TEXT
  5
12B
  8
UNIT-DIM
  6
CONTINUOUS
 62
     7
 10
187.8065254582333
 20
46.865700052100003
 30
0.0
 40
2.0
  1
489.0
 41
0.8
 72
     1
 11
190.87319212489999
 21
46.865700052100003
 31
0.0
  0
TEXT
  5
12C
  8
UNIT-DIM
  6
CONTINUOUS
 62
     7
 10
195.40652545823329
 20
46.865700052100003
 30
0.0
 40
2.0
  1
]
 41
0.8
 72
     1
 11
195.6731921249
 21
46.865700052100003
 31
0.0
  0
LINE
  5
12D
  8
UNIT-DIM
  6
CONTINUOUS
 62
     7
 10
148.05312542979999
 20
58.659848013599991
 30
0.0
 11
192.46069212489999
 21
58.659848013599991
 31
0.0
  0
LINE
  5
12E
  8
UNIT-DIM
  6
CONTINUOUS
 62
     7
 10
146.42572334330001
 20
77.909848013599998
 30
0.0
 11
147.11120468519999
 21
77.909848013599998
 31
0.0
  0
LINE
  5
12F
  8
UNIT-DIM
  6
CONTINUOUS
 62
     7
 10
148.53470318309999
 20
77.909848013599998
 30
0.0
 11
170.29235893629999
 21
77.909848013599998
 31
0.0
  0
LINE
  5
130
  8
UNIT-DIM
  6
CONTINUOUS
 62
     7
 10
172.03183988539999
 20
77.909848013599998
 30
0.0
 11
179.4696204956
 21
77.909848013599998
 31
0.0
  0
LINE
  5
131
  8
UNIT-DIM
  6
CONTINUOUS
 62
     7
 10
181.08913724140001
 20
77.909848013599998
 30
0.0
 11
192.46069212489999
 21
77.909848013599998
 31
0.0
  0
LINE
  5
132
  8
UNIT-DIM
  6
CONTINUOUS
 62
     7
 10
190.87319212489999
 20
58.659848013599991
 30
0.0
 11
190.87319212489999
 21
68.284848013599998
 31
0.0
  0
LINE
  5
133
  8
UNIT-DIM
  6
CONTINUOUS
 62
     7
 10
190.87319212489999
 20
68.284848013599998
 30
0.0
 11
190.87319212489999
 21
53.865700052100003
 31
0.0
  0
LINE
  5
134
  8
UNIT-DIM
  6
CONTINUOUS
 62
     7
 10
190.87319212489999
 20
77.909848013599998
 30
0.0
 11
190.87319212489999
 21
68.284848013599998
 31
0.0
  0
INSERT
  5
135
  8
UNIT-DIM
  6
CONTINUOUS
 62
     7
  2
_FILLED
 10
190.87319212489999
 20
58.659848013599991
 30
0.0
 41
4.0
 42
4.0
 43
4.0
 50
270.0
  0
INSERT
  5
136
  8
UNIT-DIM
  6
CONTINUOUS
 62
     7
  2
_FILLED
 10
190.87319212489999
 20
77.909848013599998
 30
0.0
 41
4.0
 42
4.0
 43
4.0
 50
90.0
  0
ENDBLK
  5
137
  8
0
  6
ByBlock
 62
     0
  0
BLOCK
  8
UNIT-DIM
  6
CONTINUOUS
 62
     7
  2
*D13
 70
     1
 10
0.0
 20
0.0
 30
0.0
  3
*D13
  1

  0
TEXT
  5
13A
  8
UNIT-DIM
  6
CONTINUOUS
 62
     7
 10
198.97742888203331
 20
70.784848013599998
 30
0.0
 40
2.0
  1
26-1/4
 41
0.8
 72
     1
 11
203.24409554869999
 21
70.784848013599998
 31
0.0
  0
TEXT
  5
13B
  8
UNIT-DIM
  6
CONTINUOUS
 62
     7
 10
198.97742888203331
 20
67.784848013599998
 30
0.0
 40
2.0
  1
[
 41
0.8
 72
     1
 11
199.24409554869999
 21
67.784848013599998
 31
0.0
  0
TEXT
  5
13C
  8
UNIT-DIM
  6
CONTINUOUS
 62
     7
 10
200.84409554870001
 20
67.784848013599998
 30
0.0
 40
2.0
  1
666.8
 41
0.8
 72
     1
 11
204.0440955487
 21
67.784848013599998
 31
0.0
  0
TEXT
  5
13D
  8
UNIT-DIM
  6
CONTINUOUS
 62
     7
 10
208.5774288820333
 20
67.784848013599998
 30
0.0
 40
2.0
  1
]
 41
0.8
 72
     1
 11
208.84409554870001
 21
67.784848013599998
 31
0.0
  0
LINE
  5
13E
  8
UNIT-DIM
  6
CONTINUOUS
 62
     7
 10
148.05312542979999
 20
58.659848013599991
 30
0.0
 11
205.63159554870001
 21
58.659848013599991
 31
0.0
  0
LINE
  5
13F
  8
UNIT-DIM
  6
CONTINUOUS
 62
     7
 10
146.42572334330001
 20
84.909848013599984
 30
0.0
 11
148.740646527
 21
84.909848013599984
 31
0.0
  0
LINE
  5
140
  8
UNIT-DIM
  6
CONTINUOUS
 62
     7
 10
150.30973867079999
 20
84.909848013599984
 30
0.0
 11
179.68330673290001
 21
84.909848013599984
 31
0.0
  0
LINE
  5
141
  8
UNIT-DIM
  6
CONTINUOUS
 62
     7
 10
181.08913724140001
 20
84.909848013599984
 30
0.0
 11
205.63159554870001
 21
84.909848013599984
 31
0.0
  0
LINE
  5
142
  8
UNIT-DIM
  6
CONTINUOUS
 62
     7
 10
204.0440955487
 20
58.659848013599991
 30
0.0
 11
204.0440955487
 21
65.784848013599998
 31
0.0
  0
LINE
  5
143
  8
UNIT-DIM
  6
CONTINUOUS
 62
     7
 10
204.0440955487
 20
84.909848013599984
 30
0.0
 11
204.0440955487
 21
74.784848013599998
 31
0.0
  0
INSERT
  5
144
  8
UNIT-DIM
  6
CONTINUOUS
 62
     7
  2
_FILLED
 10
204.0440955487
 20
58.659848013599991
 30
0.0
 41
4.0
 42
4.0
 43
4.0
 50
270.0
  0
INSERT
  5
145
  8
UNIT-DIM
  6
CONTINUOUS
 62
     7
  2
_FILLED
 10
204.0440955487
 20
84.909848013599984
 30
0.0
 41
4.0
 42
4.0
 43
4.0
 50
90.0
  0
ENDBLK
  5
146
  8
0
  6
ByBlock
 62
     0
  0
BLOCK
  8
UNIT-DIM
  6
CONTINUOUS
 62
     7
  2
*D14
 70
     1
 10
0.0
 20
0.0
 30
0.0
  3
*D14
  1

  0
TEXT
  5
149
  8
UNIT-DIM
  6
CONTINUOUS
 62
     7
 10
211.2356250369667
 20
75.534848013599984
 30
0.0
 40
2.0
  1
35-3/4
 41
0.8
 72
     1
 11
215.7689583703
 21
75.534848013599984
 31
0.0
  0
TEXT
  5
14A
  8
UNIT-DIM
  6
CONTINUOUS
 62
     7
 10
211.50229170363329
 20
72.534848013599984
 30
0.0
 40
2.0
  1
[
 41
0.8
 72
     1
 11
211.7689583703
 21
72.534848013599984
 31
0.0
  0
TEXT
  5
14B
  8
UNIT-DIM
  6
CONTINUOUS
 62
     7
 10
213.7689583703
 20
72.534848013599984
 30
0.0
 40
2.0
  1
908.1
 41
0.8
 72
     1
 11
216.56895837030001
 21
72.534848013599984
 31
0.0
  0
TEXT
  5
14C
  8
UNIT-DIM
  6
CONTINUOUS
 62
     7
 10
221.10229170363331
 20
72.534848013599984
 30
0.0
 40
2.0
  1
]
 41
0.8
 72
     1
 11
221.36895837029999
 21
72.534848013599984
 31
0.0
  0
LINE
  5
14D
  8
UNIT-DIM
  6
CONTINUOUS
 62
     7
 10
148.05312542979999
 20
58.659848013599991
 30
0.0
 11
218.15645837029999
 21
58.659848013599991
 31
0.0
  0
LINE
  5
14E
  8
UNIT-DIM
  6
CONTINUOUS
 62
     7
 10
146.42572334330001
 20
94.409848013599998
 30
0.0
 11
148.8806804571
 21
94.409848013599998
 31
0.0
  0
LINE
  5
14F
  8
UNIT-DIM
  6
CONTINUOUS
 62
     7
 10
149.83855086119999
 20
94.409848013599998
 30
0.0
 11
151.04361362770001
 21
94.409848013599998
 31
0.0
  0
LINE
  5
150
  8
UNIT-DIM
  6
CONTINUOUS
 62
     7
 10
152.434070666
 20
94.409848013599998
 30
0.0
 11
218.15645837029999
 21
94.409848013599998
 31
0.0
  0
LINE
  5
151
  8
UNIT-DIM
  6
CONTINUOUS
 62
     7
 10
216.56895837030001
 20
58.659848013599991
 30
0.0
 11
216.56895837030001
 21
70.534848013599984
 31
0.0
  0
LINE
  5
152
  8
UNIT-DIM
  6
CONTINUOUS
 62
     7
 10
216.56895837030001
 20
94.409848013599998
 30
0.0
 11
216.56895837030001
 21
79.534848013599998
 31
0.0
  0
INSERT
  5
153
  8
UNIT-DIM
  6
CONTINUOUS
 62
     7
  2
_FILLED
 10
216.56895837030001
 20
58.659848013599991
 30
0.0
 41
4.0
 42
4.0
 43
4.0
 50
270.0
  0
INSERT
  5
154
  8
UNIT-DIM
  6
CONTINUOUS
 62
     7
  2
_FILLED
 10
216.56895837030001
 20
94.409848013599998
 30
0.0
 41
4.0
 42
4.0
 43
4.0
 50
90.0
  0
ENDBLK
  5
155
  8
0
  6
ByBlock
 62
     0
  0
ENDSEC
  0
SECTION
  2
ENTITIES
  0
DIMENSION
  5
156
  8
UNIT-DIM
  6
CONTINUOUS
 62
     7
  2
*D1
 10
144.8382233433
 20
50.125040337399987
 30
0.0
 11
165.19629196849999
 21
48.625040337399987
 31
0.0
 70
   128
 13
149.2132233433
 23
60.03443469909999
 33
0.0
 14
144.8382233433
 24
66.409848013599998
 34
0.0
 50
180.0
  0
DIMENSION
  5
157
  8
SERVCLRDIM
  6
CONTINUOUS
 62
     1
  2
*D2
 10
56.831730407799988
 20
134.17996404499999
 30
0.0
 11
36.178953905500002
 21
127.05496404500001
 31
0.0
 70
   128
 13
14.8317304078
 23
116.030695154
 33
0.0
 14
56.831730407799988
 24
116.030695154
 34
0.0
  0
DIMENSION
  5
158
  8
SERVCLRDIM
  6
CONTINUOUS
 62
     1
  2
*D3
 10
197.2132233433
 20
134.17996404499999
 30
0.0
 11
172.6045395388
 21
132.75496404500001
 31
0.0
 70
   128
 13
149.2132233433
 23
116.030695154
 33
0.0
 14
197.2132233433
 24
116.030695154
 34
0.0
  0
DIMENSION
  5
159
  8
CURB-14-DIM
  6
CONTINUOUS
 62
     6
  2
*D4
 10
146.30769012339999
 20
31.3150161266
 30
0.0
 11
116.7264401234
 21
31.3150161266
 31
0.0
 70
   128
 13
88.745190123399993
 23
34.490016126599997
 33
0.0
 14
146.30769012339999
 24
61.39192422779999
 34
0.0
  0
DIMENSION
  5
15A
  8
CURB-24-DIM
  6
CONTINUOUS
 62
     6
  2
*D5
 10
55.213057450000001
 20
61.659848013599998
 30
0.0
 11
54.413057449999997
 21
46.963528994899988
 31
0.0
 70
   128
 13
87.495190123399993
 23
37.661577260100003
 33
0.0
 14
88.745190123399993
 24
61.659848013599998
 34
0.0
 50
90.0
  0
DIMENSION
  5
15B
  8
CURB-24-DIM
  6
CONTINUOUS
 62
     6
  2
*D6
 10
146.30769012339999
 20
31.3090100786
 30
0.0
 11
116.7264401234
 21
31.3090100786
 31
0.0
 70
   128
 13
88.745190123399993
 23
61.39192422779999
 33
0.0
 14
146.30769012339999
 24
61.39192422779999
 34
0.0
  0
DIMENSION
  5
15C
  8
CURB-14-DIM
  6
CONTINUOUS
 62
     6
  2
*D7
 10
66.230782110600003
 20
47.659848013599998
 30
0.0
 11
65.430782110600006
 21
54.549778569099999
 31
0.0
 70
   128
 13
88.745190123399993
 23
61.659848013599998
 33
0.0
 14
87.088410640799992
 24
47.659848013599998
 34
0.0
 50
270.0
  0
DIMENSION
  5
15D
  8
UNIT-DIM
  6
CONTINUOUS
 62
     1
  2
*D8
 10
154.9865889516
 20
58.659848013599991
 30
0.0
 11
180.75128583040001
 21
23.4908972763
 31
0.0
 70
   128
 13
145.43169797589999
 23
61.659848013599998
 33
0.0
 14
146.46562542980001
 24
58.659848013599991
 34
0.0
 50
270.0
  0
DIMENSION
  5
15E
  8
UNIT-DIM
  6
CONTINUOUS
 62
     7
  2
*D9
 10
171.20149257849999
 20
66.409848013599998
 30
0.0
 11
171.20149257849999
 21
39.497205941300003
 31
0.0
 70
   128
 13
146.46562542980001
 23
58.659848013599991
 33
0.0
 14
144.8382233433
 24
66.409848013599998
 34
0.0
 50
90.0
  0
DIMENSION
  5
15F
  8
UNIT-DIM
  6
CONTINUOUS
 62
     7
  2
*D10
 10
23.530014207099999
 20
58.659848013599991
 30
0.0
 11
23.530014207099999
 21
85.845271583799999
 31
0.0
 70
   128
 13
20.355014207100002
 23
116.030695154
 33
0.0
 14
20.355014207100002
 24
58.659848013599991
 34
0.0
 50
270.0
  0
DIMENSION
  5
160
  8
UNIT-DIM
  6
CONTINUOUS
 62
     7
  2
*D11
 10
180.4126995021
 20
72.409848013599984
 30
0.0
 11
180.4126995021
 21
64.034848013599998
 31
0.0
 70
   128
 13
146.46562542980001
 23
58.659848013599991
 33
0.0
 14
144.8382233433
 24
72.409848013599984
 34
0.0
 50
90.0
  0
DIMENSION
  5
161
  8
UNIT-DIM
  6
CONTINUOUS
 62
     7
  2
*D12
 10
190.87319212489999
 20
77.909848013599998
 30
0.0
 11
190.87319212489999
 21
49.365700052100003
 31
0.0
 70
   128
 13
146.46562542980001
 23
58.659848013599991
 33
0.0
 14
144.8382233433
 24
77.909848013599998
 34
0.0
 50
90.0
  0
DIMENSION
  5
162
  8
UNIT-DIM
  6
CONTINUOUS
 62
     7
  2
*D13
 10
204.0440955487
 20
84.909848013599984
 30
0.0
 11
204.0440955487
 21
70.284848013599998
 31
0.0
 70
   128
 13
146.46562542980001
 23
58.659848013599991
 33
0.0
 14
144.8382233433
 24
84.909848013599984
 34
0.0
 50
90.0
  0
DIMENSION
  5
163
  8
UNIT-DIM
  6
CONTINUOUS
 62
     7
  2
*D14
 10
216.56895837030001
 20
94.409848013599998
 30
0.0
 11
216.56895837030001
 21
75.034848013599984
 31
0.0
 70
   128
 13
146.46562542980001
 23
58.659848013599991
 33
0.0
 14
144.8382233433
 24
94.409848013599998
 34
0.0
 50
90.0
  0
LINE
  5
164
  8
NOTES
  6
CONTINUOUS
 62
     1
 10
0.0
 20
0.0
 30
0.0
 11
48.0
 21
0.0
 31
0.0
  0
LINE
  5
165
  8
NOTES
  6
CONTINUOUS
 62
     1
 10
0.0
 20
0.0
 30
0.0
 11
0.0
 21
36.5
 31
0.0
  0
LINE
  5
166
  8
NOTES
  6
CONTINUOUS
 62
     1
 10
0.0
 20
4.0
 30
0.0
 11
48.0
 21
4.0
 31
0.0
  0
LINE
  5
167
  8
NOTES
  6
CONTINUOUS
 62
     1
 10
0.0
 20
4.5
 30
0.0
 11
48.0
 21
4.5
 31
0.0
  0
LINE
  5
168
  8
NOTES
  6
CONTINUOUS
 62
     1
 10
0.0
 20
8.5
 30
0.0
 11
48.0
 21
8.5
 31
0.0
  0
LINE
  5
169
  8
NOTES
  6
CONTINUOUS
 62
     1
 10
0.0
 20
12.5
 30
0.0
 11
48.0
 21
12.5
 31
0.0
  0
LINE
  5
16A
  8
NOTES
  6
CONTINUOUS
 62
     1
 10
0.0
 20
16.5
 30
0.0
 11
48.0
 21
16.5
 31
0.0
  0
LINE
  5
16B
  8
NOTES
  6
CONTINUOUS
 62
     1
 10
0.0
 20
20.5
 30
0.0
 11
48.0
 21
20.5
 31
0.0
  0
LINE
  5
16C
  8
NOTES
  6
CONTINUOUS
 62
     1
 10
0.0
 20
24.5
 30
0.0
 11
48.0
 21
24.5
 31
0.0
  0
LINE
  5
16D
  8
NOTES
  6
CONTINUOUS
 62
     1
 10
0.0
 20
28.5
 30
0.0
 11
48.0
 21
28.5
 31
0.0
  0
LINE
  5
16E
  8
NOTES
  6
CONTINUOUS
 62
     1
 10
0.0
 20
32.5
 30
0.0
 11
48.0
 21
32.5
 31
0.0
  0
LINE
  5
16F
  8
NOTES
  6
CONTINUOUS
 62
     1
 10
0.0
 20
36.5
 30
0.0
 11
48.0
 21
36.5
 31
0.0
  0
LINE
  5
170
  8
NOTES
  6
CONTINUOUS
 62
     1
 10
16.0
 20
12.5
 30
0.0
 11
16.0
 21
36.5
 31
0.0
  0
LINE
  5
171
  8
NOTES
  6
CONTINUOUS
 62
     1
 10
48.0
 20
0.0
 30
0.0
 11
48.0
 21
36.5
 31
0.0
  0
TEXT
  5
172
  8
NOTES
  6
CONTINUOUS
 62
     1
 10
0.8
 20
1.0
 30
0.0
 40
2.0
  1
VIEW: LEFT
 41
0.8
  0
TEXT
  5
173
  8
NOTES
  6
CONTINUOUS
 62
     1
 10
0.8
 20
5.5
 30
0.0
 40
2.0
  1
FILE NAME: 
 41
0.8
  0
TEXT
  5
174
  8
NOTES
  6
CONTINUOUS
 62
     1
 10
18.399999999999999
 20
5.5
 30
0.0
 40
2.0
  1
TSP50-L-
 41
0.8
  0
TEXT
  5
175
  8
NOTES
  6
CONTINUOUS
 62
     1
 10
17.066666666666659
 20
9.5
 30
0.0
 40
2.0
  1
LAYER KEY
 41
0.8
 72
     1
 11
24.0
 21
9.5
 31
0.0
  0
TEXT
  5
176
  8
NOTES
  6
CONTINUOUS
 62
     7
 10
5.5555555555333331
 20
13.5
 30
0.0
 40
2.0
  1
-
 41
3.6666666666999999
  7
TEXTSTYLE_2
 72
     1
 11
8.0
 21
13.5
 31
0.0
  0
TEXT
  5
177
  8
NOTES
  6
CONTINUOUS
 62
     1
 10
16.800000000000001
 20
13.5
 30
0.0
 40
2.0
  1
UNIT
 41
0.8
  0
TEXT
  5
178
  8
NOTES
  6
CONTINUOUS
 62
     6
 10
5.5555555555333331
 20
17.5
 30
0.0
 40
2.0
  1
-
 41
3.6666666666999999
  7
TEXTSTYLE_2
 72
     1
 11
8.0
 21
17.5
 31
0.0
  0
TEXT
  5
179
  8
NOTES
  6
CONTINUOUS
 62
     1
 10
16.800000000000001
 20
17.5
 30
0.0
 40
2.0
  1
ROOF CURB
 41
0.8
  0
TEXT
  5
17A
  8
NOTES
  6
CONTINUOUS
 62
     1
 10
5.5555555555333331
 20
21.5
 30
0.0
 40
2.0
  1
-
 41
3.6666666666999999
  7
TEXTSTYLE_2
 72
     1
 11
8.0
 21
21.5
 31
0.0
  0
TEXT
  5
17B
  8
NOTES
  6
CONTINUOUS
 62
     1
 10
16.800000000000001
 20
21.5
 30
0.0
 40
2.0
  1
SERVICE CLEARANCE
 41
0.8
  0
TEXT
  5
17C
  8
NOTES
  6
CONTINUOUS
 62
     2
 10
5.5555555555333331
 20
25.5
 30
0.0
 40
2.0
  1
-
 41
3.6666666666999999
  7
TEXTSTYLE_2
 72
     1
 11
8.0
 21
25.5
 31
0.0
  0
TEXT
  5
17D
  8
NOTES
  6
CONTINUOUS
 62
     1
 10
16.800000000000001
 20
25.5
 30
0.0
 40
2.0
  1
UNIT DUCTS
 41
0.8
  0
TEXT
  5
17E
  8
NOTES
  6
CONTINUOUS
 62
     5
 10
5.5555555555333331
 20
29.5
 30
0.0
 40
2.0
  1
-
 41
3.6666666666999999
  7
TEXTSTYLE_2
 72
     1
 11
8.0
 21
29.5
 31
0.0
  0
TEXT
  5
17F
  8
NOTES
  6
CONTINUOUS
 62
     1
 10
16.800000000000001
 20
29.5
 30
0.0
 40
2.0
  1
CURB DUCTS
 41
0.8
  0
TEXT
  5
180
  8
NOTES
  6
HIDDEN
 62
     8
 10
5.5555555555333331
 20
33.5
 30
0.0
 40
2.0
  1
-
 41
3.6666666666999999
  7
TEXTSTYLE_2
 72
     1
 11
8.0
 21
33.5
 31
0.0
  0
TEXT
  5
181
  8
NOTES
  6
CONTINUOUS
 62
     1
 10
16.800000000000001
 20
33.5
 30
0.0
 40
2.0
  1
UNIT HIDDEN
 41
0.8
  0
TEXT
  5
182
  8
NOTES
  6
CONTINUOUS
 62
     1
 10
160.66722122300001
 20
104.2245953237
 30
0.0
 40
2.0
  1
2-1/2" (64) DIA.
 41
0.8
  0
TEXT
  5
183
  8
NOTES
  6
CONTINUOUS
 62
     1
 10
160.66722122300001
 20
101.2245953237
 30
0.0
 40
2.0
  1
POWER
 41
0.8
  0
TEXT
  5
184
  8
NOTES
  6
CONTINUOUS
 62
     1
 10
160.66722122300001
 20
98.224595323700015
 30
0.0
 40
2.0
  1
CONNECTION
 41
0.8
  0
LINE
  5
185
  8
NOTES
  6
CONTINUOUS
 62
     1
 10
145.46715271389999
 20
94.991488521500003
 30
0.0
 11
154.31722122299999
 21
105.2245953237
 31
0.0
  0
LINE
  5
186
  8
NOTES
  6
CONTINUOUS
 62
     1
 10
154.31722122299999
 20
105.2245953237
 30
0.0
 11
160.66722122300001
 21
105.2245953237
 31
0.0
  0
SOLID
  5
187
  8
NOTES
  6
CONTINUOUS
 62
     1
 10
147.51645149999999
 20
98.507576473400007
 30
0.0
 11
145.46715271389999
 21
94.991488521500003
 31
0.0
 12
148.6510064631
 22
97.526360373000003
 32
0.0
 13
148.6510064631
 23
97.526360373000003
 33
0.0
  0
LINE
  5
188
  8
NOTES
  6
CONTINUOUS
 62
     1
 10
145.41500177079999
 20
85.543239266499995
 30
0.0
 11
154.31722122299999
 21
105.2245953237
 31
0.0
  0
LINE
  5
189
  8
NOTES
  6
CONTINUOUS
 62
     1
 10
154.31722122299999
 20
105.2245953237
 30
0.0
 11
160.66722122300001
 21
105.2245953237
 31
0.0
  0
SOLID
  5
18A
  8
NOTES
  6
CONTINUOUS
 62
     1
 10
146.38013366999999
 20
89.496847797599997
 30
0.0
 11
145.41500177079999
 21
85.543239266499995
 31
0.0
 12
147.74682817870001
 22
88.878668114999996
 32
0.0
 13
147.74682817870001
 23
88.878668114999996
 33
0.0
  0
LINE
  5
18B
  8
NOTES
  6
CONTINUOUS
 62
     1
 10
145.1694947549
 20
67.199858827100002
 30
0.0
 11
154.31722122299999
 21
105.2245953237
 31
0.0
  0
LINE
  5
18C
  8
NOTES
  6
CONTINUOUS
 62
     1
 10
154.31722122299999
 20
105.2245953237
 30
0.0
 11
160.66722122300001
 21
105.2245953237
 31
0.0
  0
SOLID
  5
18D
  8
NOTES
  6
CONTINUOUS
 62
     1
 10
145.37589808620001
 20
71.264326524699996
 30
0.0
 11
145.1694947549
 21
67.199858827100002
 31
0.0
 12
146.83428917680001
 22
70.913476946000003
 32
0.0
 13
146.83428917680001
 23
70.913476946000003
 33
0.0
  0
TEXT
  5
18E
  8
NOTES
  6
CONTINUOUS
 62
     1
 10
101.3410671462333
 20
133.7704361511
 30
0.0
 40
2.0
  1
7/8" (22) DIA.
 41
0.8
 72
     2
 11
120.0077338129
 21
133.7704361511
 31
0.0
  0
TEXT
  5
18F
  8
NOTES
  6
CONTINUOUS
 62
     1
 10
92.274400479566665
 20
130.7704361511
 30
0.0
 40
2.0
  1
CONTROL CONNECTION
 41
0.8
 72
     2
 11
120.0077338129
 21
130.7704361511
 31
0.0
  0
LINE
  5
190
  8
NOTES
  6
CONTINUOUS
 62
     1
 10
144.8382233433
 20
77.909848013599998
 30
0.0
 11
126.35773381289999
 21
134.7704361511
 31
0.0
  0
LINE
  5
191
  8
NOTES
  6
CONTINUOUS
 62
     1
 10
126.35773381289999
 20
134.7704361511
 30
0.0
 11
120.0077338129
 21
134.7704361511
 31
0.0
  0
SOLID
  5
192
  8
NOTES
  6
CONTINUOUS
 62
     1
 10
142.8885581353
 20
81.482144974500002
 30
0.0
 11
144.8382233433
 21
77.909848013599998
 31
0.0
 12
144.31510335039999
 22
81.945792199600007
 32
0.0
 13
144.31510335039999
 23
81.945792199600007
 33
0.0
  0
TEXT
  5
193
  8
NOTES
  6
CONTINUOUS
 62
     1
 10
96.606632194199989
 20
125.87437050360001
 30
0.0
 40
2.0
  1
7/8" (22) DIA. 
 41
0.8
 72
     2
 11
117.4066321942
 21
125.87437050360001
 31
0.0
  0
TEXT
  5
194
  8
NOTES
  6
CONTINUOUS
 62
     1
 10
100.33996552753329
 20
122.87437050360001
 30
0.0
 40
2.0
  1
CONVENIENCE
 41
0.8
 72
     2
 11
117.4066321942
 21
122.87437050360001
 31
0.0
  0
TEXT
  5
195
  8
NOTES
  6
CONTINUOUS
 62
     1
 10
91.27329886086666
 20
119.87437050360001
 30
0.0
 40
2.0
  1
OUTLET CONNECTION
 41
0.8
 72
     2
 11
117.4066321942
 21
119.87437050360001
 31
0.0
  0
LINE
  5
196
  8
NOTES
  6
CONTINUOUS
 62
     1
 10
144.8382233433
 20
72.409848013599984
 30
0.0
 11
123.75663219419999
 21
126.87437050360001
 31
0.0
  0
LINE
  5
197
  8
NOTES
  6
CONTINUOUS
 62
     1
 10
123.75663219419999
 20
126.87437050360001
 30
0.0
 11
117.4066321942
 21
126.87437050360001
 31
0.0
  0
SOLID
  5
198
  8
NOTES
  6
CONTINUOUS
 62
     1
 10
142.6949009503
 20
75.869424450099999
 30
0.0
 11
144.8382233433
 21
72.409848013599984
 31
0.0
 12
144.09376563329999
 22
76.410883219399992
 32
0.0
 13
144.09376563329999
 23
76.410883219399992
 33
0.0
  0
LINE
  5
199
  8
0
  6
CONTINUOUS
 62
     7
 10
0.0
 20
0.0
 30
0.0
 11
0.0
 21
150.0
 31
0.0
  0
LINE
  5
19A
  8
SERVCLEAR
  6
DASHED
 62
     1
 10
14.8317304078
 20
116.030695154
 30
0.0
 11
14.8317304078
 21
58.659848013599991
 31
0.0
  0
LINE
  5
19B
  8
0
  6
CONTINUOUS
 62
     7
 10
0.0
 20
0.0
 30
0.0
 11
225.0
 21
0.0
 31
0.0
  0
LINE
  5
19C
  8
SERVCLEAR
  6
DASHED
 62
     1
 10
56.831730407799988
 20
116.030695154
 30
0.0
 11
56.831730407799988
 21
58.659848013599991
 31
0.0
  0
LINE
  5
19D
  8
UNIT-SOL
  6
CONTINUOUS
 62
     7
 10
86.567504591700001
 20
114.8744285943
 30
0.0
 11
86.635848468299997
 21
114.94278975100001
 31
0.0
  0
LINE
  5
19E
  8
UNIT-SOL
  6
CONTINUOUS
 62
     7
 10
86.592848471499991
 20
114.8490847148
 30
0.0
 11
86.661192348099988
 21
114.91744587159999
 31
0.0
  0
LINE
  5
19F
  8
HOOD
  6
CONTINUOUS
 62
     7
 10
56.831730407799988
 20
84.719045174800002
 30
0.0
 11
56.942094886200003
 21
84.346904317899998
 31
0.0
  0
LINE
  5
1A0
  8
HOOD
  6
CONTINUOUS
 62
     7
 10
56.868177192799997
 20
84.729854067000005
 30
0.0
 11
56.978541671099997
 21
84.35771321
 31
0.0
  0
LINE
  5
1A1
  8
HOOD
  6
CONTINUOUS
 62
     7
 10
57.289675583399998
 20
84.934161010600008
 30
0.0
 11
57.300484475600001
 21
84.897714225699985
 31
0.0
  0
POLYLINE
  5
1A2
  8
CURB-24
  6
CONTINUOUS
 62
     6
 66
     1
 10
0.0
 20
0.0
 30
0.0
 40
0.0098425194
 41
0.0098425194
  0
VERTEX
  5
294
  8
CURB-24
  6
CONTINUOUS
 62
     6
 10
87.495190123399993
 20
37.661577260100003
 30
0.0
  0
VERTEX
  5
295
  8
CURB-24
  6
CONTINUOUS
 62
     6
 10
147.55769012339999
 20
37.661577260100003
 30
0.0
  0
SEQEND
  5
296
  8
CURB-24
  6
CONTINUOUS
 62
     6
  0
LINE
  5
1A6
  8
HOOD
  6
CONTINUOUS
 62
     7
 10
76.858585841199996
 20
62.7177860591
 30
0.0
 11
61.894156600999999
 21
85.319865246299983
 31
0.0
  0
LINE
  5
1A7
  8
UNIT-SOL
  6
CONTINUOUS
 62
     7
 10
85.8396569035
 20
60.03443469909999
 30
0.0
 11
85.8396569035
 21
61.042727511400003
 31
0.0
  0
LINE
  5
1A8
  8
UNIT-SOL
  6
CONTINUOUS
 62
     7
 10
85.957816217499996
 20
58.864657491099997
 30
0.0
 11
85.957816217499996
 21
59.778453151299999
 31
0.0
  0
LINE
  5
1A9
  8
UNIT-SOL
  6
CONTINUOUS
 62
     7
 10
85.957816217499996
 20
61.298709059300002
 30
0.0
 11
85.957816217499996
 21
62.212504719399988
 31
0.0
  0
LINE
  5
1AA
  8
UNIT-SOL
  6
CONTINUOUS
 62
     7
 10
86.297721177299991
 20
62.443309245999998
 30
0.0
 11
86.297721177299991
 21
62.413375553100003
 31
0.0
  0
LINE
  5
1AB
  8
UNIT-SOL
  6
CONTINUOUS
 62
     7
 10
86.670456429999987
 20
115.0263620283
 30
0.0
 11
86.670456430100003
 21
115.8767156604
 31
0.0
  0
LINE
  5
1AC
  8
UNIT-SOL
  6
CONTINUOUS
 62
     7
 10
86.735444128699996
 20
114.9971491215
 30
0.0
 11
86.735444120699995
 21
62.443309245999998
 31
0.0
  0
LINE
  5
1AD
  8
UNIT-SOL
  6
CONTINUOUS
 62
     7
 10
88.587254817099989
 20
62.413375553100003
 30
0.0
 11
88.587254817099989
 21
58.659848013599991
 31
0.0
  0
POLYLINE
  5
1AE
  8
CURB-14
  6
DOT
 62
     6
 66
     1
 10
0.0
 20
0.0
 30
0.0
 40
0.0098425194
 41
0.0098425194
  0
VERTEX
  5
297
  8
CURB-14
  6
DOT
 62
     6
 10
88.745190123399993
 20
60.514044848499999
 30
0.0
  0
VERTEX
  5
298
  8
CURB-14
  6
DOT
 62
     6
 10
88.745190123399993
 20
61.659848013599998
 30
0.0
  0
SEQEND
  5
299
  8
CURB-14
  6
DOT
 62
     6
  0
POLYLINE
  5
1B2
  8
CURB-24
  6
DOT
 62
     6
 66
     1
 10
0.0
 20
0.0
 30
0.0
 40
0.0098425194
 41
0.0098425194
  0
VERTEX
  5
29A
  8
CURB-24
  6
DOT
 62
     6
 10
88.745190123399993
 20
60.514044848499999
 30
0.0
  0
VERTEX
  5
29B
  8
CURB-24
  6
DOT
 62
     6
 10
88.745190123399993
 20
61.659848013599998
 30
0.0
  0
SEQEND
  5
29C
  8
CURB-24
  6
DOT
 62
     6
  0
LINE
  5
1B6
  8
UNIT-SOL
  6
CONTINUOUS
 62
     7
 10
86.067704379500015
 20
58.847721322700011
 30
0.0
 11
86.067712641499995
 21
58.864657491099997
 31
0.0
  0
LINE
  5
1B7
  8
HOOD
  6
CONTINUOUS
 62
     7
 10
57.289675583399998
 20
84.934161010600008
 30
0.0
 11
56.883006193299998
 21
84.813556529099998
 31
0.0
  0
LINE
  5
1B8
  8
HOOD
  6
CONTINUOUS
 62
     7
 10
56.893815085500002
 20
84.777109744200004
 30
0.0
 11
57.300484475600001
 21
84.897714225699985
 31
0.0
  0
LINE
  5
1B9
  8
HOOD
  6
CONTINUOUS
 62
     7
 10
57.025797348299989
 20
84.332075317299996
 30
0.0
 11
86.735444120699995
 21
93.142958633999996
 31
0.0
  0
LINE
  5
1BA
  8
HOOD
  6
CONTINUOUS
 62
     7
 10
57.036606240499999
 20
84.295628532300015
 30
0.0
 11
57.696005310499999
 21
84.491184148000002
 31
0.0
  0
LINE
  5
1BB
  8
HOOD
  6
CONTINUOUS
 62
     7
 10
61.894156600999999
 20
85.319865246299983
 30
0.0
 11
58.19218992079999
 21
84.221986274100004
 31
0.0
  0
POLYLINE
  5
1BC
  8
CURB-14
  6
CONTINUOUS
 62
     6
 66
     1
 10
0.0
 20
0.0
 30
0.0
 40
0.0098425194
 41
0.0098425194
  0
VERTEX
  5
29D
  8
CURB-14
  6
CONTINUOUS
 62
     6
 10
87.495190123399993
 20
47.659848013599998
 30
0.0
  0
VERTEX
  5
29E
  8
CURB-14
  6
CONTINUOUS
 62
     6
 10
147.55769012339999
 20
47.659848013599998
 30
0.0
  0
SEQEND
  5
29F
  8
CURB-14
  6
CONTINUOUS
 62
     6
  0
LINE
  5
1C0
  8
UNIT-SOL
  6
CONTINUOUS
 62
     7
 10
85.916308261799983
 20
59.868376411699998
 30
0.0
 11
85.864301473099999
 21
59.933699511299999
 31
0.0
  0
POLYLINE
  5
1C1
  8
CURB-24
  6
CONTINUOUS
 62
     6
 66
     1
 10
0.0
 20
0.0
 30
0.0
 40
0.0118110236
 41
0.0118110236
  0
VERTEX
  5
2A0
  8
CURB-24
  6
CONTINUOUS
 62
     6
 10
90.495190123400008
 20
58.659848013599991
 30
0.0
  0
VERTEX
  5
2A1
  8
CURB-24
  6
CONTINUOUS
 62
     6
 10
90.495190123400008
 20
37.661577260100003
 30
0.0
  0
SEQEND
  5
2A2
  8
CURB-24
  6
CONTINUOUS
 62
     6
  0
POLYLINE
  5
1C5
  8
CURB-14
  6
CONTINUOUS
 62
     6
 66
     1
 10
0.0
 20
0.0
 30
0.0
 40
0.0118110236
 41
0.0118110236
  0
VERTEX
  5
2A3
  8
CURB-14
  6
CONTINUOUS
 62
     6
 10
90.495190123400008
 20
58.659848013599991
 30
0.0
  0
VERTEX
  5
2A4
  8
CURB-14
  6
CONTINUOUS
 62
     6
 10
90.495190123400008
 20
47.659848013599998
 30
0.0
  0
SEQEND
  5
2A5
  8
CURB-14
  6
CONTINUOUS
 62
     6
  0
POLYLINE
  5
1C9
  8
CURB-14
  6
DOT
 62
     6
 66
     1
 10
0.0
 20
0.0
 30
0.0
 40
0.0098425194
 41
0.0098425194
  0
VERTEX
  5
2A6
  8
CURB-14
  6
DOT
 62
     6
 10
90.495190123400008
 20
58.659848013599991
 30
0.0
  0
VERTEX
  5
2A7
  8
CURB-14
  6
DOT
 62
     6
 10
90.495190123400008
 20
60.512566676799999
 30
0.0
  0
SEQEND
  5
2A8
  8
CURB-14
  6
DOT
 62
     6
  0
POLYLINE
  5
1CD
  8
CURB-24
  6
DOT
 62
     6
 66
     1
 10
0.0
 20
0.0
 30
0.0
 40
0.0098425194
 41
0.0098425194
  0
VERTEX
  5
2A9
  8
CURB-24
  6
DOT
 62
     6
 10
90.495190123400008
 20
58.659848013599991
 30
0.0
  0
VERTEX
  5
2AA
  8
CURB-24
  6
DOT
 62
     6
 10
90.495190123400008
 20
60.512566676799999
 30
0.0
  0
SEQEND
  5
2AB
  8
CURB-24
  6
DOT
 62
     6
  0
LINE
  5
1D1
  8
UNIT-SOL
  6
CONTINUOUS
 62
     7
 10
148.79730255819999
 20
58.659848013599991
 30
0.0
 11
88.587254817099989
 21
58.659848013599991
 31
0.0
  0
LINE
  5
1D2
  8
SERVCLEAR
  6
DASHED
 62
     1
 10
14.8317304078
 20
58.659848013599991
 30
0.0
 11
56.831730407799988
 21
58.659848013599991
 31
0.0
  0
LINE
  5
1D3
  8
UNIT-SOL
  6
CONTINUOUS
 62
     7
 10
86.255577688600013
 20
58.659848013599991
 30
0.0
 11
88.404501744899989
 21
58.659848013599991
 31
0.0
  0
LINE
  5
1D4
  8
SERVCLEAR
  6
DASHED
 62
     1
 10
149.2132233433
 20
58.659848013599991
 30
0.0
 11
197.2132233433
 21
58.659848013599991
 31
0.0
  0
LINE
  5
1D5
  8
UNIT-SOL
  6
CONTINUOUS
 62
     7
 10
88.592375054000016
 20
58.864657491099997
 30
0.0
 11
85.957816217499996
 21
58.864657491099997
 31
0.0
  0
LINE
  5
1D6
  8
UNIT-SOL
  6
CONTINUOUS
 62
     7
 10
146.46562542980001
 20
58.864657491099997
 30
0.0
 11
149.09506402939999
 21
58.864657491099997
 31
0.0
  0
LINE
  5
1D7
  8
HOOD
  6
CONTINUOUS
 62
     7
 10
58.19218992079999
 20
84.221986274100004
 30
0.0
 11
57.696005310499999
 21
84.491184148000002
 31
0.0
  0
LINE
  5
1D8
  8
UNIT-SOL
  6
CONTINUOUS
 62
     7
 10
85.864301473099999
 20
61.143462699200001
 30
0.0
 11
85.882535709799996
 21
61.167379395799998
 31
0.0
  0
LINE
  5
1D9
  8
UNIT-SOL
  6
CONTINUOUS
 62
     7
 10
85.882535709799996
 20
61.167379395799998
 30
0.0
 11
85.916308261799983
 21
61.208785798900003
 31
0.0
  0
LINE
  5
1DA
  8
UNIT-SOL
  6
CONTINUOUS
 62
     7
 10
148.1314188801
 20
114.84914324810001
 30
0.0
 11
148.34811414699999
 21
115.0023425799
 31
0.0
  0
POLYLINE
  5
1DB
  8
CURB-14
  6
DOT
 62
     6
 66
     1
 10
0.0
 20
0.0
 30
0.0
 40
0.0098425194
 41
0.0098425194
  0
VERTEX
  5
2AC
  8
CURB-14
  6
DOT
 62
     6
 10
88.745190123399993
 20
61.659848013599998
 30
0.0
  0
VERTEX
  5
2AD
  8
CURB-14
  6
DOT
 62
     6
 10
146.30769012339999
 20
61.659848013599998
 30
0.0
  0
SEQEND
  5
2AE
  8
CURB-14
  6
DOT
 62
     6
  0
POLYLINE
  5
1DF
  8
CURB-24
  6
DOT
 62
     6
 66
     1
 10
0.0
 20
0.0
 30
0.0
 40
0.0098425194
 41
0.0098425194
  0
VERTEX
  5
2AF
  8
CURB-24
  6
DOT
 62
     6
 10
88.745190123399993
 20
61.659848013599998
 30
0.0
  0
VERTEX
  5
2B0
  8
CURB-24
  6
DOT
 62
     6
 10
146.30769012339999
 20
61.659848013599998
 30
0.0
  0
SEQEND
  5
2B1
  8
CURB-24
  6
DOT
 62
     6
  0
LINE
  5
1E3
  8
UNIT-SOL
  6
CONTINUOUS
 62
     7
 10
88.592375054000016
 20
62.212504719399988
 30
0.0
 11
85.957816217499996
 21
62.212504719399988
 31
0.0
  0
LINE
  5
1E4
  8
UNIT-SOL
  6
CONTINUOUS
 62
     7
 10
146.46562542980001
 20
62.212504719399988
 30
0.0
 11
149.09506402939999
 21
62.212504719399988
 31
0.0
  0
LINE
  5
1E5
  8
UNIT-SOL
  6
CONTINUOUS
 62
     7
 10
86.713641962299988
 20
62.351538845500002
 30
0.0
 11
86.255577688600013
 21
62.351538845500002
 31
0.0
  0
LINE
  5
1E6
  8
UNIT-SOL
  6
CONTINUOUS
 62
     7
 10
148.3392382845
 20
62.351538845500002
 30
0.0
 11
148.79730255819999
 21
62.351538845500002
 31
0.0
  0
LINE
  5
1E7
  8
UNIT-SOL
  6
CONTINUOUS
 62
     7
 10
86.852965884799985
 20
62.413375553100003
 30
0.0
 11
86.255577688600013
 21
62.413375553100003
 31
0.0
  0
LINE
  5
1E8
  8
UNIT-SOL
  6
CONTINUOUS
 62
     7
 10
88.587254817099989
 20
62.413375553100003
 30
0.0
 11
146.46562542980001
 21
62.413375553100003
 31
0.0
  0
LINE
  5
1E9
  8
UNIT-SOL
  6
CONTINUOUS
 62
     7
 10
148.3392382845
 20
62.413375553100003
 30
0.0
 11
148.85835153709999
 21
62.413375553100003
 31
0.0
  0
LINE
  5
1EA
  8
UNIT-SOL
  6
CONTINUOUS
 62
     7
 10
86.735444120699995
 20
62.442770223999993
 30
0.0
 11
148.09084900389999
 21
62.442794790699999
 31
0.0
  0
LINE
  5
1EB
  8
UNIT-SOL
  6
CONTINUOUS
 62
     7
 10
86.735444120699995
 20
62.443309245999998
 30
0.0
 11
86.297721177299991
 21
62.443309245999998
 31
0.0
  0
LINE
  5
1EC
  8
UNIT-SOL
  6
CONTINUOUS
 62
     7
 10
148.85835153709999
 20
62.451265306499998
 30
0.0
 11
148.4383660716
 21
62.451265306499998
 31
0.0
  0
LINE
  5
1ED
  8
HOOD
  6
CONTINUOUS
 62
     7
 10
86.735444120699995
 20
62.7177860591
 30
0.0
 11
76.858585841199996
 21
62.7177860591
 31
0.0
  0
LINE
  5
1EE
  8
UNIT-SOL
  6
CONTINUOUS
 62
     7
 10
148.25833989360001
 20
62.442764985699988
 30
0.0
 11
148.09084900389999
 21
62.442794790699999
 31
0.0
  0
POLYLINE
  5
1EF
  8
CURB-14
  6
DOT
 62
     6
 66
     1
 10
0.0
 20
0.0
 30
0.0
 40
0.0098425194
 41
0.0098425194
  0
VERTEX
  5
2B2
  8
CURB-14
  6
DOT
 62
     6
 10
146.30769012339999
 20
60.409848013599998
 30
0.0
  0
VERTEX
  5
2B3
  8
CURB-14
  6
DOT
 62
     6
 10
88.745190123399993
 20
60.514044848499999
 30
0.0
  0
SEQEND
  5
2B4
  8
CURB-14
  6
DOT
 62
     6
  0
POLYLINE
  5
1F3
  8
CURB-24
  6
DOT
 62
     6
 66
     1
 10
0.0
 20
0.0
 30
0.0
 40
0.0098425194
 41
0.0098425194
  0
VERTEX
  5
2B5
  8
CURB-24
  6
DOT
 62
     6
 10
146.30769012339999
 20
60.409848013599998
 30
0.0
  0
VERTEX
  5
2B6
  8
CURB-24
  6
DOT
 62
     6
 10
88.745190123399993
 20
60.514044848499999
 30
0.0
  0
SEQEND
  5
2B7
  8
CURB-24
  6
DOT
 62
     6
  0
LINE
  5
1F7
  8
UNIT-SOL
  6
CONTINUOUS
 62
     7
 10
148.48502481529999
 20
114.8744287137
 30
0.0
 11
148.4596809354
 21
114.8490848342
 31
0.0
  0
LINE
  5
1F8
  8
UNIT-SOL
  6
CONTINUOUS
 62
     7
 10
86.567504591700001
 20
114.8744285943
 30
0.0
 11
86.592848471499991
 21
114.8490847148
 31
0.0
  0
LINE
  5
1F9
  8
UNIT-SOL
  6
CONTINUOUS
 62
     7
 10
86.706298128200004
 20
115.02629512190001
 30
0.0
 11
86.883450002099991
 21
114.84914324810001
 31
0.0
  0
LINE
  5
1FA
  8
UNIT-SOL
  6
CONTINUOUS
 62
     7
 10
149.13657198510001
 20
61.208785798900003
 30
0.0
 11
149.17034452729999
 21
61.167379405399998
 31
0.0
  0
LINE
  5
1FB
  8
UNIT-SOL
  6
CONTINUOUS
 62
     7
 10
149.17034452729999
 20
61.167379405399998
 30
0.0
 11
149.1885787738
 21
61.143462699200001
 31
0.0
  0
POLYLINE
  5
1FC
  8
CURB-24
  6
CONTINUOUS
 62
     6
 66
     1
 10
0.0
 20
0.0
 30
0.0
 40
0.0118110236
 41
0.0118110236
  0
VERTEX
  5
2B8
  8
CURB-24
  6
CONTINUOUS
 62
     6
 10
144.55769012339999
 20
58.659848013599991
 30
0.0
  0
VERTEX
  5
2B9
  8
CURB-24
  6
CONTINUOUS
 62
     6
 10
144.55769012339999
 20
37.661577260100003
 30
0.0
  0
SEQEND
  5
2BA
  8
CURB-24
  6
CONTINUOUS
 62
     6
  0
POLYLINE
  5
200
  8
CURB-14
  6
CONTINUOUS
 62
     6
 66
     1
 10
0.0
 20
0.0
 30
0.0
 40
0.0118110236
 41
0.0118110236
  0
VERTEX
  5
2BB
  8
CURB-14
  6
CONTINUOUS
 62
     6
 10
144.55769012339999
 20
58.659848013599991
 30
0.0
  0
VERTEX
  5
2BC
  8
CURB-14
  6
CONTINUOUS
 62
     6
 10
144.55769012339999
 20
47.659848013599998
 30
0.0
  0
SEQEND
  5
2BD
  8
CURB-14
  6
CONTINUOUS
 62
     6
  0
POLYLINE
  5
204
  8
CURB-14
  6
DOT
 62
     6
 66
     1
 10
0.0
 20
0.0
 30
0.0
 40
0.0098425194
 41
0.0098425194
  0
VERTEX
  5
2BE
  8
CURB-14
  6
DOT
 62
     6
 10
144.55769012339999
 20
58.659848013599991
 30
0.0
  0
VERTEX
  5
2BF
  8
CURB-14
  6
DOT
 62
     6
 10
144.55769012339999
 20
60.411517070400002
 30
0.0
  0
SEQEND
  5
2C0
  8
CURB-14
  6
DOT
 62
     6
  0
POLYLINE
  5
208
  8
CURB-24
  6
DOT
 62
     6
 66
     1
 10
0.0
 20
0.0
 30
0.0
 40
0.0098425194
 41
0.0098425194
  0
VERTEX
  5
2C1
  8
CURB-24
  6
DOT
 62
     6
 10
144.55769012339999
 20
58.659848013599991
 30
0.0
  0
VERTEX
  5
2C2
  8
CURB-24
  6
DOT
 62
     6
 10
144.55769012339999
 20
60.411517070400002
 30
0.0
  0
SEQEND
  5
2C3
  8
CURB-24
  6
DOT
 62
     6
  0
POLYLINE
  5
20C
  8
CURB-14
  6
DOT
 62
     6
 66
     1
 10
0.0
 20
0.0
 30
0.0
 40
0.0098425194
 41
0.0098425194
  0
VERTEX
  5
2C4
  8
CURB-14
  6
DOT
 62
     6
 10
146.30769012339999
 20
61.659848013599998
 30
0.0
  0
VERTEX
  5
2C5
  8
CURB-14
  6
DOT
 62
     6
 10
146.30769012339999
 20
60.409848013599998
 30
0.0
  0
SEQEND
  5
2C6
  8
CURB-14
  6
DOT
 62
     6
  0
POLYLINE
  5
210
  8
CURB-24
  6
DOT
 62
     6
 66
     1
 10
0.0
 20
0.0
 30
0.0
 40
0.0098425194
 41
0.0098425194
  0
VERTEX
  5
2C7
  8
CURB-24
  6
DOT
 62
     6
 10
146.30769012339999
 20
61.659848013599998
 30
0.0
  0
VERTEX
  5
2C8
  8
CURB-24
  6
DOT
 62
     6
 10
146.30769012339999
 20
60.409848013599998
 30
0.0
  0
SEQEND
  5
2C9
  8
CURB-24
  6
DOT
 62
     6
  0
LINE
  5
214
  8
UNIT-SOL
  6
CONTINUOUS
 62
     7
 10
146.46562542980001
 20
62.413375553100003
 30
0.0
 11
146.46562542980001
 21
58.659848013599991
 31
0.0
  0
LINE
  5
215
  8
UNIT-SOL
  6
CONTINUOUS
 62
     7
 10
148.37634030909999
 20
114.9348795273
 30
0.0
 11
148.37634030909999
 21
62.513291068999997
 31
0.0
  0
LINE
  5
216
  8
UNIT-SOL
  6
CONTINUOUS
 62
     7
 10
148.3820727328
 20
115.87671521030001
 30
0.0
 11
148.38207273250001
 21
115.0263620283
 31
0.0
  0
LINE
  5
217
  8
UNIT-SOL
  6
CONTINUOUS
 62
     7
 10
148.4383660716
 20
62.413375553100003
 30
0.0
 11
148.4383660716
 21
62.451265306499998
 31
0.0
  0
LINE
  5
218
  8
UNIT-SOL
  6
CONTINUOUS
 62
     7
 10
148.85835153709999
 20
62.451265306499998
 30
0.0
 11
148.85835153709999
 21
62.413375553100003
 31
0.0
  0
LINE
  5
219
  8
UNIT-SOL
  6
CONTINUOUS
 62
     7
 10
149.09506402939999
 20
62.212504719399988
 30
0.0
 11
149.09506402939999
 21
61.298709059300002
 31
0.0
  0
LINE
  5
21A
  8
UNIT-SOL
  6
CONTINUOUS
 62
     7
 10
149.09506402939999
 20
59.778453151299999
 30
0.0
 11
149.09506402939999
 21
58.864657491099997
 31
0.0
  0
LINE
  5
21B
  8
SERVCLEAR
  6
DASHED
 62
     1
 10
149.2132233433
 20
116.030695154
 30
0.0
 11
149.2132233433
 21
58.659848013599991
 31
0.0
  0
LINE
  5
21C
  8
UNIT-SOL
  6
CONTINUOUS
 62
     7
 10
149.2132233433
 20
61.042727511400003
 30
0.0
 11
149.2132233433
 21
60.03443469909999
 31
0.0
  0
LINE
  5
21D
  8
UNIT-SOL
  6
CONTINUOUS
 62
     7
 10
149.1885787738
 20
59.933699511299999
 30
0.0
 11
149.13657198510001
 21
59.868376411699998
 31
0.0
  0
LINE
  5
21E
  8
UNIT-SOL
  6
CONTINUOUS
 62
     7
 10
148.1314188801
 20
114.84914324810001
 30
0.0
 11
86.883450002099991
 21
114.84914324810001
 31
0.0
  0
LINE
  5
21F
  8
UNIT-SOL
  6
CONTINUOUS
 62
     7
 10
148.22807186040001
 20
116.030695154
 30
0.0
 11
86.8244575027
 21
116.030695154
 31
0.0
  0
LINE
  5
220
  8
SERVCLEAR
  6
DASHED
 62
     1
 10
14.8317304078
 20
116.030695154
 30
0.0
 11
56.831730407799988
 21
116.030695154
 31
0.0
  0
LINE
  5
221
  8
SERVCLEAR
  6
DASHED
 62
     1
 10
149.2132233433
 20
116.030695154
 30
0.0
 11
197.2132233433
 21
116.030695154
 31
0.0
  0
LINE
  5
222
  8
UNIT-SOL
  6
CONTINUOUS
 62
     7
 10
148.3913370146
 20
114.91744587159999
 30
0.0
 11
148.4596809354
 21
114.8490848342
 31
0.0
  0
LINE
  5
223
  8
UNIT-SOL
  6
CONTINUOUS
 62
     7
 10
148.4166808944
 20
114.94278975100001
 30
0.0
 11
148.48502481529999
 21
114.8744287137
 31
0.0
  0
LINE
  5
224
  8
0
  6
CONTINUOUS
 62
     7
 10
0.0
 20
150.0
 30
0.0
 11
225.0
 21
150.0
 31
0.0
  0
LINE
  5
225
  8
SERVCLEAR
  6
DASHED
 62
     1
 10
197.2132233433
 20
115.81103413699999
 30
0.0
 11
197.2132233433
 21
58.659848013599991
 31
0.0
  0
LINE
  5
226
  8
0
  6
CONTINUOUS
 62
     7
 10
225.0
 20
0.0
 30
0.0
 11
225.0
 21
150.0
 31
0.0
  0
CIRCLE
  5
227
  8
UNIT-SOL
  6
CONTINUOUS
 62
     7
 10
144.8382233433
 20
66.409848013599998
 30
0.0
 40
0.8566550260999999
  0
CIRCLE
  5
228
  8
UNIT-SOL
  6
CONTINUOUS
 62
     7
 10
144.8382233433
 20
84.909848013599984
 30
0.0
 40
0.8566550260999999
  0
CIRCLE
  5
229
  8
UNIT-SOL
  6
CONTINUOUS
 62
     7
 10
144.8382233433
 20
94.409848013599998
 30
0.0
 40
0.8566550260999999
  0
CIRCLE
  5
22A
  8
UNIT-SOL
  6
CONTINUOUS
 62
     7
 10
144.8382233433
 20
72.409848013599984
 30
0.0
 40
0.428327513
  0
CIRCLE
  5
22B
  8
UNIT-SOL
  6
CONTINUOUS
 62
     7
 10
144.8382233433
 20
77.909848013599998
 30
0.0
 40
0.428327513
  0
ARC
  5
22C
  8
UNIT-SOL
  6
CONTINUOUS
 62
     7
 10
86.057857769999984
 20
60.03443469909999
 30
0.0
 40
0.2182008664
 50
180.0
 51
207.4944466956
  0
ARC
  5
22D
  8
UNIT-SOL
  6
CONTINUOUS
 62
     7
 10
86.057857769999984
 20
61.042727511400003
 30
0.0
 40
0.2182008664
 50
152.5055533044
 51
180.0
  0
ARC
  5
22E
  8
UNIT-SOL
  6
CONTINUOUS
 62
     7
 10
148.9950224769
 20
60.03443469909999
 30
0.0
 40
0.2182008664
 50
332.5055533044
 51
0.0
  0
ARC
  5
22F
  8
UNIT-SOL
  6
CONTINUOUS
 62
     7
 10
148.9950224769
 20
61.042727511400003
 30
0.0
 40
0.2182008664
 50
0.0
 51
27.494446695600001
  0
ARC
  5
230
  8
UNIT-SOL
  6
CONTINUOUS
 62
     7
 10
86.255577688600013
 20
58.847721322700011
 30
0.0
 40
0.1878733092
 50
180.0
 51
270.0
  0
ARC
  5
231
  8
UNIT-SOL
  6
CONTINUOUS
 62
     7
 10
86.255577688600013
 20
62.225502243999991
 30
0.0
 40
0.1878733092
 50
90.0
 51
180.0
  0
ARC
  5
232
  8
UNIT-SOL
  6
CONTINUOUS
 62
     7
 10
86.713641962299988
 20
62.539412154700003
 30
0.0
 40
0.1878733092
 50
270.0
 51
328.69259537239998
  0
ARC
  5
233
  8
UNIT-SOL
  6
CONTINUOUS
 62
     7
 10
148.79730255819999
 20
58.847721322700011
 30
0.0
 40
0.1878733092
 50
270.0
 51
0.0
  0
ARC
  5
234
  8
UNIT-SOL
  6
CONTINUOUS
 62
     7
 10
148.79730255819999
 20
62.225502243999991
 30
0.0
 40
0.1878733092
 50
0.0
 51
90.0
  0
ARC
  5
235
  8
UNIT-SOL
  6
CONTINUOUS
 62
     7
 10
148.3392382845
 20
62.539412154700003
 30
0.0
 40
0.1878733092
 50
211.30740465240001
 51
270.0
  0
ARC
  5
236
  8
UNIT-SOL
  6
CONTINUOUS
 62
     7
 10
86.824457452699988
 20
115.8767046971
 30
0.0
 40
0.1540009725
 50
89.969656092500003
 51
185.7194788454
  0
ARC
  5
237
  8
UNIT-SOL
  6
CONTINUOUS
 62
     7
 10
86.552297166100004
 20
115.0263515151
 30
0.0
 40
0.1540009725
 50
311.23682593989997
 51
0.0039114266
  0
ARC
  5
238
  8
UNIT-SOL
  6
CONTINUOUS
 62
     7
 10
148.22807181030001
 20
115.8767046971
 30
0.0
 40
0.1540009725
 50
354.28577249410012
 51
89.96965609690001
  0
ARC
  5
239
  8
UNIT-SOL
  6
CONTINUOUS
 62
     7
 10
148.50023209650001
 20
115.0263515151
 30
0.0
 40
0.1540009725
 50
188.9690661418
 51
228.80145465090001
  0
ARC
  5
23A
  8
UNIT-SOL
  6
CONTINUOUS
 62
     7
 10
86.255577688600013
 20
62.225502243999991
 30
0.0
 40
0.1260366015
 50
90.0
 51
180.0
  0
ARC
  5
23B
  8
UNIT-SOL
  6
CONTINUOUS
 62
     7
 10
148.79730255819999
 20
62.225502243999991
 30
0.0
 40
0.1260366015
 50
0.0
 51
90.0
  0
ARC
  5
23C
  8
UNIT-SOL
  6
CONTINUOUS
 62
     7
 10
148.3392382845
 20
62.539412154700003
 30
0.0
 40
0.1260366015
 50
230.06902588739999
 51
270.0
  0
ARC
  5
23D
  8
UNIT-SOL
  6
CONTINUOUS
 62
     7
 10
85.8396569035
 20
59.778453151299999
 30
0.0
 40
0.1181593139
 50
0.0
 51
49.555441791600003
  0
ARC
  5
23E
  8
UNIT-SOL
  6
CONTINUOUS
 62
     7
 10
85.8396569035
 20
61.298709059300002
 30
0.0
 40
0.1181593139
 50
310.4445582084
 51
0.0
  0
ARC
  5
23F
  8
UNIT-SOL
  6
CONTINUOUS
 62
     7
 10
86.552297166100004
 20
115.0263515151
 30
0.0
 40
0.1181593139
 50
310.19653122130001
 51
0.0050978927
  0
ARC
  5
240
  8
UNIT-SOL
  6
CONTINUOUS
 62
     7
 10
149.2132233433
 20
59.778453151299999
 30
0.0
 40
0.1181593139
 50
130.4445582084
 51
180.0
  0
ARC
  5
241
  8
UNIT-SOL
  6
CONTINUOUS
 62
     7
 10
149.2132233433
 20
61.298709059300002
 30
0.0
 40
0.1181593139
 50
180.0
 51
229.5554417916
  0
ARC
  5
242
  8
UNIT-SOL
  6
CONTINUOUS
 62
     7
 10
148.50023209650001
 20
115.0263515151
 30
0.0
 40
0.1181593139
 50
179.99490210729999
 51
229.85308604709999
  0
ARC
  5
243
  8
HOOD
  6
CONTINUOUS
 62
     7
 10
56.904623977700012
 20
84.740662959199994
 30
0.0
 40
0.0760315799
 50
106.5185877258
 51
196.51858772590001
  0
ARC
  5
244
  8
HOOD
  6
CONTINUOUS
 62
     7
 10
57.014988456099999
 20
84.368522102299977
 30
0.0
 40
0.0760315799
 50
196.51858772579999
 51
286.51858772579999
  0
ARC
  5
245
  8
UNIT-SOL
  6
CONTINUOUS
 62
     7
 10
148.4383660716
 20
62.513291068999997
 30
0.0
 40
0.0620257625
 50
180.0
 51
270.0
  0
ARC
  5
246
  8
HOOD
  6
CONTINUOUS
 62
     7
 10
57.014988456099999
 20
84.368522102299977
 30
0.0
 40
0.0380157899
 50
196.51858772590001
 51
286.51858772579999
  0
ARC
  5
247
  8
HOOD
  6
CONTINUOUS
 62
     7
 10
56.904623977700012
 20
84.740662959199994
 30
0.0
 40
0.0380157899
 50
106.5185877258
 51
196.51858772599999
  0
ENDSEC
  0
EOF
