  0
SECTION
  2
HEADER
  9
$ACADVER
  1
AC1009
  9
$INSBASE
 10
0.0
 20
0.0
 30
0.0
  9
$EXTMIN
 10
-0.0068659312171917
 20
-0.004577287478071
 30
-0.0015258207003583
  9
$EXTMAX
 10
225.006866978955
 20
150.00457798597
 30
0.0000000349246037
  9
$LIMMIN
 10
0.0
 20
0.0
  9
$LIMMAX
 10
225.0
 20
150.0
  9
$ORTHOMODE
 70
     0
  9
$REGENMODE
 70
     1
  9
$FILLMODE
 70
     1
  9
$QTEXTMODE
 70
     0
  9
$MIRRTEXT
 70
     0
  9
$DRAGMODE
 70
     2
  9
$LTSCALE
 40
12.375
  9
$OSMODE
 70
    37
  9
$ATTMODE
 70
     1
  9
$TEXTSIZE
 40
0.2
  9
$TRACEWID
 40
0.05
  9
$TEXTSTYLE
  7
STANDARD
  9
$CLAYER
  8
0
  9
$CELTYPE
  6
ByLayer
  9
$CECOLOR
 62
   256
  9
$DIMSCALE
 40
1.0
  9
$DIMASZ
 40
4.0
  9
$DIMEXO
 40
1.587499999999999
  9
$DIMDLI
 40
8.5500000000000007
  9
$DIMRND
 40
0.0
  9
$DIMDLE
 40
0.0
  9
$DIMEXE
 40
1.587499999999999
  9
$DIMTP
 40
0.0
  9
$DIMTM
 40
0.0
  9
$DIMTXT
 40
2.0
  9
$DIMCEN
 40
2.024999999999999
  9
$DIMTSZ
 40
0.0
  9
$DIMTOL
 70
     0
  9
$DIMLIM
 70
     0
  9
$DIMTIH
 70
     1
  9
$DIMTOH
 70
     1
  9
$DIMSE1
 70
     0
  9
$DIMSE2
 70
     0
  9
$DIMTAD
 70
     0
  9
$DIMZIN
 70
     0
  9
$DIMBLK
  1
_FILLED
  9
$DIMASO
 70
     1
  9
$DIMSHO
 70
     1
  9
$DIMPOST
  1

  9
$DIMAPOST
  1

  9
$DIMALT
 70
     0
  9
$DIMALTD
 70
     2
  9
$DIMALTF
 40
25.399999999999999
  9
$DIMLFAC
 40
1.0
  9
$DIMTOFL
 70
     0
  9
$DIMTVP
 40
0.0
  9
$DIMTIX
 70
     0
  9
$DIMSOXD
 70
     0
  9
$DIMSAH
 70
     0
  9
$DIMBLK1
  1

  9
$DIMBLK2
  1

  9
$DIMSTYLE
  2
STANDARD
  9
$DIMCLRD
 70
     0
  9
$DIMCLRE
 70
     0
  9
$DIMCLRT
 70
     0
  9
$DIMTFAC
 40
1.0
  9
$DIMGAP
 40
0.09
  9
$LUNITS
 70
     2
  9
$LUPREC
 70
     4
  9
$SKETCHINC
 40
0.1
  9
$FILLETRAD
 40
0.0
  9
$AUNITS
 70
     0
  9
$AUPREC
 70
     0
  9
$MENU
  1
.
  9
$ELEVATION
 40
0.0
  9
$PELEVATION
 40
0.0
  9
$THICKNESS
 40
0.0
  9
$LIMCHECK
 70
     0
  9
$BLIPMODE
 70
     0
  9
$CHAMFERA
 40
0.0
  9
$CHAMFERB
 40
0.0
  9
$SKPOLY
 70
     0
  9
$TDCREATE
 40
2456262.566519178
  9
$TDUPDATE
 40
2456262.567474213
  9
$TDINDWG
 40
0.0009556134
  9
$TDUSRTIMER
 40
0.0009556134
  9
$USRTIMER
 70
     1
  9
$ANGBASE
 50
0.0
  9
$ANGDIR
 70
     0
  9
$PDMODE
 70
     3
  9
$PDSIZE
 40
7.9375
  9
$PLINEWID
 40
0.0
  9
$COORDS
 70
     1
  9
$SPLFRAME
 70
     0
  9
$SPLINETYPE
 70
     6
  9
$SPLINESEGS
 70
     8
  9
$ATTDIA
 70
     0
  9
$ATTREQ
 70
     1
  9
$HANDLING
 70
     1
  9
$HANDSEED
  5
30A
  9
$SURFTAB1
 70
     6
  9
$SURFTAB2
 70
     6
  9
$SURFTYPE
 70
     6
  9
$SURFU
 70
     6
  9
$SURFV
 70
     6
  9
$UCSNAME
  2

  9
$UCSORG
 10
0.0
 20
0.0
 30
0.0
  9
$UCSXDIR
 10
1.0
 20
0.0
 30
0.0
  9
$UCSYDIR
 10
0.0
 20
1.0
 30
0.0
  9
$PUCSNAME
  2

  9
$PUCSORG
 10
0.0
 20
0.0
 30
0.0
  9
$PUCSXDIR
 10
1.0
 20
0.0
 30
0.0
  9
$PUCSYDIR
 10
0.0
 20
1.0
 30
0.0
  9
$USERI1
 70
     0
  9
$USERI2
 70
     0
  9
$USERI3
 70
     0
  9
$USERI4
 70
     0
  9
$USERI5
 70
     0
  9
$USERR1
 40
0.0
  9
$USERR2
 40
0.0
  9
$USERR3
 40
0.0
  9
$USERR4
 40
0.0
  9
$USERR5
 40
0.0
  9
$WORLDVIEW
 70
     1
  9
$SHADEDGE
 70
     3
  9
$SHADEDIF
 70
    70
  9
$TILEMODE
 70
     1
  9
$MAXACTVP
 70
    64
  9
$PLIMCHECK
 70
     0
  9
$PEXTMIN
 10
1.0000000000000000E+020
 20
1.0000000000000000E+020
 30
1.0000000000000000E+020
  9
$PEXTMAX
 10
-1.0000000000000000E+020
 20
-1.0000000000000000E+020
 30
-1.0000000000000000E+020
  9
$PLIMMIN
 10
0.0
 20
0.0
  9
$PLIMMAX
 10
12.0
 20
9.0
  9
$UNITMODE
 70
     0
  9
$VISRETAIN
 70
     1
  9
$PLINEGEN
 70
     0
  9
$PSLTSCALE
 70
     1
  0
ENDSEC
  0
SECTION
  2
TABLES
  0
TABLE
  2
VPORT
 70
     1
  0
VPORT
  2
*ACTIVE
 70
     0
 10
0.0
 20
0.0
 11
1.0
 21
1.0
 12
112.50000052386891
 22
75.000000349245994
 13
0.0
 23
0.0
 14
1.0
 24
1.0
 15
0.0
 25
0.0
 16
0.0
 26
0.0
 36
1.0
 17
0.0
 27
0.0
 37
0.0
 40
206.00868840817719
 41
1.1005586592178771
 42
50.0
 43
0.0
 44
0.0
 50
0.0
 51
0.0
 71
     0
 72
   100
 73
     1
 74
     1
 75
     0
 76
     0
 77
     0
 78
     0
  0
ENDTAB
  0
TABLE
  2
LTYPE
 70
     8
  0
LTYPE
  2
ByBlock
 70
     0
  3

 72
    65
 73
     0
 40
0.0
  0
LTYPE
  2
ByLayer
 70
     0
  3

 72
    65
 73
     0
 40
0.0
  0
LTYPE
  2
CONTINUOUS
 70
     0
  3
Solid line
 72
    65
 73
     0
 40
0.0
  0
LTYPE
  2
CENTER
 70
     0
  3
____ _ ____ _ ____ _ ____ _ ____ _ ____ _ ____
 72
    65
 73
     4
 40
0.6
 49
0.375
 49
-0.075
 49
0.075
 49
-0.075
  0
LTYPE
  2
HIDDEN
 70
     0
  3
- - - - - - - - - - - - - - - - - - - -
 72
    65
 73
     2
 40
0.2
 49
0.1
 49
-0.1
  0
LTYPE
  2
PHANTOM
 70
     0
  3
_____ _ _ _____ _ _ _____ _ _ _____
 72
    65
 73
     6
 40
0.8
 49
0.45
 49
-0.05
 49
0.1
 49
-0.05
 49
0.1
 49
-0.05
  0
LTYPE
  2
DOT
 70
     0
  3
. . . . . . . . . . . . . . . . . . . .
 72
    65
 73
     2
 40
0.2
 49
0.1
 49
-0.1
  0
LTYPE
  2
DASHED
 70
     0
  3
- - - - - - - - - - - - - - - - - - - -
 72
    65
 73
     2
 40
0.2
 49
0.1
 49
-0.1
  0
ENDTAB
  0
TABLE
  2
LAYER
 70
    16
  0
LAYER
  2
0
 70
     0
 62
     7
  6
CONTINUOUS
  0
LAYER
  2
DEFAULT_1
 70
     0
 62
     7
  6
CENTER
  0
LAYER
  2
DEFAULT_2
 70
     0
 62
     8
  6
HIDDEN
  0
LAYER
  2
DEFAULT_3
 70
     0
 62
     7
  6
PHANTOM
  0
LAYER
  2
CURB-14
 70
     0
 62
     6
  6
CONTINUOUS
  0
LAYER
  2
CURB-14-DIM
 70
     0
 62
     6
  6
CONTINUOUS
  0
LAYER
  2
CURB-24
 70
     0
 62
     6
  6
CONTINUOUS
  0
LAYER
  2
CURB-24-DIM
 70
     0
 62
     6
  6
CONTINUOUS
  0
LAYER
  2
HOOD
 70
     0
 62
     7
  6
CONTINUOUS
  0
LAYER
  2
NOTES
 70
     0
 62
     1
  6
CONTINUOUS
  0
LAYER
  2
SERVCLEAR
 70
     0
 62
     1
  6
CONTINUOUS
  0
LAYER
  2
SERVCLRDIM
 70
     0
 62
     1
  6
CONTINUOUS
  0
LAYER
  2
UNIT-DIM
 70
     0
 62
     7
  6
CONTINUOUS
  0
LAYER
  2
UNIT-DUCTS
 70
     0
 62
     2
  6
CONTINUOUS
  0
LAYER
  2
UNIT-SOL
 70
     0
 62
     7
  6
CONTINUOUS
  0
LAYER
  2
UNITDUCTDIM
 70
     0
 62
     2
  6
CONTINUOUS
  0
ENDTAB
  0
TABLE
  2
STYLE
 70
     4
  0
STYLE
  2
STANDARD
 70
     0
 40
0.0
 41
0.8
 50
0.0
 71
     0
 42
0.2
  3
txt
  4

  0
STYLE
  2
ANNOTATIVE
 70
     0
 40
0.0
 41
1.0
 50
0.0
 71
     0
 42
0.2
  3
txt
  4

  0
STYLE
  2
TEXTSTYLE_1
 70
     0
 40
0.0
 41
0.8
 50
0.0
 71
     0
 42
0.2
  3
gdt
  4

  0
STYLE
  2
TEXTSTYLE_2
 70
     0
 40
0.0
 41
8.0
 50
0.0
 71
     0
 42
0.2
  3
txt
  4

  0
ENDTAB
  0
TABLE
  2
VIEW
 70
     0
  0
ENDTAB
  0
TABLE
  2
UCS
 70
     0
  0
ENDTAB
  0
TABLE
  2
APPID
 70
     4
  0
APPID
  2
ACAD
 70
     0
  0
APPID
  2
ACADANNOTATIVE
 70
     0
  0
APPID
  2
ACAD_NAV_VCDISPLAY
 70
     0
  0
APPID
  2
ACAD_MLEADERVER
 70
     0
  0
ENDTAB
  0
TABLE
  2
DIMSTYLE
 70
     2
  0
DIMSTYLE
  2
STANDARD
 70
     0
  3

  4

  5

  6

  7

 40
1.0
 41
0.18
 42
0.0625
 43
0.38
 44
0.18
 45
0.0
 46
0.0
 47
0.0
 48
0.0
140
0.18
141
0.09
142
0.0
143
25.399999999999999
144
1.0
145
0.0
146
1.0
147
0.09
 71
     0
 72
     0
 73
     1
 74
     1
 75
     0
 76
     0
 77
     0
 78
     0
170
     0
171
     2
172
     0
173
     0
174
     0
175
     0
176
     0
177
     0
178
     0
  0
DIMSTYLE
  2
ANNOTATIVE
 70
     0
  3

  4

  5

  6

  7

 40
1.0
 41
0.18
 42
0.0625
 43
0.38
 44
0.18
 45
0.0
 46
0.0
 47
0.0
 48
0.0
140
0.18
141
0.09
142
0.0
143
25.399999999999999
144
1.0
145
0.0
146
1.0
147
0.09
 71
     0
 72
     0
 73
     1
 74
     1
 75
     0
 76
     0
 77
     0
 78
     0
170
     0
171
     2
172
     0
173
     0
174
     0
175
     0
176
     0
177
     0
178
     0
  0
ENDTAB
  0
ENDSEC
  0
SECTION
  2
BLOCKS
  0
BLOCK
  8
0
  2
$MODEL_SPACE
 70
     0
 10
0.0
 20
0.0
 30
0.0
  3
$MODEL_SPACE
  1

  0
ENDBLK
  5
6D
  8
0
  0
BLOCK
 67
     1
  8
0
  2
$PAPER_SPACE
 70
     0
 10
0.0
 20
0.0
 30
0.0
  3
$PAPER_SPACE
  1

  0
ENDBLK
  5
69
 67
     1
  8
0
  0
BLOCK
  8
0
  2
_FILLED
 70
     0
 10
0.0
 20
0.0
 30
0.0
  3
_FILLED
  1

  0
SOLID
  5
8C
  8
0
  6
ByBlock
 62
     0
 10
0.0
 20
0.0
 30
0.0
 11
-1.0
 21
0.1875
 31
0.0
 12
-1.0
 22
-0.1875
 32
0.0
 13
-1.0
 23
-0.1875
 33
0.0
  0
ENDBLK
  5
8D
  8
0
  6
ByBlock
 62
     0
  0
BLOCK
  8
UNITDUCTDIM
  6
CONTINUOUS
 62
     2
  2
*D1
 70
     1
 10
0.0
 20
0.0
 30
0.0
  3
*D1
  1

  0
TEXT
  5
90
  8
UNITDUCTDIM
  6
CONTINUOUS
 62
     2
 10
78.087783830300012
 20
131.62042699259999
 30
0.0
 40
2.0
  1
11-7/8
 41
0.8
 72
     2
 11
86.087783830300012
 21
131.62042699259999
 31
0.0
  0
TEXT
  5
91
  8
UNITDUCTDIM
  6
CONTINUOUS
 62
     2
 10
89.154450496966675
 20
131.62042699259999
 30
0.0
 40
2.0
  1
[
 41
0.8
 72
     2
 11
89.687783830300006
 21
131.62042699259999
 31
0.0
  0
TEXT
  5
92
  8
UNITDUCTDIM
  6
CONTINUOUS
 62
     2
 10
92.087783830300012
 20
131.62042699259999
 30
0.0
 40
2.0
  1
301.7
 41
0.8
 72
     2
 11
97.687783830300006
 21
131.62042699259999
 31
0.0
  0
TEXT
  5
93
  8
UNITDUCTDIM
  6
CONTINUOUS
 62
     2
 10
98.754450496966669
 20
131.62042699259999
 30
0.0
 40
2.0
  1
]
 41
0.8
 72
     2
 11
99.2877838303
 21
131.62042699259999
 31
0.0
  0
TEXT
  5
94
  8
UNITDUCTDIM
  6
CONTINUOUS
 62
     2
 10
99.287783830300015
 20
131.62042699259999
 30
0.0
 40
2.0
  1
 
 41
0.8
 72
     2
 11
100.88778383029999
 21
131.62042699259999
 31
0.0
  0
LINE
  5
95
  8
UNITDUCTDIM
  6
CONTINUOUS
 62
     2
 10
107.16974166510001
 20
117.4724003927
 30
0.0
 11
107.16974166510001
 21
134.20792699259999
 31
0.0
  0
LINE
  5
96
  8
UNITDUCTDIM
  6
CONTINUOUS
 62
     2
 10
119.04869136009999
 20
117.4724003927
 30
0.0
 11
119.04869136009999
 21
134.20792699259999
 31
0.0
  0
LINE
  5
97
  8
UNITDUCTDIM
  6
CONTINUOUS
 62
     2
 10
107.16974166510001
 20
132.62042699259999
 30
0.0
 11
113.1092165126
 21
132.62042699259999
 31
0.0
  0
LINE
  5
98
  8
UNITDUCTDIM
  6
CONTINUOUS
 62
     2
 10
113.1092165126
 20
132.62042699259999
 30
0.0
 11
102.88778383029999
 21
132.62042699259999
 31
0.0
  0
LINE
  5
99
  8
UNITDUCTDIM
  6
CONTINUOUS
 62
     2
 10
119.04869136009999
 20
132.62042699259999
 30
0.0
 11
113.1092165126
 21
132.62042699259999
 31
0.0
  0
INSERT
  5
9A
  8
UNITDUCTDIM
  6
CONTINUOUS
 62
     2
  2
_FILLED
 10
107.16974166510001
 20
132.62042699259999
 30
0.0
 41
4.0
 42
4.0
 43
4.0
 50
180.0
  0
INSERT
  5
9B
  8
UNITDUCTDIM
  6
CONTINUOUS
 62
     2
  2
_FILLED
 10
119.04869136009999
 20
132.62042699259999
 30
0.0
 41
4.0
 42
4.0
 43
4.0
  0
ENDBLK
  5
9C
  8
0
  6
ByBlock
 62
     0
  0
BLOCK
  8
UNITDUCTDIM
  6
CONTINUOUS
 62
     2
  2
*D2
 70
     1
 10
0.0
 20
0.0
 30
0.0
  3
*D2
  1

  0
TEXT
  5
9F
  8
UNITDUCTDIM
  6
CONTINUOUS
 62
     2
 10
154.72037666543329
 20
96.623998220000004
 30
0.0
 40
2.0
  1
46-1/8
 41
0.8
 72
     1
 11
158.9870433321
 21
96.623998220000004
 31
0.0
  0
TEXT
  5
A0
  8
UNITDUCTDIM
  6
CONTINUOUS
 62
     2
 10
166.98704333209989
 20
96.623998220000004
 30
0.0
 40
2.0
  1
 
 41
0.8
 72
     1
 11
167.78704333210001
 21
96.623998220000004
 31
0.0
  0
TEXT
  5
A1
  8
UNITDUCTDIM
  6
CONTINUOUS
 62
     2
 10
154.72037666543329
 20
93.623998220000004
 30
0.0
 40
2.0
  1
[
 41
0.8
 72
     1
 11
154.9870433321
 21
93.623998220000004
 31
0.0
  0
TEXT
  5
A2
  8
UNITDUCTDIM
  6
CONTINUOUS
 62
     2
 10
157.38704333210001
 20
93.623998220000004
 30
0.0
 40
2.0
  1
1172.1
 41
0.8
 72
     1
 11
160.5870433321
 21
93.623998220000004
 31
0.0
  0
TEXT
  5
A3
  8
UNITDUCTDIM
  6
CONTINUOUS
 62
     2
 10
165.92037666543331
 20
93.623998220000004
 30
0.0
 40
2.0
  1
]
 41
0.8
 72
     1
 11
166.18704333209999
 21
93.623998220000004
 31
0.0
  0
LINE
  5
A4
  8
UNITDUCTDIM
  6
CONTINUOUS
 62
     2
 10
120.6361913601
 20
115.8849003924
 30
0.0
 11
162.97454333479999
 21
115.884900386
 31
0.0
  0
LINE
  5
A5
  8
UNITDUCTDIM
  6
CONTINUOUS
 62
     2
 10
124.8227971413
 20
69.740735045099996
 30
0.0
 11
162.97454332780001
 21
69.740735039300006
 31
0.0
  0
LINE
  5
A6
  8
UNITDUCTDIM
  6
CONTINUOUS
 62
     2
 10
161.38704333480001
 20
115.8849003862
 30
0.0
 11
161.38704333480001
 21
100.62399822
 31
0.0
  0
LINE
  5
A7
  8
UNITDUCTDIM
  6
CONTINUOUS
 62
     2
 10
161.3870433278
 20
69.740735039599997
 30
0.0
 11
161.38704333480001
 21
91.623998220000004
 31
0.0
  0
INSERT
  5
A8
  8
UNITDUCTDIM
  6
CONTINUOUS
 62
     2
  2
_FILLED
 10
161.38704333480001
 20
115.8849003862
 30
0.0
 41
4.0
 42
4.0
 43
4.0
 50
90.0
  0
INSERT
  5
A9
  8
UNITDUCTDIM
  6
CONTINUOUS
 62
     2
  2
_FILLED
 10
161.3870433278
 20
69.740735039599997
 30
0.0
 41
4.0
 42
4.0
 43
4.0
 50
269.9999999817
  0
ENDBLK
  5
AA
  8
0
  6
ByBlock
 62
     0
  0
BLOCK
  8
UNIT-DIM
  6
CONTINUOUS
 62
     7
  2
*D3
 70
     1
 10
0.0
 20
0.0
 30
0.0
  3
*D3
  1

  0
TEXT
  5
AD
  8
UNIT-DIM
  6
CONTINUOUS
 62
     7
 10
70.006785446233323
 20
35.692173704200002
 30
0.0
 40
2.0
  1
41-5/8
 41
0.8
 72
     1
 11
74.273452112900003
 21
35.692173704200002
 31
0.0
  0
TEXT
  5
AE
  8
UNIT-DIM
  6
CONTINUOUS
 62
     7
 10
81.606785446233332
 20
35.692173704200002
 30
0.0
 40
2.0
  1
[
 41
0.8
 72
     1
 11
81.873452112899983
 21
35.692173704200002
 31
0.0
  0
TEXT
  5
AF
  8
UNIT-DIM
  6
CONTINUOUS
 62
     7
 10
84.006785446233337
 20
35.692173704200002
 30
0.0
 40
2.0
  1
1056.0
 41
0.8
 72
     1
 11
87.473452112900006
 21
35.692173704200002
 31
0.0
  0
TEXT
  5
B0
  8
UNIT-DIM
  6
CONTINUOUS
 62
     7
 10
92.806785446233334
 20
35.692173704200002
 30
0.0
 40
2.0
  1
]
 41
0.8
 72
     1
 11
93.073452112900014
 21
35.692173704200002
 31
0.0
  0
LINE
  5
B1
  8
UNIT-DIM
  6
CONTINUOUS
 62
     7
 10
60.886402018999988
 20
63.446934699099998
 30
0.0
 11
60.886402018999988
 21
35.10467370420001
 31
0.0
  0
LINE
  5
B2
  8
UNIT-DIM
  6
CONTINUOUS
 62
     7
 10
102.4605022069
 20
68.966760683100006
 30
0.0
 11
102.4605022069
 21
35.10467370420001
 31
0.0
  0
LINE
  5
B3
  8
UNIT-DIM
  6
CONTINUOUS
 62
     7
 10
60.886402018999988
 20
36.692173704200002
 30
0.0
 11
67.473452112900006
 21
36.692173704200002
 31
0.0
  0
LINE
  5
B4
  8
UNIT-DIM
  6
CONTINUOUS
 62
     7
 10
102.4605022069
 20
36.692173704200002
 30
0.0
 11
95.873452112900011
 21
36.692173704200002
 31
0.0
  0
INSERT
  5
B5
  8
UNIT-DIM
  6
CONTINUOUS
 62
     7
  2
_FILLED
 10
60.886402018999988
 20
36.692173704200002
 30
0.0
 41
4.0
 42
4.0
 43
4.0
 50
180.0
  0
INSERT
  5
B6
  8
UNIT-DIM
  6
CONTINUOUS
 62
     7
  2
_FILLED
 10
102.4605022069
 20
36.692173704200002
 30
0.0
 41
4.0
 42
4.0
 43
4.0
  0
ENDBLK
  5
B7
  8
0
  6
ByBlock
 62
     0
  0
BLOCK
  8
UNITDUCTDIM
  6
CONTINUOUS
 62
     2
  2
*D4
 70
     1
 10
0.0
 20
0.0
 30
0.0
  3
*D4
  1

  0
TEXT
  5
BA
  8
UNITDUCTDIM
  6
CONTINUOUS
 62
     2
 10
77.48353635783333
 20
101.4727954504
 30
0.0
 40
2.0
  1
31-3/4
 41
0.8
 72
     1
 11
81.750203024499996
 21
101.4727954504
 31
0.0
  0
TEXT
  5
BB
  8
UNITDUCTDIM
  6
CONTINUOUS
 62
     2
 10
88.150203024500016
 20
101.4727954504
 30
0.0
 40
2.0
  1
 
 41
0.8
 72
     1
 11
88.950203024500013
 21
101.4727954504
 31
0.0
  0
TEXT
  5
BC
  8
UNITDUCTDIM
  6
CONTINUOUS
 62
     2
 10
77.48353635783333
 20
98.472795450400014
 30
0.0
 40
2.0
  1
[
 41
0.8
 72
     1
 11
77.750203024499996
 21
98.472795450400014
 31
0.0
  0
TEXT
  5
BD
  8
UNITDUCTDIM
  6
CONTINUOUS
 62
     2
 10
79.48353635783333
 20
98.472795450400014
 30
0.0
 40
2.0
  1
806.8
 41
0.8
 72
     1
 11
82.550203024499993
 21
98.472795450400014
 31
0.0
  0
TEXT
  5
BE
  8
UNITDUCTDIM
  6
CONTINUOUS
 62
     2
 10
87.083536357833339
 20
98.472795450400014
 30
0.0
 40
2.0
  1
]
 41
0.8
 72
     1
 11
87.350203024500004
 21
98.472795450400014
 31
0.0
  0
LINE
  5
BF
  8
UNITDUCTDIM
  6
CONTINUOUS
 62
     2
 10
67.468606569800002
 20
85.994845323999996
 30
0.0
 11
67.468606569800002
 21
104.06029545040001
 31
0.0
  0
LINE
  5
C0
  8
UNITDUCTDIM
  6
CONTINUOUS
 62
     2
 10
99.231799479300022
 20
85.994845323999996
 30
0.0
 11
99.231799479300022
 21
89.082837190299998
 31
0.0
  0
LINE
  5
C1
  8
UNITDUCTDIM
  6
CONTINUOUS
 62
     2
 10
99.231799479300022
 20
91.513392745900006
 30
0.0
 11
99.231799479300022
 21
104.06029545040001
 31
0.0
  0
LINE
  5
C2
  8
UNITDUCTDIM
  6
CONTINUOUS
 62
     2
 10
67.468606569800002
 20
102.4727954504
 30
0.0
 11
74.950203024499999
 21
102.4727954504
 31
0.0
  0
LINE
  5
C3
  8
UNITDUCTDIM
  6
CONTINUOUS
 62
     2
 10
99.231799479300022
 20
102.4727954504
 30
0.0
 11
91.750203024499996
 21
102.4727954504
 31
0.0
  0
INSERT
  5
C4
  8
UNITDUCTDIM
  6
CONTINUOUS
 62
     2
  2
_FILLED
 10
67.468606569800002
 20
102.4727954504
 30
0.0
 41
4.0
 42
4.0
 43
4.0
 50
180.0
  0
INSERT
  5
C5
  8
UNITDUCTDIM
  6
CONTINUOUS
 62
     2
  2
_FILLED
 10
99.231799479300022
 20
102.4727954504
 30
0.0
 41
4.0
 42
4.0
 43
4.0
 50
359.99999999959999
  0
ENDBLK
  5
C6
  8
0
  6
ByBlock
 62
     0
  0
BLOCK
  8
UNITDUCTDIM
  6
CONTINUOUS
 62
     2
  2
*D5
 70
     1
 10
0.0
 20
0.0
 30
0.0
  3
*D5
  1

  0
TEXT
  5
C9
  8
UNITDUCTDIM
  6
CONTINUOUS
 62
     2
 10
22.158984342766669
 20
83.358167896799998
 30
0.0
 40
2.0
  1
6-1/8
 41
0.8
 72
     2
 11
29.092317676099999
 21
83.358167896799998
 31
0.0
  0
TEXT
  5
CA
  8
UNITDUCTDIM
  6
CONTINUOUS
 62
     2
 10
32.158984342766672
 20
83.358167896799998
 30
0.0
 40
2.0
  1
[
 41
0.8
 72
     2
 11
32.692317676099997
 21
83.358167896799998
 31
0.0
  0
TEXT
  5
CB
  8
UNITDUCTDIM
  6
CONTINUOUS
 62
     2
 10
34.825651009433336
 20
83.358167896799998
 30
0.0
 40
2.0
  1
154.3
 41
0.8
 72
     2
 11
40.692317676099997
 21
83.358167896799998
 31
0.0
  0
TEXT
  5
CC
  8
UNITDUCTDIM
  6
CONTINUOUS
 62
     2
 10
41.758984342766666
 20
83.358167896799998
 30
0.0
 40
2.0
  1
]
 41
0.8
 72
     2
 11
42.292317676099991
 21
83.358167896799998
 31
0.0
  0
TEXT
  5
CD
  8
UNITDUCTDIM
  6
CONTINUOUS
 62
     2
 10
42.292317676099991
 20
83.358167896799998
 30
0.0
 40
2.0
  1
 
 41
0.8
 72
     2
 11
43.892317676099999
 21
83.358167896799998
 31
0.0
  0
LINE
  5
CE
  8
UNITDUCTDIM
  6
CONTINUOUS
 62
     2
 10
65.881106567499998
 20
69.735897408500009
 30
0.0
 11
47.553080509799997
 21
69.735897408500009
 31
0.0
  0
LINE
  5
CF
  8
UNITDUCTDIM
  6
CONTINUOUS
 62
     2
 10
59.714822804000001
 20
63.659848013599991
 30
0.0
 11
47.553080509700003
 21
63.659848013599991
 31
0.0
  0
LINE
  5
D0
  8
UNITDUCTDIM
  6
CONTINUOUS
 62
     2
 10
49.140580509799989
 20
69.735897408500009
 30
0.0
 11
49.140580509799989
 21
84.358167896799998
 31
0.0
  0
LINE
  5
D1
  8
UNITDUCTDIM
  6
CONTINUOUS
 62
     2
 10
49.140580509799989
 20
84.358167896799998
 30
0.0
 11
45.892317676099999
 21
84.358167896799998
 31
0.0
  0
LINE
  5
D2
  8
UNITDUCTDIM
  6
CONTINUOUS
 62
     2
 10
49.140580509700001
 20
63.659848013599991
 30
0.0
 11
49.140580509700001
 21
50.959848013600002
 31
0.0
  0
INSERT
  5
D3
  8
UNITDUCTDIM
  6
CONTINUOUS
 62
     2
  2
_FILLED
 10
49.140580509799989
 20
69.735897408500009
 30
0.0
 41
4.0
 42
4.0
 43
4.0
 50
269.99999999990001
  0
INSERT
  5
D4
  8
UNITDUCTDIM
  6
CONTINUOUS
 62
     2
  2
_FILLED
 10
49.140580509700001
 20
63.659848013599991
 30
0.0
 41
4.0
 42
4.0
 43
4.0
 50
89.999999999899998
  0
ENDBLK
  5
D5
  8
0
  6
ByBlock
 62
     0
  0
BLOCK
  8
UNITDUCTDIM
  6
CONTINUOUS
 62
     2
  2
*D6
 70
     1
 10
0.0
 20
0.0
 30
0.0
  3
*D6
  1

  0
TEXT
  5
D8
  8
UNITDUCTDIM
  6
CONTINUOUS
 62
     2
 10
25.606440987433331
 20
93.987511704799999
 30
0.0
 40
2.0
  1
6-5/8
 41
0.8
 72
     2
 11
33.073107654099999
 21
93.987511704799999
 31
0.0
  0
TEXT
  5
D9
  8
UNITDUCTDIM
  6
CONTINUOUS
 62
     2
 10
36.139774320766669
 20
93.987511704799999
 30
0.0
 40
2.0
  1
[
 41
0.8
 72
     2
 11
36.673107654100001
 21
93.987511704799999
 31
0.0
  0
TEXT
  5
DA
  8
UNITDUCTDIM
  6
CONTINUOUS
 62
     2
 10
38.806440987433341
 20
93.987511704799999
 30
0.0
 40
2.0
  1
167.2
 41
0.8
 72
     2
 11
44.673107654100001
 21
93.987511704799999
 31
0.0
  0
TEXT
  5
DB
  8
UNITDUCTDIM
  6
CONTINUOUS
 62
     2
 10
45.739774320766657
 20
93.987511704799999
 30
0.0
 40
2.0
  1
]
 41
0.8
 72
     2
 11
46.273107654099988
 21
93.987511704799999
 31
0.0
  0
LINE
  5
DC
  8
UNITDUCTDIM
  6
CONTINUOUS
 62
     2
 10
60.886402018999988
 20
67.630227511400008
 30
0.0
 11
60.886402018999988
 21
96.575011704799991
 31
0.0
  0
LINE
  5
DD
  8
UNITDUCTDIM
  6
CONTINUOUS
 62
     2
 10
67.468606567500004
 20
85.994845323999996
 30
0.0
 11
67.468606567500004
 21
96.575011704799991
 31
0.0
  0
LINE
  5
DE
  8
UNITDUCTDIM
  6
CONTINUOUS
 62
     2
 10
60.886402018999988
 20
94.987511704799999
 30
0.0
 11
48.273107654100002
 21
94.987511704799999
 31
0.0
  0
LINE
  5
DF
  8
UNITDUCTDIM
  6
CONTINUOUS
 62
     2
 10
67.468606567500004
 20
94.987511704799999
 30
0.0
 11
80.168606567500007
 21
94.987511704799999
 31
0.0
  0
INSERT
  5
E0
  8
UNITDUCTDIM
  6
CONTINUOUS
 62
     2
  2
_FILLED
 10
60.886402018999988
 20
94.987511704799999
 30
0.0
 41
4.0
 42
4.0
 43
4.0
  0
INSERT
  5
E1
  8
UNITDUCTDIM
  6
CONTINUOUS
 62
     2
  2
_FILLED
 10
67.468606567500004
 20
94.987511704799999
 30
0.0
 41
4.0
 42
4.0
 43
4.0
 50
180.0
  0
ENDBLK
  5
E2
  8
0
  6
ByBlock
 62
     0
  0
BLOCK
  8
UNITDUCTDIM
  6
CONTINUOUS
 62
     2
  2
*D7
 70
     1
 10
0.0
 20
0.0
 30
0.0
  3
*D7
  1

  0
TEXT
  5
E5
  8
UNITDUCTDIM
  6
CONTINUOUS
 62
     2
 10
133.45921093140001
 20
100.05575475489999
 30
0.0
 40
2.0
  1
5-1/4
 41
0.8
  0
TEXT
  5
E6
  8
UNITDUCTDIM
  6
CONTINUOUS
 62
     2
 10
144.6592109314
 20
100.05575475489999
 30
0.0
 40
2.0
  1
 
 41
0.8
  0
TEXT
  5
E7
  8
UNITDUCTDIM
  6
CONTINUOUS
 62
     2
 10
133.45921093140001
 20
97.055754754899993
 30
0.0
 40
2.0
  1
[
 41
0.8
  0
TEXT
  5
E8
  8
UNITDUCTDIM
  6
CONTINUOUS
 62
     2
 10
135.0592109314
 20
97.055754754899993
 30
0.0
 40
2.0
  1
132.4
 41
0.8
  0
TEXT
  5
E9
  8
UNITDUCTDIM
  6
CONTINUOUS
 62
     2
 10
143.0592109314
 20
97.055754754899993
 30
0.0
 40
2.0
  1
]
 41
0.8
  0
LINE
  5
EA
  8
UNITDUCTDIM
  6
CONTINUOUS
 62
     2
 10
124.2599684589
 20
67.630227511400008
 30
0.0
 11
124.2599684643
 21
102.64325475619999
 31
0.0
  0
LINE
  5
EB
  8
UNITDUCTDIM
  6
CONTINUOUS
 62
     2
 10
119.0486913578
 20
101.055754757
 30
0.0
 11
106.34869135780001
 21
101.055754759
 31
0.0
  0
LINE
  5
EC
  8
UNITDUCTDIM
  6
CONTINUOUS
 62
     2
 10
124.259968464
 20
101.0557547562
 30
0.0
 11
131.45921093140001
 21
101.0557547562
 31
0.0
  0
INSERT
  5
ED
  8
UNITDUCTDIM
  6
CONTINUOUS
 62
     2
  2
_FILLED
 10
119.0486913578
 20
101.055754757
 30
0.0
 41
4.0
 42
4.0
 43
4.0
 50
359.99999999129989
  0
INSERT
  5
EE
  8
UNITDUCTDIM
  6
CONTINUOUS
 62
     2
  2
_FILLED
 10
124.259968464
 20
101.0557547562
 30
0.0
 41
4.0
 42
4.0
 43
4.0
 50
180.0
  0
ENDBLK
  5
EF
  8
0
  6
ByBlock
 62
     0
  0
BLOCK
  8
SERVCLRDIM
  6
CONTINUOUS
 62
     1
  2
*D8
 70
     1
 10
0.0
 20
0.0
 30
0.0
  3
*D8
  1

  0
TEXT
  5
F2
  8
SERVCLRDIM
  6
CONTINUOUS
 62
     1
 10
15.606402019000001
 20
138.229964045
 30
0.0
 40
1.8999999999999999
  1
36-48" DEPENDING ON OPTIONS.
 41
0.8
  0
TEXT
  5
F3
  8
SERVCLRDIM
  6
CONTINUOUS
 62
     1
 10
15.606402019000001
 20
135.37996404500001
 30
0.0
 40
1.8999999999999999
  1
SEE PRODUCT DATA FOR DETAILS.
 41
0.8
  0
LINE
  5
F4
  8
SERVCLRDIM
  6
CONTINUOUS
 62
     1
 10
12.886402019
 20
122.61819515400001
 30
0.0
 11
12.886402019
 21
138.229964045
 31
0.0
  0
LINE
  5
F5
  8
SERVCLRDIM
  6
CONTINUOUS
 62
     1
 10
12.886402019
 20
138.229964045
 30
0.0
 11
12.886402019
 21
140.767464045
 31
0.0
  0
LINE
  5
F6
  8
SERVCLRDIM
  6
CONTINUOUS
 62
     1
 10
60.886402018999988
 20
122.61819515400001
 30
0.0
 11
60.886402018999988
 21
138.229964045
 31
0.0
  0
LINE
  5
F7
  8
SERVCLRDIM
  6
CONTINUOUS
 62
     1
 10
60.886402018999988
 20
138.229964045
 30
0.0
 11
60.886402018999988
 21
140.767464045
 31
0.0
  0
LINE
  5
F8
  8
SERVCLRDIM
  6
CONTINUOUS
 62
     1
 10
12.886402019
 20
139.17996404499999
 30
0.0
 11
0.186402019
 21
139.17996404499999
 31
0.0
  0
LINE
  5
F9
  8
SERVCLRDIM
  6
CONTINUOUS
 62
     1
 10
60.886402018999988
 20
139.17996404499999
 30
0.0
 11
73.586402018999991
 21
139.17996404499999
 31
0.0
  0
INSERT
  5
FA
  8
SERVCLRDIM
  6
CONTINUOUS
 62
     1
  2
_FILLED
 10
12.886402019
 20
139.17996404499999
 30
0.0
 41
4.0
 42
4.0
 43
4.0
  0
INSERT
  5
FB
  8
SERVCLRDIM
  6
CONTINUOUS
 62
     1
  2
_FILLED
 10
60.886402018999988
 20
139.17996404499999
 30
0.0
 41
4.0
 42
4.0
 43
4.0
 50
180.0
  0
ENDBLK
  5
FC
  8
0
  6
ByBlock
 62
     0
  0
BLOCK
  8
SERVCLRDIM
  6
CONTINUOUS
 62
     1
  2
*D9
 70
     1
 10
0.0
 20
0.0
 30
0.0
  3
*D9
  1

  0
TEXT
  5
FF
  8
SERVCLRDIM
  6
CONTINUOUS
 62
     1
 10
155.95406323
 20
138.229964045
 30
0.0
 40
1.8999999999999999
  1
36-42" DEPENDING ON
 41
0.8
  0
TEXT
  5
100
  8
SERVCLRDIM
  6
CONTINUOUS
 62
     1
 10
155.95406323
 20
135.37996404500001
 30
0.0
 40
1.8999999999999999
  1
OPTIONS. CHECK FOR
 41
0.8
  0
TEXT
  5
101
  8
SERVCLRDIM
  6
CONTINUOUS
 62
     1
 10
155.95406323
 20
132.52996404500001
 30
0.0
 40
1.8999999999999999
  1
SOURCES OF FLUE PRODUCTS
 41
0.8
  0
TEXT
  5
102
  8
SERVCLRDIM
  6
CONTINUOUS
 62
     1
 10
155.95406323
 20
129.67996404499999
 30
0.0
 40
1.8999999999999999
  1
WITHIN 10FT. OF UNIT FRESH
 41
0.8
  0
TEXT
  5
103
  8
SERVCLRDIM
  6
CONTINUOUS
 62
     1
 10
155.95406323
 20
126.829964045
 30
0.0
 40
1.8999999999999999
  1
AIR INTAKE HOOD. SEE
 41
0.8
  0
TEXT
  5
104
  8
SERVCLRDIM
  6
CONTINUOUS
 62
     1
 10
155.95406323
 20
123.979964045
 30
0.0
 40
1.8999999999999999
  1
PRODUCT DATA FOR DETAILS.
 41
0.8
  0
LINE
  5
105
  8
SERVCLRDIM
  6
CONTINUOUS
 62
     1
 10
154.31195067039999
 20
122.61819515400001
 30
0.0
 11
154.31195067039999
 21
138.229964045
 31
0.0
  0
LINE
  5
106
  8
SERVCLRDIM
  6
CONTINUOUS
 62
     1
 10
154.31195067039999
 20
138.229964045
 30
0.0
 11
154.31195067039999
 21
140.767464045
 31
0.0
  0
LINE
  5
107
  8
SERVCLRDIM
  6
CONTINUOUS
 62
     1
 10
196.31195067039999
 20
122.61819515400001
 30
0.0
 11
196.31195067039999
 21
138.229964045
 31
0.0
  0
LINE
  5
108
  8
SERVCLRDIM
  6
CONTINUOUS
 62
     1
 10
196.31195067039999
 20
138.229964045
 30
0.0
 11
196.31195067039999
 21
140.767464045
 31
0.0
  0
LINE
  5
109
  8
SERVCLRDIM
  6
CONTINUOUS
 62
     1
 10
154.31195067039999
 20
139.17996404499999
 30
0.0
 11
141.61195067040001
 21
139.17996404499999
 31
0.0
  0
LINE
  5
10A
  8
SERVCLRDIM
  6
CONTINUOUS
 62
     1
 10
196.31195067039999
 20
139.17996404499999
 30
0.0
 11
209.01195067040001
 21
139.17996404499999
 31
0.0
  0
INSERT
  5
10B
  8
SERVCLRDIM
  6
CONTINUOUS
 62
     1
  2
_FILLED
 10
154.31195067039999
 20
139.17996404499999
 30
0.0
 41
4.0
 42
4.0
 43
4.0
  0
INSERT
  5
10C
  8
SERVCLRDIM
  6
CONTINUOUS
 62
     1
  2
_FILLED
 10
196.31195067039999
 20
139.17996404499999
 30
0.0
 41
4.0
 42
4.0
 43
4.0
 50
180.0
  0
ENDBLK
  5
10D
  8
0
  6
ByBlock
 62
     0
  0
BLOCK
  8
UNITDUCTDIM
  6
CONTINUOUS
 62
     2
  2
*D10
 70
     1
 10
0.0
 20
0.0
 30
0.0
  3
*D10
  1

  0
TEXT
  5
110
  8
UNITDUCTDIM
  6
CONTINUOUS
 62
     2
 10
24.778768205066669
 20
89.093030308500005
 30
0.0
 40
2.0
  1
14-5/8
 41
0.8
 72
     2
 11
33.3121015384
 21
89.093030308500005
 31
0.0
  0
TEXT
  5
111
  8
UNITDUCTDIM
  6
CONTINUOUS
 62
     2
 10
36.37876820506667
 20
89.093030308500005
 30
0.0
 40
2.0
  1
[
 41
0.8
 72
     2
 11
36.912101538400002
 21
89.093030308500005
 31
0.0
  0
TEXT
  5
112
  8
UNITDUCTDIM
  6
CONTINUOUS
 62
     2
 10
38.512101538400003
 20
89.093030308500005
 30
0.0
 40
2.0
  1
372.7
 41
0.8
 72
     2
 11
44.912101538399988
 21
89.093030308500005
 31
0.0
  0
TEXT
  5
113
  8
UNITDUCTDIM
  6
CONTINUOUS
 62
     2
 10
45.978768205066672
 20
89.093030308500005
 30
0.0
 40
2.0
  1
]
 41
0.8
 72
     2
 11
46.512101538400003
 21
89.093030308500005
 31
0.0
  0
TEXT
  5
114
  8
UNITDUCTDIM
  6
CONTINUOUS
 62
     2
 10
46.512101538400003
 20
89.093030308500005
 30
0.0
 40
2.0
  1
 
 41
0.8
 72
     2
 11
48.112101538400012
 21
89.093030308500005
 31
0.0
  0
LINE
  5
115
  8
UNITDUCTDIM
  6
CONTINUOUS
 62
     2
 10
65.881106567499998
 20
69.735897408699998
 30
0.0
 11
52.466811098800001
 21
69.735897410799993
 31
0.0
  0
LINE
  5
116
  8
UNITDUCTDIM
  6
CONTINUOUS
 62
     2
 10
65.881106569799996
 20
84.407345324299996
 30
0.0
 11
52.466811100999998
 21
84.407345326300003
 31
0.0
  0
LINE
  5
117
  8
UNITDUCTDIM
  6
CONTINUOUS
 62
     2
 10
54.0543110988
 20
69.735897410500002
 30
0.0
 11
54.054311099899998
 21
77.071621368300001
 31
0.0
  0
LINE
  5
118
  8
UNITDUCTDIM
  6
CONTINUOUS
 62
     2
 10
54.054311101000003
 20
84.407345326099986
 30
0.0
 11
54.054311099899998
 21
77.071621368300001
 31
0.0
  0
LINE
  5
119
  8
UNITDUCTDIM
  6
CONTINUOUS
 62
     2
 10
54.054311099899998
 20
77.071621368300001
 30
0.0
 11
54.054311101899998
 21
90.093030308500005
 31
0.0
  0
LINE
  5
11A
  8
UNITDUCTDIM
  6
CONTINUOUS
 62
     2
 10
54.054311101899998
 20
90.093030308500005
 30
0.0
 11
50.112101538399997
 21
90.093030308500005
 31
0.0
  0
INSERT
  5
11B
  8
UNITDUCTDIM
  6
CONTINUOUS
 62
     2
  2
_FILLED
 10
54.0543110988
 20
69.735897410500002
 30
0.0
 41
4.0
 42
4.0
 43
4.0
 50
269.9999999913
  0
INSERT
  5
11C
  8
UNITDUCTDIM
  6
CONTINUOUS
 62
     2
  2
_FILLED
 10
54.054311101000003
 20
84.407345326099986
 30
0.0
 41
4.0
 42
4.0
 43
4.0
 50
89.999999991299987
  0
ENDBLK
  5
11D
  8
0
  6
ByBlock
 62
     0
  0
BLOCK
  8
CURB-14-DIM
  6
CONTINUOUS
 62
     6
  2
*D11
 70
     1
 10
0.0
 20
0.0
 30
0.0
  3
*D11
  1

  0
TEXT
  5
120
  8
CURB-14-DIM
  6
CONTINUOUS
 62
     6
 10
79.839851905466674
 20
30.189592397799998
 30
0.0
 40
2.0
  1
57-5/8
 41
0.8
 72
     1
 11
84.373185238800005
 21
30.189592397799998
 31
0.0
  0
TEXT
  5
121
  8
CURB-14-DIM
  6
CONTINUOUS
 62
     6
 10
91.706518572133319
 20
30.189592397799998
 30
0.0
 40
2.0
  1
[
 41
0.8
 72
     1
 11
91.973185238799985
 21
30.189592397799998
 31
0.0
  0
TEXT
  5
122
  8
CURB-14-DIM
  6
CONTINUOUS
 62
     6
 10
94.106518572133325
 20
30.189592397799998
 30
0.0
 40
2.0
  1
1462.1
 41
0.8
 72
     1
 11
97.573185238799994
 21
30.189592397799998
 31
0.0
  0
TEXT
  5
123
  8
CURB-14-DIM
  6
CONTINUOUS
 62
     6
 10
102.90651857213329
 20
30.189592397799998
 30
0.0
 40
2.0
  1
]
 41
0.8
 72
     1
 11
103.1731852388
 21
30.189592397799998
 31
0.0
  0
TEXT
  5
124
  8
CURB-14-DIM
  6
CONTINUOUS
 62
     6
 10
103.9731852388
 20
30.189592397799998
 30
0.0
 40
2.0
  1
 
 41
0.8
 72
     1
 11
104.7731852388
 21
30.189592397799998
 31
0.0
  0
LINE
  5
125
  8
CURB-14-DIM
  6
CONTINUOUS
 62
     6
 10
63.791935238800001
 20
33.003632065399998
 30
0.0
 11
63.791935238800001
 21
29.602092397800011
 31
0.0
  0
LINE
  5
126
  8
CURB-14-DIM
  6
CONTINUOUS
 62
     6
 10
121.35443523879999
 20
64.804424227799998
 30
0.0
 11
121.35443523879999
 21
29.602092397800011
 31
0.0
  0
LINE
  5
127
  8
CURB-14-DIM
  6
CONTINUOUS
 62
     6
 10
63.791935238800001
 20
31.189592397800009
 30
0.0
 11
77.573185238800008
 21
31.189592397800009
 31
0.0
  0
LINE
  5
128
  8
CURB-14-DIM
  6
CONTINUOUS
 62
     6
 10
121.35443523879999
 20
31.189592397800009
 30
0.0
 11
107.57318523879999
 21
31.189592397800009
 31
0.0
  0
INSERT
  5
129
  8
CURB-14-DIM
  6
CONTINUOUS
 62
     6
  2
_FILLED
 10
63.791935238800001
 20
31.189592397800009
 30
0.0
 41
4.0
 42
4.0
 43
4.0
 50
180.0
  0
INSERT
  5
12A
  8
CURB-14-DIM
  6
CONTINUOUS
 62
     6
  2
_FILLED
 10
121.35443523879999
 20
31.189592397800009
 30
0.0
 41
4.0
 42
4.0
 43
4.0
  0
ENDBLK
  5
12B
  8
0
  6
ByBlock
 62
     0
  0
BLOCK
  8
CURB-24-DIM
  6
CONTINUOUS
 62
     6
  2
*D12
 70
     1
 10
0.0
 20
0.0
 30
0.0
  3
*D12
  1

  0
TEXT
  5
12E
  8
CURB-24-DIM
  6
CONTINUOUS
 62
     6
 10
24.12646923216667
 20
52.463528994899988
 30
0.0
 40
2.0
  1
24
 41
0.8
 72
     1
 11
25.459802565499999
 21
52.463528994899988
 31
0.0
  0
TEXT
  5
12F
  8
CURB-24-DIM
  6
CONTINUOUS
 62
     6
 10
35.059802565500007
 20
52.463528994899988
 30
0.0
 40
2.0
  1
 
 41
0.8
 72
     1
 11
35.859802565499997
 21
52.463528994899988
 31
0.0
  0
TEXT
  5
130
  8
CURB-24-DIM
  6
CONTINUOUS
 62
     6
 10
24.393135898833339
 20
49.463528994899988
 30
0.0
 40
2.0
  1
[
 41
0.8
 72
     1
 11
24.659802565500001
 21
49.463528994899988
 31
0.0
  0
TEXT
  5
131
  8
CURB-24-DIM
  6
CONTINUOUS
 62
     6
 10
26.393135898833339
 20
49.463528994899988
 30
0.0
 40
2.0
  1
609.6
 41
0.8
 72
     1
 11
29.459802565499999
 21
49.463528994899988
 31
0.0
  0
TEXT
  5
132
  8
CURB-24-DIM
  6
CONTINUOUS
 62
     6
 10
33.993135898833337
 20
49.463528994899988
 30
0.0
 40
2.0
  1
]
 41
0.8
 72
     1
 11
34.259802565500003
 21
49.463528994899988
 31
0.0
  0
LINE
  5
133
  8
CURB-24-DIM
  6
CONTINUOUS
 62
     6
 10
60.954435238800002
 20
42.661577260100003
 30
0.0
 11
42.271096569899989
 21
42.661577260100003
 31
0.0
  0
LINE
  5
134
  8
CURB-24-DIM
  6
CONTINUOUS
 62
     6
 10
40.342084224299988
 20
42.661577260100003
 30
0.0
 11
28.672302565500001
 21
42.661577260100003
 31
0.0
  0
LINE
  5
135
  8
CURB-24-DIM
  6
CONTINUOUS
 62
     6
 10
62.204435238800002
 20
66.659848013599998
 30
0.0
 11
28.672302565500001
 21
66.659848013599998
 31
0.0
  0
LINE
  5
136
  8
CURB-24-DIM
  6
CONTINUOUS
 62
     6
 10
30.259802565499999
 20
42.661577260100003
 30
0.0
 11
30.259802565499999
 21
47.463528994899988
 31
0.0
  0
LINE
  5
137
  8
CURB-24-DIM
  6
CONTINUOUS
 62
     6
 10
30.259802565499999
 20
66.659848013599998
 30
0.0
 11
30.259802565499999
 21
56.463528994900003
 31
0.0
  0
INSERT
  5
138
  8
CURB-24-DIM
  6
CONTINUOUS
 62
     6
  2
_FILLED
 10
30.259802565499999
 20
42.661577260100003
 30
0.0
 41
4.0
 42
4.0
 43
4.0
 50
270.0
  0
INSERT
  5
139
  8
CURB-24-DIM
  6
CONTINUOUS
 62
     6
  2
_FILLED
 10
30.259802565499999
 20
66.659848013599998
 30
0.0
 41
4.0
 42
4.0
 43
4.0
 50
90.0
  0
ENDBLK
  5
13A
  8
0
  6
ByBlock
 62
     0
  0
BLOCK
  8
CURB-24-DIM
  6
CONTINUOUS
 62
     6
  2
*D13
 70
     1
 10
0.0
 20
0.0
 30
0.0
  3
*D13
  1

  0
TEXT
  5
13D
  8
CURB-24-DIM
  6
CONTINUOUS
 62
     6
 10
79.839851905466674
 20
30.183586349799999
 30
0.0
 40
2.0
  1
57-5/8
 41
0.8
 72
     1
 11
84.373185238800005
 21
30.183586349799999
 31
0.0
  0
TEXT
  5
13E
  8
CURB-24-DIM
  6
CONTINUOUS
 62
     6
 10
91.706518572133319
 20
30.183586349799999
 30
0.0
 40
2.0
  1
[
 41
0.8
 72
     1
 11
91.973185238799985
 21
30.183586349799999
 31
0.0
  0
TEXT
  5
13F
  8
CURB-24-DIM
  6
CONTINUOUS
 62
     6
 10
94.106518572133325
 20
30.183586349799999
 30
0.0
 40
2.0
  1
1462.1
 41
0.8
 72
     1
 11
97.573185238799994
 21
30.183586349799999
 31
0.0
  0
TEXT
  5
140
  8
CURB-24-DIM
  6
CONTINUOUS
 62
     6
 10
102.90651857213329
 20
30.183586349799999
 30
0.0
 40
2.0
  1
]
 41
0.8
 72
     1
 11
103.1731852388
 21
30.183586349799999
 31
0.0
  0
TEXT
  5
141
  8
CURB-24-DIM
  6
CONTINUOUS
 62
     6
 10
103.9731852388
 20
30.183586349799999
 30
0.0
 40
2.0
  1
 
 41
0.8
 72
     1
 11
104.7731852388
 21
30.183586349799999
 31
0.0
  0
LINE
  5
142
  8
CURB-24-DIM
  6
CONTINUOUS
 62
     6
 10
63.791935238800001
 20
64.804424227799998
 30
0.0
 11
63.791935238800001
 21
38.597978853600011
 31
0.0
  0
LINE
  5
143
  8
CURB-24-DIM
  6
CONTINUOUS
 62
     6
 10
63.791935238800001
 20
35.125756631400002
 30
0.0
 11
63.791935238800001
 21
29.5960863498
 31
0.0
  0
LINE
  5
144
  8
CURB-24-DIM
  6
CONTINUOUS
 62
     6
 10
121.35443523879999
 20
64.804424227799998
 30
0.0
 11
121.35443523879999
 21
29.5960863498
 31
0.0
  0
LINE
  5
145
  8
CURB-24-DIM
  6
CONTINUOUS
 62
     6
 10
63.791935238800001
 20
31.183586349799999
 30
0.0
 11
77.573185238800008
 21
31.183586349799999
 31
0.0
  0
LINE
  5
146
  8
CURB-24-DIM
  6
CONTINUOUS
 62
     6
 10
121.35443523879999
 20
31.183586349799999
 30
0.0
 11
107.57318523879999
 21
31.183586349799999
 31
0.0
  0
INSERT
  5
147
  8
CURB-24-DIM
  6
CONTINUOUS
 62
     6
  2
_FILLED
 10
63.791935238800001
 20
31.183586349799999
 30
0.0
 41
4.0
 42
4.0
 43
4.0
 50
180.0
  0
INSERT
  5
148
  8
CURB-24-DIM
  6
CONTINUOUS
 62
     6
  2
_FILLED
 10
121.35443523879999
 20
31.183586349799999
 30
0.0
 41
4.0
 42
4.0
 43
4.0
  0
ENDBLK
  5
149
  8
0
  6
ByBlock
 62
     0
  0
BLOCK
  8
CURB-14-DIM
  6
CONTINUOUS
 62
     6
  2
*D14
 70
     1
 10
0.0
 20
0.0
 30
0.0
  3
*D14
  1

  0
TEXT
  5
14C
  8
CURB-14-DIM
  6
CONTINUOUS
 62
     6
 10
35.410860559333329
 20
60.049778569099999
 30
0.0
 40
2.0
  1
14
 41
0.8
 72
     1
 11
36.477527225999999
 21
60.049778569099999
 31
0.0
  0
TEXT
  5
14D
  8
CURB-14-DIM
  6
CONTINUOUS
 62
     6
 10
46.077527226000001
 20
60.049778569099999
 30
0.0
 40
2.0
  1
 
 41
0.8
 72
     1
 11
46.877527225999998
 21
60.049778569099999
 31
0.0
  0
TEXT
  5
14E
  8
CURB-14-DIM
  6
CONTINUOUS
 62
     6
 10
35.410860559333337
 20
57.049778569099999
 30
0.0
 40
2.0
  1
[
 41
0.8
 72
     1
 11
35.677527226000002
 21
57.049778569099999
 31
0.0
  0
TEXT
  5
14F
  8
CURB-14-DIM
  6
CONTINUOUS
 62
     6
 10
37.277527225999997
 20
57.049778569099999
 30
0.0
 40
2.0
  1
355.6
 41
0.8
 72
     1
 11
40.477527225999999
 21
57.049778569099999
 31
0.0
  0
TEXT
  5
150
  8
CURB-14-DIM
  6
CONTINUOUS
 62
     6
 10
45.010860559333338
 20
57.049778569099999
 30
0.0
 40
2.0
  1
]
 41
0.8
 72
     1
 11
45.277527225999997
 21
57.049778569099999
 31
0.0
  0
LINE
  5
151
  8
CURB-14-DIM
  6
CONTINUOUS
 62
     6
 10
62.204435238800002
 20
66.659848013599998
 30
0.0
 11
39.690027225999998
 21
66.659848013599998
 31
0.0
  0
LINE
  5
152
  8
CURB-14-DIM
  6
CONTINUOUS
 62
     6
 10
60.547655756200001
 20
52.659848013599998
 30
0.0
 11
49.987145952600002
 21
52.659848013599998
 31
0.0
  0
LINE
  5
153
  8
CURB-14-DIM
  6
CONTINUOUS
 62
     6
 10
47.817007063799991
 20
52.659848013599998
 30
0.0
 11
39.690027225999998
 21
52.659848013599998
 31
0.0
  0
LINE
  5
154
  8
CURB-14-DIM
  6
CONTINUOUS
 62
     6
 10
41.277527225999989
 20
66.659848013599998
 30
0.0
 11
41.277527225999989
 21
79.359848013600001
 31
0.0
  0
LINE
  5
155
  8
CURB-14-DIM
  6
CONTINUOUS
 62
     6
 10
41.277527225999989
 20
52.659848013599998
 30
0.0
 11
41.277527225999989
 21
39.959848013600002
 31
0.0
  0
INSERT
  5
156
  8
CURB-14-DIM
  6
CONTINUOUS
 62
     6
  2
_FILLED
 10
41.277527225999989
 20
66.659848013599998
 30
0.0
 41
4.0
 42
4.0
 43
4.0
 50
270.0
  0
INSERT
  5
157
  8
CURB-14-DIM
  6
CONTINUOUS
 62
     6
  2
_FILLED
 10
41.277527225999989
 20
52.659848013599998
 30
0.0
 41
4.0
 42
4.0
 43
4.0
 50
90.0
  0
ENDBLK
  5
158
  8
0
  6
ByBlock
 62
     0
  0
BLOCK
  8
UNIT-DIM
  6
CONTINUOUS
 62
     1
  2
*D15
 70
     1
 10
0.0
 20
0.0
 30
0.0
  3
*D15
  1

  0
TEXT
  5
15B
  8
UNIT-DIM
  6
CONTINUOUS
 62
     1
 10
131.45409677890001
 20
45.821405750899999
 30
0.0
 40
2.0
  1
OVERALL HEIGHT AND 
 41
0.8
 72
     1
 11
146.6540967789
 21
45.821405750899999
 31
0.0
  0
TEXT
  5
15C
  8
UNIT-DIM
  6
CONTINUOUS
 62
     1
 10
128.25409677889999
 20
42.821405750899991
 30
0.0
 40
2.0
  1
CLEARANCE AREA WILL BE 
 41
0.8
 72
     1
 11
146.6540967789
 21
42.821405750899991
 31
0.0
  0
TEXT
  5
15D
  8
UNIT-DIM
  6
CONTINUOUS
 62
     1
 10
126.1207634455666
 20
39.821405750899999
 30
0.0
 40
2.0
  1
DETERMINED BY ASSEMBLY OF 
 41
0.8
 72
     1
 11
146.6540967789
 21
39.821405750899999
 31
0.0
  0
TEXT
  5
15E
  8
UNIT-DIM
  6
CONTINUOUS
 62
     1
 10
127.1874301122333
 20
36.821405750899999
 30
0.0
 40
2.0
  1
INSTALLER.  SEE CERTIFIED 
 41
0.8
 72
     1
 11
146.6540967789
 21
36.821405750899999
 31
0.0
  0
TEXT
  5
15F
  8
UNIT-DIM
  6
CONTINUOUS
 62
     1
 10
126.1207634455666
 20
33.821405750899999
 30
0.0
 40
2.0
  1
DRAWING FOR FURTHER DETAIL.
 41
0.8
 72
     1
 11
146.6540967789
 21
33.821405750899999
 31
0.0
  0
LINE
  5
160
  8
UNIT-DIM
  6
CONTINUOUS
 62
     1
 10
122.0659430913
 20
66.659848013599998
 30
0.0
 11
131.45409677890001
 21
66.659848013599998
 31
0.0
  0
LINE
  5
161
  8
UNIT-DIM
  6
CONTINUOUS
 62
     1
 10
131.45409677890001
 20
66.659848013599998
 30
0.0
 11
148.2415967789
 21
66.659848013599998
 31
0.0
  0
LINE
  5
162
  8
UNIT-DIM
  6
CONTINUOUS
 62
     1
 10
123.09987054520001
 20
63.659848013599991
 30
0.0
 11
131.45409677890001
 21
63.659848013599991
 31
0.0
  0
LINE
  5
163
  8
UNIT-DIM
  6
CONTINUOUS
 62
     1
 10
131.45409677890001
 20
63.659848013599991
 30
0.0
 11
148.2415967789
 21
63.659848013599991
 31
0.0
  0
LINE
  5
164
  8
UNIT-DIM
  6
CONTINUOUS
 62
     1
 10
146.6540967789
 20
66.659848013599998
 30
0.0
 11
146.6540967789
 21
79.359848013600001
 31
0.0
  0
LINE
  5
165
  8
UNIT-DIM
  6
CONTINUOUS
 62
     1
 10
146.6540967789
 20
63.659848013599991
 30
0.0
 11
146.6540967789
 21
49.821405750899991
 31
0.0
  0
INSERT
  5
166
  8
UNIT-DIM
  6
CONTINUOUS
 62
     1
  2
_FILLED
 10
146.6540967789
 20
66.659848013599998
 30
0.0
 41
4.0
 42
4.0
 43
4.0
 50
270.0
  0
INSERT
  5
167
  8
UNIT-DIM
  6
CONTINUOUS
 62
     1
  2
_FILLED
 10
146.6540967789
 20
63.659848013599991
 30
0.0
 41
4.0
 42
4.0
 43
4.0
 50
90.0
  0
ENDBLK
  5
168
  8
0
  6
ByBlock
 62
     0
  0
BLOCK
  8
UNITDUCTDIM
  6
CONTINUOUS
 62
     2
  2
*D16
 70
     1
 10
0.0
 20
0.0
 30
0.0
  3
*D16
  1

  0
TEXT
  5
16B
  8
UNITDUCTDIM
  6
CONTINUOUS
 62
     2
 10
161.47814788950001
 20
52.522974574800003
 30
0.0
 40
2.0
  1
6-1/8
 41
0.8
  0
TEXT
  5
16C
  8
UNITDUCTDIM
  6
CONTINUOUS
 62
     2
 10
161.47814788950001
 20
49.522974574800003
 30
0.0
 40
2.0
  1
[
 41
0.8
  0
TEXT
  5
16D
  8
UNITDUCTDIM
  6
CONTINUOUS
 62
     2
 10
163.0781478895
 20
49.522974574800003
 30
0.0
 40
2.0
  1
154.5
 41
0.8
  0
TEXT
  5
16E
  8
UNITDUCTDIM
  6
CONTINUOUS
 62
     2
 10
171.0781478895
 20
49.522974574800003
 30
0.0
 40
2.0
  1
]
 41
0.8
  0
LINE
  5
16F
  8
UNITDUCTDIM
  6
CONTINUOUS
 62
     2
 10
120.6361913531
 20
69.740735045999983
 30
0.0
 11
156.71564788949999
 21
69.740735045999983
 31
0.0
  0
LINE
  5
170
  8
UNITDUCTDIM
  6
CONTINUOUS
 62
     2
 10
125.43154767359999
 20
63.659848013599991
 30
0.0
 11
156.71564788949999
 21
63.659848013599991
 31
0.0
  0
LINE
  5
171
  8
UNITDUCTDIM
  6
CONTINUOUS
 62
     2
 10
155.12814788950001
 20
69.740735045999983
 30
0.0
 11
155.12814788950001
 21
82.440735046000015
 31
0.0
  0
LINE
  5
172
  8
UNITDUCTDIM
  6
CONTINUOUS
 62
     2
 10
155.12814788950001
 20
63.659848013599991
 30
0.0
 11
155.12814788950001
 21
53.522974574799989
 31
0.0
  0
LINE
  5
173
  8
UNITDUCTDIM
  6
CONTINUOUS
 62
     2
 10
155.12814788950001
 20
53.522974574799989
 30
0.0
 11
159.47814788950001
 21
53.522974574799989
 31
0.0
  0
INSERT
  5
174
  8
UNITDUCTDIM
  6
CONTINUOUS
 62
     2
  2
_FILLED
 10
155.12814788950001
 20
69.740735045999983
 30
0.0
 41
4.0
 42
4.0
 43
4.0
 50
270.0
  0
INSERT
  5
175
  8
UNITDUCTDIM
  6
CONTINUOUS
 62
     2
  2
_FILLED
 10
155.12814788950001
 20
63.659848013599991
 30
0.0
 41
4.0
 42
4.0
 43
4.0
 50
90.0
  0
ENDBLK
  5
176
  8
0
  6
ByBlock
 62
     0
  0
BLOCK
  8
UNIT-DIM
  6
CONTINUOUS
 62
     7
  2
*D17
 70
     1
 10
0.0
 20
0.0
 30
0.0
  3
*D17
  1

  0
TEXT
  5
179
  8
UNIT-DIM
  6
CONTINUOUS
 62
     7
 10
74.62083211463333
 20
88.912805051400014
 30
0.0
 40
2.0
  1
6-7/8
 41
0.8
 72
     2
 11
82.087498781299985
 21
88.912805051400014
 31
0.0
  0
TEXT
  5
17A
  8
UNIT-DIM
  6
CONTINUOUS
 62
     7
 10
85.154165447966676
 20
88.912805051400014
 30
0.0
 40
2.0
  1
[
 41
0.8
 72
     2
 11
85.687498781300008
 21
88.912805051400014
 31
0.0
  0
TEXT
  5
17B
  8
UNIT-DIM
  6
CONTINUOUS
 62
     7
 10
88.354165447966665
 20
88.912805051400014
 30
0.0
 40
2.0
  1
175.1
 41
0.8
 72
     2
 11
93.687498781299993
 21
88.912805051400014
 31
0.0
  0
TEXT
  5
17C
  8
UNIT-DIM
  6
CONTINUOUS
 62
     7
 10
94.754165447966656
 20
88.912805051400014
 30
0.0
 40
2.0
  1
]
 41
0.8
 72
     2
 11
95.287498781299973
 21
88.912805051400014
 31
0.0
  0
LINE
  5
17D
  8
UNIT-DIM
  6
CONTINUOUS
 62
     7
 10
100.8730022069
 20
70.554260683099997
 30
0.0
 11
98.888813814900004
 21
70.554260683099997
 31
0.0
  0
LINE
  5
17E
  8
UNIT-DIM
  6
CONTINUOUS
 62
     7
 10
100.4763138149
 20
63.659848013599991
 30
0.0
 11
100.4763138149
 21
50.959848013600002
 31
0.0
  0
LINE
  5
17F
  8
UNIT-DIM
  6
CONTINUOUS
 62
     7
 10
100.4763138149
 20
70.554260683099997
 30
0.0
 11
100.4763138149
 21
89.912805051399999
 31
0.0
  0
LINE
  5
180
  8
UNIT-DIM
  6
CONTINUOUS
 62
     7
 10
100.4763138149
 20
89.912805051399999
 30
0.0
 11
97.287498781299988
 21
89.912805051399999
 31
0.0
  0
INSERT
  5
181
  8
UNIT-DIM
  6
CONTINUOUS
 62
     7
  2
_FILLED
 10
100.4763138149
 20
63.659848013599991
 30
0.0
 41
4.0
 42
4.0
 43
4.0
 50
90.0
  0
INSERT
  5
182
  8
UNIT-DIM
  6
CONTINUOUS
 62
     7
  2
_FILLED
 10
100.4763138149
 20
70.554260683099997
 30
0.0
 41
4.0
 42
4.0
 43
4.0
 50
270.0
  0
ENDBLK
  5
183
  8
0
  6
ByBlock
 62
     0
  0
BLOCK
  8
UNIT-SOL
  6
CONTINUOUS
 62
     7
  2
*D18
 70
     1
 10
0.0
 20
0.0
 30
0.0
  3
*D18
  1

  0
TEXT
  5
186
  8
UNIT-SOL
  6
CONTINUOUS
 62
     7
 10
14.282386258366669
 20
97.232150080100013
 30
0.0
 40
2.0
  1
57-3/8
 41
0.8
 72
     1
 11
18.815719591699999
 21
97.232150080100013
 31
0.0
  0
TEXT
  5
187
  8
UNIT-SOL
  6
CONTINUOUS
 62
     7
 10
14.54905292503333
 20
94.232150080099998
 30
0.0
 40
2.0
  1
[
 41
0.8
 72
     1
 11
14.815719591700001
 21
94.232150080099998
 31
0.0
  0
TEXT
  5
188
  8
UNIT-SOL
  6
CONTINUOUS
 62
     7
 10
16.149052925033331
 20
94.232150080099998
 30
0.0
 40
2.0
  1
1457
 41
0.8
 72
     1
 11
18.815719591699999
 21
94.232150080099998
 31
0.0
  0
TEXT
  5
189
  8
UNIT-SOL
  6
CONTINUOUS
 62
     7
 10
22.54905292503334
 20
94.232150080099998
 30
0.0
 40
2.0
  1
]
 41
0.8
 72
     1
 11
22.815719591699999
 21
94.232150080099998
 31
0.0
  0
LINE
  5
18A
  8
UNIT-SOL
  6
CONTINUOUS
 62
     7
 10
20.4962394374
 20
121.030695154
 30
0.0
 11
17.2282195917
 21
121.030695154
 31
0.0
  0
LINE
  5
18B
  8
UNIT-SOL
  6
CONTINUOUS
 62
     7
 10
19.789814017800001
 20
63.659848013599991
 30
0.0
 11
17.2282195917
 21
63.659848013599991
 31
0.0
  0
LINE
  5
18C
  8
UNIT-SOL
  6
CONTINUOUS
 62
     7
 10
18.815719591699999
 20
121.030695154
 30
0.0
 11
18.815719591699999
 21
101.2321500801
 31
0.0
  0
LINE
  5
18D
  8
UNIT-SOL
  6
CONTINUOUS
 62
     7
 10
18.815719591699999
 20
63.659848013599991
 30
0.0
 11
18.815719591699999
 21
92.232150080099984
 31
0.0
  0
INSERT
  5
18E
  8
UNIT-SOL
  6
CONTINUOUS
 62
     7
  2
_FILLED
 10
18.815719591699999
 20
121.030695154
 30
0.0
 41
4.0
 42
4.0
 43
4.0
 50
90.0
  0
INSERT
  5
18F
  8
UNIT-SOL
  6
CONTINUOUS
 62
     7
  2
_FILLED
 10
18.815719591699999
 20
63.659848013599991
 30
0.0
 41
4.0
 42
4.0
 43
4.0
 50
270.0
  0
ENDBLK
  5
190
  8
0
  6
ByBlock
 62
     0
  0
ENDSEC
  0
SECTION
  2
ENTITIES
  0
DIMENSION
  5
191
  8
UNITDUCTDIM
  6
CONTINUOUS
 62
     2
  2
*D1
 10
119.04869136009999
 20
132.62042699259999
 30
0.0
 11
87.887783830300009
 21
132.62042699259999
 31
0.0
 70
   128
 13
107.16974166510001
 23
115.8849003927
 33
0.0
 14
119.04869136009999
 24
115.8849003927
 34
0.0
  0
DIMENSION
  5
192
  8
UNITDUCTDIM
  6
CONTINUOUS
 62
     2
  2
*D2
 10
161.3870433278
 20
69.740735039599997
 30
0.0
 11
160.5870433321
 21
96.123998220000004
 31
0.0
 70
   128
 13
119.04869136009999
 23
115.8849003927
 33
0.0
 14
123.23529714129999
 24
69.740735045299999
 34
0.0
 50
269.9999999913
  0
DIMENSION
  5
193
  8
UNIT-DIM
  6
CONTINUOUS
 62
     7
  2
*D3
 10
102.4605022069
 20
36.692173704200002
 30
0.0
 11
81.673452112899994
 21
36.692173704200002
 31
0.0
 70
   128
 13
60.886402018999988
 23
65.034434699100004
 33
0.0
 14
102.4605022069
 24
70.554260683099997
 34
0.0
  0
DIMENSION
  5
194
  8
UNITDUCTDIM
  6
CONTINUOUS
 62
     2
  2
*D4
 10
99.231799479300022
 20
102.4727954504
 30
0.0
 11
82.550203024499993
 21
100.9727954504
 31
0.0
 70
   128
 13
67.468606569800002
 23
84.407345323999976
 33
0.0
 14
99.231799479300022
 24
84.407345323999976
 34
0.0
 50
359.9999999998999
  0
DIMENSION
  5
195
  8
UNITDUCTDIM
  6
CONTINUOUS
 62
     2
  2
*D5
 10
49.140580509700001
 20
63.659848013599991
 30
0.0
 11
31.6923176761
 21
84.358167896799998
 31
0.0
 70
   128
 13
67.468606567500004
 23
69.735897408500009
 33
0.0
 14
61.302322803999999
 24
63.659848013599991
 34
0.0
 50
269.99999999990001
  0
DIMENSION
  5
196
  8
UNITDUCTDIM
  6
CONTINUOUS
 62
     2
  2
*D6
 10
67.468606567500004
 20
94.987511704799999
 30
0.0
 11
35.673107654100001
 21
94.987511704799999
 31
0.0
 70
   128
 13
60.886402018999988
 23
66.042727511400003
 33
0.0
 14
67.468606567500004
 24
84.407345323999976
 34
0.0
  0
DIMENSION
  5
197
  8
UNITDUCTDIM
  6
CONTINUOUS
 62
     2
  2
*D7
 10
124.259968464
 20
101.0557547562
 30
0.0
 11
139.0592109314
 21
99.555754754899993
 31
0.0
 70
   128
 13
119.04869136009999
 23
115.8849003927
 33
0.0
 14
124.2599684587
 24
66.042727511400003
 34
0.0
 50
359.99999999129989
  0
DIMENSION
  5
198
  8
SERVCLRDIM
  6
CONTINUOUS
 62
     1
  2
*D8
 10
60.886402018999988
 20
139.17996404499999
 30
0.0
 11
37.646402019
 21
137.75496404500001
 31
0.0
 70
   128
 13
12.886402019
 23
121.030695154
 33
0.0
 14
60.886402018999988
 24
121.030695154
 34
0.0
  0
DIMENSION
  5
199
  8
SERVCLRDIM
  6
CONTINUOUS
 62
     1
  2
*D9
 10
196.31195067039999
 20
139.17996404499999
 30
0.0
 11
175.71406322999999
 21
132.05496404499999
 31
0.0
 70
   128
 13
154.31195067039999
 23
121.030695154
 33
0.0
 14
196.31195067039999
 24
121.030695154
 34
0.0
  0
DIMENSION
  5
19A
  8
UNITDUCTDIM
  6
CONTINUOUS
 62
     2
  2
*D10
 10
54.054311101000003
 20
84.407345326099986
 30
0.0
 11
35.112101538399997
 21
90.093030308500005
 31
0.0
 70
   128
 13
67.468606567500004
 23
69.735897408500009
 33
0.0
 14
67.468606569800002
 24
84.407345323999976
 34
0.0
 50
89.999999991299987
  0
DIMENSION
  5
19B
  8
CURB-14-DIM
  6
CONTINUOUS
 62
     6
  2
*D11
 10
121.35443523879999
 20
31.189592397800009
 30
0.0
 11
91.773185238799996
 21
31.189592397800009
 31
0.0
 70
   128
 13
63.791935238800001
 23
34.591132065399997
 33
0.0
 14
121.35443523879999
 24
66.391924227800004
 34
0.0
  0
DIMENSION
  5
19C
  8
CURB-24-DIM
  6
CONTINUOUS
 62
     6
  2
*D12
 10
30.259802565499999
 20
66.659848013599998
 30
0.0
 11
29.459802565499999
 21
51.963528994899988
 31
0.0
 70
   128
 13
62.541935238800001
 23
42.661577260100003
 33
0.0
 14
63.791935238800001
 24
66.659848013599998
 34
0.0
 50
90.0
  0
DIMENSION
  5
19D
  8
CURB-24-DIM
  6
CONTINUOUS
 62
     6
  2
*D13
 10
121.35443523879999
 20
31.183586349799999
 30
0.0
 11
91.773185238799996
 21
31.183586349799999
 31
0.0
 70
   128
 13
63.791935238800001
 23
66.391924227800004
 33
0.0
 14
121.35443523879999
 24
66.391924227800004
 34
0.0
  0
DIMENSION
  5
19E
  8
CURB-14-DIM
  6
CONTINUOUS
 62
     6
  2
*D14
 10
41.277527225999989
 20
52.659848013599998
 30
0.0
 11
40.477527225999999
 21
59.549778569099999
 31
0.0
 70
   128
 13
63.791935238800001
 23
66.659848013599998
 33
0.0
 14
62.1351557562
 24
52.659848013599998
 34
0.0
 50
270.0
  0
DIMENSION
  5
19F
  8
UNIT-DIM
  6
CONTINUOUS
 62
     1
  2
*D15
 10
146.6540967789
 20
63.659848013599991
 30
0.0
 11
146.6540967789
 21
40.821405750899999
 31
0.0
 70
   128
 13
120.47844309129999
 23
66.659848013599998
 33
0.0
 14
121.5123705452
 24
63.659848013599991
 34
0.0
 50
270.0
  0
DIMENSION
  5
1A0
  8
UNITDUCTDIM
  6
CONTINUOUS
 62
     2
  2
*D16
 10
155.12814788950001
 20
63.659848013599991
 30
0.0
 11
167.0781478895
 21
52.022974574800003
 31
0.0
 70
   128
 13
119.0486913531
 23
69.740735045999983
 33
0.0
 14
123.8440476736
 24
63.659848013599991
 34
0.0
 50
270.0
  0
DIMENSION
  5
1A1
  8
UNIT-DIM
  6
CONTINUOUS
 62
     7
  2
*D17
 10
100.4763138149
 20
70.554260683099997
 30
0.0
 11
84.687498781300008
 21
89.912805051399999
 31
0.0
 70
   128
 13
121.5123705452
 23
63.659848013599991
 33
0.0
 14
97.301313814899999
 24
70.554260683099997
 34
0.0
 50
90.0
  0
DIMENSION
  5
1A2
  8
UNIT-SOL
  6
CONTINUOUS
 62
     7
  2
*D18
 10
18.815719591699999
 20
63.659848013599991
 30
0.0
 11
18.815719591699999
 21
96.732150080099998
 31
0.0
 70
   128
 13
22.083739437399998
 23
121.030695154
 33
0.0
 14
15.6407195917
 24
63.659848013599991
 34
0.0
 50
270.0
  0
LINE
  5
1A3
  8
NOTES
  6
CONTINUOUS
 62
     1
 10
0.0
 20
0.0
 30
0.0
 11
48.0
 21
0.0
 31
0.0
  0
LINE
  5
1A4
  8
NOTES
  6
CONTINUOUS
 62
     1
 10
0.0
 20
0.0
 30
0.0
 11
0.0
 21
36.5
 31
0.0
  0
LINE
  5
1A5
  8
NOTES
  6
CONTINUOUS
 62
     1
 10
0.0
 20
4.0
 30
0.0
 11
48.0
 21
4.0
 31
0.0
  0
LINE
  5
1A6
  8
NOTES
  6
CONTINUOUS
 62
     1
 10
0.0
 20
4.5
 30
0.0
 11
48.0
 21
4.5
 31
0.0
  0
LINE
  5
1A7
  8
NOTES
  6
CONTINUOUS
 62
     1
 10
0.0
 20
8.5
 30
0.0
 11
48.0
 21
8.5
 31
0.0
  0
LINE
  5
1A8
  8
NOTES
  6
CONTINUOUS
 62
     1
 10
0.0
 20
12.5
 30
0.0
 11
48.0
 21
12.5
 31
0.0
  0
LINE
  5
1A9
  8
NOTES
  6
CONTINUOUS
 62
     1
 10
0.0
 20
16.5
 30
0.0
 11
48.0
 21
16.5
 31
0.0
  0
LINE
  5
1AA
  8
NOTES
  6
CONTINUOUS
 62
     1
 10
0.0
 20
20.5
 30
0.0
 11
48.0
 21
20.5
 31
0.0
  0
LINE
  5
1AB
  8
NOTES
  6
CONTINUOUS
 62
     1
 10
0.0
 20
24.5
 30
0.0
 11
48.0
 21
24.5
 31
0.0
  0
LINE
  5
1AC
  8
NOTES
  6
CONTINUOUS
 62
     1
 10
0.0
 20
28.5
 30
0.0
 11
48.0
 21
28.5
 31
0.0
  0
LINE
  5
1AD
  8
NOTES
  6
CONTINUOUS
 62
     1
 10
0.0
 20
32.5
 30
0.0
 11
48.0
 21
32.5
 31
0.0
  0
LINE
  5
1AE
  8
NOTES
  6
CONTINUOUS
 62
     1
 10
0.0
 20
36.5
 30
0.0
 11
48.0
 21
36.5
 31
0.0
  0
LINE
  5
1AF
  8
NOTES
  6
CONTINUOUS
 62
     1
 10
16.0
 20
12.5
 30
0.0
 11
16.0
 21
36.5
 31
0.0
  0
LINE
  5
1B0
  8
NOTES
  6
CONTINUOUS
 62
     1
 10
48.0
 20
0.0
 30
0.0
 11
48.0
 21
36.5
 31
0.0
  0
TEXT
  5
1B1
  8
NOTES
  6
CONTINUOUS
 62
     1
 10
0.8
 20
1.0
 30
0.0
 40
2.0
  1
VIEW: RIGHT
 41
0.8
  0
TEXT
  5
1B2
  8
NOTES
  6
CONTINUOUS
 62
     1
 10
0.8
 20
5.5
 30
0.0
 40
2.0
  1
FILE NAME: 
 41
0.8
  0
TEXT
  5
1B3
  8
NOTES
  6
CONTINUOUS
 62
     1
 10
18.399999999999999
 20
5.5
 30
0.0
 40
2.0
  1
TSP50-R-
 41
0.8
  0
TEXT
  5
1B4
  8
NOTES
  6
CONTINUOUS
 62
     1
 10
17.066666666666659
 20
9.5
 30
0.0
 40
2.0
  1
LAYER KEY
 41
0.8
 72
     1
 11
24.0
 21
9.5
 31
0.0
  0
TEXT
  5
1B5
  8
NOTES
  6
CONTINUOUS
 62
     7
 10
5.5555555555333331
 20
13.5
 30
0.0
 40
2.0
  1
-
 41
3.6666666666999999
  7
TEXTSTYLE_2
 72
     1
 11
8.0
 21
13.5
 31
0.0
  0
TEXT
  5
1B6
  8
NOTES
  6
CONTINUOUS
 62
     1
 10
16.800000000000001
 20
13.5
 30
0.0
 40
2.0
  1
UNIT
 41
0.8
  0
TEXT
  5
1B7
  8
NOTES
  6
CONTINUOUS
 62
     6
 10
5.5555555555333331
 20
17.5
 30
0.0
 40
2.0
  1
-
 41
3.6666666666999999
  7
TEXTSTYLE_2
 72
     1
 11
8.0
 21
17.5
 31
0.0
  0
TEXT
  5
1B8
  8
NOTES
  6
CONTINUOUS
 62
     1
 10
16.800000000000001
 20
17.5
 30
0.0
 40
2.0
  1
ROOF CURB
 41
0.8
  0
TEXT
  5
1B9
  8
NOTES
  6
CONTINUOUS
 62
     1
 10
5.5555555555333331
 20
21.5
 30
0.0
 40
2.0
  1
-
 41
3.6666666666999999
  7
TEXTSTYLE_2
 72
     1
 11
8.0
 21
21.5
 31
0.0
  0
TEXT
  5
1BA
  8
NOTES
  6
CONTINUOUS
 62
     1
 10
16.800000000000001
 20
21.5
 30
0.0
 40
2.0
  1
SERVICE CLEARANCE
 41
0.8
  0
TEXT
  5
1BB
  8
NOTES
  6
CONTINUOUS
 62
     2
 10
5.5555555555333331
 20
25.5
 30
0.0
 40
2.0
  1
-
 41
3.6666666666999999
  7
TEXTSTYLE_2
 72
     1
 11
8.0
 21
25.5
 31
0.0
  0
TEXT
  5
1BC
  8
NOTES
  6
CONTINUOUS
 62
     1
 10
16.800000000000001
 20
25.5
 30
0.0
 40
2.0
  1
UNIT DUCTS
 41
0.8
  0
TEXT
  5
1BD
  8
NOTES
  6
CONTINUOUS
 62
     5
 10
5.5555555555333331
 20
29.5
 30
0.0
 40
2.0
  1
-
 41
3.6666666666999999
  7
TEXTSTYLE_2
 72
     1
 11
8.0
 21
29.5
 31
0.0
  0
TEXT
  5
1BE
  8
NOTES
  6
CONTINUOUS
 62
     1
 10
16.800000000000001
 20
29.5
 30
0.0
 40
2.0
  1
CURB DUCTS
 41
0.8
  0
TEXT
  5
1BF
  8
NOTES
  6
HIDDEN
 62
     8
 10
5.5555555555333331
 20
33.5
 30
0.0
 40
2.0
  1
-
 41
3.6666666666999999
  7
TEXTSTYLE_2
 72
     1
 11
8.0
 21
33.5
 31
0.0
  0
TEXT
  5
1C0
  8
NOTES
  6
CONTINUOUS
 62
     1
 10
16.800000000000001
 20
33.5
 30
0.0
 40
2.0
  1
UNIT HIDDEN
 41
0.8
  0
TEXT
  5
1C1
  8
NOTES
  6
CONTINUOUS
 62
     1
 10
78.150118362566644
 20
125.61834323959999
 30
0.0
 40
2.0
  1
RETURN AIR
 41
0.8
 72
     2
 11
93.083451695899996
 21
125.61834323959999
 31
0.0
  0
TEXT
  5
1C2
  8
NOTES
  6
CONTINUOUS
 62
     1
 10
76.550118362566664
 20
122.61834323959999
 30
0.0
 40
2.0
  1
 HORIZONTAL
 41
0.8
 72
     2
 11
93.083451695899996
 21
122.61834323959999
 31
0.0
  0
LINE
  5
1C3
  8
NOTES
  6
CONTINUOUS
 62
     1
 10
107.1697416641
 20
109.66982585140001
 30
0.0
 11
96.642550987299998
 21
126.61834323959999
 31
0.0
  0
LINE
  5
1C4
  8
NOTES
  6
CONTINUOUS
 62
     1
 10
96.642550987299998
 20
126.61834323959999
 30
0.0
 11
93.083451695899996
 21
126.61834323959999
 31
0.0
  0
SOLID
  5
1C5
  8
NOTES
  6
CONTINUOUS
 62
     1
 10
104.4221111734
 20
112.67199618079999
 30
0.0
 11
107.1697416641
 21
109.66982585140001
 31
0.0
 12
105.6963213638
 22
113.4634432041
 32
0.0
 13
105.6963213638
 23
113.4634432041
 33
0.0
  0
TEXT
  5
1C6
  8
NOTES
  6
CONTINUOUS
 62
     1
 10
36.317919449000001
 20
109.4960374894
 30
0.0
 40
2.0
  1
SUPPLY AIR
 41
0.8
  0
TEXT
  5
1C7
  8
NOTES
  6
CONTINUOUS
 62
     1
 10
36.317919449000001
 20
106.4960374894
 30
0.0
 40
2.0
  1
HORIZONTAL
 41
0.8
  0
LINE
  5
1C8
  8
NOTES
  6
CONTINUOUS
 62
     1
 10
67.468606569599999
 20
83.006307883399984
 30
0.0
 11
56.772496376000007
 21
110.4960374894
 31
0.0
  0
LINE
  5
1C9
  8
NOTES
  6
CONTINUOUS
 62
     1
 10
56.772496376000007
 20
110.4960374894
 30
0.0
 11
52.317919448999987
 21
110.4960374894
 31
0.0
  0
SOLID
  5
1CA
  8
NOTES
  6
CONTINUOUS
 62
     1
 10
65.319199992600005
 20
86.462107554500008
 30
0.0
 11
67.468606569599999
 21
83.006307883399984
 31
0.0
 12
66.717109754199996
 22
87.006026940599995
 32
0.0
 13
66.717109754199996
 23
87.006026940599995
 33
0.0
  0
TEXT
  5
1CB
  8
NOTES
  6
CONTINUOUS
 62
     1
 10
124.5068333442
 20
59.365909049999999
 30
0.0
 40
2.0
  1
3/4"-14 NPT
 41
0.8
  0
TEXT
  5
1CC
  8
NOTES
  6
CONTINUOUS
 62
     1
 10
124.5068333442
 20
56.365909049999999
 30
0.0
 40
2.0
  1
STANDARD
 41
0.8
  0
TEXT
  5
1CD
  8
NOTES
  6
CONTINUOUS
 62
     1
 10
124.5068333442
 20
53.365909049999999
 30
0.0
 40
2.0
  1
CONDENSATE 
 41
0.8
  0
TEXT
  5
1CE
  8
NOTES
  6
CONTINUOUS
 62
     1
 10
124.5068333442
 20
50.365909049999999
 30
0.0
 40
2.0
  1
DRAIN
 41
0.8
  0
LINE
  5
1CF
  8
NOTES
  6
CONTINUOUS
 62
     1
 10
102.9571248762999
 20
69.856246530000007
 30
0.0
 11
120.5845541808
 21
60.365909049999999
 31
0.0
  0
LINE
  5
1D0
  8
NOTES
  6
CONTINUOUS
 62
     1
 10
120.5845541808
 20
60.365909049999999
 30
0.0
 11
124.5068333442
 21
60.365909049999999
 31
0.0
  0
SOLID
  5
1D1
  8
NOTES
  6
CONTINUOUS
 62
     1
 10
106.8346578081
 20
68.620431671899993
 30
0.0
 11
102.9571248762999
 21
69.856246530000007
 31
0.0
 12
106.1235867924
 22
67.299682637999993
 32
0.0
 13
106.1235867924
 23
67.299682637999993
 33
0.0
  0
LINE
  5
1D2
  8
0
  6
CONTINUOUS
 62
     7
 10
0.0
 20
0.0
 30
0.0
 11
0.0
 21
150.0
 31
0.0
  0
LINE
  5
1D3
  8
SERVCLEAR
  6
DASHED
 62
     1
 10
12.886402019
 20
121.030695154
 30
0.0
 11
12.886402019
 21
63.659848013599991
 31
0.0
  0
LINE
  5
1D4
  8
0
  6
CONTINUOUS
 62
     7
 10
0.0
 20
0.0
 30
0.0
 11
225.0
 21
0.0
 31
0.0
  0
LINE
  5
1D5
  8
UNIT-SOL
  6
CONTINUOUS
 62
     7
 10
61.614249707100001
 20
119.8744285943
 30
0.0
 11
61.682593583699997
 21
119.94278975100001
 31
0.0
  0
LINE
  5
1D6
  8
UNIT-SOL
  6
CONTINUOUS
 62
     7
 10
61.639593586899998
 20
119.8490847148
 30
0.0
 11
61.707937463500002
 21
119.91744587159999
 31
0.0
  0
LINE
  5
1D7
  8
SERVCLEAR
  6
DASHED
 62
     1
 10
60.886402018999988
 20
121.030695154
 30
0.0
 11
60.886402018999988
 21
63.659848013599991
 31
0.0
  0
LINE
  5
1D8
  8
UNIT-SOL
  6
CONTINUOUS
 62
     7
 10
60.886402018999988
 20
65.034434699100004
 30
0.0
 11
60.886402018999988
 21
66.042727511400003
 31
0.0
  0
LINE
  5
1D9
  8
UNIT-SOL
  6
CONTINUOUS
 62
     7
 10
61.004561332899989
 20
63.864657491099997
 30
0.0
 11
61.004561332899989
 21
64.778453151299999
 31
0.0
  0
LINE
  5
1DA
  8
UNIT-SOL
  6
CONTINUOUS
 62
     7
 10
61.004561332899989
 20
66.298709059300009
 30
0.0
 11
61.004561332899989
 21
67.212504719400002
 31
0.0
  0
LINE
  5
1DB
  8
UNIT-SOL
  6
CONTINUOUS
 62
     7
 10
61.344466292700012
 20
67.443309245999984
 30
0.0
 11
61.344466292700012
 21
67.413375553100011
 31
0.0
  0
LINE
  5
1DC
  8
UNIT-SOL
  6
CONTINUOUS
 62
     7
 10
61.717201545400002
 20
120.0263620283
 30
0.0
 11
61.717201545499996
 21
120.8767156604
 31
0.0
  0
LINE
  5
1DD
  8
UNIT-SOL
  6
CONTINUOUS
 62
     7
 10
61.782189244100003
 20
119.9971491215
 30
0.0
 11
61.782189236100002
 21
67.443309245999984
 31
0.0
  0
LINE
  5
1DE
  8
UNIT-SOL
  6
CONTINUOUS
 62
     7
 10
63.633999932499989
 20
67.413375553100011
 30
0.0
 11
63.633999932499989
 21
63.659848013599991
 31
0.0
  0
POLYLINE
  5
1DF
  8
CURB-14
  6
DOT
 62
     6
 66
     1
 10
0.0
 20
0.0
 30
0.0
 40
0.0098425194
 41
0.0098425194
  0
VERTEX
  5
2D4
  8
CURB-14
  6
DOT
 62
     6
 10
63.791935238800001
 20
65.514044848500006
 30
0.0
  0
VERTEX
  5
2D5
  8
CURB-14
  6
DOT
 62
     6
 10
63.791935238800001
 20
66.659848013599998
 30
0.0
  0
SEQEND
  5
2D6
  8
CURB-14
  6
DOT
 62
     6
  0
POLYLINE
  5
1E3
  8
CURB-24
  6
DOT
 62
     6
 66
     1
 10
0.0
 20
0.0
 30
0.0
 40
0.0098425194
 41
0.0098425194
  0
VERTEX
  5
2D7
  8
CURB-24
  6
DOT
 62
     6
 10
63.791935238800001
 20
65.514044848500006
 30
0.0
  0
VERTEX
  5
2D8
  8
CURB-24
  6
DOT
 62
     6
 10
63.791935238800001
 20
66.659848013599998
 30
0.0
  0
SEQEND
  5
2D9
  8
CURB-24
  6
DOT
 62
     6
  0
POLYLINE
  5
1E7
  8
CURB-24
  6
CONTINUOUS
 62
     6
 66
     1
 10
0.0
 20
0.0
 30
0.0
 40
0.0118110236
 41
0.0118110236
  0
VERTEX
  5
2DA
  8
CURB-24
  6
CONTINUOUS
 62
     6
 10
65.541935238800008
 20
63.659848013599991
 30
0.0
  0
VERTEX
  5
2DB
  8
CURB-24
  6
CONTINUOUS
 62
     6
 10
65.541935238800008
 20
42.661577260100003
 30
0.0
  0
SEQEND
  5
2DC
  8
CURB-24
  6
CONTINUOUS
 62
     6
  0
POLYLINE
  5
1EB
  8
CURB-14
  6
CONTINUOUS
 62
     6
 66
     1
 10
0.0
 20
0.0
 30
0.0
 40
0.0118110236
 41
0.0118110236
  0
VERTEX
  5
2DD
  8
CURB-14
  6
CONTINUOUS
 62
     6
 10
65.541935238800008
 20
63.659848013599991
 30
0.0
  0
VERTEX
  5
2DE
  8
CURB-14
  6
CONTINUOUS
 62
     6
 10
65.541935238800008
 20
52.659848013599998
 30
0.0
  0
SEQEND
  5
2DF
  8
CURB-14
  6
CONTINUOUS
 62
     6
  0
POLYLINE
  5
1EF
  8
CURB-14
  6
DOT
 62
     6
 66
     1
 10
0.0
 20
0.0
 30
0.0
 40
0.0098425194
 41
0.0098425194
  0
VERTEX
  5
2E0
  8
CURB-14
  6
DOT
 62
     6
 10
65.541935238800008
 20
63.659848013599991
 30
0.0
  0
VERTEX
  5
2E1
  8
CURB-14
  6
DOT
 62
     6
 10
65.541935238800008
 20
65.512566676800006
 30
0.0
  0
SEQEND
  5
2E2
  8
CURB-14
  6
DOT
 62
     6
  0
POLYLINE
  5
1F3
  8
CURB-24
  6
DOT
 62
     6
 66
     1
 10
0.0
 20
0.0
 30
0.0
 40
0.0098425194
 41
0.0098425194
  0
VERTEX
  5
2E3
  8
CURB-24
  6
DOT
 62
     6
 10
65.541935238800008
 20
63.659848013599991
 30
0.0
  0
VERTEX
  5
2E4
  8
CURB-24
  6
DOT
 62
     6
 10
65.541935238800008
 20
65.512566676800006
 30
0.0
  0
SEQEND
  5
2E5
  8
CURB-24
  6
DOT
 62
     6
  0
LINE
  5
1F7
  8
UNIT-SOL
  6
CONTINUOUS
 62
     7
 10
61.114449494900001
 20
63.847721322700011
 30
0.0
 11
61.114457756900002
 21
63.864657491099997
 31
0.0
  0
LINE
  5
1F8
  8
UNIT-SOL
  6
CONTINUOUS
 62
     7
 10
60.963053377199998
 20
64.868376411699998
 30
0.0
 11
60.9110465885
 21
64.933699511300006
 31
0.0
  0
LINE
  5
1F9
  8
UNIT-DUCTS
  6
CONTINUOUS
 62
     2
 10
67.468606567500004
 20
69.735897408500009
 30
0.0
 11
67.468606569800002
 21
84.407345323999976
 31
0.0
  0
LINE
  5
1FA
  8
UNIT-SOL
  6
CONTINUOUS
 62
     7
 10
60.9110465885
 20
66.143462699200001
 30
0.0
 11
60.929280825200003
 21
66.167379395799998
 31
0.0
  0
LINE
  5
1FB
  8
UNIT-SOL
  6
CONTINUOUS
 62
     7
 10
60.929280825200003
 20
66.167379395799998
 30
0.0
 11
60.963053377199998
 21
66.20878579890001
 31
0.0
  0
LINE
  5
1FC
  8
UNIT-SOL
  6
CONTINUOUS
 62
     7
 10
123.1781639955
 20
119.84914324810001
 30
0.0
 11
123.3948592624
 21
120.0023425799
 31
0.0
  0
POLYLINE
  5
1FD
  8
CURB-24
  6
CONTINUOUS
 62
     6
 66
     1
 10
0.0
 20
0.0
 30
0.0
 40
0.0098425194
 41
0.0098425194
  0
VERTEX
  5
2E6
  8
CURB-24
  6
CONTINUOUS
 62
     6
 10
62.541935238800001
 20
42.661577260100003
 30
0.0
  0
VERTEX
  5
2E7
  8
CURB-24
  6
CONTINUOUS
 62
     6
 10
122.60443523879999
 20
42.661577260100003
 30
0.0
  0
SEQEND
  5
2E8
  8
CURB-24
  6
CONTINUOUS
 62
     6
  0
LINE
  5
201
  8
UNIT-SOL
  6
CONTINUOUS
 62
     7
 10
123.53176993069999
 20
119.8744287137
 30
0.0
 11
123.5064260509
 21
119.8490848342
 31
0.0
  0
POLYLINE
  5
202
  8
CURB-14
  6
CONTINUOUS
 62
     6
 66
     1
 10
0.0
 20
0.0
 30
0.0
 40
0.0098425194
 41
0.0098425194
  0
VERTEX
  5
2E9
  8
CURB-14
  6
CONTINUOUS
 62
     6
 10
62.541935238800001
 20
52.659848013599998
 30
0.0
  0
VERTEX
  5
2EA
  8
CURB-14
  6
CONTINUOUS
 62
     6
 10
122.60443523879999
 20
52.659848013599998
 30
0.0
  0
SEQEND
  5
2EB
  8
CURB-14
  6
CONTINUOUS
 62
     6
  0
LINE
  5
206
  8
UNIT-DUCTS
  6
CONTINUOUS
 62
     2
 10
99.231799479300022
 20
84.407345323999976
 30
0.0
 11
99.231799477099997
 21
69.735897408400007
 31
0.0
  0
LINE
  5
207
  8
UNIT-SOL
  6
CONTINUOUS
 62
     7
 10
123.8440476736
 20
63.659848013599991
 30
0.0
 11
63.633999932499989
 21
63.659848013599991
 31
0.0
  0
LINE
  5
208
  8
SERVCLEAR
  6
DASHED
 62
     1
 10
12.886402019
 20
63.659848013599991
 30
0.0
 11
60.886402018999988
 21
63.659848013599991
 31
0.0
  0
LINE
  5
209
  8
UNIT-SOL
  6
CONTINUOUS
 62
     7
 10
61.302322803999999
 20
63.659848013599991
 30
0.0
 11
63.451246860300003
 21
63.659848013599991
 31
0.0
  0
LINE
  5
20A
  8
SERVCLEAR
  6
DASHED
 62
     1
 10
154.31195067039999
 20
63.659848013599991
 30
0.0
 11
196.31195067039999
 21
63.659848013599991
 31
0.0
  0
LINE
  5
20B
  8
UNIT-SOL
  6
CONTINUOUS
 62
     7
 10
63.639120169399988
 20
63.864657491099997
 30
0.0
 11
61.004561332899989
 21
63.864657491099997
 31
0.0
  0
LINE
  5
20C
  8
UNIT-SOL
  6
CONTINUOUS
 62
     7
 10
121.5123705452
 20
63.864657491099997
 30
0.0
 11
124.14180914480001
 21
63.864657491099997
 31
0.0
  0
POLYLINE
  5
20D
  8
CURB-14
  6
DOT
 62
     6
 66
     1
 10
0.0
 20
0.0
 30
0.0
 40
0.0098425194
 41
0.0098425194
  0
VERTEX
  5
2EC
  8
CURB-14
  6
DOT
 62
     6
 10
63.791935238800001
 20
66.659848013599998
 30
0.0
  0
VERTEX
  5
2ED
  8
CURB-14
  6
DOT
 62
     6
 10
121.35443523879999
 20
66.659848013599998
 30
0.0
  0
SEQEND
  5
2EE
  8
CURB-14
  6
DOT
 62
     6
  0
POLYLINE
  5
211
  8
CURB-24
  6
DOT
 62
     6
 66
     1
 10
0.0
 20
0.0
 30
0.0
 40
0.0098425194
 41
0.0098425194
  0
VERTEX
  5
2EF
  8
CURB-24
  6
DOT
 62
     6
 10
63.791935238800001
 20
66.659848013599998
 30
0.0
  0
VERTEX
  5
2F0
  8
CURB-24
  6
DOT
 62
     6
 10
121.35443523879999
 20
66.659848013599998
 30
0.0
  0
SEQEND
  5
2F1
  8
CURB-24
  6
DOT
 62
     6
  0
LINE
  5
215
  8
UNIT-SOL
  6
CONTINUOUS
 62
     7
 10
63.639120169399988
 20
67.212504719400002
 30
0.0
 11
61.004561332899989
 21
67.212504719400002
 31
0.0
  0
LINE
  5
216
  8
UNIT-SOL
  6
CONTINUOUS
 62
     7
 10
121.5123705452
 20
67.212504719400002
 30
0.0
 11
124.14180914480001
 21
67.212504719400002
 31
0.0
  0
LINE
  5
217
  8
UNIT-SOL
  6
CONTINUOUS
 62
     7
 10
61.760387077700003
 20
67.351538845500002
 30
0.0
 11
61.302322803999999
 21
67.351538845500002
 31
0.0
  0
LINE
  5
218
  8
UNIT-SOL
  6
CONTINUOUS
 62
     7
 10
123.3859833999
 20
67.351538845500002
 30
0.0
 11
123.8440476736
 21
67.351538845500002
 31
0.0
  0
LINE
  5
219
  8
UNIT-SOL
  6
CONTINUOUS
 62
     7
 10
61.899711000200007
 20
67.413375553100011
 30
0.0
 11
61.302322803999999
 21
67.413375553100011
 31
0.0
  0
LINE
  5
21A
  8
UNIT-SOL
  6
CONTINUOUS
 62
     7
 10
63.633999932499989
 20
67.413375553100011
 30
0.0
 11
121.5123705452
 21
67.413375553100011
 31
0.0
  0
LINE
  5
21B
  8
UNIT-SOL
  6
CONTINUOUS
 62
     7
 10
123.3859833999
 20
67.413375553100011
 30
0.0
 11
123.90509665250001
 21
67.413375553100011
 31
0.0
  0
LINE
  5
21C
  8
UNIT-SOL
  6
CONTINUOUS
 62
     7
 10
61.782189236100002
 20
67.442770224
 30
0.0
 11
123.1375941193
 21
67.442794790699992
 31
0.0
  0
LINE
  5
21D
  8
UNIT-SOL
  6
CONTINUOUS
 62
     7
 10
61.782189236100002
 20
67.443309245999984
 30
0.0
 11
61.344466292700012
 21
67.443309245999984
 31
0.0
  0
LINE
  5
21E
  8
UNIT-SOL
  6
CONTINUOUS
 62
     7
 10
123.90509665250001
 20
67.451265306499991
 30
0.0
 11
123.485111187
 21
67.451265306499991
 31
0.0
  0
LINE
  5
21F
  8
HOOD
  6
CONTINUOUS
 62
     7
 10
123.4230854245
 20
67.717786059099993
 30
0.0
 11
133.29994370399999
 21
67.717786059099993
 31
0.0
  0
LINE
  5
220
  8
UNIT-SOL
  6
CONTINUOUS
 62
     7
 10
123.305085009
 20
67.442764985699995
 30
0.0
 11
123.1375941193
 21
67.442794790699992
 31
0.0
  0
POLYLINE
  5
221
  8
CURB-14
  6
DOT
 62
     6
 66
     1
 10
0.0
 20
0.0
 30
0.0
 40
0.0098425194
 41
0.0098425194
  0
VERTEX
  5
2F2
  8
CURB-14
  6
DOT
 62
     6
 10
121.35443523879999
 20
65.409848013599998
 30
0.0
  0
VERTEX
  5
2F3
  8
CURB-14
  6
DOT
 62
     6
 10
63.791935238800001
 20
65.514044848500006
 30
0.0
  0
SEQEND
  5
2F4
  8
CURB-14
  6
DOT
 62
     6
  0
POLYLINE
  5
225
  8
CURB-24
  6
DOT
 62
     6
 66
     1
 10
0.0
 20
0.0
 30
0.0
 40
0.0098425194
 41
0.0098425194
  0
VERTEX
  5
2F5
  8
CURB-24
  6
DOT
 62
     6
 10
121.35443523879999
 20
65.409848013599998
 30
0.0
  0
VERTEX
  5
2F6
  8
CURB-24
  6
DOT
 62
     6
 10
63.791935238800001
 20
65.514044848500006
 30
0.0
  0
SEQEND
  5
2F7
  8
CURB-24
  6
DOT
 62
     6
  0
LINE
  5
229
  8
UNIT-DUCTS
  6
CONTINUOUS
 62
     2
 10
67.468606569599999
 20
84.407345324099992
 30
0.0
 11
99.231799477099997
 21
69.735897408500009
 31
0.0
  0
LINE
  5
22A
  8
UNIT-DUCTS
  6
CONTINUOUS
 62
     2
 10
107.16974165809999
 20
69.740735045999983
 30
0.0
 11
107.16974166510001
 21
115.8849003927
 31
0.0
  0
LINE
  5
22B
  8
UNIT-DUCTS
  6
CONTINUOUS
 62
     2
 10
107.16974165809999
 20
69.740735045999983
 30
0.0
 11
119.04869136009999
 21
115.8849003927
 31
0.0
  0
LINE
  5
22C
  8
UNIT-DUCTS
  6
CONTINUOUS
 62
     2
 10
99.231799477099997
 20
69.735897408400007
 30
0.0
 11
67.468606567500004
 21
69.735897408500009
 31
0.0
  0
LINE
  5
22D
  8
UNIT-DUCTS
  6
CONTINUOUS
 62
     2
 10
119.0486913531
 20
69.740735045999983
 30
0.0
 11
107.16974165809999
 21
69.740735045999983
 31
0.0
  0
LINE
  5
22E
  8
UNIT-SOL
  6
CONTINUOUS
 62
     7
 10
61.614249707100001
 20
119.8744285943
 30
0.0
 11
61.639593586899998
 21
119.8490847148
 31
0.0
  0
LINE
  5
22F
  8
UNIT-SOL
  6
CONTINUOUS
 62
     7
 10
61.753043243699992
 20
120.02629512190001
 30
0.0
 11
61.930195117499999
 21
119.84914324810001
 31
0.0
  0
LINE
  5
230
  8
UNIT-DUCTS
  6
CONTINUOUS
 62
     2
 10
119.04869136009999
 20
115.8849003927
 30
0.0
 11
119.0486913531
 21
69.740735045999983
 31
0.0
  0
POLYLINE
  5
231
  8
CURB-24
  6
CONTINUOUS
 62
     6
 66
     1
 10
0.0
 20
0.0
 30
0.0
 40
0.0118110236
 41
0.0118110236
  0
VERTEX
  5
2F8
  8
CURB-24
  6
CONTINUOUS
 62
     6
 10
119.60443523879999
 20
63.659848013599991
 30
0.0
  0
VERTEX
  5
2F9
  8
CURB-24
  6
CONTINUOUS
 62
     6
 10
119.60443523879999
 20
42.661577260100003
 30
0.0
  0
SEQEND
  5
2FA
  8
CURB-24
  6
CONTINUOUS
 62
     6
  0
POLYLINE
  5
235
  8
CURB-14
  6
CONTINUOUS
 62
     6
 66
     1
 10
0.0
 20
0.0
 30
0.0
 40
0.0118110236
 41
0.0118110236
  0
VERTEX
  5
2FB
  8
CURB-14
  6
CONTINUOUS
 62
     6
 10
119.60443523879999
 20
63.659848013599991
 30
0.0
  0
VERTEX
  5
2FC
  8
CURB-14
  6
CONTINUOUS
 62
     6
 10
119.60443523879999
 20
52.659848013599998
 30
0.0
  0
SEQEND
  5
2FD
  8
CURB-14
  6
CONTINUOUS
 62
     6
  0
POLYLINE
  5
239
  8
CURB-14
  6
DOT
 62
     6
 66
     1
 10
0.0
 20
0.0
 30
0.0
 40
0.0098425194
 41
0.0098425194
  0
VERTEX
  5
2FE
  8
CURB-14
  6
DOT
 62
     6
 10
119.60443523879999
 20
63.659848013599991
 30
0.0
  0
VERTEX
  5
2FF
  8
CURB-14
  6
DOT
 62
     6
 10
119.60443523879999
 20
65.411517070399995
 30
0.0
  0
SEQEND
  5
300
  8
CURB-14
  6
DOT
 62
     6
  0
POLYLINE
  5
23D
  8
CURB-24
  6
DOT
 62
     6
 66
     1
 10
0.0
 20
0.0
 30
0.0
 40
0.0098425194
 41
0.0098425194
  0
VERTEX
  5
301
  8
CURB-24
  6
DOT
 62
     6
 10
119.60443523879999
 20
63.659848013599991
 30
0.0
  0
VERTEX
  5
302
  8
CURB-24
  6
DOT
 62
     6
 10
119.60443523879999
 20
65.411517070399995
 30
0.0
  0
SEQEND
  5
303
  8
CURB-24
  6
DOT
 62
     6
  0
POLYLINE
  5
241
  8
CURB-14
  6
DOT
 62
     6
 66
     1
 10
0.0
 20
0.0
 30
0.0
 40
0.0098425194
 41
0.0098425194
  0
VERTEX
  5
304
  8
CURB-14
  6
DOT
 62
     6
 10
121.35443523879999
 20
66.659848013599998
 30
0.0
  0
VERTEX
  5
305
  8
CURB-14
  6
DOT
 62
     6
 10
121.35443523879999
 20
65.409848013599998
 30
0.0
  0
SEQEND
  5
306
  8
CURB-14
  6
DOT
 62
     6
  0
POLYLINE
  5
245
  8
CURB-24
  6
DOT
 62
     6
 66
     1
 10
0.0
 20
0.0
 30
0.0
 40
0.0098425194
 41
0.0098425194
  0
VERTEX
  5
307
  8
CURB-24
  6
DOT
 62
     6
 10
121.35443523879999
 20
66.659848013599998
 30
0.0
  0
VERTEX
  5
308
  8
CURB-24
  6
DOT
 62
     6
 10
121.35443523879999
 20
65.409848013599998
 30
0.0
  0
SEQEND
  5
309
  8
CURB-24
  6
DOT
 62
     6
  0
LINE
  5
249
  8
HOOD
  6
CONTINUOUS
 62
     7
 10
151.96633962440001
 20
89.221986274100004
 30
0.0
 11
152.4625242347
 21
89.491184147999988
 31
0.0
  0
LINE
  5
24A
  8
UNIT-SOL
  6
CONTINUOUS
 62
     7
 10
124.18331710050001
 20
66.20878579890001
 30
0.0
 11
124.2170896428
 21
66.167379405399998
 31
0.0
  0
LINE
  5
24B
  8
UNIT-SOL
  6
CONTINUOUS
 62
     7
 10
124.2170896428
 20
66.167379405399998
 30
0.0
 11
124.2353238892
 21
66.143462699200001
 31
0.0
  0
LINE
  5
24C
  8
UNIT-DUCTS
  6
CONTINUOUS
 62
     2
 10
107.16974166510001
 20
115.8849003927
 30
0.0
 11
119.0486913531
 21
69.740735045999983
 31
0.0
  0
LINE
  5
24D
  8
UNIT-SOL
  6
CONTINUOUS
 62
     7
 10
121.5123705452
 20
67.413375553100011
 30
0.0
 11
121.5123705452
 21
63.659848013599991
 31
0.0
  0
LINE
  5
24E
  8
UNIT-SOL
  6
CONTINUOUS
 62
     7
 10
123.4230854245
 20
119.9348795273
 30
0.0
 11
123.4230854245
 21
67.51329106899999
 31
0.0
  0
LINE
  5
24F
  8
UNIT-SOL
  6
CONTINUOUS
 62
     7
 10
123.4288178482
 20
120.87671521030001
 30
0.0
 11
123.42881784799999
 21
120.0263620283
 31
0.0
  0
LINE
  5
250
  8
UNIT-SOL
  6
CONTINUOUS
 62
     7
 10
123.485111187
 20
67.413375553100011
 30
0.0
 11
123.485111187
 21
67.451265306499991
 31
0.0
  0
LINE
  5
251
  8
UNIT-SOL
  6
CONTINUOUS
 62
     7
 10
123.90509665250001
 20
67.451265306499991
 30
0.0
 11
123.90509665250001
 21
67.413375553100011
 31
0.0
  0
LINE
  5
252
  8
UNIT-SOL
  6
CONTINUOUS
 62
     7
 10
124.14180914480001
 20
67.212504719400002
 30
0.0
 11
124.14180914480001
 21
66.298709059300009
 31
0.0
  0
LINE
  5
253
  8
UNIT-SOL
  6
CONTINUOUS
 62
     7
 10
124.14180914480001
 20
64.778453151299999
 30
0.0
 11
124.14180914480001
 21
63.864657491099997
 31
0.0
  0
LINE
  5
254
  8
UNIT-SOL
  6
CONTINUOUS
 62
     7
 10
124.2599684587
 20
66.042727511400003
 30
0.0
 11
124.2599684587
 21
65.034434699100004
 31
0.0
  0
LINE
  5
255
  8
UNIT-SOL
  6
CONTINUOUS
 62
     7
 10
124.2353238892
 20
64.933699511300006
 30
0.0
 11
124.18331710050001
 21
64.868376411699998
 31
0.0
  0
LINE
  5
256
  8
UNIT-DUCTS
  6
CONTINUOUS
 62
     2
 10
67.468606569800002
 20
84.407345323999976
 30
0.0
 11
99.231799479300022
 21
84.407345323999976
 31
0.0
  0
LINE
  5
257
  8
HOOD
  6
CONTINUOUS
 62
     7
 10
133.29994370399999
 20
67.717786059099993
 30
0.0
 11
148.26437294420001
 21
90.319865246299983
 31
0.0
  0
LINE
  5
258
  8
HOOD
  6
CONTINUOUS
 62
     7
 10
148.26437294420001
 20
90.319865246299983
 30
0.0
 11
151.96633962440001
 21
89.221986274100004
 31
0.0
  0
LINE
  5
259
  8
HOOD
  6
CONTINUOUS
 62
     7
 10
153.1219233047
 20
89.295628532300015
 30
0.0
 11
152.4625242347
 21
89.491184147999988
 31
0.0
  0
LINE
  5
25A
  8
HOOD
  6
CONTINUOUS
 62
     7
 10
153.13273219690001
 20
89.332075317299996
 30
0.0
 11
123.4230854245
 21
98.142958633999996
 31
0.0
  0
LINE
  5
25B
  8
HOOD
  6
CONTINUOUS
 62
     7
 10
153.2647144597
 20
89.777109744200004
 30
0.0
 11
152.8580450696
 21
89.897714225699985
 31
0.0
  0
LINE
  5
25C
  8
HOOD
  6
CONTINUOUS
 62
     7
 10
152.8688539618
 20
89.934161010599993
 30
0.0
 11
153.27552335190001
 21
89.813556529099998
 31
0.0
  0
LINE
  5
25D
  8
HOOD
  6
CONTINUOUS
 62
     7
 10
152.8688539618
 20
89.934161010599993
 30
0.0
 11
152.8580450696
 21
89.897714225699985
 31
0.0
  0
LINE
  5
25E
  8
HOOD
  6
CONTINUOUS
 62
     7
 10
153.29035235239999
 20
89.729854067000005
 30
0.0
 11
153.17998787409999
 21
89.35771321
 31
0.0
  0
LINE
  5
25F
  8
HOOD
  6
CONTINUOUS
 62
     7
 10
153.3267991374
 20
89.719045174800002
 30
0.0
 11
153.21643465899999
 21
89.346904317899998
 31
0.0
  0
LINE
  5
260
  8
UNIT-SOL
  6
CONTINUOUS
 62
     7
 10
123.43808213
 20
119.91744587159999
 30
0.0
 11
123.5064260509
 21
119.8490848342
 31
0.0
  0
LINE
  5
261
  8
UNIT-SOL
  6
CONTINUOUS
 62
     7
 10
123.4634260098
 20
119.94278975100001
 30
0.0
 11
123.53176993069999
 21
119.8744287137
 31
0.0
  0
LINE
  5
262
  8
SERVCLEAR
  6
DASHED
 62
     1
 10
154.31195067039999
 20
121.030695154
 30
0.0
 11
154.31195067039999
 21
63.659848013599991
 31
0.0
  0
LINE
  5
263
  8
UNIT-DUCTS
  6
CONTINUOUS
 62
     2
 10
107.16974166510001
 20
115.8849003927
 30
0.0
 11
119.04869136009999
 21
115.8849003927
 31
0.0
  0
LINE
  5
264
  8
UNIT-SOL
  6
CONTINUOUS
 62
     7
 10
123.1781639955
 20
119.84914324810001
 30
0.0
 11
61.930195117499999
 21
119.84914324810001
 31
0.0
  0
LINE
  5
265
  8
UNIT-SOL
  6
CONTINUOUS
 62
     7
 10
123.27481697579999
 20
121.030695154
 30
0.0
 11
61.871202618100007
 21
121.030695154
 31
0.0
  0
LINE
  5
266
  8
SERVCLEAR
  6
DASHED
 62
     1
 10
12.886402019
 20
121.030695154
 30
0.0
 11
60.886402018999988
 21
121.030695154
 31
0.0
  0
LINE
  5
267
  8
SERVCLEAR
  6
DASHED
 62
     1
 10
154.31195067039999
 20
121.030695154
 30
0.0
 11
196.31195067039999
 21
121.030695154
 31
0.0
  0
LINE
  5
268
  8
0
  6
CONTINUOUS
 62
     7
 10
0.0
 20
150.0
 30
0.0
 11
225.0
 21
150.0
 31
0.0
  0
LINE
  5
269
  8
SERVCLEAR
  6
DASHED
 62
     1
 10
196.31195067039999
 20
120.81103413699999
 30
0.0
 11
196.31195067039999
 21
63.659848013599991
 31
0.0
  0
LINE
  5
26A
  8
0
  6
CONTINUOUS
 62
     7
 10
225.0
 20
0.0
 30
0.0
 11
225.0
 21
150.0
 31
0.0
  0
CIRCLE
  5
26B
  8
UNIT-SOL
  6
CONTINUOUS
 62
     7
 10
102.4605022069
 20
70.554260683099997
 30
0.0
 40
0.8566550260999999
  0
ARC
  5
26C
  8
UNIT-SOL
  6
CONTINUOUS
 62
     7
 10
61.104602885399999
 20
65.034434699100004
 30
0.0
 40
0.2182008664
 50
180.0
 51
207.4944466956
  0
ARC
  5
26D
  8
UNIT-SOL
  6
CONTINUOUS
 62
     7
 10
61.104602885399999
 20
66.042727511400003
 30
0.0
 40
0.2182008664
 50
152.5055533044
 51
180.0
  0
ARC
  5
26E
  8
UNIT-SOL
  6
CONTINUOUS
 62
     7
 10
124.0417675923
 20
65.034434699100004
 30
0.0
 40
0.2182008664
 50
332.5055533044
 51
0.0
  0
ARC
  5
26F
  8
UNIT-SOL
  6
CONTINUOUS
 62
     7
 10
124.0417675923
 20
66.042727511400003
 30
0.0
 40
0.2182008664
 50
0.0
 51
27.494446695600001
  0
ARC
  5
270
  8
UNIT-SOL
  6
CONTINUOUS
 62
     7
 10
61.302322803999999
 20
63.847721322700011
 30
0.0
 40
0.1878733092
 50
180.0
 51
270.0
  0
ARC
  5
271
  8
UNIT-SOL
  6
CONTINUOUS
 62
     7
 10
61.302322803999999
 20
67.225502243999983
 30
0.0
 40
0.1878733092
 50
90.0
 51
180.0
  0
ARC
  5
272
  8
UNIT-SOL
  6
CONTINUOUS
 62
     7
 10
61.760387077700003
 20
67.539412154700003
 30
0.0
 40
0.1878733092
 50
270.0
 51
328.69259537239998
  0
ARC
  5
273
  8
UNIT-SOL
  6
CONTINUOUS
 62
     7
 10
123.8440476736
 20
63.847721322700011
 30
0.0
 40
0.1878733092
 50
270.0
 51
0.0
  0
ARC
  5
274
  8
UNIT-SOL
  6
CONTINUOUS
 62
     7
 10
123.8440476736
 20
67.225502243999983
 30
0.0
 40
0.1878733092
 50
0.0
 51
90.0
  0
ARC
  5
275
  8
UNIT-SOL
  6
CONTINUOUS
 62
     7
 10
123.3859833999
 20
67.539412154700003
 30
0.0
 40
0.1878733092
 50
211.30740465240001
 51
270.0
  0
ARC
  5
276
  8
UNIT-SOL
  6
CONTINUOUS
 62
     7
 10
61.871202568100003
 20
120.8767046971
 30
0.0
 40
0.1540009725
 50
89.969656092500003
 51
185.7194788454
  0
ARC
  5
277
  8
UNIT-SOL
  6
CONTINUOUS
 62
     7
 10
61.599042281499997
 20
120.0263515151
 30
0.0
 40
0.1540009725
 50
311.23682593989997
 51
0.0039114266
  0
ARC
  5
278
  8
UNIT-SOL
  6
CONTINUOUS
 62
     7
 10
123.27481692569999
 20
120.8767046971
 30
0.0
 40
0.1540009725
 50
354.28577249410012
 51
89.96965609690001
  0
ARC
  5
279
  8
UNIT-SOL
  6
CONTINUOUS
 62
     7
 10
123.5469772119
 20
120.0263515151
 30
0.0
 40
0.1540009725
 50
188.9690661418
 51
228.80145465090001
  0
ARC
  5
27A
  8
UNIT-SOL
  6
CONTINUOUS
 62
     7
 10
61.302322803999999
 20
67.225502243999983
 30
0.0
 40
0.1260366015
 50
90.0
 51
180.0
  0
ARC
  5
27B
  8
UNIT-SOL
  6
CONTINUOUS
 62
     7
 10
123.8440476736
 20
67.225502243999983
 30
0.0
 40
0.1260366015
 50
0.0
 51
90.0
  0
ARC
  5
27C
  8
UNIT-SOL
  6
CONTINUOUS
 62
     7
 10
123.3859833999
 20
67.539412154700003
 30
0.0
 40
0.1260366015
 50
230.06902588739999
 51
270.0
  0
ARC
  5
27D
  8
UNIT-SOL
  6
CONTINUOUS
 62
     7
 10
60.886402018999988
 20
64.778453151299999
 30
0.0
 40
0.1181593139
 50
0.0
 51
49.555441791600003
  0
ARC
  5
27E
  8
UNIT-SOL
  6
CONTINUOUS
 62
     7
 10
60.886402018999988
 20
66.298709059300009
 30
0.0
 40
0.1181593139
 50
310.4445582084
 51
0.0
  0
ARC
  5
27F
  8
UNIT-SOL
  6
CONTINUOUS
 62
     7
 10
61.599042281499997
 20
120.0263515151
 30
0.0
 40
0.1181593139
 50
310.19653122130001
 51
0.0050978927
  0
ARC
  5
280
  8
UNIT-SOL
  6
CONTINUOUS
 62
     7
 10
124.2599684587
 20
64.778453151299999
 30
0.0
 40
0.1181593139
 50
130.4445582084
 51
180.0
  0
ARC
  5
281
  8
UNIT-SOL
  6
CONTINUOUS
 62
     7
 10
124.2599684587
 20
66.298709059300009
 30
0.0
 40
0.1181593139
 50
180.0
 51
229.5554417916
  0
ARC
  5
282
  8
UNIT-SOL
  6
CONTINUOUS
 62
     7
 10
123.5469772119
 20
120.0263515151
 30
0.0
 40
0.1181593139
 50
179.99490210729999
 51
229.85308604709999
  0
ARC
  5
283
  8
HOOD
  6
CONTINUOUS
 62
     7
 10
153.2539055675
 20
89.740662959199994
 30
0.0
 40
0.0760315799
 50
343.48141227410002
 51
73.481412274199997
  0
ARC
  5
284
  8
HOOD
  6
CONTINUOUS
 62
     7
 10
153.14354108910001
 20
89.368522102299977
 30
0.0
 40
0.0760315799
 50
253.48141227420001
 51
343.4814122741999
  0
ARC
  5
285
  8
UNIT-SOL
  6
CONTINUOUS
 62
     7
 10
123.485111187
 20
67.51329106899999
 30
0.0
 40
0.0620257625
 50
180.0
 51
270.0
  0
ARC
  5
286
  8
HOOD
  6
CONTINUOUS
 62
     7
 10
153.14354108910001
 20
89.368522102299977
 30
0.0
 40
0.0380157899
 50
253.48141227420001
 51
343.48141227410002
  0
ARC
  5
287
  8
HOOD
  6
CONTINUOUS
 62
     7
 10
153.2539055675
 20
89.740662959199994
 30
0.0
 40
0.0380157899
 50
343.48141227410002
 51
73.481412274299998
  0
ENDSEC
  0
EOF
