  0
SECTION
  2
HEADER
  9
$ACADVER
  1
AC1009
  9
$INSBASE
 10
0.0
 20
0.0
 30
0.0
  9
$EXTMIN
 10
-0.0053401687244445
 20
-0.0053401687244445
 30
-0.0015258207003583
  9
$EXTMAX
 10
175.0053409836317
 20
175.0053409836317
 30
0.0000000349246037
  9
$LIMMIN
 10
0.0
 20
0.0
  9
$LIMMAX
 10
175.0
 20
175.0
  9
$ORTHOMODE
 70
     0
  9
$REGENMODE
 70
     1
  9
$FILLMODE
 70
     1
  9
$QTEXTMODE
 70
     0
  9
$MIRRTEXT
 70
     0
  9
$DRAGMODE
 70
     2
  9
$LTSCALE
 40
11.407407407399999
  9
$OSMODE
 70
    37
  9
$ATTMODE
 70
     1
  9
$TEXTSIZE
 40
0.2
  9
$TRACEWID
 40
0.05
  9
$TEXTSTYLE
  7
STANDARD
  9
$CLAYER
  8
0
  9
$CELTYPE
  6
BYLAYER
  9
$CECOLOR
 62
   256
  9
$DIMSCALE
 40
1.0
  9
$DIMASZ
 40
2.0
  9
$DIMEXO
 40
1.587499999999999
  9
$DIMDLI
 40
7.8814814814999989
  9
$DIMRND
 40
0.0
  9
$DIMDLE
 40
0.0
  9
$DIMEXE
 40
1.587499999999999
  9
$DIMTP
 40
0.03
  9
$DIMTM
 40
0.03
  9
$DIMTXT
 40
2.0
  9
$DIMCEN
 40
1.8666666666999969
  9
$DIMTSZ
 40
0.0
  9
$DIMTOL
 70
     1
  9
$DIMLIM
 70
     0
  9
$DIMTIH
 70
     1
  9
$DIMTOH
 70
     1
  9
$DIMSE1
 70
     0
  9
$DIMSE2
 70
     0
  9
$DIMTAD
 70
     0
  9
$DIMZIN
 70
     0
  9
$DIMBLK
  1
_FILLED
  9
$DIMASO
 70
     1
  9
$DIMSHO
 70
     1
  9
$DIMPOST
  1

  9
$DIMAPOST
  1

  9
$DIMALT
 70
     0
  9
$DIMALTD
 70
     2
  9
$DIMALTF
 40
25.399999999999999
  9
$DIMLFAC
 40
1.0
  9
$DIMTOFL
 70
     0
  9
$DIMTVP
 40
0.0
  9
$DIMTIX
 70
     0
  9
$DIMSOXD
 70
     0
  9
$DIMSAH
 70
     0
  9
$DIMBLK1
  1

  9
$DIMBLK2
  1

  9
$DIMSTYLE
  2
STANDARD
  9
$DIMCLRD
 70
     0
  9
$DIMCLRE
 70
     0
  9
$DIMCLRT
 70
     0
  9
$DIMTFAC
 40
1.0
  9
$DIMGAP
 40
0.09
  9
$LUNITS
 70
     2
  9
$LUPREC
 70
     4
  9
$SKETCHINC
 40
0.1
  9
$FILLETRAD
 40
0.0
  9
$AUNITS
 70
     0
  9
$AUPREC
 70
     0
  9
$MENU
  1
.
  9
$ELEVATION
 40
0.0
  9
$PELEVATION
 40
0.0
  9
$THICKNESS
 40
0.0
  9
$LIMCHECK
 70
     0
  9
$BLIPMODE
 70
     0
  9
$CHAMFERA
 40
0.0
  9
$CHAMFERB
 40
0.0
  9
$SKPOLY
 70
     0
  9
$TDCREATE
 40
2456310.603144526
  9
$TDUPDATE
 40
2456328.3287106361
  9
$TDINDWG
 40
0.007328831
  9
$TDUSRTIMER
 40
0.0073286458
  9
$USRTIMER
 70
     1
  9
$ANGBASE
 50
0.0
  9
$ANGDIR
 70
     0
  9
$PDMODE
 70
     3
  9
$PDSIZE
 40
7.9375
  9
$PLINEWID
 40
0.0
  9
$COORDS
 70
     1
  9
$SPLFRAME
 70
     0
  9
$SPLINETYPE
 70
     6
  9
$SPLINESEGS
 70
     8
  9
$ATTDIA
 70
     0
  9
$ATTREQ
 70
     1
  9
$HANDLING
 70
     1
  9
$HANDSEED
  5
AD3
  9
$SURFTAB1
 70
     6
  9
$SURFTAB2
 70
     6
  9
$SURFTYPE
 70
     6
  9
$SURFU
 70
     6
  9
$SURFV
 70
     6
  9
$UCSNAME
  2

  9
$UCSORG
 10
0.0
 20
0.0
 30
0.0
  9
$UCSXDIR
 10
1.0
 20
0.0
 30
0.0
  9
$UCSYDIR
 10
0.0
 20
1.0
 30
0.0
  9
$PUCSNAME
  2

  9
$PUCSORG
 10
0.0
 20
0.0
 30
0.0
  9
$PUCSXDIR
 10
1.0
 20
0.0
 30
0.0
  9
$PUCSYDIR
 10
0.0
 20
1.0
 30
0.0
  9
$USERI1
 70
     0
  9
$USERI2
 70
     0
  9
$USERI3
 70
     0
  9
$USERI4
 70
     0
  9
$USERI5
 70
     0
  9
$USERR1
 40
0.0
  9
$USERR2
 40
0.0
  9
$USERR3
 40
0.0
  9
$USERR4
 40
0.0
  9
$USERR5
 40
0.0
  9
$WORLDVIEW
 70
     1
  9
$SHADEDGE
 70
     3
  9
$SHADEDIF
 70
    70
  9
$TILEMODE
 70
     1
  9
$MAXACTVP
 70
    64
  9
$PLIMCHECK
 70
     0
  9
$PEXTMIN
 10
1.0000000000000000E+020
 20
1.0000000000000000E+020
 30
1.0000000000000000E+020
  9
$PEXTMAX
 10
-1.0000000000000000E+020
 20
-1.0000000000000000E+020
 30
-1.0000000000000000E+020
  9
$PLIMMIN
 10
0.0
 20
0.0
  9
$PLIMMAX
 10
12.0
 20
9.0
  9
$UNITMODE
 70
     0
  9
$VISRETAIN
 70
     1
  9
$PLINEGEN
 70
     0
  9
$PSLTSCALE
 70
     1
  0
ENDSEC
  0
SECTION
  2
TABLES
  0
TABLE
  2
VPORT
 70
     1
  0
VPORT
  2
*ACTIVE
 70
     0
 10
0.0
 20
0.0
 11
1.0
 21
1.0
 12
87.500000407453655
 22
87.500000407453669
 13
0.0
 23
0.0
 14
1.0
 24
1.0
 15
0.0
 25
0.0
 16
0.0
 26
0.0
 36
1.0
 17
0.0
 27
0.0
 37
0.0
 40
176.40704297006121
 41
1.1011984021304919
 42
50.0
 43
0.0
 44
0.0
 50
0.0
 51
0.0
 71
     0
 72
   100
 73
     1
 74
     1
 75
     0
 76
     0
 77
     0
 78
     0
  0
ENDTAB
  0
TABLE
  2
LTYPE
 70
     6
  0
LTYPE
  2
CONTINUOUS
 70
     0
  3
Solid line
 72
    65
 73
     0
 40
0.0
  0
LTYPE
  2
CENTER
 70
     0
  3
____ _ ____ _ ____ _ ____ _ ____ _ ____ _ ____
 72
    65
 73
     4
 40
0.6
 49
0.375
 49
-0.075
 49
0.075
 49
-0.075
  0
LTYPE
  2
HIDDEN
 70
     0
  3
- - - - - - - - - - - - - - - - - - - -
 72
    65
 73
     2
 40
0.2
 49
0.1
 49
-0.1
  0
LTYPE
  2
PHANTOM
 70
     0
  3
_____ _ _ _____ _ _ _____ _ _ _____
 72
    65
 73
     6
 40
0.8
 49
0.45
 49
-0.05
 49
0.1
 49
-0.05
 49
0.1
 49
-0.05
  0
LTYPE
  2
DOT
 70
     0
  3
. . . . . . . . . . . . . . . . . . . .
 72
    65
 73
     2
 40
0.2
 49
0.1
 49
-0.1
  0
LTYPE
  2
DASHED
 70
     0
  3
- - - - - - - - - - - - - - - - - - - -
 72
    65
 73
     2
 40
0.2
 49
0.1
 49
-0.1
  0
ENDTAB
  0
TABLE
  2
LAYER
 70
    19
  0
LAYER
  2
0
 70
     0
 62
     7
  6
CONTINUOUS
  0
LAYER
  2
DEFAULT_1
 70
     0
 62
     7
  6
CENTER
  0
LAYER
  2
DEFAULT_2
 70
     0
 62
     8
  6
HIDDEN
  0
LAYER
  2
DEFAULT_3
 70
     0
 62
     7
  6
PHANTOM
  0
LAYER
  2
CURB-14
 70
     0
 62
     6
  6
CONTINUOUS
  0
LAYER
  2
CURB-14-DIM
 70
     0
 62
     6
  6
CONTINUOUS
  0
LAYER
  2
CURB-24
 70
     0
 62
     6
  6
CONTINUOUS
  0
LAYER
  2
CURB-24-DIM
 70
     0
 62
     6
  6
CONTINUOUS
  0
LAYER
  2
CURB-DUCT
 70
     0
 62
     5
  6
CONTINUOUS
  0
LAYER
  2
CURBDUCTDIM
 70
     0
 62
     5
  6
CONTINUOUS
  0
LAYER
  2
HOOD
 70
     0
 62
     7
  6
CONTINUOUS
  0
LAYER
  2
NOTES
 70
     0
 62
     1
  6
CONTINUOUS
  0
LAYER
  2
SERVCLEAR
 70
     0
 62
     1
  6
CONTINUOUS
  0
LAYER
  2
SERVCLRDIM
 70
     0
 62
     1
  6
CONTINUOUS
  0
LAYER
  2
UNIT-DIM
 70
     0
 62
     7
  6
CONTINUOUS
  0
LAYER
  2
UNIT-DUCTS
 70
     0
 62
     2
  6
CONTINUOUS
  0
LAYER
  2
UNIT-HID
 70
     0
 62
     8
  6
CONTINUOUS
  0
LAYER
  2
UNIT-SOL
 70
     0
 62
     7
  6
CONTINUOUS
  0
LAYER
  2
UNTDUCTDIM
 70
     0
 62
     2
  6
CONTINUOUS
  0
ENDTAB
  0
TABLE
  2
STYLE
 70
     5
  0
STYLE
  2
STANDARD
 70
     0
 40
0.0
 41
0.8
 50
0.0
 71
     0
 42
0.2
  3
txt
  4

  0
STYLE
  2
ANNOTATIVE
 70
     0
 40
0.0
 41
1.0
 50
0.0
 71
     0
 42
0.2
  3
txt
  4

  0
STYLE
  2
TEXTSTYLE_1
 70
     0
 40
0.0
 41
0.8
 50
0.0
 71
     0
 42
0.2
  3
gdt
  4

  0
STYLE
  2
TEXTSTYLE_2
 70
     0
 40
0.0
 41
1.0
 50
0.0
 71
     0
 42
0.2
  3
txt
  4

  0
STYLE
  2
TEXTSTYLE_3
 70
     0
 40
0.0
 41
8.0
 50
0.0
 71
     0
 42
0.2
  3
txt
  4

  0
ENDTAB
  0
TABLE
  2
VIEW
 70
     0
  0
ENDTAB
  0
TABLE
  2
UCS
 70
     0
  0
ENDTAB
  0
TABLE
  2
APPID
 70
     4
  0
APPID
  2
ACAD
 70
     0
  0
APPID
  2
ACADANNOTATIVE
 70
     0
  0
APPID
  2
ACAD_NAV_VCDISPLAY
 70
     0
  0
APPID
  2
ACAD_MLEADERVER
 70
     0
  0
ENDTAB
  0
TABLE
  2
DIMSTYLE
 70
     5
  0
DIMSTYLE
  2
STANDARD
 70
     0
  3

  4

  5

  6

  7

 40
1.0
 41
2.0
 42
1.587499999999999
 43
0.38
 44
1.587499999999999
 45
0.0
 46
0.0
 47
0.03
 48
0.03
140
2.0
141
0.09
142
0.0
143
25.399999999999999
144
1.0
145
0.0
146
1.0
147
0.09
 71
     1
 72
     0
 73
     1
 74
     1
 75
     0
 76
     0
 77
     0
 78
     4
170
     0
171
     2
172
     0
173
     0
174
     0
175
     0
176
     0
177
     0
178
     0
  0
DIMSTYLE
  2
ANNOTATIVE
 70
     0
  3

  4

  5

  6

  7

 40
1.0
 41
0.18
 42
0.0625
 43
0.38
 44
0.18
 45
0.0
 46
0.0
 47
0.0
 48
0.0
140
0.18
141
0.09
142
0.0
143
25.399999999999999
144
1.0
145
0.0
146
1.0
147
0.09
 71
     0
 72
     0
 73
     1
 74
     1
 75
     0
 76
     0
 77
     0
 78
     0
170
     0
171
     2
172
     0
173
     0
174
     0
175
     0
176
     0
177
     0
178
     0
  0
DIMSTYLE
  2
DIMSTYLE_1
 70
     0
  3

  4

  5

  6

  7

 40
1.0
 41
2.0
 42
1.587499999999999
 43
0.38
 44
1.587499999999999
 45
0.0
 46
0.0
 47
0.031496063
 48
0.031496063
140
1.75
141
0.09
142
0.0
143
25.399999999999999
144
1.0
145
0.0
146
1.0
147
1.75
 71
     0
 72
     0
 73
     1
 74
     1
 75
     0
 76
     0
 77
     0
 78
     4
170
     0
171
     2
172
     0
173
     0
174
     0
175
     0
176
     0
177
     0
178
     0
  0
DIMSTYLE
  2
DIMSTYLE_2
 70
     0
  3

  4

  5

  6

  7

 40
1.0
 41
2.0
 42
1.587499999999999
 43
0.38
 44
1.587499999999999
 45
0.0
 46
0.0
 47
0.031496063
 48
0.031496063
140
1.75
141
0.09
142
0.0
143
25.399999999999999
144
1.0
145
0.0
146
1.0
147
1.75
 71
     0
 72
     0
 73
     1
 74
     1
 75
     0
 76
     0
 77
     0
 78
     4
170
     0
171
     2
172
     0
173
     0
174
     0
175
     0
176
     0
177
     0
178
     0
  0
DIMSTYLE
  2
DIMSTYLE_3
 70
     0
  3

  4

  5

  6

  7

 40
1.0
 41
2.0
 42
1.587499999999999
 43
0.38
 44
1.587499999999999
 45
0.0
 46
0.0
 47
0.0118110236
 48
0.0118110236
140
2.0
141
0.09
142
0.0
143
25.399999999999999
144
1.0
145
0.0
146
1.0
147
2.0
 71
     0
 72
     0
 73
     1
 74
     1
 75
     0
 76
     0
 77
     0
 78
     4
170
     0
171
     2
172
     0
173
     0
174
     0
175
     0
176
     0
177
     0
178
     0
  0
ENDTAB
  0
ENDSEC
  0
SECTION
  2
BLOCKS
  0
BLOCK
  8
0
  2
$MODEL_SPACE
 70
     0
 10
0.0
 20
0.0
 30
0.0
  3
$MODEL_SPACE
  1

  0
ENDBLK
  5
9B9
  8
0
  0
BLOCK
 67
     1
  8
0
  2
$PAPER_SPACE
 70
     0
 10
0.0
 20
0.0
 30
0.0
  3
$PAPER_SPACE
  1

  0
ENDBLK
  5
9B5
 67
     1
  8
0
  0
BLOCK
  8
0
  2
_FILLED
 70
     0
 10
0.0
 20
0.0
 30
0.0
  3
_FILLED
  1

  0
SOLID
  5
219
  8
0
  6
BYBLOCK
 62
     0
 10
0.0
 20
0.0
 30
0.0
 11
-1.0
 21
0.1875
 31
0.0
 12
-1.0
 22
-0.1875
 32
0.0
 13
-1.0
 23
-0.1875
 33
0.0
  0
ENDBLK
  5
21A
  8
0
  6
BYBLOCK
 62
     0
  0
BLOCK
  8
UNIT-DIM
  6
CONTINUOUS
 62
     7
  2
*D3
 70
     1
 10
0.0
 20
0.0
 30
0.0
  3
*D3
  1

  0
INSERT
  5
21C
  8
0
  2
*U4
 10
0.0
 20
0.0
 30
0.0
  0
LINE
  5
21D
  8
UNIT-DIM
  6
CONTINUOUS
 62
     7
 10
119.56316923839999
 20
153.2121059259
 30
0.0
 11
119.56316923839999
 21
161.71213188900001
 31
0.0
  0
LINE
  5
21E
  8
UNIT-DIM
  6
CONTINUOUS
 62
     7
 10
119.56316923839999
 20
161.71213188900001
 30
0.0
 11
119.56316923839999
 21
164.17463188900001
 31
0.0
  0
LINE
  5
21F
  8
UNIT-DIM
  6
CONTINUOUS
 62
     7
 10
86.188169238399979
 20
153.2121059259
 30
0.0
 11
86.188169238399979
 21
161.71213188900001
 31
0.0
  0
LINE
  5
220
  8
UNIT-DIM
  6
CONTINUOUS
 62
     7
 10
86.188169238399979
 20
161.71213188900001
 30
0.0
 11
86.188169238399979
 21
164.17463188900001
 31
0.0
  0
LINE
  5
221
  8
UNIT-DIM
  6
CONTINUOUS
 62
     7
 10
119.56316923839999
 20
162.58713188900001
 30
0.0
 11
110.9256692384
 21
162.58713188900001
 31
0.0
  0
LINE
  5
222
  8
UNIT-DIM
  6
CONTINUOUS
 62
     7
 10
86.188169238399979
 20
162.58713188900001
 30
0.0
 11
94.825669238399996
 21
162.58713188900001
 31
0.0
  0
INSERT
  5
223
  8
UNIT-DIM
  6
CONTINUOUS
 62
     7
  2
_FILLED
 10
119.56316923839999
 20
162.58713188900001
 30
0.0
 41
2.0
 42
2.0
 43
2.0
  0
INSERT
  5
224
  8
UNIT-DIM
  6
CONTINUOUS
 62
     7
  2
_FILLED
 10
86.188169238399979
 20
162.58713188900001
 30
0.0
 41
2.0
 42
2.0
 43
2.0
 50
180.0
  0
ENDBLK
  5
225
  8
0
  6
BYBLOCK
 62
     0
  0
BLOCK
  8
0
  2
*U4
 70
     1
 10
0.0
 20
0.0
 30
0.0
  3
*U4
  1

  0
TEXT
  5
475
  8
UNIT-DIM
 62
     7
 10
97.392335905066687
 20
161.71213188900001
 30
0.0
 40
1.75
  1
2'-9 3/8"
 41
0.8
  0
TEXT
  5
476
  8
UNIT-DIM
 62
     7
 10
100.0756692384
 20
158.79546522233329
 30
0.0
 40
1.75
  1
(848)
 41
0.8
  0
ENDBLK
  5
478
  8
0
  0
BLOCK
  8
UNIT-DIM
  6
CONTINUOUS
 62
     7
  2
*D5
 70
     1
 10
0.0
 20
0.0
 30
0.0
  3
*D5
  1

  0
INSERT
  5
227
  8
0
  2
*U6
 10
0.0
 20
0.0
 30
0.0
  0
LINE
  5
228
  8
UNIT-DIM
  6
CONTINUOUS
 62
     7
 10
123.96250000000001
 20
135.6246059259
 30
0.0
 11
148.35102824079999
 21
135.6246059259
 31
0.0
  0
LINE
  5
229
  8
UNIT-DIM
  6
CONTINUOUS
 62
     7
 10
148.35102824079999
 20
135.6246059259
 30
0.0
 11
154.13852824080001
 21
135.6246059259
 31
0.0
  0
LINE
  5
22A
  8
UNIT-DIM
  6
CONTINUOUS
 62
     7
 10
121.1506692384
 20
151.6246059259
 30
0.0
 11
148.35102824079999
 21
151.6246059259
 31
0.0
  0
LINE
  5
22B
  8
UNIT-DIM
  6
CONTINUOUS
 62
     7
 10
148.35102824079999
 20
151.6246059259
 30
0.0
 11
154.13852824080001
 21
151.6246059259
 31
0.0
  0
LINE
  5
22C
  8
UNIT-DIM
  6
CONTINUOUS
 62
     7
 10
152.55102824080001
 20
135.6246059259
 30
0.0
 11
152.55102824080001
 21
140.86928230129999
 31
0.0
  0
LINE
  5
22D
  8
UNIT-DIM
  6
CONTINUOUS
 62
     7
 10
152.55102824080001
 20
151.6246059259
 30
0.0
 11
152.55102824080001
 21
147.86928230129999
 31
0.0
  0
INSERT
  5
22E
  8
UNIT-DIM
  6
CONTINUOUS
 62
     7
  2
_FILLED
 10
152.55102824080001
 20
135.6246059259
 30
0.0
 41
2.0
 42
2.0
 43
2.0
 50
270.0
  0
INSERT
  5
22F
  8
UNIT-DIM
  6
CONTINUOUS
 62
     7
  2
_FILLED
 10
152.55102824080001
 20
151.6246059259
 30
0.0
 41
2.0
 42
2.0
 43
2.0
 50
90.0
  0
ENDBLK
  5
230
  8
0
  6
BYBLOCK
 62
     0
  0
BLOCK
  8
0
  2
*U6
 70
     1
 10
0.0
 20
0.0
 30
0.0
  3
*U6
  1

  0
TEXT
  5
47A
  8
UNIT-DIM
 62
     7
 10
149.4010282408
 20
144.36928230129999
 30
0.0
 40
1.75
  1
1' -4"
 41
0.8
  0
TEXT
  5
47B
  8
UNIT-DIM
 62
     7
 10
149.86769490746661
 20
141.4526156346333
 30
0.0
 40
1.75
  1
(406)
 41
0.8
  0
ENDBLK
  5
47D
  8
0
  0
BLOCK
  8
UNTDUCTDIM
  6
CONTINUOUS
 62
     2
  2
*D7
 70
     1
 10
0.0
 20
0.0
 30
0.0
  3
*D7
  1

  0
INSERT
  5
232
  8
0
  2
*U8
 10
0.0
 20
0.0
 30
0.0
  0
LINE
  5
233
  8
UNTDUCTDIM
  6
CONTINUOUS
 62
     2
 10
119.0
 20
92.043949111299995
 30
0.0
 11
119.0
 21
78.139851914899992
 31
0.0
  0
LINE
  5
234
  8
UNTDUCTDIM
  6
CONTINUOUS
 62
     2
 10
119.0
 20
78.139851914899992
 30
0.0
 11
119.0
 21
77.552351914900001
 31
0.0
  0
LINE
  5
235
  8
UNTDUCTDIM
  6
CONTINUOUS
 62
     2
 10
122.375
 20
87.287105925900008
 30
0.0
 11
122.375
 21
78.139851914899992
 31
0.0
  0
LINE
  5
236
  8
UNTDUCTDIM
  6
CONTINUOUS
 62
     2
 10
122.375
 20
78.139851914899992
 30
0.0
 11
122.375
 21
77.552351914900001
 31
0.0
  0
LINE
  5
237
  8
UNTDUCTDIM
  6
CONTINUOUS
 62
     2
 10
119.0
 20
79.139851914899992
 30
0.0
 11
114.0
 21
79.139851914899992
 31
0.0
  0
LINE
  5
238
  8
UNTDUCTDIM
  6
CONTINUOUS
 62
     2
 10
122.375
 20
79.139851914899992
 30
0.0
 11
127.5519189644
 21
79.139851914899992
 31
0.0
  0
INSERT
  5
239
  8
UNTDUCTDIM
  6
CONTINUOUS
 62
     2
  2
_FILLED
 10
119.0
 20
79.139851914899992
 30
0.0
 41
2.0
 42
2.0
 43
2.0
  0
INSERT
  5
23A
  8
UNTDUCTDIM
  6
CONTINUOUS
 62
     2
  2
_FILLED
 10
122.375
 20
79.139851914899992
 30
0.0
 41
2.0
 42
2.0
 43
2.0
 50
180.0
  0
ENDBLK
  5
23B
  8
0
  6
BYBLOCK
 62
     0
  0
BLOCK
  8
0
  2
*U8
 70
     1
 10
0.0
 20
0.0
 30
0.0
  3
*U8
  1

  0
TEXT
  5
47F
  8
UNTDUCTDIM
 62
     2
 10
129.55191896439999
 20
78.139851914899992
 30
0.0
 40
2.0
  1
3 3/8"
 41
0.8
  0
TEXT
  5
480
  8
UNTDUCTDIM
 62
     2
 10
129.55191896439999
 20
74.806518581566664
 30
0.0
 40
2.0
  1
(86)
 41
0.8
  0
ENDBLK
  5
482
  8
0
  0
BLOCK
  8
0
  2
*U9
 70
     1
 10
0.0
 20
0.0
 30
0.0
  3
*U9
  1

  0
TEXT
  5
484
  8
NOTES
 62
     1
 10
71.925810466699986
 20
54.546681555299998
 30
0.0
 40
1.75
  1
CONNECTION SIZES:
  7
TEXTSTYLE_2
  0
TEXT
  5
485
  8
NOTES
 62
     1
 10
71.925810466699986
 20
51.630014888633333
 30
0.0
 40
1.75
  1
1/2"         ACC
  7
TEXTSTYLE_2
  0
TEXT
  5
486
  8
NOTES
 62
     1
 10
71.925810466699986
 20
48.713348221966648
 30
0.0
 40
1.75
  1
1/2"         24V
  7
TEXTSTYLE_2
  0
TEXT
  5
487
  8
NOTES
 62
     1
 10
71.925810466699986
 20
45.796681555299998
 30
0.0
 40
1.75
  1
3/4"       POWER
  7
TEXTSTYLE_2
  0
TEXT
  5
488
  8
NOTES
 62
     1
 10
71.925810466699986
 20
42.88001488863334
 30
0.0
 40
1.75
  1
1/2" FPT     GAS
  7
TEXTSTYLE_2
  0
ENDBLK
  5
48A
  8
0
  0
BLOCK
  8
0
  2
*U10
 70
     1
 10
0.0
 20
0.0
 30
0.0
  3
*U10
  1

  0
TEXT
  5
48C
  8
UNTDUCTDIM
 62
     2
 10
124.34836936889999
 20
101.6220051347
 30
0.0
 40
1.75
  1
1'-5 3/4"
  7
TEXTSTYLE_2
  0
ENDBLK
  5
48E
  8
0
  0
BLOCK
  8
0
  2
*U11
 70
     1
 10
0.0
 20
0.0
 30
0.0
  3
*U11
  1

  0
TEXT
  5
490
  8
UNTDUCTDIM
 62
     2
 10
124.6900311713333
 20
123.1428684623
 30
0.0
 40
1.75
  1
10 7/8"
  7
TEXTSTYLE_2
  0
ENDBLK
  5
492
  8
0
  0
BLOCK
  8
0
  2
*U12
 70
     1
 10
0.0
 20
0.0
 30
0.0
  3
*U12
  1

  0
TEXT
  5
494
  8
CURBDUCTDIM
 62
     5
 10
138.64304547246661
 20
104.65686507789999
 30
0.0
 40
1.75
  1
1'-8 7/16"
  7
TEXTSTYLE_2
  0
ENDBLK
  5
496
  8
0
  0
BLOCK
  8
0
  2
*U13
 70
     1
 10
0.0
 20
0.0
 30
0.0
  3
*U13
  1

  0
TEXT
  5
498
  8
CURBDUCTDIM
 62
     5
 10
138.0673456666666
 20
126.2293141759
 30
0.0
 40
1.75
  1
1'-1 3/4"
  7
TEXTSTYLE_2
  0
ENDBLK
  5
49A
  8
0
  0
BLOCK
  8
0
  2
*U14
 70
     1
 10
0.0
 20
0.0
 30
0.0
  3
*U14
  1

  0
TEXT
  5
49C
  8
UNTDUCTDIM
 62
     2
 10
126.235039
 20
120.52244087450001
 30
0.0
 40
1.75
  1
(277)
  7
TEXTSTYLE_2
  0
ENDBLK
  5
49E
  8
0
  0
BLOCK
  8
0
  2
*U15
 70
     1
 10
0.0
 20
0.0
 30
0.0
  3
*U15
  1

  0
TEXT
  5
4A0
  8
CURBDUCTDIM
 62
     5
 10
140.98401233333331
 20
122.9664585821
 30
0.0
 40
1.75
  1
(350)
  7
TEXTSTYLE_2
  0
ENDBLK
  5
4A2
  8
0
  0
BLOCK
  8
0
  2
*U16
 70
     1
 10
0.0
 20
0.0
 30
0.0
  3
*U16
  1

  0
TEXT
  5
4A4
  8
UNTDUCTDIM
 62
     2
 10
126.2327480744666
 20
98.886674315200011
 30
0.0
 40
1.75
  1
(451)
  7
TEXTSTYLE_2
  0
ENDBLK
  5
4A6
  8
0
  0
BLOCK
  8
0
  2
*U17
 70
     1
 10
0.0
 20
0.0
 30
0.0
  3
*U17
  1

  0
TEXT
  5
4A8
  8
CURBDUCTDIM
 62
     5
 10
141.1298456666666
 20
101.3827393878
 30
0.0
 40
1.75
  1
(518)
  7
TEXTSTYLE_2
  0
ENDBLK
  5
4AA
  8
0
  0
BLOCK
  8
0
  2
*U18
 70
     1
 10
0.0
 20
0.0
 30
0.0
  3
*U18
  1

  0
TEXT
  5
4AC
  8
CURB-14-DIM
 62
     6
 10
29.284817333333329
 20
109.16780520730001
 30
0.0
 40
1.75
  1
3'-4 11/16"
  7
TEXTSTYLE_2
  0
ENDBLK
  5
4AE
  8
0
  0
BLOCK
  8
0
  2
*U19
 70
     1
 10
0.0
 20
0.0
 30
0.0
  3
*U19
  1

  0
TEXT
  5
4B0
  8
UNIT-DIM
 62
     7
 10
16.691656333333331
 20
117.21561345560001
 30
0.0
 40
1.75
  1
3'-10 3/4"
  7
TEXTSTYLE_2
  0
ENDBLK
  5
4B2
  8
0
  0
BLOCK
  8
0
  2
*U20
 70
     1
 10
0.0
 20
0.0
 30
0.0
  3
*U20
  1

  0
TEXT
  5
4B4
  8
CURB-14-DIM
 62
     6
 10
33.076484000000001
 20
106.2515824298
 30
0.0
 40
1.75
  1
(1033)
  7
TEXTSTYLE_2
  0
ENDBLK
  5
4B6
  8
0
  0
BLOCK
  8
0
  2
*U21
 70
     1
 10
0.0
 20
0.0
 30
0.0
  3
*U21
  1

  0
TEXT
  5
4B8
  8
UNIT-DIM
 62
     7
 10
20.191656333333331
 20
114.29939167800001
 30
0.0
 40
1.75
  1
(1187)
  7
TEXTSTYLE_2
  0
ENDBLK
  5
4BA
  8
0
  0
BLOCK
  8
0
  2
*U22
 70
     1
 10
0.0
 20
0.0
 30
0.0
  3
*U22
  1

  0
TEXT
  5
4BC
  8
UNTDUCTDIM
 62
     2
 10
99.933343359999995
 20
141.9584645621
 30
0.0
 40
1.75
  1
2'-1 5/8"
  7
TEXTSTYLE_2
  0
ENDBLK
  5
4BE
  8
0
  0
BLOCK
  8
0
  2
*U23
 70
     1
 10
0.0
 20
0.0
 30
0.0
  3
*U23
  1

  0
TEXT
  5
4C0
  8
UNTDUCTDIM
 62
     2
 10
126.31977633346661
 20
84.625603473700025
 30
0.0
 40
1.75
  1
1'- 1/8"
  7
TEXTSTYLE_2
  0
ENDBLK
  5
4C2
  8
0
  0
BLOCK
  8
0
  2
*U24
 70
     1
 10
0.0
 20
0.0
 30
0.0
  3
*U24
  1

  0
TEXT
  5
4C4
  8
CURBDUCTDIM
 62
     5
 10
91.834631067999993
 20
147.6658873742
 30
0.0
 40
1.75
  1
2'-8 3/16"
  7
TEXTSTYLE_2
  0
ENDBLK
  5
4C6
  8
0
  0
BLOCK
  8
0
  2
*U25
 70
     1
 10
0.0
 20
0.0
 30
0.0
  3
*U25
  1

  0
TEXT
  5
4C8
  8
CURBDUCTDIM
 62
     5
 10
92.741822631000005
 20
75.711212275099982
 30
0.0
 40
1.75
  1
1'-2"
  7
TEXTSTYLE_2
  0
ENDBLK
  5
4CA
  8
0
  0
BLOCK
  8
0
  2
*U26
 70
     1
 10
0.0
 20
0.0
 30
0.0
  3
*U26
  1

  0
TEXT
  5
4CC
  8
CURB-14-DIM
 62
     6
 10
84.583333333333329
 20
69.856325943299993
 30
0.0
 40
1.75
  1
5'-10 7/8"
  7
TEXTSTYLE_2
  0
ENDBLK
  5
4CE
  8
0
  0
BLOCK
  8
0
  2
*U27
 70
     1
 10
0.0
 20
0.0
 30
0.0
  3
*U27
  1

  0
TEXT
  5
4D0
  8
UNIT-DIM
 62
     7
 10
72.325289659733329
 20
166.4908524432
 30
0.0
 40
1.75
  1
6'-2 3/8"
  7
TEXTSTYLE_2
  0
ENDBLK
  5
4D2
  8
0
  0
BLOCK
  8
0
  2
*U28
 70
     1
 10
0.0
 20
0.0
 30
0.0
  3
*U28
  1

  0
TEXT
  5
4D4
  8
UNIT-DIM
 62
     7
 10
75.846122993066672
 20
163.5746296657
 30
0.0
 40
1.75
  1
(1888)
  7
TEXTSTYLE_2
  0
ENDBLK
  5
4D6
  8
0
  0
BLOCK
  8
0
  2
*U29
 70
     1
 10
0.0
 20
0.0
 30
0.0
  3
*U29
  1

  0
TEXT
  5
4D8
  8
CURBDUCTDIM
 62
     5
 10
96.063797734666636
 20
144.74966559660001
 30
0.0
 40
1.75
  1
(818)
  7
TEXTSTYLE_2
  0
ENDBLK
  5
4DA
  8
0
  0
BLOCK
  8
0
  2
*U30
 70
     1
 10
0.0
 20
0.0
 30
0.0
  3
*U30
  1

  0
TEXT
  5
4DC
  8
UNTDUCTDIM
 62
     2
 10
102.99584335999999
 20
139.04224278449999
 30
0.0
 40
1.75
  1
(652)
  7
TEXTSTYLE_2
  0
ENDBLK
  5
4DE
  8
0
  0
BLOCK
  8
0
  2
*U31
 70
     1
 10
0.0
 20
0.0
 30
0.0
  3
*U31
  1

  0
TEXT
  5
4E0
  8
UNTDUCTDIM
 62
     2
 10
125.6973067352333
 20
81.758437739900003
 30
0.0
 40
1.75
  1
(307)
  7
TEXTSTYLE_2
  0
ENDBLK
  5
4E2
  8
0
  0
BLOCK
  8
0
  2
*U32
 70
     1
 10
0.0
 20
0.0
 30
0.0
  3
*U32
  1

  0
TEXT
  5
4E4
  8
CURBDUCTDIM
 62
     5
 10
92.304322631000005
 20
72.794990497399994
 30
0.0
 40
1.75
  1
(356)
  7
TEXTSTYLE_2
  0
ENDBLK
  5
4E6
  8
0
  0
BLOCK
  8
0
  2
*U33
 70
     1
 10
0.0
 20
0.0
 30
0.0
  3
*U33
  1

  0
TEXT
  5
4E8
  8
CURB-14-DIM
 62
     6
 10
88.083333333333314
 20
66.940103165799997
 30
0.0
 40
1.75
  1
(1800)
  7
TEXTSTYLE_2
  0
ENDBLK
  5
4EA
  8
0
  0
BLOCK
  8
0
  2
*U34
 70
     1
 10
0.0
 20
0.0
 30
0.0
  3
*U34
  1

  0
TEXT
  5
4EC
  8
SERVCLRDIM
 62
     1
 10
141.9563449665666
 20
157.81046989359999
 30
0.0
 40
1.75
  1
3'
  7
TEXTSTYLE_2
  0
ENDBLK
  5
4EE
  8
0
  0
BLOCK
  8
0
  2
*U35
 70
     1
 10
0.0
 20
0.0
 30
0.0
  3
*U35
  1

  0
TEXT
  5
4F0
  8
SERVCLRDIM
 62
     1
 10
29.729166666666671
 20
126.7667765835
 30
0.0
 40
1.75
  1
4'
  7
TEXTSTYLE_2
  0
ENDBLK
  5
4F2
  8
0
  0
BLOCK
  8
0
  2
*U36
 70
     1
 10
0.0
 20
0.0
 30
0.0
  3
*U36
  1

  0
TEXT
  5
4F4
  8
SERVCLRDIM
 62
     1
 10
139.7688449665666
 20
154.89424711609999
 30
0.0
 40
1.75
  1
(914)
  7
TEXTSTYLE_2
  0
ENDBLK
  5
4F6
  8
0
  0
BLOCK
  8
0
  2
*U37
 70
     1
 10
0.0
 20
0.0
 30
0.0
  3
*U37
  1

  0
TEXT
  5
4F8
  8
SERVCLRDIM
 62
     1
 10
26.958333333333339
 20
123.85055380599999
 30
0.0
 40
1.75
  1
(1219)
  7
TEXTSTYLE_2
  0
ENDBLK
  5
4FA
  8
0
  0
BLOCK
  8
0
  2
*U38
 70
     1
 10
0.0
 20
0.0
 30
0.0
  3
*U38
  1

  0
TEXT
  5
4FC
  8
CURBDUCTDIM
 62
     5
 10
128.6224996666667
 20
144.55480692079999
 30
0.0
 40
1.75
  1
2 13/16"
  7
TEXTSTYLE_2
  0
ENDBLK
  5
4FE
  8
0
  0
BLOCK
  8
0
  2
*U39
 70
     1
 10
0.0
 20
0.0
 30
0.0
  3
*U39
  1

  0
TEXT
  5
500
  8
CURBDUCTDIM
 62
     5
 10
148.0881783333333
 20
83.000500716900007
 30
0.0
 40
1.75
  1
4 3/4"
  7
TEXTSTYLE_2
  0
ENDBLK
  5
502
  8
0
  0
BLOCK
  8
0
  2
*U40
 70
     1
 10
0.0
 20
0.0
 30
0.0
  3
*U40
  1

  0
TEXT
  5
504
  8
CURBDUCTDIM
 62
     5
 10
155.27550890753329
 20
123.5319354085
 30
0.0
 40
1.75
  1
3"
  7
TEXTSTYLE_2
  0
ENDBLK
  5
506
  8
0
  0
BLOCK
  8
0
  2
*U41
 70
     1
 10
0.0
 20
0.0
 30
0.0
  3
*U41
  1

  0
TEXT
  5
508
  8
CURB-14-DIM
 62
     6
 10
36.95833333333335
 20
69.856325943299993
 30
0.0
 40
1.75
  1
3"
  7
TEXTSTYLE_2
  0
ENDBLK
  5
50A
  8
0
  0
BLOCK
  8
0
  2
*U42
 70
     1
 10
0.0
 20
0.0
 30
0.0
  3
*U42
  1

  0
TEXT
  5
50C
  8
CURB-14-DIM
 62
     6
 10
28.638644867233332
 20
140.27356994039999
 30
0.0
 40
1.75
  1
3"
  7
TEXTSTYLE_2
  0
ENDBLK
  5
50E
  8
0
  0
BLOCK
  8
0
  2
*U43
 70
     1
 10
0.0
 20
0.0
 30
0.0
  3
*U43
  1

  0
TEXT
  5
510
  8
SERVCLRDIM
 62
     1
 10
22.21248966666667
 20
58.797542506199989
 30
0.0
 40
1.75
  1
4'
  7
TEXTSTYLE_2
  0
ENDBLK
  5
512
  8
0
  0
BLOCK
  8
0
  2
*U44
 70
     1
 10
0.0
 20
0.0
 30
0.0
  3
*U44
  1

  0
TEXT
  5
514
  8
SERVCLRDIM
 62
     1
 10
19.441656333333331
 20
55.881319728699999
 30
0.0
 40
1.75
  1
(1219)
  7
TEXTSTYLE_2
  0
ENDBLK
  5
516
  8
0
  0
BLOCK
  8
0
  2
*U45
 70
     1
 10
0.0
 20
0.0
 30
0.0
  3
*U45
  1

  0
TEXT
  5
518
  8
CURB-14-DIM
 62
     6
 10
35.5
 20
66.940103165799997
 30
0.0
 40
1.75
  1
(75)
  7
TEXTSTYLE_2
  0
ENDBLK
  5
51A
  8
0
  0
BLOCK
  8
0
  2
*U46
 70
     1
 10
0.0
 20
0.0
 30
0.0
  3
*U46
  1

  0
TEXT
  5
51C
  8
CURB-14-DIM
 62
     6
 10
27.180311533899999
 20
137.35734816269999
 30
0.0
 40
1.75
  1
(75)
  7
TEXTSTYLE_2
  0
ENDBLK
  5
51E
  8
0
  0
BLOCK
  8
0
  2
*U47
 70
     1
 10
0.0
 20
0.0
 30
0.0
  3
*U47
  1

  0
TEXT
  5
520
  8
CURBDUCTDIM
 62
     5
 10
149.8381783333333
 20
80.084278939200004
 30
0.0
 40
1.75
  1
(121)
  7
TEXTSTYLE_2
  0
ENDBLK
  5
522
  8
0
  0
BLOCK
  8
0
  2
*U48
 70
     1
 10
0.0
 20
0.0
 30
0.0
  3
*U48
  1

  0
TEXT
  5
524
  8
CURBDUCTDIM
 62
     5
 10
152.34720921909999
 20
120.5422153131
 30
0.0
 40
1.75
  1
(76)
  7
TEXTSTYLE_2
  0
ENDBLK
  5
526
  8
0
  0
BLOCK
  8
0
  2
*U49
 70
     1
 10
0.0
 20
0.0
 30
0.0
  3
*U49
  1

  0
TEXT
  5
528
  8
CURBDUCTDIM
 62
     5
 10
132.12249966666661
 20
141.6385851432
 30
0.0
 40
1.75
  1
(71)
  7
TEXTSTYLE_2
  0
ENDBLK
  5
52A
  8
0
  0
BLOCK
  8
0
  2
*U50
 70
     1
 10
0.0
 20
0.0
 30
0.0
  3
*U50
  1

  0
TEXT
  5
52C
  8
NOTES
 62
     1
 10
0.8
 20
1.1248476951999991
 30
0.0
 40
1.75
  1
VIEW: TOP
 41
0.8
  0
ENDBLK
  5
52E
  8
0
  0
BLOCK
  8
0
  2
*U51
 70
     1
 10
0.0
 20
0.0
 30
0.0
  3
*U51
  1

  0
TEXT
  5
530
  8
NOTES
 62
     1
 10
0.8
 20
5.6241623234000002
 30
0.0
 40
1.75
  1
FILE NAME: TSY12-T-
 41
0.8
  0
ENDBLK
  5
532
  8
0
  0
BLOCK
  8
0
  2
*U52
 70
     1
 10
0.0
 20
0.0
 30
0.0
  3
*U52
  1

  0
TEXT
  5
534
  8
NOTES
 62
     1
 10
17.066666666700002
 20
9.6235531040000009
 30
0.0
 40
1.75
  1
LAYER KEY
 41
0.8
  0
ENDBLK
  5
536
  8
0
  0
BLOCK
  8
0
  2
*U53
 70
     1
 10
0.0
 20
0.0
 30
0.0
  3
*U53
  1

  0
TEXT
  5
538
  8
NOTES
 62
     7
 10
1.0303146667
 20
13.6229438846
 30
0.0
 40
1.75
  1
-
 41
8.0
  7
TEXTSTYLE_3
  0
ENDBLK
  5
53A
  8
0
  0
BLOCK
  8
0
  2
*U54
 70
     1
 10
0.0
 20
0.0
 30
0.0
  3
*U54
  1

  0
TEXT
  5
53C
  8
NOTES
 62
     1
 10
16.800000000000001
 20
13.6229438846
 30
0.0
 40
1.75
  1
UNIT
 41
0.8
  0
ENDBLK
  5
53E
  8
0
  0
BLOCK
  8
0
  2
*U55
 70
     1
 10
0.0
 20
0.0
 30
0.0
  3
*U55
  1

  0
TEXT
  5
540
  8
NOTES
 62
     6
 10
1.0303146667
 20
17.6223346652
 30
0.0
 40
1.75
  1
-
 41
8.0
  7
TEXTSTYLE_3
  0
ENDBLK
  5
542
  8
0
  0
BLOCK
  8
0
  2
*U56
 70
     1
 10
0.0
 20
0.0
 30
0.0
  3
*U56
  1

  0
TEXT
  5
544
  8
NOTES
 62
     1
 10
16.800000000000001
 20
17.6223346652
 30
0.0
 40
1.75
  1
ROOF CURB
 41
0.8
  0
ENDBLK
  5
546
  8
0
  0
BLOCK
  8
0
  2
*U57
 70
     1
 10
0.0
 20
0.0
 30
0.0
  3
*U57
  1

  0
TEXT
  5
548
  8
NOTES
 62
     1
 10
1.0303146667
 20
21.621725445900001
 30
0.0
 40
1.75
  1
-
 41
8.0
  7
TEXTSTYLE_3
  0
ENDBLK
  5
54A
  8
0
  0
BLOCK
  8
0
  2
*U58
 70
     1
 10
0.0
 20
0.0
 30
0.0
  3
*U58
  1

  0
TEXT
  5
54C
  8
NOTES
 62
     1
 10
16.800000000000001
 20
21.621725445900001
 30
0.0
 40
1.75
  1
SERVICE CLEARANCE
 41
0.8
  0
ENDBLK
  5
54E
  8
0
  0
BLOCK
  8
0
  2
*U59
 70
     1
 10
0.0
 20
0.0
 30
0.0
  3
*U59
  1

  0
TEXT
  5
550
  8
NOTES
 62
     2
 10
1.0303146667
 20
25.6211162265
 30
0.0
 40
1.75
  1
-
 41
8.0
  7
TEXTSTYLE_3
  0
ENDBLK
  5
552
  8
0
  0
BLOCK
  8
0
  2
*U60
 70
     1
 10
0.0
 20
0.0
 30
0.0
  3
*U60
  1

  0
TEXT
  5
554
  8
NOTES
 62
     1
 10
16.800000000000001
 20
25.6211162265
 30
0.0
 40
1.75
  1
UNIT DUCTS
 41
0.8
  0
ENDBLK
  5
556
  8
0
  0
BLOCK
  8
0
  2
*U61
 70
     1
 10
0.0
 20
0.0
 30
0.0
  3
*U61
  1

  0
TEXT
  5
558
  8
NOTES
 62
     5
 10
1.0303146667
 20
29.620507007099999
 30
0.0
 40
1.75
  1
-
 41
8.0
  7
TEXTSTYLE_3
  0
ENDBLK
  5
55A
  8
0
  0
BLOCK
  8
0
  2
*U62
 70
     1
 10
0.0
 20
0.0
 30
0.0
  3
*U62
  1

  0
TEXT
  5
55C
  8
NOTES
 62
     1
 10
16.800000000000001
 20
29.620507007099999
 30
0.0
 40
1.75
  1
CURB DUCTS
 41
0.8
  0
ENDBLK
  5
55E
  8
0
  0
BLOCK
  8
0
  2
*U63
 70
     1
 10
0.0
 20
0.0
 30
0.0
  3
*U63
  1

  0
TEXT
  5
560
  8
NOTES
 62
     9
 10
1.0303146667
 20
33.619897787699998
 30
0.0
 40
1.75
  1
-
 41
8.0
  7
TEXTSTYLE_3
  0
ENDBLK
  5
562
  8
0
  0
BLOCK
  8
0
  2
*U64
 70
     1
 10
0.0
 20
0.0
 30
0.0
  3
*U64
  1

  0
TEXT
  5
564
  8
NOTES
 62
     1
 10
16.800000000000001
 20
33.619897787699998
 30
0.0
 40
1.75
  1
UNIT HIDDEN
 41
0.8
  0
ENDBLK
  5
566
  8
0
  0
BLOCK
  8
0
  2
*U65
 70
     1
 10
0.0
 20
0.0
 30
0.0
  3
*U65
  1

  0
TEXT
  5
568
  8
SERVCLRDIM
 62
     1
 10
138.97864325066661
 20
69.384853541300004
 30
0.0
 40
1.75
  1
3'
  7
TEXTSTYLE_2
  0
TEXT
  5
569
  8
SERVCLRDIM
 62
     1
 10
136.79114325066661
 20
66.468186874633332
 30
0.0
 40
1.75
  1
(914)
  7
TEXTSTYLE_2
  0
ENDBLK
  5
56B
  8
0
  0
BLOCK
  8
0
  2
*U66
 70
     1
 10
0.0
 20
0.0
 30
0.0
  3
*U66
  1

  0
TEXT
  5
56D
  8
CURB-24-DIM
 62
     6
 10
29.284817333333329
 20
109.16780520730001
 30
0.0
 40
1.75
  1
3'-4 11/16"
  7
TEXTSTYLE_2
  0
ENDBLK
  5
56F
  8
0
  0
BLOCK
  8
0
  2
*U67
 70
     1
 10
0.0
 20
0.0
 30
0.0
  3
*U67
  1

  0
TEXT
  5
571
  8
CURB-24-DIM
 62
     6
 10
33.076484000000001
 20
106.2515824298
 30
0.0
 40
1.75
  1
(1033)
  7
TEXTSTYLE_2
  0
ENDBLK
  5
573
  8
0
  0
BLOCK
  8
0
  2
*U68
 70
     1
 10
0.0
 20
0.0
 30
0.0
  3
*U68
  1

  0
TEXT
  5
575
  8
CURB-24-DIM
 62
     6
 10
84.583333333333329
 20
69.856325943299993
 30
0.0
 40
1.75
  1
5'-10 7/8"
  7
TEXTSTYLE_2
  0
ENDBLK
  5
577
  8
0
  0
BLOCK
  8
0
  2
*U69
 70
     1
 10
0.0
 20
0.0
 30
0.0
  3
*U69
  1

  0
TEXT
  5
579
  8
CURB-24-DIM
 62
     6
 10
88.083333333333314
 20
66.940103165799997
 30
0.0
 40
1.75
  1
(1800)
  7
TEXTSTYLE_2
  0
ENDBLK
  5
57B
  8
0
  0
BLOCK
  8
0
  2
*U70
 70
     1
 10
0.0
 20
0.0
 30
0.0
  3
*U70
  1

  0
TEXT
  5
57D
  8
CURB-24-DIM
 62
     6
 10
36.95833333333335
 20
69.856325943299993
 30
0.0
 40
1.75
  1
3"
  7
TEXTSTYLE_2
  0
ENDBLK
  5
57F
  8
0
  0
BLOCK
  8
0
  2
*U71
 70
     1
 10
0.0
 20
0.0
 30
0.0
  3
*U71
  1

  0
TEXT
  5
581
  8
CURB-24-DIM
 62
     6
 10
28.638644867233332
 20
140.27356994039999
 30
0.0
 40
1.75
  1
3"
  7
TEXTSTYLE_2
  0
ENDBLK
  5
583
  8
0
  0
BLOCK
  8
0
  2
*U72
 70
     1
 10
0.0
 20
0.0
 30
0.0
  3
*U72
  1

  0
TEXT
  5
585
  8
CURB-24-DIM
 62
     6
 10
35.5
 20
66.940103165799997
 30
0.0
 40
1.75
  1
(75)
  7
TEXTSTYLE_2
  0
ENDBLK
  5
587
  8
0
  0
BLOCK
  8
0
  2
*U73
 70
     1
 10
0.0
 20
0.0
 30
0.0
  3
*U73
  1

  0
TEXT
  5
589
  8
CURB-24-DIM
 62
     6
 10
27.180311533899999
 20
137.35734816269999
 30
0.0
 40
1.75
  1
(75)
  7
TEXTSTYLE_2
  0
ENDBLK
  5
58B
  8
0
  0
ENDSEC
  0
SECTION
  2
ENTITIES
  0
SOLID
  5
23C
  8
SERVCLRDIM
  6
CONTINUOUS
 62
     1
 10
143.2377767653
 20
137.4993203544
 30
0.0
 11
142.9252767653
 21
135.6246059259
 31
0.0
 12
142.6127767653
 22
137.4993203544
 32
0.0
 13
142.6127767653
 23
137.4993203544
 33
0.0
  0
SOLID
  5
23D
  8
SERVCLRDIM
  6
CONTINUOUS
 62
     1
 10
143.2405873893
 20
169.68654574909999
 30
0.0
 11
142.6155873893
 21
169.68654574909999
 31
0.0
 12
142.9280873893
 22
171.5612601775
 32
0.0
 13
142.9280873893
 23
171.5612601775
 33
0.0
  0
SOLID
  5
23E
  8
SERVCLRDIM
  6
CONTINUOUS
 62
     1
 10
46.124999999999993
 20
127.3291909121
 30
0.0
 11
46.124999999999993
 21
127.9540957215
 31
0.0
 12
48.0
 22
127.6416433168
 32
0.0
 13
48.0
 23
127.6416433168
 33
0.0
  0
SOLID
  5
23F
  8
SERVCLRDIM
  6
CONTINUOUS
 62
     1
 10
1.875
 20
127.3291909121
 30
0.0
 11
0.0
 21
127.6416433168
 31
0.0
 12
1.875
 22
127.9540957215
 32
0.0
 13
1.875
 23
127.9540957215
 33
0.0
  0
SOLID
  5
240
  8
SERVCLRDIM
  6
CONTINUOUS
 62
     1
 10
23.649989999999999
 20
86.374986687999993
 30
0.0
 11
22.816655999999998
 21
86.374986687999993
 31
0.0
 12
23.233322999999999
 22
88.874605925899999
 32
0.0
 13
23.233322999999999
 23
88.874605925899999
 33
0.0
  0
SOLID
  5
241
  8
SERVCLRDIM
  6
CONTINUOUS
 62
     1
 10
23.649989999999999
 20
43.3815357963
 30
0.0
 11
23.233322999999999
 21
40.8819165584
 31
0.0
 12
22.816655999999998
 22
43.3815357963
 32
0.0
 13
22.816655999999998
 23
43.3815357963
 33
0.0
  0
SOLID
  5
242
  8
SERVCLRDIM
  6
CONTINUOUS
 62
     1
 10
155.89982124310001
 20
70.272294281900002
 30
0.0
 11
155.89982124310001
 21
71.105500694499995
 31
0.0
 12
158.39982124310001
 22
70.688897488199999
 32
0.0
 13
158.39982124310001
 23
70.688897488199999
 33
0.0
  0
SOLID
  5
243
  8
SERVCLRDIM
  6
CONTINUOUS
 62
     1
 10
124.875
 20
70.272294281900002
 30
0.0
 11
122.375
 21
70.688897488199999
 31
0.0
 12
124.875
 22
71.105500694499995
 32
0.0
 13
124.875
 23
71.105500694499995
 33
0.0
  0
SOLID
  5
244
  8
CURBDUCTDIM
  6
CONTINUOUS
 62
     5
 10
144.650679
 20
112.1667346829
 30
0.0
 11
144.025679
 21
112.1667346829
 31
0.0
 12
144.338179
 22
114.0414491113
 32
0.0
 13
144.338179
 23
114.0414491113
 33
0.0
  0
SOLID
  5
245
  8
CURBDUCTDIM
  6
CONTINUOUS
 62
     5
 10
144.650679
 20
95.506163539699983
 30
0.0
 11
144.338179
 21
93.631449111299986
 31
0.0
 12
144.025679
 22
95.506163539699983
 32
0.0
 13
144.025679
 23
95.506163539699983
 33
0.0
  0
SOLID
  5
246
  8
CURBDUCTDIM
  6
CONTINUOUS
 62
     5
 10
144.650679
 20
118.9157066252
 30
0.0
 11
144.338179
 21
117.0409921968
 31
0.0
 12
144.025679
 22
118.9157066252
 32
0.0
 13
144.025679
 23
118.9157066252
 33
0.0
  0
SOLID
  5
247
  8
CURBDUCTDIM
  6
CONTINUOUS
 62
     5
 10
144.650679
 20
129.04127776830001
 30
0.0
 11
144.025679
 21
129.04127776830001
 31
0.0
 12
144.338179
 22
130.9159921968
 32
0.0
 13
144.338179
 23
130.9159921968
 33
0.0
  0
SOLID
  5
248
  8
CURBDUCTDIM
  6
CONTINUOUS
 62
     5
 10
89.268791171499984
 20
145.13088096609999
 30
0.0
 11
87.393791171499984
 21
145.44333337090001
 31
0.0
 12
89.268791171499984
 22
145.7557857756
 32
0.0
 13
89.268791171499984
 23
145.7557857756
 33
0.0
  0
SOLID
  5
249
  8
CURBDUCTDIM
  6
CONTINUOUS
 62
     5
 10
117.685
 20
145.1172212493
 30
0.0
 11
117.685
 21
145.74212605880001
 31
0.0
 12
119.56
 22
145.42967365409999
 32
0.0
 13
119.56
 23
145.42967365409999
 33
0.0
  0
SOLID
  5
24A
  8
CURBDUCTDIM
  6
CONTINUOUS
 62
     5
 10
117.6850966479
 20
76.742117269099992
 30
0.0
 11
117.6850966479
 21
77.367022078600002
 31
0.0
 12
119.5600966479
 22
77.054569673800003
 32
0.0
 13
119.5600966479
 23
77.054569673800003
 33
0.0
  0
SOLID
  5
24B
  8
CURBDUCTDIM
  6
CONTINUOUS
 62
     5
 10
107.435
 20
76.742204031
 30
0.0
 11
105.56
 21
77.054656435699982
 31
0.0
 12
107.435
 22
77.367108840499981
 32
0.0
 13
107.435
 23
77.367108840499981
 33
0.0
  0
SOLID
  5
24C
  8
CURBDUCTDIM
  6
CONTINUOUS
 62
     5
 10
124.8725
 20
145.0130711143
 30
0.0
 11
122.3725
 21
145.42967365409999
 31
0.0
 12
124.8725
 22
145.84627719369999
 32
0.0
 13
124.8725
 23
145.84627719369999
 33
0.0
  0
SOLID
  5
24D
  8
CURBDUCTDIM
  6
CONTINUOUS
 62
     5
 10
144.75484499999999
 20
86.374986687999993
 30
0.0
 11
143.92151200000001
 21
86.374986687999993
 31
0.0
 12
144.338179
 22
88.874605925899999
 32
0.0
 13
144.338179
 23
88.874605925899999
 33
0.0
  0
SOLID
  5
24E
  8
CURBDUCTDIM
  6
CONTINUOUS
 62
     5
 10
150.229377261
 20
111.5418298734
 30
0.0
 11
149.39604326099999
 21
111.5418298734
 31
0.0
 12
149.81271026100001
 22
114.0414491113
 32
0.0
 13
149.81271026100001
 23
114.0414491113
 33
0.0
  0
SOLID
  5
24F
  8
CURBDUCTDIM
  6
CONTINUOUS
 62
     5
 10
150.229377261
 20
119.5406114347
 30
0.0
 11
149.81271026100001
 21
117.0409921968
 31
0.0
 12
149.39604326099999
 22
119.5406114347
 32
0.0
 13
149.39604326099999
 23
119.5406114347
 33
0.0
  0
POLYLINE
  5
5DD
  8
CURB-14
 62
     6
 66
     1
 10
0.0
 20
0.0
 30
0.0
 70
     8
  0
VERTEX
  5
5DE
  8
CURB-14
 62
     6
 10
108.813
 20
115.096
 30
0.0
 70
    32
  0
VERTEX
  5
5DF
  8
CURB-14
 62
     6
 10
108.812
 20
115.111
 30
0.0
 70
    32
  0
VERTEX
  5
5E0
  8
CURB-14
 62
     6
 10
108.812
 20
115.128
 30
0.0
 70
    32
  0
VERTEX
  5
5E1
  8
CURB-14
 62
     6
 10
108.81100000000001
 20
115.14400000000001
 30
0.0
 70
    32
  0
VERTEX
  5
5E2
  8
CURB-14
 62
     6
 10
108.81
 20
115.161
 30
0.0
 70
    32
  0
VERTEX
  5
5E3
  8
CURB-14
 62
     6
 10
108.809
 20
115.178
 30
0.0
 70
    32
  0
VERTEX
  5
5E4
  8
CURB-14
 62
     6
 10
108.807
 20
115.19499999999999
 30
0.0
 70
    32
  0
VERTEX
  5
5E5
  8
CURB-14
 62
     6
 10
108.80500000000001
 20
115.212
 30
0.0
 70
    32
  0
VERTEX
  5
5E6
  8
CURB-14
 62
     6
 10
108.80200000000001
 20
115.23
 30
0.0
 70
    32
  0
VERTEX
  5
5E7
  8
CURB-14
 62
     6
 10
108.79900000000001
 20
115.248
 30
0.0
 70
    32
  0
VERTEX
  5
5E8
  8
CURB-14
 62
     6
 10
108.79600000000001
 20
115.26600000000001
 30
0.0
 70
    32
  0
VERTEX
  5
5E9
  8
CURB-14
 62
     6
 10
108.792
 20
115.285
 30
0.0
 70
    32
  0
VERTEX
  5
5EA
  8
CURB-14
 62
     6
 10
108.78700000000001
 20
115.304
 30
0.0
 70
    32
  0
VERTEX
  5
5EB
  8
CURB-14
 62
     6
 10
108.783
 20
115.32299999999999
 30
0.0
 70
    32
  0
VERTEX
  5
5EC
  8
CURB-14
 62
     6
 10
108.777
 20
115.342
 30
0.0
 70
    32
  0
VERTEX
  5
5ED
  8
CURB-14
 62
     6
 10
108.771
 20
115.361
 30
0.0
 70
    32
  0
VERTEX
  5
5EE
  8
CURB-14
 62
     6
 10
108.765
 20
115.381
 30
0.0
 70
    32
  0
VERTEX
  5
5EF
  8
CURB-14
 62
     6
 10
108.758
 20
115.401
 30
0.0
 70
    32
  0
VERTEX
  5
5F0
  8
CURB-14
 62
     6
 10
108.75
 20
115.42
 30
0.0
 70
    32
  0
VERTEX
  5
5F1
  8
CURB-14
 62
     6
 10
108.742
 20
115.441
 30
0.0
 70
    32
  0
VERTEX
  5
5F2
  8
CURB-14
 62
     6
 10
108.733
 20
115.461
 30
0.0
 70
    32
  0
VERTEX
  5
5F3
  8
CURB-14
 62
     6
 10
108.723
 20
115.48099999999999
 30
0.0
 70
    32
  0
VERTEX
  5
5F4
  8
CURB-14
 62
     6
 10
108.71299999999999
 20
115.501
 30
0.0
 70
    32
  0
VERTEX
  5
5F5
  8
CURB-14
 62
     6
 10
108.702
 20
115.52200000000001
 30
0.0
 70
    32
  0
VERTEX
  5
5F6
  8
CURB-14
 62
     6
 10
108.69
 20
115.542
 30
0.0
 70
    32
  0
VERTEX
  5
5F7
  8
CURB-14
 62
     6
 10
108.678
 20
115.562
 30
0.0
 70
    32
  0
VERTEX
  5
5F8
  8
CURB-14
 62
     6
 10
108.664
 20
115.583
 30
0.0
 70
    32
  0
VERTEX
  5
5F9
  8
CURB-14
 62
     6
 10
108.65000000000001
 20
115.60299999999999
 30
0.0
 70
    32
  0
VERTEX
  5
5FA
  8
CURB-14
 62
     6
 10
108.636
 20
115.623
 30
0.0
 70
    32
  0
VERTEX
  5
5FB
  8
CURB-14
 62
     6
 10
108.62
 20
115.643
 30
0.0
 70
    32
  0
VERTEX
  5
5FC
  8
CURB-14
 62
     6
 10
108.604
 20
115.663
 30
0.0
 70
    32
  0
VERTEX
  5
5FD
  8
CURB-14
 62
     6
 10
108.586
 20
115.682
 30
0.0
 70
    32
  0
VERTEX
  5
5FE
  8
CURB-14
 62
     6
 10
108.568
 20
115.702
 30
0.0
 70
    32
  0
VERTEX
  5
5FF
  8
CURB-14
 62
     6
 10
108.55
 20
115.721
 30
0.0
 70
    32
  0
VERTEX
  5
600
  8
CURB-14
 62
     6
 10
108.53
 20
115.739
 30
0.0
 70
    32
  0
VERTEX
  5
601
  8
CURB-14
 62
     6
 10
108.51000000000001
 20
115.758
 30
0.0
 70
    32
  0
VERTEX
  5
602
  8
CURB-14
 62
     6
 10
108.488
 20
115.77500000000001
 30
0.0
 70
    32
  0
VERTEX
  5
603
  8
CURB-14
 62
     6
 10
108.46599999999999
 20
115.79300000000001
 30
0.0
 70
    32
  0
VERTEX
  5
604
  8
CURB-14
 62
     6
 10
108.443
 20
115.809
 30
0.0
 70
    32
  0
VERTEX
  5
605
  8
CURB-14
 62
     6
 10
108.42
 20
115.82599999999999
 30
0.0
 70
    32
  0
VERTEX
  5
606
  8
CURB-14
 62
     6
 10
108.395
 20
115.84099999999999
 30
0.0
 70
    32
  0
VERTEX
  5
607
  8
CURB-14
 62
     6
 10
108.37
 20
115.85599999999999
 30
0.0
 70
    32
  0
VERTEX
  5
608
  8
CURB-14
 62
     6
 10
108.34399999999999
 20
115.87
 30
0.0
 70
    32
  0
VERTEX
  5
609
  8
CURB-14
 62
     6
 10
108.318
 20
115.884
 30
0.0
 70
    32
  0
VERTEX
  5
60A
  8
CURB-14
 62
     6
 10
108.291
 20
115.896
 30
0.0
 70
    32
  0
VERTEX
  5
60B
  8
CURB-14
 62
     6
 10
108.26300000000001
 20
115.908
 30
0.0
 70
    32
  0
VERTEX
  5
60C
  8
CURB-14
 62
     6
 10
108.23399999999999
 20
115.919
 30
0.0
 70
    32
  0
VERTEX
  5
60D
  8
CURB-14
 62
     6
 10
108.206
 20
115.928
 30
0.0
 70
    32
  0
VERTEX
  5
60E
  8
CURB-14
 62
     6
 10
108.176
 20
115.937
 30
0.0
 70
    32
  0
VERTEX
  5
60F
  8
CURB-14
 62
     6
 10
108.146
 20
115.94499999999999
 30
0.0
 70
    32
  0
VERTEX
  5
610
  8
CURB-14
 62
     6
 10
108.116
 20
115.952
 30
0.0
 70
    32
  0
VERTEX
  5
611
  8
CURB-14
 62
     6
 10
108.086
 20
115.958
 30
0.0
 70
    32
  0
VERTEX
  5
612
  8
CURB-14
 62
     6
 10
108.05500000000001
 20
115.96299999999999
 30
0.0
 70
    32
  0
VERTEX
  5
613
  8
CURB-14
 62
     6
 10
108.024
 20
115.96599999999999
 30
0.0
 70
    32
  0
VERTEX
  5
614
  8
CURB-14
 62
     6
 10
107.992
 20
115.96899999999999
 30
0.0
 70
    32
  0
VERTEX
  5
615
  8
CURB-14
 62
     6
 10
107.961
 20
115.97
 30
0.0
 70
    32
  0
VERTEX
  5
616
  8
CURB-14
 62
     6
 10
107.93000000000001
 20
115.97
 30
0.0
 70
    32
  0
VERTEX
  5
617
  8
CURB-14
 62
     6
 10
107.898
 20
115.97
 30
0.0
 70
    32
  0
VERTEX
  5
618
  8
CURB-14
 62
     6
 10
107.867
 20
115.968
 30
0.0
 70
    32
  0
VERTEX
  5
619
  8
CURB-14
 62
     6
 10
107.836
 20
115.965
 30
0.0
 70
    32
  0
VERTEX
  5
61A
  8
CURB-14
 62
     6
 10
107.80500000000001
 20
115.95999999999999
 30
0.0
 70
    32
  0
VERTEX
  5
61B
  8
CURB-14
 62
     6
 10
107.774
 20
115.955
 30
0.0
 70
    32
  0
VERTEX
  5
61C
  8
CURB-14
 62
     6
 10
107.744
 20
115.949
 30
0.0
 70
    32
  0
VERTEX
  5
61D
  8
CURB-14
 62
     6
 10
107.714
 20
115.941
 30
0.0
 70
    32
  0
VERTEX
  5
61E
  8
CURB-14
 62
     6
 10
107.684
 20
115.93300000000001
 30
0.0
 70
    32
  0
VERTEX
  5
61F
  8
CURB-14
 62
     6
 10
107.655
 20
115.92400000000001
 30
0.0
 70
    32
  0
VERTEX
  5
620
  8
CURB-14
 62
     6
 10
107.626
 20
115.913
 30
0.0
 70
    32
  0
VERTEX
  5
621
  8
CURB-14
 62
     6
 10
107.598
 20
115.902
 30
0.0
 70
    32
  0
VERTEX
  5
622
  8
CURB-14
 62
     6
 10
107.571
 20
115.89
 30
0.0
 70
    32
  0
VERTEX
  5
623
  8
CURB-14
 62
     6
 10
107.544
 20
115.877
 30
0.0
 70
    32
  0
VERTEX
  5
624
  8
CURB-14
 62
     6
 10
107.518
 20
115.863
 30
0.0
 70
    32
  0
VERTEX
  5
625
  8
CURB-14
 62
     6
 10
107.492
 20
115.849
 30
0.0
 70
    32
  0
VERTEX
  5
626
  8
CURB-14
 62
     6
 10
107.467
 20
115.833
 30
0.0
 70
    32
  0
VERTEX
  5
627
  8
CURB-14
 62
     6
 10
107.443
 20
115.818
 30
0.0
 70
    32
  0
VERTEX
  5
628
  8
CURB-14
 62
     6
 10
107.42
 20
115.801
 30
0.0
 70
    32
  0
VERTEX
  5
629
  8
CURB-14
 62
     6
 10
107.398
 20
115.78400000000001
 30
0.0
 70
    32
  0
VERTEX
  5
62A
  8
CURB-14
 62
     6
 10
107.376
 20
115.767
 30
0.0
 70
    32
  0
VERTEX
  5
62B
  8
CURB-14
 62
     6
 10
107.355
 20
115.749
 30
0.0
 70
    32
  0
VERTEX
  5
62C
  8
CURB-14
 62
     6
 10
107.33499999999999
 20
115.73
 30
0.0
 70
    32
  0
VERTEX
  5
62D
  8
CURB-14
 62
     6
 10
107.316
 20
115.711
 30
0.0
 70
    32
  0
VERTEX
  5
62E
  8
CURB-14
 62
     6
 10
107.297
 20
115.69199999999999
 30
0.0
 70
    32
  0
VERTEX
  5
62F
  8
CURB-14
 62
     6
 10
107.28
 20
115.673
 30
0.0
 70
    32
  0
VERTEX
  5
630
  8
CURB-14
 62
     6
 10
107.26300000000001
 20
115.65300000000001
 30
0.0
 70
    32
  0
VERTEX
  5
631
  8
CURB-14
 62
     6
 10
107.247
 20
115.633
 30
0.0
 70
    32
  0
VERTEX
  5
632
  8
CURB-14
 62
     6
 10
107.232
 20
115.613
 30
0.0
 70
    32
  0
VERTEX
  5
633
  8
CURB-14
 62
     6
 10
107.218
 20
115.593
 30
0.0
 70
    32
  0
VERTEX
  5
634
  8
CURB-14
 62
     6
 10
107.20399999999999
 20
115.57299999999999
 30
0.0
 70
    32
  0
VERTEX
  5
635
  8
CURB-14
 62
     6
 10
107.191
 20
115.55200000000001
 30
0.0
 70
    32
  0
VERTEX
  5
636
  8
CURB-14
 62
     6
 10
107.179
 20
115.532
 30
0.0
 70
    32
  0
VERTEX
  5
637
  8
CURB-14
 62
     6
 10
107.16800000000001
 20
115.511
 30
0.0
 70
    32
  0
VERTEX
  5
638
  8
CURB-14
 62
     6
 10
107.157
 20
115.491
 30
0.0
 70
    32
  0
VERTEX
  5
639
  8
CURB-14
 62
     6
 10
107.14700000000001
 20
115.471
 30
0.0
 70
    32
  0
VERTEX
  5
63A
  8
CURB-14
 62
     6
 10
107.13800000000001
 20
115.45099999999999
 30
0.0
 70
    32
  0
VERTEX
  5
63B
  8
CURB-14
 62
     6
 10
107.129
 20
115.43000000000001
 30
0.0
 70
    32
  0
VERTEX
  5
63C
  8
CURB-14
 62
     6
 10
107.121
 20
115.41
 30
0.0
 70
    32
  0
VERTEX
  5
63D
  8
CURB-14
 62
     6
 10
107.114
 20
115.39100000000001
 30
0.0
 70
    32
  0
VERTEX
  5
63E
  8
CURB-14
 62
     6
 10
107.107
 20
115.371
 30
0.0
 70
    32
  0
VERTEX
  5
63F
  8
CURB-14
 62
     6
 10
107.101
 20
115.351
 30
0.0
 70
    32
  0
VERTEX
  5
640
  8
CURB-14
 62
     6
 10
107.095
 20
115.33199999999999
 30
0.0
 70
    32
  0
VERTEX
  5
641
  8
CURB-14
 62
     6
 10
107.09
 20
115.313
 30
0.0
 70
    32
  0
VERTEX
  5
642
  8
CURB-14
 62
     6
 10
107.08499999999999
 20
115.294
 30
0.0
 70
    32
  0
VERTEX
  5
643
  8
CURB-14
 62
     6
 10
107.081
 20
115.276
 30
0.0
 70
    32
  0
VERTEX
  5
644
  8
CURB-14
 62
     6
 10
107.078
 20
115.25700000000001
 30
0.0
 70
    32
  0
VERTEX
  5
645
  8
CURB-14
 62
     6
 10
107.074
 20
115.239
 30
0.0
 70
    32
  0
VERTEX
  5
646
  8
CURB-14
 62
     6
 10
107.072
 20
115.221
 30
0.0
 70
    32
  0
VERTEX
  5
647
  8
CURB-14
 62
     6
 10
107.069
 20
115.20399999999999
 30
0.0
 70
    32
  0
VERTEX
  5
648
  8
CURB-14
 62
     6
 10
107.06699999999999
 20
115.18600000000001
 30
0.0
 70
    32
  0
VERTEX
  5
649
  8
CURB-14
 62
     6
 10
107.066
 20
115.169
 30
0.0
 70
    32
  0
VERTEX
  5
64A
  8
CURB-14
 62
     6
 10
107.06399999999999
 20
115.152
 30
0.0
 70
    32
  0
VERTEX
  5
64B
  8
CURB-14
 62
     6
 10
107.063
 20
115.136
 30
0.0
 70
    32
  0
VERTEX
  5
64C
  8
CURB-14
 62
     6
 10
107.063
 20
115.12
 30
0.0
 70
    32
  0
VERTEX
  5
64D
  8
CURB-14
 62
     6
 10
107.063
 20
115.104
 30
0.0
 70
    32
  0
VERTEX
  5
64E
  8
CURB-14
 62
     6
 10
107.063
 20
115.08799999999999
 30
0.0
 70
    32
  0
VERTEX
  5
64F
  8
CURB-14
 62
     6
 10
107.063
 20
115.072
 30
0.0
 70
    32
  0
VERTEX
  5
650
  8
CURB-14
 62
     6
 10
107.063
 20
115.056
 30
0.0
 70
    32
  0
VERTEX
  5
651
  8
CURB-14
 62
     6
 10
107.06399999999999
 20
115.039
 30
0.0
 70
    32
  0
VERTEX
  5
652
  8
CURB-14
 62
     6
 10
107.066
 20
115.02200000000001
 30
0.0
 70
    32
  0
VERTEX
  5
653
  8
CURB-14
 62
     6
 10
107.06699999999999
 20
115.005
 30
0.0
 70
    32
  0
VERTEX
  5
654
  8
CURB-14
 62
     6
 10
107.069
 20
114.988
 30
0.0
 70
    32
  0
VERTEX
  5
655
  8
CURB-14
 62
     6
 10
107.072
 20
114.97
 30
0.0
 70
    32
  0
VERTEX
  5
656
  8
CURB-14
 62
     6
 10
107.074
 20
114.952
 30
0.0
 70
    32
  0
VERTEX
  5
657
  8
CURB-14
 62
     6
 10
107.078
 20
114.934
 30
0.0
 70
    32
  0
VERTEX
  5
658
  8
CURB-14
 62
     6
 10
107.081
 20
114.916
 30
0.0
 70
    32
  0
VERTEX
  5
659
  8
CURB-14
 62
     6
 10
107.08499999999999
 20
114.89700000000001
 30
0.0
 70
    32
  0
VERTEX
  5
65A
  8
CURB-14
 62
     6
 10
107.09
 20
114.878
 30
0.0
 70
    32
  0
VERTEX
  5
65B
  8
CURB-14
 62
     6
 10
107.095
 20
114.85899999999999
 30
0.0
 70
    32
  0
VERTEX
  5
65C
  8
CURB-14
 62
     6
 10
107.101
 20
114.84
 30
0.0
 70
    32
  0
VERTEX
  5
65D
  8
CURB-14
 62
     6
 10
107.107
 20
114.81999999999999
 30
0.0
 70
    32
  0
VERTEX
  5
65E
  8
CURB-14
 62
     6
 10
107.114
 20
114.801
 30
0.0
 70
    32
  0
VERTEX
  5
65F
  8
CURB-14
 62
     6
 10
107.121
 20
114.78100000000001
 30
0.0
 70
    32
  0
VERTEX
  5
660
  8
CURB-14
 62
     6
 10
107.129
 20
114.761
 30
0.0
 70
    32
  0
VERTEX
  5
661
  8
CURB-14
 62
     6
 10
107.13800000000001
 20
114.741
 30
0.0
 70
    32
  0
VERTEX
  5
662
  8
CURB-14
 62
     6
 10
107.14700000000001
 20
114.721
 30
0.0
 70
    32
  0
VERTEX
  5
663
  8
CURB-14
 62
     6
 10
107.157
 20
114.7
 30
0.0
 70
    32
  0
VERTEX
  5
664
  8
CURB-14
 62
     6
 10
107.16800000000001
 20
114.68000000000001
 30
0.0
 70
    32
  0
VERTEX
  5
665
  8
CURB-14
 62
     6
 10
107.179
 20
114.65900000000001
 30
0.0
 70
    32
  0
VERTEX
  5
666
  8
CURB-14
 62
     6
 10
107.191
 20
114.639
 30
0.0
 70
    32
  0
VERTEX
  5
667
  8
CURB-14
 62
     6
 10
107.20399999999999
 20
114.619
 30
0.0
 70
    32
  0
VERTEX
  5
668
  8
CURB-14
 62
     6
 10
107.218
 20
114.598
 30
0.0
 70
    32
  0
VERTEX
  5
669
  8
CURB-14
 62
     6
 10
107.232
 20
114.578
 30
0.0
 70
    32
  0
VERTEX
  5
66A
  8
CURB-14
 62
     6
 10
107.247
 20
114.55800000000001
 30
0.0
 70
    32
  0
VERTEX
  5
66B
  8
CURB-14
 62
     6
 10
107.26300000000001
 20
114.538
 30
0.0
 70
    32
  0
VERTEX
  5
66C
  8
CURB-14
 62
     6
 10
107.28
 20
114.51900000000001
 30
0.0
 70
    32
  0
VERTEX
  5
66D
  8
CURB-14
 62
     6
 10
107.297
 20
114.499
 30
0.0
 70
    32
  0
VERTEX
  5
66E
  8
CURB-14
 62
     6
 10
107.316
 20
114.48
 30
0.0
 70
    32
  0
VERTEX
  5
66F
  8
CURB-14
 62
     6
 10
107.33499999999999
 20
114.461
 30
0.0
 70
    32
  0
VERTEX
  5
670
  8
CURB-14
 62
     6
 10
107.355
 20
114.443
 30
0.0
 70
    32
  0
VERTEX
  5
671
  8
CURB-14
 62
     6
 10
107.376
 20
114.425
 30
0.0
 70
    32
  0
VERTEX
  5
672
  8
CURB-14
 62
     6
 10
107.398
 20
114.407
 30
0.0
 70
    32
  0
VERTEX
  5
673
  8
CURB-14
 62
     6
 10
107.42
 20
114.39
 30
0.0
 70
    32
  0
VERTEX
  5
674
  8
CURB-14
 62
     6
 10
107.443
 20
114.374
 30
0.0
 70
    32
  0
VERTEX
  5
675
  8
CURB-14
 62
     6
 10
107.467
 20
114.358
 30
0.0
 70
    32
  0
VERTEX
  5
676
  8
CURB-14
 62
     6
 10
107.492
 20
114.343
 30
0.0
 70
    32
  0
VERTEX
  5
677
  8
CURB-14
 62
     6
 10
107.518
 20
114.328
 30
0.0
 70
    32
  0
VERTEX
  5
678
  8
CURB-14
 62
     6
 10
107.544
 20
114.31399999999999
 30
0.0
 70
    32
  0
VERTEX
  5
679
  8
CURB-14
 62
     6
 10
107.571
 20
114.301
 30
0.0
 70
    32
  0
VERTEX
  5
67A
  8
CURB-14
 62
     6
 10
107.598
 20
114.289
 30
0.0
 70
    32
  0
VERTEX
  5
67B
  8
CURB-14
 62
     6
 10
107.626
 20
114.27800000000001
 30
0.0
 70
    32
  0
VERTEX
  5
67C
  8
CURB-14
 62
     6
 10
107.655
 20
114.268
 30
0.0
 70
    32
  0
VERTEX
  5
67D
  8
CURB-14
 62
     6
 10
107.684
 20
114.258
 30
0.0
 70
    32
  0
VERTEX
  5
67E
  8
CURB-14
 62
     6
 10
107.714
 20
114.25
 30
0.0
 70
    32
  0
VERTEX
  5
67F
  8
CURB-14
 62
     6
 10
107.744
 20
114.242
 30
0.0
 70
    32
  0
VERTEX
  5
680
  8
CURB-14
 62
     6
 10
107.774
 20
114.236
 30
0.0
 70
    32
  0
VERTEX
  5
681
  8
CURB-14
 62
     6
 10
107.80500000000001
 20
114.23099999999999
 30
0.0
 70
    32
  0
VERTEX
  5
682
  8
CURB-14
 62
     6
 10
107.836
 20
114.227
 30
0.0
 70
    32
  0
VERTEX
  5
683
  8
CURB-14
 62
     6
 10
107.867
 20
114.224
 30
0.0
 70
    32
  0
VERTEX
  5
684
  8
CURB-14
 62
     6
 10
107.898
 20
114.22199999999999
 30
0.0
 70
    32
  0
VERTEX
  5
685
  8
CURB-14
 62
     6
 10
107.93000000000001
 20
114.221
 30
0.0
 70
    32
  0
VERTEX
  5
686
  8
CURB-14
 62
     6
 10
107.961
 20
114.221
 30
0.0
 70
    32
  0
VERTEX
  5
687
  8
CURB-14
 62
     6
 10
107.992
 20
114.223
 30
0.0
 70
    32
  0
VERTEX
  5
688
  8
CURB-14
 62
     6
 10
108.024
 20
114.22499999999999
 30
0.0
 70
    32
  0
VERTEX
  5
689
  8
CURB-14
 62
     6
 10
108.05500000000001
 20
114.229
 30
0.0
 70
    32
  0
VERTEX
  5
68A
  8
CURB-14
 62
     6
 10
108.086
 20
114.233
 30
0.0
 70
    32
  0
VERTEX
  5
68B
  8
CURB-14
 62
     6
 10
108.116
 20
114.239
 30
0.0
 70
    32
  0
VERTEX
  5
68C
  8
CURB-14
 62
     6
 10
108.146
 20
114.246
 30
0.0
 70
    32
  0
VERTEX
  5
68D
  8
CURB-14
 62
     6
 10
108.176
 20
114.254
 30
0.0
 70
    32
  0
VERTEX
  5
68E
  8
CURB-14
 62
     6
 10
108.206
 20
114.26300000000001
 30
0.0
 70
    32
  0
VERTEX
  5
68F
  8
CURB-14
 62
     6
 10
108.23399999999999
 20
114.273
 30
0.0
 70
    32
  0
VERTEX
  5
690
  8
CURB-14
 62
     6
 10
108.26300000000001
 20
114.28400000000001
 30
0.0
 70
    32
  0
VERTEX
  5
691
  8
CURB-14
 62
     6
 10
108.291
 20
114.295
 30
0.0
 70
    32
  0
VERTEX
  5
692
  8
CURB-14
 62
     6
 10
108.318
 20
114.30800000000001
 30
0.0
 70
    32
  0
VERTEX
  5
693
  8
CURB-14
 62
     6
 10
108.34399999999999
 20
114.321
 30
0.0
 70
    32
  0
VERTEX
  5
694
  8
CURB-14
 62
     6
 10
108.37
 20
114.33499999999999
 30
0.0
 70
    32
  0
VERTEX
  5
695
  8
CURB-14
 62
     6
 10
108.395
 20
114.34999999999999
 30
0.0
 70
    32
  0
VERTEX
  5
696
  8
CURB-14
 62
     6
 10
108.42
 20
114.366
 30
0.0
 70
    32
  0
VERTEX
  5
697
  8
CURB-14
 62
     6
 10
108.443
 20
114.38200000000001
 30
0.0
 70
    32
  0
VERTEX
  5
698
  8
CURB-14
 62
     6
 10
108.46599999999999
 20
114.399
 30
0.0
 70
    32
  0
VERTEX
  5
699
  8
CURB-14
 62
     6
 10
108.488
 20
114.416
 30
0.0
 70
    32
  0
VERTEX
  5
69A
  8
CURB-14
 62
     6
 10
108.51000000000001
 20
114.434
 30
0.0
 70
    32
  0
VERTEX
  5
69B
  8
CURB-14
 62
     6
 10
108.53
 20
114.452
 30
0.0
 70
    32
  0
VERTEX
  5
69C
  8
CURB-14
 62
     6
 10
108.55
 20
114.471
 30
0.0
 70
    32
  0
VERTEX
  5
69D
  8
CURB-14
 62
     6
 10
108.568
 20
114.48999999999999
 30
0.0
 70
    32
  0
VERTEX
  5
69E
  8
CURB-14
 62
     6
 10
108.586
 20
114.509
 30
0.0
 70
    32
  0
VERTEX
  5
69F
  8
CURB-14
 62
     6
 10
108.604
 20
114.52800000000001
 30
0.0
 70
    32
  0
VERTEX
  5
6A0
  8
CURB-14
 62
     6
 10
108.62
 20
114.548
 30
0.0
 70
    32
  0
VERTEX
  5
6A1
  8
CURB-14
 62
     6
 10
108.636
 20
114.568
 30
0.0
 70
    32
  0
VERTEX
  5
6A2
  8
CURB-14
 62
     6
 10
108.65000000000001
 20
114.58799999999999
 30
0.0
 70
    32
  0
VERTEX
  5
6A3
  8
CURB-14
 62
     6
 10
108.664
 20
114.60899999999999
 30
0.0
 70
    32
  0
VERTEX
  5
6A4
  8
CURB-14
 62
     6
 10
108.678
 20
114.629
 30
0.0
 70
    32
  0
VERTEX
  5
6A5
  8
CURB-14
 62
     6
 10
108.69
 20
114.649
 30
0.0
 70
    32
  0
VERTEX
  5
6A6
  8
CURB-14
 62
     6
 10
108.702
 20
114.67
 30
0.0
 70
    32
  0
VERTEX
  5
6A7
  8
CURB-14
 62
     6
 10
108.71299999999999
 20
114.69
 30
0.0
 70
    32
  0
VERTEX
  5
6A8
  8
CURB-14
 62
     6
 10
108.723
 20
114.70999999999999
 30
0.0
 70
    32
  0
VERTEX
  5
6A9
  8
CURB-14
 62
     6
 10
108.733
 20
114.73099999999999
 30
0.0
 70
    32
  0
VERTEX
  5
6AA
  8
CURB-14
 62
     6
 10
108.742
 20
114.751
 30
0.0
 70
    32
  0
VERTEX
  5
6AB
  8
CURB-14
 62
     6
 10
108.75
 20
114.771
 30
0.0
 70
    32
  0
VERTEX
  5
6AC
  8
CURB-14
 62
     6
 10
108.758
 20
114.791
 30
0.0
 70
    32
  0
VERTEX
  5
6AD
  8
CURB-14
 62
     6
 10
108.765
 20
114.81100000000001
 30
0.0
 70
    32
  0
VERTEX
  5
6AE
  8
CURB-14
 62
     6
 10
108.771
 20
114.83
 30
0.0
 70
    32
  0
VERTEX
  5
6AF
  8
CURB-14
 62
     6
 10
108.777
 20
114.849
 30
0.0
 70
    32
  0
VERTEX
  5
6B0
  8
CURB-14
 62
     6
 10
108.783
 20
114.869
 30
0.0
 70
    32
  0
VERTEX
  5
6B1
  8
CURB-14
 62
     6
 10
108.78700000000001
 20
114.88800000000001
 30
0.0
 70
    32
  0
VERTEX
  5
6B2
  8
CURB-14
 62
     6
 10
108.792
 20
114.90600000000001
 30
0.0
 70
    32
  0
VERTEX
  5
6B3
  8
CURB-14
 62
     6
 10
108.79600000000001
 20
114.925
 30
0.0
 70
    32
  0
VERTEX
  5
6B4
  8
CURB-14
 62
     6
 10
108.79900000000001
 20
114.943
 30
0.0
 70
    32
  0
VERTEX
  5
6B5
  8
CURB-14
 62
     6
 10
108.80200000000001
 20
114.961
 30
0.0
 70
    32
  0
VERTEX
  5
6B6
  8
CURB-14
 62
     6
 10
108.80500000000001
 20
114.979
 30
0.0
 70
    32
  0
VERTEX
  5
6B7
  8
CURB-14
 62
     6
 10
108.807
 20
114.996
 30
0.0
 70
    32
  0
VERTEX
  5
6B8
  8
CURB-14
 62
     6
 10
108.809
 20
115.014
 30
0.0
 70
    32
  0
VERTEX
  5
6B9
  8
CURB-14
 62
     6
 10
108.81
 20
115.03100000000001
 30
0.0
 70
    32
  0
VERTEX
  5
6BA
  8
CURB-14
 62
     6
 10
108.81100000000001
 20
115.047
 30
0.0
 70
    32
  0
VERTEX
  5
6BB
  8
CURB-14
 62
     6
 10
108.812
 20
115.06399999999999
 30
0.0
 70
    32
  0
VERTEX
  5
6BC
  8
CURB-14
 62
     6
 10
108.812
 20
115.08
 30
0.0
 70
    32
  0
VERTEX
  5
6BD
  8
CURB-14
 62
     6
 10
108.813
 20
115.096
 30
0.0
 70
    32
  0
SEQEND
  5
6BE
  8
CURB-14
 62
     6
  0
SOLID
  5
251
  8
CURB-14-DIM
  6
CONTINUOUS
 62
     6
 10
36.576484000000001
 20
93.756449111299986
 30
0.0
 11
36.263984000000001
 21
91.881734682900003
 31
0.0
 12
35.951484000000001
 22
93.756449111299986
 32
0.0
 13
35.951484000000001
 23
93.756449111299986
 33
0.0
  0
SOLID
  5
252
  8
CURB-14-DIM
  6
CONTINUOUS
 62
     6
 10
36.576484000000001
 20
130.6888814644
 30
0.0
 11
35.951484000000001
 21
130.6888814644
 31
0.0
 12
36.263984000000001
 22
132.56359589280001
 32
0.0
 13
36.263984000000001
 23
132.56359589280001
 33
0.0
  0
SOLID
  5
253
  8
CURB-14-DIM
  6
CONTINUOUS
 62
     6
 10
120.0
 20
70.418740271800004
 30
0.0
 11
120.0
 21
71.043645081299999
 31
0.0
 12
121.875
 22
70.731192676600003
 32
0.0
 13
121.875
 23
70.731192676600003
 33
0.0
  0
SOLID
  5
254
  8
CURB-14-DIM
  6
CONTINUOUS
 62
     6
 10
52.875
 20
70.418740271800004
 30
0.0
 11
51.0
 21
70.731192676600003
 31
0.0
 12
52.875
 22
71.043645081299999
 32
0.0
 13
52.875
 23
71.043645081299999
 33
0.0
  0
SOLID
  5
255
  8
CURB-14-DIM
  6
CONTINUOUS
 62
     6
 10
45.499999999999993
 20
70.314589136999984
 30
0.0
 11
45.499999999999993
 21
71.147796216199978
 31
0.0
 12
48.0
 22
70.731192676600003
 32
0.0
 13
48.0
 23
70.731192676600003
 33
0.0
  0
SOLID
  5
256
  8
CURB-14-DIM
  6
CONTINUOUS
 62
     6
 10
35.919628338499997
 20
138.12422516379999
 30
0.0
 11
36.7529613385
 21
138.12422516379999
 31
0.0
 12
36.336294338499997
 22
135.6246059259
 32
0.0
 13
36.336294338499997
 23
135.6246059259
 33
0.0
  0
POLYLINE
  5
6BF
  8
CURB-24
 62
     6
 66
     1
 10
0.0
 20
0.0
 30
0.0
 70
     8
  0
VERTEX
  5
6C0
  8
CURB-24
 62
     6
 10
108.813
 20
115.096
 30
0.0
 70
    32
  0
VERTEX
  5
6C1
  8
CURB-24
 62
     6
 10
108.812
 20
115.111
 30
0.0
 70
    32
  0
VERTEX
  5
6C2
  8
CURB-24
 62
     6
 10
108.812
 20
115.128
 30
0.0
 70
    32
  0
VERTEX
  5
6C3
  8
CURB-24
 62
     6
 10
108.81100000000001
 20
115.14400000000001
 30
0.0
 70
    32
  0
VERTEX
  5
6C4
  8
CURB-24
 62
     6
 10
108.81
 20
115.161
 30
0.0
 70
    32
  0
VERTEX
  5
6C5
  8
CURB-24
 62
     6
 10
108.809
 20
115.178
 30
0.0
 70
    32
  0
VERTEX
  5
6C6
  8
CURB-24
 62
     6
 10
108.807
 20
115.19499999999999
 30
0.0
 70
    32
  0
VERTEX
  5
6C7
  8
CURB-24
 62
     6
 10
108.80500000000001
 20
115.212
 30
0.0
 70
    32
  0
VERTEX
  5
6C8
  8
CURB-24
 62
     6
 10
108.80200000000001
 20
115.23
 30
0.0
 70
    32
  0
VERTEX
  5
6C9
  8
CURB-24
 62
     6
 10
108.79900000000001
 20
115.248
 30
0.0
 70
    32
  0
VERTEX
  5
6CA
  8
CURB-24
 62
     6
 10
108.79600000000001
 20
115.26600000000001
 30
0.0
 70
    32
  0
VERTEX
  5
6CB
  8
CURB-24
 62
     6
 10
108.792
 20
115.285
 30
0.0
 70
    32
  0
VERTEX
  5
6CC
  8
CURB-24
 62
     6
 10
108.78700000000001
 20
115.304
 30
0.0
 70
    32
  0
VERTEX
  5
6CD
  8
CURB-24
 62
     6
 10
108.783
 20
115.32299999999999
 30
0.0
 70
    32
  0
VERTEX
  5
6CE
  8
CURB-24
 62
     6
 10
108.777
 20
115.342
 30
0.0
 70
    32
  0
VERTEX
  5
6CF
  8
CURB-24
 62
     6
 10
108.771
 20
115.361
 30
0.0
 70
    32
  0
VERTEX
  5
6D0
  8
CURB-24
 62
     6
 10
108.765
 20
115.381
 30
0.0
 70
    32
  0
VERTEX
  5
6D1
  8
CURB-24
 62
     6
 10
108.758
 20
115.401
 30
0.0
 70
    32
  0
VERTEX
  5
6D2
  8
CURB-24
 62
     6
 10
108.75
 20
115.42
 30
0.0
 70
    32
  0
VERTEX
  5
6D3
  8
CURB-24
 62
     6
 10
108.742
 20
115.441
 30
0.0
 70
    32
  0
VERTEX
  5
6D4
  8
CURB-24
 62
     6
 10
108.733
 20
115.461
 30
0.0
 70
    32
  0
VERTEX
  5
6D5
  8
CURB-24
 62
     6
 10
108.723
 20
115.48099999999999
 30
0.0
 70
    32
  0
VERTEX
  5
6D6
  8
CURB-24
 62
     6
 10
108.71299999999999
 20
115.501
 30
0.0
 70
    32
  0
VERTEX
  5
6D7
  8
CURB-24
 62
     6
 10
108.702
 20
115.52200000000001
 30
0.0
 70
    32
  0
VERTEX
  5
6D8
  8
CURB-24
 62
     6
 10
108.69
 20
115.542
 30
0.0
 70
    32
  0
VERTEX
  5
6D9
  8
CURB-24
 62
     6
 10
108.678
 20
115.562
 30
0.0
 70
    32
  0
VERTEX
  5
6DA
  8
CURB-24
 62
     6
 10
108.664
 20
115.583
 30
0.0
 70
    32
  0
VERTEX
  5
6DB
  8
CURB-24
 62
     6
 10
108.65000000000001
 20
115.60299999999999
 30
0.0
 70
    32
  0
VERTEX
  5
6DC
  8
CURB-24
 62
     6
 10
108.636
 20
115.623
 30
0.0
 70
    32
  0
VERTEX
  5
6DD
  8
CURB-24
 62
     6
 10
108.62
 20
115.643
 30
0.0
 70
    32
  0
VERTEX
  5
6DE
  8
CURB-24
 62
     6
 10
108.604
 20
115.663
 30
0.0
 70
    32
  0
VERTEX
  5
6DF
  8
CURB-24
 62
     6
 10
108.586
 20
115.682
 30
0.0
 70
    32
  0
VERTEX
  5
6E0
  8
CURB-24
 62
     6
 10
108.568
 20
115.702
 30
0.0
 70
    32
  0
VERTEX
  5
6E1
  8
CURB-24
 62
     6
 10
108.55
 20
115.721
 30
0.0
 70
    32
  0
VERTEX
  5
6E2
  8
CURB-24
 62
     6
 10
108.53
 20
115.739
 30
0.0
 70
    32
  0
VERTEX
  5
6E3
  8
CURB-24
 62
     6
 10
108.51000000000001
 20
115.758
 30
0.0
 70
    32
  0
VERTEX
  5
6E4
  8
CURB-24
 62
     6
 10
108.488
 20
115.77500000000001
 30
0.0
 70
    32
  0
VERTEX
  5
6E5
  8
CURB-24
 62
     6
 10
108.46599999999999
 20
115.79300000000001
 30
0.0
 70
    32
  0
VERTEX
  5
6E6
  8
CURB-24
 62
     6
 10
108.443
 20
115.809
 30
0.0
 70
    32
  0
VERTEX
  5
6E7
  8
CURB-24
 62
     6
 10
108.42
 20
115.82599999999999
 30
0.0
 70
    32
  0
VERTEX
  5
6E8
  8
CURB-24
 62
     6
 10
108.395
 20
115.84099999999999
 30
0.0
 70
    32
  0
VERTEX
  5
6E9
  8
CURB-24
 62
     6
 10
108.37
 20
115.85599999999999
 30
0.0
 70
    32
  0
VERTEX
  5
6EA
  8
CURB-24
 62
     6
 10
108.34399999999999
 20
115.87
 30
0.0
 70
    32
  0
VERTEX
  5
6EB
  8
CURB-24
 62
     6
 10
108.318
 20
115.884
 30
0.0
 70
    32
  0
VERTEX
  5
6EC
  8
CURB-24
 62
     6
 10
108.291
 20
115.896
 30
0.0
 70
    32
  0
VERTEX
  5
6ED
  8
CURB-24
 62
     6
 10
108.26300000000001
 20
115.908
 30
0.0
 70
    32
  0
VERTEX
  5
6EE
  8
CURB-24
 62
     6
 10
108.23399999999999
 20
115.919
 30
0.0
 70
    32
  0
VERTEX
  5
6EF
  8
CURB-24
 62
     6
 10
108.206
 20
115.928
 30
0.0
 70
    32
  0
VERTEX
  5
6F0
  8
CURB-24
 62
     6
 10
108.176
 20
115.937
 30
0.0
 70
    32
  0
VERTEX
  5
6F1
  8
CURB-24
 62
     6
 10
108.146
 20
115.94499999999999
 30
0.0
 70
    32
  0
VERTEX
  5
6F2
  8
CURB-24
 62
     6
 10
108.116
 20
115.952
 30
0.0
 70
    32
  0
VERTEX
  5
6F3
  8
CURB-24
 62
     6
 10
108.086
 20
115.958
 30
0.0
 70
    32
  0
VERTEX
  5
6F4
  8
CURB-24
 62
     6
 10
108.05500000000001
 20
115.96299999999999
 30
0.0
 70
    32
  0
VERTEX
  5
6F5
  8
CURB-24
 62
     6
 10
108.024
 20
115.96599999999999
 30
0.0
 70
    32
  0
VERTEX
  5
6F6
  8
CURB-24
 62
     6
 10
107.992
 20
115.96899999999999
 30
0.0
 70
    32
  0
VERTEX
  5
6F7
  8
CURB-24
 62
     6
 10
107.961
 20
115.97
 30
0.0
 70
    32
  0
VERTEX
  5
6F8
  8
CURB-24
 62
     6
 10
107.93000000000001
 20
115.97
 30
0.0
 70
    32
  0
VERTEX
  5
6F9
  8
CURB-24
 62
     6
 10
107.898
 20
115.97
 30
0.0
 70
    32
  0
VERTEX
  5
6FA
  8
CURB-24
 62
     6
 10
107.867
 20
115.968
 30
0.0
 70
    32
  0
VERTEX
  5
6FB
  8
CURB-24
 62
     6
 10
107.836
 20
115.965
 30
0.0
 70
    32
  0
VERTEX
  5
6FC
  8
CURB-24
 62
     6
 10
107.80500000000001
 20
115.95999999999999
 30
0.0
 70
    32
  0
VERTEX
  5
6FD
  8
CURB-24
 62
     6
 10
107.774
 20
115.955
 30
0.0
 70
    32
  0
VERTEX
  5
6FE
  8
CURB-24
 62
     6
 10
107.744
 20
115.949
 30
0.0
 70
    32
  0
VERTEX
  5
6FF
  8
CURB-24
 62
     6
 10
107.714
 20
115.941
 30
0.0
 70
    32
  0
VERTEX
  5
700
  8
CURB-24
 62
     6
 10
107.684
 20
115.93300000000001
 30
0.0
 70
    32
  0
VERTEX
  5
701
  8
CURB-24
 62
     6
 10
107.655
 20
115.92400000000001
 30
0.0
 70
    32
  0
VERTEX
  5
702
  8
CURB-24
 62
     6
 10
107.626
 20
115.913
 30
0.0
 70
    32
  0
VERTEX
  5
703
  8
CURB-24
 62
     6
 10
107.598
 20
115.902
 30
0.0
 70
    32
  0
VERTEX
  5
704
  8
CURB-24
 62
     6
 10
107.571
 20
115.89
 30
0.0
 70
    32
  0
VERTEX
  5
705
  8
CURB-24
 62
     6
 10
107.544
 20
115.877
 30
0.0
 70
    32
  0
VERTEX
  5
706
  8
CURB-24
 62
     6
 10
107.518
 20
115.863
 30
0.0
 70
    32
  0
VERTEX
  5
707
  8
CURB-24
 62
     6
 10
107.492
 20
115.849
 30
0.0
 70
    32
  0
VERTEX
  5
708
  8
CURB-24
 62
     6
 10
107.467
 20
115.833
 30
0.0
 70
    32
  0
VERTEX
  5
709
  8
CURB-24
 62
     6
 10
107.443
 20
115.818
 30
0.0
 70
    32
  0
VERTEX
  5
70A
  8
CURB-24
 62
     6
 10
107.42
 20
115.801
 30
0.0
 70
    32
  0
VERTEX
  5
70B
  8
CURB-24
 62
     6
 10
107.398
 20
115.78400000000001
 30
0.0
 70
    32
  0
VERTEX
  5
70C
  8
CURB-24
 62
     6
 10
107.376
 20
115.767
 30
0.0
 70
    32
  0
VERTEX
  5
70D
  8
CURB-24
 62
     6
 10
107.355
 20
115.749
 30
0.0
 70
    32
  0
VERTEX
  5
70E
  8
CURB-24
 62
     6
 10
107.33499999999999
 20
115.73
 30
0.0
 70
    32
  0
VERTEX
  5
70F
  8
CURB-24
 62
     6
 10
107.316
 20
115.711
 30
0.0
 70
    32
  0
VERTEX
  5
710
  8
CURB-24
 62
     6
 10
107.297
 20
115.69199999999999
 30
0.0
 70
    32
  0
VERTEX
  5
711
  8
CURB-24
 62
     6
 10
107.28
 20
115.673
 30
0.0
 70
    32
  0
VERTEX
  5
712
  8
CURB-24
 62
     6
 10
107.26300000000001
 20
115.65300000000001
 30
0.0
 70
    32
  0
VERTEX
  5
713
  8
CURB-24
 62
     6
 10
107.247
 20
115.633
 30
0.0
 70
    32
  0
VERTEX
  5
714
  8
CURB-24
 62
     6
 10
107.232
 20
115.613
 30
0.0
 70
    32
  0
VERTEX
  5
715
  8
CURB-24
 62
     6
 10
107.218
 20
115.593
 30
0.0
 70
    32
  0
VERTEX
  5
716
  8
CURB-24
 62
     6
 10
107.20399999999999
 20
115.57299999999999
 30
0.0
 70
    32
  0
VERTEX
  5
717
  8
CURB-24
 62
     6
 10
107.191
 20
115.55200000000001
 30
0.0
 70
    32
  0
VERTEX
  5
718
  8
CURB-24
 62
     6
 10
107.179
 20
115.532
 30
0.0
 70
    32
  0
VERTEX
  5
719
  8
CURB-24
 62
     6
 10
107.16800000000001
 20
115.511
 30
0.0
 70
    32
  0
VERTEX
  5
71A
  8
CURB-24
 62
     6
 10
107.157
 20
115.491
 30
0.0
 70
    32
  0
VERTEX
  5
71B
  8
CURB-24
 62
     6
 10
107.14700000000001
 20
115.471
 30
0.0
 70
    32
  0
VERTEX
  5
71C
  8
CURB-24
 62
     6
 10
107.13800000000001
 20
115.45099999999999
 30
0.0
 70
    32
  0
VERTEX
  5
71D
  8
CURB-24
 62
     6
 10
107.129
 20
115.43000000000001
 30
0.0
 70
    32
  0
VERTEX
  5
71E
  8
CURB-24
 62
     6
 10
107.121
 20
115.41
 30
0.0
 70
    32
  0
VERTEX
  5
71F
  8
CURB-24
 62
     6
 10
107.114
 20
115.39100000000001
 30
0.0
 70
    32
  0
VERTEX
  5
720
  8
CURB-24
 62
     6
 10
107.107
 20
115.371
 30
0.0
 70
    32
  0
VERTEX
  5
721
  8
CURB-24
 62
     6
 10
107.101
 20
115.351
 30
0.0
 70
    32
  0
VERTEX
  5
722
  8
CURB-24
 62
     6
 10
107.095
 20
115.33199999999999
 30
0.0
 70
    32
  0
VERTEX
  5
723
  8
CURB-24
 62
     6
 10
107.09
 20
115.313
 30
0.0
 70
    32
  0
VERTEX
  5
724
  8
CURB-24
 62
     6
 10
107.08499999999999
 20
115.294
 30
0.0
 70
    32
  0
VERTEX
  5
725
  8
CURB-24
 62
     6
 10
107.081
 20
115.276
 30
0.0
 70
    32
  0
VERTEX
  5
726
  8
CURB-24
 62
     6
 10
107.078
 20
115.25700000000001
 30
0.0
 70
    32
  0
VERTEX
  5
727
  8
CURB-24
 62
     6
 10
107.074
 20
115.239
 30
0.0
 70
    32
  0
VERTEX
  5
728
  8
CURB-24
 62
     6
 10
107.072
 20
115.221
 30
0.0
 70
    32
  0
VERTEX
  5
729
  8
CURB-24
 62
     6
 10
107.069
 20
115.20399999999999
 30
0.0
 70
    32
  0
VERTEX
  5
72A
  8
CURB-24
 62
     6
 10
107.06699999999999
 20
115.18600000000001
 30
0.0
 70
    32
  0
VERTEX
  5
72B
  8
CURB-24
 62
     6
 10
107.066
 20
115.169
 30
0.0
 70
    32
  0
VERTEX
  5
72C
  8
CURB-24
 62
     6
 10
107.06399999999999
 20
115.152
 30
0.0
 70
    32
  0
VERTEX
  5
72D
  8
CURB-24
 62
     6
 10
107.063
 20
115.136
 30
0.0
 70
    32
  0
VERTEX
  5
72E
  8
CURB-24
 62
     6
 10
107.063
 20
115.12
 30
0.0
 70
    32
  0
VERTEX
  5
72F
  8
CURB-24
 62
     6
 10
107.063
 20
115.104
 30
0.0
 70
    32
  0
VERTEX
  5
730
  8
CURB-24
 62
     6
 10
107.063
 20
115.08799999999999
 30
0.0
 70
    32
  0
VERTEX
  5
731
  8
CURB-24
 62
     6
 10
107.063
 20
115.072
 30
0.0
 70
    32
  0
VERTEX
  5
732
  8
CURB-24
 62
     6
 10
107.063
 20
115.056
 30
0.0
 70
    32
  0
VERTEX
  5
733
  8
CURB-24
 62
     6
 10
107.06399999999999
 20
115.039
 30
0.0
 70
    32
  0
VERTEX
  5
734
  8
CURB-24
 62
     6
 10
107.066
 20
115.02200000000001
 30
0.0
 70
    32
  0
VERTEX
  5
735
  8
CURB-24
 62
     6
 10
107.06699999999999
 20
115.005
 30
0.0
 70
    32
  0
VERTEX
  5
736
  8
CURB-24
 62
     6
 10
107.069
 20
114.988
 30
0.0
 70
    32
  0
VERTEX
  5
737
  8
CURB-24
 62
     6
 10
107.072
 20
114.97
 30
0.0
 70
    32
  0
VERTEX
  5
738
  8
CURB-24
 62
     6
 10
107.074
 20
114.952
 30
0.0
 70
    32
  0
VERTEX
  5
739
  8
CURB-24
 62
     6
 10
107.078
 20
114.934
 30
0.0
 70
    32
  0
VERTEX
  5
73A
  8
CURB-24
 62
     6
 10
107.081
 20
114.916
 30
0.0
 70
    32
  0
VERTEX
  5
73B
  8
CURB-24
 62
     6
 10
107.08499999999999
 20
114.89700000000001
 30
0.0
 70
    32
  0
VERTEX
  5
73C
  8
CURB-24
 62
     6
 10
107.09
 20
114.878
 30
0.0
 70
    32
  0
VERTEX
  5
73D
  8
CURB-24
 62
     6
 10
107.095
 20
114.85899999999999
 30
0.0
 70
    32
  0
VERTEX
  5
73E
  8
CURB-24
 62
     6
 10
107.101
 20
114.84
 30
0.0
 70
    32
  0
VERTEX
  5
73F
  8
CURB-24
 62
     6
 10
107.107
 20
114.81999999999999
 30
0.0
 70
    32
  0
VERTEX
  5
740
  8
CURB-24
 62
     6
 10
107.114
 20
114.801
 30
0.0
 70
    32
  0
VERTEX
  5
741
  8
CURB-24
 62
     6
 10
107.121
 20
114.78100000000001
 30
0.0
 70
    32
  0
VERTEX
  5
742
  8
CURB-24
 62
     6
 10
107.129
 20
114.761
 30
0.0
 70
    32
  0
VERTEX
  5
743
  8
CURB-24
 62
     6
 10
107.13800000000001
 20
114.741
 30
0.0
 70
    32
  0
VERTEX
  5
744
  8
CURB-24
 62
     6
 10
107.14700000000001
 20
114.721
 30
0.0
 70
    32
  0
VERTEX
  5
745
  8
CURB-24
 62
     6
 10
107.157
 20
114.7
 30
0.0
 70
    32
  0
VERTEX
  5
746
  8
CURB-24
 62
     6
 10
107.16800000000001
 20
114.68000000000001
 30
0.0
 70
    32
  0
VERTEX
  5
747
  8
CURB-24
 62
     6
 10
107.179
 20
114.65900000000001
 30
0.0
 70
    32
  0
VERTEX
  5
748
  8
CURB-24
 62
     6
 10
107.191
 20
114.639
 30
0.0
 70
    32
  0
VERTEX
  5
749
  8
CURB-24
 62
     6
 10
107.20399999999999
 20
114.619
 30
0.0
 70
    32
  0
VERTEX
  5
74A
  8
CURB-24
 62
     6
 10
107.218
 20
114.598
 30
0.0
 70
    32
  0
VERTEX
  5
74B
  8
CURB-24
 62
     6
 10
107.232
 20
114.578
 30
0.0
 70
    32
  0
VERTEX
  5
74C
  8
CURB-24
 62
     6
 10
107.247
 20
114.55800000000001
 30
0.0
 70
    32
  0
VERTEX
  5
74D
  8
CURB-24
 62
     6
 10
107.26300000000001
 20
114.538
 30
0.0
 70
    32
  0
VERTEX
  5
74E
  8
CURB-24
 62
     6
 10
107.28
 20
114.51900000000001
 30
0.0
 70
    32
  0
VERTEX
  5
74F
  8
CURB-24
 62
     6
 10
107.297
 20
114.499
 30
0.0
 70
    32
  0
VERTEX
  5
750
  8
CURB-24
 62
     6
 10
107.316
 20
114.48
 30
0.0
 70
    32
  0
VERTEX
  5
751
  8
CURB-24
 62
     6
 10
107.33499999999999
 20
114.461
 30
0.0
 70
    32
  0
VERTEX
  5
752
  8
CURB-24
 62
     6
 10
107.355
 20
114.443
 30
0.0
 70
    32
  0
VERTEX
  5
753
  8
CURB-24
 62
     6
 10
107.376
 20
114.425
 30
0.0
 70
    32
  0
VERTEX
  5
754
  8
CURB-24
 62
     6
 10
107.398
 20
114.407
 30
0.0
 70
    32
  0
VERTEX
  5
755
  8
CURB-24
 62
     6
 10
107.42
 20
114.39
 30
0.0
 70
    32
  0
VERTEX
  5
756
  8
CURB-24
 62
     6
 10
107.443
 20
114.374
 30
0.0
 70
    32
  0
VERTEX
  5
757
  8
CURB-24
 62
     6
 10
107.467
 20
114.358
 30
0.0
 70
    32
  0
VERTEX
  5
758
  8
CURB-24
 62
     6
 10
107.492
 20
114.343
 30
0.0
 70
    32
  0
VERTEX
  5
759
  8
CURB-24
 62
     6
 10
107.518
 20
114.328
 30
0.0
 70
    32
  0
VERTEX
  5
75A
  8
CURB-24
 62
     6
 10
107.544
 20
114.31399999999999
 30
0.0
 70
    32
  0
VERTEX
  5
75B
  8
CURB-24
 62
     6
 10
107.571
 20
114.301
 30
0.0
 70
    32
  0
VERTEX
  5
75C
  8
CURB-24
 62
     6
 10
107.598
 20
114.289
 30
0.0
 70
    32
  0
VERTEX
  5
75D
  8
CURB-24
 62
     6
 10
107.626
 20
114.27800000000001
 30
0.0
 70
    32
  0
VERTEX
  5
75E
  8
CURB-24
 62
     6
 10
107.655
 20
114.268
 30
0.0
 70
    32
  0
VERTEX
  5
75F
  8
CURB-24
 62
     6
 10
107.684
 20
114.258
 30
0.0
 70
    32
  0
VERTEX
  5
760
  8
CURB-24
 62
     6
 10
107.714
 20
114.25
 30
0.0
 70
    32
  0
VERTEX
  5
761
  8
CURB-24
 62
     6
 10
107.744
 20
114.242
 30
0.0
 70
    32
  0
VERTEX
  5
762
  8
CURB-24
 62
     6
 10
107.774
 20
114.236
 30
0.0
 70
    32
  0
VERTEX
  5
763
  8
CURB-24
 62
     6
 10
107.80500000000001
 20
114.23099999999999
 30
0.0
 70
    32
  0
VERTEX
  5
764
  8
CURB-24
 62
     6
 10
107.836
 20
114.227
 30
0.0
 70
    32
  0
VERTEX
  5
765
  8
CURB-24
 62
     6
 10
107.867
 20
114.224
 30
0.0
 70
    32
  0
VERTEX
  5
766
  8
CURB-24
 62
     6
 10
107.898
 20
114.22199999999999
 30
0.0
 70
    32
  0
VERTEX
  5
767
  8
CURB-24
 62
     6
 10
107.93000000000001
 20
114.221
 30
0.0
 70
    32
  0
VERTEX
  5
768
  8
CURB-24
 62
     6
 10
107.961
 20
114.221
 30
0.0
 70
    32
  0
VERTEX
  5
769
  8
CURB-24
 62
     6
 10
107.992
 20
114.223
 30
0.0
 70
    32
  0
VERTEX
  5
76A
  8
CURB-24
 62
     6
 10
108.024
 20
114.22499999999999
 30
0.0
 70
    32
  0
VERTEX
  5
76B
  8
CURB-24
 62
     6
 10
108.05500000000001
 20
114.229
 30
0.0
 70
    32
  0
VERTEX
  5
76C
  8
CURB-24
 62
     6
 10
108.086
 20
114.233
 30
0.0
 70
    32
  0
VERTEX
  5
76D
  8
CURB-24
 62
     6
 10
108.116
 20
114.239
 30
0.0
 70
    32
  0
VERTEX
  5
76E
  8
CURB-24
 62
     6
 10
108.146
 20
114.246
 30
0.0
 70
    32
  0
VERTEX
  5
76F
  8
CURB-24
 62
     6
 10
108.176
 20
114.254
 30
0.0
 70
    32
  0
VERTEX
  5
770
  8
CURB-24
 62
     6
 10
108.206
 20
114.26300000000001
 30
0.0
 70
    32
  0
VERTEX
  5
771
  8
CURB-24
 62
     6
 10
108.23399999999999
 20
114.273
 30
0.0
 70
    32
  0
VERTEX
  5
772
  8
CURB-24
 62
     6
 10
108.26300000000001
 20
114.28400000000001
 30
0.0
 70
    32
  0
VERTEX
  5
773
  8
CURB-24
 62
     6
 10
108.291
 20
114.295
 30
0.0
 70
    32
  0
VERTEX
  5
774
  8
CURB-24
 62
     6
 10
108.318
 20
114.30800000000001
 30
0.0
 70
    32
  0
VERTEX
  5
775
  8
CURB-24
 62
     6
 10
108.34399999999999
 20
114.321
 30
0.0
 70
    32
  0
VERTEX
  5
776
  8
CURB-24
 62
     6
 10
108.37
 20
114.33499999999999
 30
0.0
 70
    32
  0
VERTEX
  5
777
  8
CURB-24
 62
     6
 10
108.395
 20
114.34999999999999
 30
0.0
 70
    32
  0
VERTEX
  5
778
  8
CURB-24
 62
     6
 10
108.42
 20
114.366
 30
0.0
 70
    32
  0
VERTEX
  5
779
  8
CURB-24
 62
     6
 10
108.443
 20
114.38200000000001
 30
0.0
 70
    32
  0
VERTEX
  5
77A
  8
CURB-24
 62
     6
 10
108.46599999999999
 20
114.399
 30
0.0
 70
    32
  0
VERTEX
  5
77B
  8
CURB-24
 62
     6
 10
108.488
 20
114.416
 30
0.0
 70
    32
  0
VERTEX
  5
77C
  8
CURB-24
 62
     6
 10
108.51000000000001
 20
114.434
 30
0.0
 70
    32
  0
VERTEX
  5
77D
  8
CURB-24
 62
     6
 10
108.53
 20
114.452
 30
0.0
 70
    32
  0
VERTEX
  5
77E
  8
CURB-24
 62
     6
 10
108.55
 20
114.471
 30
0.0
 70
    32
  0
VERTEX
  5
77F
  8
CURB-24
 62
     6
 10
108.568
 20
114.48999999999999
 30
0.0
 70
    32
  0
VERTEX
  5
780
  8
CURB-24
 62
     6
 10
108.586
 20
114.509
 30
0.0
 70
    32
  0
VERTEX
  5
781
  8
CURB-24
 62
     6
 10
108.604
 20
114.52800000000001
 30
0.0
 70
    32
  0
VERTEX
  5
782
  8
CURB-24
 62
     6
 10
108.62
 20
114.548
 30
0.0
 70
    32
  0
VERTEX
  5
783
  8
CURB-24
 62
     6
 10
108.636
 20
114.568
 30
0.0
 70
    32
  0
VERTEX
  5
784
  8
CURB-24
 62
     6
 10
108.65000000000001
 20
114.58799999999999
 30
0.0
 70
    32
  0
VERTEX
  5
785
  8
CURB-24
 62
     6
 10
108.664
 20
114.60899999999999
 30
0.0
 70
    32
  0
VERTEX
  5
786
  8
CURB-24
 62
     6
 10
108.678
 20
114.629
 30
0.0
 70
    32
  0
VERTEX
  5
787
  8
CURB-24
 62
     6
 10
108.69
 20
114.649
 30
0.0
 70
    32
  0
VERTEX
  5
788
  8
CURB-24
 62
     6
 10
108.702
 20
114.67
 30
0.0
 70
    32
  0
VERTEX
  5
789
  8
CURB-24
 62
     6
 10
108.71299999999999
 20
114.69
 30
0.0
 70
    32
  0
VERTEX
  5
78A
  8
CURB-24
 62
     6
 10
108.723
 20
114.70999999999999
 30
0.0
 70
    32
  0
VERTEX
  5
78B
  8
CURB-24
 62
     6
 10
108.733
 20
114.73099999999999
 30
0.0
 70
    32
  0
VERTEX
  5
78C
  8
CURB-24
 62
     6
 10
108.742
 20
114.751
 30
0.0
 70
    32
  0
VERTEX
  5
78D
  8
CURB-24
 62
     6
 10
108.75
 20
114.771
 30
0.0
 70
    32
  0
VERTEX
  5
78E
  8
CURB-24
 62
     6
 10
108.758
 20
114.791
 30
0.0
 70
    32
  0
VERTEX
  5
78F
  8
CURB-24
 62
     6
 10
108.765
 20
114.81100000000001
 30
0.0
 70
    32
  0
VERTEX
  5
790
  8
CURB-24
 62
     6
 10
108.771
 20
114.83
 30
0.0
 70
    32
  0
VERTEX
  5
791
  8
CURB-24
 62
     6
 10
108.777
 20
114.849
 30
0.0
 70
    32
  0
VERTEX
  5
792
  8
CURB-24
 62
     6
 10
108.783
 20
114.869
 30
0.0
 70
    32
  0
VERTEX
  5
793
  8
CURB-24
 62
     6
 10
108.78700000000001
 20
114.88800000000001
 30
0.0
 70
    32
  0
VERTEX
  5
794
  8
CURB-24
 62
     6
 10
108.792
 20
114.90600000000001
 30
0.0
 70
    32
  0
VERTEX
  5
795
  8
CURB-24
 62
     6
 10
108.79600000000001
 20
114.925
 30
0.0
 70
    32
  0
VERTEX
  5
796
  8
CURB-24
 62
     6
 10
108.79900000000001
 20
114.943
 30
0.0
 70
    32
  0
VERTEX
  5
797
  8
CURB-24
 62
     6
 10
108.80200000000001
 20
114.961
 30
0.0
 70
    32
  0
VERTEX
  5
798
  8
CURB-24
 62
     6
 10
108.80500000000001
 20
114.979
 30
0.0
 70
    32
  0
VERTEX
  5
799
  8
CURB-24
 62
     6
 10
108.807
 20
114.996
 30
0.0
 70
    32
  0
VERTEX
  5
79A
  8
CURB-24
 62
     6
 10
108.809
 20
115.014
 30
0.0
 70
    32
  0
VERTEX
  5
79B
  8
CURB-24
 62
     6
 10
108.81
 20
115.03100000000001
 30
0.0
 70
    32
  0
VERTEX
  5
79C
  8
CURB-24
 62
     6
 10
108.81100000000001
 20
115.047
 30
0.0
 70
    32
  0
VERTEX
  5
79D
  8
CURB-24
 62
     6
 10
108.812
 20
115.06399999999999
 30
0.0
 70
    32
  0
VERTEX
  5
79E
  8
CURB-24
 62
     6
 10
108.812
 20
115.08
 30
0.0
 70
    32
  0
VERTEX
  5
79F
  8
CURB-24
 62
     6
 10
108.813
 20
115.096
 30
0.0
 70
    32
  0
SEQEND
  5
7A0
  8
CURB-24
 62
     6
  0
SOLID
  5
258
  8
CURB-24-DIM
  6
CONTINUOUS
 62
     6
 10
36.576484000000001
 20
93.756449111299986
 30
0.0
 11
36.263984000000001
 21
91.881734682900003
 31
0.0
 12
35.951484000000001
 22
93.756449111299986
 32
0.0
 13
35.951484000000001
 23
93.756449111299986
 33
0.0
  0
SOLID
  5
259
  8
CURB-24-DIM
  6
CONTINUOUS
 62
     6
 10
36.576484000000001
 20
130.6888814644
 30
0.0
 11
35.951484000000001
 21
130.6888814644
 31
0.0
 12
36.263984000000001
 22
132.56359589280001
 32
0.0
 13
36.263984000000001
 23
132.56359589280001
 33
0.0
  0
SOLID
  5
25A
  8
CURB-24-DIM
  6
CONTINUOUS
 62
     6
 10
120.0
 20
70.418740271800004
 30
0.0
 11
120.0
 21
71.043645081299999
 31
0.0
 12
121.875
 22
70.731192676600003
 32
0.0
 13
121.875
 23
70.731192676600003
 33
0.0
  0
SOLID
  5
25B
  8
CURB-24-DIM
  6
CONTINUOUS
 62
     6
 10
52.875
 20
70.418740271800004
 30
0.0
 11
51.0
 21
70.731192676600003
 31
0.0
 12
52.875
 22
71.043645081299999
 32
0.0
 13
52.875
 23
71.043645081299999
 33
0.0
  0
SOLID
  5
25C
  8
CURB-24-DIM
  6
CONTINUOUS
 62
     6
 10
45.499999999999993
 20
70.314589136999984
 30
0.0
 11
45.499999999999993
 21
71.147796216199978
 31
0.0
 12
48.0
 22
70.731192676600003
 32
0.0
 13
48.0
 23
70.731192676600003
 33
0.0
  0
SOLID
  5
25D
  8
CURB-24-DIM
  6
CONTINUOUS
 62
     6
 10
35.919628338499997
 20
138.12422516379999
 30
0.0
 11
36.7529613385
 21
138.12422516379999
 31
0.0
 12
36.336294338499997
 22
135.6246059259
 32
0.0
 13
36.336294338499997
 23
135.6246059259
 33
0.0
  0
SOLID
  5
25E
  8
UNTDUCTDIM
  6
CONTINUOUS
 62
     2
 10
130.047539
 20
95.506163539699983
 30
0.0
 11
129.735039
 21
93.631449111299986
 31
0.0
 12
129.422539
 22
95.506163539699983
 32
0.0
 13
129.422539
 23
95.506163539699983
 33
0.0
  0
SOLID
  5
25F
  8
UNTDUCTDIM
  6
CONTINUOUS
 62
     2
 10
130.047539
 20
109.5023559186
 30
0.0
 11
129.422539
 21
109.5023559186
 31
0.0
 12
129.735039
 22
111.377070347
 32
0.0
 13
129.735039
 23
111.377070347
 33
0.0
  0
SOLID
  5
260
  8
UNTDUCTDIM
  6
CONTINUOUS
 62
     2
 10
130.047539
 20
118.9157066252
 30
0.0
 11
129.735039
 21
117.0409921968
 31
0.0
 12
129.422539
 22
118.9157066252
 32
0.0
 13
129.422539
 23
118.9157066252
 33
0.0
  0
SOLID
  5
261
  8
UNTDUCTDIM
  6
CONTINUOUS
 62
     2
 10
130.047539
 20
126.0393549197
 30
0.0
 11
129.422539
 21
126.0393549197
 31
0.0
 12
129.735039
 22
127.9140693481
 32
0.0
 13
129.735039
 23
127.9140693481
 33
0.0
  0
SOLID
  5
262
  8
UNTDUCTDIM
  6
CONTINUOUS
 62
     2
 10
117.125
 20
140.99037341799999
 30
0.0
 11
117.125
 21
141.61527822740001
 31
0.0
 12
119.0
 22
141.30282582269999
 32
0.0
 13
119.0
 23
141.30282582269999
 33
0.0
  0
SOLID
  5
263
  8
UNTDUCTDIM
  6
CONTINUOUS
 62
     2
 10
95.25
 20
140.99037341799999
 30
0.0
 11
93.375
 21
141.30282582269999
 31
0.0
 12
95.25
 22
141.61527822740001
 32
0.0
 13
95.25
 23
141.61527822740001
 33
0.0
  0
SOLID
  5
264
  8
UNTDUCTDIM
  6
CONTINUOUS
 62
     2
 10
120.8775
 20
84.547768024700005
 30
0.0
 11
119.0025
 21
84.860220429400002
 31
0.0
 12
120.8775
 22
85.1726728342
 32
0.0
 13
120.8775
 23
85.1726728342
 33
0.0
  0
SOLID
  5
265
  8
UNTDUCTDIM
  6
CONTINUOUS
 62
     2
 10
104.685
 20
84.547768024700005
 30
0.0
 11
104.685
 21
85.1726728342
 31
0.0
 12
106.56
 22
84.860220429400002
 32
0.0
 13
106.56
 23
84.860220429400002
 33
0.0
  0
SOLID
  5
266
  8
UNIT-DIM
  6
CONTINUOUS
 62
     7
 10
23.545822999999999
 20
90.749320354400012
 30
0.0
 11
23.233322999999999
 21
88.874605925899999
 31
0.0
 12
22.920822999999999
 22
90.749320354400012
 32
0.0
 13
22.920822999999999
 23
90.749320354400012
 33
0.0
  0
SOLID
  5
267
  8
UNIT-DIM
  6
CONTINUOUS
 62
     7
 10
23.545822999999999
 20
133.74989149749999
 30
0.0
 11
22.920822999999999
 21
133.74989149749999
 31
0.0
 12
23.233322999999999
 22
135.6246059259
 32
0.0
 13
23.233322999999999
 23
135.6246059259
 33
0.0
  0
SOLID
  5
268
  8
UNIT-DIM
  6
CONTINUOUS
 62
     7
 10
120.5
 20
167.05326677170001
 30
0.0
 11
120.5
 21
167.67817158119999
 31
0.0
 12
122.375
 22
167.36571917640001
 32
0.0
 13
122.375
 23
167.36571917640001
 33
0.0
  0
SOLID
  5
269
  8
UNIT-DIM
  6
CONTINUOUS
 62
     7
 10
49.875
 20
167.05326677170001
 30
0.0
 11
48.0
 21
167.36571917640001
 31
0.0
 12
49.875
 22
167.67817158119999
 32
0.0
 13
49.875
 23
167.67817158119999
 33
0.0
  0
DIMENSION
  5
26A
  8
UNIT-DIM
  6
CONTINUOUS
 62
     7
  2
*D3
 10
86.188169238399979
 20
162.58713188900001
 30
0.0
 11
102.87566923839999
 21
161.27463188900001
 31
0.0
 70
   128
  1
2'-9 3/8"\P(848)
 13
119.56316923839999
 23
151.6246059259
 33
0.0
 14
86.188169238399979
 24
151.6246059259
 34
0.0
 50
180.0
  0
DIMENSION
  5
26B
  8
UNIT-DIM
  6
CONTINUOUS
 62
     7
  2
*D5
 10
152.55102824080001
 20
151.6246059259
 30
0.0
 11
152.55102824080001
 21
143.93178230129999
 31
0.0
 70
   128
  1
1' -4"\P(406)
 13
122.375
 23
135.6246059259
 33
0.0
 14
119.56316923839999
 24
151.6246059259
 34
0.0
 50
90.0
  0
DIMENSION
  5
26C
  8
UNTDUCTDIM
  6
CONTINUOUS
 62
     2
  2
*D7
 10
122.375
 20
79.139851914899992
 30
0.0
 11
134.3519189644
 21
77.639851914899992
 31
0.0
 70
   128
  1
3 3/8"\P(86)
 13
119.0
 23
93.631449111299986
 33
0.0
 14
122.375
 24
88.874605925899999
 34
0.0
  0
INSERT
  5
26D
  8
0
  2
*U9
 10
0.0
 20
0.0
 30
0.0
  0
LINE
  5
26E
  8
NOTES
  6
CONTINUOUS
 62
     1
 10
74.861532849100001
 20
97.052962368099969
 30
0.0
 11
68.285539613699996
 21
55.42168155529999
 31
0.0
  0
LINE
  5
26F
  8
NOTES
  6
CONTINUOUS
 62
     1
 10
68.285539613699996
 20
55.42168155529999
 30
0.0
 11
71.925810466699986
 21
55.42168155529999
 31
0.0
  0
SOLID
  5
270
  8
NOTES
  6
CONTINUOUS
 62
     1
 10
74.919893296699982
 20
95.018946867099984
 30
0.0
 11
74.861532849100001
 21
97.052962368099969
 31
0.0
 12
74.179078292399993
 22
95.135964512499996
 32
0.0
 13
74.179078292399993
 23
95.135964512499996
 33
0.0
  0
INSERT
  5
271
  8
0
  2
*U10
 10
0.0
 20
0.0
 30
0.0
  0
INSERT
  5
272
  8
0
  2
*U11
 10
0.0
 20
0.0
 30
0.0
  0
INSERT
  5
273
  8
0
  2
*U12
 10
0.0
 20
0.0
 30
0.0
  0
INSERT
  5
274
  8
0
  2
*U13
 10
0.0
 20
0.0
 30
0.0
  0
INSERT
  5
275
  8
0
  2
*U14
 10
0.0
 20
0.0
 30
0.0
  0
INSERT
  5
276
  8
0
  2
*U15
 10
0.0
 20
0.0
 30
0.0
  0
INSERT
  5
277
  8
0
  2
*U16
 10
0.0
 20
0.0
 30
0.0
  0
INSERT
  5
278
  8
0
  2
*U17
 10
0.0
 20
0.0
 30
0.0
  0
INSERT
  5
279
  8
0
  2
*U18
 10
0.0
 20
0.0
 30
0.0
  0
INSERT
  5
27A
  8
0
  2
*U19
 10
0.0
 20
0.0
 30
0.0
  0
INSERT
  5
27B
  8
0
  2
*U20
 10
0.0
 20
0.0
 30
0.0
  0
INSERT
  5
27C
  8
0
  2
*U21
 10
0.0
 20
0.0
 30
0.0
  0
INSERT
  5
27D
  8
0
  2
*U22
 10
0.0
 20
0.0
 30
0.0
  0
INSERT
  5
27E
  8
0
  2
*U23
 10
0.0
 20
0.0
 30
0.0
  0
INSERT
  5
27F
  8
0
  2
*U24
 10
0.0
 20
0.0
 30
0.0
  0
INSERT
  5
280
  8
0
  2
*U25
 10
0.0
 20
0.0
 30
0.0
  0
INSERT
  5
281
  8
0
  2
*U26
 10
0.0
 20
0.0
 30
0.0
  0
INSERT
  5
282
  8
0
  2
*U27
 10
0.0
 20
0.0
 30
0.0
  0
INSERT
  5
283
  8
0
  2
*U28
 10
0.0
 20
0.0
 30
0.0
  0
INSERT
  5
284
  8
0
  2
*U29
 10
0.0
 20
0.0
 30
0.0
  0
INSERT
  5
285
  8
0
  2
*U30
 10
0.0
 20
0.0
 30
0.0
  0
INSERT
  5
286
  8
0
  2
*U31
 10
0.0
 20
0.0
 30
0.0
  0
INSERT
  5
287
  8
0
  2
*U32
 10
0.0
 20
0.0
 30
0.0
  0
INSERT
  5
288
  8
0
  2
*U33
 10
0.0
 20
0.0
 30
0.0
  0
INSERT
  5
289
  8
0
  2
*U34
 10
0.0
 20
0.0
 30
0.0
  0
INSERT
  5
28A
  8
0
  2
*U35
 10
0.0
 20
0.0
 30
0.0
  0
INSERT
  5
28B
  8
0
  2
*U36
 10
0.0
 20
0.0
 30
0.0
  0
INSERT
  5
28C
  8
0
  2
*U37
 10
0.0
 20
0.0
 30
0.0
  0
INSERT
  5
28D
  8
0
  2
*U38
 10
0.0
 20
0.0
 30
0.0
  0
INSERT
  5
28E
  8
0
  2
*U39
 10
0.0
 20
0.0
 30
0.0
  0
INSERT
  5
28F
  8
0
  2
*U40
 10
0.0
 20
0.0
 30
0.0
  0
INSERT
  5
290
  8
0
  2
*U41
 10
0.0
 20
0.0
 30
0.0
  0
INSERT
  5
291
  8
0
  2
*U42
 10
0.0
 20
0.0
 30
0.0
  0
INSERT
  5
292
  8
0
  2
*U43
 10
0.0
 20
0.0
 30
0.0
  0
INSERT
  5
293
  8
0
  2
*U44
 10
0.0
 20
0.0
 30
0.0
  0
INSERT
  5
294
  8
0
  2
*U45
 10
0.0
 20
0.0
 30
0.0
  0
INSERT
  5
295
  8
0
  2
*U46
 10
0.0
 20
0.0
 30
0.0
  0
INSERT
  5
296
  8
0
  2
*U47
 10
0.0
 20
0.0
 30
0.0
  0
INSERT
  5
297
  8
0
  2
*U48
 10
0.0
 20
0.0
 30
0.0
  0
INSERT
  5
298
  8
0
  2
*U49
 10
0.0
 20
0.0
 30
0.0
  0
INSERT
  5
299
  8
0
  2
*U50
 10
0.0
 20
0.0
 30
0.0
  0
INSERT
  5
29A
  8
0
  2
*U51
 10
0.0
 20
0.0
 30
0.0
  0
INSERT
  5
29B
  8
0
  2
*U52
 10
0.0
 20
0.0
 30
0.0
  0
INSERT
  5
29C
  8
0
  2
*U53
 10
0.0
 20
0.0
 30
0.0
  0
INSERT
  5
29D
  8
0
  2
*U54
 10
0.0
 20
0.0
 30
0.0
  0
INSERT
  5
29E
  8
0
  2
*U55
 10
0.0
 20
0.0
 30
0.0
  0
INSERT
  5
29F
  8
0
  2
*U56
 10
0.0
 20
0.0
 30
0.0
  0
INSERT
  5
2A0
  8
0
  2
*U57
 10
0.0
 20
0.0
 30
0.0
  0
INSERT
  5
2A1
  8
0
  2
*U58
 10
0.0
 20
0.0
 30
0.0
  0
INSERT
  5
2A2
  8
0
  2
*U59
 10
0.0
 20
0.0
 30
0.0
  0
INSERT
  5
2A3
  8
0
  2
*U60
 10
0.0
 20
0.0
 30
0.0
  0
INSERT
  5
2A4
  8
0
  2
*U61
 10
0.0
 20
0.0
 30
0.0
  0
INSERT
  5
2A5
  8
0
  2
*U62
 10
0.0
 20
0.0
 30
0.0
  0
INSERT
  5
2A6
  8
0
  2
*U63
 10
0.0
 20
0.0
 30
0.0
  0
INSERT
  5
2A7
  8
0
  2
*U64
 10
0.0
 20
0.0
 30
0.0
  0
INSERT
  5
2A8
  8
0
  2
*U65
 10
0.0
 20
0.0
 30
0.0
  0
INSERT
  5
2A9
  8
0
  2
*U66
 10
0.0
 20
0.0
 30
0.0
  0
INSERT
  5
2AA
  8
0
  2
*U67
 10
0.0
 20
0.0
 30
0.0
  0
INSERT
  5
2AB
  8
0
  2
*U68
 10
0.0
 20
0.0
 30
0.0
  0
INSERT
  5
2AC
  8
0
  2
*U69
 10
0.0
 20
0.0
 30
0.0
  0
INSERT
  5
2AD
  8
0
  2
*U70
 10
0.0
 20
0.0
 30
0.0
  0
INSERT
  5
2AE
  8
0
  2
*U71
 10
0.0
 20
0.0
 30
0.0
  0
INSERT
  5
2AF
  8
0
  2
*U72
 10
0.0
 20
0.0
 30
0.0
  0
INSERT
  5
2B0
  8
0
  2
*U73
 10
0.0
 20
0.0
 30
0.0
  0
LINE
  5
2B1
  8
SERVCLEAR
  6
CENTER
 62
     1
 10
0.0
 20
171.6246059259
 30
0.0
 11
0.0
 21
40.8819165584
 31
0.0
  0
LINE
  5
2B2
  8
NOTES
  6
CONTINUOUS
 62
     1
 10
0.0
 20
0.0
 30
0.0
 11
0.0
 21
36.494440873199999
 31
0.0
  0
LINE
  5
2B3
  8
0
  6
CONTINUOUS
 62
     7
 10
0.0
 20
0.0
 30
0.0
 11
0.0
 21
175.0
 31
0.0
  0
LINE
  5
2B4
  8
0
  6
CONTINUOUS
 62
     7
 10
0.0
 20
0.0
 30
0.0
 11
175.0
 21
0.0
 31
0.0
  0
LINE
  5
2B5
  8
NOTES
  6
CONTINUOUS
 62
     1
 10
0.0
 20
0.0
 30
0.0
 11
48.0
 21
0.0
 31
0.0
  0
LINE
  5
2B6
  8
SERVCLRDIM
  6
CONTINUOUS
 62
     1
 10
1.875
 20
127.9540957215
 30
0.0
 11
1.875
 21
127.3291909121
 31
0.0
  0
LINE
  5
2B7
  8
NOTES
  6
CONTINUOUS
 62
     1
 10
0.0
 20
3.9993907806000002
 30
0.0
 11
48.0
 21
3.9993907806000002
 31
0.0
  0
LINE
  5
2B8
  8
NOTES
  6
CONTINUOUS
 62
     1
 10
0.0
 20
4.4993146281999987
 30
0.0
 11
48.0
 21
4.4993146281999987
 31
0.0
  0
LINE
  5
2B9
  8
NOTES
  6
CONTINUOUS
 62
     1
 10
0.0
 20
8.4987054087999976
 30
0.0
 11
48.0
 21
8.4987054087999976
 31
0.0
  0
LINE
  5
2BA
  8
NOTES
  6
CONTINUOUS
 62
     1
 10
16.0
 20
12.4980961895
 30
0.0
 11
16.0
 21
36.494440873199999
 31
0.0
  0
LINE
  5
2BB
  8
NOTES
  6
CONTINUOUS
 62
     1
 10
0.0
 20
12.4980961895
 30
0.0
 11
48.0
 21
12.4980961895
 31
0.0
  0
LINE
  5
2BC
  8
UNIT-DIM
  6
CONTINUOUS
 62
     7
 10
23.233322999999999
 20
135.6246059259
 30
0.0
 11
23.233322999999999
 21
119.79296370420001
 31
0.0
  0
LINE
  5
2BD
  8
SERVCLRDIM
  6
CONTINUOUS
 62
     1
 10
23.233322999999999
 20
88.874605925899999
 30
0.0
 11
23.233322999999999
 21
62.680281056200002
 31
0.0
  0
LINE
  5
2BE
  8
SERVCLRDIM
  6
CONTINUOUS
 62
     1
 10
23.233322999999999
 20
41.1152210196
 30
0.0
 11
23.233322999999999
 21
54.164917184899998
 31
0.0
  0
LINE
  5
2BF
  8
UNIT-DIM
  6
CONTINUOUS
 62
     7
 10
23.233322999999999
 20
89.498857834899979
 30
0.0
 11
23.233322999999999
 21
112.7508925068
 31
0.0
  0
LINE
  5
2C0
  8
UNIT-DIM
  6
CONTINUOUS
 62
     7
 10
23.233322999999999
 20
135.6246059259
 30
0.0
 11
22.920822999999999
 21
133.74989149749999
 31
0.0
  0
LINE
  5
2C1
  8
NOTES
  6
CONTINUOUS
 62
     1
 10
0.0
 20
16.497486970099999
 30
0.0
 11
48.0
 21
16.497486970099999
 31
0.0
  0
LINE
  5
2C2
  8
NOTES
  6
CONTINUOUS
 62
     1
 10
0.0
 20
20.496877750700001
 30
0.0
 11
48.0
 21
20.496877750700001
 31
0.0
  0
LINE
  5
2C3
  8
SERVCLRDIM
  6
CONTINUOUS
 62
     1
 10
23.233322999999999
 20
40.8819165584
 30
0.0
 11
22.816655999999998
 21
43.3815357963
 31
0.0
  0
LINE
  5
2C4
  8
UNIT-DIM
  6
CONTINUOUS
 62
     7
 10
23.545822999999999
 20
90.749320354400012
 30
0.0
 11
23.233322999999999
 21
88.874605925899999
 31
0.0
  0
LINE
  5
2C5
  8
SERVCLRDIM
  6
CONTINUOUS
 62
     1
 10
23.233322999999999
 20
88.874605925899999
 30
0.0
 11
22.816655999999998
 21
86.374986687999993
 31
0.0
  0
LINE
  5
2C6
  8
CURB-24-DIM
  6
CONTINUOUS
 62
     6
 10
36.336294338499997
 20
135.63274471599999
 30
0.0
 11
36.7529613385
 21
138.13236395390001
 31
0.0
  0
LINE
  5
2C7
  8
CURB-14-DIM
  6
CONTINUOUS
 62
     6
 10
36.336294338499997
 20
135.6246059259
 30
0.0
 11
36.7529613385
 21
138.12422516379999
 31
0.0
  0
LINE
  5
2C8
  8
CURB-24-DIM
  6
CONTINUOUS
 62
     6
 10
36.336294338499997
 20
135.6246059259
 30
0.0
 11
36.7529613385
 21
138.12422516379999
 31
0.0
  0
LINE
  5
2C9
  8
CURB-24-DIM
  6
CONTINUOUS
 62
     6
 10
36.263984000000001
 20
132.5717346829
 30
0.0
 11
35.951484000000001
 21
130.69702025449999
 31
0.0
  0
LINE
  5
2CA
  8
CURB-14-DIM
  6
CONTINUOUS
 62
     6
 10
36.263984000000001
 20
132.56359589280001
 30
0.0
 11
35.951484000000001
 21
130.6888814644
 31
0.0
  0
LINE
  5
2CB
  8
CURB-24-DIM
  6
CONTINUOUS
 62
     6
 10
36.263984000000001
 20
132.56359589280001
 30
0.0
 11
35.951484000000001
 21
130.6888814644
 31
0.0
  0
LINE
  5
2CC
  8
NOTES
  6
CONTINUOUS
 62
     1
 10
0.0
 20
24.4962685313
 30
0.0
 11
48.0
 21
24.4962685313
 31
0.0
  0
LINE
  5
2CD
  8
NOTES
  6
CONTINUOUS
 62
     1
 10
0.0
 20
28.495659312000001
 30
0.0
 11
48.0
 21
28.495659312000001
 31
0.0
  0
LINE
  5
2CE
  8
SERVCLRDIM
  6
CONTINUOUS
 62
     1
 10
23.649989999999999
 20
86.374986687999993
 30
0.0
 11
23.233322999999999
 21
88.874605925899999
 31
0.0
  0
LINE
  5
2CF
  8
UNIT-DIM
  6
CONTINUOUS
 62
     7
 10
23.233322999999999
 20
88.874605925899999
 30
0.0
 11
22.920822999999999
 21
90.749320354400012
 31
0.0
  0
LINE
  5
2D0
  8
CURB-14-DIM
  6
CONTINUOUS
 62
     6
 10
36.263984000000001
 20
131.8849847736
 30
0.0
 11
36.263984000000001
 21
111.5466468729
 31
0.0
  0
LINE
  5
2D1
  8
CURB-24-DIM
  6
CONTINUOUS
 62
     6
 10
36.263984000000001
 20
131.8849847736
 30
0.0
 11
36.263984000000001
 21
111.5466468729
 31
0.0
  0
LINE
  5
2D2
  8
CURB-14-DIM
  6
CONTINUOUS
 62
     6
 10
36.263984000000001
 20
92.50598659180001
 30
0.0
 11
36.263984000000001
 21
105.29629097740001
 31
0.0
  0
LINE
  5
2D3
  8
CURB-24-DIM
  6
CONTINUOUS
 62
     6
 10
36.263984000000001
 20
92.50598659180001
 30
0.0
 11
36.263984000000001
 21
105.29629097740001
 31
0.0
  0
LINE
  5
2D4
  8
CURB-14-DIM
  6
CONTINUOUS
 62
     6
 10
36.336294338499997
 20
135.69524471599999
 30
0.0
 11
36.336294338499997
 21
141.19486395390001
 31
0.0
  0
LINE
  5
2D5
  8
CURB-24-DIM
  6
CONTINUOUS
 62
     6
 10
36.336294338499997
 20
135.69524471599999
 30
0.0
 11
36.336294338499997
 21
141.19486395390001
 31
0.0
  0
LINE
  5
2D6
  8
SERVCLRDIM
  6
CONTINUOUS
 62
     1
 10
23.649989999999999
 20
43.3815357963
 30
0.0
 11
23.233322999999999
 21
40.8819165584
 31
0.0
  0
LINE
  5
2D7
  8
CURB-14-DIM
  6
CONTINUOUS
 62
     6
 10
36.576484000000001
 20
93.756449111299986
 30
0.0
 11
36.263984000000001
 21
91.881734682900003
 31
0.0
  0
LINE
  5
2D8
  8
CURB-24-DIM
  6
CONTINUOUS
 62
     6
 10
36.576484000000001
 20
93.756449111299986
 30
0.0
 11
36.263984000000001
 21
91.881734682900003
 31
0.0
  0
LINE
  5
2D9
  8
NOTES
  6
CONTINUOUS
 62
     1
 10
0.0
 20
32.495050092600003
 30
0.0
 11
48.0
 21
32.495050092600003
 31
0.0
  0
LINE
  5
2DA
  8
NOTES
  6
CONTINUOUS
 62
     1
 10
0.0
 20
36.494440873199999
 30
0.0
 11
48.0
 21
36.494440873199999
 31
0.0
  0
LINE
  5
2DB
  8
UNIT-DIM
  6
CONTINUOUS
 62
     7
 10
23.545822999999999
 20
133.74989149749999
 30
0.0
 11
23.233322999999999
 21
135.6246059259
 31
0.0
  0
LINE
  5
2DC
  8
CURB-14-DIM
  6
CONTINUOUS
 62
     6
 10
36.263984000000001
 20
91.881734682900003
 30
0.0
 11
35.951484000000001
 21
93.756449111299986
 31
0.0
  0
LINE
  5
2DD
  8
CURB-24-DIM
  6
CONTINUOUS
 62
     6
 10
36.263984000000001
 20
91.881734682900003
 30
0.0
 11
35.951484000000001
 21
93.756449111299986
 31
0.0
  0
LINE
  5
2DE
  8
SERVCLEAR
  6
CENTER
 62
     1
 10
158.40287762899999
 20
40.8819165584
 30
0.0
 11
0.0
 21
40.8819165584
 31
0.0
  0
LINE
  5
2DF
  8
SERVCLRDIM
  6
CONTINUOUS
 62
     1
 10
22.816655999999998
 20
43.3815357963
 30
0.0
 11
23.649989999999999
 21
43.3815357963
 31
0.0
  0
LINE
  5
2E0
  8
CURB-14-DIM
  6
CONTINUOUS
 62
     6
 10
36.576484000000001
 20
130.6888814644
 30
0.0
 11
36.263984000000001
 21
132.56359589280001
 31
0.0
  0
LINE
  5
2E1
  8
CURB-24-DIM
  6
CONTINUOUS
 62
     6
 10
36.576484000000001
 20
130.6888814644
 30
0.0
 11
36.263984000000001
 21
132.56359589280001
 31
0.0
  0
LINE
  5
2E2
  8
CURB-24-DIM
  6
CONTINUOUS
 62
     6
 10
36.576484000000001
 20
130.69702025449999
 30
0.0
 11
36.263984000000001
 21
132.5717346829
 31
0.0
  0
LINE
  5
2E3
  8
CURB-14-DIM
  6
CONTINUOUS
 62
     6
 10
35.919628338499997
 20
138.12422516379999
 30
0.0
 11
36.336294338499997
 21
135.6246059259
 31
0.0
  0
LINE
  5
2E4
  8
CURB-24-DIM
  6
CONTINUOUS
 62
     6
 10
35.919628338499997
 20
138.12422516379999
 30
0.0
 11
36.336294338499997
 21
135.6246059259
 31
0.0
  0
LINE
  5
2E5
  8
CURB-24-DIM
  6
CONTINUOUS
 62
     6
 10
35.919628338499997
 20
138.13236395390001
 30
0.0
 11
36.336294338499997
 21
135.63274471599999
 31
0.0
  0
LINE
  5
2E6
  8
CURB-14-DIM
  6
CONTINUOUS
 62
     6
 10
45.499999999999993
 20
71.147796216199978
 30
0.0
 11
45.499999999999993
 21
70.314589136999984
 31
0.0
  0
LINE
  5
2E7
  8
CURB-24-DIM
  6
CONTINUOUS
 62
     6
 10
45.499999999999993
 20
71.147796216199978
 30
0.0
 11
45.499999999999993
 21
70.314589136999984
 31
0.0
  0
LINE
  5
2E8
  8
SERVCLRDIM
  6
CONTINUOUS
 62
     1
 10
46.124999999999993
 20
127.9540957215
 30
0.0
 11
46.124999999999993
 21
127.3291909121
 31
0.0
  0
POLYLINE
  5
2E9
  8
UNIT-SOL
  6
CONTINUOUS
 62
     7
 66
     1
 10
0.0
 20
0.0
 30
0.0
 40
0.1499999965
 41
0.1499999965
  0
VERTEX
  5
A7F
  8
UNIT-SOL
  6
CONTINUOUS
 62
     7
 10
48.0
 20
135.6246059259
 30
0.0
  0
VERTEX
  5
A80
  8
UNIT-SOL
  6
CONTINUOUS
 62
     7
 10
48.0
 20
88.874605925899999
 30
0.0
  0
SEQEND
  5
A81
  8
UNIT-SOL
  6
CONTINUOUS
 62
     7
  0
LINE
  5
2ED
  8
CURB-14-DIM
  6
CONTINUOUS
 62
     6
 10
48.0
 20
87.624796307000011
 30
0.0
 11
48.0
 21
69.481383057599999
 31
0.0
  0
LINE
  5
2EE
  8
CURB-24-DIM
  6
CONTINUOUS
 62
     6
 10
48.0
 20
87.624796307000011
 30
0.0
 11
48.0
 21
69.481383057599999
 31
0.0
  0
LINE
  5
2EF
  8
NOTES
  6
CONTINUOUS
 62
     1
 10
48.0
 20
0.0
 30
0.0
 11
48.0
 21
36.494440873199999
 31
0.0
  0
LINE
  5
2F0
  8
UNIT-DIM
  6
CONTINUOUS
 62
     7
 10
48.0
 20
136.87441554489999
 30
0.0
 11
48.0
 21
168.610045821
 31
0.0
  0
LINE
  5
2F1
  8
UNIT-DIM
  6
CONTINUOUS
 62
     7
 10
49.875
 20
167.67817158119999
 30
0.0
 11
49.875
 21
167.05326677170001
 31
0.0
  0
LINE
  5
2F2
  8
CURB-14
  6
CONTINUOUS
 62
     6
 10
51.0
 20
132.5717346829
 30
0.0
 11
51.0
 21
91.881734682900003
 31
0.0
  0
LINE
  5
2F3
  8
CURB-24
  6
CONTINUOUS
 62
     6
 10
51.0
 20
132.5717346829
 30
0.0
 11
51.0
 21
91.881734682900003
 31
0.0
  0
LINE
  5
2F4
  8
CURB-14-DIM
  6
CONTINUOUS
 62
     6
 10
51.0
 20
90.061925063899977
 30
0.0
 11
51.0
 21
69.481383057599999
 31
0.0
  0
LINE
  5
2F5
  8
CURB-24-DIM
  6
CONTINUOUS
 62
     6
 10
51.0
 20
90.061925063899977
 30
0.0
 11
51.0
 21
69.481383057599999
 31
0.0
  0
LINE
  5
2F6
  8
UNIT-SOL
  6
CONTINUOUS
 62
     7
 10
74.74280554729998
 20
123.5810563398
 30
0.0
 11
69.491814539499998
 21
120.5493952679
 31
0.0
  0
LINE
  5
2F7
  8
UNIT-SOL
  6
CONTINUOUS
 62
     7
 10
64.410555896199995
 20
117.6157292223
 30
0.0
 11
59.135302682199999
 21
114.5700603593
 31
0.0
  0
LINE
  5
2F8
  8
CURB-14
  6
CONTINUOUS
 62
     6
 10
52.75
 20
130.9159921968
 30
0.0
 11
52.75
 21
93.631449111299986
 31
0.0
  0
LINE
  5
2F9
  8
CURB-24
  6
CONTINUOUS
 62
     6
 10
52.75
 20
130.9159921968
 30
0.0
 11
52.75
 21
93.631449111299986
 31
0.0
  0
LINE
  5
2FA
  8
CURB-14-DIM
  6
CONTINUOUS
 62
     6
 10
52.875
 20
71.043645081299999
 30
0.0
 11
52.875
 21
70.418740271800004
 31
0.0
  0
LINE
  5
2FB
  8
CURB-24-DIM
  6
CONTINUOUS
 62
     6
 10
52.875
 20
71.043645081299999
 30
0.0
 11
52.875
 21
70.418740271800004
 31
0.0
  0
LINE
  5
2FC
  8
SERVCLRDIM
  6
CONTINUOUS
 62
     1
 10
155.89982124310001
 20
70.272294281900002
 30
0.0
 11
158.39982124310001
 21
70.688897488199999
 31
0.0
  0
LINE
  5
2FD
  8
SERVCLRDIM
  6
CONTINUOUS
 62
     1
 10
122.375
 20
70.688897488199999
 30
0.0
 11
124.875
 21
71.105500694499995
 31
0.0
  0
LINE
  5
2FE
  8
CURB-14-DIM
  6
CONTINUOUS
 62
     6
 10
120.0
 20
70.418740271800004
 30
0.0
 11
121.875
 21
70.731192676600003
 31
0.0
  0
LINE
  5
2FF
  8
CURB-24-DIM
  6
CONTINUOUS
 62
     6
 10
120.0
 20
70.418740271800004
 30
0.0
 11
121.875
 21
70.731192676600003
 31
0.0
  0
LINE
  5
300
  8
CURB-14-DIM
  6
CONTINUOUS
 62
     6
 10
48.0
 20
70.731192676600003
 30
0.0
 11
45.499999999999993
 21
71.147796216199978
 31
0.0
  0
LINE
  5
301
  8
CURB-24-DIM
  6
CONTINUOUS
 62
     6
 10
48.0
 20
70.731192676600003
 30
0.0
 11
45.499999999999993
 21
71.147796216199978
 31
0.0
  0
LINE
  5
302
  8
CURB-14-DIM
  6
CONTINUOUS
 62
     6
 10
52.875
 20
70.418740271800004
 30
0.0
 11
51.0
 21
70.731192676600003
 31
0.0
  0
LINE
  5
303
  8
CURB-24-DIM
  6
CONTINUOUS
 62
     6
 10
52.875
 20
70.418740271800004
 30
0.0
 11
51.0
 21
70.731192676600003
 31
0.0
  0
LINE
  5
304
  8
UNIT-SOL
  6
CONTINUOUS
 62
     7
 10
66.951185217800003
 20
116.1488961995
 30
0.0
 11
66.951185217800003
 21
110.05755847339999
 31
0.0
  0
LINE
  5
305
  8
UNIT-SOL
  6
CONTINUOUS
 62
     7
 10
66.951185217800003
 20
117.95756224509999
 30
0.0
 11
66.951185217800003
 21
120.20756224509999
 31
0.0
  0
LINE
  5
306
  8
UNIT-SOL
  6
CONTINUOUS
 62
     7
 10
66.951185217800003
 20
122.0162282906
 30
0.0
 11
66.951185217800003
 21
128.10756601680001
 31
0.0
  0
LINE
  5
307
  8
CURBDUCTDIM
  6
CONTINUOUS
 62
     5
 10
117.685
 20
76.742204031
 30
0.0
 11
119.56
 21
77.054656435699982
 31
0.0
  0
LINE
  5
308
  8
SERVCLRDIM
  6
CONTINUOUS
 62
     1
 10
155.89982124310001
 20
70.688897488199999
 30
0.0
 11
146.5882529719
 21
70.688897488199999
 31
0.0
  0
LINE
  5
309
  8
SERVCLRDIM
  6
CONTINUOUS
 62
     1
 10
124.875
 20
70.688897488199999
 30
0.0
 11
134.17158630520001
 21
70.688897488199999
 31
0.0
  0
LINE
  5
30A
  8
CURB-14-DIM
  6
CONTINUOUS
 62
     6
 10
120.0
 20
70.731192676600003
 30
0.0
 11
101.6228750579
 21
70.731192676600003
 31
0.0
  0
LINE
  5
30B
  8
CURB-24-DIM
  6
CONTINUOUS
 62
     6
 10
120.0
 20
70.731192676600003
 30
0.0
 11
101.6228750579
 21
70.731192676600003
 31
0.0
  0
LINE
  5
30C
  8
CURB-14-DIM
  6
CONTINUOUS
 62
     6
 10
48.0
 20
70.731192676600003
 30
0.0
 11
43.0
 21
70.731192676600003
 31
0.0
  0
LINE
  5
30D
  8
CURB-24-DIM
  6
CONTINUOUS
 62
     6
 10
48.0
 20
70.731192676600003
 30
0.0
 11
43.0
 21
70.731192676600003
 31
0.0
  0
LINE
  5
30E
  8
CURB-14-DIM
  6
CONTINUOUS
 62
     6
 10
51.0
 20
70.731192676600003
 30
0.0
 11
82.698986602100007
 21
70.731192676600003
 31
0.0
  0
LINE
  5
30F
  8
CURB-24-DIM
  6
CONTINUOUS
 62
     6
 10
51.0
 20
70.731192676600003
 30
0.0
 11
82.698986602100007
 21
70.731192676600003
 31
0.0
  0
LINE
  5
310
  8
UNIT-HID
  6
CONTINUOUS
 62
     9
 10
74.159029669899994
 20
101.5742795579
 30
0.0
 11
74.159029669899994
 21
98.574736472399991
 31
0.0
  0
LINE
  5
311
  8
UNIT-HID
  6
CONTINUOUS
 62
     9
 10
74.659029669899994
 20
101.5742795579
 30
0.0
 11
74.659029669899994
 21
98.574736472399991
 31
0.0
  0
LINE
  5
312
  8
UNIT-HID
  6
CONTINUOUS
 62
     9
 10
77.659029669899994
 20
101.5742795579
 30
0.0
 11
77.659029669899994
 21
98.574736472399991
 31
0.0
  0
LINE
  5
313
  8
UNIT-HID
  6
CONTINUOUS
 62
     9
 10
78.159029669899994
 20
101.5742795579
 30
0.0
 11
78.159029669899994
 21
98.574736472399991
 31
0.0
  0
LINE
  5
314
  8
CURBDUCTDIM
  6
CONTINUOUS
 62
     5
 10
105.56
 20
77.054656435699982
 30
0.0
 11
107.435
 21
77.367108840499981
 31
0.0
  0
LINE
  5
315
  8
CURB-14-DIM
  6
CONTINUOUS
 62
     6
 10
51.0
 20
70.731192676600003
 30
0.0
 11
52.875
 21
71.043645081299999
 31
0.0
  0
LINE
  5
316
  8
CURB-24-DIM
  6
CONTINUOUS
 62
     6
 10
51.0
 20
70.731192676600003
 30
0.0
 11
52.875
 21
71.043645081299999
 31
0.0
  0
LINE
  5
317
  8
CURB-14-DIM
  6
CONTINUOUS
 62
     6
 10
45.499999999999993
 20
70.314589136999984
 30
0.0
 11
48.0
 21
70.731192676600003
 31
0.0
  0
LINE
  5
318
  8
CURB-24-DIM
  6
CONTINUOUS
 62
     6
 10
45.499999999999993
 20
70.314589136999984
 30
0.0
 11
48.0
 21
70.731192676600003
 31
0.0
  0
LINE
  5
319
  8
UNTDUCTDIM
  6
CONTINUOUS
 62
     2
 10
119.0025
 20
84.860220429400002
 30
0.0
 11
120.8775
 21
85.1726728342
 31
0.0
  0
LINE
  5
31A
  8
CURBDUCTDIM
  6
CONTINUOUS
 62
     5
 10
119.56
 20
77.054656435699982
 30
0.0
 11
101.81
 21
77.054656435699982
 31
0.0
  0
LINE
  5
31B
  8
CURB-14-DIM
  6
CONTINUOUS
 62
     6
 10
121.875
 20
70.731192676600003
 30
0.0
 11
120.0
 21
71.043645081299999
 31
0.0
  0
LINE
  5
31C
  8
CURB-24-DIM
  6
CONTINUOUS
 62
     6
 10
121.875
 20
70.731192676600003
 30
0.0
 11
120.0
 21
71.043645081299999
 31
0.0
  0
LINE
  5
31D
  8
SERVCLRDIM
  6
CONTINUOUS
 62
     1
 10
124.875
 20
70.272294281900002
 30
0.0
 11
122.375
 21
70.688897488199999
 31
0.0
  0
LINE
  5
31E
  8
CURBDUCTDIM
  6
CONTINUOUS
 62
     5
 10
107.435
 20
76.742204031
 30
0.0
 11
105.56
 21
77.054656435699982
 31
0.0
  0
LINE
  5
31F
  8
CURB-14
  6
CONTINUOUS
 62
     6
 10
83.810000000000002
 20
130.75952025449999
 30
0.0
 11
83.810000000000002
 21
93.631449111299986
 31
0.0
  0
LINE
  5
320
  8
CURB-24
  6
CONTINUOUS
 62
     6
 10
83.810000000000002
 20
130.75952025449999
 30
0.0
 11
83.810000000000002
 21
93.631449111299986
 31
0.0
  0
POLYLINE
  5
321
  8
HOOD
  6
CONTINUOUS
 62
     7
 66
     1
 10
0.0
 20
0.0
 30
0.0
 40
0.1499999965
 41
0.1499999965
  0
VERTEX
  5
A82
  8
HOOD
  6
CONTINUOUS
 62
     7
 10
86.188169238399979
 20
151.6246059259
 30
0.0
  0
VERTEX
  5
A83
  8
HOOD
  6
CONTINUOUS
 62
     7
 10
86.188169238399979
 20
135.6246059259
 30
0.0
  0
SEQEND
  5
A84
  8
HOOD
  6
CONTINUOUS
 62
     7
  0
LINE
  5
325
  8
CURB-14
  6
CONTINUOUS
 62
     6
 10
86.810000000000002
 20
130.9159921968
 30
0.0
 11
86.810000000000002
 21
93.631449111299986
 31
0.0
  0
LINE
  5
326
  8
CURB-24
  6
CONTINUOUS
 62
     6
 10
86.810000000000002
 20
130.9159921968
 30
0.0
 11
86.810000000000002
 21
93.631449111299986
 31
0.0
  0
LINE
  5
327
  8
CURB-DUCT
  6
CONTINUOUS
 62
     5
 10
87.370000000000005
 20
117.0409921968
 30
0.0
 11
87.370000000000005
 21
130.9159921968
 31
0.0
  0
LINE
  5
328
  8
CURBDUCTDIM
  6
CONTINUOUS
 62
     5
 10
87.370000000000005
 20
131.47080181570001
 30
0.0
 11
87.370000000000005
 21
146.72370804069999
 31
0.0
  0
LINE
  5
329
  8
UNTDUCTDIM
  6
CONTINUOUS
 62
     2
 10
104.685
 20
84.547768024700005
 30
0.0
 11
106.56
 21
84.860220429400002
 31
0.0
  0
LINE
  5
32A
  8
CURBDUCTDIM
  6
CONTINUOUS
 62
     5
 10
144.338179
 20
83.875367450200002
 30
0.0
 11
146.838179
 21
83.875367450200002
 31
0.0
  0
LINE
  5
32B
  8
UNIT-SOL
  6
CONTINUOUS
 62
     7
 10
91.0
 20
84.062838893000006
 30
0.0
 11
92.937500000000014
 21
84.062838893000006
 31
0.0
  0
LINE
  5
32C
  8
UNTDUCTDIM
  6
CONTINUOUS
 62
     2
 10
106.56
 20
84.860220429400002
 30
0.0
 11
102.81
 21
84.860220429400002
 31
0.0
  0
LINE
  5
32D
  8
UNTDUCTDIM
  6
CONTINUOUS
 62
     2
 10
119.0025
 20
84.860220429400002
 30
0.0
 11
122.7525
 21
84.860220429400002
 31
0.0
  0
LINE
  5
32E
  8
SERVCLRDIM
  6
CONTINUOUS
 62
     1
 10
22.816655999999998
 20
86.374986687999993
 30
0.0
 11
23.649989999999999
 21
86.374986687999993
 31
0.0
  0
LINE
  5
32F
  8
CURBDUCTDIM
  6
CONTINUOUS
 62
     5
 10
143.92151200000001
 20
86.374986687999993
 30
0.0
 11
144.75484499999999
 21
86.374986687999993
 31
0.0
  0
LINE
  5
330
  8
CURBDUCTDIM
  6
CONTINUOUS
 62
     5
 10
119.56
 20
77.054656435699982
 30
0.0
 11
117.685
 21
77.367108840499981
 31
0.0
  0
LINE
  5
331
  8
SERVCLRDIM
  6
CONTINUOUS
 62
     1
 10
158.39982124310001
 20
70.688897488199999
 30
0.0
 11
155.89982124310001
 21
71.105500694499995
 31
0.0
  0
LINE
  5
332
  8
UNTDUCTDIM
  6
CONTINUOUS
 62
     2
 10
106.56
 20
84.860220429400002
 30
0.0
 11
104.685
 21
85.1726728342
 31
0.0
  0
LINE
  5
333
  8
CURBDUCTDIM
  6
CONTINUOUS
 62
     5
 10
89.245000000000005
 20
145.74212605880001
 30
0.0
 11
89.245000000000005
 21
145.1172212493
 31
0.0
  0
LINE
  5
334
  8
UNIT-SOL
  6
CONTINUOUS
 62
     7
 10
91.0
 20
88.874605925899999
 30
0.0
 11
91.0
 21
84.062838893000006
 31
0.0
  0
LINE
  5
335
  8
UNIT-SOL
  6
CONTINUOUS
 62
     7
 10
92.937500000000014
 20
84.062838893000006
 30
0.0
 11
92.937500000000014
 21
88.874605925899999
 31
0.0
  0
LINE
  5
336
  8
UNIT-DUCTS
  6
CONTINUOUS
 62
     2
 10
93.375
 20
117.0409921968
 30
0.0
 11
93.375
 21
127.9140693481
 31
0.0
  0
LINE
  5
337
  8
UNTDUCTDIM
  6
CONTINUOUS
 62
     2
 10
93.375
 20
129.1638789671
 30
0.0
 11
93.375
 21
142.61513544159999
 31
0.0
  0
LINE
  5
338
  8
UNTDUCTDIM
  6
CONTINUOUS
 62
     2
 10
95.25
 20
141.61527822740001
 30
0.0
 11
95.25
 21
140.99037341799999
 31
0.0
  0
LINE
  5
339
  8
CURB-14-DIM
  6
CONTINUOUS
 62
     6
 10
50.736875007800002
 20
88.874605925899999
 30
0.0
 11
35.013984000000001
 21
88.874605925899999
 31
0.0
  0
LINE
  5
33A
  8
CURB-24-DIM
  6
CONTINUOUS
 62
     6
 10
46.749999999999993
 20
88.874605925899999
 30
0.0
 11
35.013984000000001
 21
88.874605925899999
 31
0.0
  0
LINE
  5
33B
  8
UNIT-DIM
  6
CONTINUOUS
 62
     7
 10
46.749999999999993
 20
88.874605925899999
 30
0.0
 11
21.983322999999999
 21
88.874605925899999
 31
0.0
  0
POLYLINE
  5
33C
  8
UNIT-SOL
  6
CONTINUOUS
 62
     7
 66
     1
 10
0.0
 20
0.0
 30
0.0
 40
0.1499999965
 41
0.1499999965
  0
VERTEX
  5
A85
  8
UNIT-SOL
  6
CONTINUOUS
 62
     7
 10
48.0
 20
88.874605925899999
 30
0.0
  0
VERTEX
  5
A86
  8
UNIT-SOL
  6
CONTINUOUS
 62
     7
 10
122.375
 20
88.874605925899999
 30
0.0
  0
SEQEND
  5
A87
  8
UNIT-SOL
  6
CONTINUOUS
 62
     7
  0
LINE
  5
340
  8
CURBDUCTDIM
  6
CONTINUOUS
 62
     5
 10
123.6225
 20
88.874605925899999
 30
0.0
 11
145.588179
 21
88.874605925899999
 31
0.0
  0
LINE
  5
341
  8
UNIT-DIM
  6
CONTINUOUS
 62
     7
 10
22.920822999999999
 20
90.749320354400012
 30
0.0
 11
23.545822999999999
 21
90.749320354400012
 31
0.0
  0
LINE
  5
342
  8
CURB-14
  6
CONTINUOUS
 62
     6
 10
121.875
 20
91.881734682900003
 30
0.0
 11
51.0
 21
91.881734682900003
 31
0.0
  0
LINE
  5
343
  8
CURB-24
  6
CONTINUOUS
 62
     6
 10
121.875
 20
91.881734682900003
 30
0.0
 11
51.0
 21
91.881734682900003
 31
0.0
  0
LINE
  5
344
  8
CURB-14-DIM
  6
CONTINUOUS
 62
     6
 10
50.422935434999999
 20
91.881734682900003
 30
0.0
 11
35.013984000000001
 21
91.881734682900003
 31
0.0
  0
LINE
  5
345
  8
CURB-24-DIM
  6
CONTINUOUS
 62
     6
 10
50.736875007800002
 20
91.881734682900003
 30
0.0
 11
35.013984000000001
 21
91.881734682900003
 31
0.0
  0
LINE
  5
346
  8
UNIT-DUCTS
  6
CONTINUOUS
 62
     2
 10
119.0
 20
93.631449111299986
 30
0.0
 11
106.875
 21
93.631449111299986
 31
0.0
  0
LINE
  5
347
  8
CURB-14
  6
CONTINUOUS
 62
     6
 10
120.125
 20
93.631449111299986
 30
0.0
 11
52.75
 21
93.631449111299986
 31
0.0
  0
LINE
  5
348
  8
CURB-24
  6
CONTINUOUS
 62
     6
 10
120.125
 20
93.631449111299986
 30
0.0
 11
52.75
 21
93.631449111299986
 31
0.0
  0
LINE
  5
349
  8
CURB-DUCT
  6
CONTINUOUS
 62
     5
 10
105.56
 20
93.631449111299986
 30
0.0
 11
119.56
 21
93.631449111299986
 31
0.0
  0
LINE
  5
34A
  8
UNTDUCTDIM
  6
CONTINUOUS
 62
     2
 10
119.9375
 20
93.631449111299986
 30
0.0
 11
130.985039
 21
93.631449111299986
 31
0.0
  0
LINE
  5
34B
  8
CURBDUCTDIM
  6
CONTINUOUS
 62
     5
 10
120.81
 20
93.631449111299986
 30
0.0
 11
145.588179
 21
93.631449111299986
 31
0.0
  0
LINE
  5
34C
  8
CURB-14-DIM
  6
CONTINUOUS
 62
     6
 10
35.951484000000001
 20
93.756449111299986
 30
0.0
 11
36.576484000000001
 21
93.756449111299986
 31
0.0
  0
LINE
  5
34D
  8
CURB-24-DIM
  6
CONTINUOUS
 62
     6
 10
35.951484000000001
 20
93.756449111299986
 30
0.0
 11
36.576484000000001
 21
93.756449111299986
 31
0.0
  0
LINE
  5
34E
  8
UNTDUCTDIM
  6
CONTINUOUS
 62
     2
 10
129.422539
 20
95.506163539699983
 30
0.0
 11
130.047539
 21
95.506163539699983
 31
0.0
  0
LINE
  5
34F
  8
CURBDUCTDIM
  6
CONTINUOUS
 62
     5
 10
144.025679
 20
95.506163539699983
 30
0.0
 11
144.650679
 21
95.506163539699983
 31
0.0
  0
LINE
  5
350
  8
UNTDUCTDIM
  6
CONTINUOUS
 62
     2
 10
120.8775
 20
84.547768024700005
 30
0.0
 11
119.0025
 21
84.860220429400002
 31
0.0
  0
LINE
  5
351
  8
CURB-14
  6
CONTINUOUS
 62
     6
 10
102.0
 20
114.0414491113
 30
0.0
 11
102.0
 21
93.631449111299986
 31
0.0
  0
LINE
  5
352
  8
CURB-24
  6
CONTINUOUS
 62
     6
 10
102.0
 20
114.0414491113
 30
0.0
 11
102.0
 21
93.631449111299986
 31
0.0
  0
LINE
  5
353
  8
UNIT-DUCTS
  6
CONTINUOUS
 62
     2
 10
119.0
 20
111.377070347
 30
0.0
 11
106.875
 21
93.631449111299986
 31
0.0
  0
LINE
  5
354
  8
CURB-DUCT
  6
CONTINUOUS
 62
     5
 10
119.56
 20
114.0414491113
 30
0.0
 11
105.56
 21
93.631449111299986
 31
0.0
  0
LINE
  5
355
  8
UNTDUCTDIM
  6
CONTINUOUS
 62
     2
 10
104.685
 20
85.1726728342
 30
0.0
 11
104.685
 21
84.547768024700005
 31
0.0
  0
LINE
  5
356
  8
CURB-14
  6
CONTINUOUS
 62
     6
 10
105.0
 20
114.0414491113
 30
0.0
 11
105.0
 21
93.631449111299986
 31
0.0
  0
LINE
  5
357
  8
CURB-24
  6
CONTINUOUS
 62
     6
 10
105.0
 20
114.0414491113
 30
0.0
 11
105.0
 21
93.631449111299986
 31
0.0
  0
LINE
  5
358
  8
CURB-DUCT
  6
CONTINUOUS
 62
     5
 10
105.56
 20
114.0414491113
 30
0.0
 11
105.56
 21
93.631449111299986
 31
0.0
  0
LINE
  5
359
  8
CURBDUCTDIM
  6
CONTINUOUS
 62
     5
 10
105.56
 20
91.93663949229996
 30
0.0
 11
105.56
 21
85.627177600300001
 31
0.0
  0
LINE
  5
35A
  8
CURBDUCTDIM
  6
CONTINUOUS
 62
     5
 10
105.56
 20
84.093263258500016
 30
0.0
 11
105.56
 21
75.804846816800008
 31
0.0
  0
LINE
  5
35B
  8
UNTDUCTDIM
  6
CONTINUOUS
 62
     2
 10
106.56
 20
93.061468149399985
 30
0.0
 11
106.56
 21
83.610410810499999
 31
0.0
  0
LINE
  5
35C
  8
UNIT-DUCTS
  6
CONTINUOUS
 62
     2
 10
106.875
 20
93.631449111299986
 30
0.0
 11
106.875
 21
111.377070347
 31
0.0
  0
LINE
  5
35D
  8
CURBDUCTDIM
  6
CONTINUOUS
 62
     5
 10
107.435
 20
77.367108840499981
 30
0.0
 11
107.435
 21
76.742204031
 31
0.0
  0
LINE
  5
35E
  8
UNTDUCTDIM
  6
CONTINUOUS
 62
     2
 10
129.422539
 20
109.5023559186
 30
0.0
 11
130.047539
 21
109.5023559186
 31
0.0
  0
LINE
  5
35F
  8
UNIT-SOL
  6
CONTINUOUS
 62
     7
 10
64.410555896199995
 20
120.5493952679
 30
0.0
 11
59.135302682199999
 21
123.595064131
 31
0.0
  0
LINE
  5
360
  8
UNIT-SOL
  6
CONTINUOUS
 62
     7
 10
69.491814539499998
 20
117.6157292223
 30
0.0
 11
74.767067753299983
 21
114.5700603593
 31
0.0
  0
LINE
  5
361
  8
UNTDUCTDIM
  6
CONTINUOUS
 62
     2
 10
117.125
 20
141.61527822740001
 30
0.0
 11
117.125
 21
140.99037341799999
 31
0.0
  0
LINE
  5
362
  8
UNIT-DUCTS
  6
CONTINUOUS
 62
     2
 10
106.875
 20
111.377070347
 30
0.0
 11
119.0
 21
111.377070347
 31
0.0
  0
LINE
  5
363
  8
UNTDUCTDIM
  6
CONTINUOUS
 62
     2
 10
119.9375
 20
111.377070347
 30
0.0
 11
130.985039
 21
111.377070347
 31
0.0
  0
LINE
  5
364
  8
CURBDUCTDIM
  6
CONTINUOUS
 62
     5
 10
149.39604326099999
 20
111.5418298734
 30
0.0
 11
150.229377261
 21
111.5418298734
 31
0.0
  0
LINE
  5
365
  8
CURBDUCTDIM
  6
CONTINUOUS
 62
     5
 10
144.025679
 20
112.1667346829
 30
0.0
 11
144.650679
 21
112.1667346829
 31
0.0
  0
LINE
  5
366
  8
CURB-DUCT
  6
CONTINUOUS
 62
     5
 10
119.56
 20
114.0414491113
 30
0.0
 11
105.56
 21
114.0414491113
 31
0.0
  0
LINE
  5
367
  8
CURB-14
  6
CONTINUOUS
 62
     6
 10
120.125
 20
114.0414491113
 30
0.0
 11
86.810000000000002
 21
114.0414491113
 31
0.0
  0
LINE
  5
368
  8
CURB-24
  6
CONTINUOUS
 62
     6
 10
120.125
 20
114.0414491113
 30
0.0
 11
86.810000000000002
 21
114.0414491113
 31
0.0
  0
LINE
  5
369
  8
CURBDUCTDIM
  6
CONTINUOUS
 62
     5
 10
120.29195539120001
 20
114.0414491113
 30
0.0
 11
151.25687126099999
 21
114.0414491113
 31
0.0
  0
LINE
  5
36A
  8
UNIT-DUCTS
  6
CONTINUOUS
 62
     2
 10
119.0
 20
117.0409921968
 30
0.0
 11
93.375
 21
117.0409921968
 31
0.0
  0
LINE
  5
36B
  8
CURB-DUCT
  6
CONTINUOUS
 62
     5
 10
119.56
 20
117.0409921968
 30
0.0
 11
87.370000000000005
 21
117.0409921968
 31
0.0
  0
LINE
  5
36C
  8
CURB-14
  6
CONTINUOUS
 62
     6
 10
120.125
 20
117.0409921968
 30
0.0
 11
86.810000000000002
 21
117.0409921968
 31
0.0
  0
LINE
  5
36D
  8
CURB-24
  6
CONTINUOUS
 62
     6
 10
120.125
 20
117.0409921968
 30
0.0
 11
86.810000000000002
 21
117.0409921968
 31
0.0
  0
LINE
  5
36E
  8
UNTDUCTDIM
  6
CONTINUOUS
 62
     2
 10
119.9375
 20
117.0409921968
 30
0.0
 11
130.985039
 21
117.0409921968
 31
0.0
  0
LINE
  5
36F
  8
CURBDUCTDIM
  6
CONTINUOUS
 62
     5
 10
120.29195539120001
 20
117.0409921968
 30
0.0
 11
151.25687126099999
 21
117.0409921968
 31
0.0
  0
LINE
  5
370
  8
SERVCLRDIM
  6
CONTINUOUS
 62
     1
 10
1.875
 20
127.3291909121
 30
0.0
 11
0.0
 21
127.6416433168
 31
0.0
  0
LINE
  5
371
  8
CURB-DUCT
  6
CONTINUOUS
 62
     5
 10
105.56
 20
114.0414491113
 30
0.0
 11
119.56
 21
93.631449111299986
 31
0.0
  0
LINE
  5
372
  8
UNIT-DUCTS
  6
CONTINUOUS
 62
     2
 10
106.875
 20
111.377070347
 30
0.0
 11
119.0
 21
93.631449111299986
 31
0.0
  0
LINE
  5
373
  8
CURBDUCTDIM
  6
CONTINUOUS
 62
     5
 10
117.685
 20
145.74212605880001
 30
0.0
 11
117.685
 21
145.1172212493
 31
0.0
  0
LINE
  5
374
  8
CURBDUCTDIM
  6
CONTINUOUS
 62
     5
 10
117.685
 20
77.367108840499981
 30
0.0
 11
117.685
 21
76.742204031
 31
0.0
  0
LINE
  5
375
  8
UNIT-DUCTS
  6
CONTINUOUS
 62
     2
 10
119.0
 20
127.9140693481
 30
0.0
 11
119.0
 21
117.0409921968
 31
0.0
  0
LINE
  5
376
  8
UNIT-DUCTS
  6
CONTINUOUS
 62
     2
 10
119.0
 20
111.377070347
 30
0.0
 11
119.0
 21
93.631449111299986
 31
0.0
  0
LINE
  5
377
  8
UNTDUCTDIM
  6
CONTINUOUS
 62
     2
 10
119.0
 20
93.061468149399985
 30
0.0
 11
119.0
 21
83.610410810499999
 31
0.0
  0
LINE
  5
378
  8
UNTDUCTDIM
  6
CONTINUOUS
 62
     2
 10
119.0
 20
129.1638789671
 30
0.0
 11
119.0
 21
142.61513544159999
 31
0.0
  0
LINE
  5
379
  8
CURB-DUCT
  6
CONTINUOUS
 62
     5
 10
119.56
 20
130.9159921968
 30
0.0
 11
119.56
 21
117.0409921968
 31
0.0
  0
LINE
  5
37A
  8
CURBDUCTDIM
  6
CONTINUOUS
 62
     5
 10
119.56
 20
92.374072858999995
 30
0.0
 11
119.56
 21
85.418714355100008
 31
0.0
  0
LINE
  5
37B
  8
CURBDUCTDIM
  6
CONTINUOUS
 62
     5
 10
119.56
 20
84.301726503699982
 30
0.0
 11
119.56
 21
75.804846816800008
 31
0.0
  0
LINE
  5
37C
  8
CURB-DUCT
  6
CONTINUOUS
 62
     5
 10
119.56
 20
93.631449111299986
 30
0.0
 11
119.56
 21
114.0414491113
 31
0.0
  0
LINE
  5
37D
  8
CURBDUCTDIM
  6
CONTINUOUS
 62
     5
 10
119.56
 20
131.03336844910001
 30
0.0
 11
119.56
 21
146.72370804069999
 31
0.0
  0
POLYLINE
  5
37E
  8
HOOD
  6
CONTINUOUS
 62
     7
 66
     1
 10
0.0
 20
0.0
 30
0.0
 40
0.1499999965
 41
0.1499999965
  0
VERTEX
  5
A88
  8
HOOD
  6
CONTINUOUS
 62
     7
 10
119.56316923839999
 20
135.6246059259
 30
0.0
  0
VERTEX
  5
A89
  8
HOOD
  6
CONTINUOUS
 62
     7
 10
119.56316923839999
 20
151.6246059259
 30
0.0
  0
SEQEND
  5
A8A
  8
HOOD
  6
CONTINUOUS
 62
     7
  0
LINE
  5
382
  8
CURB-14-DIM
  6
CONTINUOUS
 62
     6
 10
120.0
 20
71.043645081299999
 30
0.0
 11
120.0
 21
70.418740271800004
 31
0.0
  0
LINE
  5
383
  8
CURB-24-DIM
  6
CONTINUOUS
 62
     6
 10
120.0
 20
71.043645081299999
 30
0.0
 11
120.0
 21
70.418740271800004
 31
0.0
  0
LINE
  5
384
  8
CURB-14
  6
CONTINUOUS
 62
     6
 10
120.125
 20
130.9159921968
 30
0.0
 11
120.125
 21
93.631449111299986
 31
0.0
  0
LINE
  5
385
  8
CURB-24
  6
CONTINUOUS
 62
     6
 10
120.125
 20
130.9159921968
 30
0.0
 11
120.125
 21
93.631449111299986
 31
0.0
  0
LINE
  5
386
  8
UNIT-DIM
  6
CONTINUOUS
 62
     7
 10
120.5
 20
167.67817158119999
 30
0.0
 11
120.5
 21
167.05326677170001
 31
0.0
  0
LINE
  5
387
  8
UNTDUCTDIM
  6
CONTINUOUS
 62
     2
 10
120.8775
 20
85.1726728342
 30
0.0
 11
120.8775
 21
84.547768024700005
 31
0.0
  0
LINE
  5
388
  8
UNTDUCTDIM
  6
CONTINUOUS
 62
     6
 10
121.3125
 20
90.061925063899977
 30
0.0
 11
121.3125
 21
85.41584013089998
 31
0.0
  0
LINE
  5
389
  8
UNTDUCTDIM
  6
CONTINUOUS
 62
     6
 10
121.3125
 20
84.321940410500005
 30
0.0
 11
121.3125
 21
69.481383057599999
 31
0.0
  0
LINE
  5
38A
  8
CURB-14
  6
CONTINUOUS
 62
     6
 10
121.875
 20
132.5717346829
 30
0.0
 11
121.875
 21
91.881734682900003
 31
0.0
  0
LINE
  5
38B
  8
CURB-24
  6
CONTINUOUS
 62
     6
 10
121.875
 20
132.5717346829
 30
0.0
 11
121.875
 21
91.881734682900003
 31
0.0
  0
LINE
  5
38C
  8
CURBDUCTDIM
  6
CONTINUOUS
 62
     5
 10
122.3725
 20
138.5428985046
 30
0.0
 11
122.3725
 21
152.23965110509999
 31
0.0
  0
LINE
  5
38D
  8
UNTDUCTDIM
  6
CONTINUOUS
 62
     1
 10
122.375
 20
87.498695643799991
 30
0.0
 11
122.375
 21
85.213038136999984
 31
0.0
  0
LINE
  5
38E
  8
UNTDUCTDIM
  6
CONTINUOUS
 62
     1
 10
122.375
 20
84.119138416599995
 30
0.0
 11
122.375
 21
69.286009687200007
 31
0.0
  0
POLYLINE
  5
38F
  8
UNIT-SOL
  6
CONTINUOUS
 62
     7
 66
     1
 10
0.0
 20
0.0
 30
0.0
 40
0.1499999965
 41
0.1499999965
  0
VERTEX
  5
A8B
  8
UNIT-SOL
  6
CONTINUOUS
 62
     7
 10
122.375
 20
88.874605925899999
 30
0.0
  0
VERTEX
  5
A8C
  8
UNIT-SOL
  6
CONTINUOUS
 62
     7
 10
122.375
 20
135.6246059259
 30
0.0
  0
SEQEND
  5
A8D
  8
UNIT-SOL
  6
CONTINUOUS
 62
     7
  0
LINE
  5
393
  8
UNIT-DIM
  6
CONTINUOUS
 62
     7
 10
122.375
 20
136.87441554489999
 30
0.0
 11
122.375
 21
168.610045821
 31
0.0
  0
LINE
  5
394
  8
UNTDUCTDIM
  6
CONTINUOUS
 62
     2
 10
129.735039
 20
127.9140693481
 30
0.0
 11
129.422539
 21
126.0393549197
 31
0.0
  0
LINE
  5
395
  8
UNTDUCTDIM
  6
CONTINUOUS
 62
     2
 10
130.047539
 20
118.9157066252
 30
0.0
 11
129.735039
 21
117.0409921968
 31
0.0
  0
LINE
  5
396
  8
UNIT-SOL
  6
CONTINUOUS
 62
     7
 10
68.028171509399996
 20
119.21345801939999
 30
0.0
 11
65.99227079149999
 21
119.20236074589999
 31
0.0
  0
LINE
  5
397
  8
UNTDUCTDIM
  6
CONTINUOUS
 62
     2
 10
129.422539
 20
118.9157066252
 30
0.0
 11
130.047539
 21
118.9157066252
 31
0.0
  0
LINE
  5
398
  8
CURBDUCTDIM
  6
CONTINUOUS
 62
     5
 10
144.025679
 20
118.9157066252
 30
0.0
 11
144.650679
 21
118.9157066252
 31
0.0
  0
LINE
  5
399
  8
CURBDUCTDIM
  6
CONTINUOUS
 62
     5
 10
149.39604326099999
 20
119.5406114347
 30
0.0
 11
150.229377261
 21
119.5406114347
 31
0.0
  0
LINE
  5
39A
  8
CURBDUCTDIM
  6
CONTINUOUS
 62
     5
 10
149.81271026100001
 20
121.5406114347
 30
0.0
 11
151.26810059350001
 21
121.5406114347
 31
0.0
  0
LINE
  5
39B
  8
SERVCLRDIM
  6
CONTINUOUS
 62
     1
 10
48.0
 20
127.6416433168
 30
0.0
 11
46.124999999999993
 21
127.9540957215
 31
0.0
  0
LINE
  5
39C
  8
CURBDUCTDIM
  6
CONTINUOUS
 62
     5
 10
124.8725
 20
145.84627719369999
 30
0.0
 11
124.8725
 21
145.0130711143
 31
0.0
  0
LINE
  5
39D
  8
SERVCLRDIM
  6
CONTINUOUS
 62
     1
 10
124.875
 20
71.105500694499995
 30
0.0
 11
124.875
 21
70.272294281900002
 31
0.0
  0
LINE
  5
39E
  8
UNTDUCTDIM
  6
CONTINUOUS
 62
     2
 10
129.735039
 20
127.80073661190001
 30
0.0
 11
129.735039
 21
126.1882438138
 31
0.0
  0
LINE
  5
39F
  8
UNTDUCTDIM
  6
CONTINUOUS
 62
     2
 10
129.735039
 20
94.566760637099932
 30
0.0
 11
129.735039
 21
98.578597097099987
 31
0.0
  0
LINE
  5
3A0
  8
UNTDUCTDIM
  6
CONTINUOUS
 62
     2
 10
129.735039
 20
105.541956165
 30
0.0
 11
129.735039
 21
111.377070347
 31
0.0
  0
LINE
  5
3A1
  8
UNTDUCTDIM
  6
CONTINUOUS
 62
     2
 10
129.735039
 20
117.97630372259999
 30
0.0
 11
129.735039
 21
119.7380313621
 31
0.0
  0
LINE
  5
3A2
  8
UNTDUCTDIM
  6
CONTINUOUS
 62
     2
 10
129.735039
 20
111.377070347
 30
0.0
 11
129.422539
 21
109.5023559186
 31
0.0
  0
LINE
  5
3A3
  8
UNTDUCTDIM
  6
CONTINUOUS
 62
     2
 10
130.047539
 20
95.506163539699983
 30
0.0
 11
129.735039
 21
93.631449111299986
 31
0.0
  0
LINE
  5
3A4
  8
UNTDUCTDIM
  6
CONTINUOUS
 62
     2
 10
129.422539
 20
126.0393549197
 30
0.0
 11
130.047539
 21
126.0393549197
 31
0.0
  0
LINE
  5
3A5
  8
SERVCLRDIM
  6
CONTINUOUS
 62
     1
 10
46.124999999999993
 20
127.7041433168
 30
0.0
 11
32.270833000000003
 21
127.7041433168
 31
0.0
  0
LINE
  5
3A6
  8
SERVCLRDIM
  6
CONTINUOUS
 62
     1
 10
0.0
 20
127.7041433168
 30
0.0
 11
27.729167
 21
127.7041433168
 31
0.0
  0
LINE
  5
3A7
  8
UNIT-DUCTS
  6
CONTINUOUS
 62
     2
 10
93.375
 20
127.9140693481
 30
0.0
 11
119.0
 21
127.9140693481
 31
0.0
  0
LINE
  5
3A8
  8
UNTDUCTDIM
  6
CONTINUOUS
 62
     2
 10
119.9375
 20
127.9140693481
 30
0.0
 11
130.985039
 21
127.9140693481
 31
0.0
  0
LINE
  5
3A9
  8
CURBDUCTDIM
  6
CONTINUOUS
 62
     5
 10
144.025679
 20
129.04127776830001
 30
0.0
 11
144.650679
 21
129.04127776830001
 31
0.0
  0
LINE
  5
3AA
  8
CURB-14-DIM
  6
CONTINUOUS
 62
     6
 10
35.951484000000001
 20
130.6888814644
 30
0.0
 11
36.576484000000001
 21
130.6888814644
 31
0.0
  0
LINE
  5
3AB
  8
CURB-24-DIM
  6
CONTINUOUS
 62
     6
 10
35.951484000000001
 20
130.6888814644
 30
0.0
 11
36.576484000000001
 21
130.6888814644
 31
0.0
  0
LINE
  5
3AC
  8
CURB-24-DIM
  6
CONTINUOUS
 62
     6
 10
35.951484000000001
 20
130.69702025449999
 30
0.0
 11
36.576484000000001
 21
130.69702025449999
 31
0.0
  0
LINE
  5
3AD
  8
CURB-14
  6
CONTINUOUS
 62
     6
 10
52.75
 20
130.9159921968
 30
0.0
 11
120.125
 21
130.9159921968
 31
0.0
  0
LINE
  5
3AE
  8
CURB-24
  6
CONTINUOUS
 62
     6
 10
52.75
 20
130.9159921968
 30
0.0
 11
120.125
 21
130.9159921968
 31
0.0
  0
LINE
  5
3AF
  8
CURB-DUCT
  6
CONTINUOUS
 62
     5
 10
87.370000000000005
 20
130.9159921968
 30
0.0
 11
119.56
 21
130.9159921968
 31
0.0
  0
LINE
  5
3B0
  8
CURBDUCTDIM
  6
CONTINUOUS
 62
     5
 10
120.81
 20
130.9159921968
 30
0.0
 11
145.6942538541
 21
130.9159921968
 31
0.0
  0
LINE
  5
3B1
  8
UNIT-DUCTS
  6
CONTINUOUS
 62
     2
 10
93.375
 20
127.9140693481
 30
0.0
 11
119.0
 21
117.0409921968
 31
0.0
  0
LINE
  5
3B2
  8
CURB-DUCT
  6
CONTINUOUS
 62
     5
 10
87.370000000000005
 20
130.9159921968
 30
0.0
 11
119.56
 21
117.0409921968
 31
0.0
  0
LINE
  5
3B3
  8
UNTDUCTDIM
  6
CONTINUOUS
 62
     2
 10
129.735039
 20
93.631449111299986
 30
0.0
 11
129.422539
 21
95.506163539699983
 31
0.0
  0
LINE
  5
3B4
  8
SERVCLRDIM
  6
CONTINUOUS
 62
     1
 10
143.2377767653
 20
137.4993203544
 30
0.0
 11
142.9252767653
 21
135.6246059259
 31
0.0
  0
LINE
  5
3B5
  8
CURBDUCTDIM
  6
CONTINUOUS
 62
     5
 10
144.338179
 20
130.9159921968
 30
0.0
 11
144.025679
 21
129.04127776830001
 31
0.0
  0
LINE
  5
3B6
  8
CURBDUCTDIM
  6
CONTINUOUS
 62
     5
 10
144.650679
 20
118.9157066252
 30
0.0
 11
144.338179
 21
117.0409921968
 31
0.0
  0
LINE
  5
3B7
  8
SERVCLRDIM
  6
CONTINUOUS
 62
     1
 10
46.124999999999993
 20
127.3291909121
 30
0.0
 11
48.0
 21
127.6416433168
 31
0.0
  0
LINE
  5
3B8
  8
UNTDUCTDIM
  6
CONTINUOUS
 62
     2
 10
117.125
 20
140.99037341799999
 30
0.0
 11
119.0
 21
141.30282582269999
 31
0.0
  0
LINE
  5
3B9
  8
CURBDUCTDIM
  6
CONTINUOUS
 62
     5
 10
122.3725
 20
145.42967365409999
 30
0.0
 11
124.8725
 21
145.84627719369999
 31
0.0
  0
LINE
  5
3BA
  8
CURB-14
  6
CONTINUOUS
 62
     6
 10
121.875
 20
132.5717346829
 30
0.0
 11
51.0
 21
132.5717346829
 31
0.0
  0
LINE
  5
3BB
  8
CURB-24
  6
CONTINUOUS
 62
     6
 10
121.875
 20
132.5717346829
 30
0.0
 11
51.0
 21
132.5717346829
 31
0.0
  0
LINE
  5
3BC
  8
CURB-14-DIM
  6
CONTINUOUS
 62
     6
 10
50.422935434999999
 20
132.5717346829
 30
0.0
 11
35.013984000000001
 21
132.5717346829
 31
0.0
  0
LINE
  5
3BD
  8
CURB-24-DIM
  6
CONTINUOUS
 62
     6
 10
50.736875007800002
 20
132.5717346829
 30
0.0
 11
35.013984000000001
 21
132.5717346829
 31
0.0
  0
LINE
  5
3BE
  8
UNIT-DIM
  6
CONTINUOUS
 62
     7
 10
22.920822999999999
 20
133.74989149749999
 30
0.0
 11
23.545822999999999
 21
133.74989149749999
 31
0.0
  0
POLYLINE
  5
3BF
  8
UNIT-SOL
  6
CONTINUOUS
 62
     7
 66
     1
 10
0.0
 20
0.0
 30
0.0
 40
0.1499999965
 41
0.1499999965
  0
VERTEX
  5
A8E
  8
UNIT-SOL
  6
CONTINUOUS
 62
     7
 10
122.375
 20
135.6246059259
 30
0.0
  0
VERTEX
  5
A8F
  8
UNIT-SOL
  6
CONTINUOUS
 62
     7
 10
48.0
 20
135.6246059259
 30
0.0
  0
SEQEND
  5
A90
  8
UNIT-SOL
  6
CONTINUOUS
 62
     7
  0
LINE
  5
3C3
  8
UNIT-DIM
  6
CONTINUOUS
 62
     7
 10
46.749999999999993
 20
135.6246059259
 30
0.0
 11
21.983322999999999
 21
135.6246059259
 31
0.0
  0
LINE
  5
3C4
  8
SERVCLRDIM
  6
CONTINUOUS
 62
     1
 10
142.6127767653
 20
137.4993203544
 30
0.0
 11
143.2377767653
 21
137.4993203544
 31
0.0
  0
LINE
  5
3C5
  8
CURB-14-DIM
  6
CONTINUOUS
 62
     6
 10
36.7529613385
 20
138.12422516379999
 30
0.0
 11
35.919628338499997
 21
138.12422516379999
 31
0.0
  0
LINE
  5
3C6
  8
CURB-24-DIM
  6
CONTINUOUS
 62
     6
 10
36.7529613385
 20
138.12422516379999
 30
0.0
 11
35.919628338499997
 21
138.12422516379999
 31
0.0
  0
LINE
  5
3C7
  8
CURB-24-DIM
  6
CONTINUOUS
 62
     6
 10
36.7529613385
 20
138.13236395390001
 30
0.0
 11
35.919628338499997
 21
138.13236395390001
 31
0.0
  0
LINE
  5
3C8
  8
UNTDUCTDIM
  6
CONTINUOUS
 62
     2
 10
130.047539
 20
109.5023559186
 30
0.0
 11
129.735039
 21
111.377070347
 31
0.0
  0
LINE
  5
3C9
  8
UNTDUCTDIM
  6
CONTINUOUS
 62
     2
 10
129.735039
 20
117.0409921968
 30
0.0
 11
129.422539
 21
118.9157066252
 31
0.0
  0
LINE
  5
3CA
  8
UNTDUCTDIM
  6
CONTINUOUS
 62
     2
 10
130.047539
 20
126.0393549197
 30
0.0
 11
129.735039
 21
127.9140693481
 31
0.0
  0
LINE
  5
3CB
  8
SERVCLRDIM
  6
CONTINUOUS
 62
     1
 10
142.9252767653
 20
135.6246059259
 30
0.0
 11
142.9252767653
 21
154.0393135894
 31
0.0
  0
LINE
  5
3CC
  8
SERVCLRDIM
  6
CONTINUOUS
 62
     1
 10
142.9252767653
 20
160.53220852909999
 30
0.0
 11
142.9252767653
 21
171.6246059259
 31
0.0
  0
LINE
  5
3CD
  8
CURBDUCTDIM
  6
CONTINUOUS
 62
     5
 10
144.338179
 20
113.928116375
 30
0.0
 11
144.338179
 21
107.048543327
 31
0.0
  0
LINE
  5
3CE
  8
CURBDUCTDIM
  6
CONTINUOUS
 62
     5
 10
144.338179
 20
86.374986687999993
 30
0.0
 11
144.338179
 21
83.875367450200002
 31
0.0
  0
LINE
  5
3CF
  8
CURBDUCTDIM
  6
CONTINUOUS
 62
     5
 10
144.338179
 20
94.566760637099932
 30
0.0
 11
144.338179
 21
100.0358975086
 31
0.0
  0
LINE
  5
3D0
  8
CURBDUCTDIM
  6
CONTINUOUS
 62
     5
 10
144.338179
 20
117.0409921968
 30
0.0
 11
144.338179
 21
122.29947418250001
 31
0.0
  0
LINE
  5
3D1
  8
CURBDUCTDIM
  6
CONTINUOUS
 62
     5
 10
144.338179
 20
114.0414491113
 30
0.0
 11
144.025679
 21
112.1667346829
 31
0.0
  0
LINE
  5
3D2
  8
CURBDUCTDIM
  6
CONTINUOUS
 62
     5
 10
144.650679
 20
95.506163539699983
 30
0.0
 11
144.338179
 21
93.631449111299986
 31
0.0
  0
LINE
  5
3D3
  8
CURBDUCTDIM
  6
CONTINUOUS
 62
     5
 10
144.338179
 20
88.874605925899999
 30
0.0
 11
143.92151200000001
 21
86.374986687999993
 31
0.0
  0
LINE
  5
3D4
  8
CURBDUCTDIM
  6
CONTINUOUS
 62
     5
 10
150.229377261
 20
119.5406114347
 30
0.0
 11
149.81271026100001
 21
117.0409921968
 31
0.0
  0
LINE
  5
3D5
  8
CURBDUCTDIM
  6
CONTINUOUS
 62
     5
 10
149.81271026100001
 20
114.0414491113
 30
0.0
 11
149.39604326099999
 21
111.5418298734
 31
0.0
  0
LINE
  5
3D6
  8
CURBDUCTDIM
  6
CONTINUOUS
 62
     5
 10
117.685
 20
145.1172212493
 30
0.0
 11
119.56
 21
145.42967365409999
 31
0.0
  0
LINE
  5
3D7
  8
UNTDUCTDIM
  6
CONTINUOUS
 62
     2
 10
93.375
 20
141.30282582269999
 30
0.0
 11
95.25
 21
141.61527822740001
 31
0.0
  0
LINE
  5
3D8
  8
SERVCLRDIM
  6
CONTINUOUS
 62
     1
 10
0.0
 20
127.6416433168
 30
0.0
 11
1.875
 21
127.9540957215
 31
0.0
  0
LINE
  5
3D9
  8
CURBDUCTDIM
  6
CONTINUOUS
 62
     5
 10
87.370000000000005
 20
145.42967365409999
 30
0.0
 11
89.245000000000005
 21
145.74212605880001
 31
0.0
  0
LINE
  5
3DA
  8
CURB-14-DIM
  6
CONTINUOUS
 62
     6
 10
36.336294338499997
 20
141.19486395390001
 30
0.0
 11
33.836294338499997
 21
141.19486395390001
 31
0.0
  0
LINE
  5
3DB
  8
CURB-24-DIM
  6
CONTINUOUS
 62
     6
 10
36.336294338499997
 20
141.19486395390001
 30
0.0
 11
33.836294338499997
 21
141.19486395390001
 31
0.0
  0
LINE
  5
3DC
  8
UNTDUCTDIM
  6
CONTINUOUS
 62
     2
 10
117.125
 20
141.30282582269999
 30
0.0
 11
111.07700064150001
 21
141.30282582269999
 31
0.0
  0
LINE
  5
3DD
  8
UNTDUCTDIM
  6
CONTINUOUS
 62
     2
 10
101.6703576901
 20
141.30282582269999
 30
0.0
 11
93.375
 21
141.30282582269999
 31
0.0
  0
LINE
  5
3DE
  8
CURBDUCTDIM
  6
CONTINUOUS
 62
     5
 10
119.56
 20
145.42967365409999
 30
0.0
 11
107.85166700000001
 21
145.42967365409999
 31
0.0
  0
LINE
  5
3DF
  8
CURBDUCTDIM
  6
CONTINUOUS
 62
     5
 10
87.370000000000005
 20
145.42967365409999
 30
0.0
 11
91.643332999999998
 21
145.42967365409999
 31
0.0
  0
LINE
  5
3E0
  8
UNTDUCTDIM
  6
CONTINUOUS
 62
     2
 10
95.25
 20
140.99037341799999
 30
0.0
 11
93.375
 21
141.30282582269999
 31
0.0
  0
LINE
  5
3E1
  8
CURBDUCTDIM
  6
CONTINUOUS
 62
     5
 10
89.245000000000005
 20
145.1172212493
 30
0.0
 11
87.370000000000005
 21
145.42967365409999
 31
0.0
  0
LINE
  5
3E2
  8
UNTDUCTDIM
  6
CONTINUOUS
 62
     2
 10
119.0
 20
141.30282582269999
 30
0.0
 11
117.125
 21
141.61527822740001
 31
0.0
  0
LINE
  5
3E3
  8
CURBDUCTDIM
  6
CONTINUOUS
 62
     5
 10
144.75484499999999
 20
86.374986687999993
 30
0.0
 11
144.338179
 21
88.874605925899999
 31
0.0
  0
LINE
  5
3E4
  8
CURBDUCTDIM
  6
CONTINUOUS
 62
     5
 10
144.338179
 20
93.631449111299986
 30
0.0
 11
144.025679
 21
95.506163539699983
 31
0.0
  0
LINE
  5
3E5
  8
CURBDUCTDIM
  6
CONTINUOUS
 62
     5
 10
149.81271026100001
 20
114.0414491113
 30
0.0
 11
149.81271026100001
 21
109.5418298734
 31
0.0
  0
LINE
  5
3E6
  8
CURBDUCTDIM
  6
CONTINUOUS
 62
     5
 10
149.81271026100001
 20
117.0409921968
 30
0.0
 11
149.81271026100001
 21
121.5406114347
 31
0.0
  0
POLYLINE
  5
3E7
  8
0
  6
CONTINUOUS
 62
     7
 66
     1
 10
0.0
 20
0.0
 30
0.0
 40
0.1499999965
 41
0.1499999965
  0
VERTEX
  5
A91
  8
0
  6
CONTINUOUS
 62
     7
 10
119.56316923839999
 20
150.7004070699
 30
0.0
  0
VERTEX
  5
A92
  8
0
  6
CONTINUOUS
 62
     7
 10
86.188169238399979
 20
150.7004070699
 30
0.0
  0
SEQEND
  5
A93
  8
0
  6
CONTINUOUS
 62
     7
  0
POLYLINE
  5
3EB
  8
HOOD
  6
CONTINUOUS
 62
     7
 66
     1
 10
0.0
 20
0.0
 30
0.0
 40
0.1499999965
 41
0.1499999965
  0
VERTEX
  5
A94
  8
HOOD
  6
CONTINUOUS
 62
     7
 10
119.56316923839999
 20
151.6246059259
 30
0.0
  0
VERTEX
  5
A95
  8
HOOD
  6
CONTINUOUS
 62
     7
 10
86.188169238399979
 20
151.6246059259
 30
0.0
  0
SEQEND
  5
A96
  8
HOOD
  6
CONTINUOUS
 62
     7
  0
LINE
  5
3EF
  8
CURBDUCTDIM
  6
CONTINUOUS
 62
     5
 10
119.56
 20
145.42967365409999
 30
0.0
 11
117.685
 21
145.74212605880001
 31
0.0
  0
LINE
  5
3F0
  8
CURBDUCTDIM
  6
CONTINUOUS
 62
     5
 10
124.8725
 20
145.0130711143
 30
0.0
 11
122.3725
 21
145.42967365409999
 31
0.0
  0
LINE
  5
3F1
  8
CURBDUCTDIM
  6
CONTINUOUS
 62
     5
 10
144.650679
 20
112.1667346829
 30
0.0
 11
144.338179
 21
114.0414491113
 31
0.0
  0
LINE
  5
3F2
  8
CURBDUCTDIM
  6
CONTINUOUS
 62
     5
 10
144.338179
 20
117.0409921968
 30
0.0
 11
144.025679
 21
118.9157066252
 31
0.0
  0
LINE
  5
3F3
  8
SERVCLRDIM
  6
CONTINUOUS
 62
     1
 10
142.9252767653
 20
135.6246059259
 30
0.0
 11
142.6127767653
 21
137.4993203544
 31
0.0
  0
LINE
  5
3F4
  8
CURBDUCTDIM
  6
CONTINUOUS
 62
     5
 10
144.650679
 20
129.04127776830001
 30
0.0
 11
144.338179
 21
130.9159921968
 31
0.0
  0
LINE
  5
3F5
  8
CURBDUCTDIM
  6
CONTINUOUS
 62
     5
 10
150.229377261
 20
111.5418298734
 30
0.0
 11
149.81271026100001
 21
114.0414491113
 31
0.0
  0
LINE
  5
3F6
  8
SERVCLEAR
  6
CENTER
 62
     1
 10
158.40287762899999
 20
40.8819165584
 30
0.0
 11
158.3444796204999
 21
171.6246059259
 31
0.0
  0
LINE
  5
3F7
  8
SERVCLRDIM
  6
CONTINUOUS
 62
     1
 10
155.89982124310001
 20
71.105500694499995
 30
0.0
 11
155.89982124310001
 21
70.272294281900002
 31
0.0
  0
LINE
  5
3F8
  8
UNIT-DIM
  6
CONTINUOUS
 62
     7
 10
120.5
 20
167.05326677170001
 30
0.0
 11
122.375
 21
167.36571917640001
 31
0.0
  0
LINE
  5
3F9
  8
UNIT-DIM
  6
CONTINUOUS
 62
     7
 10
49.875
 20
167.05326677170001
 30
0.0
 11
48.0
 21
167.36571917640001
 31
0.0
  0
LINE
  5
3FA
  8
CURBDUCTDIM
  6
CONTINUOUS
 62
     5
 10
149.81271026100001
 20
117.0409921968
 30
0.0
 11
149.39604326099999
 21
119.5406114347
 31
0.0
  0
LINE
  5
3FB
  8
UNIT-DIM
  6
CONTINUOUS
 62
     7
 10
122.375
 20
167.36571917640001
 30
0.0
 11
87.745734831600004
 21
167.36571917640001
 31
0.0
  0
LINE
  5
3FC
  8
UNIT-DIM
  6
CONTINUOUS
 62
     7
 10
48.0
 20
167.36571917640001
 30
0.0
 11
70.458021703100002
 21
167.36571917640001
 31
0.0
  0
LINE
  5
3FD
  8
0
  6
CONTINUOUS
 62
     7
 10
175.0
 20
0.0
 30
0.0
 11
175.0
 21
175.0
 31
0.0
  0
LINE
  5
3FE
  8
UNIT-DIM
  6
CONTINUOUS
 62
     7
 10
48.0
 20
167.36571917640001
 30
0.0
 11
49.875
 21
167.67817158119999
 31
0.0
  0
LINE
  5
3FF
  8
SERVCLEAR
  6
CENTER
 62
     1
 10
158.3444796204999
 20
171.6246059259
 30
0.0
 11
0.0
 21
171.6246059259
 31
0.0
  0
LINE
  5
400
  8
0
  6
CONTINUOUS
 62
     7
 10
0.0
 20
175.0
 30
0.0
 11
175.0
 21
175.0
 31
0.0
  0
LINE
  5
401
  8
UNIT-DIM
  6
CONTINUOUS
 62
     7
 10
122.375
 20
167.36571917640001
 30
0.0
 11
120.5
 21
167.67817158119999
 31
0.0
  0
CIRCLE
  5
402
  8
UNIT-SOL
  6
CONTINUOUS
 62
     7
 10
66.951185217800003
 20
119.08256224509999
 30
0.0
 40
9.0250037716999998
  0
CIRCLE
  5
403
  8
UNIT-SOL
  6
CONTINUOUS
 62
     7
 10
66.951185217800003
 20
119.08256224509999
 30
0.0
 40
6.7807506175999981
  0
CIRCLE
  5
404
  8
UNIT-SOL
  6
CONTINUOUS
 62
     7
 10
66.951185217800003
 20
119.08256224509999
 30
0.0
 40
4.8344807751000003
  0
CIRCLE
  5
405
  8
UNIT-SOL
  6
CONTINUOUS
 62
     7
 10
66.951185217800003
 20
119.08256224509999
 30
0.0
 40
2.9336660454999981
  0
ARC
  5
406
  8
UNIT-HID
  6
CONTINUOUS
 62
     9
 10
76.159029669899994
 20
98.575041105300016
 30
0.0
 40
2.0000000232000001
 50
180.00872708930001
 51
359.99127291069999
  0
ARC
  5
407
  8
UNIT-HID
  6
CONTINUOUS
 62
     9
 10
76.159029669899994
 20
101.573974925
 30
0.0
 40
2.0000000232000001
 50
0.0087270893
 51
179.99127291069999
  0
ARC
  5
408
  8
UNIT-HID
  6
CONTINUOUS
 62
     9
 10
76.159029669899994
 20
98.574964947099986
 30
0.0
 40
1.5000000174000001
 50
180.00872708930001
 51
359.99127291069999
  0
ARC
  5
409
  8
UNIT-HID
  6
CONTINUOUS
 62
     9
 10
76.159029669899994
 20
101.5740510832
 30
0.0
 40
1.5000000174000001
 50
0.0087270893
 51
179.99127291069999
  0
ENDSEC
  0
EOF
