  0
SECTION
  2
HEADER
  9
$ACADVER
  1
AC1009
  9
$INSBASE
 10
0.0
 20
0.0
 30
0.0
  9
$EXTMIN
 10
-0.0053401687244445
 20
-0.004577287478071
 30
-0.0015258207003583
  9
$EXTMAX
 10
175.0053409836317
 20
150.00457798597
 30
0.0000000349246037
  9
$LIMMIN
 10
0.0
 20
0.0
  9
$LIMMAX
 10
175.0
 20
150.0
  9
$ORTHOMODE
 70
     0
  9
$REGENMODE
 70
     1
  9
$FILLMODE
 70
     1
  9
$QTEXTMODE
 70
     0
  9
$MIRRTEXT
 70
     0
  9
$DRAGMODE
 70
     2
  9
$LTSCALE
 40
9.777777777799999
  9
$OSMODE
 70
    37
  9
$ATTMODE
 70
     1
  9
$TEXTSIZE
 40
0.2
  9
$TRACEWID
 40
0.05
  9
$TEXTSTYLE
  7
STANDARD
  9
$CLAYER
  8
0
  9
$CELTYPE
  6
BYLAYER
  9
$CECOLOR
 62
   256
  9
$DIMSCALE
 40
1.0
  9
$DIMASZ
 40
2.0
  9
$DIMEXO
 40
1.587499999999999
  9
$DIMDLI
 40
6.7555555555999991
  9
$DIMRND
 40
0.0
  9
$DIMDLE
 40
0.0
  9
$DIMEXE
 40
1.587499999999999
  9
$DIMTP
 40
0.03
  9
$DIMTM
 40
0.03
  9
$DIMTXT
 40
2.0
  9
$DIMCEN
 40
1.6000000000000001
  9
$DIMTSZ
 40
0.0
  9
$DIMTOL
 70
     1
  9
$DIMLIM
 70
     0
  9
$DIMTIH
 70
     1
  9
$DIMTOH
 70
     1
  9
$DIMSE1
 70
     0
  9
$DIMSE2
 70
     0
  9
$DIMTAD
 70
     0
  9
$DIMZIN
 70
     0
  9
$DIMBLK
  1
_FILLED
  9
$DIMASO
 70
     1
  9
$DIMSHO
 70
     1
  9
$DIMPOST
  1

  9
$DIMAPOST
  1

  9
$DIMALT
 70
     0
  9
$DIMALTD
 70
     2
  9
$DIMALTF
 40
25.399999999999999
  9
$DIMLFAC
 40
1.0
  9
$DIMTOFL
 70
     0
  9
$DIMTVP
 40
0.0
  9
$DIMTIX
 70
     0
  9
$DIMSOXD
 70
     0
  9
$DIMSAH
 70
     0
  9
$DIMBLK1
  1

  9
$DIMBLK2
  1

  9
$DIMSTYLE
  2
STANDARD
  9
$DIMCLRD
 70
     0
  9
$DIMCLRE
 70
     0
  9
$DIMCLRT
 70
     0
  9
$DIMTFAC
 40
1.0
  9
$DIMGAP
 40
0.09
  9
$LUNITS
 70
     2
  9
$LUPREC
 70
     4
  9
$SKETCHINC
 40
0.1
  9
$FILLETRAD
 40
0.0
  9
$AUNITS
 70
     0
  9
$AUPREC
 70
     0
  9
$MENU
  1
.
  9
$ELEVATION
 40
0.0
  9
$PELEVATION
 40
0.0
  9
$THICKNESS
 40
0.0
  9
$LIMCHECK
 70
     0
  9
$BLIPMODE
 70
     0
  9
$CHAMFERA
 40
0.0
  9
$CHAMFERB
 40
0.0
  9
$SKPOLY
 70
     0
  9
$TDCREATE
 40
2456328.3246120829
  9
$TDUPDATE
 40
2456328.3258392708
  9
$TDINDWG
 40
0.0012277315
  9
$TDUSRTIMER
 40
0.0012277315
  9
$USRTIMER
 70
     1
  9
$ANGBASE
 50
0.0
  9
$ANGDIR
 70
     0
  9
$PDMODE
 70
     3
  9
$PDSIZE
 40
7.9375
  9
$PLINEWID
 40
0.0
  9
$COORDS
 70
     1
  9
$SPLFRAME
 70
     0
  9
$SPLINETYPE
 70
     6
  9
$SPLINESEGS
 70
     8
  9
$ATTDIA
 70
     0
  9
$ATTREQ
 70
     1
  9
$HANDLING
 70
     1
  9
$HANDSEED
  5
49D
  9
$SURFTAB1
 70
     6
  9
$SURFTAB2
 70
     6
  9
$SURFTYPE
 70
     6
  9
$SURFU
 70
     6
  9
$SURFV
 70
     6
  9
$UCSNAME
  2

  9
$UCSORG
 10
0.0
 20
0.0
 30
0.0
  9
$UCSXDIR
 10
1.0
 20
0.0
 30
0.0
  9
$UCSYDIR
 10
0.0
 20
1.0
 30
0.0
  9
$PUCSNAME
  2

  9
$PUCSORG
 10
0.0
 20
0.0
 30
0.0
  9
$PUCSXDIR
 10
1.0
 20
0.0
 30
0.0
  9
$PUCSYDIR
 10
0.0
 20
1.0
 30
0.0
  9
$USERI1
 70
     0
  9
$USERI2
 70
     0
  9
$USERI3
 70
     0
  9
$USERI4
 70
     0
  9
$USERI5
 70
     0
  9
$USERR1
 40
0.0
  9
$USERR2
 40
0.0
  9
$USERR3
 40
0.0
  9
$USERR4
 40
0.0
  9
$USERR5
 40
0.0
  9
$WORLDVIEW
 70
     1
  9
$SHADEDGE
 70
     3
  9
$SHADEDIF
 70
    70
  9
$TILEMODE
 70
     1
  9
$MAXACTVP
 70
    64
  9
$PLIMCHECK
 70
     0
  9
$PEXTMIN
 10
1.0000000000000000E+020
 20
1.0000000000000000E+020
 30
1.0000000000000000E+020
  9
$PEXTMAX
 10
-1.0000000000000000E+020
 20
-1.0000000000000000E+020
 30
-1.0000000000000000E+020
  9
$PLIMMIN
 10
0.0
 20
0.0
  9
$PLIMMAX
 10
12.0
 20
9.0
  9
$UNITMODE
 70
     0
  9
$VISRETAIN
 70
     1
  9
$PLINEGEN
 70
     0
  9
$PSLTSCALE
 70
     1
  0
ENDSEC
  0
SECTION
  2
TABLES
  0
TABLE
  2
VPORT
 70
     1
  0
VPORT
  2
*ACTIVE
 70
     0
 10
0.0
 20
0.0
 11
1.0
 21
1.0
 12
87.500000407453655
 22
75.000000349245994
 13
0.0
 23
0.0
 14
1.0
 24
1.0
 15
0.0
 25
0.0
 16
0.0
 26
0.0
 36
1.0
 17
0.0
 27
0.0
 37
0.0
 40
160.0789822914503
 41
1.1011984021304919
 42
50.0
 43
0.0
 44
0.0
 50
0.0
 51
0.0
 71
     0
 72
   100
 73
     1
 74
     1
 75
     0
 76
     0
 77
     0
 78
     0
  0
ENDTAB
  0
TABLE
  2
LTYPE
 70
     6
  0
LTYPE
  2
CONTINUOUS
 70
     0
  3
Solid line
 72
    65
 73
     0
 40
0.0
  0
LTYPE
  2
CENTER
 70
     0
  3
____ _ ____ _ ____ _ ____ _ ____ _ ____ _ ____
 72
    65
 73
     4
 40
0.6
 49
0.375
 49
-0.075
 49
0.075
 49
-0.075
  0
LTYPE
  2
HIDDEN
 70
     0
  3
- - - - - - - - - - - - - - - - - - - -
 72
    65
 73
     2
 40
0.2
 49
0.1
 49
-0.1
  0
LTYPE
  2
PHANTOM
 70
     0
  3
_____ _ _ _____ _ _ _____ _ _ _____
 72
    65
 73
     6
 40
0.8
 49
0.45
 49
-0.05
 49
0.1
 49
-0.05
 49
0.1
 49
-0.05
  0
LTYPE
  2
DOT
 70
     0
  3
. . . . . . . . . . . . . . . . . . . .
 72
    65
 73
     2
 40
0.2
 49
0.1
 49
-0.1
  0
LTYPE
  2
DASHED
 70
     0
  3
- - - - - - - - - - - - - - - - - - - -
 72
    65
 73
     2
 40
0.2
 49
0.1
 49
-0.1
  0
ENDTAB
  0
TABLE
  2
LAYER
 70
    14
  0
LAYER
  2
0
 70
     0
 62
     7
  6
CONTINUOUS
  0
LAYER
  2
DEFAULT_1
 70
     0
 62
     7
  6
CENTER
  0
LAYER
  2
DEFAULT_2
 70
     0
 62
     8
  6
HIDDEN
  0
LAYER
  2
DEFAULT_3
 70
     0
 62
     7
  6
PHANTOM
  0
LAYER
  2
CURB-14
 70
     0
 62
     6
  6
CONTINUOUS
  0
LAYER
  2
CURB-14-DIM
 70
     0
 62
     6
  6
CONTINUOUS
  0
LAYER
  2
CURB-24
 70
     0
 62
     6
  6
CONTINUOUS
  0
LAYER
  2
CURB-24-DIM
 70
     0
 62
     6
  6
CONTINUOUS
  0
LAYER
  2
HOOD
 70
     0
 62
     7
  6
CONTINUOUS
  0
LAYER
  2
NOTES
 70
     0
 62
     1
  6
CONTINUOUS
  0
LAYER
  2
SERVCLEAR
 70
     0
 62
     1
  6
CONTINUOUS
  0
LAYER
  2
SERVCLRDIM
 70
     0
 62
     1
  6
CONTINUOUS
  0
LAYER
  2
UNIT-DIM
 70
     0
 62
     7
  6
CONTINUOUS
  0
LAYER
  2
UNIT-SOL
 70
     0
 62
     7
  6
CONTINUOUS
  0
ENDTAB
  0
TABLE
  2
STYLE
 70
     3
  0
STYLE
  2
STANDARD
 70
     0
 40
0.0
 41
0.8
 50
0.0
 71
     0
 42
0.2
  3
txt
  4

  0
STYLE
  2
TEXTSTYLE_1
 70
     0
 40
0.0
 41
0.8
 50
0.0
 71
     0
 42
0.2
  3
gdt
  4

  0
STYLE
  2
TEXTSTYLE_2
 70
     0
 40
0.0
 41
8.0
 50
0.0
 71
     0
 42
0.2
  3
txt
  4

  0
ENDTAB
  0
TABLE
  2
VIEW
 70
     0
  0
ENDTAB
  0
TABLE
  2
UCS
 70
     0
  0
ENDTAB
  0
TABLE
  2
APPID
 70
     3
  0
APPID
  2
ACAD
 70
     0
  0
APPID
  2
ACAD_NAV_VCDISPLAY
 70
     0
  0
APPID
  2
ACAD_MLEADERVER
 70
     0
  0
ENDTAB
  0
TABLE
  2
DIMSTYLE
 70
     4
  0
DIMSTYLE
  2
STANDARD
 70
     0
  3

  4

  5
_FILLED
  6
_FILLED
  7
_FILLED
 40
1.0
 41
2.0
 42
1.587499999999999
 43
0.38
 44
1.587499999999999
 45
0.0
 46
0.0
 47
0.03
 48
0.03
140
2.0
141
0.09
142
0.0
143
25.399999999999999
144
1.0
145
0.0
146
1.0
147
0.09
 71
     1
 72
     0
 73
     1
 74
     1
 75
     0
 76
     0
 77
     0
 78
     4
170
     0
171
     2
172
     0
173
     0
174
     0
175
     0
176
     0
177
     0
178
     0
  0
DIMSTYLE
  2
DIMSTYLE_1
 70
     0
  3

  4

  5
_FILLED
  6
_FILLED
  7
_FILLED
 40
1.0
 41
2.0
 42
1.587499999999999
 43
0.38
 44
1.587499999999999
 45
0.0
 46
0.0
 47
0.0196850394
 48
0.0196850394
140
1.75
141
0.09
142
0.0
143
25.399999999999999
144
1.0
145
0.0
146
1.0
147
1.75
 71
     0
 72
     0
 73
     1
 74
     1
 75
     0
 76
     0
 77
     0
 78
     4
170
     0
171
     2
172
     0
173
     0
174
     0
175
     0
176
     0
177
     0
178
     0
  0
DIMSTYLE
  2
DIMSTYLE_2
 70
     0
  3

  4

  5
_FILLED
  6
_FILLED
  7
_FILLED
 40
1.0
 41
2.0
 42
1.587499999999999
 43
0.38
 44
1.587499999999999
 45
0.0
 46
0.0
 47
0.031496063
 48
0.031496063
140
1.75
141
0.09
142
0.0
143
25.399999999999999
144
1.0
145
0.0
146
1.0
147
1.75
 71
     0
 72
     0
 73
     1
 74
     1
 75
     0
 76
     0
 77
     0
 78
     4
170
     0
171
     2
172
     0
173
     0
174
     0
175
     0
176
     0
177
     0
178
     0
  0
DIMSTYLE
  2
DIMSTYLE_3
 70
     0
  3

  4

  5
_FILLED
  6
_FILLED
  7
_FILLED
 40
1.0
 41
2.0
 42
1.587499999999999
 43
0.38
 44
1.587499999999999
 45
0.0
 46
0.0
 47
0.0118110236
 48
0.0118110236
140
1.75
141
0.09
142
0.0
143
25.399999999999999
144
1.0
145
0.0
146
1.0
147
1.75
 71
     0
 72
     0
 73
     1
 74
     1
 75
     0
 76
     0
 77
     0
 78
     4
170
     0
171
     2
172
     0
173
     0
174
     0
175
     0
176
     0
177
     0
178
     0
  0
ENDTAB
  0
ENDSEC
  0
SECTION
  2
BLOCKS
  0
BLOCK
  8
0
  2
$MODEL_SPACE
 70
     0
 10
0.0
 20
0.0
 30
0.0
  3
$MODEL_SPACE
  1

  0
ENDBLK
  5
21
  8
0
  0
BLOCK
 67
     1
  8
0
  2
$PAPER_SPACE
 70
     0
 10
0.0
 20
0.0
 30
0.0
  3
$PAPER_SPACE
  1

  0
ENDBLK
  5
1D
 67
     1
  8
0
  0
BLOCK
  8
0
  2
_FILLED
 70
     0
 10
0.0
 20
0.0
 30
0.0
  3
_FILLED
  1

  0
SOLID
  5
213
  8
0
  6
BYBLOCK
 62
     0
 10
0.0
 20
0.0
 30
0.0
 11
-1.0
 21
0.1875
 31
0.0
 12
-1.0
 22
-0.1875
 32
0.0
 13
-1.0
 23
-0.1875
 33
0.0
  0
ENDBLK
  5
214
  8
0
  6
BYBLOCK
 62
     0
  0
BLOCK
  8
UNIT-DIM
  6
CONTINUOUS
 62
     7
  2
*D1
 70
     1
 10
0.0
 20
0.0
 30
0.0
  3
*D1
  1

  0
INSERT
  5
216
  8
0
  2
*U4
 10
0.0
 20
0.0
 30
0.0
  0
LINE
  5
217
  8
UNIT-DIM
  6
CONTINUOUS
 62
     7
 10
100.3400772422
 20
66.416273541599992
 30
0.0
 11
116.8534382231
 21
66.416273541599992
 31
0.0
  0
LINE
  5
218
  8
UNIT-DIM
  6
CONTINUOUS
 62
     7
 10
116.8534382231
 20
66.416273541599992
 30
0.0
 11
122.64093822309999
 21
66.416273541599992
 31
0.0
  0
LINE
  5
219
  8
UNIT-DIM
  6
CONTINUOUS
 62
     7
 10
95.125938223099993
 20
73.041273541599992
 30
0.0
 11
116.8534382231
 21
73.041273541599992
 31
0.0
  0
LINE
  5
21A
  8
UNIT-DIM
  6
CONTINUOUS
 62
     7
 10
116.8534382231
 20
73.041273541599992
 30
0.0
 11
122.64093822309999
 21
73.041273541599992
 31
0.0
  0
LINE
  5
21B
  8
UNIT-DIM
  6
CONTINUOUS
 62
     7
 10
121.0534382231
 20
66.416273541599992
 30
0.0
 11
121.0534382231
 21
61.416273541599999
 31
0.0
  0
LINE
  5
21C
  8
UNIT-DIM
  6
CONTINUOUS
 62
     7
 10
121.0534382231
 20
73.041273541599992
 30
0.0
 11
121.0534382231
 21
77.9537735416
 31
0.0
  0
INSERT
  5
21D
  8
UNIT-DIM
  6
CONTINUOUS
 62
     7
  2
_FILLED
 10
121.0534382231
 20
66.416273541599992
 30
0.0
 41
2.0
 42
2.0
 43
2.0
 50
90.0
  0
INSERT
  5
21E
  8
UNIT-DIM
  6
CONTINUOUS
 62
     7
  2
_FILLED
 10
121.0534382231
 20
73.041273541599992
 30
0.0
 41
2.0
 42
2.0
 43
2.0
 50
270.0
  0
ENDBLK
  5
21F
  8
0
  6
BYBLOCK
 62
     0
  0
BLOCK
  8
UNIT-DIM
  6
CONTINUOUS
 62
     7
  2
*D2
 70
     1
 10
0.0
 20
0.0
 30
0.0
  3
*D2
  1

  0
INSERT
  5
221
  8
0
  2
*U5
 10
0.0
 20
0.0
 30
0.0
  0
LINE
  5
222
  8
UNIT-DIM
  6
CONTINUOUS
 62
     7
 10
100.3400772422
 20
66.416273541599992
 30
0.0
 11
125.7509424213
 21
66.416273541599992
 31
0.0
  0
LINE
  5
223
  8
UNIT-DIM
  6
CONTINUOUS
 62
     7
 10
125.7509424213
 20
66.416273541599992
 30
0.0
 11
133.6384424213
 21
66.416273541599992
 31
0.0
  0
LINE
  5
224
  8
UNIT-DIM
  6
CONTINUOUS
 62
     7
 10
95.715077242199996
 20
85.916273541599992
 30
0.0
 11
125.7509424213
 21
85.916273541599992
 31
0.0
  0
LINE
  5
225
  8
UNIT-DIM
  6
CONTINUOUS
 62
     7
 10
125.7509424213
 20
85.916273541599992
 30
0.0
 11
133.6384424213
 21
85.916273541599992
 31
0.0
  0
LINE
  5
226
  8
UNIT-DIM
  6
CONTINUOUS
 62
     7
 10
132.05094242129999
 20
66.416273541599992
 30
0.0
 11
132.05094242129999
 21
74.963106653599993
 31
0.0
  0
LINE
  5
227
  8
UNIT-DIM
  6
CONTINUOUS
 62
     7
 10
132.05094242129999
 20
85.916273541599992
 30
0.0
 11
132.05094242129999
 21
81.963106653599993
 31
0.0
  0
INSERT
  5
228
  8
UNIT-DIM
  6
CONTINUOUS
 62
     7
  2
_FILLED
 10
132.05094242129999
 20
66.416273541599992
 30
0.0
 41
2.0
 42
2.0
 43
2.0
 50
270.0
  0
INSERT
  5
229
  8
UNIT-DIM
  6
CONTINUOUS
 62
     7
  2
_FILLED
 10
132.05094242129999
 20
85.916273541599992
 30
0.0
 41
2.0
 42
2.0
 43
2.0
 50
90.0
  0
ENDBLK
  5
22A
  8
0
  6
BYBLOCK
 62
     0
  0
BLOCK
  8
UNIT-DIM
  6
CONTINUOUS
 62
     7
  2
*D3
 70
     1
 10
0.0
 20
0.0
 30
0.0
  3
*D3
  1

  0
INSERT
  5
22C
  8
0
  2
*U6
 10
0.0
 20
0.0
 30
0.0
  0
LINE
  5
22D
  8
UNIT-DIM
  6
CONTINUOUS
 62
     7
 10
94.127577242199976
 20
87.503773541599983
 30
0.0
 11
94.127577242199976
 21
87.553478983199994
 31
0.0
  0
LINE
  5
22E
  8
UNIT-DIM
  6
CONTINUOUS
 62
     7
 10
94.127577242199976
 20
87.553478983199994
 30
0.0
 11
94.127577242199976
 21
90.0159789832
 31
0.0
  0
LINE
  5
22F
  8
UNIT-DIM
  6
CONTINUOUS
 62
     7
 10
98.75257724219999
 20
88.428478983199994
 30
0.0
 11
102.8584453125
 21
88.428478983199994
 31
0.0
  0
LINE
  5
230
  8
UNIT-DIM
  6
CONTINUOUS
 62
     7
 10
94.127577242199976
 20
88.428478983199994
 30
0.0
 11
89.127577242199976
 21
88.428478983199994
 31
0.0
  0
INSERT
  5
231
  8
UNIT-DIM
  6
CONTINUOUS
 62
     7
  2
_FILLED
 10
98.75257724219999
 20
88.428478983199994
 30
0.0
 41
2.0
 42
2.0
 43
2.0
 50
180.0
  0
INSERT
  5
232
  8
UNIT-DIM
  6
CONTINUOUS
 62
     7
  2
_FILLED
 10
94.127577242199976
 20
88.428478983199994
 30
0.0
 41
2.0
 42
2.0
 43
2.0
  0
ENDBLK
  5
233
  8
0
  6
BYBLOCK
 62
     0
  0
BLOCK
  8
0
  2
*U4
 70
     1
 10
0.0
 20
0.0
 30
0.0
  3
*U4
  1

  0
TEXT
  5
3A0
  8
UNIT-DIM
 62
     7
 10
117.3201048897666
 20
81.4537735416
 30
0.0
 40
1.75
  1
6 5/8"
 41
0.8
  0
TEXT
  5
3A1
  8
UNIT-DIM
 62
     7
 10
118.4867715564333
 20
78.537106874933315
 30
0.0
 40
1.75
  1
(168)
 41
0.8
  0
ENDBLK
  5
3A3
  8
0
  0
BLOCK
  8
0
  2
*U5
 70
     1
 10
0.0
 20
0.0
 30
0.0
  3
*U5
  1

  0
TEXT
  5
3A5
  8
UNIT-DIM
 62
     7
 10
127.0342757546333
 20
78.463106653599993
 30
0.0
 40
1.75
  1
1'-7 1/2"
 41
0.8
  0
TEXT
  5
3A6
  8
UNIT-DIM
 62
     7
 10
129.2509424212999
 20
75.546439986933322
 30
0.0
 40
1.75
  1
(494)
 41
0.8
  0
ENDBLK
  5
3A8
  8
0
  0
BLOCK
  8
0
  2
*U6
 70
     1
 10
0.0
 20
0.0
 30
0.0
  3
*U6
  1

  0
TEXT
  5
3AA
  8
UNIT-DIM
 62
     7
 10
104.6084453125
 20
87.553478983199994
 30
0.0
 40
1.75
  1
4 5/8" (118)
 41
0.8
  0
ENDBLK
  5
3AC
  8
0
  0
BLOCK
  8
0
  2
*U7
 70
     1
 10
0.0
 20
0.0
 30
0.0
  3
*U7
  1

  0
TEXT
  5
3AE
  8
SERVCLRDIM
 62
     1
 10
7.811749333699999
 20
55.582436496899987
 30
0.0
 40
1.75
  1
OVERALL HEIGHT & CLEARANCE
 41
0.8
  0
TEXT
  5
3AF
  8
SERVCLRDIM
 62
     1
 10
7.811749333699999
 20
52.66576983023333
 30
0.0
 40
1.75
  1
AREA WILL BE DETERMINED BY
 41
0.8
  0
TEXT
  5
3B0
  8
SERVCLRDIM
 62
     1
 10
7.811749333699999
 20
49.749103163566659
 30
0.0
 40
1.75
  1
ASSEMBLY OF INSTALLER. SEE
 41
0.8
  0
TEXT
  5
3B1
  8
SERVCLRDIM
 62
     1
 10
7.811749333699999
 20
46.832436496900002
 30
0.0
 40
1.75
  1
CERTIFIED DRAWING FOR
 41
0.8
  0
TEXT
  5
3B2
  8
SERVCLRDIM
 62
     1
 10
7.811749333699999
 20
43.91576983023333
 30
0.0
 40
1.75
  1
FURTHER DETAIL.
 41
0.8
  0
ENDBLK
  5
3B4
  8
0
  0
BLOCK
  8
0
  2
*U8
 70
     1
 10
0.0
 20
0.0
 30
0.0
  3
*U8
  1

  0
TEXT
  5
3B6
  8
CURB-14-DIM
 62
     6
 10
104.8013427153
 20
63.750917922500001
 30
0.0
 40
1.75
  1
1'-2"
 41
0.8
  0
ENDBLK
  5
3B8
  8
0
  0
BLOCK
  8
0
  2
*U9
 70
     1
 10
0.0
 20
0.0
 30
0.0
  3
*U9
  1

  0
TEXT
  5
3BA
  8
CURB-14-DIM
 62
     6
 10
69.945598657366659
 20
38.694296541600004
 30
0.0
 40
1.75
  1
3'-4 11/16"
 41
0.8
  0
ENDBLK
  5
3BC
  8
0
  0
BLOCK
  8
0
  2
*U10
 70
     1
 10
0.0
 20
0.0
 30
0.0
  3
*U10
  1

  0
TEXT
  5
3BE
  8
UNIT-DIM
 62
     7
 10
24.116295908866672
 20
88.148876541600004
 30
0.0
 40
1.75
  1
2'-9 3/8"
 41
0.8
  0
ENDBLK
  5
3C0
  8
0
  0
BLOCK
  8
0
  2
*U11
 70
     1
 10
0.0
 20
0.0
 30
0.0
  3
*U11
  1

  0
TEXT
  5
3C2
  8
UNIT-DIM
 62
     7
 10
77.481743908866676
 20
112.2097530324
 30
0.0
 40
1.75
  1
3'-10 3/4"
 41
0.8
  0
ENDBLK
  5
3C4
  8
0
  0
BLOCK
  8
0
  2
*U12
 70
     1
 10
0.0
 20
0.0
 30
0.0
  3
*U12
  1

  0
TEXT
  5
3C6
  8
UNIT-DIM
 62
     7
 10
27.337229242199999
 20
85.078609541599988
 30
0.0
 40
1.75
  1
(847)
 41
0.8
  0
ENDBLK
  5
3C8
  8
0
  0
BLOCK
  8
0
  2
*U13
 70
     1
 10
0.0
 20
0.0
 30
0.0
  3
*U13
  1

  0
TEXT
  5
3CA
  8
UNIT-DIM
 62
     7
 10
80.281743908866659
 20
109.2930870324
 30
0.0
 40
1.75
  1
(1187)
 41
0.8
  0
ENDBLK
  5
3CC
  8
0
  0
BLOCK
  8
0
  2
*U14
 70
     1
 10
0.0
 20
0.0
 30
0.0
  3
*U14
  1

  0
TEXT
  5
3CE
  8
CURB-14-DIM
 62
     6
 10
104.40627668090001
 20
61.307445283600003
 30
0.0
 40
1.75
  1
(356)
 41
0.8
  0
ENDBLK
  5
3D0
  8
0
  0
BLOCK
  8
0
  2
*U15
 70
     1
 10
0.0
 20
0.0
 30
0.0
  3
*U15
  1

  0
TEXT
  5
3D2
  8
CURB-14-DIM
 62
     6
 10
72.978931990699991
 20
35.7776295416
 30
0.0
 40
1.75
  1
(1033)
 41
0.8
  0
ENDBLK
  5
3D4
  8
0
  0
BLOCK
  8
0
  2
*U16
 70
     1
 10
0.0
 20
0.0
 30
0.0
  3
*U16
  1

  0
TEXT
  5
3D6
  8
CURB-24-DIM
 62
     6
 10
72.978931990699991
 20
35.7776295416
 30
0.0
 40
1.75
  1
(1033)
 41
0.8
  0
ENDBLK
  5
3D8
  8
0
  0
BLOCK
  8
0
  2
*U17
 70
     1
 10
0.0
 20
0.0
 30
0.0
  3
*U17
  1

  0
TEXT
  5
3DA
  8
CURB-24-DIM
 62
     6
 10
69.945598657366659
 20
38.694296541600004
 30
0.0
 40
1.75
  1
3'-4 11/16"
 41
0.8
  0
ENDBLK
  5
3DC
  8
0
  0
BLOCK
  8
0
  2
*U18
 70
     1
 10
0.0
 20
0.0
 30
0.0
  3
*U18
  1

  0
TEXT
  5
3DE
  8
CURB-24-DIM
 62
     6
 10
113.2465972935333
 20
59.659284541600002
 30
0.0
 40
1.75
  1
2'
 41
0.8
  0
ENDBLK
  5
3E0
  8
0
  0
BLOCK
  8
0
  2
*U19
 70
     1
 10
0.0
 20
0.0
 30
0.0
  3
*U19
  1

  0
TEXT
  5
3E2
  8
CURB-24-DIM
 62
     6
 10
111.6132639602
 20
56.742618541600002
 30
0.0
 40
1.75
  1
(610)
 41
0.8
  0
ENDBLK
  5
3E4
  8
0
  0
BLOCK
  8
0
  2
*U20
 70
     1
 10
0.0
 20
0.0
 30
0.0
  3
*U20
  1

  0
TEXT
  5
3E6
  8
SERVCLRDIM
 62
     1
 10
121.4925689230333
 20
93.441980557899996
 30
0.0
 40
1.75
  1
4'
 41
0.8
  0
ENDBLK
  5
3E8
  8
0
  0
BLOCK
  8
0
  2
*U21
 70
     1
 10
0.0
 20
0.0
 30
0.0
  3
*U21
  1

  0
TEXT
  5
3EA
  8
SERVCLRDIM
 62
     1
 10
17.55833333333333
 20
93.714632544300002
 30
0.0
 40
1.75
  1
3'
 41
0.8
  0
ENDBLK
  5
3EC
  8
0
  0
BLOCK
  8
0
  2
*U22
 70
     1
 10
0.0
 20
0.0
 30
0.0
  3
*U22
  1

  0
TEXT
  5
3EE
  8
SERVCLRDIM
 62
     1
 10
119.27590225636661
 20
90.525313557900006
 30
0.0
 40
1.75
  1
(1219)
 41
0.8
  0
ENDBLK
  5
3F0
  8
0
  0
BLOCK
  8
0
  2
*U23
 70
     1
 10
0.0
 20
0.0
 30
0.0
  3
*U23
  1

  0
TEXT
  5
3F2
  8
SERVCLRDIM
 62
     1
 10
15.80833333333333
 20
90.797965544299998
 30
0.0
 40
1.75
  1
(914)
 41
0.8
  0
ENDBLK
  5
3F4
  8
0
  0
BLOCK
  8
0
  2
*U24
 70
     1
 10
0.0
 20
0.0
 30
0.0
  3
*U24
  1

  0
TEXT
  5
3F6
  8
NOTES
 62
     1
 10
0.8
 20
1.1248476951999991
 30
0.0
 40
1.75
  1
VIEW: LEFT
 41
0.8
  0
ENDBLK
  5
3F8
  8
0
  0
BLOCK
  8
0
  2
*U25
 70
     1
 10
0.0
 20
0.0
 30
0.0
  3
*U25
  1

  0
TEXT
  5
3FA
  8
NOTES
 62
     1
 10
0.8
 20
5.6241623234000002
 30
0.0
 40
1.75
  1
FILE NAME: TSY10-L-
 41
0.8
  0
ENDBLK
  5
3FC
  8
0
  0
BLOCK
  8
0
  2
*U26
 70
     1
 10
0.0
 20
0.0
 30
0.0
  3
*U26
  1

  0
TEXT
  5
3FE
  8
NOTES
 62
     1
 10
17.066666666700002
 20
9.6235531040000009
 30
0.0
 40
1.75
  1
LAYER KEY
 41
0.8
  0
ENDBLK
  5
400
  8
0
  0
BLOCK
  8
0
  2
*U27
 70
     1
 10
0.0
 20
0.0
 30
0.0
  3
*U27
  1

  0
TEXT
  5
402
  8
NOTES
 62
     7
 10
1.0303146667
 20
13.6229438846
 30
0.0
 40
1.75
  1
-
 41
8.0
  7
TEXTSTYLE_2
  0
ENDBLK
  5
404
  8
0
  0
BLOCK
  8
0
  2
*U28
 70
     1
 10
0.0
 20
0.0
 30
0.0
  3
*U28
  1

  0
TEXT
  5
406
  8
NOTES
 62
     1
 10
16.800000000000001
 20
13.6229438846
 30
0.0
 40
1.75
  1
UNIT
 41
0.8
  0
ENDBLK
  5
408
  8
0
  0
BLOCK
  8
0
  2
*U29
 70
     1
 10
0.0
 20
0.0
 30
0.0
  3
*U29
  1

  0
TEXT
  5
40A
  8
NOTES
 62
     6
 10
1.0303146667
 20
17.6223346652
 30
0.0
 40
1.75
  1
-
 41
8.0
  7
TEXTSTYLE_2
  0
ENDBLK
  5
40C
  8
0
  0
BLOCK
  8
0
  2
*U30
 70
     1
 10
0.0
 20
0.0
 30
0.0
  3
*U30
  1

  0
TEXT
  5
40E
  8
NOTES
 62
     1
 10
16.800000000000001
 20
17.6223346652
 30
0.0
 40
1.75
  1
ROOF CURB
 41
0.8
  0
ENDBLK
  5
410
  8
0
  0
BLOCK
  8
0
  2
*U31
 70
     1
 10
0.0
 20
0.0
 30
0.0
  3
*U31
  1

  0
TEXT
  5
412
  8
NOTES
 62
     1
 10
1.0303146667
 20
21.621725445900001
 30
0.0
 40
1.75
  1
-
 41
8.0
  7
TEXTSTYLE_2
  0
ENDBLK
  5
414
  8
0
  0
BLOCK
  8
0
  2
*U32
 70
     1
 10
0.0
 20
0.0
 30
0.0
  3
*U32
  1

  0
TEXT
  5
416
  8
NOTES
 62
     1
 10
16.800000000000001
 20
21.621725445900001
 30
0.0
 40
1.75
  1
SERVICE CLEARANCE
 41
0.8
  0
ENDBLK
  5
418
  8
0
  0
BLOCK
  8
0
  2
*U33
 70
     1
 10
0.0
 20
0.0
 30
0.0
  3
*U33
  1

  0
TEXT
  5
41A
  8
NOTES
 62
     2
 10
1.0303146667
 20
25.6211162265
 30
0.0
 40
1.75
  1
-
 41
8.0
  7
TEXTSTYLE_2
  0
ENDBLK
  5
41C
  8
0
  0
BLOCK
  8
0
  2
*U34
 70
     1
 10
0.0
 20
0.0
 30
0.0
  3
*U34
  1

  0
TEXT
  5
41E
  8
NOTES
 62
     1
 10
16.800000000000001
 20
25.6211162265
 30
0.0
 40
1.75
  1
UNIT DUCTS
 41
0.8
  0
ENDBLK
  5
420
  8
0
  0
BLOCK
  8
0
  2
*U35
 70
     1
 10
0.0
 20
0.0
 30
0.0
  3
*U35
  1

  0
TEXT
  5
422
  8
NOTES
 62
     5
 10
1.0303146667
 20
29.620507007099999
 30
0.0
 40
1.75
  1
-
 41
8.0
  7
TEXTSTYLE_2
  0
ENDBLK
  5
424
  8
0
  0
BLOCK
  8
0
  2
*U36
 70
     1
 10
0.0
 20
0.0
 30
0.0
  3
*U36
  1

  0
TEXT
  5
426
  8
NOTES
 62
     1
 10
16.800000000000001
 20
29.620507007099999
 30
0.0
 40
1.75
  1
CURB DUCTS
 41
0.8
  0
ENDBLK
  5
428
  8
0
  0
BLOCK
  8
0
  2
*U37
 70
     1
 10
0.0
 20
0.0
 30
0.0
  3
*U37
  1

  0
TEXT
  5
42A
  8
NOTES
 62
     9
 10
1.0303146667
 20
33.619897787699998
 30
0.0
 40
1.75
  1
-
 41
8.0
  7
TEXTSTYLE_2
  0
ENDBLK
  5
42C
  8
0
  0
BLOCK
  8
0
  2
*U38
 70
     1
 10
0.0
 20
0.0
 30
0.0
  3
*U38
  1

  0
TEXT
  5
42E
  8
NOTES
 62
     1
 10
16.800000000000001
 20
33.619897787699998
 30
0.0
 40
1.75
  1
UNIT HIDDEN
 41
0.8
  0
ENDBLK
  5
430
  8
0
  0
BLOCK
  8
0
  2
*U39
 70
     1
 10
0.0
 20
0.0
 30
0.0
  3
*U39
  1

  0
TEXT
  5
432
  8
NOTES
 62
     1
 10
112.0413476157
 20
36.644965628999998
 30
0.0
 40
1.75
  1
7/8" (22)
 41
0.8
  0
TEXT
  5
433
  8
NOTES
 62
     1
 10
112.0413476157
 20
33.728298962333326
 30
0.0
 40
1.75
  1
FIELD CONTROL
 41
0.8
  0
TEXT
  5
434
  8
NOTES
 62
     1
 10
112.0413476157
 20
30.811632295666659
 30
0.0
 40
1.75
  1
WIRING
 41
0.8
  0
ENDBLK
  5
436
  8
0
  0
BLOCK
  8
0
  2
*U40
 70
     1
 10
0.0
 20
0.0
 30
0.0
  3
*U40
  1

  0
TEXT
  5
438
  8
NOTES
 62
     1
 10
108.23471558830001
 20
121.33242980510001
 30
0.0
 40
1.75
  1
1 3/8" (35) FIELD POWER SUPPLY HOLE
 41
0.8
  0
TEXT
  5
439
  8
NOTES
 62
     1
 10
108.23471558830001
 20
118.41576313843331
 30
0.0
 40
1.75
  1
2 1/2" (64) POWER SUPPLY KNOCKOUT
 41
0.8
  0
TEXT
  5
43A
  8
NOTES
 62
     1
 10
108.23471558830001
 20
115.49909647176661
 30
0.0
 40
1.75
  1
2" (51) POWER SUPPLY KNOCKOUT
 41
0.8
  0
ENDBLK
  5
43C
  8
0
  0
BLOCK
  8
0
  2
*U41
 70
     1
 10
0.0
 20
0.0
 30
0.0
  3
*U41
  1

  0
TEXT
  5
43E
  8
NOTES
 62
     1
 10
62.136083333333332
 20
106.2495576914
 30
0.0
 40
1.75
  1
OPTIONAL FACTORY
 41
0.8
  0
TEXT
  5
43F
  8
NOTES
 62
     1
 10
55.136083333333339
 20
103.3328910247333
 30
0.0
 40
1.75
  1
INSTALLED CONVENIENCE
 41
0.8
  0
TEXT
  5
440
  8
NOTES
 62
     1
 10
75.669416666666663
 20
100.4162243580666
 30
0.0
 40
1.75
  1
OUTLET
 41
0.8
  0
ENDBLK
  5
442
  8
0
  0
ENDSEC
  0
SECTION
  2
ENTITIES
  0
SOLID
  5
234
  8
SERVCLRDIM
  6
CONTINUOUS
 62
     1
 10
47.735812658299992
 20
64.416273541599992
 30
0.0
 11
47.069146658299999
 21
64.416273541599992
 31
0.0
 12
47.402478658299991
 22
66.416273541599992
 32
0.0
 13
47.402478658299991
 23
66.416273541599992
 33
0.0
  0
SOLID
  5
235
  8
SERVCLRDIM
  6
CONTINUOUS
 62
     1
 10
47.735812658299992
 20
72.976273541599994
 30
0.0
 11
47.402478658299991
 21
70.976273541599994
 31
0.0
 12
47.069146658299999
 22
72.976273541599994
 32
0.0
 13
47.069146658299999
 23
72.976273541599994
 33
0.0
  0
SOLID
  5
236
  8
SERVCLRDIM
  6
CONTINUOUS
 62
     1
 10
103.61495682970001
 20
94.277796171499986
 30
0.0
 11
101.73995682970001
 21
94.590296171499986
 31
0.0
 12
103.61495682970001
 22
94.902796171499986
 32
0.0
 13
103.61495682970001
 23
94.902796171499986
 33
0.0
  0
SOLID
  5
237
  8
SERVCLRDIM
  6
CONTINUOUS
 62
     1
 10
147.86495682969999
 20
94.277796171499986
 30
0.0
 11
147.86495682969999
 21
94.902796171499986
 31
0.0
 12
149.73995682969999
 22
94.590296171499986
 32
0.0
 13
149.73995682969999
 23
94.590296171499986
 33
0.0
  0
SOLID
  5
238
  8
SERVCLRDIM
  6
CONTINUOUS
 62
     1
 10
34.125
 20
94.277132544300017
 30
0.0
 11
34.125
 21
94.902132544300017
 31
0.0
 12
36.0
 22
94.589632544300017
 32
0.0
 13
36.0
 23
94.589632544300017
 33
0.0
  0
SOLID
  5
239
  8
SERVCLRDIM
  6
CONTINUOUS
 62
     1
 10
1.875
 20
94.277132544300017
 30
0.0
 11
0.0
 21
94.589632544300017
 31
0.0
 12
1.875
 22
94.902132544300017
 32
0.0
 13
1.875
 23
94.902132544300017
 33
0.0
  0
SOLID
  5
23A
  8
CURB-14-DIM
  6
CONTINUOUS
 62
     6
 10
107.83744413789999
 20
69.103773541599992
 30
0.0
 11
107.21244413789999
 21
69.103773541599992
 31
0.0
 12
107.52494413789999
 22
70.978773541599992
 32
0.0
 13
107.52494413789999
 23
70.978773541599992
 33
0.0
  0
SOLID
  5
23B
  8
CURB-14-DIM
  6
CONTINUOUS
 62
     6
 10
107.83744413789999
 20
58.853773541599999
 30
0.0
 11
107.52494413789999
 21
56.978773541599999
 31
0.0
 12
107.21244413789999
 22
58.853773541599999
 32
0.0
 13
107.21244413789999
 23
58.853773541599999
 33
0.0
  0
SOLID
  5
23C
  8
CURB-14-DIM
  6
CONTINUOUS
 62
     6
 10
93.815077242199976
 20
39.256796541599989
 30
0.0
 11
93.815077242199976
 21
39.881796541599989
 31
0.0
 12
95.690077242199976
 22
39.569296541599989
 32
0.0
 13
95.690077242199976
 23
39.569296541599989
 33
0.0
  0
SOLID
  5
23D
  8
CURB-14-DIM
  6
CONTINUOUS
 62
     6
 10
56.877577242199997
 20
39.256796541599989
 30
0.0
 11
55.002577242199997
 21
39.569296541599989
 31
0.0
 12
56.877577242199997
 22
39.881796541599989
 32
0.0
 13
56.877577242199997
 23
39.881796541599989
 33
0.0
  0
SOLID
  5
23E
  8
CURB-24-DIM
  6
CONTINUOUS
 62
     6
 10
56.877577242199997
 20
39.256796541599989
 30
0.0
 11
55.002577242199997
 21
39.569296541599989
 31
0.0
 12
56.877577242199997
 22
39.881796541599989
 32
0.0
 13
56.877577242199997
 23
39.881796541599989
 33
0.0
  0
SOLID
  5
23F
  8
CURB-24-DIM
  6
CONTINUOUS
 62
     6
 10
93.815077242199976
 20
39.256796541599989
 30
0.0
 11
93.815077242199976
 21
39.881796541599989
 31
0.0
 12
95.690077242199976
 22
39.569296541599989
 32
0.0
 13
95.690077242199976
 23
39.569296541599989
 33
0.0
  0
SOLID
  5
240
  8
CURB-24-DIM
  6
CONTINUOUS
 62
     6
 10
114.7507639602
 20
69.103773541599992
 30
0.0
 11
114.1257639602
 21
69.103773541599992
 31
0.0
 12
114.4382639602
 22
70.978773541599992
 32
0.0
 13
114.4382639602
 23
70.978773541599992
 33
0.0
  0
SOLID
  5
241
  8
CURB-24-DIM
  6
CONTINUOUS
 62
     6
 10
114.7507639602
 20
48.853773541599999
 30
0.0
 11
114.4382639602
 21
46.978773541599999
 31
0.0
 12
114.1257639602
 22
48.853773541599999
 32
0.0
 13
114.1257639602
 23
48.853773541599999
 33
0.0
  0
SOLID
  5
242
  8
UNIT-DIM
  6
CONTINUOUS
 62
     7
 10
30.0747292422
 20
97.791273541599992
 30
0.0
 11
29.4497292422
 21
97.791273541599992
 31
0.0
 12
29.7622292422
 22
99.666273541599992
 32
0.0
 13
29.7622292422
 23
99.666273541599992
 33
0.0
  0
SOLID
  5
243
  8
UNIT-DIM
  6
CONTINUOUS
 62
     7
 10
30.0747292422
 20
68.291273541599992
 30
0.0
 11
29.7622292422
 21
66.416273541599992
 31
0.0
 12
29.4497292422
 22
68.291273541599992
 32
0.0
 13
29.4497292422
 23
68.291273541599992
 33
0.0
  0
SOLID
  5
244
  8
UNIT-DIM
  6
CONTINUOUS
 62
     7
 10
53.877577242199997
 20
112.8347530324
 30
0.0
 11
52.002577242199997
 21
113.1472530324
 31
0.0
 12
53.877577242199997
 22
113.4597530324
 32
0.0
 13
53.877577242199997
 23
113.4597530324
 33
0.0
  0
SOLID
  5
245
  8
UNIT-DIM
  6
CONTINUOUS
 62
     7
 10
96.87757724219999
 20
112.8347530324
 30
0.0
 11
96.87757724219999
 21
113.4597530324
 31
0.0
 12
98.75257724219999
 22
113.1472530324
 32
0.0
 13
98.75257724219999
 23
113.1472530324
 33
0.0
  0
DIMENSION
  5
246
  8
UNIT-DIM
  6
CONTINUOUS
 62
     7
  2
*D1
 10
121.0534382231
 20
73.041273541599992
 30
0.0
 11
121.0534382231
 21
81.016273541599986
 31
0.0
 70
   128
  1
6 5/8"\P(168)
 13
98.75257724219999
 23
66.416273541599992
 33
0.0
 14
93.538438223099988
 24
73.041273541599992
 34
0.0
 50
90.0
  0
DIMENSION
  5
247
  8
UNIT-DIM
  6
CONTINUOUS
 62
     7
  2
*D2
 10
132.05094242129999
 20
85.916273541599992
 30
0.0
 11
132.05094242129999
 21
78.025606653599993
 31
0.0
 70
   128
  1
1'-7 1/2"\P(494)
 13
98.75257724219999
 23
66.416273541599992
 33
0.0
 14
94.127577242199976
 24
85.916273541599992
 34
0.0
 50
90.0
  0
DIMENSION
  5
248
  8
UNIT-DIM
  6
CONTINUOUS
 62
     7
  2
*D3
 10
94.127577242199976
 20
88.428478983199994
 30
0.0
 11
113.0084453125
 21
88.428478983199994
 31
0.0
 70
   128
  1
4 5/8" (118)
 13
98.75257724219999
 23
99.791273541599992
 33
0.0
 14
94.127577242199976
 24
91.603478983199992
 34
0.0
 50
180.0
  0
INSERT
  5
249
  8
0
  2
*U7
 10
0.0
 20
0.0
 30
0.0
  0
INSERT
  5
24A
  8
0
  2
*U8
 10
0.0
 20
0.0
 30
0.0
  0
INSERT
  5
24B
  8
0
  2
*U9
 10
0.0
 20
0.0
 30
0.0
  0
INSERT
  5
24C
  8
0
  2
*U10
 10
0.0
 20
0.0
 30
0.0
  0
INSERT
  5
24D
  8
0
  2
*U11
 10
0.0
 20
0.0
 30
0.0
  0
INSERT
  5
24E
  8
0
  2
*U12
 10
0.0
 20
0.0
 30
0.0
  0
INSERT
  5
24F
  8
0
  2
*U13
 10
0.0
 20
0.0
 30
0.0
  0
INSERT
  5
250
  8
0
  2
*U14
 10
0.0
 20
0.0
 30
0.0
  0
INSERT
  5
251
  8
0
  2
*U15
 10
0.0
 20
0.0
 30
0.0
  0
INSERT
  5
252
  8
0
  2
*U16
 10
0.0
 20
0.0
 30
0.0
  0
INSERT
  5
253
  8
0
  2
*U17
 10
0.0
 20
0.0
 30
0.0
  0
INSERT
  5
254
  8
0
  2
*U18
 10
0.0
 20
0.0
 30
0.0
  0
INSERT
  5
255
  8
0
  2
*U19
 10
0.0
 20
0.0
 30
0.0
  0
INSERT
  5
256
  8
0
  2
*U20
 10
0.0
 20
0.0
 30
0.0
  0
INSERT
  5
257
  8
0
  2
*U21
 10
0.0
 20
0.0
 30
0.0
  0
INSERT
  5
258
  8
0
  2
*U22
 10
0.0
 20
0.0
 30
0.0
  0
INSERT
  5
259
  8
0
  2
*U23
 10
0.0
 20
0.0
 30
0.0
  0
INSERT
  5
25A
  8
0
  2
*U24
 10
0.0
 20
0.0
 30
0.0
  0
INSERT
  5
25B
  8
0
  2
*U25
 10
0.0
 20
0.0
 30
0.0
  0
INSERT
  5
25C
  8
0
  2
*U26
 10
0.0
 20
0.0
 30
0.0
  0
INSERT
  5
25D
  8
0
  2
*U27
 10
0.0
 20
0.0
 30
0.0
  0
INSERT
  5
25E
  8
0
  2
*U28
 10
0.0
 20
0.0
 30
0.0
  0
INSERT
  5
25F
  8
0
  2
*U29
 10
0.0
 20
0.0
 30
0.0
  0
INSERT
  5
260
  8
0
  2
*U30
 10
0.0
 20
0.0
 30
0.0
  0
INSERT
  5
261
  8
0
  2
*U31
 10
0.0
 20
0.0
 30
0.0
  0
INSERT
  5
262
  8
0
  2
*U32
 10
0.0
 20
0.0
 30
0.0
  0
INSERT
  5
263
  8
0
  2
*U33
 10
0.0
 20
0.0
 30
0.0
  0
INSERT
  5
264
  8
0
  2
*U34
 10
0.0
 20
0.0
 30
0.0
  0
INSERT
  5
265
  8
0
  2
*U35
 10
0.0
 20
0.0
 30
0.0
  0
INSERT
  5
266
  8
0
  2
*U36
 10
0.0
 20
0.0
 30
0.0
  0
INSERT
  5
267
  8
0
  2
*U37
 10
0.0
 20
0.0
 30
0.0
  0
INSERT
  5
268
  8
0
  2
*U38
 10
0.0
 20
0.0
 30
0.0
  0
INSERT
  5
269
  8
0
  2
*U39
 10
0.0
 20
0.0
 30
0.0
  0
LINE
  5
26A
  8
NOTES
  6
CONTINUOUS
 62
     1
 10
94.426336209300004
 20
72.640345768000003
 30
0.0
 11
108.4220072334
 21
37.519965628999998
 31
0.0
  0
LINE
  5
26B
  8
NOTES
  6
CONTINUOUS
 62
     1
 10
108.4220072334
 20
37.519965628999998
 30
0.0
 11
112.0413476157
 21
37.519965628999998
 31
0.0
  0
SOLID
  5
26C
  8
NOTES
  6
CONTINUOUS
 62
     1
 10
95.51508154870001
 20
70.921259212300001
 30
0.0
 11
94.426336209300004
 21
72.640345768000003
 31
0.0
 12
94.818365603599986
 22
70.643613949799999
 32
0.0
 13
94.818365603599986
 23
70.643613949799999
 33
0.0
  0
INSERT
  5
26D
  8
0
  2
*U40
 10
0.0
 20
0.0
 30
0.0
  0
LINE
  5
26E
  8
NOTES
  6
CONTINUOUS
 62
     1
 10
94.664670299199997
 20
86.450621980899996
 30
0.0
 11
106.0013538625
 21
122.20742980510001
 31
0.0
  0
LINE
  5
26F
  8
NOTES
  6
CONTINUOUS
 62
     1
 10
106.0013538625
 20
122.20742980510001
 30
0.0
 11
108.23471558830001
 21
122.20742980510001
 31
0.0
  0
SOLID
  5
270
  8
NOTES
  6
CONTINUOUS
 62
     1
 10
94.911653371900002
 20
88.470429982099986
 30
0.0
 11
94.664670299199997
 21
86.450621980899996
 31
0.0
 12
95.626581193799993
 22
88.243762363199991
 32
0.0
 13
95.626581193799993
 23
88.243762363199991
 33
0.0
  0
INSERT
  5
271
  8
0
  2
*U41
 10
0.0
 20
0.0
 30
0.0
  0
LINE
  5
272
  8
NOTES
  6
CONTINUOUS
 62
     1
 10
93.886859375
 20
80.016887508300002
 30
0.0
 11
87.028915764699988
 21
107.1245576914
 31
0.0
  0
LINE
  5
273
  8
NOTES
  6
CONTINUOUS
 62
     1
 10
87.028915764699988
 20
107.1245576914
 30
0.0
 11
83.602749999999986
 21
107.1245576914
 31
0.0
  0
SOLID
  5
274
  8
NOTES
  6
CONTINUOUS
 62
     1
 10
93.032789135900003
 20
81.863827958500011
 30
0.0
 11
93.886859375
 21
80.016887508300002
 31
0.0
 12
93.759881768100001
 22
82.047774429599997
 32
0.0
 13
93.759881768100001
 23
82.047774429599997
 33
0.0
  0
LINE
  5
275
  8
NOTES
  6
CONTINUOUS
 62
     1
 10
0.0
 20
0.0
 30
0.0
 11
0.0
 21
36.494440873199999
 31
0.0
  0
LINE
  5
276
  8
SERVCLEAR
  6
CENTER
 62
     1
 10
0.0
 20
66.416273544299983
 30
0.0
 11
0.0
 21
99.791273544299997
 31
0.0
  0
LINE
  5
277
  8
0
  6
CONTINUOUS
 62
     7
 10
0.0
 20
0.0
 30
0.0
 11
0.0
 21
150.0
 31
0.0
  0
LINE
  5
278
  8
SERVCLRDIM
  6
CONTINUOUS
 62
     1
 10
1.875
 20
94.902132544300017
 30
0.0
 11
1.875
 21
94.277132544300017
 31
0.0
  0
LINE
  5
279
  8
0
  6
CONTINUOUS
 62
     7
 10
0.0
 20
0.0
 30
0.0
 11
175.0
 21
0.0
 31
0.0
  0
LINE
  5
27A
  8
NOTES
  6
CONTINUOUS
 62
     1
 10
0.0
 20
0.0
 30
0.0
 11
48.0
 21
0.0
 31
0.0
  0
LINE
  5
27B
  8
NOTES
  6
CONTINUOUS
 62
     1
 10
16.0
 20
12.4980961895
 30
0.0
 11
16.0
 21
36.494440873199999
 31
0.0
  0
LINE
  5
27C
  8
NOTES
  6
CONTINUOUS
 62
     1
 10
0.0
 20
3.9993907806000002
 30
0.0
 11
48.0
 21
3.9993907806000002
 31
0.0
  0
LINE
  5
27D
  8
NOTES
  6
CONTINUOUS
 62
     1
 10
0.0
 20
4.4993146281999987
 30
0.0
 11
48.0
 21
4.4993146281999987
 31
0.0
  0
LINE
  5
27E
  8
NOTES
  6
CONTINUOUS
 62
     1
 10
0.0
 20
8.4987054087999994
 30
0.0
 11
48.0
 21
8.4987054087999994
 31
0.0
  0
LINE
  5
27F
  8
NOTES
  6
CONTINUOUS
 62
     1
 10
0.0
 20
12.4980961895
 30
0.0
 11
48.0
 21
12.4980961895
 31
0.0
  0
LINE
  5
280
  8
UNIT-DIM
  6
CONTINUOUS
 62
     7
 10
29.7622292422
 20
99.714026541600006
 30
0.0
 11
29.7622292422
 21
91.020276541599998
 31
0.0
  0
LINE
  5
281
  8
UNIT-DIM
  6
CONTINUOUS
 62
     7
 10
29.7622292422
 20
66.793146541599995
 30
0.0
 11
29.7622292422
 21
83.424396541600004
 31
0.0
  0
LINE
  5
282
  8
UNIT-DIM
  6
CONTINUOUS
 62
     7
 10
29.7622292422
 20
99.666273541599992
 30
0.0
 11
29.4497292422
 21
97.791273541599992
 31
0.0
  0
LINE
  5
283
  8
UNIT-DIM
  6
CONTINUOUS
 62
     7
 10
30.0747292422
 20
68.291273541599992
 30
0.0
 11
29.7622292422
 21
66.416273541599992
 31
0.0
  0
LINE
  5
284
  8
NOTES
  6
CONTINUOUS
 62
     1
 10
0.0
 20
16.497486970099999
 30
0.0
 11
48.0
 21
16.497486970099999
 31
0.0
  0
LINE
  5
285
  8
UNIT-DIM
  6
CONTINUOUS
 62
     7
 10
29.7622292422
 20
66.416273541599992
 30
0.0
 11
29.4497292422
 21
68.291273541599992
 31
0.0
  0
LINE
  5
286
  8
SERVCLRDIM
  6
CONTINUOUS
 62
     1
 10
34.125
 20
94.902132544300017
 30
0.0
 11
34.125
 21
94.277132544300017
 31
0.0
  0
LINE
  5
287
  8
SERVCLEAR
  6
CENTER
 62
     1
 10
36.0
 20
66.416273544299983
 30
0.0
 11
36.0
 21
99.791273544299997
 31
0.0
  0
LINE
  5
288
  8
NOTES
  6
CONTINUOUS
 62
     1
 10
0.0
 20
20.496877750700001
 30
0.0
 11
48.0
 21
20.496877750700001
 31
0.0
  0
LINE
  5
289
  8
NOTES
  6
CONTINUOUS
 62
     1
 10
0.0
 20
24.4962685313
 30
0.0
 11
48.0
 21
24.4962685313
 31
0.0
  0
LINE
  5
28A
  8
UNIT-DIM
  6
CONTINUOUS
 62
     7
 10
30.0747292422
 20
97.791273541599992
 30
0.0
 11
29.7622292422
 21
99.666273541599992
 31
0.0
  0
LINE
  5
28B
  8
NOTES
  6
CONTINUOUS
 62
     1
 10
0.0
 20
28.495659312000001
 30
0.0
 11
48.0
 21
28.495659312000001
 31
0.0
  0
LINE
  5
28C
  8
HOOD
  6
CONTINUOUS
 62
     7
 10
36.0
 20
81.820246642699999
 30
0.0
 11
36.076590733300002
 21
81.561988355600008
 31
0.0
  0
LINE
  5
28D
  8
HOOD
  6
CONTINUOUS
 62
     7
 10
36.025293337400001
 20
81.827747796899985
 30
0.0
 11
36.101884070700002
 21
81.569489509899995
 31
0.0
  0
LINE
  5
28E
  8
HOOD
  6
CONTINUOUS
 62
     7
 10
36.3178047623
 20
81.969532715999989
 30
0.0
 11
36.325305916600001
 21
81.944239378599988
 31
0.0
  0
LINE
  5
28F
  8
SERVCLRDIM
  6
CONTINUOUS
 62
     1
 10
47.402478658299991
 20
76.3486753416
 30
0.0
 11
47.402478658299991
 21
70.976273541599994
 31
0.0
  0
LINE
  5
290
  8
SERVCLRDIM
  6
CONTINUOUS
 62
     1
 10
47.402478658299991
 20
66.416273541599992
 30
0.0
 11
47.402478658299991
 21
56.498129541600001
 31
0.0
  0
LINE
  5
291
  8
NOTES
  6
CONTINUOUS
 62
     1
 10
48.0
 20
0.0
 30
0.0
 11
48.0
 21
36.494440873199999
 31
0.0
  0
LINE
  5
292
  8
SERVCLRDIM
  6
CONTINUOUS
 62
     1
 10
47.735812658299992
 20
72.976273541599994
 30
0.0
 11
47.402478658299991
 21
70.976273541599994
 31
0.0
  0
LINE
  5
293
  8
SERVCLRDIM
  6
CONTINUOUS
 62
     1
 10
47.402478658299991
 20
66.416273541599992
 30
0.0
 11
47.069146658299999
 21
64.416273541599992
 31
0.0
  0
LINE
  5
294
  8
NOTES
  6
CONTINUOUS
 62
     1
 10
0.0
 20
32.495050092600003
 30
0.0
 11
48.0
 21
32.495050092600003
 31
0.0
  0
LINE
  5
295
  8
NOTES
  6
CONTINUOUS
 62
     1
 10
0.0
 20
36.494440873199999
 30
0.0
 11
48.0
 21
36.494440873199999
 31
0.0
  0
LINE
  5
296
  8
CURB-14-DIM
  6
CONTINUOUS
 62
     6
 10
56.877577242199997
 20
39.256796541599989
 30
0.0
 11
55.002577242199997
 21
39.569296541599989
 31
0.0
  0
LINE
  5
297
  8
CURB-24-DIM
  6
CONTINUOUS
 62
     6
 10
56.877577242199997
 20
39.256796541599989
 30
0.0
 11
55.002577242199997
 21
39.569296541599989
 31
0.0
  0
LINE
  5
298
  8
HOOD
  6
CONTINUOUS
 62
     7
 10
45.148235794099989
 20
71.301814313199998
 30
0.0
 11
39.513222190900002
 21
82.237203715699991
 31
0.0
  0
LINE
  5
299
  8
SERVCLRDIM
  6
CONTINUOUS
 62
     1
 10
47.735812658299992
 20
64.416273541599992
 30
0.0
 11
47.402478658299991
 21
66.416273541599992
 31
0.0
  0
LINE
  5
29A
  8
SERVCLRDIM
  6
CONTINUOUS
 62
     1
 10
47.402478658299991
 20
70.976273541599994
 30
0.0
 11
47.069146658299999
 21
72.976273541599994
 31
0.0
  0
POLYLINE
  5
29B
  8
UNIT-SOL
  6
CONTINUOUS
 62
     7
 66
     1
 10
0.0
 20
0.0
 30
0.0
 40
0.15
 41
0.15
  0
VERTEX
  5
443
  8
UNIT-SOL
  6
CONTINUOUS
 62
     7
 10
52.002577242199997
 20
99.791273541599992
 30
0.0
  0
VERTEX
  5
444
  8
UNIT-SOL
  6
CONTINUOUS
 62
     7
 10
52.002577242199997
 20
66.416273541599992
 30
0.0
  0
SEQEND
  5
445
  8
UNIT-SOL
  6
CONTINUOUS
 62
     7
  0
LINE
  5
29F
  8
UNIT-DIM
  6
CONTINUOUS
 62
     7
 10
52.002577242199997
 20
100.72877354160001
 30
0.0
 11
52.002577242199997
 21
114.51832176790001
 31
0.0
  0
LINE
  5
2A0
  8
UNIT-DIM
  6
CONTINUOUS
 62
     7
 10
53.877577242199997
 20
113.4597530324
 30
0.0
 11
53.877577242199997
 21
112.8347530324
 31
0.0
  0
LINE
  5
2A1
  8
CURB-14-DIM
  6
CONTINUOUS
 62
     6
 10
55.002577242199997
 20
69.041273541599992
 30
0.0
 11
55.002577242199997
 21
38.319296541599989
 31
0.0
  0
LINE
  5
2A2
  8
CURB-24-DIM
  6
CONTINUOUS
 62
     6
 10
55.002577242199997
 20
69.041273541599992
 30
0.0
 11
55.002577242199997
 21
38.319296541599989
 31
0.0
  0
LINE
  5
2A3
  8
CURB-14
  6
HIDDEN
 62
     8
 10
55.002577242199997
 20
69.978773541599992
 30
0.0
 11
55.002577242199997
 21
70.978773541599992
 31
0.0
  0
LINE
  5
2A4
  8
CURB-24
  6
HIDDEN
 62
     8
 10
55.002577242199997
 20
69.978773541599992
 30
0.0
 11
55.002577242199997
 21
70.978773541599992
 31
0.0
  0
LINE
  5
2A5
  8
CURB-14-DIM
  6
CONTINUOUS
 62
     6
 10
56.877577242199997
 20
39.881796541599989
 30
0.0
 11
56.877577242199997
 21
39.256796541599989
 31
0.0
  0
LINE
  5
2A6
  8
CURB-24-DIM
  6
CONTINUOUS
 62
     6
 10
56.877577242199997
 20
39.881796541599989
 30
0.0
 11
56.877577242199997
 21
39.256796541599989
 31
0.0
  0
LINE
  5
2A7
  8
CURB-24
  6
HIDDEN
 62
     8
 10
57.221327242199997
 20
69.978773541599992
 30
0.0
 11
57.221327242199997
 21
66.416273541599992
 31
0.0
  0
LINE
  5
2A8
  8
CURB-14
  6
HIDDEN
 62
     8
 10
57.221327242199997
 20
69.978773541599992
 30
0.0
 11
57.221327242199997
 21
66.573074541599993
 31
0.0
  0
POLYLINE
  5
2A9
  8
CURB-24
  6
CONTINUOUS
 62
     6
 66
     1
 10
0.0
 20
0.0
 30
0.0
 40
0.15
 41
0.15
  0
VERTEX
  5
446
  8
CURB-24
  6
CONTINUOUS
 62
     6
 10
57.221327242199997
 20
66.260629541599997
 30
0.0
  0
VERTEX
  5
447
  8
CURB-24
  6
CONTINUOUS
 62
     6
 10
57.221327242199997
 20
46.978773541599999
 30
0.0
  0
SEQEND
  5
448
  8
CURB-24
  6
CONTINUOUS
 62
     6
  0
POLYLINE
  5
2AD
  8
CURB-14
  6
CONTINUOUS
 62
     6
 66
     1
 10
0.0
 20
0.0
 30
0.0
 40
0.15
 41
0.15
  0
VERTEX
  5
449
  8
CURB-14
  6
CONTINUOUS
 62
     6
 10
57.221327242199997
 20
66.260629541599997
 30
0.0
  0
VERTEX
  5
44A
  8
CURB-14
  6
CONTINUOUS
 62
     6
 10
57.221327242199997
 20
56.978773541599999
 30
0.0
  0
SEQEND
  5
44B
  8
CURB-14
  6
CONTINUOUS
 62
     6
  0
LINE
  5
2B1
  8
CURB-14-DIM
  6
CONTINUOUS
 62
     6
 10
93.815077242199976
 20
39.256796541599989
 30
0.0
 11
95.690077242199976
 21
39.569296541599989
 31
0.0
  0
LINE
  5
2B2
  8
CURB-24-DIM
  6
CONTINUOUS
 62
     6
 10
93.815077242199976
 20
39.256796541599989
 30
0.0
 11
95.690077242199976
 21
39.569296541599989
 31
0.0
  0
LINE
  5
2B3
  8
CURB-14-DIM
  6
CONTINUOUS
 62
     6
 10
95.690077242199976
 20
39.569296541599989
 30
0.0
 11
83.631428170000007
 21
39.569296541599989
 31
0.0
  0
LINE
  5
2B4
  8
CURB-24-DIM
  6
CONTINUOUS
 62
     6
 10
93.815077242199976
 20
39.569296541599989
 30
0.0
 11
83.631428170000007
 21
39.569296541599989
 31
0.0
  0
LINE
  5
2B5
  8
CURB-14-DIM
  6
CONTINUOUS
 62
     6
 10
55.002577242199997
 20
39.569296541599989
 30
0.0
 11
68.744890535600007
 21
39.569296541599989
 31
0.0
  0
LINE
  5
2B6
  8
CURB-24-DIM
  6
CONTINUOUS
 62
     6
 10
57.252577242199997
 20
39.569296541599989
 30
0.0
 11
68.744890535600007
 21
39.569296541599989
 31
0.0
  0
LINE
  5
2B7
  8
CURB-14-DIM
  6
CONTINUOUS
 62
     6
 10
95.690077242199976
 20
39.569296541599989
 30
0.0
 11
93.815077242199976
 21
39.881796541599989
 31
0.0
  0
LINE
  5
2B8
  8
CURB-24-DIM
  6
CONTINUOUS
 62
     6
 10
95.690077242199976
 20
39.569296541599989
 30
0.0
 11
93.815077242199976
 21
39.881796541599989
 31
0.0
  0
LINE
  5
2B9
  8
HOOD
  6
CONTINUOUS
 62
     7
 10
36.134678562399998
 20
81.55169732680001
 30
0.0
 11
52.002577242199997
 21
87.666273541599978
 31
0.0
  0
LINE
  5
2BA
  8
CURB-14-DIM
  6
CONTINUOUS
 62
     6
 10
55.002577242199997
 20
39.569296541599989
 30
0.0
 11
56.877577242199997
 21
39.881796541599989
 31
0.0
  0
LINE
  5
2BB
  8
CURB-24-DIM
  6
CONTINUOUS
 62
     6
 10
55.002577242199997
 20
39.569296541599989
 30
0.0
 11
56.877577242199997
 21
39.881796541599989
 31
0.0
  0
POLYLINE
  5
2BC
  8
CURB-24
  6
CONTINUOUS
 62
     6
 66
     1
 10
0.0
 20
0.0
 30
0.0
 40
0.15
 41
0.15
  0
VERTEX
  5
44C
  8
CURB-24
  6
CONTINUOUS
 62
     6
 10
54.221327242199997
 20
46.978773541599999
 30
0.0
  0
VERTEX
  5
44D
  8
CURB-24
  6
CONTINUOUS
 62
     6
 10
97.22132724219999
 20
46.978773541599999
 30
0.0
  0
SEQEND
  5
44E
  8
CURB-24
  6
CONTINUOUS
 62
     6
  0
LINE
  5
2C0
  8
CURB-24-DIM
  6
CONTINUOUS
 62
     6
 10
97.973391208500004
 20
46.978773541599999
 30
0.0
 11
115.811728612
 21
46.978773541599999
 31
0.0
  0
LINE
  5
2C1
  8
CURB-24-DIM
  6
CONTINUOUS
 62
     6
 10
114.1257639602
 20
48.853773541599999
 30
0.0
 11
114.7507639602
 21
48.853773541599999
 31
0.0
  0
LINE
  5
2C2
  8
HOOD
  6
CONTINUOUS
 62
     7
 10
36.3178047623
 20
81.969532715999989
 30
0.0
 11
36.035584366199998
 21
81.885835625999988
 31
0.0
  0
LINE
  5
2C3
  8
HOOD
  6
CONTINUOUS
 62
     7
 10
36.0430855205
 20
81.860542288599987
 30
0.0
 11
36.325305916600001
 21
81.944239378599988
 31
0.0
  0
LINE
  5
2C4
  8
HOOD
  6
CONTINUOUS
 62
     7
 10
36.142179716699999
 20
81.526403989399995
 30
0.0
 11
36.599789439200009
 21
81.6621156625
 31
0.0
  0
LINE
  5
2C5
  8
HOOD
  6
CONTINUOUS
 62
     7
 10
39.513222190900002
 20
82.237203715699991
 30
0.0
 11
36.944131601800002
 21
81.475297740000002
 31
0.0
  0
LINE
  5
2C6
  8
SERVCLRDIM
  6
CONTINUOUS
 62
     1
 10
47.402478658299991
 20
56.498129541600001
 30
0.0
 11
44.358197658299993
 21
56.498129541600001
 31
0.0
  0
POLYLINE
  5
2C7
  8
CURB-14
  6
CONTINUOUS
 62
     6
 66
     1
 10
0.0
 20
0.0
 30
0.0
 40
0.15
 41
0.15
  0
VERTEX
  5
44F
  8
CURB-14
  6
CONTINUOUS
 62
     6
 10
54.221327242199997
 20
56.978773541599999
 30
0.0
  0
VERTEX
  5
450
  8
CURB-14
  6
CONTINUOUS
 62
     6
 10
97.22132724219999
 20
56.978773541599999
 30
0.0
  0
SEQEND
  5
451
  8
CURB-14
  6
CONTINUOUS
 62
     6
  0
LINE
  5
2CB
  8
CURB-14-DIM
  6
CONTINUOUS
 62
     6
 10
97.973391208500004
 20
56.978773541599999
 30
0.0
 11
108.90921009349999
 21
56.978773541599999
 31
0.0
  0
LINE
  5
2CC
  8
HOOD
  6
CONTINUOUS
 62
     7
 10
36.944131601800002
 20
81.475297740000002
 30
0.0
 11
36.5997894391
 21
81.6621156625
 31
0.0
  0
LINE
  5
2CD
  8
CURB-14-DIM
  6
CONTINUOUS
 62
     6
 10
107.21244413789999
 20
58.853773541599999
 30
0.0
 11
107.83744413789999
 21
58.853773541599999
 31
0.0
  0
LINE
  5
2CE
  8
SERVCLRDIM
  6
CONTINUOUS
 62
     1
 10
47.069146658299999
 20
64.416273541599992
 30
0.0
 11
47.735812658299992
 21
64.416273541599992
 31
0.0
  0
LINE
  5
2CF
  8
SERVCLEAR
  6
CENTER
 62
     1
 10
149.73995682969999
 20
66.416273545199999
 30
0.0
 11
101.73995682970001
 21
66.416273545199999
 31
0.0
  0
LINE
  5
2D0
  8
UNIT-DIM
  6
CONTINUOUS
 62
     7
 10
55.815077242199997
 20
66.416273541599992
 30
0.0
 11
28.5122292422
 21
66.416273541599992
 31
0.0
  0
LINE
  5
2D1
  8
SERVCLEAR
  6
CENTER
 62
     1
 10
36.0
 20
66.416273544299983
 30
0.0
 11
0.0
 21
66.416273544299983
 31
0.0
  0
POLYLINE
  5
2D2
  8
UNIT-SOL
  6
CONTINUOUS
 62
     7
 66
     1
 10
0.0
 20
0.0
 30
0.0
 40
0.15
 41
0.15
  0
VERTEX
  5
452
  8
UNIT-SOL
  6
CONTINUOUS
 62
     7
 10
52.002577242199997
 20
66.416273541599992
 30
0.0
  0
VERTEX
  5
453
  8
UNIT-SOL
  6
CONTINUOUS
 62
     7
 10
98.75257724219999
 20
66.416273541599992
 30
0.0
  0
SEQEND
  5
454
  8
UNIT-SOL
  6
CONTINUOUS
 62
     7
  0
LINE
  5
2D6
  8
UNIT-DIM
  6
CONTINUOUS
 62
     7
 10
29.4497292422
 20
68.291273541599992
 30
0.0
 11
30.0747292422
 21
68.291273541599992
 31
0.0
  0
LINE
  5
2D7
  8
CURB-14-DIM
  6
CONTINUOUS
 62
     6
 10
107.21244413789999
 20
69.103773541599992
 30
0.0
 11
107.83744413789999
 21
69.103773541599992
 31
0.0
  0
LINE
  5
2D8
  8
CURB-24-DIM
  6
CONTINUOUS
 62
     6
 10
114.1257639602
 20
69.103773541599992
 30
0.0
 11
114.7507639602
 21
69.103773541599992
 31
0.0
  0
POLYLINE
  5
2D9
  8
UNIT-SOL
  6
CONTINUOUS
 62
     7
 66
     1
 10
0.0
 20
0.0
 30
0.0
 40
0.15
 41
0.15
  0
VERTEX
  5
455
  8
UNIT-SOL
  6
CONTINUOUS
 62
     7
 10
86.25257724219999
 20
66.416273541599992
 30
0.0
  0
VERTEX
  5
456
  8
UNIT-SOL
  6
CONTINUOUS
 62
     7
 10
86.25257724219999
 20
99.791273541599992
 30
0.0
  0
SEQEND
  5
457
  8
UNIT-SOL
  6
CONTINUOUS
 62
     7
  0
LINE
  5
2DD
  8
CURB-14
  6
HIDDEN
 62
     8
 10
95.690077242199976
 20
69.978773541599992
 30
0.0
 11
55.002577242199997
 21
69.978773541599992
 31
0.0
  0
LINE
  5
2DE
  8
CURB-24
  6
HIDDEN
 62
     8
 10
95.690077242199976
 20
69.978773541599992
 30
0.0
 11
55.002577242199997
 21
69.978773541599992
 31
0.0
  0
LINE
  5
2DF
  8
SERVCLRDIM
  6
CONTINUOUS
 62
     1
 10
53.991244584200011
 20
70.976273541599994
 30
0.0
 11
46.161122020400001
 21
70.976273541599994
 31
0.0
  0
LINE
  5
2E0
  8
CURB-14
  6
HIDDEN
 62
     8
 10
55.002577242199997
 20
70.978773541599992
 30
0.0
 11
95.690077242199976
 21
70.978773541599992
 31
0.0
  0
LINE
  5
2E1
  8
CURB-24
  6
HIDDEN
 62
     8
 10
55.002577242199997
 20
70.978773541599992
 30
0.0
 11
95.690077242199976
 21
70.978773541599992
 31
0.0
  0
LINE
  5
2E2
  8
CURB-14-DIM
  6
CONTINUOUS
 62
     6
 10
96.360547457400003
 20
70.978773541599992
 30
0.0
 11
108.90921009349999
 21
70.978773541599992
 31
0.0
  0
LINE
  5
2E3
  8
CURB-24-DIM
  6
CONTINUOUS
 62
     6
 10
96.360547457400003
 20
70.978773541599992
 30
0.0
 11
115.811728612
 21
70.978773541599992
 31
0.0
  0
LINE
  5
2E4
  8
HOOD
  6
CONTINUOUS
 62
     7
 10
52.002577242199997
 20
71.301814313199998
 30
0.0
 11
45.148235794099989
 21
71.301814313199998
 31
0.0
  0
LINE
  5
2E5
  8
SERVCLRDIM
  6
CONTINUOUS
 62
     1
 10
47.069146658299999
 20
72.976273541599994
 30
0.0
 11
47.735812658299992
 21
72.976273541599994
 31
0.0
  0
LINE
  5
2E6
  8
UNIT-SOL
  6
CONTINUOUS
 62
     7
 10
92.7992068856
 20
76.428791508299994
 30
0.0
 11
92.7992068856
 21
80.016887508300002
 31
0.0
  0
LINE
  5
2E7
  8
CURB-14-DIM
  6
CONTINUOUS
 62
     6
 10
93.815077242199976
 20
39.881796541599989
 30
0.0
 11
93.815077242199976
 21
39.256796541599989
 31
0.0
  0
LINE
  5
2E8
  8
CURB-24-DIM
  6
CONTINUOUS
 62
     6
 10
93.815077242199976
 20
39.881796541599989
 30
0.0
 11
93.815077242199976
 21
39.256796541599989
 31
0.0
  0
LINE
  5
2E9
  8
CURB-24
  6
HIDDEN
 62
     8
 10
93.84632724219999
 20
69.978773541599992
 30
0.0
 11
93.84632724219999
 21
66.416273541599992
 31
0.0
  0
LINE
  5
2EA
  8
CURB-14
  6
HIDDEN
 62
     8
 10
93.84632724219999
 20
69.978773541599992
 30
0.0
 11
93.84632724219999
 21
66.573074541599993
 31
0.0
  0
POLYLINE
  5
2EB
  8
CURB-24
  6
CONTINUOUS
 62
     6
 66
     1
 10
0.0
 20
0.0
 30
0.0
 40
0.15
 41
0.15
  0
VERTEX
  5
458
  8
CURB-24
  6
CONTINUOUS
 62
     6
 10
93.84632724219999
 20
66.260629541599997
 30
0.0
  0
VERTEX
  5
459
  8
CURB-24
  6
CONTINUOUS
 62
     6
 10
93.84632724219999
 20
46.978773541599999
 30
0.0
  0
SEQEND
  5
45A
  8
CURB-24
  6
CONTINUOUS
 62
     6
  0
POLYLINE
  5
2EF
  8
CURB-14
  6
CONTINUOUS
 62
     6
 66
     1
 10
0.0
 20
0.0
 30
0.0
 40
0.15
 41
0.15
  0
VERTEX
  5
45B
  8
CURB-14
  6
CONTINUOUS
 62
     6
 10
93.84632724219999
 20
66.260629541599997
 30
0.0
  0
VERTEX
  5
45C
  8
CURB-14
  6
CONTINUOUS
 62
     6
 10
93.84632724219999
 20
56.978773541599999
 30
0.0
  0
SEQEND
  5
45D
  8
CURB-14
  6
CONTINUOUS
 62
     6
  0
LINE
  5
2F3
  8
UNIT-SOL
  6
CONTINUOUS
 62
     7
 10
95.404262885599991
 20
76.428791508299994
 30
0.0
 11
92.7992068856
 21
76.428791508299994
 31
0.0
  0
LINE
  5
2F4
  8
UNIT-SOL
  6
CONTINUOUS
 62
     7
 10
92.7992068856
 20
80.016887508300002
 30
0.0
 11
95.404262885599991
 21
80.016887508300002
 31
0.0
  0
LINE
  5
2F5
  8
UNIT-SOL
  6
CONTINUOUS
 62
     7
 10
100.90620209479999
 20
80.689374431600015
 30
0.0
 11
98.75257724219999
 21
80.689374431299996
 31
0.0
  0
LINE
  5
2F6
  8
SERVCLRDIM
  6
CONTINUOUS
 62
     1
 10
1.875
 20
94.277132544300017
 30
0.0
 11
0.0
 21
94.589632544300017
 31
0.0
  0
LINE
  5
2F7
  8
UNIT-SOL
  6
CONTINUOUS
 62
     7
 10
95.404262885599991
 20
80.016887508300002
 30
0.0
 11
95.404262885599991
 21
76.428791508299994
 31
0.0
  0
LINE
  5
2F8
  8
CURB-14
  6
HIDDEN
 62
     8
 10
95.690077242199976
 20
70.978773541599992
 30
0.0
 11
95.690077242199976
 21
69.978773541599992
 31
0.0
  0
LINE
  5
2F9
  8
CURB-24
  6
HIDDEN
 62
     8
 10
95.690077242199976
 20
70.978773541599992
 30
0.0
 11
95.690077242199976
 21
69.978773541599992
 31
0.0
  0
LINE
  5
2FA
  8
CURB-14-DIM
  6
CONTINUOUS
 62
     6
 10
95.690077242199976
 20
69.041273541599992
 30
0.0
 11
95.690077242199976
 21
38.319296541599989
 31
0.0
  0
LINE
  5
2FB
  8
CURB-24-DIM
  6
CONTINUOUS
 62
     6
 10
95.690077242199976
 20
69.041273541599992
 30
0.0
 11
95.690077242199976
 21
38.319296541599989
 31
0.0
  0
LINE
  5
2FC
  8
UNIT-DIM
  6
CONTINUOUS
 62
     7
 10
96.87757724219999
 20
113.4597530324
 30
0.0
 11
96.87757724219999
 21
112.8347530324
 31
0.0
  0
POLYLINE
  5
2FD
  8
UNIT-SOL
  6
CONTINUOUS
 62
     7
 66
     1
 10
0.0
 20
0.0
 30
0.0
 40
0.15
 41
0.15
  0
VERTEX
  5
45E
  8
UNIT-SOL
  6
CONTINUOUS
 62
     7
 10
98.75257724219999
 20
66.416273541599992
 30
0.0
  0
VERTEX
  5
45F
  8
UNIT-SOL
  6
CONTINUOUS
 62
     7
 10
98.75257724219999
 20
99.791273541599992
 30
0.0
  0
SEQEND
  5
460
  8
UNIT-SOL
  6
CONTINUOUS
 62
     7
  0
LINE
  5
301
  8
UNIT-DIM
  6
CONTINUOUS
 62
     7
 10
98.75257724219999
 20
100.72877354160001
 30
0.0
 11
98.75257724219999
 21
114.51832176790001
 31
0.0
  0
LINE
  5
302
  8
UNIT-SOL
  6
CONTINUOUS
 62
     7
 10
101.73995682970001
 20
84.007934750499984
 30
0.0
 11
100.90620209479999
 21
80.689374431600015
 31
0.0
  0
LINE
  5
303
  8
SERVCLRDIM
  6
CONTINUOUS
 62
     1
 10
147.86495682969999
 20
94.277796171499986
 30
0.0
 11
149.73995682969999
 21
94.590296171499986
 31
0.0
  0
LINE
  5
304
  8
UNIT-SOL
  6
CONTINUOUS
 62
     7
 10
98.752577241699996
 20
84.007934750100006
 30
0.0
 11
101.73995682970001
 21
84.007934750499984
 31
0.0
  0
LINE
  5
305
  8
SERVCLRDIM
  6
CONTINUOUS
 62
     1
 10
36.0
 20
94.589632544300017
 30
0.0
 11
34.125
 21
94.902132544300017
 31
0.0
  0
LINE
  5
306
  8
SERVCLEAR
  6
CENTER
 62
     1
 10
101.73995682970001
 20
66.416273545199999
 30
0.0
 11
101.73995682970001
 21
99.791273545199999
 31
0.0
  0
LINE
  5
307
  8
SERVCLRDIM
  6
CONTINUOUS
 62
     1
 10
103.61495682970001
 20
94.902796171499986
 30
0.0
 11
103.61495682970001
 21
94.277796171499986
 31
0.0
  0
LINE
  5
308
  8
SERVCLRDIM
  6
CONTINUOUS
 62
     1
 10
101.73995682970001
 20
94.590296171499986
 30
0.0
 11
103.61495682970001
 21
94.902796171499986
 31
0.0
  0
LINE
  5
309
  8
CURB-14-DIM
  6
CONTINUOUS
 62
     6
 10
107.52494413789999
 20
56.978773541599999
 30
0.0
 11
107.21244413789999
 21
58.853773541599999
 31
0.0
  0
LINE
  5
30A
  8
CURB-14-DIM
  6
CONTINUOUS
 62
     6
 10
107.83744413789999
 20
69.103773541599992
 30
0.0
 11
107.52494413789999
 21
70.978773541599992
 31
0.0
  0
LINE
  5
30B
  8
CURB-14-DIM
  6
CONTINUOUS
 62
     6
 10
107.52494413789999
 20
70.978773541599992
 30
0.0
 11
107.52494413789999
 21
67.106064541599991
 31
0.0
  0
LINE
  5
30C
  8
CURB-14-DIM
  6
CONTINUOUS
 62
     6
 10
107.52494413789999
 20
57.876482541599998
 30
0.0
 11
107.52494413789999
 21
60.851482541599992
 31
0.0
  0
LINE
  5
30D
  8
CURB-14-DIM
  6
CONTINUOUS
 62
     6
 10
107.52494413789999
 20
70.978773541599992
 30
0.0
 11
107.21244413789999
 21
69.103773541599992
 31
0.0
  0
LINE
  5
30E
  8
CURB-14-DIM
  6
CONTINUOUS
 62
     6
 10
107.83744413789999
 20
58.853773541599999
 30
0.0
 11
107.52494413789999
 21
56.978773541599999
 31
0.0
  0
LINE
  5
30F
  8
SERVCLRDIM
  6
CONTINUOUS
 62
     1
 10
36.0
 20
94.714632544300002
 30
0.0
 11
20.270833
 21
94.714632544300002
 31
0.0
  0
LINE
  5
310
  8
SERVCLRDIM
  6
CONTINUOUS
 62
     1
 10
0.0
 20
94.714632544300002
 30
0.0
 11
15.729165999999999
 21
94.714632544300002
 31
0.0
  0
LINE
  5
311
  8
SERVCLRDIM
  6
CONTINUOUS
 62
     1
 10
149.73995682969999
 20
94.7152961715
 30
0.0
 11
124.56581589069999
 21
94.7152961715
 31
0.0
  0
LINE
  5
312
  8
SERVCLRDIM
  6
CONTINUOUS
 62
     1
 10
101.73995682970001
 20
94.7152961715
 30
0.0
 11
119.4898158907
 21
94.7152961715
 31
0.0
  0
LINE
  5
313
  8
UNIT-DIM
  6
CONTINUOUS
 62
     7
 10
29.4497292422
 20
97.791273541599992
 30
0.0
 11
30.0747292422
 21
97.791273541599992
 31
0.0
  0
POLYLINE
  5
314
  8
UNIT-SOL
  6
CONTINUOUS
 62
     7
 66
     1
 10
0.0
 20
0.0
 30
0.0
 40
0.15
 41
0.15
  0
VERTEX
  5
461
  8
UNIT-SOL
  6
CONTINUOUS
 62
     7
 10
98.75257724219999
 20
99.791273541599992
 30
0.0
  0
VERTEX
  5
462
  8
UNIT-SOL
  6
CONTINUOUS
 62
     7
 10
52.002577242199997
 20
99.791273541599992
 30
0.0
  0
SEQEND
  5
463
  8
UNIT-SOL
  6
CONTINUOUS
 62
     7
  0
LINE
  5
318
  8
UNIT-DIM
  6
CONTINUOUS
 62
     7
 10
55.815077242199997
 20
99.791273541599992
 30
0.0
 11
28.5122292422
 21
99.791273541599992
 31
0.0
  0
LINE
  5
319
  8
SERVCLEAR
  6
CENTER
 62
     1
 10
0.0
 20
99.791273544299997
 30
0.0
 11
36.0
 21
99.791273544299997
 31
0.0
  0
LINE
  5
31A
  8
SERVCLEAR
  6
CENTER
 62
     1
 10
101.73995682970001
 20
99.791273545199999
 30
0.0
 11
149.73995682969999
 21
99.791273545199999
 31
0.0
  0
LINE
  5
31B
  8
SERVCLRDIM
  6
CONTINUOUS
 62
     1
 10
103.61495682970001
 20
94.277796171499986
 30
0.0
 11
101.73995682970001
 21
94.590296171499986
 31
0.0
  0
LINE
  5
31C
  8
CURB-24-DIM
  6
CONTINUOUS
 62
     6
 10
114.4382639602
 20
46.978773541599999
 30
0.0
 11
114.1257639602
 21
48.853773541599999
 31
0.0
  0
LINE
  5
31D
  8
CURB-24-DIM
  6
CONTINUOUS
 62
     6
 10
114.4382639602
 20
70.348182541599996
 30
0.0
 11
114.4382639602
 21
62.373182541599988
 31
0.0
  0
LINE
  5
31E
  8
CURB-24-DIM
  6
CONTINUOUS
 62
     6
 10
114.4382639602
 20
47.609364541600002
 30
0.0
 11
114.4382639602
 21
55.584364541599989
 31
0.0
  0
LINE
  5
31F
  8
CURB-24-DIM
  6
CONTINUOUS
 62
     6
 10
114.4382639602
 20
70.978773541599992
 30
0.0
 11
114.1257639602
 21
69.103773541599992
 31
0.0
  0
LINE
  5
320
  8
CURB-24-DIM
  6
CONTINUOUS
 62
     6
 10
114.7507639602
 20
48.853773541599999
 30
0.0
 11
114.4382639602
 21
46.978773541599999
 31
0.0
  0
LINE
  5
321
  8
SERVCLRDIM
  6
CONTINUOUS
 62
     1
 10
34.125
 20
94.277132544300017
 30
0.0
 11
36.0
 21
94.589632544300017
 31
0.0
  0
LINE
  5
322
  8
SERVCLRDIM
  6
CONTINUOUS
 62
     1
 10
149.73995682969999
 20
94.590296171499986
 30
0.0
 11
147.86495682969999
 21
94.902796171499986
 31
0.0
  0
LINE
  5
323
  8
UNIT-DIM
  6
CONTINUOUS
 62
     7
 10
53.877577242199997
 20
112.8347530324
 30
0.0
 11
52.002577242199997
 21
113.1472530324
 31
0.0
  0
LINE
  5
324
  8
CURB-24-DIM
  6
CONTINUOUS
 62
     6
 10
114.7507639602
 20
69.103773541599992
 30
0.0
 11
114.4382639602
 21
70.978773541599992
 31
0.0
  0
LINE
  5
325
  8
SERVCLRDIM
  6
CONTINUOUS
 62
     1
 10
0.0
 20
94.589632544300017
 30
0.0
 11
1.875
 21
94.902132544300017
 31
0.0
  0
LINE
  5
326
  8
UNIT-DIM
  6
CONTINUOUS
 62
     7
 10
96.87757724219999
 20
112.8347530324
 30
0.0
 11
98.75257724219999
 21
113.1472530324
 31
0.0
  0
LINE
  5
327
  8
UNIT-DIM
  6
CONTINUOUS
 62
     7
 10
52.002577242199997
 20
113.1472530324
 30
0.0
 11
53.877577242199997
 21
113.4597530324
 31
0.0
  0
LINE
  5
328
  8
UNIT-DIM
  6
CONTINUOUS
 62
     7
 10
98.75257724219999
 20
113.2722530324
 30
0.0
 11
91.419243242199997
 21
113.2722530324
 31
0.0
  0
LINE
  5
329
  8
UNIT-DIM
  6
CONTINUOUS
 62
     7
 10
52.002577242199997
 20
113.2722530324
 30
0.0
 11
75.210910242200001
 21
113.2722530324
 31
0.0
  0
LINE
  5
32A
  8
UNIT-DIM
  6
CONTINUOUS
 62
     7
 10
98.75257724219999
 20
113.1472530324
 30
0.0
 11
96.87757724219999
 21
113.4597530324
 31
0.0
  0
LINE
  5
32B
  8
SERVCLRDIM
  6
CONTINUOUS
 62
     1
 10
147.86495682969999
 20
94.902796171499986
 30
0.0
 11
147.86495682969999
 21
94.277796171499986
 31
0.0
  0
LINE
  5
32C
  8
SERVCLEAR
  6
CENTER
 62
     1
 10
149.73995682969999
 20
66.416273545199999
 30
0.0
 11
149.73995682969999
 21
99.791273545199999
 31
0.0
  0
LINE
  5
32D
  8
0
  6
CONTINUOUS
 62
     7
 10
0.0
 20
150.0
 30
0.0
 11
175.0
 21
150.0
 31
0.0
  0
LINE
  5
32E
  8
0
  6
CONTINUOUS
 62
     7
 10
175.0
 20
0.0
 30
0.0
 11
175.0
 21
150.0
 31
0.0
  0
CIRCLE
  5
32F
  8
UNIT-SOL
  6
CONTINUOUS
 62
     7
 10
94.127577242199976
 20
85.916273541599992
 30
0.0
 40
0.7576260333000001
  0
CIRCLE
  5
330
  8
UNIT-SOL
  6
CONTINUOUS
 62
     7
 10
94.127577242199976
 20
73.041273541599992
 30
0.0
 40
0.5
  0
ARC
  5
331
  8
HOOD
  6
CONTINUOUS
 62
     7
 10
36.050586674800002
 20
81.835248951199986
 30
0.0
 40
0.0527643907
 50
106.5185877258
 51
196.51858772590001
  0
ARC
  5
332
  8
HOOD
  6
CONTINUOUS
 62
     7
 10
36.127177408100003
 20
81.576990664199997
 30
0.0
 40
0.0527643907
 50
196.51858772579999
 51
286.51858772579999
  0
ARC
  5
333
  8
HOOD
  6
CONTINUOUS
 62
     7
 10
36.127177408100003
 20
81.576990664199997
 30
0.0
 40
0.0263821954
 50
196.51858772590001
 51
286.51858772579999
  0
ARC
  5
334
  8
HOOD
  6
CONTINUOUS
 62
     7
 10
36.050586674800002
 20
81.835248951199986
 30
0.0
 40
0.0263821954
 50
106.5185877258
 51
196.51858772599999
  0
ENDSEC
  0
EOF
