  0
SECTION
  2
HEADER
  9
$ACADVER
  1
AC1009
  9
$INSBASE
 10
0.0
 20
0.0
 30
0.0
  9
$EXTMIN
 10
-0.0061030499708181
 20
-0.004577287478071
 30
-0.0015258207003583
  9
$EXTMAX
 10
200.00610398129331
 20
150.00457798597
 30
0.0000000349246037
  9
$LIMMIN
 10
0.0
 20
0.0
  9
$LIMMAX
 10
200.0
 20
150.0
  9
$ORTHOMODE
 70
     0
  9
$REGENMODE
 70
     1
  9
$FILLMODE
 70
     1
  9
$QTEXTMODE
 70
     0
  9
$MIRRTEXT
 70
     0
  9
$DRAGMODE
 70
     2
  9
$LTSCALE
 40
11.0
  9
$OSMODE
 70
    37
  9
$ATTMODE
 70
     1
  9
$TEXTSIZE
 40
0.2
  9
$TRACEWID
 40
0.05
  9
$TEXTSTYLE
  7
STANDARD
  9
$CLAYER
  8
0
  9
$CELTYPE
  6
BYLAYER
  9
$CECOLOR
 62
   256
  9
$DIMSCALE
 40
1.0
  9
$DIMASZ
 40
2.0
  9
$DIMEXO
 40
1.587499999999999
  9
$DIMDLI
 40
7.5999999999999988
  9
$DIMRND
 40
0.0
  9
$DIMDLE
 40
0.0
  9
$DIMEXE
 40
1.587499999999999
  9
$DIMTP
 40
0.03
  9
$DIMTM
 40
0.03
  9
$DIMTXT
 40
2.0
  9
$DIMCEN
 40
1.8
  9
$DIMTSZ
 40
0.0
  9
$DIMTOL
 70
     1
  9
$DIMLIM
 70
     0
  9
$DIMTIH
 70
     1
  9
$DIMTOH
 70
     1
  9
$DIMSE1
 70
     0
  9
$DIMSE2
 70
     0
  9
$DIMTAD
 70
     0
  9
$DIMZIN
 70
     0
  9
$DIMBLK
  1
_FILLED
  9
$DIMASO
 70
     1
  9
$DIMSHO
 70
     1
  9
$DIMPOST
  1

  9
$DIMAPOST
  1

  9
$DIMALT
 70
     0
  9
$DIMALTD
 70
     2
  9
$DIMALTF
 40
25.399999999999999
  9
$DIMLFAC
 40
1.0
  9
$DIMTOFL
 70
     0
  9
$DIMTVP
 40
0.0
  9
$DIMTIX
 70
     0
  9
$DIMSOXD
 70
     0
  9
$DIMSAH
 70
     0
  9
$DIMBLK1
  1

  9
$DIMBLK2
  1

  9
$DIMSTYLE
  2
STANDARD
  9
$DIMCLRD
 70
     0
  9
$DIMCLRE
 70
     0
  9
$DIMCLRT
 70
     0
  9
$DIMTFAC
 40
1.0
  9
$DIMGAP
 40
0.09
  9
$LUNITS
 70
     2
  9
$LUPREC
 70
     4
  9
$SKETCHINC
 40
0.1
  9
$FILLETRAD
 40
0.0
  9
$AUNITS
 70
     0
  9
$AUPREC
 70
     0
  9
$MENU
  1
.
  9
$ELEVATION
 40
0.0
  9
$PELEVATION
 40
0.0
  9
$THICKNESS
 40
0.0
  9
$LIMCHECK
 70
     0
  9
$BLIPMODE
 70
     0
  9
$CHAMFERA
 40
0.0
  9
$CHAMFERB
 40
0.0
  9
$SKPOLY
 70
     0
  9
$TDCREATE
 40
2456328.3259567712
  9
$TDUPDATE
 40
2456328.3265807871
  9
$TDINDWG
 40
0.0006248611
  9
$TDUSRTIMER
 40
0.0006248611
  9
$USRTIMER
 70
     1
  9
$ANGBASE
 50
0.0
  9
$ANGDIR
 70
     0
  9
$PDMODE
 70
     3
  9
$PDSIZE
 40
7.9375
  9
$PLINEWID
 40
0.0
  9
$COORDS
 70
     1
  9
$SPLFRAME
 70
     0
  9
$SPLINETYPE
 70
     6
  9
$SPLINESEGS
 70
     8
  9
$ATTDIA
 70
     0
  9
$ATTREQ
 70
     1
  9
$HANDLING
 70
     1
  9
$HANDSEED
  5
478
  9
$SURFTAB1
 70
     6
  9
$SURFTAB2
 70
     6
  9
$SURFTYPE
 70
     6
  9
$SURFU
 70
     6
  9
$SURFV
 70
     6
  9
$UCSNAME
  2

  9
$UCSORG
 10
0.0
 20
0.0
 30
0.0
  9
$UCSXDIR
 10
1.0
 20
0.0
 30
0.0
  9
$UCSYDIR
 10
0.0
 20
1.0
 30
0.0
  9
$PUCSNAME
  2

  9
$PUCSORG
 10
0.0
 20
0.0
 30
0.0
  9
$PUCSXDIR
 10
1.0
 20
0.0
 30
0.0
  9
$PUCSYDIR
 10
0.0
 20
1.0
 30
0.0
  9
$USERI1
 70
     0
  9
$USERI2
 70
     0
  9
$USERI3
 70
     0
  9
$USERI4
 70
     0
  9
$USERI5
 70
     0
  9
$USERR1
 40
0.0
  9
$USERR2
 40
0.0
  9
$USERR3
 40
0.0
  9
$USERR4
 40
0.0
  9
$USERR5
 40
0.0
  9
$WORLDVIEW
 70
     1
  9
$SHADEDGE
 70
     3
  9
$SHADEDIF
 70
    70
  9
$TILEMODE
 70
     1
  9
$MAXACTVP
 70
    64
  9
$PLIMCHECK
 70
     0
  9
$PEXTMIN
 10
1.0000000000000000E+020
 20
1.0000000000000000E+020
 30
1.0000000000000000E+020
  9
$PEXTMAX
 10
-1.0000000000000000E+020
 20
-1.0000000000000000E+020
 30
-1.0000000000000000E+020
  9
$PLIMMIN
 10
0.0
 20
0.0
  9
$PLIMMAX
 10
12.0
 20
9.0
  9
$UNITMODE
 70
     0
  9
$VISRETAIN
 70
     1
  9
$PLINEGEN
 70
     0
  9
$PSLTSCALE
 70
     1
  0
ENDSEC
  0
SECTION
  2
TABLES
  0
TABLE
  2
VPORT
 70
     1
  0
VPORT
  2
*ACTIVE
 70
     0
 10
0.0
 20
0.0
 11
1.0
 21
1.0
 12
100.0000004656612
 22
75.000000349245994
 13
0.0
 23
0.0
 14
1.0
 24
1.0
 15
0.0
 25
0.0
 16
0.0
 26
0.0
 36
1.0
 17
0.0
 27
0.0
 37
0.0
 40
182.94740833308609
 41
1.1011984021304919
 42
50.0
 43
0.0
 44
0.0
 50
0.0
 51
0.0
 71
     0
 72
   100
 73
     1
 74
     1
 75
     0
 76
     0
 77
     0
 78
     0
  0
ENDTAB
  0
TABLE
  2
LTYPE
 70
     6
  0
LTYPE
  2
CONTINUOUS
 70
     0
  3
Solid line
 72
    65
 73
     0
 40
0.0
  0
LTYPE
  2
CENTER
 70
     0
  3
____ _ ____ _ ____ _ ____ _ ____ _ ____ _ ____
 72
    65
 73
     4
 40
0.6
 49
0.375
 49
-0.075
 49
0.075
 49
-0.075
  0
LTYPE
  2
HIDDEN
 70
     0
  3
- - - - - - - - - - - - - - - - - - - -
 72
    65
 73
     2
 40
0.2
 49
0.1
 49
-0.1
  0
LTYPE
  2
PHANTOM
 70
     0
  3
_____ _ _ _____ _ _ _____ _ _ _____
 72
    65
 73
     6
 40
0.8
 49
0.45
 49
-0.05
 49
0.1
 49
-0.05
 49
0.1
 49
-0.05
  0
LTYPE
  2
DOT
 70
     0
  3
. . . . . . . . . . . . . . . . . . . .
 72
    65
 73
     2
 40
0.2
 49
0.1
 49
-0.1
  0
LTYPE
  2
DASHED
 70
     0
  3
- - - - - - - - - - - - - - - - - - - -
 72
    65
 73
     2
 40
0.2
 49
0.1
 49
-0.1
  0
ENDTAB
  0
TABLE
  2
LAYER
 70
    13
  0
LAYER
  2
0
 70
     0
 62
     7
  6
CONTINUOUS
  0
LAYER
  2
DEFAULT_1
 70
     0
 62
     7
  6
CENTER
  0
LAYER
  2
DEFAULT_2
 70
     0
 62
     8
  6
HIDDEN
  0
LAYER
  2
DEFAULT_3
 70
     0
 62
     7
  6
PHANTOM
  0
LAYER
  2
CURB-14
 70
     0
 62
     6
  6
CONTINUOUS
  0
LAYER
  2
CURB-14-DIM
 70
     0
 62
     6
  6
CONTINUOUS
  0
LAYER
  2
CURB-24
 70
     0
 62
     6
  6
CONTINUOUS
  0
LAYER
  2
CURB-24-DIM
 70
     0
 62
     6
  6
CONTINUOUS
  0
LAYER
  2
NOTES
 70
     0
 62
     1
  6
CONTINUOUS
  0
LAYER
  2
SERVCLEAR
 70
     0
 62
     1
  6
CONTINUOUS
  0
LAYER
  2
SERVCLRDIM
 70
     0
 62
     1
  6
CONTINUOUS
  0
LAYER
  2
UNIT-DIM
 70
     0
 62
     7
  6
CONTINUOUS
  0
LAYER
  2
UNIT-SOL
 70
     0
 62
     7
  6
CONTINUOUS
  0
ENDTAB
  0
TABLE
  2
STYLE
 70
     4
  0
STYLE
  2
STANDARD
 70
     0
 40
0.0
 41
0.8
 50
0.0
 71
     0
 42
0.2
  3
txt
  4

  0
STYLE
  2
TEXTSTYLE_1
 70
     0
 40
0.0
 41
0.8
 50
0.0
 71
     0
 42
0.2
  3
gdt
  4

  0
STYLE
  2
TEXTSTYLE_2
 70
     0
 40
0.0
 41
1.0
 50
0.0
 71
     0
 42
0.2
  3
txt
  4

  0
STYLE
  2
TEXTSTYLE_3
 70
     0
 40
0.0
 41
8.0
 50
0.0
 71
     0
 42
0.2
  3
txt
  4

  0
ENDTAB
  0
TABLE
  2
VIEW
 70
     0
  0
ENDTAB
  0
TABLE
  2
UCS
 70
     0
  0
ENDTAB
  0
TABLE
  2
APPID
 70
     3
  0
APPID
  2
ACAD
 70
     0
  0
APPID
  2
ACAD_NAV_VCDISPLAY
 70
     0
  0
APPID
  2
ACAD_MLEADERVER
 70
     0
  0
ENDTAB
  0
TABLE
  2
DIMSTYLE
 70
     3
  0
DIMSTYLE
  2
STANDARD
 70
     0
  3

  4

  5
_FILLED
  6
_FILLED
  7
_FILLED
 40
1.0
 41
2.0
 42
1.587499999999999
 43
0.38
 44
1.587499999999999
 45
0.0
 46
0.0
 47
0.03
 48
0.03
140
2.0
141
0.09
142
0.0
143
25.399999999999999
144
1.0
145
0.0
146
1.0
147
0.09
 71
     1
 72
     0
 73
     1
 74
     1
 75
     0
 76
     0
 77
     0
 78
     4
170
     0
171
     2
172
     0
173
     0
174
     0
175
     0
176
     0
177
     0
178
     0
  0
DIMSTYLE
  2
DIMSTYLE_1
 70
     0
  3

  4

  5
_FILLED
  6
_FILLED
  7
_FILLED
 40
1.0
 41
2.0
 42
1.587499999999999
 43
0.38
 44
1.587499999999999
 45
0.0
 46
0.0
 47
0.031496063
 48
0.031496063
140
1.75
141
0.09
142
0.0
143
25.399999999999999
144
1.0
145
0.0
146
1.0
147
1.75
 71
     0
 72
     0
 73
     1
 74
     1
 75
     0
 76
     0
 77
     0
 78
     4
170
     0
171
     2
172
     0
173
     0
174
     0
175
     0
176
     0
177
     0
178
     0
  0
DIMSTYLE
  2
DIMSTYLE_2
 70
     0
  3

  4

  5
_FILLED
  6
_FILLED
  7
_FILLED
 40
1.0
 41
2.0
 42
1.587499999999999
 43
0.38
 44
1.587499999999999
 45
0.0
 46
0.0
 47
0.0196850394
 48
0.0196850394
140
1.75
141
0.09
142
0.0
143
25.399999999999999
144
1.0
145
0.0
146
1.0
147
1.75
 71
     0
 72
     0
 73
     1
 74
     1
 75
     0
 76
     0
 77
     0
 78
     4
170
     0
171
     2
172
     0
173
     0
174
     0
175
     0
176
     0
177
     0
178
     0
  0
ENDTAB
  0
ENDSEC
  0
SECTION
  2
BLOCKS
  0
BLOCK
  8
0
  2
$MODEL_SPACE
 70
     0
 10
0.0
 20
0.0
 30
0.0
  3
$MODEL_SPACE
  1

  0
ENDBLK
  5
21
  8
0
  0
BLOCK
 67
     1
  8
0
  2
$PAPER_SPACE
 70
     0
 10
0.0
 20
0.0
 30
0.0
  3
$PAPER_SPACE
  1

  0
ENDBLK
  5
1D
 67
     1
  8
0
  0
BLOCK
  8
0
  2
_FILLED
 70
     0
 10
0.0
 20
0.0
 30
0.0
  3
_FILLED
  1

  0
SOLID
  5
211
  8
0
  6
BYBLOCK
 62
     0
 10
0.0
 20
0.0
 30
0.0
 11
-1.0
 21
0.1875
 31
0.0
 12
-1.0
 22
-0.1875
 32
0.0
 13
-1.0
 23
-0.1875
 33
0.0
  0
ENDBLK
  5
212
  8
0
  6
BYBLOCK
 62
     0
  0
BLOCK
  8
UNIT-DIM
  6
CONTINUOUS
 62
     7
  2
*D1
 70
     1
 10
0.0
 20
0.0
 30
0.0
  3
*D1
  1

  0
INSERT
  5
214
  8
0
  2
*U3
 10
0.0
 20
0.0
 30
0.0
  0
LINE
  5
215
  8
UNIT-DIM
  6
CONTINUOUS
 62
     7
 10
66.642199938999994
 20
109.3886160621
 30
0.0
 11
66.642199938999994
 21
115.5435674854
 31
0.0
  0
LINE
  5
216
  8
UNIT-DIM
  6
CONTINUOUS
 62
     7
 10
66.642199938999994
 20
115.5435674854
 30
0.0
 11
66.642199938999994
 21
118.0060674854
 31
0.0
  0
LINE
  5
217
  8
UNIT-DIM
  6
CONTINUOUS
 62
     7
 10
96.767199938999994
 20
76.378773542499999
 30
0.0
 11
96.767199938999994
 21
115.5435674854
 31
0.0
  0
LINE
  5
218
  8
UNIT-DIM
  6
CONTINUOUS
 62
     7
 10
96.767199938999994
 20
115.5435674854
 30
0.0
 11
96.767199938999994
 21
118.0060674854
 31
0.0
  0
LINE
  5
219
  8
UNIT-DIM
  6
CONTINUOUS
 62
     7
 10
66.642199938999994
 20
116.4185674854
 30
0.0
 11
72.954699938999994
 21
116.4185674854
 31
0.0
  0
LINE
  5
21A
  8
UNIT-DIM
  6
CONTINUOUS
 62
     7
 10
96.767199938999994
 20
116.4185674854
 30
0.0
 11
90.454699938999994
 21
116.4185674854
 31
0.0
  0
INSERT
  5
21B
  8
UNIT-DIM
  6
CONTINUOUS
 62
     7
  2
_FILLED
 10
66.642199938999994
 20
116.4185674854
 30
0.0
 41
2.0
 42
2.0
 43
2.0
 50
180.0
  0
INSERT
  5
21C
  8
UNIT-DIM
  6
CONTINUOUS
 62
     7
  2
_FILLED
 10
96.767199938999994
 20
116.4185674854
 30
0.0
 41
2.0
 42
2.0
 43
2.0
  0
ENDBLK
  5
21D
  8
0
  6
BYBLOCK
 62
     0
  0
BLOCK
  8
UNIT-DIM
  6
CONTINUOUS
 62
     7
  2
*D2
 70
     1
 10
0.0
 20
0.0
 30
0.0
  3
*D2
  1

  0
INSERT
  5
21F
  8
0
  2
*U4
 10
0.0
 20
0.0
 30
0.0
  0
LINE
  5
220
  8
UNIT-DIM
  6
CONTINUOUS
 62
     7
 10
65.054699939000002
 20
66.416273542499994
 30
0.0
 11
49.272805012100001
 21
66.416273542499994
 31
0.0
  0
LINE
  5
221
  8
UNIT-DIM
  6
CONTINUOUS
 62
     7
 10
95.179699939000017
 20
74.791273542499994
 30
0.0
 11
57.856735281300011
 21
74.791273542499994
 31
0.0
  0
LINE
  5
222
  8
UNIT-DIM
  6
CONTINUOUS
 62
     7
 10
56.640223281300003
 20
74.791273542499994
 30
0.0
 11
49.272805012100001
 21
74.791273542499994
 31
0.0
  0
LINE
  5
223
  8
UNIT-DIM
  6
CONTINUOUS
 62
     7
 10
50.8603050121
 20
66.416273542499994
 30
0.0
 11
50.8603050121
 21
61.416273542500001
 31
0.0
  0
LINE
  5
224
  8
UNIT-DIM
  6
CONTINUOUS
 62
     7
 10
50.8603050121
 20
74.791273542499994
 30
0.0
 11
50.8603050121
 21
79.791273542499994
 31
0.0
  0
INSERT
  5
225
  8
UNIT-DIM
  6
CONTINUOUS
 62
     7
  2
_FILLED
 10
50.8603050121
 20
66.416273542499994
 30
0.0
 41
2.0
 42
2.0
 43
2.0
 50
90.0
  0
INSERT
  5
226
  8
UNIT-DIM
  6
CONTINUOUS
 62
     7
  2
_FILLED
 10
50.8603050121
 20
74.791273542499994
 30
0.0
 41
2.0
 42
2.0
 43
2.0
 50
270.0
  0
ENDBLK
  5
227
  8
0
  6
BYBLOCK
 62
     0
  0
BLOCK
  8
0
  2
*U3
 70
     1
 10
0.0
 20
0.0
 30
0.0
  3
*U3
  1

  0
TEXT
  5
377
  8
UNIT-DIM
 62
     7
 10
75.754699938999991
 20
115.5435674854
 30
0.0
 40
1.75
  1
 2'-6 1/8"
 41
0.8
  0
TEXT
  5
378
  8
UNIT-DIM
 62
     7
 10
78.904699938999997
 20
112.6269008187333
 30
0.0
 40
1.75
  1
(764)
 41
0.8
  0
ENDBLK
  5
37A
  8
0
  0
BLOCK
  8
0
  2
*U4
 70
     1
 10
0.0
 20
0.0
 30
0.0
  3
*U4
  1

  0
TEXT
  5
37C
  8
UNIT-DIM
 62
     7
 10
47.126971678766658
 20
71.452292046300002
 30
0.0
 40
1.75
  1
8 3/8"
 41
0.8
  0
TEXT
  5
37D
  8
UNIT-DIM
 62
     7
 10
48.293638345433322
 20
68.535625379633331
 30
0.0
 40
1.75
  1
(213)
 41
0.8
  0
ENDBLK
  5
37F
  8
0
  0
BLOCK
  8
0
  2
*U5
 70
     1
 10
0.0
 20
0.0
 30
0.0
  3
*U5
  1

  0
TEXT
  5
381
  8
SERVCLRDIM
 62
     1
 10
8.1110797270999981
 20
55.663618113200002
 30
0.0
 40
1.75
  1
OVERALL HEIGHT & CLEARANCE
  7
TEXTSTYLE_2
  0
TEXT
  5
382
  8
SERVCLRDIM
 62
     1
 10
8.1110797270999981
 20
52.74695144653333
 30
0.0
 40
1.75
  1
AREA WILL BE DETERMINED BY
  7
TEXTSTYLE_2
  0
TEXT
  5
383
  8
SERVCLRDIM
 62
     1
 10
8.1110797270999981
 20
49.830284779866673
 30
0.0
 40
1.75
  1
ASSEMBLY OF INSTALLER. SEE
  7
TEXTSTYLE_2
  0
TEXT
  5
384
  8
SERVCLRDIM
 62
     1
 10
8.1110797270999981
 20
46.913618113200002
 30
0.0
 40
1.75
  1
CERTIFIED DRAWING FOR
  7
TEXTSTYLE_2
  0
TEXT
  5
385
  8
SERVCLRDIM
 62
     1
 10
8.1110797270999981
 20
43.996951446533338
 30
0.0
 40
1.75
  1
FURTHER DETAIL.
  7
TEXTSTYLE_2
  0
ENDBLK
  5
387
  8
0
  0
BLOCK
  8
0
  2
*U6
 70
     1
 10
0.0
 20
0.0
 30
0.0
  3
*U6
  1

  0
TEXT
  5
389
  8
CURB-14-DIM
 62
     6
 10
149.0501775164
 20
63.750917923400003
 30
0.0
 40
1.75
  1
1'-2"
  7
TEXTSTYLE_2
  0
ENDBLK
  5
38B
  8
0
  0
BLOCK
  8
0
  2
*U7
 70
     1
 10
0.0
 20
0.0
 30
0.0
  3
*U7
  1

  0
TEXT
  5
38D
  8
CURB-14-DIM
 62
     6
 10
101.97553327233329
 20
38.694296542499998
 30
0.0
 40
1.75
  1
5'-10 7/8"
  7
TEXTSTYLE_2
  0
ENDBLK
  5
38F
  8
0
  0
BLOCK
  8
0
  2
*U8
 70
     1
 10
0.0
 20
0.0
 30
0.0
  3
*U8
  1

  0
TEXT
  5
391
  8
UNIT-DIM
 62
     7
 10
33.172685272333339
 20
87.995276542499994
 30
0.0
 40
1.75
  1
3'-5 3/8"
  7
TEXTSTYLE_2
  0
ENDBLK
  5
393
  8
0
  0
BLOCK
  8
0
  2
*U9
 70
     1
 10
0.0
 20
0.0
 30
0.0
  3
*U9
  1

  0
TEXT
  5
395
  8
UNIT-DIM
 62
     7
 10
103.85053327233329
 20
123.9856680621
 30
0.0
 40
1.75
  1
6'-2 3/8"
  7
TEXTSTYLE_2
  0
ENDBLK
  5
397
  8
0
  0
BLOCK
  8
0
  2
*U10
 70
     1
 10
0.0
 20
0.0
 30
0.0
  3
*U10
  1

  0
TEXT
  5
399
  8
UNIT-DIM
 62
     7
 10
36.381018605666668
 20
85.078609542500004
 30
0.0
 40
1.75
  1
(1051)
  7
TEXTSTYLE_2
  0
ENDBLK
  5
39B
  8
0
  0
BLOCK
  8
0
  2
*U11
 70
     1
 10
0.0
 20
0.0
 30
0.0
  3
*U11
  1

  0
TEXT
  5
39D
  8
UNIT-DIM
 62
     7
 10
106.62136660566659
 20
121.0690020621
 30
0.0
 40
1.75
  1
(1888)
  7
TEXTSTYLE_2
  0
ENDBLK
  5
39F
  8
0
  0
BLOCK
  8
0
  2
*U12
 70
     1
 10
0.0
 20
0.0
 30
0.0
  3
*U12
  1

  0
TEXT
  5
3A1
  8
CURB-14-DIM
 62
     6
 10
148.56761148199999
 20
61.307445284499998
 30
0.0
 40
1.75
  1
(356)
  7
TEXTSTYLE_2
  0
ENDBLK
  5
3A3
  8
0
  0
BLOCK
  8
0
  2
*U13
 70
     1
 10
0.0
 20
0.0
 30
0.0
  3
*U13
  1

  0
TEXT
  5
3A5
  8
CURB-14-DIM
 62
     6
 10
105.47553327233329
 20
35.777629542500001
 30
0.0
 40
1.75
  1
(1800)
  7
TEXTSTYLE_2
  0
ENDBLK
  5
3A7
  8
0
  0
BLOCK
  8
0
  2
*U14
 70
     1
 10
0.0
 20
0.0
 30
0.0
  3
*U14
  1

  0
TEXT
  5
3A9
  8
CURB-24-DIM
 62
     6
 10
105.47553327233329
 20
35.777629542500001
 30
0.0
 40
1.75
  1
(1800)
  7
TEXTSTYLE_2
  0
ENDBLK
  5
3AB
  8
0
  0
BLOCK
  8
0
  2
*U15
 70
     1
 10
0.0
 20
0.0
 30
0.0
  3
*U15
  1

  0
TEXT
  5
3AD
  8
CURB-24-DIM
 62
     6
 10
101.97553327233329
 20
38.694296542499998
 30
0.0
 40
1.75
  1
5'-10 7/8"
  7
TEXTSTYLE_2
  0
ENDBLK
  5
3AF
  8
0
  0
BLOCK
  8
0
  2
*U16
 70
     1
 10
0.0
 20
0.0
 30
0.0
  3
*U16
  1

  0
TEXT
  5
3B1
  8
CURB-24-DIM
 62
     6
 10
160.99044560566659
 20
59.659284542499996
 30
0.0
 40
1.75
  1
2'
  7
TEXTSTYLE_2
  0
ENDBLK
  5
3B3
  8
0
  0
BLOCK
  8
0
  2
*U17
 70
     1
 10
0.0
 20
0.0
 30
0.0
  3
*U17
  1

  0
TEXT
  5
3B5
  8
CURB-24-DIM
 62
     6
 10
158.94877893899999
 20
56.742618542499997
 30
0.0
 40
1.75
  1
(610)
  7
TEXTSTYLE_2
  0
ENDBLK
  5
3B7
  8
0
  0
BLOCK
  8
0
  2
*U18
 70
     1
 10
0.0
 20
0.0
 30
0.0
  3
*U18
  1

  0
TEXT
  5
3B9
  8
SERVCLRDIM
 62
     1
 10
160.3698986990666
 20
95.016456553099985
 30
0.0
 40
1.75
  1
3'
  7
TEXTSTYLE_2
  0
ENDBLK
  5
3BB
  8
0
  0
BLOCK
  8
0
  2
*U19
 70
     1
 10
0.0
 20
0.0
 30
0.0
  3
*U19
  1

  0
TEXT
  5
3BD
  8
SERVCLRDIM
 62
     1
 10
47.996366605666651
 20
95.500265499999998
 30
0.0
 40
1.75
  1
4'
  7
TEXTSTYLE_2
  0
ENDBLK
  5
3BF
  8
0
  0
BLOCK
  8
0
  2
*U20
 70
     1
 10
0.0
 20
0.0
 30
0.0
  3
*U20
  1

  0
TEXT
  5
3C1
  8
SERVCLRDIM
 62
     1
 10
158.1823986990666
 20
92.099789553099995
 30
0.0
 40
1.75
  1
(914)
  7
TEXTSTYLE_2
  0
ENDBLK
  5
3C3
  8
0
  0
BLOCK
  8
0
  2
*U21
 70
     1
 10
0.0
 20
0.0
 30
0.0
  3
*U21
  1

  0
TEXT
  5
3C5
  8
SERVCLRDIM
 62
     1
 10
45.22553327233333
 20
92.583598499999994
 30
0.0
 40
1.75
  1
(1219)
  7
TEXTSTYLE_2
  0
ENDBLK
  5
3C7
  8
0
  0
BLOCK
  8
0
  2
*U22
 70
     1
 10
0.0
 20
0.0
 30
0.0
  3
*U22
  1

  0
TEXT
  5
3C9
  8
NOTES
 62
     1
 10
0.8
 20
1.1248476951999991
 30
0.0
 40
1.75
  1
VIEW: FRONT
 41
0.8
  0
ENDBLK
  5
3CB
  8
0
  0
BLOCK
  8
0
  2
*U23
 70
     1
 10
0.0
 20
0.0
 30
0.0
  3
*U23
  1

  0
TEXT
  5
3CD
  8
NOTES
 62
     1
 10
0.8
 20
5.6241623234000002
 30
0.0
 40
1.75
  1
FILE NAME: TSY20-F-
 41
0.8
  0
ENDBLK
  5
3CF
  8
0
  0
BLOCK
  8
0
  2
*U24
 70
     1
 10
0.0
 20
0.0
 30
0.0
  3
*U24
  1

  0
TEXT
  5
3D1
  8
NOTES
 62
     1
 10
17.066666666700002
 20
9.6235531040000009
 30
0.0
 40
1.75
  1
LAYER KEY
 41
0.8
  0
ENDBLK
  5
3D3
  8
0
  0
BLOCK
  8
0
  2
*U25
 70
     1
 10
0.0
 20
0.0
 30
0.0
  3
*U25
  1

  0
TEXT
  5
3D5
  8
NOTES
 62
     7
 10
1.0303146667
 20
13.6229438846
 30
0.0
 40
1.75
  1
-
 41
8.0
  7
TEXTSTYLE_3
  0
ENDBLK
  5
3D7
  8
0
  0
BLOCK
  8
0
  2
*U26
 70
     1
 10
0.0
 20
0.0
 30
0.0
  3
*U26
  1

  0
TEXT
  5
3D9
  8
NOTES
 62
     1
 10
16.800000000000001
 20
13.6229438846
 30
0.0
 40
1.75
  1
UNIT
 41
0.8
  0
ENDBLK
  5
3DB
  8
0
  0
BLOCK
  8
0
  2
*U27
 70
     1
 10
0.0
 20
0.0
 30
0.0
  3
*U27
  1

  0
TEXT
  5
3DD
  8
NOTES
 62
     6
 10
1.0303146667
 20
17.6223346652
 30
0.0
 40
1.75
  1
-
 41
8.0
  7
TEXTSTYLE_3
  0
ENDBLK
  5
3DF
  8
0
  0
BLOCK
  8
0
  2
*U28
 70
     1
 10
0.0
 20
0.0
 30
0.0
  3
*U28
  1

  0
TEXT
  5
3E1
  8
NOTES
 62
     1
 10
16.800000000000001
 20
17.6223346652
 30
0.0
 40
1.75
  1
ROOF CURB
 41
0.8
  0
ENDBLK
  5
3E3
  8
0
  0
BLOCK
  8
0
  2
*U29
 70
     1
 10
0.0
 20
0.0
 30
0.0
  3
*U29
  1

  0
TEXT
  5
3E5
  8
NOTES
 62
     1
 10
1.0303146667
 20
21.621725445900001
 30
0.0
 40
1.75
  1
-
 41
8.0
  7
TEXTSTYLE_3
  0
ENDBLK
  5
3E7
  8
0
  0
BLOCK
  8
0
  2
*U30
 70
     1
 10
0.0
 20
0.0
 30
0.0
  3
*U30
  1

  0
TEXT
  5
3E9
  8
NOTES
 62
     1
 10
16.800000000000001
 20
21.621725445900001
 30
0.0
 40
1.75
  1
SERVICE CLEARANCE
 41
0.8
  0
ENDBLK
  5
3EB
  8
0
  0
BLOCK
  8
0
  2
*U31
 70
     1
 10
0.0
 20
0.0
 30
0.0
  3
*U31
  1

  0
TEXT
  5
3ED
  8
NOTES
 62
     2
 10
1.0303146667
 20
25.6211162265
 30
0.0
 40
1.75
  1
-
 41
8.0
  7
TEXTSTYLE_3
  0
ENDBLK
  5
3EF
  8
0
  0
BLOCK
  8
0
  2
*U32
 70
     1
 10
0.0
 20
0.0
 30
0.0
  3
*U32
  1

  0
TEXT
  5
3F1
  8
NOTES
 62
     1
 10
16.800000000000001
 20
25.6211162265
 30
0.0
 40
1.75
  1
UNIT DUCTS
 41
0.8
  0
ENDBLK
  5
3F3
  8
0
  0
BLOCK
  8
0
  2
*U33
 70
     1
 10
0.0
 20
0.0
 30
0.0
  3
*U33
  1

  0
TEXT
  5
3F5
  8
NOTES
 62
     5
 10
1.0303146667
 20
29.620507007099999
 30
0.0
 40
1.75
  1
-
 41
8.0
  7
TEXTSTYLE_3
  0
ENDBLK
  5
3F7
  8
0
  0
BLOCK
  8
0
  2
*U34
 70
     1
 10
0.0
 20
0.0
 30
0.0
  3
*U34
  1

  0
TEXT
  5
3F9
  8
NOTES
 62
     1
 10
16.800000000000001
 20
29.620507007099999
 30
0.0
 40
1.75
  1
CURB DUCTS
 41
0.8
  0
ENDBLK
  5
3FB
  8
0
  0
BLOCK
  8
0
  2
*U35
 70
     1
 10
0.0
 20
0.0
 30
0.0
  3
*U35
  1

  0
TEXT
  5
3FD
  8
NOTES
 62
     9
 10
1.0303146667
 20
33.619897787699998
 30
0.0
 40
1.75
  1
-
 41
8.0
  7
TEXTSTYLE_3
  0
ENDBLK
  5
3FF
  8
0
  0
BLOCK
  8
0
  2
*U36
 70
     1
 10
0.0
 20
0.0
 30
0.0
  3
*U36
  1

  0
TEXT
  5
401
  8
NOTES
 62
     1
 10
16.800000000000001
 20
33.619897787699998
 30
0.0
 40
1.75
  1
UNIT HIDDEN
 41
0.8
  0
ENDBLK
  5
403
  8
0
  0
BLOCK
  8
0
  2
*U37
 70
     1
 10
0.0
 20
0.0
 30
0.0
  3
*U37
  1

  0
TEXT
  5
405
  8
NOTES
 62
     1
 10
108.66339111329999
 20
112.5774230957
 30
0.0
 40
1.75
  1
1/2" - 14 NPT
 41
0.8
  0
TEXT
  5
406
  8
NOTES
 62
     1
 10
108.66339111329999
 20
109.6607564290333
 30
0.0
 40
1.75
  1
GAS CONNECTION
 41
0.8
  0
ENDBLK
  5
408
  8
0
  0
BLOCK
  8
0
  2
*U38
 70
     1
 10
0.0
 20
0.0
 30
0.0
  3
*U38
  1

  0
TEXT
  5
40A
  8
NOTES
 62
     1
 10
75.831539127599996
 20
88.205494415900006
 30
0.0
 40
1.7069028806999991
  1
CONTROL BOX
 41
0.8
  0
ENDBLK
  5
40C
  8
0
  0
BLOCK
  8
0
  2
*U39
 70
     1
 10
0.0
 20
0.0
 30
0.0
  3
*U39
  1

  0
TEXT
  5
40E
  8
NOTES
 62
     1
 10
79.976874695100008
 20
85.360656281300024
 30
0.0
 40
1.7069028806999991
  1
ACCESS
 41
0.8
  0
ENDBLK
  5
410
  8
0
  0
BLOCK
  8
0
  2
*U40
 70
     1
 10
0.0
 20
0.0
 30
0.0
  3
*U40
  1

  0
TEXT
  5
412
  8
NOTES
 62
     1
 10
80.830326135500016
 20
82.515818146799987
 30
0.0
 40
1.7069028806999991
  1
PANEL
 41
0.8
  0
ENDBLK
  5
414
  8
0
  0
BLOCK
  8
0
  2
*U41
 70
     1
 10
0.0
 20
0.0
 30
0.0
  3
*U41
  1

  0
TEXT
  5
416
  8
NOTES
 62
     1
 10
122.4258789175
 20
88.187759462699987
 30
0.0
 40
1.7069028806999991
  1
INDOOR
 41
0.8
  0
ENDBLK
  5
418
  8
0
  0
BLOCK
  8
0
  2
*U42
 70
     1
 10
0.0
 20
0.0
 30
0.0
  3
*U42
  1

  0
TEXT
  5
41A
  8
NOTES
 62
     1
 10
122.38387007919999
 20
85.4372931682
 30
0.0
 40
1.7069028806999991
  1
BLOWER
 41
0.8
  0
ENDBLK
  5
41C
  8
0
  0
BLOCK
  8
0
  2
*U43
 70
     1
 10
0.0
 20
0.0
 30
0.0
  3
*U43
  1

  0
TEXT
  5
41E
  8
NOTES
 62
     1
 10
118.1269670409
 20
82.49808319360001
 30
0.0
 40
1.7069028806999991
  1
ACCESS PANEL
 41
0.8
  0
ENDBLK
  5
420
  8
0
  0
ENDSEC
  0
SECTION
  2
ENTITIES
  0
SOLID
  5
228
  8
SERVCLRDIM
  6
CONTINUOUS
 62
     1
 10
57.611096938999992
 20
64.416273542499994
 30
0.0
 11
56.944430938999993
 21
64.416273542499994
 31
0.0
 12
57.277762938999992
 22
66.416273542499994
 32
0.0
 13
57.277762938999992
 23
66.416273542499994
 33
0.0
  0
SOLID
  5
229
  8
SERVCLRDIM
  6
CONTINUOUS
 62
     1
 10
57.611096938999992
 20
72.976273542499996
 30
0.0
 11
57.277762938999992
 21
70.976273542499996
 31
0.0
 12
56.944430938999993
 22
72.976273542499996
 32
0.0
 13
56.944430938999993
 23
72.976273542499996
 33
0.0
  0
SOLID
  5
22A
  8
SERVCLRDIM
  6
CONTINUOUS
 62
     1
 10
142.89219993899999
 20
96.062765499999998
 30
0.0
 11
141.01719993899999
 21
96.375265499999998
 31
0.0
 12
142.89219993899999
 22
96.687765499999998
 32
0.0
 13
142.89219993899999
 23
96.687765499999998
 33
0.0
  0
SOLID
  5
22B
  8
SERVCLRDIM
  6
CONTINUOUS
 62
     1
 10
175.14219993899999
 20
96.062765499999998
 30
0.0
 11
175.14219993899999
 21
96.687765499999998
 31
0.0
 12
177.01719993899999
 22
96.375265499999998
 32
0.0
 13
177.01719993899999
 23
96.375265499999998
 33
0.0
  0
SOLID
  5
22C
  8
SERVCLRDIM
  6
CONTINUOUS
 62
     1
 10
64.767199938999994
 20
96.062765499999998
 30
0.0
 11
64.767199938999994
 21
96.687765499999998
 31
0.0
 12
66.642199938999994
 22
96.375265499999998
 32
0.0
 13
66.642199938999994
 23
96.375265499999998
 33
0.0
  0
SOLID
  5
22D
  8
SERVCLRDIM
  6
CONTINUOUS
 62
     1
 10
20.517199939000001
 20
96.062765499999998
 30
0.0
 11
18.642199939000001
 21
96.375265499999998
 31
0.0
 12
20.517199939000001
 22
96.687765499999998
 32
0.0
 13
20.517199939000001
 23
96.687765499999998
 33
0.0
  0
SOLID
  5
22E
  8
CURB-14-DIM
  6
CONTINUOUS
 62
     6
 10
152.69877893899999
 20
69.103773542499994
 30
0.0
 11
152.07377893899999
 21
69.103773542499994
 31
0.0
 12
152.38627893899999
 22
70.978773542499994
 32
0.0
 13
152.38627893899999
 23
70.978773542499994
 33
0.0
  0
SOLID
  5
22F
  8
CURB-14-DIM
  6
CONTINUOUS
 62
     6
 10
152.69877893899999
 20
58.853773542500001
 30
0.0
 11
152.38627893899999
 21
56.978773542500001
 31
0.0
 12
152.07377893899999
 22
58.853773542500001
 32
0.0
 13
152.07377893899999
 23
58.853773542500001
 33
0.0
  0
SOLID
  5
230
  8
CURB-14-DIM
  6
CONTINUOUS
 62
     6
 10
137.39219993899999
 20
39.256796542499998
 30
0.0
 11
137.39219993899999
 21
39.881796542499998
 31
0.0
 12
139.26719993899999
 22
39.569296542499998
 32
0.0
 13
139.26719993899999
 23
39.569296542499998
 33
0.0
  0
SOLID
  5
231
  8
CURB-14-DIM
  6
CONTINUOUS
 62
     6
 10
70.267199938999994
 20
39.256796542499998
 30
0.0
 11
68.392199938999994
 21
39.569296542499998
 31
0.0
 12
70.267199938999994
 22
39.881796542499998
 32
0.0
 13
70.267199938999994
 23
39.881796542499998
 33
0.0
  0
SOLID
  5
232
  8
CURB-24-DIM
  6
CONTINUOUS
 62
     6
 10
70.267199938999994
 20
39.256796542499998
 30
0.0
 11
68.392199938999994
 21
39.569296542499998
 31
0.0
 12
70.267199938999994
 22
39.881796542499998
 32
0.0
 13
70.267199938999994
 23
39.881796542499998
 33
0.0
  0
SOLID
  5
233
  8
CURB-24-DIM
  6
CONTINUOUS
 62
     6
 10
137.39219993899999
 20
39.256796542499998
 30
0.0
 11
137.39219993899999
 21
39.881796542499998
 31
0.0
 12
139.26719993899999
 22
39.569296542499998
 32
0.0
 13
139.26719993899999
 23
39.569296542499998
 33
0.0
  0
SOLID
  5
234
  8
CURB-24-DIM
  6
CONTINUOUS
 62
     6
 10
162.69877893899999
 20
69.103773542499994
 30
0.0
 11
162.07377893899999
 21
69.103773542499994
 31
0.0
 12
162.38627893899999
 22
70.978773542499994
 32
0.0
 13
162.38627893899999
 23
70.978773542499994
 33
0.0
  0
SOLID
  5
235
  8
CURB-24-DIM
  6
CONTINUOUS
 62
     6
 10
162.69877893899999
 20
48.853773542500001
 30
0.0
 11
162.38627893899999
 21
46.978773542500001
 31
0.0
 12
162.07377893899999
 22
48.853773542500001
 32
0.0
 13
162.07377893899999
 23
48.853773542500001
 33
0.0
  0
SOLID
  5
236
  8
UNIT-DIM
  6
CONTINUOUS
 62
     7
 10
39.964351938999997
 20
105.92611606209999
 30
0.0
 11
39.339351938999997
 21
105.92611606209999
 31
0.0
 12
39.651851938999997
 22
107.80111606209999
 32
0.0
 13
39.651851938999997
 23
107.80111606209999
 33
0.0
  0
SOLID
  5
237
  8
UNIT-DIM
  6
CONTINUOUS
 62
     7
 10
39.964351938999997
 20
68.291273542499994
 30
0.0
 11
39.651851938999997
 21
66.416273542499994
 31
0.0
 12
39.339351938999997
 22
68.291273542499994
 32
0.0
 13
39.339351938999997
 23
68.291273542499994
 33
0.0
  0
SOLID
  5
238
  8
UNIT-DIM
  6
CONTINUOUS
 62
     7
 10
68.892199938999994
 20
124.5481680621
 30
0.0
 11
67.017199938999994
 21
124.8606680621
 31
0.0
 12
68.892199938999994
 22
125.1731680621
 32
0.0
 13
68.892199938999994
 23
125.1731680621
 33
0.0
  0
SOLID
  5
239
  8
UNIT-DIM
  6
CONTINUOUS
 62
     7
 10
139.14219993899999
 20
124.5481680621
 30
0.0
 11
139.14219993899999
 21
125.1731680621
 31
0.0
 12
141.01719993899999
 22
124.8606680621
 32
0.0
 13
141.01719993899999
 23
124.8606680621
 33
0.0
  0
DIMENSION
  5
23A
  8
UNIT-DIM
  6
CONTINUOUS
 62
     7
  2
*D1
 10
96.767199938999994
 20
116.4185674854
 30
0.0
 11
81.704699938999994
 21
115.1060674854
 31
0.0
 70
   128
  1
 2'-6 1/8"\P(764)
 13
66.642199938999994
 23
107.80111606209999
 33
0.0
 14
96.767199938999994
 24
74.791273542499994
 34
0.0
  0
DIMENSION
  5
23B
  8
UNIT-DIM
  6
CONTINUOUS
 62
     7
  2
*D2
 10
50.8603050121
 20
74.791273542499994
 30
0.0
 11
50.8603050121
 21
71.014792046300002
 31
0.0
 70
   128
  1
8 3/8"\P(213)
 13
66.642199938999994
 23
66.416273542499994
 33
0.0
 14
96.767199938999994
 24
74.791273542499994
 34
0.0
 50
90.0
  0
INSERT
  5
23C
  8
0
  2
*U5
 10
0.0
 20
0.0
 30
0.0
  0
INSERT
  5
23D
  8
0
  2
*U6
 10
0.0
 20
0.0
 30
0.0
  0
INSERT
  5
23E
  8
0
  2
*U7
 10
0.0
 20
0.0
 30
0.0
  0
INSERT
  5
23F
  8
0
  2
*U8
 10
0.0
 20
0.0
 30
0.0
  0
INSERT
  5
240
  8
0
  2
*U9
 10
0.0
 20
0.0
 30
0.0
  0
INSERT
  5
241
  8
0
  2
*U10
 10
0.0
 20
0.0
 30
0.0
  0
INSERT
  5
242
  8
0
  2
*U11
 10
0.0
 20
0.0
 30
0.0
  0
INSERT
  5
243
  8
0
  2
*U12
 10
0.0
 20
0.0
 30
0.0
  0
INSERT
  5
244
  8
0
  2
*U13
 10
0.0
 20
0.0
 30
0.0
  0
INSERT
  5
245
  8
0
  2
*U14
 10
0.0
 20
0.0
 30
0.0
  0
INSERT
  5
246
  8
0
  2
*U15
 10
0.0
 20
0.0
 30
0.0
  0
INSERT
  5
247
  8
0
  2
*U16
 10
0.0
 20
0.0
 30
0.0
  0
INSERT
  5
248
  8
0
  2
*U17
 10
0.0
 20
0.0
 30
0.0
  0
INSERT
  5
249
  8
0
  2
*U18
 10
0.0
 20
0.0
 30
0.0
  0
INSERT
  5
24A
  8
0
  2
*U19
 10
0.0
 20
0.0
 30
0.0
  0
INSERT
  5
24B
  8
0
  2
*U20
 10
0.0
 20
0.0
 30
0.0
  0
INSERT
  5
24C
  8
0
  2
*U21
 10
0.0
 20
0.0
 30
0.0
  0
INSERT
  5
24D
  8
0
  2
*U22
 10
0.0
 20
0.0
 30
0.0
  0
INSERT
  5
24E
  8
0
  2
*U23
 10
0.0
 20
0.0
 30
0.0
  0
INSERT
  5
24F
  8
0
  2
*U24
 10
0.0
 20
0.0
 30
0.0
  0
INSERT
  5
250
  8
0
  2
*U25
 10
0.0
 20
0.0
 30
0.0
  0
INSERT
  5
251
  8
0
  2
*U26
 10
0.0
 20
0.0
 30
0.0
  0
INSERT
  5
252
  8
0
  2
*U27
 10
0.0
 20
0.0
 30
0.0
  0
INSERT
  5
253
  8
0
  2
*U28
 10
0.0
 20
0.0
 30
0.0
  0
INSERT
  5
254
  8
0
  2
*U29
 10
0.0
 20
0.0
 30
0.0
  0
INSERT
  5
255
  8
0
  2
*U30
 10
0.0
 20
0.0
 30
0.0
  0
INSERT
  5
256
  8
0
  2
*U31
 10
0.0
 20
0.0
 30
0.0
  0
INSERT
  5
257
  8
0
  2
*U32
 10
0.0
 20
0.0
 30
0.0
  0
INSERT
  5
258
  8
0
  2
*U33
 10
0.0
 20
0.0
 30
0.0
  0
INSERT
  5
259
  8
0
  2
*U34
 10
0.0
 20
0.0
 30
0.0
  0
INSERT
  5
25A
  8
0
  2
*U35
 10
0.0
 20
0.0
 30
0.0
  0
INSERT
  5
25B
  8
0
  2
*U36
 10
0.0
 20
0.0
 30
0.0
  0
INSERT
  5
25C
  8
0
  2
*U37
 10
0.0
 20
0.0
 30
0.0
  0
LINE
  5
25D
  8
NOTES
  6
CONTINUOUS
 62
     1
 10
96.971047281100013
 20
75.247832696499998
 30
0.0
 11
102.3133911133
 21
113.4524230957
 31
0.0
  0
LINE
  5
25E
  8
NOTES
  6
CONTINUOUS
 62
     1
 10
102.3133911133
 20
113.4524230957
 30
0.0
 11
108.66339111329999
 21
113.4524230957
 31
0.0
  0
SOLID
  5
25F
  8
NOTES
  6
CONTINUOUS
 62
     1
 10
96.876636122099995
 20
77.280493891299983
 30
0.0
 11
96.971047281100013
 21
75.247832696499998
 31
0.0
 12
97.619409237399992
 22
77.176628116800003
 32
0.0
 13
97.619409237399992
 23
77.176628116800003
 33
0.0
  0
INSERT
  5
260
  8
0
  2
*U38
 10
0.0
 20
0.0
 30
0.0
  0
INSERT
  5
261
  8
0
  2
*U39
 10
0.0
 20
0.0
 30
0.0
  0
INSERT
  5
262
  8
0
  2
*U40
 10
0.0
 20
0.0
 30
0.0
  0
INSERT
  5
263
  8
0
  2
*U41
 10
0.0
 20
0.0
 30
0.0
  0
INSERT
  5
264
  8
0
  2
*U42
 10
0.0
 20
0.0
 30
0.0
  0
INSERT
  5
265
  8
0
  2
*U43
 10
0.0
 20
0.0
 30
0.0
  0
LINE
  5
266
  8
NOTES
  6
CONTINUOUS
 62
     1
 10
0.0
 20
0.0
 30
0.0
 11
0.0
 21
36.494440873199999
 31
0.0
  0
LINE
  5
267
  8
0
  6
CONTINUOUS
 62
     7
 10
0.0
 20
0.0
 30
0.0
 11
0.0
 21
150.0
 31
0.0
  0
LINE
  5
268
  8
NOTES
  6
CONTINUOUS
 62
     1
 10
16.0
 20
12.4980961895
 30
0.0
 11
16.0
 21
36.494440873199999
 31
0.0
  0
LINE
  5
269
  8
SERVCLEAR
  6
CENTER
 62
     1
 10
18.642199939000001
 20
66.416273542499994
 30
0.0
 11
18.642199939000001
 21
107.80111606209999
 31
0.0
  0
LINE
  5
26A
  8
SERVCLRDIM
  6
CONTINUOUS
 62
     1
 10
20.517199939000001
 20
96.687765499999998
 30
0.0
 11
20.517199939000001
 21
96.062765499999998
 31
0.0
  0
LINE
  5
26B
  8
0
  6
CONTINUOUS
 62
     7
 10
0.0
 20
0.0
 30
0.0
 11
200.0
 21
0.0
 31
0.0
  0
LINE
  5
26C
  8
NOTES
  6
CONTINUOUS
 62
     1
 10
0.0
 20
0.0
 30
0.0
 11
48.0
 21
0.0
 31
0.0
  0
LINE
  5
26D
  8
NOTES
  6
CONTINUOUS
 62
     1
 10
0.0
 20
3.9993907806000002
 30
0.0
 11
48.0
 21
3.9993907806000002
 31
0.0
  0
LINE
  5
26E
  8
NOTES
  6
CONTINUOUS
 62
     1
 10
0.0
 20
4.4993146281999987
 30
0.0
 11
48.0
 21
4.4993146281999987
 31
0.0
  0
LINE
  5
26F
  8
UNIT-DIM
  6
CONTINUOUS
 62
     7
 10
39.651851938999997
 20
107.80111606209999
 30
0.0
 11
39.339351938999997
 21
105.92611606209999
 31
0.0
  0
LINE
  5
270
  8
NOTES
  6
CONTINUOUS
 62
     1
 10
0.0
 20
8.4987054087999994
 30
0.0
 11
48.0
 21
8.4987054087999994
 31
0.0
  0
LINE
  5
271
  8
NOTES
  6
CONTINUOUS
 62
     1
 10
0.0
 20
12.4980961895
 30
0.0
 11
48.0
 21
12.4980961895
 31
0.0
  0
LINE
  5
272
  8
UNIT-DIM
  6
CONTINUOUS
 62
     7
 10
39.651851938999997
 20
107.72386906209999
 30
0.0
 11
39.651851938999997
 21
91.020276542499985
 31
0.0
  0
LINE
  5
273
  8
UNIT-DIM
  6
CONTINUOUS
 62
     7
 10
39.651851938999997
 20
66.793146542499997
 30
0.0
 11
39.651851938999997
 21
83.424396542500006
 31
0.0
  0
LINE
  5
274
  8
UNIT-DIM
  6
CONTINUOUS
 62
     7
 10
39.964351938999997
 20
68.291273542499994
 30
0.0
 11
39.651851938999997
 21
66.416273542499994
 31
0.0
  0
LINE
  5
275
  8
NOTES
  6
CONTINUOUS
 62
     1
 10
0.0
 20
16.497486970099999
 30
0.0
 11
48.0
 21
16.497486970099999
 31
0.0
  0
LINE
  5
276
  8
UNIT-DIM
  6
CONTINUOUS
 62
     7
 10
39.651851938999997
 20
66.416273542499994
 30
0.0
 11
39.339351938999997
 21
68.291273542499994
 31
0.0
  0
LINE
  5
277
  8
NOTES
  6
CONTINUOUS
 62
     1
 10
48.0
 20
0.0
 30
0.0
 11
48.0
 21
36.494440873199999
 31
0.0
  0
LINE
  5
278
  8
NOTES
  6
CONTINUOUS
 62
     1
 10
0.0
 20
20.496877750700001
 30
0.0
 11
48.0
 21
20.496877750700001
 31
0.0
  0
LINE
  5
279
  8
NOTES
  6
CONTINUOUS
 62
     1
 10
0.0
 20
24.4962685313
 30
0.0
 11
48.0
 21
24.4962685313
 31
0.0
  0
LINE
  5
27A
  8
UNIT-DIM
  6
CONTINUOUS
 62
     7
 10
39.964351938999997
 20
105.92611606209999
 30
0.0
 11
39.651851938999997
 21
107.80111606209999
 31
0.0
  0
LINE
  5
27B
  8
SERVCLRDIM
  6
CONTINUOUS
 62
     1
 10
57.277762938999992
 20
76.3486753424
 30
0.0
 11
57.277762938999992
 21
70.976273542499996
 31
0.0
  0
LINE
  5
27C
  8
SERVCLRDIM
  6
CONTINUOUS
 62
     1
 10
57.277762938999992
 20
66.416273542499994
 30
0.0
 11
57.277762938999992
 21
56.498129542500003
 31
0.0
  0
LINE
  5
27D
  8
SERVCLRDIM
  6
CONTINUOUS
 62
     1
 10
57.611096938999992
 20
72.976273542499996
 30
0.0
 11
57.277762938999992
 21
70.976273542499996
 31
0.0
  0
LINE
  5
27E
  8
CURB-14-DIM
  6
CONTINUOUS
 62
     6
 10
137.39219993899999
 20
39.256796542499998
 30
0.0
 11
139.26719993899999
 21
39.569296542499998
 31
0.0
  0
LINE
  5
27F
  8
CURB-24-DIM
  6
CONTINUOUS
 62
     6
 10
137.39219993899999
 20
39.256796542499998
 30
0.0
 11
139.26719993899999
 21
39.569296542499998
 31
0.0
  0
LINE
  5
280
  8
NOTES
  6
CONTINUOUS
 62
     1
 10
0.0
 20
28.495659312000001
 30
0.0
 11
48.0
 21
28.495659312000001
 31
0.0
  0
LINE
  5
281
  8
NOTES
  6
CONTINUOUS
 62
     1
 10
0.0
 20
32.495050092600003
 30
0.0
 11
48.0
 21
32.495050092600003
 31
0.0
  0
LINE
  5
282
  8
SERVCLRDIM
  6
CONTINUOUS
 62
     1
 10
57.611096938999992
 20
64.416273542499994
 30
0.0
 11
57.277762938999992
 21
66.416273542499994
 31
0.0
  0
LINE
  5
283
  8
SERVCLRDIM
  6
CONTINUOUS
 62
     1
 10
57.277762938999992
 20
70.976273542499996
 30
0.0
 11
56.944430938999993
 21
72.976273542499996
 31
0.0
  0
LINE
  5
284
  8
SERVCLRDIM
  6
CONTINUOUS
 62
     1
 10
64.767199938999994
 20
96.687765499999998
 30
0.0
 11
64.767199938999994
 21
96.062765499999998
 31
0.0
  0
LINE
  5
285
  8
SERVCLRDIM
  6
CONTINUOUS
 62
     1
 10
57.277762938999992
 20
66.416273542499994
 30
0.0
 11
56.944430938999993
 21
64.416273542499994
 31
0.0
  0
LINE
  5
286
  8
NOTES
  6
CONTINUOUS
 62
     1
 10
0.0
 20
36.494440873199999
 30
0.0
 11
48.0
 21
36.494440873199999
 31
0.0
  0
LINE
  5
287
  8
CURB-14-DIM
  6
CONTINUOUS
 62
     6
 10
139.26719993899999
 20
39.569296542499998
 30
0.0
 11
119.180714584
 21
39.569296542499998
 31
0.0
  0
LINE
  5
288
  8
CURB-24-DIM
  6
CONTINUOUS
 62
     6
 10
137.39219993899999
 20
39.569296542499998
 30
0.0
 11
119.180714584
 21
39.569296542499998
 31
0.0
  0
LINE
  5
289
  8
CURB-14-DIM
  6
CONTINUOUS
 62
     6
 10
68.392199938999994
 20
39.569296542499998
 30
0.0
 11
99.436964583999995
 21
39.569296542499998
 31
0.0
  0
LINE
  5
28A
  8
CURB-24-DIM
  6
CONTINUOUS
 62
     6
 10
70.642199938999994
 20
39.569296542499998
 30
0.0
 11
99.436964583999995
 21
39.569296542499998
 31
0.0
  0
LINE
  5
28B
  8
CURB-14-DIM
  6
CONTINUOUS
 62
     6
 10
70.267199938999994
 20
39.256796542499998
 30
0.0
 11
68.392199938999994
 21
39.569296542499998
 31
0.0
  0
LINE
  5
28C
  8
CURB-24-DIM
  6
CONTINUOUS
 62
     6
 10
70.267199938999994
 20
39.256796542499998
 30
0.0
 11
68.392199938999994
 21
39.569296542499998
 31
0.0
  0
POLYLINE
  5
28D
  8
UNIT-SOL
  6
CONTINUOUS
 62
     7
 66
     1
 10
0.0
 20
0.0
 30
0.0
 40
0.15
 41
0.15
  0
VERTEX
  5
421
  8
UNIT-SOL
  6
CONTINUOUS
 62
     7
 10
66.642199938999994
 20
107.80111606209999
 30
0.0
  0
VERTEX
  5
422
  8
UNIT-SOL
  6
CONTINUOUS
 62
     7
 10
66.642199938999994
 20
66.416273542499994
 30
0.0
  0
SEQEND
  5
423
  8
UNIT-SOL
  6
CONTINUOUS
 62
     7
  0
LINE
  5
291
  8
UNIT-DIM
  6
CONTINUOUS
 62
     7
 10
66.642199938999994
 20
108.73861606209999
 30
0.0
 11
66.642199938999994
 21
126.1106680621
 31
0.0
  0
LINE
  5
292
  8
CURB-14-DIM
  6
CONTINUOUS
 62
     6
 10
68.392199938999994
 20
69.041273542499994
 30
0.0
 11
68.392199938999994
 21
38.319296542499998
 31
0.0
  0
LINE
  5
293
  8
CURB-24-DIM
  6
CONTINUOUS
 62
     6
 10
68.392199938999994
 20
69.041273542499994
 30
0.0
 11
68.392199938999994
 21
38.319296542499998
 31
0.0
  0
LINE
  5
294
  8
CURB-14
  6
HIDDEN
 62
     8
 10
68.392199938999994
 20
69.978773542499994
 30
0.0
 11
68.392199938999994
 21
70.978773542499994
 31
0.0
  0
LINE
  5
295
  8
CURB-24
  6
HIDDEN
 62
     8
 10
68.392199938999994
 20
69.978773542499994
 30
0.0
 11
68.392199938999994
 21
70.978773542499994
 31
0.0
  0
LINE
  5
296
  8
UNIT-DIM
  6
CONTINUOUS
 62
     7
 10
68.892199938999994
 20
125.1731680621
 30
0.0
 11
68.892199938999994
 21
124.5481680621
 31
0.0
  0
LINE
  5
297
  8
CURB-14-DIM
  6
CONTINUOUS
 62
     6
 10
70.267199938999994
 20
39.881796542499998
 30
0.0
 11
70.267199938999994
 21
39.256796542499998
 31
0.0
  0
LINE
  5
298
  8
CURB-24-DIM
  6
CONTINUOUS
 62
     6
 10
70.267199938999994
 20
39.881796542499998
 30
0.0
 11
70.267199938999994
 21
39.256796542499998
 31
0.0
  0
LINE
  5
299
  8
CURB-24
  6
HIDDEN
 62
     8
 10
70.610949938999994
 20
69.978773542499994
 30
0.0
 11
70.610949938999994
 21
66.573074542499995
 31
0.0
  0
LINE
  5
29A
  8
CURB-14
  6
HIDDEN
 62
     8
 10
70.610949938999994
 20
69.978773542499994
 30
0.0
 11
70.610949938999994
 21
66.573074542499995
 31
0.0
  0
POLYLINE
  5
29B
  8
CURB-24
  6
CONTINUOUS
 62
     6
 66
     1
 10
0.0
 20
0.0
 30
0.0
 40
0.15
 41
0.15
  0
VERTEX
  5
424
  8
CURB-24
  6
CONTINUOUS
 62
     6
 10
70.610949938999994
 20
66.260629542499998
 30
0.0
  0
VERTEX
  5
425
  8
CURB-24
  6
CONTINUOUS
 62
     6
 10
70.610949938999994
 20
46.978773542500001
 30
0.0
  0
SEQEND
  5
426
  8
CURB-24
  6
CONTINUOUS
 62
     6
  0
POLYLINE
  5
29F
  8
CURB-14
  6
CONTINUOUS
 62
     6
 66
     1
 10
0.0
 20
0.0
 30
0.0
 40
0.15
 41
0.15
  0
VERTEX
  5
427
  8
CURB-14
  6
CONTINUOUS
 62
     6
 10
70.610949938999994
 20
66.260629542499998
 30
0.0
  0
VERTEX
  5
428
  8
CURB-14
  6
CONTINUOUS
 62
     6
 10
70.610949938999994
 20
56.978773542500001
 30
0.0
  0
SEQEND
  5
429
  8
CURB-14
  6
CONTINUOUS
 62
     6
  0
LINE
  5
2A3
  8
CURB-14-DIM
  6
CONTINUOUS
 62
     6
 10
68.392199938999994
 20
39.569296542499998
 30
0.0
 11
70.267199938999994
 21
39.881796542499998
 31
0.0
  0
LINE
  5
2A4
  8
CURB-24-DIM
  6
CONTINUOUS
 62
     6
 10
68.392199938999994
 20
39.569296542499998
 30
0.0
 11
70.267199938999994
 21
39.881796542499998
 31
0.0
  0
POLYLINE
  5
2A5
  8
CURB-24
  6
CONTINUOUS
 62
     6
 66
     1
 10
0.0
 20
0.0
 30
0.0
 40
0.15
 41
0.15
  0
VERTEX
  5
42A
  8
CURB-24
  6
CONTINUOUS
 62
     6
 10
67.610949938999994
 20
46.978773542500001
 30
0.0
  0
VERTEX
  5
42B
  8
CURB-24
  6
CONTINUOUS
 62
     6
 10
140.79844993899999
 20
46.978773542500001
 30
0.0
  0
SEQEND
  5
42C
  8
CURB-24
  6
CONTINUOUS
 62
     6
  0
LINE
  5
2A9
  8
CURB-24-DIM
  6
CONTINUOUS
 62
     6
 10
141.90539100460001
 20
46.978773542500001
 30
0.0
 11
163.63627893899999
 21
46.978773542500001
 31
0.0
  0
LINE
  5
2AA
  8
CURB-14-DIM
  6
CONTINUOUS
 62
     6
 10
139.26719993899999
 20
39.569296542499998
 30
0.0
 11
137.39219993899999
 21
39.881796542499998
 31
0.0
  0
LINE
  5
2AB
  8
CURB-24-DIM
  6
CONTINUOUS
 62
     6
 10
139.26719993899999
 20
39.569296542499998
 30
0.0
 11
137.39219993899999
 21
39.881796542499998
 31
0.0
  0
LINE
  5
2AC
  8
CURB-24-DIM
  6
CONTINUOUS
 62
     6
 10
162.07377893899999
 20
48.853773542500001
 30
0.0
 11
162.69877893899999
 21
48.853773542500001
 31
0.0
  0
LINE
  5
2AD
  8
SERVCLRDIM
  6
CONTINUOUS
 62
     1
 10
57.277762938999992
 20
56.498129542500003
 30
0.0
 11
54.233481938999986
 21
56.498129542500003
 31
0.0
  0
POLYLINE
  5
2AE
  8
CURB-14
  6
CONTINUOUS
 62
     6
 66
     1
 10
0.0
 20
0.0
 30
0.0
 40
0.15
 41
0.15
  0
VERTEX
  5
42D
  8
CURB-14
  6
CONTINUOUS
 62
     6
 10
67.610949938999994
 20
56.978773542500001
 30
0.0
  0
VERTEX
  5
42E
  8
CURB-14
  6
CONTINUOUS
 62
     6
 10
140.79844993899999
 20
56.978773542500001
 30
0.0
  0
SEQEND
  5
42F
  8
CURB-14
  6
CONTINUOUS
 62
     6
  0
LINE
  5
2B2
  8
CURB-14-DIM
  6
CONTINUOUS
 62
     6
 10
141.90539100460001
 20
56.978773542500001
 30
0.0
 11
153.63627893899999
 21
56.978773542500001
 31
0.0
  0
LINE
  5
2B3
  8
CURB-14-DIM
  6
CONTINUOUS
 62
     6
 10
152.07377893899999
 20
58.853773542500001
 30
0.0
 11
152.69877893899999
 21
58.853773542500001
 31
0.0
  0
LINE
  5
2B4
  8
SERVCLRDIM
  6
CONTINUOUS
 62
     1
 10
56.944430938999993
 20
64.416273542499994
 30
0.0
 11
57.611096938999992
 21
64.416273542499994
 31
0.0
  0
LINE
  5
2B5
  8
UNIT-DIM
  6
CONTINUOUS
 62
     7
 10
65.704699938999994
 20
66.416273542499994
 30
0.0
 11
38.401851938999997
 21
66.416273542499994
 31
0.0
  0
LINE
  5
2B6
  8
SERVCLEAR
  6
CENTER
 62
     1
 10
177.01719993899999
 20
66.416273542499994
 30
0.0
 11
18.642199939000001
 21
66.416273542499994
 31
0.0
  0
POLYLINE
  5
2B7
  8
UNIT-SOL
  6
CONTINUOUS
 62
     7
 66
     1
 10
0.0
 20
0.0
 30
0.0
 40
0.15
 41
0.15
  0
VERTEX
  5
430
  8
UNIT-SOL
  6
CONTINUOUS
 62
     7
 10
66.642199938999994
 20
66.416273542499994
 30
0.0
  0
VERTEX
  5
431
  8
UNIT-SOL
  6
CONTINUOUS
 62
     7
 10
141.01719993899999
 20
66.416273542499994
 30
0.0
  0
SEQEND
  5
432
  8
UNIT-SOL
  6
CONTINUOUS
 62
     7
  0
LINE
  5
2BB
  8
UNIT-DIM
  6
CONTINUOUS
 62
     7
 10
39.339351938999997
 20
68.291273542499994
 30
0.0
 11
39.964351938999997
 21
68.291273542499994
 31
0.0
  0
LINE
  5
2BC
  8
CURB-14-DIM
  6
CONTINUOUS
 62
     6
 10
152.07377893899999
 20
69.103773542499994
 30
0.0
 11
152.69877893899999
 21
69.103773542499994
 31
0.0
  0
LINE
  5
2BD
  8
CURB-24-DIM
  6
CONTINUOUS
 62
     6
 10
162.07377893899999
 20
69.103773542499994
 30
0.0
 11
162.69877893899999
 21
69.103773542499994
 31
0.0
  0
LINE
  5
2BE
  8
CURB-14
  6
HIDDEN
 62
     8
 10
139.26719993899999
 20
69.978773542499994
 30
0.0
 11
68.392199938999994
 21
69.978773542499994
 31
0.0
  0
LINE
  5
2BF
  8
CURB-24
  6
HIDDEN
 62
     8
 10
139.26719993899999
 20
69.978773542499994
 30
0.0
 11
68.392199938999994
 21
69.978773542499994
 31
0.0
  0
LINE
  5
2C0
  8
SERVCLRDIM
  6
CONTINUOUS
 62
     1
 10
67.454699938999994
 20
70.976273542499996
 30
0.0
 11
56.402762938999999
 21
70.976273542499996
 31
0.0
  0
LINE
  5
2C1
  8
CURB-14
  6
HIDDEN
 62
     8
 10
68.392199938999994
 20
70.978773542499994
 30
0.0
 11
139.26719993899999
 21
70.978773542499994
 31
0.0
  0
LINE
  5
2C2
  8
CURB-24
  6
HIDDEN
 62
     8
 10
68.392199938999994
 20
70.978773542499994
 30
0.0
 11
139.26719993899999
 21
70.978773542499994
 31
0.0
  0
LINE
  5
2C3
  8
CURB-14-DIM
  6
CONTINUOUS
 62
     6
 10
140.2853910046
 20
70.978773542499994
 30
0.0
 11
153.63627893899999
 21
70.978773542499994
 31
0.0
  0
LINE
  5
2C4
  8
CURB-24-DIM
  6
CONTINUOUS
 62
     6
 10
142.45469993899999
 20
70.978773542499994
 30
0.0
 11
163.63627893899999
 21
70.978773542499994
 31
0.0
  0
LINE
  5
2C5
  8
SERVCLRDIM
  6
CONTINUOUS
 62
     1
 10
56.944430938999993
 20
72.976273542499996
 30
0.0
 11
57.611096938999992
 21
72.976273542499996
 31
0.0
  0
LINE
  5
2C6
  8
UNIT-SOL
  6
CONTINUOUS
 62
     7
 10
103.64219993899999
 20
84.626757221800005
 30
0.0
 11
103.64219993899999
 21
81.604506509499998
 31
0.0
  0
LINE
  5
2C7
  8
UNIT-SOL
  6
CONTINUOUS
 62
     7
 10
105.57969993899999
 20
81.604506509499998
 30
0.0
 11
105.57969993899999
 21
84.626757221800005
 31
0.0
  0
LINE
  5
2C8
  8
UNIT-SOL
  6
CONTINUOUS
 62
     7
 10
107.7373046875
 20
107.80111606209999
 30
0.0
 11
107.7373046875
 21
66.416273542499994
 31
0.0
  0
LINE
  5
2C9
  8
UNIT-SOL
  6
CONTINUOUS
 62
     7
 10
103.64219993899999
 20
81.604506509499998
 30
0.0
 11
105.57969993899999
 21
81.604506509499998
 31
0.0
  0
LINE
  5
2CA
  8
SERVCLRDIM
  6
CONTINUOUS
 62
     1
 10
20.517199939000001
 20
96.062765499999998
 30
0.0
 11
18.642199939000001
 21
96.375265499999998
 31
0.0
  0
LINE
  5
2CB
  8
SERVCLRDIM
  6
CONTINUOUS
 62
     1
 10
175.14219993899999
 20
96.062765499999998
 30
0.0
 11
177.01719993899999
 21
96.375265499999998
 31
0.0
  0
LINE
  5
2CC
  8
SERVCLRDIM
  6
CONTINUOUS
 62
     1
 10
141.01719993899999
 20
96.375265499999998
 30
0.0
 11
142.89219993899999
 21
96.687765499999998
 31
0.0
  0
LINE
  5
2CD
  8
UNIT-SOL
  6
CONTINUOUS
 62
     7
 10
103.64219993899999
 20
84.626757221800005
 30
0.0
 11
105.57969993899999
 21
84.626757221800005
 31
0.0
  0
LINE
  5
2CE
  8
SERVCLRDIM
  6
CONTINUOUS
 62
     1
 10
177.01719993899999
 20
96.375265499999998
 30
0.0
 11
164.1053827147
 21
96.375265499999998
 31
0.0
  0
LINE
  5
2CF
  8
SERVCLRDIM
  6
CONTINUOUS
 62
     1
 10
66.642199938999994
 20
96.375265499999998
 30
0.0
 11
50.913032938999997
 21
96.375265499999998
 31
0.0
  0
LINE
  5
2D0
  8
SERVCLRDIM
  6
CONTINUOUS
 62
     1
 10
18.642199939000001
 20
96.375265499999998
 30
0.0
 11
46.371365938999993
 21
96.375265499999998
 31
0.0
  0
LINE
  5
2D1
  8
SERVCLRDIM
  6
CONTINUOUS
 62
     1
 10
141.01719993899999
 20
96.375265499999998
 30
0.0
 11
158.76705899999999
 21
96.375265499999998
 31
0.0
  0
LINE
  5
2D2
  8
SERVCLRDIM
  6
CONTINUOUS
 62
     1
 10
66.642199938999994
 20
96.375265499999998
 30
0.0
 11
64.767199938999994
 21
96.687765499999998
 31
0.0
  0
LINE
  5
2D3
  8
SERVCLRDIM
  6
CONTINUOUS
 62
     1
 10
64.767199938999994
 20
96.062765499999998
 30
0.0
 11
66.642199938999994
 21
96.375265499999998
 31
0.0
  0
LINE
  5
2D4
  8
SERVCLRDIM
  6
CONTINUOUS
 62
     1
 10
142.89219993899999
 20
96.062765499999998
 30
0.0
 11
141.01719993899999
 21
96.375265499999998
 31
0.0
  0
LINE
  5
2D5
  8
SERVCLRDIM
  6
CONTINUOUS
 62
     1
 10
18.642199939000001
 20
96.375265499999998
 30
0.0
 11
20.517199939000001
 21
96.687765499999998
 31
0.0
  0
LINE
  5
2D6
  8
UNIT-DIM
  6
CONTINUOUS
 62
     7
 10
39.339351938999997
 20
105.92611606209999
 30
0.0
 11
39.964351938999997
 21
105.92611606209999
 31
0.0
  0
POLYLINE
  5
2D7
  8
UNIT-SOL
  6
CONTINUOUS
 62
     7
 66
     1
 10
0.0
 20
0.0
 30
0.0
 40
0.15
 41
0.15
  0
VERTEX
  5
433
  8
UNIT-SOL
  6
CONTINUOUS
 62
     7
 10
141.01719993899999
 20
107.80111606209999
 30
0.0
  0
VERTEX
  5
434
  8
UNIT-SOL
  6
CONTINUOUS
 62
     7
 10
66.642199938999994
 20
107.80111606209999
 30
0.0
  0
SEQEND
  5
435
  8
UNIT-SOL
  6
CONTINUOUS
 62
     7
  0
LINE
  5
2DB
  8
UNIT-DIM
  6
CONTINUOUS
 62
     7
 10
65.704699938999994
 20
107.80111606209999
 30
0.0
 11
38.401851938999997
 21
107.80111606209999
 31
0.0
  0
LINE
  5
2DC
  8
SERVCLEAR
  6
CENTER
 62
     1
 10
18.642199939000001
 20
107.80111606209999
 30
0.0
 11
177.01719993899999
 21
107.80111606209999
 31
0.0
  0
LINE
  5
2DD
  8
SERVCLRDIM
  6
CONTINUOUS
 62
     1
 10
177.01719993899999
 20
96.375265499999998
 30
0.0
 11
175.14219993899999
 21
96.687765499999998
 31
0.0
  0
LINE
  5
2DE
  8
CURB-14-DIM
  6
CONTINUOUS
 62
     6
 10
137.39219993899999
 20
39.881796542499998
 30
0.0
 11
137.39219993899999
 21
39.256796542499998
 31
0.0
  0
LINE
  5
2DF
  8
CURB-24-DIM
  6
CONTINUOUS
 62
     6
 10
137.39219993899999
 20
39.881796542499998
 30
0.0
 11
137.39219993899999
 21
39.256796542499998
 31
0.0
  0
LINE
  5
2E0
  8
CURB-24
  6
HIDDEN
 62
     8
 10
137.42344993899999
 20
69.978773542499994
 30
0.0
 11
137.42344993899999
 21
66.573074542499995
 31
0.0
  0
LINE
  5
2E1
  8
CURB-14
  6
HIDDEN
 62
     8
 10
137.42344993899999
 20
69.978773542499994
 30
0.0
 11
137.42344993899999
 21
66.573074542499995
 31
0.0
  0
POLYLINE
  5
2E2
  8
CURB-24
  6
CONTINUOUS
 62
     6
 66
     1
 10
0.0
 20
0.0
 30
0.0
 40
0.15
 41
0.15
  0
VERTEX
  5
436
  8
CURB-24
  6
CONTINUOUS
 62
     6
 10
137.42344993899999
 20
66.260629542499998
 30
0.0
  0
VERTEX
  5
437
  8
CURB-24
  6
CONTINUOUS
 62
     6
 10
137.42344993899999
 20
46.978773542500001
 30
0.0
  0
SEQEND
  5
438
  8
CURB-24
  6
CONTINUOUS
 62
     6
  0
POLYLINE
  5
2E6
  8
CURB-14
  6
CONTINUOUS
 62
     6
 66
     1
 10
0.0
 20
0.0
 30
0.0
 40
0.15
 41
0.15
  0
VERTEX
  5
439
  8
CURB-14
  6
CONTINUOUS
 62
     6
 10
137.42344993899999
 20
66.260629542499998
 30
0.0
  0
VERTEX
  5
43A
  8
CURB-14
  6
CONTINUOUS
 62
     6
 10
137.42344993899999
 20
56.978773542500001
 30
0.0
  0
SEQEND
  5
43B
  8
CURB-14
  6
CONTINUOUS
 62
     6
  0
LINE
  5
2EA
  8
UNIT-DIM
  6
CONTINUOUS
 62
     7
 10
139.14219993899999
 20
125.1731680621
 30
0.0
 11
139.14219993899999
 21
124.5481680621
 31
0.0
  0
LINE
  5
2EB
  8
CURB-14
  6
HIDDEN
 62
     8
 10
139.26719993899999
 20
70.978773542499994
 30
0.0
 11
139.26719993899999
 21
69.978773542499994
 31
0.0
  0
LINE
  5
2EC
  8
CURB-24
  6
HIDDEN
 62
     8
 10
139.26719993899999
 20
70.978773542499994
 30
0.0
 11
139.26719993899999
 21
69.978773542499994
 31
0.0
  0
LINE
  5
2ED
  8
CURB-14-DIM
  6
CONTINUOUS
 62
     6
 10
139.26719993899999
 20
69.041273542499994
 30
0.0
 11
139.26719993899999
 21
38.319296542499998
 31
0.0
  0
LINE
  5
2EE
  8
CURB-24-DIM
  6
CONTINUOUS
 62
     6
 10
139.26719993899999
 20
69.041273542499994
 30
0.0
 11
139.26719993899999
 21
38.319296542499998
 31
0.0
  0
POLYLINE
  5
2EF
  8
UNIT-SOL
  6
CONTINUOUS
 62
     7
 66
     1
 10
0.0
 20
0.0
 30
0.0
 40
0.15
 41
0.15
  0
VERTEX
  5
43C
  8
UNIT-SOL
  6
CONTINUOUS
 62
     7
 10
141.01719993899999
 20
66.416273542499994
 30
0.0
  0
VERTEX
  5
43D
  8
UNIT-SOL
  6
CONTINUOUS
 62
     7
 10
141.01719993899999
 20
107.80111606209999
 30
0.0
  0
SEQEND
  5
43E
  8
UNIT-SOL
  6
CONTINUOUS
 62
     7
  0
LINE
  5
2F3
  8
UNIT-DIM
  6
CONTINUOUS
 62
     7
 10
141.01719993899999
 20
108.73861606209999
 30
0.0
 11
141.01719993899999
 21
126.1106680621
 31
0.0
  0
LINE
  5
2F4
  8
UNIT-DIM
  6
CONTINUOUS
 62
     7
 10
139.14219993899999
 20
124.5481680621
 30
0.0
 11
141.01719993899999
 21
124.8606680621
 31
0.0
  0
LINE
  5
2F5
  8
SERVCLRDIM
  6
CONTINUOUS
 62
     1
 10
142.89219993899999
 20
96.687765499999998
 30
0.0
 11
142.89219993899999
 21
96.062765499999998
 31
0.0
  0
LINE
  5
2F6
  8
UNIT-DIM
  6
CONTINUOUS
 62
     7
 10
68.892199938999994
 20
124.5481680621
 30
0.0
 11
67.017199938999994
 21
124.8606680621
 31
0.0
  0
LINE
  5
2F7
  8
CURB-14-DIM
  6
CONTINUOUS
 62
     6
 10
152.38627893899999
 20
56.978773542500001
 30
0.0
 11
152.07377893899999
 21
58.853773542500001
 31
0.0
  0
LINE
  5
2F8
  8
CURB-14-DIM
  6
CONTINUOUS
 62
     6
 10
152.38627893899999
 20
70.978773542499994
 30
0.0
 11
152.38627893899999
 21
67.106064542499993
 31
0.0
  0
LINE
  5
2F9
  8
CURB-14-DIM
  6
CONTINUOUS
 62
     6
 10
152.38627893899999
 20
57.8764825425
 30
0.0
 11
152.38627893899999
 21
60.851482542500001
 31
0.0
  0
LINE
  5
2FA
  8
CURB-14-DIM
  6
CONTINUOUS
 62
     6
 10
152.38627893899999
 20
70.978773542499994
 30
0.0
 11
152.07377893899999
 21
69.103773542499994
 31
0.0
  0
LINE
  5
2FB
  8
CURB-14-DIM
  6
CONTINUOUS
 62
     6
 10
152.69877893899999
 20
58.853773542500001
 30
0.0
 11
152.38627893899999
 21
56.978773542500001
 31
0.0
  0
LINE
  5
2FC
  8
UNIT-DIM
  6
CONTINUOUS
 62
     7
 10
67.017199938999994
 20
124.8606680621
 30
0.0
 11
68.892199938999994
 21
125.1731680621
 31
0.0
  0
LINE
  5
2FD
  8
UNIT-DIM
  6
CONTINUOUS
 62
     7
 10
141.01719993899999
 20
124.8606680621
 30
0.0
 11
118.808865939
 21
124.8606680621
 31
0.0
  0
LINE
  5
2FE
  8
UNIT-DIM
  6
CONTINUOUS
 62
     7
 10
68.517199938999994
 20
124.8606680621
 30
0.0
 11
102.600532939
 21
124.8606680621
 31
0.0
  0
LINE
  5
2FF
  8
UNIT-DIM
  6
CONTINUOUS
 62
     7
 10
141.01719993899999
 20
124.8606680621
 30
0.0
 11
139.14219993899999
 21
125.1731680621
 31
0.0
  0
LINE
  5
300
  8
CURB-14-DIM
  6
CONTINUOUS
 62
     6
 10
152.69877893899999
 20
69.103773542499994
 30
0.0
 11
152.38627893899999
 21
70.978773542499994
 31
0.0
  0
LINE
  5
301
  8
CURB-24-DIM
  6
CONTINUOUS
 62
     6
 10
162.38627893899999
 20
70.978773542499994
 30
0.0
 11
162.38627893899999
 21
62.37318254249999
 31
0.0
  0
LINE
  5
302
  8
CURB-24-DIM
  6
CONTINUOUS
 62
     6
 10
162.38627893899999
 20
47.609364542500003
 30
0.0
 11
162.38627893899999
 21
55.584364542499991
 31
0.0
  0
LINE
  5
303
  8
CURB-24-DIM
  6
CONTINUOUS
 62
     6
 10
162.38627893899999
 20
70.978773542499994
 30
0.0
 11
162.07377893899999
 21
69.103773542499994
 31
0.0
  0
LINE
  5
304
  8
CURB-24-DIM
  6
CONTINUOUS
 62
     6
 10
162.38627893899999
 20
46.978773542500001
 30
0.0
 11
162.07377893899999
 21
48.853773542500001
 31
0.0
  0
LINE
  5
305
  8
CURB-24-DIM
  6
CONTINUOUS
 62
     6
 10
162.69877893899999
 20
69.103773542499994
 30
0.0
 11
162.38627893899999
 21
70.978773542499994
 31
0.0
  0
LINE
  5
306
  8
CURB-24-DIM
  6
CONTINUOUS
 62
     6
 10
162.69877893899999
 20
48.853773542500001
 30
0.0
 11
162.38627893899999
 21
46.978773542500001
 31
0.0
  0
LINE
  5
307
  8
SERVCLRDIM
  6
CONTINUOUS
 62
     1
 10
175.14219993899999
 20
96.687765499999998
 30
0.0
 11
175.14219993899999
 21
96.062765499999998
 31
0.0
  0
LINE
  5
308
  8
SERVCLEAR
  6
CENTER
 62
     1
 10
177.01719993899999
 20
107.80111606209999
 30
0.0
 11
177.01719993899999
 21
66.416273542499994
 31
0.0
  0
LINE
  5
309
  8
0
  6
CONTINUOUS
 62
     7
 10
0.0
 20
150.0
 30
0.0
 11
200.0
 21
150.0
 31
0.0
  0
LINE
  5
30A
  8
0
  6
CONTINUOUS
 62
     7
 10
200.0
 20
0.0
 30
0.0
 11
200.0
 21
150.0
 31
0.0
  0
CIRCLE
  5
30B
  8
UNIT-SOL
  6
CONTINUOUS
 62
     7
 10
96.767199938999994
 20
74.791273542499994
 30
0.0
 40
0.5
  0
ENDSEC
  0
EOF
