  0
SECTION
  2
HEADER
  9
$ACADVER
  1
AC1009
  9
$INSBASE
 10
0.0
 20
0.0
 30
0.0
  9
$EXTMIN
 10
-0.0053401687244445
 20
-0.004577287478071
 30
-0.0015258207003583
  9
$EXTMAX
 10
175.0053409836317
 20
150.00457798597
 30
0.0000000349246037
  9
$LIMMIN
 10
0.0
 20
0.0
  9
$LIMMAX
 10
175.0
 20
150.0
  9
$ORTHOMODE
 70
     0
  9
$REGENMODE
 70
     1
  9
$FILLMODE
 70
     1
  9
$QTEXTMODE
 70
     0
  9
$MIRRTEXT
 70
     0
  9
$DRAGMODE
 70
     2
  9
$LTSCALE
 40
9.777777777799999
  9
$OSMODE
 70
    37
  9
$ATTMODE
 70
     1
  9
$TEXTSIZE
 40
0.2
  9
$TRACEWID
 40
0.05
  9
$TEXTSTYLE
  7
STANDARD
  9
$CLAYER
  8
0
  9
$CELTYPE
  6
ByLayer
  9
$CECOLOR
 62
   256
  9
$DIMSCALE
 40
1.0
  9
$DIMASZ
 40
2.0
  9
$DIMEXO
 40
1.587499999999999
  9
$DIMDLI
 40
6.7555555555999991
  9
$DIMRND
 40
0.0
  9
$DIMDLE
 40
0.0
  9
$DIMEXE
 40
1.587499999999999
  9
$DIMTP
 40
0.0
  9
$DIMTM
 40
0.0
  9
$DIMTXT
 40
2.0
  9
$DIMCEN
 40
1.6000000000000001
  9
$DIMTSZ
 40
0.0
  9
$DIMTOL
 70
     0
  9
$DIMLIM
 70
     0
  9
$DIMTIH
 70
     1
  9
$DIMTOH
 70
     1
  9
$DIMSE1
 70
     0
  9
$DIMSE2
 70
     0
  9
$DIMTAD
 70
     0
  9
$DIMZIN
 70
     0
  9
$DIMBLK
  1
_FILLED
  9
$DIMASO
 70
     1
  9
$DIMSHO
 70
     1
  9
$DIMPOST
  1

  9
$DIMAPOST
  1

  9
$DIMALT
 70
     0
  9
$DIMALTD
 70
     2
  9
$DIMALTF
 40
25.399999999999999
  9
$DIMLFAC
 40
1.0
  9
$DIMTOFL
 70
     0
  9
$DIMTVP
 40
0.0
  9
$DIMTIX
 70
     0
  9
$DIMSOXD
 70
     0
  9
$DIMSAH
 70
     0
  9
$DIMBLK1
  1

  9
$DIMBLK2
  1

  9
$DIMSTYLE
  2
STANDARD
  9
$DIMCLRD
 70
     0
  9
$DIMCLRE
 70
     0
  9
$DIMCLRT
 70
     0
  9
$DIMTFAC
 40
1.0
  9
$DIMGAP
 40
0.09
  9
$LUNITS
 70
     2
  9
$LUPREC
 70
     4
  9
$SKETCHINC
 40
0.1
  9
$FILLETRAD
 40
0.0
  9
$AUNITS
 70
     0
  9
$AUPREC
 70
     0
  9
$MENU
  1
.
  9
$ELEVATION
 40
0.0
  9
$PELEVATION
 40
0.0
  9
$THICKNESS
 40
0.0
  9
$LIMCHECK
 70
     0
  9
$BLIPMODE
 70
     0
  9
$CHAMFERA
 40
0.0
  9
$CHAMFERB
 40
0.0
  9
$SKPOLY
 70
     0
  9
$TDCREATE
 40
2456262.6012333329
  9
$TDUPDATE
 40
2456262.6019778592
  9
$TDINDWG
 40
0.0007451042
  9
$TDUSRTIMER
 40
0.0007451042
  9
$USRTIMER
 70
     1
  9
$ANGBASE
 50
0.0
  9
$ANGDIR
 70
     0
  9
$PDMODE
 70
     3
  9
$PDSIZE
 40
7.9375
  9
$PLINEWID
 40
0.0
  9
$COORDS
 70
     1
  9
$SPLFRAME
 70
     0
  9
$SPLINETYPE
 70
     6
  9
$SPLINESEGS
 70
     8
  9
$ATTDIA
 70
     0
  9
$ATTREQ
 70
     1
  9
$HANDLING
 70
     1
  9
$HANDSEED
  5
278
  9
$SURFTAB1
 70
     6
  9
$SURFTAB2
 70
     6
  9
$SURFTYPE
 70
     6
  9
$SURFU
 70
     6
  9
$SURFV
 70
     6
  9
$UCSNAME
  2

  9
$UCSORG
 10
0.0
 20
0.0
 30
0.0
  9
$UCSXDIR
 10
1.0
 20
0.0
 30
0.0
  9
$UCSYDIR
 10
0.0
 20
1.0
 30
0.0
  9
$PUCSNAME
  2

  9
$PUCSORG
 10
0.0
 20
0.0
 30
0.0
  9
$PUCSXDIR
 10
1.0
 20
0.0
 30
0.0
  9
$PUCSYDIR
 10
0.0
 20
1.0
 30
0.0
  9
$USERI1
 70
     0
  9
$USERI2
 70
     0
  9
$USERI3
 70
     0
  9
$USERI4
 70
     0
  9
$USERI5
 70
     0
  9
$USERR1
 40
0.0
  9
$USERR2
 40
0.0
  9
$USERR3
 40
0.0
  9
$USERR4
 40
0.0
  9
$USERR5
 40
0.0
  9
$WORLDVIEW
 70
     1
  9
$SHADEDGE
 70
     3
  9
$SHADEDIF
 70
    70
  9
$TILEMODE
 70
     1
  9
$MAXACTVP
 70
    64
  9
$PLIMCHECK
 70
     0
  9
$PEXTMIN
 10
1.0000000000000000E+020
 20
1.0000000000000000E+020
 30
1.0000000000000000E+020
  9
$PEXTMAX
 10
-1.0000000000000000E+020
 20
-1.0000000000000000E+020
 30
-1.0000000000000000E+020
  9
$PLIMMIN
 10
0.0
 20
0.0
  9
$PLIMMAX
 10
12.0
 20
9.0
  9
$UNITMODE
 70
     0
  9
$VISRETAIN
 70
     1
  9
$PLINEGEN
 70
     0
  9
$PSLTSCALE
 70
     1
  0
ENDSEC
  0
SECTION
  2
TABLES
  0
TABLE
  2
VPORT
 70
     1
  0
VPORT
  2
*ACTIVE
 70
     0
 10
0.0
 20
0.0
 11
1.0
 21
1.0
 12
87.500000407453655
 22
75.000000349245994
 13
0.0
 23
0.0
 14
1.0
 24
1.0
 15
0.0
 25
0.0
 16
0.0
 26
0.0
 36
1.0
 17
0.0
 27
0.0
 37
0.0
 40
160.2289798730267
 41
1.1005586592178771
 42
50.0
 43
0.0
 44
0.0
 50
0.0
 51
0.0
 71
     0
 72
   100
 73
     1
 74
     1
 75
     0
 76
     0
 77
     0
 78
     0
  0
ENDTAB
  0
TABLE
  2
LTYPE
 70
     8
  0
LTYPE
  2
ByBlock
 70
     0
  3

 72
    65
 73
     0
 40
0.0
  0
LTYPE
  2
ByLayer
 70
     0
  3

 72
    65
 73
     0
 40
0.0
  0
LTYPE
  2
CONTINUOUS
 70
     0
  3
Solid line
 72
    65
 73
     0
 40
0.0
  0
LTYPE
  2
CENTER
 70
     0
  3
____ _ ____ _ ____ _ ____ _ ____ _ ____ _ ____
 72
    65
 73
     4
 40
0.6
 49
0.375
 49
-0.075
 49
0.075
 49
-0.075
  0
LTYPE
  2
HIDDEN
 70
     0
  3
- - - - - - - - - - - - - - - - - - - -
 72
    65
 73
     2
 40
0.2
 49
0.1
 49
-0.1
  0
LTYPE
  2
PHANTOM
 70
     0
  3
_____ _ _ _____ _ _ _____ _ _ _____
 72
    65
 73
     6
 40
0.8
 49
0.45
 49
-0.05
 49
0.1
 49
-0.05
 49
0.1
 49
-0.05
  0
LTYPE
  2
DOT
 70
     0
  3
. . . . . . . . . . . . . . . . . . . .
 72
    65
 73
     2
 40
0.2
 49
0.1
 49
-0.1
  0
LTYPE
  2
DASHED
 70
     0
  3
- - - - - - - - - - - - - - - - - - - -
 72
    65
 73
     2
 40
0.2
 49
0.1
 49
-0.1
  0
ENDTAB
  0
TABLE
  2
LAYER
 70
    16
  0
LAYER
  2
0
 70
     0
 62
     7
  6
CONTINUOUS
  0
LAYER
  2
DEFAULT_1
 70
     0
 62
     7
  6
CENTER
  0
LAYER
  2
DEFAULT_2
 70
     0
 62
     8
  6
HIDDEN
  0
LAYER
  2
DEFAULT_3
 70
     0
 62
     7
  6
PHANTOM
  0
LAYER
  2
CURB-14
 70
     0
 62
     6
  6
CONTINUOUS
  0
LAYER
  2
CURB-14-DIM
 70
     0
 62
     6
  6
CONTINUOUS
  0
LAYER
  2
CURB-24
 70
     0
 62
     6
  6
CONTINUOUS
  0
LAYER
  2
CURB-24-DIM
 70
     0
 62
     6
  6
CONTINUOUS
  0
LAYER
  2
HOOD
 70
     0
 62
     7
  6
CONTINUOUS
  0
LAYER
  2
NOTES
 70
     0
 62
     1
  6
CONTINUOUS
  0
LAYER
  2
SERVCLEAR
 70
     0
 62
     1
  6
CONTINUOUS
  0
LAYER
  2
SERVCLRDIM
 70
     0
 62
     1
  6
CONTINUOUS
  0
LAYER
  2
UNIT-DIM
 70
     0
 62
     7
  6
CONTINUOUS
  0
LAYER
  2
UNIT-DUCTS
 70
     0
 62
     2
  6
CONTINUOUS
  0
LAYER
  2
UNIT-SOL
 70
     0
 62
     7
  6
CONTINUOUS
  0
LAYER
  2
UNITDUCTDIM
 70
     0
 62
     2
  6
CONTINUOUS
  0
ENDTAB
  0
TABLE
  2
STYLE
 70
     4
  0
STYLE
  2
STANDARD
 70
     0
 40
0.0
 41
0.8
 50
0.0
 71
     0
 42
0.2
  3
txt
  4

  0
STYLE
  2
ANNOTATIVE
 70
     0
 40
0.0
 41
1.0
 50
0.0
 71
     0
 42
0.2
  3
txt
  4

  0
STYLE
  2
TEXTSTYLE_1
 70
     0
 40
0.0
 41
0.8
 50
0.0
 71
     0
 42
0.2
  3
gdt
  4

  0
STYLE
  2
TEXTSTYLE_2
 70
     0
 40
0.0
 41
8.0
 50
0.0
 71
     0
 42
0.2
  3
txt
  4

  0
ENDTAB
  0
TABLE
  2
VIEW
 70
     0
  0
ENDTAB
  0
TABLE
  2
UCS
 70
     0
  0
ENDTAB
  0
TABLE
  2
APPID
 70
     4
  0
APPID
  2
ACAD
 70
     0
  0
APPID
  2
ACADANNOTATIVE
 70
     0
  0
APPID
  2
ACAD_NAV_VCDISPLAY
 70
     0
  0
APPID
  2
ACAD_MLEADERVER
 70
     0
  0
ENDTAB
  0
TABLE
  2
DIMSTYLE
 70
     2
  0
DIMSTYLE
  2
STANDARD
 70
     0
  3

  4

  5

  6

  7

 40
1.0
 41
0.18
 42
0.0625
 43
0.38
 44
0.18
 45
0.0
 46
0.0
 47
0.0
 48
0.0
140
0.18
141
0.09
142
0.0
143
25.399999999999999
144
1.0
145
0.0
146
1.0
147
0.09
 71
     0
 72
     0
 73
     1
 74
     1
 75
     0
 76
     0
 77
     0
 78
     0
170
     0
171
     2
172
     0
173
     0
174
     0
175
     0
176
     0
177
     0
178
     0
  0
DIMSTYLE
  2
ANNOTATIVE
 70
     0
  3

  4

  5

  6

  7

 40
1.0
 41
0.18
 42
0.0625
 43
0.38
 44
0.18
 45
0.0
 46
0.0
 47
0.0
 48
0.0
140
0.18
141
0.09
142
0.0
143
25.399999999999999
144
1.0
145
0.0
146
1.0
147
0.09
 71
     0
 72
     0
 73
     1
 74
     1
 75
     0
 76
     0
 77
     0
 78
     0
170
     0
171
     2
172
     0
173
     0
174
     0
175
     0
176
     0
177
     0
178
     0
  0
ENDTAB
  0
ENDSEC
  0
SECTION
  2
BLOCKS
  0
BLOCK
  8
0
  2
$MODEL_SPACE
 70
     0
 10
0.0
 20
0.0
 30
0.0
  3
$MODEL_SPACE
  1

  0
ENDBLK
  5
6D
  8
0
  0
BLOCK
 67
     1
  8
0
  2
$PAPER_SPACE
 70
     0
 10
0.0
 20
0.0
 30
0.0
  3
$PAPER_SPACE
  1

  0
ENDBLK
  5
69
 67
     1
  8
0
  0
BLOCK
  8
0
  2
_FILLED
 70
     0
 10
0.0
 20
0.0
 30
0.0
  3
_FILLED
  1

  0
SOLID
  5
8C
  8
0
  6
ByBlock
 62
     0
 10
0.0
 20
0.0
 30
0.0
 11
-1.0
 21
0.1875
 31
0.0
 12
-1.0
 22
-0.1875
 32
0.0
 13
-1.0
 23
-0.1875
 33
0.0
  0
ENDBLK
  5
8D
  8
0
  6
ByBlock
 62
     0
  0
BLOCK
  8
UNIT-DIM
  6
CONTINUOUS
 62
     7
  2
*D1
 70
     1
 10
0.0
 20
0.0
 30
0.0
  3
*D1
  1

  0
TEXT
  5
90
  8
UNIT-DIM
  6
CONTINUOUS
 62
     7
 10
60.941546254166667
 20
42.066849965699987
 30
0.0
 40
1.75
  1
3'-1 7/8" (962)
 41
0.8
 72
     1
 11
69.924879587500001
 21
42.066849965699987
 31
0.0
  0
LINE
  5
91
  8
UNIT-DIM
  6
CONTINUOUS
 62
     7
 10
50.987379587500001
 20
64.828773542500002
 30
0.0
 11
50.987379587500001
 21
42.066849965699987
 31
0.0
  0
LINE
  5
92
  8
UNIT-DIM
  6
CONTINUOUS
 62
     7
 10
50.987379587500001
 20
42.066849965699987
 30
0.0
 11
50.987379587500001
 21
41.354349965700003
 31
0.0
  0
LINE
  5
93
  8
UNIT-DIM
  6
CONTINUOUS
 62
     7
 10
88.862379587499987
 20
71.828773542500002
 30
0.0
 11
88.862379587499987
 21
42.066849965699987
 31
0.0
  0
LINE
  5
94
  8
UNIT-DIM
  6
CONTINUOUS
 62
     7
 10
88.862379587499987
 20
42.066849965699987
 30
0.0
 11
88.862379587499987
 21
41.354349965700003
 31
0.0
  0
LINE
  5
95
  8
UNIT-DIM
  6
CONTINUOUS
 62
     7
 10
50.987379587500001
 20
42.941849965700001
 30
0.0
 11
57.674879587500001
 21
42.941849965700001
 31
0.0
  0
LINE
  5
96
  8
UNIT-DIM
  6
CONTINUOUS
 62
     7
 10
88.862379587499987
 20
42.941849965700001
 30
0.0
 11
82.174879587500001
 21
42.941849965700001
 31
0.0
  0
INSERT
  5
97
  8
UNIT-DIM
  6
CONTINUOUS
 62
     7
  2
_FILLED
 10
50.987379587500001
 20
42.941849965700001
 30
0.0
 41
2.0
 42
2.0
 43
2.0
 50
180.0
  0
INSERT
  5
98
  8
UNIT-DIM
  6
CONTINUOUS
 62
     7
  2
_FILLED
 10
88.862379587499987
 20
42.941849965700001
 30
0.0
 41
2.0
 42
2.0
 43
2.0
  0
ENDBLK
  5
99
  8
0
  6
ByBlock
 62
     0
  0
BLOCK
  8
UNIT-DIM
  6
CONTINUOUS
 62
     7
  2
*D2
 70
     1
 10
0.0
 20
0.0
 30
0.0
  3
*D2
  1

  0
TEXT
  5
9C
  8
UNIT-DIM
  6
CONTINUOUS
 62
     7
 10
72.011217789533333
 20
88.453605885499996
 30
0.0
 40
1.75
  1
7" (177)
 41
0.8
 72
     2
 11
80.877884456199993
 21
88.453605885499996
 31
0.0
  0
LINE
  5
9D
  8
UNIT-DIM
  6
CONTINUOUS
 62
     7
 10
88.235687652500005
 20
73.416273542499994
 30
0.0
 11
86.270676968199993
 21
73.416273542499994
 31
0.0
  0
LINE
  5
9E
  8
UNIT-DIM
  6
CONTINUOUS
 62
     7
 10
87.858176968199999
 20
66.416273542499994
 30
0.0
 11
87.858176968199999
 21
61.416273542500001
 31
0.0
  0
LINE
  5
9F
  8
UNIT-DIM
  6
CONTINUOUS
 62
     7
 10
87.858176968199999
 20
73.416273542499994
 30
0.0
 11
87.858176968199999
 21
89.328605885499996
 31
0.0
  0
LINE
  5
A0
  8
UNIT-DIM
  6
CONTINUOUS
 62
     7
 10
87.858176968199999
 20
89.328605885499996
 30
0.0
 11
82.627884456199993
 21
89.328605885499996
 31
0.0
  0
INSERT
  5
A1
  8
UNIT-DIM
  6
CONTINUOUS
 62
     7
  2
_FILLED
 10
87.858176968199999
 20
66.416273542499994
 30
0.0
 41
2.0
 42
2.0
 43
2.0
 50
90.0
  0
INSERT
  5
A2
  8
UNIT-DIM
  6
CONTINUOUS
 62
     7
  2
_FILLED
 10
87.858176968199999
 20
73.416273542499994
 30
0.0
 41
2.0
 42
2.0
 43
2.0
 50
270.0
  0
ENDBLK
  5
A3
  8
0
  6
ByBlock
 62
     0
  0
BLOCK
  8
UNITDUCTDIM
  6
CONTINUOUS
 62
     2
  2
*D3
 70
     1
 10
0.0
 20
0.0
 30
0.0
  3
*D3
  1

  0
TEXT
  5
A6
  8
UNITDUCTDIM
  6
CONTINUOUS
 62
     2
 10
114.3947316826
 20
109.4169286214
 30
0.0
 40
1.75
  1
1'-5/8'
 41
0.8
  0
TEXT
  5
A7
  8
UNITDUCTDIM
  6
CONTINUOUS
 62
     2
 10
114.3947316826
 20
106.7919286214
 30
0.0
 40
1.75
  1
[321]
 41
0.8
  0
LINE
  5
A8
  8
UNITDUCTDIM
  6
CONTINUOUS
 62
     2
 10
92.862379594500013
 20
107.5086111799
 30
0.0
 11
92.862379594500013
 21
109.4169286214
 31
0.0
  0
LINE
  5
A9
  8
UNITDUCTDIM
  6
CONTINUOUS
 62
     2
 10
92.862379594500013
 20
109.4169286214
 30
0.0
 11
92.862379594500013
 21
111.8794286214
 31
0.0
  0
LINE
  5
AA
  8
UNITDUCTDIM
  6
CONTINUOUS
 62
     2
 10
105.4913292895
 20
107.5086111799
 30
0.0
 11
105.4913292895
 21
109.4169286214
 31
0.0
  0
LINE
  5
AB
  8
UNITDUCTDIM
  6
CONTINUOUS
 62
     2
 10
105.4913292895
 20
109.4169286214
 30
0.0
 11
105.4913292895
 21
111.8794286214
 31
0.0
  0
LINE
  5
AC
  8
UNITDUCTDIM
  6
CONTINUOUS
 62
     2
 10
92.862379594500013
 20
110.2919286214
 30
0.0
 11
99.176854442000007
 21
110.2919286214
 31
0.0
  0
LINE
  5
AD
  8
UNITDUCTDIM
  6
CONTINUOUS
 62
     2
 10
105.4913292895
 20
110.2919286214
 30
0.0
 11
99.176854442000007
 21
110.2919286214
 31
0.0
  0
LINE
  5
AE
  8
UNITDUCTDIM
  6
CONTINUOUS
 62
     2
 10
99.176854442000007
 20
110.2919286214
 30
0.0
 11
112.6447316826
 21
110.2919286214
 31
0.0
  0
INSERT
  5
AF
  8
UNITDUCTDIM
  6
CONTINUOUS
 62
     2
  2
_FILLED
 10
92.862379594500013
 20
110.2919286214
 30
0.0
 41
2.0
 42
2.0
 43
2.0
 50
180.0
  0
INSERT
  5
B0
  8
UNITDUCTDIM
  6
CONTINUOUS
 62
     2
  2
_FILLED
 10
105.4913292895
 20
110.2919286214
 30
0.0
 41
2.0
 42
2.0
 43
2.0
  0
ENDBLK
  5
B1
  8
0
  6
ByBlock
 62
     0
  0
BLOCK
  8
UNITDUCTDIM
  6
CONTINUOUS
 62
     2
  2
*D4
 70
     1
 10
0.0
 20
0.0
 30
0.0
  3
*D4
  1

  0
TEXT
  5
B4
  8
UNITDUCTDIM
  6
CONTINUOUS
 62
     2
 10
132.5728014120333
 20
88.171111172999986
 30
0.0
 40
1.75
  1
2'-9 3/4" 
 41
0.8
 72
     1
 11
138.98946807870001
 21
88.171111172999986
 31
0.0
  0
TEXT
  5
B5
  8
UNITDUCTDIM
  6
CONTINUOUS
 62
     2
 10
136.1894680787
 20
85.546111173
 30
0.0
 40
1.75
  1
[857]
 41
0.8
 72
     1
 11
138.98946807870001
 21
85.546111173
 31
0.0
  0
LINE
  5
B6
  8
UNITDUCTDIM
  6
CONTINUOUS
 62
     2
 10
107.07882928950001
 20
105.9211111796
 30
0.0
 11
131.98946808240001
 21
105.9211111744
 31
0.0
  0
LINE
  5
B7
  8
UNITDUCTDIM
  6
CONTINUOUS
 62
     2
 10
131.98946808240001
 20
105.9211111744
 30
0.0
 11
140.57696808220001
 21
105.92111117269999
 31
0.0
  0
LINE
  5
B8
  8
UNITDUCTDIM
  6
CONTINUOUS
 62
     2
 10
106.4825055135
 20
72.171111179700006
 30
0.0
 11
131.9894680754
 21
72.171111174399996
 31
0.0
  0
LINE
  5
B9
  8
UNITDUCTDIM
  6
CONTINUOUS
 62
     2
 10
131.9894680754
 20
72.171111174399996
 30
0.0
 11
140.5769680752
 21
72.171111172699995
 31
0.0
  0
LINE
  5
BA
  8
UNITDUCTDIM
  6
CONTINUOUS
 62
     2
 10
138.98946808220001
 20
105.921111173
 30
0.0
 11
138.98946808220001
 21
91.671111172999986
 31
0.0
  0
LINE
  5
BB
  8
UNITDUCTDIM
  6
CONTINUOUS
 62
     2
 10
138.98946807519999
 20
72.171111172999986
 30
0.0
 11
138.98946808139999
 21
84.671111172999986
 31
0.0
  0
INSERT
  5
BC
  8
UNITDUCTDIM
  6
CONTINUOUS
 62
     2
  2
_FILLED
 10
138.98946808220001
 20
105.921111173
 30
0.0
 41
2.0
 42
2.0
 43
2.0
 50
90.0
  0
INSERT
  5
BD
  8
UNITDUCTDIM
  6
CONTINUOUS
 62
     2
  2
_FILLED
 10
138.98946807519999
 20
72.171111172999986
 30
0.0
 41
2.0
 42
2.0
 43
2.0
 50
269.99999997190002
  0
ENDBLK
  5
BE
  8
0
  6
ByBlock
 62
     0
  0
BLOCK
  8
UNITDUCTDIM
  6
CONTINUOUS
 62
     2
  2
*D5
 70
     1
 10
0.0
 20
0.0
 30
0.0
  3
*D5
  1

  0
TEXT
  5
C1
  8
UNITDUCTDIM
  6
CONTINUOUS
 62
     2
 10
62.448142711166668
 20
94.794116693999996
 30
0.0
 40
1.75
  1
2'-4 3/8" [721]
 41
0.8
 72
     1
 11
71.431476044500002
 21
94.794116693999996
 31
0.0
  0
LINE
  5
C2
  8
UNITDUCTDIM
  6
CONTINUOUS
 62
     2
 10
57.237379589700012
 20
87.675221457999996
 30
0.0
 11
57.237379589700012
 21
94.794116693999996
 31
0.0
  0
LINE
  5
C3
  8
UNITDUCTDIM
  6
CONTINUOUS
 62
     2
 10
57.237379589700012
 20
94.794116693999996
 30
0.0
 11
57.237379589700012
 21
97.256616694000002
 31
0.0
  0
LINE
  5
C4
  8
UNITDUCTDIM
  6
CONTINUOUS
 62
     2
 10
85.625572499200004
 20
87.675221457900008
 30
0.0
 11
85.625572499200004
 21
88.7441384615
 31
0.0
  0
LINE
  5
C5
  8
UNITDUCTDIM
  6
CONTINUOUS
 62
     2
 10
85.625572499200004
 20
90.193492307699998
 30
0.0
 11
85.625572499200004
 21
94.794116693899994
 31
0.0
  0
LINE
  5
C6
  8
UNITDUCTDIM
  6
CONTINUOUS
 62
     2
 10
85.625572499200004
 20
94.794116693899994
 30
0.0
 11
85.625572499300006
 21
97.256616694000002
 31
0.0
  0
LINE
  5
C7
  8
UNITDUCTDIM
  6
CONTINUOUS
 62
     2
 10
57.237379589700012
 20
95.669116693999996
 30
0.0
 11
52.237379589700012
 21
95.669116693999996
 31
0.0
  0
LINE
  5
C8
  8
UNITDUCTDIM
  6
CONTINUOUS
 62
     2
 10
85.625572499200004
 20
95.669116693999996
 30
0.0
 11
90.625572499200004
 21
95.669116693999996
 31
0.0
  0
INSERT
  5
C9
  8
UNITDUCTDIM
  6
CONTINUOUS
 62
     2
  2
_FILLED
 10
57.237379589700012
 20
95.669116693999996
 30
0.0
 41
2.0
 42
2.0
 43
2.0
 50
359.9999999998999
  0
INSERT
  5
CA
  8
UNITDUCTDIM
  6
CONTINUOUS
 62
     2
  2
_FILLED
 10
85.625572499200004
 20
95.669116693999996
 30
0.0
 41
2.0
 42
2.0
 43
2.0
 50
179.99999999990001
  0
ENDBLK
  5
CB
  8
0
  6
ByBlock
 62
     0
  0
BLOCK
  8
UNITDUCTDIM
  6
CONTINUOUS
 62
     2
  2
*D6
 70
     1
 10
0.0
 20
0.0
 30
0.0
  3
*D6
  1

  0
TEXT
  5
CE
  8
UNITDUCTDIM
  6
CONTINUOUS
 62
     2
 10
145.3394680744
 20
60.833507176000012
 30
0.0
 40
1.75
  1
5-3/4" [146] 
 41
0.8
  0
LINE
  5
CF
  8
UNITDUCTDIM
  6
CONTINUOUS
 62
     2
 10
111.2365050017
 20
66.416273542499994
 30
0.0
 11
118.2779395221
 21
66.416273542499994
 31
0.0
  0
LINE
  5
D0
  8
UNITDUCTDIM
  6
CONTINUOUS
 62
     2
 10
120.17423581840001
 20
66.416273542499994
 30
0.0
 11
125.19942100359999
 21
66.416273542499994
 31
0.0
  0
LINE
  5
D1
  8
UNITDUCTDIM
  6
CONTINUOUS
 62
     2
 10
126.90608767019999
 20
66.416273542499994
 30
0.0
 11
140.57696807440001
 21
66.416273542499994
 31
0.0
  0
LINE
  5
D2
  8
UNITDUCTDIM
  6
CONTINUOUS
 62
     2
 10
107.0788292825
 20
72.171111179899995
 30
0.0
 11
140.57696807440001
 21
72.171111179899995
 31
0.0
  0
LINE
  5
D3
  8
UNITDUCTDIM
  6
CONTINUOUS
 62
     2
 10
138.98946807440001
 20
66.416273542499994
 30
0.0
 11
138.98946807440001
 21
61.708507175999998
 31
0.0
  0
LINE
  5
D4
  8
UNITDUCTDIM
  6
CONTINUOUS
 62
     2
 10
138.98946807440001
 20
61.708507175999998
 30
0.0
 11
143.5894680744
 21
61.708507175999998
 31
0.0
  0
LINE
  5
D5
  8
UNITDUCTDIM
  6
CONTINUOUS
 62
     2
 10
138.98946807440001
 20
72.171111179899995
 30
0.0
 11
138.98946807440001
 21
77.171111179899995
 31
0.0
  0
INSERT
  5
D6
  8
UNITDUCTDIM
  6
CONTINUOUS
 62
     2
  2
_FILLED
 10
138.98946807440001
 20
66.416273542499994
 30
0.0
 41
2.0
 42
2.0
 43
2.0
 50
90.0
  0
INSERT
  5
D7
  8
UNITDUCTDIM
  6
CONTINUOUS
 62
     2
  2
_FILLED
 10
138.98946807440001
 20
72.171111179899995
 30
0.0
 41
2.0
 42
2.0
 43
2.0
 50
270.0
  0
ENDBLK
  5
D8
  8
0
  6
ByBlock
 62
     0
  0
BLOCK
  8
UNITDUCTDIM
  6
CONTINUOUS
 62
     2
  2
*D7
 70
     1
 10
0.0
 20
0.0
 30
0.0
  3
*D7
  1

  0
TEXT
  5
DB
  8
UNITDUCTDIM
  6
CONTINUOUS
 62
     2
 10
29.18838787073333
 20
79.843427702900001
 30
0.0
 40
1.75
  1
1'-1 7/8"
 41
0.8
 72
     1
 11
34.205054537400002
 21
79.843427702900001
 31
0.0
  0
TEXT
  5
DC
  8
UNITDUCTDIM
  6
CONTINUOUS
 62
     2
 10
30.471721204066661
 20
77.218427702900001
 30
0.0
 40
1.75
  1
[354] 
 41
0.8
 72
     1
 11
34.205054537400002
 21
77.218427702900001
 31
0.0
  0
LINE
  5
DD
  8
UNITDUCTDIM
  6
CONTINUOUS
 62
     2
 10
55.649879587500003
 20
72.166273542700011
 30
0.0
 11
32.617554536
 21
72.166273546400006
 31
0.0
  0
LINE
  5
DE
  8
UNITDUCTDIM
  6
CONTINUOUS
 62
     2
 10
55.649879589699999
 20
86.087721458199994
 30
0.0
 11
32.617554538200011
 21
86.087721462000005
 31
0.0
  0
LINE
  5
DF
  8
UNITDUCTDIM
  6
CONTINUOUS
 62
     2
 10
34.205054535999999
 20
72.166273546200003
 30
0.0
 11
34.205054535999999
 21
76.343427702900001
 31
0.0
  0
LINE
  5
E0
  8
UNITDUCTDIM
  6
CONTINUOUS
 62
     2
 10
34.20505453820001
 20
86.087721461699999
 30
0.0
 11
34.205054535999999
 21
83.343427702900001
 31
0.0
  0
INSERT
  5
E1
  8
UNITDUCTDIM
  6
CONTINUOUS
 62
     2
  2
_FILLED
 10
34.205054535999999
 20
72.166273546200003
 30
0.0
 41
2.0
 42
2.0
 43
2.0
 50
270.0
  0
INSERT
  5
E2
  8
UNITDUCTDIM
  6
CONTINUOUS
 62
     2
  2
_FILLED
 10
34.20505453820001
 20
86.087721461699999
 30
0.0
 41
2.0
 42
2.0
 43
2.0
 50
89.999999953200003
  0
ENDBLK
  5
E3
  8
0
  6
ByBlock
 62
     0
  0
BLOCK
  8
UNITDUCTDIM
  6
CONTINUOUS
 62
     2
  2
*D8
 70
     1
 10
0.0
 20
0.0
 30
0.0
  3
*D8
  1

  0
TEXT
  5
E6
  8
UNITDUCTDIM
  6
CONTINUOUS
 62
     2
 10
16.97136272203333
 20
59.693757740099997
 30
0.0
 40
1.75
  1
5-3/4" [146]
 41
0.8
 72
     2
 11
31.438029388699999
 21
59.693757740099997
 31
0.0
  0
LINE
  5
E7
  8
UNITDUCTDIM
  6
CONTINUOUS
 62
     2
 10
49.926918277600002
 20
66.416273542499994
 30
0.0
 11
38.351880959600003
 21
66.416273542499994
 31
0.0
  0
LINE
  5
E8
  8
UNITDUCTDIM
  6
CONTINUOUS
 62
     2
 10
55.649879587500003
 20
72.166273542399992
 30
0.0
 11
38.351880959600003
 21
72.166273542399992
 31
0.0
  0
LINE
  5
E9
  8
UNITDUCTDIM
  6
CONTINUOUS
 62
     2
 10
39.939380959600001
 20
66.416273542499994
 30
0.0
 11
39.939380959600001
 21
60.568757740099997
 31
0.0
  0
LINE
  5
EA
  8
UNITDUCTDIM
  6
CONTINUOUS
 62
     2
 10
39.939380959600001
 20
60.568757740099997
 30
0.0
 11
33.188029388700002
 21
60.568757740099997
 31
0.0
  0
LINE
  5
EB
  8
UNITDUCTDIM
  6
CONTINUOUS
 62
     2
 10
39.939380959600001
 20
72.166273542399992
 30
0.0
 11
39.939380959600001
 21
77.166273542399992
 31
0.0
  0
INSERT
  5
EC
  8
UNITDUCTDIM
  6
CONTINUOUS
 62
     2
  2
_FILLED
 10
39.939380959600001
 20
66.416273542499994
 30
0.0
 41
2.0
 42
2.0
 43
2.0
 50
90.0
  0
INSERT
  5
ED
  8
UNITDUCTDIM
  6
CONTINUOUS
 62
     2
  2
_FILLED
 10
39.939380959600001
 20
72.166273542399992
 30
0.0
 41
2.0
 42
2.0
 43
2.0
 50
270.0
  0
ENDBLK
  5
EE
  8
0
  6
ByBlock
 62
     0
  0
BLOCK
  8
UNITDUCTDIM
  6
CONTINUOUS
 62
     2
  2
*D9
 70
     1
 10
0.0
 20
0.0
 30
0.0
  3
*D9
  1

  0
TEXT
  5
F1
  8
UNITDUCTDIM
  6
CONTINUOUS
 62
     2
 10
36.255656571733333
 20
90.914629985000005
 30
0.0
 40
1.75
  1
6-1/4
 41
0.8
 72
     2
 11
42.322323238400003
 21
90.914629985000005
 31
0.0
  0
TEXT
  5
F2
  8
UNITDUCTDIM
  6
CONTINUOUS
 62
     2
 10
42.322323238400003
 20
90.914629985000005
 30
0.0
 40
1.75
  1
 
 41
0.8
 72
     2
 11
43.722323238400001
 21
90.914629985000005
 31
0.0
  0
TEXT
  5
F3
  8
UNITDUCTDIM
  6
CONTINUOUS
 62
     2
 10
36.255656571733333
 20
88.289629985000005
 30
0.0
 40
1.75
  1
[
 41
0.8
 72
     2
 11
36.722323238400001
 21
88.289629985000005
 31
0.0
  0
TEXT
  5
F4
  8
UNITDUCTDIM
  6
CONTINUOUS
 62
     2
 10
37.655656571733338
 20
88.289629985000005
 30
0.0
 40
1.75
  1
159
 41
0.8
 72
     2
 11
40.922323238399997
 21
88.289629985000005
 31
0.0
  0
TEXT
  5
F5
  8
UNITDUCTDIM
  6
CONTINUOUS
 62
     2
 10
41.855656571733327
 20
88.289629985000005
 30
0.0
 40
1.75
  1
]
 41
0.8
 72
     2
 11
42.322323238400003
 21
88.289629985000005
 31
0.0
  0
LINE
  5
F6
  8
UNITDUCTDIM
  6
CONTINUOUS
 62
     2
 10
57.23737959000001
 20
87.675221457999996
 30
0.0
 11
57.237379590899998
 21
93.377129982800014
 31
0.0
  0
LINE
  5
F7
  8
UNITDUCTDIM
  6
CONTINUOUS
 62
     2
 10
57.237379590600007
 20
91.789629982800008
 30
0.0
 11
54.1123795878
 21
91.789629983300003
 31
0.0
  0
LINE
  5
F8
  8
UNITDUCTDIM
  6
CONTINUOUS
 62
     2
 10
50.987379584899998
 20
91.789629983799983
 30
0.0
 11
54.1123795878
 21
91.789629983300003
 31
0.0
  0
LINE
  5
F9
  8
UNITDUCTDIM
  6
CONTINUOUS
 62
     2
 10
54.1123795878
 20
91.789629983300003
 30
0.0
 11
45.472323238400001
 21
91.789629983300003
 31
0.0
  0
INSERT
  5
FA
  8
UNITDUCTDIM
  6
CONTINUOUS
 62
     2
  2
_FILLED
 10
57.237379590600007
 20
91.789629982800008
 30
0.0
 41
2.0
 42
2.0
 43
2.0
 50
359.99999999080001
  0
INSERT
  5
FB
  8
UNITDUCTDIM
  6
CONTINUOUS
 62
     2
  2
_FILLED
 10
50.987379584899998
 20
91.789629983799983
 30
0.0
 41
2.0
 42
2.0
 43
2.0
 50
179.99999999080001
  0
ENDBLK
  5
FC
  8
0
  6
ByBlock
 62
     0
  0
ENDSEC
  0
SECTION
  2
ENTITIES
  0
SOLID
  5
FD
  8
SERVCLRDIM
  6
CONTINUOUS
 62
     1
 10
46.720615003599988
 20
64.416273542499994
 30
0.0
 11
46.053949003599989
 21
64.416273542499994
 31
0.0
 12
46.387281003599988
 22
66.416273542499994
 32
0.0
 13
46.387281003599988
 23
66.416273542499994
 33
0.0
  0
SOLID
  5
FE
  8
SERVCLRDIM
  6
CONTINUOUS
 62
     1
 10
46.720615003599988
 20
72.976273542499996
 30
0.0
 11
46.387281003599988
 21
70.976273542499996
 31
0.0
 12
46.053949003599989
 22
72.976273542499996
 32
0.0
 13
46.053949003599989
 23
72.976273542499996
 33
0.0
  0
SOLID
  5
FF
  8
SERVCLRDIM
  6
CONTINUOUS
 62
     1
 10
133.11495682969999
 20
102.27779616869999
 30
0.0
 11
131.23995682969999
 21
102.59029616869999
 31
0.0
 12
133.11495682969999
 22
102.90279616869999
 32
0.0
 13
133.11495682969999
 23
102.90279616869999
 33
0.0
  0
SOLID
  5
100
  8
SERVCLRDIM
  6
CONTINUOUS
 62
     1
 10
165.36495682969999
 20
102.27779616869999
 30
0.0
 11
165.36495682969999
 21
102.90279616869999
 31
0.0
 12
167.23995682969999
 22
102.59029616869999
 32
0.0
 13
167.23995682969999
 23
102.59029616869999
 33
0.0
  0
SOLID
  5
101
  8
SERVCLRDIM
  6
CONTINUOUS
 62
     1
 10
46.124999999999993
 20
102.2771325425
 30
0.0
 11
46.124999999999993
 21
102.9021325425
 31
0.0
 12
48.0
 22
102.5896325425
 32
0.0
 13
48.0
 23
102.5896325425
 33
0.0
  0
SOLID
  5
102
  8
SERVCLRDIM
  6
CONTINUOUS
 62
     1
 10
1.875
 20
102.2771325425
 30
0.0
 11
0.0
 21
102.5896325425
 31
0.0
 12
1.875
 22
102.9021325425
 32
0.0
 13
1.875
 23
102.9021325425
 33
0.0
  0
SOLID
  5
103
  8
CURB-14-DIM
  6
CONTINUOUS
 62
     6
 10
119.5722464832
 20
69.103773542499994
 30
0.0
 11
118.9472464832
 21
69.103773542499994
 31
0.0
 12
119.2597464832
 22
70.978773542499994
 32
0.0
 13
119.2597464832
 23
70.978773542499994
 33
0.0
  0
SOLID
  5
104
  8
CURB-14-DIM
  6
CONTINUOUS
 62
     6
 10
119.5722464832
 20
58.853773542500001
 30
0.0
 11
119.2597464832
 21
56.978773542500001
 31
0.0
 12
118.9472464832
 22
58.853773542500001
 32
0.0
 13
118.9472464832
 23
58.853773542500001
 33
0.0
  0
SOLID
  5
105
  8
CURB-14-DIM
  6
CONTINUOUS
 62
     6
 10
105.6123795875
 20
39.256796542499998
 30
0.0
 11
105.6123795875
 21
39.881796542499998
 31
0.0
 12
107.4873795875
 22
39.569296542499998
 32
0.0
 13
107.4873795875
 23
39.569296542499998
 33
0.0
  0
SOLID
  5
106
  8
CURB-14-DIM
  6
CONTINUOUS
 62
     6
 10
55.862379587500001
 20
39.256796542499998
 30
0.0
 11
53.987379587500001
 21
39.569296542499998
 31
0.0
 12
55.862379587500001
 22
39.881796542499998
 32
0.0
 13
55.862379587500001
 23
39.881796542499998
 33
0.0
  0
SOLID
  5
107
  8
CURB-24-DIM
  6
CONTINUOUS
 62
     6
 10
55.862379587500001
 20
39.256796542499998
 30
0.0
 11
53.987379587500001
 21
39.569296542499998
 31
0.0
 12
55.862379587500001
 22
39.881796542499998
 32
0.0
 13
55.862379587500001
 23
39.881796542499998
 33
0.0
  0
SOLID
  5
108
  8
CURB-24-DIM
  6
CONTINUOUS
 62
     6
 10
105.6123795875
 20
39.256796542499998
 30
0.0
 11
105.6123795875
 21
39.881796542499998
 31
0.0
 12
107.4873795875
 22
39.569296542499998
 32
0.0
 13
107.4873795875
 23
39.569296542499998
 33
0.0
  0
SOLID
  5
109
  8
CURB-24-DIM
  6
CONTINUOUS
 62
     6
 10
126.4855663054
 20
69.103773542499994
 30
0.0
 11
125.8605663054
 21
69.103773542499994
 31
0.0
 12
126.1730663054
 22
70.978773542499994
 32
0.0
 13
126.1730663054
 23
70.978773542499994
 33
0.0
  0
SOLID
  5
10A
  8
CURB-24-DIM
  6
CONTINUOUS
 62
     6
 10
126.4855663054
 20
48.853773542500001
 30
0.0
 11
126.1730663054
 21
46.978773542500001
 31
0.0
 12
125.8605663054
 22
48.853773542500001
 32
0.0
 13
125.8605663054
 23
48.853773542500001
 33
0.0
  0
SOLID
  5
10B
  8
UNIT-DIM
  6
CONTINUOUS
 62
     7
 10
24.3095315875
 20
105.79127354249999
 30
0.0
 11
23.6845315875
 21
105.79127354249999
 31
0.0
 12
23.9970315875
 22
107.66627354249999
 32
0.0
 13
23.9970315875
 23
107.66627354249999
 33
0.0
  0
SOLID
  5
10C
  8
UNIT-DIM
  6
CONTINUOUS
 62
     7
 10
24.3095315875
 20
68.291273542499994
 30
0.0
 11
23.9970315875
 21
66.416273542499994
 31
0.0
 12
23.6845315875
 22
68.291273542499994
 32
0.0
 13
23.6845315875
 23
68.291273542499994
 33
0.0
  0
SOLID
  5
10D
  8
UNIT-DIM
  6
CONTINUOUS
 62
     7
 10
52.862379587500001
 20
117.8347530332
 30
0.0
 11
50.987379587500001
 21
118.1472530332
 31
0.0
 12
52.862379587500001
 22
118.4597530332
 32
0.0
 13
52.862379587500001
 23
118.4597530332
 33
0.0
  0
SOLID
  5
10E
  8
UNIT-DIM
  6
CONTINUOUS
 62
     7
 10
108.6123795875
 20
117.8347530332
 30
0.0
 11
108.6123795875
 21
118.4597530332
 31
0.0
 12
110.4873795875
 22
118.1472530332
 32
0.0
 13
110.4873795875
 23
118.1472530332
 33
0.0
  0
DIMENSION
  5
10F
  8
UNIT-DIM
  6
CONTINUOUS
 62
     7
  2
*D1
 10
88.862379587499987
 20
42.941849965700001
 30
0.0
 11
69.924879587500001
 21
42.941849965700001
 31
0.0
 70
   128
 13
50.987379587500001
 23
66.416273542499994
 33
0.0
 14
88.862379587499987
 24
73.416273542499994
 34
0.0
  0
DIMENSION
  5
110
  8
UNIT-DIM
  6
CONTINUOUS
 62
     7
  2
*D2
 10
87.858176968199999
 20
73.416273542499994
 30
0.0
 11
75.277884456199999
 21
89.328605885499996
 31
0.0
 70
   128
 13
50.987379587500001
 23
66.416273542499994
 33
0.0
 14
84.683176968199987
 24
73.416273542499994
 34
0.0
 50
90.0
  0
DIMENSION
  5
111
  8
UNITDUCTDIM
  6
CONTINUOUS
 62
     2
  2
*D3
 10
105.4913292895
 20
110.2919286214
 30
0.0
 11
119.2947316826
 21
108.9794286214
 31
0.0
 70
   128
 13
92.862379594500013
 23
105.9211111799
 33
0.0
 14
105.4913292895
 24
105.9211111799
 34
0.0
  0
DIMENSION
  5
112
  8
UNITDUCTDIM
  6
CONTINUOUS
 62
     2
  2
*D4
 10
138.98946807519999
 20
72.171111172999986
 30
0.0
 11
138.98946807870001
 21
87.733611172999986
 31
0.0
 70
   128
 13
105.4913292895
 23
105.9211111799
 33
0.0
 14
104.8950055135
 24
72.171111180099999
 34
0.0
 50
269.9999999881
  0
DIMENSION
  5
113
  8
UNITDUCTDIM
  6
CONTINUOUS
 62
     2
  2
*D5
 10
85.625572499200004
 20
95.669116693999996
 30
0.0
 11
71.431476044500002
 21
95.669116693999996
 31
0.0
 70
   128
 13
57.237379589700012
 23
86.08772145799999
 33
0.0
 14
85.625572499200004
 24
86.087721457900003
 34
0.0
 50
359.9999999998999
  0
DIMENSION
  5
114
  8
UNITDUCTDIM
  6
CONTINUOUS
 62
     2
  2
*D6
 10
138.98946807440001
 20
72.171111179899995
 30
0.0
 11
154.4394680744
 21
61.708507175999998
 31
0.0
 70
   128
 13
109.6490050017
 23
66.416273542499994
 33
0.0
 14
105.4913292825
 24
72.171111179899995
 34
0.0
 50
90.0
  0
DIMENSION
  5
115
  8
UNITDUCTDIM
  6
CONTINUOUS
 62
     2
  2
*D7
 10
34.20505453820001
 20
86.087721461699999
 30
0.0
 11
34.205054537400002
 21
79.405927702900001
 31
0.0
 70
   128
 13
57.237379587500001
 23
72.166273542499994
 33
0.0
 14
57.237379589700012
 24
86.08772145799999
 34
0.0
 50
89.999999990799992
  0
DIMENSION
  5
116
  8
UNITDUCTDIM
  6
CONTINUOUS
 62
     2
  2
*D8
 10
39.939380959600001
 20
72.166273542399992
 30
0.0
 11
23.0380293887
 21
60.568757740099997
 31
0.0
 70
   128
 13
51.514418277600001
 23
66.416273542499994
 33
0.0
 14
57.237379587500001
 24
72.166273542399992
 34
0.0
 50
90.0
  0
DIMENSION
  5
117
  8
UNITDUCTDIM
  6
CONTINUOUS
 62
     2
  2
*D9
 10
50.987379584899998
 20
91.789629983799983
 30
0.0
 11
38.822323238400003
 21
90.477129985000005
 31
0.0
 70
   128
 13
57.237379589700012
 23
86.08772145799999
 33
0.0
 14
50.987379587500001
 24
107.66627354249999
 34
0.0
 50
179.99999999080001
  0
TEXT
  5
118
  8
SERVCLRDIM
  6
CONTINUOUS
 62
     1
 10
6.7965516789999993
 20
55.582436497799989
 30
0.0
 40
1.75
  1
OVERALL HEIGHT & CLEARANCE
 41
0.8
  0
TEXT
  5
119
  8
SERVCLRDIM
  6
CONTINUOUS
 62
     1
 10
6.7965516789999993
 20
52.957436497800003
 30
0.0
 40
1.75
  1
AREA WILL BE DETERMINED BY
 41
0.8
  0
TEXT
  5
11A
  8
SERVCLRDIM
  6
CONTINUOUS
 62
     1
 10
6.7965516789999993
 20
50.332436497800003
 30
0.0
 40
1.75
  1
ASSEMBLY OF INSTALLER. SEE
 41
0.8
  0
TEXT
  5
11B
  8
SERVCLRDIM
  6
CONTINUOUS
 62
     1
 10
6.7965516789999993
 20
47.707436497799989
 30
0.0
 40
1.75
  1
CERTIFIED DRAWING FOR
 41
0.8
  0
TEXT
  5
11C
  8
SERVCLRDIM
  6
CONTINUOUS
 62
     1
 10
6.7965516789999993
 20
45.082436497799989
 30
0.0
 40
1.75
  1
FURTHER DETAIL.
 41
0.8
  0
TEXT
  5
11D
  8
CURB-14-DIM
  6
CONTINUOUS
 62
     6
 10
116.53614506060001
 20
63.75091792340001
 30
0.0
 40
1.75
  1
1'-2"
 41
0.8
 72
     1
 11
118.98614506059999
 21
63.75091792340001
 31
0.0
  0
TEXT
  5
11E
  8
CURB-14-DIM
  6
CONTINUOUS
 62
     6
 10
79.863734335999993
 20
38.694296542499998
 30
0.0
 40
1.75
  1
4'-5 1/2"
 41
0.8
 72
     1
 11
85.113734336000007
 21
38.694296542499998
 31
0.0
  0
TEXT
  5
11F
  8
UNIT-DIM
  6
CONTINUOUS
 62
     7
 10
19.1220315875
 20
87.995276542499994
 30
0.0
 40
1.75
  1
3'-5 1/4"
 41
0.8
 72
     1
 11
24.3720315875
 21
87.995276542499994
 31
0.0
  0
TEXT
  5
120
  8
UNIT-DIM
  6
CONTINUOUS
 62
     7
 10
89.566546254166667
 20
117.2722530332
 30
0.0
 40
1.75
  1
4'-11 1/2"
 41
0.8
 72
     1
 11
95.049879587500001
 21
117.2722530332
 31
0.0
  0
TEXT
  5
121
  8
UNIT-DIM
  6
CONTINUOUS
 62
     7
 10
21.222031587499998
 20
85.078609542500004
 30
0.0
 40
1.75
  1
(1048)
 41
0.8
 72
     1
 11
24.3720315875
 21
85.078609542500004
 31
0.0
  0
TEXT
  5
122
  8
UNIT-DIM
  6
CONTINUOUS
 62
     7
 10
92.133212920833344
 20
114.3555870332
 30
0.0
 40
1.75
  1
(1510)
 41
0.8
 72
     1
 11
95.049879587500001
 21
114.3555870332
 31
0.0
  0
TEXT
  5
123
  8
CURB-14-DIM
  6
CONTINUOUS
 62
     6
 10
116.1410790262
 20
61.307445284499998
 30
0.0
 40
1.75
  1
(356)
 41
0.8
 72
     1
 11
118.9410790262
 21
61.307445284499998
 31
0.0
  0
TEXT
  5
124
  8
CURB-14-DIM
  6
CONTINUOUS
 62
     6
 10
81.847067669333342
 20
35.777629542500001
 30
0.0
 40
1.75
  1
(1359)
 41
0.8
 72
     1
 11
85.113734336000007
 21
35.777629542500001
 31
0.0
  0
TEXT
  5
125
  8
CURB-24-DIM
  6
CONTINUOUS
 62
     6
 10
81.847067669333342
 20
35.777629542500001
 30
0.0
 40
1.75
  1
(1359)
 41
0.8
 72
     1
 11
85.113734336000007
 21
35.777629542500001
 31
0.0
  0
TEXT
  5
126
  8
CURB-24-DIM
  6
CONTINUOUS
 62
     6
 10
79.863734335999993
 20
38.694296542499998
 30
0.0
 40
1.75
  1
4'-5 1/2"
 41
0.8
 72
     1
 11
85.113734336000007
 21
38.694296542499998
 31
0.0
  0
TEXT
  5
127
  8
CURB-24-DIM
  6
CONTINUOUS
 62
     6
 10
124.98139963873329
 20
59.659284542499996
 30
0.0
 40
1.75
  1
2'
 41
0.8
 72
     1
 11
125.7980663054
 21
59.659284542499996
 31
0.0
  0
TEXT
  5
128
  8
CURB-24-DIM
  6
CONTINUOUS
 62
     6
 10
123.3480663054
 20
56.742618542499997
 30
0.0
 40
1.75
  1
(610)
 41
0.8
 72
     1
 11
125.7980663054
 21
56.742618542499997
 31
0.0
  0
TEXT
  5
129
  8
SERVCLRDIM
  6
CONTINUOUS
 62
     1
 10
150.9925689230333
 20
101.4419805552
 30
0.0
 40
1.75
  1
3'
 41
0.8
 72
     1
 11
151.80923558969999
 21
101.4419805552
 31
0.0
  0
TEXT
  5
12A
  8
SERVCLRDIM
  6
CONTINUOUS
 62
     1
 10
29.558333333333341
 20
101.7146325425
 30
0.0
 40
1.75
  1
4'
 41
0.8
 72
     1
 11
30.375
 21
101.7146325425
 31
0.0
  0
TEXT
  5
12B
  8
SERVCLRDIM
  6
CONTINUOUS
 62
     1
 10
149.2425689230333
 20
98.5253135552
 30
0.0
 40
1.75
  1
(914)
 41
0.8
 72
     1
 11
151.80923558969999
 21
98.5253135552
 31
0.0
  0
TEXT
  5
12C
  8
SERVCLRDIM
  6
CONTINUOUS
 62
     1
 10
27.341666666666669
 20
98.797965542499995
 30
0.0
 40
1.75
  1
(1219)
 41
0.8
 72
     1
 11
30.375
 21
98.797965542499995
 31
0.0
  0
TEXT
  5
12D
  8
NOTES
  6
CONTINUOUS
 62
     1
 10
0.8
 20
1.1248476951999991
 30
0.0
 40
1.75
  1
VIEW: RIGHT
 41
0.8
  0
TEXT
  5
12E
  8
NOTES
  6
CONTINUOUS
 62
     1
 10
0.8
 20
5.6241623234000002
 30
0.0
 40
1.75
  1
FILE NAME: 
 41
0.8
  0
TEXT
  5
12F
  8
NOTES
  6
CONTINUOUS
 62
     1
 10
16.199999999999999
 20
5.6241623234000002
 30
0.0
 40
1.75
  1
TSY30-R-
 41
0.8
  0
TEXT
  5
130
  8
NOTES
  6
CONTINUOUS
 62
     1
 10
17.066666666700002
 20
9.6235531039999991
 30
0.0
 40
1.75
  1
LAYER KEY
 41
0.8
  0
TEXT
  5
131
  8
NOTES
  6
CONTINUOUS
 62
     7
 10
1.0303146667
 20
13.6229438846
 30
0.0
 40
1.75
  1
-
 41
8.0
  7
TEXTSTYLE_2
  0
TEXT
  5
132
  8
NOTES
  6
CONTINUOUS
 62
     1
 10
16.800000000000001
 20
13.6229438846
 30
0.0
 40
1.75
  1
UNIT
 41
0.8
  0
TEXT
  5
133
  8
NOTES
  6
CONTINUOUS
 62
     6
 10
1.0303146667
 20
17.6223346652
 30
0.0
 40
1.75
  1
-
 41
8.0
  7
TEXTSTYLE_2
  0
TEXT
  5
134
  8
NOTES
  6
CONTINUOUS
 62
     1
 10
16.800000000000001
 20
17.6223346652
 30
0.0
 40
1.75
  1
ROOF CURB
 41
0.8
  0
TEXT
  5
135
  8
NOTES
  6
CONTINUOUS
 62
     1
 10
1.0303146667
 20
21.621725445900001
 30
0.0
 40
1.75
  1
-
 41
8.0
  7
TEXTSTYLE_2
  0
TEXT
  5
136
  8
NOTES
  6
CONTINUOUS
 62
     1
 10
16.800000000000001
 20
21.621725445900001
 30
0.0
 40
1.75
  1
SERVICE CLEARANCE
 41
0.8
  0
TEXT
  5
137
  8
NOTES
  6
CONTINUOUS
 62
     2
 10
1.0303146667
 20
25.6211162265
 30
0.0
 40
1.75
  1
-
 41
8.0
  7
TEXTSTYLE_2
  0
TEXT
  5
138
  8
NOTES
  6
CONTINUOUS
 62
     1
 10
16.800000000000001
 20
25.6211162265
 30
0.0
 40
1.75
  1
UNIT DUCTS
 41
0.8
  0
TEXT
  5
139
  8
NOTES
  6
CONTINUOUS
 62
     5
 10
1.0303146667
 20
29.620507007099999
 30
0.0
 40
1.75
  1
-
 41
8.0
  7
TEXTSTYLE_2
  0
TEXT
  5
13A
  8
NOTES
  6
CONTINUOUS
 62
     1
 10
16.800000000000001
 20
29.620507007099999
 30
0.0
 40
1.75
  1
CURB DUCTS
 41
0.8
  0
TEXT
  5
13B
  8
NOTES
  6
CONTINUOUS
 62
     9
 10
1.0303146667
 20
33.619897787699998
 30
0.0
 40
1.75
  1
-
 41
8.0
  7
TEXTSTYLE_2
  0
TEXT
  5
13C
  8
NOTES
  6
CONTINUOUS
 62
     1
 10
16.800000000000001
 20
33.619897787699998
 30
0.0
 40
1.75
  1
UNIT HIDDEN
 41
0.8
  0
TEXT
  5
13D
  8
NOTES
  6
CONTINUOUS
 62
     1
 10
111.59014996099999
 20
41.564965629899987
 30
0.0
 40
1.75
  1
3/4"-14 NPT STANDARD 
 41
0.8
  0
TEXT
  5
13E
  8
NOTES
  6
CONTINUOUS
 62
     1
 10
111.59014996099999
 20
38.939965629899987
 30
0.0
 40
1.75
  1
CONDENSATE DRAIN
 41
0.8
  0
LINE
  5
13F
  8
NOTES
  6
CONTINUOUS
 62
     1
 10
89.126504279300008
 20
72.991728907400002
 30
0.0
 11
107.9708095786
 21
42.439965629899987
 31
0.0
  0
LINE
  5
140
  8
NOTES
  6
CONTINUOUS
 62
     1
 10
107.9708095786
 20
42.439965629899987
 30
0.0
 11
111.59014996099999
 21
42.439965629899987
 31
0.0
  0
SOLID
  5
141
  8
NOTES
  6
CONTINUOUS
 62
     1
 10
90.495615381299984
 20
71.486351947800003
 30
0.0
 11
89.126504279300008
 21
72.991728907400002
 31
0.0
 12
89.857275049399988
 22
71.092624096800009
 32
0.0
 13
89.857275049399988
 23
71.092624096800009
 33
0.0
  0
TEXT
  5
142
  8
NOTES
  6
CONTINUOUS
 62
     1
 10
28.498819277799999
 20
41.387273555900002
 30
0.0
 40
1.75
  1
SUPPLY AIR
 41
0.8
  0
TEXT
  5
143
  8
NOTES
  6
CONTINUOUS
 62
     1
 10
28.498819277799999
 20
38.762273555900002
 30
0.0
 40
1.75
  1
HORIZONTAL
 41
0.8
  0
LINE
  5
144
  8
NOTES
  6
CONTINUOUS
 62
     1
 10
57.237379588100012
 20
75.963461538499985
 30
0.0
 11
45.544906207799997
 21
42.262273555900002
 31
0.0
  0
LINE
  5
145
  8
NOTES
  6
CONTINUOUS
 62
     1
 10
45.544906207799997
 20
42.262273555900002
 30
0.0
 11
42.498819277800003
 21
42.262273555900002
 31
0.0
  0
SOLID
  5
146
  8
NOTES
  6
CONTINUOUS
 62
     1
 10
56.9361059485
 20
73.951035342500006
 30
0.0
 11
57.237379588100012
 21
75.963461538499985
 31
0.0
 12
56.227539951200001
 22
74.19686908189999
 32
0.0
 13
56.227539951200001
 23
74.19686908189999
 33
0.0
  0
TEXT
  5
147
  8
NOTES
  6
CONTINUOUS
 62
     1
 10
67.084205289533315
 20
111.9078076923
 30
0.0
 40
1.75
  1
RETURN AIR
 41
0.8
 72
     2
 11
80.150871956199992
 21
111.9078076923
 31
0.0
  0
TEXT
  5
148
  8
NOTES
  6
CONTINUOUS
 62
     1
 10
67.084205289533315
 20
109.2828076923
 30
0.0
 40
1.75
  1
HORIZONTAL
 41
0.8
 72
     2
 11
80.150871956199992
 21
109.2828076923
 31
0.0
  0
LINE
  5
149
  8
NOTES
  6
CONTINUOUS
 62
     1
 10
92.862379593600011
 20
101.4370633285
 30
0.0
 11
86.304718109999996
 21
112.7828076923
 31
0.0
  0
LINE
  5
14A
  8
NOTES
  6
CONTINUOUS
 62
     1
 10
86.304718109999996
 20
112.7828076923
 30
0.0
 11
80.150871956199992
 21
112.7828076923
 31
0.0
  0
SOLID
  5
14B
  8
NOTES
  6
CONTINUOUS
 62
     1
 10
91.536886013200004
 20
102.9809842359
 30
0.0
 11
92.862379593600011
 21
101.4370633285
 31
0.0
 12
92.186226736100011
 22
103.356292943
 32
0.0
 13
92.186226736100011
 23
103.356292943
 33
0.0
  0
LINE
  5
14C
  8
NOTES
  6
CONTINUOUS
 62
     1
 10
0.0
 20
0.0
 30
0.0
 11
0.0
 21
36.494440873199999
 31
0.0
  0
LINE
  5
14D
  8
SERVCLEAR
  6
CENTER
 62
     1
 10
0.0
 20
66.416273542499994
 30
0.0
 11
0.0
 21
107.66627354249999
 31
0.0
  0
LINE
  5
14E
  8
0
  6
CONTINUOUS
 62
     7
 10
0.0
 20
0.0
 30
0.0
 11
0.0
 21
150.0
 31
0.0
  0
LINE
  5
14F
  8
SERVCLRDIM
  6
CONTINUOUS
 62
     1
 10
1.875
 20
102.9021325425
 30
0.0
 11
1.875
 21
102.2771325425
 31
0.0
  0
LINE
  5
150
  8
0
  6
CONTINUOUS
 62
     7
 10
0.0
 20
0.0
 30
0.0
 11
175.0
 21
0.0
 31
0.0
  0
LINE
  5
151
  8
NOTES
  6
CONTINUOUS
 62
     1
 10
0.0
 20
0.0
 30
0.0
 11
48.0
 21
0.0
 31
0.0
  0
LINE
  5
152
  8
NOTES
  6
CONTINUOUS
 62
     1
 10
16.0
 20
12.4980961895
 30
0.0
 11
16.0
 21
36.494440873199999
 31
0.0
  0
LINE
  5
153
  8
UNIT-DIM
  6
CONTINUOUS
 62
     7
 10
23.9970315875
 20
107.66627354249999
 30
0.0
 11
23.6845315875
 21
105.79127354249999
 31
0.0
  0
LINE
  5
154
  8
NOTES
  6
CONTINUOUS
 62
     1
 10
0.0
 20
3.9993907806000002
 30
0.0
 11
48.0
 21
3.9993907806000002
 31
0.0
  0
LINE
  5
155
  8
NOTES
  6
CONTINUOUS
 62
     1
 10
0.0
 20
4.4993146281999987
 30
0.0
 11
48.0
 21
4.4993146281999987
 31
0.0
  0
LINE
  5
156
  8
UNIT-DIM
  6
CONTINUOUS
 62
     7
 10
23.9970315875
 20
107.58902654249999
 30
0.0
 11
23.9970315875
 21
91.020276542499985
 31
0.0
  0
LINE
  5
157
  8
UNIT-DIM
  6
CONTINUOUS
 62
     7
 10
23.9970315875
 20
66.793146542499997
 30
0.0
 11
23.9970315875
 21
83.424396542500006
 31
0.0
  0
LINE
  5
158
  8
UNIT-DIM
  6
CONTINUOUS
 62
     7
 10
24.3095315875
 20
68.291273542499994
 30
0.0
 11
23.9970315875
 21
66.416273542499994
 31
0.0
  0
LINE
  5
159
  8
NOTES
  6
CONTINUOUS
 62
     1
 10
0.0
 20
8.4987054087999994
 30
0.0
 11
48.0
 21
8.4987054087999994
 31
0.0
  0
LINE
  5
15A
  8
NOTES
  6
CONTINUOUS
 62
     1
 10
0.0
 20
12.4980961895
 30
0.0
 11
48.0
 21
12.4980961895
 31
0.0
  0
LINE
  5
15B
  8
UNIT-DIM
  6
CONTINUOUS
 62
     7
 10
23.9970315875
 20
66.416273542499994
 30
0.0
 11
23.6845315875
 21
68.291273542499994
 31
0.0
  0
LINE
  5
15C
  8
NOTES
  6
CONTINUOUS
 62
     1
 10
0.0
 20
16.497486970099999
 30
0.0
 11
48.0
 21
16.497486970099999
 31
0.0
  0
LINE
  5
15D
  8
UNIT-DIM
  6
CONTINUOUS
 62
     7
 10
24.3095315875
 20
105.79127354249999
 30
0.0
 11
23.9970315875
 21
107.66627354249999
 31
0.0
  0
LINE
  5
15E
  8
NOTES
  6
CONTINUOUS
 62
     1
 10
0.0
 20
20.496877750700001
 30
0.0
 11
48.0
 21
20.496877750700001
 31
0.0
  0
LINE
  5
15F
  8
NOTES
  6
CONTINUOUS
 62
     1
 10
0.0
 20
24.4962685313
 30
0.0
 11
48.0
 21
24.4962685313
 31
0.0
  0
LINE
  5
160
  8
NOTES
  6
CONTINUOUS
 62
     1
 10
0.0
 20
28.495659312000001
 30
0.0
 11
48.0
 21
28.495659312000001
 31
0.0
  0
LINE
  5
161
  8
SERVCLRDIM
  6
CONTINUOUS
 62
     1
 10
46.124999999999993
 20
102.9021325425
 30
0.0
 11
46.124999999999993
 21
102.2771325425
 31
0.0
  0
LINE
  5
162
  8
SERVCLRDIM
  6
CONTINUOUS
 62
     1
 10
46.387281003599988
 20
76.3486753424
 30
0.0
 11
46.387281003599988
 21
70.976273542499996
 31
0.0
  0
LINE
  5
163
  8
SERVCLRDIM
  6
CONTINUOUS
 62
     1
 10
46.387281003599988
 20
66.416273542499994
 30
0.0
 11
46.387281003599988
 21
56.498129542500003
 31
0.0
  0
LINE
  5
164
  8
NOTES
  6
CONTINUOUS
 62
     1
 10
48.0
 20
0.0
 30
0.0
 11
48.0
 21
36.494440873199999
 31
0.0
  0
LINE
  5
165
  8
SERVCLEAR
  6
CENTER
 62
     1
 10
48.0
 20
66.416273542499994
 30
0.0
 11
48.0
 21
107.66627354249999
 31
0.0
  0
POLYLINE
  5
166
  8
UNIT-SOL
  6
CONTINUOUS
 62
     7
 66
     1
 10
0.0
 20
0.0
 30
0.0
 40
0.15
 41
0.15
  0
VERTEX
  5
25A
  8
UNIT-SOL
  6
CONTINUOUS
 62
     7
 10
50.987379587500001
 20
107.66627354249999
 30
0.0
  0
VERTEX
  5
25B
  8
UNIT-SOL
  6
CONTINUOUS
 62
     7
 10
50.987379587500001
 20
66.416273542499994
 30
0.0
  0
SEQEND
  5
25C
  8
UNIT-SOL
  6
CONTINUOUS
 62
     7
  0
LINE
  5
16A
  8
UNIT-DIM
  6
CONTINUOUS
 62
     7
 10
50.987379587500001
 20
108.60377354249999
 30
0.0
 11
50.987379587500001
 21
119.39332176870001
 31
0.0
  0
LINE
  5
16B
  8
SERVCLRDIM
  6
CONTINUOUS
 62
     1
 10
46.720615003599988
 20
72.976273542499996
 30
0.0
 11
46.387281003599988
 21
70.976273542499996
 31
0.0
  0
LINE
  5
16C
  8
SERVCLRDIM
  6
CONTINUOUS
 62
     1
 10
46.387281003599988
 20
66.416273542499994
 30
0.0
 11
46.053949003599989
 21
64.416273542499994
 31
0.0
  0
LINE
  5
16D
  8
CURB-14-DIM
  6
CONTINUOUS
 62
     6
 10
105.6123795875
 20
39.256796542499998
 30
0.0
 11
107.4873795875
 21
39.569296542499998
 31
0.0
  0
LINE
  5
16E
  8
CURB-24-DIM
  6
CONTINUOUS
 62
     6
 10
105.6123795875
 20
39.256796542499998
 30
0.0
 11
107.4873795875
 21
39.569296542499998
 31
0.0
  0
LINE
  5
16F
  8
NOTES
  6
CONTINUOUS
 62
     1
 10
0.0
 20
32.495050092600003
 30
0.0
 11
48.0
 21
32.495050092600003
 31
0.0
  0
LINE
  5
170
  8
NOTES
  6
CONTINUOUS
 62
     1
 10
0.0
 20
36.494440873199999
 30
0.0
 11
48.0
 21
36.494440873199999
 31
0.0
  0
LINE
  5
171
  8
CURB-14-DIM
  6
CONTINUOUS
 62
     6
 10
55.862379587500001
 20
39.256796542499998
 30
0.0
 11
53.987379587500001
 21
39.569296542499998
 31
0.0
  0
LINE
  5
172
  8
CURB-24-DIM
  6
CONTINUOUS
 62
     6
 10
55.862379587500001
 20
39.256796542499998
 30
0.0
 11
53.987379587500001
 21
39.569296542499998
 31
0.0
  0
LINE
  5
173
  8
SERVCLRDIM
  6
CONTINUOUS
 62
     1
 10
46.720615003599988
 20
64.416273542499994
 30
0.0
 11
46.387281003599988
 21
66.416273542499994
 31
0.0
  0
LINE
  5
174
  8
SERVCLRDIM
  6
CONTINUOUS
 62
     1
 10
46.387281003599988
 20
70.976273542499996
 30
0.0
 11
46.053949003599989
 21
72.976273542499996
 31
0.0
  0
LINE
  5
175
  8
UNIT-DIM
  6
CONTINUOUS
 62
     7
 10
52.862379587500001
 20
118.4597530332
 30
0.0
 11
52.862379587500001
 21
117.8347530332
 31
0.0
  0
LINE
  5
176
  8
CURB-14-DIM
  6
CONTINUOUS
 62
     6
 10
53.987379587500001
 20
69.041273542499994
 30
0.0
 11
53.987379587500001
 21
38.319296542499998
 31
0.0
  0
LINE
  5
177
  8
CURB-24-DIM
  6
CONTINUOUS
 62
     6
 10
53.987379587500001
 20
69.041273542499994
 30
0.0
 11
53.987379587500001
 21
38.319296542499998
 31
0.0
  0
LINE
  5
178
  8
CURB-14
  6
HIDDEN
 62
     8
 10
53.987379587500001
 20
69.978773542499994
 30
0.0
 11
53.987379587500001
 21
70.978773542499994
 31
0.0
  0
LINE
  5
179
  8
CURB-24
  6
HIDDEN
 62
     8
 10
53.987379587500001
 20
69.978773542499994
 30
0.0
 11
53.987379587500001
 21
70.978773542499994
 31
0.0
  0
LINE
  5
17A
  8
CURB-14-DIM
  6
CONTINUOUS
 62
     6
 10
55.862379587500001
 20
39.881796542499998
 30
0.0
 11
55.862379587500001
 21
39.256796542499998
 31
0.0
  0
LINE
  5
17B
  8
CURB-24-DIM
  6
CONTINUOUS
 62
     6
 10
55.862379587500001
 20
39.881796542499998
 30
0.0
 11
55.862379587500001
 21
39.256796542499998
 31
0.0
  0
LINE
  5
17C
  8
CURB-24
  6
HIDDEN
 62
     8
 10
56.206129587500001
 20
69.978773542499994
 30
0.0
 11
56.206129587500001
 21
66.416273542499994
 31
0.0
  0
LINE
  5
17D
  8
CURB-14
  6
HIDDEN
 62
     8
 10
56.206129587500001
 20
69.978773542499994
 30
0.0
 11
56.206129587500001
 21
66.573074542499995
 31
0.0
  0
POLYLINE
  5
17E
  8
CURB-24
  6
CONTINUOUS
 62
     6
 66
     1
 10
0.0
 20
0.0
 30
0.0
 40
0.15
 41
0.15
  0
VERTEX
  5
25D
  8
CURB-24
  6
CONTINUOUS
 62
     6
 10
56.206129587500001
 20
66.260629542499998
 30
0.0
  0
VERTEX
  5
25E
  8
CURB-24
  6
CONTINUOUS
 62
     6
 10
56.206129587500001
 20
46.978773542500001
 30
0.0
  0
SEQEND
  5
25F
  8
CURB-24
  6
CONTINUOUS
 62
     6
  0
POLYLINE
  5
182
  8
CURB-14
  6
CONTINUOUS
 62
     6
 66
     1
 10
0.0
 20
0.0
 30
0.0
 40
0.15
 41
0.15
  0
VERTEX
  5
260
  8
CURB-14
  6
CONTINUOUS
 62
     6
 10
56.206129587500001
 20
66.260629542499998
 30
0.0
  0
VERTEX
  5
261
  8
CURB-14
  6
CONTINUOUS
 62
     6
 10
56.206129587500001
 20
56.978773542500001
 30
0.0
  0
SEQEND
  5
262
  8
CURB-14
  6
CONTINUOUS
 62
     6
  0
LINE
  5
186
  8
UNIT-DUCTS
  6
CONTINUOUS
 62
     2
 10
57.237379587500001
 20
72.166273542499994
 30
0.0
 11
57.237379589700012
 21
86.08772145799999
 31
0.0
  0
LINE
  5
187
  8
CURB-14-DIM
  6
CONTINUOUS
 62
     6
 10
107.4873795875
 20
39.569296542499998
 30
0.0
 11
93.217900336000014
 21
39.569296542499998
 31
0.0
  0
LINE
  5
188
  8
CURB-24-DIM
  6
CONTINUOUS
 62
     6
 10
105.6123795875
 20
39.569296542499998
 30
0.0
 11
93.217900336000014
 21
39.569296542499998
 31
0.0
  0
LINE
  5
189
  8
CURB-14-DIM
  6
CONTINUOUS
 62
     6
 10
53.987379587500001
 20
39.569296542499998
 30
0.0
 11
78.853317336000003
 21
39.569296542499998
 31
0.0
  0
LINE
  5
18A
  8
CURB-24-DIM
  6
CONTINUOUS
 62
     6
 10
56.237379587500001
 20
39.569296542499998
 30
0.0
 11
78.853317336000003
 21
39.569296542499998
 31
0.0
  0
LINE
  5
18B
  8
CURB-14-DIM
  6
CONTINUOUS
 62
     6
 10
107.4873795875
 20
39.569296542499998
 30
0.0
 11
105.6123795875
 21
39.881796542499998
 31
0.0
  0
LINE
  5
18C
  8
CURB-24-DIM
  6
CONTINUOUS
 62
     6
 10
107.4873795875
 20
39.569296542499998
 30
0.0
 11
105.6123795875
 21
39.881796542499998
 31
0.0
  0
LINE
  5
18D
  8
UNIT-SOL
  6
CONTINUOUS
 62
     7
 10
48.0
 20
84.007934760400005
 30
0.0
 11
48.833754734899998
 21
80.689374441499993
 31
0.0
  0
LINE
  5
18E
  8
CURB-14-DIM
  6
CONTINUOUS
 62
     6
 10
53.987379587500001
 20
39.569296542499998
 30
0.0
 11
55.862379587500001
 21
39.881796542499998
 31
0.0
  0
LINE
  5
18F
  8
CURB-24-DIM
  6
CONTINUOUS
 62
     6
 10
53.987379587500001
 20
39.569296542499998
 30
0.0
 11
55.862379587500001
 21
39.881796542499998
 31
0.0
  0
POLYLINE
  5
190
  8
CURB-24
  6
CONTINUOUS
 62
     6
 66
     1
 10
0.0
 20
0.0
 30
0.0
 40
0.15
 41
0.15
  0
VERTEX
  5
263
  8
CURB-24
  6
CONTINUOUS
 62
     6
 10
53.206129587500001
 20
46.978773542500001
 30
0.0
  0
VERTEX
  5
264
  8
CURB-24
  6
CONTINUOUS
 62
     6
 10
109.0186295875
 20
46.978773542500001
 30
0.0
  0
SEQEND
  5
265
  8
CURB-24
  6
CONTINUOUS
 62
     6
  0
LINE
  5
194
  8
CURB-24-DIM
  6
CONTINUOUS
 62
     6
 10
109.7657175412
 20
46.978773542500001
 30
0.0
 11
127.54653095730001
 21
46.978773542500001
 31
0.0
  0
LINE
  5
195
  8
CURB-24-DIM
  6
CONTINUOUS
 62
     6
 10
125.8605663054
 20
48.853773542500001
 30
0.0
 11
126.4855663054
 21
48.853773542500001
 31
0.0
  0
LINE
  5
196
  8
SERVCLRDIM
  6
CONTINUOUS
 62
     1
 10
46.387281003599988
 20
56.498129542500003
 30
0.0
 11
43.34300000359999
 21
56.498129542500003
 31
0.0
  0
POLYLINE
  5
197
  8
CURB-14
  6
CONTINUOUS
 62
     6
 66
     1
 10
0.0
 20
0.0
 30
0.0
 40
0.15
 41
0.15
  0
VERTEX
  5
266
  8
CURB-14
  6
CONTINUOUS
 62
     6
 10
53.206129587500001
 20
56.978773542500001
 30
0.0
  0
VERTEX
  5
267
  8
CURB-14
  6
CONTINUOUS
 62
     6
 10
109.0186295875
 20
56.978773542500001
 30
0.0
  0
SEQEND
  5
268
  8
CURB-14
  6
CONTINUOUS
 62
     6
  0
LINE
  5
19B
  8
CURB-14-DIM
  6
CONTINUOUS
 62
     6
 10
109.7657175412
 20
56.978773542500001
 30
0.0
 11
120.6440124387
 21
56.978773542500001
 31
0.0
  0
LINE
  5
19C
  8
CURB-14-DIM
  6
CONTINUOUS
 62
     6
 10
118.9472464832
 20
58.853773542500001
 30
0.0
 11
119.5722464832
 21
58.853773542500001
 31
0.0
  0
LINE
  5
19D
  8
SERVCLRDIM
  6
CONTINUOUS
 62
     1
 10
46.053949003599989
 20
64.416273542499994
 30
0.0
 11
46.720615003599988
 21
64.416273542499994
 31
0.0
  0
LINE
  5
19E
  8
SERVCLEAR
  6
CENTER
 62
     1
 10
167.23995682969999
 20
66.416273542499994
 30
0.0
 11
131.23995682969999
 21
66.416273542499994
 31
0.0
  0
LINE
  5
19F
  8
UNIT-DIM
  6
CONTINUOUS
 62
     7
 10
50.049879587500001
 20
66.416273542499994
 30
0.0
 11
22.7470315875
 21
66.416273542499994
 31
0.0
  0
LINE
  5
1A0
  8
SERVCLEAR
  6
CENTER
 62
     1
 10
48.0
 20
66.416273542499994
 30
0.0
 11
0.0
 21
66.416273542499994
 31
0.0
  0
POLYLINE
  5
1A1
  8
UNIT-SOL
  6
CONTINUOUS
 62
     7
 66
     1
 10
0.0
 20
0.0
 30
0.0
 40
0.15
 41
0.15
  0
VERTEX
  5
269
  8
UNIT-SOL
  6
CONTINUOUS
 62
     7
 10
50.987379587500001
 20
66.416273542499994
 30
0.0
  0
VERTEX
  5
26A
  8
UNIT-SOL
  6
CONTINUOUS
 62
     7
 10
110.4873795875
 20
66.416273542499994
 30
0.0
  0
SEQEND
  5
26B
  8
UNIT-SOL
  6
CONTINUOUS
 62
     7
  0
LINE
  5
1A5
  8
UNIT-DIM
  6
CONTINUOUS
 62
     7
 10
23.6845315875
 20
68.291273542499994
 30
0.0
 11
24.3095315875
 21
68.291273542499994
 31
0.0
  0
LINE
  5
1A6
  8
CURB-14-DIM
  6
CONTINUOUS
 62
     6
 10
118.9472464832
 20
69.103773542499994
 30
0.0
 11
119.5722464832
 21
69.103773542499994
 31
0.0
  0
LINE
  5
1A7
  8
CURB-24-DIM
  6
CONTINUOUS
 62
     6
 10
125.8605663054
 20
69.103773542499994
 30
0.0
 11
126.4855663054
 21
69.103773542499994
 31
0.0
  0
LINE
  5
1A8
  8
UNIT-DUCTS
  6
CONTINUOUS
 62
     2
 10
85.625572499200004
 20
86.087721457900003
 30
0.0
 11
85.625572496999993
 21
72.166273542399992
 31
0.0
  0
LINE
  5
1A9
  8
CURB-14
  6
HIDDEN
 62
     8
 10
107.4873795875
 20
69.978773542499994
 30
0.0
 11
53.987379587500001
 21
69.978773542499994
 31
0.0
  0
LINE
  5
1AA
  8
CURB-24
  6
HIDDEN
 62
     8
 10
107.4873795875
 20
69.978773542499994
 30
0.0
 11
53.987379587500001
 21
69.978773542499994
 31
0.0
  0
LINE
  5
1AB
  8
SERVCLRDIM
  6
CONTINUOUS
 62
     1
 10
52.976046929500001
 20
70.976273542499996
 30
0.0
 11
45.145924365600003
 21
70.976273542499996
 31
0.0
  0
LINE
  5
1AC
  8
CURB-14
  6
HIDDEN
 62
     8
 10
53.987379587500001
 20
70.978773542499994
 30
0.0
 11
107.4873795875
 21
70.978773542499994
 31
0.0
  0
LINE
  5
1AD
  8
CURB-24
  6
HIDDEN
 62
     8
 10
53.987379587500001
 20
70.978773542499994
 30
0.0
 11
107.4873795875
 21
70.978773542499994
 31
0.0
  0
LINE
  5
1AE
  8
CURB-14-DIM
  6
CONTINUOUS
 62
     6
 10
108.1578498027
 20
70.978773542499994
 30
0.0
 11
120.6440124387
 21
70.978773542499994
 31
0.0
  0
LINE
  5
1AF
  8
CURB-24-DIM
  6
CONTINUOUS
 62
     6
 10
108.1578498027
 20
70.978773542499994
 30
0.0
 11
127.54653095730001
 21
70.978773542499994
 31
0.0
  0
LINE
  5
1B0
  8
HOOD
  6
CONTINUOUS
 62
     7
 10
110.4873795875
 20
71.3018143141
 30
0.0
 11
117.3417210357
 21
71.3018143141
 31
0.0
  0
LINE
  5
1B1
  8
UNIT-DUCTS
  6
CONTINUOUS
 62
     2
 10
85.625572496999993
 20
72.166273542399992
 30
0.0
 11
57.237379587500001
 21
72.166273542499994
 31
0.0
  0
LINE
  5
1B2
  8
UNIT-DUCTS
  6
CONTINUOUS
 62
     2
 10
105.4913292825
 20
72.171111179899995
 30
0.0
 11
92.862379587500001
 21
72.171111179899995
 31
0.0
  0
LINE
  5
1B3
  8
SERVCLRDIM
  6
CONTINUOUS
 62
     1
 10
46.053949003599989
 20
72.976273542499996
 30
0.0
 11
46.720615003599988
 21
72.976273542499996
 31
0.0
  0
LINE
  5
1B4
  8
UNIT-DUCTS
  6
CONTINUOUS
 62
     2
 10
57.237379589500001
 20
86.087721458099978
 30
0.0
 11
85.625572496999993
 21
72.166273542499994
 31
0.0
  0
LINE
  5
1B5
  8
UNIT-DUCTS
  6
CONTINUOUS
 62
     2
 10
92.862379587500001
 20
72.171111179899995
 30
0.0
 11
92.862379594500013
 21
105.9211111799
 31
0.0
  0
LINE
  5
1B6
  8
UNIT-DUCTS
  6
CONTINUOUS
 62
     2
 10
92.862379587500001
 20
72.171111179899995
 30
0.0
 11
105.4913292895
 21
105.9211111799
 31
0.0
  0
LINE
  5
1B7
  8
UNIT-SOL
  6
CONTINUOUS
 62
     7
 10
48.833754734899998
 20
80.689374441499993
 30
0.0
 11
50.987379587500001
 21
80.6893744411
 31
0.0
  0
LINE
  5
1B8
  8
HOOD
  6
CONTINUOUS
 62
     7
 10
130.2958252279
 20
86.225297740900004
 30
0.0
 11
130.6401673906
 21
86.412115663400002
 31
0.0
  0
LINE
  5
1B9
  8
UNIT-SOL
  6
CONTINUOUS
 62
     7
 10
50.98737958800001
 20
84.007934759999998
 30
0.0
 11
48.0
 21
84.007934760400005
 31
0.0
  0
LINE
  5
1BA
  8
UNIT-DUCTS
  6
CONTINUOUS
 62
     2
 10
57.237379589700012
 20
86.08772145799999
 30
0.0
 11
85.625572499200004
 21
86.087721457900003
 31
0.0
  0
LINE
  5
1BB
  8
SERVCLRDIM
  6
CONTINUOUS
 62
     1
 10
1.875
 20
102.2771325425
 30
0.0
 11
0.0
 21
102.5896325425
 31
0.0
  0
LINE
  5
1BC
  8
UNIT-DUCTS
  6
CONTINUOUS
 62
     2
 10
105.4913292895
 20
105.9211111799
 30
0.0
 11
105.4913292825
 21
72.171111179899995
 31
0.0
  0
LINE
  5
1BD
  8
CURB-14-DIM
  6
CONTINUOUS
 62
     6
 10
105.6123795875
 20
39.881796542499998
 30
0.0
 11
105.6123795875
 21
39.256796542499998
 31
0.0
  0
LINE
  5
1BE
  8
CURB-24-DIM
  6
CONTINUOUS
 62
     6
 10
105.6123795875
 20
39.881796542499998
 30
0.0
 11
105.6123795875
 21
39.256796542499998
 31
0.0
  0
LINE
  5
1BF
  8
CURB-24
  6
HIDDEN
 62
     8
 10
105.6436295875
 20
69.978773542499994
 30
0.0
 11
105.6436295875
 21
66.416273542499994
 31
0.0
  0
LINE
  5
1C0
  8
CURB-14
  6
HIDDEN
 62
     8
 10
105.6436295875
 20
69.978773542499994
 30
0.0
 11
105.6436295875
 21
66.573074542499995
 31
0.0
  0
POLYLINE
  5
1C1
  8
CURB-24
  6
CONTINUOUS
 62
     6
 66
     1
 10
0.0
 20
0.0
 30
0.0
 40
0.15
 41
0.15
  0
VERTEX
  5
26C
  8
CURB-24
  6
CONTINUOUS
 62
     6
 10
105.6436295875
 20
66.260629542499998
 30
0.0
  0
VERTEX
  5
26D
  8
CURB-24
  6
CONTINUOUS
 62
     6
 10
105.6436295875
 20
46.978773542500001
 30
0.0
  0
SEQEND
  5
26E
  8
CURB-24
  6
CONTINUOUS
 62
     6
  0
POLYLINE
  5
1C5
  8
CURB-14
  6
CONTINUOUS
 62
     6
 66
     1
 10
0.0
 20
0.0
 30
0.0
 40
0.15
 41
0.15
  0
VERTEX
  5
26F
  8
CURB-14
  6
CONTINUOUS
 62
     6
 10
105.6436295875
 20
66.260629542499998
 30
0.0
  0
VERTEX
  5
270
  8
CURB-14
  6
CONTINUOUS
 62
     6
 10
105.6436295875
 20
56.978773542500001
 30
0.0
  0
SEQEND
  5
271
  8
CURB-14
  6
CONTINUOUS
 62
     6
  0
LINE
  5
1C9
  8
SERVCLRDIM
  6
CONTINUOUS
 62
     1
 10
165.36495682969999
 20
102.27779616869999
 30
0.0
 11
167.23995682969999
 21
102.59029616869999
 31
0.0
  0
LINE
  5
1CA
  8
UNIT-DUCTS
  6
CONTINUOUS
 62
     2
 10
92.862379594500013
 20
105.9211111799
 30
0.0
 11
105.4913292825
 21
72.171111179899995
 31
0.0
  0
LINE
  5
1CB
  8
CURB-14
  6
HIDDEN
 62
     8
 10
107.4873795875
 20
70.978773542499994
 30
0.0
 11
107.4873795875
 21
69.978773542499994
 31
0.0
  0
LINE
  5
1CC
  8
CURB-24
  6
HIDDEN
 62
     8
 10
107.4873795875
 20
70.978773542499994
 30
0.0
 11
107.4873795875
 21
69.978773542499994
 31
0.0
  0
LINE
  5
1CD
  8
CURB-14-DIM
  6
CONTINUOUS
 62
     6
 10
107.4873795875
 20
69.041273542499994
 30
0.0
 11
107.4873795875
 21
38.319296542499998
 31
0.0
  0
LINE
  5
1CE
  8
CURB-24-DIM
  6
CONTINUOUS
 62
     6
 10
107.4873795875
 20
69.041273542499994
 30
0.0
 11
107.4873795875
 21
38.319296542499998
 31
0.0
  0
LINE
  5
1CF
  8
UNIT-DIM
  6
CONTINUOUS
 62
     7
 10
108.6123795875
 20
118.4597530332
 30
0.0
 11
108.6123795875
 21
117.8347530332
 31
0.0
  0
POLYLINE
  5
1D0
  8
UNIT-SOL
  6
CONTINUOUS
 62
     7
 66
     1
 10
0.0
 20
0.0
 30
0.0
 40
0.15
 41
0.15
  0
VERTEX
  5
272
  8
UNIT-SOL
  6
CONTINUOUS
 62
     7
 10
110.4873795875
 20
66.416273542499994
 30
0.0
  0
VERTEX
  5
273
  8
UNIT-SOL
  6
CONTINUOUS
 62
     7
 10
110.4873795875
 20
107.66627354249999
 30
0.0
  0
SEQEND
  5
274
  8
UNIT-SOL
  6
CONTINUOUS
 62
     7
  0
LINE
  5
1D4
  8
UNIT-DIM
  6
CONTINUOUS
 62
     7
 10
110.4873795875
 20
108.60377354249999
 30
0.0
 11
110.4873795875
 21
119.39332176870001
 31
0.0
  0
LINE
  5
1D5
  8
SERVCLRDIM
  6
CONTINUOUS
 62
     1
 10
131.23995682969999
 20
102.59029616869999
 30
0.0
 11
133.11495682969999
 21
102.90279616869999
 31
0.0
  0
LINE
  5
1D6
  8
SERVCLRDIM
  6
CONTINUOUS
 62
     1
 10
48.0
 20
102.5896325425
 30
0.0
 11
46.124999999999993
 21
102.9021325425
 31
0.0
  0
LINE
  5
1D7
  8
HOOD
  6
CONTINUOUS
 62
     7
 10
127.7267346388
 20
86.987203716600007
 30
0.0
 11
130.2958252279
 21
86.225297740900004
 31
0.0
  0
LINE
  5
1D8
  8
HOOD
  6
CONTINUOUS
 62
     7
 10
131.09777711300001
 20
86.276403990300011
 30
0.0
 11
130.6401673906
 21
86.412115663400002
 31
0.0
  0
LINE
  5
1D9
  8
HOOD
  6
CONTINUOUS
 62
     7
 10
131.1052782674
 20
86.301697327699983
 30
0.0
 11
110.4873795875
 21
92.416273542499994
 31
0.0
  0
LINE
  5
1DA
  8
HOOD
  6
CONTINUOUS
 62
     7
 10
131.19687130919999
 20
86.610542289500003
 30
0.0
 11
130.91465091309999
 21
86.694239379500004
 31
0.0
  0
LINE
  5
1DB
  8
HOOD
  6
CONTINUOUS
 62
     7
 10
130.92215206739999
 20
86.719532716900005
 30
0.0
 11
131.20437246349999
 21
86.635835626900004
 31
0.0
  0
LINE
  5
1DC
  8
CURB-14-DIM
  6
CONTINUOUS
 62
     6
 10
119.2597464832
 20
70.978773542499994
 30
0.0
 11
119.2597464832
 21
67.106064542499993
 31
0.0
  0
LINE
  5
1DD
  8
CURB-14-DIM
  6
CONTINUOUS
 62
     6
 10
119.2597464832
 20
57.8764825425
 30
0.0
 11
119.2597464832
 21
60.851482542500001
 31
0.0
  0
LINE
  5
1DE
  8
HOOD
  6
CONTINUOUS
 62
     7
 10
117.3417210357
 20
71.3018143141
 30
0.0
 11
127.7267346388
 21
86.987203716600007
 31
0.0
  0
LINE
  5
1DF
  8
SERVCLRDIM
  6
CONTINUOUS
 62
     1
 10
48.0
 20
102.5896325425
 30
0.0
 11
32.270833000000003
 21
102.5896325425
 31
0.0
  0
LINE
  5
1E0
  8
SERVCLRDIM
  6
CONTINUOUS
 62
     1
 10
0.0
 20
102.5896325425
 30
0.0
 11
27.729165999999999
 21
102.5896325425
 31
0.0
  0
LINE
  5
1E1
  8
SERVCLRDIM
  6
CONTINUOUS
 62
     1
 10
167.23995682969999
 20
102.59029616869999
 30
0.0
 11
154.06581589070001
 21
102.59029616869999
 31
0.0
  0
LINE
  5
1E2
  8
SERVCLRDIM
  6
CONTINUOUS
 62
     1
 10
131.23995682969999
 20
102.59029616869999
 30
0.0
 11
148.98981589069999
 21
102.59029616869999
 31
0.0
  0
LINE
  5
1E3
  8
UNIT-DIM
  6
CONTINUOUS
 62
     7
 10
23.6845315875
 20
105.79127354249999
 30
0.0
 11
24.3095315875
 21
105.79127354249999
 31
0.0
  0
LINE
  5
1E4
  8
UNIT-DUCTS
  6
CONTINUOUS
 62
     2
 10
92.862379594500013
 20
105.9211111799
 30
0.0
 11
105.4913292895
 21
105.9211111799
 31
0.0
  0
LINE
  5
1E5
  8
CURB-14-DIM
  6
CONTINUOUS
 62
     6
 10
119.2597464832
 20
56.978773542500001
 30
0.0
 11
118.9472464832
 21
58.853773542500001
 31
0.0
  0
LINE
  5
1E6
  8
CURB-14-DIM
  6
CONTINUOUS
 62
     6
 10
119.5722464832
 20
69.103773542499994
 30
0.0
 11
119.2597464832
 21
70.978773542499994
 31
0.0
  0
LINE
  5
1E7
  8
CURB-14-DIM
  6
CONTINUOUS
 62
     6
 10
119.2597464832
 20
70.978773542499994
 30
0.0
 11
118.9472464832
 21
69.103773542499994
 31
0.0
  0
LINE
  5
1E8
  8
CURB-14-DIM
  6
CONTINUOUS
 62
     6
 10
119.5722464832
 20
58.853773542500001
 30
0.0
 11
119.2597464832
 21
56.978773542500001
 31
0.0
  0
LINE
  5
1E9
  8
SERVCLRDIM
  6
CONTINUOUS
 62
     1
 10
46.124999999999993
 20
102.2771325425
 30
0.0
 11
48.0
 21
102.5896325425
 31
0.0
  0
POLYLINE
  5
1EA
  8
UNIT-SOL
  6
CONTINUOUS
 62
     7
 66
     1
 10
0.0
 20
0.0
 30
0.0
 40
0.15
 41
0.15
  0
VERTEX
  5
275
  8
UNIT-SOL
  6
CONTINUOUS
 62
     7
 10
110.4873795875
 20
107.66627354249999
 30
0.0
  0
VERTEX
  5
276
  8
UNIT-SOL
  6
CONTINUOUS
 62
     7
 10
50.987379587500001
 20
107.66627354249999
 30
0.0
  0
SEQEND
  5
277
  8
UNIT-SOL
  6
CONTINUOUS
 62
     7
  0
LINE
  5
1EE
  8
UNIT-DIM
  6
CONTINUOUS
 62
     7
 10
50.049879587500001
 20
107.66627354249999
 30
0.0
 11
22.7470315875
 21
107.66627354249999
 31
0.0
  0
LINE
  5
1EF
  8
SERVCLEAR
  6
CENTER
 62
     1
 10
0.0
 20
107.66627354249999
 30
0.0
 11
48.0
 21
107.66627354249999
 31
0.0
  0
LINE
  5
1F0
  8
SERVCLEAR
  6
CENTER
 62
     1
 10
131.23995682969999
 20
107.66627354249999
 30
0.0
 11
167.23995682969999
 21
107.66627354249999
 31
0.0
  0
LINE
  5
1F1
  8
SERVCLRDIM
  6
CONTINUOUS
 62
     1
 10
133.11495682969999
 20
102.27779616869999
 30
0.0
 11
131.23995682969999
 21
102.59029616869999
 31
0.0
  0
LINE
  5
1F2
  8
UNIT-DIM
  6
CONTINUOUS
 62
     7
 10
52.862379587500001
 20
117.8347530332
 30
0.0
 11
50.987379587500001
 21
118.1472530332
 31
0.0
  0
LINE
  5
1F3
  8
CURB-24-DIM
  6
CONTINUOUS
 62
     6
 10
126.1730663054
 20
46.978773542500001
 30
0.0
 11
125.8605663054
 21
48.853773542500001
 31
0.0
  0
LINE
  5
1F4
  8
CURB-24-DIM
  6
CONTINUOUS
 62
     6
 10
126.4855663054
 20
69.103773542499994
 30
0.0
 11
126.1730663054
 21
70.978773542499994
 31
0.0
  0
LINE
  5
1F5
  8
CURB-24-DIM
  6
CONTINUOUS
 62
     6
 10
126.1730663054
 20
70.348182542499998
 30
0.0
 11
126.1730663054
 21
62.37318254249999
 31
0.0
  0
LINE
  5
1F6
  8
CURB-24-DIM
  6
CONTINUOUS
 62
     6
 10
126.1730663054
 20
47.609364542500003
 30
0.0
 11
126.1730663054
 21
55.584364542499991
 31
0.0
  0
LINE
  5
1F7
  8
SERVCLEAR
  6
CENTER
 62
     1
 10
131.23995682969999
 20
66.416273542499994
 30
0.0
 11
131.23995682969999
 21
107.66627354249999
 31
0.0
  0
LINE
  5
1F8
  8
CURB-24-DIM
  6
CONTINUOUS
 62
     6
 10
126.1730663054
 20
70.978773542499994
 30
0.0
 11
125.8605663054
 21
69.103773542499994
 31
0.0
  0
LINE
  5
1F9
  8
CURB-24-DIM
  6
CONTINUOUS
 62
     6
 10
126.4855663054
 20
48.853773542500001
 30
0.0
 11
126.1730663054
 21
46.978773542500001
 31
0.0
  0
LINE
  5
1FA
  8
HOOD
  6
CONTINUOUS
 62
     7
 10
130.92215206739999
 20
86.719532716900005
 30
0.0
 11
130.91465091309999
 21
86.694239379500004
 31
0.0
  0
LINE
  5
1FB
  8
HOOD
  6
CONTINUOUS
 62
     7
 10
131.21466349229999
 20
86.577747797800001
 30
0.0
 11
131.13807275900001
 21
86.319489510799997
 31
0.0
  0
LINE
  5
1FC
  8
HOOD
  6
CONTINUOUS
 62
     7
 10
131.23995682969999
 20
86.570246643499999
 30
0.0
 11
131.16336609640001
 21
86.311988356499995
 31
0.0
  0
LINE
  5
1FD
  8
UNIT-DIM
  6
CONTINUOUS
 62
     7
 10
108.6123795875
 20
117.8347530332
 30
0.0
 11
110.4873795875
 21
118.1472530332
 31
0.0
  0
LINE
  5
1FE
  8
SERVCLRDIM
  6
CONTINUOUS
 62
     1
 10
0.0
 20
102.5896325425
 30
0.0
 11
1.875
 21
102.9021325425
 31
0.0
  0
LINE
  5
1FF
  8
UNIT-DIM
  6
CONTINUOUS
 62
     7
 10
110.4873795875
 20
118.1472530332
 30
0.0
 11
103.15404558749999
 21
118.1472530332
 31
0.0
  0
LINE
  5
200
  8
UNIT-DIM
  6
CONTINUOUS
 62
     7
 10
50.987379587500001
 20
118.1472530332
 30
0.0
 11
86.945712587499997
 21
118.1472530332
 31
0.0
  0
LINE
  5
201
  8
SERVCLRDIM
  6
CONTINUOUS
 62
     1
 10
167.23995682969999
 20
102.59029616869999
 30
0.0
 11
165.36495682969999
 21
102.90279616869999
 31
0.0
  0
LINE
  5
202
  8
SERVCLRDIM
  6
CONTINUOUS
 62
     1
 10
133.11495682969999
 20
102.90279616869999
 30
0.0
 11
133.11495682969999
 21
102.27779616869999
 31
0.0
  0
LINE
  5
203
  8
UNIT-DIM
  6
CONTINUOUS
 62
     7
 10
50.987379587500001
 20
118.1472530332
 30
0.0
 11
52.862379587500001
 21
118.4597530332
 31
0.0
  0
LINE
  5
204
  8
UNIT-DIM
  6
CONTINUOUS
 62
     7
 10
110.4873795875
 20
118.1472530332
 30
0.0
 11
108.6123795875
 21
118.4597530332
 31
0.0
  0
LINE
  5
205
  8
0
  6
CONTINUOUS
 62
     7
 10
0.0
 20
150.0
 30
0.0
 11
175.0
 21
150.0
 31
0.0
  0
LINE
  5
206
  8
SERVCLRDIM
  6
CONTINUOUS
 62
     1
 10
165.36495682969999
 20
102.90279616869999
 30
0.0
 11
165.36495682969999
 21
102.27779616869999
 31
0.0
  0
LINE
  5
207
  8
SERVCLEAR
  6
CENTER
 62
     1
 10
167.23995682969999
 20
66.416273542499994
 30
0.0
 11
167.23995682969999
 21
107.66627354249999
 31
0.0
  0
LINE
  5
208
  8
0
  6
CONTINUOUS
 62
     7
 10
175.0
 20
0.0
 30
0.0
 11
175.0
 21
150.0
 31
0.0
  0
CIRCLE
  5
209
  8
UNIT-SOL
  6
CONTINUOUS
 62
     7
 10
88.862379587499987
 20
73.416273542499994
 30
0.0
 40
0.5
  0
ARC
  5
20A
  8
HOOD
  6
CONTINUOUS
 62
     7
 10
131.18937015489999
 20
86.585248952099974
 30
0.0
 40
0.0527643907
 50
343.48141227410002
 51
73.481412274199997
  0
ARC
  5
20B
  8
HOOD
  6
CONTINUOUS
 62
     7
 10
131.11277942160001
 20
86.326990665099984
 30
0.0
 40
0.0527643907
 50
253.48141227420001
 51
343.4814122741999
  0
ARC
  5
20C
  8
HOOD
  6
CONTINUOUS
 62
     7
 10
131.11277942160001
 20
86.326990665099984
 30
0.0
 40
0.0263821954
 50
253.48141227409999
 51
343.48141227400009
  0
ARC
  5
20D
  8
HOOD
  6
CONTINUOUS
 62
     7
 10
131.18937015489999
 20
86.585248952099974
 30
0.0
 40
0.0263821954
 50
343.4814122741999
 51
73.481412274299998
  0
ENDSEC
  0
EOF
