  0
SECTION
  2
HEADER
  9
$ACADVER
  1
AC1009
  9
$INSBASE
 10
0.0
 20
0.0
 30
0.0
  9
$EXTMIN
 10
-0.0053401687244445
 20
-0.004577287478071
 30
-0.0015258207003583
  9
$EXTMAX
 10
175.0053409836317
 20
150.00457798597
 30
0.0000000349246037
  9
$LIMMIN
 10
0.0
 20
0.0
  9
$LIMMAX
 10
175.0
 20
150.0
  9
$ORTHOMODE
 70
     0
  9
$REGENMODE
 70
     1
  9
$FILLMODE
 70
     1
  9
$QTEXTMODE
 70
     0
  9
$MIRRTEXT
 70
     0
  9
$DRAGMODE
 70
     2
  9
$LTSCALE
 40
9.777777777799999
  9
$OSMODE
 70
    37
  9
$ATTMODE
 70
     1
  9
$TEXTSIZE
 40
0.2
  9
$TRACEWID
 40
0.05
  9
$TEXTSTYLE
  7
STANDARD
  9
$CLAYER
  8
0
  9
$CELTYPE
  6
ByLayer
  9
$CECOLOR
 62
   256
  9
$DIMSCALE
 40
1.0
  9
$DIMASZ
 40
2.0
  9
$DIMEXO
 40
1.587499999999999
  9
$DIMDLI
 40
6.7555555555999991
  9
$DIMRND
 40
0.0
  9
$DIMDLE
 40
0.0
  9
$DIMEXE
 40
1.587499999999999
  9
$DIMTP
 40
0.0
  9
$DIMTM
 40
0.0
  9
$DIMTXT
 40
2.0
  9
$DIMCEN
 40
1.6000000000000001
  9
$DIMTSZ
 40
0.0
  9
$DIMTOL
 70
     0
  9
$DIMLIM
 70
     0
  9
$DIMTIH
 70
     1
  9
$DIMTOH
 70
     1
  9
$DIMSE1
 70
     0
  9
$DIMSE2
 70
     0
  9
$DIMTAD
 70
     0
  9
$DIMZIN
 70
     0
  9
$DIMBLK
  1
_FILLED
  9
$DIMASO
 70
     1
  9
$DIMSHO
 70
     1
  9
$DIMPOST
  1

  9
$DIMAPOST
  1

  9
$DIMALT
 70
     0
  9
$DIMALTD
 70
     2
  9
$DIMALTF
 40
25.399999999999999
  9
$DIMLFAC
 40
1.0
  9
$DIMTOFL
 70
     0
  9
$DIMTVP
 40
0.0
  9
$DIMTIX
 70
     0
  9
$DIMSOXD
 70
     0
  9
$DIMSAH
 70
     0
  9
$DIMBLK1
  1

  9
$DIMBLK2
  1

  9
$DIMSTYLE
  2
STANDARD
  9
$DIMCLRD
 70
     0
  9
$DIMCLRE
 70
     0
  9
$DIMCLRT
 70
     0
  9
$DIMTFAC
 40
1.0
  9
$DIMGAP
 40
0.09
  9
$LUNITS
 70
     2
  9
$LUPREC
 70
     4
  9
$SKETCHINC
 40
0.1
  9
$FILLETRAD
 40
0.0
  9
$AUNITS
 70
     0
  9
$AUPREC
 70
     0
  9
$MENU
  1
.
  9
$ELEVATION
 40
0.0
  9
$PELEVATION
 40
0.0
  9
$THICKNESS
 40
0.0
  9
$LIMCHECK
 70
     0
  9
$BLIPMODE
 70
     0
  9
$CHAMFERA
 40
0.0
  9
$CHAMFERB
 40
0.0
  9
$SKPOLY
 70
     0
  9
$TDCREATE
 40
2456262.6057393979
  9
$TDUPDATE
 40
2456262.606205984
  9
$TDINDWG
 40
0.0004670486
  9
$TDUSRTIMER
 40
0.0004670486
  9
$USRTIMER
 70
     1
  9
$ANGBASE
 50
0.0
  9
$ANGDIR
 70
     0
  9
$PDMODE
 70
     3
  9
$PDSIZE
 40
7.9375
  9
$PLINEWID
 40
0.0
  9
$COORDS
 70
     1
  9
$SPLFRAME
 70
     0
  9
$SPLINETYPE
 70
     6
  9
$SPLINESEGS
 70
     8
  9
$ATTDIA
 70
     0
  9
$ATTREQ
 70
     1
  9
$HANDLING
 70
     1
  9
$HANDSEED
  5
22B
  9
$SURFTAB1
 70
     6
  9
$SURFTAB2
 70
     6
  9
$SURFTYPE
 70
     6
  9
$SURFU
 70
     6
  9
$SURFV
 70
     6
  9
$UCSNAME
  2

  9
$UCSORG
 10
0.0
 20
0.0
 30
0.0
  9
$UCSXDIR
 10
1.0
 20
0.0
 30
0.0
  9
$UCSYDIR
 10
0.0
 20
1.0
 30
0.0
  9
$PUCSNAME
  2

  9
$PUCSORG
 10
0.0
 20
0.0
 30
0.0
  9
$PUCSXDIR
 10
1.0
 20
0.0
 30
0.0
  9
$PUCSYDIR
 10
0.0
 20
1.0
 30
0.0
  9
$USERI1
 70
     0
  9
$USERI2
 70
     0
  9
$USERI3
 70
     0
  9
$USERI4
 70
     0
  9
$USERI5
 70
     0
  9
$USERR1
 40
0.0
  9
$USERR2
 40
0.0
  9
$USERR3
 40
0.0
  9
$USERR4
 40
0.0
  9
$USERR5
 40
0.0
  9
$WORLDVIEW
 70
     1
  9
$SHADEDGE
 70
     3
  9
$SHADEDIF
 70
    70
  9
$TILEMODE
 70
     1
  9
$MAXACTVP
 70
    64
  9
$PLIMCHECK
 70
     0
  9
$PEXTMIN
 10
1.0000000000000000E+020
 20
1.0000000000000000E+020
 30
1.0000000000000000E+020
  9
$PEXTMAX
 10
-1.0000000000000000E+020
 20
-1.0000000000000000E+020
 30
-1.0000000000000000E+020
  9
$PLIMMIN
 10
0.0
 20
0.0
  9
$PLIMMAX
 10
12.0
 20
9.0
  9
$UNITMODE
 70
     0
  9
$VISRETAIN
 70
     1
  9
$PLINEGEN
 70
     0
  9
$PSLTSCALE
 70
     1
  0
ENDSEC
  0
SECTION
  2
TABLES
  0
TABLE
  2
VPORT
 70
     1
  0
VPORT
  2
*ACTIVE
 70
     0
 10
0.0
 20
0.0
 11
1.0
 21
1.0
 12
87.500000407453655
 22
75.000000349245994
 13
0.0
 23
0.0
 14
1.0
 24
1.0
 15
0.0
 25
0.0
 16
0.0
 26
0.0
 36
1.0
 17
0.0
 27
0.0
 37
0.0
 40
160.2289798730267
 41
1.1005586592178771
 42
50.0
 43
0.0
 44
0.0
 50
0.0
 51
0.0
 71
     0
 72
   100
 73
     1
 74
     1
 75
     0
 76
     0
 77
     0
 78
     0
  0
ENDTAB
  0
TABLE
  2
LTYPE
 70
     8
  0
LTYPE
  2
ByBlock
 70
     0
  3

 72
    65
 73
     0
 40
0.0
  0
LTYPE
  2
ByLayer
 70
     0
  3

 72
    65
 73
     0
 40
0.0
  0
LTYPE
  2
CONTINUOUS
 70
     0
  3
Solid line
 72
    65
 73
     0
 40
0.0
  0
LTYPE
  2
CENTER
 70
     0
  3
____ _ ____ _ ____ _ ____ _ ____ _ ____ _ ____
 72
    65
 73
     4
 40
0.6
 49
0.375
 49
-0.075
 49
0.075
 49
-0.075
  0
LTYPE
  2
HIDDEN
 70
     0
  3
- - - - - - - - - - - - - - - - - - - -
 72
    65
 73
     2
 40
0.2
 49
0.1
 49
-0.1
  0
LTYPE
  2
PHANTOM
 70
     0
  3
_____ _ _ _____ _ _ _____ _ _ _____
 72
    65
 73
     6
 40
0.8
 49
0.45
 49
-0.05
 49
0.1
 49
-0.05
 49
0.1
 49
-0.05
  0
LTYPE
  2
DOT
 70
     0
  3
. . . . . . . . . . . . . . . . . . . .
 72
    65
 73
     2
 40
0.2
 49
0.1
 49
-0.1
  0
LTYPE
  2
DASHED
 70
     0
  3
- - - - - - - - - - - - - - - - - - - -
 72
    65
 73
     2
 40
0.2
 49
0.1
 49
-0.1
  0
ENDTAB
  0
TABLE
  2
LAYER
 70
    14
  0
LAYER
  2
0
 70
     0
 62
     7
  6
CONTINUOUS
  0
LAYER
  2
DEFAULT_1
 70
     0
 62
     7
  6
CENTER
  0
LAYER
  2
DEFAULT_2
 70
     0
 62
     8
  6
HIDDEN
  0
LAYER
  2
DEFAULT_3
 70
     0
 62
     7
  6
PHANTOM
  0
LAYER
  2
CURB-14
 70
     0
 62
     6
  6
CONTINUOUS
  0
LAYER
  2
CURB-14-DIM
 70
     0
 62
     6
  6
CONTINUOUS
  0
LAYER
  2
CURB-24
 70
     0
 62
     6
  6
CONTINUOUS
  0
LAYER
  2
CURB-24-DIM
 70
     0
 62
     6
  6
CONTINUOUS
  0
LAYER
  2
HOOD
 70
     0
 62
     7
  6
CONTINUOUS
  0
LAYER
  2
NOTES
 70
     0
 62
     1
  6
CONTINUOUS
  0
LAYER
  2
SERVCLEAR
 70
     0
 62
     1
  6
CONTINUOUS
  0
LAYER
  2
SERVCLRDIM
 70
     0
 62
     1
  6
CONTINUOUS
  0
LAYER
  2
UNIT-DIM
 70
     0
 62
     7
  6
CONTINUOUS
  0
LAYER
  2
UNIT-SOL
 70
     0
 62
     7
  6
CONTINUOUS
  0
ENDTAB
  0
TABLE
  2
STYLE
 70
     4
  0
STYLE
  2
STANDARD
 70
     0
 40
0.0
 41
0.8
 50
0.0
 71
     0
 42
0.2
  3
txt
  4

  0
STYLE
  2
ANNOTATIVE
 70
     0
 40
0.0
 41
1.0
 50
0.0
 71
     0
 42
0.2
  3
txt
  4

  0
STYLE
  2
TEXTSTYLE_1
 70
     0
 40
0.0
 41
0.8
 50
0.0
 71
     0
 42
0.2
  3
gdt
  4

  0
STYLE
  2
TEXTSTYLE_2
 70
     0
 40
0.0
 41
8.0
 50
0.0
 71
     0
 42
0.2
  3
txt
  4

  0
ENDTAB
  0
TABLE
  2
VIEW
 70
     0
  0
ENDTAB
  0
TABLE
  2
UCS
 70
     0
  0
ENDTAB
  0
TABLE
  2
APPID
 70
     4
  0
APPID
  2
ACAD
 70
     0
  0
APPID
  2
ACADANNOTATIVE
 70
     0
  0
APPID
  2
ACAD_NAV_VCDISPLAY
 70
     0
  0
APPID
  2
ACAD_MLEADERVER
 70
     0
  0
ENDTAB
  0
TABLE
  2
DIMSTYLE
 70
     2
  0
DIMSTYLE
  2
STANDARD
 70
     0
  3

  4

  5

  6

  7

 40
1.0
 41
0.18
 42
0.0625
 43
0.38
 44
0.18
 45
0.0
 46
0.0
 47
0.0
 48
0.0
140
0.18
141
0.09
142
0.0
143
25.399999999999999
144
1.0
145
0.0
146
1.0
147
0.09
 71
     0
 72
     0
 73
     1
 74
     1
 75
     0
 76
     0
 77
     0
 78
     0
170
     0
171
     2
172
     0
173
     0
174
     0
175
     0
176
     0
177
     0
178
     0
  0
DIMSTYLE
  2
ANNOTATIVE
 70
     0
  3

  4

  5

  6

  7

 40
1.0
 41
0.18
 42
0.0625
 43
0.38
 44
0.18
 45
0.0
 46
0.0
 47
0.0
 48
0.0
140
0.18
141
0.09
142
0.0
143
25.399999999999999
144
1.0
145
0.0
146
1.0
147
0.09
 71
     0
 72
     0
 73
     1
 74
     1
 75
     0
 76
     0
 77
     0
 78
     0
170
     0
171
     2
172
     0
173
     0
174
     0
175
     0
176
     0
177
     0
178
     0
  0
ENDTAB
  0
ENDSEC
  0
SECTION
  2
BLOCKS
  0
BLOCK
  8
0
  2
$MODEL_SPACE
 70
     0
 10
0.0
 20
0.0
 30
0.0
  3
$MODEL_SPACE
  1

  0
ENDBLK
  5
6D
  8
0
  0
BLOCK
 67
     1
  8
0
  2
$PAPER_SPACE
 70
     0
 10
0.0
 20
0.0
 30
0.0
  3
$PAPER_SPACE
  1

  0
ENDBLK
  5
69
 67
     1
  8
0
  0
BLOCK
  8
0
  2
_FILLED
 70
     0
 10
0.0
 20
0.0
 30
0.0
  3
_FILLED
  1

  0
SOLID
  5
8A
  8
0
  6
ByBlock
 62
     0
 10
0.0
 20
0.0
 30
0.0
 11
-1.0
 21
0.1875
 31
0.0
 12
-1.0
 22
-0.1875
 32
0.0
 13
-1.0
 23
-0.1875
 33
0.0
  0
ENDBLK
  5
8B
  8
0
  6
ByBlock
 62
     0
  0
BLOCK
  8
UNIT-DIM
  6
CONTINUOUS
 62
     7
  2
*D1
 70
     1
 10
0.0
 20
0.0
 30
0.0
  3
*D1
  1

  0
TEXT
  5
8E
  8
UNIT-DIM
  6
CONTINUOUS
 62
     7
 10
131.67010488976661
 20
81.093773541600015
 30
0.0
 40
1.75
  1
6 5/8"
 41
0.8
 72
     1
 11
135.40343822310001
 21
81.093773541600015
 31
0.0
  0
TEXT
  5
8F
  8
UNIT-DIM
  6
CONTINUOUS
 62
     7
 10
132.83677155643329
 20
78.468773541600001
 30
0.0
 40
1.75
  1
(168)
 41
0.8
 72
     1
 11
135.40343822310001
 21
78.468773541600001
 31
0.0
  0
LINE
  5
90
  8
UNIT-DIM
  6
CONTINUOUS
 62
     7
 10
117.8400772422
 20
66.416273541599992
 30
0.0
 11
131.20343822309999
 21
66.416273541599992
 31
0.0
  0
LINE
  5
91
  8
UNIT-DIM
  6
CONTINUOUS
 62
     7
 10
131.20343822309999
 20
66.416273541599992
 30
0.0
 11
136.99093822309999
 21
66.416273541599992
 31
0.0
  0
LINE
  5
92
  8
UNIT-DIM
  6
CONTINUOUS
 62
     7
 10
112.62593822309999
 20
73.041273541599992
 30
0.0
 11
131.20343822309999
 21
73.041273541599992
 31
0.0
  0
LINE
  5
93
  8
UNIT-DIM
  6
CONTINUOUS
 62
     7
 10
131.20343822309999
 20
73.041273541599992
 30
0.0
 11
136.99093822309999
 21
73.041273541599992
 31
0.0
  0
LINE
  5
94
  8
UNIT-DIM
  6
CONTINUOUS
 62
     7
 10
135.40343822310001
 20
66.416273541599992
 30
0.0
 11
135.40343822310001
 21
61.416273541599999
 31
0.0
  0
LINE
  5
95
  8
UNIT-DIM
  6
CONTINUOUS
 62
     7
 10
135.40343822310001
 20
73.041273541599992
 30
0.0
 11
135.40343822310001
 21
77.593773541600001
 31
0.0
  0
INSERT
  5
96
  8
UNIT-DIM
  6
CONTINUOUS
 62
     7
  2
_FILLED
 10
135.40343822310001
 20
66.416273541599992
 30
0.0
 41
2.0
 42
2.0
 43
2.0
 50
90.0
  0
INSERT
  5
97
  8
UNIT-DIM
  6
CONTINUOUS
 62
     7
  2
_FILLED
 10
135.40343822310001
 20
73.041273541599992
 30
0.0
 41
2.0
 42
2.0
 43
2.0
 50
270.0
  0
ENDBLK
  5
98
  8
0
  6
ByBlock
 62
     0
  0
BLOCK
  8
UNIT-DIM
  6
CONTINUOUS
 62
     7
  2
*D2
 70
     1
 10
0.0
 20
0.0
 30
0.0
  3
*D2
  1

  0
TEXT
  5
9B
  8
UNIT-DIM
  6
CONTINUOUS
 62
     7
 10
139.12879688976659
 20
86.791273541600006
 30
0.0
 40
1.75
  1
2'-3 7/8"
 41
0.8
 72
     1
 11
144.6121302231
 21
86.791273541600006
 31
0.0
  0
TEXT
  5
9C
  8
UNIT-DIM
  6
CONTINUOUS
 62
     7
 10
141.9287968897666
 20
84.166273541599992
 30
0.0
 40
1.75
  1
(709)
 41
0.8
 72
     1
 11
144.6121302231
 21
84.166273541599992
 31
0.0
  0
LINE
  5
9D
  8
UNIT-DIM
  6
CONTINUOUS
 62
     7
 10
117.8400772422
 20
66.416273541599992
 30
0.0
 11
138.31213022310001
 21
66.416273541599992
 31
0.0
  0
LINE
  5
9E
  8
UNIT-DIM
  6
CONTINUOUS
 62
     7
 10
138.31213022310001
 20
66.416273541599992
 30
0.0
 11
146.1996302231
 21
66.416273541599992
 31
0.0
  0
LINE
  5
9F
  8
UNIT-DIM
  6
CONTINUOUS
 62
     7
 10
113.2150772422
 20
94.291273541600006
 30
0.0
 11
138.31213022310001
 21
94.291273541600006
 31
0.0
  0
LINE
  5
A0
  8
UNIT-DIM
  6
CONTINUOUS
 62
     7
 10
138.31213022310001
 20
94.291273541600006
 30
0.0
 11
146.1996302231
 21
94.291273541600006
 31
0.0
  0
LINE
  5
A1
  8
UNIT-DIM
  6
CONTINUOUS
 62
     7
 10
144.6121302231
 20
66.416273541599992
 30
0.0
 11
144.6121302231
 21
83.291273541599978
 31
0.0
  0
LINE
  5
A2
  8
UNIT-DIM
  6
CONTINUOUS
 62
     7
 10
144.6121302231
 20
94.291273541600006
 30
0.0
 11
144.6121302231
 21
90.291273541599992
 31
0.0
  0
INSERT
  5
A3
  8
UNIT-DIM
  6
CONTINUOUS
 62
     7
  2
_FILLED
 10
144.6121302231
 20
66.416273541599992
 30
0.0
 41
2.0
 42
2.0
 43
2.0
 50
270.0
  0
INSERT
  5
A4
  8
UNIT-DIM
  6
CONTINUOUS
 62
     7
  2
_FILLED
 10
144.6121302231
 20
94.291273541600006
 30
0.0
 41
2.0
 42
2.0
 43
2.0
 50
90.0
  0
ENDBLK
  5
A5
  8
0
  6
ByBlock
 62
     0
  0
BLOCK
  8
UNIT-DIM
  6
CONTINUOUS
 62
     7
  2
*D3
 70
     1
 10
0.0
 20
0.0
 30
0.0
  3
*D3
  1

  0
TEXT
  5
A8
  8
UNIT-DIM
  6
CONTINUOUS
 62
     7
 10
121.75259502
 20
108.4084789832
 30
0.0
 40
1.75
  1
4 5/8"
 41
0.8
  0
TEXT
  5
A9
  8
UNIT-DIM
  6
CONTINUOUS
 62
     7
 10
121.75259502
 20
105.7834789832
 30
0.0
 40
1.75
  1
(118)
 41
0.8
  0
LINE
  5
AA
  8
UNIT-DIM
  6
CONTINUOUS
 62
     7
 10
111.6275772422
 20
95.878773541599983
 30
0.0
 11
111.6275772422
 21
108.4084789832
 31
0.0
  0
LINE
  5
AB
  8
UNIT-DIM
  6
CONTINUOUS
 62
     7
 10
111.6275772422
 20
108.4084789832
 30
0.0
 11
111.6275772422
 21
110.8709789832
 31
0.0
  0
LINE
  5
AC
  8
UNIT-DIM
  6
CONTINUOUS
 62
     7
 10
116.2525772422
 20
109.2834789832
 30
0.0
 11
120.00259502
 21
109.2834789832
 31
0.0
  0
LINE
  5
AD
  8
UNIT-DIM
  6
CONTINUOUS
 62
     7
 10
111.6275772422
 20
109.2834789832
 30
0.0
 11
106.6275772422
 21
109.2834789832
 31
0.0
  0
INSERT
  5
AE
  8
UNIT-DIM
  6
CONTINUOUS
 62
     7
  2
_FILLED
 10
116.2525772422
 20
109.2834789832
 30
0.0
 41
2.0
 42
2.0
 43
2.0
 50
180.0
  0
INSERT
  5
AF
  8
UNIT-DIM
  6
CONTINUOUS
 62
     7
  2
_FILLED
 10
111.6275772422
 20
109.2834789832
 30
0.0
 41
2.0
 42
2.0
 43
2.0
  0
ENDBLK
  5
B0
  8
0
  6
ByBlock
 62
     0
  0
ENDSEC
  0
SECTION
  2
ENTITIES
  0
SOLID
  5
B1
  8
SERVCLRDIM
  6
CONTINUOUS
 62
     1
 10
52.485812658299999
 20
64.416273541599992
 30
0.0
 11
51.819146658299992
 21
64.416273541599992
 31
0.0
 12
52.152478658299998
 22
66.416273541599992
 32
0.0
 13
52.152478658299998
 23
66.416273541599992
 33
0.0
  0
SOLID
  5
B2
  8
SERVCLRDIM
  6
CONTINUOUS
 62
     1
 10
52.485812658299999
 20
72.976273541599994
 30
0.0
 11
52.152478658299998
 21
70.976273541599994
 31
0.0
 12
51.819146658299992
 22
72.976273541599994
 32
0.0
 13
51.819146658299992
 23
72.976273541599994
 33
0.0
  0
SOLID
  5
B3
  8
SERVCLRDIM
  6
CONTINUOUS
 62
     1
 10
121.11495682970001
 20
102.2777961715
 30
0.0
 11
119.23995682970001
 21
102.5902961715
 31
0.0
 12
121.11495682970001
 22
102.9027961715
 32
0.0
 13
121.11495682970001
 23
102.9027961715
 33
0.0
  0
SOLID
  5
B4
  8
SERVCLRDIM
  6
CONTINUOUS
 62
     1
 10
165.36495682969999
 20
102.2777961715
 30
0.0
 11
165.36495682969999
 21
102.9027961715
 31
0.0
 12
167.23995682969999
 22
102.5902961715
 32
0.0
 13
167.23995682969999
 23
102.5902961715
 33
0.0
  0
SOLID
  5
B5
  8
SERVCLRDIM
  6
CONTINUOUS
 62
     1
 10
34.125
 20
102.2771325443
 30
0.0
 11
34.125
 21
102.9021325443
 31
0.0
 12
36.0
 22
102.5896325443
 32
0.0
 13
36.0
 23
102.5896325443
 33
0.0
  0
SOLID
  5
B6
  8
SERVCLRDIM
  6
CONTINUOUS
 62
     1
 10
1.875
 20
102.2771325443
 30
0.0
 11
0.0
 21
102.5896325443
 31
0.0
 12
1.875
 22
102.9021325443
 32
0.0
 13
1.875
 23
102.9021325443
 33
0.0
  0
SOLID
  5
B7
  8
CURB-14-DIM
  6
CONTINUOUS
 62
     6
 10
125.33744413789999
 20
69.103773541599992
 30
0.0
 11
124.71244413789999
 21
69.103773541599992
 31
0.0
 12
125.02494413789999
 22
70.978773541599992
 32
0.0
 13
125.02494413789999
 23
70.978773541599992
 33
0.0
  0
SOLID
  5
B8
  8
CURB-14-DIM
  6
CONTINUOUS
 62
     6
 10
125.33744413789999
 20
58.853773541599999
 30
0.0
 11
125.02494413789999
 21
56.978773541599999
 31
0.0
 12
124.71244413789999
 22
58.853773541599999
 32
0.0
 13
124.71244413789999
 23
58.853773541599999
 33
0.0
  0
SOLID
  5
B9
  8
CURB-14-DIM
  6
CONTINUOUS
 62
     6
 10
111.3775772422
 20
39.256796541599989
 30
0.0
 11
111.3775772422
 21
39.881796541599989
 31
0.0
 12
113.2525772422
 22
39.569296541599989
 32
0.0
 13
113.2525772422
 23
39.569296541599989
 33
0.0
  0
SOLID
  5
BA
  8
CURB-14-DIM
  6
CONTINUOUS
 62
     6
 10
61.627577242199997
 20
39.256796541599989
 30
0.0
 11
59.752577242199997
 21
39.569296541599989
 31
0.0
 12
61.627577242199997
 22
39.881796541599989
 32
0.0
 13
61.627577242199997
 23
39.881796541599989
 33
0.0
  0
SOLID
  5
BB
  8
CURB-24-DIM
  6
CONTINUOUS
 62
     6
 10
61.627577242199997
 20
39.256796541599989
 30
0.0
 11
59.752577242199997
 21
39.569296541599989
 31
0.0
 12
61.627577242199997
 22
39.881796541599989
 32
0.0
 13
61.627577242199997
 23
39.881796541599989
 33
0.0
  0
SOLID
  5
BC
  8
CURB-24-DIM
  6
CONTINUOUS
 62
     6
 10
111.3775772422
 20
39.256796541599989
 30
0.0
 11
111.3775772422
 21
39.881796541599989
 31
0.0
 12
113.2525772422
 22
39.569296541599989
 32
0.0
 13
113.2525772422
 23
39.569296541599989
 33
0.0
  0
SOLID
  5
BD
  8
CURB-24-DIM
  6
CONTINUOUS
 62
     6
 10
132.2507639602
 20
69.103773541599992
 30
0.0
 11
131.6257639602
 21
69.103773541599992
 31
0.0
 12
131.9382639602
 22
70.978773541599992
 32
0.0
 13
131.9382639602
 23
70.978773541599992
 33
0.0
  0
SOLID
  5
BE
  8
CURB-24-DIM
  6
CONTINUOUS
 62
     6
 10
132.2507639602
 20
48.853773541599999
 30
0.0
 11
131.9382639602
 21
46.978773541599999
 31
0.0
 12
131.6257639602
 22
48.853773541599999
 32
0.0
 13
131.6257639602
 23
48.853773541599999
 33
0.0
  0
SOLID
  5
BF
  8
UNIT-DIM
  6
CONTINUOUS
 62
     7
 10
30.0747292422
 20
113.91627354160001
 30
0.0
 11
29.4497292422
 21
113.91627354160001
 31
0.0
 12
29.7622292422
 22
115.79127354160001
 32
0.0
 13
29.7622292422
 23
115.79127354160001
 33
0.0
  0
SOLID
  5
C0
  8
UNIT-DIM
  6
CONTINUOUS
 62
     7
 10
30.0747292422
 20
68.291273541599992
 30
0.0
 11
29.7622292422
 21
66.416273541599992
 31
0.0
 12
29.4497292422
 22
68.291273541599992
 32
0.0
 13
29.4497292422
 23
68.291273541599992
 33
0.0
  0
SOLID
  5
C1
  8
UNIT-DIM
  6
CONTINUOUS
 62
     7
 10
58.627577242199997
 20
128.95975303239999
 30
0.0
 11
56.752577242199997
 21
129.27225303239999
 31
0.0
 12
58.627577242199997
 22
129.58475303239999
 32
0.0
 13
58.627577242199997
 23
129.58475303239999
 33
0.0
  0
SOLID
  5
C2
  8
UNIT-DIM
  6
CONTINUOUS
 62
     7
 10
114.3775772422
 20
128.95975303239999
 30
0.0
 11
114.3775772422
 21
129.58475303239999
 31
0.0
 12
116.2525772422
 22
129.27225303239999
 32
0.0
 13
116.2525772422
 23
129.27225303239999
 33
0.0
  0
DIMENSION
  5
C3
  8
UNIT-DIM
  6
CONTINUOUS
 62
     7
  2
*D1
 10
135.40343822310001
 20
73.041273541599992
 30
0.0
 11
135.40343822310001
 21
80.656273541600001
 31
0.0
 70
   128
 13
116.2525772422
 23
66.416273541599992
 33
0.0
 14
111.0384382231
 24
73.041273541599992
 34
0.0
 50
90.0
  0
DIMENSION
  5
C4
  8
UNIT-DIM
  6
CONTINUOUS
 62
     7
  2
*D2
 10
144.6121302231
 20
94.291273541600006
 30
0.0
 11
144.6121302231
 21
86.353773541599992
 31
0.0
 70
   128
 13
116.2525772422
 23
66.416273541599992
 33
0.0
 14
111.6275772422
 24
94.291273541600006
 34
0.0
 50
90.0
  0
DIMENSION
  5
C5
  8
UNIT-DIM
  6
CONTINUOUS
 62
     7
  2
*D3
 10
111.6275772422
 20
109.2834789832
 30
0.0
 11
125.95259502
 21
107.9709789832
 31
0.0
 70
   128
 13
116.2525772422
 23
115.79127354160001
 33
0.0
 14
111.6275772422
 24
94.291273541600006
 34
0.0
 50
180.0
  0
TEXT
  5
C6
  8
SERVCLRDIM
  6
CONTINUOUS
 62
     1
 10
12.5617493337
 20
55.582436496899987
 30
0.0
 40
1.75
  1
OVERALL HEIGHT & CLEARANCE
 41
0.8
  0
TEXT
  5
C7
  8
SERVCLRDIM
  6
CONTINUOUS
 62
     1
 10
12.5617493337
 20
52.957436496899987
 30
0.0
 40
1.75
  1
AREA WILL BE DETERMINED BY
 41
0.8
  0
TEXT
  5
C8
  8
SERVCLRDIM
  6
CONTINUOUS
 62
     1
 10
12.5617493337
 20
50.332436496900002
 30
0.0
 40
1.75
  1
ASSEMBLY OF INSTALLER. SEE
 41
0.8
  0
TEXT
  5
C9
  8
SERVCLRDIM
  6
CONTINUOUS
 62
     1
 10
12.5617493337
 20
47.707436496899987
 30
0.0
 40
1.75
  1
CERTIFIED DRAWING FOR
 41
0.8
  0
TEXT
  5
CA
  8
SERVCLRDIM
  6
CONTINUOUS
 62
     1
 10
12.5617493337
 20
45.082436496899987
 30
0.0
 40
1.75
  1
FURTHER DETAIL.
 41
0.8
  0
TEXT
  5
CB
  8
CURB-14-DIM
  6
CONTINUOUS
 62
     6
 10
122.3013427153
 20
63.750917922500001
 30
0.0
 40
1.75
  1
1'-2"
 41
0.8
 72
     1
 11
124.7513427153
 21
63.750917922500001
 31
0.0
  0
TEXT
  5
CC
  8
CURB-14-DIM
  6
CONTINUOUS
 62
     6
 10
85.628931990699996
 20
38.694296541600004
 30
0.0
 40
1.75
  1
4'-5 1/2"
 41
0.8
 72
     1
 11
90.878931990699996
 21
38.694296541600004
 31
0.0
  0
TEXT
  5
CD
  8
UNIT-DIM
  6
CONTINUOUS
 62
     7
 10
24.349629242199999
 20
88.148876541600004
 30
0.0
 40
1.75
  1
4'-1 3/8"
 41
0.8
 72
     1
 11
29.599629242199999
 21
88.148876541600004
 31
0.0
  0
TEXT
  5
CE
  8
UNIT-DIM
  6
CONTINUOUS
 62
     7
 10
95.331743908866656
 20
128.33475303239999
 30
0.0
 40
1.75
  1
4'-11 1/2"
 41
0.8
 72
     1
 11
100.8150772422
 21
128.33475303239999
 31
0.0
  0
TEXT
  5
CF
  8
UNIT-DIM
  6
CONTINUOUS
 62
     7
 10
26.870562575533331
 20
85.078609541599988
 30
0.0
 40
1.75
  1
(1253)
 41
0.8
 72
     1
 11
30.1372292422
 21
85.078609541599988
 31
0.0
  0
TEXT
  5
D0
  8
UNIT-DIM
  6
CONTINUOUS
 62
     7
 10
97.898410575533305
 20
125.4180870324
 30
0.0
 40
1.75
  1
(1510)
 41
0.8
 72
     1
 11
100.8150772422
 21
125.4180870324
 31
0.0
  0
TEXT
  5
D1
  8
CURB-14-DIM
  6
CONTINUOUS
 62
     6
 10
121.90627668090001
 20
61.307445283600003
 30
0.0
 40
1.75
  1
(356)
 41
0.8
 72
     1
 11
124.7062766809
 21
61.307445283600003
 31
0.0
  0
TEXT
  5
D2
  8
CURB-14-DIM
  6
CONTINUOUS
 62
     6
 10
87.612265324033316
 20
35.7776295416
 30
0.0
 40
1.75
  1
(1359)
 41
0.8
 72
     1
 11
90.878931990699996
 21
35.7776295416
 31
0.0
  0
TEXT
  5
D3
  8
CURB-24-DIM
  6
CONTINUOUS
 62
     6
 10
87.612265324033316
 20
35.7776295416
 30
0.0
 40
1.75
  1
(1359)
 41
0.8
 72
     1
 11
90.878931990699996
 21
35.7776295416
 31
0.0
  0
TEXT
  5
D4
  8
CURB-24-DIM
  6
CONTINUOUS
 62
     6
 10
85.628931990699996
 20
38.694296541600004
 30
0.0
 40
1.75
  1
4'-5 1/2"
 41
0.8
 72
     1
 11
90.878931990699996
 21
38.694296541600004
 31
0.0
  0
TEXT
  5
D5
  8
CURB-24-DIM
  6
CONTINUOUS
 62
     6
 10
130.74659729353331
 20
59.659284541600002
 30
0.0
 40
1.75
  1
2'
 41
0.8
 72
     1
 11
131.5632639602
 21
59.659284541600002
 31
0.0
  0
TEXT
  5
D6
  8
CURB-24-DIM
  6
CONTINUOUS
 62
     6
 10
129.11326396019999
 20
56.742618541600002
 30
0.0
 40
1.75
  1
(610)
 41
0.8
 72
     1
 11
131.5632639602
 21
56.742618541600002
 31
0.0
  0
TEXT
  5
D7
  8
SERVCLRDIM
  6
CONTINUOUS
 62
     1
 10
138.9925689230333
 20
101.4419805579
 30
0.0
 40
1.75
  1
4'
 41
0.8
 72
     1
 11
139.80923558969999
 21
101.4419805579
 31
0.0
  0
TEXT
  5
D8
  8
SERVCLRDIM
  6
CONTINUOUS
 62
     1
 10
17.55833333333333
 20
101.7146325443
 30
0.0
 40
1.75
  1
3'
 41
0.8
 72
     1
 11
18.375
 21
101.7146325443
 31
0.0
  0
TEXT
  5
D9
  8
SERVCLRDIM
  6
CONTINUOUS
 62
     1
 10
136.77590225636661
 20
98.525313557900006
 30
0.0
 40
1.75
  1
(1219)
 41
0.8
 72
     1
 11
139.80923558969999
 21
98.525313557900006
 31
0.0
  0
TEXT
  5
DA
  8
SERVCLRDIM
  6
CONTINUOUS
 62
     1
 10
15.80833333333333
 20
98.797965544300013
 30
0.0
 40
1.75
  1
(914)
 41
0.8
 72
     1
 11
18.375
 21
98.797965544300013
 31
0.0
  0
TEXT
  5
DB
  8
NOTES
  6
CONTINUOUS
 62
     1
 10
0.8
 20
1.1248476951999991
 30
0.0
 40
1.75
  1
VIEW: LEFT
 41
0.8
  0
TEXT
  5
DC
  8
NOTES
  6
CONTINUOUS
 62
     1
 10
0.8
 20
5.6241623234000002
 30
0.0
 40
1.75
  1
FILE NAME: 
 41
0.8
  0
TEXT
  5
DD
  8
NOTES
  6
CONTINUOUS
 62
     1
 10
16.199999999999999
 20
5.6241623234000002
 30
0.0
 40
1.75
  1
TSY40-L-
 41
0.8
  0
TEXT
  5
DE
  8
NOTES
  6
CONTINUOUS
 62
     1
 10
17.066666666700002
 20
9.6235531039999991
 30
0.0
 40
1.75
  1
LAYER KEY
 41
0.8
  0
TEXT
  5
DF
  8
NOTES
  6
CONTINUOUS
 62
     7
 10
1.0303146667
 20
13.6229438846
 30
0.0
 40
1.75
  1
-
 41
8.0
  7
TEXTSTYLE_2
  0
TEXT
  5
E0
  8
NOTES
  6
CONTINUOUS
 62
     1
 10
16.800000000000001
 20
13.6229438846
 30
0.0
 40
1.75
  1
UNIT
 41
0.8
  0
TEXT
  5
E1
  8
NOTES
  6
CONTINUOUS
 62
     6
 10
1.0303146667
 20
17.6223346652
 30
0.0
 40
1.75
  1
-
 41
8.0
  7
TEXTSTYLE_2
  0
TEXT
  5
E2
  8
NOTES
  6
CONTINUOUS
 62
     1
 10
16.800000000000001
 20
17.6223346652
 30
0.0
 40
1.75
  1
ROOF CURB
 41
0.8
  0
TEXT
  5
E3
  8
NOTES
  6
CONTINUOUS
 62
     1
 10
1.0303146667
 20
21.621725445900001
 30
0.0
 40
1.75
  1
-
 41
8.0
  7
TEXTSTYLE_2
  0
TEXT
  5
E4
  8
NOTES
  6
CONTINUOUS
 62
     1
 10
16.800000000000001
 20
21.621725445900001
 30
0.0
 40
1.75
  1
SERVICE CLEARANCE
 41
0.8
  0
TEXT
  5
E5
  8
NOTES
  6
CONTINUOUS
 62
     2
 10
1.0303146667
 20
25.6211162265
 30
0.0
 40
1.75
  1
-
 41
8.0
  7
TEXTSTYLE_2
  0
TEXT
  5
E6
  8
NOTES
  6
CONTINUOUS
 62
     1
 10
16.800000000000001
 20
25.6211162265
 30
0.0
 40
1.75
  1
UNIT DUCTS
 41
0.8
  0
TEXT
  5
E7
  8
NOTES
  6
CONTINUOUS
 62
     5
 10
1.0303146667
 20
29.620507007099999
 30
0.0
 40
1.75
  1
-
 41
8.0
  7
TEXTSTYLE_2
  0
TEXT
  5
E8
  8
NOTES
  6
CONTINUOUS
 62
     1
 10
16.800000000000001
 20
29.620507007099999
 30
0.0
 40
1.75
  1
CURB DUCTS
 41
0.8
  0
TEXT
  5
E9
  8
NOTES
  6
CONTINUOUS
 62
     9
 10
1.0303146667
 20
33.619897787699998
 30
0.0
 40
1.75
  1
-
 41
8.0
  7
TEXTSTYLE_2
  0
TEXT
  5
EA
  8
NOTES
  6
CONTINUOUS
 62
     1
 10
16.800000000000001
 20
33.619897787699998
 30
0.0
 40
1.75
  1
UNIT HIDDEN
 41
0.8
  0
TEXT
  5
EB
  8
NOTES
  6
CONTINUOUS
 62
     1
 10
126.8353476157
 20
42.044965628999996
 30
0.0
 40
1.75
  1
7/8" (22) 
 41
0.8
  0
TEXT
  5
EC
  8
NOTES
  6
CONTINUOUS
 62
     1
 10
126.8353476157
 20
39.419965628999996
 30
0.0
 40
1.75
  1
FIELD CONTROL
 41
0.8
  0
TEXT
  5
ED
  8
NOTES
  6
CONTINUOUS
 62
     1
 10
126.8353476157
 20
36.794965629000011
 30
0.0
 40
1.75
  1
WIRING
 41
0.8
  0
LINE
  5
EE
  8
NOTES
  6
CONTINUOUS
 62
     1
 10
111.9263362093
 20
72.640345768000003
 30
0.0
 11
123.21600723340001
 21
42.919965628999996
 31
0.0
  0
LINE
  5
EF
  8
NOTES
  6
CONTINUOUS
 62
     1
 10
123.21600723340001
 20
42.919965628999996
 30
0.0
 11
126.8353476157
 21
42.919965628999996
 31
0.0
  0
SOLID
  5
F0
  8
NOTES
  6
CONTINUOUS
 62
     1
 10
112.98710760189999
 20
70.903858206099983
 30
0.0
 11
111.9263362093
 21
72.640345768000003
 31
0.0
 12
112.2859880132
 22
70.637528856800003
 32
0.0
 13
112.2859880132
 23
70.637528856800003
 33
0.0
  0
TEXT
  5
F1
  8
NOTES
  6
CONTINUOUS
 62
     1
 10
121.2403405883
 20
124.85992980509999
 30
0.0
 40
1.75
  1
1 3/8" (35) FIELD POWER SUPPLY HOLE
 41
0.8
  0
TEXT
  5
F2
  8
NOTES
  6
CONTINUOUS
 62
     1
 10
121.2403405883
 20
122.23492980509999
 30
0.0
 40
1.75
  1
2 1/2" (64) POWER SUPPLY KNOCKOUT
 41
0.8
  0
TEXT
  5
F3
  8
NOTES
  6
CONTINUOUS
 62
     1
 10
121.2403405883
 20
119.60992980509999
 30
0.0
 40
1.75
  1
2" (51) POWER SUPPLY KNOCKOUT
 41
0.8
  0
TEXT
  5
F4
  8
NOTES
  6
CONTINUOUS
 62
     1
 10
121.2403405883
 20
116.98492980509999
 30
0.0
 40
1.75
  1
 
 41
0.8
  0
LINE
  5
F5
  8
NOTES
  6
CONTINUOUS
 62
     1
 10
112.1646702992
 20
94.825621980899996
 30
0.0
 11
119.00697886250001
 21
125.73492980509999
 31
0.0
  0
LINE
  5
F6
  8
NOTES
  6
CONTINUOUS
 62
     1
 10
119.00697886250001
 20
125.73492980509999
 30
0.0
 11
121.2403405883
 21
125.73492980509999
 31
0.0
  0
SOLID
  5
F7
  8
NOTES
  6
CONTINUOUS
 62
     1
 10
112.230803799
 20
96.859399589199995
 30
0.0
 11
112.1646702992
 21
94.825621980899996
 31
0.0
 12
112.9630764307
 22
96.697298408300014
 32
0.0
 13
112.9630764307
 23
96.697298408300014
 33
0.0
  0
TEXT
  5
F8
  8
NOTES
  6
CONTINUOUS
 62
     1
 10
69.314583333333331
 20
123.4390576914
 30
0.0
 40
1.75
  1
OPTIONAL FACTORY
 41
0.8
 72
     2
 11
90.78125
 21
123.4390576914
 31
0.0
  0
TEXT
  5
F9
  8
NOTES
  6
CONTINUOUS
 62
     1
 10
62.314583333333353
 20
120.8140576914
 30
0.0
 40
1.75
  1
INSTALLED CONVENIENCE
 41
0.8
 72
     2
 11
90.78125
 21
120.8140576914
 31
0.0
  0
TEXT
  5
FA
  8
NOTES
  6
CONTINUOUS
 62
     1
 10
82.847916666666663
 20
118.1890576914
 30
0.0
 40
1.75
  1
OUTLET
 41
0.8
 72
     2
 11
90.78125
 21
118.1890576914
 31
0.0
  0
LINE
  5
FB
  8
NOTES
  6
CONTINUOUS
 62
     1
 10
110.2992068856
 20
86.716194983300014
 30
0.0
 11
94.207415764699974
 21
124.3140576914
 31
0.0
  0
LINE
  5
FC
  8
NOTES
  6
CONTINUOUS
 62
     1
 10
94.207415764699974
 20
124.3140576914
 30
0.0
 11
90.78125
 21
124.3140576914
 31
0.0
  0
SOLID
  5
FD
  8
NOTES
  6
CONTINUOUS
 62
     1
 10
109.1675089183
 20
88.407314349500012
 30
0.0
 11
110.2992068856
 21
86.716194983300014
 31
0.0
 12
109.8570108903
 22
88.702419467499993
 32
0.0
 13
109.8570108903
 23
88.702419467499993
 33
0.0
  0
LINE
  5
FE
  8
NOTES
  6
CONTINUOUS
 62
     1
 10
0.0
 20
0.0
 30
0.0
 11
0.0
 21
36.494440873199999
 31
0.0
  0
LINE
  5
FF
  8
SERVCLEAR
  6
CENTER
 62
     1
 10
0.0
 20
66.416273544299983
 30
0.0
 11
0.0
 21
115.7912735443
 31
0.0
  0
LINE
  5
100
  8
0
  6
CONTINUOUS
 62
     7
 10
0.0
 20
0.0
 30
0.0
 11
0.0
 21
150.0
 31
0.0
  0
LINE
  5
101
  8
SERVCLRDIM
  6
CONTINUOUS
 62
     1
 10
1.875
 20
102.9021325443
 30
0.0
 11
1.875
 21
102.2771325443
 31
0.0
  0
LINE
  5
102
  8
0
  6
CONTINUOUS
 62
     7
 10
0.0
 20
0.0
 30
0.0
 11
175.0
 21
0.0
 31
0.0
  0
LINE
  5
103
  8
NOTES
  6
CONTINUOUS
 62
     1
 10
0.0
 20
0.0
 30
0.0
 11
48.0
 21
0.0
 31
0.0
  0
LINE
  5
104
  8
NOTES
  6
CONTINUOUS
 62
     1
 10
16.0
 20
12.4980961895
 30
0.0
 11
16.0
 21
36.494440873199999
 31
0.0
  0
LINE
  5
105
  8
NOTES
  6
CONTINUOUS
 62
     1
 10
0.0
 20
3.9993907806000002
 30
0.0
 11
48.0
 21
3.9993907806000002
 31
0.0
  0
LINE
  5
106
  8
NOTES
  6
CONTINUOUS
 62
     1
 10
0.0
 20
4.4993146281999987
 30
0.0
 11
48.0
 21
4.4993146281999987
 31
0.0
  0
LINE
  5
107
  8
UNIT-DIM
  6
CONTINUOUS
 62
     7
 10
29.7622292422
 20
115.79127354160001
 30
0.0
 11
29.4497292422
 21
113.91627354160001
 31
0.0
  0
LINE
  5
108
  8
NOTES
  6
CONTINUOUS
 62
     1
 10
0.0
 20
8.4987054087999994
 30
0.0
 11
48.0
 21
8.4987054087999994
 31
0.0
  0
LINE
  5
109
  8
NOTES
  6
CONTINUOUS
 62
     1
 10
0.0
 20
12.4980961895
 30
0.0
 11
48.0
 21
12.4980961895
 31
0.0
  0
LINE
  5
10A
  8
UNIT-DIM
  6
CONTINUOUS
 62
     7
 10
29.7622292422
 20
115.71402654160001
 30
0.0
 11
29.7622292422
 21
91.020276541599998
 31
0.0
  0
LINE
  5
10B
  8
UNIT-DIM
  6
CONTINUOUS
 62
     7
 10
29.7622292422
 20
66.793146541599995
 30
0.0
 11
29.7622292422
 21
83.424396541600004
 31
0.0
  0
LINE
  5
10C
  8
UNIT-DIM
  6
CONTINUOUS
 62
     7
 10
30.0747292422
 20
68.291273541599992
 30
0.0
 11
29.7622292422
 21
66.416273541599992
 31
0.0
  0
LINE
  5
10D
  8
NOTES
  6
CONTINUOUS
 62
     1
 10
0.0
 20
16.497486970099999
 30
0.0
 11
48.0
 21
16.497486970099999
 31
0.0
  0
LINE
  5
10E
  8
UNIT-DIM
  6
CONTINUOUS
 62
     7
 10
29.7622292422
 20
66.416273541599992
 30
0.0
 11
29.4497292422
 21
68.291273541599992
 31
0.0
  0
LINE
  5
10F
  8
SERVCLRDIM
  6
CONTINUOUS
 62
     1
 10
34.125
 20
102.9021325443
 30
0.0
 11
34.125
 21
102.2771325443
 31
0.0
  0
LINE
  5
110
  8
SERVCLEAR
  6
CENTER
 62
     1
 10
36.0
 20
66.416273544299983
 30
0.0
 11
36.0
 21
115.7912735443
 31
0.0
  0
LINE
  5
111
  8
NOTES
  6
CONTINUOUS
 62
     1
 10
0.0
 20
20.496877750700001
 30
0.0
 11
48.0
 21
20.496877750700001
 31
0.0
  0
LINE
  5
112
  8
NOTES
  6
CONTINUOUS
 62
     1
 10
0.0
 20
24.4962685313
 30
0.0
 11
48.0
 21
24.4962685313
 31
0.0
  0
LINE
  5
113
  8
UNIT-DIM
  6
CONTINUOUS
 62
     7
 10
30.0747292422
 20
113.91627354160001
 30
0.0
 11
29.7622292422
 21
115.79127354160001
 31
0.0
  0
LINE
  5
114
  8
NOTES
  6
CONTINUOUS
 62
     1
 10
0.0
 20
28.495659312000001
 30
0.0
 11
48.0
 21
28.495659312000001
 31
0.0
  0
LINE
  5
115
  8
HOOD
  6
CONTINUOUS
 62
     7
 10
36.0
 20
86.570246642699999
 30
0.0
 11
36.076590733300002
 21
86.311988355599993
 31
0.0
  0
LINE
  5
116
  8
HOOD
  6
CONTINUOUS
 62
     7
 10
36.025293337400001
 20
86.577747796899985
 30
0.0
 11
36.101884070700002
 21
86.319489509899995
 31
0.0
  0
LINE
  5
117
  8
HOOD
  6
CONTINUOUS
 62
     7
 10
36.3178047623
 20
86.719532716000003
 30
0.0
 11
36.325305916600001
 21
86.694239378600017
 31
0.0
  0
LINE
  5
118
  8
NOTES
  6
CONTINUOUS
 62
     1
 10
48.0
 20
0.0
 30
0.0
 11
48.0
 21
36.494440873199999
 31
0.0
  0
LINE
  5
119
  8
CURB-14-DIM
  6
CONTINUOUS
 62
     6
 10
111.3775772422
 20
39.256796541599989
 30
0.0
 11
113.2525772422
 21
39.569296541599989
 31
0.0
  0
LINE
  5
11A
  8
CURB-24-DIM
  6
CONTINUOUS
 62
     6
 10
111.3775772422
 20
39.256796541599989
 30
0.0
 11
113.2525772422
 21
39.569296541599989
 31
0.0
  0
LINE
  5
11B
  8
NOTES
  6
CONTINUOUS
 62
     1
 10
0.0
 20
32.495050092600003
 30
0.0
 11
48.0
 21
32.495050092600003
 31
0.0
  0
LINE
  5
11C
  8
NOTES
  6
CONTINUOUS
 62
     1
 10
0.0
 20
36.494440873199999
 30
0.0
 11
48.0
 21
36.494440873199999
 31
0.0
  0
LINE
  5
11D
  8
CURB-14-DIM
  6
CONTINUOUS
 62
     6
 10
61.627577242199997
 20
39.256796541599989
 30
0.0
 11
59.752577242199997
 21
39.569296541599989
 31
0.0
  0
LINE
  5
11E
  8
CURB-24-DIM
  6
CONTINUOUS
 62
     6
 10
61.627577242199997
 20
39.256796541599989
 30
0.0
 11
59.752577242199997
 21
39.569296541599989
 31
0.0
  0
LINE
  5
11F
  8
SERVCLRDIM
  6
CONTINUOUS
 62
     1
 10
52.152478658299998
 20
76.3486753416
 30
0.0
 11
52.152478658299998
 21
70.976273541599994
 31
0.0
  0
LINE
  5
120
  8
SERVCLRDIM
  6
CONTINUOUS
 62
     1
 10
52.152478658299998
 20
66.416273541599992
 30
0.0
 11
52.152478658299998
 21
56.498129541600001
 31
0.0
  0
POLYLINE
  5
121
  8
UNIT-SOL
  6
CONTINUOUS
 62
     7
 66
     1
 10
0.0
 20
0.0
 30
0.0
 40
0.15
 41
0.15
  0
VERTEX
  5
20A
  8
UNIT-SOL
  6
CONTINUOUS
 62
     7
 10
56.752577242199997
 20
115.79127354160001
 30
0.0
  0
VERTEX
  5
20B
  8
UNIT-SOL
  6
CONTINUOUS
 62
     7
 10
56.752577242199997
 20
66.416273541599992
 30
0.0
  0
SEQEND
  5
20C
  8
UNIT-SOL
  6
CONTINUOUS
 62
     7
  0
LINE
  5
125
  8
UNIT-DIM
  6
CONTINUOUS
 62
     7
 10
56.752577242199997
 20
116.72877354160001
 30
0.0
 11
56.752577242199997
 21
130.51832176790001
 31
0.0
  0
LINE
  5
126
  8
SERVCLRDIM
  6
CONTINUOUS
 62
     1
 10
52.485812658299999
 20
72.976273541599994
 30
0.0
 11
52.152478658299998
 21
70.976273541599994
 31
0.0
  0
LINE
  5
127
  8
SERVCLRDIM
  6
CONTINUOUS
 62
     1
 10
52.152478658299998
 20
66.416273541599992
 30
0.0
 11
51.819146658299992
 21
64.416273541599992
 31
0.0
  0
LINE
  5
128
  8
CURB-14-DIM
  6
CONTINUOUS
 62
     6
 10
59.752577242199997
 20
39.569296541599989
 30
0.0
 11
61.627577242199997
 21
39.881796541599989
 31
0.0
  0
LINE
  5
129
  8
CURB-24-DIM
  6
CONTINUOUS
 62
     6
 10
59.752577242199997
 20
39.569296541599989
 30
0.0
 11
61.627577242199997
 21
39.881796541599989
 31
0.0
  0
LINE
  5
12A
  8
CURB-14-DIM
  6
CONTINUOUS
 62
     6
 10
113.2525772422
 20
39.569296541599989
 30
0.0
 11
98.983097990700003
 21
39.569296541599989
 31
0.0
  0
LINE
  5
12B
  8
CURB-24-DIM
  6
CONTINUOUS
 62
     6
 10
111.3775772422
 20
39.569296541599989
 30
0.0
 11
98.983097990700003
 21
39.569296541599989
 31
0.0
  0
LINE
  5
12C
  8
CURB-14-DIM
  6
CONTINUOUS
 62
     6
 10
59.752577242199997
 20
39.569296541599989
 30
0.0
 11
84.618514990699978
 21
39.569296541599989
 31
0.0
  0
LINE
  5
12D
  8
CURB-24-DIM
  6
CONTINUOUS
 62
     6
 10
62.002577242199997
 20
39.569296541599989
 30
0.0
 11
84.618514990699978
 21
39.569296541599989
 31
0.0
  0
LINE
  5
12E
  8
CURB-14-DIM
  6
CONTINUOUS
 62
     6
 10
113.2525772422
 20
39.569296541599989
 30
0.0
 11
111.3775772422
 21
39.881796541599989
 31
0.0
  0
LINE
  5
12F
  8
CURB-24-DIM
  6
CONTINUOUS
 62
     6
 10
113.2525772422
 20
39.569296541599989
 30
0.0
 11
111.3775772422
 21
39.881796541599989
 31
0.0
  0
LINE
  5
130
  8
HOOD
  6
CONTINUOUS
 62
     7
 10
49.898235794100003
 20
71.301814313199998
 30
0.0
 11
39.513222190900002
 21
86.987203715699991
 31
0.0
  0
LINE
  5
131
  8
SERVCLRDIM
  6
CONTINUOUS
 62
     1
 10
52.485812658299999
 20
64.416273541599992
 30
0.0
 11
52.152478658299998
 21
66.416273541599992
 31
0.0
  0
LINE
  5
132
  8
SERVCLRDIM
  6
CONTINUOUS
 62
     1
 10
52.152478658299998
 20
70.976273541599994
 30
0.0
 11
51.819146658299992
 21
72.976273541599994
 31
0.0
  0
LINE
  5
133
  8
UNIT-DIM
  6
CONTINUOUS
 62
     7
 10
58.627577242199997
 20
129.58475303239999
 30
0.0
 11
58.627577242199997
 21
128.95975303239999
 31
0.0
  0
LINE
  5
134
  8
CURB-14-DIM
  6
CONTINUOUS
 62
     6
 10
59.752577242199997
 20
69.041273541599992
 30
0.0
 11
59.752577242199997
 21
38.319296541599989
 31
0.0
  0
LINE
  5
135
  8
CURB-24-DIM
  6
CONTINUOUS
 62
     6
 10
59.752577242199997
 20
69.041273541599992
 30
0.0
 11
59.752577242199997
 21
38.319296541599989
 31
0.0
  0
LINE
  5
136
  8
CURB-14
  6
HIDDEN
 62
     8
 10
59.752577242199997
 20
69.978773541599992
 30
0.0
 11
59.752577242199997
 21
70.978773541599992
 31
0.0
  0
LINE
  5
137
  8
CURB-24
  6
HIDDEN
 62
     8
 10
59.752577242199997
 20
69.978773541599992
 30
0.0
 11
59.752577242199997
 21
70.978773541599992
 31
0.0
  0
LINE
  5
138
  8
CURB-14-DIM
  6
CONTINUOUS
 62
     6
 10
61.627577242199997
 20
39.881796541599989
 30
0.0
 11
61.627577242199997
 21
39.256796541599989
 31
0.0
  0
LINE
  5
139
  8
CURB-24-DIM
  6
CONTINUOUS
 62
     6
 10
61.627577242199997
 20
39.881796541599989
 30
0.0
 11
61.627577242199997
 21
39.256796541599989
 31
0.0
  0
LINE
  5
13A
  8
CURB-24
  6
HIDDEN
 62
     8
 10
61.971327242200012
 20
69.978773541599992
 30
0.0
 11
61.971327242200012
 21
66.416273541599992
 31
0.0
  0
LINE
  5
13B
  8
CURB-14
  6
HIDDEN
 62
     8
 10
61.971327242200012
 20
69.978773541599992
 30
0.0
 11
61.971327242200012
 21
66.573074541599993
 31
0.0
  0
POLYLINE
  5
13C
  8
CURB-24
  6
CONTINUOUS
 62
     6
 66
     1
 10
0.0
 20
0.0
 30
0.0
 40
0.15
 41
0.15
  0
VERTEX
  5
20D
  8
CURB-24
  6
CONTINUOUS
 62
     6
 10
61.971327242200012
 20
66.260629541599997
 30
0.0
  0
VERTEX
  5
20E
  8
CURB-24
  6
CONTINUOUS
 62
     6
 10
61.971327242200012
 20
46.978773541599999
 30
0.0
  0
SEQEND
  5
20F
  8
CURB-24
  6
CONTINUOUS
 62
     6
  0
POLYLINE
  5
140
  8
CURB-14
  6
CONTINUOUS
 62
     6
 66
     1
 10
0.0
 20
0.0
 30
0.0
 40
0.15
 41
0.15
  0
VERTEX
  5
210
  8
CURB-14
  6
CONTINUOUS
 62
     6
 10
61.971327242200012
 20
66.260629541599997
 30
0.0
  0
VERTEX
  5
211
  8
CURB-14
  6
CONTINUOUS
 62
     6
 10
61.971327242200012
 20
56.978773541599999
 30
0.0
  0
SEQEND
  5
212
  8
CURB-14
  6
CONTINUOUS
 62
     6
  0
LINE
  5
144
  8
HOOD
  6
CONTINUOUS
 62
     7
 10
36.3178047623
 20
86.719532716000003
 30
0.0
 11
36.035584366199998
 21
86.635835626000016
 31
0.0
  0
LINE
  5
145
  8
HOOD
  6
CONTINUOUS
 62
     7
 10
36.0430855205
 20
86.610542288600016
 30
0.0
 11
36.325305916600001
 21
86.694239378600017
 31
0.0
  0
LINE
  5
146
  8
HOOD
  6
CONTINUOUS
 62
     7
 10
36.134678562399998
 20
86.301697326799996
 30
0.0
 11
56.752577242199997
 21
92.416273541600006
 31
0.0
  0
LINE
  5
147
  8
HOOD
  6
CONTINUOUS
 62
     7
 10
36.142179716699999
 20
86.276403989399995
 30
0.0
 11
36.599789439200009
 21
86.412115662499986
 31
0.0
  0
LINE
  5
148
  8
HOOD
  6
CONTINUOUS
 62
     7
 10
39.513222190900002
 20
86.987203715699991
 30
0.0
 11
36.944131601800002
 21
86.225297740000002
 31
0.0
  0
POLYLINE
  5
149
  8
CURB-24
  6
CONTINUOUS
 62
     6
 66
     1
 10
0.0
 20
0.0
 30
0.0
 40
0.15
 41
0.15
  0
VERTEX
  5
213
  8
CURB-24
  6
CONTINUOUS
 62
     6
 10
58.971327242199997
 20
46.978773541599999
 30
0.0
  0
VERTEX
  5
214
  8
CURB-24
  6
CONTINUOUS
 62
     6
 10
114.7838272422
 20
46.978773541599999
 30
0.0
  0
SEQEND
  5
215
  8
CURB-24
  6
CONTINUOUS
 62
     6
  0
LINE
  5
14D
  8
CURB-24-DIM
  6
CONTINUOUS
 62
     6
 10
115.5358912085
 20
46.978773541599999
 30
0.0
 11
133.311728612
 21
46.978773541599999
 31
0.0
  0
LINE
  5
14E
  8
CURB-24-DIM
  6
CONTINUOUS
 62
     6
 10
131.6257639602
 20
48.853773541599999
 30
0.0
 11
132.2507639602
 21
48.853773541599999
 31
0.0
  0
LINE
  5
14F
  8
SERVCLRDIM
  6
CONTINUOUS
 62
     1
 10
52.152478658299998
 20
56.498129541600001
 30
0.0
 11
49.1081976583
 21
56.498129541600001
 31
0.0
  0
POLYLINE
  5
150
  8
CURB-14
  6
CONTINUOUS
 62
     6
 66
     1
 10
0.0
 20
0.0
 30
0.0
 40
0.15
 41
0.15
  0
VERTEX
  5
216
  8
CURB-14
  6
CONTINUOUS
 62
     6
 10
58.971327242199997
 20
56.978773541599999
 30
0.0
  0
VERTEX
  5
217
  8
CURB-14
  6
CONTINUOUS
 62
     6
 10
114.7838272422
 20
56.978773541599999
 30
0.0
  0
SEQEND
  5
218
  8
CURB-14
  6
CONTINUOUS
 62
     6
  0
LINE
  5
154
  8
CURB-14-DIM
  6
CONTINUOUS
 62
     6
 10
115.5358912085
 20
56.978773541599999
 30
0.0
 11
126.40921009349999
 21
56.978773541599999
 31
0.0
  0
LINE
  5
155
  8
CURB-14-DIM
  6
CONTINUOUS
 62
     6
 10
124.71244413789999
 20
58.853773541599999
 30
0.0
 11
125.33744413789999
 21
58.853773541599999
 31
0.0
  0
LINE
  5
156
  8
HOOD
  6
CONTINUOUS
 62
     7
 10
36.944131601800002
 20
86.225297740000002
 30
0.0
 11
36.5997894391
 21
86.412115662499986
 31
0.0
  0
LINE
  5
157
  8
SERVCLRDIM
  6
CONTINUOUS
 62
     1
 10
51.819146658299992
 20
64.416273541599992
 30
0.0
 11
52.485812658299999
 21
64.416273541599992
 31
0.0
  0
LINE
  5
158
  8
SERVCLEAR
  6
CENTER
 62
     1
 10
167.23995682969999
 20
66.416273545199999
 30
0.0
 11
119.23995682970001
 21
66.416273545199999
 31
0.0
  0
LINE
  5
159
  8
UNIT-DIM
  6
CONTINUOUS
 62
     7
 10
55.815077242199997
 20
66.416273541599992
 30
0.0
 11
28.5122292422
 21
66.416273541599992
 31
0.0
  0
LINE
  5
15A
  8
SERVCLEAR
  6
CENTER
 62
     1
 10
36.0
 20
66.416273544299983
 30
0.0
 11
0.0
 21
66.416273544299983
 31
0.0
  0
POLYLINE
  5
15B
  8
UNIT-SOL
  6
CONTINUOUS
 62
     7
 66
     1
 10
0.0
 20
0.0
 30
0.0
 40
0.15
 41
0.15
  0
VERTEX
  5
219
  8
UNIT-SOL
  6
CONTINUOUS
 62
     7
 10
56.752577242199997
 20
66.416273541599992
 30
0.0
  0
VERTEX
  5
21A
  8
UNIT-SOL
  6
CONTINUOUS
 62
     7
 10
116.2525772422
 20
66.416273541599992
 30
0.0
  0
SEQEND
  5
21B
  8
UNIT-SOL
  6
CONTINUOUS
 62
     7
  0
LINE
  5
15F
  8
UNIT-DIM
  6
CONTINUOUS
 62
     7
 10
29.4497292422
 20
68.291273541599992
 30
0.0
 11
30.0747292422
 21
68.291273541599992
 31
0.0
  0
LINE
  5
160
  8
CURB-14-DIM
  6
CONTINUOUS
 62
     6
 10
124.71244413789999
 20
69.103773541599992
 30
0.0
 11
125.33744413789999
 21
69.103773541599992
 31
0.0
  0
LINE
  5
161
  8
CURB-24-DIM
  6
CONTINUOUS
 62
     6
 10
131.6257639602
 20
69.103773541599992
 30
0.0
 11
132.2507639602
 21
69.103773541599992
 31
0.0
  0
LINE
  5
162
  8
CURB-14
  6
HIDDEN
 62
     8
 10
113.2525772422
 20
69.978773541599992
 30
0.0
 11
59.752577242199997
 21
69.978773541599992
 31
0.0
  0
LINE
  5
163
  8
CURB-24
  6
HIDDEN
 62
     8
 10
113.2525772422
 20
69.978773541599992
 30
0.0
 11
59.752577242199997
 21
69.978773541599992
 31
0.0
  0
LINE
  5
164
  8
SERVCLRDIM
  6
CONTINUOUS
 62
     1
 10
58.741244584199997
 20
70.976273541599994
 30
0.0
 11
50.911122020400001
 21
70.976273541599994
 31
0.0
  0
LINE
  5
165
  8
CURB-14
  6
HIDDEN
 62
     8
 10
59.752577242199997
 20
70.978773541599992
 30
0.0
 11
113.2525772422
 21
70.978773541599992
 31
0.0
  0
LINE
  5
166
  8
CURB-24
  6
HIDDEN
 62
     8
 10
59.752577242199997
 20
70.978773541599992
 30
0.0
 11
113.2525772422
 21
70.978773541599992
 31
0.0
  0
LINE
  5
167
  8
CURB-14-DIM
  6
CONTINUOUS
 62
     6
 10
113.9230474574
 20
70.978773541599992
 30
0.0
 11
126.40921009349999
 21
70.978773541599992
 31
0.0
  0
LINE
  5
168
  8
CURB-24-DIM
  6
CONTINUOUS
 62
     6
 10
113.9230474574
 20
70.978773541599992
 30
0.0
 11
133.311728612
 21
70.978773541599992
 31
0.0
  0
LINE
  5
169
  8
HOOD
  6
CONTINUOUS
 62
     7
 10
56.752577242199997
 20
71.301814313199998
 30
0.0
 11
49.898235794100003
 21
71.301814313199998
 31
0.0
  0
LINE
  5
16A
  8
SERVCLRDIM
  6
CONTINUOUS
 62
     1
 10
51.819146658299992
 20
72.976273541599994
 30
0.0
 11
52.485812658299999
 21
72.976273541599994
 31
0.0
  0
LINE
  5
16B
  8
UNIT-SOL
  6
CONTINUOUS
 62
     7
 10
118.40620209479999
 20
80.689374431600015
 30
0.0
 11
116.2525772422
 21
80.689374431299996
 31
0.0
  0
LINE
  5
16C
  8
UNIT-SOL
  6
CONTINUOUS
 62
     7
 10
116.2525772417
 20
84.007934750100006
 30
0.0
 11
119.23995682970001
 21
84.007934750499984
 31
0.0
  0
LINE
  5
16D
  8
UNIT-SOL
  6
CONTINUOUS
 62
     7
 10
112.90426288560001
 20
84.803791508299994
 30
0.0
 11
110.2992068856
 21
84.803791508299994
 31
0.0
  0
LINE
  5
16E
  8
SERVCLRDIM
  6
CONTINUOUS
 62
     1
 10
1.875
 20
102.2771325443
 30
0.0
 11
0.0
 21
102.5896325443
 31
0.0
  0
POLYLINE
  5
16F
  8
UNIT-SOL
  6
CONTINUOUS
 62
     7
 66
     1
 10
0.0
 20
0.0
 30
0.0
 40
0.15
 41
0.15
  0
VERTEX
  5
21C
  8
UNIT-SOL
  6
CONTINUOUS
 62
     7
 10
101.2525772422
 20
66.416273541599992
 30
0.0
  0
VERTEX
  5
21D
  8
UNIT-SOL
  6
CONTINUOUS
 62
     7
 10
101.2525772422
 20
115.79127354160001
 30
0.0
  0
SEQEND
  5
21E
  8
UNIT-SOL
  6
CONTINUOUS
 62
     7
  0
LINE
  5
173
  8
SERVCLRDIM
  6
CONTINUOUS
 62
     1
 10
165.36495682969999
 20
102.2777961715
 30
0.0
 11
167.23995682969999
 21
102.5902961715
 31
0.0
  0
LINE
  5
174
  8
UNIT-SOL
  6
CONTINUOUS
 62
     7
 10
110.2992068856
 20
88.391887508300002
 30
0.0
 11
112.90426288560001
 21
88.391887508300002
 31
0.0
  0
LINE
  5
175
  8
SERVCLRDIM
  6
CONTINUOUS
 62
     1
 10
36.0
 20
102.5896325443
 30
0.0
 11
34.125
 21
102.9021325443
 31
0.0
  0
LINE
  5
176
  8
UNIT-SOL
  6
CONTINUOUS
 62
     7
 10
110.2992068856
 20
84.803791508299994
 30
0.0
 11
110.2992068856
 21
88.391887508300002
 31
0.0
  0
LINE
  5
177
  8
CURB-14-DIM
  6
CONTINUOUS
 62
     6
 10
111.3775772422
 20
39.881796541599989
 30
0.0
 11
111.3775772422
 21
39.256796541599989
 31
0.0
  0
LINE
  5
178
  8
CURB-24-DIM
  6
CONTINUOUS
 62
     6
 10
111.3775772422
 20
39.881796541599989
 30
0.0
 11
111.3775772422
 21
39.256796541599989
 31
0.0
  0
LINE
  5
179
  8
CURB-24
  6
HIDDEN
 62
     8
 10
111.4088272422
 20
69.978773541599992
 30
0.0
 11
111.4088272422
 21
66.416273541599992
 31
0.0
  0
LINE
  5
17A
  8
CURB-14
  6
HIDDEN
 62
     8
 10
111.4088272422
 20
69.978773541599992
 30
0.0
 11
111.4088272422
 21
66.573074541599993
 31
0.0
  0
POLYLINE
  5
17B
  8
CURB-24
  6
CONTINUOUS
 62
     6
 66
     1
 10
0.0
 20
0.0
 30
0.0
 40
0.15
 41
0.15
  0
VERTEX
  5
21F
  8
CURB-24
  6
CONTINUOUS
 62
     6
 10
111.4088272422
 20
66.260629541599997
 30
0.0
  0
VERTEX
  5
220
  8
CURB-24
  6
CONTINUOUS
 62
     6
 10
111.4088272422
 20
46.978773541599999
 30
0.0
  0
SEQEND
  5
221
  8
CURB-24
  6
CONTINUOUS
 62
     6
  0
POLYLINE
  5
17F
  8
CURB-14
  6
CONTINUOUS
 62
     6
 66
     1
 10
0.0
 20
0.0
 30
0.0
 40
0.15
 41
0.15
  0
VERTEX
  5
222
  8
CURB-14
  6
CONTINUOUS
 62
     6
 10
111.4088272422
 20
66.260629541599997
 30
0.0
  0
VERTEX
  5
223
  8
CURB-14
  6
CONTINUOUS
 62
     6
 10
111.4088272422
 20
56.978773541599999
 30
0.0
  0
SEQEND
  5
224
  8
CURB-14
  6
CONTINUOUS
 62
     6
  0
LINE
  5
183
  8
UNIT-SOL
  6
CONTINUOUS
 62
     7
 10
112.90426288560001
 20
88.391887508300002
 30
0.0
 11
112.90426288560001
 21
84.803791508299994
 31
0.0
  0
LINE
  5
184
  8
SERVCLRDIM
  6
CONTINUOUS
 62
     1
 10
119.23995682970001
 20
102.5902961715
 30
0.0
 11
121.11495682970001
 21
102.9027961715
 31
0.0
  0
LINE
  5
185
  8
CURB-14
  6
HIDDEN
 62
     8
 10
113.2525772422
 20
70.978773541599992
 30
0.0
 11
113.2525772422
 21
69.978773541599992
 31
0.0
  0
LINE
  5
186
  8
CURB-24
  6
HIDDEN
 62
     8
 10
113.2525772422
 20
70.978773541599992
 30
0.0
 11
113.2525772422
 21
69.978773541599992
 31
0.0
  0
LINE
  5
187
  8
CURB-14-DIM
  6
CONTINUOUS
 62
     6
 10
113.2525772422
 20
69.041273541599992
 30
0.0
 11
113.2525772422
 21
38.319296541599989
 31
0.0
  0
LINE
  5
188
  8
CURB-24-DIM
  6
CONTINUOUS
 62
     6
 10
113.2525772422
 20
69.041273541599992
 30
0.0
 11
113.2525772422
 21
38.319296541599989
 31
0.0
  0
LINE
  5
189
  8
UNIT-DIM
  6
CONTINUOUS
 62
     7
 10
114.3775772422
 20
129.58475303239999
 30
0.0
 11
114.3775772422
 21
128.95975303239999
 31
0.0
  0
POLYLINE
  5
18A
  8
UNIT-SOL
  6
CONTINUOUS
 62
     7
 66
     1
 10
0.0
 20
0.0
 30
0.0
 40
0.15
 41
0.15
  0
VERTEX
  5
225
  8
UNIT-SOL
  6
CONTINUOUS
 62
     7
 10
116.2525772422
 20
66.416273541599992
 30
0.0
  0
VERTEX
  5
226
  8
UNIT-SOL
  6
CONTINUOUS
 62
     7
 10
116.2525772422
 20
115.79127354160001
 30
0.0
  0
SEQEND
  5
227
  8
UNIT-SOL
  6
CONTINUOUS
 62
     7
  0
LINE
  5
18E
  8
UNIT-DIM
  6
CONTINUOUS
 62
     7
 10
116.2525772422
 20
116.72877354160001
 30
0.0
 11
116.2525772422
 21
130.51832176790001
 31
0.0
  0
LINE
  5
18F
  8
SERVCLEAR
  6
CENTER
 62
     1
 10
119.23995682970001
 20
66.416273545199999
 30
0.0
 11
119.23995682970001
 21
115.7912735452
 31
0.0
  0
LINE
  5
190
  8
UNIT-SOL
  6
CONTINUOUS
 62
     7
 10
119.23995682970001
 20
84.007934750499984
 30
0.0
 11
118.40620209479999
 21
80.689374431600015
 31
0.0
  0
LINE
  5
191
  8
SERVCLRDIM
  6
CONTINUOUS
 62
     1
 10
36.0
 20
102.5896325443
 30
0.0
 11
20.270833
 21
102.5896325443
 31
0.0
  0
LINE
  5
192
  8
SERVCLRDIM
  6
CONTINUOUS
 62
     1
 10
0.0
 20
102.5896325443
 30
0.0
 11
15.729165999999999
 21
102.5896325443
 31
0.0
  0
LINE
  5
193
  8
SERVCLRDIM
  6
CONTINUOUS
 62
     1
 10
167.23995682969999
 20
102.5902961715
 30
0.0
 11
142.06581589070001
 21
102.5902961715
 31
0.0
  0
LINE
  5
194
  8
SERVCLRDIM
  6
CONTINUOUS
 62
     1
 10
119.23995682970001
 20
102.5902961715
 30
0.0
 11
136.98981589069999
 21
102.5902961715
 31
0.0
  0
LINE
  5
195
  8
SERVCLRDIM
  6
CONTINUOUS
 62
     1
 10
121.11495682970001
 20
102.9027961715
 30
0.0
 11
121.11495682970001
 21
102.2777961715
 31
0.0
  0
LINE
  5
196
  8
CURB-14-DIM
  6
CONTINUOUS
 62
     6
 10
125.02494413789999
 20
70.978773541599992
 30
0.0
 11
125.02494413789999
 21
67.106064541599991
 31
0.0
  0
LINE
  5
197
  8
CURB-14-DIM
  6
CONTINUOUS
 62
     6
 10
125.02494413789999
 20
57.876482541599998
 30
0.0
 11
125.02494413789999
 21
60.851482541599992
 31
0.0
  0
LINE
  5
198
  8
CURB-14-DIM
  6
CONTINUOUS
 62
     6
 10
125.02494413789999
 20
70.978773541599992
 30
0.0
 11
124.71244413789999
 21
69.103773541599992
 31
0.0
  0
LINE
  5
199
  8
SERVCLRDIM
  6
CONTINUOUS
 62
     1
 10
34.125
 20
102.2771325443
 30
0.0
 11
36.0
 21
102.5896325443
 31
0.0
  0
LINE
  5
19A
  8
SERVCLRDIM
  6
CONTINUOUS
 62
     1
 10
121.11495682970001
 20
102.2777961715
 30
0.0
 11
119.23995682970001
 21
102.5902961715
 31
0.0
  0
LINE
  5
19B
  8
CURB-14-DIM
  6
CONTINUOUS
 62
     6
 10
125.02494413789999
 20
56.978773541599999
 30
0.0
 11
124.71244413789999
 21
58.853773541599999
 31
0.0
  0
LINE
  5
19C
  8
CURB-14-DIM
  6
CONTINUOUS
 62
     6
 10
125.33744413789999
 20
69.103773541599992
 30
0.0
 11
125.02494413789999
 21
70.978773541599992
 31
0.0
  0
LINE
  5
19D
  8
CURB-14-DIM
  6
CONTINUOUS
 62
     6
 10
125.33744413789999
 20
58.853773541599999
 30
0.0
 11
125.02494413789999
 21
56.978773541599999
 31
0.0
  0
LINE
  5
19E
  8
SERVCLRDIM
  6
CONTINUOUS
 62
     1
 10
0.0
 20
102.5896325443
 30
0.0
 11
1.875
 21
102.9021325443
 31
0.0
  0
LINE
  5
19F
  8
UNIT-DIM
  6
CONTINUOUS
 62
     7
 10
29.4497292422
 20
113.91627354160001
 30
0.0
 11
30.0747292422
 21
113.91627354160001
 31
0.0
  0
POLYLINE
  5
1A0
  8
UNIT-SOL
  6
CONTINUOUS
 62
     7
 66
     1
 10
0.0
 20
0.0
 30
0.0
 40
0.15
 41
0.15
  0
VERTEX
  5
228
  8
UNIT-SOL
  6
CONTINUOUS
 62
     7
 10
116.2525772422
 20
115.79127354160001
 30
0.0
  0
VERTEX
  5
229
  8
UNIT-SOL
  6
CONTINUOUS
 62
     7
 10
56.752577242199997
 20
115.79127354160001
 30
0.0
  0
SEQEND
  5
22A
  8
UNIT-SOL
  6
CONTINUOUS
 62
     7
  0
LINE
  5
1A4
  8
UNIT-DIM
  6
CONTINUOUS
 62
     7
 10
55.815077242199997
 20
115.79127354160001
 30
0.0
 11
28.5122292422
 21
115.79127354160001
 31
0.0
  0
LINE
  5
1A5
  8
SERVCLEAR
  6
CENTER
 62
     1
 10
0.0
 20
115.7912735443
 30
0.0
 11
36.0
 21
115.7912735443
 31
0.0
  0
LINE
  5
1A6
  8
SERVCLEAR
  6
CENTER
 62
     1
 10
119.23995682970001
 20
115.7912735452
 30
0.0
 11
167.23995682969999
 21
115.7912735452
 31
0.0
  0
LINE
  5
1A7
  8
SERVCLRDIM
  6
CONTINUOUS
 62
     1
 10
167.23995682969999
 20
102.5902961715
 30
0.0
 11
165.36495682969999
 21
102.9027961715
 31
0.0
  0
LINE
  5
1A8
  8
CURB-24-DIM
  6
CONTINUOUS
 62
     6
 10
131.9382639602
 20
46.978773541599999
 30
0.0
 11
131.6257639602
 21
48.853773541599999
 31
0.0
  0
LINE
  5
1A9
  8
CURB-24-DIM
  6
CONTINUOUS
 62
     6
 10
132.2507639602
 20
69.103773541599992
 30
0.0
 11
131.9382639602
 21
70.978773541599992
 31
0.0
  0
LINE
  5
1AA
  8
CURB-24-DIM
  6
CONTINUOUS
 62
     6
 10
131.9382639602
 20
70.348182541599996
 30
0.0
 11
131.9382639602
 21
62.373182541599988
 31
0.0
  0
LINE
  5
1AB
  8
CURB-24-DIM
  6
CONTINUOUS
 62
     6
 10
131.9382639602
 20
47.609364541600002
 30
0.0
 11
131.9382639602
 21
55.584364541599989
 31
0.0
  0
LINE
  5
1AC
  8
CURB-24-DIM
  6
CONTINUOUS
 62
     6
 10
131.9382639602
 20
70.978773541599992
 30
0.0
 11
131.6257639602
 21
69.103773541599992
 31
0.0
  0
LINE
  5
1AD
  8
CURB-24-DIM
  6
CONTINUOUS
 62
     6
 10
132.2507639602
 20
48.853773541599999
 30
0.0
 11
131.9382639602
 21
46.978773541599999
 31
0.0
  0
LINE
  5
1AE
  8
UNIT-DIM
  6
CONTINUOUS
 62
     7
 10
114.3775772422
 20
128.95975303239999
 30
0.0
 11
116.2525772422
 21
129.27225303239999
 31
0.0
  0
LINE
  5
1AF
  8
UNIT-DIM
  6
CONTINUOUS
 62
     7
 10
58.627577242199997
 20
128.95975303239999
 30
0.0
 11
56.752577242199997
 21
129.27225303239999
 31
0.0
  0
LINE
  5
1B0
  8
UNIT-DIM
  6
CONTINUOUS
 62
     7
 10
116.2525772422
 20
129.27225303239999
 30
0.0
 11
108.9192432422
 21
129.27225303239999
 31
0.0
  0
LINE
  5
1B1
  8
UNIT-DIM
  6
CONTINUOUS
 62
     7
 10
56.752577242199997
 20
129.27225303239999
 30
0.0
 11
92.710910242199986
 21
129.27225303239999
 31
0.0
  0
LINE
  5
1B2
  8
UNIT-DIM
  6
CONTINUOUS
 62
     7
 10
56.752577242199997
 20
129.27225303239999
 30
0.0
 11
58.627577242199997
 21
129.58475303239999
 31
0.0
  0
LINE
  5
1B3
  8
UNIT-DIM
  6
CONTINUOUS
 62
     7
 10
116.2525772422
 20
129.27225303239999
 30
0.0
 11
114.3775772422
 21
129.58475303239999
 31
0.0
  0
LINE
  5
1B4
  8
0
  6
CONTINUOUS
 62
     7
 10
0.0
 20
150.0
 30
0.0
 11
175.0
 21
150.0
 31
0.0
  0
LINE
  5
1B5
  8
SERVCLRDIM
  6
CONTINUOUS
 62
     1
 10
165.36495682969999
 20
102.9027961715
 30
0.0
 11
165.36495682969999
 21
102.2777961715
 31
0.0
  0
LINE
  5
1B6
  8
SERVCLEAR
  6
CENTER
 62
     1
 10
167.23995682969999
 20
66.416273545199999
 30
0.0
 11
167.23995682969999
 21
115.7912735452
 31
0.0
  0
LINE
  5
1B7
  8
0
  6
CONTINUOUS
 62
     7
 10
175.0
 20
0.0
 30
0.0
 11
175.0
 21
150.0
 31
0.0
  0
CIRCLE
  5
1B8
  8
UNIT-SOL
  6
CONTINUOUS
 62
     7
 10
111.6275772422
 20
94.291273541600006
 30
0.0
 40
0.7576260333000001
  0
CIRCLE
  5
1B9
  8
UNIT-SOL
  6
CONTINUOUS
 62
     7
 10
111.6275772422
 20
73.041273541599992
 30
0.0
 40
0.5
  0
ARC
  5
1BA
  8
HOOD
  6
CONTINUOUS
 62
     7
 10
36.050586674800002
 20
86.585248951200015
 30
0.0
 40
0.0527643907
 50
106.5185877258
 51
196.51858772590001
  0
ARC
  5
1BB
  8
HOOD
  6
CONTINUOUS
 62
     7
 10
36.127177408100003
 20
86.326990664199997
 30
0.0
 40
0.0527643907
 50
196.51858772579999
 51
286.51858772579999
  0
ARC
  5
1BC
  8
HOOD
  6
CONTINUOUS
 62
     7
 10
36.127177408100003
 20
86.326990664199997
 30
0.0
 40
0.0263821954
 50
196.51858772590001
 51
286.51858772579999
  0
ARC
  5
1BD
  8
HOOD
  6
CONTINUOUS
 62
     7
 10
36.050586674800002
 20
86.585248951200015
 30
0.0
 40
0.0263821954
 50
106.5185877258
 51
196.51858772599999
  0
ENDSEC
  0
EOF
