  0
SECTION
  2
HEADER
  9
$ACADVER
  1
AC1009
  9
$INSBASE
 10
0.0
 20
0.0
 30
0.0
  9
$EXTMIN
 10
-0.0068659312171917
 20
-0.004577287478071
 30
-0.0015258207003583
  9
$EXTMAX
 10
225.006866978955
 20
150.00457798597
 30
0.0000000349246037
  9
$LIMMIN
 10
0.0
 20
0.0
  9
$LIMMAX
 10
225.0
 20
150.0
  9
$ORTHOMODE
 70
     0
  9
$REGENMODE
 70
     1
  9
$FILLMODE
 70
     1
  9
$QTEXTMODE
 70
     0
  9
$MIRRTEXT
 70
     0
  9
$DRAGMODE
 70
     2
  9
$LTSCALE
 40
12.375
  9
$OSMODE
 70
    37
  9
$ATTMODE
 70
     1
  9
$TEXTSIZE
 40
0.2
  9
$TRACEWID
 40
0.05
  9
$TEXTSTYLE
  7
STANDARD
  9
$CLAYER
  8
0
  9
$CELTYPE
  6
ByLayer
  9
$CECOLOR
 62
   256
  9
$DIMSCALE
 40
1.0
  9
$DIMASZ
 40
4.0
  9
$DIMEXO
 40
1.587499999999999
  9
$DIMDLI
 40
8.5500000000000007
  9
$DIMRND
 40
0.0
  9
$DIMDLE
 40
0.0
  9
$DIMEXE
 40
1.587499999999999
  9
$DIMTP
 40
0.0
  9
$DIMTM
 40
0.0
  9
$DIMTXT
 40
2.0
  9
$DIMCEN
 40
2.024999999999999
  9
$DIMTSZ
 40
0.0
  9
$DIMTOL
 70
     0
  9
$DIMLIM
 70
     0
  9
$DIMTIH
 70
     1
  9
$DIMTOH
 70
     1
  9
$DIMSE1
 70
     0
  9
$DIMSE2
 70
     0
  9
$DIMTAD
 70
     0
  9
$DIMZIN
 70
     0
  9
$DIMBLK
  1
_FILLED
  9
$DIMASO
 70
     1
  9
$DIMSHO
 70
     1
  9
$DIMPOST
  1

  9
$DIMAPOST
  1

  9
$DIMALT
 70
     0
  9
$DIMALTD
 70
     2
  9
$DIMALTF
 40
25.399999999999999
  9
$DIMLFAC
 40
1.0
  9
$DIMTOFL
 70
     0
  9
$DIMTVP
 40
0.0
  9
$DIMTIX
 70
     0
  9
$DIMSOXD
 70
     0
  9
$DIMSAH
 70
     0
  9
$DIMBLK1
  1

  9
$DIMBLK2
  1

  9
$DIMSTYLE
  2
STANDARD
  9
$DIMCLRD
 70
     0
  9
$DIMCLRE
 70
     0
  9
$DIMCLRT
 70
     0
  9
$DIMTFAC
 40
1.0
  9
$DIMGAP
 40
0.09
  9
$LUNITS
 70
     2
  9
$LUPREC
 70
     4
  9
$SKETCHINC
 40
0.1
  9
$FILLETRAD
 40
0.0
  9
$AUNITS
 70
     0
  9
$AUPREC
 70
     0
  9
$MENU
  1
.
  9
$ELEVATION
 40
0.0
  9
$PELEVATION
 40
0.0
  9
$THICKNESS
 40
0.0
  9
$LIMCHECK
 70
     0
  9
$BLIPMODE
 70
     0
  9
$CHAMFERA
 40
0.0
  9
$CHAMFERB
 40
0.0
  9
$SKPOLY
 70
     0
  9
$TDCREATE
 40
2456262.569659248
  9
$TDUPDATE
 40
2456262.5700386111
  9
$TDINDWG
 40
0.0003798264
  9
$TDUSRTIMER
 40
0.0003798264
  9
$USRTIMER
 70
     1
  9
$ANGBASE
 50
0.0
  9
$ANGDIR
 70
     0
  9
$PDMODE
 70
     3
  9
$PDSIZE
 40
7.9375
  9
$PLINEWID
 40
0.0
  9
$COORDS
 70
     1
  9
$SPLFRAME
 70
     0
  9
$SPLINETYPE
 70
     6
  9
$SPLINESEGS
 70
     8
  9
$ATTDIA
 70
     0
  9
$ATTREQ
 70
     1
  9
$HANDLING
 70
     1
  9
$HANDSEED
  5
2D1
  9
$SURFTAB1
 70
     6
  9
$SURFTAB2
 70
     6
  9
$SURFTYPE
 70
     6
  9
$SURFU
 70
     6
  9
$SURFV
 70
     6
  9
$UCSNAME
  2

  9
$UCSORG
 10
0.0
 20
0.0
 30
0.0
  9
$UCSXDIR
 10
1.0
 20
0.0
 30
0.0
  9
$UCSYDIR
 10
0.0
 20
1.0
 30
0.0
  9
$PUCSNAME
  2

  9
$PUCSORG
 10
0.0
 20
0.0
 30
0.0
  9
$PUCSXDIR
 10
1.0
 20
0.0
 30
0.0
  9
$PUCSYDIR
 10
0.0
 20
1.0
 30
0.0
  9
$USERI1
 70
     0
  9
$USERI2
 70
     0
  9
$USERI3
 70
     0
  9
$USERI4
 70
     0
  9
$USERI5
 70
     0
  9
$USERR1
 40
0.0
  9
$USERR2
 40
0.0
  9
$USERR3
 40
0.0
  9
$USERR4
 40
0.0
  9
$USERR5
 40
0.0
  9
$WORLDVIEW
 70
     1
  9
$SHADEDGE
 70
     3
  9
$SHADEDIF
 70
    70
  9
$TILEMODE
 70
     1
  9
$MAXACTVP
 70
    64
  9
$PLIMCHECK
 70
     0
  9
$PEXTMIN
 10
1.0000000000000000E+020
 20
1.0000000000000000E+020
 30
1.0000000000000000E+020
  9
$PEXTMAX
 10
-1.0000000000000000E+020
 20
-1.0000000000000000E+020
 30
-1.0000000000000000E+020
  9
$PLIMMIN
 10
0.0
 20
0.0
  9
$PLIMMAX
 10
12.0
 20
9.0
  9
$UNITMODE
 70
     0
  9
$VISRETAIN
 70
     1
  9
$PLINEGEN
 70
     0
  9
$PSLTSCALE
 70
     1
  0
ENDSEC
  0
SECTION
  2
TABLES
  0
TABLE
  2
VPORT
 70
     1
  0
VPORT
  2
*ACTIVE
 70
     0
 10
0.0
 20
0.0
 11
1.0
 21
1.0
 12
112.50000052386891
 22
75.000000349245994
 13
0.0
 23
0.0
 14
1.0
 24
1.0
 15
0.0
 25
0.0
 16
0.0
 26
0.0
 36
1.0
 17
0.0
 27
0.0
 37
0.0
 40
206.00868840817719
 41
1.1005586592178771
 42
50.0
 43
0.0
 44
0.0
 50
0.0
 51
0.0
 71
     0
 72
   100
 73
     1
 74
     1
 75
     0
 76
     0
 77
     0
 78
     0
  0
ENDTAB
  0
TABLE
  2
LTYPE
 70
     8
  0
LTYPE
  2
ByBlock
 70
     0
  3

 72
    65
 73
     0
 40
0.0
  0
LTYPE
  2
ByLayer
 70
     0
  3

 72
    65
 73
     0
 40
0.0
  0
LTYPE
  2
CONTINUOUS
 70
     0
  3
Solid line
 72
    65
 73
     0
 40
0.0
  0
LTYPE
  2
CENTER
 70
     0
  3
____ _ ____ _ ____ _ ____ _ ____ _ ____ _ ____
 72
    65
 73
     4
 40
0.6
 49
0.375
 49
-0.075
 49
0.075
 49
-0.075
  0
LTYPE
  2
HIDDEN
 70
     0
  3
- - - - - - - - - - - - - - - - - - - -
 72
    65
 73
     2
 40
0.2
 49
0.1
 49
-0.1
  0
LTYPE
  2
PHANTOM
 70
     0
  3
_____ _ _ _____ _ _ _____ _ _ _____
 72
    65
 73
     6
 40
0.8
 49
0.45
 49
-0.05
 49
0.1
 49
-0.05
 49
0.1
 49
-0.05
  0
LTYPE
  2
DOT
 70
     0
  3
. . . . . . . . . . . . . . . . . . . .
 72
    65
 73
     2
 40
0.2
 49
0.1
 49
-0.1
  0
LTYPE
  2
DASHED
 70
     0
  3
- - - - - - - - - - - - - - - - - - - -
 72
    65
 73
     2
 40
0.2
 49
0.1
 49
-0.1
  0
ENDTAB
  0
TABLE
  2
LAYER
 70
    14
  0
LAYER
  2
0
 70
     0
 62
     7
  6
CONTINUOUS
  0
LAYER
  2
DEFAULT_1
 70
     0
 62
     7
  6
CENTER
  0
LAYER
  2
DEFAULT_2
 70
     0
 62
     8
  6
HIDDEN
  0
LAYER
  2
DEFAULT_3
 70
     0
 62
     7
  6
PHANTOM
  0
LAYER
  2
CURB-14
 70
     0
 62
     6
  6
CONTINUOUS
  0
LAYER
  2
CURB-14-DIM
 70
     0
 62
     6
  6
CONTINUOUS
  0
LAYER
  2
CURB-24
 70
     0
 62
     6
  6
CONTINUOUS
  0
LAYER
  2
CURB-24-DIM
 70
     0
 62
     6
  6
CONTINUOUS
  0
LAYER
  2
HOOD
 70
     0
 62
     7
  6
CONTINUOUS
  0
LAYER
  2
NOTES
 70
     0
 62
     1
  6
CONTINUOUS
  0
LAYER
  2
SERVCLEAR
 70
     0
 62
     1
  6
CONTINUOUS
  0
LAYER
  2
SERVCLRDIM
 70
     0
 62
     1
  6
CONTINUOUS
  0
LAYER
  2
UNIT-DIM
 70
     0
 62
     7
  6
CONTINUOUS
  0
LAYER
  2
UNIT-SOL
 70
     0
 62
     7
  6
CONTINUOUS
  0
ENDTAB
  0
TABLE
  2
STYLE
 70
     4
  0
STYLE
  2
STANDARD
 70
     0
 40
0.0
 41
0.8
 50
0.0
 71
     0
 42
0.2
  3
txt
  4

  0
STYLE
  2
ANNOTATIVE
 70
     0
 40
0.0
 41
1.0
 50
0.0
 71
     0
 42
0.2
  3
txt
  4

  0
STYLE
  2
TEXTSTYLE_1
 70
     0
 40
0.0
 41
0.8
 50
0.0
 71
     0
 42
0.2
  3
gdt
  4

  0
STYLE
  2
TEXTSTYLE_2
 70
     0
 40
0.0
 41
8.0
 50
0.0
 71
     0
 42
0.2
  3
txt
  4

  0
ENDTAB
  0
TABLE
  2
VIEW
 70
     0
  0
ENDTAB
  0
TABLE
  2
UCS
 70
     0
  0
ENDTAB
  0
TABLE
  2
APPID
 70
     4
  0
APPID
  2
ACAD
 70
     0
  0
APPID
  2
ACADANNOTATIVE
 70
     0
  0
APPID
  2
ACAD_NAV_VCDISPLAY
 70
     0
  0
APPID
  2
ACAD_MLEADERVER
 70
     0
  0
ENDTAB
  0
TABLE
  2
DIMSTYLE
 70
     2
  0
DIMSTYLE
  2
STANDARD
 70
     0
  3

  4

  5

  6

  7

 40
1.0
 41
0.18
 42
0.0625
 43
0.38
 44
0.18
 45
0.0
 46
0.0
 47
0.0
 48
0.0
140
0.18
141
0.09
142
0.0
143
25.399999999999999
144
1.0
145
0.0
146
1.0
147
0.09
 71
     0
 72
     0
 73
     1
 74
     1
 75
     0
 76
     0
 77
     0
 78
     0
170
     0
171
     2
172
     0
173
     0
174
     0
175
     0
176
     0
177
     0
178
     0
  0
DIMSTYLE
  2
ANNOTATIVE
 70
     0
  3

  4

  5

  6

  7

 40
1.0
 41
0.18
 42
0.0625
 43
0.38
 44
0.18
 45
0.0
 46
0.0
 47
0.0
 48
0.0
140
0.18
141
0.09
142
0.0
143
25.399999999999999
144
1.0
145
0.0
146
1.0
147
0.09
 71
     0
 72
     0
 73
     1
 74
     1
 75
     0
 76
     0
 77
     0
 78
     0
170
     0
171
     2
172
     0
173
     0
174
     0
175
     0
176
     0
177
     0
178
     0
  0
ENDTAB
  0
ENDSEC
  0
SECTION
  2
BLOCKS
  0
BLOCK
  8
0
  2
$MODEL_SPACE
 70
     0
 10
0.0
 20
0.0
 30
0.0
  3
$MODEL_SPACE
  1

  0
ENDBLK
  5
6D
  8
0
  0
BLOCK
 67
     1
  8
0
  2
$PAPER_SPACE
 70
     0
 10
0.0
 20
0.0
 30
0.0
  3
$PAPER_SPACE
  1

  0
ENDBLK
  5
69
 67
     1
  8
0
  0
BLOCK
  8
0
  2
_FILLED
 70
     0
 10
0.0
 20
0.0
 30
0.0
  3
_FILLED
  1

  0
SOLID
  5
8A
  8
0
  6
ByBlock
 62
     0
 10
0.0
 20
0.0
 30
0.0
 11
-1.0
 21
0.1875
 31
0.0
 12
-1.0
 22
-0.1875
 32
0.0
 13
-1.0
 23
-0.1875
 33
0.0
  0
ENDBLK
  5
8B
  8
0
  6
ByBlock
 62
     0
  0
BLOCK
  8
UNIT-DIM
  6
CONTINUOUS
 62
     7
  2
*D1
 70
     1
 10
0.0
 20
0.0
 30
0.0
  3
*D1
  1

  0
TEXT
  5
8E
  8
UNIT-DIM
  6
CONTINUOUS
 62
     7
 10
158.58910057240001
 20
48.125050831499998
 30
0.0
 40
2.0
  1
4-3/8
 41
0.8
  0
TEXT
  5
8F
  8
UNIT-DIM
  6
CONTINUOUS
 62
     7
 10
158.58910057240001
 20
45.125050831499991
 30
0.0
 40
2.0
  1
[
 41
0.8
  0
TEXT
  5
90
  8
UNIT-DIM
  6
CONTINUOUS
 62
     7
 10
160.18910057240001
 20
45.125050831499991
 30
0.0
 40
2.0
  1
111.1
 41
0.8
  0
TEXT
  5
91
  8
UNIT-DIM
  6
CONTINUOUS
 62
     7
 10
168.18910057240001
 20
45.125050831499991
 30
0.0
 40
2.0
  1
]
 41
0.8
  0
LINE
  5
92
  8
UNIT-DIM
  6
CONTINUOUS
 62
     7
 10
148.20603194719999
 20
57.446945193199987
 30
0.0
 11
148.20603194719999
 21
47.537550831499992
 31
0.0
  0
LINE
  5
93
  8
UNIT-DIM
  6
CONTINUOUS
 62
     7
 10
143.83103194719999
 20
63.822358507600001
 30
0.0
 11
143.83103194719999
 21
47.537550831499992
 31
0.0
  0
LINE
  5
94
  8
UNIT-DIM
  6
CONTINUOUS
 62
     7
 10
148.20603194719999
 20
49.125050831499998
 30
0.0
 11
156.58910057240001
 21
49.125050831499998
 31
0.0
  0
LINE
  5
95
  8
UNIT-DIM
  6
CONTINUOUS
 62
     7
 10
143.83103194719999
 20
49.125050831499998
 30
0.0
 11
131.1310319472
 21
49.125050831499998
 31
0.0
  0
INSERT
  5
96
  8
UNIT-DIM
  6
CONTINUOUS
 62
     7
  2
_FILLED
 10
148.20603194719999
 20
49.125050831499998
 30
0.0
 41
4.0
 42
4.0
 43
4.0
 50
180.0
  0
INSERT
  5
97
  8
UNIT-DIM
  6
CONTINUOUS
 62
     7
  2
_FILLED
 10
143.83103194719999
 20
49.125050831499998
 30
0.0
 41
4.0
 42
4.0
 43
4.0
  0
ENDBLK
  5
98
  8
0
  6
ByBlock
 62
     0
  0
BLOCK
  8
SERVCLRDIM
  6
CONTINUOUS
 62
     1
  2
*D2
 70
     1
 10
0.0
 20
0.0
 30
0.0
  3
*D2
  1

  0
TEXT
  5
9B
  8
SERVCLRDIM
  6
CONTINUOUS
 62
     1
 10
15.2235790117
 20
133.38197453910001
 30
0.0
 40
1.8999999999999999
  1
36-42" DEPENDING ON
 41
0.8
  0
TEXT
  5
9C
  8
SERVCLRDIM
  6
CONTINUOUS
 62
     1
 10
15.2235790117
 20
130.53197453909999
 30
0.0
 40
1.8999999999999999
  1
OPTIONS. CHECK FOR
 41
0.8
  0
TEXT
  5
9D
  8
SERVCLRDIM
  6
CONTINUOUS
 62
     1
 10
15.2235790117
 20
127.6819745391
 30
0.0
 40
1.8999999999999999
  1
SOURCES OF FLUE PRODUCTS
 41
0.8
  0
TEXT
  5
9E
  8
SERVCLRDIM
  6
CONTINUOUS
 62
     1
 10
15.2235790117
 20
124.8319745391
 30
0.0
 40
1.8999999999999999
  1
WITHIN 10FT. OF UNIT FRESH
 41
0.8
  0
TEXT
  5
9F
  8
SERVCLRDIM
  6
CONTINUOUS
 62
     1
 10
15.2235790117
 20
121.98197453909999
 30
0.0
 40
1.8999999999999999
  1
AIR INTAKE HOOD. SEE
 41
0.8
  0
TEXT
  5
A0
  8
SERVCLRDIM
  6
CONTINUOUS
 62
     1
 10
15.2235790117
 20
119.1319745391
 30
0.0
 40
1.8999999999999999
  1
PRODUCT DATA FOR DETAILS.
 41
0.8
  0
LINE
  5
A1
  8
SERVCLRDIM
  6
CONTINUOUS
 62
     1
 10
13.824539011700001
 20
116.618205648
 30
0.0
 11
13.824539011700001
 21
133.38197453910001
 31
0.0
  0
LINE
  5
A2
  8
SERVCLRDIM
  6
CONTINUOUS
 62
     1
 10
13.824539011700001
 20
133.38197453910001
 30
0.0
 11
13.824539011700001
 21
135.91947453910001
 31
0.0
  0
LINE
  5
A3
  8
SERVCLRDIM
  6
CONTINUOUS
 62
     1
 10
55.824539011699997
 20
116.618205648
 30
0.0
 11
55.824539011699997
 21
133.38197453910001
 31
0.0
  0
LINE
  5
A4
  8
SERVCLRDIM
  6
CONTINUOUS
 62
     1
 10
55.824539011699997
 20
133.38197453910001
 30
0.0
 11
55.824539011699997
 21
135.91947453910001
 31
0.0
  0
LINE
  5
A5
  8
SERVCLRDIM
  6
CONTINUOUS
 62
     1
 10
13.824539011700001
 20
134.3319745391
 30
0.0
 11
1.1245390117
 21
134.3319745391
 31
0.0
  0
LINE
  5
A6
  8
SERVCLRDIM
  6
CONTINUOUS
 62
     1
 10
55.824539011699997
 20
134.3319745391
 30
0.0
 11
68.5245390117
 21
134.3319745391
 31
0.0
  0
INSERT
  5
A7
  8
SERVCLRDIM
  6
CONTINUOUS
 62
     1
  2
_FILLED
 10
13.824539011700001
 20
134.3319745391
 30
0.0
 41
4.0
 42
4.0
 43
4.0
  0
INSERT
  5
A8
  8
SERVCLRDIM
  6
CONTINUOUS
 62
     1
  2
_FILLED
 10
55.824539011699997
 20
134.3319745391
 30
0.0
 41
4.0
 42
4.0
 43
4.0
 50
180.0
  0
ENDBLK
  5
A9
  8
0
  6
ByBlock
 62
     0
  0
BLOCK
  8
SERVCLRDIM
  6
CONTINUOUS
 62
     1
  2
*D3
 70
     1
 10
0.0
 20
0.0
 30
0.0
  3
*D3
  1

  0
TEXT
  5
AC
  8
SERVCLRDIM
  6
CONTINUOUS
 62
     1
 10
153.07652850049999
 20
132.22997453939999
 30
0.0
 40
1.8999999999999999
  1
36-48" DEPENDING ON OPTIONS.
 41
0.8
  0
TEXT
  5
AD
  8
SERVCLRDIM
  6
CONTINUOUS
 62
     1
 10
153.07652850049999
 20
129.3799745394
 30
0.0
 40
1.8999999999999999
  1
CHECK FOR ADJACENT UNITS OR
 41
0.8
  0
TEXT
  5
AE
  8
SERVCLRDIM
  6
CONTINUOUS
 62
     1
 10
153.07652850049999
 20
126.5299745394
 30
0.0
 40
1.8999999999999999
  1
BUILDING FRESH AIR INTAKE
 41
0.8
  0
TEXT
  5
AF
  8
SERVCLRDIM
  6
CONTINUOUS
 62
     1
 10
153.07652850049999
 20
123.67997453940001
 30
0.0
 40
1.8999999999999999
  1
WITHIN 10FT. OF THIS UNITS
 41
0.8
  0
TEXT
  5
B0
  8
SERVCLRDIM
  6
CONTINUOUS
 62
     1
 10
153.07652850049999
 20
120.8299745394
 30
0.0
 40
1.8999999999999999
  1
FLUE OUTLET. SEE PRODUCT DATA
 41
0.8
  0
TEXT
  5
B1
  8
SERVCLRDIM
  6
CONTINUOUS
 62
     1
 10
153.07652850049999
 20
117.9799745394
 30
0.0
 40
1.8999999999999999
  1
FOR DETAILS.
 41
0.8
  0
LINE
  5
B2
  8
SERVCLRDIM
  6
CONTINUOUS
 62
     1
 10
150.35652850049999
 20
116.61820564830001
 30
0.0
 11
150.35652850049999
 21
132.22997453939999
 31
0.0
  0
LINE
  5
B3
  8
SERVCLRDIM
  6
CONTINUOUS
 62
     1
 10
150.35652850049999
 20
132.22997453939999
 30
0.0
 11
150.35652850049999
 21
134.76747453940001
 31
0.0
  0
LINE
  5
B4
  8
SERVCLRDIM
  6
CONTINUOUS
 62
     1
 10
198.35652850049991
 20
116.61820564830001
 30
0.0
 11
198.35652850049991
 21
132.22997453939999
 31
0.0
  0
LINE
  5
B5
  8
SERVCLRDIM
  6
CONTINUOUS
 62
     1
 10
198.35652850049991
 20
132.22997453939999
 30
0.0
 11
198.35652850049991
 21
134.76747453940001
 31
0.0
  0
LINE
  5
B6
  8
SERVCLRDIM
  6
CONTINUOUS
 62
     1
 10
150.35652850049999
 20
133.17997453940001
 30
0.0
 11
137.6565285005
 21
133.17997453940001
 31
0.0
  0
LINE
  5
B7
  8
SERVCLRDIM
  6
CONTINUOUS
 62
     1
 10
198.35652850049991
 20
133.17997453940001
 30
0.0
 11
211.05652850050001
 21
133.17997453940001
 31
0.0
  0
INSERT
  5
B8
  8
SERVCLRDIM
  6
CONTINUOUS
 62
     1
  2
_FILLED
 10
150.35652850049999
 20
133.17997453940001
 30
0.0
 41
4.0
 42
4.0
 43
4.0
  0
INSERT
  5
B9
  8
SERVCLRDIM
  6
CONTINUOUS
 62
     1
  2
_FILLED
 10
198.35652850049991
 20
133.17997453940001
 30
0.0
 41
4.0
 42
4.0
 43
4.0
 50
180.0
  0
ENDBLK
  5
BA
  8
0
  6
ByBlock
 62
     0
  0
BLOCK
  8
CURB-14-DIM
  6
CONTINUOUS
 62
     6
  2
*D4
 70
     1
 10
0.0
 20
0.0
 30
0.0
  3
*D4
  1

  0
TEXT
  5
BD
  8
CURB-14-DIM
  6
CONTINUOUS
 62
     6
 10
103.7859153939666
 20
29.315026620600001
 30
0.0
 40
2.0
  1
57-5/8
 41
0.8
 72
     1
 11
108.31924872730001
 21
29.315026620600001
 31
0.0
  0
TEXT
  5
BE
  8
CURB-14-DIM
  6
CONTINUOUS
 62
     6
 10
115.65258206063331
 20
29.315026620600001
 30
0.0
 40
2.0
  1
[
 41
0.8
 72
     1
 11
115.9192487273
 21
29.315026620600001
 31
0.0
  0
TEXT
  5
BF
  8
CURB-14-DIM
  6
CONTINUOUS
 62
     6
 10
118.0525820606333
 20
29.315026620600001
 30
0.0
 40
2.0
  1
1462.1
 41
0.8
 72
     1
 11
121.5192487273
 21
29.315026620600001
 31
0.0
  0
TEXT
  5
C0
  8
CURB-14-DIM
  6
CONTINUOUS
 62
     6
 10
126.8525820606333
 20
29.315026620600001
 30
0.0
 40
2.0
  1
]
 41
0.8
 72
     1
 11
127.1192487273
 21
29.315026620600001
 31
0.0
  0
TEXT
  5
C1
  8
CURB-14-DIM
  6
CONTINUOUS
 62
     6
 10
127.9192487273
 20
29.315026620600001
 30
0.0
 40
2.0
  1
 
 41
0.8
 72
     1
 11
128.7192487273
 21
29.315026620600001
 31
0.0
  0
LINE
  5
C2
  8
CURB-14-DIM
  6
CONTINUOUS
 62
     6
 10
87.737998727299995
 20
31.9025266206
 30
0.0
 11
87.737998727299995
 21
29.097740870300001
 31
0.0
  0
LINE
  5
C3
  8
CURB-14-DIM
  6
CONTINUOUS
 62
     6
 10
145.30049872730001
 20
58.8044347218
 30
0.0
 11
145.30049872730001
 21
28.727526620599999
 31
0.0
  0
LINE
  5
C4
  8
CURB-14-DIM
  6
CONTINUOUS
 62
     6
 10
87.737998727299995
 20
30.315026620600001
 30
0.0
 11
101.5192487273
 21
30.315026620600001
 31
0.0
  0
LINE
  5
C5
  8
CURB-14-DIM
  6
CONTINUOUS
 62
     6
 10
145.30049872730001
 20
30.315026620600001
 30
0.0
 11
131.51924872730001
 21
30.315026620600001
 31
0.0
  0
INSERT
  5
C6
  8
CURB-14-DIM
  6
CONTINUOUS
 62
     6
  2
_FILLED
 10
87.737998727299995
 20
30.315026620600001
 30
0.0
 41
4.0
 42
4.0
 43
4.0
 50
180.0
  0
INSERT
  5
C7
  8
CURB-14-DIM
  6
CONTINUOUS
 62
     6
  2
_FILLED
 10
145.30049872730001
 20
30.315026620600001
 30
0.0
 41
4.0
 42
4.0
 43
4.0
  0
ENDBLK
  5
C8
  8
0
  6
ByBlock
 62
     0
  0
BLOCK
  8
CURB-24-DIM
  6
CONTINUOUS
 62
     6
  2
*D5
 70
     1
 10
0.0
 20
0.0
 30
0.0
  3
*D5
  1

  0
TEXT
  5
CB
  8
CURB-24-DIM
  6
CONTINUOUS
 62
     6
 10
48.072532720666658
 20
46.463539488899997
 30
0.0
 40
2.0
  1
24
 41
0.8
 72
     1
 11
49.405866054000001
 21
46.463539488899997
 31
0.0
  0
TEXT
  5
CC
  8
CURB-24-DIM
  6
CONTINUOUS
 62
     6
 10
59.005866054000002
 20
46.463539488899997
 30
0.0
 40
2.0
  1
 
 41
0.8
 72
     1
 11
59.805866053999999
 21
46.463539488899997
 31
0.0
  0
TEXT
  5
CD
  8
CURB-24-DIM
  6
CONTINUOUS
 62
     6
 10
48.339199387333331
 20
43.463539488899997
 30
0.0
 40
2.0
  1
[
 41
0.8
 72
     1
 11
48.605866053999989
 21
43.463539488899997
 31
0.0
  0
TEXT
  5
CE
  8
CURB-24-DIM
  6
CONTINUOUS
 62
     6
 10
50.339199387333323
 20
43.463539488899997
 30
0.0
 40
2.0
  1
609.6
 41
0.8
 72
     1
 11
53.405866053999993
 21
43.463539488899997
 31
0.0
  0
TEXT
  5
CF
  8
CURB-24-DIM
  6
CONTINUOUS
 62
     6
 10
57.939199387333332
 20
43.463539488899997
 30
0.0
 40
2.0
  1
]
 41
0.8
 72
     1
 11
58.205866053999991
 21
43.463539488899997
 31
0.0
  0
LINE
  5
D0
  8
CURB-24-DIM
  6
CONTINUOUS
 62
     6
 10
84.90049872729999
 20
36.661587754099997
 30
0.0
 11
66.217160058399983
 21
36.661587754099997
 31
0.0
  0
LINE
  5
D1
  8
CURB-24-DIM
  6
CONTINUOUS
 62
     6
 10
64.28814771270001
 20
36.661587754099997
 30
0.0
 11
52.618366053999999
 21
36.661587754099997
 31
0.0
  0
LINE
  5
D2
  8
CURB-24-DIM
  6
CONTINUOUS
 62
     6
 10
86.15049872729999
 20
60.659858507599999
 30
0.0
 11
52.618366053999999
 21
60.659858507599999
 31
0.0
  0
LINE
  5
D3
  8
CURB-24-DIM
  6
CONTINUOUS
 62
     6
 10
54.205866053999998
 20
36.661587754099997
 30
0.0
 11
54.205866053999998
 21
41.46353948889999
 31
0.0
  0
LINE
  5
D4
  8
CURB-24-DIM
  6
CONTINUOUS
 62
     6
 10
54.205866053999998
 20
60.659858507599999
 30
0.0
 11
54.205866053999998
 21
50.463539488900011
 31
0.0
  0
INSERT
  5
D5
  8
CURB-24-DIM
  6
CONTINUOUS
 62
     6
  2
_FILLED
 10
54.205866053999998
 20
36.661587754099997
 30
0.0
 41
4.0
 42
4.0
 43
4.0
 50
270.0
  0
INSERT
  5
D6
  8
CURB-24-DIM
  6
CONTINUOUS
 62
     6
  2
_FILLED
 10
54.205866053999998
 20
60.659858507599999
 30
0.0
 41
4.0
 42
4.0
 43
4.0
 50
90.0
  0
ENDBLK
  5
D7
  8
0
  6
ByBlock
 62
     0
  0
BLOCK
  8
CURB-24-DIM
  6
CONTINUOUS
 62
     6
  2
*D6
 70
     1
 10
0.0
 20
0.0
 30
0.0
  3
*D6
  1

  0
TEXT
  5
DA
  8
CURB-24-DIM
  6
CONTINUOUS
 62
     6
 10
103.7859153939666
 20
29.3090205727
 30
0.0
 40
2.0
  1
57-5/8
 41
0.8
 72
     1
 11
108.31924872730001
 21
29.3090205727
 31
0.0
  0
TEXT
  5
DB
  8
CURB-24-DIM
  6
CONTINUOUS
 62
     6
 10
115.65258206063331
 20
29.3090205727
 30
0.0
 40
2.0
  1
[
 41
0.8
 72
     1
 11
115.9192487273
 21
29.3090205727
 31
0.0
  0
TEXT
  5
DC
  8
CURB-24-DIM
  6
CONTINUOUS
 62
     6
 10
118.0525820606333
 20
29.3090205727
 30
0.0
 40
2.0
  1
1462.1
 41
0.8
 72
     1
 11
121.5192487273
 21
29.3090205727
 31
0.0
  0
TEXT
  5
DD
  8
CURB-24-DIM
  6
CONTINUOUS
 62
     6
 10
126.8525820606333
 20
29.3090205727
 30
0.0
 40
2.0
  1
]
 41
0.8
 72
     1
 11
127.1192487273
 21
29.3090205727
 31
0.0
  0
TEXT
  5
DE
  8
CURB-24-DIM
  6
CONTINUOUS
 62
     6
 10
127.9192487273
 20
29.3090205727
 30
0.0
 40
2.0
  1
 
 41
0.8
 72
     1
 11
128.7192487273
 21
29.3090205727
 31
0.0
  0
LINE
  5
DF
  8
CURB-24-DIM
  6
CONTINUOUS
 62
     6
 10
87.737998727299995
 20
58.8044347218
 30
0.0
 11
87.737998727299995
 21
28.721520572700001
 31
0.0
  0
LINE
  5
E0
  8
CURB-24-DIM
  6
CONTINUOUS
 62
     6
 10
145.30049872730001
 20
58.8044347218
 30
0.0
 11
145.30049872730001
 21
28.721520572700001
 31
0.0
  0
LINE
  5
E1
  8
CURB-24-DIM
  6
CONTINUOUS
 62
     6
 10
87.737998727299995
 20
30.3090205727
 30
0.0
 11
101.5192487273
 21
30.3090205727
 31
0.0
  0
LINE
  5
E2
  8
CURB-24-DIM
  6
CONTINUOUS
 62
     6
 10
145.30049872730001
 20
30.3090205727
 30
0.0
 11
131.51924872730001
 21
30.3090205727
 31
0.0
  0
INSERT
  5
E3
  8
CURB-24-DIM
  6
CONTINUOUS
 62
     6
  2
_FILLED
 10
87.737998727299995
 20
30.3090205727
 30
0.0
 41
4.0
 42
4.0
 43
4.0
 50
180.0
  0
INSERT
  5
E4
  8
CURB-24-DIM
  6
CONTINUOUS
 62
     6
  2
_FILLED
 10
145.30049872730001
 20
30.3090205727
 30
0.0
 41
4.0
 42
4.0
 43
4.0
  0
ENDBLK
  5
E5
  8
0
  6
ByBlock
 62
     0
  0
BLOCK
  8
CURB-14-DIM
  6
CONTINUOUS
 62
     6
  2
*D7
 70
     1
 10
0.0
 20
0.0
 30
0.0
  3
*D7
  1

  0
TEXT
  5
E8
  8
CURB-14-DIM
  6
CONTINUOUS
 62
     6
 10
59.356924047833331
 20
54.049789063200002
 30
0.0
 40
2.0
  1
14
 41
0.8
 72
     1
 11
60.423590714500001
 21
54.049789063200002
 31
0.0
  0
TEXT
  5
E9
  8
CURB-14-DIM
  6
CONTINUOUS
 62
     6
 10
70.023590714500003
 20
54.049789063200002
 30
0.0
 40
2.0
  1
 
 41
0.8
 72
     1
 11
70.823590714499986
 21
54.049789063200002
 31
0.0
  0
TEXT
  5
EA
  8
CURB-14-DIM
  6
CONTINUOUS
 62
     6
 10
59.356924047833331
 20
51.049789063199988
 30
0.0
 40
2.0
  1
[
 41
0.8
 72
     1
 11
59.62359071449999
 21
51.049789063199988
 31
0.0
  0
TEXT
  5
EB
  8
CURB-14-DIM
  6
CONTINUOUS
 62
     6
 10
61.223590714499991
 20
51.049789063199988
 30
0.0
 40
2.0
  1
355.6
 41
0.8
 72
     1
 11
64.423590714499994
 21
51.049789063199988
 31
0.0
  0
TEXT
  5
EC
  8
CURB-14-DIM
  6
CONTINUOUS
 62
     6
 10
68.956924047833326
 20
51.049789063199988
 30
0.0
 40
2.0
  1
]
 41
0.8
 72
     1
 11
69.223590714499991
 21
51.049789063199988
 31
0.0
  0
LINE
  5
ED
  8
CURB-14-DIM
  6
CONTINUOUS
 62
     6
 10
86.15049872729999
 20
60.659858507599999
 30
0.0
 11
63.636090714499993
 21
60.659858507599999
 31
0.0
  0
LINE
  5
EE
  8
CURB-14-DIM
  6
CONTINUOUS
 62
     6
 10
84.493719244700003
 20
46.659858507599999
 30
0.0
 11
63.636090714499993
 21
46.659858507599999
 31
0.0
  0
LINE
  5
EF
  8
CURB-14-DIM
  6
CONTINUOUS
 62
     6
 10
65.223590714499991
 20
60.659858507599999
 30
0.0
 11
65.223590714499991
 21
73.359858507600009
 31
0.0
  0
LINE
  5
F0
  8
CURB-14-DIM
  6
CONTINUOUS
 62
     6
 10
65.223590714499991
 20
46.659858507599999
 30
0.0
 11
65.223590714499991
 21
33.959858507600011
 31
0.0
  0
INSERT
  5
F1
  8
CURB-14-DIM
  6
CONTINUOUS
 62
     6
  2
_FILLED
 10
65.223590714499991
 20
60.659858507599999
 30
0.0
 41
4.0
 42
4.0
 43
4.0
 50
270.0
  0
INSERT
  5
F2
  8
CURB-14-DIM
  6
CONTINUOUS
 62
     6
  2
_FILLED
 10
65.223590714499991
 20
46.659858507599999
 30
0.0
 41
4.0
 42
4.0
 43
4.0
 50
90.0
  0
ENDBLK
  5
F3
  8
0
  6
ByBlock
 62
     0
  0
BLOCK
  8
UNIT-DIM
  6
CONTINUOUS
 62
     1
  2
*D8
 70
     1
 10
0.0
 20
0.0
 30
0.0
  3
*D8
  1

  0
TEXT
  5
F6
  8
UNIT-DIM
  6
CONTINUOUS
 62
     1
 10
158.1440944343
 20
27.490907770300002
 30
0.0
 40
2.0
  1
OVERALL HEIGHT AND 
 41
0.8
  0
TEXT
  5
F7
  8
UNIT-DIM
  6
CONTINUOUS
 62
     1
 10
158.1440944343
 20
24.490907770300002
 30
0.0
 40
2.0
  1
CLEARANCE AREA WILL BE 
 41
0.8
  0
TEXT
  5
F8
  8
UNIT-DIM
  6
CONTINUOUS
 62
     1
 10
158.1440944343
 20
21.490907770300002
 30
0.0
 40
2.0
  1
DETERMINED BY ASSEMBLY OF 
 41
0.8
  0
TEXT
  5
F9
  8
UNIT-DIM
  6
CONTINUOUS
 62
     1
 10
158.1440944343
 20
18.490907770299991
 30
0.0
 40
2.0
  1
INSTALLER.  SEE CERTIFIED 
 41
0.8
  0
TEXT
  5
FA
  8
UNIT-DIM
  6
CONTINUOUS
 62
     1
 10
158.1440944343
 20
15.4909077703
 30
0.0
 40
2.0
  1
DRAWING FOR FURTHER DETAIL.
 41
0.8
  0
LINE
  5
FB
  8
UNIT-DIM
  6
CONTINUOUS
 62
     1
 10
146.0120065797999
 20
60.659858507599999
 30
0.0
 11
155.56689755549999
 21
60.659858507599999
 31
0.0
  0
LINE
  5
FC
  8
UNIT-DIM
  6
CONTINUOUS
 62
     1
 10
147.04593403370001
 20
57.659858507599992
 30
0.0
 11
155.56689755549999
 21
57.659858507599992
 31
0.0
  0
LINE
  5
FD
  8
UNIT-DIM
  6
CONTINUOUS
 62
     1
 10
153.97939755549999
 20
60.659858507599999
 30
0.0
 11
153.97939755549999
 21
73.359858507600009
 31
0.0
  0
LINE
  5
FE
  8
UNIT-DIM
  6
CONTINUOUS
 62
     1
 10
153.97939755549999
 20
57.659858507599992
 30
0.0
 11
153.97939755549999
 21
28.490907770300002
 31
0.0
  0
LINE
  5
FF
  8
UNIT-DIM
  6
CONTINUOUS
 62
     1
 10
153.97939755549999
 20
28.490907770300002
 30
0.0
 11
156.1440944343
 21
28.490907770300002
 31
0.0
  0
INSERT
  5
100
  8
UNIT-DIM
  6
CONTINUOUS
 62
     1
  2
_FILLED
 10
153.97939755549999
 20
60.659858507599999
 30
0.0
 41
4.0
 42
4.0
 43
4.0
 50
270.0
  0
INSERT
  5
101
  8
UNIT-DIM
  6
CONTINUOUS
 62
     1
  2
_FILLED
 10
153.97939755549999
 20
57.659858507599992
 30
0.0
 41
4.0
 42
4.0
 43
4.0
 50
90.0
  0
ENDBLK
  5
102
  8
0
  6
ByBlock
 62
     0
  0
BLOCK
  8
UNIT-DIM
  6
CONTINUOUS
 62
     7
  2
*D9
 70
     1
 10
0.0
 20
0.0
 30
0.0
  3
*D9
  1

  0
TEXT
  5
105
  8
UNIT-DIM
  6
CONTINUOUS
 62
     7
 10
164.86096784906661
 20
38.997216435299997
 30
0.0
 40
2.0
  1
7-3/4
 41
0.8
 72
     1
 11
168.59430118239999
 21
38.997216435299997
 31
0.0
  0
TEXT
  5
106
  8
UNIT-DIM
  6
CONTINUOUS
 62
     7
 10
165.12763451573329
 20
35.997216435300011
 30
0.0
 40
2.0
  1
[
 41
0.8
 72
     1
 11
165.3943011824
 21
35.997216435300011
 31
0.0
  0
TEXT
  5
107
  8
UNIT-DIM
  6
CONTINUOUS
 62
     7
 10
167.26096784906659
 20
35.997216435300011
 30
0.0
 40
2.0
  1
196.9
 41
0.8
 72
     1
 11
170.19430118240001
 21
35.997216435300011
 31
0.0
  0
TEXT
  5
108
  8
UNIT-DIM
  6
CONTINUOUS
 62
     7
 10
174.72763451573331
 20
35.997216435300011
 30
0.0
 40
2.0
  1
]
 41
0.8
 72
     1
 11
174.99430118239999
 21
35.997216435300011
 31
0.0
  0
LINE
  5
109
  8
UNIT-DIM
  6
CONTINUOUS
 62
     7
 10
147.04593403370001
 20
57.659858507599992
 30
0.0
 11
171.78180118239999
 21
57.659858507599992
 31
0.0
  0
LINE
  5
10A
  8
UNIT-DIM
  6
CONTINUOUS
 62
     7
 10
145.41853194719999
 20
65.409858507600006
 30
0.0
 11
171.78180118239999
 21
65.409858507600006
 31
0.0
  0
LINE
  5
10B
  8
UNIT-DIM
  6
CONTINUOUS
 62
     7
 10
170.19430118240001
 20
57.659858507599992
 30
0.0
 11
170.19430118240001
 21
42.99721643529999
 31
0.0
  0
LINE
  5
10C
  8
UNIT-DIM
  6
CONTINUOUS
 62
     7
 10
170.19430118240001
 20
65.409858507600006
 30
0.0
 11
170.19430118240001
 21
78.109858507600009
 31
0.0
  0
INSERT
  5
10D
  8
UNIT-DIM
  6
CONTINUOUS
 62
     7
  2
_FILLED
 10
170.19430118240001
 20
57.659858507599992
 30
0.0
 41
4.0
 42
4.0
 43
4.0
 50
90.0
  0
INSERT
  5
10E
  8
UNIT-DIM
  6
CONTINUOUS
 62
     7
  2
_FILLED
 10
170.19430118240001
 20
65.409858507600006
 30
0.0
 41
4.0
 42
4.0
 43
4.0
 50
270.0
  0
ENDBLK
  5
10F
  8
0
  6
ByBlock
 62
     0
  0
BLOCK
  8
UNIT-DIM
  6
CONTINUOUS
 62
     7
  2
*D10
 70
     1
 10
0.0
 20
0.0
 30
0.0
  3
*D10
  1

  0
TEXT
  5
112
  8
UNIT-DIM
  6
CONTINUOUS
 62
     7
 10
16.80124974686666
 20
89.388960574199999
 30
0.0
 40
2.0
  1
57-3/8
 41
0.8
 72
     1
 11
21.334583080200002
 21
89.388960574199999
 31
0.0
  0
TEXT
  5
113
  8
UNIT-DIM
  6
CONTINUOUS
 62
     7
 10
17.067916413533329
 20
86.388960574199999
 30
0.0
 40
2.0
  1
[
 41
0.8
 72
     1
 11
17.334583080200002
 21
86.388960574199999
 31
0.0
  0
TEXT
  5
114
  8
UNIT-DIM
  6
CONTINUOUS
 62
     7
 10
18.66791641353333
 20
86.388960574199999
 30
0.0
 40
2.0
  1
1457
 41
0.8
 72
     1
 11
21.334583080200002
 21
86.388960574199999
 31
0.0
  0
TEXT
  5
115
  8
UNIT-DIM
  6
CONTINUOUS
 62
     7
 10
25.067916413533329
 20
86.388960574199999
 30
0.0
 40
2.0
  1
]
 41
0.8
 72
     1
 11
25.334583080200002
 21
86.388960574199999
 31
0.0
  0
LINE
  5
116
  8
UNIT-DIM
  6
CONTINUOUS
 62
     7
 10
22.359496269800001
 20
115.03070564799999
 30
0.0
 11
19.747083080199999
 21
115.03070564799999
 31
0.0
  0
LINE
  5
117
  8
UNIT-DIM
  6
CONTINUOUS
 62
     7
 10
21.898696269799999
 20
57.659858507599992
 30
0.0
 11
19.747083080199999
 21
57.659858507599992
 31
0.0
  0
LINE
  5
118
  8
UNIT-DIM
  6
CONTINUOUS
 62
     7
 10
21.334583080200002
 20
115.03070564799999
 30
0.0
 11
21.334583080200002
 21
93.388960574199984
 31
0.0
  0
LINE
  5
119
  8
UNIT-DIM
  6
CONTINUOUS
 62
     7
 10
21.334583080200002
 20
57.659858507599992
 30
0.0
 11
21.334583080200002
 21
84.388960574199999
 31
0.0
  0
INSERT
  5
11A
  8
UNIT-DIM
  6
CONTINUOUS
 62
     7
  2
_FILLED
 10
21.334583080200002
 20
115.03070564799999
 30
0.0
 41
4.0
 42
4.0
 43
4.0
 50
90.0
  0
INSERT
  5
11B
  8
UNIT-DIM
  6
CONTINUOUS
 62
     7
  2
_FILLED
 10
21.334583080200002
 20
57.659858507599992
 30
0.0
 41
4.0
 42
4.0
 43
4.0
 50
270.0
  0
ENDBLK
  5
11C
  8
0
  6
ByBlock
 62
     0
  0
BLOCK
  8
UNIT-DIM
  6
CONTINUOUS
 62
     7
  2
*D11
 70
     1
 10
0.0
 20
0.0
 30
0.0
  3
*D11
  1

  0
TEXT
  5
11F
  8
UNIT-DIM
  6
CONTINUOUS
 62
     7
 10
174.33884143933329
 20
63.534858507599999
 30
0.0
 40
2.0
  1
13-3/4
 41
0.8
 72
     1
 11
178.60550810599989
 21
63.534858507599999
 31
0.0
  0
TEXT
  5
120
  8
UNIT-DIM
  6
CONTINUOUS
 62
     7
 10
174.33884143933329
 20
60.534858507599999
 30
0.0
 40
2.0
  1
[
 41
0.8
 72
     1
 11
174.60550810599989
 21
60.534858507599999
 31
0.0
  0
TEXT
  5
121
  8
UNIT-DIM
  6
CONTINUOUS
 62
     7
 10
176.205508106
 20
60.534858507599999
 30
0.0
 40
2.0
  1
349.3
 41
0.8
 72
     1
 11
179.4055081059999
 21
60.534858507599999
 31
0.0
  0
TEXT
  5
122
  8
UNIT-DIM
  6
CONTINUOUS
 62
     7
 10
183.93884143933329
 20
60.534858507599999
 30
0.0
 40
2.0
  1
]
 41
0.8
 72
     1
 11
184.205508106
 21
60.534858507599999
 31
0.0
  0
LINE
  5
123
  8
UNIT-DIM
  6
CONTINUOUS
 62
     7
 10
147.04593403370001
 20
57.659858507599992
 30
0.0
 11
180.99300810599999
 21
57.659858507599992
 31
0.0
  0
LINE
  5
124
  8
UNIT-DIM
  6
CONTINUOUS
 62
     7
 10
145.41853194719999
 20
71.409858507600006
 30
0.0
 11
169.4355445436
 21
71.409858507600006
 31
0.0
  0
LINE
  5
125
  8
UNIT-DIM
  6
CONTINUOUS
 62
     7
 10
171.06705770970001
 20
71.409858507600006
 30
0.0
 11
180.99300810599999
 21
71.409858507600006
 31
0.0
  0
LINE
  5
126
  8
UNIT-DIM
  6
CONTINUOUS
 62
     7
 10
179.4055081059999
 20
57.659858507599992
 30
0.0
 11
179.4055081059999
 21
44.959858507600003
 31
0.0
  0
LINE
  5
127
  8
UNIT-DIM
  6
CONTINUOUS
 62
     7
 10
179.4055081059999
 20
71.409858507600006
 30
0.0
 11
179.4055081059999
 21
84.109858507600009
 31
0.0
  0
INSERT
  5
128
  8
UNIT-DIM
  6
CONTINUOUS
 62
     7
  2
_FILLED
 10
179.4055081059999
 20
57.659858507599992
 30
0.0
 41
4.0
 42
4.0
 43
4.0
 50
90.0
  0
INSERT
  5
129
  8
UNIT-DIM
  6
CONTINUOUS
 62
     7
  2
_FILLED
 10
179.4055081059999
 20
71.409858507600006
 30
0.0
 41
4.0
 42
4.0
 43
4.0
 50
270.0
  0
ENDBLK
  5
12A
  8
0
  6
ByBlock
 62
     0
  0
BLOCK
  8
UNIT-DIM
  6
CONTINUOUS
 62
     7
  2
*D12
 70
     1
 10
0.0
 20
0.0
 30
0.0
  3
*D12
  1

  0
TEXT
  5
12D
  8
UNIT-DIM
  6
CONTINUOUS
 62
     7
 10
182.78686403820001
 20
48.865710546099997
 30
0.0
 40
2.0
  1
19-1/4
 41
0.8
 72
     1
 11
186.78686403820001
 21
48.865710546099997
 31
0.0
  0
TEXT
  5
12E
  8
UNIT-DIM
  6
CONTINUOUS
 62
     7
 10
182.5201973715333
 20
45.865710546099997
 30
0.0
 40
2.0
  1
[
 41
0.8
 72
     1
 11
182.78686403820001
 21
45.865710546099997
 31
0.0
  0
TEXT
  5
12F
  8
UNIT-DIM
  6
CONTINUOUS
 62
     7
 10
184.5201973715333
 20
45.865710546099997
 30
0.0
 40
2.0
  1
489.0
 41
0.8
 72
     1
 11
187.58686403819999
 21
45.865710546099997
 31
0.0
  0
TEXT
  5
130
  8
UNIT-DIM
  6
CONTINUOUS
 62
     7
 10
192.12019737153329
 20
45.865710546099997
 30
0.0
 40
2.0
  1
]
 41
0.8
 72
     1
 11
192.3868640382
 21
45.865710546099997
 31
0.0
  0
LINE
  5
131
  8
UNIT-DIM
  6
CONTINUOUS
 62
     7
 10
147.04593403370001
 20
57.659858507599992
 30
0.0
 11
189.1743640382
 21
57.659858507599992
 31
0.0
  0
LINE
  5
132
  8
UNIT-DIM
  6
CONTINUOUS
 62
     7
 10
145.41853194719999
 20
76.909858507600006
 30
0.0
 11
146.10401328910001
 21
76.909858507600006
 31
0.0
  0
LINE
  5
133
  8
UNIT-DIM
  6
CONTINUOUS
 62
     7
 10
147.52751178700001
 20
76.909858507600006
 30
0.0
 11
169.28516754020001
 21
76.909858507600006
 31
0.0
  0
LINE
  5
134
  8
UNIT-DIM
  6
CONTINUOUS
 62
     7
 10
171.02464848930001
 20
76.909858507600006
 30
0.0
 11
178.46242909950001
 21
76.909858507600006
 31
0.0
  0
LINE
  5
135
  8
UNIT-DIM
  6
CONTINUOUS
 62
     7
 10
180.0819458453
 20
76.909858507600006
 30
0.0
 11
189.1743640382
 21
76.909858507600006
 31
0.0
  0
LINE
  5
136
  8
UNIT-DIM
  6
CONTINUOUS
 62
     7
 10
187.58686403819999
 20
57.659858507599992
 30
0.0
 11
187.58686403819999
 21
67.284858507600006
 31
0.0
  0
LINE
  5
137
  8
UNIT-DIM
  6
CONTINUOUS
 62
     7
 10
187.58686403819999
 20
67.284858507600006
 30
0.0
 11
187.58686403819999
 21
52.865710546099997
 31
0.0
  0
LINE
  5
138
  8
UNIT-DIM
  6
CONTINUOUS
 62
     7
 10
187.58686403819999
 20
76.909858507600006
 30
0.0
 11
187.58686403819999
 21
67.284858507600006
 31
0.0
  0
INSERT
  5
139
  8
UNIT-DIM
  6
CONTINUOUS
 62
     7
  2
_FILLED
 10
187.58686403819999
 20
57.659858507599992
 30
0.0
 41
4.0
 42
4.0
 43
4.0
 50
270.0
  0
INSERT
  5
13A
  8
UNIT-DIM
  6
CONTINUOUS
 62
     7
  2
_FILLED
 10
187.58686403819999
 20
76.909858507600006
 30
0.0
 41
4.0
 42
4.0
 43
4.0
 50
90.0
  0
ENDBLK
  5
13B
  8
0
  6
ByBlock
 62
     0
  0
BLOCK
  8
UNIT-DIM
  6
CONTINUOUS
 62
     7
  2
*D13
 70
     1
 10
0.0
 20
0.0
 30
0.0
  3
*D13
  1

  0
TEXT
  5
13E
  8
UNIT-DIM
  6
CONTINUOUS
 62
     7
 10
191.54721590323331
 20
69.784858507600006
 30
0.0
 40
2.0
  1
26-1/4
 41
0.8
 72
     1
 11
195.81388256989999
 21
69.784858507600006
 31
0.0
  0
TEXT
  5
13F
  8
UNIT-DIM
  6
CONTINUOUS
 62
     7
 10
191.54721590323331
 20
66.784858507600006
 30
0.0
 40
2.0
  1
[
 41
0.8
 72
     1
 11
191.81388256989999
 21
66.784858507600006
 31
0.0
  0
TEXT
  5
140
  8
UNIT-DIM
  6
CONTINUOUS
 62
     7
 10
193.41388256990001
 20
66.784858507600006
 30
0.0
 40
2.0
  1
666.8
 41
0.8
 72
     1
 11
196.6138825699
 21
66.784858507600006
 31
0.0
  0
TEXT
  5
141
  8
UNIT-DIM
  6
CONTINUOUS
 62
     7
 10
201.1472159032333
 20
66.784858507600006
 30
0.0
 40
2.0
  1
]
 41
0.8
 72
     1
 11
201.41388256990001
 21
66.784858507600006
 31
0.0
  0
LINE
  5
142
  8
UNIT-DIM
  6
CONTINUOUS
 62
     7
 10
147.04593403370001
 20
57.659858507599992
 30
0.0
 11
198.20138256990001
 21
57.659858507599992
 31
0.0
  0
LINE
  5
143
  8
UNIT-DIM
  6
CONTINUOUS
 62
     7
 10
145.41853194719999
 20
83.909858507600006
 30
0.0
 11
147.73345513090001
 21
83.909858507600006
 31
0.0
  0
LINE
  5
144
  8
UNIT-DIM
  6
CONTINUOUS
 62
     7
 10
149.30254727479999
 20
83.909858507600006
 30
0.0
 11
178.6761153368
 21
83.909858507600006
 31
0.0
  0
LINE
  5
145
  8
UNIT-DIM
  6
CONTINUOUS
 62
     7
 10
180.0819458453
 20
83.909858507600006
 30
0.0
 11
198.20138256990001
 21
83.909858507600006
 31
0.0
  0
LINE
  5
146
  8
UNIT-DIM
  6
CONTINUOUS
 62
     7
 10
196.6138825699
 20
57.659858507599992
 30
0.0
 11
196.6138825699
 21
64.784858507600006
 31
0.0
  0
LINE
  5
147
  8
UNIT-DIM
  6
CONTINUOUS
 62
     7
 10
196.6138825699
 20
83.909858507600006
 30
0.0
 11
196.6138825699
 21
73.784858507600006
 31
0.0
  0
INSERT
  5
148
  8
UNIT-DIM
  6
CONTINUOUS
 62
     7
  2
_FILLED
 10
196.6138825699
 20
57.659858507599992
 30
0.0
 41
4.0
 42
4.0
 43
4.0
 50
270.0
  0
INSERT
  5
149
  8
UNIT-DIM
  6
CONTINUOUS
 62
     7
  2
_FILLED
 10
196.6138825699
 20
83.909858507600006
 30
0.0
 41
4.0
 42
4.0
 43
4.0
 50
90.0
  0
ENDBLK
  5
14A
  8
0
  6
ByBlock
 62
     0
  0
BLOCK
  8
UNIT-DIM
  6
CONTINUOUS
 62
     7
  2
*D14
 70
     1
 10
0.0
 20
0.0
 30
0.0
  3
*D14
  1

  0
TEXT
  5
14D
  8
UNIT-DIM
  6
CONTINUOUS
 62
     7
 10
200.69749838906671
 20
76.347690169700002
 30
0.0
 40
2.0
  1
35-3/4
 41
0.8
 72
     1
 11
205.23083172240001
 21
76.347690169700002
 31
0.0
  0
TEXT
  5
14E
  8
UNIT-DIM
  6
CONTINUOUS
 62
     7
 10
200.96416505573339
 20
73.347690169700002
 30
0.0
 40
2.0
  1
[
 41
0.8
 72
     1
 11
201.23083172240001
 21
73.347690169700002
 31
0.0
  0
TEXT
  5
14F
  8
UNIT-DIM
  6
CONTINUOUS
 62
     7
 10
203.23083172240001
 20
73.347690169700002
 30
0.0
 40
2.0
  1
908.1
 41
0.8
 72
     1
 11
206.03083172239999
 21
73.347690169700002
 31
0.0
  0
TEXT
  5
150
  8
UNIT-DIM
  6
CONTINUOUS
 62
     7
 10
210.5641650557333
 20
73.347690169700002
 30
0.0
 40
2.0
  1
]
 41
0.8
 72
     1
 11
210.83083172240001
 21
73.347690169700002
 31
0.0
  0
LINE
  5
151
  8
UNIT-DIM
  6
CONTINUOUS
 62
     7
 10
147.04593403370001
 20
57.659858507599992
 30
0.0
 11
207.6183317224
 21
57.659858507599992
 31
0.0
  0
LINE
  5
152
  8
UNIT-DIM
  6
CONTINUOUS
 62
     7
 10
145.41853194719999
 20
93.409858507600006
 30
0.0
 11
147.87348906099999
 21
93.409858507600006
 31
0.0
  0
LINE
  5
153
  8
UNIT-DIM
  6
CONTINUOUS
 62
     7
 10
148.83135946510001
 20
93.409858507600006
 30
0.0
 11
150.0364222316
 21
93.409858507600006
 31
0.0
  0
LINE
  5
154
  8
UNIT-DIM
  6
CONTINUOUS
 62
     7
 10
151.42687926990001
 20
93.409858507600006
 30
0.0
 11
207.6183317224
 21
93.409858507600006
 31
0.0
  0
LINE
  5
155
  8
UNIT-DIM
  6
CONTINUOUS
 62
     7
 10
206.03083172239999
 20
57.659858507599992
 30
0.0
 11
206.03083172239999
 21
71.347690169700002
 31
0.0
  0
LINE
  5
156
  8
UNIT-DIM
  6
CONTINUOUS
 62
     7
 10
206.03083172239999
 20
93.409858507600006
 30
0.0
 11
206.03083172239999
 21
80.347690169700016
 31
0.0
  0
INSERT
  5
157
  8
UNIT-DIM
  6
CONTINUOUS
 62
     7
  2
_FILLED
 10
206.03083172239999
 20
57.659858507599992
 30
0.0
 41
4.0
 42
4.0
 43
4.0
 50
270.0
  0
INSERT
  5
158
  8
UNIT-DIM
  6
CONTINUOUS
 62
     7
  2
_FILLED
 10
206.03083172239999
 20
93.409858507600006
 30
0.0
 41
4.0
 42
4.0
 43
4.0
 50
90.0
  0
ENDBLK
  5
159
  8
0
  6
ByBlock
 62
     0
  0
ENDSEC
  0
SECTION
  2
ENTITIES
  0
DIMENSION
  5
15A
  8
UNIT-DIM
  6
CONTINUOUS
 62
     7
  2
*D1
 10
143.83103194719999
 20
49.125050831499998
 30
0.0
 11
164.18910057240001
 21
47.625050831499991
 31
0.0
 70
   128
 13
148.20603194719999
 23
59.0344451932
 33
0.0
 14
143.83103194719999
 24
65.409858507600006
 34
0.0
 50
180.0
  0
DIMENSION
  5
15B
  8
SERVCLRDIM
  6
CONTINUOUS
 62
     1
  2
*D2
 10
55.824539011699997
 20
134.3319745391
 30
0.0
 11
34.983579011700002
 21
127.2069745391
 31
0.0
 70
   128
 13
13.824539011700001
 23
115.03070564799999
 33
0.0
 14
55.824539011699997
 24
115.03070564799999
 34
0.0
  0
DIMENSION
  5
15C
  8
SERVCLRDIM
  6
CONTINUOUS
 62
     1
  2
*D3
 10
198.35652850049991
 20
133.17997453940001
 30
0.0
 11
175.11652850050001
 21
126.05497453940001
 31
0.0
 70
   128
 13
150.35652850049999
 23
115.0307056483
 33
0.0
 14
198.35652850049991
 24
115.0307056483
 34
0.0
  0
DIMENSION
  5
15D
  8
CURB-14-DIM
  6
CONTINUOUS
 62
     6
  2
*D4
 10
145.30049872730001
 20
30.315026620600001
 30
0.0
 11
115.7192487273
 21
30.315026620600001
 31
0.0
 70
   128
 13
87.737998727299995
 23
33.490026620599998
 33
0.0
 14
145.30049872730001
 24
60.391934721799998
 34
0.0
  0
DIMENSION
  5
15E
  8
CURB-24-DIM
  6
CONTINUOUS
 62
     6
  2
*D5
 10
54.205866053999998
 20
60.659858507599999
 30
0.0
 11
53.405866053999993
 21
45.963539488899997
 31
0.0
 70
   128
 13
86.487998727299995
 23
36.661587754099997
 33
0.0
 14
87.737998727299995
 24
60.659858507599999
 34
0.0
 50
90.0
  0
DIMENSION
  5
15F
  8
CURB-24-DIM
  6
CONTINUOUS
 62
     6
  2
*D6
 10
145.30049872730001
 20
30.3090205727
 30
0.0
 11
115.7192487273
 21
30.3090205727
 31
0.0
 70
   128
 13
87.737998727299995
 23
60.391934721799998
 33
0.0
 14
145.30049872730001
 24
60.391934721799998
 34
0.0
  0
DIMENSION
  5
160
  8
CURB-14-DIM
  6
CONTINUOUS
 62
     6
  2
*D7
 10
65.223590714499991
 20
46.659858507599999
 30
0.0
 11
64.423590714499994
 21
53.549789063199988
 31
0.0
 70
   128
 13
87.737998727299995
 23
60.659858507599999
 33
0.0
 14
86.081219244699994
 24
46.659858507599999
 34
0.0
 50
270.0
  0
DIMENSION
  5
161
  8
UNIT-DIM
  6
CONTINUOUS
 62
     1
  2
*D8
 10
153.97939755549999
 20
57.659858507599992
 30
0.0
 11
179.7440944343
 21
22.490907770300002
 31
0.0
 70
   128
 13
144.42450657980001
 23
60.659858507599999
 33
0.0
 14
145.4584340337
 24
57.659858507599992
 34
0.0
 50
270.0
  0
DIMENSION
  5
162
  8
UNIT-DIM
  6
CONTINUOUS
 62
     7
  2
*D9
 10
170.19430118240001
 20
65.409858507600006
 30
0.0
 11
170.19430118240001
 21
38.497216435300011
 31
0.0
 70
   128
 13
145.4584340337
 23
57.659858507599992
 33
0.0
 14
143.83103194719999
 24
65.409858507600006
 34
0.0
 50
90.0
  0
DIMENSION
  5
163
  8
UNIT-DIM
  6
CONTINUOUS
 62
     7
  2
*D10
 10
21.334583080200002
 20
57.659858507599992
 30
0.0
 11
21.334583080200002
 21
88.888960574199999
 31
0.0
 70
   128
 13
18.159583080200001
 23
115.03070564799999
 33
0.0
 14
18.159583080200001
 24
57.659858507599992
 34
0.0
 50
270.0
  0
DIMENSION
  5
164
  8
UNIT-DIM
  6
CONTINUOUS
 62
     7
  2
*D11
 10
179.4055081059999
 20
71.409858507600006
 30
0.0
 11
179.4055081059999
 21
63.034858507599999
 31
0.0
 70
   128
 13
145.4584340337
 23
57.659858507599992
 33
0.0
 14
143.83103194719999
 24
71.409858507600006
 34
0.0
 50
90.0
  0
DIMENSION
  5
165
  8
UNIT-DIM
  6
CONTINUOUS
 62
     7
  2
*D12
 10
187.58686403819999
 20
76.909858507600006
 30
0.0
 11
187.58686403819999
 21
48.365710546099997
 31
0.0
 70
   128
 13
145.4584340337
 23
57.659858507599992
 33
0.0
 14
143.83103194719999
 24
76.909858507600006
 34
0.0
 50
90.0
  0
DIMENSION
  5
166
  8
UNIT-DIM
  6
CONTINUOUS
 62
     7
  2
*D13
 10
196.6138825699
 20
83.909858507600006
 30
0.0
 11
196.6138825699
 21
69.284858507600006
 31
0.0
 70
   128
 13
145.4584340337
 23
57.659858507599992
 33
0.0
 14
143.83103194719999
 24
83.909858507600006
 34
0.0
 50
90.0
  0
DIMENSION
  5
167
  8
UNIT-DIM
  6
CONTINUOUS
 62
     7
  2
*D14
 10
206.03083172239999
 20
93.409858507600006
 30
0.0
 11
206.03083172239999
 21
75.847690169700002
 31
0.0
 70
   128
 13
145.4584340337
 23
57.659858507599992
 33
0.0
 14
143.83103194719999
 24
93.409858507600006
 34
0.0
 50
90.0
  0
LINE
  5
168
  8
NOTES
  6
CONTINUOUS
 62
     1
 10
0.0
 20
0.0
 30
0.0
 11
48.0
 21
0.0
 31
0.0
  0
LINE
  5
169
  8
NOTES
  6
CONTINUOUS
 62
     1
 10
0.0
 20
0.0
 30
0.0
 11
0.0
 21
36.5
 31
0.0
  0
LINE
  5
16A
  8
NOTES
  6
CONTINUOUS
 62
     1
 10
0.0
 20
4.0
 30
0.0
 11
48.0
 21
4.0
 31
0.0
  0
LINE
  5
16B
  8
NOTES
  6
CONTINUOUS
 62
     1
 10
0.0
 20
4.5
 30
0.0
 11
48.0
 21
4.5
 31
0.0
  0
LINE
  5
16C
  8
NOTES
  6
CONTINUOUS
 62
     1
 10
0.0
 20
8.5
 30
0.0
 11
48.0
 21
8.5
 31
0.0
  0
LINE
  5
16D
  8
NOTES
  6
CONTINUOUS
 62
     1
 10
0.0
 20
12.5
 30
0.0
 11
48.0
 21
12.5
 31
0.0
  0
LINE
  5
16E
  8
NOTES
  6
CONTINUOUS
 62
     1
 10
0.0
 20
16.5
 30
0.0
 11
48.0
 21
16.5
 31
0.0
  0
LINE
  5
16F
  8
NOTES
  6
CONTINUOUS
 62
     1
 10
0.0
 20
20.5
 30
0.0
 11
48.0
 21
20.5
 31
0.0
  0
LINE
  5
170
  8
NOTES
  6
CONTINUOUS
 62
     1
 10
0.0
 20
24.5
 30
0.0
 11
48.0
 21
24.5
 31
0.0
  0
LINE
  5
171
  8
NOTES
  6
CONTINUOUS
 62
     1
 10
0.0
 20
28.5
 30
0.0
 11
48.0
 21
28.5
 31
0.0
  0
LINE
  5
172
  8
NOTES
  6
CONTINUOUS
 62
     1
 10
0.0
 20
32.5
 30
0.0
 11
48.0
 21
32.5
 31
0.0
  0
LINE
  5
173
  8
NOTES
  6
CONTINUOUS
 62
     1
 10
0.0
 20
36.5
 30
0.0
 11
48.0
 21
36.5
 31
0.0
  0
LINE
  5
174
  8
NOTES
  6
CONTINUOUS
 62
     1
 10
16.0
 20
12.5
 30
0.0
 11
16.0
 21
36.5
 31
0.0
  0
LINE
  5
175
  8
NOTES
  6
CONTINUOUS
 62
     1
 10
48.0
 20
0.0
 30
0.0
 11
48.0
 21
36.5
 31
0.0
  0
TEXT
  5
176
  8
NOTES
  6
CONTINUOUS
 62
     1
 10
0.8
 20
1.0
 30
0.0
 40
2.0
  1
VIEW: LEFT
 41
0.8
  0
TEXT
  5
177
  8
NOTES
  6
CONTINUOUS
 62
     1
 10
0.8
 20
5.5
 30
0.0
 40
2.0
  1
FILE NAME: 
 41
0.8
  0
TEXT
  5
178
  8
NOTES
  6
CONTINUOUS
 62
     1
 10
18.399999999999999
 20
5.5
 30
0.0
 40
2.0
  1
TSY50-L-
 41
0.8
  0
TEXT
  5
179
  8
NOTES
  6
CONTINUOUS
 62
     1
 10
17.066666666666659
 20
9.5
 30
0.0
 40
2.0
  1
LAYER KEY
 41
0.8
 72
     1
 11
24.0
 21
9.5
 31
0.0
  0
TEXT
  5
17A
  8
NOTES
  6
CONTINUOUS
 62
     7
 10
5.5555555555333331
 20
13.5
 30
0.0
 40
2.0
  1
-
 41
3.6666666666999999
  7
TEXTSTYLE_2
 72
     1
 11
8.0
 21
13.5
 31
0.0
  0
TEXT
  5
17B
  8
NOTES
  6
CONTINUOUS
 62
     1
 10
16.800000000000001
 20
13.5
 30
0.0
 40
2.0
  1
UNIT
 41
0.8
  0
TEXT
  5
17C
  8
NOTES
  6
CONTINUOUS
 62
     6
 10
5.5555555555333331
 20
17.5
 30
0.0
 40
2.0
  1
-
 41
3.6666666666999999
  7
TEXTSTYLE_2
 72
     1
 11
8.0
 21
17.5
 31
0.0
  0
TEXT
  5
17D
  8
NOTES
  6
CONTINUOUS
 62
     1
 10
16.800000000000001
 20
17.5
 30
0.0
 40
2.0
  1
ROOF CURB
 41
0.8
  0
TEXT
  5
17E
  8
NOTES
  6
CONTINUOUS
 62
     1
 10
5.5555555555333331
 20
21.5
 30
0.0
 40
2.0
  1
-
 41
3.6666666666999999
  7
TEXTSTYLE_2
 72
     1
 11
8.0
 21
21.5
 31
0.0
  0
TEXT
  5
17F
  8
NOTES
  6
CONTINUOUS
 62
     1
 10
16.800000000000001
 20
21.5
 30
0.0
 40
2.0
  1
SERVICE CLEARANCE
 41
0.8
  0
TEXT
  5
180
  8
NOTES
  6
CONTINUOUS
 62
     2
 10
5.5555555555333331
 20
25.5
 30
0.0
 40
2.0
  1
-
 41
3.6666666666999999
  7
TEXTSTYLE_2
 72
     1
 11
8.0
 21
25.5
 31
0.0
  0
TEXT
  5
181
  8
NOTES
  6
CONTINUOUS
 62
     1
 10
16.800000000000001
 20
25.5
 30
0.0
 40
2.0
  1
UNIT DUCTS
 41
0.8
  0
TEXT
  5
182
  8
NOTES
  6
CONTINUOUS
 62
     5
 10
5.5555555555333331
 20
29.5
 30
0.0
 40
2.0
  1
-
 41
3.6666666666999999
  7
TEXTSTYLE_2
 72
     1
 11
8.0
 21
29.5
 31
0.0
  0
TEXT
  5
183
  8
NOTES
  6
CONTINUOUS
 62
     1
 10
16.800000000000001
 20
29.5
 30
0.0
 40
2.0
  1
CURB DUCTS
 41
0.8
  0
TEXT
  5
184
  8
NOTES
  6
HIDDEN
 62
     8
 10
5.5555555555333331
 20
33.5
 30
0.0
 40
2.0
  1
-
 41
3.6666666666999999
  7
TEXTSTYLE_2
 72
     1
 11
8.0
 21
33.5
 31
0.0
  0
TEXT
  5
185
  8
NOTES
  6
CONTINUOUS
 62
     1
 10
16.800000000000001
 20
33.5
 30
0.0
 40
2.0
  1
UNIT HIDDEN
 41
0.8
  0
TEXT
  5
186
  8
NOTES
  6
CONTINUOUS
 62
     1
 10
159.6600298269
 20
103.2246058178
 30
0.0
 40
2.0
  1
2-1/2" (64) DIA.
 41
0.8
  0
TEXT
  5
187
  8
NOTES
  6
CONTINUOUS
 62
     1
 10
159.6600298269
 20
100.2246058178
 30
0.0
 40
2.0
  1
POWER
 41
0.8
  0
TEXT
  5
188
  8
NOTES
  6
CONTINUOUS
 62
     1
 10
159.6600298269
 20
97.224605817800011
 30
0.0
 40
2.0
  1
CONNECTION
 41
0.8
  0
LINE
  5
189
  8
NOTES
  6
CONTINUOUS
 62
     1
 10
144.45996131780001
 20
93.991499015599985
 30
0.0
 11
153.31002982690001
 21
104.2246058178
 31
0.0
  0
LINE
  5
18A
  8
NOTES
  6
CONTINUOUS
 62
     1
 10
153.31002982690001
 20
104.2246058178
 30
0.0
 11
159.6600298269
 21
104.2246058178
 31
0.0
  0
SOLID
  5
18B
  8
NOTES
  6
CONTINUOUS
 62
     1
 10
146.5092601039
 20
97.507586967500004
 30
0.0
 11
144.45996131780001
 21
93.991499015599985
 31
0.0
 12
147.64381506699999
 22
96.526370867099985
 32
0.0
 13
147.64381506699999
 23
96.526370867099985
 33
0.0
  0
LINE
  5
18C
  8
NOTES
  6
CONTINUOUS
 62
     1
 10
144.40781037470001
 20
84.543249760500004
 30
0.0
 11
153.31002982690001
 21
104.2246058178
 31
0.0
  0
LINE
  5
18D
  8
NOTES
  6
CONTINUOUS
 62
     1
 10
153.31002982690001
 20
104.2246058178
 30
0.0
 11
159.6600298269
 21
104.2246058178
 31
0.0
  0
SOLID
  5
18E
  8
NOTES
  6
CONTINUOUS
 62
     1
 10
145.372942274
 20
88.496858291600006
 30
0.0
 11
144.40781037470001
 21
84.543249760500004
 31
0.0
 12
146.7396367826
 22
87.878678608999977
 32
0.0
 13
146.7396367826
 23
87.878678608999977
 33
0.0
  0
LINE
  5
18F
  8
NOTES
  6
CONTINUOUS
 62
     1
 10
144.1623033587999
 20
66.199869321199984
 30
0.0
 11
153.31002982690001
 21
104.2246058178
 31
0.0
  0
LINE
  5
190
  8
NOTES
  6
CONTINUOUS
 62
     1
 10
153.31002982690001
 20
104.2246058178
 30
0.0
 11
159.6600298269
 21
104.2246058178
 31
0.0
  0
SOLID
  5
191
  8
NOTES
  6
CONTINUOUS
 62
     1
 10
144.3687066901
 20
70.264337018800006
 30
0.0
 11
144.1623033587999
 21
66.199869321199984
 31
0.0
 12
145.8270977807
 22
69.913487440099999
 32
0.0
 13
145.8270977807
 23
69.913487440099999
 33
0.0
  0
TEXT
  5
192
  8
NOTES
  6
CONTINUOUS
 62
     1
 10
101.3009257502333
 20
135.05802164510001
 30
0.0
 40
2.0
  1
7/8" (22) DIA.
 41
0.8
 72
     2
 11
119.9675924169
 21
135.05802164510001
 31
0.0
  0
TEXT
  5
193
  8
NOTES
  6
CONTINUOUS
 62
     1
 10
92.234259083566656
 20
132.05802164510001
 30
0.0
 40
2.0
  1
CONTROL CONNECTION
 41
0.8
 72
     2
 11
119.9675924169
 21
132.05802164510001
 31
0.0
  0
LINE
  5
194
  8
NOTES
  6
CONTINUOUS
 62
     1
 10
143.83103194719999
 20
76.909858507600006
 30
0.0
 11
126.3175924169
 21
136.05802164510001
 31
0.0
  0
LINE
  5
195
  8
NOTES
  6
CONTINUOUS
 62
     1
 10
126.3175924169
 20
136.05802164510001
 30
0.0
 11
119.9675924169
 21
136.05802164510001
 31
0.0
  0
SOLID
  5
196
  8
NOTES
  6
CONTINUOUS
 62
     1
 10
141.97625240619999
 20
80.532329053300003
 30
0.0
 11
143.83103194719999
 21
76.909858507600006
 31
0.0
 12
143.41452864819999
 22
80.958194585800015
 32
0.0
 13
143.41452864819999
 23
80.958194585800015
 33
0.0
  0
TEXT
  5
197
  8
NOTES
  6
CONTINUOUS
 62
     1
 10
98.247465798199997
 20
124.6957309977
 30
0.0
 40
2.0
  1
7/8" (22) DIA. 
 41
0.8
 72
     2
 11
119.04746579819999
 21
124.6957309977
 31
0.0
  0
TEXT
  5
198
  8
NOTES
  6
CONTINUOUS
 62
     1
 10
101.9807991315333
 20
121.6957309977
 30
0.0
 40
2.0
  1
CONVENIENCE
 41
0.8
 72
     2
 11
119.04746579819999
 21
121.6957309977
 31
0.0
  0
TEXT
  5
199
  8
NOTES
  6
CONTINUOUS
 62
     1
 10
92.914132464866654
 20
118.6957309977
 30
0.0
 40
2.0
  1
OUTLET CONNECTION
 41
0.8
 72
     2
 11
119.04746579819999
 21
118.6957309977
 31
0.0
  0
LINE
  5
19A
  8
NOTES
  6
CONTINUOUS
 62
     1
 10
143.83103194719999
 20
71.409858507600006
 30
0.0
 11
125.3974657982
 21
125.6957309977
 31
0.0
  0
LINE
  5
19B
  8
NOTES
  6
CONTINUOUS
 62
     1
 10
125.3974657982
 20
125.6957309977
 30
0.0
 11
119.04746579819999
 21
125.6957309977
 31
0.0
  0
SOLID
  5
19C
  8
NOTES
  6
CONTINUOUS
 62
     1
 10
141.8347252783
 20
74.956301751699996
 30
0.0
 11
143.83103194719999
 21
71.409858507600006
 31
0.0
 12
143.2550727178
 22
75.438601607700008
 32
0.0
 13
143.2550727178
 23
75.438601607700008
 33
0.0
  0
LINE
  5
19D
  8
0
  6
CONTINUOUS
 62
     7
 10
0.0
 20
0.0
 30
0.0
 11
0.0
 21
150.0
 31
0.0
  0
LINE
  5
19E
  8
SERVCLEAR
  6
DASHED
 62
     1
 10
13.824539011700001
 20
115.03070564799999
 30
0.0
 11
13.824539011700001
 21
57.659858507599992
 31
0.0
  0
LINE
  5
19F
  8
0
  6
CONTINUOUS
 62
     7
 10
0.0
 20
0.0
 30
0.0
 11
225.0
 21
0.0
 31
0.0
  0
LINE
  5
1A0
  8
SERVCLEAR
  6
DASHED
 62
     1
 10
55.824539011699997
 20
115.03070564799999
 30
0.0
 11
55.824539011699997
 21
57.659858507599992
 31
0.0
  0
LINE
  5
1A1
  8
UNIT-SOL
  6
CONTINUOUS
 62
     7
 10
85.560313195600003
 20
113.87443908829999
 30
0.0
 11
85.628657072199999
 21
113.9428002451
 31
0.0
  0
LINE
  5
1A2
  8
UNIT-SOL
  6
CONTINUOUS
 62
     7
 10
85.585657075399993
 20
113.8490952089
 30
0.0
 11
85.654000952000004
 21
113.9174563657
 31
0.0
  0
LINE
  5
1A3
  8
HOOD
  6
CONTINUOUS
 62
     7
 10
55.824539011699997
 20
83.719055668899983
 30
0.0
 11
55.934903490099998
 21
83.346914811899993
 31
0.0
  0
LINE
  5
1A4
  8
HOOD
  6
CONTINUOUS
 62
     7
 10
55.8609857967
 20
83.729864560999985
 30
0.0
 11
55.971350274999999
 21
83.357723704099996
 31
0.0
  0
LINE
  5
1A5
  8
HOOD
  6
CONTINUOUS
 62
     7
 10
56.282484187299993
 20
83.934171504700004
 30
0.0
 11
56.293293079499989
 21
83.897724719700008
 31
0.0
  0
POLYLINE
  5
1A6
  8
CURB-24
  6
CONTINUOUS
 62
     6
 66
     1
 10
0.0
 20
0.0
 30
0.0
 40
0.0098425194
 41
0.0098425194
  0
VERTEX
  5
29B
  8
CURB-24
  6
CONTINUOUS
 62
     6
 10
86.487998727299995
 20
36.661587754099997
 30
0.0
  0
VERTEX
  5
29C
  8
CURB-24
  6
CONTINUOUS
 62
     6
 10
146.55049872730001
 20
36.661587754099997
 30
0.0
  0
SEQEND
  5
29D
  8
CURB-24
  6
CONTINUOUS
 62
     6
  0
LINE
  5
1AA
  8
UNIT-SOL
  6
CONTINUOUS
 62
     7
 10
84.909116865699986
 20
58.8683869057
 30
0.0
 11
84.857110077000002
 21
58.933710005400002
 31
0.0
  0
LINE
  5
1AB
  8
HOOD
  6
CONTINUOUS
 62
     7
 10
75.851394445099999
 20
61.717796553199989
 30
0.0
 11
60.886965205000003
 21
84.319875740299992
 31
0.0
  0
LINE
  5
1AC
  8
UNIT-SOL
  6
CONTINUOUS
 62
     7
 10
84.832465507500004
 20
59.0344451932
 30
0.0
 11
84.832465507500004
 21
60.042738005499999
 31
0.0
  0
LINE
  5
1AD
  8
UNIT-SOL
  6
CONTINUOUS
 62
     7
 10
84.950624821399984
 20
57.864667985099999
 30
0.0
 11
84.950624821399984
 21
58.7784636453
 31
0.0
  0
LINE
  5
1AE
  8
UNIT-SOL
  6
CONTINUOUS
 62
     7
 10
84.950624821399984
 20
60.298719553299989
 30
0.0
 11
84.950624821399984
 21
61.212515213499998
 31
0.0
  0
LINE
  5
1AF
  8
UNIT-SOL
  6
CONTINUOUS
 62
     7
 10
85.290529781199993
 20
61.443319740100002
 30
0.0
 11
85.290529781199993
 21
61.413386047199999
 31
0.0
  0
LINE
  5
1B0
  8
UNIT-SOL
  6
CONTINUOUS
 62
     7
 10
85.663265033900004
 20
114.0263725224
 30
0.0
 11
85.663265033999991
 21
114.8767261544
 31
0.0
  0
LINE
  5
1B1
  8
UNIT-SOL
  6
CONTINUOUS
 62
     7
 10
85.728252732599984
 20
113.9971596155
 30
0.0
 11
85.728252724599983
 21
61.443319740100002
 31
0.0
  0
LINE
  5
1B2
  8
UNIT-SOL
  6
CONTINUOUS
 62
     7
 10
87.580063421000006
 20
61.413386047199999
 30
0.0
 11
87.580063421000006
 21
57.659858507599992
 31
0.0
  0
POLYLINE
  5
1B3
  8
CURB-14
  6
DOT
 62
     6
 66
     1
 10
0.0
 20
0.0
 30
0.0
 40
0.0098425194
 41
0.0098425194
  0
VERTEX
  5
29E
  8
CURB-14
  6
DOT
 62
     6
 10
87.737998727299995
 20
59.514055342500001
 30
0.0
  0
VERTEX
  5
29F
  8
CURB-14
  6
DOT
 62
     6
 10
87.737998727299995
 20
60.659858507599999
 30
0.0
  0
SEQEND
  5
2A0
  8
CURB-14
  6
DOT
 62
     6
  0
POLYLINE
  5
1B7
  8
CURB-24
  6
DOT
 62
     6
 66
     1
 10
0.0
 20
0.0
 30
0.0
 40
0.0098425194
 41
0.0098425194
  0
VERTEX
  5
2A1
  8
CURB-24
  6
DOT
 62
     6
 10
87.737998727299995
 20
59.514055342500001
 30
0.0
  0
VERTEX
  5
2A2
  8
CURB-24
  6
DOT
 62
     6
 10
87.737998727299995
 20
60.659858507599999
 30
0.0
  0
SEQEND
  5
2A3
  8
CURB-24
  6
DOT
 62
     6
  0
POLYLINE
  5
1BB
  8
CURB-24
  6
CONTINUOUS
 62
     6
 66
     1
 10
0.0
 20
0.0
 30
0.0
 40
0.0118110236
 41
0.0118110236
  0
VERTEX
  5
2A4
  8
CURB-24
  6
CONTINUOUS
 62
     6
 10
89.487998727299995
 20
57.659858507599992
 30
0.0
  0
VERTEX
  5
2A5
  8
CURB-24
  6
CONTINUOUS
 62
     6
 10
89.487998727299995
 20
36.661587754099997
 30
0.0
  0
SEQEND
  5
2A6
  8
CURB-24
  6
CONTINUOUS
 62
     6
  0
POLYLINE
  5
1BF
  8
CURB-14
  6
CONTINUOUS
 62
     6
 66
     1
 10
0.0
 20
0.0
 30
0.0
 40
0.0118110236
 41
0.0118110236
  0
VERTEX
  5
2A7
  8
CURB-14
  6
CONTINUOUS
 62
     6
 10
89.487998727299995
 20
57.659858507599992
 30
0.0
  0
VERTEX
  5
2A8
  8
CURB-14
  6
CONTINUOUS
 62
     6
 10
89.487998727299995
 20
46.659858507599999
 30
0.0
  0
SEQEND
  5
2A9
  8
CURB-14
  6
CONTINUOUS
 62
     6
  0
POLYLINE
  5
1C3
  8
CURB-14
  6
DOT
 62
     6
 66
     1
 10
0.0
 20
0.0
 30
0.0
 40
0.0098425194
 41
0.0098425194
  0
VERTEX
  5
2AA
  8
CURB-14
  6
DOT
 62
     6
 10
89.487998727299995
 20
57.659858507599992
 30
0.0
  0
VERTEX
  5
2AB
  8
CURB-14
  6
DOT
 62
     6
 10
89.487998727299995
 20
59.512577170900002
 30
0.0
  0
SEQEND
  5
2AC
  8
CURB-14
  6
DOT
 62
     6
  0
POLYLINE
  5
1C7
  8
CURB-24
  6
DOT
 62
     6
 66
     1
 10
0.0
 20
0.0
 30
0.0
 40
0.0098425194
 41
0.0098425194
  0
VERTEX
  5
2AD
  8
CURB-24
  6
DOT
 62
     6
 10
89.487998727299995
 20
57.659858507599992
 30
0.0
  0
VERTEX
  5
2AE
  8
CURB-24
  6
DOT
 62
     6
 10
89.487998727299995
 20
59.512577170900002
 30
0.0
  0
SEQEND
  5
2AF
  8
CURB-24
  6
DOT
 62
     6
  0
LINE
  5
1CB
  8
UNIT-SOL
  6
CONTINUOUS
 62
     7
 10
85.060512983400002
 20
57.8477318168
 30
0.0
 11
85.060521245399997
 21
57.864667985099999
 31
0.0
  0
LINE
  5
1CC
  8
HOOD
  6
CONTINUOUS
 62
     7
 10
56.282484187299993
 20
83.934171504700004
 30
0.0
 11
55.8758147972
 21
83.813567023199994
 31
0.0
  0
LINE
  5
1CD
  8
HOOD
  6
CONTINUOUS
 62
     7
 10
55.88662368939999
 20
83.777120238199998
 30
0.0
 11
56.293293079499989
 21
83.897724719700008
 31
0.0
  0
LINE
  5
1CE
  8
HOOD
  6
CONTINUOUS
 62
     7
 10
56.018605952199998
 20
83.332085811300004
 30
0.0
 11
85.728252724599983
 21
92.142969128000004
 31
0.0
  0
LINE
  5
1CF
  8
HOOD
  6
CONTINUOUS
 62
     7
 10
56.029414844399987
 20
83.295639026399996
 30
0.0
 11
56.688813914399987
 21
83.491194641999996
 31
0.0
  0
LINE
  5
1D0
  8
HOOD
  6
CONTINUOUS
 62
     7
 10
60.886965205000003
 20
84.319875740299992
 30
0.0
 11
57.184998524699992
 21
83.2219967682
 31
0.0
  0
POLYLINE
  5
1D1
  8
CURB-14
  6
CONTINUOUS
 62
     6
 66
     1
 10
0.0
 20
0.0
 30
0.0
 40
0.0098425194
 41
0.0098425194
  0
VERTEX
  5
2B0
  8
CURB-14
  6
CONTINUOUS
 62
     6
 10
86.487998727299995
 20
46.659858507599999
 30
0.0
  0
VERTEX
  5
2B1
  8
CURB-14
  6
CONTINUOUS
 62
     6
 10
146.55049872730001
 20
46.659858507599999
 30
0.0
  0
SEQEND
  5
2B2
  8
CURB-14
  6
CONTINUOUS
 62
     6
  0
LINE
  5
1D5
  8
UNIT-SOL
  6
CONTINUOUS
 62
     7
 10
147.7901111621
 20
57.659858507599992
 30
0.0
 11
87.580063421000006
 21
57.659858507599992
 31
0.0
  0
LINE
  5
1D6
  8
SERVCLEAR
  6
DASHED
 62
     1
 10
13.824539011700001
 20
57.659858507599992
 30
0.0
 11
55.824539011699997
 21
57.659858507599992
 31
0.0
  0
LINE
  5
1D7
  8
UNIT-SOL
  6
CONTINUOUS
 62
     7
 10
85.248386292500001
 20
57.659858507599992
 30
0.0
 11
87.397310348800005
 21
57.659858507599992
 31
0.0
  0
LINE
  5
1D8
  8
SERVCLEAR
  6
DASHED
 62
     1
 10
150.35652850049999
 20
57.659858507999992
 30
0.0
 11
198.35652850049991
 21
57.659858507999992
 31
0.0
  0
LINE
  5
1D9
  8
UNIT-SOL
  6
CONTINUOUS
 62
     7
 10
87.585183657900004
 20
57.864667985099999
 30
0.0
 11
84.950624821399984
 21
57.864667985099999
 31
0.0
  0
LINE
  5
1DA
  8
UNIT-SOL
  6
CONTINUOUS
 62
     7
 10
145.4584340337
 20
57.864667985099999
 30
0.0
 11
148.08787263330001
 21
57.864667985099999
 31
0.0
  0
POLYLINE
  5
1DB
  8
CURB-14
  6
DOT
 62
     6
 66
     1
 10
0.0
 20
0.0
 30
0.0
 40
0.0098425194
 41
0.0098425194
  0
VERTEX
  5
2B3
  8
CURB-14
  6
DOT
 62
     6
 10
145.30049872730001
 20
59.409858507599999
 30
0.0
  0
VERTEX
  5
2B4
  8
CURB-14
  6
DOT
 62
     6
 10
87.737998727299995
 20
59.514055342500001
 30
0.0
  0
SEQEND
  5
2B5
  8
CURB-14
  6
DOT
 62
     6
  0
POLYLINE
  5
1DF
  8
CURB-24
  6
DOT
 62
     6
 66
     1
 10
0.0
 20
0.0
 30
0.0
 40
0.0098425194
 41
0.0098425194
  0
VERTEX
  5
2B6
  8
CURB-24
  6
DOT
 62
     6
 10
145.30049872730001
 20
59.409858507599999
 30
0.0
  0
VERTEX
  5
2B7
  8
CURB-24
  6
DOT
 62
     6
 10
87.737998727299995
 20
59.514055342500001
 30
0.0
  0
SEQEND
  5
2B8
  8
CURB-24
  6
DOT
 62
     6
  0
LINE
  5
1E3
  8
HOOD
  6
CONTINUOUS
 62
     7
 10
57.184998524699992
 20
83.2219967682
 30
0.0
 11
56.688813914399987
 21
83.491194641999996
 31
0.0
  0
LINE
  5
1E4
  8
UNIT-SOL
  6
CONTINUOUS
 62
     7
 10
84.857110077000002
 20
60.14347319329999
 30
0.0
 11
84.875344313699983
 21
60.167389889799992
 31
0.0
  0
LINE
  5
1E5
  8
UNIT-SOL
  6
CONTINUOUS
 62
     7
 10
84.875344313699983
 20
60.167389889799992
 30
0.0
 11
84.909116865699986
 21
60.208796292999999
 31
0.0
  0
LINE
  5
1E6
  8
UNIT-SOL
  6
CONTINUOUS
 62
     7
 10
147.1242274839999
 20
113.8491537421
 30
0.0
 11
147.34092275090001
 21
114.002353074
 31
0.0
  0
POLYLINE
  5
1E7
  8
CURB-14
  6
DOT
 62
     6
 66
     1
 10
0.0
 20
0.0
 30
0.0
 40
0.0098425194
 41
0.0098425194
  0
VERTEX
  5
2B9
  8
CURB-14
  6
DOT
 62
     6
 10
87.737998727299995
 20
60.659858507599999
 30
0.0
  0
VERTEX
  5
2BA
  8
CURB-14
  6
DOT
 62
     6
 10
145.30049872730001
 20
60.659858507599999
 30
0.0
  0
SEQEND
  5
2BB
  8
CURB-14
  6
DOT
 62
     6
  0
POLYLINE
  5
1EB
  8
CURB-24
  6
DOT
 62
     6
 66
     1
 10
0.0
 20
0.0
 30
0.0
 40
0.0098425194
 41
0.0098425194
  0
VERTEX
  5
2BC
  8
CURB-24
  6
DOT
 62
     6
 10
87.737998727299995
 20
60.659858507599999
 30
0.0
  0
VERTEX
  5
2BD
  8
CURB-24
  6
DOT
 62
     6
 10
145.30049872730001
 20
60.659858507599999
 30
0.0
  0
SEQEND
  5
2BE
  8
CURB-24
  6
DOT
 62
     6
  0
LINE
  5
1EF
  8
UNIT-SOL
  6
CONTINUOUS
 62
     7
 10
87.585183657900004
 20
61.212515213499998
 30
0.0
 11
84.950624821399984
 21
61.212515213499998
 31
0.0
  0
LINE
  5
1F0
  8
UNIT-SOL
  6
CONTINUOUS
 62
     7
 10
145.4584340337
 20
61.212515213499998
 30
0.0
 11
148.08787263330001
 21
61.212515213499998
 31
0.0
  0
LINE
  5
1F1
  8
UNIT-SOL
  6
CONTINUOUS
 62
     7
 10
85.706450566200004
 20
61.351549339599998
 30
0.0
 11
85.248386292500001
 21
61.351549339599998
 31
0.0
  0
LINE
  5
1F2
  8
UNIT-SOL
  6
CONTINUOUS
 62
     7
 10
147.33204688839999
 20
61.351549339599998
 30
0.0
 11
147.7901111621
 21
61.351549339599998
 31
0.0
  0
LINE
  5
1F3
  8
UNIT-SOL
  6
CONTINUOUS
 62
     7
 10
85.845774488700002
 20
61.413386047199999
 30
0.0
 11
85.248386292500001
 21
61.413386047199999
 31
0.0
  0
LINE
  5
1F4
  8
UNIT-SOL
  6
CONTINUOUS
 62
     7
 10
87.580063421000006
 20
61.413386047199999
 30
0.0
 11
145.4584340337
 21
61.413386047199999
 31
0.0
  0
LINE
  5
1F5
  8
UNIT-SOL
  6
CONTINUOUS
 62
     7
 10
147.33204688839999
 20
61.413386047199999
 30
0.0
 11
147.85116014100001
 21
61.413386047199999
 31
0.0
  0
LINE
  5
1F6
  8
UNIT-SOL
  6
CONTINUOUS
 62
     7
 10
85.728252724599983
 20
61.442780718000002
 30
0.0
 11
147.08365760780001
 21
61.442805284799988
 31
0.0
  0
LINE
  5
1F7
  8
UNIT-SOL
  6
CONTINUOUS
 62
     7
 10
85.728252724599983
 20
61.443319740100002
 30
0.0
 11
85.290529781199993
 21
61.443319740100002
 31
0.0
  0
LINE
  5
1F8
  8
UNIT-SOL
  6
CONTINUOUS
 62
     7
 10
147.85116014100001
 20
61.451275800499999
 30
0.0
 11
147.43117467549999
 21
61.451275800499999
 31
0.0
  0
LINE
  5
1F9
  8
HOOD
  6
CONTINUOUS
 62
     7
 10
85.728252724599983
 20
61.717796553199989
 30
0.0
 11
75.851394445099999
 21
61.717796553199989
 31
0.0
  0
LINE
  5
1FA
  8
UNIT-SOL
  6
CONTINUOUS
 62
     7
 10
147.2511484975
 20
61.442775479799991
 30
0.0
 11
147.08365760780001
 21
61.442805284799988
 31
0.0
  0
LINE
  5
1FB
  8
UNIT-SOL
  6
CONTINUOUS
 62
     7
 10
147.47783341920001
 20
113.87443920769999
 30
0.0
 11
147.45248953940001
 21
113.8490953283
 31
0.0
  0
LINE
  5
1FC
  8
UNIT-SOL
  6
CONTINUOUS
 62
     7
 10
149.52277376550001
 20
71.275284133599996
 30
0.0
 11
147.369148913
 21
71.275284133300005
 31
0.0
  0
LINE
  5
1FD
  8
UNIT-SOL
  6
CONTINUOUS
 62
     7
 10
147.36914891250001
 20
74.593844452100001
 30
0.0
 11
150.35652850049999
 21
74.593844452599996
 31
0.0
  0
LINE
  5
1FE
  8
UNIT-SOL
  6
CONTINUOUS
 62
     7
 10
85.560313195600003
 20
113.87443908829999
 30
0.0
 11
85.585657075399993
 21
113.8490952089
 31
0.0
  0
LINE
  5
1FF
  8
UNIT-SOL
  6
CONTINUOUS
 62
     7
 10
85.699106732199994
 20
114.026305616
 30
0.0
 11
85.876258606000007
 21
113.8491537421
 31
0.0
  0
LINE
  5
200
  8
UNIT-SOL
  6
CONTINUOUS
 62
     7
 10
148.12938058899999
 20
60.208796292999999
 30
0.0
 11
148.1631531312
 21
60.167389899500002
 31
0.0
  0
LINE
  5
201
  8
UNIT-SOL
  6
CONTINUOUS
 62
     7
 10
148.1631531312
 20
60.167389899500002
 30
0.0
 11
148.18138737769999
 21
60.14347319329999
 31
0.0
  0
POLYLINE
  5
202
  8
CURB-24
  6
CONTINUOUS
 62
     6
 66
     1
 10
0.0
 20
0.0
 30
0.0
 40
0.0118110236
 41
0.0118110236
  0
VERTEX
  5
2BF
  8
CURB-24
  6
CONTINUOUS
 62
     6
 10
143.55049872730001
 20
57.659858507599992
 30
0.0
  0
VERTEX
  5
2C0
  8
CURB-24
  6
CONTINUOUS
 62
     6
 10
143.55049872730001
 20
36.661587754099997
 30
0.0
  0
SEQEND
  5
2C1
  8
CURB-24
  6
CONTINUOUS
 62
     6
  0
POLYLINE
  5
206
  8
CURB-14
  6
CONTINUOUS
 62
     6
 66
     1
 10
0.0
 20
0.0
 30
0.0
 40
0.0118110236
 41
0.0118110236
  0
VERTEX
  5
2C2
  8
CURB-14
  6
CONTINUOUS
 62
     6
 10
143.55049872730001
 20
57.659858507599992
 30
0.0
  0
VERTEX
  5
2C3
  8
CURB-14
  6
CONTINUOUS
 62
     6
 10
143.55049872730001
 20
46.659858507599999
 30
0.0
  0
SEQEND
  5
2C4
  8
CURB-14
  6
CONTINUOUS
 62
     6
  0
POLYLINE
  5
20A
  8
CURB-14
  6
DOT
 62
     6
 66
     1
 10
0.0
 20
0.0
 30
0.0
 40
0.0098425194
 41
0.0098425194
  0
VERTEX
  5
2C5
  8
CURB-14
  6
DOT
 62
     6
 10
143.55049872730001
 20
57.659858507599992
 30
0.0
  0
VERTEX
  5
2C6
  8
CURB-14
  6
DOT
 62
     6
 10
143.55049872730001
 20
59.411527564499998
 30
0.0
  0
SEQEND
  5
2C7
  8
CURB-14
  6
DOT
 62
     6
  0
POLYLINE
  5
20E
  8
CURB-24
  6
DOT
 62
     6
 66
     1
 10
0.0
 20
0.0
 30
0.0
 40
0.0098425194
 41
0.0098425194
  0
VERTEX
  5
2C8
  8
CURB-24
  6
DOT
 62
     6
 10
143.55049872730001
 20
57.659858507599992
 30
0.0
  0
VERTEX
  5
2C9
  8
CURB-24
  6
DOT
 62
     6
 10
143.55049872730001
 20
59.411527564499998
 30
0.0
  0
SEQEND
  5
2CA
  8
CURB-24
  6
DOT
 62
     6
  0
POLYLINE
  5
212
  8
CURB-14
  6
DOT
 62
     6
 66
     1
 10
0.0
 20
0.0
 30
0.0
 40
0.0098425194
 41
0.0098425194
  0
VERTEX
  5
2CB
  8
CURB-14
  6
DOT
 62
     6
 10
145.30049872730001
 20
60.659858507599999
 30
0.0
  0
VERTEX
  5
2CC
  8
CURB-14
  6
DOT
 62
     6
 10
145.30049872730001
 20
59.409858507599999
 30
0.0
  0
SEQEND
  5
2CD
  8
CURB-14
  6
DOT
 62
     6
  0
POLYLINE
  5
216
  8
CURB-24
  6
DOT
 62
     6
 66
     1
 10
0.0
 20
0.0
 30
0.0
 40
0.0098425194
 41
0.0098425194
  0
VERTEX
  5
2CE
  8
CURB-24
  6
DOT
 62
     6
 10
145.30049872730001
 20
60.659858507599999
 30
0.0
  0
VERTEX
  5
2CF
  8
CURB-24
  6
DOT
 62
     6
 10
145.30049872730001
 20
59.409858507599999
 30
0.0
  0
SEQEND
  5
2D0
  8
CURB-24
  6
DOT
 62
     6
  0
LINE
  5
21A
  8
UNIT-SOL
  6
CONTINUOUS
 62
     7
 10
145.4584340337
 20
61.413386047199999
 30
0.0
 11
145.4584340337
 21
57.659858507599992
 31
0.0
  0
LINE
  5
21B
  8
UNIT-SOL
  6
CONTINUOUS
 62
     7
 10
147.369148913
 20
113.93489002139999
 30
0.0
 11
147.369148913
 21
61.513301563100008
 31
0.0
  0
LINE
  5
21C
  8
UNIT-SOL
  6
CONTINUOUS
 62
     7
 10
147.37488133670001
 20
114.8767257044
 30
0.0
 11
147.37488133639999
 21
114.02637252229999
 31
0.0
  0
LINE
  5
21D
  8
UNIT-SOL
  6
CONTINUOUS
 62
     7
 10
147.43117467549999
 20
61.413386047199999
 30
0.0
 11
147.43117467549999
 21
61.451275800499999
 31
0.0
  0
LINE
  5
21E
  8
UNIT-SOL
  6
CONTINUOUS
 62
     7
 10
147.85116014100001
 20
61.451275800499999
 30
0.0
 11
147.85116014100001
 21
61.413386047199999
 31
0.0
  0
LINE
  5
21F
  8
UNIT-SOL
  6
CONTINUOUS
 62
     7
 10
148.08787263330001
 20
61.212515213499998
 30
0.0
 11
148.08787263330001
 21
60.298719553299989
 31
0.0
  0
LINE
  5
220
  8
UNIT-SOL
  6
CONTINUOUS
 62
     7
 10
148.08787263330001
 20
58.7784636453
 30
0.0
 11
148.08787263330001
 21
57.864667985099999
 31
0.0
  0
LINE
  5
221
  8
UNIT-SOL
  6
CONTINUOUS
 62
     7
 10
148.20603194719999
 20
60.042738005499999
 30
0.0
 11
148.20603194719999
 21
59.0344451932
 31
0.0
  0
LINE
  5
222
  8
SERVCLEAR
  6
DASHED
 62
     1
 10
150.35652850049999
 20
115.0307056483
 30
0.0
 11
150.35652850049999
 21
57.659858507999992
 31
0.0
  0
LINE
  5
223
  8
UNIT-SOL
  6
CONTINUOUS
 62
     7
 10
150.35652850049999
 20
74.593844452599996
 30
0.0
 11
149.52277376550001
 21
71.275284133599996
 31
0.0
  0
LINE
  5
224
  8
UNIT-SOL
  6
CONTINUOUS
 62
     7
 10
148.18138737769999
 20
58.933710005400002
 30
0.0
 11
148.12938058899999
 21
58.8683869057
 31
0.0
  0
LINE
  5
225
  8
UNIT-SOL
  6
CONTINUOUS
 62
     7
 10
147.1242274839999
 20
113.8491537421
 30
0.0
 11
85.876258606000007
 21
113.8491537421
 31
0.0
  0
LINE
  5
226
  8
UNIT-SOL
  6
CONTINUOUS
 62
     7
 10
147.2208804643
 20
115.03070564799999
 30
0.0
 11
85.817266106600002
 21
115.03070564799999
 31
0.0
  0
LINE
  5
227
  8
SERVCLEAR
  6
DASHED
 62
     1
 10
13.824539011700001
 20
115.03070564799999
 30
0.0
 11
55.824539011699997
 21
115.03070564799999
 31
0.0
  0
LINE
  5
228
  8
SERVCLEAR
  6
DASHED
 62
     1
 10
150.35652850049999
 20
115.0307056483
 30
0.0
 11
198.35652850049991
 21
115.0307056483
 31
0.0
  0
LINE
  5
229
  8
UNIT-SOL
  6
CONTINUOUS
 62
     7
 10
147.38414561850001
 20
113.9174563657
 30
0.0
 11
147.45248953940001
 21
113.8490953283
 31
0.0
  0
LINE
  5
22A
  8
UNIT-SOL
  6
CONTINUOUS
 62
     7
 10
147.40948949829999
 20
113.9428002451
 30
0.0
 11
147.47783341920001
 21
113.87443920769999
 31
0.0
  0
LINE
  5
22B
  8
0
  6
CONTINUOUS
 62
     7
 10
0.0
 20
150.0
 30
0.0
 11
225.0
 21
150.0
 31
0.0
  0
LINE
  5
22C
  8
SERVCLEAR
  6
DASHED
 62
     1
 10
198.35652850049991
 20
114.81104463139999
 30
0.0
 11
198.35652850049991
 21
57.659858507999992
 31
0.0
  0
LINE
  5
22D
  8
0
  6
CONTINUOUS
 62
     7
 10
225.0
 20
0.0
 30
0.0
 11
225.0
 21
150.0
 31
0.0
  0
CIRCLE
  5
22E
  8
UNIT-SOL
  6
CONTINUOUS
 62
     7
 10
143.83103194719999
 20
65.409858507600006
 30
0.0
 40
0.8566550260999999
  0
CIRCLE
  5
22F
  8
UNIT-SOL
  6
CONTINUOUS
 62
     7
 10
143.83103194719999
 20
83.909858507600006
 30
0.0
 40
0.8566550260999999
  0
CIRCLE
  5
230
  8
UNIT-SOL
  6
CONTINUOUS
 62
     7
 10
143.83103194719999
 20
93.409858507600006
 30
0.0
 40
0.8566550260999999
  0
CIRCLE
  5
231
  8
UNIT-SOL
  6
CONTINUOUS
 62
     7
 10
143.83103194719999
 20
71.409858507600006
 30
0.0
 40
0.428327513
  0
CIRCLE
  5
232
  8
UNIT-SOL
  6
CONTINUOUS
 62
     7
 10
143.83103194719999
 20
76.909858507600006
 30
0.0
 40
0.428327513
  0
ARC
  5
233
  8
UNIT-SOL
  6
CONTINUOUS
 62
     7
 10
85.050666373899986
 20
59.0344451932
 30
0.0
 40
0.2182008664
 50
180.0
 51
207.4944466956
  0
ARC
  5
234
  8
UNIT-SOL
  6
CONTINUOUS
 62
     7
 10
85.050666373899986
 20
60.042738005499999
 30
0.0
 40
0.2182008664
 50
152.5055533044
 51
180.0
  0
ARC
  5
235
  8
UNIT-SOL
  6
CONTINUOUS
 62
     7
 10
147.98783108079999
 20
59.0344451932
 30
0.0
 40
0.2182008664
 50
332.5055533044
 51
0.0
  0
ARC
  5
236
  8
UNIT-SOL
  6
CONTINUOUS
 62
     7
 10
147.98783108079999
 20
60.042738005499999
 30
0.0
 40
0.2182008664
 50
0.0
 51
27.494446695600001
  0
ARC
  5
237
  8
UNIT-SOL
  6
CONTINUOUS
 62
     7
 10
85.248386292500001
 20
57.8477318168
 30
0.0
 40
0.1878733092
 50
180.0
 51
270.0
  0
ARC
  5
238
  8
UNIT-SOL
  6
CONTINUOUS
 62
     7
 10
85.248386292500001
 20
61.225512737999999
 30
0.0
 40
0.1878733092
 50
90.0
 51
180.0
  0
ARC
  5
239
  8
UNIT-SOL
  6
CONTINUOUS
 62
     7
 10
85.706450566200004
 20
61.539422648699997
 30
0.0
 40
0.1878733092
 50
270.0
 51
328.69259537239998
  0
ARC
  5
23A
  8
UNIT-SOL
  6
CONTINUOUS
 62
     7
 10
147.7901111621
 20
57.8477318168
 30
0.0
 40
0.1878733092
 50
270.0
 51
0.0
  0
ARC
  5
23B
  8
UNIT-SOL
  6
CONTINUOUS
 62
     7
 10
147.7901111621
 20
61.225512737999999
 30
0.0
 40
0.1878733092
 50
0.0
 51
90.0
  0
ARC
  5
23C
  8
UNIT-SOL
  6
CONTINUOUS
 62
     7
 10
147.33204688839999
 20
61.539422648699997
 30
0.0
 40
0.1878733092
 50
211.30740465240001
 51
270.0
  0
ARC
  5
23D
  8
UNIT-SOL
  6
CONTINUOUS
 62
     7
 10
85.817266056600005
 20
114.87671519120001
 30
0.0
 40
0.1540009725
 50
89.969656092500003
 51
185.7194788454
  0
ARC
  5
23E
  8
UNIT-SOL
  6
CONTINUOUS
 62
     7
 10
85.545105770000006
 20
114.0263620092
 30
0.0
 40
0.1540009725
 50
311.23682593989997
 51
0.0039114266
  0
ARC
  5
23F
  8
UNIT-SOL
  6
CONTINUOUS
 62
     7
 10
147.2208804142
 20
114.87671519120001
 30
0.0
 40
0.1540009725
 50
354.28577249410012
 51
89.96965609690001
  0
ARC
  5
240
  8
UNIT-SOL
  6
CONTINUOUS
 62
     7
 10
147.4930407004
 20
114.0263620091
 30
0.0
 40
0.1540009725
 50
188.9690661418
 51
228.80145465090001
  0
ARC
  5
241
  8
UNIT-SOL
  6
CONTINUOUS
 62
     7
 10
85.248386292500001
 20
61.225512737999999
 30
0.0
 40
0.1260366015
 50
90.0
 51
180.0
  0
ARC
  5
242
  8
UNIT-SOL
  6
CONTINUOUS
 62
     7
 10
147.7901111621
 20
61.225512737999999
 30
0.0
 40
0.1260366015
 50
0.0
 51
90.0
  0
ARC
  5
243
  8
UNIT-SOL
  6
CONTINUOUS
 62
     7
 10
147.33204688839999
 20
61.539422648699997
 30
0.0
 40
0.1260366015
 50
230.06902588739999
 51
270.0
  0
ARC
  5
244
  8
UNIT-SOL
  6
CONTINUOUS
 62
     7
 10
84.832465507500004
 20
58.7784636453
 30
0.0
 40
0.1181593139
 50
0.0
 51
49.555441791600003
  0
ARC
  5
245
  8
UNIT-SOL
  6
CONTINUOUS
 62
     7
 10
84.832465507500004
 20
60.298719553299989
 30
0.0
 40
0.1181593139
 50
310.4445582084
 51
0.0
  0
ARC
  5
246
  8
UNIT-SOL
  6
CONTINUOUS
 62
     7
 10
85.545105770000006
 20
114.0263620092
 30
0.0
 40
0.1181593139
 50
310.19653122130001
 51
0.0050978927
  0
ARC
  5
247
  8
UNIT-SOL
  6
CONTINUOUS
 62
     7
 10
148.20603194719999
 20
58.7784636453
 30
0.0
 40
0.1181593139
 50
130.4445582084
 51
180.0
  0
ARC
  5
248
  8
UNIT-SOL
  6
CONTINUOUS
 62
     7
 10
148.20603194719999
 20
60.298719553299989
 30
0.0
 40
0.1181593139
 50
180.0
 51
229.5554417916
  0
ARC
  5
249
  8
UNIT-SOL
  6
CONTINUOUS
 62
     7
 10
147.4930407004
 20
114.0263620091
 30
0.0
 40
0.1181593139
 50
179.99490210729999
 51
229.85308604709999
  0
ARC
  5
24A
  8
HOOD
  6
CONTINUOUS
 62
     7
 10
55.8974325816
 20
83.740673453300005
 30
0.0
 40
0.0760315799
 50
106.5185877258
 51
196.51858772590001
  0
ARC
  5
24B
  8
HOOD
  6
CONTINUOUS
 62
     7
 10
56.007797060000001
 20
83.3685325963
 30
0.0
 40
0.0760315799
 50
196.51858772579999
 51
286.51858772579999
  0
ARC
  5
24C
  8
UNIT-SOL
  6
CONTINUOUS
 62
     7
 10
147.43117467549999
 20
61.513301563100008
 30
0.0
 40
0.0620257625
 50
180.0
 51
270.0
  0
ARC
  5
24D
  8
HOOD
  6
CONTINUOUS
 62
     7
 10
56.007797060000001
 20
83.3685325963
 30
0.0
 40
0.0380157899
 50
196.51858772590001
 51
286.51858772579999
  0
ARC
  5
24E
  8
HOOD
  6
CONTINUOUS
 62
     7
 10
55.8974325816
 20
83.740673453300005
 30
0.0
 40
0.0380157899
 50
106.5185877258
 51
196.51858772599999
  0
ENDSEC
  0
EOF
