  0
SECTION
  2
HEADER
  9
$ACADVER
  1
AC1009
  9
$INSBASE
 10
0.0
 20
0.0
 30
0.0
  9
$EXTMIN
 10
0.0
 20
0.0
 30
0.0
  9
$EXTMAX
 10
225.0
 20
150.0
 30
0.0
  9
$LIMMIN
 10
0.0
 20
0.0
  9
$LIMMAX
 10
225.0
 20
150.0
  9
$ORTHOMODE
 70
     0
  9
$REGENMODE
 70
     1
  9
$FILLMODE
 70
     1
  9
$QTEXTMODE
 70
     0
  9
$MIRRTEXT
 70
     0
  9
$DRAGMODE
 70
     2
  9
$LTSCALE
 40
12.375
  9
$OSMODE
 70
    37
  9
$ATTMODE
 70
     1
  9
$TEXTSIZE
 40
0.2
  9
$TRACEWID
 40
0.05
  9
$TEXTSTYLE
  7
STANDARD
  9
$CLAYER
  8
0
  9
$CELTYPE
  6
BYLAYER
  9
$CECOLOR
 62
   256
  9
$DIMSCALE
 40
1.0
  9
$DIMASZ
 40
4.0
  9
$DIMEXO
 40
1.587499999999999
  9
$DIMDLI
 40
8.5500000000000007
  9
$DIMRND
 40
0.0
  9
$DIMDLE
 40
0.0
  9
$DIMEXE
 40
1.587499999999999
  9
$DIMTP
 40
0.03
  9
$DIMTM
 40
0.03
  9
$DIMTXT
 40
2.0
  9
$DIMCEN
 40
2.024999999999999
  9
$DIMTSZ
 40
0.0
  9
$DIMTOL
 70
     1
  9
$DIMLIM
 70
     0
  9
$DIMTIH
 70
     1
  9
$DIMTOH
 70
     1
  9
$DIMSE1
 70
     0
  9
$DIMSE2
 70
     0
  9
$DIMTAD
 70
     0
  9
$DIMZIN
 70
     0
  9
$DIMBLK
  1
_FILLED
  9
$DIMASO
 70
     1
  9
$DIMSHO
 70
     1
  9
$DIMPOST
  1

  9
$DIMAPOST
  1

  9
$DIMALT
 70
     0
  9
$DIMALTD
 70
     2
  9
$DIMALTF
 40
25.399999999999999
  9
$DIMLFAC
 40
1.0
  9
$DIMTOFL
 70
     0
  9
$DIMTVP
 40
0.0
  9
$DIMTIX
 70
     0
  9
$DIMSOXD
 70
     0
  9
$DIMSAH
 70
     0
  9
$DIMBLK1
  1

  9
$DIMBLK2
  1

  9
$DIMSTYLE
  2
STANDARD
  9
$DIMCLRD
 70
     0
  9
$DIMCLRE
 70
     0
  9
$DIMCLRT
 70
     0
  9
$DIMTFAC
 40
1.0
  9
$DIMGAP
 40
0.09
  9
$LUNITS
 70
     2
  9
$LUPREC
 70
     4
  9
$SKETCHINC
 40
0.1
  9
$FILLETRAD
 40
0.0
  9
$AUNITS
 70
     0
  9
$AUPREC
 70
     0
  9
$MENU
  1
.
  9
$ELEVATION
 40
0.0
  9
$PELEVATION
 40
0.0
  9
$THICKNESS
 40
0.0
  9
$LIMCHECK
 70
     0
  9
$BLIPMODE
 70
     0
  9
$CHAMFERA
 40
0.0
  9
$CHAMFERB
 40
0.0
  9
$SKPOLY
 70
     0
  9
$TDCREATE
 40
2456328.3368045492
  9
$TDUPDATE
 40
2456330.314770313
  9
$TDINDWG
 40
0.0006209722
  9
$TDUSRTIMER
 40
0.0006204282
  9
$USRTIMER
 70
     1
  9
$ANGBASE
 50
0.0
  9
$ANGDIR
 70
     0
  9
$PDMODE
 70
     3
  9
$PDSIZE
 40
7.9375
  9
$PLINEWID
 40
0.0
  9
$COORDS
 70
     1
  9
$SPLFRAME
 70
     0
  9
$SPLINETYPE
 70
     6
  9
$SPLINESEGS
 70
     8
  9
$ATTDIA
 70
     0
  9
$ATTREQ
 70
     1
  9
$HANDLING
 70
     1
  9
$HANDSEED
  5
7C5
  9
$SURFTAB1
 70
     6
  9
$SURFTAB2
 70
     6
  9
$SURFTYPE
 70
     6
  9
$SURFU
 70
     6
  9
$SURFV
 70
     6
  9
$UCSNAME
  2

  9
$UCSORG
 10
0.0
 20
0.0
 30
0.0
  9
$UCSXDIR
 10
1.0
 20
0.0
 30
0.0
  9
$UCSYDIR
 10
0.0
 20
1.0
 30
0.0
  9
$PUCSNAME
  2

  9
$PUCSORG
 10
0.0
 20
0.0
 30
0.0
  9
$PUCSXDIR
 10
1.0
 20
0.0
 30
0.0
  9
$PUCSYDIR
 10
0.0
 20
1.0
 30
0.0
  9
$USERI1
 70
     0
  9
$USERI2
 70
     0
  9
$USERI3
 70
     0
  9
$USERI4
 70
     0
  9
$USERI5
 70
     0
  9
$USERR1
 40
0.0
  9
$USERR2
 40
0.0
  9
$USERR3
 40
0.0
  9
$USERR4
 40
0.0
  9
$USERR5
 40
0.0
  9
$WORLDVIEW
 70
     1
  9
$SHADEDGE
 70
     3
  9
$SHADEDIF
 70
    70
  9
$TILEMODE
 70
     1
  9
$MAXACTVP
 70
    64
  9
$PLIMCHECK
 70
     0
  9
$PEXTMIN
 10
1.0000000000000000E+020
 20
1.0000000000000000E+020
 30
1.0000000000000000E+020
  9
$PEXTMAX
 10
-1.0000000000000000E+020
 20
-1.0000000000000000E+020
 30
-1.0000000000000000E+020
  9
$PLIMMIN
 10
0.0
 20
0.0
  9
$PLIMMAX
 10
12.0
 20
9.0
  9
$UNITMODE
 70
     0
  9
$VISRETAIN
 70
     1
  9
$PLINEGEN
 70
     0
  9
$PSLTSCALE
 70
     1
  0
ENDSEC
  0
SECTION
  2
TABLES
  0
TABLE
  2
VPORT
 70
     1
  0
VPORT
  2
*ACTIVE
 70
     0
 10
0.0
 20
0.0
 11
1.0
 21
1.0
 12
112.50000052386891
 22
92.892220899919366
 13
0.0
 23
0.0
 14
1.0
 24
1.0
 15
0.0
 25
0.0
 16
0.0
 26
0.0
 36
1.0
 17
0.0
 27
0.0
 37
0.0
 40
205.9778805188362
 41
1.1005586592178771
 42
50.0
 43
0.0
 44
0.0
 50
0.0
 51
0.0
 71
     0
 72
   100
 73
     1
 74
     1
 75
     0
 76
     0
 77
     0
 78
     0
  0
ENDTAB
  0
TABLE
  2
LTYPE
 70
     6
  0
LTYPE
  2
CONTINUOUS
 70
     0
  3
Solid line
 72
    65
 73
     0
 40
0.0
  0
LTYPE
  2
CENTER
 70
     0
  3
____ _ ____ _ ____ _ ____ _ ____ _ ____ _ ____
 72
    65
 73
     4
 40
0.6
 49
0.375
 49
-0.075
 49
0.075
 49
-0.075
  0
LTYPE
  2
HIDDEN
 70
     0
  3
- - - - - - - - - - - - - - - - - - - -
 72
    65
 73
     2
 40
0.2
 49
0.1
 49
-0.1
  0
LTYPE
  2
PHANTOM
 70
     0
  3
_____ _ _ _____ _ _ _____ _ _ _____
 72
    65
 73
     6
 40
0.8
 49
0.45
 49
-0.05
 49
0.1
 49
-0.05
 49
0.1
 49
-0.05
  0
LTYPE
  2
DOT
 70
     0
  3
. . . . . . . . . . . . . . . . . . . .
 72
    65
 73
     2
 40
0.2
 49
0.1
 49
-0.1
  0
LTYPE
  2
DASHED
 70
     0
  3
- - - - - - - - - - - - - - - - - - - -
 72
    65
 73
     2
 40
0.2
 49
0.1
 49
-0.1
  0
ENDTAB
  0
TABLE
  2
LAYER
 70
    13
  0
LAYER
  2
0
 70
     0
 62
     7
  6
CONTINUOUS
  0
LAYER
  2
DEFAULT_1
 70
     0
 62
     7
  6
CENTER
  0
LAYER
  2
DEFAULT_2
 70
     0
 62
     8
  6
HIDDEN
  0
LAYER
  2
DEFAULT_3
 70
     0
 62
     7
  6
PHANTOM
  0
LAYER
  2
CURB-14
 70
     0
 62
     6
  6
CONTINUOUS
  0
LAYER
  2
CURB-14-DIM
 70
     0
 62
     6
  6
CONTINUOUS
  0
LAYER
  2
CURB-24
 70
     0
 62
     6
  6
CONTINUOUS
  0
LAYER
  2
CURB-24-DIM
 70
     0
 62
     6
  6
CONTINUOUS
  0
LAYER
  2
NOTES
 70
     0
 62
     1
  6
CONTINUOUS
  0
LAYER
  2
SERVCLEAR
 70
     0
 62
     1
  6
CONTINUOUS
  0
LAYER
  2
SERVCLRDIM
 70
     0
 62
     1
  6
CONTINUOUS
  0
LAYER
  2
UNIT-DIM
 70
     0
 62
     7
  6
CONTINUOUS
  0
LAYER
  2
UNIT-SOL
 70
     0
 62
     7
  6
CONTINUOUS
  0
ENDTAB
  0
TABLE
  2
STYLE
 70
     4
  0
STYLE
  2
STANDARD
 70
     0
 40
0.0
 41
0.8
 50
0.0
 71
     0
 42
0.2
  3
txt
  4

  0
STYLE
  2
ANNOTATIVE
 70
     0
 40
0.0
 41
1.0
 50
0.0
 71
     0
 42
0.2
  3
txt
  4

  0
STYLE
  2
TEXTSTYLE_1
 70
     0
 40
0.0
 41
0.8
 50
0.0
 71
     0
 42
0.2
  3
gdt
  4

  0
STYLE
  2
TEXTSTYLE_2
 70
     0
 40
0.0
 41
8.0
 50
0.0
 71
     0
 42
0.2
  3
txt
  4

  0
ENDTAB
  0
TABLE
  2
VIEW
 70
     0
  0
ENDTAB
  0
TABLE
  2
UCS
 70
     0
  0
ENDTAB
  0
TABLE
  2
APPID
 70
     4
  0
APPID
  2
ACAD
 70
     0
  0
APPID
  2
ACADANNOTATIVE
 70
     0
  0
APPID
  2
ACAD_NAV_VCDISPLAY
 70
     0
  0
APPID
  2
ACAD_MLEADERVER
 70
     0
  0
ENDTAB
  0
TABLE
  2
DIMSTYLE
 70
     7
  0
DIMSTYLE
  2
STANDARD
 70
     0
  3

  4

  5

  6

  7

 40
1.0
 41
4.0
 42
1.587499999999999
 43
0.38
 44
1.587499999999999
 45
0.0
 46
0.0
 47
0.03
 48
0.03
140
2.0
141
0.09
142
0.0
143
25.399999999999999
144
1.0
145
0.0
146
1.0
147
0.09
 71
     1
 72
     0
 73
     1
 74
     1
 75
     0
 76
     0
 77
     0
 78
     4
170
     0
171
     2
172
     0
173
     0
174
     0
175
     0
176
     0
177
     0
178
     0
  0
DIMSTYLE
  2
ANNOTATIVE
 70
     0
  3

  4

  5

  6

  7

 40
1.0
 41
0.18
 42
0.0625
 43
0.38
 44
0.18
 45
0.0
 46
0.0
 47
0.0
 48
0.0
140
0.18
141
0.09
142
0.0
143
25.399999999999999
144
1.0
145
0.0
146
1.0
147
0.09
 71
     0
 72
     0
 73
     1
 74
     1
 75
     0
 76
     0
 77
     0
 78
     0
170
     0
171
     2
172
     0
173
     0
174
     0
175
     0
176
     0
177
     0
178
     0
  0
DIMSTYLE
  2
DIMSTYLE_1
 70
     0
  3

  4

  5

  6

  7

 40
1.0
 41
4.0
 42
1.587499999999999
 43
0.38
 44
1.587499999999999
 45
0.0
 46
0.0
 47
0.0472440945
 48
0.0472440945
140
2.0
141
0.09
142
0.0
143
25.399999999999999
144
1.0
145
0.0
146
1.0
147
2.0
 71
     0
 72
     0
 73
     1
 74
     1
 75
     0
 76
     0
 77
     0
 78
     4
170
     0
171
     2
172
     0
173
     0
174
     0
175
     0
176
     0
177
     0
178
     0
  0
DIMSTYLE
  2
DIMSTYLE_2
 70
     0
  3

  4

  5

  6

  7

 40
1.0
 41
4.0
 42
1.587499999999999
 43
0.38
 44
1.587499999999999
 45
0.0
 46
0.0
 47
0.031496063
 48
0.031496063
140
2.0
141
0.09
142
0.0
143
25.399999999999999
144
1.0
145
0.0
146
1.0
147
2.0
 71
     0
 72
     0
 73
     1
 74
     1
 75
     0
 76
     0
 77
     0
 78
     4
170
     0
171
     2
172
     0
173
     0
174
     0
175
     0
176
     0
177
     0
178
     0
  0
DIMSTYLE
  2
DIMSTYLE_3
 70
     0
  3

  4

  5

  6

  7

 40
1.0
 41
4.0
 42
1.587499999999999
 43
0.38
 44
1.587499999999999
 45
0.0
 46
0.0
 47
0.06
 48
0.06
140
2.0
141
0.09
142
0.0
143
25.399999999999999
144
1.0
145
0.0
146
1.0
147
2.0
 71
     0
 72
     0
 73
     1
 74
     1
 75
     0
 76
     0
 77
     0
 78
     4
170
     0
171
     2
172
     0
173
     0
174
     0
175
     0
176
     0
177
     0
178
     0
  0
DIMSTYLE
  2
DIMSTYLE_4
 70
     0
  3

  4

  5

  6

  7

 40
1.0
 41
4.0
 42
1.587499999999999
 43
0.38
 44
1.587499999999999
 45
0.0
 46
0.0
 47
0.0196850394
 48
0.0196850394
140
2.0
141
0.09
142
0.0
143
25.399999999999999
144
1.0
145
0.0
146
1.0
147
2.0
 71
     0
 72
     0
 73
     1
 74
     1
 75
     0
 76
     0
 77
     0
 78
     4
170
     0
171
     2
172
     0
173
     0
174
     0
175
     0
176
     0
177
     0
178
     0
  0
DIMSTYLE
  2
DIMSTYLE_5
 70
     0
  3

  4

  5

  6

  7

 40
1.0
 41
4.0
 42
1.587499999999999
 43
0.38
 44
1.587499999999999
 45
0.0
 46
0.0
 47
0.0472440945
 48
0.0472440945
140
2.0
141
0.09
142
0.0
143
25.399999999999999
144
1.0
145
0.0
146
1.0
147
2.0
 71
     0
 72
     0
 73
     1
 74
     1
 75
     0
 76
     0
 77
     0
 78
     4
170
     0
171
     2
172
     0
173
     0
174
     0
175
     0
176
     0
177
     0
178
     0
  0
ENDTAB
  0
ENDSEC
  0
SECTION
  2
BLOCKS
  0
BLOCK
  8
0
  2
$MODEL_SPACE
 70
     0
 10
0.0
 20
0.0
 30
0.0
  3
$MODEL_SPACE
  1

  0
ENDBLK
  5
6AA
  8
0
  0
BLOCK
 67
     1
  8
0
  2
$PAPER_SPACE
 70
     0
 10
0.0
 20
0.0
 30
0.0
  3
$PAPER_SPACE
  1

  0
ENDBLK
  5
6A6
 67
     1
  8
0
  0
BLOCK
  8
0
  2
_FILLED
 70
     0
 10
0.0
 20
0.0
 30
0.0
  3
_FILLED
  1

  0
SOLID
  5
21B
  8
0
  6
BYBLOCK
 62
     0
 10
0.0
 20
0.0
 30
0.0
 11
-1.0
 21
0.1875
 31
0.0
 12
-1.0
 22
-0.1875
 32
0.0
 13
-1.0
 23
-0.1875
 33
0.0
  0
ENDBLK
  5
21C
  8
0
  6
BYBLOCK
 62
     0
  0
BLOCK
  8
UNIT-DIM
  6
CONTINUOUS
 62
     7
  2
*D3
 70
     1
 10
0.0
 20
0.0
 30
0.0
  3
*D3
  1

  0
INSERT
  5
21E
  8
0
  2
*U4
 10
0.0
 20
0.0
 30
0.0
  0
LINE
  5
21F
  8
UNIT-DIM
  6
CONTINUOUS
 62
     7
 10
9.2425740665999996
 20
74.50235592060001
 30
0.0
 11
11.5129838365
 21
74.50235592060001
 31
0.0
  0
LINE
  5
220
  8
UNIT-DIM
  6
CONTINUOUS
 62
     7
 10
9.4702106566000008
 20
131.82335592059999
 30
0.0
 11
11.5129838365
 21
131.82335592059999
 31
0.0
  0
LINE
  5
221
  8
UNIT-DIM
  6
CONTINUOUS
 62
     7
 10
9.9254838364999998
 20
74.50235592060001
 30
0.0
 11
9.9254838364999998
 21
97.162855920599995
 31
0.0
  0
LINE
  5
222
  8
UNIT-DIM
  6
CONTINUOUS
 62
     7
 10
9.9254838364999998
 20
131.82335592059999
 30
0.0
 11
9.9254838364999998
 21
106.16285592059999
 31
0.0
  0
INSERT
  5
223
  8
UNIT-DIM
  6
CONTINUOUS
 62
     7
  2
_FILLED
 10
9.9254838364999998
 20
74.50235592060001
 30
0.0
 41
4.0
 42
4.0
 43
4.0
 50
270.0
  0
INSERT
  5
224
  8
UNIT-DIM
  6
CONTINUOUS
 62
     7
  2
_FILLED
 10
9.9254838364999998
 20
131.82335592059999
 30
0.0
 41
4.0
 42
4.0
 43
4.0
 50
90.0
  0
ENDBLK
  5
225
  8
0
  6
BYBLOCK
 62
     0
  0
BLOCK
  8
0
  2
*U4
 70
     1
 10
0.0
 20
0.0
 30
0.0
  3
*U4
  1

  0
TEXT
  5
52A
  8
UNIT-DIM
 62
     7
 10
5.3921505031666639
 20
102.16285592059999
 30
0.0
 40
2.0
  1
57-3/8
 41
0.8
  0
TEXT
  5
52B
  8
UNIT-DIM
 62
     7
 10
6.1921505031666673
 20
98.829522587266695
 30
0.0
 40
2.0
  1
[1456]
 41
0.8
  0
ENDBLK
  5
52D
  8
0
  0
BLOCK
  8
SERVCLRDIM
  6
CONTINUOUS
 62
     1
  2
*D5
 70
     1
 10
0.0
 20
0.0
 30
0.0
  3
*D5
  1

  0
INSERT
  5
227
  8
0
  2
*U6
 10
0.0
 20
0.0
 30
0.0
  0
LINE
  5
228
  8
SERVCLRDIM
  6
CONTINUOUS
 62
     1
 10
0.0
 20
117.425862837
 30
0.0
 11
10.0
 21
117.425862837
 31
0.0
  0
LINE
  5
229
  8
SERVCLRDIM
  6
CONTINUOUS
 62
     1
 10
48.0
 20
117.425862837
 30
0.0
 11
38.0
 21
117.425862837
 31
0.0
  0
INSERT
  5
22A
  8
SERVCLRDIM
  6
CONTINUOUS
 62
     1
  2
_FILLED
 10
0.0
 20
117.425862837
 30
0.0
 41
4.0
 42
4.0
 43
4.0
 50
180.0
  0
INSERT
  5
22B
  8
SERVCLRDIM
  6
CONTINUOUS
 62
     1
  2
_FILLED
 10
48.0
 20
117.425862837
 30
0.0
 41
4.0
 42
4.0
 43
4.0
  0
ENDBLK
  5
22C
  8
0
  6
BYBLOCK
 62
     0
  0
BLOCK
  8
0
  2
*U6
 70
     1
 10
0.0
 20
0.0
 30
0.0
  3
*U6
  1

  0
TEXT
  5
52F
  8
SERVCLRDIM
 62
     1
 10
12.79999999999999
 20
116.425862837
 30
0.0
 40
2.0
  1
12-48 DEPENDING
 41
0.8
  0
TEXT
  5
530
  8
SERVCLRDIM
 62
     1
 10
12.133333333333329
 20
113.0925295036667
 30
0.0
 40
2.0
  1
 ON OPTIONS, SEE
 41
0.8
  0
TEXT
  5
531
  8
SERVCLRDIM
 62
     1
 10
11.46666666666666
 20
109.7591961703333
 30
0.0
 40
2.0
  1
PRODUCT DATA FOR
 41
0.8
  0
TEXT
  5
532
  8
SERVCLRDIM
 62
     1
 10
18.666666666666661
 20
106.425862837
 30
0.0
 40
2.0
  1
DETAILS.
 41
0.8
  0
ENDBLK
  5
534
  8
0
  0
BLOCK
  8
SERVCLRDIM
  6
CONTINUOUS
 62
     1
  2
*D7
 70
     1
 10
0.0
 20
0.0
 30
0.0
  3
*D7
  1

  0
INSERT
  5
22E
  8
0
  2
*U8
 10
0.0
 20
0.0
 30
0.0
  0
LINE
  5
22F
  8
SERVCLRDIM
  6
CONTINUOUS
 62
     1
 10
163.8258971942
 20
117.425862837
 30
0.0
 11
151.12589719420001
 21
117.425862837
 31
0.0
  0
LINE
  5
230
  8
SERVCLRDIM
  6
CONTINUOUS
 62
     1
 10
199.82589719419991
 20
117.425862837
 30
0.0
 11
212.52589719420001
 21
117.425862837
 31
0.0
  0
INSERT
  5
231
  8
SERVCLRDIM
  6
CONTINUOUS
 62
     1
  2
_FILLED
 10
163.8258971942
 20
117.425862837
 30
0.0
 41
4.0
 42
4.0
 43
4.0
  0
INSERT
  5
232
  8
SERVCLRDIM
  6
CONTINUOUS
 62
     1
  2
_FILLED
 10
199.82589719419991
 20
117.425862837
 30
0.0
 41
4.0
 42
4.0
 43
4.0
 50
180.0
  0
ENDBLK
  5
233
  8
0
  6
BYBLOCK
 62
     0
  0
BLOCK
  8
0
  2
*U8
 70
     1
 10
0.0
 20
0.0
 30
0.0
  3
*U8
  1

  0
TEXT
  5
536
  8
SERVCLRDIM
 62
     1
 10
170.62589719419981
 20
116.425862837
 30
0.0
 40
2.0
  1
18-36 DEPENDING
 41
0.8
  0
TEXT
  5
537
  8
SERVCLRDIM
 62
     1
 10
170.7592305275333
 20
113.0925295036667
 30
0.0
 40
2.0
  1
ON OPTIONS, SEE
 41
0.8
  0
TEXT
  5
538
  8
SERVCLRDIM
 62
     1
 10
169.29256386086661
 20
109.7591961703333
 30
0.0
 40
2.0
  1
PRODUCT DATA FOR
 41
0.8
  0
TEXT
  5
539
  8
SERVCLRDIM
 62
     1
 10
176.4925638608666
 20
106.425862837
 30
0.0
 40
2.0
  1
DETAILS.
 41
0.8
  0
ENDBLK
  5
53B
  8
0
  0
BLOCK
  8
CURB-14-DIM
  6
CONTINUOUS
 62
     6
  2
*D9
 70
     1
 10
0.0
 20
0.0
 30
0.0
  3
*D9
  1

  0
INSERT
  5
235
  8
0
  2
*U10
 10
0.0
 20
0.0
 30
0.0
  0
LINE
  5
236
  8
CURB-14-DIM
  6
CONTINUOUS
 62
     6
 10
51.287948597099998
 20
75.646932134799982
 30
0.0
 11
51.287948597099998
 21
45.180595449099982
 31
0.0
  0
LINE
  5
237
  8
CURB-14-DIM
  6
CONTINUOUS
 62
     6
 10
160.5379485970999
 20
75.646932134799982
 30
0.0
 11
160.5379485970999
 21
45.180595449099982
 31
0.0
  0
LINE
  5
238
  8
CURB-14-DIM
  6
CONTINUOUS
 62
     6
 10
51.287948597099998
 20
46.768095449099988
 30
0.0
 11
90.112948597099987
 21
46.768095449099988
 31
0.0
  0
LINE
  5
239
  8
CURB-14-DIM
  6
CONTINUOUS
 62
     6
 10
160.5379485970999
 20
46.768095449099988
 30
0.0
 11
121.7129485971
 21
46.768095449099988
 31
0.0
  0
INSERT
  5
23A
  8
CURB-14-DIM
  6
CONTINUOUS
 62
     6
  2
_FILLED
 10
51.287948597099998
 20
46.768095449099988
 30
0.0
 41
4.0
 42
4.0
 43
4.0
 50
180.0
  0
INSERT
  5
23B
  8
CURB-14-DIM
  6
CONTINUOUS
 62
     6
  2
_FILLED
 10
160.5379485970999
 20
46.768095449099988
 30
0.0
 41
4.0
 42
4.0
 43
4.0
  0
ENDBLK
  5
23C
  8
0
  6
BYBLOCK
 62
     0
  0
BLOCK
  8
0
  2
*U10
 70
     1
 10
0.0
 20
0.0
 30
0.0
  3
*U10
  1

  0
TEXT
  5
53D
  8
CURB-14-DIM
 62
     6
 10
95.046281930433295
 20
45.768095449099981
 30
0.0
 40
2.0
  1
109-1/4
 41
0.8
  0
TEXT
  5
53E
  8
CURB-14-DIM
 62
     6
 10
104.9129485971
 20
45.768095449099981
 30
0.0
 40
2.0
  1
 
  0
TEXT
  5
53F
  8
CURB-14-DIM
 62
     6
 10
106.9129485971
 20
45.768095449099981
 30
0.0
 40
2.0
  1
[2775.0]
 41
0.8
  0
ENDBLK
  5
541
  8
0
  0
BLOCK
  8
CURB-24-DIM
  6
CONTINUOUS
 62
     6
  2
*D11
 70
     1
 10
0.0
 20
0.0
 30
0.0
  3
*D11
  1

  0
INSERT
  5
23E
  8
0
  2
*U12
 10
0.0
 20
0.0
 30
0.0
  0
LINE
  5
23F
  8
CURB-24-DIM
  6
CONTINUOUS
 62
     6
 10
48.450448597099999
 20
53.504085167100001
 30
0.0
 11
32.5714592434
 21
53.504085167100001
 31
0.0
  0
LINE
  5
240
  8
CURB-24-DIM
  6
CONTINUOUS
 62
     6
 10
29.5951290034
 20
53.504085167100001
 30
0.0
 11
17.417426454200001
 21
53.504085167100001
 31
0.0
  0
LINE
  5
241
  8
CURB-24-DIM
  6
CONTINUOUS
 62
     6
 10
49.700448597099999
 20
77.50235592060001
 30
0.0
 11
17.417426454200001
 21
77.50235592060001
 31
0.0
  0
LINE
  5
242
  8
CURB-24-DIM
  6
CONTINUOUS
 62
     6
 10
19.0049264542
 20
53.504085167100001
 30
0.0
 11
19.0049264542
 21
59.503220543899999
 31
0.0
  0
LINE
  5
243
  8
CURB-24-DIM
  6
CONTINUOUS
 62
     6
 10
19.0049264542
 20
77.50235592060001
 30
0.0
 11
19.0049264542
 21
68.503220543899999
 31
0.0
  0
INSERT
  5
244
  8
CURB-24-DIM
  6
CONTINUOUS
 62
     6
  2
_FILLED
 10
19.0049264542
 20
53.504085167100001
 30
0.0
 41
4.0
 42
4.0
 43
4.0
 50
270.0
  0
INSERT
  5
245
  8
CURB-24-DIM
  6
CONTINUOUS
 62
     6
  2
_FILLED
 10
19.0049264542
 20
77.50235592060001
 30
0.0
 41
4.0
 42
4.0
 43
4.0
 50
90.0
  0
ENDBLK
  5
246
  8
0
  6
BYBLOCK
 62
     0
  0
BLOCK
  8
0
  2
*U12
 70
     1
 10
0.0
 20
0.0
 30
0.0
  3
*U12
  1

  0
TEXT
  5
543
  8
CURB-24-DIM
 62
     6
 10
17.671593120866671
 20
64.503220543899985
 30
0.0
 40
2.0
  1
24
 41
0.8
  0
TEXT
  5
544
  8
CURB-24-DIM
 62
     6
 10
14.87159312086667
 20
61.169887210566657
 30
0.0
 40
2.0
  1
[609.6]
 41
0.8
  0
ENDBLK
  5
546
  8
0
  0
BLOCK
  8
CURB-24-DIM
  6
CONTINUOUS
 62
     6
  2
*D13
 70
     1
 10
0.0
 20
0.0
 30
0.0
  3
*D13
  1

  0
INSERT
  5
248
  8
0
  2
*U14
 10
0.0
 20
0.0
 30
0.0
  0
LINE
  5
249
  8
CURB-24-DIM
  6
CONTINUOUS
 62
     6
 10
51.287948597099998
 20
75.646932134799982
 30
0.0
 11
51.287948597099998
 21
45.174589401200002
 31
0.0
  0
LINE
  5
24A
  8
CURB-24-DIM
  6
CONTINUOUS
 62
     6
 10
160.5379485970999
 20
75.646932134799982
 30
0.0
 11
160.5379485970999
 21
45.174589401200002
 31
0.0
  0
LINE
  5
24B
  8
CURB-24-DIM
  6
CONTINUOUS
 62
     6
 10
51.287948597099998
 20
46.762089401200001
 30
0.0
 11
90.112948597099987
 21
46.762089401200001
 31
0.0
  0
LINE
  5
24C
  8
CURB-24-DIM
  6
CONTINUOUS
 62
     6
 10
160.5379485970999
 20
46.762089401200001
 30
0.0
 11
121.7129485971
 21
46.762089401200001
 31
0.0
  0
INSERT
  5
24D
  8
CURB-24-DIM
  6
CONTINUOUS
 62
     6
  2
_FILLED
 10
51.287948597099998
 20
46.762089401200001
 30
0.0
 41
4.0
 42
4.0
 43
4.0
 50
180.0
  0
INSERT
  5
24E
  8
CURB-24-DIM
  6
CONTINUOUS
 62
     6
  2
_FILLED
 10
160.5379485970999
 20
46.762089401200001
 30
0.0
 41
4.0
 42
4.0
 43
4.0
  0
ENDBLK
  5
24F
  8
0
  6
BYBLOCK
 62
     0
  0
BLOCK
  8
0
  2
*U14
 70
     1
 10
0.0
 20
0.0
 30
0.0
  3
*U14
  1

  0
TEXT
  5
548
  8
CURB-24-DIM
 62
     6
 10
95.046281930433295
 20
45.762089401199987
 30
0.0
 40
2.0
  1
109-1/4
 41
0.8
  0
TEXT
  5
549
  8
CURB-24-DIM
 62
     6
 10
104.9129485971
 20
45.762089401199987
 30
0.0
 40
2.0
  1
 
  0
TEXT
  5
54A
  8
CURB-24-DIM
 62
     6
 10
106.9129485971
 20
45.762089401199987
 30
0.0
 40
2.0
  1
[2775.0]
 41
0.8
  0
ENDBLK
  5
54C
  8
0
  0
BLOCK
  8
CURB-14-DIM
  6
CONTINUOUS
 62
     6
  2
*D15
 70
     1
 10
0.0
 20
0.0
 30
0.0
  3
*D15
  1

  0
INSERT
  5
251
  8
0
  2
*U16
 10
0.0
 20
0.0
 30
0.0
  0
LINE
  5
252
  8
CURB-14-DIM
  6
CONTINUOUS
 62
     6
 10
49.700448597099999
 20
77.50235592060001
 30
0.0
 11
29.801277657899998
 21
77.50235592060001
 31
0.0
  0
LINE
  5
253
  8
CURB-14-DIM
  6
CONTINUOUS
 62
     6
 10
48.043669114499991
 20
63.502355920600003
 30
0.0
 11
29.801277657899998
 21
63.502355920600003
 31
0.0
  0
LINE
  5
254
  8
CURB-14-DIM
  6
CONTINUOUS
 62
     6
 10
31.3887776579
 20
77.50235592060001
 30
0.0
 11
31.3887776579
 21
90.202355920600013
 31
0.0
  0
LINE
  5
255
  8
CURB-14-DIM
  6
CONTINUOUS
 62
     6
 10
31.3887776579
 20
63.502355920600003
 30
0.0
 11
31.3887776579
 21
50.802355920600007
 31
0.0
  0
INSERT
  5
256
  8
CURB-14-DIM
  6
CONTINUOUS
 62
     6
  2
_FILLED
 10
31.3887776579
 20
77.50235592060001
 30
0.0
 41
4.0
 42
4.0
 43
4.0
 50
270.0
  0
INSERT
  5
257
  8
CURB-14-DIM
  6
CONTINUOUS
 62
     6
  2
_FILLED
 10
31.3887776579
 20
63.502355920600003
 30
0.0
 41
4.0
 42
4.0
 43
4.0
 50
90.0
  0
ENDBLK
  5
258
  8
0
  6
BYBLOCK
 62
     0
  0
BLOCK
  8
0
  2
*U16
 70
     1
 10
0.0
 20
0.0
 30
0.0
  3
*U16
  1

  0
TEXT
  5
54E
  8
CURB-14-DIM
 62
     6
 10
30.322110991233341
 20
70.795057584700004
 30
0.0
 40
2.0
  1
14
 41
0.8
  0
TEXT
  5
54F
  8
CURB-14-DIM
 62
     6
 10
27.122110991233331
 20
67.461724251366675
 30
0.0
 40
2.0
  1
[355.6]
 41
0.8
  0
ENDBLK
  5
551
  8
0
  0
BLOCK
  8
NOTES
  6
CONTINUOUS
 62
     1
  2
*D17
 70
     1
 10
0.0
 20
0.0
 30
0.0
  3
*D17
  1

  0
INSERT
  5
25A
  8
0
  2
*U18
 10
0.0
 20
0.0
 30
0.0
  0
LINE
  5
25B
  8
NOTES
  6
CONTINUOUS
 62
     1
 10
161.24945644959999
 20
77.50235592060001
 30
0.0
 11
173.72194304659999
 21
77.50235592060001
 31
0.0
  0
LINE
  5
25C
  8
NOTES
  6
CONTINUOUS
 62
     1
 10
165.10752206340001
 20
74.50235592060001
 30
0.0
 11
173.72194304659999
 21
74.50235592060001
 31
0.0
  0
LINE
  5
25D
  8
NOTES
  6
CONTINUOUS
 62
     1
 10
172.13444304660001
 20
77.50235592060001
 30
0.0
 11
172.13444304660001
 21
90.202355920600013
 31
0.0
  0
LINE
  5
25E
  8
NOTES
  6
CONTINUOUS
 62
     1
 10
172.13444304660001
 20
74.50235592060001
 30
0.0
 11
172.13444304660001
 21
63.704879415000001
 31
0.0
  0
LINE
  5
25F
  8
NOTES
  6
CONTINUOUS
 62
     1
 10
172.13444304660001
 20
63.704879415000001
 30
0.0
 11
176.48444304660001
 21
63.704879415000001
 31
0.0
  0
INSERT
  5
260
  8
NOTES
  6
CONTINUOUS
 62
     1
  2
_FILLED
 10
172.13444304660001
 20
77.50235592060001
 30
0.0
 41
4.0
 42
4.0
 43
4.0
 50
270.0
  0
INSERT
  5
261
  8
NOTES
  6
CONTINUOUS
 62
     1
  2
_FILLED
 10
172.13444304660001
 20
74.50235592060001
 30
0.0
 41
4.0
 42
4.0
 43
4.0
 50
90.0
  0
ENDBLK
  5
262
  8
0
  6
BYBLOCK
 62
     0
  0
BLOCK
  8
0
  2
*U18
 70
     1
 10
0.0
 20
0.0
 30
0.0
  3
*U18
  1

  0
TEXT
  5
553
  8
NOTES
 62
     1
 10
178.48444304660001
 20
62.704879415000001
 30
0.0
 40
2.0
  1
OVERALL HEIGHT AND
 41
0.8
  0
TEXT
  5
554
  8
NOTES
 62
     1
 10
178.48444304660001
 20
59.371546081666651
 30
0.0
 40
2.0
  1
CLEARANCE AREA WILL BE
 41
0.8
  0
TEXT
  5
555
  8
NOTES
 62
     1
 10
178.48444304660001
 20
56.038212748333322
 30
0.0
 40
2.0
  1
DETERMINED BY ASSEMBLY OF
 41
0.8
  0
TEXT
  5
556
  8
NOTES
 62
     1
 10
178.48444304660001
 20
52.704879414999979
 30
0.0
 40
2.0
  1
INSTALLER.  SEE CERTIFIED
 41
0.8
  0
TEXT
  5
557
  8
NOTES
 62
     1
 10
178.48444304660001
 20
49.371546081666651
 30
0.0
 40
2.0
  1
DRAWING FOR FURTHER DETAIL.
 41
0.8
  0
ENDBLK
  5
559
  8
0
  0
BLOCK
  8
UNIT-DIM
  6
CONTINUOUS
 62
     7
  2
*D19
 70
     1
 10
0.0
 20
0.0
 30
0.0
  3
*D19
  1

  0
INSERT
  5
264
  8
0
  2
*U20
 10
0.0
 20
0.0
 30
0.0
  0
LINE
  5
265
  8
UNIT-DIM
  6
CONTINUOUS
 62
     7
 10
46.718375130799977
 20
74.50235592060001
 30
0.0
 11
38.189543155700001
 21
74.50235592060001
 31
0.0
  0
LINE
  5
266
  8
UNIT-DIM
  6
CONTINUOUS
 62
     7
 10
97.287499999999994
 20
82.252355920599982
 30
0.0
 11
38.189543155700001
 21
82.252355920599982
 31
0.0
  0
LINE
  5
267
  8
UNIT-DIM
  6
CONTINUOUS
 62
     7
 10
39.777043155699999
 20
74.50235592060001
 30
0.0
 11
39.777043155699999
 21
61.8023559206
 31
0.0
  0
LINE
  5
268
  8
UNIT-DIM
  6
CONTINUOUS
 62
     7
 10
39.777043155699999
 20
82.252355920599982
 30
0.0
 11
39.777043155699999
 21
99.551401858099993
 31
0.0
  0
LINE
  5
269
  8
UNIT-DIM
  6
CONTINUOUS
 62
     7
 10
39.777043155699999
 20
99.551401858099993
 30
0.0
 11
36.455287751699998
 21
99.551401858099993
 31
0.0
  0
INSERT
  5
26A
  8
UNIT-DIM
  6
CONTINUOUS
 62
     7
  2
_FILLED
 10
39.777043155699999
 20
74.50235592060001
 30
0.0
 41
4.0
 42
4.0
 43
4.0
 50
90.0
  0
INSERT
  5
26B
  8
UNIT-DIM
  6
CONTINUOUS
 62
     7
  2
_FILLED
 10
39.777043155699999
 20
82.252355920599982
 30
0.0
 41
4.0
 42
4.0
 43
4.0
 50
270.0
  0
ENDBLK
  5
26C
  8
0
  6
BYBLOCK
 62
     0
  0
BLOCK
  8
0
  2
*U20
 70
     1
 10
0.0
 20
0.0
 30
0.0
  3
*U20
  1

  0
TEXT
  5
55B
  8
UNIT-DIM
 62
     7
 10
23.788621085033341
 20
98.551401858099993
 30
0.0
 40
2.0
  1
7-3/4
 41
0.8
  0
TEXT
  5
55C
  8
UNIT-DIM
 62
     7
 10
23.255287751699999
 20
95.21806852476665
 30
0.0
 40
2.0
  1
[196.9]
 41
0.8
  0
ENDBLK
  5
55E
  8
0
  0
BLOCK
  8
UNIT-DIM
  6
CONTINUOUS
 62
     7
  2
*D21
 70
     1
 10
0.0
 20
0.0
 30
0.0
  3
*D21
  1

  0
INSERT
  5
26E
  8
0
  2
*U22
 10
0.0
 20
0.0
 30
0.0
  0
LINE
  5
26F
  8
UNIT-DIM
  6
CONTINUOUS
 62
     7
 10
98.875000000000014
 20
83.839855920600002
 30
0.0
 11
98.875000000000014
 21
91.750419429000004
 31
0.0
  0
LINE
  5
270
  8
UNIT-DIM
  6
CONTINUOUS
 62
     7
 10
48.0
 20
78.34160077049998
 30
0.0
 11
48.0
 21
91.750419429000004
 31
0.0
  0
LINE
  5
271
  8
UNIT-DIM
  6
CONTINUOUS
 62
     7
 10
98.875000000000014
 20
90.162919429000027
 30
0.0
 11
74.4691894531
 21
90.162919429000027
 31
0.0
  0
LINE
  5
272
  8
UNIT-DIM
  6
CONTINUOUS
 62
     7
 10
48.0
 20
90.162919429000027
 30
0.0
 11
57.669189453100003
 21
90.162919429000027
 31
0.0
  0
INSERT
  5
273
  8
UNIT-DIM
  6
CONTINUOUS
 62
     7
  2
_FILLED
 10
98.875000000000014
 20
90.162919429000027
 30
0.0
 41
4.0
 42
4.0
 43
4.0
  0
INSERT
  5
274
  8
UNIT-DIM
  6
CONTINUOUS
 62
     7
  2
_FILLED
 10
48.0
 20
90.162919429000027
 30
0.0
 41
4.0
 42
4.0
 43
4.0
 50
180.0
  0
ENDBLK
  5
275
  8
0
  6
BYBLOCK
 62
     0
  0
BLOCK
  8
0
  2
*U22
 70
     1
 10
0.0
 20
0.0
 30
0.0
  3
*U22
  1

  0
TEXT
  5
560
  8
UNIT-DIM
 62
     7
 10
60.069189453100002
 20
89.162919428999999
 30
0.0
 40
2.0
  1
50-7/8
 41
0.8
  0
TEXT
  5
561
  8
UNIT-DIM
 62
     7
 10
59.669189453100003
 20
85.82958609566667
 30
0.0
 40
2.0
  1
[1292.2]
 41
0.8
  0
ENDBLK
  5
563
  8
0
  0
BLOCK
  8
0
  2
*U23
 70
     1
 10
0.0
 20
0.0
 30
0.0
  3
*U23
  1

  0
TEXT
  5
565
  8
NOTES
 62
     1
 10
0.8
 20
1.0
 30
0.0
 40
2.0
  1
VIEW: FRONT
 41
0.8
  0
ENDBLK
  5
567
  8
0
  0
BLOCK
  8
0
  2
*U24
 70
     1
 10
0.0
 20
0.0
 30
0.0
  3
*U24
  1

  0
TEXT
  5
569
  8
NOTES
 62
     1
 10
0.8
 20
5.5
 30
0.0
 40
2.0
  1
FILE NAME: TSY50-FA
 41
0.8
  0
ENDBLK
  5
56B
  8
0
  0
BLOCK
  8
0
  2
*U25
 70
     1
 10
0.0
 20
0.0
 30
0.0
  3
*U25
  1

  0
TEXT
  5
56D
  8
NOTES
 62
     1
 10
17.06666666666667
 20
9.5
 30
0.0
 40
2.0
  1
LAYER KEY
 41
0.8
  0
ENDBLK
  5
56F
  8
0
  0
BLOCK
  8
0
  2
*U26
 70
     1
 10
0.0
 20
0.0
 30
0.0
  3
*U26
  1

  0
TEXT
  5
571
  8
NOTES
 62
     7
 10
2.6666666666666661
 20
13.5
 30
0.0
 40
2.0
  1
-
 41
8.0
  7
TEXTSTYLE_2
  0
ENDBLK
  5
573
  8
0
  0
BLOCK
  8
0
  2
*U27
 70
     1
 10
0.0
 20
0.0
 30
0.0
  3
*U27
  1

  0
TEXT
  5
575
  8
NOTES
 62
     1
 10
16.800000000000001
 20
13.5
 30
0.0
 40
2.0
  1
UNIT
 41
0.8
  0
ENDBLK
  5
577
  8
0
  0
BLOCK
  8
0
  2
*U28
 70
     1
 10
0.0
 20
0.0
 30
0.0
  3
*U28
  1

  0
TEXT
  5
579
  8
NOTES
 62
     6
 10
2.6666666666666661
 20
17.5
 30
0.0
 40
2.0
  1
-
 41
8.0
  7
TEXTSTYLE_2
  0
ENDBLK
  5
57B
  8
0
  0
BLOCK
  8
0
  2
*U29
 70
     1
 10
0.0
 20
0.0
 30
0.0
  3
*U29
  1

  0
TEXT
  5
57D
  8
NOTES
 62
     1
 10
16.800000000000001
 20
17.5
 30
0.0
 40
2.0
  1
ROOF CURB
 41
0.8
  0
ENDBLK
  5
57F
  8
0
  0
BLOCK
  8
0
  2
*U30
 70
     1
 10
0.0
 20
0.0
 30
0.0
  3
*U30
  1

  0
TEXT
  5
581
  8
NOTES
 62
     1
 10
2.6666666666666661
 20
21.5
 30
0.0
 40
2.0
  1
-
 41
8.0
  7
TEXTSTYLE_2
  0
ENDBLK
  5
583
  8
0
  0
BLOCK
  8
0
  2
*U31
 70
     1
 10
0.0
 20
0.0
 30
0.0
  3
*U31
  1

  0
TEXT
  5
585
  8
NOTES
 62
     1
 10
16.800000000000001
 20
21.5
 30
0.0
 40
2.0
  1
SERVICE CLEARANCE
 41
0.8
  0
ENDBLK
  5
587
  8
0
  0
BLOCK
  8
0
  2
*U32
 70
     1
 10
0.0
 20
0.0
 30
0.0
  3
*U32
  1

  0
TEXT
  5
589
  8
NOTES
 62
     2
 10
2.6666666666666661
 20
25.5
 30
0.0
 40
2.0
  1
-
 41
8.0
  7
TEXTSTYLE_2
  0
ENDBLK
  5
58B
  8
0
  0
BLOCK
  8
0
  2
*U33
 70
     1
 10
0.0
 20
0.0
 30
0.0
  3
*U33
  1

  0
TEXT
  5
58D
  8
NOTES
 62
     1
 10
16.800000000000001
 20
25.5
 30
0.0
 40
2.0
  1
UNIT DUCTS
 41
0.8
  0
ENDBLK
  5
58F
  8
0
  0
BLOCK
  8
0
  2
*U34
 70
     1
 10
0.0
 20
0.0
 30
0.0
  3
*U34
  1

  0
TEXT
  5
591
  8
NOTES
 62
     5
 10
2.6666666666666661
 20
29.5
 30
0.0
 40
2.0
  1
-
 41
8.0
  7
TEXTSTYLE_2
  0
ENDBLK
  5
593
  8
0
  0
BLOCK
  8
0
  2
*U35
 70
     1
 10
0.0
 20
0.0
 30
0.0
  3
*U35
  1

  0
TEXT
  5
595
  8
NOTES
 62
     1
 10
16.800000000000001
 20
29.5
 30
0.0
 40
2.0
  1
CURB DUCTS
 41
0.8
  0
ENDBLK
  5
597
  8
0
  0
BLOCK
  8
0
  2
*U36
 70
     1
 10
0.0
 20
0.0
 30
0.0
  3
*U36
  1

  0
TEXT
  5
599
  8
NOTES
 62
     8
 10
2.6666666666666661
 20
33.5
 30
0.0
 40
2.0
  1
-
 41
8.0
  7
TEXTSTYLE_2
  0
ENDBLK
  5
59B
  8
0
  0
BLOCK
  8
0
  2
*U37
 70
     1
 10
0.0
 20
0.0
 30
0.0
  3
*U37
  1

  0
TEXT
  5
59D
  8
NOTES
 62
     1
 10
16.800000000000001
 20
33.5
 30
0.0
 40
2.0
  1
UNIT HIDDEN
 41
0.8
  0
ENDBLK
  5
59F
  8
0
  0
BLOCK
  8
0
  2
*U38
 70
     1
 10
0.0
 20
0.0
 30
0.0
  3
*U38
  1

  0
TEXT
  5
5A1
  8
NOTES
 62
     1
 10
83.064527299800005
 20
121.17355918539999
 30
0.0
 40
1.7069028806999991
  1
CONTROL BOX
 41
0.8
  0
ENDBLK
  5
5A3
  8
0
  0
BLOCK
  8
0
  2
*U39
 70
     1
 10
0.0
 20
0.0
 30
0.0
  3
*U39
  1

  0
TEXT
  5
5A5
  8
NOTES
 62
     1
 10
87.209862867299989
 20
118.3287210509
 30
0.0
 40
1.7069028806999991
  1
ACCESS
 41
0.8
  0
ENDBLK
  5
5A7
  8
0
  0
BLOCK
  8
0
  2
*U40
 70
     1
 10
0.0
 20
0.0
 30
0.0
  3
*U40
  1

  0
TEXT
  5
5A9
  8
NOTES
 62
     1
 10
88.063314307599981
 20
115.4838829163
 30
0.0
 40
1.7069028806999991
  1
PANEL
 41
0.8
  0
ENDBLK
  5
5AB
  8
0
  0
BLOCK
  8
0
  2
*U41
 70
     1
 10
0.0
 20
0.0
 30
0.0
  3
*U41
  1

  0
TEXT
  5
5AD
  8
NOTES
 62
     1
 10
145.2032323814
 20
108.28351250910001
 30
0.0
 40
1.7069028806999991
  1
INDOOR
 41
0.8
  0
ENDBLK
  5
5AF
  8
0
  0
BLOCK
  8
0
  2
*U42
 70
     1
 10
0.0
 20
0.0
 30
0.0
  3
*U42
  1

  0
TEXT
  5
5B1
  8
NOTES
 62
     1
 10
145.16122354309999
 20
105.5330462145
 30
0.0
 40
1.7069028806999991
  1
BLOWER
 41
0.8
  0
ENDBLK
  5
5B3
  8
0
  0
BLOCK
  8
0
  2
*U43
 70
     1
 10
0.0
 20
0.0
 30
0.0
  3
*U43
  1

  0
TEXT
  5
5B5
  8
NOTES
 62
     1
 10
140.90432050480001
 20
102.59383624
 30
0.0
 40
1.7069028806999991
  1
ACCESS PANEL
 41
0.8
  0
ENDBLK
  5
5B7
  8
0
  0
BLOCK
  8
0
  2
*U44
 70
     1
 10
0.0
 20
0.0
 30
0.0
  3
*U44
  1

  0
TEXT
  5
5B9
  8
NOTES
 62
     1
 10
85.724879789066662
 20
98.561459411399994
 30
0.0
 40
1.7069029999999981
  1
GAS HEAT
 41
0.8
  0
TEXT
  5
5BA
  8
NOTES
 62
     1
 10
87.090402189066651
 20
95.716621078066638
 30
0.0
 40
1.7069029999999981
  1
ACCESS
 41
0.8
  0
TEXT
  5
5BB
  8
NOTES
 62
     1
 10
87.773163389066653
 20
92.871782744733309
 30
0.0
 40
1.7069029999999981
  1
PANEL
 41
0.8
  0
ENDBLK
  5
5BD
  8
0
  0
BLOCK
  8
0
  2
*U45
 70
     1
 10
0.0
 20
0.0
 30
0.0
  3
*U45
  1

  0
TEXT
  5
5BF
  8
NOTES
 62
     1
 10
117.0119920896
 20
108.2148086073
 30
0.0
 40
1.7069028806999991
  1
INDOOR
 41
0.8
  0
ENDBLK
  5
5C1
  8
0
  0
BLOCK
  8
0
  2
*U46
 70
     1
 10
0.0
 20
0.0
 30
0.0
  3
*U46
  1

  0
TEXT
  5
5C3
  8
NOTES
 62
     1
 10
116.9699832514
 20
105.4643423127
 30
0.0
 40
1.7069028806999991
  1
BLOWER
 41
0.8
  0
ENDBLK
  5
5C5
  8
0
  0
BLOCK
  8
0
  2
*U47
 70
     1
 10
0.0
 20
0.0
 30
0.0
  3
*U47
  1

  0
TEXT
  5
5C7
  8
NOTES
 62
     1
 10
112.7130802131
 20
102.5251323382
 30
0.0
 40
1.7069028806999991
  1
ACCESS PANEL
 41
0.8
  0
ENDBLK
  5
5C9
  8
0
  0
BLOCK
  8
0
  2
*U48
 70
     1
 10
0.0
 20
0.0
 30
0.0
  3
*U48
  1

  0
TEXT
  5
5CB
  8
NOTES
 62
     1
 10
112.630263408
 20
137.5724117794
 30
0.0
 40
1.7069029999999981
  1
3/4" - 14 NPT
 41
0.8
  0
TEXT
  5
5CC
  8
NOTES
 62
     1
 10
112.630263408
 20
134.7275734460666
 30
0.0
 40
1.7069029999999981
  1
GAS CONNECTION
 41
0.8
  0
ENDBLK
  5
5CE
  8
0
  0
ENDSEC
  0
SECTION
  2
ENTITIES
  0
DIMENSION
  5
276
  8
UNIT-DIM
  6
CONTINUOUS
 62
     7
  2
*D3
 10
9.9254838364999998
 20
131.82335592059999
 30
0.0
 11
9.1254838365000008
 21
101.66285592059999
 31
0.0
 70
   128
  1
<> 
 13
13.1004838365
 23
74.50235592060001
 33
0.0
 14
13.1004838365
 24
131.82335592059999
 34
0.0
 50
90.0
  0
DIMENSION
  5
277
  8
SERVCLRDIM
  6
CONTINUOUS
 62
     1
  2
*D5
 10
48.0
 20
117.425862837
 30
0.0
 11
24.0
 21
112.925862837
 31
0.0
 70
   128
  1
12-48 DEPENDING\P ON OPTIONS, SEE \PPRODUCT DATA FOR\PDETAILS.
 13
0.0
 23
131.82335592059999
 33
0.0
 14
48.0
 24
131.82335592059999
 34
0.0
  0
DIMENSION
  5
278
  8
SERVCLRDIM
  6
CONTINUOUS
 62
     1
  2
*D7
 10
199.82589719419991
 20
117.425862837
 30
0.0
 11
181.82589719419991
 21
112.925862837
 31
0.0
 70
   128
  1
18-36 DEPENDING\PON OPTIONS, SEE \PPRODUCT DATA FOR\PDETAILS.
 13
163.8258971942
 23
131.82335592059999
 33
0.0
 14
199.82589719419991
 24
131.82335592059999
 34
0.0
  0
DIMENSION
  5
279
  8
CURB-14-DIM
  6
CONTINUOUS
 62
     6
  2
*D9
 10
160.5379485970999
 20
46.768095449099988
 30
0.0
 11
105.1129485971
 21
46.768095449099988
 31
0.0
 70
   128
  1
<> 
 13
51.287948597099998
 23
77.234432134800002
 33
0.0
 14
160.5379485970999
 24
77.234432134800002
 34
0.0
  0
DIMENSION
  5
27A
  8
CURB-24-DIM
  6
CONTINUOUS
 62
     6
  2
*D11
 10
19.0049264542
 20
77.50235592060001
 30
0.0
 11
18.204926454199999
 21
64.003220543899999
 31
0.0
 70
   128
  1
<> 
 13
50.037948597099998
 23
53.504085167100001
 33
0.0
 14
51.287948597099998
 24
77.50235592060001
 34
0.0
 50
90.0
  0
DIMENSION
  5
27B
  8
CURB-24-DIM
  6
CONTINUOUS
 62
     6
  2
*D13
 10
160.5379485970999
 20
46.762089401200001
 30
0.0
 11
105.1129485971
 21
46.762089401200001
 31
0.0
 70
   128
  1
<> 
 13
51.287948597099998
 23
77.234432134800002
 33
0.0
 14
160.5379485970999
 24
77.234432134800002
 34
0.0
  0
DIMENSION
  5
27C
  8
CURB-14-DIM
  6
CONTINUOUS
 62
     6
  2
*D15
 10
31.3887776579
 20
63.502355920600003
 30
0.0
 11
30.5887776579
 21
70.295057584700004
 31
0.0
 70
   128
  1
<> 
 13
51.287948597099998
 23
77.50235592060001
 33
0.0
 14
49.631169114499997
 24
63.502355920600003
 34
0.0
 50
270.0
  0
DIMENSION
  5
27D
  8
NOTES
  6
CONTINUOUS
 62
     1
  2
*D17
 10
172.13444304660001
 20
74.50235592060001
 30
0.0
 11
200.0844430466
 21
57.704879415000001
 31
0.0
 70
   128
  1
OVERALL HEIGHT AND \PCLEARANCE AREA WILL BE \PDETERMINED BY ASSEMBLY OF \PINSTALLER.  SEE CERTIFIED \PDRAWING FOR FURTHER DETAIL.
 13
159.66195644960001
 23
77.50235592060001
 33
0.0
 14
163.52002206340001
 24
74.50235592060001
 34
0.0
 50
270.0
  0
DIMENSION
  5
27E
  8
UNIT-DIM
  6
CONTINUOUS
 62
     7
  2
*D19
 10
39.777043155699999
 20
82.252355920599982
 30
0.0
 11
28.855287751700001
 21
98.051401858099993
 31
0.0
 70
   128
 13
48.305875130799997
 23
74.50235592060001
 33
0.0
 14
98.875000000000014
 24
82.252355920599982
 34
0.0
 50
90.0
  0
DIMENSION
  5
27F
  8
UNIT-DIM
  6
CONTINUOUS
 62
     7
  2
*D21
 10
48.0
 20
90.162919429000027
 30
0.0
 11
66.069189453100009
 21
88.662919428999999
 31
0.0
 70
   128
 13
98.875000000000014
 23
82.252355920599982
 33
0.0
 14
48.0
 24
76.754100770500003
 34
0.0
 50
180.0
  0
LINE
  5
280
  8
NOTES
  6
CONTINUOUS
 62
     1
 10
0.0
 20
0.0
 30
0.0
 11
48.0
 21
0.0
 31
0.0
  0
LINE
  5
281
  8
NOTES
  6
CONTINUOUS
 62
     1
 10
0.0
 20
0.0
 30
0.0
 11
0.0
 21
36.5
 31
0.0
  0
LINE
  5
282
  8
NOTES
  6
CONTINUOUS
 62
     1
 10
0.0
 20
4.0
 30
0.0
 11
48.0
 21
4.0
 31
0.0
  0
LINE
  5
283
  8
NOTES
  6
CONTINUOUS
 62
     1
 10
0.0
 20
4.5
 30
0.0
 11
48.0
 21
4.5
 31
0.0
  0
LINE
  5
284
  8
NOTES
  6
CONTINUOUS
 62
     1
 10
0.0
 20
8.5
 30
0.0
 11
48.0
 21
8.5
 31
0.0
  0
LINE
  5
285
  8
NOTES
  6
CONTINUOUS
 62
     1
 10
0.0
 20
12.5
 30
0.0
 11
48.0
 21
12.5
 31
0.0
  0
LINE
  5
286
  8
NOTES
  6
CONTINUOUS
 62
     1
 10
0.0
 20
16.5
 30
0.0
 11
48.0
 21
16.5
 31
0.0
  0
LINE
  5
287
  8
NOTES
  6
CONTINUOUS
 62
     1
 10
0.0
 20
20.5
 30
0.0
 11
48.0
 21
20.5
 31
0.0
  0
LINE
  5
288
  8
NOTES
  6
CONTINUOUS
 62
     1
 10
0.0
 20
24.5
 30
0.0
 11
48.0
 21
24.5
 31
0.0
  0
LINE
  5
289
  8
NOTES
  6
CONTINUOUS
 62
     1
 10
0.0
 20
28.5
 30
0.0
 11
48.0
 21
28.5
 31
0.0
  0
LINE
  5
28A
  8
NOTES
  6
CONTINUOUS
 62
     1
 10
0.0
 20
32.5
 30
0.0
 11
48.0
 21
32.5
 31
0.0
  0
LINE
  5
28B
  8
NOTES
  6
CONTINUOUS
 62
     1
 10
0.0
 20
36.5
 30
0.0
 11
48.0
 21
36.5
 31
0.0
  0
LINE
  5
28C
  8
NOTES
  6
CONTINUOUS
 62
     1
 10
16.0
 20
12.5
 30
0.0
 11
16.0
 21
36.5
 31
0.0
  0
LINE
  5
28D
  8
NOTES
  6
CONTINUOUS
 62
     1
 10
48.0
 20
0.0
 30
0.0
 11
48.0
 21
36.5
 31
0.0
  0
INSERT
  5
28E
  8
0
  2
*U23
 10
0.0
 20
0.0
 30
0.0
  0
INSERT
  5
28F
  8
0
  2
*U24
 10
0.0
 20
0.0
 30
0.0
  0
INSERT
  5
290
  8
0
  2
*U25
 10
0.0
 20
0.0
 30
0.0
  0
INSERT
  5
291
  8
0
  2
*U26
 10
0.0
 20
0.0
 30
0.0
  0
INSERT
  5
292
  8
0
  2
*U27
 10
0.0
 20
0.0
 30
0.0
  0
INSERT
  5
293
  8
0
  2
*U28
 10
0.0
 20
0.0
 30
0.0
  0
INSERT
  5
294
  8
0
  2
*U29
 10
0.0
 20
0.0
 30
0.0
  0
INSERT
  5
295
  8
0
  2
*U30
 10
0.0
 20
0.0
 30
0.0
  0
INSERT
  5
296
  8
0
  2
*U31
 10
0.0
 20
0.0
 30
0.0
  0
INSERT
  5
297
  8
0
  2
*U32
 10
0.0
 20
0.0
 30
0.0
  0
INSERT
  5
298
  8
0
  2
*U33
 10
0.0
 20
0.0
 30
0.0
  0
INSERT
  5
299
  8
0
  2
*U34
 10
0.0
 20
0.0
 30
0.0
  0
INSERT
  5
29A
  8
0
  2
*U35
 10
0.0
 20
0.0
 30
0.0
  0
INSERT
  5
29B
  8
0
  2
*U36
 10
0.0
 20
0.0
 30
0.0
  0
INSERT
  5
29C
  8
0
  2
*U37
 10
0.0
 20
0.0
 30
0.0
  0
INSERT
  5
29D
  8
0
  2
*U38
 10
0.0
 20
0.0
 30
0.0
  0
INSERT
  5
29E
  8
0
  2
*U39
 10
0.0
 20
0.0
 30
0.0
  0
INSERT
  5
29F
  8
0
  2
*U40
 10
0.0
 20
0.0
 30
0.0
  0
INSERT
  5
2A0
  8
0
  2
*U41
 10
0.0
 20
0.0
 30
0.0
  0
INSERT
  5
2A1
  8
0
  2
*U42
 10
0.0
 20
0.0
 30
0.0
  0
INSERT
  5
2A2
  8
0
  2
*U43
 10
0.0
 20
0.0
 30
0.0
  0
INSERT
  5
2A3
  8
0
  2
*U44
 10
0.0
 20
0.0
 30
0.0
  0
INSERT
  5
2A4
  8
0
  2
*U45
 10
0.0
 20
0.0
 30
0.0
  0
INSERT
  5
2A5
  8
0
  2
*U46
 10
0.0
 20
0.0
 30
0.0
  0
INSERT
  5
2A6
  8
0
  2
*U47
 10
0.0
 20
0.0
 30
0.0
  0
INSERT
  5
2A7
  8
0
  2
*U48
 10
0.0
 20
0.0
 30
0.0
  0
LINE
  5
2A8
  8
NOTES
  6
CONTINUOUS
 62
     1
 10
99.398462341300004
 20
82.723245989600002
 30
0.0
 11
105.57997635460001
 21
138.42586327940001
 31
0.0
  0
LINE
  5
2A9
  8
NOTES
  6
CONTINUOUS
 62
     1
 10
105.57997635460001
 20
138.42586327940001
 30
0.0
 11
112.630263408
 21
138.42586327940001
 31
0.0
  0
SOLID
  5
2AA
  8
NOTES
  6
CONTINUOUS
 62
     1
 10
99.094223946699998
 20
86.781563251700007
 30
0.0
 11
99.398462341300004
 21
82.723245989600002
 31
0.0
 12
100.5850720533
 22
86.616118629599995
 32
0.0
 13
100.5850720533
 23
86.616118629599995
 33
0.0
  0
LINE
  5
2AB
  8
SERVCLEAR
  6
DASHED
 62
     1
 10
0.0
 20
131.82335592059999
 30
0.0
 11
0.0
 21
74.50235592060001
 31
0.0
  0
LINE
  5
2AC
  8
0
  6
CONTINUOUS
 62
     7
 10
0.0
 20
0.0
 30
0.0
 11
0.0
 21
150.0
 31
0.0
  0
LINE
  5
2AD
  8
UNIT-SOL
  6
CONTINUOUS
 62
     7
 10
48.6518979513
 20
130.66767317829999
 30
0.0
 11
48.720194380300001
 21
130.73599400020001
 31
0.0
  0
LINE
  5
2AE
  8
UNIT-SOL
  6
CONTINUOUS
 62
     7
 10
48.677233295699999
 20
130.64234684920001
 30
0.0
 11
48.745529724699999
 21
130.7106676711
 31
0.0
  0
LINE
  5
2AF
  8
0
  6
CONTINUOUS
 62
     7
 10
0.0
 20
0.0
 30
0.0
 11
225.0
 21
0.0
 31
0.0
  0
LINE
  5
2B0
  8
UNIT-SOL
  6
CONTINUOUS
 62
     7
 10
48.754769627899989
 20
130.8195084088
 30
0.0
 11
48.754618385299999
 21
131.66942397770001
 31
0.0
  0
LINE
  5
2B1
  8
UNIT-SOL
  6
CONTINUOUS
 62
     7
 10
48.908701817000001
 20
130.7606325081
 30
0.0
 11
48.908699349399988
 21
130.77434145820001
 31
0.0
  0
LINE
  5
2B2
  8
SERVCLEAR
  6
DASHED
 62
     1
 10
48.0
 20
131.82335592059999
 30
0.0
 11
48.0
 21
74.50235592060001
 31
0.0
  0
LINE
  5
2B3
  8
UNIT-SOL
  6
CONTINUOUS
 62
     7
 10
48.0
 20
76.754100770500003
 30
0.0
 11
48.0
 21
76.006143565100004
 31
0.0
  0
LINE
  5
2B4
  8
UNIT-SOL
  6
CONTINUOUS
 62
     7
 10
48.118098506099997
 20
78.0661751735
 30
0.0
 11
48.118098506099997
 21
76.972807302700005
 31
0.0
  0
LINE
  5
2B5
  8
UNIT-SOL
  6
CONTINUOUS
 62
     7
 10
48.118098506099997
 20
75.787437033000003
 30
0.0
 11
48.118098506099997
 21
74.690132545400004
 31
0.0
  0
LINE
  5
2B6
  8
UNIT-SOL
  6
CONTINUOUS
 62
     7
 10
48.331463140499999
 20
78.283948818699983
 30
0.0
 11
48.331463140499999
 21
78.253951798199992
 31
0.0
  0
LINE
  5
2B7
  8
UNIT-SOL
  6
CONTINUOUS
 62
     7
 10
48.78338675720002
 20
130.7606094075
 30
0.0
 11
48.78338675720002
 21
78.403543239200005
 31
0.0
  0
LINE
  5
2B8
  8
UNIT-SOL
  6
CONTINUOUS
 62
     7
 10
48.813226313100003
 20
78.345942661199985
 30
0.0
 11
48.813226313100003
 21
78.403543239200005
 31
0.0
  0
POLYLINE
  5
2B9
  8
CURB-14
  6
DOT
 62
     6
 66
     1
 10
0.0
 20
0.0
 30
0.0
 40
0.0098425194
 41
0.0098425194
  0
VERTEX
  5
753
  8
CURB-14
  6
DOT
 62
     6
 10
51.287948597099998
 20
76.356552755500005
 30
0.0
  0
VERTEX
  5
754
  8
CURB-14
  6
DOT
 62
     6
 10
51.287948597099998
 20
77.50235592060001
 30
0.0
  0
SEQEND
  5
755
  8
CURB-14
  6
DOT
 62
     6
  0
POLYLINE
  5
2BD
  8
CURB-24
  6
DOT
 62
     6
 66
     1
 10
0.0
 20
0.0
 30
0.0
 40
0.0098425194
 41
0.0098425194
  0
VERTEX
  5
756
  8
CURB-24
  6
DOT
 62
     6
 10
51.287948597099998
 20
76.356552755500005
 30
0.0
  0
VERTEX
  5
757
  8
CURB-24
  6
DOT
 62
     6
 10
51.287948597099998
 20
77.50235592060001
 30
0.0
  0
SEQEND
  5
758
  8
CURB-24
  6
DOT
 62
     6
  0
POLYLINE
  5
2C1
  8
CURB-24
  6
CONTINUOUS
 62
     6
 66
     1
 10
0.0
 20
0.0
 30
0.0
 40
0.0118110236
 41
0.0118110236
  0
VERTEX
  5
759
  8
CURB-24
  6
CONTINUOUS
 62
     6
 10
53.037948597099991
 20
74.50235592060001
 30
0.0
  0
VERTEX
  5
75A
  8
CURB-24
  6
CONTINUOUS
 62
     6
 10
53.037948597099991
 20
53.504085167100001
 30
0.0
  0
SEQEND
  5
75B
  8
CURB-24
  6
CONTINUOUS
 62
     6
  0
POLYLINE
  5
2C5
  8
CURB-14
  6
CONTINUOUS
 62
     6
 66
     1
 10
0.0
 20
0.0
 30
0.0
 40
0.0118110236
 41
0.0118110236
  0
VERTEX
  5
75C
  8
CURB-14
  6
CONTINUOUS
 62
     6
 10
53.037948597099991
 20
74.50235592060001
 30
0.0
  0
VERTEX
  5
75D
  8
CURB-14
  6
CONTINUOUS
 62
     6
 10
53.037948597099991
 20
63.502355920600003
 30
0.0
  0
SEQEND
  5
75E
  8
CURB-14
  6
CONTINUOUS
 62
     6
  0
POLYLINE
  5
2C9
  8
CURB-14
  6
DOT
 62
     6
 66
     1
 10
0.0
 20
0.0
 30
0.0
 40
0.0098425194
 41
0.0098425194
  0
VERTEX
  5
75F
  8
CURB-14
  6
DOT
 62
     6
 10
53.037948597099991
 20
74.50235592060001
 30
0.0
  0
VERTEX
  5
760
  8
CURB-14
  6
DOT
 62
     6
 10
53.037948597099991
 20
76.355074583900006
 30
0.0
  0
SEQEND
  5
761
  8
CURB-14
  6
DOT
 62
     6
  0
POLYLINE
  5
2CD
  8
CURB-24
  6
DOT
 62
     6
 66
     1
 10
0.0
 20
0.0
 30
0.0
 40
0.0098425194
 41
0.0098425194
  0
VERTEX
  5
762
  8
CURB-24
  6
DOT
 62
     6
 10
53.037948597099991
 20
74.50235592060001
 30
0.0
  0
VERTEX
  5
763
  8
CURB-24
  6
DOT
 62
     6
 10
53.037948597099991
 20
76.355074583900006
 30
0.0
  0
SEQEND
  5
764
  8
CURB-24
  6
DOT
 62
     6
  0
LINE
  5
2D1
  8
UNIT-SOL
  6
CONTINUOUS
 62
     7
 10
48.0915793132
 20
76.908784307600001
 30
0.0
 11
48.044621424500001
 21
76.861826418900009
 31
0.0
  0
LINE
  5
2D2
  8
UNIT-SOL
  6
CONTINUOUS
 62
     7
 10
48.044621424500001
 20
75.8984179168
 30
0.0
 11
48.0915793132
 21
75.851460028100007
 31
0.0
  0
LINE
  5
2D3
  8
UNIT-SOL
  6
CONTINUOUS
 62
     7
 10
74.502092095199998
 20
78.253951798199992
 30
0.0
 11
74.502092095199998
 21
130.646942387
 31
0.0
  0
LINE
  5
2D4
  8
UNIT-SOL
  6
CONTINUOUS
 62
     7
 10
76.23420351819999
 20
78.253951798199992
 30
0.0
 11
76.23420351819999
 21
130.6472506165
 31
0.0
  0
LINE
  5
2D5
  8
UNIT-SOL
  6
CONTINUOUS
 62
     7
 10
163.0306811362
 20
130.76495592059999
 30
0.0
 11
163.03168113620001
 21
130.7654559206
 31
0.0
  0
LINE
  5
2D6
  8
UNIT-SOL
  6
CONTINUOUS
 62
     7
 10
163.0246811362
 20
130.76145592060001
 30
0.0
 11
163.02568113620001
 21
130.7619559206
 31
0.0
  0
LINE
  5
2D7
  8
UNIT-SOL
  6
CONTINUOUS
 62
     7
 10
163.02168113619999
 20
130.75915592059999
 30
0.0
 11
163.02268113619999
 21
130.75965592060001
 31
0.0
  0
LINE
  5
2D8
  8
UNIT-SOL
  6
CONTINUOUS
 62
     7
 10
163.0186811362
 20
130.75745592059999
 30
0.0
 11
163.01968113620001
 21
130.7579559205999
 31
0.0
  0
LINE
  5
2D9
  8
UNIT-SOL
  6
CONTINUOUS
 62
     7
 10
163.01668113619999
 20
130.75635592059999
 30
0.0
 11
163.0176811362
 21
130.7568559206
 31
0.0
  0
LINE
  5
2DA
  8
UNIT-SOL
  6
CONTINUOUS
 62
     7
 10
162.91968168470001
 20
130.66267619230001
 30
0.0
 11
163.01627279830001
 21
130.7310021687
 31
0.0
  0
LINE
  5
2DB
  8
UNIT-SOL
  6
CONTINUOUS
 62
     7
 10
163.12768113620001
 20
130.83495592060001
 30
0.0
 11
163.13468113619999
 21
130.8398559206
 31
0.0
  0
LINE
  5
2DC
  8
UNIT-SOL
  6
CONTINUOUS
 62
     7
 10
163.12268113619999
 20
130.83075592060001
 30
0.0
 11
163.12768113620001
 21
130.83425592059999
 31
0.0
  0
LINE
  5
2DD
  8
UNIT-SOL
  6
CONTINUOUS
 62
     7
 10
163.1186811362
 20
130.8278559206
 30
0.0
 11
163.12168113620001
 21
130.82995592060001
 31
0.0
  0
LINE
  5
2DE
  8
UNIT-SOL
  6
CONTINUOUS
 62
     7
 10
163.10968113620001
 20
130.8208559206
 30
0.0
 11
163.1186811362
 21
130.82715592060001
 31
0.0
  0
LINE
  5
2DF
  8
UNIT-SOL
  6
CONTINUOUS
 62
     7
 10
163.1006811362
 20
130.81385592059999
 30
0.0
 11
163.10968113620001
 21
130.8201559206
 31
0.0
  0
LINE
  5
2E0
  8
UNIT-SOL
  6
CONTINUOUS
 62
     7
 10
163.0906811362
 20
130.80625592059999
 30
0.0
 11
163.0956811362
 21
130.8097559206
 31
0.0
  0
LINE
  5
2E1
  8
UNIT-SOL
  6
CONTINUOUS
 62
     7
 10
163.0966811362
 20
130.81035592059999
 30
0.0
 11
163.1006811362
 21
130.8131559206
 31
0.0
  0
LINE
  5
2E2
  8
UNIT-SOL
  6
CONTINUOUS
 62
     7
 10
163.03968113619999
 20
130.77025592059999
 30
0.0
 11
163.04068113619999
 21
130.77095592059999
 31
0.0
  0
LINE
  5
2E3
  8
UNIT-SOL
  6
CONTINUOUS
 62
     7
 10
163.07968113620001
 20
130.79805592060001
 30
0.0
 11
163.08168113619999
 21
130.7994559206
 31
0.0
  0
LINE
  5
2E4
  8
UNIT-SOL
  6
CONTINUOUS
 62
     7
 10
163.05168113619999
 20
130.77835592060001
 30
0.0
 11
163.05268113619999
 21
130.7790559206
 31
0.0
  0
LINE
  5
2E5
  8
UNIT-SOL
  6
CONTINUOUS
 62
     7
 10
163.08268113619999
 20
130.80005592059999
 30
0.0
 11
163.08768113619999
 21
130.80355592059999
 31
0.0
  0
LINE
  5
2E6
  8
UNIT-SOL
  6
CONTINUOUS
 62
     7
 10
163.08868113619999
 20
130.8041559205999
 30
0.0
 11
163.0906811362
 21
130.8055559206
 31
0.0
  0
LINE
  5
2E7
  8
UNIT-SOL
  6
CONTINUOUS
 62
     7
 10
163.04568113619999
 20
130.7739559206
 30
0.0
 11
163.04668113619999
 21
130.7746559206
 31
0.0
  0
LINE
  5
2E8
  8
UNIT-SOL
  6
CONTINUOUS
 62
     7
 10
163.0546811362
 20
130.78025592060001
 30
0.0
 11
163.05568113620001
 21
130.78095592060001
 31
0.0
  0
LINE
  5
2E9
  8
UNIT-SOL
  6
CONTINUOUS
 62
     7
 10
163.06768113620001
 20
130.7893559206
 30
0.0
 11
163.06868113620001
 21
130.7900559206
 31
0.0
  0
LINE
  5
2EA
  8
UNIT-SOL
  6
CONTINUOUS
 62
     7
 10
163.06968113619999
 20
130.79065592059999
 30
0.0
 11
163.0716811362
 21
130.79205592060001
 31
0.0
  0
LINE
  5
2EB
  8
UNIT-SOL
  6
CONTINUOUS
 62
     7
 10
163.05768113619999
 20
130.78215592059999
 30
0.0
 11
163.05868113619999
 21
130.78285592060001
 31
0.0
  0
LINE
  5
2EC
  8
UNIT-SOL
  6
CONTINUOUS
 62
     7
 10
163.0726811362
 20
130.7926559206
 30
0.0
 11
163.07468113620001
 21
130.79405592059999
 31
0.0
  0
LINE
  5
2ED
  8
UNIT-SOL
  6
CONTINUOUS
 62
     7
 10
163.04968113620001
 20
130.7764559206
 30
0.0
 11
163.05068113620001
 21
130.77715592059999
 31
0.0
  0
LINE
  5
2EE
  8
UNIT-SOL
  6
CONTINUOUS
 62
     7
 10
163.0596811362
 20
130.78345592060001
 30
0.0
 11
163.0606811362
 21
130.7841559206
 31
0.0
  0
LINE
  5
2EF
  8
UNIT-SOL
  6
CONTINUOUS
 62
     7
 10
163.07568113619999
 20
130.79465592060001
 30
0.0
 11
163.0786811362
 21
130.79675592059999
 31
0.0
  0
LINE
  5
2F0
  8
UNIT-SOL
  6
CONTINUOUS
 62
     7
 10
163.06168113620001
 20
130.78475592059999
 30
0.0
 11
163.06268113620001
 21
130.78545592059999
 31
0.0
  0
LINE
  5
2F1
  8
UNIT-SOL
  6
CONTINUOUS
 62
     7
 10
163.06368113619999
 20
130.78605592060001
 30
0.0
 11
163.06468113619999
 21
130.7867559206
 31
0.0
  0
LINE
  5
2F2
  8
UNIT-SOL
  6
CONTINUOUS
 62
     7
 10
163.0656811362
 20
130.78735592059999
 30
0.0
 11
163.0666811362
 21
130.78805592059999
 31
0.0
  0
LINE
  5
2F3
  8
UNIT-SOL
  6
CONTINUOUS
 62
     7
 10
163.0956811362
 20
130.8097559206
 30
0.0
 11
163.0966811362
 21
130.81035592059999
 31
0.0
  0
LINE
  5
2F4
  8
UNIT-SOL
  6
CONTINUOUS
 62
     7
 10
163.08768113619999
 20
130.80355592059999
 30
0.0
 11
163.08868113619999
 21
130.8041559205999
 31
0.0
  0
LINE
  5
2F5
  8
UNIT-SOL
  6
CONTINUOUS
 62
     7
 10
163.08168113619999
 20
130.7994559206
 30
0.0
 11
163.08268113619999
 21
130.80005592059999
 31
0.0
  0
LINE
  5
2F6
  8
UNIT-SOL
  6
CONTINUOUS
 62
     7
 10
163.0786811362
 20
130.79675592059999
 30
0.0
 11
163.07968113620001
 21
130.79735592060001
 31
0.0
  0
LINE
  5
2F7
  8
UNIT-SOL
  6
CONTINUOUS
 62
     7
 10
163.07468113620001
 20
130.79405592059999
 30
0.0
 11
163.07568113619999
 21
130.79465592060001
 31
0.0
  0
LINE
  5
2F8
  8
UNIT-SOL
  6
CONTINUOUS
 62
     7
 10
163.0716811362
 20
130.79205592060001
 30
0.0
 11
163.0726811362
 21
130.7926559206
 31
0.0
  0
LINE
  5
2F9
  8
UNIT-SOL
  6
CONTINUOUS
 62
     7
 10
163.06868113620001
 20
130.7900559206
 30
0.0
 11
163.06968113619999
 21
130.79065592059999
 31
0.0
  0
LINE
  5
2FA
  8
UNIT-SOL
  6
CONTINUOUS
 62
     7
 10
163.0666811362
 20
130.7887559205999
 30
0.0
 11
163.06768113620001
 21
130.7893559206
 31
0.0
  0
LINE
  5
2FB
  8
UNIT-SOL
  6
CONTINUOUS
 62
     7
 10
163.06468113619999
 20
130.7867559206
 30
0.0
 11
163.0656811362
 21
130.78735592059999
 31
0.0
  0
LINE
  5
2FC
  8
UNIT-SOL
  6
CONTINUOUS
 62
     7
 10
163.06268113620001
 20
130.78545592059999
 30
0.0
 11
163.06368113619999
 21
130.78605592060001
 31
0.0
  0
LINE
  5
2FD
  8
UNIT-SOL
  6
CONTINUOUS
 62
     7
 10
163.0606811362
 20
130.7841559206
 30
0.0
 11
163.06168113620001
 21
130.78475592059999
 31
0.0
  0
LINE
  5
2FE
  8
UNIT-SOL
  6
CONTINUOUS
 62
     7
 10
163.05868113619999
 20
130.78285592060001
 30
0.0
 11
163.0596811362
 21
130.78345592060001
 31
0.0
  0
LINE
  5
2FF
  8
UNIT-SOL
  6
CONTINUOUS
 62
     7
 10
163.05568113620001
 20
130.78095592060001
 30
0.0
 11
163.05768113619999
 21
130.78215592059999
 31
0.0
  0
LINE
  5
300
  8
UNIT-SOL
  6
CONTINUOUS
 62
     7
 10
163.05268113619999
 20
130.7790559206
 30
0.0
 11
163.0546811362
 21
130.78025592060001
 31
0.0
  0
LINE
  5
301
  8
UNIT-SOL
  6
CONTINUOUS
 62
     7
 10
163.05068113620001
 20
130.77715592059999
 30
0.0
 11
163.05168113619999
 21
130.77775592059999
 31
0.0
  0
LINE
  5
302
  8
UNIT-SOL
  6
CONTINUOUS
 62
     7
 10
163.04668113619999
 20
130.7746559206
 30
0.0
 11
163.04968113620001
 21
130.7764559206
 31
0.0
  0
LINE
  5
303
  8
UNIT-SOL
  6
CONTINUOUS
 62
     7
 10
163.02568113620001
 20
130.7619559206
 30
0.0
 11
163.0306811362
 21
130.76495592059999
 31
0.0
  0
LINE
  5
304
  8
UNIT-SOL
  6
CONTINUOUS
 62
     7
 10
163.04068113619999
 20
130.77095592059999
 30
0.0
 11
163.04568113619999
 21
130.7739559206
 31
0.0
  0
LINE
  5
305
  8
UNIT-SOL
  6
CONTINUOUS
 62
     7
 10
163.03168113620001
 20
130.7654559206
 30
0.0
 11
163.03968113619999
 21
130.77025592059999
 31
0.0
  0
LINE
  5
306
  8
UNIT-SOL
  6
CONTINUOUS
 62
     7
 10
163.0176811362
 20
130.7568559206
 30
0.0
 11
163.0186811362
 21
130.75745592059999
 31
0.0
  0
LINE
  5
307
  8
UNIT-SOL
  6
CONTINUOUS
 62
     7
 10
163.01968113620001
 20
130.7579559205999
 30
0.0
 11
163.02168113619999
 21
130.75915592059999
 31
0.0
  0
LINE
  5
308
  8
UNIT-SOL
  6
CONTINUOUS
 62
     7
 10
163.02268113619999
 20
130.75965592060001
 30
0.0
 11
163.0246811362
 21
130.76085592059999
 31
0.0
  0
POLYLINE
  5
309
  8
CURB-24
  6
CONTINUOUS
 62
     6
 66
     1
 10
0.0
 20
0.0
 30
0.0
 40
0.0098425194
 41
0.0098425194
  0
VERTEX
  5
765
  8
CURB-24
  6
CONTINUOUS
 62
     6
 10
50.037948597099998
 20
53.504085167100001
 30
0.0
  0
VERTEX
  5
766
  8
CURB-24
  6
CONTINUOUS
 62
     6
 10
161.78794859710001
 20
53.504085167100001
 30
0.0
  0
SEQEND
  5
767
  8
CURB-24
  6
CONTINUOUS
 62
     6
  0
LINE
  5
30D
  8
UNIT-SOL
  6
CONTINUOUS
 62
     7
 10
48.9094811362
 20
130.75975592060001
 30
0.0
 11
48.909081136200001
 21
130.7602559206
 31
0.0
  0
LINE
  5
30E
  8
UNIT-SOL
  6
CONTINUOUS
 62
     7
 10
48.9124811362
 20
130.75645592059999
 30
0.0
 11
48.912081136200001
 21
130.75695592060001
 31
0.0
  0
LINE
  5
30F
  8
UNIT-SOL
  6
CONTINUOUS
 62
     7
 10
48.915581136199997
 20
130.75315592059999
 30
0.0
 11
48.915181136199998
 21
130.7536559205999
 31
0.0
  0
LINE
  5
310
  8
UNIT-SOL
  6
CONTINUOUS
 62
     7
 10
48.919381136200002
 20
130.7490559206
 30
0.0
 11
48.918981136199989
 21
130.74955592059999
 31
0.0
  0
LINE
  5
311
  8
UNIT-SOL
  6
CONTINUOUS
 62
     7
 10
48.925981136200001
 20
130.7421559206
 30
0.0
 11
48.925581136200002
 21
130.74265592059999
 31
0.0
  0
LINE
  5
312
  8
UNIT-SOL
  6
CONTINUOUS
 62
     7
 10
48.910181136200002
 20
130.75895592059999
 30
0.0
 11
48.909881136199999
 21
130.7593559206
 31
0.0
  0
LINE
  5
313
  8
UNIT-SOL
  6
CONTINUOUS
 62
     7
 10
48.912081136200001
 20
130.75695592060001
 30
0.0
 11
48.911781136199998
 21
130.75735592059999
 31
0.0
  0
LINE
  5
314
  8
UNIT-SOL
  6
CONTINUOUS
 62
     7
 10
48.9139811362
 20
130.75485592059999
 30
0.0
 11
48.913681136199997
 21
130.75525592060001
 31
0.0
  0
LINE
  5
315
  8
UNIT-SOL
  6
CONTINUOUS
 62
     7
 10
48.915881136199999
 20
130.75275592060001
 30
0.0
 11
48.915581136199997
 21
130.75315592059999
 31
0.0
  0
LINE
  5
316
  8
UNIT-SOL
  6
CONTINUOUS
 62
     7
 10
48.91858113619999
 20
130.7499559206
 30
0.0
 11
48.918281136200001
 21
130.75035592059999
 31
0.0
  0
LINE
  5
317
  8
UNIT-SOL
  6
CONTINUOUS
 62
     7
 10
48.921281136200001
 20
130.74705592059999
 30
0.0
 11
48.920981136199998
 21
130.7474559206
 31
0.0
  0
LINE
  5
318
  8
UNIT-SOL
  6
CONTINUOUS
 62
     7
 10
48.924781136199996
 20
130.74345592060001
 30
0.0
 11
48.924481136200001
 21
130.7438559206
 31
0.0
  0
LINE
  5
319
  8
UNIT-SOL
  6
CONTINUOUS
 62
     7
 10
48.9306811362
 20
130.73735592060001
 30
0.0
 11
48.930381136199998
 21
130.73775592059999
 31
0.0
  0
LINE
  5
31A
  8
UNIT-SOL
  6
CONTINUOUS
 62
     7
 10
103.3374134117
 20
89.542195867800004
 30
0.0
 11
103.3374134117
 21
93.542195867800004
 31
0.0
  0
LINE
  5
31B
  8
UNIT-SOL
  6
CONTINUOUS
 62
     7
 10
163.12168113620001
 20
130.82995592060001
 30
0.0
 11
163.12268113619999
 21
130.83075592060001
 31
0.0
  0
POLYLINE
  5
31C
  8
CURB-14
  6
CONTINUOUS
 62
     6
 66
     1
 10
0.0
 20
0.0
 30
0.0
 40
0.0098425194
 41
0.0098425194
  0
VERTEX
  5
768
  8
CURB-14
  6
CONTINUOUS
 62
     6
 10
50.037948597099998
 20
63.502355920600003
 30
0.0
  0
VERTEX
  5
769
  8
CURB-14
  6
CONTINUOUS
 62
     6
 10
161.78794859710001
 20
63.502355920600003
 30
0.0
  0
SEQEND
  5
76A
  8
CURB-14
  6
CONTINUOUS
 62
     6
  0
LINE
  5
320
  8
UNIT-SOL
  6
CONTINUOUS
 62
     7
 10
106.8374134117
 20
89.542195867800004
 30
0.0
 11
106.8374134117
 21
93.542195867800004
 31
0.0
  0
LINE
  5
321
  8
UNIT-SOL
  6
CONTINUOUS
 62
     7
 10
107.3374134117
 20
78.253951798199992
 30
0.0
 11
107.3374134117
 21
130.6527853188
 31
0.0
  0
LINE
  5
322
  8
UNIT-SOL
  6
CONTINUOUS
 62
     7
 10
109.0860586255
 20
130.6530964904
 30
0.0
 11
109.0860586255
 21
78.253951798199992
 31
0.0
  0
LINE
  5
323
  8
UNIT-SOL
  6
CONTINUOUS
 62
     7
 10
163.20478039720001
 20
130.75636655069999
 30
0.0
 11
163.17945406800001
 21
130.7310312063
 31
0.0
  0
LINE
  5
324
  8
UNIT-SOL
  6
CONTINUOUS
 62
     7
 10
163.27310130090001
 20
130.6880700399
 30
0.0
 11
163.2477749718
 21
130.66273469539999
 31
0.0
  0
LINE
  5
325
  8
SERVCLEAR
  6
DASHED
 62
     1
 10
199.82589719419991
 20
74.50235592060001
 30
0.0
 11
163.8258971942
 21
74.50235592060001
 31
0.0
  0
LINE
  5
326
  8
SERVCLEAR
  6
DASHED
 62
     1
 10
48.0
 20
74.50235592060001
 30
0.0
 11
0.0
 21
74.50235592060001
 31
0.0
  0
LINE
  5
327
  8
UNIT-SOL
  6
CONTINUOUS
 62
     7
 10
48.305875130799997
 20
74.50235592060001
 30
0.0
 11
163.52002206340001
 21
74.50235592060001
 31
0.0
  0
LINE
  5
328
  8
UNIT-SOL
  6
CONTINUOUS
 62
     7
 10
48.677233295699999
 20
130.64234684920001
 30
0.0
 11
48.6518979513
 21
130.66767317829999
 31
0.0
  0
LINE
  5
329
  8
UNIT-SOL
  6
CONTINUOUS
 62
     7
 10
48.745529724699999
 20
130.7106676711
 30
0.0
 11
48.720194380300001
 21
130.73599400020001
 31
0.0
  0
LINE
  5
32A
  8
UNIT-SOL
  6
CONTINUOUS
 62
     7
 10
48.932281136199997
 20
130.73575592060001
 30
0.0
 11
48.9306811362
 21
130.73735592060001
 31
0.0
  0
LINE
  5
32B
  8
UNIT-SOL
  6
CONTINUOUS
 62
     7
 10
48.93828113619999
 20
130.72985592059999
 30
0.0
 11
48.932681136199989
 21
130.7354559206
 31
0.0
  0
LINE
  5
32C
  8
UNIT-SOL
  6
CONTINUOUS
 62
     7
 10
48.930381136199998
 20
130.73775592059999
 30
0.0
 11
48.925981136200001
 21
130.7421559206
 31
0.0
  0
LINE
  5
32D
  8
UNIT-SOL
  6
CONTINUOUS
 62
     7
 10
48.925581136200002
 20
130.74265592059999
 30
0.0
 11
48.924781136199996
 21
130.74345592060001
 31
0.0
  0
LINE
  5
32E
  8
UNIT-SOL
  6
CONTINUOUS
 62
     7
 10
48.9415811362
 20
130.7267559206
 30
0.0
 11
48.938781136199999
 21
130.72955592060001
 31
0.0
  0
LINE
  5
32F
  8
UNIT-SOL
  6
CONTINUOUS
 62
     7
 10
48.924481136200001
 20
130.7438559206
 30
0.0
 11
48.921281136200001
 21
130.74705592059999
 31
0.0
  0
LINE
  5
330
  8
UNIT-SOL
  6
CONTINUOUS
 62
     7
 10
48.943581136200002
 20
130.72485592059999
 30
0.0
 11
48.941981136199992
 21
130.72645592059999
 31
0.0
  0
LINE
  5
331
  8
UNIT-SOL
  6
CONTINUOUS
 62
     7
 10
48.920981136199998
 20
130.7474559206
 30
0.0
 11
48.919381136200002
 21
130.7490559206
 31
0.0
  0
LINE
  5
332
  8
UNIT-SOL
  6
CONTINUOUS
 62
     7
 10
48.944481136199997
 20
130.72405592059999
 30
0.0
 11
48.944081136199991
 21
130.72445592060001
 31
0.0
  0
LINE
  5
333
  8
UNIT-SOL
  6
CONTINUOUS
 62
     7
 10
48.918981136199989
 20
130.74955592059999
 30
0.0
 11
48.91858113619999
 21
130.7499559206
 31
0.0
  0
LINE
  5
334
  8
UNIT-SOL
  6
CONTINUOUS
 62
     7
 10
48.946481136199999
 20
130.72215592059999
 30
0.0
 11
48.944881136199989
 21
130.72375592060001
 31
0.0
  0
LINE
  5
335
  8
UNIT-SOL
  6
CONTINUOUS
 62
     7
 10
48.918281136200001
 20
130.75035592059999
 30
0.0
 11
48.915881136199999
 21
130.75275592060001
 31
0.0
  0
LINE
  5
336
  8
UNIT-SOL
  6
CONTINUOUS
 62
     7
 10
48.948181136199999
 20
130.7206559206
 30
0.0
 11
48.947381136200001
 21
130.72145592059999
 31
0.0
  0
LINE
  5
337
  8
UNIT-SOL
  6
CONTINUOUS
 62
     7
 10
48.915181136199998
 20
130.7536559205999
 30
0.0
 11
48.9139811362
 21
130.75485592059999
 31
0.0
  0
LINE
  5
338
  8
UNIT-SOL
  6
CONTINUOUS
 62
     7
 10
48.949781136200002
 20
130.7191559206
 30
0.0
 11
48.948581136199991
 21
130.72035592060001
 31
0.0
  0
LINE
  5
339
  8
UNIT-SOL
  6
CONTINUOUS
 62
     7
 10
48.913681136199997
 20
130.75525592060001
 30
0.0
 11
48.9124811362
 21
130.75645592059999
 31
0.0
  0
LINE
  5
33A
  8
UNIT-SOL
  6
CONTINUOUS
 62
     7
 10
48.951481136200002
 20
130.71765592060001
 30
0.0
 11
48.950681136199982
 21
130.71845592060001
 31
0.0
  0
LINE
  5
33B
  8
UNIT-SOL
  6
CONTINUOUS
 62
     7
 10
48.911781136199998
 20
130.75735592059999
 30
0.0
 11
48.910181136200002
 21
130.75895592059999
 31
0.0
  0
LINE
  5
33C
  8
UNIT-SOL
  6
CONTINUOUS
 62
     7
 10
48.909881136199999
 20
130.7593559206
 30
0.0
 11
48.9094811362
 21
130.75975592060001
 31
0.0
  0
LINE
  5
33D
  8
UNIT-SOL
  6
CONTINUOUS
 62
     7
 10
48.953181136200001
 20
130.71615592059999
 30
0.0
 11
48.952381136199989
 21
130.71695592059999
 31
0.0
  0
LINE
  5
33E
  8
UNIT-SOL
  6
CONTINUOUS
 62
     7
 10
48.909081136200001
 20
130.7602559206
 30
0.0
 11
48.908681136200002
 21
130.76065592059999
 31
0.0
  0
LINE
  5
33F
  8
UNIT-SOL
  6
CONTINUOUS
 62
     7
 10
48.953981136199999
 20
130.71545592059999
 30
0.0
 11
48.9535811362
 21
130.71585592060001
 31
0.0
  0
LINE
  5
340
  8
UNIT-SOL
  6
CONTINUOUS
 62
     7
 10
48.955681136199999
 20
130.7139559206
 30
0.0
 11
48.954881136200001
 21
130.7147559206
 31
0.0
  0
LINE
  5
341
  8
UNIT-SOL
  6
CONTINUOUS
 62
     7
 10
48.956981136199992
 20
130.71285592059999
 30
0.0
 11
48.956181136200001
 21
130.71365592059999
 31
0.0
  0
LINE
  5
342
  8
UNIT-SOL
  6
CONTINUOUS
 62
     7
 10
48.9582811362
 20
130.71175592060001
 30
0.0
 11
48.957881136200001
 21
130.7121559206
 31
0.0
  0
LINE
  5
343
  8
UNIT-SOL
  6
CONTINUOUS
 62
     7
 10
48.959581136200001
 20
130.7106559206
 30
0.0
 11
48.959181136200002
 21
130.71105592059999
 31
0.0
  0
LINE
  5
344
  8
UNIT-SOL
  6
CONTINUOUS
 62
     7
 10
163.17362804300001
 20
78.253897998100001
 30
0.0
 11
163.61374191889999
 21
78.253976316399999
 31
0.0
  0
LINE
  5
345
  8
UNIT-SOL
  6
CONTINUOUS
 62
     7
 10
163.17362271900001
 20
78.283816285900002
 30
0.0
 11
163.61373659489999
 21
78.2838946042
 31
0.0
  0
POLYLINE
  5
346
  8
CURB-14
  6
DOT
 62
     6
 66
     1
 10
0.0
 20
0.0
 30
0.0
 40
0.0098425194
 41
0.0098425194
  0
VERTEX
  5
76B
  8
CURB-14
  6
DOT
 62
     6
 10
51.287948597099998
 20
77.50235592060001
 30
0.0
  0
VERTEX
  5
76C
  8
CURB-14
  6
DOT
 62
     6
 10
160.5379485970999
 20
77.50235592060001
 30
0.0
  0
SEQEND
  5
76D
  8
CURB-14
  6
DOT
 62
     6
  0
POLYLINE
  5
34A
  8
CURB-24
  6
DOT
 62
     6
 66
     1
 10
0.0
 20
0.0
 30
0.0
 40
0.0098425194
 41
0.0098425194
  0
VERTEX
  5
76E
  8
CURB-24
  6
DOT
 62
     6
 10
51.287948597099998
 20
77.50235592060001
 30
0.0
  0
VERTEX
  5
76F
  8
CURB-24
  6
DOT
 62
     6
 10
160.5379485970999
 20
77.50235592060001
 30
0.0
  0
SEQEND
  5
770
  8
CURB-24
  6
DOT
 62
     6
  0
LINE
  5
34E
  8
UNIT-SOL
  6
CONTINUOUS
 62
     7
 10
48.305875130799997
 20
78.253951798199992
 30
0.0
 11
163.52002206340001
 21
78.253951798199992
 31
0.0
  0
LINE
  5
34F
  8
UNIT-SOL
  6
CONTINUOUS
 62
     7
 10
48.751232470600002
 20
78.283948818699983
 30
0.0
 11
48.331463140499999
 21
78.283948818699983
 31
0.0
  0
LINE
  5
350
  8
UNIT-SOL
  6
CONTINUOUS
 62
     7
 10
48.813226313100003
 20
78.403543239200005
 30
0.0
 11
48.78338675720002
 21
78.403543239200005
 31
0.0
  0
POLYLINE
  5
351
  8
CURB-14
  6
DOT
 62
     6
 66
     1
 10
0.0
 20
0.0
 30
0.0
 40
0.0098425194
 41
0.0098425194
  0
VERTEX
  5
771
  8
CURB-14
  6
DOT
 62
     6
 10
160.5379485970999
 20
76.25235592060001
 30
0.0
  0
VERTEX
  5
772
  8
CURB-14
  6
DOT
 62
     6
 10
51.287948597099998
 20
76.356552755500005
 30
0.0
  0
SEQEND
  5
773
  8
CURB-14
  6
DOT
 62
     6
  0
POLYLINE
  5
355
  8
CURB-24
  6
DOT
 62
     6
 66
     1
 10
0.0
 20
0.0
 30
0.0
 40
0.0098425194
 41
0.0098425194
  0
VERTEX
  5
774
  8
CURB-24
  6
DOT
 62
     6
 10
160.5379485970999
 20
76.25235592060001
 30
0.0
  0
VERTEX
  5
775
  8
CURB-24
  6
DOT
 62
     6
 10
51.287948597099998
 20
76.356552755500005
 30
0.0
  0
SEQEND
  5
776
  8
CURB-24
  6
DOT
 62
     6
  0
LINE
  5
359
  8
UNIT-SOL
  6
CONTINUOUS
 62
     7
 10
48.959565750600007
 20
130.7107057588
 30
0.0
 11
49.056180890699991
 21
130.64241428299999
 31
0.0
  0
LINE
  5
35A
  8
UNIT-SOL
  6
CONTINUOUS
 62
     7
 10
48.958681136199999
 20
130.7114559206
 30
0.0
 11
48.9582811362
 21
130.71175592060001
 31
0.0
  0
LINE
  5
35B
  8
UNIT-SOL
  6
CONTINUOUS
 62
     7
 10
48.957381136199999
 20
130.71255592060001
 30
0.0
 11
48.956981136199992
 21
130.71285592059999
 31
0.0
  0
LINE
  5
35C
  8
UNIT-SOL
  6
CONTINUOUS
 62
     7
 10
48.954881136200001
 20
130.7147559206
 30
0.0
 11
48.954481136200002
 21
130.71505592060001
 31
0.0
  0
LINE
  5
35D
  8
UNIT-SOL
  6
CONTINUOUS
 62
     7
 10
48.9535811362
 20
130.71585592060001
 30
0.0
 11
48.953181136200001
 21
130.71615592059999
 31
0.0
  0
LINE
  5
35E
  8
UNIT-SOL
  6
CONTINUOUS
 62
     7
 10
48.951881136200001
 20
130.7173559206
 30
0.0
 11
48.951481136200002
 21
130.71765592060001
 31
0.0
  0
LINE
  5
35F
  8
UNIT-SOL
  6
CONTINUOUS
 62
     7
 10
48.950681136199982
 20
130.71845592060001
 30
0.0
 11
48.950281136199997
 21
130.71875592059999
 31
0.0
  0
LINE
  5
360
  8
UNIT-SOL
  6
CONTINUOUS
 62
     7
 10
48.948581136199991
 20
130.72035592060001
 30
0.0
 11
48.948181136199999
 21
130.7206559206
 31
0.0
  0
LINE
  5
361
  8
UNIT-SOL
  6
CONTINUOUS
 62
     7
 10
48.946881136199998
 20
130.72185592060001
 30
0.0
 11
48.946481136199999
 21
130.72215592059999
 31
0.0
  0
LINE
  5
362
  8
UNIT-SOL
  6
CONTINUOUS
 62
     7
 10
48.944881136199989
 20
130.72375592060001
 30
0.0
 11
48.944481136199997
 21
130.72405592059999
 31
0.0
  0
LINE
  5
363
  8
UNIT-SOL
  6
CONTINUOUS
 62
     7
 10
48.941981136199992
 20
130.72645592059999
 30
0.0
 11
48.9415811362
 21
130.7267559206
 31
0.0
  0
LINE
  5
364
  8
UNIT-SOL
  6
CONTINUOUS
 62
     7
 10
48.932681136199989
 20
130.7354559206
 30
0.0
 11
48.932281136199997
 21
130.73575592060001
 31
0.0
  0
LINE
  5
365
  8
UNIT-SOL
  6
CONTINUOUS
 62
     7
 10
48.959181136200002
 20
130.71105592059999
 30
0.0
 11
48.958681136199999
 21
130.7114559206
 31
0.0
  0
LINE
  5
366
  8
UNIT-SOL
  6
CONTINUOUS
 62
     7
 10
48.957881136200001
 20
130.7121559206
 30
0.0
 11
48.957381136199999
 21
130.71255592060001
 31
0.0
  0
LINE
  5
367
  8
UNIT-SOL
  6
CONTINUOUS
 62
     7
 10
48.954481136200002
 20
130.71505592060001
 30
0.0
 11
48.953981136199999
 21
130.71545592059999
 31
0.0
  0
LINE
  5
368
  8
UNIT-SOL
  6
CONTINUOUS
 62
     7
 10
48.952381136199989
 20
130.71695592059999
 30
0.0
 11
48.951881136200001
 21
130.7173559206
 31
0.0
  0
LINE
  5
369
  8
UNIT-SOL
  6
CONTINUOUS
 62
     7
 10
48.950281136199997
 20
130.71875592059999
 30
0.0
 11
48.949781136200002
 21
130.7191559206
 31
0.0
  0
LINE
  5
36A
  8
UNIT-SOL
  6
CONTINUOUS
 62
     7
 10
48.947381136200001
 20
130.72145592059999
 30
0.0
 11
48.946881136199998
 21
130.72185592060001
 31
0.0
  0
LINE
  5
36B
  8
UNIT-SOL
  6
CONTINUOUS
 62
     7
 10
48.944081136199991
 20
130.72445592060001
 30
0.0
 11
48.943581136200002
 21
130.72485592059999
 31
0.0
  0
LINE
  5
36C
  8
UNIT-SOL
  6
CONTINUOUS
 62
     7
 10
103.3374134117
 20
89.542195867800004
 30
0.0
 11
106.8374134117
 21
89.542195867800004
 31
0.0
  0
LINE
  5
36D
  8
UNIT-SOL
  6
CONTINUOUS
 62
     7
 10
48.956181136200001
 20
130.71365592059999
 30
0.0
 11
48.955681136199999
 21
130.7139559206
 31
0.0
  0
LINE
  5
36E
  8
UNIT-SOL
  6
CONTINUOUS
 62
     7
 10
48.938781136199999
 20
130.72955592060001
 30
0.0
 11
48.93828113619999
 21
130.72985592059999
 31
0.0
  0
LINE
  5
36F
  8
UNIT-SOL
  6
CONTINUOUS
 62
     7
 10
134.6890274276
 20
130.6576525429
 30
0.0
 11
134.6890274276
 21
78.253951798199992
 31
0.0
  0
LINE
  5
370
  8
UNIT-SOL
  6
CONTINUOUS
 62
     7
 10
136.4919979542
 20
130.6579733817
 30
0.0
 11
136.4919979542
 21
78.253951798199992
 31
0.0
  0
LINE
  5
371
  8
UNIT-SOL
  6
CONTINUOUS
 62
     7
 10
103.3374134117
 20
93.542195867800004
 30
0.0
 11
106.8374134117
 21
93.542195867800004
 31
0.0
  0
LINE
  5
372
  8
UNIT-SOL
  6
CONTINUOUS
 62
     7
 10
48.791481136199998
 20
130.8191559206
 30
0.0
 11
48.792481136200003
 21
130.81875592060001
 31
0.0
  0
LINE
  5
373
  8
UNIT-SOL
  6
CONTINUOUS
 62
     7
 10
48.801681136199988
 20
130.81515592060001
 30
0.0
 11
48.8026811362
 21
130.81475592059999
 31
0.0
  0
LINE
  5
374
  8
UNIT-SOL
  6
CONTINUOUS
 62
     7
 10
48.8118811362
 20
130.81115592059999
 30
0.0
 11
48.812881136199998
 21
130.8107559206
 31
0.0
  0
LINE
  5
375
  8
UNIT-SOL
  6
CONTINUOUS
 62
     7
 10
48.808181136199998
 20
130.81265592060001
 30
0.0
 11
48.809181136199989
 21
130.81225592059999
 31
0.0
  0
LINE
  5
376
  8
UNIT-SOL
  6
CONTINUOUS
 62
     7
 10
48.822081136199991
 20
130.8071559206
 30
0.0
 11
48.823081136199981
 21
130.80675592060001
 31
0.0
  0
LINE
  5
377
  8
UNIT-SOL
  6
CONTINUOUS
 62
     7
 10
48.818381136199982
 20
130.80865592059999
 30
0.0
 11
48.819381136200001
 21
130.8082559206
 31
0.0
  0
LINE
  5
378
  8
UNIT-SOL
  6
CONTINUOUS
 62
     7
 10
48.8257811362
 20
130.80575592060001
 30
0.0
 11
48.82678113619999
 21
130.80535592059999
 31
0.0
  0
LINE
  5
379
  8
UNIT-SOL
  6
CONTINUOUS
 62
     7
 10
48.8285811362
 20
130.8046559206
 30
0.0
 11
48.829581136199991
 21
130.80425592060001
 31
0.0
  0
LINE
  5
37A
  8
UNIT-SOL
  6
CONTINUOUS
 62
     7
 10
48.835081136199989
 20
130.8021559206
 30
0.0
 11
48.836081136200001
 21
130.80175592059999
 31
0.0
  0
LINE
  5
37B
  8
UNIT-SOL
  6
CONTINUOUS
 62
     7
 10
48.845281136200001
 20
130.79815592060001
 30
0.0
 11
48.846281136199991
 21
130.7977559206
 31
0.0
  0
LINE
  5
37C
  8
UNIT-SOL
  6
CONTINUOUS
 62
     7
 10
48.851781136200003
 20
130.79565592060001
 30
0.0
 11
48.852781136200001
 21
130.7952559206
 31
0.0
  0
LINE
  5
37D
  8
UNIT-SOL
  6
CONTINUOUS
 62
     7
 10
48.857381136199997
 20
130.7935559206
 30
0.0
 11
48.858381136200002
 21
130.79315592059999
 31
0.0
  0
LINE
  5
37E
  8
UNIT-SOL
  6
CONTINUOUS
 62
     7
 10
48.8638811362
 20
130.7910559206
 30
0.0
 11
48.864881136199998
 21
130.79065592059999
 31
0.0
  0
LINE
  5
37F
  8
UNIT-SOL
  6
CONTINUOUS
 62
     7
 10
48.8666811362
 20
130.78995592059999
 30
0.0
 11
48.867681136199998
 21
130.78955592060001
 31
0.0
  0
LINE
  5
380
  8
UNIT-SOL
  6
CONTINUOUS
 62
     7
 10
48.870381136200002
 20
130.7885559206
 30
0.0
 11
48.8713811362
 21
130.78815592059999
 31
0.0
  0
LINE
  5
381
  8
UNIT-SOL
  6
CONTINUOUS
 62
     7
 10
48.875981136199997
 20
130.78645592059999
 30
0.0
 11
48.876981136200001
 21
130.78605592060001
 31
0.0
  0
LINE
  5
382
  8
UNIT-SOL
  6
CONTINUOUS
 62
     7
 10
48.881581136199998
 20
130.78435592060001
 30
0.0
 11
48.882581136200002
 21
130.78395592059999
 31
0.0
  0
LINE
  5
383
  8
UNIT-SOL
  6
CONTINUOUS
 62
     7
 10
48.887181136199999
 20
130.78225592059999
 30
0.0
 11
48.888181136199997
 21
130.78185592060001
 31
0.0
  0
LINE
  5
384
  8
UNIT-SOL
  6
CONTINUOUS
 62
     7
 10
48.895581136200001
 20
130.7791559206
 30
0.0
 11
48.896581136199998
 21
130.77875592059999
 31
0.0
  0
LINE
  5
385
  8
UNIT-SOL
  6
CONTINUOUS
 62
     7
 10
48.903981136200002
 20
130.77605592059999
 30
0.0
 11
48.9049811362
 21
130.7756559206
 31
0.0
  0
LINE
  5
386
  8
UNIT-SOL
  6
CONTINUOUS
 62
     7
 10
48.906781136199989
 20
130.77505592060001
 30
0.0
 11
48.907781136200001
 21
130.7746559206
 31
0.0
  0
LINE
  5
387
  8
UNIT-SOL
  6
CONTINUOUS
 62
     7
 10
48.74578805689999
 20
130.77431246809999
 30
0.0
 11
48.778886829599998
 21
130.7606094075
 31
0.0
  0
LINE
  5
388
  8
UNIT-SOL
  6
CONTINUOUS
 62
     7
 10
48.790581136199997
 20
130.81955592060001
 30
0.0
 11
48.791481136199998
 21
130.8191559206
 31
0.0
  0
LINE
  5
389
  8
UNIT-SOL
  6
CONTINUOUS
 62
     7
 10
48.793381136199997
 20
130.8184559206
 30
0.0
 11
48.7951811362
 21
130.8176559206
 31
0.0
  0
LINE
  5
38A
  8
UNIT-SOL
  6
CONTINUOUS
 62
     7
 10
48.796181136199998
 20
130.81735592059999
 30
0.0
 11
48.797981136200001
 21
130.8165559206
 31
0.0
  0
LINE
  5
38B
  8
UNIT-SOL
  6
CONTINUOUS
 62
     7
 10
48.798981136199998
 20
130.8162559205999
 30
0.0
 11
48.7998811362
 21
130.8158559206
 31
0.0
  0
LINE
  5
38C
  8
UNIT-SOL
  6
CONTINUOUS
 62
     7
 10
48.800781136200001
 20
130.81555592059999
 30
0.0
 11
48.801681136199988
 21
130.81515592060001
 31
0.0
  0
LINE
  5
38D
  8
UNIT-SOL
  6
CONTINUOUS
 62
     7
 10
48.803581136200002
 20
130.81445592060001
 30
0.0
 11
48.805381136199998
 21
130.81365592060001
 31
0.0
  0
LINE
  5
38E
  8
UNIT-SOL
  6
CONTINUOUS
 62
     7
 10
48.806381136200002
 20
130.8133559206
 30
0.0
 11
48.807281136199997
 21
130.81295592059999
 31
0.0
  0
LINE
  5
38F
  8
UNIT-SOL
  6
CONTINUOUS
 62
     7
 10
48.809181136199989
 20
130.81225592059999
 30
0.0
 11
48.810081136199997
 21
130.81185592060001
 31
0.0
  0
LINE
  5
390
  8
UNIT-SOL
  6
CONTINUOUS
 62
     7
 10
48.810981136199999
 20
130.8115559206
 30
0.0
 11
48.8118811362
 21
130.81115592059999
 31
0.0
  0
LINE
  5
391
  8
UNIT-SOL
  6
CONTINUOUS
 62
     7
 10
48.813781136199999
 20
130.81045592059999
 30
0.0
 11
48.815581136200002
 21
130.80965592059999
 31
0.0
  0
LINE
  5
392
  8
UNIT-SOL
  6
CONTINUOUS
 62
     7
 10
48.8165811362
 20
130.80935592060001
 30
0.0
 11
48.817481136200001
 21
130.8089559206
 31
0.0
  0
LINE
  5
393
  8
UNIT-SOL
  6
CONTINUOUS
 62
     7
 10
48.819381136200001
 20
130.8082559206
 30
0.0
 11
48.820281136200002
 21
130.80785592059999
 31
0.0
  0
LINE
  5
394
  8
UNIT-SOL
  6
CONTINUOUS
 62
     7
 10
48.821181136199982
 20
130.80755592060001
 30
0.0
 11
48.822081136199991
 21
130.8071559206
 31
0.0
  0
LINE
  5
395
  8
UNIT-SOL
  6
CONTINUOUS
 62
     7
 10
48.823981136199983
 20
130.8064559206
 30
0.0
 11
48.824881136199998
 21
130.80605592059999
 31
0.0
  0
LINE
  5
396
  8
UNIT-SOL
  6
CONTINUOUS
 62
     7
 10
48.82678113619999
 20
130.80535592059999
 30
0.0
 11
48.827681136199999
 21
130.80495592060001
 31
0.0
  0
LINE
  5
397
  8
UNIT-SOL
  6
CONTINUOUS
 62
     7
 10
48.8304811362
 20
130.8039559206
 30
0.0
 11
48.832281136199988
 21
130.80315592060001
 31
0.0
  0
LINE
  5
398
  8
UNIT-SOL
  6
CONTINUOUS
 62
     7
 10
48.8332811362
 20
130.8028559206
 30
0.0
 11
48.834181136200002
 21
130.80245592060001
 31
0.0
  0
LINE
  5
399
  8
UNIT-SOL
  6
CONTINUOUS
 62
     7
 10
48.836081136200001
 20
130.80175592059999
 30
0.0
 11
48.836981136200002
 21
130.8013559206
 31
0.0
  0
LINE
  5
39A
  8
UNIT-SOL
  6
CONTINUOUS
 62
     7
 10
48.837881136199989
 20
130.80105592059999
 30
0.0
 11
48.838781136199991
 21
130.80065592060001
 31
0.0
  0
LINE
  5
39B
  8
UNIT-SOL
  6
CONTINUOUS
 62
     7
 10
48.839781136199989
 20
130.8003559206
 30
0.0
 11
48.841581136199991
 21
130.7995559206
 31
0.0
  0
LINE
  5
39C
  8
UNIT-SOL
  6
CONTINUOUS
 62
     7
 10
48.842581136199989
 20
130.79925592059999
 30
0.0
 11
48.843481136199991
 21
130.7988559206
 31
0.0
  0
LINE
  5
39D
  8
UNIT-SOL
  6
CONTINUOUS
 62
     7
 10
48.844381136199992
 20
130.79855592059999
 30
0.0
 11
48.845281136200001
 21
130.79815592060001
 31
0.0
  0
LINE
  5
39E
  8
UNIT-SOL
  6
CONTINUOUS
 62
     7
 10
48.847181136199993
 20
130.79745592059999
 30
0.0
 11
48.848081136200001
 21
130.7970559206
 31
0.0
  0
LINE
  5
39F
  8
UNIT-SOL
  6
CONTINUOUS
 62
     7
 10
48.849081136199992
 20
130.79675592059999
 30
0.0
 11
48.850881136200002
 21
130.79595592059999
 31
0.0
  0
LINE
  5
3A0
  8
UNIT-SOL
  6
CONTINUOUS
 62
     7
 10
48.853681136200002
 20
130.79495592059999
 30
0.0
 11
48.854581136199997
 21
130.7945559206
 31
0.0
  0
LINE
  5
3A1
  8
UNIT-SOL
  6
CONTINUOUS
 62
     7
 10
48.855581136200001
 20
130.79425592059999
 30
0.0
 11
48.856481136200003
 21
130.7938559205999
 31
0.0
  0
LINE
  5
3A2
  8
UNIT-SOL
  6
CONTINUOUS
 62
     7
 10
48.858381136200002
 20
130.79315592059999
 30
0.0
 11
48.859281136200003
 21
130.7927559206
 31
0.0
  0
LINE
  5
3A3
  8
UNIT-SOL
  6
CONTINUOUS
 62
     7
 10
48.860181136199998
 20
130.79245592059999
 30
0.0
 11
48.861081136199999
 21
130.79205592060001
 31
0.0
  0
LINE
  5
3A4
  8
UNIT-SOL
  6
CONTINUOUS
 62
     7
 10
48.862081136199997
 20
130.7917559206
 30
0.0
 11
48.862981136199998
 21
130.79135592060001
 31
0.0
  0
LINE
  5
3A5
  8
UNIT-SOL
  6
CONTINUOUS
 62
     7
 10
48.865781136199999
 20
130.79035592060001
 30
0.0
 11
48.8666811362
 21
130.78995592059999
 31
0.0
  0
LINE
  5
3A6
  8
UNIT-SOL
  6
CONTINUOUS
 62
     7
 10
48.8685811362
 20
130.7892559206
 30
0.0
 11
48.869481136200001
 21
130.78885592060001
 31
0.0
  0
LINE
  5
3A7
  8
UNIT-SOL
  6
CONTINUOUS
 62
     7
 10
48.872281136200002
 20
130.78785592060001
 30
0.0
 11
48.873181136200003
 21
130.7874559206
 31
0.0
  0
LINE
  5
3A8
  8
UNIT-SOL
  6
CONTINUOUS
 62
     7
 10
48.874181136200001
 20
130.78715592059999
 30
0.0
 11
48.875081136200002
 21
130.7867559206
 31
0.0
  0
LINE
  5
3A9
  8
UNIT-SOL
  6
CONTINUOUS
 62
     7
 10
48.877881136200003
 20
130.7857559206
 30
0.0
 11
48.878781136199997
 21
130.78535592060001
 31
0.0
  0
LINE
  5
3AA
  8
UNIT-SOL
  6
CONTINUOUS
 62
     7
 10
48.879781136200002
 20
130.7850559206
 30
0.0
 11
48.880681136200003
 21
130.78465592059999
 31
0.0
  0
LINE
  5
3AB
  8
UNIT-SOL
  6
CONTINUOUS
 62
     7
 10
48.883481136199997
 20
130.78365592060001
 30
0.0
 11
48.884381136199998
 21
130.7832559206
 31
0.0
  0
LINE
  5
3AC
  8
UNIT-SOL
  6
CONTINUOUS
 62
     7
 10
48.885381136200003
 20
130.78295592059999
 30
0.0
 11
48.886281136199997
 21
130.7825559206
 31
0.0
  0
LINE
  5
3AD
  8
UNIT-SOL
  6
CONTINUOUS
 62
     7
 10
48.889081136199998
 20
130.7815559206
 30
0.0
 11
48.889981136199999
 21
130.78115592060001
 31
0.0
  0
LINE
  5
3AE
  8
UNIT-SOL
  6
CONTINUOUS
 62
     7
 10
48.891881136199999
 20
130.78055592059999
 30
0.0
 11
48.8927811362
 21
130.78015592060001
 31
0.0
  0
LINE
  5
3AF
  8
UNIT-SOL
  6
CONTINUOUS
 62
     7
 10
48.893781136199998
 20
130.7798559206
 30
0.0
 11
48.894681136199999
 21
130.77945592059999
 31
0.0
  0
LINE
  5
3B0
  8
UNIT-SOL
  6
CONTINUOUS
 62
     7
 10
48.8974811362
 20
130.77845592060001
 30
0.0
 11
48.898381136200001
 21
130.7780559206
 31
0.0
  0
LINE
  5
3B1
  8
UNIT-SOL
  6
CONTINUOUS
 62
     7
 10
48.9002811362
 20
130.7774559206
 30
0.0
 11
48.901181136200002
 21
130.77705592059999
 31
0.0
  0
LINE
  5
3B2
  8
UNIT-SOL
  6
CONTINUOUS
 62
     7
 10
48.902181136199999
 20
130.77675592060001
 30
0.0
 11
48.903081136200001
 21
130.7763559206
 31
0.0
  0
LINE
  5
3B3
  8
UNIT-SOL
  6
CONTINUOUS
 62
     7
 10
163.7812757696
 20
75.8984179168
 30
0.0
 11
163.73431788100001
 21
75.851460028100007
 31
0.0
  0
LINE
  5
3B4
  8
UNIT-SOL
  6
CONTINUOUS
 62
     7
 10
76.3377365419
 20
110.8639805311
 30
0.0
 11
107.23781700489999
 21
110.8639805311
 31
0.0
  0
LINE
  5
3B5
  8
UNIT-SOL
  6
CONTINUOUS
 62
     7
 10
48.901181136200002
 20
130.77705592059999
 30
0.0
 11
48.902181136199999
 21
130.77675592060001
 31
0.0
  0
LINE
  5
3B6
  8
UNIT-SOL
  6
CONTINUOUS
 62
     7
 10
48.898381136200001
 20
130.7780559206
 30
0.0
 11
48.899381136199999
 21
130.77775592059999
 31
0.0
  0
LINE
  5
3B7
  8
UNIT-SOL
  6
CONTINUOUS
 62
     7
 10
48.8927811362
 20
130.78015592060001
 30
0.0
 11
48.893781136199998
 21
130.7798559206
 31
0.0
  0
LINE
  5
3B8
  8
UNIT-SOL
  6
CONTINUOUS
 62
     7
 10
48.889981136199999
 20
130.78115592060001
 30
0.0
 11
48.890981136199997
 21
130.7808559206
 31
0.0
  0
LINE
  5
3B9
  8
UNIT-SOL
  6
CONTINUOUS
 62
     7
 10
48.884381136199998
 20
130.7832559206
 30
0.0
 11
48.885381136200003
 21
130.78295592059999
 31
0.0
  0
LINE
  5
3BA
  8
UNIT-SOL
  6
CONTINUOUS
 62
     7
 10
48.878781136199997
 20
130.78535592060001
 30
0.0
 11
48.879781136200002
 21
130.7850559206
 31
0.0
  0
LINE
  5
3BB
  8
UNIT-SOL
  6
CONTINUOUS
 62
     7
 10
48.873181136200003
 20
130.7874559206
 30
0.0
 11
48.874181136200001
 21
130.78715592059999
 31
0.0
  0
LINE
  5
3BC
  8
UNIT-SOL
  6
CONTINUOUS
 62
     7
 10
48.861081136199999
 20
130.79205592060001
 30
0.0
 11
48.862081136199997
 21
130.7917559206
 31
0.0
  0
LINE
  5
3BD
  8
UNIT-SOL
  6
CONTINUOUS
 62
     7
 10
48.854581136199997
 20
130.7945559206
 30
0.0
 11
48.855581136200001
 21
130.79425592059999
 31
0.0
  0
LINE
  5
3BE
  8
UNIT-SOL
  6
CONTINUOUS
 62
     7
 10
48.848081136200001
 20
130.7970559206
 30
0.0
 11
48.849081136199992
 21
130.79675592059999
 31
0.0
  0
LINE
  5
3BF
  8
UNIT-SOL
  6
CONTINUOUS
 62
     7
 10
48.841581136199991
 20
130.7995559206
 30
0.0
 11
48.842581136199989
 21
130.79925592059999
 31
0.0
  0
LINE
  5
3C0
  8
UNIT-SOL
  6
CONTINUOUS
 62
     7
 10
48.838781136199991
 20
130.80065592060001
 30
0.0
 11
48.839781136199989
 21
130.8003559206
 31
0.0
  0
LINE
  5
3C1
  8
UNIT-SOL
  6
CONTINUOUS
 62
     7
 10
48.832281136199988
 20
130.80315592060001
 30
0.0
 11
48.8332811362
 21
130.8028559206
 31
0.0
  0
LINE
  5
3C2
  8
UNIT-SOL
  6
CONTINUOUS
 62
     7
 10
48.815581136200002
 20
130.80965592059999
 30
0.0
 11
48.8165811362
 21
130.80935592060001
 31
0.0
  0
LINE
  5
3C3
  8
UNIT-SOL
  6
CONTINUOUS
 62
     7
 10
48.805381136199998
 20
130.81365592060001
 30
0.0
 11
48.806381136200002
 21
130.8133559206
 31
0.0
  0
LINE
  5
3C4
  8
UNIT-SOL
  6
CONTINUOUS
 62
     7
 10
48.797981136200001
 20
130.8165559206
 30
0.0
 11
48.798981136199998
 21
130.8162559205999
 31
0.0
  0
LINE
  5
3C5
  8
UNIT-SOL
  6
CONTINUOUS
 62
     7
 10
48.7951811362
 20
130.8176559206
 30
0.0
 11
48.796181136199998
 21
130.81735592059999
 31
0.0
  0
LINE
  5
3C6
  8
UNIT-SOL
  6
CONTINUOUS
 62
     7
 10
48.907781136200001
 20
130.7746559206
 30
0.0
 11
48.908681136200002
 21
130.77435592059999
 31
0.0
  0
LINE
  5
3C7
  8
UNIT-SOL
  6
CONTINUOUS
 62
     7
 10
48.9049811362
 20
130.7756559206
 30
0.0
 11
48.906781136199989
 21
130.77505592060001
 31
0.0
  0
LINE
  5
3C8
  8
UNIT-SOL
  6
CONTINUOUS
 62
     7
 10
48.903081136200001
 20
130.7763559206
 30
0.0
 11
48.903981136200002
 21
130.77605592059999
 31
0.0
  0
LINE
  5
3C9
  8
UNIT-SOL
  6
CONTINUOUS
 62
     7
 10
48.899381136199999
 20
130.77775592059999
 30
0.0
 11
48.9002811362
 21
130.7774559206
 31
0.0
  0
LINE
  5
3CA
  8
UNIT-SOL
  6
CONTINUOUS
 62
     7
 10
48.896581136199998
 20
130.77875592059999
 30
0.0
 11
48.8974811362
 21
130.77845592060001
 31
0.0
  0
LINE
  5
3CB
  8
UNIT-SOL
  6
CONTINUOUS
 62
     7
 10
48.894681136199999
 20
130.77945592059999
 30
0.0
 11
48.895581136200001
 21
130.7791559206
 31
0.0
  0
LINE
  5
3CC
  8
UNIT-SOL
  6
CONTINUOUS
 62
     7
 10
48.890981136199997
 20
130.7808559206
 30
0.0
 11
48.891881136199999
 21
130.78055592059999
 31
0.0
  0
LINE
  5
3CD
  8
UNIT-SOL
  6
CONTINUOUS
 62
     7
 10
48.888181136199997
 20
130.78185592060001
 30
0.0
 11
48.889081136199998
 21
130.7815559206
 31
0.0
  0
LINE
  5
3CE
  8
UNIT-SOL
  6
CONTINUOUS
 62
     7
 10
48.886281136199997
 20
130.7825559206
 30
0.0
 11
48.887181136199999
 21
130.78225592059999
 31
0.0
  0
LINE
  5
3CF
  8
UNIT-SOL
  6
CONTINUOUS
 62
     7
 10
48.882581136200002
 20
130.78395592059999
 30
0.0
 11
48.883481136199997
 21
130.78365592060001
 31
0.0
  0
LINE
  5
3D0
  8
UNIT-SOL
  6
CONTINUOUS
 62
     7
 10
48.880681136200003
 20
130.78465592059999
 30
0.0
 11
48.881581136199998
 21
130.78435592060001
 31
0.0
  0
LINE
  5
3D1
  8
UNIT-SOL
  6
CONTINUOUS
 62
     7
 10
48.876981136200001
 20
130.78605592060001
 30
0.0
 11
48.877881136200003
 21
130.7857559206
 31
0.0
  0
LINE
  5
3D2
  8
UNIT-SOL
  6
CONTINUOUS
 62
     7
 10
48.875081136200002
 20
130.7867559206
 30
0.0
 11
48.875981136199997
 21
130.78645592059999
 31
0.0
  0
LINE
  5
3D3
  8
UNIT-SOL
  6
CONTINUOUS
 62
     7
 10
48.8713811362
 20
130.78815592059999
 30
0.0
 11
48.872281136200002
 21
130.78785592060001
 31
0.0
  0
LINE
  5
3D4
  8
UNIT-SOL
  6
CONTINUOUS
 62
     7
 10
48.869481136200001
 20
130.78885592060001
 30
0.0
 11
48.870381136200002
 21
130.7885559206
 31
0.0
  0
LINE
  5
3D5
  8
UNIT-SOL
  6
CONTINUOUS
 62
     7
 10
48.867681136199998
 20
130.78955592060001
 30
0.0
 11
48.8685811362
 21
130.7892559206
 31
0.0
  0
LINE
  5
3D6
  8
UNIT-SOL
  6
CONTINUOUS
 62
     7
 10
48.864881136199998
 20
130.79065592059999
 30
0.0
 11
48.865781136199999
 21
130.79035592060001
 31
0.0
  0
LINE
  5
3D7
  8
UNIT-SOL
  6
CONTINUOUS
 62
     7
 10
48.862981136199998
 20
130.79135592060001
 30
0.0
 11
48.8638811362
 21
130.7910559206
 31
0.0
  0
LINE
  5
3D8
  8
UNIT-SOL
  6
CONTINUOUS
 62
     7
 10
48.859281136200003
 20
130.7927559206
 30
0.0
 11
48.860181136199998
 21
130.79245592059999
 31
0.0
  0
LINE
  5
3D9
  8
UNIT-SOL
  6
CONTINUOUS
 62
     7
 10
48.856481136200003
 20
130.7938559205999
 30
0.0
 11
48.857381136199997
 21
130.7935559206
 31
0.0
  0
LINE
  5
3DA
  8
UNIT-SOL
  6
CONTINUOUS
 62
     7
 10
48.852781136200001
 20
130.7952559206
 30
0.0
 11
48.853681136200002
 21
130.79495592059999
 31
0.0
  0
LINE
  5
3DB
  8
UNIT-SOL
  6
CONTINUOUS
 62
     7
 10
48.850881136200002
 20
130.79595592059999
 30
0.0
 11
48.851781136200003
 21
130.79565592060001
 31
0.0
  0
LINE
  5
3DC
  8
UNIT-SOL
  6
CONTINUOUS
 62
     7
 10
48.846281136199991
 20
130.7977559206
 30
0.0
 11
48.847181136199993
 21
130.79745592059999
 31
0.0
  0
LINE
  5
3DD
  8
UNIT-SOL
  6
CONTINUOUS
 62
     7
 10
48.843481136199991
 20
130.7988559206
 30
0.0
 11
48.844381136199992
 21
130.79855592059999
 31
0.0
  0
LINE
  5
3DE
  8
UNIT-SOL
  6
CONTINUOUS
 62
     7
 10
48.836981136200002
 20
130.8013559206
 30
0.0
 11
48.837881136199989
 21
130.80105592059999
 31
0.0
  0
LINE
  5
3DF
  8
UNIT-SOL
  6
CONTINUOUS
 62
     7
 10
48.834181136200002
 20
130.80245592060001
 30
0.0
 11
48.835081136199989
 21
130.8021559206
 31
0.0
  0
LINE
  5
3E0
  8
UNIT-SOL
  6
CONTINUOUS
 62
     7
 10
48.829581136199991
 20
130.80425592060001
 30
0.0
 11
48.8304811362
 21
130.8039559206
 31
0.0
  0
LINE
  5
3E1
  8
UNIT-SOL
  6
CONTINUOUS
 62
     7
 10
48.827681136199999
 20
130.80495592060001
 30
0.0
 11
48.8285811362
 21
130.8046559206
 31
0.0
  0
LINE
  5
3E2
  8
UNIT-SOL
  6
CONTINUOUS
 62
     7
 10
48.824881136199998
 20
130.80605592059999
 30
0.0
 11
48.8257811362
 21
130.80575592060001
 31
0.0
  0
LINE
  5
3E3
  8
UNIT-SOL
  6
CONTINUOUS
 62
     7
 10
48.823081136199981
 20
130.80675592060001
 30
0.0
 11
48.823981136199983
 21
130.8064559206
 31
0.0
  0
LINE
  5
3E4
  8
UNIT-SOL
  6
CONTINUOUS
 62
     7
 10
48.820281136200002
 20
130.80785592059999
 30
0.0
 11
48.821181136199982
 21
130.80755592060001
 31
0.0
  0
LINE
  5
3E5
  8
UNIT-SOL
  6
CONTINUOUS
 62
     7
 10
48.817481136200001
 20
130.8089559206
 30
0.0
 11
48.818381136199982
 21
130.80865592059999
 31
0.0
  0
LINE
  5
3E6
  8
UNIT-SOL
  6
CONTINUOUS
 62
     7
 10
48.812881136199998
 20
130.8107559206
 30
0.0
 11
48.813781136199999
 21
130.81045592059999
 31
0.0
  0
LINE
  5
3E7
  8
UNIT-SOL
  6
CONTINUOUS
 62
     7
 10
48.810081136199997
 20
130.81185592060001
 30
0.0
 11
48.810981136199999
 21
130.8115559206
 31
0.0
  0
LINE
  5
3E8
  8
UNIT-SOL
  6
CONTINUOUS
 62
     7
 10
48.807281136199997
 20
130.81295592059999
 30
0.0
 11
48.808181136199998
 21
130.81265592060001
 31
0.0
  0
LINE
  5
3E9
  8
UNIT-SOL
  6
CONTINUOUS
 62
     7
 10
48.8026811362
 20
130.81475592059999
 30
0.0
 11
48.803581136200002
 21
130.81445592060001
 31
0.0
  0
LINE
  5
3EA
  8
UNIT-SOL
  6
CONTINUOUS
 62
     7
 10
48.7998811362
 20
130.8158559206
 30
0.0
 11
48.800781136200001
 21
130.81555592059999
 31
0.0
  0
LINE
  5
3EB
  8
UNIT-SOL
  6
CONTINUOUS
 62
     7
 10
48.792481136200003
 20
130.81875592060001
 30
0.0
 11
48.793381136199997
 21
130.8184559206
 31
0.0
  0
LINE
  5
3EC
  8
UNIT-SOL
  6
CONTINUOUS
 62
     7
 10
163.73431788100001
 20
76.908784307600001
 30
0.0
 11
163.7812757696
 21
76.861826418900009
 31
0.0
  0
POLYLINE
  5
3ED
  8
CURB-24
  6
CONTINUOUS
 62
     6
 66
     1
 10
0.0
 20
0.0
 30
0.0
 40
0.0118110236
 41
0.0118110236
  0
VERTEX
  5
777
  8
CURB-24
  6
CONTINUOUS
 62
     6
 10
158.78794859710001
 20
74.50235592060001
 30
0.0
  0
VERTEX
  5
778
  8
CURB-24
  6
CONTINUOUS
 62
     6
 10
158.78794859710001
 20
53.504085167100001
 30
0.0
  0
SEQEND
  5
779
  8
CURB-24
  6
CONTINUOUS
 62
     6
  0
POLYLINE
  5
3F1
  8
CURB-14
  6
CONTINUOUS
 62
     6
 66
     1
 10
0.0
 20
0.0
 30
0.0
 40
0.0118110236
 41
0.0118110236
  0
VERTEX
  5
77A
  8
CURB-14
  6
CONTINUOUS
 62
     6
 10
158.78794859710001
 20
74.50235592060001
 30
0.0
  0
VERTEX
  5
77B
  8
CURB-14
  6
CONTINUOUS
 62
     6
 10
158.78794859710001
 20
63.502355920600003
 30
0.0
  0
SEQEND
  5
77C
  8
CURB-14
  6
CONTINUOUS
 62
     6
  0
POLYLINE
  5
3F5
  8
CURB-14
  6
DOT
 62
     6
 66
     1
 10
0.0
 20
0.0
 30
0.0
 40
0.0098425194
 41
0.0098425194
  0
VERTEX
  5
77D
  8
CURB-14
  6
DOT
 62
     6
 10
158.78794859710001
 20
74.50235592060001
 30
0.0
  0
VERTEX
  5
77E
  8
CURB-14
  6
DOT
 62
     6
 10
158.78794859710001
 20
76.254024977499981
 30
0.0
  0
SEQEND
  5
77F
  8
CURB-14
  6
DOT
 62
     6
  0
POLYLINE
  5
3F9
  8
CURB-24
  6
DOT
 62
     6
 66
     1
 10
0.0
 20
0.0
 30
0.0
 40
0.0098425194
 41
0.0098425194
  0
VERTEX
  5
780
  8
CURB-24
  6
DOT
 62
     6
 10
158.78794859710001
 20
74.50235592060001
 30
0.0
  0
VERTEX
  5
781
  8
CURB-24
  6
DOT
 62
     6
 10
158.78794859710001
 20
76.254024977499981
 30
0.0
  0
SEQEND
  5
782
  8
CURB-24
  6
DOT
 62
     6
  0
POLYLINE
  5
3FD
  8
CURB-14
  6
DOT
 62
     6
 66
     1
 10
0.0
 20
0.0
 30
0.0
 40
0.0098425194
 41
0.0098425194
  0
VERTEX
  5
783
  8
CURB-14
  6
DOT
 62
     6
 10
160.5379485970999
 20
77.50235592060001
 30
0.0
  0
VERTEX
  5
784
  8
CURB-14
  6
DOT
 62
     6
 10
160.5379485970999
 20
76.25235592060001
 30
0.0
  0
SEQEND
  5
785
  8
CURB-14
  6
DOT
 62
     6
  0
POLYLINE
  5
401
  8
CURB-24
  6
DOT
 62
     6
 66
     1
 10
0.0
 20
0.0
 30
0.0
 40
0.0098425194
 41
0.0098425194
  0
VERTEX
  5
786
  8
CURB-24
  6
DOT
 62
     6
 10
160.5379485970999
 20
77.50235592060001
 30
0.0
  0
VERTEX
  5
787
  8
CURB-24
  6
DOT
 62
     6
 10
160.5379485970999
 20
76.25235592060001
 30
0.0
  0
SEQEND
  5
788
  8
CURB-24
  6
DOT
 62
     6
  0
LINE
  5
405
  8
UNIT-SOL
  6
CONTINUOUS
 62
     7
 10
163.0162682692
 20
130.75633300550001
 30
0.0
 11
163.01627279830001
 21
130.7310021687
 31
0.0
  0
LINE
  5
406
  8
UNIT-SOL
  6
CONTINUOUS
 62
     7
 10
163.14369910729999
 20
78.313729249600001
 30
0.0
 11
163.13435211570001
 21
130.8396256062
 31
0.0
  0
LINE
  5
407
  8
UNIT-SOL
  6
CONTINUOUS
 62
     7
 10
163.13435194249999
 20
130.8398622743
 30
0.0
 11
163.1342006998
 21
131.68977829249999
 31
0.0
  0
LINE
  5
408
  8
UNIT-SOL
  6
CONTINUOUS
 62
     7
 10
163.17002394319999
 20
131.68978421750001
 30
0.0
 11
163.17017518579999
 21
130.8398686486
 31
0.0
  0
LINE
  5
409
  8
UNIT-SOL
  6
CONTINUOUS
 62
     7
 10
163.47595488990001
 20
78.283870085900006
 30
0.0
 11
163.47596021390001
 21
78.253951798199992
 31
0.0
  0
LINE
  5
40A
  8
UNIT-SOL
  6
CONTINUOUS
 62
     7
 10
163.61373659489999
 20
78.2838946042
 30
0.0
 11
163.61374191889999
 21
78.253976316399999
 31
0.0
  0
LINE
  5
40B
  8
UNIT-SOL
  6
CONTINUOUS
 62
     7
 10
162.09496675630001
 20
130.6625294342
 30
0.0
 11
162.09496675630001
 21
78.253951798199992
 31
0.0
  0
LINE
  5
40C
  8
UNIT-SOL
  6
CONTINUOUS
 62
     7
 10
163.0186811362
 20
131.8435559205999
 30
0.0
 11
163.0186811362
 21
131.84365592060001
 31
0.0
  0
LINE
  5
40D
  8
UNIT-SOL
  6
CONTINUOUS
 62
     7
 10
163.01968113620001
 20
131.84345592060001
 30
0.0
 11
163.01968113620001
 21
131.8435559205999
 31
0.0
  0
LINE
  5
40E
  8
UNIT-SOL
  6
CONTINUOUS
 62
     7
 10
163.02068113620001
 20
131.8433559206
 30
0.0
 11
163.02068113620001
 21
131.84345592060001
 31
0.0
  0
LINE
  5
40F
  8
UNIT-SOL
  6
CONTINUOUS
 62
     7
 10
163.02168113619999
 20
131.8431559206
 30
0.0
 11
163.02168113619999
 21
131.8432559206
 31
0.0
  0
LINE
  5
410
  8
UNIT-SOL
  6
CONTINUOUS
 62
     7
 10
163.02268113619999
 20
131.84305592059999
 30
0.0
 11
163.02268113619999
 21
131.8431559206
 31
0.0
  0
LINE
  5
411
  8
UNIT-SOL
  6
CONTINUOUS
 62
     7
 10
163.0236811362
 20
131.84285592059999
 30
0.0
 11
163.0236811362
 21
131.84295592059999
 31
0.0
  0
LINE
  5
412
  8
UNIT-SOL
  6
CONTINUOUS
 62
     7
 10
163.0246811362
 20
130.76085592059999
 30
0.0
 11
163.0246811362
 21
130.76145592060001
 31
0.0
  0
LINE
  5
413
  8
UNIT-SOL
  6
CONTINUOUS
 62
     7
 10
163.0246811362
 20
131.84255592060001
 30
0.0
 11
163.0246811362
 21
131.84265592060001
 31
0.0
  0
LINE
  5
414
  8
UNIT-SOL
  6
CONTINUOUS
 62
     7
 10
163.02568113620001
 20
131.8422559206
 30
0.0
 11
163.02568113620001
 21
131.8424559206
 31
0.0
  0
LINE
  5
415
  8
UNIT-SOL
  6
CONTINUOUS
 62
     7
 10
163.02668113620001
 20
131.84205592059999
 30
0.0
 11
163.02668113620001
 21
131.84215592059999
 31
0.0
  0
LINE
  5
416
  8
UNIT-SOL
  6
CONTINUOUS
 62
     7
 10
163.02868113619999
 20
131.8415559206
 30
0.0
 11
163.02868113619999
 21
131.8416559206
 31
0.0
  0
LINE
  5
417
  8
UNIT-SOL
  6
CONTINUOUS
 62
     7
 10
163.0296811362
 20
131.84115592059999
 30
0.0
 11
163.0296811362
 21
131.84135592059999
 31
0.0
  0
LINE
  5
418
  8
UNIT-SOL
  6
CONTINUOUS
 62
     7
 10
163.0306811362
 20
131.8407559206
 30
0.0
 11
163.0306811362
 21
131.84095592060001
 31
0.0
  0
LINE
  5
419
  8
UNIT-SOL
  6
CONTINUOUS
 62
     7
 10
163.03168113620001
 20
131.84035592059999
 30
0.0
 11
163.03168113620001
 21
131.8405559206
 31
0.0
  0
LINE
  5
41A
  8
UNIT-SOL
  6
CONTINUOUS
 62
     7
 10
163.03268113620001
 20
131.8399559206
 30
0.0
 11
163.03268113620001
 21
131.84015592060001
 31
0.0
  0
LINE
  5
41B
  8
UNIT-SOL
  6
CONTINUOUS
 62
     7
 10
163.03368113619999
 20
131.83945592059999
 30
0.0
 11
163.03368113619999
 21
131.8397559206
 31
0.0
  0
LINE
  5
41C
  8
UNIT-SOL
  6
CONTINUOUS
 62
     7
 10
163.03468113619999
 20
131.8389559206
 30
0.0
 11
163.03468113619999
 21
131.8392559205999
 31
0.0
  0
LINE
  5
41D
  8
UNIT-SOL
  6
CONTINUOUS
 62
     7
 10
163.0356811362
 20
131.83825592060001
 30
0.0
 11
163.0356811362
 21
131.83875592059999
 31
0.0
  0
LINE
  5
41E
  8
UNIT-SOL
  6
CONTINUOUS
 62
     7
 10
163.0366811362
 20
131.83775592059999
 30
0.0
 11
163.0366811362
 21
131.8379559206
 31
0.0
  0
LINE
  5
41F
  8
UNIT-SOL
  6
CONTINUOUS
 62
     7
 10
163.03768113620001
 20
131.8371559206
 30
0.0
 11
163.03768113620001
 21
131.83745592060001
 31
0.0
  0
LINE
  5
420
  8
UNIT-SOL
  6
CONTINUOUS
 62
     7
 10
163.03868113620001
 20
131.83655592060001
 30
0.0
 11
163.03868113620001
 21
131.83685592059999
 31
0.0
  0
LINE
  5
421
  8
UNIT-SOL
  6
CONTINUOUS
 62
     7
 10
163.03968113619999
 20
131.83595592059999
 30
0.0
 11
163.03968113619999
 21
131.8362559206
 31
0.0
  0
LINE
  5
422
  8
UNIT-SOL
  6
CONTINUOUS
 62
     7
 10
163.04068113619999
 20
131.83535592059999
 30
0.0
 11
163.04068113619999
 21
131.8356559206
 31
0.0
  0
LINE
  5
423
  8
UNIT-SOL
  6
CONTINUOUS
 62
     7
 10
163.0416811362
 20
131.8347559206
 30
0.0
 11
163.0416811362
 21
131.83505592060001
 31
0.0
  0
LINE
  5
424
  8
UNIT-SOL
  6
CONTINUOUS
 62
     7
 10
163.0426811362
 20
131.83415592060001
 30
0.0
 11
163.0426811362
 21
131.83445592059999
 31
0.0
  0
LINE
  5
425
  8
UNIT-SOL
  6
CONTINUOUS
 62
     7
 10
163.04368113620001
 20
131.83345592059999
 30
0.0
 11
163.04368113620001
 21
131.8337559206
 31
0.0
  0
LINE
  5
426
  8
UNIT-SOL
  6
CONTINUOUS
 62
     7
 10
163.04468113620001
 20
131.83245592060001
 30
0.0
 11
163.04468113620001
 21
131.83315592060001
 31
0.0
  0
LINE
  5
427
  8
UNIT-SOL
  6
CONTINUOUS
 62
     7
 10
163.04568113619999
 20
131.83175592059999
 30
0.0
 11
163.04568113619999
 21
131.8320559206
 31
0.0
  0
LINE
  5
428
  8
UNIT-SOL
  6
CONTINUOUS
 62
     7
 10
163.04668113619999
 20
131.83105592059999
 30
0.0
 11
163.04668113619999
 21
131.8313559206
 31
0.0
  0
LINE
  5
429
  8
UNIT-SOL
  6
CONTINUOUS
 62
     7
 10
163.0476811362
 20
131.8302559206
 30
0.0
 11
163.0476811362
 21
131.83065592060001
 31
0.0
  0
LINE
  5
42A
  8
UNIT-SOL
  6
CONTINUOUS
 62
     7
 10
163.0486811362
 20
131.82915592059999
 30
0.0
 11
163.0486811362
 21
131.82995592060001
 31
0.0
  0
LINE
  5
42B
  8
UNIT-SOL
  6
CONTINUOUS
 62
     7
 10
163.04968113620001
 20
131.82835592059999
 30
0.0
 11
163.04968113620001
 21
131.8287559206
 31
0.0
  0
LINE
  5
42C
  8
UNIT-SOL
  6
CONTINUOUS
 62
     7
 10
163.05068113620001
 20
131.82765592059999
 30
0.0
 11
163.05068113620001
 21
131.82805592060001
 31
0.0
  0
LINE
  5
42D
  8
UNIT-SOL
  6
CONTINUOUS
 62
     7
 10
163.05168113619999
 20
130.77775592059999
 30
0.0
 11
163.05168113619999
 21
130.77835592060001
 31
0.0
  0
LINE
  5
42E
  8
UNIT-SOL
  6
CONTINUOUS
 62
     7
 10
163.05168113619999
 20
131.82645592060001
 30
0.0
 11
163.05168113619999
 21
131.82725592060001
 31
0.0
  0
LINE
  5
42F
  8
UNIT-SOL
  6
CONTINUOUS
 62
     7
 10
163.05268113619999
 20
131.82565592060001
 30
0.0
 11
163.05268113619999
 21
131.8260559206
 31
0.0
  0
LINE
  5
430
  8
UNIT-SOL
  6
CONTINUOUS
 62
     7
 10
163.0536811362
 20
131.82485592059999
 30
0.0
 11
163.0536811362
 21
131.8252559206
 31
0.0
  0
LINE
  5
431
  8
UNIT-SOL
  6
CONTINUOUS
 62
     7
 10
163.0546811362
 20
131.8235559206
 30
0.0
 11
163.0546811362
 21
131.8243559206
 31
0.0
  0
LINE
  5
432
  8
UNIT-SOL
  6
CONTINUOUS
 62
     7
 10
163.05568113620001
 20
131.8227559206
 30
0.0
 11
163.05568113620001
 21
131.82315592059999
 31
0.0
  0
LINE
  5
433
  8
UNIT-SOL
  6
CONTINUOUS
 62
     7
 10
163.05668113620001
 20
131.82145592059999
 30
0.0
 11
163.05668113620001
 21
131.82235592059999
 31
0.0
  0
LINE
  5
434
  8
UNIT-SOL
  6
CONTINUOUS
 62
     7
 10
163.05768113619999
 20
131.82055592059999
 30
0.0
 11
163.05768113619999
 21
131.8210559206
 31
0.0
  0
LINE
  5
435
  8
UNIT-SOL
  6
CONTINUOUS
 62
     7
 10
163.05868113619999
 20
131.8192559206
 30
0.0
 11
163.05868113619999
 21
131.8201559206
 31
0.0
  0
LINE
  5
436
  8
UNIT-SOL
  6
CONTINUOUS
 62
     7
 10
163.0596811362
 20
131.8184559206
 30
0.0
 11
163.0596811362
 21
131.81885592059999
 31
0.0
  0
LINE
  5
437
  8
UNIT-SOL
  6
CONTINUOUS
 62
     7
 10
163.0606811362
 20
131.81715592059999
 30
0.0
 11
163.0606811362
 21
131.81795592060001
 31
0.0
  0
LINE
  5
438
  8
UNIT-SOL
  6
CONTINUOUS
 62
     7
 10
163.06168113620001
 20
131.8157559206
 30
0.0
 11
163.06168113620001
 21
131.8166559206
 31
0.0
  0
LINE
  5
439
  8
UNIT-SOL
  6
CONTINUOUS
 62
     7
 10
163.06268113620001
 20
131.8148559206
 30
0.0
 11
163.06268113620001
 21
131.81535592060001
 31
0.0
  0
LINE
  5
43A
  8
UNIT-SOL
  6
CONTINUOUS
 62
     7
 10
163.06368113619999
 20
131.81355592060001
 30
0.0
 11
163.06368113619999
 21
131.81445592060001
 31
0.0
  0
LINE
  5
43B
  8
UNIT-SOL
  6
CONTINUOUS
 62
     7
 10
163.06468113619999
 20
131.81215592059999
 30
0.0
 11
163.06468113619999
 21
131.81305592059999
 31
0.0
  0
LINE
  5
43C
  8
UNIT-SOL
  6
CONTINUOUS
 62
     7
 10
163.0656811362
 20
131.81085592060001
 30
0.0
 11
163.0656811362
 21
131.81175592060001
 31
0.0
  0
LINE
  5
43D
  8
UNIT-SOL
  6
CONTINUOUS
 62
     7
 10
163.0666811362
 20
130.78805592059999
 30
0.0
 11
163.0666811362
 21
130.7887559205999
 31
0.0
  0
LINE
  5
43E
  8
UNIT-SOL
  6
CONTINUOUS
 62
     7
 10
163.0666811362
 20
131.8099559206
 30
0.0
 11
163.0666811362
 21
131.81035592059999
 31
0.0
  0
LINE
  5
43F
  8
UNIT-SOL
  6
CONTINUOUS
 62
     7
 10
163.06768113620001
 20
131.80855592060001
 30
0.0
 11
163.06768113620001
 21
131.80945592059999
 31
0.0
  0
LINE
  5
440
  8
UNIT-SOL
  6
CONTINUOUS
 62
     7
 10
163.06868113620001
 20
131.8072559206
 30
0.0
 11
163.06868113620001
 21
131.8081559206
 31
0.0
  0
LINE
  5
441
  8
UNIT-SOL
  6
CONTINUOUS
 62
     7
 10
163.06968113619999
 20
131.80585592060001
 30
0.0
 11
163.06968113619999
 21
131.80675592060001
 31
0.0
  0
LINE
  5
442
  8
UNIT-SOL
  6
CONTINUOUS
 62
     7
 10
163.07068113619999
 20
131.8045559206
 30
0.0
 11
163.07068113619999
 21
131.8054559206
 31
0.0
  0
LINE
  5
443
  8
UNIT-SOL
  6
CONTINUOUS
 62
     7
 10
163.0716811362
 20
131.8028559206
 30
0.0
 11
163.0716811362
 21
131.8041559205999
 31
0.0
  0
LINE
  5
444
  8
UNIT-SOL
  6
CONTINUOUS
 62
     7
 10
163.0726811362
 20
131.80145592060001
 30
0.0
 11
163.0726811362
 21
131.80275592059999
 31
0.0
  0
LINE
  5
445
  8
UNIT-SOL
  6
CONTINUOUS
 62
     7
 10
163.07368113620001
 20
131.79995592060001
 30
0.0
 11
163.07368113620001
 21
131.8013559206
 31
0.0
  0
LINE
  5
446
  8
UNIT-SOL
  6
CONTINUOUS
 62
     7
 10
163.07468113620001
 20
131.79855592059999
 30
0.0
 11
163.07468113620001
 21
131.7998559205999
 31
0.0
  0
LINE
  5
447
  8
UNIT-SOL
  6
CONTINUOUS
 62
     7
 10
163.07568113619999
 20
131.79715592060001
 30
0.0
 11
163.07568113619999
 21
131.79845592059999
 31
0.0
  0
LINE
  5
448
  8
UNIT-SOL
  6
CONTINUOUS
 62
     7
 10
163.07668113619999
 20
131.79565592060001
 30
0.0
 11
163.07668113619999
 21
131.7970559206
 31
0.0
  0
LINE
  5
449
  8
UNIT-SOL
  6
CONTINUOUS
 62
     7
 10
163.0776811362
 20
131.79415592059999
 30
0.0
 11
163.0776811362
 21
131.79555592060001
 31
0.0
  0
LINE
  5
44A
  8
UNIT-SOL
  6
CONTINUOUS
 62
     7
 10
163.0786811362
 20
131.7926559206
 30
0.0
 11
163.0786811362
 21
131.79405592059999
 31
0.0
  0
LINE
  5
44B
  8
UNIT-SOL
  6
CONTINUOUS
 62
     7
 10
163.07968113620001
 20
130.79735592060001
 30
0.0
 11
163.07968113620001
 21
130.79805592060001
 31
0.0
  0
LINE
  5
44C
  8
UNIT-SOL
  6
CONTINUOUS
 62
     7
 10
163.07968113620001
 20
131.79125592060001
 30
0.0
 11
163.07968113620001
 21
131.79255592059999
 31
0.0
  0
LINE
  5
44D
  8
UNIT-SOL
  6
CONTINUOUS
 62
     7
 10
163.08068113620001
 20
131.78965592060001
 30
0.0
 11
163.08068113620001
 21
131.7910559206
 31
0.0
  0
LINE
  5
44E
  8
UNIT-SOL
  6
CONTINUOUS
 62
     7
 10
163.08168113619999
 20
131.78815592059999
 30
0.0
 11
163.08168113619999
 21
131.78945592060001
 31
0.0
  0
LINE
  5
44F
  8
UNIT-SOL
  6
CONTINUOUS
 62
     7
 10
163.08268113619999
 20
131.78655592059999
 30
0.0
 11
163.08268113619999
 21
131.78795592060001
 31
0.0
  0
LINE
  5
450
  8
UNIT-SOL
  6
CONTINUOUS
 62
     7
 10
163.0836811362
 20
131.78635592059999
 30
0.0
 11
163.0836811362
 21
131.78645592059999
 31
0.0
  0
LINE
  5
451
  8
UNIT-SOL
  6
CONTINUOUS
 62
     7
 10
163.0906811362
 20
130.8055559206
 30
0.0
 11
163.0906811362
 21
130.80625592059999
 31
0.0
  0
LINE
  5
452
  8
UNIT-SOL
  6
CONTINUOUS
 62
     7
 10
163.1006811362
 20
130.8131559206
 30
0.0
 11
163.1006811362
 21
130.81385592059999
 31
0.0
  0
LINE
  5
453
  8
UNIT-SOL
  6
CONTINUOUS
 62
     7
 10
163.10968113620001
 20
130.8201559206
 30
0.0
 11
163.10968113620001
 21
130.8208559206
 31
0.0
  0
LINE
  5
454
  8
UNIT-SOL
  6
CONTINUOUS
 62
     7
 10
163.1186811362
 20
130.82715592060001
 30
0.0
 11
163.1186811362
 21
130.8278559206
 31
0.0
  0
LINE
  5
455
  8
UNIT-SOL
  6
CONTINUOUS
 62
     7
 10
163.12768113620001
 20
130.83425592059999
 30
0.0
 11
163.12768113620001
 21
130.83495592060001
 31
0.0
  0
LINE
  5
456
  8
UNIT-SOL
  6
CONTINUOUS
 62
     7
 10
163.70779868810001
 20
78.0661751735
 30
0.0
 11
163.70779868810001
 21
76.972807302700005
 31
0.0
  0
LINE
  5
457
  8
UNIT-SOL
  6
CONTINUOUS
 62
     7
 10
163.70779868810001
 20
75.787437033000003
 30
0.0
 11
163.70779868810001
 21
74.690132545400004
 31
0.0
  0
LINE
  5
458
  8
SERVCLEAR
  6
DASHED
 62
     1
 10
163.8258971942
 20
131.82335592059999
 30
0.0
 11
163.8258971942
 21
74.50235592060001
 31
0.0
  0
LINE
  5
459
  8
UNIT-SOL
  6
CONTINUOUS
 62
     7
 10
163.8258971942
 20
76.754100770500003
 30
0.0
 11
163.8258971942
 21
76.006143565100004
 31
0.0
  0
LINE
  5
45A
  8
UNIT-SOL
  6
CONTINUOUS
 62
     7
 10
49.056180890699991
 20
130.64241428299999
 30
0.0
 11
162.91968168470001
 21
130.66267619230001
 31
0.0
  0
LINE
  5
45B
  8
UNIT-SOL
  6
CONTINUOUS
 62
     7
 10
48.790592840800002
 20
130.81951478350001
 30
0.0
 11
48.754769627899989
 21
130.8195084088
 31
0.0
  0
LINE
  5
45C
  8
UNIT-SOL
  6
CONTINUOUS
 62
     7
 10
163.1343519728
 20
130.83986227380001
 30
0.0
 11
163.17017518579999
 21
130.8398686486
 31
0.0
  0
LINE
  5
45D
  8
UNIT-SOL
  6
CONTINUOUS
 62
     7
 10
163.13420073020001
 20
131.68977784270001
 30
0.0
 11
163.17002394319999
 21
131.68978421750001
 31
0.0
  0
LINE
  5
45E
  8
UNIT-SOL
  6
CONTINUOUS
 62
     7
 10
163.0160749357
 20
131.84367854429999
 30
0.0
 11
48.9085128121
 21
131.82337308519999
 31
0.0
  0
LINE
  5
45F
  8
UNIT-SOL
  6
CONTINUOUS
 62
     7
 10
48.908481136199981
 20
131.82335592059999
 30
0.0
 11
48.9064811362
 21
131.82335592059999
 31
0.0
  0
LINE
  5
460
  8
SERVCLEAR
  6
DASHED
 62
     1
 10
0.0
 20
131.82335592059999
 30
0.0
 11
48.0
 21
131.82335592059999
 31
0.0
  0
LINE
  5
461
  8
SERVCLEAR
  6
DASHED
 62
     1
 10
163.8258971942
 20
131.82335592059999
 30
0.0
 11
199.82589719419991
 21
131.82335592059999
 31
0.0
  0
LINE
  5
462
  8
UNIT-SOL
  6
CONTINUOUS
 62
     7
 10
163.02268113619999
 20
131.8431559206
 30
0.0
 11
163.02168113619999
 21
131.8431559206
 31
0.0
  0
LINE
  5
463
  8
UNIT-SOL
  6
CONTINUOUS
 62
     7
 10
163.02068113620001
 20
131.84345592060001
 30
0.0
 11
163.01968113620001
 21
131.84345592060001
 31
0.0
  0
LINE
  5
464
  8
UNIT-SOL
  6
CONTINUOUS
 62
     7
 10
163.01968113620001
 20
131.8435559205999
 30
0.0
 11
163.0186811362
 21
131.8435559205999
 31
0.0
  0
LINE
  5
465
  8
UNIT-SOL
  6
CONTINUOUS
 62
     7
 10
163.0186811362
 20
131.84365592060001
 30
0.0
 11
163.01568113619999
 21
131.84365592060001
 31
0.0
  0
LINE
  5
466
  8
UNIT-SOL
  6
CONTINUOUS
 62
     7
 10
163.0836811362
 20
131.78645592059999
 30
0.0
 11
163.08268113619999
 21
131.78655592059999
 31
0.0
  0
LINE
  5
467
  8
UNIT-SOL
  6
CONTINUOUS
 62
     7
 10
163.07968113620001
 20
131.79255592059999
 30
0.0
 11
163.0786811362
 21
131.7926559206
 31
0.0
  0
LINE
  5
468
  8
UNIT-SOL
  6
CONTINUOUS
 62
     7
 10
163.0786811362
 20
131.79405592059999
 30
0.0
 11
163.0776811362
 21
131.79415592059999
 31
0.0
  0
LINE
  5
469
  8
UNIT-SOL
  6
CONTINUOUS
 62
     7
 10
163.0776811362
 20
131.79555592060001
 30
0.0
 11
163.07668113619999
 21
131.79565592060001
 31
0.0
  0
LINE
  5
46A
  8
UNIT-SOL
  6
CONTINUOUS
 62
     7
 10
163.07668113619999
 20
131.7970559206
 30
0.0
 11
163.07568113619999
 21
131.79715592060001
 31
0.0
  0
LINE
  5
46B
  8
UNIT-SOL
  6
CONTINUOUS
 62
     7
 10
163.07568113619999
 20
131.79845592059999
 30
0.0
 11
163.07468113620001
 21
131.79855592059999
 31
0.0
  0
LINE
  5
46C
  8
UNIT-SOL
  6
CONTINUOUS
 62
     7
 10
163.07468113620001
 20
131.7998559205999
 30
0.0
 11
163.07368113620001
 21
131.79995592060001
 31
0.0
  0
LINE
  5
46D
  8
UNIT-SOL
  6
CONTINUOUS
 62
     7
 10
163.07368113620001
 20
131.8013559206
 30
0.0
 11
163.0726811362
 21
131.80145592060001
 31
0.0
  0
LINE
  5
46E
  8
UNIT-SOL
  6
CONTINUOUS
 62
     7
 10
163.0726811362
 20
131.80275592059999
 30
0.0
 11
163.0716811362
 21
131.8028559206
 31
0.0
  0
LINE
  5
46F
  8
UNIT-SOL
  6
CONTINUOUS
 62
     7
 10
163.02668113620001
 20
131.84215592059999
 30
0.0
 11
163.02568113620001
 21
131.8422559206
 31
0.0
  0
LINE
  5
470
  8
UNIT-SOL
  6
CONTINUOUS
 62
     7
 10
163.02568113620001
 20
131.8424559206
 30
0.0
 11
163.0246811362
 21
131.84255592060001
 31
0.0
  0
LINE
  5
471
  8
UNIT-SOL
  6
CONTINUOUS
 62
     7
 10
163.0236811362
 20
131.84295592059999
 30
0.0
 11
163.02268113619999
 21
131.84305592059999
 31
0.0
  0
LINE
  5
472
  8
UNIT-SOL
  6
CONTINUOUS
 62
     7
 10
163.02168113619999
 20
131.8432559206
 30
0.0
 11
163.02068113620001
 21
131.8433559206
 31
0.0
  0
LINE
  5
473
  8
UNIT-SOL
  6
CONTINUOUS
 62
     7
 10
163.08268113619999
 20
131.78795592060001
 30
0.0
 11
163.08168113619999
 21
131.78815592059999
 31
0.0
  0
LINE
  5
474
  8
UNIT-SOL
  6
CONTINUOUS
 62
     7
 10
163.08168113619999
 20
131.78945592060001
 30
0.0
 11
163.08068113620001
 21
131.78965592060001
 31
0.0
  0
LINE
  5
475
  8
UNIT-SOL
  6
CONTINUOUS
 62
     7
 10
163.08068113620001
 20
131.7910559206
 30
0.0
 11
163.07968113620001
 21
131.79125592060001
 31
0.0
  0
LINE
  5
476
  8
UNIT-SOL
  6
CONTINUOUS
 62
     7
 10
163.0356811362
 20
131.83875592059999
 30
0.0
 11
163.03468113619999
 21
131.8389559206
 31
0.0
  0
LINE
  5
477
  8
UNIT-SOL
  6
CONTINUOUS
 62
     7
 10
163.03468113619999
 20
131.8392559205999
 30
0.0
 11
163.03368113619999
 21
131.83945592059999
 31
0.0
  0
LINE
  5
478
  8
UNIT-SOL
  6
CONTINUOUS
 62
     7
 10
163.03368113619999
 20
131.8397559206
 30
0.0
 11
163.03268113620001
 21
131.8399559206
 31
0.0
  0
LINE
  5
479
  8
UNIT-SOL
  6
CONTINUOUS
 62
     7
 10
163.03268113620001
 20
131.84015592060001
 30
0.0
 11
163.03168113620001
 21
131.84035592059999
 31
0.0
  0
LINE
  5
47A
  8
UNIT-SOL
  6
CONTINUOUS
 62
     7
 10
163.03168113620001
 20
131.8405559206
 30
0.0
 11
163.0306811362
 21
131.8407559206
 31
0.0
  0
LINE
  5
47B
  8
UNIT-SOL
  6
CONTINUOUS
 62
     7
 10
163.0306811362
 20
131.84095592060001
 30
0.0
 11
163.0296811362
 21
131.84115592059999
 31
0.0
  0
LINE
  5
47C
  8
UNIT-SOL
  6
CONTINUOUS
 62
     7
 10
163.0296811362
 20
131.84135592059999
 30
0.0
 11
163.02868113619999
 21
131.8415559206
 31
0.0
  0
LINE
  5
47D
  8
UNIT-SOL
  6
CONTINUOUS
 62
     7
 10
163.02868113619999
 20
131.8416559206
 30
0.0
 11
163.02668113620001
 21
131.84205592059999
 31
0.0
  0
LINE
  5
47E
  8
UNIT-SOL
  6
CONTINUOUS
 62
     7
 10
163.0246811362
 20
131.84265592060001
 30
0.0
 11
163.0236811362
 21
131.84285592059999
 31
0.0
  0
LINE
  5
47F
  8
UNIT-SOL
  6
CONTINUOUS
 62
     7
 10
163.05068113620001
 20
131.82805592060001
 30
0.0
 11
163.04968113620001
 21
131.82835592059999
 31
0.0
  0
LINE
  5
480
  8
UNIT-SOL
  6
CONTINUOUS
 62
     7
 10
163.0486811362
 20
131.82995592060001
 30
0.0
 11
163.0476811362
 21
131.8302559206
 31
0.0
  0
LINE
  5
481
  8
UNIT-SOL
  6
CONTINUOUS
 62
     7
 10
163.04468113620001
 20
131.83315592060001
 30
0.0
 11
163.04368113620001
 21
131.83345592059999
 31
0.0
  0
LINE
  5
482
  8
UNIT-SOL
  6
CONTINUOUS
 62
     7
 10
163.0426811362
 20
131.83445592059999
 30
0.0
 11
163.0416811362
 21
131.8347559206
 31
0.0
  0
LINE
  5
483
  8
UNIT-SOL
  6
CONTINUOUS
 62
     7
 10
163.0416811362
 20
131.83505592060001
 30
0.0
 11
163.04068113619999
 21
131.83535592059999
 31
0.0
  0
LINE
  5
484
  8
UNIT-SOL
  6
CONTINUOUS
 62
     7
 10
163.04068113619999
 20
131.8356559206
 30
0.0
 11
163.03968113619999
 21
131.83595592059999
 31
0.0
  0
LINE
  5
485
  8
UNIT-SOL
  6
CONTINUOUS
 62
     7
 10
163.03968113619999
 20
131.8362559206
 30
0.0
 11
163.03868113620001
 21
131.83655592060001
 31
0.0
  0
LINE
  5
486
  8
UNIT-SOL
  6
CONTINUOUS
 62
     7
 10
163.03868113620001
 20
131.83685592059999
 30
0.0
 11
163.03768113620001
 21
131.8371559206
 31
0.0
  0
LINE
  5
487
  8
UNIT-SOL
  6
CONTINUOUS
 62
     7
 10
163.03768113620001
 20
131.83745592060001
 30
0.0
 11
163.0366811362
 21
131.83775592059999
 31
0.0
  0
LINE
  5
488
  8
UNIT-SOL
  6
CONTINUOUS
 62
     7
 10
163.0366811362
 20
131.8379559206
 30
0.0
 11
163.0356811362
 21
131.83825592060001
 31
0.0
  0
LINE
  5
489
  8
UNIT-SOL
  6
CONTINUOUS
 62
     7
 10
163.0716811362
 20
131.8041559205999
 30
0.0
 11
163.07068113619999
 21
131.8045559206
 31
0.0
  0
LINE
  5
48A
  8
UNIT-SOL
  6
CONTINUOUS
 62
     7
 10
163.07068113619999
 20
131.8054559206
 30
0.0
 11
163.06968113619999
 21
131.80585592060001
 31
0.0
  0
LINE
  5
48B
  8
UNIT-SOL
  6
CONTINUOUS
 62
     7
 10
163.06868113620001
 20
131.8081559206
 30
0.0
 11
163.06768113620001
 21
131.80855592060001
 31
0.0
  0
LINE
  5
48C
  8
UNIT-SOL
  6
CONTINUOUS
 62
     7
 10
163.0656811362
 20
131.81175592060001
 30
0.0
 11
163.06468113619999
 21
131.81215592059999
 31
0.0
  0
LINE
  5
48D
  8
UNIT-SOL
  6
CONTINUOUS
 62
     7
 10
163.06368113619999
 20
131.81445592060001
 30
0.0
 11
163.06268113620001
 21
131.8148559206
 31
0.0
  0
LINE
  5
48E
  8
UNIT-SOL
  6
CONTINUOUS
 62
     7
 10
163.06268113620001
 20
131.81535592060001
 30
0.0
 11
163.06168113620001
 21
131.8157559206
 31
0.0
  0
LINE
  5
48F
  8
UNIT-SOL
  6
CONTINUOUS
 62
     7
 10
163.0596811362
 20
131.81885592059999
 30
0.0
 11
163.05868113619999
 21
131.8192559206
 31
0.0
  0
LINE
  5
490
  8
UNIT-SOL
  6
CONTINUOUS
 62
     7
 10
163.05868113619999
 20
131.8201559206
 30
0.0
 11
163.05768113619999
 21
131.82055592059999
 31
0.0
  0
LINE
  5
491
  8
UNIT-SOL
  6
CONTINUOUS
 62
     7
 10
163.05768113619999
 20
131.8210559206
 30
0.0
 11
163.05668113620001
 21
131.82145592059999
 31
0.0
  0
LINE
  5
492
  8
UNIT-SOL
  6
CONTINUOUS
 62
     7
 10
163.05668113620001
 20
131.82235592059999
 30
0.0
 11
163.05568113620001
 21
131.8227559206
 31
0.0
  0
LINE
  5
493
  8
UNIT-SOL
  6
CONTINUOUS
 62
     7
 10
163.05568113620001
 20
131.82315592059999
 30
0.0
 11
163.0546811362
 21
131.8235559206
 31
0.0
  0
LINE
  5
494
  8
UNIT-SOL
  6
CONTINUOUS
 62
     7
 10
163.0536811362
 20
131.8252559206
 30
0.0
 11
163.05268113619999
 21
131.82565592060001
 31
0.0
  0
LINE
  5
495
  8
UNIT-SOL
  6
CONTINUOUS
 62
     7
 10
163.05268113619999
 20
131.8260559206
 30
0.0
 11
163.05168113619999
 21
131.82645592060001
 31
0.0
  0
LINE
  5
496
  8
UNIT-SOL
  6
CONTINUOUS
 62
     7
 10
163.05168113619999
 20
131.82725592060001
 30
0.0
 11
163.05068113620001
 21
131.82765592059999
 31
0.0
  0
LINE
  5
497
  8
UNIT-SOL
  6
CONTINUOUS
 62
     7
 10
163.04968113620001
 20
131.8287559206
 30
0.0
 11
163.0486811362
 21
131.82915592059999
 31
0.0
  0
LINE
  5
498
  8
UNIT-SOL
  6
CONTINUOUS
 62
     7
 10
163.0476811362
 20
131.83065592060001
 30
0.0
 11
163.04668113619999
 21
131.83105592059999
 31
0.0
  0
LINE
  5
499
  8
UNIT-SOL
  6
CONTINUOUS
 62
     7
 10
163.04668113619999
 20
131.8313559206
 30
0.0
 11
163.04568113619999
 21
131.83175592059999
 31
0.0
  0
LINE
  5
49A
  8
UNIT-SOL
  6
CONTINUOUS
 62
     7
 10
163.04568113619999
 20
131.8320559206
 30
0.0
 11
163.04468113620001
 21
131.83245592060001
 31
0.0
  0
LINE
  5
49B
  8
UNIT-SOL
  6
CONTINUOUS
 62
     7
 10
163.04368113620001
 20
131.8337559206
 30
0.0
 11
163.0426811362
 21
131.83415592060001
 31
0.0
  0
LINE
  5
49C
  8
0
  6
CONTINUOUS
 62
     7
 10
0.0
 20
150.0
 30
0.0
 11
225.0
 21
150.0
 31
0.0
  0
LINE
  5
49D
  8
UNIT-SOL
  6
CONTINUOUS
 62
     7
 10
163.06968113619999
 20
131.80675592060001
 30
0.0
 11
163.06868113620001
 21
131.8072559206
 31
0.0
  0
LINE
  5
49E
  8
UNIT-SOL
  6
CONTINUOUS
 62
     7
 10
163.06768113620001
 20
131.80945592059999
 30
0.0
 11
163.0666811362
 21
131.8099559206
 31
0.0
  0
LINE
  5
49F
  8
UNIT-SOL
  6
CONTINUOUS
 62
     7
 10
163.0666811362
 20
131.81035592059999
 30
0.0
 11
163.0656811362
 21
131.81085592060001
 31
0.0
  0
LINE
  5
4A0
  8
UNIT-SOL
  6
CONTINUOUS
 62
     7
 10
163.06468113619999
 20
131.81305592059999
 30
0.0
 11
163.06368113619999
 21
131.81355592060001
 31
0.0
  0
LINE
  5
4A1
  8
UNIT-SOL
  6
CONTINUOUS
 62
     7
 10
163.06168113620001
 20
131.8166559206
 30
0.0
 11
163.0606811362
 21
131.81715592059999
 31
0.0
  0
LINE
  5
4A2
  8
UNIT-SOL
  6
CONTINUOUS
 62
     7
 10
163.0606811362
 20
131.81795592060001
 30
0.0
 11
163.0596811362
 21
131.8184559206
 31
0.0
  0
LINE
  5
4A3
  8
UNIT-SOL
  6
CONTINUOUS
 62
     7
 10
163.0546811362
 20
131.8243559206
 30
0.0
 11
163.0536811362
 21
131.82485592059999
 31
0.0
  0
LINE
  5
4A4
  8
UNIT-SOL
  6
CONTINUOUS
 62
     7
 10
163.17945406800001
 20
130.7310312063
 30
0.0
 11
163.2477749718
 21
130.66273469539999
 31
0.0
  0
LINE
  5
4A5
  8
UNIT-SOL
  6
CONTINUOUS
 62
     7
 10
163.20478039720001
 20
130.75636655069999
 30
0.0
 11
163.27310130090001
 21
130.6880700399
 31
0.0
  0
LINE
  5
4A6
  8
SERVCLEAR
  6
DASHED
 62
     1
 10
199.82589719419991
 20
131.82335592059999
 30
0.0
 11
199.82589719419991
 21
74.50235592060001
 31
0.0
  0
LINE
  5
4A7
  8
0
  6
DASHED
 62
     1
 10
199.82589719419991
 20
131.82335592059999
 30
0.0
 11
199.82589719419991
 21
74.50235592060001
 31
0.0
  0
LINE
  5
4A8
  8
0
  6
CONTINUOUS
 62
     7
 10
225.0
 20
0.0
 30
0.0
 11
225.0
 21
150.0
 31
0.0
  0
CIRCLE
  5
4A9
  8
UNIT-SOL
  6
CONTINUOUS
 62
     7
 10
98.875000000000014
 20
82.252355920599982
 30
0.0
 40
0.7040953627
  0
ARC
  5
4AA
  8
UNIT-SOL
  6
CONTINUOUS
 62
     7
 10
48.305875130799997
 20
74.690132545400004
 30
0.0
 40
0.1877766247
 50
180.0
 51
270.0
  0
ARC
  5
4AB
  8
UNIT-SOL
  6
CONTINUOUS
 62
     7
 10
48.305875130799997
 20
78.0661751735
 30
0.0
 40
0.1877766247
 50
90.0
 51
180.0
  0
ARC
  5
4AC
  8
UNIT-SOL
  6
CONTINUOUS
 62
     7
 10
163.52002206340001
 20
74.690132545400004
 30
0.0
 40
0.1877766247
 50
270.0
 51
0.0
  0
ARC
  5
4AD
  8
UNIT-SOL
  6
CONTINUOUS
 62
     7
 10
163.52002206340001
 20
78.0661751735
 30
0.0
 40
0.1877766247
 50
0.0
 51
90.0
  0
ARC
  5
4AE
  8
UNIT-SOL
  6
CONTINUOUS
 62
     7
 10
48.908540152500002
 20
131.66945136800001
 30
0.0
 40
0.1539217196
 50
90.010177172699969
 51
180.01019578969999
  0
ARC
  5
4AF
  8
UNIT-SOL
  6
CONTINUOUS
 62
     7
 10
48.636671173700002
 20
130.81948739309999
 30
0.0
 40
0.1539217196
 50
315.02386891809999
 51
0.0101923471
  0
ARC
  5
4B0
  8
UNIT-SOL
  6
CONTINUOUS
 62
     7
 10
163.016102276
 20
131.689756827
 30
0.0
 40
0.1539217196
 50
0.010192348
 51
89.990824374599995
  0
ARC
  5
4B1
  8
UNIT-SOL
  6
CONTINUOUS
 62
     7
 10
163.28827374010001
 20
130.8398896642
 30
0.0
 40
0.1539217196
 50
180.0101992404
 51
225.02389916609991
  0
ARC
  5
4B2
  8
UNIT-SOL
  6
CONTINUOUS
 62
     7
 10
48.1523470729
 20
76.006143565100004
 30
0.0
 40
0.1523470729
 50
180.0
 51
225.0
  0
ARC
  5
4B3
  8
UNIT-SOL
  6
CONTINUOUS
 62
     7
 10
48.1523470729
 20
76.754100770500003
 30
0.0
 40
0.1523470729
 50
135.0
 51
180.0
  0
ARC
  5
4B4
  8
UNIT-SOL
  6
CONTINUOUS
 62
     7
 10
163.6735501213
 20
76.006143565100004
 30
0.0
 40
0.1523470729
 50
315.0
 51
0.0
  0
ARC
  5
4B5
  8
UNIT-SOL
  6
CONTINUOUS
 62
     7
 10
163.6735501213
 20
76.754100770500003
 30
0.0
 40
0.1523470729
 50
0.0
 51
45.0
  0
ARC
  5
4B6
  8
UNIT-SOL
  6
CONTINUOUS
 62
     7
 10
48.636671245199999
 20
130.81948739309999
 30
0.0
 40
0.1180985061
 50
315.0280151421
 51
0.0101913022
  0
ARC
  5
4B7
  8
UNIT-SOL
  6
CONTINUOUS
 62
     7
 10
163.28827374010001
 20
130.8398896642
 30
0.0
 40
0.1180985061
 50
180.01020028659991
 51
225.0280571511
  0
ARC
  5
4B8
  8
UNIT-SOL
  6
CONTINUOUS
 62
     7
 10
163.016102276
 20
131.689756827
 30
0.0
 40
0.1180985061
 50
0.0101957987
 51
55.414864964700001
  0
ARC
  5
4B9
  8
UNIT-SOL
  6
CONTINUOUS
 62
     7
 10
48.027556318100011
 20
75.787437033000003
 30
0.0
 40
0.090542188
 50
0.0
 51
45.0
  0
ARC
  5
4BA
  8
UNIT-SOL
  6
CONTINUOUS
 62
     7
 10
48.027556318100011
 20
76.972807302700005
 30
0.0
 40
0.090542188
 50
315.0
 51
0.0
  0
ARC
  5
4BB
  8
UNIT-SOL
  6
CONTINUOUS
 62
     7
 10
163.79834087610001
 20
75.787437033000003
 30
0.0
 40
0.090542188
 50
135.0
 51
180.0
  0
ARC
  5
4BC
  8
UNIT-SOL
  6
CONTINUOUS
 62
     7
 10
163.79834087610001
 20
76.972807302700005
 30
0.0
 40
0.090542188
 50
180.0
 51
225.0
  0
ARC
  5
4BD
  8
UNIT-SOL
  6
CONTINUOUS
 62
     7
 10
48.751232470600002
 20
78.345942661199985
 30
0.0
 40
0.0619938425
 50
270.0
 51
0.0
  0
ARC
  5
4BE
  8
UNIT-SOL
  6
CONTINUOUS
 62
     7
 10
163.1736173951
 20
78.313734573600001
 30
0.0
 40
0.0299182882
 50
180.0101957931
 51
270.01019579299998
  0
ENDSEC
  0
EOF
