  0
SECTION
  2
HEADER
  9
$ACADVER
  1
AC1009
  9
$INSBASE
 10
0.0
 20
0.0
 30
0.0
  9
$EXTMIN
 10
0.0
 20
0.0
 30
0.0
  9
$EXTMAX
 10
250.0
 20
250.0
 30
0.0
  9
$LIMMIN
 10
0.0
 20
0.0
  9
$LIMMAX
 10
250.0
 20
250.0
  9
$ORTHOMODE
 70
     0
  9
$REGENMODE
 70
     1
  9
$FILLMODE
 70
     1
  9
$QTEXTMODE
 70
     0
  9
$MIRRTEXT
 70
     0
  9
$DRAGMODE
 70
     2
  9
$LTSCALE
 40
16.2962962963
  9
$OSMODE
 70
    37
  9
$ATTMODE
 70
     1
  9
$TEXTSIZE
 40
0.2
  9
$TRACEWID
 40
0.05
  9
$TEXTSTYLE
  7
STANDARD
  9
$CLAYER
  8
0
  9
$CELTYPE
  6
BYLAYER
  9
$CECOLOR
 62
   256
  9
$DIMSCALE
 40
1.0
  9
$DIMASZ
 40
4.0
  9
$DIMEXO
 40
1.587499999999999
  9
$DIMDLI
 40
11.2592592593
  9
$DIMRND
 40
0.0
  9
$DIMDLE
 40
0.0
  9
$DIMEXE
 40
1.587499999999999
  9
$DIMTP
 40
0.03
  9
$DIMTM
 40
0.03
  9
$DIMTXT
 40
2.0
  9
$DIMCEN
 40
2.6666666666999981
  9
$DIMTSZ
 40
0.0
  9
$DIMTOL
 70
     1
  9
$DIMLIM
 70
     0
  9
$DIMTIH
 70
     1
  9
$DIMTOH
 70
     1
  9
$DIMSE1
 70
     0
  9
$DIMSE2
 70
     0
  9
$DIMTAD
 70
     0
  9
$DIMZIN
 70
     0
  9
$DIMBLK
  1
_FILLED
  9
$DIMASO
 70
     1
  9
$DIMSHO
 70
     1
  9
$DIMPOST
  1

  9
$DIMAPOST
  1

  9
$DIMALT
 70
     0
  9
$DIMALTD
 70
     2
  9
$DIMALTF
 40
25.399999999999999
  9
$DIMLFAC
 40
1.0
  9
$DIMTOFL
 70
     0
  9
$DIMTVP
 40
0.0
  9
$DIMTIX
 70
     0
  9
$DIMSOXD
 70
     0
  9
$DIMSAH
 70
     0
  9
$DIMBLK1
  1

  9
$DIMBLK2
  1

  9
$DIMSTYLE
  2
STANDARD
  9
$DIMCLRD
 70
     0
  9
$DIMCLRE
 70
     0
  9
$DIMCLRT
 70
     0
  9
$DIMTFAC
 40
1.0
  9
$DIMGAP
 40
0.09
  9
$LUNITS
 70
     2
  9
$LUPREC
 70
     4
  9
$SKETCHINC
 40
0.1
  9
$FILLETRAD
 40
0.0
  9
$AUNITS
 70
     0
  9
$AUPREC
 70
     0
  9
$MENU
  1
.
  9
$ELEVATION
 40
0.0
  9
$PELEVATION
 40
0.0
  9
$THICKNESS
 40
0.0
  9
$LIMCHECK
 70
     0
  9
$BLIPMODE
 70
     0
  9
$CHAMFERA
 40
0.0
  9
$CHAMFERB
 40
0.0
  9
$SKPOLY
 70
     0
  9
$TDCREATE
 40
2456328.3373147338
  9
$TDUPDATE
 40
2456330.3151780558
  9
$TDINDWG
 40
0.0012285069
  9
$TDUSRTIMER
 40
0.0012285069
  9
$USRTIMER
 70
     1
  9
$ANGBASE
 50
0.0
  9
$ANGDIR
 70
     0
  9
$PDMODE
 70
     3
  9
$PDSIZE
 40
7.9375
  9
$PLINEWID
 40
0.0
  9
$COORDS
 70
     1
  9
$SPLFRAME
 70
     0
  9
$SPLINETYPE
 70
     6
  9
$SPLINESEGS
 70
     8
  9
$ATTDIA
 70
     0
  9
$ATTREQ
 70
     1
  9
$HANDLING
 70
     1
  9
$HANDSEED
  5
7BA
  9
$SURFTAB1
 70
     6
  9
$SURFTAB2
 70
     6
  9
$SURFTYPE
 70
     6
  9
$SURFU
 70
     6
  9
$SURFV
 70
     6
  9
$UCSNAME
  2

  9
$UCSORG
 10
0.0
 20
0.0
 30
0.0
  9
$UCSXDIR
 10
1.0
 20
0.0
 30
0.0
  9
$UCSYDIR
 10
0.0
 20
1.0
 30
0.0
  9
$PUCSNAME
  2

  9
$PUCSORG
 10
0.0
 20
0.0
 30
0.0
  9
$PUCSXDIR
 10
1.0
 20
0.0
 30
0.0
  9
$PUCSYDIR
 10
0.0
 20
1.0
 30
0.0
  9
$USERI1
 70
     0
  9
$USERI2
 70
     0
  9
$USERI3
 70
     0
  9
$USERI4
 70
     0
  9
$USERI5
 70
     0
  9
$USERR1
 40
0.0
  9
$USERR2
 40
0.0
  9
$USERR3
 40
0.0
  9
$USERR4
 40
0.0
  9
$USERR5
 40
0.0
  9
$WORLDVIEW
 70
     1
  9
$SHADEDGE
 70
     3
  9
$SHADEDIF
 70
    70
  9
$TILEMODE
 70
     1
  9
$MAXACTVP
 70
    64
  9
$PLIMCHECK
 70
     0
  9
$PEXTMIN
 10
1.0000000000000000E+020
 20
1.0000000000000000E+020
 30
1.0000000000000000E+020
  9
$PEXTMAX
 10
-1.0000000000000000E+020
 20
-1.0000000000000000E+020
 30
-1.0000000000000000E+020
  9
$PLIMMIN
 10
0.0
 20
0.0
  9
$PLIMMAX
 10
12.0
 20
9.0
  9
$UNITMODE
 70
     0
  9
$VISRETAIN
 70
     1
  9
$PLINEGEN
 70
     0
  9
$PSLTSCALE
 70
     1
  0
ENDSEC
  0
SECTION
  2
TABLES
  0
TABLE
  2
VPORT
 70
     1
  0
VPORT
  2
*ACTIVE
 70
     0
 10
0.0
 20
0.0
 11
1.0
 21
1.0
 12
125.00000058207659
 22
146.90803119110191
 13
0.0
 23
0.0
 14
1.0
 24
1.0
 15
0.0
 25
0.0
 16
0.0
 26
0.0
 36
1.0
 17
0.0
 27
0.0
 37
0.0
 40
252.20847789175039
 41
1.1005586592178771
 42
50.0
 43
0.0
 44
0.0
 50
0.0
 51
0.0
 71
     0
 72
   100
 73
     1
 74
     1
 75
     0
 76
     0
 77
     0
 78
     0
  0
ENDTAB
  0
TABLE
  2
LTYPE
 70
     6
  0
LTYPE
  2
CONTINUOUS
 70
     0
  3
Solid line
 72
    65
 73
     0
 40
0.0
  0
LTYPE
  2
CENTER
 70
     0
  3
____ _ ____ _ ____ _ ____ _ ____ _ ____ _ ____
 72
    65
 73
     4
 40
0.6
 49
0.375
 49
-0.075
 49
0.075
 49
-0.075
  0
LTYPE
  2
HIDDEN
 70
     0
  3
- - - - - - - - - - - - - - - - - - - -
 72
    65
 73
     2
 40
0.2
 49
0.1
 49
-0.1
  0
LTYPE
  2
PHANTOM
 70
     0
  3
_____ _ _ _____ _ _ _____ _ _ _____
 72
    65
 73
     6
 40
0.8
 49
0.45
 49
-0.05
 49
0.1
 49
-0.05
 49
0.1
 49
-0.05
  0
LTYPE
  2
DOT
 70
     0
  3
. . . . . . . . . . . . . . . . . . . .
 72
    65
 73
     2
 40
0.2
 49
0.1
 49
-0.1
  0
LTYPE
  2
DASHED
 70
     0
  3
- - - - - - - - - - - - - - - - - - - -
 72
    65
 73
     2
 40
0.2
 49
0.1
 49
-0.1
  0
ENDTAB
  0
TABLE
  2
LAYER
 70
    19
  0
LAYER
  2
0
 70
     0
 62
     7
  6
CONTINUOUS
  0
LAYER
  2
DEFAULT_1
 70
     0
 62
     7
  6
CENTER
  0
LAYER
  2
DEFAULT_2
 70
     0
 62
     8
  6
HIDDEN
  0
LAYER
  2
DEFAULT_3
 70
     0
 62
     7
  6
PHANTOM
  0
LAYER
  2
CURB-14
 70
     0
 62
     6
  6
CONTINUOUS
  0
LAYER
  2
CURB-14-DIM
 70
     0
 62
     6
  6
CONTINUOUS
  0
LAYER
  2
CURB-24
 70
     0
 62
     6
  6
CONTINUOUS
  0
LAYER
  2
CURB-24-DIM
 70
     0
 62
     6
  6
CONTINUOUS
  0
LAYER
  2
CURB-DUCTS
 70
     0
 62
     5
  6
CONTINUOUS
  0
LAYER
  2
CURBDUCTDIM
 70
     0
 62
     5
  6
CONTINUOUS
  0
LAYER
  2
HOOD
 70
     0
 62
     7
  6
CONTINUOUS
  0
LAYER
  2
NOTES
 70
     0
 62
     1
  6
CONTINUOUS
  0
LAYER
  2
SERVCLEAR
 70
     0
 62
     1
  6
CONTINUOUS
  0
LAYER
  2
SERVCLRDIM
 70
     0
 62
     1
  6
CONTINUOUS
  0
LAYER
  2
UNIT-DIM
 70
     0
 62
     7
  6
CONTINUOUS
  0
LAYER
  2
UNIT-DUCTS
 70
     0
 62
     2
  6
CONTINUOUS
  0
LAYER
  2
UNIT-HID
 70
     0
 62
     8
  6
CONTINUOUS
  0
LAYER
  2
UNIT-SOL
 70
     0
 62
     7
  6
CONTINUOUS
  0
LAYER
  2
UNITDUCTDIM
 70
     0
 62
     2
  6
CONTINUOUS
  0
ENDTAB
  0
TABLE
  2
STYLE
 70
     4
  0
STYLE
  2
STANDARD
 70
     0
 40
0.0
 41
0.8
 50
0.0
 71
     0
 42
0.2
  3
txt
  4

  0
STYLE
  2
ANNOTATIVE
 70
     0
 40
0.0
 41
1.0
 50
0.0
 71
     0
 42
0.2
  3
txt
  4

  0
STYLE
  2
TEXTSTYLE_1
 70
     0
 40
0.0
 41
0.8
 50
0.0
 71
     0
 42
0.2
  3
gdt
  4

  0
STYLE
  2
TEXTSTYLE_2
 70
     0
 40
0.0
 41
8.0
 50
0.0
 71
     0
 42
0.2
  3
txt
  4

  0
ENDTAB
  0
TABLE
  2
VIEW
 70
     0
  0
ENDTAB
  0
TABLE
  2
UCS
 70
     0
  0
ENDTAB
  0
TABLE
  2
APPID
 70
     4
  0
APPID
  2
ACAD
 70
     0
  0
APPID
  2
ACADANNOTATIVE
 70
     0
  0
APPID
  2
ACAD_NAV_VCDISPLAY
 70
     0
  0
APPID
  2
ACAD_MLEADERVER
 70
     0
  0
ENDTAB
  0
TABLE
  2
DIMSTYLE
 70
     7
  0
DIMSTYLE
  2
STANDARD
 70
     0
  3

  4

  5

  6

  7

 40
1.0
 41
4.0
 42
1.587499999999999
 43
0.38
 44
1.587499999999999
 45
0.0
 46
0.0
 47
0.03
 48
0.03
140
2.0
141
0.09
142
0.0
143
25.399999999999999
144
1.0
145
0.0
146
1.0
147
0.09
 71
     1
 72
     0
 73
     1
 74
     1
 75
     0
 76
     0
 77
     0
 78
     4
170
     0
171
     2
172
     0
173
     0
174
     0
175
     0
176
     0
177
     0
178
     0
  0
DIMSTYLE
  2
ANNOTATIVE
 70
     0
  3

  4

  5

  6

  7

 40
1.0
 41
0.18
 42
0.0625
 43
0.38
 44
0.18
 45
0.0
 46
0.0
 47
0.0
 48
0.0
140
0.18
141
0.09
142
0.0
143
25.399999999999999
144
1.0
145
0.0
146
1.0
147
0.09
 71
     0
 72
     0
 73
     1
 74
     1
 75
     0
 76
     0
 77
     0
 78
     0
170
     0
171
     2
172
     0
173
     0
174
     0
175
     0
176
     0
177
     0
178
     0
  0
DIMSTYLE
  2
DIMSTYLE_1
 70
     0
  3

  4

  5

  6

  7

 40
1.0
 41
4.0
 42
1.587499999999999
 43
0.38
 44
1.587499999999999
 45
0.0
 46
0.0
 47
0.0472440945
 48
0.0472440945
140
2.0
141
0.09
142
0.0
143
25.399999999999999
144
1.0
145
0.0
146
1.0
147
2.0
 71
     0
 72
     0
 73
     1
 74
     1
 75
     0
 76
     0
 77
     0
 78
     4
170
     0
171
     2
172
     0
173
     0
174
     0
175
     0
176
     0
177
     0
178
     0
  0
DIMSTYLE
  2
DIMSTYLE_2
 70
     0
  3

  4

  5

  6

  7

 40
1.0
 41
4.0
 42
1.587499999999999
 43
0.38
 44
1.587499999999999
 45
0.0
 46
0.0
 47
0.031496063
 48
0.031496063
140
2.0
141
0.09
142
0.0
143
25.399999999999999
144
1.0
145
0.0
146
1.0
147
2.0
 71
     0
 72
     0
 73
     1
 74
     1
 75
     0
 76
     0
 77
     0
 78
     4
170
     0
171
     2
172
     0
173
     0
174
     0
175
     0
176
     0
177
     0
178
     0
  0
DIMSTYLE
  2
DIMSTYLE_3
 70
     0
  3

  4

  5

  6

  7

 40
1.0
 41
4.0
 42
1.587499999999999
 43
0.38
 44
1.587499999999999
 45
0.0
 46
0.0
 47
0.0196850394
 48
0.0196850394
140
2.0
141
0.09
142
0.0
143
25.399999999999999
144
1.0
145
0.0
146
1.0
147
2.0
 71
     0
 72
     0
 73
     1
 74
     1
 75
     0
 76
     0
 77
     0
 78
     4
170
     0
171
     2
172
     0
173
     0
174
     0
175
     0
176
     0
177
     0
178
     0
  0
DIMSTYLE
  2
DIMSTYLE_4
 70
     0
  3

  4

  5

  6

  7

 40
1.0
 41
4.0
 42
1.587499999999999
 43
0.38
 44
1.587499999999999
 45
0.0
 46
0.0
 47
0.0787401575
 48
0.0787401575
140
2.0
141
0.09
142
0.0
143
25.399999999999999
144
1.0
145
0.0
146
1.0
147
2.0
 71
     0
 72
     0
 73
     1
 74
     1
 75
     0
 76
     0
 77
     0
 78
     4
170
     0
171
     2
172
     0
173
     0
174
     0
175
     0
176
     0
177
     0
178
     0
  0
DIMSTYLE
  2
DIMSTYLE_5
 70
     0
  3

  4

  5

  6

  7

 40
1.0
 41
4.0
 42
1.587499999999999
 43
0.38
 44
1.587499999999999
 45
0.0
 46
0.0
 47
0.0118110236
 48
0.0118110236
140
2.0
141
0.09
142
0.0
143
25.399999999999999
144
1.0
145
0.0
146
1.0
147
2.0
 71
     0
 72
     0
 73
     1
 74
     1
 75
     0
 76
     0
 77
     0
 78
     4
170
     0
171
     2
172
     0
173
     0
174
     0
175
     0
176
     0
177
     0
178
     0
  0
ENDTAB
  0
ENDSEC
  0
SECTION
  2
BLOCKS
  0
BLOCK
  8
0
  2
$MODEL_SPACE
 70
     0
 10
0.0
 20
0.0
 30
0.0
  3
$MODEL_SPACE
  1

  0
ENDBLK
  5
68D
  8
0
  0
BLOCK
 67
     1
  8
0
  2
$PAPER_SPACE
 70
     0
 10
0.0
 20
0.0
 30
0.0
  3
$PAPER_SPACE
  1

  0
ENDBLK
  5
689
 67
     1
  8
0
  0
BLOCK
  8
0
  2
_FILLED
 70
     0
 10
0.0
 20
0.0
 30
0.0
  3
_FILLED
  1

  0
SOLID
  5
23C
  8
0
  6
BYBLOCK
 62
     0
 10
0.0
 20
0.0
 30
0.0
 11
-1.0
 21
0.1875
 31
0.0
 12
-1.0
 22
-0.1875
 32
0.0
 13
-1.0
 23
-0.1875
 33
0.0
  0
ENDBLK
  5
23D
  8
0
  6
BYBLOCK
 62
     0
  0
BLOCK
  8
SERVCLRDIM
  6
CONTINUOUS
 62
     1
  2
*D3
 70
     1
 10
0.0
 20
0.0
 30
0.0
  3
*D3
  1

  0
INSERT
  5
23F
  8
0
  2
*U4
 10
0.0
 20
0.0
 30
0.0
  0
LINE
  5
240
  8
SERVCLRDIM
  6
CONTINUOUS
 62
     1
 10
124.7592698703
 20
85.583721494700015
 30
0.0
 11
122.1172339882
 21
85.583721494700015
 31
0.0
  0
LINE
  5
241
  8
SERVCLRDIM
  6
CONTINUOUS
 62
     1
 10
122.1172339882
 20
85.583721494700015
 30
0.0
 11
114.1797339882
 21
85.583721494700015
 31
0.0
  0
LINE
  5
242
  8
SERVCLRDIM
  6
CONTINUOUS
 62
     1
 10
107.161656299
 20
37.583721494700001
 30
0.0
 11
117.3547339882
 21
37.583721494700001
 31
0.0
  0
LINE
  5
243
  8
SERVCLRDIM
  6
CONTINUOUS
 62
     1
 10
115.7672339882
 20
85.583721494700015
 30
0.0
 11
115.7672339882
 21
61.583721494700001
 31
0.0
  0
LINE
  5
244
  8
SERVCLRDIM
  6
CONTINUOUS
 62
     1
 10
115.7672339882
 20
37.583721494700001
 30
0.0
 11
115.7672339882
 21
61.583721494700001
 31
0.0
  0
LINE
  5
245
  8
SERVCLRDIM
  6
CONTINUOUS
 62
     1
 10
115.7672339882
 20
61.583721494700001
 30
0.0
 11
115.7672339882
 21
27.161410737699999
 31
0.0
  0
LINE
  5
246
  8
SERVCLRDIM
  6
CONTINUOUS
 62
     1
 10
115.7672339882
 20
27.161410737699999
 30
0.0
 11
120.1172339882
 21
27.161410737699999
 31
0.0
  0
INSERT
  5
247
  8
SERVCLRDIM
  6
CONTINUOUS
 62
     1
  2
_FILLED
 10
115.7672339882
 20
85.583721494700015
 30
0.0
 41
4.0
 42
4.0
 43
4.0
 50
90.0
  0
INSERT
  5
248
  8
SERVCLRDIM
  6
CONTINUOUS
 62
     1
  2
_FILLED
 10
115.7672339882
 20
37.583721494700001
 30
0.0
 41
4.0
 42
4.0
 43
4.0
 50
270.0
  0
ENDBLK
  5
249
  8
0
  6
BYBLOCK
 62
     0
  0
BLOCK
  8
0
  2
*U4
 70
     1
 10
0.0
 20
0.0
 30
0.0
  3
*U4
  1

  0
TEXT
  5
4D2
  8
SERVCLRDIM
 62
     1
 10
122.1172339882
 20
26.161410737699999
 30
0.0
 40
2.0
  1
36-48" DEPENDING ON OPTIONS.
 41
0.8
  0
TEXT
  5
4D3
  8
SERVCLRDIM
 62
     1
 10
122.1172339882
 20
22.82807740436667
 30
0.0
 40
2.0
  1
CHECK FOR ADJACENT UNITS OR
 41
0.8
  0
TEXT
  5
4D4
  8
SERVCLRDIM
 62
     1
 10
122.1172339882
 20
19.49474407103332
 30
0.0
 40
2.0
  1
BUILDING FRESH AIR INTAKE
 41
0.8
  0
TEXT
  5
4D5
  8
SERVCLRDIM
 62
     1
 10
122.1172339882
 20
16.161410737699999
 30
0.0
 40
2.0
  1
WITHIN 10FT. OF THIS UNITS
 41
0.8
  0
TEXT
  5
4D6
  8
SERVCLRDIM
 62
     1
 10
122.1172339882
 20
12.82807740436667
 30
0.0
 40
2.0
  1
FLUE OUTLET. SEE PRODUCT DATA
 41
0.8
  0
TEXT
  5
4D7
  8
SERVCLRDIM
 62
     1
 10
122.1172339882
 20
9.4947440710333382
 30
0.0
 40
2.0
  1
FOR DETAILS.
 41
0.8
  0
ENDBLK
  5
4D9
  8
0
  0
BLOCK
  8
SERVCLRDIM
  6
CONTINUOUS
 62
     1
  2
*D5
 70
     1
 10
0.0
 20
0.0
 30
0.0
  3
*D5
  1

  0
INSERT
  5
24B
  8
0
  2
*U6
 10
0.0
 20
0.0
 30
0.0
  0
LINE
  5
24C
  8
SERVCLRDIM
  6
CONTINUOUS
 62
     1
 10
184.27444467090001
 20
191.13266528470001
 30
0.0
 11
184.27444467090001
 21
197.51835294680001
 31
0.0
  0
LINE
  5
24D
  8
SERVCLRDIM
  6
CONTINUOUS
 62
     1
 10
184.27444467090001
 20
197.51835294680001
 30
0.0
 11
184.27444467090001
 21
200.10585294680001
 31
0.0
  0
LINE
  5
24E
  8
SERVCLRDIM
  6
CONTINUOUS
 62
     1
 10
184.27444467090001
 20
198.51835294680001
 30
0.0
 11
171.57444467089999
 21
198.51835294680001
 31
0.0
  0
LINE
  5
24F
  8
SERVCLRDIM
  6
CONTINUOUS
 62
     1
 10
220.24319467090001
 20
198.51835294680001
 30
0.0
 11
232.9431946709
 21
198.51835294680001
 31
0.0
  0
INSERT
  5
250
  8
SERVCLRDIM
  6
CONTINUOUS
 62
     1
  2
_FILLED
 10
184.27444467090001
 20
198.51835294680001
 30
0.0
 41
4.0
 42
4.0
 43
4.0
  0
INSERT
  5
251
  8
SERVCLRDIM
  6
CONTINUOUS
 62
     1
  2
_FILLED
 10
220.24319467090001
 20
198.51835294680001
 30
0.0
 41
4.0
 42
4.0
 43
4.0
 50
180.0
  0
ENDBLK
  5
252
  8
0
  6
BYBLOCK
 62
     0
  0
BLOCK
  8
0
  2
*U6
 70
     1
 10
0.0
 20
0.0
 30
0.0
  3
*U6
  1

  0
TEXT
  5
4DB
  8
SERVCLRDIM
 62
     1
 10
188.62694716089999
 20
197.51835294680001
 30
0.0
 40
2.0
  1
18-36 DEPENDING
 41
0.8
  0
TEXT
  5
4DC
  8
SERVCLRDIM
 62
     1
 10
188.62694716089999
 20
194.18501961346661
 30
0.0
 40
2.0
  1
ON OPTIONS, SEE
 41
0.8
  0
TEXT
  5
4DD
  8
SERVCLRDIM
 62
     1
 10
188.62694716089999
 20
190.85168628013329
 30
0.0
 40
2.0
  1
PRODUCT DATA FOR
 41
0.8
  0
TEXT
  5
4DE
  8
SERVCLRDIM
 62
     1
 10
188.62694716089999
 20
187.51835294680001
 30
0.0
 40
2.0
  1
DETAILS.
 41
0.8
  0
ENDBLK
  5
4E0
  8
0
  0
BLOCK
  8
UNIT-DIM
  6
CONTINUOUS
 62
     7
  2
*D7
 70
     1
 10
0.0
 20
0.0
 30
0.0
  3
*D7
  1

  0
INSERT
  5
254
  8
0
  2
*U8
 10
0.0
 20
0.0
 30
0.0
  0
LINE
  5
255
  8
UNIT-DIM
  6
CONTINUOUS
 62
     7
 10
185.8619446708999
 20
89.521221494699986
 30
0.0
 11
227.7864560349
 21
89.521221494699986
 31
0.0
  0
LINE
  5
256
  8
UNIT-DIM
  6
CONTINUOUS
 62
     7
 10
160.5929587697
 20
131.05480235260001
 30
0.0
 11
212.14777899949999
 21
131.05480235260001
 31
0.0
  0
LINE
  5
257
  8
UNIT-DIM
  6
CONTINUOUS
 62
     7
 10
215.6987335812
 20
131.05480235260001
 30
0.0
 11
227.7864560349
 21
131.05480235260001
 31
0.0
  0
LINE
  5
258
  8
UNIT-DIM
  6
CONTINUOUS
 62
     7
 10
226.19895603489999
 20
89.521221494699986
 30
0.0
 11
226.19895603489999
 21
96.012673789400012
 31
0.0
  0
LINE
  5
259
  8
UNIT-DIM
  6
CONTINUOUS
 62
     7
 10
226.19895603489999
 20
131.05480235260001
 30
0.0
 11
226.19895603489999
 21
105.0126737894
 31
0.0
  0
INSERT
  5
25A
  8
UNIT-DIM
  6
CONTINUOUS
 62
     7
  2
_FILLED
 10
226.19895603489999
 20
89.521221494699986
 30
0.0
 41
4.0
 42
4.0
 43
4.0
 50
270.0
  0
INSERT
  5
25B
  8
UNIT-DIM
  6
CONTINUOUS
 62
     7
  2
_FILLED
 10
226.19895603489999
 20
131.05480235260001
 30
0.0
 41
4.0
 42
4.0
 43
4.0
 50
90.0
  0
ENDBLK
  5
25C
  8
0
  6
BYBLOCK
 62
     0
  0
BLOCK
  8
0
  2
*U8
 70
     1
 10
0.0
 20
0.0
 30
0.0
  3
*U8
  1

  0
TEXT
  5
4E2
  8
UNIT-DIM
 62
     7
 10
222.19895603489999
 20
101.0126737894
 30
0.0
 40
2.0
  1
41-1/2
 41
0.8
  0
TEXT
  5
4E3
  8
UNIT-DIM
 62
     7
 10
222.5989560349
 20
97.679340456066683
 30
0.0
 40
2.0
  1
[1055]
 41
0.8
  0
ENDBLK
  5
4E5
  8
0
  0
BLOCK
  8
UNIT-DIM
  6
CONTINUOUS
 62
     7
  2
*D9
 70
     1
 10
0.0
 20
0.0
 30
0.0
  3
*D9
  1

  0
INSERT
  5
25E
  8
0
  2
*U10
 10
0.0
 20
0.0
 30
0.0
  0
LINE
  5
25F
  8
UNIT-DIM
  6
CONTINUOUS
 62
     7
 10
158.26500095590001
 20
133.3827601664
 30
0.0
 11
158.26500095590001
 21
142.52663433709981
 31
0.0
  0
LINE
  5
260
  8
UNIT-DIM
  6
CONTINUOUS
 62
     7
 10
184.27444467090001
 20
140.9391343371
 30
0.0
 11
171.26972281339999
 21
140.9391343371
 31
0.0
  0
LINE
  5
261
  8
UNIT-DIM
  6
CONTINUOUS
 62
     7
 10
171.26972281339999
 20
140.9391343371
 30
0.0
 11
188.70801039989999
 21
140.9391343371
 31
0.0
  0
LINE
  5
262
  8
UNIT-DIM
  6
CONTINUOUS
 62
     7
 10
158.26500095590001
 20
140.9391343371
 30
0.0
 11
171.26972281339999
 21
140.9391343371
 31
0.0
  0
INSERT
  5
263
  8
UNIT-DIM
  6
CONTINUOUS
 62
     7
  2
_FILLED
 10
184.27444467090001
 20
140.9391343371
 30
0.0
 41
4.0
 42
4.0
 43
4.0
  0
INSERT
  5
264
  8
UNIT-DIM
  6
CONTINUOUS
 62
     7
  2
_FILLED
 10
158.26500095590001
 20
140.9391343371
 30
0.0
 41
4.0
 42
4.0
 43
4.0
 50
180.0
  0
ENDBLK
  5
265
  8
0
  6
BYBLOCK
 62
     0
  0
BLOCK
  8
0
  2
*U10
 70
     1
 10
0.0
 20
0.0
 30
0.0
  3
*U10
  1

  0
TEXT
  5
4E7
  8
UNIT-DIM
 62
     7
 10
190.70801039989999
 20
139.9391343371
 30
0.0
 40
2.0
  1
26
 41
0.8
  0
TEXT
  5
4E8
  8
UNIT-DIM
 62
     7
 10
190.70801039989999
 20
136.6058010037666
 30
0.0
 40
2.0
  1
[660.6]
 41
0.8
  0
ENDBLK
  5
4EA
  8
0
  0
BLOCK
  8
UNIT-DIM
  6
CONTINUOUS
 62
     7
  2
*D11
 70
     1
 10
0.0
 20
0.0
 30
0.0
  3
*D11
  1

  0
INSERT
  5
267
  8
0
  2
*U12
 10
0.0
 20
0.0
 30
0.0
  0
LINE
  5
268
  8
UNIT-DIM
  6
CONTINUOUS
 62
     7
 10
127.9566380894
 20
181.91596228610001
 30
0.0
 11
109.73391153030001
 21
181.91596228610001
 31
0.0
  0
LINE
  5
269
  8
UNIT-DIM
  6
CONTINUOUS
 62
     7
 10
111.3214115303
 20
152.86924376479999
 30
0.0
 11
111.3214115303
 21
161.39260302549999
 31
0.0
  0
LINE
  5
26A
  8
UNIT-DIM
  6
CONTINUOUS
 62
     7
 10
111.3214115303
 20
181.91596228610001
 30
0.0
 11
111.3214115303
 21
170.39260302549999
 31
0.0
  0
INSERT
  5
26B
  8
UNIT-DIM
  6
CONTINUOUS
 62
     7
  2
_FILLED
 10
111.3214115303
 20
152.86924376479999
 30
0.0
 41
4.0
 42
4.0
 43
4.0
 50
270.0
  0
INSERT
  5
26C
  8
UNIT-DIM
  6
CONTINUOUS
 62
     7
  2
_FILLED
 10
111.3214115303
 20
181.91596228610001
 30
0.0
 41
4.0
 42
4.0
 43
4.0
 50
90.0
  0
ENDBLK
  5
26D
  8
0
  6
BYBLOCK
 62
     0
  0
BLOCK
  8
0
  2
*U12
 70
     1
 10
0.0
 20
0.0
 30
0.0
  3
*U12
  1

  0
TEXT
  5
4EC
  8
UNIT-DIM
 62
     7
 10
109.9880781969666
 20
166.39260302549999
 30
0.0
 40
2.0
  1
29
 41
0.8
  0
TEXT
  5
4ED
  8
UNIT-DIM
 62
     7
 10
108.12141153029999
 20
163.05926969216659
 30
0.0
 40
2.0
  1
[738]
 41
0.8
  0
ENDBLK
  5
4EF
  8
0
  0
BLOCK
  8
UNIT-DIM
  6
CONTINUOUS
 62
     7
  2
*D13
 70
     1
 10
0.0
 20
0.0
 30
0.0
  3
*D13
  1

  0
INSERT
  5
26F
  8
0
  2
*U14
 10
0.0
 20
0.0
 30
0.0
  0
LINE
  5
270
  8
UNIT-DIM
  6
CONTINUOUS
 62
     7
 10
182.44141547500001
 20
183.50346228609999
 30
0.0
 11
182.44141547500001
 21
190.80244702990001
 31
0.0
  0
LINE
  5
271
  8
UNIT-DIM
  6
CONTINUOUS
 62
     7
 10
129.54413808940001
 20
183.50346228609999
 30
0.0
 11
129.54413808940001
 21
190.80244702990001
 31
0.0
  0
LINE
  5
272
  8
UNIT-DIM
  6
CONTINUOUS
 62
     7
 10
182.44141547500001
 20
189.2149470299
 30
0.0
 11
163.59277678219999
 21
189.2149470299
 31
0.0
  0
LINE
  5
273
  8
UNIT-DIM
  6
CONTINUOUS
 62
     7
 10
129.54413808940001
 20
189.2149470299
 30
0.0
 11
148.3927767822
 21
189.2149470299
 31
0.0
  0
INSERT
  5
274
  8
UNIT-DIM
  6
CONTINUOUS
 62
     7
  2
_FILLED
 10
182.44141547500001
 20
189.2149470299
 30
0.0
 41
4.0
 42
4.0
 43
4.0
  0
INSERT
  5
275
  8
UNIT-DIM
  6
CONTINUOUS
 62
     7
  2
_FILLED
 10
129.54413808940001
 20
189.2149470299
 30
0.0
 41
4.0
 42
4.0
 43
4.0
 50
180.0
  0
ENDBLK
  5
276
  8
0
  6
BYBLOCK
 62
     0
  0
BLOCK
  8
0
  2
*U14
 70
     1
 10
0.0
 20
0.0
 30
0.0
  3
*U14
  1

  0
TEXT
  5
4F1
  8
UNIT-DIM
 62
     7
 10
151.45944344886661
 20
188.2149470299
 30
0.0
 40
2.0
  1
52-7/8
 41
0.8
  0
TEXT
  5
4F2
  8
UNIT-DIM
 62
     7
 10
152.2594434488667
 20
184.88161369656649
 30
0.0
 40
2.0
  1
[1344]
 41
0.8
  0
ENDBLK
  5
4F4
  8
0
  0
BLOCK
  8
UNIT-DIM
  6
CONTINUOUS
 62
     7
  2
*D15
 70
     1
 10
0.0
 20
0.0
 30
0.0
  3
*D15
  1

  0
INSERT
  5
278
  8
0
  2
*U16
 10
0.0
 20
0.0
 30
0.0
  0
LINE
  5
279
  8
UNIT-DIM
  6
CONTINUOUS
 62
     7
 10
66.831595069700001
 20
89.521221494699986
 30
0.0
 11
44.719582636200002
 21
89.521221494699986
 31
0.0
  0
LINE
  5
27A
  8
UNIT-DIM
  6
CONTINUOUS
 62
     7
 10
111.0871680864
 20
104.5515394327
 30
0.0
 11
44.719582636200002
 21
104.5515394327
 31
0.0
  0
LINE
  5
27B
  8
UNIT-DIM
  6
CONTINUOUS
 62
     7
 10
46.307082636199979
 20
89.521221494699986
 30
0.0
 11
46.307082636199979
 21
97.036380463700013
 31
0.0
  0
LINE
  5
27C
  8
UNIT-DIM
  6
CONTINUOUS
 62
     7
 10
46.307082636199979
 20
104.5515394327
 30
0.0
 11
46.307082636199979
 21
97.036380463700013
 31
0.0
  0
LINE
  5
27D
  8
UNIT-DIM
  6
CONTINUOUS
 62
     7
 10
46.307082636199979
 20
97.036380463700013
 30
0.0
 11
46.307082636199979
 21
120.41573764340001
 31
0.0
  0
LINE
  5
27E
  8
UNIT-DIM
  6
CONTINUOUS
 62
     7
 10
46.307082636199979
 20
120.41573764340001
 30
0.0
 11
43.903651367799981
 21
120.41573764340001
 31
0.0
  0
INSERT
  5
27F
  8
UNIT-DIM
  6
CONTINUOUS
 62
     7
  2
_FILLED
 10
46.307082636199979
 20
89.521221494699986
 30
0.0
 41
4.0
 42
4.0
 43
4.0
 50
270.0
  0
INSERT
  5
280
  8
UNIT-DIM
  6
CONTINUOUS
 62
     7
  2
_FILLED
 10
46.307082636199979
 20
104.5515394327
 30
0.0
 41
4.0
 42
4.0
 43
4.0
 50
90.0
  0
ENDBLK
  5
281
  8
0
  6
BYBLOCK
 62
     0
  0
BLOCK
  8
0
  2
*U16
 70
     1
 10
0.0
 20
0.0
 30
0.0
  3
*U16
  1

  0
TEXT
  5
4F6
  8
UNIT-DIM
 62
     7
 10
39.770318034466662
 20
119.41573764340001
 30
0.0
 40
2.0
  1
15
 41
0.8
  0
TEXT
  5
4F7
  8
UNIT-DIM
 62
     7
 10
35.503651367800003
 20
116.08240431006671
 30
0.0
 40
2.0
  1
[382]
 41
0.8
  0
ENDBLK
  5
4F9
  8
0
  0
BLOCK
  8
UNIT-DIM
  6
CONTINUOUS
 62
     7
  2
*D17
 70
     1
 10
0.0
 20
0.0
 30
0.0
  3
*D17
  1

  0
INSERT
  5
283
  8
0
  2
*U18
 10
0.0
 20
0.0
 30
0.0
  0
LINE
  5
284
  8
UNIT-DIM
  6
CONTINUOUS
 62
     7
 10
66.831595069700001
 20
89.521221494699986
 30
0.0
 11
36.738114394199997
 21
89.521221494699986
 31
0.0
  0
LINE
  5
285
  8
UNIT-DIM
  6
CONTINUOUS
 62
     7
 10
111.0871680864
 20
107.6763214066
 30
0.0
 11
62.123089278400002
 21
107.6763214066
 31
0.0
  0
LINE
  5
286
  8
UNIT-DIM
  6
CONTINUOUS
 62
     7
 10
60.452051828199998
 20
107.6763214066
 30
0.0
 11
46.833096609099996
 21
107.6763214066
 31
0.0
  0
LINE
  5
287
  8
UNIT-DIM
  6
CONTINUOUS
 62
     7
 10
45.663370393900003
 20
107.6763214066
 30
0.0
 11
36.738114394199997
 21
107.6763214066
 31
0.0
  0
LINE
  5
288
  8
UNIT-DIM
  6
CONTINUOUS
 62
     7
 10
38.325614394200002
 20
89.521221494699986
 30
0.0
 11
38.325614394200002
 21
98.598771450599997
 31
0.0
  0
LINE
  5
289
  8
UNIT-DIM
  6
CONTINUOUS
 62
     7
 10
38.325614394200002
 20
98.598771450599997
 30
0.0
 11
38.325614394200002
 21
83.286434338199982
 31
0.0
  0
LINE
  5
28A
  8
UNIT-DIM
  6
CONTINUOUS
 62
     7
 10
38.325614394200002
 20
83.286434338199982
 30
0.0
 11
36.453363533600012
 21
83.286434338199982
 31
0.0
  0
LINE
  5
28B
  8
UNIT-DIM
  6
CONTINUOUS
 62
     7
 10
38.325614394200002
 20
107.6763214066
 30
0.0
 11
38.325614394200002
 21
98.598771450599997
 31
0.0
  0
INSERT
  5
28C
  8
UNIT-DIM
  6
CONTINUOUS
 62
     7
  2
_FILLED
 10
38.325614394200002
 20
89.521221494699986
 30
0.0
 41
4.0
 42
4.0
 43
4.0
 50
270.0
  0
INSERT
  5
28D
  8
UNIT-DIM
  6
CONTINUOUS
 62
     7
  2
_FILLED
 10
38.325614394200002
 20
107.6763214066
 30
0.0
 41
4.0
 42
4.0
 43
4.0
 50
90.0
  0
ENDBLK
  5
28E
  8
0
  6
BYBLOCK
 62
     0
  0
BLOCK
  8
0
  2
*U18
 70
     1
 10
0.0
 20
0.0
 30
0.0
  3
*U18
  1

  0
TEXT
  5
4FB
  8
UNIT-DIM
 62
     7
 10
26.453363533600012
 20
82.286434338199982
 30
0.0
 40
2.0
  1
18-1/8
 41
0.8
  0
TEXT
  5
4FC
  8
UNIT-DIM
 62
     7
 10
28.586696866933341
 20
78.953101004866653
 30
0.0
 40
2.0
  1
[461]
 41
0.8
  0
ENDBLK
  5
4FE
  8
0
  0
BLOCK
  8
UNIT-DIM
  6
CONTINUOUS
 62
     7
  2
*D19
 70
     1
 10
0.0
 20
0.0
 30
0.0
  3
*D19
  1

  0
INSERT
  5
290
  8
0
  2
*U20
 10
0.0
 20
0.0
 30
0.0
  0
LINE
  5
291
  8
UNIT-DIM
  6
CONTINUOUS
 62
     7
 10
66.831595069700001
 20
89.521221494699986
 30
0.0
 11
25.796512276400001
 21
89.521221494699986
 31
0.0
  0
LINE
  5
292
  8
UNIT-DIM
  6
CONTINUOUS
 62
     7
 10
111.0871680864
 20
110.03461791230001
 30
0.0
 11
62.039537405899999
 21
110.03461791230001
 31
0.0
  0
LINE
  5
293
  8
UNIT-DIM
  6
CONTINUOUS
 62
     7
 10
60.201396210699997
 20
110.03461791230001
 30
0.0
 11
47.250855971599982
 21
110.03461791230001
 31
0.0
  0
LINE
  5
294
  8
UNIT-DIM
  6
CONTINUOUS
 62
     7
 10
45.663370393900003
 20
110.03461791230001
 30
0.0
 11
25.796512276400001
 21
110.03461791230001
 31
0.0
  0
LINE
  5
295
  8
UNIT-DIM
  6
CONTINUOUS
 62
     7
 10
27.3840122764
 20
89.521221494699986
 30
0.0
 11
27.3840122764
 21
93.777919703500004
 31
0.0
  0
LINE
  5
296
  8
UNIT-DIM
  6
CONTINUOUS
 62
     7
 10
27.3840122764
 20
110.03461791230001
 30
0.0
 11
27.3840122764
 21
102.7779197035
 31
0.0
  0
INSERT
  5
297
  8
UNIT-DIM
  6
CONTINUOUS
 62
     7
  2
_FILLED
 10
27.3840122764
 20
89.521221494699986
 30
0.0
 41
4.0
 42
4.0
 43
4.0
 50
270.0
  0
INSERT
  5
298
  8
UNIT-DIM
  6
CONTINUOUS
 62
     7
  2
_FILLED
 10
27.3840122764
 20
110.03461791230001
 30
0.0
 41
4.0
 42
4.0
 43
4.0
 50
90.0
  0
ENDBLK
  5
299
  8
0
  6
BYBLOCK
 62
     0
  0
BLOCK
  8
0
  2
*U20
 70
     1
 10
0.0
 20
0.0
 30
0.0
  3
*U20
  1

  0
TEXT
  5
500
  8
UNIT-DIM
 62
     7
 10
23.250678943066681
 20
98.777919703500004
 30
0.0
 40
2.0
  1
20-1/2
 41
0.8
  0
TEXT
  5
501
  8
UNIT-DIM
 62
     7
 10
24.450678943066681
 20
95.444586370166689
 30
0.0
 40
2.0
  1
[521]
 41
0.8
  0
ENDBLK
  5
503
  8
0
  0
BLOCK
  8
UNIT-DIM
  6
CONTINUOUS
 62
     7
  2
*D21
 70
     1
 10
0.0
 20
0.0
 30
0.0
  3
*D21
  1

  0
INSERT
  5
29B
  8
0
  2
*U22
 10
0.0
 20
0.0
 30
0.0
  0
LINE
  5
29C
  8
UNIT-DIM
  6
CONTINUOUS
 62
     7
 10
66.831595069700001
 20
89.521221494699986
 30
0.0
 11
11.8875259445
 21
89.521221494699986
 31
0.0
  0
LINE
  5
29D
  8
UNIT-DIM
  6
CONTINUOUS
 62
     7
 10
111.0871680864
 20
112.0220422156
 30
0.0
 11
61.872433660900001
 21
112.0220422156
 31
0.0
  0
LINE
  5
29E
  8
UNIT-DIM
  6
CONTINUOUS
 62
     7
 10
60.61915557319999
 20
112.0220422156
 30
0.0
 11
46.833096609099996
 21
112.0220422156
 31
0.0
  0
LINE
  5
29F
  8
UNIT-DIM
  6
CONTINUOUS
 62
     7
 10
45.496266648899997
 20
112.0220422156
 30
0.0
 11
11.8875259445
 21
112.0220422156
 31
0.0
  0
LINE
  5
2A0
  8
UNIT-DIM
  6
CONTINUOUS
 62
     7
 10
13.4750259445
 20
89.521221494699986
 30
0.0
 11
13.4750259445
 21
94.771631855099983
 31
0.0
  0
LINE
  5
2A1
  8
UNIT-DIM
  6
CONTINUOUS
 62
     7
 10
13.4750259445
 20
112.0220422156
 30
0.0
 11
13.4750259445
 21
103.7716318551
 31
0.0
  0
INSERT
  5
2A2
  8
UNIT-DIM
  6
CONTINUOUS
 62
     7
  2
_FILLED
 10
13.4750259445
 20
89.521221494699986
 30
0.0
 41
4.0
 42
4.0
 43
4.0
 50
270.0
  0
INSERT
  5
2A3
  8
UNIT-DIM
  6
CONTINUOUS
 62
     7
  2
_FILLED
 10
13.4750259445
 20
112.0220422156
 30
0.0
 41
4.0
 42
4.0
 43
4.0
 50
90.0
  0
ENDBLK
  5
2A4
  8
0
  6
BYBLOCK
 62
     0
  0
BLOCK
  8
0
  2
*U22
 70
     1
 10
0.0
 20
0.0
 30
0.0
  3
*U22
  1

  0
TEXT
  5
505
  8
UNIT-DIM
 62
     7
 10
9.2083592778333347
 20
99.771631855100011
 30
0.0
 40
2.0
  1
22-1/2
 41
0.8
  0
TEXT
  5
506
  8
UNIT-DIM
 62
     7
 10
10.275025944499999
 20
96.438298521766683
 30
0.0
 40
2.0
  1
[572]
 41
0.8
  0
ENDBLK
  5
508
  8
0
  0
BLOCK
  8
UNIT-DIM
  6
CONTINUOUS
 62
     7
  2
*D23
 70
     1
 10
0.0
 20
0.0
 30
0.0
  3
*D23
  1

  0
INSERT
  5
2A6
  8
0
  2
*U24
 10
0.0
 20
0.0
 30
0.0
  0
LINE
  5
2A7
  8
UNIT-DIM
  6
CONTINUOUS
 62
     7
 10
68.419095069700006
 20
87.933721494699995
 30
0.0
 11
68.419095069700006
 21
79.281250238300004
 31
0.0
  0
LINE
  5
2A8
  8
UNIT-DIM
  6
CONTINUOUS
 62
     7
 10
112.6746680864
 20
103.8574871582
 30
0.0
 11
112.6746680864
 21
79.281250238300004
 31
0.0
  0
LINE
  5
2A9
  8
UNIT-DIM
  6
CONTINUOUS
 62
     7
 10
68.419095069700006
 20
80.868750238299981
 30
0.0
 11
81.346881578000009
 21
80.868750238299981
 31
0.0
  0
LINE
  5
2AA
  8
UNIT-DIM
  6
CONTINUOUS
 62
     7
 10
112.6746680864
 20
80.868750238299981
 30
0.0
 11
99.746881577999986
 21
80.868750238299981
 31
0.0
  0
INSERT
  5
2AB
  8
UNIT-DIM
  6
CONTINUOUS
 62
     7
  2
_FILLED
 10
68.419095069700006
 20
80.868750238299981
 30
0.0
 41
4.0
 42
4.0
 43
4.0
 50
180.0
  0
INSERT
  5
2AC
  8
UNIT-DIM
  6
CONTINUOUS
 62
     7
  2
_FILLED
 10
112.6746680864
 20
80.868750238299981
 30
0.0
 41
4.0
 42
4.0
 43
4.0
  0
ENDBLK
  5
2AD
  8
0
  6
BYBLOCK
 62
     0
  0
BLOCK
  8
0
  2
*U24
 70
     1
 10
0.0
 20
0.0
 30
0.0
  3
*U24
  1

  0
TEXT
  5
50A
  8
UNIT-DIM
 62
     7
 10
86.280214911333331
 20
79.868750238299981
 30
0.0
 40
2.0
  1
44-1/4
 41
0.8
  0
TEXT
  5
50B
  8
UNIT-DIM
 62
     7
 10
86.280214911333331
 20
76.535416904966667
 30
0.0
 40
2.0
  1
[1124.1]
 41
0.8
  0
ENDBLK
  5
50D
  8
0
  0
BLOCK
  8
UNITDUCTDIM
  6
CONTINUOUS
 62
     2
  2
*D25
 70
     1
 10
0.0
 20
0.0
 30
0.0
  3
*D25
  1

  0
INSERT
  5
2AF
  8
0
  2
*U26
 10
0.0
 20
0.0
 30
0.0
  0
LINE
  5
2B0
  8
UNITDUCTDIM
  6
CONTINUOUS
 62
     2
 10
185.8619446708999
 20
89.521221494699986
 30
0.0
 11
215.7062155278
 21
89.521221494699986
 31
0.0
  0
LINE
  5
2B1
  8
UNITDUCTDIM
  6
CONTINUOUS
 62
     2
 10
180.0863930749
 20
133.87872149469999
 30
0.0
 11
215.7062155278
 21
133.87872149469999
 31
0.0
  0
LINE
  5
2B2
  8
UNITDUCTDIM
  6
CONTINUOUS
 62
     2
 10
214.11871552779999
 20
89.521221494699986
 30
0.0
 11
214.11871552779999
 21
105.69997149469999
 31
0.0
  0
LINE
  5
2B3
  8
UNITDUCTDIM
  6
CONTINUOUS
 62
     2
 10
214.11871552779999
 20
133.87872149469999
 30
0.0
 11
214.11871552779999
 21
114.69997149469999
 31
0.0
  0
INSERT
  5
2B4
  8
UNITDUCTDIM
  6
CONTINUOUS
 62
     2
  2
_FILLED
 10
214.11871552779999
 20
89.521221494699986
 30
0.0
 41
4.0
 42
4.0
 43
4.0
 50
270.0
  0
INSERT
  5
2B5
  8
UNITDUCTDIM
  6
CONTINUOUS
 62
     2
  2
_FILLED
 10
214.11871552779999
 20
133.87872149469999
 30
0.0
 41
4.0
 42
4.0
 43
4.0
 50
90.0
  0
ENDBLK
  5
2B6
  8
0
  6
BYBLOCK
 62
     0
  0
BLOCK
  8
0
  2
*U26
 70
     1
 10
0.0
 20
0.0
 30
0.0
  3
*U26
  1

  0
TEXT
  5
50F
  8
UNITDUCTDIM
 62
     2
 10
209.5853821944666
 20
110.69997149469999
 30
0.0
 40
2.0
  1
44-3/8
 41
0.8
  0
TEXT
  5
510
  8
UNITDUCTDIM
 62
     2
 10
209.5853821944666
 20
107.36663816136659
 30
0.0
 40
2.0
  1
[1126.7]
 41
0.8
  0
ENDBLK
  5
512
  8
0
  0
BLOCK
  8
UNITDUCTDIM
  6
CONTINUOUS
 62
     2
  2
*D27
 70
     1
 10
0.0
 20
0.0
 30
0.0
  3
*D27
  1

  0
INSERT
  5
2B8
  8
0
  2
*U28
 10
0.0
 20
0.0
 30
0.0
  0
LINE
  5
2B9
  8
UNITDUCTDIM
  6
CONTINUOUS
 62
     2
 10
180.0881130203
 20
133.87872149469999
 30
0.0
 11
215.7062155278
 21
133.87872149469999
 31
0.0
  0
LINE
  5
2BA
  8
UNITDUCTDIM
  6
CONTINUOUS
 62
     2
 10
180.0881130203
 20
146.51070194619999
 30
0.0
 11
215.7062155278
 21
146.51070194619999
 31
0.0
  0
LINE
  5
2BB
  8
UNITDUCTDIM
  6
CONTINUOUS
 62
     2
 10
214.11871552779999
 20
133.87872149469999
 30
0.0
 11
214.11871552779999
 21
121.1787214947
 31
0.0
  0
LINE
  5
2BC
  8
UNITDUCTDIM
  6
CONTINUOUS
 62
     2
 10
214.11871552779999
 20
146.51070194619999
 30
0.0
 11
214.11871552779999
 21
159.2107019462
 31
0.0
  0
INSERT
  5
2BD
  8
UNITDUCTDIM
  6
CONTINUOUS
 62
     2
  2
_FILLED
 10
214.11871552779999
 20
133.87872149469999
 30
0.0
 41
4.0
 42
4.0
 43
4.0
 50
90.0
  0
INSERT
  5
2BE
  8
UNITDUCTDIM
  6
CONTINUOUS
 62
     2
  2
_FILLED
 10
214.11871552779999
 20
146.51070194619999
 30
0.0
 41
4.0
 42
4.0
 43
4.0
 50
270.0
  0
ENDBLK
  5
2BF
  8
0
  6
BYBLOCK
 62
     0
  0
BLOCK
  8
0
  2
*U28
 70
     1
 10
0.0
 20
0.0
 30
0.0
  3
*U28
  1

  0
TEXT
  5
514
  8
UNITDUCTDIM
 62
     2
 10
209.85204886113331
 20
139.19471172039999
 30
0.0
 40
2.0
  1
12-5/8
 41
0.8
  0
TEXT
  5
515
  8
UNITDUCTDIM
 62
     2
 10
209.98538219446661
 20
135.86137838706671
 30
0.0
 40
2.0
  1
[320.9]
 41
0.8
  0
ENDBLK
  5
517
  8
0
  0
BLOCK
  8
UNIT-DIM
  6
CONTINUOUS
 62
     7
  2
*D29
 70
     1
 10
0.0
 20
0.0
 30
0.0
  3
*D29
  1

  0
INSERT
  5
2C1
  8
0
  2
*U30
 10
0.0
 20
0.0
 30
0.0
  0
LINE
  5
2C2
  8
UNIT-DIM
  6
CONTINUOUS
 62
     7
 10
68.419095069700006
 20
154.4567437648
 30
0.0
 11
68.419095069700006
 21
190.80244702990001
 31
0.0
  0
LINE
  5
2C3
  8
UNIT-DIM
  6
CONTINUOUS
 62
     7
 10
129.54413808940001
 20
183.50346228609999
 30
0.0
 11
129.54413808940001
 21
190.80244702990001
 31
0.0
  0
LINE
  5
2C4
  8
UNIT-DIM
  6
CONTINUOUS
 62
     7
 10
68.419095069700006
 20
189.2149470299
 30
0.0
 11
91.381616579599992
 21
189.2149470299
 31
0.0
  0
LINE
  5
2C5
  8
UNIT-DIM
  6
CONTINUOUS
 62
     7
 10
129.54413808940001
 20
189.2149470299
 30
0.0
 11
106.5816165796
 21
189.2149470299
 31
0.0
  0
INSERT
  5
2C6
  8
UNIT-DIM
  6
CONTINUOUS
 62
     7
  2
_FILLED
 10
68.419095069700006
 20
189.2149470299
 30
0.0
 41
4.0
 42
4.0
 43
4.0
 50
180.0
  0
INSERT
  5
2C7
  8
UNIT-DIM
  6
CONTINUOUS
 62
     7
  2
_FILLED
 10
129.54413808940001
 20
189.2149470299
 30
0.0
 41
4.0
 42
4.0
 43
4.0
  0
ENDBLK
  5
2C8
  8
0
  6
BYBLOCK
 62
     0
  0
BLOCK
  8
0
  2
*U30
 70
     1
 10
0.0
 20
0.0
 30
0.0
  3
*U30
  1

  0
TEXT
  5
519
  8
UNIT-DIM
 62
     7
 10
94.981616579599986
 20
188.2149470299
 30
0.0
 40
2.0
  1
61-1/8
 41
0.8
  0
TEXT
  5
51A
  8
UNIT-DIM
 62
     7
 10
95.248283246266666
 20
184.88161369656649
 30
0.0
 40
2.0
  1
[1553]
 41
0.8
  0
ENDBLK
  5
51C
  8
0
  0
BLOCK
  8
UNITDUCTDIM
  6
CONTINUOUS
 62
     2
  2
*D31
 70
     1
 10
0.0
 20
0.0
 30
0.0
  3
*D31
  1

  0
INSERT
  5
2CA
  8
0
  2
*U32
 10
0.0
 20
0.0
 30
0.0
  0
LINE
  5
2CB
  8
UNITDUCTDIM
  6
CONTINUOUS
 62
     2
 10
184.27444467090001
 20
154.4567437648
 30
0.0
 11
184.27444467090001
 21
160.45155119820001
 31
0.0
  0
LINE
  5
2CC
  8
UNITDUCTDIM
  6
CONTINUOUS
 62
     2
 10
178.50061302029999
 20
148.09820194619999
 30
0.0
 11
178.50061302029999
 21
160.45155119820001
 31
0.0
  0
LINE
  5
2CD
  8
UNITDUCTDIM
  6
CONTINUOUS
 62
     2
 10
184.27444467090001
 20
158.8640511982
 30
0.0
 11
192.7062743683
 21
158.8640511982
 31
0.0
  0
LINE
  5
2CE
  8
UNITDUCTDIM
  6
CONTINUOUS
 62
     2
 10
178.50061302029999
 20
158.8640511982
 30
0.0
 11
165.80061302030001
 21
158.8640511982
 31
0.0
  0
INSERT
  5
2CF
  8
UNITDUCTDIM
  6
CONTINUOUS
 62
     2
  2
_FILLED
 10
184.27444467090001
 20
158.8640511982
 30
0.0
 41
4.0
 42
4.0
 43
4.0
 50
180.0
  0
INSERT
  5
2D0
  8
UNITDUCTDIM
  6
CONTINUOUS
 62
     2
  2
_FILLED
 10
178.50061302029999
 20
158.8640511982
 30
0.0
 41
4.0
 42
4.0
 43
4.0
  0
ENDBLK
  5
2D1
  8
0
  6
BYBLOCK
 62
     0
  0
BLOCK
  8
0
  2
*U32
 70
     1
 10
0.0
 20
0.0
 30
0.0
  3
*U32
  1

  0
TEXT
  5
51E
  8
UNITDUCTDIM
 62
     2
 10
194.7062743683
 20
157.8640511982
 30
0.0
 40
2.0
  1
5-3/4
 41
0.8
  0
TEXT
  5
51F
  8
UNITDUCTDIM
 62
     2
 10
194.7062743683
 20
154.5307178648666
 30
0.0
 40
2.0
  1
[146.7]
 41
0.8
  0
ENDBLK
  5
521
  8
0
  0
BLOCK
  8
UNITDUCTDIM
  6
CONTINUOUS
 62
     2
  2
*D33
 70
     1
 10
0.0
 20
0.0
 30
0.0
  3
*D33
  1

  0
INSERT
  5
2D3
  8
0
  2
*U34
 10
0.0
 20
0.0
 30
0.0
  0
LINE
  5
2D4
  8
UNITDUCTDIM
  6
CONTINUOUS
 62
     2
 10
178.50061302029999
 20
148.09820194619999
 30
0.0
 11
178.50061302029999
 21
171.16071454479999
 31
0.0
  0
LINE
  5
2D5
  8
UNITDUCTDIM
  6
CONTINUOUS
 62
     2
 10
131.6505241703
 20
148.09820194619999
 30
0.0
 11
131.6505241703
 21
171.16071454479999
 31
0.0
  0
LINE
  5
2D6
  8
UNITDUCTDIM
  6
CONTINUOUS
 62
     2
 10
178.50061302029999
 20
169.57321454480001
 30
0.0
 11
164.2755685953
 21
169.57321454480001
 31
0.0
  0
LINE
  5
2D7
  8
UNITDUCTDIM
  6
CONTINUOUS
 62
     2
 10
131.6505241703
 20
169.57321454480001
 30
0.0
 11
145.8755685953
 21
169.57321454480001
 31
0.0
  0
INSERT
  5
2D8
  8
UNITDUCTDIM
  6
CONTINUOUS
 62
     2
  2
_FILLED
 10
178.50061302029999
 20
169.57321454480001
 30
0.0
 41
4.0
 42
4.0
 43
4.0
  0
INSERT
  5
2D9
  8
UNITDUCTDIM
  6
CONTINUOUS
 62
     2
  2
_FILLED
 10
131.6505241703
 20
169.57321454480001
 30
0.0
 41
4.0
 42
4.0
 43
4.0
 50
180.0
  0
ENDBLK
  5
2DA
  8
0
  6
BYBLOCK
 62
     0
  0
BLOCK
  8
0
  2
*U34
 70
     1
 10
0.0
 20
0.0
 30
0.0
  3
*U34
  1

  0
TEXT
  5
523
  8
UNITDUCTDIM
 62
     2
 10
150.54223526196671
 20
168.57321454480001
 30
0.0
 40
2.0
  1
46-7/8
 41
0.8
  0
TEXT
  5
524
  8
UNITDUCTDIM
 62
     2
 10
150.8089019286333
 20
165.23988121146661
 30
0.0
 40
2.0
  1
[1190.0]
 41
0.8
  0
ENDBLK
  5
526
  8
0
  0
BLOCK
  8
UNITDUCTDIM
  6
CONTINUOUS
 62
     2
  2
*D35
 70
     1
 10
0.0
 20
0.0
 30
0.0
  3
*D35
  1

  0
INSERT
  5
2DC
  8
0
  2
*U36
 10
0.0
 20
0.0
 30
0.0
  0
LINE
  5
2DD
  8
UNITDUCTDIM
  6
CONTINUOUS
 62
     2
 10
177.99949115070001
 20
93.453155658400007
 30
0.0
 11
177.99949115070001
 21
84.928880057599983
 31
0.0
  0
LINE
  5
2DE
  8
UNITDUCTDIM
  6
CONTINUOUS
 62
     2
 10
177.99949115070001
 20
82.17166826479999
 30
0.0
 11
177.99949115070001
 21
61.629714536499989
 31
0.0
  0
LINE
  5
2DF
  8
UNITDUCTDIM
  6
CONTINUOUS
 62
     2
 10
184.27444467090001
 20
87.933721494699995
 30
0.0
 11
184.27444467090001
 21
61.629714536499989
 31
0.0
  0
LINE
  5
2E0
  8
UNITDUCTDIM
  6
CONTINUOUS
 62
     2
 10
177.99949115070001
 20
63.217214536499988
 30
0.0
 11
165.29949115069999
 21
63.217214536499988
 31
0.0
  0
LINE
  5
2E1
  8
UNITDUCTDIM
  6
CONTINUOUS
 62
     2
 10
184.27444467090001
 20
63.217214536499988
 30
0.0
 11
193.79941737759981
 21
63.217214536499988
 31
0.0
  0
INSERT
  5
2E2
  8
UNITDUCTDIM
  6
CONTINUOUS
 62
     2
  2
_FILLED
 10
177.99949115070001
 20
63.217214536499988
 30
0.0
 41
4.0
 42
4.0
 43
4.0
  0
INSERT
  5
2E3
  8
UNITDUCTDIM
  6
CONTINUOUS
 62
     2
  2
_FILLED
 10
184.27444467090001
 20
63.217214536499988
 30
0.0
 41
4.0
 42
4.0
 43
4.0
 50
180.0
  0
ENDBLK
  5
2E4
  8
0
  6
BYBLOCK
 62
     0
  0
BLOCK
  8
0
  2
*U36
 70
     1
 10
0.0
 20
0.0
 30
0.0
  3
*U36
  1

  0
TEXT
  5
528
  8
UNITDUCTDIM
 62
     2
 10
195.79941737760001
 20
62.217214536499988
 30
0.0
 40
2.0
  1
6-1/4
 41
0.8
  0
TEXT
  5
529
  8
UNITDUCTDIM
 62
     2
 10
195.79941737760001
 20
58.883881203166652
 30
0.0
 40
2.0
  1
[159.4]
 41
0.8
  0
ENDBLK
  5
52B
  8
0
  0
BLOCK
  8
UNITDUCTDIM
  6
CONTINUOUS
 62
     2
  2
*D37
 70
     1
 10
0.0
 20
0.0
 30
0.0
  3
*D37
  1

  0
INSERT
  5
2E6
  8
0
  2
*U38
 10
0.0
 20
0.0
 30
0.0
  0
LINE
  5
2E7
  8
UNITDUCTDIM
  6
CONTINUOUS
 62
     2
 10
151.2615047722
 20
92.791221494699997
 30
0.0
 11
151.2615047722
 21
85.205645635299987
 31
0.0
  0
LINE
  5
2E8
  8
UNITDUCTDIM
  6
CONTINUOUS
 62
     2
 10
151.2615047722
 20
82.072450416199999
 30
0.0
 11
151.2615047722
 21
61.629714536499989
 31
0.0
  0
LINE
  5
2E9
  8
UNITDUCTDIM
  6
CONTINUOUS
 62
     2
 10
177.99949115070001
 20
79.461454400200012
 30
0.0
 11
177.99949115070001
 21
61.629714536499989
 31
0.0
  0
LINE
  5
2EA
  8
UNITDUCTDIM
  6
CONTINUOUS
 62
     2
 10
151.2615047722
 20
63.217214536499988
 30
0.0
 11
164.63049796140001
 21
63.217214536499988
 31
0.0
  0
LINE
  5
2EB
  8
UNITDUCTDIM
  6
CONTINUOUS
 62
     2
 10
164.63049796140001
 20
63.217214536499988
 30
0.0
 11
146.98217307479999
 21
63.217214536499988
 31
0.0
  0
LINE
  5
2EC
  8
UNITDUCTDIM
  6
CONTINUOUS
 62
     2
 10
177.99949115070001
 20
63.217214536499988
 30
0.0
 11
164.63049796140001
 21
63.217214536499988
 31
0.0
  0
INSERT
  5
2ED
  8
UNITDUCTDIM
  6
CONTINUOUS
 62
     2
  2
_FILLED
 10
151.2615047722
 20
63.217214536499988
 30
0.0
 41
4.0
 42
4.0
 43
4.0
 50
180.0
  0
INSERT
  5
2EE
  8
UNITDUCTDIM
  6
CONTINUOUS
 62
     2
  2
_FILLED
 10
177.99949115070001
 20
63.217214536499988
 30
0.0
 41
4.0
 42
4.0
 43
4.0
  0
ENDBLK
  5
2EF
  8
0
  6
BYBLOCK
 62
     0
  0
BLOCK
  8
0
  2
*U38
 70
     1
 10
0.0
 20
0.0
 30
0.0
  3
*U38
  1

  0
TEXT
  5
52D
  8
UNITDUCTDIM
 62
     2
 10
135.9155064081333
 20
62.217214536499988
 30
0.0
 40
2.0
  1
26-3/4
 41
0.8
  0
TEXT
  5
52E
  8
UNITDUCTDIM
 62
     2
 10
136.98217307479999
 20
58.883881203166652
 30
0.0
 40
2.0
  1
[679.1]
 41
0.8
  0
ENDBLK
  5
530
  8
0
  0
BLOCK
  8
UNITDUCTDIM
  6
CONTINUOUS
 62
     2
  2
*D39
 70
     1
 10
0.0
 20
0.0
 30
0.0
  3
*D39
  1

  0
INSERT
  5
2F1
  8
0
  2
*U40
 10
0.0
 20
0.0
 30
0.0
  0
LINE
  5
2F2
  8
UNITDUCTDIM
  6
CONTINUOUS
 62
     2
 10
179.58699115069999
 20
94.378721494699988
 30
0.0
 11
198.98846624250001
 21
94.378721494699988
 31
0.0
  0
LINE
  5
2F3
  8
UNITDUCTDIM
  6
CONTINUOUS
 62
     2
 10
179.58699115069999
 20
128.3541479022
 30
0.0
 11
198.98846624250001
 21
128.3541479022
 31
0.0
  0
LINE
  5
2F4
  8
UNITDUCTDIM
  6
CONTINUOUS
 62
     2
 10
197.4009662425
 20
94.378721494699988
 30
0.0
 11
197.4009662425
 21
115.1809239414
 31
0.0
  0
LINE
  5
2F5
  8
UNITDUCTDIM
  6
CONTINUOUS
 62
     2
 10
197.4009662425
 20
128.3541479022
 30
0.0
 11
197.4009662425
 21
124.1809239414
 31
0.0
  0
INSERT
  5
2F6
  8
UNITDUCTDIM
  6
CONTINUOUS
 62
     2
  2
_FILLED
 10
197.4009662425
 20
94.378721494699988
 30
0.0
 41
4.0
 42
4.0
 43
4.0
 50
270.0
  0
INSERT
  5
2F7
  8
UNITDUCTDIM
  6
CONTINUOUS
 62
     2
  2
_FILLED
 10
197.4009662425
 20
128.3541479022
 30
0.0
 41
4.0
 42
4.0
 43
4.0
 50
90.0
  0
ENDBLK
  5
2F8
  8
0
  6
BYBLOCK
 62
     0
  0
BLOCK
  8
0
  2
*U40
 70
     1
 10
0.0
 20
0.0
 30
0.0
  3
*U40
  1

  0
TEXT
  5
532
  8
UNITDUCTDIM
 62
     2
 10
196.0676329091666
 20
120.1809239414
 30
0.0
 40
2.0
  1
34
 41
0.8
  0
TEXT
  5
533
  8
UNITDUCTDIM
 62
     2
 10
193.26763290916671
 20
116.8475906080666
 30
0.0
 40
2.0
  1
[863.0]
 41
0.8
  0
ENDBLK
  5
535
  8
0
  0
BLOCK
  8
SERVCLRDIM
  6
CONTINUOUS
 62
     1
  2
*D41
 70
     1
 10
0.0
 20
0.0
 30
0.0
  3
*D41
  1

  0
INSERT
  5
2FA
  8
0
  2
*U42
 10
0.0
 20
0.0
 30
0.0
  0
LINE
  5
2FB
  8
SERVCLRDIM
  6
CONTINUOUS
 62
     1
 10
68.419095069700006
 20
154.4567437648
 30
0.0
 11
68.419095069700006
 21
166.65709385509999
 31
0.0
  0
LINE
  5
2FC
  8
SERVCLRDIM
  6
CONTINUOUS
 62
     1
 10
68.419095069700006
 20
166.65709385509999
 30
0.0
 11
68.419095069700006
 21
169.24459385509999
 31
0.0
  0
LINE
  5
2FD
  8
SERVCLRDIM
  6
CONTINUOUS
 62
     1
 10
20.450345069699999
 20
169.24459385509999
 30
0.0
 11
20.450345069699999
 21
166.65709385509999
 31
0.0
  0
LINE
  5
2FE
  8
SERVCLRDIM
  6
CONTINUOUS
 62
     1
 10
20.450345069699999
 20
166.65709385509999
 30
0.0
 11
20.450345069699999
 21
163.94954042910001
 31
0.0
  0
LINE
  5
2FF
  8
SERVCLRDIM
  6
CONTINUOUS
 62
     1
 10
68.419095069700006
 20
167.65709385509999
 30
0.0
 11
58.434720069699999
 21
167.65709385509999
 31
0.0
  0
LINE
  5
300
  8
SERVCLRDIM
  6
CONTINUOUS
 62
     1
 10
20.450345069699999
 20
167.65709385509999
 30
0.0
 11
30.434720069699999
 21
167.65709385509999
 31
0.0
  0
INSERT
  5
301
  8
SERVCLRDIM
  6
CONTINUOUS
 62
     1
  2
_FILLED
 10
68.419095069700006
 20
167.65709385509999
 30
0.0
 41
4.0
 42
4.0
 43
4.0
  0
INSERT
  5
302
  8
SERVCLRDIM
  6
CONTINUOUS
 62
     1
  2
_FILLED
 10
20.450345069699999
 20
167.65709385509999
 30
0.0
 41
4.0
 42
4.0
 43
4.0
 50
180.0
  0
ENDBLK
  5
303
  8
0
  6
BYBLOCK
 62
     0
  0
BLOCK
  8
0
  2
*U42
 70
     1
 10
0.0
 20
0.0
 30
0.0
  3
*U42
  1

  0
TEXT
  5
537
  8
SERVCLRDIM
 62
     1
 10
33.234720069700003
 20
166.65709385509999
 30
0.0
 40
2.0
  1
12-48 DEPENDING
 41
0.8
  0
TEXT
  5
538
  8
SERVCLRDIM
 62
     1
 10
33.368053403033343
 20
163.32376052176659
 30
0.0
 40
2.0
  1
ON OPTIONS, SEE
 41
0.8
  0
TEXT
  5
539
  8
SERVCLRDIM
 62
     1
 10
31.901386736366671
 20
159.9904271884333
 30
0.0
 40
2.0
  1
PRODUCT DATA FOR
 41
0.8
  0
TEXT
  5
53A
  8
SERVCLRDIM
 62
     1
 10
39.101386736366671
 20
156.65709385509999
 30
0.0
 40
2.0
  1
DETAILS.
 41
0.8
  0
ENDBLK
  5
53C
  8
0
  0
BLOCK
  8
SERVCLRDIM
  6
CONTINUOUS
 62
     1
  2
*D43
 70
     1
 10
0.0
 20
0.0
 30
0.0
  3
*D43
  1

  0
INSERT
  5
305
  8
0
  2
*U44
 10
0.0
 20
0.0
 30
0.0
  0
LINE
  5
306
  8
SERVCLRDIM
  6
CONTINUOUS
 62
     1
 10
127.9566380894
 20
181.91596228610001
 30
0.0
 11
109.85946284089999
 21
181.91596228610001
 31
0.0
  0
LINE
  5
307
  8
SERVCLRDIM
  6
CONTINUOUS
 62
     1
 10
111.4469628409
 20
181.91596228610001
 30
0.0
 11
111.4469628409
 21
199.7477719796
 31
0.0
  0
LINE
  5
308
  8
SERVCLRDIM
  6
CONTINUOUS
 62
     1
 10
111.4469628409
 20
223.85346228610001
 30
0.0
 11
111.4469628409
 21
219.7477719796
 31
0.0
  0
INSERT
  5
309
  8
SERVCLRDIM
  6
CONTINUOUS
 62
     1
  2
_FILLED
 10
111.4469628409
 20
181.91596228610001
 30
0.0
 41
4.0
 42
4.0
 43
4.0
 50
270.0
  0
INSERT
  5
30A
  8
SERVCLRDIM
  6
CONTINUOUS
 62
     1
  2
_FILLED
 10
111.4469628409
 20
223.85346228610001
 30
0.0
 41
4.0
 42
4.0
 43
4.0
 50
90.0
  0
ENDBLK
  5
30B
  8
0
  6
BYBLOCK
 62
     0
  0
BLOCK
  8
0
  2
*U44
 70
     1
 10
0.0
 20
0.0
 30
0.0
  3
*U44
  1

  0
TEXT
  5
53E
  8
SERVCLRDIM
 62
     1
 10
97.046962840900008
 20
215.7477719796
 30
0.0
 40
2.0
  1
36-42" DEPENDING ON
 41
0.8
  0
TEXT
  5
53F
  8
SERVCLRDIM
 62
     1
 10
98.113629507566685
 20
212.41443864626669
 30
0.0
 40
2.0
  1
OPTIONS. CHECK FOR
 41
0.8
  0
TEXT
  5
540
  8
SERVCLRDIM
 62
     1
 10
92.513629507566662
 20
209.0811053129332
 30
0.0
 40
2.0
  1
SOURCES OF FLUE PRODUCTS
 41
0.8
  0
TEXT
  5
541
  8
SERVCLRDIM
 62
     1
 10
92.380296174233308
 20
205.7477719796
 30
0.0
 40
2.0
  1
WITHIN 10FT. OF UNIT FRESH
 41
0.8
  0
TEXT
  5
542
  8
SERVCLRDIM
 62
     1
 10
96.780296174233342
 20
202.4144386462666
 30
0.0
 40
2.0
  1
AIR INTAKE HOOD. SEE
 41
0.8
  0
TEXT
  5
543
  8
SERVCLRDIM
 62
     1
 10
92.513629507566677
 20
199.0811053129332
 30
0.0
 40
2.0
  1
PRODUCT DATA FOR DETAILS.
 41
0.8
  0
ENDBLK
  5
545
  8
0
  0
BLOCK
  8
CURB-14-DIM
  6
CONTINUOUS
 62
     6
  2
*D45
 70
     1
 10
0.0
 20
0.0
 30
0.0
  3
*D45
  1

  0
INSERT
  5
30D
  8
0
  2
*U46
 10
0.0
 20
0.0
 30
0.0
  0
LINE
  5
30E
  8
CURB-14-DIM
  6
CONTINUOUS
 62
     6
 10
70.026374852100005
 20
92.414416946200006
 30
0.0
 11
59.780317051800012
 21
92.414416946200006
 31
0.0
  0
LINE
  5
30F
  8
CURB-14-DIM
  6
CONTINUOUS
 62
     6
 10
70.134224570599969
 20
149.97691694619999
 30
0.0
 11
59.780317051800012
 21
149.97691694619999
 31
0.0
  0
LINE
  5
310
  8
CURB-14-DIM
  6
CONTINUOUS
 62
     6
 10
61.367817051800003
 20
92.414416946200006
 30
0.0
 11
61.367817051800003
 21
115.19566694620001
 31
0.0
  0
LINE
  5
311
  8
CURB-14-DIM
  6
CONTINUOUS
 62
     6
 10
61.367817051800003
 20
149.97691694619999
 30
0.0
 11
61.367817051800003
 21
124.19566694620001
 31
0.0
  0
INSERT
  5
312
  8
CURB-14-DIM
  6
CONTINUOUS
 62
     6
  2
_FILLED
 10
61.367817051800003
 20
92.414416946200006
 30
0.0
 41
4.0
 42
4.0
 43
4.0
 50
270.0
  0
INSERT
  5
313
  8
CURB-14-DIM
  6
CONTINUOUS
 62
     6
  2
_FILLED
 10
61.367817051800003
 20
149.97691694619999
 30
0.0
 41
4.0
 42
4.0
 43
4.0
 50
90.0
  0
ENDBLK
  5
314
  8
0
  6
BYBLOCK
 62
     0
  0
BLOCK
  8
0
  2
*U46
 70
     1
 10
0.0
 20
0.0
 30
0.0
  3
*U46
  1

  0
TEXT
  5
547
  8
CURB-14-DIM
 62
     6
 10
57.10115038513333
 20
120.19566694620001
 30
0.0
 40
2.0
  1
57-1/2
 41
0.8
  0
TEXT
  5
548
  8
CURB-14-DIM
 62
     6
 10
56.83448371846665
 20
116.86233361286671
 30
0.0
 40
2.0
  1
[1462.1]
 41
0.8
  0
ENDBLK
  5
54A
  8
0
  0
BLOCK
  8
CURB-14-DIM
  6
CONTINUOUS
 62
     6
  2
*D47
 70
     1
 10
0.0
 20
0.0
 30
0.0
  3
*D47
  1

  0
INSERT
  5
316
  8
0
  2
*U48
 10
0.0
 20
0.0
 30
0.0
  0
LINE
  5
317
  8
CURB-14-DIM
  6
CONTINUOUS
 62
     6
 10
71.721724570600003
 20
90.826916946200015
 30
0.0
 11
71.721724570600003
 21
82.813131850399998
 31
0.0
  0
LINE
  5
318
  8
CURB-14-DIM
  6
CONTINUOUS
 62
     6
 10
71.721724570600003
 20
79.549386830499984
 30
0.0
 11
71.721724570600003
 21
55.328501299599992
 31
0.0
  0
LINE
  5
319
  8
CURB-14-DIM
  6
CONTINUOUS
 62
     6
 10
180.9717245706
 20
90.826916946200015
 30
0.0
 11
180.9717245706
 21
55.328501299599992
 31
0.0
  0
LINE
  5
31A
  8
CURB-14-DIM
  6
CONTINUOUS
 62
     6
 10
71.721724570600003
 20
56.916001299599998
 30
0.0
 11
117.1467245706
 21
56.916001299599998
 31
0.0
  0
LINE
  5
31B
  8
CURB-14-DIM
  6
CONTINUOUS
 62
     6
 10
180.9717245706
 20
56.916001299599998
 30
0.0
 11
135.54672457059999
 21
56.916001299599998
 31
0.0
  0
INSERT
  5
31C
  8
CURB-14-DIM
  6
CONTINUOUS
 62
     6
  2
_FILLED
 10
71.721724570600003
 20
56.916001299599998
 30
0.0
 41
4.0
 42
4.0
 43
4.0
 50
180.0
  0
INSERT
  5
31D
  8
CURB-14-DIM
  6
CONTINUOUS
 62
     6
  2
_FILLED
 10
180.9717245706
 20
56.916001299599998
 30
0.0
 41
4.0
 42
4.0
 43
4.0
  0
ENDBLK
  5
31E
  8
0
  6
BYBLOCK
 62
     0
  0
BLOCK
  8
0
  2
*U48
 70
     1
 10
0.0
 20
0.0
 30
0.0
  3
*U48
  1

  0
TEXT
  5
54C
  8
CURB-14-DIM
 62
     6
 10
121.6800579039333
 20
55.916001299599991
 30
0.0
 40
2.0
  1
109-1/4
 41
0.8
  0
TEXT
  5
54D
  8
CURB-14-DIM
 62
     6
 10
121.41339123726659
 20
52.582667966266662
 30
0.0
 40
2.0
  1
[2775.0]
 41
0.8
  0
ENDBLK
  5
54F
  8
0
  0
BLOCK
  8
CURBDUCTDIM
  6
CONTINUOUS
 62
     5
  2
*D49
 70
     1
 10
0.0
 20
0.0
 30
0.0
  3
*D49
  1

  0
INSERT
  5
320
  8
0
  2
*U50
 10
0.0
 20
0.0
 30
0.0
  0
LINE
  5
321
  8
CURBDUCTDIM
  6
CONTINUOUS
 62
     5
 10
128.8467245706
 20
149.8144169462
 30
0.0
 11
128.8467245706
 21
176.25674577519999
 31
0.0
  0
LINE
  5
322
  8
CURBDUCTDIM
  6
CONTINUOUS
 62
     5
 10
179.2217245706
 20
149.8144169462
 30
0.0
 11
179.2217245706
 21
176.96694566959999
 31
0.0
  0
LINE
  5
323
  8
CURBDUCTDIM
  6
CONTINUOUS
 62
     5
 10
128.8467245706
 20
176.65290275379999
 30
0.0
 11
144.8342245705999
 21
176.65290275379999
 31
0.0
  0
LINE
  5
324
  8
CURBDUCTDIM
  6
CONTINUOUS
 62
     5
 10
179.2217245706
 20
176.65290275379999
 30
0.0
 11
163.23422457059999
 21
176.65290275379999
 31
0.0
  0
INSERT
  5
325
  8
CURBDUCTDIM
  6
CONTINUOUS
 62
     5
  2
_FILLED
 10
128.8467245706
 20
176.65290275379999
 30
0.0
 41
4.0
 42
4.0
 43
4.0
 50
180.0
  0
INSERT
  5
326
  8
CURBDUCTDIM
  6
CONTINUOUS
 62
     5
  2
_FILLED
 10
179.2217245706
 20
176.65290275379999
 30
0.0
 41
4.0
 42
4.0
 43
4.0
  0
ENDBLK
  5
327
  8
0
  6
BYBLOCK
 62
     0
  0
BLOCK
  8
0
  2
*U50
 70
     1
 10
0.0
 20
0.0
 30
0.0
  3
*U50
  1

  0
TEXT
  5
551
  8
CURBDUCTDIM
 62
     5
 10
149.6342245706
 20
175.65290275379999
 30
0.0
 40
2.0
  1
50-3/8
 41
0.8
  0
TEXT
  5
552
  8
CURBDUCTDIM
 62
     5
 10
149.23422457059999
 20
172.31956942046671
 30
0.0
 40
2.0
  1
[1279.5]
 41
0.8
  0
ENDBLK
  5
554
  8
0
  0
BLOCK
  8
CURBDUCTDIM
  6
CONTINUOUS
 62
     5
  2
*D51
 70
     1
 10
0.0
 20
0.0
 30
0.0
  3
*D51
  1

  0
INSERT
  5
329
  8
0
  2
*U52
 10
0.0
 20
0.0
 30
0.0
  0
LINE
  5
32A
  8
CURBDUCTDIM
  6
CONTINUOUS
 62
     5
 10
149.7842245706
 20
92.576916946200015
 30
0.0
 11
149.7842245706
 21
81.738610398399999
 31
0.0
  0
LINE
  5
32B
  8
CURBDUCTDIM
  6
CONTINUOUS
 62
     5
 10
179.2217245706
 20
92.576916946200015
 30
0.0
 11
179.2217245706
 21
81.738610398399999
 31
0.0
  0
LINE
  5
32C
  8
CURBDUCTDIM
  6
CONTINUOUS
 62
     5
 10
149.7842245706
 20
83.326110398400004
 30
0.0
 11
156.1029745706
 21
83.326110398400004
 31
0.0
  0
LINE
  5
32D
  8
CURBDUCTDIM
  6
CONTINUOUS
 62
     5
 10
179.2217245706
 20
83.326110398400004
 30
0.0
 11
172.90297457060001
 21
83.326110398400004
 31
0.0
  0
INSERT
  5
32E
  8
CURBDUCTDIM
  6
CONTINUOUS
 62
     5
  2
_FILLED
 10
149.7842245706
 20
83.326110398400004
 30
0.0
 41
4.0
 42
4.0
 43
4.0
 50
180.0
  0
INSERT
  5
32F
  8
CURBDUCTDIM
  6
CONTINUOUS
 62
     5
  2
_FILLED
 10
179.2217245706
 20
83.326110398400004
 30
0.0
 41
4.0
 42
4.0
 43
4.0
  0
ENDBLK
  5
330
  8
0
  6
BYBLOCK
 62
     0
  0
BLOCK
  8
0
  2
*U52
 70
     1
 10
0.0
 20
0.0
 30
0.0
  3
*U52
  1

  0
TEXT
  5
556
  8
CURBDUCTDIM
 62
     5
 10
160.23630790393321
 20
82.326110398400004
 30
0.0
 40
2.0
  1
29-1/2
 41
0.8
  0
TEXT
  5
557
  8
CURBDUCTDIM
 62
     5
 10
160.23630790393321
 20
78.992777065066676
 30
0.0
 40
2.0
  1
[747.7]
 41
0.8
  0
ENDBLK
  5
559
  8
0
  0
BLOCK
  8
CURBDUCTDIM
  6
CONTINUOUS
 62
     5
  2
*D53
 70
     1
 10
0.0
 20
0.0
 30
0.0
  3
*D53
  1

  0
INSERT
  5
332
  8
0
  2
*U54
 10
0.0
 20
0.0
 30
0.0
  0
LINE
  5
333
  8
CURBDUCTDIM
  6
CONTINUOUS
 62
     5
 10
180.80922457060001
 20
130.10191694619999
 30
0.0
 11
206.50489435220001
 21
130.10191694619999
 31
0.0
  0
LINE
  5
334
  8
CURBDUCTDIM
  6
CONTINUOUS
 62
     5
 10
180.80922457060001
 20
94.164416946200006
 30
0.0
 11
206.50489435220001
 21
94.164416946200006
 31
0.0
  0
LINE
  5
335
  8
CURBDUCTDIM
  6
CONTINUOUS
 62
     5
 10
204.91739435220001
 20
130.10191694619999
 30
0.0
 11
204.91739435220001
 21
109.5691568312
 31
0.0
  0
LINE
  5
336
  8
CURBDUCTDIM
  6
CONTINUOUS
 62
     5
 10
204.91739435220001
 20
94.164416946200006
 30
0.0
 11
204.91739435220001
 21
100.5691568312
 31
0.0
  0
INSERT
  5
337
  8
CURBDUCTDIM
  6
CONTINUOUS
 62
     5
  2
_FILLED
 10
204.91739435220001
 20
130.10191694619999
 30
0.0
 41
4.0
 42
4.0
 43
4.0
 50
90.0
  0
INSERT
  5
338
  8
CURBDUCTDIM
  6
CONTINUOUS
 62
     5
  2
_FILLED
 10
204.91739435220001
 20
94.164416946200006
 30
0.0
 41
4.0
 42
4.0
 43
4.0
 50
270.0
  0
ENDBLK
  5
339
  8
0
  6
BYBLOCK
 62
     0
  0
BLOCK
  8
0
  2
*U54
 70
     1
 10
0.0
 20
0.0
 30
0.0
  3
*U54
  1

  0
TEXT
  5
55B
  8
CURBDUCTDIM
 62
     5
 10
203.58406101886669
 20
105.5691568312
 30
0.0
 40
2.0
  1
36
 41
0.8
  0
TEXT
  5
55C
  8
CURBDUCTDIM
 62
     5
 10
200.91739435220001
 20
102.2358234978667
 30
0.0
 40
2.0
  1
[912.8]
 41
0.8
  0
ENDBLK
  5
55E
  8
0
  0
BLOCK
  8
CURBDUCTDIM
  6
CONTINUOUS
 62
     5
  2
*D55
 70
     1
 10
0.0
 20
0.0
 30
0.0
  3
*D55
  1

  0
INSERT
  5
33B
  8
0
  2
*U56
 10
0.0
 20
0.0
 30
0.0
  0
LINE
  5
33C
  8
CURBDUCTDIM
  6
CONTINUOUS
 62
     5
 10
141.28212227509999
 20
148.22691694619999
 30
0.0
 11
143.561436993
 21
148.22691694619999
 31
0.0
  0
LINE
  5
33D
  8
CURBDUCTDIM
  6
CONTINUOUS
 62
     5
 10
140.77216211570001
 20
132.91441694619999
 30
0.0
 11
143.561436993
 21
132.91441694619999
 31
0.0
  0
LINE
  5
33E
  8
CURBDUCTDIM
  6
CONTINUOUS
 62
     5
 10
141.973936993
 20
148.22691694619999
 30
0.0
 11
141.973936993
 21
156.9092881414
 31
0.0
  0
LINE
  5
33F
  8
CURBDUCTDIM
  6
CONTINUOUS
 62
     5
 10
141.973936993
 20
132.91441694619999
 30
0.0
 11
141.973936993
 21
120.2144169462
 31
0.0
  0
INSERT
  5
340
  8
CURBDUCTDIM
  6
CONTINUOUS
 62
     5
  2
_FILLED
 10
141.973936993
 20
148.22691694619999
 30
0.0
 41
4.0
 42
4.0
 43
4.0
 50
270.0
  0
INSERT
  5
341
  8
CURBDUCTDIM
  6
CONTINUOUS
 62
     5
  2
_FILLED
 10
141.973936993
 20
132.91441694619999
 30
0.0
 41
4.0
 42
4.0
 43
4.0
 50
90.0
  0
ENDBLK
  5
342
  8
0
  6
BYBLOCK
 62
     0
  0
BLOCK
  8
0
  2
*U56
 70
     1
 10
0.0
 20
0.0
 30
0.0
  3
*U56
  1

  0
TEXT
  5
560
  8
CURBDUCTDIM
 62
     5
 10
137.17393699300001
 20
161.9092881414
 30
0.0
 40
2.0
  1
15-1/4
 41
0.8
  0
TEXT
  5
561
  8
CURBDUCTDIM
 62
     5
 10
136.9072703263333
 20
158.5759548080666
 30
0.0
 40
2.0
  1
[388.9]
 41
0.8
  0
ENDBLK
  5
563
  8
0
  0
BLOCK
  8
UNITDUCTDIM
  6
CONTINUOUS
 62
     2
  2
*D57
 70
     1
 10
0.0
 20
0.0
 30
0.0
  3
*D57
  1

  0
INSERT
  5
344
  8
0
  2
*U58
 10
0.0
 20
0.0
 30
0.0
  0
LINE
  5
345
  8
UNITDUCTDIM
  6
CONTINUOUS
 62
     2
 10
185.8619446708999
 20
89.521221494699986
 30
0.0
 11
190.84392454889999
 21
89.521221494699986
 31
0.0
  0
LINE
  5
346
  8
UNITDUCTDIM
  6
CONTINUOUS
 62
     2
 10
179.58699115069999
 20
94.378721494699988
 30
0.0
 11
190.84392454889999
 21
94.378721494699988
 31
0.0
  0
LINE
  5
347
  8
UNITDUCTDIM
  6
CONTINUOUS
 62
     2
 10
189.25642454889999
 20
89.521221494699986
 30
0.0
 11
189.25642454889999
 21
79.10164645899998
 31
0.0
  0
LINE
  5
348
  8
UNITDUCTDIM
  6
CONTINUOUS
 62
     2
 10
189.25642454889999
 20
79.10164645899998
 30
0.0
 11
191.83651952899999
 21
79.10164645899998
 31
0.0
  0
LINE
  5
349
  8
UNITDUCTDIM
  6
CONTINUOUS
 62
     2
 10
189.25642454889999
 20
94.378721494699988
 30
0.0
 11
189.25642454889999
 21
107.07872149470001
 31
0.0
  0
INSERT
  5
34A
  8
UNITDUCTDIM
  6
CONTINUOUS
 62
     2
  2
_FILLED
 10
189.25642454889999
 20
89.521221494699986
 30
0.0
 41
4.0
 42
4.0
 43
4.0
 50
90.0
  0
INSERT
  5
34B
  8
UNITDUCTDIM
  6
CONTINUOUS
 62
     2
  2
_FILLED
 10
189.25642454889999
 20
94.378721494699988
 30
0.0
 41
4.0
 42
4.0
 43
4.0
 50
270.0
  0
ENDBLK
  5
34C
  8
0
  6
BYBLOCK
 62
     0
  0
BLOCK
  8
0
  2
*U58
 70
     1
 10
0.0
 20
0.0
 30
0.0
  3
*U58
  1

  0
TEXT
  5
565
  8
UNITDUCTDIM
 62
     2
 10
193.83651952899999
 20
78.10164645899998
 30
0.0
 40
2.0
  1
4-7/8
 41
0.8
  0
TEXT
  5
566
  8
UNITDUCTDIM
 62
     2
 10
193.83651952899999
 20
74.768313125666651
 30
0.0
 40
2.0
  1
[123.4]
 41
0.8
  0
ENDBLK
  5
568
  8
0
  0
BLOCK
  8
CURB-14-DIM
  6
CONTINUOUS
 62
     6
  2
*D59
 70
     1
 10
0.0
 20
0.0
 30
0.0
  3
*D59
  1

  0
INSERT
  5
34E
  8
0
  2
*U60
 10
0.0
 20
0.0
 30
0.0
  0
LINE
  5
34F
  8
CURB-14-DIM
  6
CONTINUOUS
 62
     6
 10
70.134224570599969
 20
92.414416946200006
 30
0.0
 11
59.780317051800012
 21
92.414416946200006
 31
0.0
  0
LINE
  5
350
  8
CURB-14-DIM
  6
CONTINUOUS
 62
     6
 10
66.831595069700001
 20
89.521221494699986
 30
0.0
 11
59.780317051800012
 21
89.521221494699986
 31
0.0
  0
LINE
  5
351
  8
CURB-14-DIM
  6
CONTINUOUS
 62
     6
 10
61.367817051800003
 20
92.414416946200006
 30
0.0
 11
61.367817051800003
 21
105.1144169462
 31
0.0
  0
LINE
  5
352
  8
CURB-14-DIM
  6
CONTINUOUS
 62
     6
 10
61.367817051800003
 20
89.521221494699986
 30
0.0
 11
61.367817051800003
 21
79.495576017100007
 31
0.0
  0
LINE
  5
353
  8
CURB-14-DIM
  6
CONTINUOUS
 62
     6
 10
61.367817051800003
 20
79.495576017100007
 30
0.0
 11
57.502567613599993
 21
79.495576017100007
 31
0.0
  0
INSERT
  5
354
  8
CURB-14-DIM
  6
CONTINUOUS
 62
     6
  2
_FILLED
 10
61.367817051800003
 20
92.414416946200006
 30
0.0
 41
4.0
 42
4.0
 43
4.0
 50
270.0
  0
INSERT
  5
355
  8
CURB-14-DIM
  6
CONTINUOUS
 62
     6
  2
_FILLED
 10
61.367817051800003
 20
89.521221494699986
 30
0.0
 41
4.0
 42
4.0
 43
4.0
 50
90.0
  0
ENDBLK
  5
356
  8
0
  6
BYBLOCK
 62
     0
  0
BLOCK
  8
0
  2
*U60
 70
     1
 10
0.0
 20
0.0
 30
0.0
  3
*U60
  1

  0
TEXT
  5
56A
  8
CURB-14-DIM
 62
     6
 10
48.035900946933317
 20
78.495576017100007
 30
0.0
 40
2.0
  1
2-7/8
 41
0.8
  0
TEXT
  5
56B
  8
CURB-14-DIM
 62
     6
 10
50.702567613599989
 20
75.162242683766664
 30
0.0
 40
2.0
  1
[73]
 41
0.8
  0
ENDBLK
  5
56D
  8
0
  0
BLOCK
  8
CURB-14-DIM
  6
CONTINUOUS
 62
     6
  2
*D61
 70
     1
 10
0.0
 20
0.0
 30
0.0
  3
*D61
  1

  0
INSERT
  5
358
  8
0
  2
*U62
 10
0.0
 20
0.0
 30
0.0
  0
LINE
  5
359
  8
CURB-14-DIM
  6
CONTINUOUS
 62
     6
 10
71.721724570600003
 20
76.308080057600009
 30
0.0
 11
71.721724570600003
 21
55.328501299599992
 31
0.0
  0
LINE
  5
35A
  8
CURB-14-DIM
  6
CONTINUOUS
 62
     6
 10
68.419095069700006
 20
87.933721494699995
 30
0.0
 11
68.419095069700006
 21
55.328501299599992
 31
0.0
  0
LINE
  5
35B
  8
CURB-14-DIM
  6
CONTINUOUS
 62
     6
 10
71.721724570600003
 20
56.916001299599998
 30
0.0
 11
84.421724570600006
 21
56.916001299599998
 31
0.0
  0
LINE
  5
35C
  8
CURB-14-DIM
  6
CONTINUOUS
 62
     6
 10
68.419095069700006
 20
56.916001299599998
 30
0.0
 11
61.34477055819999
 21
56.916001299599998
 31
0.0
  0
INSERT
  5
35D
  8
CURB-14-DIM
  6
CONTINUOUS
 62
     6
  2
_FILLED
 10
71.721724570600003
 20
56.916001299599998
 30
0.0
 41
4.0
 42
4.0
 43
4.0
 50
180.0
  0
INSERT
  5
35E
  8
CURB-14-DIM
  6
CONTINUOUS
 62
     6
  2
_FILLED
 10
68.419095069700006
 20
56.916001299599998
 30
0.0
 41
4.0
 42
4.0
 43
4.0
  0
ENDBLK
  5
35F
  8
0
  6
BYBLOCK
 62
     0
  0
BLOCK
  8
0
  2
*U62
 70
     1
 10
0.0
 20
0.0
 30
0.0
  3
*U62
  1

  0
TEXT
  5
56F
  8
CURB-14-DIM
 62
     6
 10
52.41143722486666
 20
55.916001299599991
 30
0.0
 40
2.0
  1
3-1/4
 41
0.8
  0
TEXT
  5
570
  8
CURB-14-DIM
 62
     6
 10
54.544770558199993
 20
52.582667966266662
 30
0.0
 40
2.0
  1
[84]
 41
0.8
  0
ENDBLK
  5
572
  8
0
  0
BLOCK
  8
UNIT-DIM
  6
CONTINUOUS
 62
     7
  2
*D63
 70
     1
 10
0.0
 20
0.0
 30
0.0
  3
*D63
  1

  0
INSERT
  5
361
  8
0
  2
*U64
 10
0.0
 20
0.0
 30
0.0
  0
LINE
  5
362
  8
UNIT-DIM
  6
CONTINUOUS
 62
     7
 10
185.8619446708999
 20
152.86924376479999
 30
0.0
 11
212.06496146960001
 21
152.86924376479999
 31
0.0
  0
LINE
  5
363
  8
UNIT-DIM
  6
CONTINUOUS
 62
     7
 10
216.1446427445
 20
152.86924376479999
 30
0.0
 11
235.60284557189999
 21
152.86924376479999
 31
0.0
  0
LINE
  5
364
  8
UNIT-DIM
  6
CONTINUOUS
 62
     7
 10
185.8619446708999
 20
89.521221494699986
 30
0.0
 11
235.60284557189999
 21
89.521221494699986
 31
0.0
  0
LINE
  5
365
  8
UNIT-DIM
  6
CONTINUOUS
 62
     7
 10
234.01534557190001
 20
152.86924376479999
 30
0.0
 11
234.01534557190001
 21
128.20663248310001
 31
0.0
  0
LINE
  5
366
  8
UNIT-DIM
  6
CONTINUOUS
 62
     7
 10
234.01534557190001
 20
89.521221494699986
 30
0.0
 11
234.01534557190001
 21
119.20663248309999
 31
0.0
  0
INSERT
  5
367
  8
UNIT-DIM
  6
CONTINUOUS
 62
     7
  2
_FILLED
 10
234.01534557190001
 20
152.86924376479999
 30
0.0
 41
4.0
 42
4.0
 43
4.0
 50
90.0
  0
INSERT
  5
368
  8
UNIT-DIM
  6
CONTINUOUS
 62
     7
  2
_FILLED
 10
234.01534557190001
 20
89.521221494699986
 30
0.0
 41
4.0
 42
4.0
 43
4.0
 50
270.0
  0
ENDBLK
  5
369
  8
0
  6
BYBLOCK
 62
     0
  0
BLOCK
  8
0
  2
*U64
 70
     1
 10
0.0
 20
0.0
 30
0.0
  3
*U64
  1

  0
TEXT
  5
574
  8
UNIT-DIM
 62
     7
 10
227.88201223856669
 20
124.20663248309999
 30
0.0
 40
2.0
  1
63-3/8
 41
0.8
  0
TEXT
  5
575
  8
UNIT-DIM
 62
     7
 10
227.88201223856669
 20
120.87329914976659
 30
0.0
 40
2.0
  1
[1609.0]
 41
0.8
  0
ENDBLK
  5
577
  8
0
  0
BLOCK
  8
UNIT-DIM
  6
CONTINUOUS
 62
     7
  2
*D65
 70
     1
 10
0.0
 20
0.0
 30
0.0
  3
*D65
  1

  0
INSERT
  5
36B
  8
0
  2
*U66
 10
0.0
 20
0.0
 30
0.0
  0
LINE
  5
36C
  8
UNIT-DIM
  6
CONTINUOUS
 62
     7
 10
68.419095069700006
 20
154.4567437648
 30
0.0
 11
68.419095069700006
 21
200.10585294680001
 31
0.0
  0
LINE
  5
36D
  8
UNIT-DIM
  6
CONTINUOUS
 62
     7
 10
184.27444467090001
 20
154.4567437648
 30
0.0
 11
184.27444467090001
 21
200.10585294680001
 31
0.0
  0
LINE
  5
36E
  8
UNIT-DIM
  6
CONTINUOUS
 62
     7
 10
68.419095069700006
 20
198.51835294680001
 30
0.0
 11
133.1512431589
 21
198.51835294680001
 31
0.0
  0
LINE
  5
36F
  8
UNIT-DIM
  6
CONTINUOUS
 62
     7
 10
184.27444467090001
 20
198.51835294680001
 30
0.0
 11
149.95124315890001
 21
198.51835294680001
 31
0.0
  0
INSERT
  5
370
  8
UNIT-DIM
  6
CONTINUOUS
 62
     7
  2
_FILLED
 10
68.419095069700006
 20
198.51835294680001
 30
0.0
 41
4.0
 42
4.0
 43
4.0
 50
180.0
  0
INSERT
  5
371
  8
UNIT-DIM
  6
CONTINUOUS
 62
     7
  2
_FILLED
 10
184.27444467090001
 20
198.51835294680001
 30
0.0
 41
4.0
 42
4.0
 43
4.0
  0
ENDBLK
  5
372
  8
0
  6
BYBLOCK
 62
     0
  0
BLOCK
  8
0
  2
*U66
 70
     1
 10
0.0
 20
0.0
 30
0.0
  3
*U66
  1

  0
TEXT
  5
579
  8
UNIT-DIM
 62
     7
 10
135.95124315890001
 20
197.51835294680001
 30
0.0
 40
2.0
  1
115-7/8
 41
0.8
  0
TEXT
  5
57A
  8
UNIT-DIM
 62
     7
 10
135.6845764922333
 20
194.18501961346661
 30
0.0
 40
2.0
  1
[2942.7]
 41
0.8
  0
ENDBLK
  5
57C
  8
0
  0
BLOCK
  8
UNIT-DIM
  6
CONTINUOUS
 62
     2
  2
*D67
 70
     1
 10
0.0
 20
0.0
 30
0.0
  3
*D67
  1

  0
INSERT
  5
374
  8
0
  2
*U68
 10
0.0
 20
0.0
 30
0.0
  0
LINE
  5
375
  8
UNIT-DIM
  6
CONTINUOUS
 62
     2
 10
133.35408158960001
 20
85.583721494700015
 30
0.0
 11
138.83786302729999
 21
85.583721494700015
 31
0.0
  0
LINE
  5
376
  8
UNIT-DIM
  6
CONTINUOUS
 62
     2
 10
137.25036302730001
 20
89.521221494699986
 30
0.0
 11
137.25036302730001
 21
102.2212214947
 31
0.0
  0
LINE
  5
377
  8
UNIT-DIM
  6
CONTINUOUS
 62
     2
 10
137.25036302730001
 20
85.583721494700015
 30
0.0
 11
137.25036302730001
 21
79.053671147900005
 31
0.0
  0
LINE
  5
378
  8
UNIT-DIM
  6
CONTINUOUS
 62
     2
 10
137.25036302730001
 20
79.053671147900005
 30
0.0
 11
134.26858262889999
 21
79.053671147900005
 31
0.0
  0
INSERT
  5
379
  8
UNIT-DIM
  6
CONTINUOUS
 62
     2
  2
_FILLED
 10
137.25036302730001
 20
89.521221494699986
 30
0.0
 41
4.0
 42
4.0
 43
4.0
 50
270.0
  0
INSERT
  5
37A
  8
UNIT-DIM
  6
CONTINUOUS
 62
     2
  2
_FILLED
 10
137.25036302730001
 20
85.583721494700015
 30
0.0
 41
4.0
 42
4.0
 43
4.0
 50
90.0
  0
ENDBLK
  5
37B
  8
0
  6
BYBLOCK
 62
     0
  0
BLOCK
  8
0
  2
*U68
 70
     1
 10
0.0
 20
0.0
 30
0.0
  3
*U68
  1

  0
TEXT
  5
57E
  8
UNIT-DIM
 62
     2
 10
121.60191596223331
 20
78.053671147900005
 30
0.0
 40
2.0
  1
4
 41
0.8
  0
TEXT
  5
57F
  8
UNIT-DIM
 62
     2
 10
115.46858262889999
 20
74.720337814566676
 30
0.0
 40
2.0
  1
[100.0]
 41
0.8
  0
ENDBLK
  5
581
  8
0
  0
BLOCK
  8
CURB-24-DIM
  6
CONTINUOUS
 62
     6
  2
*D69
 70
     1
 10
0.0
 20
0.0
 30
0.0
  3
*D69
  1

  0
INSERT
  5
37D
  8
0
  2
*U70
 10
0.0
 20
0.0
 30
0.0
  0
LINE
  5
37E
  8
CURB-24-DIM
  6
CONTINUOUS
 62
     6
 10
70.026374852100005
 20
92.414416946200006
 30
0.0
 11
59.780317051800012
 21
92.414416946200006
 31
0.0
  0
LINE
  5
37F
  8
CURB-24-DIM
  6
CONTINUOUS
 62
     6
 10
70.134224570599969
 20
149.97691694619999
 30
0.0
 11
59.780317051800012
 21
149.97691694619999
 31
0.0
  0
LINE
  5
380
  8
CURB-24-DIM
  6
CONTINUOUS
 62
     6
 10
61.367817051800003
 20
92.414416946200006
 30
0.0
 11
61.367817051800003
 21
115.19566694620001
 31
0.0
  0
LINE
  5
381
  8
CURB-24-DIM
  6
CONTINUOUS
 62
     6
 10
61.367817051800003
 20
149.97691694619999
 30
0.0
 11
61.367817051800003
 21
124.19566694620001
 31
0.0
  0
INSERT
  5
382
  8
CURB-24-DIM
  6
CONTINUOUS
 62
     6
  2
_FILLED
 10
61.367817051800003
 20
92.414416946200006
 30
0.0
 41
4.0
 42
4.0
 43
4.0
 50
270.0
  0
INSERT
  5
383
  8
CURB-24-DIM
  6
CONTINUOUS
 62
     6
  2
_FILLED
 10
61.367817051800003
 20
149.97691694619999
 30
0.0
 41
4.0
 42
4.0
 43
4.0
 50
90.0
  0
ENDBLK
  5
384
  8
0
  6
BYBLOCK
 62
     0
  0
BLOCK
  8
0
  2
*U70
 70
     1
 10
0.0
 20
0.0
 30
0.0
  3
*U70
  1

  0
TEXT
  5
583
  8
CURB-24-DIM
 62
     6
 10
57.10115038513333
 20
120.19566694620001
 30
0.0
 40
2.0
  1
57-1/2
 41
0.8
  0
TEXT
  5
584
  8
CURB-24-DIM
 62
     6
 10
56.83448371846665
 20
116.86233361286671
 30
0.0
 40
2.0
  1
[1462.1]
 41
0.8
  0
ENDBLK
  5
586
  8
0
  0
BLOCK
  8
CURB-24-DIM
  6
CONTINUOUS
 62
     6
  2
*D71
 70
     1
 10
0.0
 20
0.0
 30
0.0
  3
*D71
  1

  0
INSERT
  5
386
  8
0
  2
*U72
 10
0.0
 20
0.0
 30
0.0
  0
LINE
  5
387
  8
CURB-24-DIM
  6
CONTINUOUS
 62
     6
 10
71.721724570600003
 20
90.826916946200015
 30
0.0
 11
71.721724570600003
 21
82.813131850399998
 31
0.0
  0
LINE
  5
388
  8
CURB-24-DIM
  6
CONTINUOUS
 62
     6
 10
71.721724570600003
 20
79.549386830499984
 30
0.0
 11
71.721724570600003
 21
55.328501299599992
 31
0.0
  0
LINE
  5
389
  8
CURB-24-DIM
  6
CONTINUOUS
 62
     6
 10
180.9717245706
 20
90.826916946200015
 30
0.0
 11
180.9717245706
 21
55.328501299599992
 31
0.0
  0
LINE
  5
38A
  8
CURB-24-DIM
  6
CONTINUOUS
 62
     6
 10
71.721724570600003
 20
56.916001299599998
 30
0.0
 11
117.1467245706
 21
56.916001299599998
 31
0.0
  0
LINE
  5
38B
  8
CURB-24-DIM
  6
CONTINUOUS
 62
     6
 10
180.9717245706
 20
56.916001299599998
 30
0.0
 11
135.54672457059999
 21
56.916001299599998
 31
0.0
  0
INSERT
  5
38C
  8
CURB-24-DIM
  6
CONTINUOUS
 62
     6
  2
_FILLED
 10
71.721724570600003
 20
56.916001299599998
 30
0.0
 41
4.0
 42
4.0
 43
4.0
 50
180.0
  0
INSERT
  5
38D
  8
CURB-24-DIM
  6
CONTINUOUS
 62
     6
  2
_FILLED
 10
180.9717245706
 20
56.916001299599998
 30
0.0
 41
4.0
 42
4.0
 43
4.0
  0
ENDBLK
  5
38E
  8
0
  6
BYBLOCK
 62
     0
  0
BLOCK
  8
0
  2
*U72
 70
     1
 10
0.0
 20
0.0
 30
0.0
  3
*U72
  1

  0
TEXT
  5
588
  8
CURB-24-DIM
 62
     6
 10
121.6800579039333
 20
55.916001299599991
 30
0.0
 40
2.0
  1
109-1/4
 41
0.8
  0
TEXT
  5
589
  8
CURB-24-DIM
 62
     6
 10
121.41339123726659
 20
52.582667966266662
 30
0.0
 40
2.0
  1
[2775.0]
 41
0.8
  0
ENDBLK
  5
58B
  8
0
  0
BLOCK
  8
CURB-24-DIM
  6
CONTINUOUS
 62
     6
  2
*D73
 70
     1
 10
0.0
 20
0.0
 30
0.0
  3
*D73
  1

  0
INSERT
  5
390
  8
0
  2
*U74
 10
0.0
 20
0.0
 30
0.0
  0
LINE
  5
391
  8
CURB-24-DIM
  6
CONTINUOUS
 62
     6
 10
70.134224570599969
 20
92.414416946200006
 30
0.0
 11
59.780317051800012
 21
92.414416946200006
 31
0.0
  0
LINE
  5
392
  8
CURB-24-DIM
  6
CONTINUOUS
 62
     6
 10
66.831595069700001
 20
89.521221494699986
 30
0.0
 11
59.780317051800012
 21
89.521221494699986
 31
0.0
  0
LINE
  5
393
  8
CURB-24-DIM
  6
CONTINUOUS
 62
     6
 10
61.367817051800003
 20
92.414416946200006
 30
0.0
 11
61.367817051800003
 21
105.1144169462
 31
0.0
  0
LINE
  5
394
  8
CURB-24-DIM
  6
CONTINUOUS
 62
     6
 10
61.367817051800003
 20
89.521221494699986
 30
0.0
 11
61.367817051800003
 21
79.495576017100007
 31
0.0
  0
LINE
  5
395
  8
CURB-24-DIM
  6
CONTINUOUS
 62
     6
 10
61.367817051800003
 20
79.495576017100007
 30
0.0
 11
57.502567613599993
 21
79.495576017100007
 31
0.0
  0
INSERT
  5
396
  8
CURB-24-DIM
  6
CONTINUOUS
 62
     6
  2
_FILLED
 10
61.367817051800003
 20
92.414416946200006
 30
0.0
 41
4.0
 42
4.0
 43
4.0
 50
270.0
  0
INSERT
  5
397
  8
CURB-24-DIM
  6
CONTINUOUS
 62
     6
  2
_FILLED
 10
61.367817051800003
 20
89.521221494699986
 30
0.0
 41
4.0
 42
4.0
 43
4.0
 50
90.0
  0
ENDBLK
  5
398
  8
0
  6
BYBLOCK
 62
     0
  0
BLOCK
  8
0
  2
*U74
 70
     1
 10
0.0
 20
0.0
 30
0.0
  3
*U74
  1

  0
TEXT
  5
58D
  8
CURB-24-DIM
 62
     6
 10
48.035900946933317
 20
78.495576017100007
 30
0.0
 40
2.0
  1
2-7/8
 41
0.8
  0
TEXT
  5
58E
  8
CURB-24-DIM
 62
     6
 10
50.702567613599989
 20
75.162242683766664
 30
0.0
 40
2.0
  1
[73]
 41
0.8
  0
ENDBLK
  5
590
  8
0
  0
BLOCK
  8
CURB-24-DIM
  6
CONTINUOUS
 62
     6
  2
*D75
 70
     1
 10
0.0
 20
0.0
 30
0.0
  3
*D75
  1

  0
INSERT
  5
39A
  8
0
  2
*U76
 10
0.0
 20
0.0
 30
0.0
  0
LINE
  5
39B
  8
CURB-24-DIM
  6
CONTINUOUS
 62
     6
 10
71.721724570600003
 20
76.308080057600009
 30
0.0
 11
71.721724570600003
 21
55.328501299599992
 31
0.0
  0
LINE
  5
39C
  8
CURB-24-DIM
  6
CONTINUOUS
 62
     6
 10
68.419095069700006
 20
87.933721494699995
 30
0.0
 11
68.419095069700006
 21
55.328501299599992
 31
0.0
  0
LINE
  5
39D
  8
CURB-24-DIM
  6
CONTINUOUS
 62
     6
 10
71.721724570600003
 20
56.916001299599998
 30
0.0
 11
84.421724570600006
 21
56.916001299599998
 31
0.0
  0
LINE
  5
39E
  8
CURB-24-DIM
  6
CONTINUOUS
 62
     6
 10
68.419095069700006
 20
56.916001299599998
 30
0.0
 11
61.34477055819999
 21
56.916001299599998
 31
0.0
  0
INSERT
  5
39F
  8
CURB-24-DIM
  6
CONTINUOUS
 62
     6
  2
_FILLED
 10
71.721724570600003
 20
56.916001299599998
 30
0.0
 41
4.0
 42
4.0
 43
4.0
 50
180.0
  0
INSERT
  5
3A0
  8
CURB-24-DIM
  6
CONTINUOUS
 62
     6
  2
_FILLED
 10
68.419095069700006
 20
56.916001299599998
 30
0.0
 41
4.0
 42
4.0
 43
4.0
  0
ENDBLK
  5
3A1
  8
0
  6
BYBLOCK
 62
     0
  0
BLOCK
  8
0
  2
*U76
 70
     1
 10
0.0
 20
0.0
 30
0.0
  3
*U76
  1

  0
TEXT
  5
592
  8
CURB-24-DIM
 62
     6
 10
52.41143722486666
 20
55.916001299599991
 30
0.0
 40
2.0
  1
3-1/4
 41
0.8
  0
TEXT
  5
593
  8
CURB-24-DIM
 62
     6
 10
54.544770558199993
 20
52.582667966266662
 30
0.0
 40
2.0
  1
[84]
 41
0.8
  0
ENDBLK
  5
595
  8
0
  0
BLOCK
  8
0
  2
*U77
 70
     1
 10
0.0
 20
0.0
 30
0.0
  3
*U77
  1

  0
TEXT
  5
597
  8
NOTES
 62
     1
 10
0.8
 20
1.0
 30
0.0
 40
2.0
  1
VIEW: TOP
 41
0.8
  0
ENDBLK
  5
599
  8
0
  0
BLOCK
  8
0
  2
*U78
 70
     1
 10
0.0
 20
0.0
 30
0.0
  3
*U78
  1

  0
TEXT
  5
59B
  8
NOTES
 62
     1
 10
0.8
 20
5.5
 30
0.0
 40
2.0
  1
FILE NAME: TSY50LTA
 41
0.8
  0
ENDBLK
  5
59D
  8
0
  0
BLOCK
  8
0
  2
*U79
 70
     1
 10
0.0
 20
0.0
 30
0.0
  3
*U79
  1

  0
TEXT
  5
59F
  8
NOTES
 62
     1
 10
17.06666666666667
 20
9.5
 30
0.0
 40
2.0
  1
LAYER KEY
 41
0.8
  0
ENDBLK
  5
5A1
  8
0
  0
BLOCK
  8
0
  2
*U80
 70
     1
 10
0.0
 20
0.0
 30
0.0
  3
*U80
  1

  0
TEXT
  5
5A3
  8
NOTES
 62
     7
 10
2.6666666666666661
 20
13.5
 30
0.0
 40
2.0
  1
-
 41
8.0
  7
TEXTSTYLE_2
  0
ENDBLK
  5
5A5
  8
0
  0
BLOCK
  8
0
  2
*U81
 70
     1
 10
0.0
 20
0.0
 30
0.0
  3
*U81
  1

  0
TEXT
  5
5A7
  8
NOTES
 62
     1
 10
16.800000000000001
 20
13.5
 30
0.0
 40
2.0
  1
UNIT
 41
0.8
  0
ENDBLK
  5
5A9
  8
0
  0
BLOCK
  8
0
  2
*U82
 70
     1
 10
0.0
 20
0.0
 30
0.0
  3
*U82
  1

  0
TEXT
  5
5AB
  8
NOTES
 62
     6
 10
2.6666666666666661
 20
17.5
 30
0.0
 40
2.0
  1
-
 41
8.0
  7
TEXTSTYLE_2
  0
ENDBLK
  5
5AD
  8
0
  0
BLOCK
  8
0
  2
*U83
 70
     1
 10
0.0
 20
0.0
 30
0.0
  3
*U83
  1

  0
TEXT
  5
5AF
  8
NOTES
 62
     1
 10
16.800000000000001
 20
17.5
 30
0.0
 40
2.0
  1
ROOF CURB
 41
0.8
  0
ENDBLK
  5
5B1
  8
0
  0
BLOCK
  8
0
  2
*U84
 70
     1
 10
0.0
 20
0.0
 30
0.0
  3
*U84
  1

  0
TEXT
  5
5B3
  8
NOTES
 62
     1
 10
2.6666666666666661
 20
21.5
 30
0.0
 40
2.0
  1
-
 41
8.0
  7
TEXTSTYLE_2
  0
ENDBLK
  5
5B5
  8
0
  0
BLOCK
  8
0
  2
*U85
 70
     1
 10
0.0
 20
0.0
 30
0.0
  3
*U85
  1

  0
TEXT
  5
5B7
  8
NOTES
 62
     1
 10
16.800000000000001
 20
21.5
 30
0.0
 40
2.0
  1
SERVICE CLEARANCE
 41
0.8
  0
ENDBLK
  5
5B9
  8
0
  0
BLOCK
  8
0
  2
*U86
 70
     1
 10
0.0
 20
0.0
 30
0.0
  3
*U86
  1

  0
TEXT
  5
5BB
  8
NOTES
 62
     2
 10
2.6666666666666661
 20
25.5
 30
0.0
 40
2.0
  1
-
 41
8.0
  7
TEXTSTYLE_2
  0
ENDBLK
  5
5BD
  8
0
  0
BLOCK
  8
0
  2
*U87
 70
     1
 10
0.0
 20
0.0
 30
0.0
  3
*U87
  1

  0
TEXT
  5
5BF
  8
NOTES
 62
     1
 10
16.800000000000001
 20
25.5
 30
0.0
 40
2.0
  1
UNIT DUCTS
 41
0.8
  0
ENDBLK
  5
5C1
  8
0
  0
BLOCK
  8
0
  2
*U88
 70
     1
 10
0.0
 20
0.0
 30
0.0
  3
*U88
  1

  0
TEXT
  5
5C3
  8
NOTES
 62
     5
 10
2.6666666666666661
 20
29.5
 30
0.0
 40
2.0
  1
-
 41
8.0
  7
TEXTSTYLE_2
  0
ENDBLK
  5
5C5
  8
0
  0
BLOCK
  8
0
  2
*U89
 70
     1
 10
0.0
 20
0.0
 30
0.0
  3
*U89
  1

  0
TEXT
  5
5C7
  8
NOTES
 62
     1
 10
16.800000000000001
 20
29.5
 30
0.0
 40
2.0
  1
CURB DUCTS
 41
0.8
  0
ENDBLK
  5
5C9
  8
0
  0
BLOCK
  8
0
  2
*U90
 70
     1
 10
0.0
 20
0.0
 30
0.0
  3
*U90
  1

  0
TEXT
  5
5CB
  8
NOTES
 62
     8
 10
2.6666666666666661
 20
33.5
 30
0.0
 40
2.0
  1
-
 41
8.0
  7
TEXTSTYLE_2
  0
ENDBLK
  5
5CD
  8
0
  0
BLOCK
  8
0
  2
*U91
 70
     1
 10
0.0
 20
0.0
 30
0.0
  3
*U91
  1

  0
TEXT
  5
5CF
  8
NOTES
 62
     1
 10
16.800000000000001
 20
33.5
 30
0.0
 40
2.0
  1
UNIT HIDDEN
 41
0.8
  0
ENDBLK
  5
5D1
  8
0
  0
BLOCK
  8
0
  2
*U92
 70
     1
 10
0.0
 20
0.0
 30
0.0
  3
*U92
  1

  0
TEXT
  5
5D3
  8
NOTES
 62
     1
 10
118.8468291967
 20
71.29833970140001
 30
0.0
 40
1.707479
  1
3/4"-14 NPT
 41
0.8
  0
TEXT
  5
5D4
  8
NOTES
 62
     1
 10
118.8468291967
 20
68.452541368066647
 30
0.0
 40
1.707479
  1
ALTERNATE DRAIN
 41
0.8
  0
TEXT
  5
5D5
  8
NOTES
 62
     1
 10
118.8468291967
 20
65.606743034733327
 30
0.0
 40
1.707479
  1
OPENING IN BASE
 41
0.8
  0
TEXT
  5
5D6
  8
NOTES
 62
     1
 10
118.8468291967
 20
62.760944701400007
 30
0.0
 40
1.707479
  1
PAN
 41
0.8
  0
ENDBLK
  5
5D8
  8
0
  0
BLOCK
  8
0
  2
*U93
 70
     1
 10
0.0
 20
0.0
 30
0.0
  3
*U93
  1

  0
TEXT
  5
5DA
  8
NOTES
 62
     1
 10
6.6373687743999987
 20
242.91863863430001
 30
0.0
 40
2.286
  1
CONNECTION SIZES
 41
0.8
  0
TEXT
  5
5DB
  8
NOTES
 62
     1
 10
6.6373687743999987
 20
239.10863863430001
 30
0.0
 40
2.286
  1
A-7/8" DIA [22] ACCESSORY WIRING HOLE
 41
0.8
  0
TEXT
  5
5DC
  8
NOTES
 62
     1
 10
6.6373687743999987
 20
235.2986386343
 30
0.0
 40
2.286
  1
B-7/8" DIA [22] FIELD CONTROL WIRING HOLE
 41
0.8
  0
TEXT
  5
5DD
  8
NOTES
 62
     1
 10
6.6373687743999987
 20
231.4886386343
 30
0.0
 40
2.286
  1
C-1 1/2 - 2 1/2" DIA [35-64] FIELD POWER SUPPLY KNOCKOUT
 41
0.8
  0
TEXT
  5
5DE
  8
NOTES
 62
     1
 10
6.6373687743999987
 20
227.6786386343
 30
0.0
 40
2.286
  1
D-3/4" - 14 NPT GAS CONNECTION
 41
0.8
  0
ENDBLK
  5
5E0
  8
0
  0
BLOCK
  8
0
  2
*U94
 70
     1
 10
0.0
 20
0.0
 30
0.0
  3
*U94
  1

  0
TEXT
  5
5E2
  8
NOTES
 62
     1
 10
115.30220011500001
 20
112.090091946
 30
0.0
 40
2.0
  1
A
 41
0.8
  0
TEXT
  5
5E3
  8
NOTES
 62
     1
 10
115.30220011500001
 20
108.7567586126666
 30
0.0
 40
2.0
  1
B
 41
0.8
  0
TEXT
  5
5E4
  8
NOTES
 62
     1
 10
115.30220011500001
 20
105.4234252793333
 30
0.0
 40
2.0
  1
C
 41
0.8
  0
TEXT
  5
5E5
  8
NOTES
 62
     1
 10
115.30220011500001
 20
102.090091946
 30
0.0
 40
2.0
  1
D
 41
0.8
  0
ENDBLK
  5
5E7
  8
0
  0
ENDSEC
  0
SECTION
  2
ENTITIES
  0
DIMENSION
  5
3A2
  8
SERVCLRDIM
  6
CONTINUOUS
 62
     1
  2
*D3
 10
115.7672339882
 20
37.583721494700001
 30
0.0
 11
145.3172339882
 21
19.661410737699999
 31
0.0
 70
   128
  1
36-48" DEPENDING ON OPTIONS.\PCHECK FOR ADJACENT UNITS OR\PBUILDING FRESH AIR INTAKE\PWITHIN 10FT. OF THIS UNITS\PFLUE OUTLET. SEE PRODUCT DATA\PFOR DETAILS.
 13
126.34676987029999
 23
85.583721494700015
 33
0.0
 14
105.57415629899999
 24
37.583721494700001
 34
0.0
 50
270.0
  0
DIMENSION
  5
3A3
  8
SERVCLRDIM
  6
CONTINUOUS
 62
     1
  2
*D5
 10
220.24319467090001
 20
198.51835294680001
 30
0.0
 11
202.22694716090001
 21
194.01835294680001
 31
0.0
 70
   128
  1
18-36 DEPENDING\PON OPTIONS, SEE\PPRODUCT DATA FOR \PDETAILS.
 13
184.27444467090001
 23
189.5451652847
 33
0.0
 14
220.24319467090001
 24
223.85346228610001
 34
0.0
  0
DIMENSION
  5
3A4
  8
UNIT-DIM
  6
CONTINUOUS
 62
     7
  2
*D7
 10
226.19895603489999
 20
131.05480235260001
 30
0.0
 11
225.39895603490001
 21
100.5126737894
 31
0.0
 70
   128
  1
<> 
 13
184.27444467090001
 23
89.521221494699986
 33
0.0
 14
159.0054587697
 24
131.05480235260001
 34
0.0
 50
90.0
  0
DIMENSION
  5
3A5
  8
UNIT-DIM
  6
CONTINUOUS
 62
     7
  2
*D9
 10
158.26500095590001
 20
140.9391343371
 30
0.0
 11
196.30801039990001
 21
139.4391343371
 31
0.0
 70
   128
  1
<> 
 13
184.27444467090001
 23
152.86924376479999
 33
0.0
 14
158.26500095590001
 24
131.7952601664
 34
0.0
 50
180.0
  0
DIMENSION
  5
3A6
  8
UNIT-DIM
  6
CONTINUOUS
 62
     7
  2
*D11
 10
111.3214115303
 20
181.91596228610001
 30
0.0
 11
110.5214115303
 21
165.89260302549999
 31
0.0
 70
   128
  1
<> 
 13
184.27444467090001
 23
152.86924376479999
 33
0.0
 14
129.54413808940001
 24
181.91596228610001
 34
0.0
 50
90.0
  0
DIMENSION
  5
3A7
  8
UNIT-DIM
  6
CONTINUOUS
 62
     7
  2
*D13
 10
129.54413808940001
 20
189.2149470299
 30
0.0
 11
155.1927767821999
 21
187.7149470299
 31
0.0
 70
   128
  1
<> 
 13
182.44141547500001
 23
181.91596228610001
 33
0.0
 14
129.54413808940001
 24
181.91596228610001
 34
0.0
 50
180.0
  0
DIMENSION
  5
3A8
  8
UNIT-DIM
  6
CONTINUOUS
 62
     7
  2
*D15
 10
46.307082636199979
 20
104.5515394327
 30
0.0
 11
36.303651367800001
 21
118.91573764340001
 31
0.0
 70
   128
  1
<> 
 13
68.419095069700006
 23
89.521221494699986
 33
0.0
 14
112.6746680864
 24
104.5515394327
 34
0.0
 50
90.0
  0
DIMENSION
  5
3A9
  8
UNIT-DIM
  6
CONTINUOUS
 62
     7
  2
*D17
 10
38.325614394200002
 20
107.6763214066
 30
0.0
 11
28.053363533599999
 21
81.786434338199967
 31
0.0
 70
   128
  1
<> 
 13
68.419095069700006
 23
89.521221494699986
 33
0.0
 14
112.6746680864
 24
107.6763214066
 34
0.0
 50
90.0
  0
DIMENSION
  5
3AA
  8
UNIT-DIM
  6
CONTINUOUS
 62
     7
  2
*D19
 10
27.3840122764
 20
110.03461791230001
 30
0.0
 11
26.584012276399999
 21
98.277919703500004
 31
0.0
 70
   128
  1
<> 
 13
68.419095069700006
 23
89.521221494699986
 33
0.0
 14
112.6746680864
 24
110.03461791230001
 34
0.0
 50
90.0
  0
DIMENSION
  5
3AB
  8
UNIT-DIM
  6
CONTINUOUS
 62
     7
  2
*D21
 10
13.4750259445
 20
112.0220422156
 30
0.0
 11
12.6750259445
 21
99.271631855099997
 31
0.0
 70
   128
  1
<> 
 13
68.419095069700006
 23
89.521221494699986
 33
0.0
 14
112.6746680864
 24
112.0220422156
 34
0.0
 50
90.0
  0
DIMENSION
  5
3AC
  8
UNIT-DIM
  6
CONTINUOUS
 62
     7
  2
*D23
 10
112.6746680864
 20
80.868750238299981
 30
0.0
 11
89.746881577999986
 21
79.368750238299981
 31
0.0
 70
   128
  1
<> 
 13
68.419095069700006
 23
89.521221494699986
 33
0.0
 14
112.6746680864
 24
105.44498715819999
 34
0.0
  0
DIMENSION
  5
3AD
  8
UNITDUCTDIM
  6
CONTINUOUS
 62
     2
  2
*D25
 10
214.11871552779999
 20
133.87872149469999
 30
0.0
 11
213.31871552780001
 21
110.19997149469999
 31
0.0
 70
   128
  1
<> 
 13
184.27444467090001
 23
89.521221494699986
 33
0.0
 14
178.4988930749
 24
133.87872149469999
 34
0.0
 50
90.0
  0
DIMENSION
  5
3AE
  8
UNITDUCTDIM
  6
CONTINUOUS
 62
     2
  2
*D27
 10
214.11871552779999
 20
146.51070194619999
 30
0.0
 11
213.31871552780001
 21
138.69471172039999
 31
0.0
 70
   128
  1
<> 
 13
178.50061302029999
 23
133.87872149469999
 33
0.0
 14
178.50061302029999
 24
146.51070194619999
 34
0.0
 50
90.0
  0
DIMENSION
  5
3AF
  8
UNIT-DIM
  6
CONTINUOUS
 62
     7
  2
*D29
 10
129.54413808940001
 20
189.2149470299
 30
0.0
 11
98.181616579599989
 21
187.7149470299
 31
0.0
 70
   128
  1
<> 
 13
68.419095069700006
 23
152.86924376479999
 33
0.0
 14
129.54413808940001
 24
181.91596228610001
 34
0.0
  0
DIMENSION
  5
3B0
  8
UNITDUCTDIM
  6
CONTINUOUS
 62
     2
  2
*D31
 10
178.50061302029999
 20
158.8640511982
 30
0.0
 11
200.3062743683
 21
157.3640511982
 31
0.0
 70
   128
  1
<> 
 13
184.27444467090001
 23
152.86924376479999
 33
0.0
 14
178.50061302029999
 24
146.51070194619999
 34
0.0
 50
180.0
  0
DIMENSION
  5
3B1
  8
UNITDUCTDIM
  6
CONTINUOUS
 62
     2
  2
*D33
 10
131.6505241703
 20
169.57321454480001
 30
0.0
 11
154.2755685953
 21
168.07321454480001
 31
0.0
 70
   128
  1
<> 
 13
178.50061302029999
 23
146.51070194619999
 33
0.0
 14
131.6505241703
 24
146.51070194619999
 34
0.0
 50
180.0
  0
DIMENSION
  5
3B2
  8
UNITDUCTDIM
  6
CONTINUOUS
 62
     2
  2
*D35
 10
184.27444467090001
 20
63.217214536499988
 30
0.0
 11
201.3994173776
 21
61.717214536500002
 31
0.0
 70
   128
  1
<> 
 13
177.99949115070001
 23
95.040655658399984
 33
0.0
 14
184.27444467090001
 24
89.521221494699986
 34
0.0
  0
DIMENSION
  5
3B3
  8
UNITDUCTDIM
  6
CONTINUOUS
 62
     2
  2
*D37
 10
177.99949115070001
 20
63.217214536499988
 30
0.0
 11
137.7821730748
 21
61.717214536500002
 31
0.0
 70
   128
  1
<> 
 13
151.2615047722
 23
94.378721494699988
 33
0.0
 14
177.99949115070001
 24
81.048954400199989
 34
0.0
  0
DIMENSION
  5
3B4
  8
UNITDUCTDIM
  6
CONTINUOUS
 62
     2
  2
*D39
 10
197.4009662425
 20
128.3541479022
 30
0.0
 11
196.60096624249999
 21
119.6809239414
 31
0.0
 70
   128
  1
<> 
 13
177.99949115070001
 23
94.378721494699988
 33
0.0
 14
177.99949115070001
 24
128.3541479022
 34
0.0
 50
90.0
  0
DIMENSION
  5
3B5
  8
SERVCLRDIM
  6
CONTINUOUS
 62
     1
  2
*D41
 10
20.450345069699999
 20
167.65709385509999
 30
0.0
 11
44.434720069699999
 21
163.15709385509999
 31
0.0
 70
   128
  1
12-48 DEPENDING\PON OPTIONS, SEE \PPRODUCT DATA FOR\PDETAILS.
 13
68.419095069700006
 23
152.86924376479999
 33
0.0
 14
20.450345069699999
 24
162.36204042910001
 34
0.0
 50
180.0
  0
DIMENSION
  5
3B6
  8
SERVCLRDIM
  6
CONTINUOUS
 62
     1
  2
*D43
 10
111.4469628409
 20
223.85346228610001
 30
0.0
 11
111.4469628409
 21
209.2477719796
 31
0.0
 70
   128
  1
36-42" DEPENDING ON\POPTIONS. CHECK FOR\PSOURCES OF FLUE PRODUCTS\PWITHIN 10FT. OF UNIT FRESH\PAIR INTAKE HOOD. SEE\PPRODUCT DATA FOR DETAILS.
 13
129.54413808940001
 23
181.91596228610001
 33
0.0
 14
220.24319467090001
 24
223.85346228610001
 34
0.0
 50
90.0
  0
DIMENSION
  5
3B7
  8
CURB-14-DIM
  6
CONTINUOUS
 62
     6
  2
*D45
 10
61.367817051800003
 20
149.97691694619999
 30
0.0
 11
60.567817051799999
 21
119.69566694620001
 31
0.0
 70
   128
  1
<> 
 13
71.613874852099997
 23
92.414416946200006
 33
0.0
 14
71.721724570600003
 24
149.97691694619999
 34
0.0
 50
90.0
  0
DIMENSION
  5
3B8
  8
CURB-14-DIM
  6
CONTINUOUS
 62
     6
  2
*D47
 10
180.9717245706
 20
56.916001299599998
 30
0.0
 11
125.54672457060001
 21
55.416001299599991
 31
0.0
 70
   128
  1
<> 
 13
71.721724570600003
 23
92.414416946200006
 33
0.0
 14
180.9717245706
 24
92.414416946200006
 34
0.0
  0
DIMENSION
  5
3B9
  8
CURBDUCTDIM
  6
CONTINUOUS
 62
     5
  2
*D49
 10
179.2217245706
 20
176.65290275379999
 30
0.0
 11
153.23422457059999
 21
175.15290275379999
 31
0.0
 70
   128
  1
<> 
 13
128.8467245706
 23
148.22691694619999
 33
0.0
 14
179.2217245706
 24
148.22691694619999
 34
0.0
  0
DIMENSION
  5
3BA
  8
CURBDUCTDIM
  6
CONTINUOUS
 62
     5
  2
*D51
 10
179.2217245706
 20
83.326110398400004
 30
0.0
 11
163.70297457059999
 21
81.826110398400004
 31
0.0
 70
   128
  1
<> 
 13
149.7842245706
 23
94.164416946200006
 33
0.0
 14
179.2217245706
 24
94.164416946200006
 34
0.0
  0
DIMENSION
  5
3BB
  8
CURBDUCTDIM
  6
CONTINUOUS
 62
     5
  2
*D53
 10
204.91739435220001
 20
94.164416946200006
 30
0.0
 11
204.11739435219999
 21
105.0691568312
 31
0.0
 70
   128
  1
<> 
 13
179.2217245706
 23
130.10191694619999
 33
0.0
 14
179.2217245706
 24
94.164416946200006
 34
0.0
 50
270.0
  0
DIMENSION
  5
3BC
  8
CURBDUCTDIM
  6
CONTINUOUS
 62
     5
  2
*D55
 10
141.973936993
 20
132.91441694619999
 30
0.0
 11
141.973936993
 21
161.4092881414
 31
0.0
 70
   128
 13
145.14893699299981
 23
148.22691694619999
 33
0.0
 14
145.14893699299981
 24
132.91441694619999
 34
0.0
 50
270.0
  0
DIMENSION
  5
3BD
  8
UNITDUCTDIM
  6
CONTINUOUS
 62
     2
  2
*D57
 10
189.25642454889999
 20
94.378721494699988
 30
0.0
 11
199.43651952900001
 21
77.601646458999966
 31
0.0
 70
   128
 13
184.27444467090001
 23
89.521221494699986
 33
0.0
 14
177.99949115070001
 24
94.378721494699988
 34
0.0
 50
90.0
  0
DIMENSION
  5
3BE
  8
CURB-14-DIM
  6
CONTINUOUS
 62
     6
  2
*D59
 10
61.367817051800003
 20
89.521221494699986
 30
0.0
 11
51.502567613599993
 21
77.995576017100007
 31
0.0
 70
   128
 13
71.721724570600003
 23
92.414416946200006
 33
0.0
 14
68.419095069700006
 24
89.521221494699986
 34
0.0
 50
270.0
  0
DIMENSION
  5
3BF
  8
CURB-14-DIM
  6
CONTINUOUS
 62
     6
  2
*D61
 10
68.419095069700006
 20
56.916001299599998
 30
0.0
 11
55.344770558199997
 21
55.416001299599991
 31
0.0
 70
   128
 13
71.721724570600003
 23
77.8955800576
 33
0.0
 14
68.419095069700006
 24
89.521221494699986
 34
0.0
 50
180.0
  0
DIMENSION
  5
3C0
  8
UNIT-DIM
  6
CONTINUOUS
 62
     7
  2
*D63
 10
234.01534557190001
 20
89.521221494699986
 30
0.0
 11
234.01534557190001
 21
123.70663248309999
 31
0.0
 70
   128
 13
184.27444467090001
 23
152.86924376479999
 33
0.0
 14
184.27444467090001
 24
89.521221494699986
 34
0.0
 50
270.0
  0
DIMENSION
  5
3C1
  8
UNIT-DIM
  6
CONTINUOUS
 62
     7
  2
*D65
 10
184.27444467090001
 20
198.51835294680001
 30
0.0
 11
141.55124315890001
 21
197.01835294680001
 31
0.0
 70
   128
 13
68.419095069700006
 23
152.86924376479999
 33
0.0
 14
184.27444467090001
 24
152.86924376479999
 34
0.0
  0
DIMENSION
  5
3C2
  8
UNIT-DIM
  6
CONTINUOUS
 62
     2
  2
*D67
 10
137.25036302730001
 20
85.583721494700015
 30
0.0
 11
126.6685826289
 21
77.553671147900005
 31
0.0
 70
   128
 13
68.419095069700006
 23
89.521221494699986
 33
0.0
 14
131.76658158959981
 24
85.583721494700015
 34
0.0
 50
270.0
  0
DIMENSION
  5
3C3
  8
CURB-24-DIM
  6
CONTINUOUS
 62
     6
  2
*D69
 10
61.367817051800003
 20
149.97691694619999
 30
0.0
 11
60.567817051799999
 21
119.69566694620001
 31
0.0
 70
   128
  1
<> 
 13
71.613874852099997
 23
92.414416946200006
 33
0.0
 14
71.721724570600003
 24
149.97691694619999
 34
0.0
 50
90.0
  0
DIMENSION
  5
3C4
  8
CURB-24-DIM
  6
CONTINUOUS
 62
     6
  2
*D71
 10
180.9717245706
 20
56.916001299599998
 30
0.0
 11
125.54672457060001
 21
55.416001299599991
 31
0.0
 70
   128
  1
<> 
 13
71.721724570600003
 23
92.414416946200006
 33
0.0
 14
180.9717245706
 24
92.414416946200006
 34
0.0
  0
DIMENSION
  5
3C5
  8
CURB-24-DIM
  6
CONTINUOUS
 62
     6
  2
*D73
 10
61.367817051800003
 20
89.521221494699986
 30
0.0
 11
51.502567613599993
 21
77.995576017100007
 31
0.0
 70
   128
 13
71.721724570600003
 23
92.414416946200006
 33
0.0
 14
68.419095069700006
 24
89.521221494699986
 34
0.0
 50
270.0
  0
DIMENSION
  5
3C6
  8
CURB-24-DIM
  6
CONTINUOUS
 62
     6
  2
*D75
 10
68.419095069700006
 20
56.916001299599998
 30
0.0
 11
55.344770558199997
 21
55.416001299599991
 31
0.0
 70
   128
 13
71.721724570600003
 23
77.8955800576
 33
0.0
 14
68.419095069700006
 24
89.521221494699986
 34
0.0
 50
180.0
  0
LINE
  5
3C7
  8
NOTES
  6
CONTINUOUS
 62
     1
 10
0.0
 20
0.0
 30
0.0
 11
48.0
 21
0.0
 31
0.0
  0
LINE
  5
3C8
  8
NOTES
  6
CONTINUOUS
 62
     1
 10
0.0
 20
0.0
 30
0.0
 11
0.0
 21
36.5
 31
0.0
  0
LINE
  5
3C9
  8
NOTES
  6
CONTINUOUS
 62
     1
 10
0.0
 20
4.0
 30
0.0
 11
48.0
 21
4.0
 31
0.0
  0
LINE
  5
3CA
  8
NOTES
  6
CONTINUOUS
 62
     1
 10
0.0
 20
4.5
 30
0.0
 11
48.0
 21
4.5
 31
0.0
  0
LINE
  5
3CB
  8
NOTES
  6
CONTINUOUS
 62
     1
 10
0.0
 20
8.5
 30
0.0
 11
48.0
 21
8.5
 31
0.0
  0
LINE
  5
3CC
  8
NOTES
  6
CONTINUOUS
 62
     1
 10
0.0
 20
12.5
 30
0.0
 11
48.0
 21
12.5
 31
0.0
  0
LINE
  5
3CD
  8
NOTES
  6
CONTINUOUS
 62
     1
 10
0.0
 20
16.5
 30
0.0
 11
48.0
 21
16.5
 31
0.0
  0
LINE
  5
3CE
  8
NOTES
  6
CONTINUOUS
 62
     1
 10
0.0
 20
20.5
 30
0.0
 11
48.0
 21
20.5
 31
0.0
  0
LINE
  5
3CF
  8
NOTES
  6
CONTINUOUS
 62
     1
 10
0.0
 20
24.5
 30
0.0
 11
48.0
 21
24.5
 31
0.0
  0
LINE
  5
3D0
  8
NOTES
  6
CONTINUOUS
 62
     1
 10
0.0
 20
28.5
 30
0.0
 11
48.0
 21
28.5
 31
0.0
  0
LINE
  5
3D1
  8
NOTES
  6
CONTINUOUS
 62
     1
 10
0.0
 20
32.5
 30
0.0
 11
48.0
 21
32.5
 31
0.0
  0
LINE
  5
3D2
  8
NOTES
  6
CONTINUOUS
 62
     1
 10
0.0
 20
36.5
 30
0.0
 11
48.0
 21
36.5
 31
0.0
  0
LINE
  5
3D3
  8
NOTES
  6
CONTINUOUS
 62
     1
 10
16.0
 20
12.5
 30
0.0
 11
16.0
 21
36.5
 31
0.0
  0
LINE
  5
3D4
  8
NOTES
  6
CONTINUOUS
 62
     1
 10
48.0
 20
0.0
 30
0.0
 11
48.0
 21
36.5
 31
0.0
  0
INSERT
  5
3D5
  8
0
  2
*U77
 10
0.0
 20
0.0
 30
0.0
  0
INSERT
  5
3D6
  8
0
  2
*U78
 10
0.0
 20
0.0
 30
0.0
  0
INSERT
  5
3D7
  8
0
  2
*U79
 10
0.0
 20
0.0
 30
0.0
  0
INSERT
  5
3D8
  8
0
  2
*U80
 10
0.0
 20
0.0
 30
0.0
  0
INSERT
  5
3D9
  8
0
  2
*U81
 10
0.0
 20
0.0
 30
0.0
  0
INSERT
  5
3DA
  8
0
  2
*U82
 10
0.0
 20
0.0
 30
0.0
  0
INSERT
  5
3DB
  8
0
  2
*U83
 10
0.0
 20
0.0
 30
0.0
  0
INSERT
  5
3DC
  8
0
  2
*U84
 10
0.0
 20
0.0
 30
0.0
  0
INSERT
  5
3DD
  8
0
  2
*U85
 10
0.0
 20
0.0
 30
0.0
  0
INSERT
  5
3DE
  8
0
  2
*U86
 10
0.0
 20
0.0
 30
0.0
  0
INSERT
  5
3DF
  8
0
  2
*U87
 10
0.0
 20
0.0
 30
0.0
  0
INSERT
  5
3E0
  8
0
  2
*U88
 10
0.0
 20
0.0
 30
0.0
  0
INSERT
  5
3E1
  8
0
  2
*U89
 10
0.0
 20
0.0
 30
0.0
  0
INSERT
  5
3E2
  8
0
  2
*U90
 10
0.0
 20
0.0
 30
0.0
  0
INSERT
  5
3E3
  8
0
  2
*U91
 10
0.0
 20
0.0
 30
0.0
  0
INSERT
  5
3E4
  8
0
  2
*U92
 10
0.0
 20
0.0
 30
0.0
  0
LINE
  5
3E5
  8
NOTES
  6
CONTINUOUS
 62
     1
 10
157.94988341749999
 20
130.64726491089999
 30
0.0
 11
138.60043364020001
 21
72.152079201399999
 31
0.0
  0
LINE
  5
3E6
  8
NOTES
  6
CONTINUOUS
 62
     1
 10
138.60043364020001
 20
72.152079201399999
 30
0.0
 11
133.8726443967
 21
72.152079201399999
 31
0.0
  0
SOLID
  5
3E7
  8
NOTES
  6
CONTINUOUS
 62
     1
 10
157.4057330633
 20
126.61410233150001
 30
0.0
 11
157.94988341749999
 21
130.64726491089999
 31
0.0
 12
155.98162400199999
 22
127.0851791633
 32
0.0
 13
155.98162400199999
 23
127.0851791633
 33
0.0
  0
INSERT
  5
3E8
  8
0
  2
*U93
 10
0.0
 20
0.0
 30
0.0
  0
INSERT
  5
3E9
  8
0
  2
*U94
 10
0.0
 20
0.0
 30
0.0
  0
LINE
  5
3EA
  8
0
  6
CONTINUOUS
 62
     7
 10
0.0
 20
0.0
 30
0.0
 11
0.0
 21
250.0
 31
0.0
  0
LINE
  5
3EB
  8
0
  6
CONTINUOUS
 62
     7
 10
0.0
 20
0.0
 30
0.0
 11
250.0
 21
0.0
 31
0.0
  0
LINE
  5
3EC
  8
SERVCLEAR
  6
DASHED
 62
     1
 10
20.450345069699999
 20
223.85346228610001
 30
0.0
 11
20.450345069699999
 21
37.583721494700001
 31
0.0
  0
LINE
  5
3ED
  8
SERVCLEAR
  6
DASHED
 62
     1
 10
20.450345069699999
 20
37.583721494700001
 30
0.0
 11
220.24319467090001
 21
37.583721494700001
 31
0.0
  0
LINE
  5
3EE
  8
UNIT-SOL
  6
CONTINUOUS
 62
     7
 10
68.419095069700006
 20
89.521221494699986
 30
0.0
 11
68.419095069700006
 21
152.86924376479999
 31
0.0
  0
LINE
  5
3EF
  8
CURB-14
  6
CONTINUOUS
 62
     6
 10
71.721724570600003
 20
92.414416946200006
 30
0.0
 11
71.721724570600003
 21
149.97691694619999
 31
0.0
  0
LINE
  5
3F0
  8
CURB-24
  6
CONTINUOUS
 62
     6
 10
71.721724570600003
 20
92.414416946200006
 30
0.0
 11
71.721724570600003
 21
149.97691694619999
 31
0.0
  0
LINE
  5
3F1
  8
CURB-14
  6
CONTINUOUS
 62
     6
 10
73.471724570600003
 20
94.164416946200006
 30
0.0
 11
73.471724570600003
 21
148.22691694619999
 31
0.0
  0
LINE
  5
3F2
  8
CURB-24
  6
CONTINUOUS
 62
     6
 10
73.471724570600003
 20
94.164416946200006
 30
0.0
 11
73.471724570600003
 21
148.22691694619999
 31
0.0
  0
LINE
  5
3F3
  8
UNIT-SOL
  6
CONTINUOUS
 62
     7
 10
84.265461313499983
 20
132.8774370889
 30
0.0
 11
84.265461313499983
 21
124.755653454
 31
0.0
  0
LINE
  5
3F4
  8
UNIT-SOL
  6
CONTINUOUS
 62
     7
 10
84.265461313499983
 20
140.7005465437
 30
0.0
 11
84.265461313499983
 21
148.8223301786
 31
0.0
  0
LINE
  5
3F5
  8
UNIT-SOL
  6
CONTINUOUS
 62
     7
 10
84.265897197899989
 20
105.71395737269999
 30
0.0
 11
84.265897197899989
 21
97.592173737800024
 31
0.0
  0
LINE
  5
3F6
  8
UNIT-SOL
  6
CONTINUOUS
 62
     7
 10
84.265897197899989
 20
113.5370668275
 30
0.0
 11
84.265897197899989
 21
121.6588504624
 31
0.0
  0
LINE
  5
3F7
  8
UNIT-SOL
  6
CONTINUOUS
 62
     7
 10
94.654288419599993
 20
142.7869839425
 30
0.0
 11
87.652967075799964
 21
138.74476917999999
 31
0.0
  0
LINE
  5
3F8
  8
UNIT-SOL
  6
CONTINUOUS
 62
     7
 10
80.877955551300005
 20
134.8332144526
 30
0.0
 11
73.8442845995
 21
130.77232263510001
 31
0.0
  0
LINE
  5
3F9
  8
UNIT-SOL
  6
CONTINUOUS
 62
     7
 10
126.34676987029999
 20
85.583721494700015
 30
0.0
 11
131.76658158959981
 21
85.583721494700015
 31
0.0
  0
LINE
  5
3FA
  8
UNIT-SOL
  6
CONTINUOUS
 62
     7
 10
68.419095069700006
 20
89.521221494699986
 30
0.0
 11
184.27444467090001
 21
89.521221494699986
 31
0.0
  0
LINE
  5
3FB
  8
CURB-14
  6
CONTINUOUS
 62
     6
 10
71.721724570600003
 20
92.414416946200006
 30
0.0
 11
180.9717245706
 21
92.414416946200006
 31
0.0
  0
LINE
  5
3FC
  8
CURB-24
  6
CONTINUOUS
 62
     6
 10
71.721724570600003
 20
92.414416946200006
 30
0.0
 11
180.9717245706
 21
92.414416946200006
 31
0.0
  0
LINE
  5
3FD
  8
CURB-14
  6
CONTINUOUS
 62
     6
 10
73.471724570600003
 20
94.164416946200006
 30
0.0
 11
179.2217245706
 21
94.164416946200006
 31
0.0
  0
LINE
  5
3FE
  8
CURB-24
  6
CONTINUOUS
 62
     6
 10
73.471724570600003
 20
94.164416946200006
 30
0.0
 11
179.2217245706
 21
94.164416946200006
 31
0.0
  0
LINE
  5
3FF
  8
CURB-DUCTS
  6
CONTINUOUS
 62
     5
 10
149.7842245706
 20
94.164416946200006
 30
0.0
 11
179.2217245706
 21
94.164416946200006
 31
0.0
  0
LINE
  5
400
  8
UNIT-DUCTS
  6
CONTINUOUS
 62
     2
 10
151.2615047722
 20
94.378721494699988
 30
0.0
 11
177.99949115070001
 21
94.378721494699988
 31
0.0
  0
LINE
  5
401
  8
UNIT-SOL
  6
CONTINUOUS
 62
     7
 10
80.878391435699996
 20
111.5812894638
 30
0.0
 11
73.844720483900005
 21
115.6421812812
 31
0.0
  0
LINE
  5
402
  8
UNIT-SOL
  6
CONTINUOUS
 62
     7
 10
87.653402960199969
 20
107.6697347364
 30
0.0
 11
94.687073912000002
 21
103.6088429189
 31
0.0
  0
LINE
  5
403
  8
UNIT-HID
  6
HIDDEN
 62
     8
 10
115.03596428829999
 20
102.4106308763
 30
0.0
 11
110.3133718844
 21
102.4106308763
 31
0.0
  0
LINE
  5
404
  8
UNIT-HID
  6
HIDDEN
 62
     8
 10
111.97972649490001
 20
103.1977296103
 30
0.0
 11
113.3696096778
 21
103.1977296103
 31
0.0
  0
LINE
  5
405
  8
UNIT-HID
  6
HIDDEN
 62
     8
 10
110.3133718844
 20
102.4106308763
 30
0.0
 11
110.3133718844
 21
114.41388656949999
 31
0.0
  0
LINE
  5
406
  8
UNIT-HID
  6
HIDDEN
 62
     8
 10
111.1752449982
 20
112.8223063387
 30
0.0
 11
111.1752449982
 21
104.0022111071
 31
0.0
  0
LINE
  5
407
  8
UNIT-SOL
  6
CONTINUOUS
 62
     7
 10
111.752910017
 20
132.87671967169999
 30
0.0
 11
111.752910017
 21
124.7549360368
 31
0.0
  0
LINE
  5
408
  8
UNIT-SOL
  6
CONTINUOUS
 62
     7
 10
111.752910017
 20
140.69982912649999
 30
0.0
 11
111.752910017
 21
148.82161276139999
 31
0.0
  0
LINE
  5
409
  8
UNIT-HID
  6
HIDDEN
 62
     8
 10
114.17409117459999
 20
104.0022111071
 30
0.0
 11
114.17409117459999
 21
112.8223063387
 31
0.0
  0
LINE
  5
40A
  8
UNIT-HID
  6
HIDDEN
 62
     8
 10
115.03596428829999
 20
114.41388656949999
 30
0.0
 11
115.03596428829999
 21
102.4106308763
 31
0.0
  0
LINE
  5
40B
  8
UNIT-SOL
  6
CONTINUOUS
 62
     7
 10
122.141737123
 20
142.78626652540001
 30
0.0
 11
115.1404157792
 21
138.74405176280001
 31
0.0
  0
LINE
  5
40C
  8
UNIT-SOL
  6
CONTINUOUS
 62
     7
 10
108.3654042548
 20
134.8324970354
 30
0.0
 11
101.33173330290001
 21
130.77160521799999
 31
0.0
  0
LINE
  5
40D
  8
UNIT-HID
  6
HIDDEN
 62
     8
 10
113.3696096778
 20
113.6267878355
 30
0.0
 11
111.97972649490001
 21
113.6267878355
 31
0.0
  0
LINE
  5
40E
  8
UNIT-HID
  6
HIDDEN
 62
     8
 10
110.3133718844
 20
114.41388656949999
 30
0.0
 11
115.03596428829999
 21
114.41388656949999
 31
0.0
  0
LINE
  5
40F
  8
UNIT-SOL
  6
CONTINUOUS
 62
     7
 10
80.877955551300005
 20
138.74476917999999
 30
0.0
 11
73.8442845995
 21
142.8056609974
 31
0.0
  0
LINE
  5
410
  8
UNIT-SOL
  6
CONTINUOUS
 62
     7
 10
87.652967075799964
 20
134.8332144526
 30
0.0
 11
94.686638027599997
 21
130.77232263510001
 31
0.0
  0
LINE
  5
411
  8
CURB-14
  6
CONTINUOUS
 62
     6
 10
125.8467245706
 20
94.164416946200006
 30
0.0
 11
125.8467245706
 21
148.22691694619999
 31
0.0
  0
LINE
  5
412
  8
CURB-24
  6
CONTINUOUS
 62
     6
 10
125.8467245706
 20
94.164416946200006
 30
0.0
 11
125.8467245706
 21
148.22691694619999
 31
0.0
  0
LINE
  5
413
  8
UNIT-SOL
  6
CONTINUOUS
 62
     7
 10
126.34676987029999
 20
89.521221494699986
 30
0.0
 11
126.34676987029999
 21
85.583721494700015
 31
0.0
  0
LINE
  5
414
  8
UNIT-SOL
  6
CONTINUOUS
 62
     7
 10
94.654724303999998
 20
115.6235042263
 30
0.0
 11
87.653402960199969
 21
111.5812894638
 31
0.0
  0
LINE
  5
415
  8
UNIT-SOL
  6
CONTINUOUS
 62
     7
 10
80.878391435699996
 20
107.6697347364
 30
0.0
 11
73.844720483900005
 21
103.6088429189
 31
0.0
  0
LINE
  5
416
  8
CURB-DUCTS
  6
CONTINUOUS
 62
     5
 10
128.8467245706
 20
132.91441694619999
 30
0.0
 11
179.2217245706
 21
148.22691694619999
 31
0.0
  0
LINE
  5
417
  8
CURB-DUCTS
  6
CONTINUOUS
 62
     5
 10
128.8467245706
 20
148.22691694619999
 30
0.0
 11
128.8467245706
 21
132.91441694619999
 31
0.0
  0
LINE
  5
418
  8
CURB-14
  6
CONTINUOUS
 62
     6
 10
128.8467245706
 20
94.164416946200006
 30
0.0
 11
128.8467245706
 21
148.22691694619999
 31
0.0
  0
LINE
  5
419
  8
CURB-24
  6
CONTINUOUS
 62
     6
 10
128.8467245706
 20
94.164416946200006
 30
0.0
 11
128.8467245706
 21
148.22691694619999
 31
0.0
  0
LINE
  5
41A
  8
HOOD
  6
CONTINUOUS
 62
     7
 10
129.54413808940001
 20
181.91596228610001
 30
0.0
 11
129.54413808940001
 21
152.86924376479999
 31
0.0
  0
LINE
  5
41B
  8
UNIT-DUCTS
  6
CONTINUOUS
 62
     2
 10
131.6505241703
 20
146.51070194619999
 30
0.0
 11
131.6505241703
 21
133.87872149469999
 31
0.0
  0
LINE
  5
41C
  8
UNIT-SOL
  6
CONTINUOUS
 62
     7
 10
131.76658158959981
 20
89.521221494699986
 30
0.0
 11
131.76658158959981
 21
85.583721494700015
 31
0.0
  0
LINE
  5
41D
  8
UNIT-DUCTS
  6
CONTINUOUS
 62
     2
 10
131.6505241703
 20
133.87872149469999
 30
0.0
 11
178.50061302029999
 21
146.51070194619999
 31
0.0
  0
LINE
  5
41E
  8
UNIT-DUCTS
  6
CONTINUOUS
 62
     2
 10
177.99949115070001
 20
128.3541479022
 30
0.0
 11
151.2615047722
 21
128.3541479022
 31
0.0
  0
LINE
  5
41F
  8
CURB-14
  6
CONTINUOUS
 62
     6
 10
128.8467245706
 20
129.60191694619999
 30
0.0
 11
179.2217245706
 21
129.60191694619999
 31
0.0
  0
LINE
  5
420
  8
CURB-24
  6
CONTINUOUS
 62
     6
 10
128.8467245706
 20
129.60191694619999
 30
0.0
 11
179.2217245706
 21
129.60191694619999
 31
0.0
  0
LINE
  5
421
  8
CURB-DUCTS
  6
CONTINUOUS
 62
     5
 10
149.7842245706
 20
130.10191694619999
 30
0.0
 11
179.2217245706
 21
130.10191694619999
 31
0.0
  0
LINE
  5
422
  8
UNIT-HID
  6
CENTER
 62
     8
 10
157.52454314209999
 20
131.05480235260001
 30
0.0
 11
159.0054587697
 21
131.05480235260001
 31
0.0
  0
LINE
  5
423
  8
CURB-DUCTS
  6
CONTINUOUS
 62
     5
 10
128.8467245706
 20
132.91441694619999
 30
0.0
 11
179.2217245706
 21
132.91441694619999
 31
0.0
  0
LINE
  5
424
  8
CURB-14
  6
CONTINUOUS
 62
     6
 10
128.8467245706
 20
132.91441694619999
 30
0.0
 11
179.2217245706
 21
132.91441694619999
 31
0.0
  0
LINE
  5
425
  8
CURB-24
  6
CONTINUOUS
 62
     6
 10
128.8467245706
 20
132.91441694619999
 30
0.0
 11
179.2217245706
 21
132.91441694619999
 31
0.0
  0
LINE
  5
426
  8
UNIT-DUCTS
  6
CONTINUOUS
 62
     2
 10
131.6505241703
 20
133.87872149469999
 30
0.0
 11
178.50061302029999
 21
133.87872149469999
 31
0.0
  0
LINE
  5
427
  8
UNIT-SOL
  6
CONTINUOUS
 62
     7
 10
108.3654042548
 20
138.74405176280001
 30
0.0
 11
101.33173330290001
 21
142.80494358030001
 31
0.0
  0
LINE
  5
428
  8
UNIT-SOL
  6
CONTINUOUS
 62
     7
 10
115.1404157792
 20
134.8324970354
 30
0.0
 11
122.174086731
 21
130.77160521799999
 31
0.0
  0
LINE
  5
429
  8
CURB-14
  6
CONTINUOUS
 62
     6
 10
146.7842245706
 20
94.164416946200006
 30
0.0
 11
146.7842245706
 21
129.60191694619999
 31
0.0
  0
LINE
  5
42A
  8
CURB-24
  6
CONTINUOUS
 62
     6
 10
146.7842245706
 20
94.164416946200006
 30
0.0
 11
146.7842245706
 21
129.60191694619999
 31
0.0
  0
LINE
  5
42B
  8
UNIT-DUCTS
  6
CONTINUOUS
 62
     2
 10
178.50061302029999
 20
146.51070194619999
 30
0.0
 11
131.6505241703
 21
146.51070194619999
 31
0.0
  0
LINE
  5
42C
  8
CURB-14
  6
CONTINUOUS
 62
     6
 10
149.7842245706
 20
94.164416946200006
 30
0.0
 11
149.7842245706
 21
129.60191694619999
 31
0.0
  0
LINE
  5
42D
  8
CURB-24
  6
CONTINUOUS
 62
     6
 10
149.7842245706
 20
94.164416946200006
 30
0.0
 11
149.7842245706
 21
129.60191694619999
 31
0.0
  0
LINE
  5
42E
  8
CURB-DUCTS
  6
CONTINUOUS
 62
     5
 10
149.7842245706
 20
94.164416946200006
 30
0.0
 11
149.7842245706
 21
130.10191694619999
 31
0.0
  0
LINE
  5
42F
  8
UNIT-DUCTS
  6
CONTINUOUS
 62
     2
 10
151.2615047722
 20
128.3541479022
 30
0.0
 11
151.2615047722
 21
94.378721494699988
 31
0.0
  0
LINE
  5
430
  8
CURB-14
  6
CONTINUOUS
 62
     6
 10
73.471724570600003
 20
148.22691694619999
 30
0.0
 11
179.2217245706
 21
148.22691694619999
 31
0.0
  0
LINE
  5
431
  8
CURB-24
  6
CONTINUOUS
 62
     6
 10
73.471724570600003
 20
148.22691694619999
 30
0.0
 11
179.2217245706
 21
148.22691694619999
 31
0.0
  0
LINE
  5
432
  8
CURB-DUCTS
  6
CONTINUOUS
 62
     5
 10
128.8467245706
 20
148.22691694619999
 30
0.0
 11
179.2217245706
 21
148.22691694619999
 31
0.0
  0
LINE
  5
433
  8
CURB-14
  6
CONTINUOUS
 62
     6
 10
71.721724570600003
 20
149.97691694619999
 30
0.0
 11
180.9717245706
 21
149.97691694619999
 31
0.0
  0
LINE
  5
434
  8
CURB-24
  6
CONTINUOUS
 62
     6
 10
71.721724570600003
 20
149.97691694619999
 30
0.0
 11
180.9717245706
 21
149.97691694619999
 31
0.0
  0
LINE
  5
435
  8
UNIT-SOL
  6
CONTINUOUS
 62
     7
 10
68.419095069700006
 20
152.86924376479999
 30
0.0
 11
184.27444467090001
 21
152.86924376479999
 31
0.0
  0
LINE
  5
436
  8
UNIT-DUCTS
  6
CONTINUOUS
 62
     2
 10
131.6505241703
 20
146.51070194619999
 30
0.0
 11
178.50061302029999
 21
133.87872149469999
 31
0.0
  0
LINE
  5
437
  8
CURB-DUCTS
  6
CONTINUOUS
 62
     5
 10
128.8467245706
 20
148.22691694619999
 30
0.0
 11
179.2217245706
 21
132.91441694619999
 31
0.0
  0
LINE
  5
438
  8
CURB-DUCTS
  6
CONTINUOUS
 62
     5
 10
149.7842245706
 20
130.10191694619999
 30
0.0
 11
179.2217245706
 21
94.164416946200006
 31
0.0
  0
LINE
  5
439
  8
UNIT-DUCTS
  6
CONTINUOUS
 62
     2
 10
151.2615047722
 20
128.3541479022
 30
0.0
 11
177.99949115070001
 21
94.378721494699988
 31
0.0
  0
LINE
  5
43A
  8
UNIT-HID
  6
CENTER
 62
     8
 10
158.26500095590001
 20
130.31434453879999
 30
0.0
 11
158.26500095590001
 21
131.7952601664
 31
0.0
  0
LINE
  5
43B
  8
UNIT-DUCTS
  6
CONTINUOUS
 62
     2
 10
177.99949115070001
 20
94.378721494699988
 30
0.0
 11
177.99949115070001
 21
128.3541479022
 31
0.0
  0
LINE
  5
43C
  8
HOOD
  6
CONTINUOUS
 62
     7
 10
182.47266547500001
 20
152.86924376479999
 30
0.0
 11
182.44141547500001
 21
181.91596228610001
 31
0.0
  0
LINE
  5
43D
  8
UNIT-DUCTS
  6
CONTINUOUS
 62
     2
 10
178.50061302029999
 20
133.87872149469999
 30
0.0
 11
178.50061302029999
 21
146.51070194619999
 31
0.0
  0
LINE
  5
43E
  8
CURB-DUCTS
  6
CONTINUOUS
 62
     5
 10
179.2217245706
 20
148.22691694619999
 30
0.0
 11
179.2217245706
 21
132.91441694619999
 31
0.0
  0
LINE
  5
43F
  8
CURB-DUCTS
  6
CONTINUOUS
 62
     5
 10
179.2217245706
 20
94.164416946200006
 30
0.0
 11
179.2217245706
 21
130.10191694619999
 31
0.0
  0
LINE
  5
440
  8
CURB-14
  6
CONTINUOUS
 62
     6
 10
179.2217245706
 20
94.164416946200006
 30
0.0
 11
179.2217245706
 21
148.22691694619999
 31
0.0
  0
LINE
  5
441
  8
CURB-24
  6
CONTINUOUS
 62
     6
 10
179.2217245706
 20
94.164416946200006
 30
0.0
 11
179.2217245706
 21
148.22691694619999
 31
0.0
  0
LINE
  5
442
  8
CURB-14
  6
CONTINUOUS
 62
     6
 10
180.9717245706
 20
92.414416946200006
 30
0.0
 11
180.9717245706
 21
149.97691694619999
 31
0.0
  0
LINE
  5
443
  8
CURB-24
  6
CONTINUOUS
 62
     6
 10
180.9717245706
 20
92.414416946200006
 30
0.0
 11
180.9717245706
 21
149.97691694619999
 31
0.0
  0
LINE
  5
444
  8
UNIT-SOL
  6
CONTINUOUS
 62
     7
 10
184.27444467090001
 20
152.86924376479999
 30
0.0
 11
184.27444467090001
 21
89.521221494699986
 31
0.0
  0
LINE
  5
445
  8
HOOD
  6
CONTINUOUS
 62
     7
 10
182.44141547500001
 20
181.91596228610001
 30
0.0
 11
129.54413808940001
 21
181.91596228610001
 31
0.0
  0
LINE
  5
446
  8
SERVCLEAR
  6
DASHED
 62
     1
 10
220.24319467090001
 20
223.85346228610001
 30
0.0
 11
220.24319467090001
 21
37.583721494700001
 31
0.0
  0
LINE
  5
447
  8
SERVCLEAR
  6
DASHED
 62
     1
 10
20.450345069699999
 20
223.85346228610001
 30
0.0
 11
220.24319467090001
 21
223.85346228610001
 31
0.0
  0
LINE
  5
448
  8
0
  6
CONTINUOUS
 62
     7
 10
250.0
 20
0.0
 30
0.0
 11
250.0
 21
250.0
 31
0.0
  0
LINE
  5
449
  8
0
  6
CONTINUOUS
 62
     7
 10
0.0
 20
250.0
 30
0.0
 11
250.0
 21
250.0
 31
0.0
  0
CIRCLE
  5
44A
  8
UNIT-SOL
  6
CONTINUOUS
 62
     7
 10
84.265461313499983
 20
136.7889918162999
 30
0.0
 40
12.0333383623
  0
CIRCLE
  5
44B
  8
UNIT-SOL
  6
CONTINUOUS
 62
     7
 10
111.752910017
 20
136.7882743991
 30
0.0
 40
12.0333383623
  0
CIRCLE
  5
44C
  8
UNIT-SOL
  6
CONTINUOUS
 62
     7
 10
84.265897197899989
 20
109.6255121001
 30
0.0
 40
12.0333383623
  0
CIRCLE
  5
44D
  8
UNIT-SOL
  6
CONTINUOUS
 62
     7
 10
84.265461313499983
 20
136.7889918162999
 30
0.0
 40
9.041000823500001
  0
CIRCLE
  5
44E
  8
UNIT-SOL
  6
CONTINUOUS
 62
     7
 10
111.752910017
 20
136.7882743991
 30
0.0
 40
9.041000823500001
  0
CIRCLE
  5
44F
  8
UNIT-SOL
  6
CONTINUOUS
 62
     7
 10
84.265897197899989
 20
109.6255121001
 30
0.0
 40
9.041000823500001
  0
CIRCLE
  5
450
  8
UNIT-SOL
  6
CONTINUOUS
 62
     7
 10
84.265461313499983
 20
136.7889918162999
 30
0.0
 40
6.445974366799998
  0
CIRCLE
  5
451
  8
UNIT-SOL
  6
CONTINUOUS
 62
     7
 10
111.752910017
 20
136.7882743991
 30
0.0
 40
6.445974366799998
  0
CIRCLE
  5
452
  8
UNIT-SOL
  6
CONTINUOUS
 62
     7
 10
84.265897197899989
 20
109.6255121001
 30
0.0
 40
6.445974366799998
  0
CIRCLE
  5
453
  8
UNIT-SOL
  6
CONTINUOUS
 62
     7
 10
84.265461313499983
 20
136.7889918162999
 30
0.0
 40
3.9115547274
  0
CIRCLE
  5
454
  8
UNIT-SOL
  6
CONTINUOUS
 62
     7
 10
111.752910017
 20
136.7882743991
 30
0.0
 40
3.9115547274
  0
CIRCLE
  5
455
  8
UNIT-SOL
  6
CONTINUOUS
 62
     7
 10
84.265897197899989
 20
109.6255121001
 30
0.0
 40
3.9115547274
  0
ARC
  5
456
  8
UNIT-HID
  6
HIDDEN
 62
     8
 10
111.97972649490001
 20
102.1981142181
 30
0.0
 40
0.9996153922
 50
90.0
 51
107.4070183143
  0
ARC
  5
457
  8
UNIT-HID
  6
HIDDEN
 62
     8
 10
113.3696096778
 20
102.1981142181
 30
0.0
 40
0.9996153922
 50
72.592981685699982
 51
90.0
  0
ARC
  5
458
  8
UNIT-HID
  6
HIDDEN
 62
     8
 10
110.175629606
 20
104.0022111071
 30
0.0
 40
0.9996153922
 50
342.59298168570001
 51
0.0
  0
ARC
  5
459
  8
UNIT-HID
  6
HIDDEN
 62
     8
 10
110.175629606
 20
112.8223063387
 30
0.0
 40
0.9996153922
 50
0.0
 51
17.4070183143
  0
ARC
  5
45A
  8
UNIT-HID
  6
HIDDEN
 62
     8
 10
115.17370656680001
 20
104.0022111071
 30
0.0
 40
0.9996153922
 50
180.0
 51
197.40701831429999
  0
ARC
  5
45B
  8
UNIT-HID
  6
HIDDEN
 62
     8
 10
115.17370656680001
 20
112.8223063387
 30
0.0
 40
0.9996153922
 50
162.59298168570001
 51
180.0
  0
ARC
  5
45C
  8
UNIT-HID
  6
HIDDEN
 62
     8
 10
113.3696096778
 20
114.6264032277
 30
0.0
 40
0.9996153922
 50
270.0
 51
287.40701831429999
  0
ARC
  5
45D
  8
UNIT-HID
  6
HIDDEN
 62
     8
 10
111.97972649490001
 20
114.6264032277
 30
0.0
 40
0.9996153922
 50
252.59298168570001
 51
270.0
  0
CIRCLE
  5
45E
  8
UNIT-HID
  6
HIDDEN
 62
     8
 10
158.26500095590001
 20
131.05480235260001
 30
0.0
 40
0.5151561214
  0
ARC
  5
45F
  8
UNIT-HID
  6
HIDDEN
 62
     8
 10
111.5491168968
 20
103.5716015089
 30
0.0
 40
0.4397914176
 50
162.59298168570001
 51
287.40701831429999
  0
ARC
  5
460
  8
UNIT-HID
  6
HIDDEN
 62
     8
 10
113.80021927600001
 20
103.5716015089
 30
0.0
 40
0.4397914176
 50
252.59298168570001
 51
17.4070183143
  0
ARC
  5
461
  8
UNIT-HID
  6
HIDDEN
 62
     8
 10
113.80021927600001
 20
113.2529159369
 30
0.0
 40
0.4397914176
 50
342.59298168570001
 51
107.4070183143
  0
ARC
  5
462
  8
UNIT-HID
  6
HIDDEN
 62
     8
 10
111.5491168968
 20
113.2529159369
 30
0.0
 40
0.4397914176
 50
72.592981685699982
 51
197.40701831429999
  0
CIRCLE
  5
463
  8
UNIT-HID
  6
HIDDEN
 62
     8
 10
112.6746680864
 20
104.5515394327
 30
0.0
 40
0.1636711208
  0
CIRCLE
  5
464
  8
UNIT-HID
  6
HIDDEN
 62
     8
 10
112.6746680864
 20
110.03461791230001
 30
0.0
 40
0.1636711208
  0
CIRCLE
  5
465
  8
UNIT-HID
  6
HIDDEN
 62
     8
 10
112.6746680864
 20
107.6763214066
 30
0.0
 40
0.1636711208
  0
CIRCLE
  5
466
  8
UNIT-HID
  6
HIDDEN
 62
     8
 10
112.6746680864
 20
112.0220422156
 30
0.0
 40
0.1636711208
  0
ENDSEC
  0
EOF
