<?xml version="1.0" encoding="UTF-8" standalone="no"?>
<svg
   xmlns:dc="http://purl.org/dc/elements/1.1/"
   xmlns:cc="http://creativecommons.org/ns#"
   xmlns:rdf="http://www.w3.org/1999/02/22-rdf-syntax-ns#"
   xmlns:svg="http://www.w3.org/2000/svg"
   xmlns="http://www.w3.org/2000/svg"
   xmlns:sodipodi="http://sodipodi.sourceforge.net/DTD/sodipodi-0.dtd"
   xmlns:inkscape="http://www.inkscape.org/namespaces/inkscape"
   width="232pt"
   height="200pt"
   viewBox="0 0 232 200"
   version="1.1"
   id="svg2"
   inkscape:version="0.91 r13725"
   sodipodi:docname="XCEL LOGO VECTOR.svg">
  <metadata
     id="metadata20">
    <rdf:RDF>
      <cc:Work
         rdf:about="">
        <dc:format>image/svg+xml</dc:format>
        <dc:type
           rdf:resource="http://purl.org/dc/dcmitype/StillImage" />
        <dc:title></dc:title>
      </cc:Work>
    </rdf:RDF>
  </metadata>
  <defs
     id="defs18" />
  <sodipodi:namedview
     pagecolor="#ffffff"
     bordercolor="#666666"
     borderopacity="1"
     objecttolerance="10"
     gridtolerance="10"
     guidetolerance="10"
     inkscape:pageopacity="0"
     inkscape:pageshadow="2"
     inkscape:window-width="1920"
     inkscape:window-height="1017"
     id="namedview16"
     showgrid="false"
     inkscape:zoom="2.8381803"
     inkscape:cx="177.06841"
     inkscape:cy="73.167935"
     inkscape:window-x="-8"
     inkscape:window-y="-8"
     inkscape:window-maximized="1"
     inkscape:current-layer="svg2" />
  <path
     d="m -4.8,96.8 232,0 0,76 -232,0 0,-76 z"
     id="path4"
     inkscape:connector-curvature="0"
     style="fill:#fcfdfd" />
  <path
     d="m 217.86,99.33 c 1.36,-0.93 2.95,-0.07 3.9,1.02 0.63,2.57 -0.87,4.9 -2.01,7.06 -4.9,8.25 -4.86,18.18 -8.16,27.02 -2.25,5.9 -3.43,12.23 -2.03,18.49 4.48,-2.4 9.17,-4.34 13.84,-6.3 0.43,1.47 0.85,2.93 1.27,4.4 -6.98,4.79 -14.87,8.06 -21.65,13.17 -2.1,-2.75 -5.18,-5.52 -4.63,-9.33 1.13,-9.65 4.87,-18.71 7.7,-27.95 0.69,-2.66 1.31,-5.56 0.45,-8.25 -1.29,-2.1 -3.63,-3.24 -5.49,-4.75 4.82,-5.62 9.9,-11.52 16.81,-14.58 z"
     id="path6"
     inkscape:connector-curvature="0"
     style="fill:#d9052e" />
  <path
     d="m 86.35,105.25 c 7.62,-2.76 15.48,-5.86 23.76,-5.04 3.19,-0.18 5.21,2.58 7.39,4.42 -4.01,5.85 -9.92,9.89 -15.88,13.53 -7.94,4.47 -15.67,9.3 -23.87,13.31 -1.14,0.88 -3.43,1.24 -3.18,3.08 5.8,4.8 12.72,8.02 19.33,11.54 3.97,2.22 7.08,5.6 10.26,8.79 -4.57,3.68 -9.9,7.03 -15.91,7.37 -5.67,-2.53 -8.81,-8.44 -14.13,-11.53 -4.67,-2.7 -8.79,-6.54 -14.01,-8.16 -6.27,1.19 -11.7,4.94 -17.13,8.13 -4.8,3.3 -10.48,5.72 -13.92,10.64 -3.62,5.43 -10.74,6.03 -16.05,9.1 -1.19,-1.26 -2.72,-2.3 -3.43,-3.93 -0.65,-2.29 2.25,-3.38 3.64,-4.66 5.17,-3.12 10.11,-6.61 15.35,-9.61 8.69,-4.28 16.85,-9.6 24.39,-15.65 -2.22,-3.53 -5.56,-6.26 -7.32,-10.12 -1.74,-2.62 -2.98,-6.93 -6.86,-6.66 -6.32,0.33 -12.2,3.29 -18.5,3.64 -2.33,0.17 -3.33,-2.29 -4.46,-3.85 8.85,-5.31 19.18,-6.85 29.08,-9.05 5.48,-1.33 11.25,-4.77 16.91,-2.49 1.83,2.35 2.29,5.38 3.05,8.18 1.06,4.38 2.44,8.68 3.79,12.99 7.48,-3.11 13.92,-8.14 20.99,-12.02 2.44,-1.21 3.71,-3.73 4.64,-6.16 -2.56,-0.98 -5.16,-1.86 -7.73,-2.8 -0.07,-1 -0.14,-2 -0.2,-2.99 z"
     id="path8"
     inkscape:connector-curvature="0"
     style="fill:#d9052e" />
  <path
     d="m 132.09,124.72 c 3.12,-2.71 7.31,-3.58 11.31,-4.01 3.07,-0.53 5.49,1.86 7.95,3.26 -2.85,4.1 -7.11,7.9 -12.46,7.35 -3.33,-0.39 -4.07,3.62 -4.93,5.97 -2.23,6.38 -1.21,13.2 0.65,19.52 5.22,-0.96 10.32,-2.43 15.3,-4.25 2.6,-1.14 5.54,-0.7 8.11,0.29 -1.94,2.81 -4.63,5.04 -7.88,6.15 -6.09,2.27 -11.82,5.53 -18.16,7.06 -3.34,1.07 -5.82,-2.11 -7.45,-4.54 -3.12,-5.6 -1.94,-12.3 -0.99,-18.32 1.11,-6.71 2.99,-14.04 8.55,-18.48 z"
     id="path10"
     inkscape:connector-curvature="0"
     style="fill:#d9052e" />
  <path
     d="m 167.83,127.44 c 2.71,-2.41 5.95,-4.4 9.5,-5.22 3.22,0.06 7.03,0.66 9.24,3.2 1.59,4.45 2.03,10.42 -1.98,13.76 -4.08,4.53 -10.34,5.47 -15.88,7.13 0.51,3.12 0.82,6.28 1.04,9.44 4.09,-0.32 8.3,-0.52 12.11,-2.21 3.22,-1.25 6.03,-3.38 9.28,-4.52 2,0.42 2.89,2.6 4.39,3.78 -10.43,6.86 -22.75,9.82 -34.69,12.89 -3.06,-7.93 -3.2,-17.03 0.47,-24.79 2.28,-4.44 2.65,-9.97 6.52,-13.46 z"
     id="path12"
     inkscape:connector-curvature="0"
     style="fill:#d9052e" />
  <path
     d="m 173.93,131.55 c 1.48,-1.12 3.44,-1.29 5.17,-1.83 -0.34,2.15 0.02,4.7 -1.53,6.45 -1.76,2.25 -4.92,2.1 -7.45,2.69 1.08,-2.53 1.96,-5.22 3.81,-7.31 z"
     id="path14"
     inkscape:connector-curvature="0"
     style="fill:#fcfdfd" />
  <g
     style="font-style:normal;font-weight:normal;font-size:24.28572273px;line-height:125%;font-family:Sans;letter-spacing:0px;word-spacing:0px;fill:#000000;fill-opacity:1;stroke:none;stroke-width:1px;stroke-linecap:butt;stroke-linejoin:miter;stroke-opacity:1"
     id="text4148">
    <path
       d="m 3.5315117,187.81459 3.4151798,-0.33204 q 0.3083148,1.71945 1.2451176,2.52581 0.9486611,0.80637 2.5495269,0.80637 1.695731,0 2.549526,-0.7115 0.865653,-0.72335 0.865653,-1.68387 0,-0.61663 -0.367606,-1.04353 -0.355748,-0.43876 -1.256976,-0.75893 -0.616629,-0.21345 -2.8104079,-0.75893 -2.8222666,-0.69963 -3.9606599,-1.71945 -1.6008655,-1.43485 -1.6008655,-3.49818 0,-1.32813 0.7470706,-2.47838 0.7589288,-1.16211 2.1700621,-1.76688 1.4229916,-0.60477 3.4270376,-0.60477 3.272881,0 4.92118,1.43485 1.660156,1.43485 1.743164,3.83022 l -3.510046,0.15415 q -0.225307,-1.33998 -0.972377,-1.92103 -0.735212,-0.59292 -2.217495,-0.59292 -1.5297163,0 -2.3953695,0.62849 -0.5573384,0.40318 -0.5573384,1.0791 0,0.61663 0.5217636,1.05539 0.6640627,0.55734 3.2254473,1.16211 2.561385,0.60477 3.782786,1.25697 1.23326,0.64035 1.921039,1.76688 0.699637,1.11468 0.699637,2.76298 0,1.49414 -0.830078,2.79855 -0.830079,1.30441 -2.347936,1.94475 -1.517858,0.62849 -3.782786,0.62849 -3.2965972,0 -5.0634784,-1.51786 -1.7668812,-1.52971 -2.1107709,-4.44684 z"
       style="font-style:normal;font-variant:normal;font-weight:bold;font-stretch:normal;font-family:Arial;-inkscape-font-specification:'Arial Bold'"
       id="path4180" />
    <path
       d="m 20.642985,193.47098 0,-17.38422 5.632675,0 q 3.201731,0 4.174108,0.26089 1.494141,0.39132 2.502094,1.70759 1.007952,1.3044 1.007952,3.3796 0,1.60087 -0.581055,2.69183 -0.581055,1.09096 -1.482283,1.71944 -0.889369,0.61663 -1.814314,0.81822 -1.256976,0.24903 -3.640487,0.24903 l -2.288645,0 0,6.55762 -3.510045,0 z m 3.510045,-14.44337 0,4.93304 1.921039,0 q 2.075196,0 2.774834,-0.27274 0.699637,-0.27274 1.09096,-0.85379 0.403181,-0.58106 0.403181,-1.35185 0,-0.94866 -0.557339,-1.56529 -0.557338,-0.61663 -1.411133,-0.77078 -0.628488,-0.11859 -2.52581,-0.11859 l -1.695732,0 z"
       style="font-style:normal;font-variant:normal;font-weight:bold;font-stretch:normal;font-family:Arial;-inkscape-font-specification:'Arial Bold'"
       id="path4182" />
    <path
       d="m 36.153592,184.8856 q 0,-2.65626 0.794504,-4.45871 0.592913,-1.32813 1.612723,-2.38351 1.031669,-1.05539 2.25307,-1.56529 1.624582,-0.68778 3.747211,-0.68778 3.842078,0 6.142581,2.38351 2.312361,2.38351 2.312361,6.62877 0,4.20968 -2.288645,6.59319 -2.288645,2.37165 -6.118864,2.37165 -3.877652,0 -6.166296,-2.35979 -2.288645,-2.37165 -2.288645,-6.52204 z m 3.61677,-0.11859 q 0,2.95271 1.3637,4.48243 1.363701,1.51785 3.462613,1.51785 2.098913,0 3.438897,-1.506 1.351841,-1.51785 1.351841,-4.54171 0,-2.98828 -1.316267,-4.45871 -1.304409,-1.47042 -3.474471,-1.47042 -2.170062,0 -3.498187,1.49414 -1.328126,1.48228 -1.328126,4.48242 z"
       style="font-style:normal;font-variant:normal;font-weight:bold;font-stretch:normal;font-family:Arial;-inkscape-font-specification:'Arial Bold'"
       id="path4184" />
    <path
       d="m 55.755303,193.47098 0,-17.38422 7.387698,0 q 2.786692,0 4.043667,0.47433 1.268835,0.46248 2.027763,1.66016 0.758929,1.19769 0.758929,2.73926 0,1.95661 -1.150251,3.23731 -1.150252,1.26883 -3.438896,1.60086 1.138393,0.66406 1.873605,1.45857 0.747071,0.7945 2.004047,2.82226 l 2.122629,3.39147 -4.197826,0 -2.537668,-3.78279 q -1.351842,-2.02776 -1.849889,-2.54952 -0.498047,-0.53363 -1.055385,-0.72336 -0.557339,-0.20159 -1.766881,-0.20159 l -0.711496,0 0,7.25726 -3.510046,0 z m 3.510046,-10.03209 2.596959,0 q 2.52581,0 3.154298,-0.21345 0.628488,-0.21345 0.984236,-0.73521 0.355748,-0.52177 0.355748,-1.30441 0,-0.87751 -0.47433,-1.41114 -0.462473,-0.54548 -1.316268,-0.68778 -0.426897,-0.0593 -2.561384,-0.0593 l -2.739259,0 0,4.41128 z"
       style="font-style:normal;font-variant:normal;font-weight:bold;font-stretch:normal;font-family:Arial;-inkscape-font-specification:'Arial Bold'"
       id="path4186" />
    <path
       d="m 77.206896,193.47098 0,-14.44337 -5.158345,0 0,-2.94085 13.814877,0 0,2.94085 -5.146486,0 0,14.44337 -3.510046,0 z"
       style="font-style:normal;font-variant:normal;font-weight:bold;font-stretch:normal;font-family:Arial;-inkscape-font-specification:'Arial Bold'"
       id="path4188" />
    <path
       d="m 87.203417,187.81459 3.41518,-0.33204 q 0.308315,1.71945 1.245118,2.52581 0.948661,0.80637 2.549526,0.80637 1.695732,0 2.549527,-0.7115 0.865653,-0.72335 0.865653,-1.68387 0,-0.61663 -0.367606,-1.04353 -0.355748,-0.43876 -1.256976,-0.75893 -0.61663,-0.21345 -2.810408,-0.75893 -2.822267,-0.69963 -3.96066,-1.71945 -1.600866,-1.43485 -1.600866,-3.49818 0,-1.32813 0.747071,-2.47838 0.758929,-1.16211 2.170062,-1.76688 1.422991,-0.60477 3.427038,-0.60477 3.272881,0 4.921179,1.43485 1.660155,1.43485 1.743165,3.83022 l -3.510046,0.15415 q -0.225307,-1.33998 -0.972378,-1.92103 -0.735212,-0.59292 -2.217495,-0.59292 -1.529716,0 -2.395369,0.62849 -0.557338,0.40318 -0.557338,1.0791 0,0.61663 0.521763,1.05539 0.664063,0.55734 3.225448,1.16211 2.561385,0.60477 3.782786,1.25697 1.233259,0.64035 1.921039,1.76688 0.69964,1.11468 0.69964,2.76298 0,1.49414 -0.83008,2.79855 -0.83008,1.30441 -2.347938,1.94475 -1.517857,0.62849 -3.782786,0.62849 -3.296597,0 -5.063478,-1.51786 -1.766881,-1.52971 -2.110771,-4.44684 z"
       style="font-style:normal;font-variant:normal;font-weight:bold;font-stretch:normal;font-family:Arial;-inkscape-font-specification:'Arial Bold'"
       id="path4190" />
    <path
       d="m 122.17343,187.07937 3.40333,1.07911 q -0.78265,2.84598 -2.60882,4.2334 -1.81432,1.37555 -4.61287,1.37555 -3.46261,0 -5.69196,-2.35979 -2.22936,-2.37165 -2.22936,-6.47461 0,-4.34013 2.24121,-6.7355 2.24122,-2.40722 5.89356,-2.40722 3.18987,0 5.18206,1.88546 1.18583,1.11468 1.77874,3.20173 l -3.47447,0.83008 q -0.30831,-1.35184 -1.29255,-2.13449 -0.97238,-0.78264 -2.37165,-0.78264 -1.9329,0 -3.14244,1.38741 -1.19769,1.38742 -1.19769,4.49429 0,3.29659 1.18583,4.69587 1.18583,1.39927 3.08315,1.39927 1.39927,0 2.40723,-0.88937 1.00795,-0.88937 1.4467,-2.79855 z"
       style="font-style:normal;font-variant:normal;font-weight:bold;font-stretch:normal;font-family:Arial;-inkscape-font-specification:'Arial Bold'"
       id="path4192" />
    <path
       d="m 127.88912,184.8856 q 0,-2.65626 0.7945,-4.45871 0.59292,-1.32813 1.61273,-2.38351 1.03167,-1.05539 2.25307,-1.56529 1.62458,-0.68778 3.74721,-0.68778 3.84207,0 6.14258,2.38351 2.31236,2.38351 2.31236,6.62877 0,4.20968 -2.28865,6.59319 -2.28864,2.37165 -6.11886,2.37165 -3.87765,0 -6.1663,-2.35979 -2.28864,-2.37165 -2.28864,-6.52204 z m 3.61677,-0.11859 q 0,2.95271 1.3637,4.48243 1.3637,1.51785 3.46261,1.51785 2.09891,0 3.4389,-1.506 1.35184,-1.51785 1.35184,-4.54171 0,-2.98828 -1.31627,-4.45871 -1.30441,-1.47042 -3.47447,-1.47042 -2.17006,0 -3.49819,1.49414 -1.32812,1.48228 -1.32812,4.48242 z"
       style="font-style:normal;font-variant:normal;font-weight:bold;font-stretch:normal;font-family:Arial;-inkscape-font-specification:'Arial Bold'"
       id="path4194" />
    <path
       d="m 147.43154,193.47098 0,-17.38422 5.25321,0 3.1543,11.85827 3.11872,-11.85827 5.26507,0 0,17.38422 -3.26102,0 0,-13.68444 -3.45076,13.68444 -3.3796,0 -3.4389,-13.68444 0,13.68444 -3.26102,0 z"
       style="font-style:normal;font-variant:normal;font-weight:bold;font-stretch:normal;font-family:Arial;-inkscape-font-specification:'Arial Bold'"
       id="path4196" />
    <path
       d="m 167.73288,193.47098 0,-17.38422 5.63267,0 q 3.20173,0 4.17411,0.26089 1.49414,0.39132 2.50209,1.70759 1.00796,1.3044 1.00796,3.3796 0,1.60087 -0.58106,2.69183 -0.58105,1.09096 -1.48228,1.71944 -0.88937,0.61663 -1.81431,0.81822 -1.25698,0.24903 -3.64049,0.24903 l -2.28865,0 0,6.55762 -3.51004,0 z m 3.51004,-14.44337 0,4.93304 1.92104,0 q 2.0752,0 2.77484,-0.27274 0.69963,-0.27274 1.09096,-0.85379 0.40318,-0.58106 0.40318,-1.35185 0,-0.94866 -0.55734,-1.56529 -0.55734,-0.61663 -1.41113,-0.77078 -0.62849,-0.11859 -2.52581,-0.11859 l -1.69574,0 z"
       style="font-style:normal;font-variant:normal;font-weight:bold;font-stretch:normal;font-family:Arial;-inkscape-font-specification:'Arial Bold'"
       id="path4198" />
    <path
       d="m 184.04985,193.47098 0,-17.24192 3.51005,0 0,14.31293 8.72768,0 0,2.92899 -12.23773,0 z"
       style="font-style:normal;font-variant:normal;font-weight:bold;font-stretch:normal;font-family:Arial;-inkscape-font-specification:'Arial Bold'"
       id="path4200" />
    <path
       d="m 198.80153,193.47098 0,-17.38422 12.88993,0 0,2.94085 -9.37989,0 0,3.85394 8.72768,0 0,2.92899 -8.72768,0 0,4.73145 9.71192,0 0,2.92899 -13.22196,0 z"
       style="font-style:normal;font-variant:normal;font-weight:bold;font-stretch:normal;font-family:Arial;-inkscape-font-specification:'Arial Bold'"
       id="path4202" />
    <path
       d="m 213.25675,193.47098 5.94099,-9.07157 -5.38365,-8.31265 4.10296,0 3.48633,5.58525 3.41518,-5.58525 4.06738,0 -5.40736,8.44309 5.94099,8.94113 -4.2334,0 -3.85394,-6.01214 -3.86579,6.01214 -4.20969,0 z"
       style="font-style:normal;font-variant:normal;font-weight:bold;font-stretch:normal;font-family:Arial;-inkscape-font-specification:'Arial Bold'"
       id="path4204" />
  </g>
</svg>
