  0
SECTION
  2
HEADER
  9
$ACADVER
  1
AC1014
  9
$HANDSEED
  5
FFFF
  9
$MEASUREMENT
 70
     1
  0
ENDSEC
  0
SECTION
  2
TABLES
  0
TABLE
  2
VPORT
  5
8
330
0
100
AcDbSymbolTable
 70
     4
  0
VPORT
  5
2E
330
8
100
AcDbSymbolTableRecord
100
AcDbViewportTableRecord
  2
*ACTIVE
 70
     0
 10
0.0
 20
0.0
 11
1.0
 21
1.0
 12
210.0
 22
148.5
 13
0.0
 23
0.0
 14
10.0
 24
10.0
 15
10.0
 25
10.0
 16
0.0
 26
0.0
 36
1.0
 17
0.0
 27
0.0
 37
0.0
 40
341.0
 41
1.24
 42
50.0
 43
0.0
 44
0.0
 50
0.0
 51
0.0
 71
     0
 72
   100
 73
     1
 74
     3
 75
     0
 76
     0
 77
     0
 78
     0
  0
ENDTAB
  0
TABLE
  2
LTYPE
  5
5
330
0
100
AcDbSymbolTable
 70
     1
  0
LTYPE
  5
14
330
5
100
AcDbSymbolTableRecord
100
AcDbLinetypeTableRecord
  2
BYBLOCK
 70
     0
  3

 72
    65
 73
     0
 40
0.0
  0
LTYPE
  5
15
330
5
100
AcDbSymbolTableRecord
100
AcDbLinetypeTableRecord
  2
BYLAYER
 70
     0
  3

 72
    65
 73
     0
 40
0.0
  0
LTYPE
  5
16
330
5
100
AcDbSymbolTableRecord
100
AcDbLinetypeTableRecord
  2
CONTINUOUS
 70
     0
  3
Solid line
 72
    65
 73
     0
 40
0.0
  0
ENDTAB
  0
TABLE
  2
LAYER
  5
2
100
AcDbSymbolTable
 70
1
  0
LAYER
  5
50
100
AcDbSymbolTableRecord
100
AcDbLayerTableRecord
  2
0
 70
0
  6
CONTINUOUS
  0
ENDTAB
  0
TABLE
  2
STYLE
  5
3
330
0
100
AcDbSymbolTable
 70
     1
  0
STYLE
  5
11
330
3
100
AcDbSymbolTableRecord
100
AcDbTextStyleTableRecord
  2
STANDARD
 70
     0
 40
0.0
 41
1.0
 50
0.0
 71
     0
 42
2.5
  3
txt
  4

  0
ENDTAB
  0
TABLE
  2
VIEW
  5
6
330
0
100
AcDbSymbolTable
 70
     0
  0
ENDTAB
  0
TABLE
  2
UCS
  5
7
330
0
100
AcDbSymbolTable
 70
     0
  0
ENDTAB
  0
TABLE
  2
APPID
  5
9
330
0
100
AcDbSymbolTable
 70
     2
  0
APPID
  5
12
330
9
100
AcDbSymbolTableRecord
100
AcDbRegAppTableRecord
  2
ACAD
 70
     0
  0
ENDTAB
  0
TABLE
  2
DIMSTYLE
  5
A
330
0
100
AcDbSymbolTable
 70
     1
  0
DIMSTYLE
105
27
330
A
100
AcDbSymbolTableRecord
100
AcDbDimStyleTableRecord
  2
ISO-25
 70
     0
  3

  4

  5

  6

  7

 40
1.0
 41
2.5
 42
0.625
 43
3.75
 44
1.25
 45
0.0
 46
0.0
 47
0.0
 48
0.0
140
2.5
141
2.5
142
0.0
143
0.03937007874016
144
1.0
145
0.0
146
1.0
147
0.625
 71
     0
 72
     0
 73
     0
 74
     0
 75
     0
 76
     0
 77
     1
 78
     8
170
     0
171
     3
172
     1
173
     0
174
     0
175
     0
176
     0
177
     0
178
     0
270
     2
271
     2
272
     2
273
     2
274
     3
340
11
275
     0
280
     0
281
     0
282
     0
283
     0
284
     8
285
     0
286
     0
287
     3
288
     0
  0
ENDTAB
  0
TABLE
  2
BLOCK_RECORD
  5
1
330
0
100
AcDbSymbolTable
 70
     1
  0
BLOCK_RECORD
  5
1F
330
1
100
AcDbSymbolTableRecord
100
AcDbBlockTableRecord
  2
*MODEL_SPACE
  0
BLOCK_RECORD
  5
1B
330
1
100
AcDbSymbolTableRecord
100
AcDbBlockTableRecord
  2
*PAPER_SPACE
  0
ENDTAB
  0
ENDSEC
  0
SECTION
  2
BLOCKS
  0
BLOCK
  5
20
330
1F
100
AcDbEntity
  8
0
100
AcDbBlockBegin
  2
*MODEL_SPACE
 70
     0
 10
0.0
 20
0.0
 30
0.0
  3
*MODEL_SPACE
  1

  0
ENDBLK
  5
21
330
1F
100
AcDbEntity
  8
0
100
AcDbBlockEnd
  0
BLOCK
  5
1C
330
1B
100
AcDbEntity
 67
     1
  8
0
100
AcDbBlockBegin
  2
*PAPER_SPACE
  1

  0
ENDBLK
  5
1D
330
1B
100
AcDbEntity
 67
     1
  8
0
100
AcDbBlockEnd
  0
ENDSEC
  0
SECTION
  2
ENTITIES
  0
SPLINE
  5
100
100
AcDbEntity
  8
0
 62
7
100
AcDbSpline
 70
8
 71
3
 72
8
 73
4
 74
0
 40
0
 40
0
 40
0
 40
0
 40
1
 40
1
 40
1
 40
1
 10
174.288000
 20
80.536000
 30
0.0
 10
175.376000
 20
81.280000
 30
0.0
 10
176.648000
 20
80.592000
 30
0.0
 10
177.408000
 20
79.720000
 30
0.0
  0
SPLINE
  5
101
100
AcDbEntity
  8
0
 62
7
100
AcDbSpline
 70
8
 71
3
 72
8
 73
4
 74
0
 40
0
 40
0
 40
0
 40
0
 40
1
 40
1
 40
1
 40
1
 10
177.408000
 20
79.720000
 30
0.0
 10
177.912000
 20
77.664000
 30
0.0
 10
176.712000
 20
75.800000
 30
0.0
 10
175.800000
 20
74.072000
 30
0.0
  0
SPLINE
  5
102
100
AcDbEntity
  8
0
 62
7
100
AcDbSpline
 70
8
 71
3
 72
8
 73
4
 74
0
 40
0
 40
0
 40
0
 40
0
 40
1
 40
1
 40
1
 40
1
 10
175.800000
 20
74.072000
 30
0.0
 10
171.880000
 20
67.472000
 30
0.0
 10
171.912000
 20
59.528000
 30
0.0
 10
169.272000
 20
52.456000
 30
0.0
  0
SPLINE
  5
103
100
AcDbEntity
  8
0
 62
7
100
AcDbSpline
 70
8
 71
3
 72
8
 73
4
 74
0
 40
0
 40
0
 40
0
 40
0
 40
1
 40
1
 40
1
 40
1
 10
169.272000
 20
52.456000
 30
0.0
 10
167.472000
 20
47.736000
 30
0.0
 10
166.528000
 20
42.672000
 30
0.0
 10
167.648000
 20
37.664000
 30
0.0
  0
SPLINE
  5
104
100
AcDbEntity
  8
0
 62
7
100
AcDbSpline
 70
8
 71
3
 72
8
 73
4
 74
0
 40
0
 40
0
 40
0
 40
0
 40
1
 40
1
 40
1
 40
1
 10
167.648000
 20
37.664000
 30
0.0
 10
171.232000
 20
39.584000
 30
0.0
 10
174.984000
 20
41.136000
 30
0.0
 10
178.720000
 20
42.704000
 30
0.0
  0
SPLINE
  5
105
100
AcDbEntity
  8
0
 62
7
100
AcDbSpline
 70
8
 71
3
 72
8
 73
4
 74
0
 40
0
 40
0
 40
0
 40
0
 40
1
 40
1
 40
1
 40
1
 10
178.720000
 20
42.704000
 30
0.0
 10
179.064000
 20
41.528000
 30
0.0
 10
179.400000
 20
40.360000
 30
0.0
 10
179.736000
 20
39.184000
 30
0.0
  0
SPLINE
  5
106
100
AcDbEntity
  8
0
 62
7
100
AcDbSpline
 70
8
 71
3
 72
8
 73
4
 74
0
 40
0
 40
0
 40
0
 40
0
 40
1
 40
1
 40
1
 40
1
 10
179.736000
 20
39.184000
 30
0.0
 10
174.152000
 20
35.352000
 30
0.0
 10
167.840000
 20
32.736000
 30
0.0
 10
162.416000
 20
28.648000
 30
0.0
  0
SPLINE
  5
107
100
AcDbEntity
  8
0
 62
7
100
AcDbSpline
 70
8
 71
3
 72
8
 73
4
 74
0
 40
0
 40
0
 40
0
 40
0
 40
1
 40
1
 40
1
 40
1
 10
162.416000
 20
28.648000
 30
0.0
 10
160.736000
 20
30.848000
 30
0.0
 10
158.272000
 20
33.064000
 30
0.0
 10
158.712000
 20
36.112000
 30
0.0
  0
SPLINE
  5
108
100
AcDbEntity
  8
0
 62
7
100
AcDbSpline
 70
8
 71
3
 72
8
 73
4
 74
0
 40
0
 40
0
 40
0
 40
0
 40
1
 40
1
 40
1
 40
1
 10
158.712000
 20
36.112000
 30
0.0
 10
159.616000
 20
43.832000
 30
0.0
 10
162.608000
 20
51.080000
 30
0.0
 10
164.872000
 20
58.472000
 30
0.0
  0
SPLINE
  5
109
100
AcDbEntity
  8
0
 62
7
100
AcDbSpline
 70
8
 71
3
 72
8
 73
4
 74
0
 40
0
 40
0
 40
0
 40
0
 40
1
 40
1
 40
1
 40
1
 10
164.872000
 20
58.472000
 30
0.0
 10
165.424000
 20
60.600000
 30
0.0
 10
165.920000
 20
62.920000
 30
0.0
 10
165.232000
 20
65.072000
 30
0.0
  0
SPLINE
  5
10a
100
AcDbEntity
  8
0
 62
7
100
AcDbSpline
 70
8
 71
3
 72
8
 73
4
 74
0
 40
0
 40
0
 40
0
 40
0
 40
1
 40
1
 40
1
 40
1
 10
165.232000
 20
65.072000
 30
0.0
 10
164.200000
 20
66.752000
 30
0.0
 10
162.328000
 20
67.664000
 30
0.0
 10
160.840000
 20
68.872000
 30
0.0
  0
SPLINE
  5
10b
100
AcDbEntity
  8
0
 62
7
100
AcDbSpline
 70
8
 71
3
 72
8
 73
4
 74
0
 40
0
 40
0
 40
0
 40
0
 40
1
 40
1
 40
1
 40
1
 10
160.840000
 20
68.872000
 30
0.0
 10
164.696000
 20
73.368000
 30
0.0
 10
168.760000
 20
78.088000
 30
0.0
 10
174.288000
 20
80.536000
 30
0.0
  0
LWPOLYLINE
  5
10c
100
AcDbEntity
  8
0
 62
7
100
AcDbPolyline
 90
6
 70
1
 10
-3.840000
 20
82.560000
 30
0.0
 10
181.760000
 20
82.560000
 30
0.0
 10
181.760000
 20
21.760000
 30
0.0
 10
-3.840000
 20
21.760000
 30
0.0
 10
-3.840000
 20
82.560000
 30
0.0
 10
-3.840000
 20
82.560000
 30
0.0
  0
SPLINE
  5
10d
100
AcDbEntity
  8
0
 62
7
100
AcDbSpline
 70
8
 71
3
 72
8
 73
4
 74
0
 40
0
 40
0
 40
0
 40
0
 40
1
 40
1
 40
1
 40
1
 10
69.080000
 20
75.800000
 30
0.0
 10
75.176000
 20
78.008000
 30
0.0
 10
81.464000
 20
80.488000
 30
0.0
 10
88.088000
 20
79.832000
 30
0.0
  0
SPLINE
  5
10e
100
AcDbEntity
  8
0
 62
7
100
AcDbSpline
 70
8
 71
3
 72
8
 73
4
 74
0
 40
0
 40
0
 40
0
 40
0
 40
1
 40
1
 40
1
 40
1
 10
88.088000
 20
79.832000
 30
0.0
 10
90.640000
 20
79.976000
 30
0.0
 10
92.256000
 20
77.768000
 30
0.0
 10
94.000000
 20
76.296000
 30
0.0
  0
SPLINE
  5
10f
100
AcDbEntity
  8
0
 62
7
100
AcDbSpline
 70
8
 71
3
 72
8
 73
4
 74
0
 40
0
 40
0
 40
0
 40
0
 40
1
 40
1
 40
1
 40
1
 10
94.000000
 20
76.296000
 30
0.0
 10
90.792000
 20
71.616000
 30
0.0
 10
86.064000
 20
68.384000
 30
0.0
 10
81.296000
 20
65.472000
 30
0.0
  0
SPLINE
  5
110
100
AcDbEntity
  8
0
 62
7
100
AcDbSpline
 70
8
 71
3
 72
8
 73
4
 74
0
 40
0
 40
0
 40
0
 40
0
 40
1
 40
1
 40
1
 40
1
 10
81.296000
 20
65.472000
 30
0.0
 10
74.944000
 20
61.896000
 30
0.0
 10
68.760000
 20
58.032000
 30
0.0
 10
62.200000
 20
54.824000
 30
0.0
  0
SPLINE
  5
111
100
AcDbEntity
  8
0
 62
7
100
AcDbSpline
 70
8
 71
3
 72
8
 73
4
 74
0
 40
0
 40
0
 40
0
 40
0
 40
1
 40
1
 40
1
 40
1
 10
62.200000
 20
54.824000
 30
0.0
 10
61.288000
 20
54.120000
 30
0.0
 10
59.456000
 20
53.832000
 30
0.0
 10
59.656000
 20
52.360000
 30
0.0
  0
SPLINE
  5
112
100
AcDbEntity
  8
0
 62
7
100
AcDbSpline
 70
8
 71
3
 72
8
 73
4
 74
0
 40
0
 40
0
 40
0
 40
0
 40
1
 40
1
 40
1
 40
1
 10
59.656000
 20
52.360000
 30
0.0
 10
64.296000
 20
48.520000
 30
0.0
 10
69.832000
 20
45.944000
 30
0.0
 10
75.120000
 20
43.128000
 30
0.0
  0
SPLINE
  5
113
100
AcDbEntity
  8
0
 62
7
100
AcDbSpline
 70
8
 71
3
 72
8
 73
4
 74
0
 40
0
 40
0
 40
0
 40
0
 40
1
 40
1
 40
1
 40
1
 10
75.120000
 20
43.128000
 30
0.0
 10
78.296000
 20
41.352000
 30
0.0
 10
80.784000
 20
38.648000
 30
0.0
 10
83.328000
 20
36.096000
 30
0.0
  0
SPLINE
  5
114
100
AcDbEntity
  8
0
 62
7
100
AcDbSpline
 70
8
 71
3
 72
8
 73
4
 74
0
 40
0
 40
0
 40
0
 40
0
 40
1
 40
1
 40
1
 40
1
 10
83.328000
 20
36.096000
 30
0.0
 10
79.672000
 20
33.152000
 30
0.0
 10
75.408000
 20
30.472000
 30
0.0
 10
70.600000
 20
30.200000
 30
0.0
  0
SPLINE
  5
115
100
AcDbEntity
  8
0
 62
7
100
AcDbSpline
 70
8
 71
3
 72
8
 73
4
 74
0
 40
0
 40
0
 40
0
 40
0
 40
1
 40
1
 40
1
 40
1
 10
70.600000
 20
30.200000
 30
0.0
 10
66.064000
 20
32.224000
 30
0.0
 10
63.552000
 20
36.952000
 30
0.0
 10
59.296000
 20
39.424000
 30
0.0
  0
SPLINE
  5
116
100
AcDbEntity
  8
0
 62
7
100
AcDbSpline
 70
8
 71
3
 72
8
 73
4
 74
0
 40
0
 40
0
 40
0
 40
0
 40
1
 40
1
 40
1
 40
1
 10
59.296000
 20
39.424000
 30
0.0
 10
55.560000
 20
41.584000
 30
0.0
 10
52.264000
 20
44.656000
 30
0.0
 10
48.088000
 20
45.952000
 30
0.0
  0
SPLINE
  5
117
100
AcDbEntity
  8
0
 62
7
100
AcDbSpline
 70
8
 71
3
 72
8
 73
4
 74
0
 40
0
 40
0
 40
0
 40
0
 40
1
 40
1
 40
1
 40
1
 10
48.088000
 20
45.952000
 30
0.0
 10
43.072000
 20
45.000000
 30
0.0
 10
38.728000
 20
42.000000
 30
0.0
 10
34.384000
 20
39.448000
 30
0.0
  0
SPLINE
  5
118
100
AcDbEntity
  8
0
 62
7
100
AcDbSpline
 70
8
 71
3
 72
8
 73
4
 74
0
 40
0
 40
0
 40
0
 40
0
 40
1
 40
1
 40
1
 40
1
 10
34.384000
 20
39.448000
 30
0.0
 10
30.544000
 20
36.808000
 30
0.0
 10
26.000000
 20
34.872000
 30
0.0
 10
23.248000
 20
30.936000
 30
0.0
  0
SPLINE
  5
119
100
AcDbEntity
  8
0
 62
7
100
AcDbSpline
 70
8
 71
3
 72
8
 73
4
 74
0
 40
0
 40
0
 40
0
 40
0
 40
1
 40
1
 40
1
 40
1
 10
23.248000
 20
30.936000
 30
0.0
 10
20.352000
 20
26.592000
 30
0.0
 10
14.656000
 20
26.112000
 30
0.0
 10
10.408000
 20
23.656000
 30
0.0
  0
SPLINE
  5
11a
100
AcDbEntity
  8
0
 62
7
100
AcDbSpline
 70
8
 71
3
 72
8
 73
4
 74
0
 40
0
 40
0
 40
0
 40
0
 40
1
 40
1
 40
1
 40
1
 10
10.408000
 20
23.656000
 30
0.0
 10
9.456000
 20
24.664000
 30
0.0
 10
8.232000
 20
25.496000
 30
0.0
 10
7.664000
 20
26.800000
 30
0.0
  0
SPLINE
  5
11b
100
AcDbEntity
  8
0
 62
7
100
AcDbSpline
 70
8
 71
3
 72
8
 73
4
 74
0
 40
0
 40
0
 40
0
 40
0
 40
1
 40
1
 40
1
 40
1
 10
7.664000
 20
26.800000
 30
0.0
 10
7.144000
 20
28.632000
 30
0.0
 10
9.464000
 20
29.504000
 30
0.0
 10
10.576000
 20
30.528000
 30
0.0
  0
SPLINE
  5
11c
100
AcDbEntity
  8
0
 62
7
100
AcDbSpline
 70
8
 71
3
 72
8
 73
4
 74
0
 40
0
 40
0
 40
0
 40
0
 40
1
 40
1
 40
1
 40
1
 10
10.576000
 20
30.528000
 30
0.0
 10
14.712000
 20
33.024000
 30
0.0
 10
18.664000
 20
35.816000
 30
0.0
 10
22.856000
 20
38.216000
 30
0.0
  0
SPLINE
  5
11d
100
AcDbEntity
  8
0
 62
7
100
AcDbSpline
 70
8
 71
3
 72
8
 73
4
 74
0
 40
0
 40
0
 40
0
 40
0
 40
1
 40
1
 40
1
 40
1
 10
22.856000
 20
38.216000
 30
0.0
 10
29.808000
 20
41.640000
 30
0.0
 10
36.336000
 20
45.896000
 30
0.0
 10
42.368000
 20
50.736000
 30
0.0
  0
SPLINE
  5
11e
100
AcDbEntity
  8
0
 62
7
100
AcDbSpline
 70
8
 71
3
 72
8
 73
4
 74
0
 40
0
 40
0
 40
0
 40
0
 40
1
 40
1
 40
1
 40
1
 10
42.368000
 20
50.736000
 30
0.0
 10
40.592000
 20
53.560000
 30
0.0
 10
37.920000
 20
55.744000
 30
0.0
 10
36.512000
 20
58.832000
 30
0.0
  0
SPLINE
  5
11f
100
AcDbEntity
  8
0
 62
7
100
AcDbSpline
 70
8
 71
3
 72
8
 73
4
 74
0
 40
0
 40
0
 40
0
 40
0
 40
1
 40
1
 40
1
 40
1
 10
36.512000
 20
58.832000
 30
0.0
 10
35.120000
 20
60.928000
 30
0.0
 10
34.128000
 20
64.376000
 30
0.0
 10
31.024000
 20
64.160000
 30
0.0
  0
SPLINE
  5
120
100
AcDbEntity
  8
0
 62
7
100
AcDbSpline
 70
8
 71
3
 72
8
 73
4
 74
0
 40
0
 40
0
 40
0
 40
0
 40
1
 40
1
 40
1
 40
1
 10
31.024000
 20
64.160000
 30
0.0
 10
25.968000
 20
63.896000
 30
0.0
 10
21.264000
 20
61.528000
 30
0.0
 10
16.224000
 20
61.248000
 30
0.0
  0
SPLINE
  5
121
100
AcDbEntity
  8
0
 62
7
100
AcDbSpline
 70
8
 71
3
 72
8
 73
4
 74
0
 40
0
 40
0
 40
0
 40
0
 40
1
 40
1
 40
1
 40
1
 10
16.224000
 20
61.248000
 30
0.0
 10
14.360000
 20
61.112000
 30
0.0
 10
13.560000
 20
63.080000
 30
0.0
 10
12.656000
 20
64.328000
 30
0.0
  0
SPLINE
  5
122
100
AcDbEntity
  8
0
 62
7
100
AcDbSpline
 70
8
 71
3
 72
8
 73
4
 74
0
 40
0
 40
0
 40
0
 40
0
 40
1
 40
1
 40
1
 40
1
 10
12.656000
 20
64.328000
 30
0.0
 10
19.736000
 20
68.576000
 30
0.0
 10
28.000000
 20
69.808000
 30
0.0
 10
35.920000
 20
71.568000
 30
0.0
  0
SPLINE
  5
123
100
AcDbEntity
  8
0
 62
7
100
AcDbSpline
 70
8
 71
3
 72
8
 73
4
 74
0
 40
0
 40
0
 40
0
 40
0
 40
1
 40
1
 40
1
 40
1
 10
35.920000
 20
71.568000
 30
0.0
 10
40.304000
 20
72.632000
 30
0.0
 10
44.920000
 20
75.384000
 30
0.0
 10
49.448000
 20
73.560000
 30
0.0
  0
SPLINE
  5
124
100
AcDbEntity
  8
0
 62
7
100
AcDbSpline
 70
8
 71
3
 72
8
 73
4
 74
0
 40
0
 40
0
 40
0
 40
0
 40
1
 40
1
 40
1
 40
1
 10
49.448000
 20
73.560000
 30
0.0
 10
50.912000
 20
71.680000
 30
0.0
 10
51.280000
 20
69.256000
 30
0.0
 10
51.888000
 20
67.016000
 30
0.0
  0
SPLINE
  5
125
100
AcDbEntity
  8
0
 62
7
100
AcDbSpline
 70
8
 71
3
 72
8
 73
4
 74
0
 40
0
 40
0
 40
0
 40
0
 40
1
 40
1
 40
1
 40
1
 10
51.888000
 20
67.016000
 30
0.0
 10
52.736000
 20
63.512000
 30
0.0
 10
53.840000
 20
60.072000
 30
0.0
 10
54.920000
 20
56.624000
 30
0.0
  0
SPLINE
  5
126
100
AcDbEntity
  8
0
 62
7
100
AcDbSpline
 70
8
 71
3
 72
8
 73
4
 74
0
 40
0
 40
0
 40
0
 40
0
 40
1
 40
1
 40
1
 40
1
 10
54.920000
 20
56.624000
 30
0.0
 10
60.904000
 20
59.112000
 30
0.0
 10
66.056000
 20
63.136000
 30
0.0
 10
71.712000
 20
66.240000
 30
0.0
  0
SPLINE
  5
127
100
AcDbEntity
  8
0
 62
7
100
AcDbSpline
 70
8
 71
3
 72
8
 73
4
 74
0
 40
0
 40
0
 40
0
 40
0
 40
1
 40
1
 40
1
 40
1
 10
71.712000
 20
66.240000
 30
0.0
 10
73.664000
 20
67.208000
 30
0.0
 10
74.680000
 20
69.224000
 30
0.0
 10
75.424000
 20
71.168000
 30
0.0
  0
SPLINE
  5
128
100
AcDbEntity
  8
0
 62
7
100
AcDbSpline
 70
8
 71
3
 72
8
 73
4
 74
0
 40
0
 40
0
 40
0
 40
0
 40
1
 40
1
 40
1
 40
1
 10
75.424000
 20
71.168000
 30
0.0
 10
73.376000
 20
71.952000
 30
0.0
 10
71.296000
 20
72.656000
 30
0.0
 10
69.240000
 20
73.408000
 30
0.0
  0
SPLINE
  5
129
100
AcDbEntity
  8
0
 62
7
100
AcDbSpline
 70
8
 71
3
 72
8
 73
4
 74
0
 40
0
 40
0
 40
0
 40
0
 40
1
 40
1
 40
1
 40
1
 10
69.240000
 20
73.408000
 30
0.0
 10
69.184000
 20
74.208000
 30
0.0
 10
69.128000
 20
75.008000
 30
0.0
 10
69.080000
 20
75.800000
 30
0.0
  0
LWPOLYLINE
  5
12a
100
AcDbEntity
  8
0
 62
7
100
AcDbPolyline
 90
2
 70
1
 10
174.288000
 20
80.536000
 30
0.0
 10
174.288000
 20
80.536000
 30
0.0
  0
SPLINE
  5
12b
100
AcDbEntity
  8
0
 62
7
100
AcDbSpline
 70
8
 71
3
 72
8
 73
4
 74
0
 40
0
 40
0
 40
0
 40
0
 40
1
 40
1
 40
1
 40
1
 10
105.672000
 20
60.224000
 30
0.0
 10
108.168000
 20
62.392000
 30
0.0
 10
111.520000
 20
63.088000
 30
0.0
 10
114.720000
 20
63.432000
 30
0.0
  0
SPLINE
  5
12c
100
AcDbEntity
  8
0
 62
7
100
AcDbSpline
 70
8
 71
3
 72
8
 73
4
 74
0
 40
0
 40
0
 40
0
 40
0
 40
1
 40
1
 40
1
 40
1
 10
114.720000
 20
63.432000
 30
0.0
 10
117.176000
 20
63.856000
 30
0.0
 10
119.112000
 20
61.944000
 30
0.0
 10
121.080000
 20
60.824000
 30
0.0
  0
SPLINE
  5
12d
100
AcDbEntity
  8
0
 62
7
100
AcDbSpline
 70
8
 71
3
 72
8
 73
4
 74
0
 40
0
 40
0
 40
0
 40
0
 40
1
 40
1
 40
1
 40
1
 10
121.080000
 20
60.824000
 30
0.0
 10
118.800000
 20
57.544000
 30
0.0
 10
115.392000
 20
54.504000
 30
0.0
 10
111.112000
 20
54.944000
 30
0.0
  0
SPLINE
  5
12e
100
AcDbEntity
  8
0
 62
7
100
AcDbSpline
 70
8
 71
3
 72
8
 73
4
 74
0
 40
0
 40
0
 40
0
 40
0
 40
1
 40
1
 40
1
 40
1
 10
111.112000
 20
54.944000
 30
0.0
 10
108.448000
 20
55.256000
 30
0.0
 10
107.856000
 20
52.048000
 30
0.0
 10
107.168000
 20
50.168000
 30
0.0
  0
SPLINE
  5
12f
100
AcDbEntity
  8
0
 62
7
100
AcDbSpline
 70
8
 71
3
 72
8
 73
4
 74
0
 40
0
 40
0
 40
0
 40
0
 40
1
 40
1
 40
1
 40
1
 10
107.168000
 20
50.168000
 30
0.0
 10
105.384000
 20
45.064000
 30
0.0
 10
106.200000
 20
39.608000
 30
0.0
 10
107.688000
 20
34.552000
 30
0.0
  0
SPLINE
  5
130
100
AcDbEntity
  8
0
 62
7
100
AcDbSpline
 70
8
 71
3
 72
8
 73
4
 74
0
 40
0
 40
0
 40
0
 40
0
 40
1
 40
1
 40
1
 40
1
 10
107.688000
 20
34.552000
 30
0.0
 10
111.864000
 20
35.320000
 30
0.0
 10
115.944000
 20
36.496000
 30
0.0
 10
119.928000
 20
37.952000
 30
0.0
  0
SPLINE
  5
131
100
AcDbEntity
  8
0
 62
7
100
AcDbSpline
 70
8
 71
3
 72
8
 73
4
 74
0
 40
0
 40
0
 40
0
 40
0
 40
1
 40
1
 40
1
 40
1
 10
119.928000
 20
37.952000
 30
0.0
 10
122.008000
 20
38.864000
 30
0.0
 10
124.360000
 20
38.512000
 30
0.0
 10
126.416000
 20
37.720000
 30
0.0
  0
SPLINE
  5
132
100
AcDbEntity
  8
0
 62
7
100
AcDbSpline
 70
8
 71
3
 72
8
 73
4
 74
0
 40
0
 40
0
 40
0
 40
0
 40
1
 40
1
 40
1
 40
1
 10
126.416000
 20
37.720000
 30
0.0
 10
124.864000
 20
35.472000
 30
0.0
 10
122.712000
 20
33.688000
 30
0.0
 10
120.112000
 20
32.800000
 30
0.0
  0
SPLINE
  5
133
100
AcDbEntity
  8
0
 62
7
100
AcDbSpline
 70
8
 71
3
 72
8
 73
4
 74
0
 40
0
 40
0
 40
0
 40
0
 40
1
 40
1
 40
1
 40
1
 10
120.112000
 20
32.800000
 30
0.0
 10
115.240000
 20
30.984000
 30
0.0
 10
110.656000
 20
28.376000
 30
0.0
 10
105.584000
 20
27.152000
 30
0.0
  0
SPLINE
  5
134
100
AcDbEntity
  8
0
 62
7
100
AcDbSpline
 70
8
 71
3
 72
8
 73
4
 74
0
 40
0
 40
0
 40
0
 40
0
 40
1
 40
1
 40
1
 40
1
 10
105.584000
 20
27.152000
 30
0.0
 10
102.912000
 20
26.296000
 30
0.0
 10
100.928000
 20
28.840000
 30
0.0
 10
99.624000
 20
30.784000
 30
0.0
  0
SPLINE
  5
135
100
AcDbEntity
  8
0
 62
7
100
AcDbSpline
 70
8
 71
3
 72
8
 73
4
 74
0
 40
0
 40
0
 40
0
 40
0
 40
1
 40
1
 40
1
 40
1
 10
99.624000
 20
30.784000
 30
0.0
 10
97.128000
 20
35.264000
 30
0.0
 10
98.072000
 20
40.624000
 30
0.0
 10
98.832000
 20
45.440000
 30
0.0
  0
SPLINE
  5
136
100
AcDbEntity
  8
0
 62
7
100
AcDbSpline
 70
8
 71
3
 72
8
 73
4
 74
0
 40
0
 40
0
 40
0
 40
0
 40
1
 40
1
 40
1
 40
1
 10
98.832000
 20
45.440000
 30
0.0
 10
99.720000
 20
50.808000
 30
0.0
 10
101.224000
 20
56.672000
 30
0.0
 10
105.672000
 20
60.224000
 30
0.0
  0
LWPOLYLINE
  5
137
100
AcDbEntity
  8
0
 62
7
100
AcDbPolyline
 90
2
 70
1
 10
69.080000
 20
75.800000
 30
0.0
 10
69.080000
 20
75.800000
 30
0.0
  0
SPLINE
  5
138
100
AcDbEntity
  8
0
 62
7
100
AcDbSpline
 70
8
 71
3
 72
8
 73
4
 74
0
 40
0
 40
0
 40
0
 40
0
 40
1
 40
1
 40
1
 40
1
 10
134.264000
 20
58.048000
 30
0.0
 10
136.432000
 20
59.976000
 30
0.0
 10
139.024000
 20
61.568000
 30
0.0
 10
141.864000
 20
62.224000
 30
0.0
  0
SPLINE
  5
139
100
AcDbEntity
  8
0
 62
7
100
AcDbSpline
 70
8
 71
3
 72
8
 73
4
 74
0
 40
0
 40
0
 40
0
 40
0
 40
1
 40
1
 40
1
 40
1
 10
141.864000
 20
62.224000
 30
0.0
 10
144.440000
 20
62.176000
 30
0.0
 10
147.488000
 20
61.696000
 30
0.0
 10
149.256000
 20
59.664000
 30
0.0
  0
SPLINE
  5
13a
100
AcDbEntity
  8
0
 62
7
100
AcDbSpline
 70
8
 71
3
 72
8
 73
4
 74
0
 40
0
 40
0
 40
0
 40
0
 40
1
 40
1
 40
1
 40
1
 10
149.256000
 20
59.664000
 30
0.0
 10
150.528000
 20
56.104000
 30
0.0
 10
150.880000
 20
51.328000
 30
0.0
 10
147.672000
 20
48.656000
 30
0.0
  0
SPLINE
  5
13b
100
AcDbEntity
  8
0
 62
7
100
AcDbSpline
 70
8
 71
3
 72
8
 73
4
 74
0
 40
0
 40
0
 40
0
 40
0
 40
1
 40
1
 40
1
 40
1
 10
147.672000
 20
48.656000
 30
0.0
 10
144.408000
 20
45.032000
 30
0.0
 10
139.400000
 20
44.280000
 30
0.0
 10
134.968000
 20
42.952000
 30
0.0
  0
SPLINE
  5
13c
100
AcDbEntity
  8
0
 62
7
100
AcDbSpline
 70
8
 71
3
 72
8
 73
4
 74
0
 40
0
 40
0
 40
0
 40
0
 40
1
 40
1
 40
1
 40
1
 10
134.968000
 20
42.952000
 30
0.0
 10
135.376000
 20
40.456000
 30
0.0
 10
135.624000
 20
37.928000
 30
0.0
 10
135.800000
 20
35.400000
 30
0.0
  0
SPLINE
  5
13d
100
AcDbEntity
  8
0
 62
7
100
AcDbSpline
 70
8
 71
3
 72
8
 73
4
 74
0
 40
0
 40
0
 40
0
 40
0
 40
1
 40
1
 40
1
 40
1
 10
135.800000
 20
35.400000
 30
0.0
 10
139.072000
 20
35.656000
 30
0.0
 10
142.440000
 20
35.816000
 30
0.0
 10
145.488000
 20
37.168000
 30
0.0
  0
SPLINE
  5
13e
100
AcDbEntity
  8
0
 62
7
100
AcDbSpline
 70
8
 71
3
 72
8
 73
4
 74
0
 40
0
 40
0
 40
0
 40
0
 40
1
 40
1
 40
1
 40
1
 10
145.488000
 20
37.168000
 30
0.0
 10
148.064000
 20
38.168000
 30
0.0
 10
150.312000
 20
39.872000
 30
0.0
 10
152.912000
 20
40.784000
 30
0.0
  0
SPLINE
  5
13f
100
AcDbEntity
  8
0
 62
7
100
AcDbSpline
 70
8
 71
3
 72
8
 73
4
 74
0
 40
0
 40
0
 40
0
 40
0
 40
1
 40
1
 40
1
 40
1
 10
152.912000
 20
40.784000
 30
0.0
 10
154.512000
 20
40.448000
 30
0.0
 10
155.224000
 20
38.704000
 30
0.0
 10
156.424000
 20
37.760000
 30
0.0
  0
SPLINE
  5
140
100
AcDbEntity
  8
0
 62
7
100
AcDbSpline
 70
8
 71
3
 72
8
 73
4
 74
0
 40
0
 40
0
 40
0
 40
0
 40
1
 40
1
 40
1
 40
1
 10
156.424000
 20
37.760000
 30
0.0
 10
148.080000
 20
32.272000
 30
0.0
 10
138.224000
 20
29.904000
 30
0.0
 10
128.672000
 20
27.448000
 30
0.0
  0
SPLINE
  5
141
100
AcDbEntity
  8
0
 62
7
100
AcDbSpline
 70
8
 71
3
 72
8
 73
4
 74
0
 40
0
 40
0
 40
0
 40
0
 40
1
 40
1
 40
1
 40
1
 10
128.672000
 20
27.448000
 30
0.0
 10
126.224000
 20
33.792000
 30
0.0
 10
126.112000
 20
41.072000
 30
0.0
 10
129.048000
 20
47.280000
 30
0.0
  0
SPLINE
  5
142
100
AcDbEntity
  8
0
 62
7
100
AcDbSpline
 70
8
 71
3
 72
8
 73
4
 74
0
 40
0
 40
0
 40
0
 40
0
 40
1
 40
1
 40
1
 40
1
 10
129.048000
 20
47.280000
 30
0.0
 10
130.872000
 20
50.832000
 30
0.0
 10
131.168000
 20
55.256000
 30
0.0
 10
134.264000
 20
58.048000
 30
0.0
  0
LWPOLYLINE
  5
143
100
AcDbEntity
  8
0
 62
7
100
AcDbPolyline
 90
2
 70
1
 10
105.672000
 20
60.224000
 30
0.0
 10
105.672000
 20
60.224000
 30
0.0
  0
SPLINE
  5
144
100
AcDbEntity
  8
0
 62
7
100
AcDbSpline
 70
8
 71
3
 72
8
 73
4
 74
0
 40
0
 40
0
 40
0
 40
0
 40
1
 40
1
 40
1
 40
1
 10
139.144000
 20
54.760000
 30
0.0
 10
140.328000
 20
55.656000
 30
0.0
 10
141.896000
 20
55.792000
 30
0.0
 10
143.280000
 20
56.224000
 30
0.0
  0
SPLINE
  5
145
100
AcDbEntity
  8
0
 62
7
100
AcDbSpline
 70
8
 71
3
 72
8
 73
4
 74
0
 40
0
 40
0
 40
0
 40
0
 40
1
 40
1
 40
1
 40
1
 10
143.280000
 20
56.224000
 30
0.0
 10
143.008000
 20
54.504000
 30
0.0
 10
143.296000
 20
52.464000
 30
0.0
 10
142.056000
 20
51.064000
 30
0.0
  0
SPLINE
  5
146
100
AcDbEntity
  8
0
 62
7
100
AcDbSpline
 70
8
 71
3
 72
8
 73
4
 74
0
 40
0
 40
0
 40
0
 40
0
 40
1
 40
1
 40
1
 40
1
 10
142.056000
 20
51.064000
 30
0.0
 10
140.648000
 20
49.264000
 30
0.0
 10
138.120000
 20
49.384000
 30
0.0
 10
136.096000
 20
48.912000
 30
0.0
  0
SPLINE
  5
147
100
AcDbEntity
  8
0
 62
7
100
AcDbSpline
 70
8
 71
3
 72
8
 73
4
 74
0
 40
0
 40
0
 40
0
 40
0
 40
1
 40
1
 40
1
 40
1
 10
136.096000
 20
48.912000
 30
0.0
 10
136.960000
 20
50.936000
 30
0.0
 10
137.664000
 20
53.088000
 30
0.0
 10
139.144000
 20
54.760000
 30
0.0
  0
LWPOLYLINE
  5
148
100
AcDbEntity
  8
0
 62
7
100
AcDbPolyline
 90
2
 70
1
 10
134.264000
 20
58.048000
 30
0.0
 10
134.264000
 20
58.048000
 30
0.0
  0
LWPOLYLINE
  5
149
100
AcDbEntity
  8
0
 62
7
100
AcDbPolyline
 90
2
 70
1
 10
139.144000
 20
54.760000
 30
0.0
 10
139.144000
 20
54.760000
 30
0.0
  0
SPLINE
  5
14a
100
AcDbEntity
  8
0
 62
7
100
AcDbSpline
 70
8
 71
3
 72
8
 73
4
 74
0
 40
0
 40
0
 40
0
 40
0
 40
1
 40
1
 40
1
 40
1
 10
5.557353
 20
10.013960
 30
0.0
 10
5.721788
 20
9.096920
 30
0.0
 10
6.053819
 20
8.423371
 30
0.0
 10
6.553447
 20
7.993312
 30
0.0
  0
SPLINE
  5
14b
100
AcDbEntity
  8
0
 62
7
100
AcDbSpline
 70
8
 71
3
 72
8
 73
4
 74
0
 40
0
 40
0
 40
0
 40
0
 40
1
 40
1
 40
1
 40
1
 10
6.553447
 20
7.993312
 30
0.0
 10
7.059400
 20
7.563248
 30
0.0
 10
7.739274
 20
7.348216
 30
0.0
 10
8.593069
 20
7.348216
 30
0.0
  0
SPLINE
  5
14c
100
AcDbEntity
  8
0
 62
7
100
AcDbSpline
 70
8
 71
3
 72
8
 73
4
 74
0
 40
0
 40
0
 40
0
 40
0
 40
1
 40
1
 40
1
 40
1
 10
8.593069
 20
7.348216
 30
0.0
 10
9.497459
 20
7.348216
 30
0.0
 10
10.177332
 20
7.537949
 30
0.0
 10
10.632690
 20
7.917416
 30
0.0
  0
SPLINE
  5
14d
100
AcDbEntity
  8
0
 62
7
100
AcDbSpline
 70
8
 71
3
 72
8
 73
4
 74
0
 40
0
 40
0
 40
0
 40
0
 40
1
 40
1
 40
1
 40
1
 10
10.632690
 20
7.917416
 30
0.0
 10
11.094371
 20
8.303203
 30
0.0
 10
11.325212
 20
8.752235
 30
0.0
 10
11.325212
 20
9.264512
 30
0.0
  0
SPLINE
  5
14e
100
AcDbEntity
  8
0
 62
7
100
AcDbSpline
 70
8
 71
3
 72
8
 73
4
 74
0
 40
0
 40
0
 40
0
 40
0
 40
1
 40
1
 40
1
 40
1
 10
11.325212
 20
9.264512
 30
0.0
 10
11.325212
 20
9.593381
 30
0.0
 10
11.227184
 20
9.871656
 30
0.0
 10
11.031127
 20
10.099336
 30
0.0
  0
SPLINE
  5
14f
100
AcDbEntity
  8
0
 62
7
100
AcDbSpline
 70
8
 71
3
 72
8
 73
4
 74
0
 40
0
 40
0
 40
0
 40
0
 40
1
 40
1
 40
1
 40
1
 10
11.031127
 20
10.099336
 30
0.0
 10
10.841395
 20
10.333341
 30
0.0
 10
10.506201
 20
10.535723
 30
0.0
 10
10.025546
 20
10.706480
 30
0.0
  0
SPLINE
  5
150
100
AcDbEntity
  8
0
 62
7
100
AcDbSpline
 70
8
 71
3
 72
8
 73
4
 74
0
 40
0
 40
0
 40
0
 40
0
 40
1
 40
1
 40
1
 40
1
 10
10.025546
 20
10.706480
 30
0.0
 10
9.696678
 20
10.820320
 30
0.0
 10
8.947235
 20
11.022701
 30
0.0
 10
7.777220
 20
11.313624
 30
0.0
  0
SPLINE
  5
151
100
AcDbEntity
  8
0
 62
7
100
AcDbSpline
 70
8
 71
3
 72
8
 73
4
 74
0
 40
0
 40
0
 40
0
 40
0
 40
1
 40
1
 40
1
 40
1
 10
7.777220
 20
11.313624
 30
0.0
 10
6.272011
 20
11.686760
 30
0.0
 10
5.215835
 20
12.145280
 30
0.0
 10
4.608692
 20
12.689184
 30
0.0
  0
SPLINE
  5
152
100
AcDbEntity
  8
0
 62
7
100
AcDbSpline
 70
8
 71
3
 72
8
 73
4
 74
0
 40
0
 40
0
 40
0
 40
0
 40
1
 40
1
 40
1
 40
1
 10
4.608692
 20
12.689184
 30
0.0
 10
3.754897
 20
13.454437
 30
0.0
 10
3.328000
 20
14.387285
 30
0.0
 10
3.328000
 20
15.487728
 30
0.0
  0
SPLINE
  5
153
100
AcDbEntity
  8
0
 62
7
100
AcDbSpline
 70
8
 71
3
 72
8
 73
4
 74
0
 40
0
 40
0
 40
0
 40
0
 40
1
 40
1
 40
1
 40
1
 10
3.328000
 20
15.487728
 30
0.0
 10
3.328000
 20
16.196064
 30
0.0
 10
3.527219
 20
16.856965
 30
0.0
 10
3.925656
 20
17.470432
 30
0.0
  0
SPLINE
  5
154
100
AcDbEntity
  8
0
 62
7
100
AcDbSpline
 70
8
 71
3
 72
8
 73
4
 74
0
 40
0
 40
0
 40
0
 40
0
 40
1
 40
1
 40
1
 40
1
 10
3.925656
 20
17.470432
 30
0.0
 10
4.330418
 20
18.090224
 30
0.0
 10
4.909101
 20
18.561392
 30
0.0
 10
5.661706
 20
18.883936
 30
0.0
  0
SPLINE
  5
155
100
AcDbEntity
  8
0
 62
7
100
AcDbSpline
 70
8
 71
3
 72
8
 73
4
 74
0
 40
0
 40
0
 40
0
 40
0
 40
1
 40
1
 40
1
 40
1
 10
5.661706
 20
18.883936
 30
0.0
 10
6.420635
 20
19.206480
 30
0.0
 10
7.334511
 20
19.367752
 30
0.0
 10
8.403336
 20
19.367752
 30
0.0
  0
SPLINE
  5
156
100
AcDbEntity
  8
0
 62
7
100
AcDbSpline
 70
8
 71
3
 72
8
 73
4
 74
0
 40
0
 40
0
 40
0
 40
0
 40
1
 40
1
 40
1
 40
1
 10
8.403336
 20
19.367752
 30
0.0
 10
10.148873
 20
19.367752
 30
0.0
 10
11.461187
 20
18.985125
 30
0.0
 10
12.340280
 20
18.219872
 30
0.0
  0
SPLINE
  5
157
100
AcDbEntity
  8
0
 62
7
100
AcDbSpline
 70
8
 71
3
 72
8
 73
4
 74
0
 40
0
 40
0
 40
0
 40
0
 40
1
 40
1
 40
1
 40
1
 10
12.340280
 20
18.219872
 30
0.0
 10
13.225697
 20
17.454619
 30
0.0
 10
13.690540
 20
16.433227
 30
0.0
 10
13.734811
 20
15.155696
 30
0.0
  0
LWPOLYLINE
  5
158
100
AcDbEntity
  8
0
 62
7
100
AcDbPolyline
 90
2
 70
1
 10
2.825209
 20
9.748328
 30
0.0
 10
5.557353
 20
10.013960
 30
0.0
  0
SPLINE
  5
159
100
AcDbEntity
  8
0
 62
7
100
AcDbSpline
 70
8
 71
3
 72
8
 73
4
 74
0
 40
0
 40
0
 40
0
 40
0
 40
1
 40
1
 40
1
 40
1
 10
10.926774
 20
15.032376
 30
0.0
 10
10.806611
 20
15.747032
 30
0.0
 10
10.547310
 20
16.259307
 30
0.0
 10
10.148873
 20
16.569200
 30
0.0
  0
SPLINE
  5
15a
100
AcDbEntity
  8
0
 62
7
100
AcDbSpline
 70
8
 71
3
 72
8
 73
4
 74
0
 40
0
 40
0
 40
0
 40
0
 40
1
 40
1
 40
1
 40
1
 10
10.148873
 20
16.569200
 30
0.0
 10
9.756760
 20
16.885424
 30
0.0
 10
9.165428
 20
17.043536
 30
0.0
 10
8.374877
 20
17.043536
 30
0.0
  0
SPLINE
  5
15b
100
AcDbEntity
  8
0
 62
7
100
AcDbSpline
 70
8
 71
3
 72
8
 73
4
 74
0
 40
0
 40
0
 40
0
 40
0
 40
1
 40
1
 40
1
 40
1
 10
8.374877
 20
17.043536
 30
0.0
 10
7.559028
 20
17.043536
 30
0.0
 10
6.920263
 20
16.875939
 30
0.0
 10
6.458581
 20
16.540744
 30
0.0
  0
SPLINE
  5
15c
100
AcDbEntity
  8
0
 62
7
100
AcDbSpline
 70
8
 71
3
 72
8
 73
4
 74
0
 40
0
 40
0
 40
0
 40
0
 40
1
 40
1
 40
1
 40
1
 10
6.458581
 20
16.540744
 30
0.0
 10
6.161334
 20
16.325715
 30
0.0
 10
6.012710
 20
16.037955
 30
0.0
 10
6.012710
 20
15.677464
 30
0.0
  0
SPLINE
  5
15d
100
AcDbEntity
  8
0
 62
7
100
AcDbSpline
 70
8
 71
3
 72
8
 73
4
 74
0
 40
0
 40
0
 40
0
 40
0
 40
1
 40
1
 40
1
 40
1
 10
6.012710
 20
15.677464
 30
0.0
 10
6.012710
 20
15.348595
 30
0.0
 10
6.151847
 20
15.067157
 30
0.0
 10
6.430121
 20
14.833152
 30
0.0
  0
SPLINE
  5
15e
100
AcDbEntity
  8
0
 62
7
100
AcDbSpline
 70
8
 71
3
 72
8
 73
4
 74
0
 40
0
 40
0
 40
0
 40
0
 40
1
 40
1
 40
1
 40
1
 10
6.430121
 20
14.833152
 30
0.0
 10
6.784288
 20
14.535904
 30
0.0
 10
7.644407
 20
14.226008
 30
0.0
 10
9.010479
 20
13.903464
 30
0.0
  0
SPLINE
  5
15f
100
AcDbEntity
  8
0
 62
7
100
AcDbSpline
 70
8
 71
3
 72
8
 73
4
 74
0
 40
0
 40
0
 40
0
 40
0
 40
1
 40
1
 40
1
 40
1
 10
9.010479
 20
13.903464
 30
0.0
 10
10.376551
 20
13.580920
 30
0.0
 10
11.385294
 20
13.245728
 30
0.0
 10
12.036708
 20
12.897888
 30
0.0
  0
SPLINE
  5
160
100
AcDbEntity
  8
0
 62
7
100
AcDbSpline
 70
8
 71
3
 72
8
 73
4
 74
0
 40
0
 40
0
 40
0
 40
0
 40
1
 40
1
 40
1
 40
1
 10
12.036708
 20
12.897888
 30
0.0
 10
12.694447
 20
12.556368
 30
0.0
 10
13.206724
 20
12.085200
 30
0.0
 10
13.573539
 20
11.484384
 30
0.0
  0
SPLINE
  5
161
100
AcDbEntity
  8
0
 62
7
100
AcDbSpline
 70
8
 71
3
 72
8
 73
4
 74
0
 40
0
 40
0
 40
0
 40
0
 40
1
 40
1
 40
1
 40
1
 10
13.573539
 20
11.484384
 30
0.0
 10
13.946679
 20
10.889888
 30
0.0
 10
14.133249
 20
10.153093
 30
0.0
 10
14.133249
 20
9.274000
 30
0.0
  0
SPLINE
  5
162
100
AcDbEntity
  8
0
 62
7
100
AcDbSpline
 70
8
 71
3
 72
8
 73
4
 74
0
 40
0
 40
0
 40
0
 40
0
 40
1
 40
1
 40
1
 40
1
 10
14.133249
 20
9.274000
 30
0.0
 10
14.133249
 20
8.477125
 30
0.0
 10
13.911895
 20
7.730845
 30
0.0
 10
13.469186
 20
7.035160
 30
0.0
  0
SPLINE
  5
163
100
AcDbEntity
  8
0
 62
7
100
AcDbSpline
 70
8
 71
3
 72
8
 73
4
 74
0
 40
0
 40
0
 40
0
 40
0
 40
1
 40
1
 40
1
 40
1
 10
13.469186
 20
7.035160
 30
0.0
 10
13.026478
 20
6.339475
 30
0.0
 10
12.400361
 20
5.820875
 30
0.0
 10
11.590838
 20
5.479360
 30
0.0
  0
SPLINE
  5
164
100
AcDbEntity
  8
0
 62
7
100
AcDbSpline
 70
8
 71
3
 72
8
 73
4
 74
0
 40
0
 40
0
 40
0
 40
0
 40
1
 40
1
 40
1
 40
1
 10
11.590838
 20
5.479360
 30
0.0
 10
10.781313
 20
5.144165
 30
0.0
 10
9.772570
 20
4.976568
 30
0.0
 10
8.564609
 20
4.976568
 30
0.0
  0
SPLINE
  5
165
100
AcDbEntity
  8
0
 62
7
100
AcDbSpline
 70
8
 71
3
 72
8
 73
4
 74
0
 40
0
 40
0
 40
0
 40
0
 40
1
 40
1
 40
1
 40
1
 10
8.564609
 20
4.976568
 30
0.0
 10
6.806424
 20
4.976568
 30
0.0
 10
5.456163
 20
5.381331
 30
0.0
 10
4.513826
 20
6.190856
 30
0.0
  0
SPLINE
  5
166
100
AcDbEntity
  8
0
 62
7
100
AcDbSpline
 70
8
 71
3
 72
8
 73
4
 74
0
 40
0
 40
0
 40
0
 40
0
 40
1
 40
1
 40
1
 40
1
 10
4.513826
 20
6.190856
 30
0.0
 10
3.571489
 20
7.006701
 30
0.0
 10
3.008617
 20
8.192525
 30
0.0
 10
2.825209
 20
9.748328
 30
0.0
  0
LWPOLYLINE
  5
167
100
AcDbEntity
  8
0
 62
7
100
AcDbPolyline
 90
2
 70
1
 10
13.734811
 20
15.155696
 30
0.0
 10
10.926774
 20
15.032376
 30
0.0
  0
LWPOLYLINE
  5
168
100
AcDbEntity
  8
0
 62
7
100
AcDbPolyline
 90
2
 70
1
 10
2.825209
 20
9.748328
 30
0.0
 10
2.825209
 20
9.748328
 30
0.0
  0
SPLINE
  5
169
100
AcDbEntity
  8
0
 62
7
100
AcDbSpline
 70
8
 71
3
 72
8
 73
4
 74
0
 40
0
 40
0
 40
0
 40
0
 40
1
 40
1
 40
1
 40
1
 10
21.020528
 20
19.130592
 30
0.0
 10
22.728118
 20
19.130592
 30
0.0
 10
23.841213
 20
19.061021
 30
0.0
 10
24.359814
 20
18.921880
 30
0.0
  0
SPLINE
  5
16a
100
AcDbEntity
  8
0
 62
7
100
AcDbSpline
 70
8
 71
3
 72
8
 73
4
 74
0
 40
0
 40
0
 40
0
 40
0
 40
1
 40
1
 40
1
 40
1
 10
24.359814
 20
18.921880
 30
0.0
 10
25.156690
 20
18.713176
 30
0.0
 10
25.823915
 20
18.257819
 30
0.0
 10
26.361490
 20
17.555808
 30
0.0
  0
SPLINE
  5
16b
100
AcDbEntity
  8
0
 62
7
100
AcDbSpline
 70
8
 71
3
 72
8
 73
4
 74
0
 40
0
 40
0
 40
0
 40
0
 40
1
 40
1
 40
1
 40
1
 10
26.361490
 20
17.555808
 30
0.0
 10
26.899064
 20
16.860128
 30
0.0
 10
27.167851
 20
15.958901
 30
0.0
 10
27.167851
 20
14.852128
 30
0.0
  0
SPLINE
  5
16c
100
AcDbEntity
  8
0
 62
7
100
AcDbSpline
 70
8
 71
3
 72
8
 73
4
 74
0
 40
0
 40
0
 40
0
 40
0
 40
1
 40
1
 40
1
 40
1
 10
27.167851
 20
14.852128
 30
0.0
 10
27.167851
 20
13.998331
 30
0.0
 10
27.012903
 20
13.280509
 30
0.0
 10
26.703007
 20
12.698664
 30
0.0
  0
SPLINE
  5
16d
100
AcDbEntity
  8
0
 62
7
100
AcDbSpline
 70
8
 71
3
 72
8
 73
4
 74
0
 40
0
 40
0
 40
0
 40
0
 40
1
 40
1
 40
1
 40
1
 10
26.703007
 20
12.698664
 30
0.0
 10
26.393111
 20
12.116819
 30
0.0
 10
25.997836
 20
11.658301
 30
0.0
 10
25.517181
 20
11.323112
 30
0.0
  0
SPLINE
  5
16e
100
AcDbEntity
  8
0
 62
7
100
AcDbSpline
 70
8
 71
3
 72
8
 73
4
 74
0
 40
0
 40
0
 40
0
 40
0
 40
1
 40
1
 40
1
 40
1
 10
25.517181
 20
11.323112
 30
0.0
 10
25.042851
 20
10.994243
 30
0.0
 10
24.559034
 20
10.776051
 30
0.0
 10
24.065730
 20
10.668536
 30
0.0
  0
SPLINE
  5
16f
100
AcDbEntity
  8
0
 62
7
100
AcDbSpline
 70
8
 71
3
 72
8
 73
4
 74
0
 40
0
 40
0
 40
0
 40
0
 40
1
 40
1
 40
1
 40
1
 10
24.065730
 20
10.668536
 30
0.0
 10
23.395342
 20
10.535720
 30
0.0
 10
22.424546
 20
10.469312
 30
0.0
 10
21.153340
 20
10.469312
 30
0.0
  0
LWPOLYLINE
  5
170
100
AcDbEntity
  8
0
 62
7
100
AcDbPolyline
 90
3
 70
1
 10
16.514388
 20
5.223216
 30
0.0
 10
16.514388
 20
19.130592
 30
0.0
 10
21.020528
 20
19.130592
 30
0.0
  0
LWPOLYLINE
  5
171
100
AcDbEntity
  8
0
 62
7
100
AcDbPolyline
 90
5
 70
1
 10
21.153340
 20
10.469312
 30
0.0
 10
19.322424
 20
10.469312
 30
0.0
 10
19.322424
 20
5.223216
 30
0.0
 10
16.514388
 20
5.223216
 30
0.0
 10
16.514388
 20
5.223216
 30
0.0
  0
SPLINE
  5
172
100
AcDbEntity
  8
0
 62
7
100
AcDbSpline
 70
8
 71
3
 72
8
 73
4
 74
0
 40
0
 40
0
 40
0
 40
0
 40
1
 40
1
 40
1
 40
1
 10
20.859255
 20
12.831480
 30
0.0
 10
21.966026
 20
12.831480
 30
0.0
 10
22.705982
 20
12.904211
 30
0.0
 10
23.079122
 20
13.049672
 30
0.0
  0
SPLINE
  5
173
100
AcDbEntity
  8
0
 62
7
100
AcDbSpline
 70
8
 71
3
 72
8
 73
4
 74
0
 40
0
 40
0
 40
0
 40
0
 40
1
 40
1
 40
1
 40
1
 10
23.079122
 20
13.049672
 30
0.0
 10
23.452262
 20
13.195133
 30
0.0
 10
23.743185
 20
13.422811
 30
0.0
 10
23.951890
 20
13.732704
 30
0.0
  0
SPLINE
  5
174
100
AcDbEntity
  8
0
 62
7
100
AcDbSpline
 70
8
 71
3
 72
8
 73
4
 74
0
 40
0
 40
0
 40
0
 40
0
 40
1
 40
1
 40
1
 40
1
 10
23.951890
 20
13.732704
 30
0.0
 10
24.166920
 20
14.042603
 30
0.0
 10
24.274435
 20
14.403096
 30
0.0
 10
24.274435
 20
14.814184
 30
0.0
  0
SPLINE
  5
175
100
AcDbEntity
  8
0
 62
7
100
AcDbSpline
 70
8
 71
3
 72
8
 73
4
 74
0
 40
0
 40
0
 40
0
 40
0
 40
1
 40
1
 40
1
 40
1
 10
24.274435
 20
14.814184
 30
0.0
 10
24.274435
 20
15.320136
 30
0.0
 10
24.125811
 20
15.737547
 30
0.0
 10
23.828564
 20
16.066416
 30
0.0
  0
SPLINE
  5
176
100
AcDbEntity
  8
0
 62
7
100
AcDbSpline
 70
8
 71
3
 72
8
 73
4
 74
0
 40
0
 40
0
 40
0
 40
0
 40
1
 40
1
 40
1
 40
1
 10
23.828564
 20
16.066416
 30
0.0
 10
23.531317
 20
16.395285
 30
0.0
 10
23.155015
 20
16.600827
 30
0.0
 10
22.699658
 20
16.683040
 30
0.0
  0
SPLINE
  5
177
100
AcDbEntity
  8
0
 62
7
100
AcDbSpline
 70
8
 71
3
 72
8
 73
4
 74
0
 40
0
 40
0
 40
0
 40
0
 40
1
 40
1
 40
1
 40
1
 10
22.699658
 20
16.683040
 30
0.0
 10
22.364464
 20
16.746288
 30
0.0
 10
21.690915
 20
16.777912
 30
0.0
 10
20.679010
 20
16.777912
 30
0.0
  0
LWPOLYLINE
  5
178
100
AcDbEntity
  8
0
 62
7
100
AcDbPolyline
 90
3
 70
1
 10
19.322424
 20
16.777912
 30
0.0
 10
19.322424
 20
12.831480
 30
0.0
 10
20.859255
 20
12.831480
 30
0.0
  0
SPLINE
  5
179
100
AcDbEntity
  8
0
 62
7
100
AcDbSpline
 70
8
 71
3
 72
8
 73
4
 74
0
 40
0
 40
0
 40
0
 40
0
 40
1
 40
1
 40
1
 40
1
 10
28.922874
 20
12.091520
 30
0.0
 10
28.922874
 20
13.508192
 30
0.0
 10
29.134741
 20
14.697181
 30
0.0
 10
29.558477
 20
15.658488
 30
0.0
  0
SPLINE
  5
17a
100
AcDbEntity
  8
0
 62
7
100
AcDbSpline
 70
8
 71
3
 72
8
 73
4
 74
0
 40
0
 40
0
 40
0
 40
0
 40
1
 40
1
 40
1
 40
1
 10
29.558477
 20
15.658488
 30
0.0
 10
29.874697
 20
16.366824
 30
0.0
 10
30.304757
 20
17.002427
 30
0.0
 10
30.848655
 20
17.565296
 30
0.0
  0
SPLINE
  5
17b
100
AcDbEntity
  8
0
 62
7
100
AcDbSpline
 70
8
 71
3
 72
8
 73
4
 74
0
 40
0
 40
0
 40
0
 40
0
 40
1
 40
1
 40
1
 40
1
 10
30.848655
 20
17.565296
 30
0.0
 10
31.398879
 20
18.128171
 30
0.0
 10
31.999697
 20
18.545581
 30
0.0
 10
32.651111
 20
18.817528
 30
0.0
  0
SPLINE
  5
17c
100
AcDbEntity
  8
0
 62
7
100
AcDbSpline
 70
8
 71
3
 72
8
 73
4
 74
0
 40
0
 40
0
 40
0
 40
0
 40
1
 40
1
 40
1
 40
1
 10
32.651111
 20
18.817528
 30
0.0
 10
33.517555
 20
19.184344
 30
0.0
 10
34.516811
 20
19.367752
 30
0.0
 10
35.648880
 20
19.367752
 30
0.0
  0
SPLINE
  5
17d
100
AcDbEntity
  8
0
 62
7
100
AcDbSpline
 70
8
 71
3
 72
8
 73
4
 74
0
 40
0
 40
0
 40
0
 40
0
 40
1
 40
1
 40
1
 40
1
 10
35.648880
 20
19.367752
 30
0.0
 10
37.697988
 20
19.367752
 30
0.0
 10
39.336010
 20
18.732149
 30
0.0
 10
40.562945
 20
17.460944
 30
0.0
  0
SPLINE
  5
17e
100
AcDbEntity
  8
0
 62
7
100
AcDbSpline
 70
8
 71
3
 72
8
 73
4
 74
0
 40
0
 40
0
 40
0
 40
0
 40
1
 40
1
 40
1
 40
1
 10
40.562945
 20
17.460944
 30
0.0
 10
41.796204
 20
16.189739
 30
0.0
 10
42.412834
 20
14.422067
 30
0.0
 10
42.412834
 20
12.157928
 30
0.0
  0
SPLINE
  5
17f
100
AcDbEntity
  8
0
 62
7
100
AcDbSpline
 70
8
 71
3
 72
8
 73
4
 74
0
 40
0
 40
0
 40
0
 40
0
 40
1
 40
1
 40
1
 40
1
 10
42.412834
 20
12.157928
 30
0.0
 10
42.412834
 20
9.912765
 30
0.0
 10
41.802528
 20
8.154581
 30
0.0
 10
40.581918
 20
6.883376
 30
0.0
  0
SPLINE
  5
180
100
AcDbEntity
  8
0
 62
7
100
AcDbSpline
 70
8
 71
3
 72
8
 73
4
 74
0
 40
0
 40
0
 40
0
 40
0
 40
1
 40
1
 40
1
 40
1
 10
40.581918
 20
6.883376
 30
0.0
 10
39.361307
 20
5.618496
 30
0.0
 10
37.729610
 20
4.986056
 30
0.0
 10
35.686826
 20
4.986056
 30
0.0
  0
SPLINE
  5
181
100
AcDbEntity
  8
0
 62
7
100
AcDbSpline
 70
8
 71
3
 72
8
 73
4
 74
0
 40
0
 40
0
 40
0
 40
0
 40
1
 40
1
 40
1
 40
1
 10
35.686826
 20
4.986056
 30
0.0
 10
33.618745
 20
4.986056
 30
0.0
 10
31.974400
 20
5.615333
 30
0.0
 10
30.753790
 20
6.873888
 30
0.0
  0
SPLINE
  5
182
100
AcDbEntity
  8
0
 62
7
100
AcDbSpline
 70
8
 71
3
 72
8
 73
4
 74
0
 40
0
 40
0
 40
0
 40
0
 40
1
 40
1
 40
1
 40
1
 10
30.753790
 20
6.873888
 30
0.0
 10
29.533179
 20
8.138768
 30
0.0
 10
28.922874
 20
9.877979
 30
0.0
 10
28.922874
 20
12.091520
 30
0.0
  0
LWPOLYLINE
  5
183
100
AcDbEntity
  8
0
 62
7
100
AcDbPolyline
 90
3
 70
1
 10
20.679010
 20
16.777912
 30
0.0
 10
19.322424
 20
16.777912
 30
0.0
 10
19.322424
 20
16.777912
 30
0.0
  0
SPLINE
  5
184
100
AcDbEntity
  8
0
 62
7
100
AcDbSpline
 70
8
 71
3
 72
8
 73
4
 74
0
 40
0
 40
0
 40
0
 40
0
 40
1
 40
1
 40
1
 40
1
 10
31.816290
 20
12.186392
 30
0.0
 10
31.816290
 20
10.611613
 30
0.0
 10
32.179943
 20
9.416299
 30
0.0
 10
32.907250
 20
8.600448
 30
0.0
  0
SPLINE
  5
185
100
AcDbEntity
  8
0
 62
7
100
AcDbSpline
 70
8
 71
3
 72
8
 73
4
 74
0
 40
0
 40
0
 40
0
 40
0
 40
1
 40
1
 40
1
 40
1
 10
32.907250
 20
8.600448
 30
0.0
 10
33.634557
 20
7.790928
 30
0.0
 10
34.557920
 20
7.386168
 30
0.0
 10
35.677340
 20
7.386168
 30
0.0
  0
SPLINE
  5
186
100
AcDbEntity
  8
0
 62
7
100
AcDbSpline
 70
8
 71
3
 72
8
 73
4
 74
0
 40
0
 40
0
 40
0
 40
0
 40
1
 40
1
 40
1
 40
1
 10
35.677340
 20
7.386168
 30
0.0
 10
36.796760
 20
7.386168
 30
0.0
 10
37.713799
 20
7.787768
 30
0.0
 10
38.428458
 20
8.590968
 30
0.0
  0
SPLINE
  5
187
100
AcDbEntity
  8
0
 62
7
100
AcDbSpline
 70
8
 71
3
 72
8
 73
4
 74
0
 40
0
 40
0
 40
0
 40
0
 40
1
 40
1
 40
1
 40
1
 10
38.428458
 20
8.590968
 30
0.0
 10
39.149439
 20
9.400488
 30
0.0
 10
39.509930
 20
10.611611
 30
0.0
 10
39.509930
 20
12.224336
 30
0.0
  0
SPLINE
  5
188
100
AcDbEntity
  8
0
 62
7
100
AcDbSpline
 70
8
 71
3
 72
8
 73
4
 74
0
 40
0
 40
0
 40
0
 40
0
 40
1
 40
1
 40
1
 40
1
 10
39.509930
 20
12.224336
 30
0.0
 10
39.509930
 20
13.818085
 30
0.0
 10
39.158926
 20
15.007075
 30
0.0
 10
38.456917
 20
15.791304
 30
0.0
  0
SPLINE
  5
189
100
AcDbEntity
  8
0
 62
7
100
AcDbSpline
 70
8
 71
3
 72
8
 73
4
 74
0
 40
0
 40
0
 40
0
 40
0
 40
1
 40
1
 40
1
 40
1
 10
38.456917
 20
15.791304
 30
0.0
 10
37.761232
 20
16.575528
 30
0.0
 10
36.834706
 20
16.967640
 30
0.0
 10
35.677340
 20
16.967640
 30
0.0
  0
SPLINE
  5
18a
100
AcDbEntity
  8
0
 62
7
100
AcDbSpline
 70
8
 71
3
 72
8
 73
4
 74
0
 40
0
 40
0
 40
0
 40
0
 40
1
 40
1
 40
1
 40
1
 10
35.677340
 20
16.967640
 30
0.0
 10
34.519974
 20
16.967640
 30
0.0
 10
33.587124
 20
16.569203
 30
0.0
 10
32.878790
 20
15.772328
 30
0.0
  0
SPLINE
  5
18b
100
AcDbEntity
  8
0
 62
7
100
AcDbSpline
 70
8
 71
3
 72
8
 73
4
 74
0
 40
0
 40
0
 40
0
 40
0
 40
1
 40
1
 40
1
 40
1
 10
32.878790
 20
15.772328
 30
0.0
 10
32.170457
 20
14.981779
 30
0.0
 10
31.816290
 20
13.786467
 30
0.0
 10
31.816290
 20
12.186392
 30
0.0
  0
LWPOLYLINE
  5
18c
100
AcDbEntity
  8
0
 62
7
100
AcDbPolyline
 90
2
 70
1
 10
28.922874
 20
12.091520
 30
0.0
 10
28.922874
 20
12.091520
 30
0.0
  0
LWPOLYLINE
  5
18d
100
AcDbEntity
  8
0
 62
7
100
AcDbPolyline
 90
2
 70
1
 10
31.816290
 20
12.186392
 30
0.0
 10
31.816290
 20
12.186392
 30
0.0
  0
SPLINE
  5
18e
100
AcDbEntity
  8
0
 62
7
100
AcDbSpline
 70
8
 71
3
 72
8
 73
4
 74
0
 40
0
 40
0
 40
0
 40
0
 40
1
 40
1
 40
1
 40
1
 10
50.514401
 20
19.130592
 30
0.0
 10
52.000637
 20
19.130592
 30
0.0
 10
53.078948
 20
19.004104
 30
0.0
 10
53.749334
 20
18.751128
 30
0.0
  0
SPLINE
  5
18f
100
AcDbEntity
  8
0
 62
7
100
AcDbSpline
 70
8
 71
3
 72
8
 73
4
 74
0
 40
0
 40
0
 40
0
 40
0
 40
1
 40
1
 40
1
 40
1
 10
53.749334
 20
18.751128
 30
0.0
 10
54.426046
 20
18.504472
 30
0.0
 10
54.966783
 20
18.061763
 30
0.0
 10
55.371545
 20
17.423000
 30
0.0
  0
SPLINE
  5
190
100
AcDbEntity
  8
0
 62
7
100
AcDbSpline
 70
8
 71
3
 72
8
 73
4
 74
0
 40
0
 40
0
 40
0
 40
0
 40
1
 40
1
 40
1
 40
1
 10
55.371545
 20
17.423000
 30
0.0
 10
55.776307
 20
16.784232
 30
0.0
 10
55.978688
 20
16.053763
 30
0.0
 10
55.978688
 20
15.231592
 30
0.0
  0
SPLINE
  5
191
100
AcDbEntity
  8
0
 62
7
100
AcDbSpline
 70
8
 71
3
 72
8
 73
4
 74
0
 40
0
 40
0
 40
0
 40
0
 40
1
 40
1
 40
1
 40
1
 10
55.978688
 20
15.231592
 30
0.0
 10
55.978688
 20
14.188067
 30
0.0
 10
55.671954
 20
13.324784
 30
0.0
 10
55.058487
 20
12.641744
 30
0.0
  0
SPLINE
  5
192
100
AcDbEntity
  8
0
 62
7
100
AcDbSpline
 70
8
 71
3
 72
8
 73
4
 74
0
 40
0
 40
0
 40
0
 40
0
 40
1
 40
1
 40
1
 40
1
 10
55.058487
 20
12.641744
 30
0.0
 10
54.445019
 20
11.965035
 30
0.0
 10
53.527981
 20
11.538139
 30
0.0
 10
52.307370
 20
11.361056
 30
0.0
  0
SPLINE
  5
193
100
AcDbEntity
  8
0
 62
7
100
AcDbSpline
 70
8
 71
3
 72
8
 73
4
 74
0
 40
0
 40
0
 40
0
 40
0
 40
1
 40
1
 40
1
 40
1
 10
52.307370
 20
11.361056
 30
0.0
 10
52.914513
 20
11.006891
 30
0.0
 10
53.414141
 20
10.617939
 30
0.0
 10
53.806254
 20
10.194200
 30
0.0
  0
SPLINE
  5
194
100
AcDbEntity
  8
0
 62
7
100
AcDbSpline
 70
8
 71
3
 72
8
 73
4
 74
0
 40
0
 40
0
 40
0
 40
0
 40
1
 40
1
 40
1
 40
1
 10
53.806254
 20
10.194200
 30
0.0
 10
54.204692
 20
9.770467
 30
0.0
 10
54.739105
 20
9.017864
 30
0.0
 10
55.409492
 20
7.936392
 30
0.0
  0
LWPOLYLINE
  5
195
100
AcDbEntity
  8
0
 62
7
100
AcDbPolyline
 90
3
 70
1
 10
44.604242
 20
5.223216
 30
0.0
 10
44.604242
 20
19.130592
 30
0.0
 10
50.514401
 20
19.130592
 30
0.0
  0
SPLINE
  5
196
100
AcDbEntity
  8
0
 62
7
100
AcDbSpline
 70
8
 71
3
 72
8
 73
4
 74
0
 40
0
 40
0
 40
0
 40
0
 40
1
 40
1
 40
1
 40
1
 10
51.719200
 20
8.249448
 30
0.0
 10
50.998218
 20
9.330920
 30
0.0
 10
50.504914
 20
10.010792
 30
0.0
 10
50.239289
 20
10.289064
 30
0.0
  0
SPLINE
  5
197
100
AcDbEntity
  8
0
 62
7
100
AcDbSpline
 70
8
 71
3
 72
8
 73
4
 74
0
 40
0
 40
0
 40
0
 40
0
 40
1
 40
1
 40
1
 40
1
 10
50.239289
 20
10.289064
 30
0.0
 10
49.973664
 20
10.573667
 30
0.0
 10
49.692228
 20
10.766563
 30
0.0
 10
49.394981
 20
10.867752
 30
0.0
  0
SPLINE
  5
198
100
AcDbEntity
  8
0
 62
7
100
AcDbSpline
 70
8
 71
3
 72
8
 73
4
 74
0
 40
0
 40
0
 40
0
 40
0
 40
1
 40
1
 40
1
 40
1
 10
49.394981
 20
10.867752
 30
0.0
 10
49.097733
 20
10.975267
 30
0.0
 10
48.626565
 20
11.029024
 30
0.0
 10
47.981476
 20
11.029024
 30
0.0
  0
LWPOLYLINE
  5
199
100
AcDbEntity
  8
0
 62
7
100
AcDbPolyline
 90
4
 70
1
 10
55.409492
 20
7.936392
 30
0.0
 10
57.107595
 20
5.223216
 30
0.0
 10
53.749334
 20
5.223216
 30
0.0
 10
51.719200
 20
8.249448
 30
0.0
  0
LWPOLYLINE
  5
19a
100
AcDbEntity
  8
0
 62
7
100
AcDbPolyline
 90
5
 70
1
 10
47.981476
 20
11.029024
 30
0.0
 10
47.412279
 20
11.029024
 30
0.0
 10
47.412279
 20
5.223216
 30
0.0
 10
44.604242
 20
5.223216
 30
0.0
 10
44.604242
 20
5.223216
 30
0.0
  0
SPLINE
  5
19b
100
AcDbEntity
  8
0
 62
7
100
AcDbSpline
 70
8
 71
3
 72
8
 73
4
 74
0
 40
0
 40
0
 40
0
 40
0
 40
1
 40
1
 40
1
 40
1
 10
49.489846
 20
13.248888
 30
0.0
 10
50.836945
 20
13.248888
 30
0.0
 10
51.678091
 20
13.305808
 30
0.0
 10
52.013285
 20
13.419648
 30
0.0
  0
SPLINE
  5
19c
100
AcDbEntity
  8
0
 62
7
100
AcDbSpline
 70
8
 71
3
 72
8
 73
4
 74
0
 40
0
 40
0
 40
0
 40
0
 40
1
 40
1
 40
1
 40
1
 10
52.013285
 20
13.419648
 30
0.0
 10
52.348478
 20
13.533488
 30
0.0
 10
52.610941
 20
13.729544
 30
0.0
 10
52.800674
 20
14.007816
 30
0.0
  0
SPLINE
  5
19d
100
AcDbEntity
  8
0
 62
7
100
AcDbSpline
 70
8
 71
3
 72
8
 73
4
 74
0
 40
0
 40
0
 40
0
 40
0
 40
1
 40
1
 40
1
 40
1
 10
52.800674
 20
14.007816
 30
0.0
 10
52.990406
 20
14.286093
 30
0.0
 10
53.085272
 20
14.633936
 30
0.0
 10
53.085272
 20
15.051344
 30
0.0
  0
SPLINE
  5
19e
100
AcDbEntity
  8
0
 62
7
100
AcDbSpline
 70
8
 71
3
 72
8
 73
4
 74
0
 40
0
 40
0
 40
0
 40
0
 40
1
 40
1
 40
1
 40
1
 10
53.085272
 20
15.051344
 30
0.0
 10
53.085272
 20
15.519349
 30
0.0
 10
52.958784
 20
15.895653
 30
0.0
 10
52.705808
 20
16.180256
 30
0.0
  0
SPLINE
  5
19f
100
AcDbEntity
  8
0
 62
7
100
AcDbSpline
 70
8
 71
3
 72
8
 73
4
 74
0
 40
0
 40
0
 40
0
 40
0
 40
1
 40
1
 40
1
 40
1
 10
52.705808
 20
16.180256
 30
0.0
 10
52.459156
 20
16.471179
 30
0.0
 10
52.108151
 20
16.654587
 30
0.0
 10
51.652794
 20
16.730480
 30
0.0
  0
SPLINE
  5
1a0
100
AcDbEntity
  8
0
 62
7
100
AcDbSpline
 70
8
 71
3
 72
8
 73
4
 74
0
 40
0
 40
0
 40
0
 40
0
 40
1
 40
1
 40
1
 40
1
 10
51.652794
 20
16.730480
 30
0.0
 10
51.425115
 20
16.762107
 30
0.0
 10
50.742079
 20
16.777920
 30
0.0
 10
49.603686
 20
16.777920
 30
0.0
  0
LWPOLYLINE
  5
1a1
100
AcDbEntity
  8
0
 62
7
100
AcDbPolyline
 90
2
 70
1
 10
47.412279
 20
13.248888
 30
0.0
 10
49.489846
 20
13.248888
 30
0.0
  0
LWPOLYLINE
  5
1a2
100
AcDbEntity
  8
0
 62
7
100
AcDbPolyline
 90
4
 70
1
 10
49.603686
 20
16.777920
 30
0.0
 10
47.412279
 20
16.777920
 30
0.0
 10
47.412279
 20
13.248896
 30
0.0
 10
47.412279
 20
13.248888
 30
0.0
  0
LWPOLYLINE
  5
1a3
100
AcDbEntity
  8
0
 62
7
100
AcDbPolyline
 90
10
 70
1
 10
61.765517
 20
5.223216
 30
0.0
 10
61.765517
 20
16.777912
 30
0.0
 10
57.638841
 20
16.777912
 30
0.0
 10
57.638841
 20
19.130592
 30
0.0
 10
68.690742
 20
19.130592
 30
0.0
 10
68.690742
 20
16.777912
 30
0.0
 10
64.573554
 20
16.777912
 30
0.0
 10
64.573554
 20
5.223216
 30
0.0
 10
61.765517
 20
5.223216
 30
0.0
 10
61.765517
 20
5.223216
 30
0.0
  0
SPLINE
  5
1a4
100
AcDbEntity
  8
0
 62
7
100
AcDbSpline
 70
8
 71
3
 72
8
 73
4
 74
0
 40
0
 40
0
 40
0
 40
0
 40
1
 40
1
 40
1
 40
1
 10
72.494878
 20
10.013960
 30
0.0
 10
72.659312
 20
9.096920
 30
0.0
 10
72.991344
 20
8.423371
 30
0.0
 10
73.490972
 20
7.993312
 30
0.0
  0
SPLINE
  5
1a5
100
AcDbEntity
  8
0
 62
7
100
AcDbSpline
 70
8
 71
3
 72
8
 73
4
 74
0
 40
0
 40
0
 40
0
 40
0
 40
1
 40
1
 40
1
 40
1
 10
73.490972
 20
7.993312
 30
0.0
 10
73.996925
 20
7.563248
 30
0.0
 10
74.676798
 20
7.348216
 30
0.0
 10
75.530593
 20
7.348216
 30
0.0
  0
SPLINE
  5
1a6
100
AcDbEntity
  8
0
 62
7
100
AcDbSpline
 70
8
 71
3
 72
8
 73
4
 74
0
 40
0
 40
0
 40
0
 40
0
 40
1
 40
1
 40
1
 40
1
 10
75.530593
 20
7.348216
 30
0.0
 10
76.434983
 20
7.348216
 30
0.0
 10
77.114857
 20
7.537949
 30
0.0
 10
77.570214
 20
7.917416
 30
0.0
  0
SPLINE
  5
1a7
100
AcDbEntity
  8
0
 62
7
100
AcDbSpline
 70
8
 71
3
 72
8
 73
4
 74
0
 40
0
 40
0
 40
0
 40
0
 40
1
 40
1
 40
1
 40
1
 10
77.570214
 20
7.917416
 30
0.0
 10
78.031896
 20
8.303203
 30
0.0
 10
78.262737
 20
8.752235
 30
0.0
 10
78.262737
 20
9.264512
 30
0.0
  0
SPLINE
  5
1a8
100
AcDbEntity
  8
0
 62
7
100
AcDbSpline
 70
8
 71
3
 72
8
 73
4
 74
0
 40
0
 40
0
 40
0
 40
0
 40
1
 40
1
 40
1
 40
1
 10
78.262737
 20
9.264512
 30
0.0
 10
78.262737
 20
9.593381
 30
0.0
 10
78.164709
 20
9.871656
 30
0.0
 10
77.968652
 20
10.099336
 30
0.0
  0
SPLINE
  5
1a9
100
AcDbEntity
  8
0
 62
7
100
AcDbSpline
 70
8
 71
3
 72
8
 73
4
 74
0
 40
0
 40
0
 40
0
 40
0
 40
1
 40
1
 40
1
 40
1
 10
77.968652
 20
10.099336
 30
0.0
 10
77.778920
 20
10.333341
 30
0.0
 10
77.443726
 20
10.535723
 30
0.0
 10
76.963071
 20
10.706480
 30
0.0
  0
SPLINE
  5
1aa
100
AcDbEntity
  8
0
 62
7
100
AcDbSpline
 70
8
 71
3
 72
8
 73
4
 74
0
 40
0
 40
0
 40
0
 40
0
 40
1
 40
1
 40
1
 40
1
 10
76.963071
 20
10.706480
 30
0.0
 10
76.634202
 20
10.820320
 30
0.0
 10
75.884760
 20
11.022701
 30
0.0
 10
74.714745
 20
11.313624
 30
0.0
  0
SPLINE
  5
1ab
100
AcDbEntity
  8
0
 62
7
100
AcDbSpline
 70
8
 71
3
 72
8
 73
4
 74
0
 40
0
 40
0
 40
0
 40
0
 40
1
 40
1
 40
1
 40
1
 10
74.714745
 20
11.313624
 30
0.0
 10
73.209536
 20
11.686760
 30
0.0
 10
72.153360
 20
12.145280
 30
0.0
 10
71.546217
 20
12.689184
 30
0.0
  0
SPLINE
  5
1ac
100
AcDbEntity
  8
0
 62
7
100
AcDbSpline
 70
8
 71
3
 72
8
 73
4
 74
0
 40
0
 40
0
 40
0
 40
0
 40
1
 40
1
 40
1
 40
1
 10
71.546217
 20
12.689184
 30
0.0
 10
70.692422
 20
13.454437
 30
0.0
 10
70.265524
 20
14.387285
 30
0.0
 10
70.265524
 20
15.487728
 30
0.0
  0
SPLINE
  5
1ad
100
AcDbEntity
  8
0
 62
7
100
AcDbSpline
 70
8
 71
3
 72
8
 73
4
 74
0
 40
0
 40
0
 40
0
 40
0
 40
1
 40
1
 40
1
 40
1
 10
70.265524
 20
15.487728
 30
0.0
 10
70.265524
 20
16.196064
 30
0.0
 10
70.464743
 20
16.856965
 30
0.0
 10
70.863181
 20
17.470432
 30
0.0
  0
SPLINE
  5
1ae
100
AcDbEntity
  8
0
 62
7
100
AcDbSpline
 70
8
 71
3
 72
8
 73
4
 74
0
 40
0
 40
0
 40
0
 40
0
 40
1
 40
1
 40
1
 40
1
 10
70.863181
 20
17.470432
 30
0.0
 10
71.267943
 20
18.090224
 30
0.0
 10
71.846626
 20
18.561392
 30
0.0
 10
72.599230
 20
18.883936
 30
0.0
  0
SPLINE
  5
1af
100
AcDbEntity
  8
0
 62
7
100
AcDbSpline
 70
8
 71
3
 72
8
 73
4
 74
0
 40
0
 40
0
 40
0
 40
0
 40
1
 40
1
 40
1
 40
1
 10
72.599230
 20
18.883936
 30
0.0
 10
73.358159
 20
19.206480
 30
0.0
 10
74.272036
 20
19.367752
 30
0.0
 10
75.340861
 20
19.367752
 30
0.0
  0
SPLINE
  5
1b0
100
AcDbEntity
  8
0
 62
7
100
AcDbSpline
 70
8
 71
3
 72
8
 73
4
 74
0
 40
0
 40
0
 40
0
 40
0
 40
1
 40
1
 40
1
 40
1
 10
75.340861
 20
19.367752
 30
0.0
 10
77.086397
 20
19.367752
 30
0.0
 10
78.398712
 20
18.985125
 30
0.0
 10
79.277804
 20
18.219872
 30
0.0
  0
SPLINE
  5
1b1
100
AcDbEntity
  8
0
 62
7
100
AcDbSpline
 70
8
 71
3
 72
8
 73
4
 74
0
 40
0
 40
0
 40
0
 40
0
 40
1
 40
1
 40
1
 40
1
 10
79.277804
 20
18.219872
 30
0.0
 10
80.163220
 20
17.454619
 30
0.0
 10
80.628064
 20
16.433227
 30
0.0
 10
80.672336
 20
15.155696
 30
0.0
  0
LWPOLYLINE
  5
1b2
100
AcDbEntity
  8
0
 62
7
100
AcDbPolyline
 90
2
 70
1
 10
69.762734
 20
9.748328
 30
0.0
 10
72.494878
 20
10.013960
 30
0.0
  0
SPLINE
  5
1b3
100
AcDbEntity
  8
0
 62
7
100
AcDbSpline
 70
8
 71
3
 72
8
 73
4
 74
0
 40
0
 40
0
 40
0
 40
0
 40
1
 40
1
 40
1
 40
1
 10
77.864299
 20
15.032376
 30
0.0
 10
77.744135
 20
15.747032
 30
0.0
 10
77.484835
 20
16.259307
 30
0.0
 10
77.086397
 20
16.569200
 30
0.0
  0
SPLINE
  5
1b4
100
AcDbEntity
  8
0
 62
7
100
AcDbSpline
 70
8
 71
3
 72
8
 73
4
 74
0
 40
0
 40
0
 40
0
 40
0
 40
1
 40
1
 40
1
 40
1
 10
77.086397
 20
16.569200
 30
0.0
 10
76.694284
 20
16.885424
 30
0.0
 10
76.102952
 20
17.043536
 30
0.0
 10
75.312401
 20
17.043536
 30
0.0
  0
SPLINE
  5
1b5
100
AcDbEntity
  8
0
 62
7
100
AcDbSpline
 70
8
 71
3
 72
8
 73
4
 74
0
 40
0
 40
0
 40
0
 40
0
 40
1
 40
1
 40
1
 40
1
 10
75.312401
 20
17.043536
 30
0.0
 10
74.496552
 20
17.043536
 30
0.0
 10
73.857787
 20
16.875939
 30
0.0
 10
73.396106
 20
16.540744
 30
0.0
  0
SPLINE
  5
1b6
100
AcDbEntity
  8
0
 62
7
100
AcDbSpline
 70
8
 71
3
 72
8
 73
4
 74
0
 40
0
 40
0
 40
0
 40
0
 40
1
 40
1
 40
1
 40
1
 10
73.396106
 20
16.540744
 30
0.0
 10
73.098859
 20
16.325715
 30
0.0
 10
72.950235
 20
16.037955
 30
0.0
 10
72.950235
 20
15.677464
 30
0.0
  0
SPLINE
  5
1b7
100
AcDbEntity
  8
0
 62
7
100
AcDbSpline
 70
8
 71
3
 72
8
 73
4
 74
0
 40
0
 40
0
 40
0
 40
0
 40
1
 40
1
 40
1
 40
1
 10
72.950235
 20
15.677464
 30
0.0
 10
72.950235
 20
15.348595
 30
0.0
 10
73.089372
 20
15.067157
 30
0.0
 10
73.367646
 20
14.833152
 30
0.0
  0
SPLINE
  5
1b8
100
AcDbEntity
  8
0
 62
7
100
AcDbSpline
 70
8
 71
3
 72
8
 73
4
 74
0
 40
0
 40
0
 40
0
 40
0
 40
1
 40
1
 40
1
 40
1
 10
73.367646
 20
14.833152
 30
0.0
 10
73.721813
 20
14.535904
 30
0.0
 10
74.581932
 20
14.226008
 30
0.0
 10
75.948004
 20
13.903464
 30
0.0
  0
SPLINE
  5
1b9
100
AcDbEntity
  8
0
 62
7
100
AcDbSpline
 70
8
 71
3
 72
8
 73
4
 74
0
 40
0
 40
0
 40
0
 40
0
 40
1
 40
1
 40
1
 40
1
 10
75.948004
 20
13.903464
 30
0.0
 10
77.314076
 20
13.580920
 30
0.0
 10
78.322819
 20
13.245728
 30
0.0
 10
78.974233
 20
12.897888
 30
0.0
  0
SPLINE
  5
1ba
100
AcDbEntity
  8
0
 62
7
100
AcDbSpline
 70
8
 71
3
 72
8
 73
4
 74
0
 40
0
 40
0
 40
0
 40
0
 40
1
 40
1
 40
1
 40
1
 10
78.974233
 20
12.897888
 30
0.0
 10
79.631971
 20
12.556368
 30
0.0
 10
80.144248
 20
12.085200
 30
0.0
 10
80.511064
 20
11.484384
 30
0.0
  0
SPLINE
  5
1bb
100
AcDbEntity
  8
0
 62
7
100
AcDbSpline
 70
8
 71
3
 72
8
 73
4
 74
0
 40
0
 40
0
 40
0
 40
0
 40
1
 40
1
 40
1
 40
1
 10
80.511064
 20
11.484384
 30
0.0
 10
80.884205
 20
10.889888
 30
0.0
 10
81.070776
 20
10.153093
 30
0.0
 10
81.070776
 20
9.274000
 30
0.0
  0
SPLINE
  5
1bc
100
AcDbEntity
  8
0
 62
7
100
AcDbSpline
 70
8
 71
3
 72
8
 73
4
 74
0
 40
0
 40
0
 40
0
 40
0
 40
1
 40
1
 40
1
 40
1
 10
81.070776
 20
9.274000
 30
0.0
 10
81.070776
 20
8.477125
 30
0.0
 10
80.849421
 20
7.730845
 30
0.0
 10
80.406712
 20
7.035160
 30
0.0
  0
SPLINE
  5
1bd
100
AcDbEntity
  8
0
 62
7
100
AcDbSpline
 70
8
 71
3
 72
8
 73
4
 74
0
 40
0
 40
0
 40
0
 40
0
 40
1
 40
1
 40
1
 40
1
 10
80.406712
 20
7.035160
 30
0.0
 10
79.964003
 20
6.339475
 30
0.0
 10
79.337886
 20
5.820875
 30
0.0
 10
78.528362
 20
5.479360
 30
0.0
  0
SPLINE
  5
1be
100
AcDbEntity
  8
0
 62
7
100
AcDbSpline
 70
8
 71
3
 72
8
 73
4
 74
0
 40
0
 40
0
 40
0
 40
0
 40
1
 40
1
 40
1
 40
1
 10
78.528362
 20
5.479360
 30
0.0
 10
77.718838
 20
5.144165
 30
0.0
 10
76.710095
 20
4.976568
 30
0.0
 10
75.502133
 20
4.976568
 30
0.0
  0
SPLINE
  5
1bf
100
AcDbEntity
  8
0
 62
7
100
AcDbSpline
 70
8
 71
3
 72
8
 73
4
 74
0
 40
0
 40
0
 40
0
 40
0
 40
1
 40
1
 40
1
 40
1
 10
75.502133
 20
4.976568
 30
0.0
 10
73.743948
 20
4.976568
 30
0.0
 10
72.393687
 20
5.381331
 30
0.0
 10
71.451350
 20
6.190856
 30
0.0
  0
SPLINE
  5
1c0
100
AcDbEntity
  8
0
 62
7
100
AcDbSpline
 70
8
 71
3
 72
8
 73
4
 74
0
 40
0
 40
0
 40
0
 40
0
 40
1
 40
1
 40
1
 40
1
 10
71.451350
 20
6.190856
 30
0.0
 10
70.509014
 20
7.006701
 30
0.0
 10
69.946142
 20
8.192525
 30
0.0
 10
69.762734
 20
9.748328
 30
0.0
  0
LWPOLYLINE
  5
1c1
100
AcDbEntity
  8
0
 62
7
100
AcDbPolyline
 90
2
 70
1
 10
80.672336
 20
15.155696
 30
0.0
 10
77.864299
 20
15.032376
 30
0.0
  0
LWPOLYLINE
  5
1c2
100
AcDbEntity
  8
0
 62
7
100
AcDbPolyline
 90
2
 70
1
 10
69.762734
 20
9.748328
 30
0.0
 10
69.762734
 20
9.748328
 30
0.0
  0
SPLINE
  5
1c3
100
AcDbEntity
  8
0
 62
7
100
AcDbSpline
 70
8
 71
3
 72
8
 73
4
 74
0
 40
0
 40
0
 40
0
 40
0
 40
1
 40
1
 40
1
 40
1
 10
100.461408
 20
9.473216
 30
0.0
 10
100.043995
 20
7.955360
 30
0.0
 10
99.348309
 20
6.826453
 30
0.0
 10
98.374352
 20
6.086496
 30
0.0
  0
SPLINE
  5
1c4
100
AcDbEntity
  8
0
 62
7
100
AcDbSpline
 70
8
 71
3
 72
8
 73
4
 74
0
 40
0
 40
0
 40
0
 40
0
 40
1
 40
1
 40
1
 40
1
 10
98.374352
 20
6.086496
 30
0.0
 10
97.406715
 20
5.352869
 30
0.0
 10
96.176616
 20
4.986056
 30
0.0
 10
94.684056
 20
4.986056
 30
0.0
  0
SPLINE
  5
1c5
100
AcDbEntity
  8
0
 62
7
100
AcDbSpline
 70
8
 71
3
 72
8
 73
4
 74
0
 40
0
 40
0
 40
0
 40
0
 40
1
 40
1
 40
1
 40
1
 10
94.684056
 20
4.986056
 30
0.0
 10
92.837331
 20
4.986056
 30
0.0
 10
91.319475
 20
5.615333
 30
0.0
 10
90.130488
 20
6.873888
 30
0.0
  0
SPLINE
  5
1c6
100
AcDbEntity
  8
0
 62
7
100
AcDbSpline
 70
8
 71
3
 72
8
 73
4
 74
0
 40
0
 40
0
 40
0
 40
0
 40
1
 40
1
 40
1
 40
1
 10
90.130488
 20
6.873888
 30
0.0
 10
88.941496
 20
8.138768
 30
0.0
 10
88.347000
 20
9.865331
 30
0.0
 10
88.347000
 20
12.053576
 30
0.0
  0
SPLINE
  5
1c7
100
AcDbEntity
  8
0
 62
7
100
AcDbSpline
 70
8
 71
3
 72
8
 73
4
 74
0
 40
0
 40
0
 40
0
 40
0
 40
1
 40
1
 40
1
 40
1
 10
88.347000
 20
12.053576
 30
0.0
 10
88.347000
 20
14.368312
 30
0.0
 10
88.944656
 20
16.164445
 30
0.0
 10
90.139968
 20
17.441976
 30
0.0
  0
SPLINE
  5
1c8
100
AcDbEntity
  8
0
 62
7
100
AcDbSpline
 70
8
 71
3
 72
8
 73
4
 74
0
 40
0
 40
0
 40
0
 40
0
 40
1
 40
1
 40
1
 40
1
 10
90.139968
 20
17.441976
 30
0.0
 10
91.335285
 20
18.725827
 30
0.0
 10
92.906901
 20
19.367752
 30
0.0
 10
94.854816
 20
19.367752
 30
0.0
  0
SPLINE
  5
1c9
100
AcDbEntity
  8
0
 62
7
100
AcDbSpline
 70
8
 71
3
 72
8
 73
4
 74
0
 40
0
 40
0
 40
0
 40
0
 40
1
 40
1
 40
1
 40
1
 10
94.854816
 20
19.367752
 30
0.0
 10
96.556080
 20
19.367752
 30
0.0
 10
97.937963
 20
18.864963
 30
0.0
 10
99.000464
 20
17.859384
 30
0.0
  0
SPLINE
  5
1ca
100
AcDbEntity
  8
0
 62
7
100
AcDbSpline
 70
8
 71
3
 72
8
 73
4
 74
0
 40
0
 40
0
 40
0
 40
0
 40
1
 40
1
 40
1
 40
1
 10
99.000464
 20
17.859384
 30
0.0
 10
99.632907
 20
17.264888
 30
0.0
 10
100.107237
 20
16.411093
 30
0.0
 10
100.423456
 20
15.298000
 30
0.0
  0
LWPOLYLINE
  5
1cb
100
AcDbEntity
  8
0
 62
7
100
AcDbPolyline
 90
2
 70
1
 10
97.738744
 20
10.336504
 30
0.0
 10
100.461408
 20
9.473216
 30
0.0
  0
SPLINE
  5
1cc
100
AcDbEntity
  8
0
 62
7
100
AcDbSpline
 70
8
 71
3
 72
8
 73
4
 74
0
 40
0
 40
0
 40
0
 40
0
 40
1
 40
1
 40
1
 40
1
 10
97.643880
 20
14.633936
 30
0.0
 10
97.479448
 20
15.354917
 30
0.0
 10
97.134768
 20
15.924115
 30
0.0
 10
96.609840
 20
16.341528
 30
0.0
  0
SPLINE
  5
1cd
100
AcDbEntity
  8
0
 62
7
100
AcDbSpline
 70
8
 71
3
 72
8
 73
4
 74
0
 40
0
 40
0
 40
0
 40
0
 40
1
 40
1
 40
1
 40
1
 10
96.609840
 20
16.341528
 30
0.0
 10
96.091237
 20
16.758936
 30
0.0
 10
95.458797
 20
16.967640
 30
0.0
 10
94.712520
 20
16.967640
 30
0.0
  0
SPLINE
  5
1ce
100
AcDbEntity
  8
0
 62
7
100
AcDbSpline
 70
8
 71
3
 72
8
 73
4
 74
0
 40
0
 40
0
 40
0
 40
0
 40
1
 40
1
 40
1
 40
1
 10
94.712520
 20
16.967640
 30
0.0
 10
93.681640
 20
16.967640
 30
0.0
 10
92.843656
 20
16.597664
 30
0.0
 10
92.198568
 20
15.857712
 30
0.0
  0
SPLINE
  5
1cf
100
AcDbEntity
  8
0
 62
7
100
AcDbSpline
 70
8
 71
3
 72
8
 73
4
 74
0
 40
0
 40
0
 40
0
 40
0
 40
1
 40
1
 40
1
 40
1
 10
92.198568
 20
15.857712
 30
0.0
 10
91.559800
 20
15.117755
 30
0.0
 10
91.240416
 20
13.919277
 30
0.0
 10
91.240416
 20
12.262280
 30
0.0
  0
SPLINE
  5
1d0
100
AcDbEntity
  8
0
 62
7
100
AcDbSpline
 70
8
 71
3
 72
8
 73
4
 74
0
 40
0
 40
0
 40
0
 40
0
 40
1
 40
1
 40
1
 40
1
 10
91.240416
 20
12.262280
 30
0.0
 10
91.240416
 20
10.504099
 30
0.0
 10
91.556637
 20
9.251867
 30
0.0
 10
92.189080
 20
8.505584
 30
0.0
  0
SPLINE
  5
1d1
100
AcDbEntity
  8
0
 62
7
100
AcDbSpline
 70
8
 71
3
 72
8
 73
4
 74
0
 40
0
 40
0
 40
0
 40
0
 40
1
 40
1
 40
1
 40
1
 10
92.189080
 20
8.505584
 30
0.0
 10
92.821523
 20
7.759307
 30
0.0
 10
93.643696
 20
7.386168
 30
0.0
 10
94.655600
 20
7.386168
 30
0.0
  0
SPLINE
  5
1d2
100
AcDbEntity
  8
0
 62
7
100
AcDbSpline
 70
8
 71
3
 72
8
 73
4
 74
0
 40
0
 40
0
 40
0
 40
0
 40
1
 40
1
 40
1
 40
1
 10
94.655600
 20
7.386168
 30
0.0
 10
95.401877
 20
7.386168
 30
0.0
 10
96.043805
 20
7.623333
 30
0.0
 10
96.581384
 20
8.097664
 30
0.0
  0
SPLINE
  5
1d3
100
AcDbEntity
  8
0
 62
7
100
AcDbSpline
 70
8
 71
3
 72
8
 73
4
 74
0
 40
0
 40
0
 40
0
 40
0
 40
1
 40
1
 40
1
 40
1
 10
96.581384
 20
8.097664
 30
0.0
 10
97.118957
 20
8.571995
 30
0.0
 10
97.504744
 20
9.318275
 30
0.0
 10
97.738744
 20
10.336504
 30
0.0
  0
LWPOLYLINE
  5
1d4
100
AcDbEntity
  8
0
 62
7
100
AcDbPolyline
 90
2
 70
1
 10
100.423456
 20
15.298000
 30
0.0
 10
97.643880
 20
14.633936
 30
0.0
  0
SPLINE
  5
1d5
100
AcDbEntity
  8
0
 62
7
100
AcDbSpline
 70
8
 71
3
 72
8
 73
4
 74
0
 40
0
 40
0
 40
0
 40
0
 40
1
 40
1
 40
1
 40
1
 10
102.311296
 20
12.091520
 30
0.0
 10
102.311296
 20
13.508192
 30
0.0
 10
102.523163
 20
14.697181
 30
0.0
 10
102.946896
 20
15.658488
 30
0.0
  0
SPLINE
  5
1d6
100
AcDbEntity
  8
0
 62
7
100
AcDbSpline
 70
8
 71
3
 72
8
 73
4
 74
0
 40
0
 40
0
 40
0
 40
0
 40
1
 40
1
 40
1
 40
1
 10
102.946896
 20
15.658488
 30
0.0
 10
103.263120
 20
16.366824
 30
0.0
 10
103.693181
 20
17.002427
 30
0.0
 10
104.237080
 20
17.565296
 30
0.0
  0
SPLINE
  5
1d7
100
AcDbEntity
  8
0
 62
7
100
AcDbSpline
 70
8
 71
3
 72
8
 73
4
 74
0
 40
0
 40
0
 40
0
 40
0
 40
1
 40
1
 40
1
 40
1
 10
104.237080
 20
17.565296
 30
0.0
 10
104.787304
 20
18.128171
 30
0.0
 10
105.388123
 20
18.545581
 30
0.0
 10
106.039536
 20
18.817528
 30
0.0
  0
SPLINE
  5
1d8
100
AcDbEntity
  8
0
 62
7
100
AcDbSpline
 70
8
 71
3
 72
8
 73
4
 74
0
 40
0
 40
0
 40
0
 40
0
 40
1
 40
1
 40
1
 40
1
 10
106.039536
 20
18.817528
 30
0.0
 10
106.905979
 20
19.184344
 30
0.0
 10
107.905235
 20
19.367752
 30
0.0
 10
109.037304
 20
19.367752
 30
0.0
  0
SPLINE
  5
1d9
100
AcDbEntity
  8
0
 62
7
100
AcDbSpline
 70
8
 71
3
 72
8
 73
4
 74
0
 40
0
 40
0
 40
0
 40
0
 40
1
 40
1
 40
1
 40
1
 10
109.037304
 20
19.367752
 30
0.0
 10
111.086408
 20
19.367752
 30
0.0
 10
112.724429
 20
18.732149
 30
0.0
 10
113.951368
 20
17.460944
 30
0.0
  0
SPLINE
  5
1da
100
AcDbEntity
  8
0
 62
7
100
AcDbSpline
 70
8
 71
3
 72
8
 73
4
 74
0
 40
0
 40
0
 40
0
 40
0
 40
1
 40
1
 40
1
 40
1
 10
113.951368
 20
17.460944
 30
0.0
 10
115.184627
 20
16.189739
 30
0.0
 10
115.801256
 20
14.422067
 30
0.0
 10
115.801256
 20
12.157928
 30
0.0
  0
SPLINE
  5
1db
100
AcDbEntity
  8
0
 62
7
100
AcDbSpline
 70
8
 71
3
 72
8
 73
4
 74
0
 40
0
 40
0
 40
0
 40
0
 40
1
 40
1
 40
1
 40
1
 10
115.801256
 20
12.157928
 30
0.0
 10
115.801256
 20
9.912765
 30
0.0
 10
115.190949
 20
8.154581
 30
0.0
 10
113.970336
 20
6.883376
 30
0.0
  0
SPLINE
  5
1dc
100
AcDbEntity
  8
0
 62
7
100
AcDbSpline
 70
8
 71
3
 72
8
 73
4
 74
0
 40
0
 40
0
 40
0
 40
0
 40
1
 40
1
 40
1
 40
1
 10
113.970336
 20
6.883376
 30
0.0
 10
112.749728
 20
5.618496
 30
0.0
 10
111.118032
 20
4.986056
 30
0.0
 10
109.075248
 20
4.986056
 30
0.0
  0
SPLINE
  5
1dd
100
AcDbEntity
  8
0
 62
7
100
AcDbSpline
 70
8
 71
3
 72
8
 73
4
 74
0
 40
0
 40
0
 40
0
 40
0
 40
1
 40
1
 40
1
 40
1
 10
109.075248
 20
4.986056
 30
0.0
 10
107.007168
 20
4.986056
 30
0.0
 10
105.362821
 20
5.615333
 30
0.0
 10
104.142208
 20
6.873888
 30
0.0
  0
SPLINE
  5
1de
100
AcDbEntity
  8
0
 62
7
100
AcDbSpline
 70
8
 71
3
 72
8
 73
4
 74
0
 40
0
 40
0
 40
0
 40
0
 40
1
 40
1
 40
1
 40
1
 10
104.142208
 20
6.873888
 30
0.0
 10
102.921600
 20
8.138768
 30
0.0
 10
102.311296
 20
9.877979
 30
0.0
 10
102.311296
 20
12.091520
 30
0.0
  0
LWPOLYLINE
  5
1df
100
AcDbEntity
  8
0
 62
7
100
AcDbPolyline
 90
2
 70
1
 10
97.738744
 20
10.336504
 30
0.0
 10
97.738744
 20
10.336504
 30
0.0
  0
SPLINE
  5
1e0
100
AcDbEntity
  8
0
 62
7
100
AcDbSpline
 70
8
 71
3
 72
8
 73
4
 74
0
 40
0
 40
0
 40
0
 40
0
 40
1
 40
1
 40
1
 40
1
 10
105.204712
 20
12.186392
 30
0.0
 10
105.204712
 20
10.611613
 30
0.0
 10
105.568365
 20
9.416299
 30
0.0
 10
106.295672
 20
8.600448
 30
0.0
  0
SPLINE
  5
1e1
100
AcDbEntity
  8
0
 62
7
100
AcDbSpline
 70
8
 71
3
 72
8
 73
4
 74
0
 40
0
 40
0
 40
0
 40
0
 40
1
 40
1
 40
1
 40
1
 10
106.295672
 20
8.600448
 30
0.0
 10
107.022979
 20
7.790928
 30
0.0
 10
107.946341
 20
7.386168
 30
0.0
 10
109.065760
 20
7.386168
 30
0.0
  0
SPLINE
  5
1e2
100
AcDbEntity
  8
0
 62
7
100
AcDbSpline
 70
8
 71
3
 72
8
 73
4
 74
0
 40
0
 40
0
 40
0
 40
0
 40
1
 40
1
 40
1
 40
1
 10
109.065760
 20
7.386168
 30
0.0
 10
110.185179
 20
7.386168
 30
0.0
 10
111.102219
 20
7.787768
 30
0.0
 10
111.816880
 20
8.590968
 30
0.0
  0
SPLINE
  5
1e3
100
AcDbEntity
  8
0
 62
7
100
AcDbSpline
 70
8
 71
3
 72
8
 73
4
 74
0
 40
0
 40
0
 40
0
 40
0
 40
1
 40
1
 40
1
 40
1
 10
111.816880
 20
8.590968
 30
0.0
 10
112.537861
 20
9.400488
 30
0.0
 10
112.898352
 20
10.611611
 30
0.0
 10
112.898352
 20
12.224336
 30
0.0
  0
SPLINE
  5
1e4
100
AcDbEntity
  8
0
 62
7
100
AcDbSpline
 70
8
 71
3
 72
8
 73
4
 74
0
 40
0
 40
0
 40
0
 40
0
 40
1
 40
1
 40
1
 40
1
 10
112.898352
 20
12.224336
 30
0.0
 10
112.898352
 20
13.818085
 30
0.0
 10
112.547347
 20
15.007075
 30
0.0
 10
111.845336
 20
15.791304
 30
0.0
  0
SPLINE
  5
1e5
100
AcDbEntity
  8
0
 62
7
100
AcDbSpline
 70
8
 71
3
 72
8
 73
4
 74
0
 40
0
 40
0
 40
0
 40
0
 40
1
 40
1
 40
1
 40
1
 10
111.845336
 20
15.791304
 30
0.0
 10
111.149651
 20
16.575528
 30
0.0
 10
110.223125
 20
16.967640
 30
0.0
 10
109.065760
 20
16.967640
 30
0.0
  0
SPLINE
  5
1e6
100
AcDbEntity
  8
0
 62
7
100
AcDbSpline
 70
8
 71
3
 72
8
 73
4
 74
0
 40
0
 40
0
 40
0
 40
0
 40
1
 40
1
 40
1
 40
1
 10
109.065760
 20
16.967640
 30
0.0
 10
107.908395
 20
16.967640
 30
0.0
 10
106.975544
 20
16.569203
 30
0.0
 10
106.267208
 20
15.772328
 30
0.0
  0
SPLINE
  5
1e7
100
AcDbEntity
  8
0
 62
7
100
AcDbSpline
 70
8
 71
3
 72
8
 73
4
 74
0
 40
0
 40
0
 40
0
 40
0
 40
1
 40
1
 40
1
 40
1
 10
106.267208
 20
15.772328
 30
0.0
 10
105.558877
 20
14.981779
 30
0.0
 10
105.204712
 20
13.786467
 30
0.0
 10
105.204712
 20
12.186392
 30
0.0
  0
LWPOLYLINE
  5
1e8
100
AcDbEntity
  8
0
 62
7
100
AcDbPolyline
 90
2
 70
1
 10
102.311296
 20
12.091520
 30
0.0
 10
102.311296
 20
12.091520
 30
0.0
  0
LWPOLYLINE
  5
1e9
100
AcDbEntity
  8
0
 62
7
100
AcDbPolyline
 90
2
 70
1
 10
105.204712
 20
12.186392
 30
0.0
 10
105.204712
 20
12.186392
 30
0.0
  0
LWPOLYLINE
  5
1ea
100
AcDbEntity
  8
0
 62
7
100
AcDbPolyline
 90
15
 70
1
 10
117.945232
 20
5.223216
 30
0.0
 10
117.945232
 20
19.130592
 30
0.0
 10
122.147800
 20
19.130592
 30
0.0
 10
124.671240
 20
9.643976
 30
0.0
 10
127.166216
 20
19.130592
 30
0.0
 10
131.378272
 20
19.130592
 30
0.0
 10
131.378272
 20
5.223216
 30
0.0
 10
128.769456
 20
5.223216
 30
0.0
 10
128.769456
 20
16.170768
 30
0.0
 10
126.008848
 20
5.223216
 30
0.0
 10
123.305168
 20
5.223216
 30
0.0
 10
120.554048
 20
16.170768
 30
0.0
 10
120.554048
 20
5.223216
 30
0.0
 10
117.945232
 20
5.223216
 30
0.0
 10
117.945232
 20
5.223216
 30
0.0
  0
SPLINE
  5
1eb
100
AcDbEntity
  8
0
 62
7
100
AcDbSpline
 70
8
 71
3
 72
8
 73
4
 74
0
 40
0
 40
0
 40
0
 40
0
 40
1
 40
1
 40
1
 40
1
 10
138.692440
 20
19.130592
 30
0.0
 10
140.400029
 20
19.130592
 30
0.0
 10
141.513125
 20
19.061021
 30
0.0
 10
142.031728
 20
18.921880
 30
0.0
  0
SPLINE
  5
1ec
100
AcDbEntity
  8
0
 62
7
100
AcDbSpline
 70
8
 71
3
 72
8
 73
4
 74
0
 40
0
 40
0
 40
0
 40
0
 40
1
 40
1
 40
1
 40
1
 10
142.031728
 20
18.921880
 30
0.0
 10
142.828603
 20
18.713176
 30
0.0
 10
143.495827
 20
18.257819
 30
0.0
 10
144.033400
 20
17.555808
 30
0.0
  0
SPLINE
  5
1ed
100
AcDbEntity
  8
0
 62
7
100
AcDbSpline
 70
8
 71
3
 72
8
 73
4
 74
0
 40
0
 40
0
 40
0
 40
0
 40
1
 40
1
 40
1
 40
1
 10
144.033400
 20
17.555808
 30
0.0
 10
144.570979
 20
16.860128
 30
0.0
 10
144.839768
 20
15.958901
 30
0.0
 10
144.839768
 20
14.852128
 30
0.0
  0
SPLINE
  5
1ee
100
AcDbEntity
  8
0
 62
7
100
AcDbSpline
 70
8
 71
3
 72
8
 73
4
 74
0
 40
0
 40
0
 40
0
 40
0
 40
1
 40
1
 40
1
 40
1
 10
144.839768
 20
14.852128
 30
0.0
 10
144.839768
 20
13.998331
 30
0.0
 10
144.684819
 20
13.280509
 30
0.0
 10
144.374920
 20
12.698664
 30
0.0
  0
SPLINE
  5
1ef
100
AcDbEntity
  8
0
 62
7
100
AcDbSpline
 70
8
 71
3
 72
8
 73
4
 74
0
 40
0
 40
0
 40
0
 40
0
 40
1
 40
1
 40
1
 40
1
 10
144.374920
 20
12.698664
 30
0.0
 10
144.065027
 20
12.116819
 30
0.0
 10
143.669752
 20
11.658301
 30
0.0
 10
143.189096
 20
11.323112
 30
0.0
  0
SPLINE
  5
1f0
100
AcDbEntity
  8
0
 62
7
100
AcDbSpline
 70
8
 71
3
 72
8
 73
4
 74
0
 40
0
 40
0
 40
0
 40
0
 40
1
 40
1
 40
1
 40
1
 10
143.189096
 20
11.323112
 30
0.0
 10
142.714765
 20
10.994243
 30
0.0
 10
142.230949
 20
10.776051
 30
0.0
 10
141.737648
 20
10.668536
 30
0.0
  0
SPLINE
  5
1f1
100
AcDbEntity
  8
0
 62
7
100
AcDbSpline
 70
8
 71
3
 72
8
 73
4
 74
0
 40
0
 40
0
 40
0
 40
0
 40
1
 40
1
 40
1
 40
1
 10
141.737648
 20
10.668536
 30
0.0
 10
141.067259
 20
10.535720
 30
0.0
 10
140.096461
 20
10.469312
 30
0.0
 10
138.825256
 20
10.469312
 30
0.0
  0
LWPOLYLINE
  5
1f2
100
AcDbEntity
  8
0
 62
7
100
AcDbPolyline
 90
3
 70
1
 10
134.186304
 20
5.223216
 30
0.0
 10
134.186304
 20
19.130592
 30
0.0
 10
138.692440
 20
19.130592
 30
0.0
  0
LWPOLYLINE
  5
1f3
100
AcDbEntity
  8
0
 62
7
100
AcDbPolyline
 90
5
 70
1
 10
138.825256
 20
10.469312
 30
0.0
 10
136.994336
 20
10.469312
 30
0.0
 10
136.994336
 20
5.223216
 30
0.0
 10
134.186304
 20
5.223216
 30
0.0
 10
134.186304
 20
5.223216
 30
0.0
  0
SPLINE
  5
1f4
100
AcDbEntity
  8
0
 62
7
100
AcDbSpline
 70
8
 71
3
 72
8
 73
4
 74
0
 40
0
 40
0
 40
0
 40
0
 40
1
 40
1
 40
1
 40
1
 10
138.531168
 20
12.831480
 30
0.0
 10
139.637941
 20
12.831480
 30
0.0
 10
140.377899
 20
12.904211
 30
0.0
 10
140.751040
 20
13.049672
 30
0.0
  0
SPLINE
  5
1f5
100
AcDbEntity
  8
0
 62
7
100
AcDbSpline
 70
8
 71
3
 72
8
 73
4
 74
0
 40
0
 40
0
 40
0
 40
0
 40
1
 40
1
 40
1
 40
1
 10
140.751040
 20
13.049672
 30
0.0
 10
141.124176
 20
13.195133
 30
0.0
 10
141.415099
 20
13.422811
 30
0.0
 10
141.623808
 20
13.732704
 30
0.0
  0
SPLINE
  5
1f6
100
AcDbEntity
  8
0
 62
7
100
AcDbSpline
 70
8
 71
3
 72
8
 73
4
 74
0
 40
0
 40
0
 40
0
 40
0
 40
1
 40
1
 40
1
 40
1
 10
141.623808
 20
13.732704
 30
0.0
 10
141.838837
 20
14.042603
 30
0.0
 10
141.946352
 20
14.403096
 30
0.0
 10
141.946352
 20
14.814184
 30
0.0
  0
SPLINE
  5
1f7
100
AcDbEntity
  8
0
 62
7
100
AcDbSpline
 70
8
 71
3
 72
8
 73
4
 74
0
 40
0
 40
0
 40
0
 40
0
 40
1
 40
1
 40
1
 40
1
 10
141.946352
 20
14.814184
 30
0.0
 10
141.946352
 20
15.320136
 30
0.0
 10
141.797728
 20
15.737547
 30
0.0
 10
141.500480
 20
16.066416
 30
0.0
  0
SPLINE
  5
1f8
100
AcDbEntity
  8
0
 62
7
100
AcDbSpline
 70
8
 71
3
 72
8
 73
4
 74
0
 40
0
 40
0
 40
0
 40
0
 40
1
 40
1
 40
1
 40
1
 10
141.500480
 20
16.066416
 30
0.0
 10
141.203232
 20
16.395285
 30
0.0
 10
140.826931
 20
16.600827
 30
0.0
 10
140.371576
 20
16.683040
 30
0.0
  0
SPLINE
  5
1f9
100
AcDbEntity
  8
0
 62
7
100
AcDbSpline
 70
8
 71
3
 72
8
 73
4
 74
0
 40
0
 40
0
 40
0
 40
0
 40
1
 40
1
 40
1
 40
1
 10
140.371576
 20
16.683040
 30
0.0
 10
140.036381
 20
16.746288
 30
0.0
 10
139.362832
 20
16.777912
 30
0.0
 10
138.350928
 20
16.777912
 30
0.0
  0
LWPOLYLINE
  5
1fa
100
AcDbEntity
  8
0
 62
7
100
AcDbPolyline
 90
3
 70
1
 10
136.994336
 20
16.777912
 30
0.0
 10
136.994336
 20
12.831480
 30
0.0
 10
138.531168
 20
12.831480
 30
0.0
  0
LWPOLYLINE
  5
1fb
100
AcDbEntity
  8
0
 62
7
100
AcDbPolyline
 90
3
 70
1
 10
138.350928
 20
16.777912
 30
0.0
 10
136.994336
 20
16.777912
 30
0.0
 10
136.994336
 20
16.777912
 30
0.0
  0
LWPOLYLINE
  5
1fc
100
AcDbEntity
  8
0
 62
7
100
AcDbPolyline
 90
8
 70
1
 10
147.239880
 20
5.223216
 30
0.0
 10
147.239880
 20
19.016752
 30
0.0
 10
150.047920
 20
19.016752
 30
0.0
 10
150.047920
 20
7.566408
 30
0.0
 10
157.030064
 20
7.566408
 30
0.0
 10
157.030064
 20
5.223216
 30
0.0
 10
147.239880
 20
5.223216
 30
0.0
 10
147.239880
 20
5.223216
 30
0.0
  0
LWPOLYLINE
  5
1fd
100
AcDbEntity
  8
0
 62
7
100
AcDbPolyline
 90
14
 70
1
 10
159.041224
 20
5.223216
 30
0.0
 10
159.041224
 20
19.130592
 30
0.0
 10
169.353168
 20
19.130592
 30
0.0
 10
169.353168
 20
16.777912
 30
0.0
 10
161.849256
 20
16.777912
 30
0.0
 10
161.849256
 20
13.694760
 30
0.0
 10
168.831400
 20
13.694760
 30
0.0
 10
168.831400
 20
11.351568
 30
0.0
 10
161.849256
 20
11.351568
 30
0.0
 10
161.849256
 20
7.566408
 30
0.0
 10
169.618792
 20
7.566408
 30
0.0
 10
169.618792
 20
5.223216
 30
0.0
 10
159.041224
 20
5.223216
 30
0.0
 10
159.041224
 20
5.223216
 30
0.0
  0
LWPOLYLINE
  5
1fe
100
AcDbEntity
  8
0
 62
7
100
AcDbPolyline
 90
14
 70
1
 10
170.605400
 20
5.223216
 30
0.0
 10
175.358192
 20
12.480472
 30
0.0
 10
171.051272
 20
19.130592
 30
0.0
 10
174.333640
 20
19.130592
 30
0.0
 10
177.122704
 20
14.662392
 30
0.0
 10
179.854848
 20
19.130592
 30
0.0
 10
183.108752
 20
19.130592
 30
0.0
 10
178.782864
 20
12.376120
 30
0.0
 10
183.535656
 20
5.223216
 30
0.0
 10
180.148936
 20
5.223216
 30
0.0
 10
177.065784
 20
10.032928
 30
0.0
 10
173.973152
 20
5.223216
 30
0.0
 10
170.605400
 20
5.223216
 30
0.0
 10
170.605400
 20
5.223216
 30
0.0
  0
ENDSEC
  0
SECTION
  2
OBJECTS
  0
DICTIONARY
  5
C
330
0
100
AcDbDictionary
  3
ACAD_GROUP
350
D
  3
ACAD_MLINESTYLE
350
17
  0
DICTIONARY
  5
D
330
C
100
AcDbDictionary
  0
DICTIONARY
  5
1A
330
C
100
AcDbDictionary
  0
DICTIONARY
  5
17
330
C
100
AcDbDictionary
  3
STANDARD
350
18
  0
DICTIONARY
  5
19
330
C
100
AcDbDictionary
  0
ENDSEC
  0
EOF
